<svg id="Слой_1" data-name="Слой 1" xmlns="http://www.w3.org/2000/svg" viewBox="0 0 180 210"><defs><style>.cls-1{fill:#fff;}.cls-1,.cls-2,.cls-3,.cls-4,.cls-5{fill-rule:evenodd;}.cls-2{fill:#ebda80;}.cls-3{fill:#ac2927;}.cls-4{fill:#388036;}.cls-5{fill:#2f567d;}</style></defs><title>Монтажная область 101</title><path class="cls-1" d="M130.91,183.64c-23.43,0-33.72,6-40.91,14.37-7.28-8.38-17.62-14.37-40.91-14.37C31,183.64,19,179.08,19,157.3V22H161V157.3C161,179.08,148.86,183.64,130.91,183.64Z"/><path class="cls-2" d="M130.91,183.64c-23.43,0-33.72,6-40.91,14.37-7.28-8.38-17.62-14.37-40.91-14.37C31,183.64,19,179.09,19,157.3V108.65c7.75,3.83,19.39,3.41,26.32-3.78,7.09,7.62,23,9.28,31.53.09,8,8.31,23.36,8.62,29.78.71,7,7.07,22,8.56,30.69-.8,7,6.51,16.23,8.2,23.66,5.06V157.3C161,179.09,148.86,183.64,130.91,183.64Z"/><path class="cls-3" d="M102.71,154.78a36.83,36.83,0,0,0,6.48,2.4c-3.44,3.18-15.34,4.26-19.16-1.45-3.81,6.53-15.42,4.15-18.1.72A10,10,0,0,0,77.59,154c-5.79-.81-12.71-4.5-14-10s-.09-9.25,4-11c0,1.85,2.43,3.2,4.27,5.27-1-7,.35-11.35,3.73-13.27,4.31-2.45,9.8-1.72,12,3-6.51,1.19-8.67,5.66-8.47,8.53.44-1,2.16-5,8-2.74-7.57,8.59-2.79,15.64,3.75,16.69v.31c5.72-1.85,9.24-8.6,2.25-16.69,5.87-2.35,7.6,1.8,8,2.81.2-2.94-2-7.51-8.49-8.73,2.2-4.83,7.71-5.57,12-3.07,3.39,2,4.76,6.38,3.74,13.58,1.84-2.12,4.31-3.5,4.27-5.39,4.1,1.79,5.32,5.56,4,11.25S108.51,154,102.71,154.78ZM91,145.05l-.54,3c-2.63-1.92-3.71-4-3.66-5.8.13-5.21,6.64-5.2,6.64-.38A3.18,3.18,0,0,1,91,145.05Z"/><path class="cls-4" d="M129.19,160.4l-8.59-4.51-1.73,5.52-7.57-5.47c4.26-2.47,7.73-6,8.73-10.35.07-.32.13-.63.19-.94l13.33-.83-4.3,5.29,14.09,2.61-14,3.43Zm-65.28-10A13.62,13.62,0,0,0,68.35,154a9.46,9.46,0,0,0,6.08,8.08c-2.13,3.4-3.85,5.84-3.85,5.84l-4.51-4.75-4.92,7.14-1.73-6.41-14.33,5.19L54,159.89l-7.51-2.8L60,153.72l-3.58-4.57s3,.29,6.93.47C63.52,149.89,63.71,150.15,63.91,150.41Zm45.44,10.48,7.24,5.11-6,2,1.08,7.25L104.59,170,100,174.62l-1.82-11.79C102.46,163.73,106.61,163.19,109.35,160.89Z"/><path class="cls-5" d="M161,128v29.3c0,21.79-12.13,26.34-30.08,26.34-23.43,0-33.72,6-40.91,14.37-7.28-8.38-17.62-14.37-40.91-14.37C31,183.64,19,179.09,19,157.3V128h0V115h0v-6.35c7.75,3.83,19.39,3.41,26.32-3.78,7.09,7.62,23,9.28,31.53.09,8,8.31,23.36,8.62,29.78.71,7,7.07,22,8.56,30.69-.8,7,6.51,16.23,8.2,23.66,5.06V115h0v13Zm-6-10.32c-6.11.49-12.7-1.14-17.28-5.2l-1,.19c-7.37,6.73-21.48,6.59-29.49.28l-.9.15c-6.11,6.07-21,6.2-29.09-.34l-1.33.36c-7.51,6.33-22.84,5.87-30.17-.53l-1.11.1c-4.56,4.07-12.53,5.62-19.64,4.54v6.1h0V158.5c0,16,8.42,19.16,22.86,19.16,18.6,0,32.51,4,42.11,12,9.6-8,23.51-12,42.11-12,14.44,0,22.86-3.2,22.86-19.16V124.34h0ZM138.15,97.89l-2,.27c-7.9,10.1-21.87,9.6-28.72-.17l-1.41.14c-6.27,10.86-21.38,10.56-28.46,0l-1.87.45c-6.66,10.38-21.87,9.24-29.55-.66l-2,.27c-6.6,8.15-17.69,9.36-25.15,4.07V22H161v81.79A19.19,19.19,0,0,1,138.15,97.89ZM44.62,34.74c-8.45,4.33-16.36,14.38-16.41,24.68s5,12.67,4.88,18,2.44,13.47,2.44,13.47H61.81C59.62,77.78,63,69.51,63,62.79S56.73,41.87,44.62,34.74Zm59.9-5c-5.12,5.72-18,9.56-28.89,6.73-14.79,22.42,3.79,39.94,0,54.34h32.29C104.53,75.26,124,55,104.52,29.77Zm36.63,9.59c-4.5-4.92-11.51-4.36-13.74,0s-8.28,14-8.28,20.59,2.07,10.35,2.45,14.83c.5,6-1.86,8.71.6,16.06h26.06S162.29,62.46,141.15,39.36Zm-1.79,41-.28-3.66-3.31-1.42,1.94-2.77,3.92,2.26-.16,4.64,2.86,3.67Zm-3.43-15.67c0,5.92-.52,11.89-11.55,14.5l-.18-2.54c13.8-3.06,9.48-20,2.17-22.78.51-1.19,4.68-8.43,4.68-8.43l-.91,8.23,5.51-5.55L133.55,57,139,51.58S135.93,58.79,135.93,64.71Zm-8.69-5.28a2.05,2.05,0,1,1-4.1,0A2.05,2.05,0,1,1,127.24,59.43Zm-.75,9.87c1.15-1.35,3-.25,2.12,1.63-1.19,2.47-4.66,2.91-4.66,2.91l-.42-3A5.19,5.19,0,0,0,126.49,69.3Zm7.62,7.92,2.81,3-1.2,3.9,2.22,3.25-4.75-2.4.75-3.6-2.45-2ZM104.29,65.44c0-17.15-24.8-16.58-24.8,0,0,.27,0,.52,0,.79L74,66.31l-.42-3.14L77,64a15.65,15.65,0,0,1,1.48-5.61L73.6,55.82,75.34,53l4.23,3.52a13.79,13.79,0,0,1,3.9-3.72L79.84,48l2.72-1.9,2.73,5.67A16.06,16.06,0,0,1,91,50.37l-.76-6.26,3.25-.64L93,50.36a15.77,15.77,0,0,1,5.54,1.32l2.17-5.32,3.13,1.09-3.46,5.23a13.37,13.37,0,0,1,3.79,3.6l4-3.32,2.16,2.51-5.09,2.65a15.75,15.75,0,0,1,1.52,5.77l3-.63-.5,2.53-5,.07C104.27,65.72,104.29,65.58,104.29,65.44Zm-2.31.29c0,14-20.09,13.58-20.09,0S102,51.68,102,65.73ZM84.55,67H99.33C100.42,54.82,83.67,55.07,84.55,67ZM58.13,81.42l-.19,2.4c-6.52-1.54-9.89-5.4-11.2-9.84l-4,2-5.32-1.87.06-3.66,5.11,2.62,3.59-1.76a20.24,20.24,0,0,1-.09-3.48L43,69.64l-5.37-2.57,1.09-3.19L43,66.44l3.6-1.76a20.92,20.92,0,0,1,2.37-6.11c-1.65-2.69-4-4.6-7-6.85l3-2.37c2.06,2.32,4.53,4.38,5.69,6.86A8.15,8.15,0,0,1,53,54.43a22.84,22.84,0,0,0-5.18-7.62l3.08-1.74c1.66,1.55,5.25,6.9,5,10.71l.05.07c-2.73,1-5,4.43-6.13,8.44l7.41,3.27-.06,2.08-7.86-2.78a18.13,18.13,0,0,0-.11,3.68l8.08,1.78-.12,1.54-7.52-.62A10.77,10.77,0,0,0,58.13,81.42Z"/></svg>