<?xml version="1.0" encoding="UTF-8" standalone="no"?>
<!-- Created with Inkscape (http://www.inkscape.org/) -->
<svg
   xmlns:svg="http://www.w3.org/2000/svg"
   xmlns="http://www.w3.org/2000/svg"
   version="1.0"
   width="480"
   height="704"
   viewBox="0 0 1500 2235.46"
   id="svg2515"
   xml:space="preserve"
   style="fill-rule:evenodd"><defs
   id="defs19" />
 
<g
   transform="matrix(1.0153606,0,0,0.9999998,-11.718846,5.1206291e-4)"
   id="g3219"><rect
     width="1500.7284"
     height="1028.6243"
     x="-0.36419579"
     y="-0.00052176334"
     id="rect2396"
     style="opacity:1;fill:#d40000;fill-opacity:1;stroke:none;stroke-width:43.5724144;stroke-linecap:butt;stroke-linejoin:miter;stroke-miterlimit:4;stroke-dasharray:none;stroke-dashoffset:0;stroke-opacity:1" /><path
     d="M 0.125,328.96875 L 0.125,602.5625 C 0.92319479,641.02007 15.950667,662.0471 45.09375,665.90625 L 197.875,665.90625 C 207.85586,666.70447 216.61731,671.49822 224.46875,680.28125 C 232.05389,688.79762 237.39206,700.3618 240.71875,715 C 243.7795,700.49501 249.09423,688.79073 256.8125,679.875 C 264.26485,671.35867 273.04262,666.70445 283.15625,665.90625 L 435.8125,665.90625 C 455.50749,663.24462 468.682,652.72296 475.46875,634.625 C 478.39631,626.10827 479.85905,615.85935 480.125,603.75 L 480.125,328.96875 L 0.125,328.96875 z"
     transform="matrix(3.1265175,0,0,3.1265175,-0.3641958,0)"
     id="_82012760"
     style="fill:#000000;fill-rule:nonzero" /><polygon
     points="750.415,9.97271 749.17,9.14116 748.754,9.97271 750.415,9.97271 "
     transform="matrix(1.001316,0,0,1.0013017,0,-2.909816)"
     id="_49884144"
     style="fill:#c35a3c;fill-rule:nonzero" /><path
     d="M 693.57155,773.44742 L 693.15523,773.44742 C 693.15523,773.86256 693.15523,774.6952 692.74009,775.11151 L 693.57155,773.86256 L 693.57155,773.44742 L 693.57155,773.44742 z"
     id="_82013928"
     style="fill:#b94835;fill-rule:nonzero" /><path
     d="M 833.78183,768.87047 C 833.78183,769.2868 833.78183,769.2868 833.36669,769.2868 L 833.78183,770.11825 C 833.78183,769.70311 833.78183,769.2868 833.78183,768.87047 L 833.78183,768.87047 z"
     id="_49503400"
     style="fill:#b94835;fill-rule:nonzero" /><path
     d="M 807.98693,775.52813 C 807.98693,774.6955 807.98693,774.27919 807.5706,773.44772 L 807.5706,773.86286 L 807.98693,775.52813 L 807.98693,775.52813 z"
     id="_49503520"
     style="fill:#b94835;fill-rule:nonzero" /><path
     d="M 554.60691,450.17318 C 554.19177,450.17318 554.19177,450.17318 554.19177,450.17318 L 554.19177,450.5895 L 554.60691,450.17318 z"
     id="_49901416"
     style="fill:#ffffff;fill-rule:nonzero" /><path
     d="M 553.35927,451.00526 C 552.94295,451.00526 552.94295,451.00526 552.94295,451.00526 C 552.94295,451.00526 552.94295,451.42157 553.35927,451.83671 L 553.7756,451.42157 L 554.19192,450.58894 L 554.19192,450.17263 C 553.7756,450.58894 553.35927,450.58894 552.94296,450.58894 C 552.94296,451.00526 552.94296,451.00526 553.35928,451.00526 L 553.35927,451.00526 z"
     id="_49737512"
     style="fill:#b94835;fill-rule:nonzero" /><path
     d="M 666.94256,770.1181 L 667.35888,769.28665 L 667.35888,768.87032 C 667.35888,768.45401 667.35888,768.45401 666.94256,768.45401 C 666.94256,769.28665 666.94256,769.28665 666.94256,769.70296 L 666.94256,770.11809 L 666.94256,770.1181 z"
     id="_49945632"
     style="fill:#b94835;fill-rule:nonzero" /><path
     d="M 981.8995,498.01938 C 982.31583,497.60307 982.31583,497.18674 982.73214,496.77043 L 981.06804,496.77043 C 981.06804,496.77043 980.65171,496.77043 980.23539,496.77043 C 980.23539,496.77043 980.23539,497.18675 980.23539,497.60307 C 980.65172,498.01939 981.06804,498.01939 981.06804,498.01939 L 991.05269,499.26716 L 991.46902,499.26716 L 998.95809,500.09979 L 981.89947,498.01939 L 981.8995,498.01938 z"
     id="_82196368"
     style="fill:#b94835;fill-rule:nonzero" /><path
     d="M 146.75,27.9375 C 146.18635,33.259722 146.27466,38.853395 148.09375,43.90625 C 154.89665,51.518935 163.87723,56.813112 170.71875,64.40625 C 173.41829,67.454476 176.9914,70.577504 177.25,74.90625 C 174.59483,74.336375 174.76288,69.22436 171.96875,67.6875 C 166.21626,61.346463 159.28317,56.25321 152.90625,50.59375 C 148.6915,47.01216 144.61811,43.23407 140.5,39.53125 C 140.36204,44.042167 140.82882,48.897045 142.9375,52.90625 C 147.72696,57.963644 153.58678,61.833369 159.03125,66.125 C 164.13988,70.09881 169.74443,73.866867 173.25,79.4375 C 175.07581,80.866292 173.68028,86.035352 172.6875,82.25 C 171.47891,77.259588 166.74843,74.347394 163.125,71.125 C 154.57952,64.62377 146.44887,57.622887 138.125,50.84375 C 137.74495,56.99811 139.22482,63.84957 144.4375,67.71875 C 145.44387,68.560893 146.73073,69.662535 147.5,70.25 C 151.58261,73.235492 155.97657,75.861803 160.125,78.59375 C 164.5897,81.43715 169.534,84.054596 172.65625,88.46875 C 174.49827,89.90216 172.58134,93.663197 171.90625,90.5 C 170.4619,86.547119 166.29675,84.517239 163.125,82.09375 C 154.31519,76.483985 145.07571,71.312601 137.625,63.875 C 136.62955,62.944537 135.65169,62.024213 134.65625,61.09375 C 134.74333,65.683521 136.44142,70.222739 138.84375,74.0625 C 143.86246,78.932943 150.29044,82.048383 156.34375,85.3125 C 159.6433,87.362408 163.65982,88.854353 166.78125,91.40625 C 168.68062,92.855707 172.48476,95.3423 171.90625,97.6875 C 169.13496,95.893408 167.05326,92.515481 163.75,91.0625 C 155.96863,86.489843 147.63592,82.850968 140.34375,77.46875 C 137.17212,75.271744 134.23267,72.770919 131.1875,70.40625 C 132.09565,74.531059 133.29962,78.900389 136.03125,82.1875 C 142.26735,87.055579 149.48329,90.26574 156.21875,94.34375 C 160.50271,96.196256 164.6496,98.63811 168.5625,101.25 C 170.4521,101.82621 172.14806,106.20407 169.25,103.3125 C 162.83182,98.82443 155.50566,95.854175 148.78125,91.875 C 144.12418,89.625553 139.48055,86.242387 135.3125,83.84375 C 133.30935,82.784746 131.5297,81.423101 129.59375,80.25 C 130.0373,84.54354 132.45553,88.525384 135.0625,91.6875 C 139.4665,95.371536 145.00703,97.263473 150.25,99.40625 C 157.15778,102.14308 164.74235,103.94408 170.4375,108.96875 C 172.49985,109.97713 171.89692,113.34156 170.0625,110.78125 C 166.30899,106.33433 160.31572,104.96696 155.1875,102.71875 C 149.60659,100.65813 143.97763,98.663846 138.625,96 C 134.99661,94.429034 131.54417,92.493365 128,90.75 C 129.13811,94.836271 131.5554,98.625901 134.375,101.65625 C 144.46002,106.87223 155.67479,109.367 166.03125,113.9375 C 167.69374,115.03751 172.25704,116.50887 171.78125,118.3125 C 168.64263,117.7707 165.95365,114.86236 162.65625,114.0625 C 158.98825,112.51102 155.18861,111.29705 151.40625,110.0625 C 148.8848,109.06574 144.98497,107.97643 142.09375,106.65625 C 137.50947,104.84198 132.94757,103.00183 128.28125,101.40625 C 129.76535,105.24213 132.58346,108.26201 135.59375,110.96875 C 144.31294,114.15621 153.52397,115.496 162.3125,118.46875 C 166.41846,119.88793 170.74083,121.72508 173.375,125.34375 C 171.57972,127.43936 169.32558,122.05031 166.84375,121.9375 C 159.74271,118.47164 151.86717,117.08977 144.25,115.1875 C 139.01079,113.96277 133.77047,112.75598 128.53125,111.53125 C 130.06123,114.80801 132.67639,117.57675 135.1875,120.03125 C 142.51309,122.76 150.24857,124.03348 157.84375,125.78125 C 162.90115,126.91265 168.10417,128.08446 172.71875,130.5 C 175.06345,131.0351 174.42258,134.24498 172.5625,132.1875 C 168.38689,129.14333 163.0264,128.55848 158.125,127.34375 C 148.66449,125.27923 139.30471,122.91204 129.875,120.6875 C 131.23124,124.6522 134.48676,127.36656 137.84375,129.625 C 140.66745,130.65152 143.91673,130.87343 146.9375,131.40625 C 153.54207,132.24595 160.17886,132.99867 166.75,134.0625 C 169.91657,134.82973 174.55324,134.83851 176.15625,137.96875 C 173.46052,138.0869 170.17468,135.39246 166.90625,135.5 C 158.808,134.01506 150.53538,133.70373 142.4375,132.21875 C 138.9543,131.71015 135.48178,131.20572 132,130.6875 C 133.39947,134.1661 136.82386,136.31527 139.78125,138.25 C 145.98802,139.86112 152.48648,139.78822 158.84375,140.28125 C 163.63427,140.47941 168.43939,140.70659 173.15625,141.59375 C 174.73018,141.24793 180.23325,144.79629 176.5,144.84375 C 173.98431,142.1107 169.56742,142.84563 166.1875,142.15625 C 158.90582,141.50506 151.59732,141.47651 144.34375,140.59375 C 141.25877,140.07964 138.15151,139.70497 135.0625,139.1875 C 136.84265,142.28063 140.0377,143.91213 143.15625,145.3125 C 150.20183,145.91311 157.30244,146.04055 164.375,146 C 169.41296,146.52336 174.85763,145.88607 179.5,148.25 C 178.51631,150.49203 174.39536,147.22974 172.0625,148 C 166.32024,147.37987 160.52001,147.63589 154.75,147.3125 C 149.1017,147.26867 143.46871,146.72959 137.84375,146.25 C 139.74569,149.29419 142.95326,152.50256 146.5625,152.90625 C 153.38173,153.10876 160.13052,151.99221 166.9375,151.875 C 171.54764,151.71588 176.55004,151.13448 180.78125,153.34375 C 182.61372,154.28002 182.19505,156.64683 180.3125,154.46875 C 176.04677,152.70242 171.23528,153.29446 166.71875,153.3125 C 161.62832,153.64907 156.55919,153.93702 151.46875,154.25 C 148.30925,154.39472 145.1305,154.3684 141.96875,154.375 C 143.87868,157.70301 147.76834,158.89378 151.15625,160.09375 C 159.6162,159.50646 168.00933,158.15823 176.46875,157.625 C 178.15632,157.29638 184.19672,157.5503 182.96875,159.5625 C 178.31457,158.40361 173.46402,159.52172 168.75,159.78125 C 162.00398,160.61098 155.24832,161.40663 148.5,162.21875 C 151.02197,164.47206 154.52711,166.08444 157.9375,165.8125 C 166.50853,164.83429 174.62023,161.63599 183.28125,161.28125 C 184.99264,160.25674 189.53078,164.23739 186.34375,162.96875 C 180.37965,162.09955 174.43829,164.07805 168.65625,165.28125 C 163.43215,166.49894 158.10601,167.53689 152.75,168.21875 C 155.28436,172.49584 161.14868,172.56533 165.4375,171.40625 C 172.18093,169.70809 178.65152,167.1654 185.46875,165.75 C 186.82514,164.92626 191.51384,166.37363 189.46875,167.53125 C 186.47632,166.17984 182.73285,168.0672 179.59375,168.71875 C 173.14712,170.98695 166.49657,172.51612 160.0625,174.84375 C 156.41388,175.64501 162.66577,176.94312 164.125,177.125 C 167.50846,178.42512 170.5164,175.77683 173.71875,175.09375 C 178.68751,173.15886 183.72486,171.32797 188.90625,170.03125 C 190.89493,168.96759 194.19063,171.67202 190.625,171.0625 C 185.44802,172.18533 180.49956,174.22865 175.5,175.9375 C 173.03059,177.12801 169.38142,178.1223 166.40625,179.1875 C 164.87463,179.72949 162.15823,180.36988 165.625,180.90625 C 169.12997,182.27124 172.81887,181.48484 176.03125,179.78125 C 181.72594,177.38808 187.28864,174.03164 193.59375,173.65625 C 195.32656,173.10459 197.60448,176.29879 194.625,175.15625 C 188.65414,174.99427 183.3907,178.30354 178.03125,180.46875 C 174.96044,181.94804 171.65034,182.79752 168.71875,184.5625 C 171.79531,185.96487 175.58314,185.83696 178.75,184.71875 C 185.21087,182.47932 191.24776,178.72229 198.15625,177.9375 C 200.684,177.39171 200.49425,180.49859 197.75,179.4375 C 191.50852,180.1485 186.14012,183.71502 180.3125,185.75 C 177.961,186.64817 175.71421,187.77845 173.5,188.96875 C 177.17869,189.89391 180.89007,188.78788 184.28125,187.375 C 190.62933,185.18205 196.87252,182.18455 203.625,181.5 C 207.95521,181.67306 201.70368,182.95534 200.375,183.28125 C 194.70591,184.94691 189.19187,187.10805 183.65625,189.15625 C 181.82637,190.07117 179.98613,190.99133 178.15625,191.90625 C 181.13667,192.56398 184.50706,193.13346 187.40625,191.90625 C 192.94645,190.09418 197.91571,186.96088 203.4375,185.09375 C 204.77946,184.76542 209.05348,183.70609 208.78125,185.25 C 201.62662,186.39768 195.53604,190.58598 188.8125,192.9375 C 186.86048,193.75013 185.04608,194.82159 183.21875,195.875 C 187.58695,197.01655 192.09023,195.24729 195.96875,193.34375 C 200.20327,191.35065 204.35031,189.05109 208.8125,187.53125 C 209.91845,186.32037 215.25411,187.58028 212.78125,188.3125 C 208.12983,188.34749 204.18953,191.32873 200,192.96875 C 196.64907,194.89586 192.9122,196.22698 189.9375,198.78125 C 188.87381,200.11549 194.0224,199.04103 195.3125,199 C 197.58669,198.81599 199.38878,197.07903 201.5,196.25 C 204.63637,194.75077 207.57373,192.85451 210.78125,191.5 C 212.96482,190.16487 216.05658,189.20887 218.625,189.375 C 217.29322,191.10826 212.94506,191.46714 210.6875,193.09375 C 207.0291,195.14047 203.23259,196.81905 199.59375,198.875 C 198.1088,199.81488 196.81649,201.00692 195.46875,202.125 C 199.06498,202.4011 203.16127,202.69681 205.8125,199.78125 C 208.49611,198.03882 210.59194,196.58614 213.03125,194.5625 C 215.67977,192.78679 219.17516,190.54106 222.34375,191.90625 C 220.69412,192.95586 216.27151,193.12311 214.34375,195.46875 C 211.72546,197.15068 210.09768,198.63622 207.65625,200.375 C 205.87366,201.63214 204.06119,202.88663 202.375,204.28125 C 206.64129,205.01023 210.82235,202.98428 213.78125,200 C 216.68714,197.80741 219.35485,194.38444 223.28125,194.40625 C 222.98521,196.42979 218.13001,197.12366 216.75,199.46875 C 214.19134,201.25621 212.00384,203.5269 210.25,206.125 C 214.64399,206.72197 218.51858,203.87773 220.65625,200.25 C 221.2853,198.4596 224.01429,195.37247 222.65625,198.8125 C 216.40862,215.71332 209.99639,232.57871 203.84375,249.5 C 206.99507,249.20706 211.33507,248.46092 212.84375,245.5 C 216.01898,233.82823 221.53231,222.85999 223.6875,210.90625 C 223.72019,209.54815 222.91134,205.93317 224.78125,208.625 C 225.87834,211.84891 224.0352,215.18168 223.375,218.34375 C 220.90559,227.50636 216.91276,236.22338 214.5,245.375 C 214.60364,246.39767 213.66762,247.73118 213.34375,248.875 C 213.27118,249.86679 211.00862,252.46799 213.15625,251.78125 C 216.14437,251.86488 218.8985,250.17899 220.875,248.0625 C 223.37458,236.99339 227.14845,226.18237 228.84375,214.9375 C 229.53804,213.42021 227.22869,207.57336 229.90625,210.65625 C 231.30264,213.85413 229.57435,217.31938 229.25,220.59375 C 227.60594,229.42522 224.72914,237.96417 222.75,246.71875 C 222.94249,247.88269 221.96981,249.16544 221.6875,250.375 C 221.15627,251.81671 220.62497,253.24578 220.09375,254.6875 C 225.05354,254.12753 229.88678,250.2425 230.09375,245 C 231.41495,235.2341 234.51404,225.6708 234.40625,215.75 C 234.07098,214.10707 233.47522,209.38118 235.28125,213.28125 C 236.94383,218.72003 235.04648,224.39622 234.34375,229.84375 C 232.89971,237.01874 231.6293,244.22682 230.5,251.40625 C 230.31677,252.76763 230.12074,254.13862 229.9375,255.5 C 234.07267,253.99815 237.55394,250.83567 239.375,246.90625 C 239.51759,235.19768 239.64595,223.48869 239.8125,211.78125 C 241.16964,211.26421 240.37784,214.05383 240.59375,215.0625 C 240.67478,225.75108 240.76272,236.43643 240.84375,247.125 C 242.99078,250.77542 246.2154,254.19696 250.4375,255.5 C 249.21601,247.17 247.87857,238.87587 246.03125,230.65625 C 245.22915,225.52635 243.95261,220.26649 244.5625,215.0625 C 244.19878,213.26602 247.30755,209.86688 246.09375,213.34375 C 245.12223,220.90386 247.35031,228.37883 248.59375,235.78125 C 249.40593,239.89648 249.99113,244.08568 250.8125,248.1875 C 252.49254,251.78941 256.25578,254.22887 260.15625,254.6875 C 259.25611,252.06492 258.09041,249.4937 257.34375,246.84375 C 257.18803,244.34082 256.15825,241.45274 255.59375,238.8125 C 253.48255,230.3354 250.64935,221.9335 249.90625,213.1875 C 248.59874,211.20905 253.12106,207.95048 251.46875,211.1875 C 250.95448,215.8546 252.62316,220.42515 253.46875,224.96875 C 255.44685,232.66066 257.49475,240.34048 259.34375,248.0625 C 261.57327,250.51403 264.75813,252.06683 268.125,251.90625 C 267.23646,249.29792 265.99372,246.72175 265.5,244.09375 C 262.7617,234.45427 258.55457,225.32205 256.125,215.59375 C 255.75597,213.06152 254.08144,209.42308 256.5625,207.59375 C 257.20245,209.0118 256.00236,211.99184 257.1875,213.90625 C 259.23122,222.64324 262.86585,230.88924 265.53125,239.4375 C 266.94065,242.10456 266.29427,246.26283 269.5,247.53125 C 271.15141,248.33773 276.19658,250.69961 276.34375,248.875 C 269.91881,231.74198 263.51868,214.60176 257.09375,197.46875 C 258.25337,195.69058 259.41107,201.02964 260.71875,201.71875 C 262.71721,204.79773 266.3705,206.40772 270,206.125 C 268.19239,203.58206 266.17776,201.08175 263.46875,199.46875 C 261.97256,197.21529 258.01984,196.19881 256.8125,194.5625 C 260.20812,193.96918 262.94597,197.22763 265.5,199.0625 C 268.19252,201.41679 270.98131,204.07656 274.78125,204.21875 C 277.11985,204.58188 278.77707,204.33314 276.15625,202.9375 C 272.48886,200.20099 268.89697,197.4657 265.15625,194.875 C 263.38907,192.85917 259.0192,193.05481 258,191.71875 C 262.74578,190.4625 266.59831,194.32985 270.1875,196.75 C 272.69115,198.48033 275.07896,200.59137 277.84375,201.875 C 279.25962,202.15708 286.23679,203.10659 283.5625,201.0625 C 280.15833,197.97327 275.75361,196.51623 271.90625,194.1875 C 268.56031,192.48646 265.08409,190.88369 261.46875,189.90625 C 263.02521,188.24299 267.06967,190.59767 269.3125,191.21875 C 273.88899,193.8284 278.87519,195.96004 283.4375,198.6875 C 285.10026,198.80245 291.06727,200.07944 290.21875,198.59375 C 286.83234,195.85438 282.67673,194.37944 278.90625,192.28125 C 275.16035,190.82229 271.62056,188.19095 267.46875,188.15625 C 264.92258,187.64454 270.30547,186.06649 271.4375,187.5 C 274.79715,188.39528 277.75909,190.23044 280.90625,191.625 C 283.045,192.59929 285.93535,194.43373 288.625,195.125 C 290.72397,196.09245 296.08845,196.7316 296.46875,195.5625 C 291.59143,192.51124 285.96543,190.95865 280.90625,188.3125 C 277.89723,186.80433 274.64188,185.72105 271.3125,185.25 C 272.68679,183.40168 277.02846,185.20149 279.28125,185.96875 C 283.80501,187.82999 287.93938,190.10416 292.59375,191.78125 C 295.58743,192.85128 298.86919,192.81068 301.9375,191.90625 C 294.52787,188.69359 287.22221,185.15433 279.375,183.125 C 278.12406,182.76336 272.56941,181.63247 276.5625,181.375 C 281.85915,181.86636 286.80678,184.08815 291.78125,185.8125 C 294.9635,186.70303 297.91171,188.39535 301.15625,189 C 302.92996,189.45955 308.73488,189.35755 304.78125,187.875 C 300.04076,185.48647 294.96904,183.87599 290.21875,181.5 C 287.07894,180.44899 283.79038,178.99731 280.4375,179.375 C 279.39151,176.92664 284.4799,178.14289 286,178.65625 C 292.15185,180.32316 297.67332,183.63261 303.78125,185.40625 C 305.55833,185.62652 311.88327,185.7667 310.90625,184.21875 C 306.40621,181.8888 301.55895,180.42148 297.0625,178.09375 C 293.08975,176.4161 288.75185,174.34178 284.375,175.34375 C 284.00321,172.57012 290.20146,173.8785 292.4375,174.78125 C 298.1592,176.60327 303.37992,179.73717 309.125,181.5 C 311.02745,181.63258 316.3065,181.20502 316,179.9375 C 311.85142,178.23187 307.42811,177.12805 303.34375,175.34375 C 298.82377,173.71967 294.26853,172.08474 289.59375,171 C 285.65752,171.35142 290.71203,168.73353 292.40625,170.125 C 298.30391,171.83609 304.02808,174.09893 309.8125,176.15625 C 312.54102,177.84859 315.45696,177.3654 318.4375,176.6875 C 320.34065,176.16663 323.25775,175.0299 319.75,174.59375 C 313.54549,172.5932 307.37638,170.83013 301.1875,168.84375 C 297.76524,168.10283 294.13295,166.21067 290.625,167.40625 C 288.80862,165.93112 294.31972,164.95661 295.8125,165.9375 C 303.10708,167.39961 309.91654,170.48018 317.21875,171.9375 C 320.90912,172.25529 325.60371,171.75875 327.625,168.21875 C 319.36238,166.91364 311.16509,165.16121 303,163.375 C 299.74753,162.90998 296.12649,162.03247 293,163.40625 C 292.69528,160.85035 298.49594,160.89523 300.65625,161.5 C 308.44033,162.80622 316.03268,164.98675 323.875,165.9375 C 326.11457,165.49178 331.59994,163.59935 331.125,162 C 320.76642,160.83699 310.43109,159.21795 300,159.03125 C 298.09194,159.81116 295.05471,159.38041 298.3125,157.9375 C 302.31348,157.09282 306.52423,157.83024 310.5625,158.1875 C 313.51635,158.29366 313.68414,159.06846 315.0625,158.71875 C 319.85069,159.05913 324.64613,159.71493 329.40625,160 C 332.7102,158.70653 336.47464,157.41746 338.40625,154.21875 C 332.86386,154.3158 327.30388,154.3938 321.78125,153.8125 C 315.07923,153.63874 308.294,152.3807 301.65625,153.84375 C 300.16067,154.38649 296.66611,156.63776 299.03125,153.5625 C 303.10515,150.93654 308.23713,151.90429 312.84375,151.71875 C 319.75958,152.18597 326.6877,152.80086 333.625,152.90625 C 337.20663,152.70027 340.0344,149.40561 342.21875,146.75 C 342.65731,145.74578 339.82484,146.64077 338.84375,146.46875 C 331.76505,147.32037 324.62576,147.32937 317.5,147.4375 C 312.33367,147.78219 306.95468,147.39524 302,149.15625 C 298.19886,148.11717 304.72931,146.67321 306.09375,146.625 C 314.52859,145.52574 323.04334,146.36408 331.5,145.6875 C 334.86915,145.72386 338.18204,145.36075 340.96875,143.28125 C 342.19971,142.63831 347.31892,138.54411 343.6875,139.40625 C 339.4365,139.85768 335.34679,140.84501 331.03125,141 C 323.03507,141.86576 314.89893,141.51539 306.96875,143 C 305.53559,143.16923 301.26875,146.64247 302.9375,143.28125 C 306.43813,140.85494 310.98974,141.07789 315.0625,140.5625 C 323.50931,139.902 332.06719,140.12038 340.375,138.25 C 343.31743,136.13511 346.89699,134.28266 348.25,130.6875 C 338.12436,132.25481 328.01013,133.60516 317.84375,134.75 C 313.84296,135.51256 309.55184,135.66885 305.9375,137.6875 C 302.56184,139.39746 305.22176,135.29652 307.375,135.46875 C 317.03466,132.75564 327.16314,132.53507 337,130.78125 C 340.06473,130.4482 343.18352,129.85158 345.3125,127.40625 C 347.15386,126.06987 350.76033,121.98803 349.78125,120.84375 C 339.81739,123.1861 329.93161,125.68955 319.90625,127.75 C 315.66508,129.13727 310.72569,129.38065 307.25,132.40625 C 303.83161,133.35658 308.53144,129.0411 310.125,129.15625 C 315.52421,127.11022 321.20636,125.99455 326.8125,124.6875 C 329.1088,124.43647 332.8539,123.31659 335.59375,122.75 C 338.75602,121.80257 342.31354,121.27872 345.1875,119.90625 C 347.64008,117.36875 350.37713,114.88406 351.6875,111.53125 C 342.06338,113.81549 332.40768,115.95776 322.8125,118.34375 C 317.7091,120.18801 311.82555,121.42755 308.3125,125.90625 C 304.6589,126.12804 309.99507,122.10359 311.09375,121.5 C 313.93993,119.78689 316.59664,118.88885 319.53125,117.875 C 327.77499,115.13624 336.48038,113.92136 344.65625,110.96875 C 347.6019,108.17532 350.81062,105.32421 351.96875,101.28125 C 345.65136,103.73993 339.33043,106.18438 332.96875,108.5 C 329.63957,109.58512 326.63613,110.92241 323.21875,111.875 C 318.48321,113.71844 313.60796,115.43611 309.375,118.3125 C 306.1325,118.05505 311.92225,115.1468 313.0625,114.5625 C 323.68803,109.39904 335.4298,107.03932 345.96875,101.65625 C 348.48325,98.305733 351.24815,94.921139 352.21875,90.75 C 345.83228,94.037076 339.35824,97.178324 332.6875,99.84375 C 326.74671,102.14797 320.68063,104.16503 314.9375,106.96875 C 311.99179,107.25626 310.77255,112.22223 308.3125,111.375 C 309.6217,107.58478 313.95821,105.99882 317.28125,104.34375 C 324.81511,100.84343 332.94341,98.834752 340.28125,94.90625 C 342.79541,93.562924 345.22756,92.165772 346.5,89.9375 C 348.64803,87.051467 350.32358,83.727385 350.78125,80.125 C 342.18683,85.472191 333.77982,91.160053 324.5625,95.40625 C 319.63523,98.285646 314.25823,100.58423 309.90625,104.34375 C 307.85194,103.07693 313.36885,100.15468 314.8125,99.1875 C 320.28682,96.105147 325.66714,93.384892 331.15625,90.375 C 335.8104,87.806397 340.4619,85.126303 344.65625,81.84375 C 346.98799,78.406122 348.08611,74.368259 349.15625,70.40625 C 345.00061,73.385453 341.25505,76.908221 336.78125,79.5625 C 331.75582,82.802389 326.50179,85.530088 321.34375,88.3125 C 316.86126,90.666673 312.17233,93.249809 309.1875,97.4375 C 305.89533,97.405675 311.14497,92.974531 312.28125,92.15625 C 319.36146,86.886399 327.75834,83.792981 335.125,79 C 337.71894,77.203741 340.61761,75.426989 342.34375,72.78125 C 344.1524,69.129491 345.45414,65.178122 345.71875,61.09375 C 341.81766,64.791249 337.89799,68.4868 333.46875,71.5625 C 326.7012,76.341782 319.4333,80.343589 312.65625,85.15625 C 309.65251,86.491679 309.13471,90.126826 307.25,91.8125 C 305.93541,88.543235 309.96932,85.922731 312.09375,83.9375 C 316.63225,80.277454 321.81946,77.602063 326.625,74.375 C 331.07317,71.429375 335.6891,68.486659 339.09375,64.3125 C 341.83062,60.400508 342.21936,55.46944 342.25,50.84375 C 336.21737,55.767401 330.18887,60.670099 324.15625,65.59375 C 320.88538,68.050089 317.46592,70.854819 314.15625,73.46875 C 311.4475,76.161649 307.55509,78.941903 307.65625,83.15625 C 304.62174,84.926955 306.93038,78.579683 308.125,77.65625 C 311.32143,73.446038 315.74956,70.371364 319.8125,67.0625 C 325.89963,62.394217 332.41927,58.167665 337.59375,52.4375 C 338.61579,50.252793 339.23811,47.879929 339.59375,45.5 C 339.42068,43.72833 341.06326,37.527246 338.3125,40.875 C 331.63816,46.631186 325.23215,52.730545 318.34375,58.15625 C 313.65641,62.421054 308.47689,66.466162 305.21875,72 C 305.39463,73.542504 302.6453,76.706714 303.125,73.5625 C 305.26279,67.437083 310.61305,63.248031 315.1875,58.9375 C 320.89469,53.847958 327.3014,49.522792 332.40625,43.78125 C 334.04224,38.671471 334.09008,33.232295 333.59375,27.9375 C 321.21782,40.623786 308.84466,53.313712 296.46875,66 C 288.61016,73.072758 281.46476,82.342174 280.25,93.25 C 279.80088,97.691305 280.94465,102.18081 279.6875,106.5625 C 277.39325,116.67347 272.26125,126.90456 263.125,132.40625 C 257.14685,136.08115 249.47485,136.00922 243.125,133.59375 C 242.81987,131.92528 243.05341,130.12676 242.96875,128.40625 C 246.4301,124.09707 246.74256,117.02345 242.71875,112.96875 C 239.68104,110.3145 235.91019,113.74466 235.15625,116.875 C 233.93722,120.77008 234.62897,125.56556 237.375,128.5625 C 237.28089,130.22504 237.56766,132.0331 237.25,133.59375 C 230.31617,136.33699 221.89918,135.91939 215.65625,131.53125 C 207.89215,126.42912 203.62851,117.58849 201.15625,108.90625 C 199.79212,104.69539 199.97573,100.25582 200.09375,95.90625 C 199.90389,84.468133 193.02699,74.405553 184.78125,67 C 172.03371,54.059984 159.43687,40.939033 146.75,27.9375 z"
     transform="matrix(3.1265175,0,0,3.1265175,-0.3641958,0)"
     id="_49858360"
     style="fill:#ffffff;fill-rule:nonzero;stroke:#000000;stroke-width:1.00791347;stroke-miterlimit:4;stroke-dasharray:none;stroke-opacity:1" /><path
     d="M 1400.4606,1501.1254 L 1401.2921,1500.2927 L 1177.4529,1437.0528 L 1207.8255,1484.067 L 985.23195,1484.067 L 842.10784,1028.4888 L 793.84511,875.38078 L 790.93203,875.38078 C 781.77884,882.86975 772.20933,890.775 762.2247,899.09661 C 755.15077,904.50519 748.07921,910.33012 741.00642,916.15379 C 738.50967,918.23419 736.01291,920.31459 733.51734,922.39499 C 716.87507,936.12514 697.73602,952.35083 675.68514,971.07327 L 683.59054,983.5545 C 691.49475,998.11733 694.40785,1012.6789 693.99151,1028.4883 L 691.49475,1046.3792 C 690.66329,1049.2911 690.24696,1051.3715 689.83065,1053.8683 L 556.69166,1484.0665 L 424.80132,1484.0665 L 372.37782,1429.9796 L 100.2742,1429.9796 L 168.09223,1500.2922 L 99.441607,1571.4374 L 370.29759,1571.4374 L 424.80152,1517.3505 L 547.12229,1517.3505 L 442.27549,1856.0177 C 428.96149,1896.3756 412.73546,1918.4262 394.4291,1922.587 L 346.58152,1932.9878 L 346.58152,1971.6816 L 586.64804,1971.6816 L 586.64804,1932.9878 C 564.59715,1932.1563 543.37767,1927.5792 524.23981,1920.0902 C 489.70633,1912.1849 478.47266,1882.2291 489.70633,1829.3911 L 583.31976,1517.3495 L 858.33421,1517.3495 L 951.94764,1821.4858 C 973.16713,1891.3833 957.35629,1926.3311 904.10126,1926.3311 L 857.91786,1932.9875 L 857.91786,1971.6813 L 1195.7589,1971.6813 L 1195.7589,1932.9875 L 1173.708,1932.9875 C 1173.2916,1932.5724 1172.8754,1932.5724 1172.4591,1932.156 C 1169.9635,1932.156 1168.7145,1931.7397 1168.2994,1931.3233 L 1163.7222,1931.3233 C 1163.3058,1930.4919 1162.0581,1930.4919 1160.394,1930.4919 C 1158.3136,1929.6593 1157.0657,1928.8278 1156.2331,1928.4115 L 1156.2331,1927.9952 C 1155.8168,1927.9952 1155.4016,1927.5789 1154.9853,1927.5789 C 1154.1527,1927.1625 1153.3212,1926.7474 1152.9049,1926.7474 C 1152.0723,1926.7474 1150.8244,1926.3311 1148.3277,1925.4985 C 1127.9409,1915.0976 1114.2117,1895.5426 1105.4737,1868.0834 L 995.63431,1517.3495 L 1208.2408,1517.3495 L 1178.2845,1562.2833 L 1400.4615,1501.1238 L 1400.4606,1501.1254 z M 715.21099,1069.263 L 715.21099,1069.263 L 849.18007,1484.0672 L 593.72032,1484.0672 L 715.21099,1069.263 z"
     id="_49980480"
     style="fill:#ffffff;fill-rule:nonzero" /><path
     d="M 774.28564,495.52313 C 773.86931,495.10682 773.45417,495.10682 773.45417,494.69168 L 773.45417,447.67746 L 751.40209,471.80843 C 750.98694,471.80843 750.5718,471.80843 750.5718,472.22474 C 750.15548,472.22474 750.15548,472.22474 750.15548,472.22474 C 749.73915,471.80843 749.73915,471.80843 749.32284,471.80843 L 727.27196,447.67746 L 727.27196,494.69168 C 727.27196,495.10682 727.27196,495.52313 726.85563,495.93945 C 726.85563,495.93945 726.44049,495.93945 726.02417,495.93945 L 676.92884,496.35576 L 701.06016,518.82267 C 701.47648,518.82267 701.47648,519.23781 701.47648,519.65413 C 701.47648,519.65413 701.47648,519.65413 701.47648,520.07044 C 701.47648,520.07044 701.47648,520.07044 701.06016,520.48676 L 676.92884,542.95367 L 725.60782,542.95367 C 726.44046,542.95367 726.44046,543.36998 726.85561,543.78512 C 726.85561,543.78512 727.27194,544.20143 727.27194,544.61775 L 727.27194,592.46345 L 749.73916,568.33248 C 749.73916,567.91616 749.73916,567.91616 750.15548,567.91616 C 750.15548,567.50103 750.57181,567.50103 750.57181,567.91616 C 750.98694,567.91616 750.98694,567.91616 751.40209,567.91616 L 773.45417,592.46347 L 773.45417,544.20143 C 773.45417,543.78512 773.86932,543.78512 774.28564,543.36998 C 774.28564,542.95366 774.70196,542.95366 775.11828,542.95366 L 823.79726,542.95366 L 799.66594,520.48676 C 799.24963,520.07044 799.24963,520.07044 799.24963,519.65413 C 799.24963,519.65413 799.24963,519.65413 799.24963,519.23781 C 799.24963,518.82267 799.24963,518.82267 799.66594,518.82267 L 823.79726,495.93942 L 775.11828,495.93942 C 774.70196,495.93942 774.28564,495.93942 774.28564,495.52311 L 774.28564,495.52313 z"
     id="_82810688"
     style="fill:#d40000;fill-rule:nonzero;stroke:none;stroke-width:3.12651753;stroke-miterlimit:4;stroke-dasharray:none;stroke-opacity:1" /></g></svg>