<svg xmlns="http://www.w3.org/2000/svg" width="356.25009pt" height="431.32953pt" viewBox="0 0 356.25009 431.32954"><path fill="#fff200" fill-rule="evenodd" d="M233.278 200.18c-1.52-15.75 29.192-19.009 57.958-19.009 28.767 0 62.356 4.512 60.442 19.009z" style="stroke-width:10.3478" transform="translate(-112.977 -91.024)"/><path fill="#06793e" fill-rule="evenodd" d="M189.841 195.058h219.24v245.953h-.004c-.108 8.987-7.489 16.306-16.5 16.306h-78.012c-19.168 0-22.403 26.634-23.507 22.909-1.703-5.751-9.615-22.91-22.128-22.91H189.84c-9.007 0-16.39-7.318-16.497-16.305h-.002V195.058Z" style="stroke-width:1.77548" transform="translate(-112.977 -91.024)"/><path fill="none" stroke="#231f20" stroke-miterlimit="22.926" stroke-width="0.905496" d="M76.864 104.034h219.24v245.953h-.004c-.108 8.987-7.489 16.306-16.5 16.306h-78.012c-19.168 0-22.403 26.634-23.507 22.909-1.703-5.751-9.615-22.91-22.128-22.91H76.864c-9.007 0-16.39-7.318-16.497-16.305h-.002V104.034Z"/><path fill="#fff200" fill-rule="evenodd" d="M236.975 276.802h-12.037l-8.515 8.512-8.514-8.512h-12.04v-12.04l-8.512-8.512 8.511-8.516v-12.039h12.041l8.514-8.512 8.515 8.512h12.037v12.04l8.516 8.515-8.516 8.511z" style="stroke-width:1.64448" transform="translate(-112.977 -91.024)"/><path fill="none" stroke="#231f20" stroke-miterlimit="22.926" stroke-width="0.838683" d="M123.998 185.778h-12.037l-8.515 8.512-8.514-8.512h-12.04v-12.04l-8.512-8.512 8.511-8.516v-12.039h12.041l8.514-8.512 8.515 8.512h12.037v12.04l8.516 8.515-8.516 8.511z"/><path fill="#fff200" fill-rule="evenodd" d="M310.958 276.802H298.92l-8.512 8.512-8.515-8.512h-12.037v-12.04l-8.515-8.512 8.515-8.516v-12.039h12.037l8.515-8.512 8.512 8.512h12.04v12.04l8.514 8.515-8.515 8.511z" style="stroke-width:1.64448" transform="translate(-112.977 -91.024)"/><path fill="none" stroke="#231f20" stroke-miterlimit="22.926" stroke-width="0.838683" d="M197.981 185.778h-12.039l-8.512 8.512-8.515-8.512h-12.037v-12.04l-8.516-8.512 8.516-8.516v-12.039h12.037l8.515-8.512 8.512 8.512h12.04v12.04l8.514 8.515-8.515 8.511z"/><path fill="#fff200" fill-rule="evenodd" d="M384.944 276.802h-12.04l-8.514 8.512-8.516-8.512h-12.037v-12.04l-8.512-8.512 8.512-8.516v-12.039h12.037l8.516-8.512 8.513 8.512h12.04v12.04l8.514 8.515-8.513 8.511z" style="stroke-width:1.64448" transform="translate(-112.977 -91.024)"/><path fill="none" stroke="#231f20" stroke-miterlimit="22.926" stroke-width="0.838683" d="M271.967 185.778h-12.04l-8.514 8.512-8.516-8.512H230.86v-12.04l-8.512-8.512 8.512-8.516v-12.039h12.037l8.516-8.512 8.513 8.512h12.04v12.04l8.514 8.515-8.513 8.511z"/><path fill="#f7f7f7" fill-rule="evenodd" d="M409.242 303.39c-21.744-2.607-20.767 8.078-44.324 9.818-12.901.95-27.986-15.561-51.003-7.166-12.645 5.233-16.095 7.016-23.983 6.855-18.067-.375-19.64-9.477-40.689-9.216-27.987 0-27.092 20.21-66.046.917-2.264-1.12-5.287-1.827-10.234-1.208v41.07c4.947-.62 7.97.082 10.234 1.207 38.954 19.292 38.06-.918 66.046-.918 21.049-.26 22.622 8.842 40.689 9.218 7.888.161 11.338-1.623 23.983-6.856 23.017-8.396 38.102 8.116 51.003 7.165 23.557-1.739 22.58-12.425 44.324-9.817v-41.068z" style="stroke-width:1.31674" transform="translate(-112.977 -91.024)"/><path fill="none" stroke="#231f20" stroke-miterlimit="22.926" stroke-width="0.671537" d="M296.265 212.367c-21.744-2.608-20.767 8.077-44.324 9.816-12.901.951-27.986-15.56-51.003-7.165-12.645 5.233-16.095 7.016-23.983 6.855-18.067-.375-19.64-9.477-40.689-9.216-27.987 0-27.092 20.21-66.046.917-2.264-1.12-5.287-1.827-10.234-1.208v41.07c4.947-.62 7.97.082 10.234 1.207 38.954 19.292 38.06-.918 66.046-.918 21.049-.26 22.622 8.842 40.689 9.218 7.888.161 11.338-1.623 23.983-6.856 23.017-8.396 38.102 8.116 51.003 7.165 23.557-1.739 22.58-12.425 44.324-9.817v-41.068z"/><path fill="#ed1c24" fill-rule="evenodd" d="m354.032 513.36 37.2-9.573 31.834-14.795 3.91-6.288 11.223-12.68 11.049-22.874-8.39 1.83-.683-18.38-2.825-3.446-4.041-.647-12.492-2.526-1.426 17.64-10.836 14.478-22.037 9.236-4.776 4.544 5.559 15.186-55.95 9.559c-26.98.2-53.52.2-80.5 0l-55.948-9.56 5.559-15.29-4.775-4.439-22.039-9.236-10.832-14.479-1.427-17.64-12.494 2.527-4.041.647-2.825 3.446-.684 18.38-8.39-1.83 11.051 22.873 11.221 12.68 3.91 6.29 31.836 14.794 37.202 9.572c63.624 6.13 62.229 6.13 125.856 0z" style="stroke-width:1.77548" transform="translate(-112.977 -91.024)"/><path fill="none" stroke="#231f20" stroke-miterlimit="22.926" stroke-width="0.751028" d="m241.055 422.335 37.2-9.572 31.834-14.795 3.91-6.288L325.222 379l11.049-22.874-8.39 1.83-.683-18.38-2.825-3.446-4.041-.647-12.492-2.526-1.426 17.64-10.836 14.478-22.037 9.236-4.776 4.544 5.559 15.186-55.95 9.559c-26.98.2-53.52.2-80.5 0l-55.948-9.56 5.559-15.29-4.775-4.439-22.039-9.236-10.832-14.479-1.427-17.64-12.494 2.527-4.041.647-2.825 3.446-.684 18.38-8.39-1.83 11.051 22.873 11.221 12.68 3.91 6.29 31.836 14.794 37.202 9.572c63.624 6.13 62.229 6.13 125.856 0z"/><path fill="#d1272f" fill-rule="evenodd" d="M424.41 293.205c5.712.041 11.146-.009 17.077.041 1.567-11.338 2.091-24.553-7.505-37.544-6.405.563-7.871 1.745-8.725 5.4 3.063 10.998 6.777 23.986-.847 32.098z" style="stroke-width:1.77548" transform="translate(-112.977 -91.024)"/><path fill="none" stroke="#231f20" stroke-miterlimit="22.926" stroke-width="0.905496" d="M311.433 202.18c5.712.042 11.146-.008 17.077.042 1.567-11.338 2.091-24.553-7.505-37.544-6.405.563-7.871 1.745-8.725 5.4 3.063 10.998 6.777 23.986-.847 32.098z"/><path fill="#ed1c24" fill-rule="evenodd" d="M420.281 192.283c7.647-.207 14.539 1.718 14.29 8.05.984 7.306-12.013 22.973-16.194 35.587-4.408 11.052-4.222 27.856.186 50.756 1.211 4.915 8.103 5.567 10.69.756 3.446-8.869-6.644-23.666-3.353-28.426 2.794-3.29 6.943-3.239 9.737-.3 7.627 9.427 11.197 18.233-3.042 74.929-7.047 33.33 9.437 76.056 5.37 116.496 8.155-.3 16.195-.6 24.36-.911 5.473-35.907-10.142-67.075-4.657-111.177 4.211-21.69 15.75-62.15-1.025-81.862l-13.742-1.19c-2.028-4.046.683-6.064 2.608-9.965 7.047-9.323 16.215-25.031 17.943-34.81 1.915-14.539.807-30.754-22.951-27.66-6.892 1.263-15.15 4.967-20.22 9.727" style="stroke-width:10.3478" transform="translate(-112.977 -91.024)"/><path fill="none" stroke="#231f20" stroke-linecap="round" stroke-linejoin="round" stroke-width="0.905496" d="m344.884 165.166-27.13-2.187"/><path fill="#d1272f" fill-rule="evenodd" d="m422.376 484.384-15.75-25.321-22.558 10.172 1.728 3.57 9.717-2.484 14.414-3.477 11.828 19.258zM436.293 470.533l-16.96-15.345-1.231-7.068-2.421.155 6.363-24.038 10.576 4.636 6.478 20.24 7.77.683-5.825 15.646z" style="stroke-width:10.3478" transform="translate(-112.977 -91.024)"/><path fill="#fff200" d="M425.794 485.336a2.5 2.5 0 0 1 1.336 1.009 2.509 2.509 0 0 1-.72 3.47l-.082.052.004.007c-3.928 2.593-8.27 5.08-13.004 7.447a167.519 167.519 0 0 1-15.164 6.63c-62.739 23.922-151.389 23.922-214.127 0a167.77 167.77 0 0 1-15.166-6.63c-4.733-2.367-9.075-4.854-13.002-7.447l.002-.007-.083-.051a2.501 2.501 0 0 1 .618-4.48c-15.345-11.73-20.86-24.939-23.562-33.097-.29-.96-.578-1.905-.85-2.763l-.01-.03h5.249l.41 1.34c2.7 8.91 5.69 18.756 22.773 31.275a2.51 2.51 0 0 1 .54 3.507 2.471 2.471 0 0 1-1.162.87c3.489 2.238 7.263 4.374 11.315 6.4 4.495 2.25 9.408 4.389 14.711 6.413 61.638 23.505 148.914 23.505 210.55 0 5.306-2.024 10.215-4.164 14.713-6.413 4.051-2.026 7.826-4.162 11.313-6.4a2.508 2.508 0 0 1-.621-4.378c17.084-12.518 20.072-22.365 22.776-31.274l.409-1.34h5.246l-.007.03c-.273.858-.56 1.804-.85 2.763-2.703 8.158-8.217 21.366-23.56 33.097z" style="stroke-width:1.77548" transform="translate(-112.977 -91.024)"/><path fill="none" stroke="#231f20" stroke-linecap="round" stroke-linejoin="round" stroke-width="0.905496" d="M312.817 394.312a2.5 2.5 0 0 1 1.336 1.009 2.509 2.509 0 0 1-.72 3.47l-.082.052.004.007c-3.928 2.593-8.27 5.08-13.004 7.447a167.519 167.519 0 0 1-15.164 6.63c-62.739 23.922-151.389 23.922-214.127 0a167.77 167.77 0 0 1-15.166-6.63c-4.734-2.367-9.075-4.854-13.002-7.447l.002-.007-.083-.051a2.501 2.501 0 0 1 .618-4.48c-15.345-11.73-20.86-24.939-23.562-33.097-.29-.96-.578-1.905-.85-2.763l-.01-.03h5.249l.41 1.34c2.7 8.91 5.69 18.756 22.773 31.275a2.51 2.51 0 0 1 .54 3.507 2.471 2.471 0 0 1-1.162.87c3.488 2.238 7.263 4.374 11.315 6.4 4.495 2.25 9.408 4.389 14.711 6.413 61.638 23.505 148.914 23.505 210.55 0 5.306-2.024 10.215-4.164 14.713-6.413 4.051-2.026 7.826-4.162 11.313-6.4a2.508 2.508 0 0 1-.621-4.378c17.084-12.518 20.072-22.365 22.776-31.274l.409-1.34h5.246l-.007.03c-.273.858-.56 1.804-.85 2.763-2.703 8.158-8.217 21.366-23.561 33.097z"/><path fill="#fff200" d="M424.557 194.595c-1.3-.031-2.497-.073-3.784 0-.948-.01-1.69.062-2.312-.603a2.51 2.51 0 0 1 .11-3.55c3.9-3.666 9.53-6.73 15.09-8.657a49.261 49.261 0 0 1 3.216-.992 41.622 41.622 0 0 1 3.159-.714v.004c.051-.009.093-.018.144-.025 13.143-1.71 20.142 2.13 23.633 8.5 3.306 6.024 3.15 14.145 2.154 21.795-.007.093-.021.19-.031.288-1.298 7.363-6.541 17.799-12.074 26.62-1.129 1.8-2.201 3.444-3.196 4.895a119.718 119.718 0 0 1-2.995 4.183c-1.097 2.34-2.25 5.136-1.129 8.096.083.533-.63.38-.476.886l1.538.041 10.26.82v.006a2.49 2.49 0 0 1 1.877.88c14.92 17.535 8.01 47.709 2.888 70.078-.927 4.043-1.795 7.827-2.453 11.223-2.772 22.302-.073 40.689 2.47 58.083 2.47 16.85 4.804 32.792 2.082 50.626h-.007a2.51 2.51 0 0 1-2.39 2.133l-24.356.905a2.51 2.51 0 0 1-2.7-2.745c1.906-18.971-.76-38.054-3.317-56.368-2.855-20.43-5.577-39.927-1.84-57.762.011-.072.032-.152.042-.229 13.884-55.284 10.798-60.8 3.49-72.762a4.527 4.527 0 0 0-.265-.24c-.8-.675-1.7-1.016-2.577-.998-.863.02-1.754.39-2.546 1.142-.114.108-.23.228-.346.357-.725 1.312.461 5.099 1.793 9.353 1.88 6.006 3.996 12.782 1.944 18.3a2.774 2.774 0 0 1-.188.442c-1.279 2.384-3.342 3.817-5.547 4.362a8.527 8.527 0 0 1-3.041.194 8.179 8.179 0 0 1-2.907-.913c-1.78-.953-3.201-2.582-3.801-4.822l-.02-.073c-4.885-17.114-5.16-30.723-3.243-41.28.39-2.127.849-4.08 1.362-5.87a55.952 55.952 0 0 1 1.71-5.024l.02-.052c1.984-5.985 5.57-12.54 8.903-18.626 3.643-6.658 6.961-12.722 7.164-16.14-.004-.072 0-.154.005-.23.03-.36.02-.684-.031-.975-.19-1.182-.985-2.178-2.15-2.935-1.387-.902-3.264-1.461-5.336-1.626zm3.107-4.602c1.837.414 3.536 1.094 4.962 2.02 2.324 1.511 3.936 3.656 4.371 6.357.11.704.142 1.427.083 2.153l-.005.073c-.248 4.552-3.833 11.105-7.773 18.3-3.208 5.86-6.663 12.18-8.526 17.802-.041.114-.082.23-.138.335a50.144 50.144 0 0 0-1.532 4.547 55.437 55.437 0 0 0-1.261 5.38c-1.797 9.878-1.511 22.717 3.14 39.017.021.062.032.121.042.181.216.777.71 1.34 1.321 1.667.333.182.712.296 1.108.343h.009c.417.052.845.02 1.255-.072.871-.217 1.701-.789 2.257-1.75 1.399-3.9-.439-9.775-2.067-14.984-1.75-5.595-3.302-10.557-1.067-13.79.052-.073.093-.134.15-.196v-.004c.255-.3.525-.586.807-.854 1.746-1.653 3.823-2.479 5.929-2.516 2.088-.041 4.156.702 5.898 2.173.282.24.557.503.828.787.138.144.252.298.347.463 8.17 13.368 11.711 19.158-2.768 76.806l-.004.01c-3.563 16.995-.896 36.08 1.896 56.077 2.47 17.691 4.775 40.438 3.326 59.038l20.07-.072c2.134-16.311-.34-36.305-2.654-52.107-2.6-17.74-5.348-36.49-2.49-59.454.01-.111.031-.216.062-.323.67-3.424 1.55-7.268 2.491-11.377 4.796-20.943 10.545-56.606-4.623-69.899l-9.385-1.08c-7.427-.082.846-12.886 2.791-15.728a135.915 135.915 0 0 0 3.098-4.716c5.24-8.352 10.184-18.128 11.367-24.83l.01-.083c.884-6.78 1.076-13.872-1.583-18.722-2.518-4.588-7.94-7.31-18.506-5.952-.849.159-1.76.367-2.731.627-1.012.27-1.98.563-2.88.879a44.106 44.106 0 0 0-7.63 3.466z" style="stroke-width:1.77548" transform="translate(-112.977 -91.024)"/><path fill="none" stroke="#231f20" stroke-miterlimit="22.926" stroke-width="0.905496" d="M311.58 103.57c-1.3-.03-2.497-.072-3.784 0-.948-.008-1.69.063-2.312-.602a2.51 2.51 0 0 1 .11-3.55c3.9-3.666 9.53-6.73 15.09-8.657a49.261 49.261 0 0 1 3.216-.992 41.622 41.622 0 0 1 3.159-.714v.004c.051-.009.093-.018.143-.025 13.144-1.71 20.143 2.13 23.634 8.5 3.306 6.024 3.15 14.145 2.154 21.795-.007.093-.021.19-.031.288-1.298 7.363-6.541 17.799-12.074 26.62-1.129 1.8-2.201 3.444-3.196 4.895a119.718 119.718 0 0 1-2.995 4.183c-1.097 2.34-2.25 5.136-1.129 8.096.083.533-.63.38-.476.886l1.538.041 10.26.82v.006a2.49 2.49 0 0 1 1.877.88c14.92 17.535 8.01 47.709 2.888 70.078-.927 4.043-1.795 7.827-2.453 11.223-2.772 22.302-.073 40.689 2.47 58.083 2.47 16.85 4.804 32.792 2.082 50.626h-.007a2.51 2.51 0 0 1-2.39 2.133l-24.356.905a2.51 2.51 0 0 1-2.7-2.745c1.906-18.971-.76-38.054-3.317-56.368-2.855-20.43-5.577-39.927-1.84-57.762.011-.072.032-.152.042-.229 13.884-55.284 10.798-60.8 3.49-72.762a4.527 4.527 0 0 0-.265-.24c-.8-.675-1.7-1.016-2.577-.998-.863.02-1.754.39-2.546 1.142-.114.108-.23.228-.346.357-.725 1.312.461 5.099 1.793 9.353 1.88 6.006 3.996 12.782 1.944 18.3a2.774 2.774 0 0 1-.188.442c-1.279 2.384-3.342 3.817-5.547 4.362a8.527 8.527 0 0 1-3.041.194 8.179 8.179 0 0 1-2.907-.913c-1.78-.953-3.201-2.582-3.801-4.822l-.02-.073c-4.885-17.114-5.16-30.723-3.243-41.28.39-2.127.849-4.08 1.362-5.87a55.952 55.952 0 0 1 1.71-5.024l.02-.052c1.984-5.985 5.57-12.54 8.903-18.626 3.643-6.658 6.961-12.722 7.164-16.14-.004-.072 0-.154.005-.23.03-.36.02-.684-.031-.975-.19-1.182-.985-2.178-2.15-2.935-1.387-.902-3.264-1.461-5.336-1.626zm3.107-4.601c1.837.414 3.536 1.094 4.962 2.02 2.324 1.511 3.936 3.656 4.371 6.357.11.704.142 1.427.083 2.153l-.005.073c-.248 4.552-3.833 11.105-7.773 18.3-3.208 5.86-6.663 12.18-8.526 17.802-.041.114-.082.23-.138.335a50.144 50.144 0 0 0-1.533 4.547 55.437 55.437 0 0 0-1.26 5.38c-1.797 9.878-1.511 22.717 3.14 39.017.021.062.032.121.042.181.216.777.71 1.34 1.321 1.667.333.182.712.296 1.108.343h.009c.417.052.845.02 1.255-.073.871-.216 1.701-.788 2.257-1.748 1.399-3.901-.439-9.776-2.067-14.985-1.75-5.595-3.302-10.557-1.067-13.79.052-.073.093-.134.15-.196v-.004c.255-.3.525-.586.807-.854 1.746-1.653 3.823-2.479 5.929-2.516 2.087-.041 4.156.702 5.898 2.173.282.24.557.503.827.787.14.144.253.298.348.463 8.17 13.368 11.711 19.158-2.768 76.806l-.004.01c-3.563 16.995-.896 36.08 1.896 56.077 2.47 17.691 4.775 40.438 3.326 59.038l20.07-.072c2.134-16.311-.34-36.305-2.654-52.107-2.6-17.74-5.348-36.49-2.49-59.454.01-.111.031-.216.062-.323.67-3.424 1.55-7.268 2.491-11.377 4.796-20.943 10.545-56.606-4.623-69.899l-9.385-1.08c-7.427-.082.846-12.886 2.79-15.728a135.915 135.915 0 0 0 3.1-4.716c5.239-8.352 10.183-18.128 11.366-24.83l.01-.083c.884-6.78 1.076-13.872-1.583-18.722-2.518-4.588-7.94-7.31-18.506-5.952-.849.159-1.76.367-2.731.627-1.012.27-1.98.563-2.88.879a44.106 44.106 0 0 0-7.63 3.466z"/><path fill="#ed1c24" fill-rule="evenodd" d="m344.3 169.416 6.076 21.501 28.017-8.307 18.333-11.328 14.252 18.764 3.072-7.354 17.503-15.264 2.526-6.474-3.272-5.829-13.378-14.138-23.927 6.06-29.627 17.87z" style="stroke-width:1.77548" transform="translate(-112.977 -91.024)"/><path fill="none" stroke="#231f20" stroke-linecap="round" stroke-linejoin="round" stroke-width="0.901943" d="m231.323 78.392 6.076 21.501 28.017-8.307 18.333-11.328 14.252 18.764 3.072-7.355 17.503-15.263 2.526-6.474-3.272-5.829-13.378-14.138-23.927 6.06-29.627 17.87z"/><path fill="#d1272f" fill-rule="evenodd" d="m409.013 187.462-12.783-16.83 14.616-10.871 14.784-4.398 6.32 2.028 1.872 7.963-14.184 12.788z" style="stroke-width:1.77548" transform="translate(-112.977 -91.024)"/><path fill="none" stroke="#231f20" stroke-miterlimit="22.926" stroke-width="0.901943" d="m296.036 96.438-12.783-16.83 14.616-10.871 14.784-4.398 6.319 2.027 1.873 7.964-14.184 12.788z"/><path fill="#fff200" d="M422.093 194.351c-.804.126-1.67.254-2.297.385-2.34.486-4.06.424-6.667-.575-.938-.308-1.716-.886-2.317-1.66-.73-.948-1.167-2.177-1.277-3.539-.093-1.182.052-2.51.472-3.855.701-2.254 2.173-4.607 4.533-6.43l.03-.022 14.238-10.665.052-.038c1.806-1.292 2.825-3.26 2.9-5.108.03-.815-.118-1.587-.47-2.233-.332-.61-.868-1.137-1.628-1.506-2.002-.975-5.363-.918-10.37 1.081l-.031.01c-9.591 3.705-16.198 8.64-22.803 13.578-10.898 8.143-21.797 16.29-45.738 19.63l-1.73.24-.825-1.54-.868-1.613 2.809-1.513-.072-.548c.51-.073 1.01-.144 1.505-.22l.184-.094.031.062c21.452-3.3 31.577-10.87 41.692-18.43 6.859-5.125 13.714-10.247 23.975-14.215v-.004c6.512-2.601 11.284-2.479 14.443-.941 1.742.848 3.01 2.12 3.832 3.625.796 1.472 1.147 3.14 1.075 4.831-.138 3.306-1.894 6.779-5.005 9v-.004l-14.143 10.75c-2.69 2.08-4.057 6.92.71 6.703.648-.134 2.207-.74 3.514-1.717z" style="stroke-width:1.77548" transform="translate(-112.977 -91.024)"/><path fill="none" stroke="#231f20" stroke-linecap="round" stroke-linejoin="round" stroke-width="0.905496" d="M309.116 103.327c-.804.126-1.67.254-2.297.385-2.34.486-4.06.424-6.667-.575-.938-.308-1.716-.886-2.317-1.66-.73-.948-1.167-2.177-1.277-3.539-.093-1.182.052-2.51.472-3.855.701-2.254 2.173-4.607 4.533-6.43l.03-.022 14.238-10.665.052-.038c1.806-1.292 2.825-3.26 2.9-5.108.03-.815-.118-1.587-.47-2.233-.332-.61-.868-1.137-1.628-1.506-2.002-.975-5.363-.918-10.37 1.081l-.031.01c-9.591 3.705-16.198 8.64-22.803 13.578-10.898 8.143-21.797 16.29-45.738 19.63l-1.73.24-.825-1.54-.868-1.613 2.809-1.513-.072-.548c.51-.073 1.01-.144 1.505-.22l.184-.094.031.062c21.452-3.3 31.577-10.87 41.692-18.43 6.859-5.125 13.714-10.247 23.975-14.215v-.004c6.512-2.601 11.284-2.479 14.443-.941 1.742.848 3.01 2.12 3.832 3.625.796 1.472 1.147 3.14 1.075 4.831-.138 3.306-1.894 6.779-5.005 9v-.004l-14.143 10.75c-2.69 2.08-4.057 6.92.71 6.703.648-.134 2.207-.74 3.513-1.717z"/><path fill="#fff200" d="M352.235 170.786a2.517 2.517 0 0 1-.748-4.975c11.656-1.768 21.574-8.073 30.828-13.957 11.303-7.182 21.196-13.607 32.908-11.897 1.588.271 2.7 1.23 4.041 3.045.69 1.042 4.064 2.936-2.67 1.827-10.204-1.701-21.123 4.623-31.586 11.272-9.683 6.156-20.06 12.755-32.773 14.685z" style="stroke-width:1.77548" transform="translate(-112.977 -91.024)"/><path fill="none" stroke="#231f20" stroke-linecap="round" stroke-linejoin="round" stroke-width="0.905496" d="M239.258 79.762a2.517 2.517 0 0 1-.748-4.975c11.656-1.768 21.574-8.073 30.828-13.957 11.303-7.182 21.195-13.607 32.908-11.897 1.588.271 2.7 1.23 4.041 3.045.69 1.042 4.064 2.936-2.67 1.827-10.204-1.701-21.123 4.623-31.586 11.272-9.683 6.156-20.061 12.755-32.773 14.685z"/><path fill="#fff200" fill-rule="evenodd" d="m420.713 188.992 2.37-1.5c-.021 2.193-.3 4.428-.321 6.622-.777.03-1.439-.083-3.094.176z" style="stroke-width:10.3478" transform="translate(-112.977 -91.024)"/><path fill="#d1272f" fill-rule="evenodd" d="M157.796 293.205c-5.712.041-11.147-.009-17.075.041-1.57-11.338-2.092-24.553 7.503-37.544 6.404.563 7.87 1.745 8.725 5.4-3.063 10.998-6.777 23.986.846 32.098z" style="stroke-width:1.77548" transform="translate(-112.977 -91.024)"/><path fill="none" stroke="#231f20" stroke-miterlimit="22.926" stroke-width="0.905496" d="M44.819 202.18c-5.712.042-11.147-.008-17.075.042-1.57-11.338-2.092-24.553 7.503-37.544 6.404.563 7.87 1.745 8.725 5.4-3.063 10.998-6.777 23.986.846 32.098z"/><path fill="#ed1c24" fill-rule="evenodd" d="M161.91 192.283c-7.648-.207-14.54 1.718-14.291 8.05-.983 7.306 12.014 22.973 16.194 35.587 4.408 11.052 4.222 27.856-.186 50.756-1.21 4.915-8.102 5.567-10.69.756-3.445-8.869 6.644-23.666 3.353-28.426-2.794-3.29-6.943-3.239-9.727-.3-7.636 9.427-11.206 18.233 3.032 74.929 7.047 33.33-9.437 76.056-5.37 116.496-8.154-.3-16.195-.6-24.359-.911-5.474-35.907 10.14-67.075 4.657-111.177-4.212-21.69-15.75-62.15 1.024-81.862l13.742-1.19c2.028-4.046-.683-6.064-2.608-9.965-7.047-9.323-16.215-25.031-17.943-34.81-1.914-14.539-.807-30.754 22.952-27.66 6.891 1.263 15.149 4.967 20.22 9.727" style="stroke-width:10.3478" transform="translate(-112.977 -91.024)"/><path fill="none" stroke="#231f20" stroke-linecap="round" stroke-linejoin="round" stroke-width="0.905496" d="m11.368 165.166 27.129-2.187"/><path fill="#d1272f" fill-rule="evenodd" d="m161.179 482.17 14.394-23.107 22.547 10.172-1.728 3.57-9.706-2.494-14.414-3.466-10.41 16.95c-.104-.653-.249-1.108-.683-1.625M147.343 469.225l15.511-14.031 1.242-7.068 2.41.155-6.363-24.038-10.576 4.636-6.477 20.23c-1.76.259-3.508.528-5.257.787 2.06 6.157 2.877 11.93 9.51 19.33" style="stroke-width:10.3478" transform="translate(-112.977 -91.024)"/><path fill="#fff200" d="M157.65 194.595c1.299-.031 2.495-.073 3.786 0 .945-.01 1.689.062 2.308-.603.95-1.008.904-2.6-.104-3.55-3.906-3.666-9.535-6.73-15.095-8.657a48.285 48.285 0 0 0-3.216-.992 41.622 41.622 0 0 0-3.158-.714v.004c-.052-.009-.094-.018-.144-.025-13.144-1.71-20.143 2.13-23.634 8.5-3.306 6.024-3.151 14.145-2.153 21.795.007.093.02.19.03.288 1.297 7.363 6.542 17.799 12.072 26.62 1.13 1.8 2.202 3.444 3.196 4.895a119.705 119.705 0 0 0 2.995 4.183c1.098 2.34 2.25 5.136 1.133 8.096-.083.533.627.38.474.886l-1.54.041-10.26.82v.006a2.49 2.49 0 0 0-1.876.88c-14.922 17.535-8.011 47.709-2.891 70.078.927 4.043 1.795 7.827 2.456 11.223 2.771 22.302.082 40.689-2.47 58.083-2.47 16.85-4.805 32.792-2.083 50.626h.007a2.51 2.51 0 0 0 2.39 2.133l24.354.905a2.508 2.508 0 0 0 2.702-2.745c-1.903-18.971.76-38.054 3.317-56.368 2.855-20.43 5.576-39.927 1.839-57.762-.01-.072-.031-.152-.041-.229-13.885-55.284-10.799-60.8-3.491-72.762.083-.083.176-.164.266-.24.799-.675 1.701-1.016 2.578-.998.859.02 1.752.39 2.544 1.142.114.108.231.228.345.357.726 1.312-.46 5.099-1.792 9.353-1.88 6.006-3.998 12.782-1.942 18.3.041.149.107.298.185.442 1.28 2.384 3.342 3.817 5.547 4.362a8.54 8.54 0 0 0 3.043.194 8.179 8.179 0 0 0 2.906-.913c1.781-.953 3.202-2.582 3.802-4.822l.02-.073c4.883-17.114 5.16-30.723 3.24-41.28a60.63 60.63 0 0 0-1.36-5.87 54.986 54.986 0 0 0-1.71-5.024l-.02-.052c-1.983-5.985-5.571-12.54-8.902-18.626-3.644-6.658-6.962-12.722-7.16-16.14 0-.072-.005-.154-.01-.23a3.74 3.74 0 0 1 .031-.975c.19-1.182.985-2.178 2.15-2.935 1.387-.902 3.264-1.461 5.336-1.626zm-3.108-4.602c-1.84.414-3.537 1.094-4.959 2.02-2.328 1.511-3.94 3.656-4.375 6.357a9.175 9.175 0 0 0-.083 2.153l.005.073c.249 4.552 3.837 11.105 7.774 18.3 3.208 5.86 6.663 12.18 8.525 17.802.042.114.083.23.139.335a49.616 49.616 0 0 1 1.53 4.547 55.045 55.045 0 0 1 1.263 5.38c1.797 9.878 1.51 22.717-3.143 39.017-.02.062-.03.121-.041.181a2.667 2.667 0 0 1-1.321 1.667 3.075 3.075 0 0 1-1.108.343h-.009a3.66 3.66 0 0 1-1.255-.072c-.872-.217-1.701-.789-2.257-1.75-1.399-3.9.437-9.775 2.065-14.984 1.752-5.595 3.302-10.557 1.069-13.79-.052-.073-.093-.134-.151-.196v-.004c-.254-.3-.524-.586-.806-.854-1.746-1.653-3.823-2.479-5.929-2.516-2.088-.041-4.156.702-5.898 2.173-.282.24-.558.503-.828.787a2.35 2.35 0 0 0-.347.463c-8.171 13.368-11.711 19.158 2.768 76.806l.004.01c3.563 16.995.9 36.08-1.893 56.077-2.473 17.691-4.774 40.438-3.326 59.038l-20.073-.072c-2.134-16.311.34-36.305 2.654-52.107 2.6-17.74 5.348-36.49 2.488-59.454-.01-.111-.031-.216-.052-.323-.665-3.424-1.55-7.268-2.49-11.377-4.797-20.943-10.547-56.606 4.624-69.899l9.384-1.08c7.43-.082-.846-12.886-2.791-15.728a135.916 135.916 0 0 1-3.099-4.716c-5.236-8.352-10.184-18.128-11.363-24.83l-.02-.083c-.886-6.78-1.08-13.872 1.581-18.722 2.516-4.588 7.94-7.31 18.506-5.952.848.159 1.76.367 2.731.627 1.012.27 1.98.563 2.88.879 2.617.902 5.24 2.08 7.629 3.466z" style="stroke-width:1.77548" transform="translate(-112.977 -91.024)"/><path fill="none" stroke="#231f20" stroke-miterlimit="22.926" stroke-width="0.905496" d="M44.672 103.57c1.3-.03 2.496-.072 3.787 0 .945-.008 1.689.063 2.308-.602.95-1.008.904-2.6-.104-3.55-3.906-3.666-9.535-6.73-15.095-8.657a48.285 48.285 0 0 0-3.216-.992 41.622 41.622 0 0 0-3.158-.714v.004c-.052-.009-.094-.018-.144-.025-13.144-1.71-20.143 2.13-23.634 8.5-3.306 6.024-3.151 14.145-2.153 21.795.007.093.02.19.03.288 1.297 7.363 6.542 17.799 12.072 26.62 1.13 1.8 2.202 3.444 3.196 4.895a119.705 119.705 0 0 0 2.995 4.183c1.098 2.34 2.25 5.136 1.133 8.096-.083.533.627.38.474.886l-1.54.041-10.26.82v.006a2.49 2.49 0 0 0-1.876.88c-14.922 17.535-8.011 47.709-2.891 70.078.927 4.043 1.795 7.827 2.456 11.223 2.771 22.302.082 40.689-2.47 58.083-2.47 16.85-4.805 32.792-2.083 50.626h.007a2.51 2.51 0 0 0 2.39 2.133l24.354.905a2.508 2.508 0 0 0 2.702-2.745c-1.903-18.971.76-38.054 3.317-56.368 2.855-20.43 5.576-39.927 1.839-57.762-.01-.072-.031-.152-.041-.229-13.885-55.284-10.799-60.8-3.491-72.762.083-.083.176-.164.266-.24.799-.675 1.7-1.016 2.578-.998.859.02 1.752.39 2.544 1.142.114.108.231.228.345.357.726 1.312-.46 5.099-1.792 9.353-1.88 6.006-3.998 12.782-1.942 18.3.041.149.106.298.185.442 1.28 2.384 3.342 3.817 5.547 4.362a8.54 8.54 0 0 0 3.043.194 8.179 8.179 0 0 0 2.906-.913c1.781-.953 3.202-2.582 3.802-4.822l.02-.073c4.883-17.114 5.16-30.723 3.24-41.28a60.63 60.63 0 0 0-1.36-5.87 54.986 54.986 0 0 0-1.71-5.024l-.02-.052c-1.983-5.985-5.571-12.54-8.902-18.626-3.644-6.658-6.962-12.722-7.16-16.14 0-.072-.005-.154-.01-.23a3.74 3.74 0 0 1 .031-.975c.19-1.182.985-2.178 2.15-2.935 1.387-.902 3.264-1.461 5.336-1.626zm-3.107-4.601c-1.84.414-3.537 1.094-4.959 2.02-2.328 1.511-3.94 3.656-4.375 6.357a9.175 9.175 0 0 0-.083 2.153l.005.073c.249 4.552 3.837 11.105 7.774 18.3 3.208 5.86 6.663 12.18 8.525 17.802.042.114.083.23.139.335a49.616 49.616 0 0 1 1.53 4.547 55.045 55.045 0 0 1 1.263 5.38c1.797 9.878 1.51 22.717-3.143 39.017-.02.062-.03.121-.041.181a2.667 2.667 0 0 1-1.321 1.667 3.075 3.075 0 0 1-1.108.343h-.009a3.66 3.66 0 0 1-1.255-.073c-.872-.216-1.701-.788-2.257-1.748-1.399-3.901.437-9.776 2.065-14.985 1.752-5.595 3.302-10.557 1.069-13.79-.052-.073-.093-.134-.151-.196v-.004c-.254-.3-.524-.586-.806-.854-1.746-1.653-3.823-2.479-5.929-2.516-2.088-.041-4.156.702-5.898 2.173-.282.24-.558.503-.828.787a2.35 2.35 0 0 0-.347.463c-8.171 13.368-11.711 19.158 2.768 76.806l.004.01c3.563 16.995.9 36.08-1.893 56.077-2.473 17.691-4.774 40.438-3.326 59.038l-20.073-.072c-2.134-16.311.34-36.305 2.654-52.107 2.6-17.74 5.348-36.49 2.488-59.454-.01-.111-.031-.216-.052-.323-.665-3.424-1.55-7.268-2.49-11.377C6.707 214.056.957 178.393 16.128 165.1l9.384-1.08c7.43-.082-.846-12.886-2.791-15.728a135.916 135.916 0 0 1-3.099-4.716c-5.236-8.352-10.184-18.128-11.363-24.83l-.02-.083c-.886-6.78-1.08-13.872 1.581-18.722 2.516-4.588 7.94-7.31 18.506-5.952.848.159 1.76.367 2.731.627 1.012.27 1.98.563 2.88.879 2.617.902 5.24 2.08 7.629 3.466z"/><path fill="#ed1c24" fill-rule="evenodd" d="m237.905 169.416-6.074 21.501-28.018-8.307-18.334-11.328-14.252 18.764-3.071-7.354-17.5-15.264-2.528-6.474 3.27-5.829 13.379-14.138 23.926 6.06 29.63 17.87z" style="stroke-width:1.77548" transform="translate(-112.977 -91.024)"/><path fill="none" stroke="#231f20" stroke-linecap="round" stroke-linejoin="round" stroke-width="0.901943" d="m124.928 78.392-6.074 21.501-28.018-8.307-18.334-11.328L58.25 99.022l-3.071-7.355-17.5-15.263-2.528-6.474 3.27-5.829L51.8 49.963l23.926 6.06 29.63 17.87z"/><path fill="#d1272f" fill-rule="evenodd" d="m173.192 187.462 12.783-16.83-14.616-10.871-14.784-4.398-6.32 2.028-1.872 7.963 14.184 12.788z" style="stroke-width:1.77548" transform="translate(-112.977 -91.024)"/><path fill="none" stroke="#231f20" stroke-miterlimit="22.926" stroke-width="0.901943" d="m60.215 96.438 12.783-16.83-14.616-10.871-14.784-4.398-6.32 2.027-1.872 7.964L49.59 87.118z"/><path fill="#fff200" d="M160.112 194.351c.804.126 1.67.254 2.298.385 2.34.486 4.062.424 6.667-.575.94-.308 1.715-.886 2.317-1.66.731-.948 1.166-2.177 1.276-3.539.093-1.182-.051-2.51-.472-3.855-.701-2.254-2.173-4.607-4.532-6.43l-.031-.022-14.238-10.665-.052-.038c-1.805-1.292-2.823-3.26-2.9-5.108-.032-.815.118-1.587.47-2.233.33-.61.868-1.137 1.628-1.506 2.003-.975 5.367-.918 10.374 1.081l.031.01c9.588 3.705 16.194 8.64 22.8 13.578 10.897 8.143 21.8 16.29 45.737 19.63l1.732.24.827-1.54.865-1.613-2.808-1.513.072-.548c-.509-.073-1.009-.144-1.504-.22l-.184-.094-.03.062c-21.449-3.3-31.576-10.87-41.695-18.43-6.856-5.125-13.712-10.247-23.972-14.215v-.004c-6.513-2.601-11.285-2.479-14.444-.941-1.741.848-3.009 2.12-3.827 3.625-.801 1.472-1.15 3.14-1.08 4.831.139 3.306 1.894 6.779 5.005 9l.002-.004 14.142 10.75c2.69 2.08 4.057 6.92-.71 6.703-.648-.134-2.205-.74-3.51-1.717z" style="stroke-width:1.77548" transform="translate(-112.977 -91.024)"/><path fill="none" stroke="#231f20" stroke-linecap="round" stroke-linejoin="round" stroke-width="0.905496" d="M47.135 103.327c.804.126 1.67.254 2.298.385 2.34.486 4.062.424 6.667-.575.94-.308 1.715-.886 2.317-1.66.731-.948 1.166-2.177 1.276-3.539.093-1.182-.051-2.51-.472-3.855-.701-2.254-2.173-4.607-4.532-6.43l-.031-.022L40.42 76.966l-.052-.038c-1.805-1.292-2.823-3.26-2.9-5.108-.032-.815.118-1.587.47-2.233.33-.61.868-1.137 1.628-1.506 2.003-.975 5.367-.918 10.374 1.081l.031.01c9.588 3.705 16.194 8.64 22.8 13.578 10.897 8.143 21.8 16.29 45.737 19.63l1.732.24.827-1.54.865-1.613-2.808-1.513.072-.548c-.509-.073-1.009-.144-1.504-.22l-.184-.094-.03.062c-21.449-3.3-31.576-10.87-41.695-18.43-6.856-5.125-13.712-10.247-23.972-14.215v-.004c-6.513-2.601-11.285-2.479-14.444-.941-1.741.848-3.009 2.12-3.827 3.625-.801 1.472-1.15 3.14-1.08 4.831.139 3.306 1.894 6.779 5.005 9l.002-.004 14.142 10.75c2.69 2.08 4.057 6.92-.71 6.703-.648-.134-2.205-.74-3.51-1.717z"/><path fill="#fff200" d="M229.97 170.786a2.517 2.517 0 0 0 2.861-2.114 2.514 2.514 0 0 0-2.113-2.86c-11.656-1.77-21.573-8.074-30.827-13.958-11.303-7.182-21.192-13.607-32.909-11.897-1.587.271-2.699 1.23-4.04 3.045-.688 1.042-4.065 2.936 2.671 1.827 10.202-1.701 21.121 4.623 31.584 11.272 9.684 6.156 20.061 12.755 32.774 14.685z" style="stroke-width:1.77548" transform="translate(-112.977 -91.024)"/><path fill="none" stroke="#231f20" stroke-linecap="round" stroke-linejoin="round" stroke-width="0.905496" d="M116.994 79.762a2.517 2.517 0 0 0 2.86-2.114 2.514 2.514 0 0 0-2.113-2.86c-11.656-1.77-21.573-8.074-30.827-13.958-11.303-7.182-21.192-13.607-32.909-11.897-1.587.271-2.699 1.23-4.04 3.045-.688 1.042-4.065 2.936 2.671 1.827 10.202-1.701 21.121 4.623 31.584 11.272 9.684 6.156 20.061 12.755 32.774 14.685z"/><path fill="#fff200" fill-rule="evenodd" d="m161.478 188.992-2.37-1.5c.02 2.193.3 4.428.32 6.622.777.03 1.44-.083 3.095.176z" style="stroke-width:10.3478" transform="translate(-112.977 -91.024)"/><path fill="#fff200" d="M368.21 487.544c18.177-3.71 30.07-8.914 37.947-14.159 2.33-3.27-.031-4.63-3.617-3.865-4.062.866-9.694 4.161-11.827 4.893-3.9.943-6.993.866-8.712-2.617-1.557-5.293 3.936-7.786 8.325-9.323 10.096-3.97 24.566-6.271 26.752-29.024.92-8.817 2.322-10.868 6.315-11.281 4.343-.451 8.188 1.92 7.693 8.348-.428 5.591-.405 6.133-2.835 10.21-1.371 2.296-3.468 4.265-4.775 6.588-2.663 4.499 5.613 9.621 7.156-2.115.466-4.554.149-13.932.788-19.573.107-1.997 5.199-2.78 4.359 1.44-.216 7.974.391 14.875-.506 20.308-.417 3.991-.884 5.343-3.198 7.887-4.12 3.432-8.389 4.004-12.252-.062-1.79-2.317-1.396-7.054-.586-8.773 1.472-4.12 1.35-3.107 3.455-6.638 2.209-3.7 3.22-4.203 4.116-8.375.203-1.518-.104-4.341-1.879-4.734-2.168-.234-2.557.596-2.83 2.575-.8 29.987-19.218 34.137-30.121 37.956-2.937 1.03-5.081 1.78-5.293 2.162v-.002c-.829 2.206 1.465 1.717 3.127 1.288 3.565-1.355 6.436-2.735 9.382-3.814 4.108-1.516 6.995-1.628 8.946-.972 1.477.499 2.475 1.398 3.097 2.51.582 1.048.784 2.225.71 3.387-.132 2.056-1.2 4.227-2.488 5.41a2.532 2.532 0 0 1-.305.235c-8.336 5.604-20.873 11.15-39.941 15.042-50.012 10.211-106.208 10.211-156.22 0-19.068-3.892-31.605-9.438-39.94-15.042a2.692 2.692 0 0 1-.304-.235h-.002c-1.287-1.183-2.353-3.354-2.484-5.41-.072-1.162.126-2.339.707-3.386.62-1.113 1.619-2.012 3.096-2.51 1.951-.658 4.838-.546 8.95.97 2.942 1.08 5.817 2.46 9.377 3.815 1.663.429 3.957.917 3.128-1.288v.002c-.209-.381-2.356-1.132-5.293-2.162-10.903-3.82-29.32-7.969-30.12-37.956-.273-1.978-.665-2.81-2.83-2.575-1.776.392-2.083 3.216-1.88 4.734.896 4.172 1.908 4.674 4.116 8.375 2.108 3.531 1.987 2.519 3.457 6.638.808 1.719 1.202 6.456-.588 8.773-3.863 4.066-8.131 3.494-12.252.062-2.314-2.544-2.78-3.896-3.196-7.887-.895-5.433-.29-12.334-.508-20.308-.84-4.22 4.256-3.437 4.359-1.44.64 5.641.325 15.02.788 19.573 1.543 11.736 9.818 6.614 7.153 2.115-1.303-2.323-3.401-4.292-4.77-6.587-2.429-4.078-2.41-4.62-2.837-10.211-.496-6.427 3.35-8.8 7.693-8.348 3.993.414 5.395 2.464 6.315 11.281 2.186 22.753 16.656 25.054 26.753 29.024 4.387 1.537 9.88 4.03 8.324 9.323-1.72 3.483-4.809 3.56-8.713 2.617-2.132-.732-7.764-4.027-11.826-4.893-3.585-.765-5.948.595-3.617 3.865 7.876 5.245 19.774 10.449 37.947 14.16 41.463 8.465 112.754 8.465 154.213 0z" style="stroke-width:1.77548" transform="translate(-112.977 -91.024)"/><path fill="none" stroke="#231f20" stroke-linecap="round" stroke-linejoin="round" stroke-width="0.905496" d="M255.232 396.52c18.178-3.71 30.072-8.914 37.948-14.159 2.33-3.27-.031-4.63-3.617-3.865-4.062.866-9.694 4.161-11.827 4.893-3.9.943-6.993.866-8.712-2.617-1.557-5.293 3.936-7.786 8.325-9.323 10.096-3.97 24.566-6.271 26.752-29.024.92-8.817 2.322-10.868 6.315-11.281 4.343-.451 8.188 1.92 7.693 8.348-.428 5.591-.405 6.133-2.835 10.21-1.371 2.296-3.468 4.265-4.775 6.588-2.663 4.499 5.613 9.621 7.156-2.115.466-4.554.149-13.932.788-19.573.107-1.997 5.199-2.78 4.359 1.44-.216 7.974.391 14.875-.506 20.308-.417 3.991-.884 5.343-3.198 7.887-4.12 3.432-8.389 4.004-12.252-.062-1.79-2.317-1.396-7.054-.586-8.773 1.472-4.12 1.35-3.107 3.455-6.638 2.209-3.7 3.22-4.203 4.116-8.375.203-1.518-.104-4.341-1.879-4.734-2.168-.234-2.557.596-2.83 2.575-.8 29.987-19.218 34.137-30.121 37.956-2.937 1.03-5.081 1.78-5.293 2.162v-.002c-.829 2.206 1.465 1.717 3.127 1.288 3.565-1.355 6.436-2.735 9.381-3.814 4.109-1.516 6.996-1.628 8.947-.972 1.477.499 2.475 1.398 3.097 2.51.582 1.048.784 2.225.71 3.387-.132 2.056-1.2 4.227-2.488 5.41a2.532 2.532 0 0 1-.305.235c-8.336 5.604-20.873 11.15-39.941 15.042-50.012 10.211-106.208 10.211-156.22 0-19.068-3.892-31.605-9.438-39.94-15.042a2.692 2.692 0 0 1-.304-.235h-.002c-1.287-1.183-2.353-3.354-2.484-5.41-.072-1.162.126-2.339.707-3.386.62-1.113 1.619-2.012 3.096-2.51 1.951-.658 4.838-.546 8.95.97 2.942 1.08 5.817 2.46 9.377 3.815 1.663.429 3.957.917 3.128-1.288v.002c-.209-.381-2.356-1.132-5.293-2.162-10.903-3.82-29.32-7.969-30.12-37.956-.273-1.978-.665-2.81-2.83-2.575-1.776.392-2.083 3.216-1.88 4.734.896 4.172 1.908 4.674 4.116 8.375 2.108 3.53 1.987 2.519 3.457 6.638.808 1.719 1.202 6.456-.588 8.773-3.863 4.066-8.131 3.494-12.252.062-2.314-2.544-2.78-3.896-3.196-7.887-.895-5.433-.29-12.334-.508-20.308-.84-4.22 4.256-3.437 4.359-1.44.64 5.641.325 15.02.788 19.573 1.543 11.736 9.818 6.614 7.153 2.115-1.303-2.323-3.401-4.292-4.77-6.587-2.429-4.078-2.41-4.62-2.837-10.211-.496-6.427 3.35-8.8 7.693-8.348 3.993.414 5.395 2.464 6.315 11.281 2.186 22.753 16.656 25.054 26.753 29.024 4.387 1.537 9.88 4.03 8.323 9.323-1.718 3.483-4.808 3.56-8.712 2.617-2.132-.732-7.764-4.027-11.826-4.893-3.585-.765-5.948.595-3.617 3.865 7.876 5.245 19.774 10.449 37.947 14.16 41.463 8.465 112.754 8.465 154.213 0z"/><path fill="#ffcb04" fill-rule="evenodd" d="m339.032 96.177 7.535 1.377-1.081 5.918 5.92 1.082-1.376 7.533-5.919-1.08-1.083 5.92-7.533-1.378 1.08-5.92-5.919-1.08 1.377-7.535 5.92 1.082z" style="stroke-width:2.13717" transform="translate(-112.977 -91.024)"/><path fill="none" stroke="#231f20" stroke-miterlimit="22.926" stroke-width="0.906161" d="m226.055 5.153 7.535 1.377-1.081 5.918 5.92 1.082-1.376 7.533-5.919-1.08-1.083 5.92-7.533-1.378 1.08-5.92-5.919-1.08 1.377-7.535 5.92 1.082z"/><path fill="#ffcb04" fill-rule="evenodd" d="M293.062 92.454c.031 1.04.052 2.079.083 3.12 6.436 2.227 12.784 8.381 14.79 13.2l-7.354 2.006-1.167 7.52 5.346 7.85 7.853.167 2.003-1.42c8.92 6.502 7.98 14.12-2.336 18.131l-7.02-4.094-7.1 3.675-1.503 3.512-4.142.05v.032l-1.27-.015-1.273.015v-.032l-4.142-.05-1.502-3.512-7.102-3.675-7.018 4.094c-10.317-4.01-11.259-11.63-2.338-18.131l2.002 1.42 7.857-.167 5.347-7.85-1.171-7.52-7.354-2.006c2.008-4.819 8.357-10.973 14.79-13.2.03-1.041.051-2.08.082-3.12 0-1.332 3.581-1.273 3.64 0z" style="stroke-width:1.77548" transform="translate(-112.977 -91.024)"/><path fill="none" stroke="#231f20" stroke-miterlimit="22.926" stroke-width="0.905496" d="M180.085 1.43c.031 1.04.052 2.079.083 3.12 6.436 2.227 12.784 8.381 14.79 13.2l-7.354 2.006-1.167 7.52 5.346 7.85 7.853.167 2.003-1.42c8.92 6.502 7.98 14.12-2.336 18.131l-7.02-4.094-7.1 3.675-1.503 3.512-4.142.05v.032l-1.27-.015-1.273.015v-.032l-4.142-.05-1.502-3.512-7.102-3.675-7.018 4.094c-10.318-4.01-11.259-11.63-2.338-18.131l2.002 1.42 7.857-.167 5.347-7.85-1.171-7.52-7.354-2.006c2.008-4.819 8.357-10.973 14.79-13.2.03-1.041.051-2.08.082-3.12 0-1.332 3.581-1.273 3.64 0z"/><path fill="#ffcb04" fill-rule="evenodd" d="M393.64 120.384c-5.596-5.547-26.572-4.494-19.514 2.98 5.372 5.693-.526 16.598-8.79 11.322-4.448-2.84-13.223-3.315-14.899 3.13-2.952 11.343 15.504 14.358-1.487 28.154-1.925 1.56-4.718 1.049-1.64 2.235 15.156 5.834 12.821-9.089 23.537-9.089 7.378 0 8.417 10.389 15.492 1.192 3.168-4.112 4.162-7.67 2.98-12.809-1.456-6.333 6.9-13.706-4.02-13.706-3.077 0-.083-7.458.149-8.343.726-2.799 5.587-4.395 8.192-5.066z" style="stroke-width:1.77548" transform="translate(-112.977 -91.024)"/><path fill="none" stroke="#231f20" stroke-linecap="round" stroke-linejoin="round" stroke-width="0.905496" d="M280.663 29.36c-5.596-5.547-26.572-4.494-19.514 2.98 5.372 5.693-.526 16.598-8.79 11.322-4.448-2.84-13.223-3.315-14.899 3.13-2.952 11.343 15.504 14.358-1.487 28.154-1.925 1.56-4.718 1.049-1.64 2.235 15.156 5.834 12.821-9.089 23.537-9.089 7.378 0 8.417 10.389 15.492 1.192 3.168-4.112 4.162-7.67 2.98-12.809-1.456-6.333 6.9-13.707-4.02-13.707-3.077 0-.083-7.457.149-8.342.726-2.799 5.587-4.395 8.192-5.066z"/><path fill="#ffcb04" d="m377.191 131.125.003-.006.002-.006c.25-.604.438-1.22.566-1.836.127-.61.189-1.218.192-1.81.02-3.183-1.697-5.928-4.656-6.873l-.003.007-.008-.003c-2.088-.664-4.353-.294-6.328.835a10.398 10.398 0 0 0-3.434 3.242c-.485.778 1.977 1.657 2.385.989a7.799 7.799 0 0 1 2.49-2.311c1.293-.743 2.725-1.002 3.99-.603l.008.003-.002.006c1.865.593 2.945 2.473 2.933 4.694-.003.455-.051.93-.15 1.413-.103.476-.25.965-.457 1.462h.002l-.002.005-.004.004c-1.024 2.455-3.074 4.176-5.178 4.594a4.573 4.573 0 0 1-1.116.09 3.992 3.992 0 0 1-1.056-.182l-.009-.002h-.003v-.003c-1.261-.404-2.168-1.411-2.614-2.704a6.192 6.192 0 0 1-.3-2.341c-.107-.933-2.403-1.385-2.591-.552-.132 1.26.004 2.473.373 3.552.68 1.977 2.142 3.532 4.224 4.2h.006l.008.003.009.003c.605.19 1.217.296 1.827.32a7.61 7.61 0 0 0 1.825-.144c2.933-.582 5.735-2.849 7.069-6.046z" style="stroke-width:1.15761" transform="translate(-112.977 -91.024)"/><path fill="none" stroke="#231f20" stroke-linecap="round" stroke-linejoin="round" stroke-width="0.904092" d="m264.214 40.101.003-.006.002-.006c.25-.604.438-1.22.566-1.836.126-.61.189-1.218.192-1.81.02-3.183-1.697-5.928-4.656-6.873l-.003.007-.008-.003c-2.088-.664-4.353-.294-6.328.835a10.398 10.398 0 0 0-3.434 3.242c-.485.778 1.977 1.657 2.384.989a7.799 7.799 0 0 1 2.492-2.312c1.292-.742 2.724-1 3.989-.602l.008.003-.002.006c1.865.593 2.945 2.473 2.933 4.694-.003.455-.051.93-.15 1.413-.103.476-.25.965-.457 1.462h.002l-.002.005-.004.004c-1.024 2.455-3.075 4.176-5.178 4.594a4.573 4.573 0 0 1-1.116.09 3.992 3.992 0 0 1-1.056-.182l-.009-.002h-.003v-.003c-1.261-.404-2.168-1.411-2.614-2.704a6.192 6.192 0 0 1-.3-2.341c-.107-.933-2.403-1.385-2.591-.552-.132 1.26.004 2.473.373 3.552.68 1.977 2.142 3.532 4.224 4.2h.006l.008.003.009.003c.605.19 1.217.296 1.827.32a7.61 7.61 0 0 0 1.825-.144c2.933-.582 5.735-2.849 7.069-6.046z"/><path fill="#ed1651" fill-rule="evenodd" d="M372.481 151.785c-2.123-.83-2.457-4.462-.763-8.102 1.71-3.65 4.82-5.945 6.943-5.115 2.124.83 2.458 4.462.747 8.112-1.696 3.652-4.804 5.935-6.927 5.105z" style="stroke-width:12.9387" transform="translate(-112.977 -91.024)"/><path fill="none" stroke="#231f20" stroke-miterlimit="22.926" stroke-width="0.853955" d="M259.504 60.761c-2.123-.83-2.457-4.462-.763-8.102 1.71-3.65 4.82-5.945 6.943-5.115 2.124.83 2.458 4.462.747 8.112-1.696 3.652-4.804 5.935-6.927 5.105z"/><path fill="none" stroke="#231f20" stroke-miterlimit="22.926" stroke-width="0.811501" d="M257.772 63.507c-3.194-1.156-3.705-6.243-1.13-11.35 2.563-5.12 7.229-8.312 10.422-7.156 3.179 1.166 3.691 6.242 1.13 11.351-2.561 5.109-7.23 8.323-10.422 7.155z"/><path fill="none" stroke="#231f20" stroke-linecap="round" stroke-linejoin="round" stroke-width="0.905496" d="M240.152 49.732c3.225-1.49 8.274-2.351 10.927.302 2.91 2.913 3.139 4.687 3.913 8.394"/><path fill="#fff200" fill-rule="evenodd" d="M304.561 158.833c3.405-.27 17.457 2.37 20.158 3.901 2.577 1.47 19.94 5.784 22.693 6.84 1.604.62-.704-3.89-4.584-7.41-3.995-3.62-9.572-6.28-9.707-6.508-2.866-5.101 2.732-11.93 7.15-13.08 1.884-.486 5.547-5.09 2.143-3.58-5.712 2.515-10.503.238-12.821-1.19-2.38-1.47-4.16-1.335-1.356 3.25 5.102 8.33-14.6 17.611-23.676 17.777" style="stroke-width:10.3478" transform="translate(-112.977 -91.024)"/><path fill="#ffcb04" d="M326.445 138.479c1.773.548 3.076 1.417 3.972 2.49 1.154 1.38 1.595 3.041 1.471 4.77-.11 1.58-.702 3.214-1.642 4.716-1.366 2.188-3.512 4.156-5.99 5.296l-.006.007-.117.053c-1.144.512-2.45.953-3.86 1.302-1.376.34-2.855.6-4.378.765-7.995.876-17.296-.88-19.924-6.403-2.162-4.546-1.156-8.336 1.206-10.897 1.398-1.522 3.287-2.578 5.258-3.07 2.001-.5 4.121-.43 5.955.31l-.004.004c2.808 1.138 4.895 3.726 4.895 8.057-.103 1.373-3.704 1.413-3.613 0 0-2.605-1.124-4.105-2.628-4.714h-.009c-1.102-.446-2.431-.479-3.723-.155-1.318.328-2.57 1.02-3.48 2.01-1.435 1.56-2.01 3.948-.596 6.918 1.878 3.948 9.55 5.092 16.282 4.356a29.658 29.658 0 0 0 3.897-.683c1.19-.296 2.286-.66 3.238-1.092l.118-.05v.004c1.816-.84 3.397-2.297 4.415-3.925.635-1.018 1.038-2.085 1.106-3.065.062-.834-.132-1.604-.64-2.214-.457-.549-1.196-1.015-2.264-1.346-1.373-.638-.314-3.943 1.058-3.444z" style="stroke-width:1.82122" transform="translate(-112.977 -91.024)"/><path fill="none" stroke="#231f20" stroke-linecap="round" stroke-linejoin="round" stroke-width="0.905145" d="M213.468 47.455c1.773.548 3.076 1.417 3.972 2.49 1.154 1.38 1.595 3.04 1.471 4.77-.11 1.58-.702 3.214-1.643 4.716-1.365 2.188-3.51 4.156-5.99 5.296l-.005.007-.117.053c-1.144.512-2.45.953-3.86 1.302-1.376.34-2.855.6-4.378.765-7.995.876-17.296-.88-19.924-6.403-2.162-4.546-1.156-8.336 1.206-10.897 1.398-1.522 3.287-2.578 5.258-3.07 2.001-.5 4.121-.43 5.955.31l-.004.003c2.808 1.139 4.895 3.727 4.895 8.058-.103 1.373-3.704 1.413-3.613 0 0-2.605-1.124-4.105-2.628-4.714h-.009c-1.102-.446-2.431-.479-3.723-.155-1.318.328-2.57 1.02-3.48 2.01-1.435 1.56-2.01 3.948-.596 6.918 1.878 3.948 9.55 5.092 16.282 4.356a29.658 29.658 0 0 0 3.897-.683c1.19-.296 2.286-.66 3.238-1.092l.118-.05v.004c1.816-.84 3.397-2.297 4.415-3.925.635-1.018 1.038-2.085 1.106-3.065.062-.834-.132-1.604-.64-2.214-.457-.549-1.197-1.015-2.264-1.346-1.373-.638-.314-3.943 1.058-3.444z"/><path fill="#ffcb04" d="m342.564 164.897-.01-.002h-.006a19.805 19.805 0 0 1-3.147-1.042 18.15 18.15 0 0 1-2.796-1.49c-4.64-3.023-7.197-7.837-6.092-12.505h.008l.004-.015c.787-3.284 3.218-5.81 6.514-7.237 2.219-.954 4.834-1.415 7.588-1.263 1.538.13.755 4.1-.557 3.98-2.001-.07-3.874.27-5.447.951-2.162.934-3.74 2.508-4.215 4.497l-.002.012h.008c-.698 2.94 1.13 6.115 4.367 8.227.67.435 1.4.827 2.187 1.162.774.332 1.612.61 2.504.82v.005l.01.002h.008c4.43 1.05 8.652.093 11.014-2.179.42-.402.78-.85 1.07-1.336.28-.479.493-.988.618-1.515l.006-.017v-.004l-.006-.004c.469-1.99-.233-4.106-1.742-5.913-.831-.99-1.898-1.886-3.155-2.625-1.267-1.027 0-4.382 1.372-3.82 1.94 1.039 3.592 2.37 4.855 3.878 2.304 2.755 3.346 6.102 2.57 9.39l-.008.01-.002.014-.004.015a9.513 9.513 0 0 1-1.059 2.629 10.182 10.182 0 0 1-1.738 2.18c-3.304 3.171-8.95 4.562-14.716 3.196z" style="stroke-width:2.02093" transform="translate(-112.977 -91.024)"/><path fill="none" stroke="#000" stroke-linecap="round" stroke-linejoin="round" stroke-width="0.905377" d="m229.587 73.873-.01-.002h-.006a19.805 19.805 0 0 1-3.147-1.043 18.15 18.15 0 0 1-2.797-1.489c-4.64-3.023-7.196-7.837-6.09-12.505h.007l.004-.015c.787-3.284 3.218-5.81 6.514-7.237 2.219-.954 4.834-1.415 7.588-1.263 1.538.13.755 4.1-.557 3.98-2.001-.07-3.874.27-5.447.951-2.162.934-3.74 2.508-4.215 4.497l-.002.012h.008c-.698 2.94 1.13 6.115 4.367 8.227.67.435 1.4.827 2.187 1.162.774.332 1.612.61 2.503.82v.005l.01.002h.009c4.43 1.05 8.652.093 11.014-2.179.42-.402.78-.85 1.07-1.336.28-.479.493-.988.618-1.515l.006-.017v-.004l-.006-.004c.469-1.99-.233-4.106-1.742-5.913-.831-.99-1.898-1.886-3.155-2.625-1.267-1.027 0-4.382 1.372-3.82 1.94 1.039 3.592 2.37 4.855 3.878 2.304 2.755 3.346 6.101 2.57 9.39l-.008.01-.002.014-.004.015a9.513 9.513 0 0 1-1.059 2.629 10.182 10.182 0 0 1-1.738 2.18c-3.304 3.171-8.95 4.562-14.716 3.196z"/><path fill="#fff200" fill-rule="evenodd" d="M353.733 179.237c-3.139 3.15-3.657 6.429-3.32 11.228 0 .02-9.298-.72-10.348-.99-10.377-2.708-22.435-7.528-34.856-7.528-4.67 0-9.135-.759-13.966-.792-4.833.034-9.294.792-13.967.792-12.42 0-24.475 4.82-34.857 7.528-1.049.272-10.347 1.008-10.347.99.337-4.8-.183-8.079-3.322-11.228 2.576-4.593 26.655-17.093 33.475-17.093 5.048 0 22.337-4.573 29.018-2.933 6.683-1.64 23.968 2.933 29.015 2.933 6.825 0 30.9 12.5 33.475 17.093z" style="stroke-width:1.77548" transform="translate(-112.977 -91.024)"/><path fill="none" stroke="#231f20" stroke-miterlimit="22.926" stroke-width="0.901943" d="M240.756 88.213c-3.139 3.15-3.657 6.429-3.32 11.228 0 .02-9.298-.72-10.348-.99-10.377-2.708-22.435-7.528-34.856-7.528-4.67 0-9.135-.759-13.966-.792-4.833.034-9.294.792-13.967.792-12.42 0-24.475 4.82-34.857 7.528-1.049.272-10.347 1.008-10.347.99.337-4.8-.183-8.079-3.322-11.228 2.576-4.593 26.655-17.093 33.475-17.093 5.048 0 22.337-4.573 29.018-2.933 6.683-1.64 23.968 2.933 29.015 2.933 6.825 0 30.9 12.5 33.475 17.093z"/><path fill="#a6ce38" fill-rule="evenodd" d="M291.222 141.085c-3.343 0-6.048-5.438-6.048-12.152 0-6.7 2.705-12.138 6.048-12.138s6.048 5.438 6.048 12.138c0 6.714-2.705 12.152-6.048 12.152z" style="stroke-width:13.8718" transform="translate(-112.977 -91.024)"/><path fill="none" stroke="#231f20" stroke-miterlimit="22.926" stroke-width="0.901666" d="M178.245 50.06c-3.343 0-6.048-5.437-6.048-12.15 0-6.701 2.705-12.139 6.048-12.139s6.048 5.438 6.048 12.138c0 6.714-2.705 12.152-6.048 12.152z"/><path fill="none" stroke="#231f20" stroke-miterlimit="22.926" stroke-width="0.901666" d="M178.245 54.304c-4.508 0-8.17-7.338-8.17-16.396 0-9.045 3.662-16.383 8.17-16.383 4.509 0 8.17 7.338 8.17 16.383 0 9.058-3.661 16.396-8.17 16.396z"/><path fill="#ffcb04" d="m298.328 120.764-.003-.009-.006-.006c-.309-.743-.538-1.5-.696-2.26a11.359 11.359 0 0 1-.237-2.223c-.02-3.91 2.089-7.288 5.725-8.447l.004.006.01-.003c2.567-.815 5.35-.36 7.776 1.029 1.631.933 3.1 2.3 4.223 3.98.595.958-2.432 2.04-2.933 1.219-.842-1.207-1.9-2.18-3.06-2.843-1.59-.911-3.351-1.23-4.903-.736l-.01.003v.003c-2.29.73-3.619 3.041-3.603 5.77 0 .563.062 1.147.183 1.74.123.582.308 1.187.56 1.794l.004.01.003.005c1.258 3.017 3.778 5.134 6.362 5.647.458.091.919.13 1.372.109.45-.018.89-.091 1.301-.223l.01-.003.006-.003-.003-.004c1.552-.495 2.667-1.73 3.215-3.322.3-.874.428-1.851.37-2.878.13-1.147 2.953-1.702 3.185-.675.161 1.546-.003 3.035-.461 4.365-.833 2.429-2.628 4.342-5.19 5.163h-.008l-.01.003-.01.003a8.606 8.606 0 0 1-2.244.395 9.475 9.475 0 0 1-2.245-.175c-3.604-.716-7.05-3.506-8.69-7.433z" style="stroke-width:1.42303" transform="translate(-112.977 -91.024)"/><path fill="none" stroke="#231f20" stroke-linecap="round" stroke-linejoin="round" stroke-width="0.903625" d="m185.35 29.74-.002-.009-.006-.006c-.309-.743-.538-1.5-.696-2.26a11.359 11.359 0 0 1-.237-2.223c-.02-3.91 2.089-7.288 5.725-8.447l.004.006.01-.003c2.567-.815 5.35-.36 7.776 1.029 1.631.933 3.1 2.3 4.223 3.98.595.958-2.432 2.04-2.933 1.219-.842-1.207-1.9-2.18-3.06-2.843-1.59-.911-3.351-1.23-4.903-.736l-.01.003v.003c-2.29.73-3.619 3.041-3.603 5.77 0 .563.062 1.147.183 1.74.123.582.308 1.187.56 1.794l.004.01.003.005c1.258 3.017 3.778 5.134 6.362 5.647.458.091.918.13 1.372.109.45-.018.89-.091 1.301-.223l.01-.003.006-.003-.003-.004c1.552-.495 2.667-1.73 3.215-3.322.3-.874.428-1.851.37-2.878.13-1.147 2.953-1.702 3.185-.675.16 1.546-.003 3.035-.461 4.365-.833 2.429-2.628 4.342-5.19 5.163h-.008l-.01.003-.01.003a8.606 8.606 0 0 1-2.244.395 9.475 9.475 0 0 1-2.245-.175c-3.604-.716-7.05-3.506-8.69-7.433z"/><path fill="none" stroke="#231f20" stroke-miterlimit="22.926" stroke-width="0.905496" d="M186.321 40.406c5.641-.957 9.46.215 13.965 2.39M178.308 12.482l-.062 9.033"/><path fill="none" stroke="#231f20" stroke-linecap="round" stroke-linejoin="round" stroke-width="0.905496" d="M260.6 63.54c1.243-.383 1.804-.862 3.526-.862 4 0 5.593 3.238 4.35 6.98"/><path fill="#ffcb04" fill-rule="evenodd" d="M291.347 177.595c-4.147 0-7.532-3.371-7.532-7.533 0-4.147 3.385-7.518 7.532-7.518 4.162 0 7.533 3.37 7.533 7.518a7.53 7.53 0 0 1-7.533 7.533z" style="stroke-width:13.8718" transform="translate(-112.977 -91.024)"/><path fill="none" stroke="#231f20" stroke-miterlimit="22.926" stroke-width="0.901666" d="M178.37 86.57c-4.147 0-7.532-3.37-7.532-7.532 0-4.147 3.385-7.518 7.532-7.518 4.162 0 7.533 3.37 7.533 7.518a7.53 7.53 0 0 1-7.533 7.533z"/><path fill="#ed1651" fill-rule="evenodd" d="M290.946 174.689a4.618 4.618 0 0 1-4.619-4.62 4.618 4.618 0 0 1 4.62-4.619 4.618 4.618 0 0 1 4.619 4.62 4.618 4.618 0 0 1-4.62 4.619z" style="stroke-width:13.8718" transform="translate(-112.977 -91.024)"/><path fill="none" stroke="#231f20" stroke-miterlimit="22.926" stroke-width="0.901666" d="M177.97 83.665a4.618 4.618 0 0 1-4.62-4.62 4.618 4.618 0 0 1 4.62-4.619 4.618 4.618 0 0 1 4.619 4.62 4.618 4.618 0 0 1-4.62 4.619z"/><path fill="#ffcb04" fill-rule="evenodd" d="M307.977 175.22a4.363 4.363 0 0 1-4.356-4.356 4.354 4.354 0 0 1 4.356-4.356 4.345 4.345 0 0 1 4.355 4.356c0 2.4-1.942 4.356-4.355 4.356z" style="stroke-width:13.8718" transform="translate(-112.977 -91.024)"/><path fill="none" stroke="#231f20" stroke-miterlimit="22.926" stroke-width="0.901666" d="M195 84.196a4.363 4.363 0 0 1-4.356-4.356A4.354 4.354 0 0 1 195 75.484a4.345 4.345 0 0 1 4.355 4.356c0 2.4-1.942 4.356-4.355 4.356z"/><path fill="#ffcb04" fill-rule="evenodd" d="M342.498 182.435c-1.754 0-3.178-1.79-3.178-4.009 0-2.205 1.424-3.995 3.178-3.995 1.753 0 3.178 1.79 3.178 3.995 0 2.22-1.425 4.01-3.178 4.01z" style="stroke-width:12.3294" transform="translate(-112.977 -91.024)"/><path fill="none" stroke="#231f20" stroke-miterlimit="22.926" stroke-width="0.801417" d="M229.52 91.411c-1.753 0-3.178-1.79-3.178-4.009 0-2.206 1.425-3.995 3.179-3.995 1.753 0 3.178 1.79 3.178 3.995 0 2.22-1.425 4.009-3.178 4.009z"/><path fill="#ffcb04" fill-rule="evenodd" d="M325.658 180.292c-5.715-1.298-9.882-5.023-9.292-8.33.59-3.306 5.725-4.944 11.44-3.66 5.727 1.299 9.881 5.024 9.292 8.344-.603 3.307-5.713 4.93-11.44 3.646z" style="stroke-width:13.0866" transform="translate(-112.977 -91.024)"/><path fill="none" stroke="#231f20" stroke-miterlimit="22.926" stroke-width="0.850628" d="M212.681 89.268c-5.715-1.298-9.882-5.023-9.292-8.33.59-3.306 5.725-4.944 11.44-3.66 5.727 1.299 9.881 5.024 9.292 8.344-.603 3.307-5.713 4.93-11.44 3.646z"/><path fill="#a6ce38" fill-rule="evenodd" d="M325.924 178.2c-4.203-.846-7.255-3.287-6.81-5.451.43-2.164 4.189-3.232 8.392-2.386 4.189.846 7.24 3.287 6.797 5.451-.43 2.164-4.19 3.232-8.379 2.386z" style="stroke-width:13.8718" transform="translate(-112.977 -91.024)"/><path fill="none" stroke="#231f20" stroke-miterlimit="22.926" stroke-width="0.915538" d="M212.947 87.176c-4.203-.846-7.255-3.287-6.81-5.451.43-2.164 4.188-3.232 8.392-2.386 4.189.846 7.24 3.287 6.797 5.451-.43 2.164-4.19 3.232-8.379 2.386z"/><path fill="#ffcb04" fill-rule="evenodd" d="m243.527 96.38-7.535 1.376 1.082 5.918-5.919 1.082 1.375 7.533 5.92-1.08 1.082 5.92 7.534-1.378-1.081-5.92 5.918-1.08-1.374-7.535-5.923 1.082z" style="stroke-width:2.13717" transform="translate(-112.977 -91.024)"/><path fill="none" stroke="#231f20" stroke-miterlimit="22.926" stroke-width="0.906161" d="m130.55 5.356-7.535 1.376 1.082 5.918-5.919 1.082 1.375 7.533 5.92-1.08 1.082 5.92 7.534-1.378-1.081-5.92 5.918-1.08-1.374-7.535-5.923 1.082z"/><path fill="#ffcb04" fill-rule="evenodd" d="M188.844 120.384c5.598-5.547 26.573-4.494 19.514 2.98-5.37 5.693.526 16.598 8.792 11.322 4.448-2.84 13.22-3.315 14.898 3.13 2.95 11.343-15.505 14.358 1.49 28.154 1.92 1.56 4.714 1.049 1.637 2.235-15.158 5.834-12.821-9.089-23.538-9.089-7.379 0-8.414 10.389-15.493 1.192-3.167-4.112-4.161-7.67-2.979-12.809 1.458-6.333-6.9-13.706 4.021-13.706 3.077 0 .083-7.458-.146-8.343-.73-2.799-5.591-4.395-8.196-5.066z" style="stroke-width:1.77548" transform="translate(-112.977 -91.024)"/><path fill="none" stroke="#231f20" stroke-linecap="round" stroke-linejoin="round" stroke-width="0.905496" d="M75.867 29.36c5.598-5.547 26.573-4.494 19.514 2.98-5.37 5.693.526 16.598 8.792 11.322 4.448-2.84 13.22-3.315 14.898 3.13 2.95 11.343-15.505 14.358 1.49 28.154 1.92 1.56 4.714 1.049 1.637 2.235-15.158 5.834-12.821-9.089-23.538-9.089-7.379 0-8.414 10.389-15.493 1.192-3.167-4.112-4.161-7.67-2.979-12.809 1.458-6.333-6.9-13.707 4.021-13.707 3.077 0 .083-7.457-.146-8.342-.73-2.799-5.591-4.395-8.196-5.066z"/><path fill="#ffcb04" d="m205.345 131.125-.003-.006-.002-.006a10.45 10.45 0 0 1-.567-1.837 9.248 9.248 0 0 1-.19-1.809c-.02-3.184 1.698-5.93 4.659-6.874l.002.006.009-.002c2.084-.663 4.349-.293 6.323.836a10.38 10.38 0 0 1 3.436 3.242c.484.777-1.978 1.657-2.385.988a7.804 7.804 0 0 0-2.49-2.312c-1.294-.742-2.726-1-3.99-.601l-.005.003v.006c-1.867.592-2.947 2.472-2.934 4.693.002.455.052.93.152 1.413.093.476.25.966.454 1.461h-.002l.002.006.004.003c1.027 2.455 3.075 4.177 5.178 4.594a4.58 4.58 0 0 0 1.117.09 3.98 3.98 0 0 0 1.056-.182l.008-.002h.003v-.003c1.265-.404 2.17-1.411 2.614-2.704a6.13 6.13 0 0 0 .302-2.341c.106-.933 2.401-1.384 2.59-.551.13 1.257-.003 2.472-.372 3.552-.678 1.976-2.139 3.531-4.225 4.2h-.006l-.008.003-.009.002a6.881 6.881 0 0 1-1.825.32 7.616 7.616 0 0 1-1.827-.144c-2.933-.58-5.734-2.848-7.069-6.045z" style="stroke-width:1.15761" transform="translate(-112.977 -91.024)"/><path fill="none" stroke="#231f20" stroke-linecap="round" stroke-linejoin="round" stroke-width="0.904092" d="m92.368 40.1-.003-.005-.002-.006a10.45 10.45 0 0 1-.567-1.837 9.248 9.248 0 0 1-.19-1.809c-.02-3.184 1.698-5.93 4.659-6.874l.002.006.009-.002c2.084-.663 4.349-.293 6.323.836a10.38 10.38 0 0 1 3.436 3.242c.484.777-1.978 1.657-2.385.988a7.804 7.804 0 0 0-2.49-2.312c-1.294-.742-2.726-1-3.99-.601l-.005.003v.006c-1.867.591-2.947 2.472-2.934 4.693.002.455.052.93.152 1.413.093.476.25.966.454 1.461h-.002l.002.006.004.003c1.027 2.455 3.075 4.177 5.178 4.594a4.58 4.58 0 0 0 1.117.09 3.98 3.98 0 0 0 1.056-.182l.008-.002h.003v-.003c1.265-.404 2.17-1.411 2.614-2.704a6.13 6.13 0 0 0 .302-2.341c.106-.933 2.401-1.385 2.59-.551.13 1.257-.003 2.472-.372 3.552-.678 1.976-2.139 3.531-4.225 4.2h-.006l-.008.003-.009.002a6.881 6.881 0 0 1-1.825.32 7.616 7.616 0 0 1-1.827-.144c-2.933-.58-5.734-2.848-7.069-6.045z"/><path fill="#ed1651" fill-rule="evenodd" d="M209.974 151.763c2.123-.83 2.457-4.462.747-8.112-1.694-3.64-4.804-5.935-6.928-5.105-2.124.83-2.457 4.462-.762 8.114 1.71 3.65 4.818 5.933 6.942 5.103z" style="stroke-width:12.9387" transform="translate(-112.977 -91.024)"/><path fill="none" stroke="#231f20" stroke-miterlimit="22.926" stroke-width="0.853955" d="M96.997 60.739c2.123-.83 2.457-4.462.747-8.112-1.694-3.64-4.804-5.935-6.928-5.105-2.124.83-2.457 4.462-.762 8.114 1.71 3.65 4.818 5.933 6.942 5.103z"/><path fill="none" stroke="#231f20" stroke-miterlimit="22.926" stroke-width="0.811501" d="M98.777 63.503c3.193-1.156 3.705-6.243 1.13-11.35-2.563-5.12-7.23-8.312-10.423-7.155-3.192 1.167-3.691 6.242-1.13 11.35 2.562 5.11 7.23 8.323 10.423 7.155z"/><path fill="none" stroke="#231f20" stroke-linecap="round" stroke-linejoin="round" stroke-width="0.905496" d="M116.378 49.732c-3.224-1.49-8.275-2.351-10.924.302-2.912 2.913-3.137 4.687-3.912 8.394"/><path fill="#fff200" fill-rule="evenodd" d="M273.768 158.697c-3.404-.259-12.045 1.449-14.735 2.98-2.587 1.47-14.446 3.674-17.198 4.74-3.27 1.252 7.254-10.307 7.512-10.762 2.877-5.102-2.731-11.931-7.15-13.08-1.883-.486-5.091-3.57-1.47-2.69 3.726.91 11.145-1.346 13.546-2.608 1.138-.59 2.763-.807-.041 3.777-5.102 8.33 10.461 17.477 19.536 17.643" style="stroke-width:10.3478" transform="translate(-112.977 -91.024)"/><path fill="#ffcb04" d="M255.869 138.479c-1.774.548-3.076 1.417-3.972 2.49-1.151 1.38-1.592 3.041-1.472 4.77.111 1.58.703 3.214 1.643 4.716 1.366 2.188 3.511 4.156 5.99 5.296l.006.007.117.053c1.144.512 2.453.953 3.86 1.302 1.376.34 2.855.6 4.377.765 7.995.876 17.296-.88 19.924-6.403 2.162-4.546 1.157-8.336-1.202-10.897-1.402-1.522-3.29-2.578-5.261-3.07-2.002-.5-4.121-.43-5.952.31v.004c-2.804 1.138-4.895 3.726-4.895 8.057.103 1.373 3.704 1.413 3.613 0 0-2.605 1.124-4.105 2.628-4.714h.01c1.105-.446 2.43-.479 3.722-.155 1.318.328 2.57 1.02 3.482 2.01 1.433 1.56 2.009 3.948.594 6.918-1.878 3.948-9.549 5.092-16.282 4.356a29.659 29.659 0 0 1-3.897-.683c-1.19-.296-2.286-.66-3.238-1.092l-.115-.05-.004.004c-1.816-.84-3.397-2.297-4.415-3.925-.635-1.018-1.035-2.085-1.105-3.065-.063-.834.133-1.604.639-2.214.457-.549 1.197-1.015 2.266-1.346 1.371-.638.313-3.943-1.06-3.444z" style="stroke-width:1.82122" transform="translate(-112.977 -91.024)"/><path fill="none" stroke="#231f20" stroke-linecap="round" stroke-linejoin="round" stroke-width="0.905145" d="M142.892 47.455c-1.774.548-3.076 1.417-3.972 2.49-1.151 1.38-1.592 3.04-1.472 4.77.111 1.58.703 3.214 1.643 4.716 1.366 2.188 3.511 4.156 5.99 5.296l.006.007.117.053c1.144.512 2.453.953 3.86 1.302 1.376.34 2.855.6 4.377.765 7.995.876 17.296-.88 19.924-6.403 2.162-4.546 1.157-8.336-1.202-10.897-1.402-1.522-3.29-2.578-5.261-3.07-2.002-.5-4.121-.43-5.952.31v.003c-2.804 1.139-4.895 3.727-4.895 8.058.103 1.373 3.704 1.413 3.613 0 0-2.605 1.124-4.105 2.628-4.714h.009c1.106-.446 2.431-.479 3.723-.155 1.318.328 2.57 1.02 3.482 2.01 1.433 1.56 2.009 3.948.594 6.918-1.878 3.948-9.549 5.092-16.282 4.356a29.659 29.659 0 0 1-3.897-.683c-1.19-.296-2.286-.66-3.238-1.092l-.115-.05-.004.004c-1.816-.84-3.397-2.297-4.415-3.925-.635-1.018-1.035-2.085-1.105-3.065-.063-.834.133-1.604.639-2.214.457-.549 1.197-1.015 2.266-1.346 1.371-.638.313-3.943-1.06-3.444z"/><path fill="#ffcb04" d="m239.791 164.897.01-.002h.006a19.804 19.804 0 0 0 3.147-1.042c.994-.423 1.93-.926 2.795-1.49 4.64-3.023 7.2-7.837 6.093-12.505h-.006l-.006-.015c-.786-3.284-3.217-5.81-6.515-7.237-2.215-.954-4.832-1.415-7.589-1.263-1.536.13-.752 4.1.558 3.98 2.005-.07 3.876.27 5.45.951 2.163.934 3.739 2.508 4.212 4.497l.004.012h-.006c.695 2.94-1.132 6.115-4.371 8.227-.669.435-1.399.827-2.185 1.162-.774.332-1.613.61-2.504.82v.005l-.01.002h-.006c-4.432 1.05-8.65.093-11.019-2.179a6.348 6.348 0 0 1-1.067-1.336 5.544 5.544 0 0 1-.618-1.515l-.004-.017-.002-.004.006-.004c-.47-1.99.23-4.106 1.742-5.913.83-.99 1.897-1.886 3.152-2.625 1.267-1.027 0-4.382-1.37-3.82-1.938 1.039-3.593 2.37-4.854 3.878-2.306 2.755-3.343 6.102-2.573 9.39l.01.01.002.014.004.015a9.517 9.517 0 0 0 1.061 2.629 10.234 10.234 0 0 0 1.736 2.18c3.304 3.171 8.949 4.562 14.717 3.196z" style="stroke-width:2.02093" transform="translate(-112.977 -91.024)"/><path fill="none" stroke="#231f20" stroke-linecap="round" stroke-linejoin="round" stroke-width="0.905377" d="m126.814 73.873.01-.002h.006a19.804 19.804 0 0 0 3.147-1.043c.994-.422 1.93-.925 2.795-1.489 4.64-3.023 7.2-7.837 6.093-12.505h-.006l-.006-.015c-.786-3.284-3.217-5.81-6.515-7.237-2.215-.954-4.832-1.415-7.589-1.263-1.536.13-.752 4.1.558 3.98 2.005-.07 3.876.27 5.45.951 2.163.934 3.739 2.508 4.212 4.497l.004.012h-.006c.695 2.94-1.132 6.115-4.372 8.227-.668.435-1.398.827-2.184 1.162-.774.332-1.613.61-2.504.82v.005l-.01.002h-.006c-4.432 1.05-8.65.093-11.019-2.179a6.348 6.348 0 0 1-1.067-1.336 5.544 5.544 0 0 1-.618-1.515l-.004-.017-.002-.004.006-.004c-.47-1.99.23-4.106 1.742-5.913.83-.99 1.897-1.886 3.152-2.625 1.267-1.027 0-4.382-1.37-3.82-1.938 1.039-3.593 2.37-4.854 3.878-2.306 2.755-3.343 6.101-2.573 9.39l.01.01.002.014.004.015a9.517 9.517 0 0 0 1.061 2.629 10.234 10.234 0 0 0 1.736 2.18c3.304 3.171 8.949 4.562 14.717 3.196z"/><path fill="#ffcb04" d="m291.936 156.492-.693.01-.694-.01v.027c-18.77.437-35.71 3.661-48.247 8.656-5.996 2.388-11.024 5.207-14.834 8.364l1.529 5.273c3.432-3.329 8.63-6.38 15.153-8.979 12.152-4.84 28.696-7.948 47.093-8.312 18.394.364 34.942 3.472 47.091 8.312 6.523 2.6 11.722 5.65 15.152 8.979l1.529-5.273c-3.81-3.157-8.838-5.976-14.834-8.364-12.535-4.995-29.475-8.22-48.245-8.656z" style="stroke-width:1.77548" transform="translate(-112.977 -91.024)"/><path fill="none" stroke="#231f20" stroke-miterlimit="22.926" stroke-width="0.905496" d="m178.959 65.468-.693.01-.694-.01v.027c-18.77.437-35.71 3.661-48.247 8.656-5.996 2.388-11.024 5.207-14.834 8.364l1.529 5.273c3.432-3.329 8.63-6.38 15.153-8.979 12.152-4.84 28.696-7.948 47.093-8.312 18.394.364 34.942 3.472 47.091 8.312 6.523 2.6 11.722 5.65 15.152 8.979l1.529-5.273c-3.81-3.157-8.838-5.976-14.834-8.364-12.535-4.995-29.475-8.22-48.245-8.656z"/><path fill="#a6ce38" fill-rule="evenodd" d="M291.257 141.085c3.343 0 6.048-5.438 6.048-12.152 0-6.7-2.705-12.138-6.048-12.138s-6.048 5.438-6.048 12.138c0 6.714 2.705 12.152 6.048 12.152z" style="stroke-width:13.8718" transform="translate(-112.977 -91.024)"/><path fill="none" stroke="#231f20" stroke-miterlimit="22.926" stroke-width="0.901666" d="M178.28 50.06c3.343 0 6.048-5.437 6.048-12.15 0-6.701-2.705-12.139-6.048-12.139s-6.048 5.438-6.048 12.138c0 6.714 2.705 12.152 6.048 12.152z"/><path fill="#ffcb04" d="m283.969 120.764.006-.01.003-.005c.308-.742.539-1.5.695-2.258a11.37 11.37 0 0 0 .237-2.224c.02-3.911-2.088-7.29-5.725-8.448l-.003.006-.01-.003c-2.568-.816-5.35-.361-7.777 1.03-1.628.932-3.1 2.299-4.22 3.98-.6.956 2.429 2.039 2.93 1.217.842-1.205 1.9-2.18 3.06-2.842 1.592-.912 3.351-1.229 4.903-.736l.01.003v.003c2.293.73 3.62 3.042 3.604 5.77a8.873 8.873 0 0 1-.184 1.74 10.244 10.244 0 0 1-.56 1.795h.003l-.006.007-.003.007c-1.26 3.015-3.78 5.132-6.363 5.646-.458.09-.917.13-1.373.108a4.92 4.92 0 0 1-1.3-.222l-.01-.003-.003-.003v-.003c-1.552-.495-2.666-1.732-3.215-3.324a7.596 7.596 0 0 1-.37-2.877c-.13-1.148-2.953-1.701-3.183-.674-.163 1.546 0 3.035.459 4.364.831 2.428 2.627 4.34 5.189 5.162h.008l.01.003.01.003c.74.235 1.494.364 2.245.395a9.46 9.46 0 0 0 2.243-.175c3.605-.716 7.052-3.505 8.692-7.433z" style="stroke-width:1.42303" transform="translate(-112.977 -91.024)"/><path fill="none" stroke="#231f20" stroke-linecap="round" stroke-linejoin="round" stroke-width="0.903625" d="m170.992 29.74.006-.01.003-.005c.308-.742.539-1.5.695-2.258a11.37 11.37 0 0 0 .237-2.224c.02-3.911-2.088-7.29-5.725-8.448l-.003.006-.01-.003c-2.568-.816-5.35-.361-7.777 1.03-1.628.932-3.1 2.299-4.22 3.98-.6.956 2.429 2.039 2.93 1.217.842-1.205 1.9-2.18 3.06-2.842 1.592-.912 3.351-1.229 4.903-.736l.009.003v.003c2.294.73 3.62 3.042 3.605 5.77a8.873 8.873 0 0 1-.184 1.74 10.244 10.244 0 0 1-.56 1.795h.003l-.006.007-.003.007c-1.26 3.015-3.78 5.132-6.363 5.646-.458.09-.917.13-1.373.108a4.92 4.92 0 0 1-1.3-.223l-.01-.003-.003-.003v-.003c-1.552-.494-2.666-1.731-3.215-3.323a7.596 7.596 0 0 1-.37-2.877c-.13-1.148-2.953-1.701-3.183-.675-.163 1.547 0 3.036.459 4.365.831 2.428 2.627 4.34 5.189 5.162h.008l.01.003.01.003c.74.235 1.494.364 2.245.395a9.46 9.46 0 0 0 2.243-.175c3.605-.716 7.052-3.505 8.692-7.433z"/><path fill="none" stroke="#231f20" stroke-miterlimit="22.926" stroke-width="0.905496" d="M170.21 40.406c-5.641-.957-9.46.215-13.967 2.39M178.222 12.482l.062 9.033"/><path fill="none" stroke="#231f20" stroke-linecap="round" stroke-linejoin="round" stroke-width="0.905496" d="M95.93 63.54c-1.244-.383-1.804-.862-3.526-.862-4 0-5.592 3.238-4.35 6.98"/><path fill="#ffcb04" fill-rule="evenodd" d="M291.533 177.595a7.53 7.53 0 0 0 7.532-7.533c0-4.147-3.37-7.518-7.532-7.518s-7.532 3.37-7.532 7.518a7.53 7.53 0 0 0 7.532 7.533z" style="stroke-width:13.8718" transform="translate(-112.977 -91.024)"/><path fill="none" stroke="#231f20" stroke-miterlimit="22.926" stroke-width="0.901666" d="M178.556 86.57a7.53 7.53 0 0 0 7.532-7.532c0-4.147-3.37-7.518-7.532-7.518s-7.532 3.37-7.532 7.518a7.53 7.53 0 0 0 7.532 7.533z"/><path fill="#ed1651" fill-rule="evenodd" d="M291.533 174.689a4.618 4.618 0 0 0 4.62-4.62 4.618 4.618 0 0 0-4.62-4.619 4.618 4.618 0 0 0-4.62 4.62 4.618 4.618 0 0 0 4.62 4.619z" style="stroke-width:13.8718" transform="translate(-112.977 -91.024)"/><path fill="none" stroke="#231f20" stroke-miterlimit="22.926" stroke-width="0.901666" d="M178.556 83.665a4.618 4.618 0 0 0 4.62-4.62 4.618 4.618 0 0 0-4.62-4.619 4.618 4.618 0 0 0-4.62 4.62 4.618 4.618 0 0 0 4.62 4.619z"/><path fill="#ffcb04" fill-rule="evenodd" d="M274.503 175.22c2.4 0 4.355-1.956 4.355-4.356a4.354 4.354 0 0 0-4.355-4.356 4.354 4.354 0 0 0-4.356 4.356c0 2.4 1.956 4.356 4.356 4.356z" style="stroke-width:13.8718" transform="translate(-112.977 -91.024)"/><path fill="none" stroke="#231f20" stroke-miterlimit="22.926" stroke-width="0.901666" d="M161.526 84.196c2.4 0 4.355-1.956 4.355-4.356a4.354 4.354 0 0 0-4.355-4.356 4.354 4.354 0 0 0-4.356 4.356c0 2.4 1.956 4.356 4.356 4.356z"/><path fill="#ffcb04" fill-rule="evenodd" d="M239.943 182.435c1.753 0 3.178-1.79 3.178-4.009 0-2.205-1.425-3.995-3.178-3.995s-3.19 1.79-3.19 3.995c0 2.22 1.437 4.01 3.19 4.01z" style="stroke-width:12.3294" transform="translate(-112.977 -91.024)"/><path fill="none" stroke="#231f20" stroke-miterlimit="22.926" stroke-width="0.801417" d="M126.966 91.411c1.753 0 3.178-1.79 3.178-4.009 0-2.206-1.425-3.995-3.178-3.995s-3.19 1.79-3.19 3.995c0 2.22 1.437 4.009 3.19 4.009z"/><path fill="#ffcb04" fill-rule="evenodd" d="M256.836 180.284c5.727-1.298 9.881-5.023 9.291-8.33-.602-3.306-5.725-4.944-11.44-3.66-5.726 1.299-9.88 5.023-9.29 8.33.589 3.32 5.712 4.944 11.439 3.66z" style="stroke-width:13.0866" transform="translate(-112.977 -91.024)"/><path fill="none" stroke="#231f20" stroke-miterlimit="22.926" stroke-width="0.850628" d="M143.858 89.26c5.728-1.298 9.882-5.023 9.292-8.33-.602-3.306-5.725-4.944-11.44-3.66-5.726 1.298-9.88 5.023-9.29 8.33.589 3.32 5.711 4.944 11.438 3.66z"/><path fill="#a6ce38" fill-rule="evenodd" d="M256.557 178.2c4.19-.846 7.24-3.287 6.81-5.451-.443-2.164-4.189-3.232-8.392-2.386-4.189.846-7.24 3.287-6.797 5.451.43 2.164 4.19 3.232 8.379 2.386z" style="stroke-width:13.8718" transform="translate(-112.977 -91.024)"/><path fill="none" stroke="#231f20" stroke-miterlimit="22.926" stroke-width="0.915538" d="M143.58 87.176c4.189-.846 7.24-3.287 6.81-5.451-.443-2.164-4.189-3.232-8.392-2.386-4.189.846-7.24 3.287-6.797 5.451.43 2.164 4.19 3.232 8.379 2.386z"/><path fill="#ffcb04" d="m290.548 179.046.57.002h.249l.568-.002v.005c16.93.13 32.234 2.111 43.434 5.245 6.176 1.73 11.192 3.88 14.69 6.354l-1.444 4.973c-2.636-2.34-7.746-4.572-14.601-6.49-10.944-3.062-25.995-4.986-42.67-5.075h-.203c-16.675.093-31.726 2.013-42.67 5.074-6.855 1.92-11.965 4.151-14.602 6.491l-1.443-4.973c3.5-2.473 8.511-4.623 14.69-6.354 11.198-3.134 26.505-5.115 43.432-5.245z" style="stroke-width:1.77548" transform="translate(-112.977 -91.024)"/><path fill="none" stroke="#231f20" stroke-miterlimit="22.926" stroke-width="0.905496" d="m177.571 88.022.57.002h.249l.568-.002v.005c16.93.13 32.234 2.111 43.434 5.245 6.176 1.73 11.192 3.88 14.69 6.354l-1.444 4.973c-2.636-2.34-7.746-4.572-14.601-6.49-10.944-3.062-25.995-4.986-42.67-5.075h-.203c-16.675.093-31.726 2.013-42.67 5.074-6.855 1.92-11.965 4.151-14.602 6.491l-1.443-4.973c3.5-2.473 8.511-4.623 14.69-6.354 11.198-3.134 26.505-5.115 43.432-5.245z"/><path fill="#f7f7f7" fill-rule="evenodd" d="M245.526 140.283c-6.686 0-12.124-5.424-12.124-12.11 0-6.7 5.438-12.124 12.124-12.124 6.686 0 12.124 5.424 12.124 12.124 0 6.686-5.438 12.11-12.124 12.11z" style="stroke-width:13.8718" transform="translate(-112.977 -91.024)"/><path fill="none" stroke="#939598" stroke-linecap="round" stroke-linejoin="round" stroke-width="1.76171" d="M132.549 49.26c-6.686 0-12.124-5.425-12.124-12.11 0-6.7 5.438-12.125 12.124-12.125 6.686 0 12.124 5.424 12.124 12.124 0 6.686-5.438 12.11-12.124 12.11z"/><path fill="#939598" d="M235.932 130.894c.435 1.759 1.356 3.321 2.598 4.573 3.86 3.85 10.12 3.86 13.98 0a9.901 9.901 0 0 0 2.597-4.573c-6.178 8.185-13.752 7.264-19.175 0" style="stroke-width:10.3478" transform="translate(-112.977 -91.024)"/><path fill="#f7f7f7" fill-rule="evenodd" d="M336.953 140.283c6.687 0 12.124-5.424 12.124-12.11 0-6.7-5.437-12.124-12.124-12.124-6.686 0-12.123 5.424-12.123 12.124 0 6.686 5.437 12.11 12.123 12.11z" style="stroke-width:13.8718" transform="translate(-112.977 -91.024)"/><path fill="none" stroke="#939598" stroke-linecap="round" stroke-linejoin="round" stroke-width="1.76171" d="M223.976 49.26c6.687 0 12.124-5.425 12.124-12.11 0-6.7-5.437-12.125-12.124-12.125-6.686 0-12.123 5.424-12.123 12.124 0 6.686 5.437 12.11 12.123 12.11z"/><path fill="#939598" d="M346.54 130.894a9.953 9.953 0 0 1-2.598 4.573c-3.86 3.85-10.12 3.86-13.98 0a9.83 9.83 0 0 1-2.607-4.573c6.177 8.185 13.762 7.264 19.184 0" style="stroke-width:10.3478" transform="translate(-112.977 -91.024)"/></svg>