<?xml version="1.0" encoding="UTF-8" standalone="no"?><svg xmlns="http://www.w3.org/2000/svg" width="737.14" height="943.84" viewBox="0 0 737.14255 943.84193"><g transform="translate(41.756-85.32)" stroke="#000" stroke-linecap="round"><path d="m-38.33 87.82c-.511 0-.922.413-.922.924v759.06c0 .02 0 .037.012.057-.003.289-.012.576-.012.865 0 47.1 41 85.02 91.93 85.02h153.21c0 0 48.35 1.17 68.979 12.1 16.235 8.603 28.965 23.789 38.37 39.576 7.734 12.988 13.588 43.27 13.588 43.27 0 0 5.855-30.28 13.59-43.27 9.401-15.786 22.13-30.973 38.37-39.576 20.627-10.93 68.979-12.1 68.979-12.1h153.21c50.929 0 91.93-37.918 91.93-85.02 0-.291-.009-.579-.012-.869 0-.018 0-.034 0-.053v-759.06c0-.511-.411-.924-.922-.924z" fill="#00923f" stroke-width="5"/><g fill="#f8c300" stroke-width="3"><path d="m326.81 284.52c-119.54 0-216.44 96.9-216.44 216.44 0 119.54 96.9 216.44 216.44 216.44 119.54 0 216.44-96.9 216.44-216.44 0-119.54-96.9-216.44-216.44-216.44zm-33.91 8.08c2.853-.041 5.798.766 8.271 2.084 6.245 3.329 10.498 13.04 16.791 18.488 3.105 2.689 6.576 4.989 10.213 6.898 3.835 2.01 7.908 3.651 12.1 4.735 4.04 1.044 8.235 1.792 12.404 1.658 3.539-.114 7.453-.146 10.416-2.084 2.575-1.684 4.482-4.597 5.289-7.566.767-2.822.791-6.226-.693-8.746-1.241-2.107-3.688-3.754-6.115-4.051-1.94-.237-4.02.718-5.525 1.965-1.784 1.477-1.209 5.728-3.51 5.998-1.486.175-2.492-1.876-3.104-3.242-.917-2.048-1.118-4.547-.529-6.713.651-2.397 2.234-4.675 4.262-6.109 2.919-2.064 6.791-3.277 10.342-2.855 3.712.44 7.309 2.651 9.807 5.432 4.73 5.264 5.406 15.841 9.455 23.12 1.998 3.589 4.484 6.927 7.236 9.977 2.841 3.148 5.981 6.086 9.479 8.484 3.495 2.396 7.291 4.477 11.324 5.776 3.37 1.086 7.05 2.411 10.5 1.604 2.996-.702 5.783-2.788 7.557-5.303 1.686-2.39 2.873-5.58 2.34-8.455-.446-2.404-2.182-4.788-4.361-5.896-1.742-.886-4.02-.7-5.863-.043-2.182.778-3.097 4.966-5.352 4.434-1.456-.344-1.699-2.615-1.807-4.107-.162-2.238.504-4.654 1.797-6.488 1.431-2.03 3.7-3.631 6.096-4.285 3.449-.942 7.501-.755 10.693.855 3.337 1.683 5.963 4.99 7.359 8.457 2.645 6.564-.339 16.735.979 24.955.65 4.056 1.816 8.05 3.391 11.848 1.8 4.336 4.093 8.508 6.854 12.305 2.228 3.065 4.751 5.997 7.741 8.324 2.795 2.174 5.803 4.679 9.318 5.1 3.056.365 6.389-.642 8.916-2.398 2.402-1.669 4.607-4.26 5.09-7.145.403-2.412-.413-5.246-2.082-7.03-1.334-1.429-3.54-2.034-5.494-2.047-2.316-.015-4.609 3.61-6.545 2.338-1.251-.822-.702-3.039-.293-4.479.614-2.158 2.066-4.202 3.908-5.482 2.039-1.418 4.718-2.146 7.193-1.941 3.563.295 7.307 1.856 9.756 4.461 2.56 2.723 3.897 6.727 4.02 10.463.24 7.07-6.04 15.612-7.617 23.787-.776 4.03-.978 8.187-.867 12.293.119 4.397.415 8.868 1.636 13.09 1.127 3.899 2.947 7.628 5.17 11.02 1.94 2.962 3.852 6.381 7.01 7.979 2.746 1.388 6.224 1.583 9.199.797 2.828-.747 5.787-2.427 7.227-4.973 1.204-2.128 1.406-5.072.449-7.322-.765-1.799-2.63-3.122-4.463-3.803-2.171-.806-5.565 1.816-6.949-.041-.894-1.2.379-3.096 1.256-4.309 1.315-1.818 3.379-3.241 5.549-3.814 2.401-.635 5.166-.402 7.422.637 3.247 1.496 6.232 4.242 7.643 7.527 1.474 3.435 1.36 7.655.201 11.209-2.194 6.728-11.02 12.603-15.293 19.746-2.109 3.525-3.718 7.358-5.02 11.254-1.396 4.177-2.637 8.486-2.952 12.879-.293 4.096.087 8.278 1.012 12.279.797 3.449 1.438 7.313 3.861 9.895 2.106 2.244 5.306 3.615 8.371 3.895 2.912.265 6.269-.302 8.492-2.201 1.859-1.588 3.055-4.285 2.926-6.727-.104-1.952-1.405-3.833-2.895-5.1-1.765-1.5-5.85-.197-6.516-2.416-.43-1.433 1.416-2.779 2.654-3.619 1.857-1.259 4.283-1.891 6.518-1.688 2.473.225 4.993 1.389 6.758 3.137 2.54 2.516 4.406 6.118 4.607 9.688.211 3.732-1.341 7.658-3.645 10.602-4.362 5.572-14.663 8.08-21.12 13.326-3.188 2.591-6.04 5.624-8.566 8.859-2.654 3.393-5.059 7.04-6.853 10.957-1.743 3.806-2.845 7.903-3.714 11.998-.187.882-.214 1.779-.318 2.686v.002c-.104.906-.194 1.817-.227 2.721v.002c-.065 1.807.092 3.582.789 5.209.151.354.323.701.514 1.039.191.338.401.667.627.988.678.963 1.504 1.841 2.422 2.602.612.506 1.263.961 1.939 1.354h.002c.338.196.682.377 1.029.541.331.156.673.302 1.023.436.7.268 1.435.489 2.182.646 1.494.315 3.04.377 4.475.063.359-.079.712-.181 1.055-.309.286-.107.568-.235.844-.379.277-.145.548-.306.811-.484 1.575-1.069 2.859-2.703 3.395-4.457.499-1.636.118-3.535-.633-5.123-.107-.227-.221-.446-.342-.658-.143-.252-.336-.474-.563-.676-.453-.404-1.043-.725-1.652-1.023-.305-.149-.614-.293-.914-.439-.599-.292-1.156-.592-1.557-.965-.401-.373-.645-.818-.611-1.396.022-.374.175-.694.416-.969.241-.275.567-.506.938-.701.741-.391 1.653-.64 2.379-.822.544-.137 1.108-.226 1.68-.266.572-.04 1.15-.031 1.725.023h.002c1.149.11 2.28.407 3.295.885.281.132.557.278.828.438.424.249.829.537 1.221.844.109.086.222.166.328.256h.002c1.218 1.029 2.236 2.319 2.898 3.723.954 2.02 1.516 4.35 1.551 6.648.021 1.379-.148 2.747-.535 4.03-.135.447-.296.888-.482 1.32-.558 1.298-1.334 2.523-2.258 3.637-1.231 1.484-2.725 2.769-4.311 3.758-1.501.936-3.285 1.564-5.24 2.023-.978.23-1.998.418-3.047.58-5.244.81-11.203.99-16.12 2.693-.485.168-.967.345-1.445.531-.479.186-.955.381-1.428.584-.944.405-1.878.842-2.799 1.301-1.843.919-3.642 1.93-5.408 2.979-.473.281-.995.61-1.545.971-.446.292-.918.615-1.393.941-.11.075-.212.142-.322.219-.447.309-.877.629-1.326.949-.762.543-1.537 1.023-2.246 1.611-1.054.874-2.067 1.808-2.971 2.836-2.863 3.256-5.704 6.633-7.707 10.478-1.635 3.14-3.599 6.525-3.402 10.06.171 3.073 1.74 6.181 3.908 8.365 2.06 2.075 4.996 3.799 7.92 3.773 2.445-.021 5.096-1.318 6.566-3.271 1.175-1.562 1.387-3.84 1.061-5.768-.387-2.284-4.354-3.912-3.438-6.04.592-1.374 2.871-1.219 4.359-1.066 2.232.23 4.495 1.304 6.076 2.896 1.75 1.762 2.932 4.275 3.16 6.748.328 3.56-.557 7.519-2.697 10.383-2.237 2.994-5.951 5-9.607 5.777-6.924 1.464-16.422-3.241-24.746-3.371-4.107-.064-8.244.402-12.258 1.279-4.41.963-8.773 2.357-12.828 4.339-3.56 1.74-6.994 3.877-9.922 6.547-2.616 2.386-5.615 4.902-6.639 8.291-.89 2.946-.478 6.404.813 9.197 1.226 2.655 3.396 5.278 6.152 6.254 2.305.816 5.239.503 7.289-.83 1.639-1.066 2.617-3.134 2.969-5.057.417-2.278-2.755-5.166-1.166-6.852 1.026-1.089 3.114-.163 4.461.49 2.02.979 3.779 2.764 4.721 4.801 1.042 2.254 1.294 5.02.662 7.42-.909 3.458-3.095 6.874-6.086 8.834-3.126 2.048-7.303 2.668-11 2.145-7.01-.992-14.324-8.66-22.1-11.629-3.838-1.465-7.89-2.402-11.955-2.99-4.38-.634-8.861-.995-13.266-.563-4.062.399-8.127 1.328-11.898 2.889-3.272 1.354-6.953 2.687-9.07 5.521-1.844 2.464-2.638 5.853-2.381 8.92.244 2.914 1.386 6.12 3.643 7.98 1.887 1.555 4.749 2.266 7.131 1.715 1.904-.441 3.531-2.05 4.52-3.736 1.171-1.998-.821-5.795 1.248-6.836 1.337-.672 2.983.91 4.03 1.984 1.562 1.611 2.605 3.891 2.793 6.127.208 2.475-.499 5.158-1.914 7.199-2.037 2.938-5.262 5.4-8.742 6.219-3.638.856-7.774 0-11.07-1.748-6.245-3.329-10.498-13.04-16.791-18.488-3.105-2.69-6.464-5.218-10.213-6.898-7.634-3.421-15.963-5.96-24.326-6.174-3.539-.09-7.451.146-10.414 2.084-2.575 1.684-4.484 4.599-5.291 7.568-.767 2.822-.791 6.226.693 8.746 1.241 2.107 3.688 3.752 6.115 4.049 1.94.237 4.02-.718 5.525-1.965 1.784-1.477 1.211-5.726 3.512-5.996 1.486-.175 2.492 1.876 3.104 3.242.917 2.048 1.118 4.545.529 6.711-.651 2.397-2.236 4.677-4.264 6.111-2.919 2.064-6.789 3.275-10.34 2.854-3.712-.441-7.31-2.65-9.809-5.43-4.73-5.264-5.404-15.843-9.453-23.12-1.998-3.589-4.492-6.918-7.236-9.975-2.925-3.258-6.12-6.351-9.743-8.811-3.387-2.299-7.113-4.198-11.02-5.426-3.378-1.062-7.05-2.411-10.5-1.604-2.996.702-5.785 2.788-7.559 5.303-1.686 2.39-2.873 5.58-2.34 8.455.446 2.404 2.184 4.788 4.363 5.896 1.742.886 4.02.7 5.863.043 2.182-.778 3.095-4.968 5.35-4.436 1.456.344 1.701 2.617 1.809 4.109.162 2.238-.506 4.654-1.799 6.488-1.431 2.03-3.7 3.629-6.096 4.283-3.449.942-7.501.757-10.693-.854-3.337-1.683-5.961-4.99-7.357-8.457-2.645-6.564.337-16.735-.98-24.955-.65-4.056-1.859-8.04-3.389-11.85-1.622-4.045-3.519-8.05-6.087-11.57-2.426-3.327-5.368-6.332-8.651-8.817-2.823-2.136-5.801-4.677-9.316-5.098-3.056-.365-6.389.64-8.916 2.396-2.402 1.669-4.609 4.26-5.092 7.145-.403 2.412.413 5.248 2.082 7.04 1.334 1.429 3.541 2.032 5.496 2.045 2.316.015 4.607-3.608 6.543-2.336 1.251.822.702 3.039.293 4.479-.614 2.158-2.066 4.2-3.908 5.48-2.039 1.418-4.716 2.146-7.191 1.941-3.563-.295-7.309-1.854-9.758-4.459-2.56-2.723-3.895-6.729-4.02-10.465-.24-7.07 6.04-15.61 7.615-23.785.777-4.03.98-8.187.869-12.293-.12-4.449-.45-8.964-1.657-13.248-1.112-3.947-2.848-7.763-5.071-11.209-1.919-2.975-3.852-6.379-7.01-7.977-2.746-1.388-6.222-1.583-9.197-.797-2.828.747-5.789 2.427-7.229 4.973-1.204 2.128-1.406 5.07-.449 7.32.765 1.799 2.632 3.122 4.465 3.803 2.171.806 5.563-1.814 6.947.043.894 1.2-.379 3.096-1.256 4.309-1.315 1.818-3.377 3.241-5.547 3.814-2.401.635-5.168.402-7.424-.637-3.247-1.496-6.232-4.244-7.643-7.529-1.474-3.435-1.36-7.654-.201-11.207 2.194-6.728 11.02-12.602 15.293-19.746 2.109-3.525 3.72-7.359 5.02-11.256 1.389-4.158 2.617-8.448 2.936-12.82.298-4.091-.06-8.268-.979-12.266-.793-3.451-1.438-7.313-3.861-9.895-2.106-2.244-5.306-3.615-8.371-3.895-2.912-.265-6.269.302-8.492 2.201-1.859 1.588-3.055 4.285-2.926 6.727.103 1.952 1.405 3.833 2.895 5.1 1.765 1.5 5.85.197 6.516 2.416.43 1.433-1.416 2.779-2.654 3.619-1.857 1.259-4.283 1.891-6.518 1.688-2.473-.225-4.993-1.389-6.758-3.137-2.54-2.516-4.406-6.118-4.607-9.688-.211-3.732 1.341-7.659 3.645-10.602 4.362-5.572 14.721-8 21.12-13.326 4.04-3.359 7.753-7.224 10.707-11.57 3.045-4.481 5.825-9.372 7.03-14.654 0 0 0 0 0-.002.08-.677.329-1.333.477-1.99v-.002c.295-1.316.533-2.575.645-3.598.143-1.319.342-2.685.459-4.047v-.002l.006-.078c.074-.882.114-1.763.082-2.629-.049-1.338-.268-2.641-.791-3.861-.606-1.414-1.544-2.717-2.678-3.83-.283-.278-.579-.545-.885-.799-.306-.254-.623-.494-.947-.721-.324-.226-.654-.437-.992-.633h-.002c-.338-.196-.681-.377-1.029-.541-1.984-.934-4.364-1.513-6.586-1.313-.741.067-1.464.22-2.148.477-2.29.857-4.335 2.981-5.05 5.32-.57 1.87.008 4.082.975 5.781.143.252.336.474.563.676.226.202.487.383.768.551.28.168.58.323.885.473.914.447 1.869.845 2.471 1.404.401.373.645.818.611 1.396-.011.187-.054.359-.125.52v.002c-.071.16-.171.308-.291.445-.361.413-.916.727-1.52.971-.603.244-1.253.418-1.797.555-1.089.274-2.256.353-3.406.242-1.15-.11-2.28-.409-3.295-.887-.843-.397-1.647-.918-2.379-1.535-.244-.206-.479-.423-.705-.648-.68-.677-1.275-1.436-1.754-2.248-.16-.27-.307-.545-.439-.826-.191-.404-.365-.82-.523-1.246-.159-.427-.3-.861-.424-1.305-.124-.443-.229-.893-.316-1.348-.087-.453-.155-.91-.203-1.369v-.002c-.048-.459-.077-.919-.084-1.379-.021-1.379.148-2.747.535-4.03.135-.447.296-.888.482-1.32.558-1.298 1.334-2.523 2.258-3.637.924-1.113 1.994-2.115 3.141-2.963.382-.283.773-.548 1.17-.795.375-.234.767-.449 1.176-.646.409-.198.834-.379 1.273-.545.439-.166.894-.317 1.359-.455 1.397-.414 2.905-.714 4.479-.957 1.049-.162 2.127-.299 3.219-.428 2.73-.322 5.55-.594 8.242-1.086 1.615-.295 3.183-.669 4.658-1.18.83-.287 1.648-.607 2.459-.945 2.982-1.245 5.844-2.803 8.621-4.451.954-.566 2.239-1.387 3.305-2.16 2.609-1.893 5.331-3.707 7.541-6.05 2.743-2.911 5.126-6.225 6.943-9.789 1.609-3.154 3.601-6.527 3.404-10.06-.171-3.073-1.742-6.181-3.91-8.365-2.06-2.075-4.996-3.797-7.92-3.771-2.445.021-5.094 1.318-6.564 3.271-1.175 1.562-1.387 3.84-1.061 5.768.387 2.284 4.354 3.912 3.438 6.04-.592 1.374-2.871 1.217-4.359 1.064-2.232-.23-4.497-1.304-6.078-2.896-1.75-1.762-2.932-4.273-3.16-6.746-.328-3.56.557-7.519 2.697-10.383 2.237-2.994 5.951-5 9.607-5.777 6.924-1.464 16.424 3.239 24.748 3.369 4.107.064 8.231-.46 12.256-1.279 4.368-.89 8.777-1.969 12.783-3.924 3.628-1.77 6.982-4.177 9.928-6.938 2.583-2.42 5.613-4.902 6.637-8.291.89-2.946.478-6.404-.813-9.197-1.226-2.655-3.396-5.278-6.152-6.254-2.305-.816-5.237-.503-7.287.83-1.639 1.066-2.619 3.134-2.971 5.057-.417 2.278 2.755 5.164 1.166 6.85-1.026 1.089-3.114.165-4.461-.488-2.02-.979-3.779-2.764-4.721-4.801-1.042-2.254-1.294-5.02-.662-7.422.909-3.458 3.095-6.872 6.086-8.832 3.126-2.048 7.303-2.668 11-2.145 7.01.992 14.324 8.66 22.1 11.629 3.838 1.465 7.881 2.462 11.955 2.988 4.368.565 8.832.633 13.211.161 4.02-.433 8.07-1.204 11.814-2.729 3.279-1.336 6.953-2.687 9.07-5.521 1.844-2.464 2.638-5.853 2.381-8.92-.244-2.914-1.386-6.12-3.643-7.98-1.887-1.555-4.749-2.266-7.131-1.715-1.904.441-3.531 2.05-4.52 3.736-1.171 1.998.821 5.795-1.248 6.836-1.337.672-2.983-.91-4.03-1.984-1.562-1.611-2.605-3.891-2.793-6.127-.208-2.475.499-5.158 1.914-7.199 2.037-2.938 5.262-5.4 8.742-6.219.91-.214 1.85-.322 2.801-.336z"/><g stroke-linejoin="round"><path d="M326.81482 332.76996A168.19131 168.19133 0 0 0 158.62341 500.96137 168.19131 168.19133 0 0 0 326.81482 669.15277 168.19131 168.19133 0 0 0 495.00623 500.96137 168.19131 168.19133 0 0 0 326.81482 332.76996m0 16.21875A151.97362 151.97363 0 0 1 478.78943 500.96137 151.97362 151.97363 0 0 1 326.81482 652.93598 151.97362 151.97363 0 0 1 174.84216 500.96137 151.97362 151.97363 0 0 1 326.81482 348.98871"/><path d="m371.92 406.21c-3.722.031-7.451.547-10.992 1.457-6.736 1.73-12.756 5.832-18.281 10.05-6.03 4.611-15.834 16.377-15.834 16.377 0 0-9.801-11.766-15.834-16.377-5.525-4.223-11.546-8.325-18.281-10.05-3.541-.91-7.27-1.424-10.992-1.455-3.722-.031-7.436.423-10.943 1.455-5.216 1.535-9.965 4.895-13.711 8.836-3.229 3.396-5.797 7.66-7.01 12.188-1.65 6.182-1.142 12.898 0 19.19.774 4.269 2.639 8.302 4.568 12.188 1.523 3.068 5.484 8.691 5.484 8.691l13.406-5.34c0 0-3.579-5.218-4.785-8.119-1.697-4.084-3.081-8.424-3.352-12.838-.221-3.601.181-7.345 1.434-10.729.841-2.272 2.224-4.405 3.961-6.094 1.536-1.494 3.409-2.819 5.484-3.352 4.235-1.086 8.898-.592 13.1.609 5.596 1.6 10.769 4.797 15.232 8.531 4.522 3.784 11.23 13.668 11.23 13.668l-69.805 69.805 80.81 80.81 80.81-80.81-69.805-69.805c0 0 6.708-9.884 11.23-13.668 4.464-3.735 9.637-6.931 15.232-8.531 4.203-1.202 8.867-1.695 13.1-.609 2.075.532 3.949 1.858 5.484 3.352 1.737 1.689 3.12 3.822 3.961 6.094 1.253 3.384 1.655 7.127 1.434 10.729-.271 4.414-1.654 8.754-3.352 12.838-1.206 2.901-4.785 8.119-4.785 8.119l13.406 5.34c0 0 3.961-5.623 5.484-8.691 1.929-3.886 3.794-7.919 4.568-12.188 1.142-6.295 1.651-13.01 0-19.19-1.209-4.527-3.777-8.791-7.01-12.188-3.746-3.941-8.495-7.301-13.711-8.836-3.507-1.032-7.222-1.488-10.943-1.457zm-45.11 48.28l60.42 60.42-60.42 60.42-60.42-60.42 60.42-60.42z"/></g></g></g></svg>