<?xml version="1.0" encoding="utf-8"?>
<!-- Generator: Adobe Illustrator 17.1.0, SVG Export Plug-In . SVG Version: 6.00 Build 0)  -->
<!DOCTYPE svg PUBLIC "-//W3C//DTD SVG 1.1//EN" "http://www.w3.org/Graphics/SVG/1.1/DTD/svg11.dtd">
<svg version="1.1" id="Слой_1" xmlns="http://www.w3.org/2000/svg" xmlns:xlink="http://www.w3.org/1999/xlink" x="0px" y="0px"
	 viewBox="0 0 822.6 494" enable-background="new 0 0 822.6 494" xml:space="preserve">
<ellipse fill="#2E528A" cx="411.2" cy="245.2" rx="410.2" ry="244.2"/>
<path fill="#FFFFFF" d="M96.1,323.8c0,0-126.6-170.3,228.5-235c0,0-15.3-13.2-10.8-35.5c0,0,80.3-3.8,103.2,9.6
	c0,0,13.4-12.4,39.7-0.3c0,0,3.3-10.5,44.4-7.3c0,0,40.8,7,57.6-2.4c0,0,20.4-14.1-38.9-19.2c0,0-124.1-19.4-276.9,10.2
	c0,0-179.4,26.8-206.2,176.1c0,0-6.5,55,51.6,103.9H96.1z"/>
<path fill="#FFFFFF" d="M580,110.6c0,0,49-23.6,62.4-40.1c0,0,88.5,45.6,118.5,80.3c0,0,43.8,43,22.3,113.4c0,0-5.1,30.6-50.3,78.4
	l-7-8.9c0,0,41.4-38,22.3-105.7C748.1,227.8,713.1,150.7,580,110.6z"/>
<path fill="#FFFFFF" d="M614.9,56.6c0,0-14.9,22.7-114.2,45.4c0,0-84.5,15.7-119.8,9.8c0,0-23.4,1.3-35.7-28.7c0,0,18,3.5,26.6,3.6
	c0,0,4.1,8.8,24.8,11.6c0,0-6.1-7.4-4.4-11.6h8.5c0,0,9.8,11,15.3,11.6c0,0,14.4,1.1,19.5,0c0,0-4.2-5.7-4.7-9.6H443
	c0,0,3,5.5,11,6.4h32.7c0,0-7.2-2.1-9.3-12.1h12.3c0,0,4.7,8.3,13.2,7.9c0,0,19.5,1.3,22.5-4.2l-3.4-3.6c0,0,38.6,1.9,70.5-26.5
	H614.9z"/>
<path fill="#FFFFFF" d="M194.6,342.4c0,0,33.1-21,45.9-23.6c0,0,28-15.9,35.7-24.8c0,0,7-10.2,15.9-10.8c0,0,46.5-22.9,58.6-44
	c0,0,8.3-14.7,8.3-22.9c0,0,1.9-5.7,15.3-9.9c0,0,78.4-10.8,121.7-79.9c0,0,3.8-3.8,0-5.1c0,0-15.3,4.6-26.8-8.2
	c0,0-11.3-4.3,23.6-6c0,0,17.9,2.1,31.2-6.2c0,0,12.1-1.9,21,0c0,0,5.5-7.6,17.1-5.1c0,0,0.8,7.8-14.5,17.3c0,0-12.7,10.1-26.8,12.7
	c0,0-20.4,36.3-25.5,62.4c0,0-2.5,6.4,23.6-4.5c0,0,25.5-5.1,12.7,12.7c0,0-40.1,52.9-71.3,66.2c0,0-17.2,5.1-26.1,3.2
	c0,0,5.7-13.4,15.9-16.6c0,0,10.8-3.8,14.7-3.2l9.6-3.8c0,0,15.9-25.5,19.1-28c0,0,9.6-7-10.2-3.2c0,0-15.3,7.6-30.6,11.5
	c0,0-56.8,19.7-74.3,34c0,0-49.3,30.3-62.7,37.3l-1.3,5.7c0,0-26.1-1.9-73.3,30.6c0,0-11.5,5.1-14,12.1H194.6z"/>
<path fill="#FFFFFF" d="M253.2,342.4c0,0,232.5-66.9,290.5-62.4c0,0-9.6,30.6,39.5,62.4c0,0-56.1-19.7-59.2-47.1
	c0,0-109.6,9.6-251,47.1H253.2z"/>
<g>
	<g>
		<path fill="#FFFFFF" d="M111,346.1c-2.5,2.7-3.7,4.1-6.2,6.8c-3.3-1.5-4.9-2.3-8.1-3.9c8.5-8.5,16.9-17.2,25.2-26
			c3.9,1.8,5.9,2.7,9.8,4.5c-1.3,12-2.3,24.1-3.2,36.1c-3.4-1.5-5.1-2.2-8.5-3.7c0.4-3.7,0.5-5.6,0.9-9.2
			C117,348.9,115,348,111,346.1z M122.2,344.9c0.4-3,0.5-4.6,0.9-7.6c0.2-2.1,0.7-4.7,1.1-6.8c0,0-0.1,0-0.1,0
			c-1.3,1.6-2.9,3.8-4.3,5.3c-2,2.3-3,3.4-5.1,5.7C117.6,342.8,119.2,343.5,122.2,344.9z"/>
		<path fill="#FFFFFF" d="M146.4,334.4c2.1,0.5,6.3,1.9,10.1,3.4c4.6,1.9,7.3,3.5,9.3,5.7c1.8,2.1,2.8,4.9,1.7,7.9
			c-1.1,2.9-3.9,4.9-8.3,4.7c0,0,0,0.1,0,0.1c3.6,2.5,5.5,6.4,3.9,10.6c-1.1,2.9-3.4,4.7-6.3,5.4c-3.3,0.9-8,0.3-15.1-2.6
			c-3.9-1.6-6.8-3.1-8.4-4.1C137.6,355.1,142,344.8,146.4,334.4z M148.9,349.7c1,0.4,1.5,0.6,2.5,1c4.1,1.6,6.9,0.9,7.8-1.4
			c0.9-2.4-0.5-4.5-4-5.9c-1.7-0.7-2.7-1-3.4-1.1C150.8,345.3,150.2,346.8,148.9,349.7z M143.2,363.8c0.7,0.4,1.7,0.8,3,1.3
			c3.6,1.4,7.3,1.5,8.6-1.9c1.3-3.2-1.4-5.7-5.3-7.3c-1.1-0.4-1.6-0.6-2.7-1.1C145.4,358.5,144.6,360.2,143.2,363.8z"/>
		<path fill="#FFFFFF" d="M180.8,354.3c-3.7-1.3-5.5-2-9.2-3.4c0.9-2.4,1.4-3.7,2.3-6.1c10.4,3.9,15.7,5.7,26.2,9.2
			c-0.8,2.5-1.2,3.7-2,6.2c-3.8-1.2-5.7-1.9-9.4-3.2c-3.6,10.5-5.4,15.8-9,26.3c-3.3-1.1-4.9-1.7-8.1-2.8
			C175.2,370.1,177.1,364.8,180.8,354.3z"/>
		<path fill="#FFFFFF" d="M229.8,380.4c-2.6,10.2-12.7,15.4-22.6,12.4c-9.5-2.8-14.7-12.5-11.6-21.9c3.1-9.4,12.7-14.8,22.3-11.9
			C228.4,362.1,232.1,371.3,229.8,380.4z M204.1,373.4c-2,6.4-0.1,12,5.3,13.6c5.5,1.6,10-2.3,11.8-8.7c1.7-5.9,0.1-11.9-5.3-13.5
			C210.6,363.2,206.1,367,204.1,373.4z"/>
		<path fill="#FFFFFF" d="M236.9,367.1c2.8-0.7,6.7-1.1,11.5,0.1c7.7,1.9,11.3,6.6,10.2,11.5c-0.9,4.2-4.6,6.3-9,6.2
			c0,0,0,0.1,0,0.1c4.3,1.6,7.6,5.4,6.6,9.9c-1.7,7.5-10.6,8.2-17.4,6.5c-3.8-0.9-7.7-2.8-10.4-5.1c1.3-2.1,2-3.2,3.2-5.3
			c1.4,1.2,4.9,3.4,8.3,4.2c4.2,1,7.1,0,7.7-2.7c0.9-3.7-3.1-5.5-6.4-6.3c-1.4-0.3-2-0.5-3.4-0.9c0.6-2.2,0.8-3.3,1.4-5.5
			c1.3,0.3,2,0.5,3.3,0.8c3.6,0.9,6.8,0,7.4-2.6c0.5-2.2-1.1-4.1-4.4-5c-2.7-0.7-6-0.4-8.2,0C237.2,370.7,237.1,369.5,236.9,367.1z"
			/>
		<path fill="#FFFFFF" d="M269.8,398.8c-1.7,3.2-2.6,4.9-4.4,8.1c-3.5-0.7-5.2-1.1-8.6-1.9c6.2-10.3,12.3-20.7,18.1-31.3
			c4.2,0.9,6.3,1.3,10.4,2c1.5,12,3.2,23.9,5.1,35.8c-3.6-0.6-5.4-0.9-9-1.6c-0.5-3.7-0.7-5.5-1.2-9.2
			C276.1,400.1,274,399.7,269.8,398.8z M280.2,394.9c-0.4-3-0.5-4.6-0.9-7.6c-0.2-2.1-0.4-4.8-0.5-6.9c0,0-0.1,0-0.1,0
			c-0.9,1.9-2,4.3-2.9,6.2c-1.4,2.7-2.1,4-3.6,6.7C275.4,394,277,394.3,280.2,394.9z"/>
		<path fill="#FFFFFF" d="M301,379c2.2-0.1,6.5,0.3,10.4,0.9c4.9,0.7,7.8,1.7,10.2,3.4c2.2,1.6,3.8,4.1,3.4,7.2
			c-0.4,3-2.6,5.6-6.9,6.5c0,0,0,0.1,0,0.1c4,1.6,6.7,4.9,6.2,9.3c-0.4,3.1-2.2,5.3-4.8,6.7c-2.9,1.6-7.6,2.1-15,1
			c-4.1-0.6-7.2-1.4-9-1.9C297.3,401.2,299.1,390.1,301,379z M306.9,393.3c1.1,0.2,1.6,0.2,2.7,0.4c4.3,0.6,6.8-0.7,7.2-3.2
			c0.4-2.6-1.5-4.2-5.2-4.8c-1.7-0.3-2.8-0.3-3.5-0.3C307.6,388.5,307.4,390.1,306.9,393.3z M304.6,408.4c0.8,0.2,1.8,0.4,3.2,0.6
			c3.8,0.6,7.3-0.3,7.8-3.9c0.5-3.4-2.6-5.2-6.7-5.9c-1.1-0.2-1.7-0.2-2.8-0.4C305.5,402.6,305.2,404.5,304.6,408.4z"/>
		<path fill="#FFFFFF" d="M364,402.8c-0.6,10.4-9.3,17.7-19.6,16.6c-10.9-1.2-16.6-9.6-15.5-19.2c1.1-9.8,9.4-17,19.4-16
			C359.1,385.2,364.5,393.4,364,402.8z M337.6,400.9c-0.7,6.7,2.2,11.8,7.8,12.3c5.7,0.5,9.3-4.2,9.8-10.9
			c0.5-6.1-2.2-11.7-7.8-12.2C342,389.7,338.3,394.3,337.6,400.9z"/>
		<path fill="#FFFFFF" d="M397.4,387.4c-0.2,9.4-0.4,18.8-0.6,28.2c1.5,0.1,2.2,0.2,3.7,0.3c-0.2,5.8-0.4,8.8-0.6,14.6
			c-2.6,0-3.9-0.1-6.5-0.1c-0.1-3.5-0.1-5.2-0.2-8.7c-8.8-0.2-13.1-0.4-21.9-0.9c-0.4,3.5-0.6,5.2-0.9,8.7c-2.6-0.1-3.9-0.2-6.5-0.4
			c0.2-5.8,0.4-8.8,0.6-14.6c1.2,0,1.9,0,3.1,0c1.6-2.4,3-4.8,4-7.4c1.2-3.4,1.9-7.1,2.1-11.3c0.2-3.7,0.3-5.5,0.5-9.2
			C383.4,387.1,388.1,387.2,397.4,387.4z M381,397.8c-0.2,4-0.9,7.8-2.1,11.2c-0.8,2.1-1.8,4.1-2.9,5.7c4.9,0.2,7.4,0.3,12.3,0.5
			c0.3-8.7,0.4-13,0.7-21.7c-3.1-0.1-4.7-0.2-7.9-0.3C381.2,395.1,381.1,396,381,397.8z"/>
		<path fill="#FFFFFF" d="M432.3,420.6c-1.5,0.8-5.1,1.5-9.6,1.7c-10.1,0.4-19.6-6.4-19.5-17.1c0.2-10.8,9.3-18.2,19.7-18.3
			c4.1,0,7.4,0.6,8.8,1.3c-0.6,2.5-0.9,3.7-1.5,6.2c-1.7-0.6-4-1.2-6.9-1.1c-6.5,0.1-11.5,3.8-11.5,11.5c0,6.9,4.4,11.2,11.9,11.1
			c2.5,0,5.3-0.6,7-1.3C431.4,417,431.7,418.2,432.3,420.6z"/>
		<path fill="#FFFFFF" d="M444.6,386.7c0.3,5.7,0.4,8.6,0.7,14.3c0.3,0,0.4,0,0.7,0c3.7-5.9,5.6-8.9,9.1-14.8
			c3.9-0.3,5.9-0.4,9.8-0.7c-4.5,6.5-6.8,9.7-11.5,16.1c4.8,0.8,7.1,3.7,8.9,7.7c1.6,3.5,3.1,7.2,5.1,10.4c-3.6,0.3-5.5,0.4-9.1,0.7
			c-1.4-2.3-2.3-4.9-3.4-7.3c-1.5-3.7-3.4-6.6-7.8-6.4c-0.6,0-0.9,0-1.6,0.1c0.3,5.7,0.4,8.6,0.7,14.4c-3.4,0.2-5,0.2-8.4,0.4
			c-0.4-11.4-0.9-22.9-1.3-34.3C439.8,387,441.4,386.9,444.6,386.7z"/>
		<path fill="#FFFFFF" d="M476,384.5c0.4,4.1,0.6,6.1,1,10.1c0.5,5.5,0.9,10.9,1,15.5c0.1,0,0.1,0,0.2,0c1.5-4.2,3.5-8.9,5.3-12.8
			c2.6-5.7,3.8-8.6,6.2-14.3c3.3-0.4,4.9-0.6,8.2-1c1.5,11.4,2.9,22.7,4.4,34.1c-3.1,0.4-4.6,0.6-7.7,1c-0.5-4-0.7-6-1.2-10.1
			c-0.6-5.3-1.1-9.9-1.1-14.4c-0.1,0-0.1,0-0.2,0c-1.2,4.2-3,9-4.8,12.9c-2.4,5.3-3.7,7.9-6.2,13.1c-3.9,0.4-5.8,0.6-9.6,0.9
			c-1-11.4-1.9-22.8-2.9-34.2C471.5,384.9,473,384.7,476,384.5z"/>
		<path fill="#FFFFFF" d="M512.3,380c0.6,4,0.9,6,1.5,10.1c0.8,5.4,1.5,10.9,1.9,15.4c0.1,0,0.1,0,0.2,0c1.3-4.3,3-9.1,4.6-13.1
			c2.3-5.8,3.3-8.7,5.5-14.6c3.3-0.6,4.9-0.8,8.2-1.4c2.1,11.3,4.1,22.5,6.2,33.8c-3.1,0.6-4.6,0.8-7.7,1.4c-0.7-4-1-6-1.7-10
			c-0.9-5.2-1.6-9.9-1.9-14.4c-0.1,0-0.1,0-0.2,0c-1,4.3-2.5,9.2-4.1,13.1c-2.2,5.4-3.3,8.1-5.5,13.4c-3.8,0.6-5.8,0.9-9.6,1.4
			c-1.6-11.3-3.2-22.7-4.7-34C507.9,380.7,509.4,380.4,512.3,380z M516,371.5c0.4,2,1.1,3,2.8,2.7c1.6-0.3,2.1-1.5,1.9-3.5
			c2.1-0.3,3.2-0.5,5.3-0.9c0.4,4.4-2.2,6.7-6.8,7.5c-4.6,0.7-7.5-0.8-8.6-5C512.8,372,513.8,371.8,516,371.5z"/>
		<path fill="#FFFFFF" d="M551.7,373.4c2.4-0.9,5.7-1.9,10.6-3c4.9-1.1,8.6-1,11.3,0.2c2.6,1.1,4.9,3.5,5.7,6.8
			c0.8,3.3,0.4,6.3-1.3,8.7c-2.2,3.1-6,5.2-10.9,6.3c-1.1,0.2-2,0.4-2.8,0.5c1.1,4.8,1.6,7.2,2.7,12c-3.3,0.7-4.9,1.1-8.3,1.8
			C556.4,395.5,554,384.4,551.7,373.4z M563,386.9c0.7,0,1.6-0.1,2.8-0.4c4.3-1,6.5-3.7,5.7-7.1c-0.7-3.1-3.4-4.4-7.4-3.5
			c-1.6,0.4-2.7,0.8-3.2,1C561.6,380.9,562.1,382.9,563,386.9z"/>
		<path fill="#FFFFFF" d="M593.3,389.2c-0.1,3.7-0.2,5.5-0.3,9.2c-3.4,0.9-5.1,1.3-8.6,2.2c1-12,1.7-24,2.3-36.1
			c4.1-1.1,6.2-1.7,10.3-2.8c6.7,10,13.6,19.9,20.6,29.8c-3.5,1.1-5.3,1.6-8.8,2.6c-2.1-3.1-3.1-4.6-5.2-7.7
			C599.5,387.5,597.4,388.1,593.3,389.2z M600.8,381.1c-1.7-2.6-2.5-3.8-4.2-6.4c-1.2-1.8-2.5-4.1-3.5-5.9c0,0-0.1,0-0.1,0
			c0,2.1,0.2,4.8,0.1,6.8c-0.1,3-0.1,4.6-0.2,7.6C596.1,382.4,597.7,382,600.8,381.1z"/>
		<path fill="#FFFFFF" d="M619.5,354.9c1.2,3.9,1.9,5.8,3.1,9.7c1.7,5.2,3.3,10.5,4.3,14.9c0.1,0,0.1,0,0.2-0.1
			c0.6-4.4,1.6-9.5,2.5-13.7c1.3-6.1,1.9-9.2,3.1-15.3c3.2-1.1,4.7-1.6,7.9-2.8c3.9,10.8,7.7,21.6,11.6,32.3c-3,1.1-4.5,1.6-7.4,2.6
			c-1.3-3.8-2-5.8-3.3-9.6c-1.7-5-3.2-9.5-4.2-13.9c-0.1,0-0.1,0-0.2,0.1c-0.3,4.4-1,9.5-2,13.6c-1.3,5.7-2,8.5-3.4,14.2
			c-3.7,1.2-5.6,1.8-9.3,3c-3.4-10.9-6.8-21.9-10.2-32.8C615.2,356.3,616.6,355.8,619.5,354.9z M621.8,345.9
			c0.7,1.9,1.6,2.8,3.2,2.2c1.6-0.5,1.8-1.8,1.4-3.7c2-0.7,3.1-1,5.1-1.8c1.1,4.2-1.1,7-5.6,8.5c-4.5,1.5-7.6,0.4-9.3-3.5
			C618.7,346.9,619.7,346.6,621.8,345.9z"/>
		<path fill="#FFFFFF" d="M684.8,348.4c4.3,9.7-0.7,20-10.3,23.8c-9.2,3.6-19.4-0.6-22.8-10c-3.4-9.3,0.9-19.5,10.3-23.2
			C672.4,335,681,339.9,684.8,348.4z M660.1,358.9c2.4,6.3,7.3,9.5,12.7,7.4c5.4-2.1,6.5-8,4-14.2c-2.3-5.7-7.3-9.4-12.6-7.3
			C658.9,346.9,657.7,352.7,660.1,358.9z"/>
		<path fill="#FFFFFF" d="M690.8,327.5c2.2,4.8,3.3,7.2,5.4,12c5.1-2.3,7.6-3.4,12.6-5.8c-2.3-4.8-3.4-7.2-5.7-11.9
			c3-1.4,4.5-2.1,7.4-3.6c5,10.3,10.1,20.6,15.1,30.9c-3.1,1.5-4.7,2.3-7.8,3.8c-2.5-5.2-3.7-7.8-6.2-13c-5.1,2.4-7.6,3.6-12.7,5.9
			c2.4,5.2,3.5,7.9,5.9,13.1c-3.2,1.4-4.8,2.1-7.9,3.5c-4.6-10.5-9.2-21-13.7-31.5C686.2,329.5,687.7,328.8,690.8,327.5z"/>
	</g>
</g>
</svg>
