<?xml version="1.0" encoding="UTF-8"?>
<!DOCTYPE svg PUBLIC "-//W3C//DTD SVG 1.1//EN" "http://www.w3.org/Graphics/SVG/1.1/DTD/svg11.dtd">
<!-- Creator: CorelDRAW 2019 (64-Bit) -->
<svg xmlns="http://www.w3.org/2000/svg" xml:space="preserve" width="1212px" height="1707px" version="1.1" style="shape-rendering:geometricPrecision; text-rendering:geometricPrecision; image-rendering:optimizeQuality; fill-rule:evenodd; clip-rule:evenodd"
viewBox="0 0 121200000 170700000"
 xmlns:xlink="http://www.w3.org/1999/xlink"
 xmlns:xodm="http://www.corel.com/coreldraw/odm/2003">
 <defs>
  <style type="text/css">
   <![CDATA[
    .fil1 {fill:black}
    .fil4 {fill:#039E4B}
    .fil2 {fill:#16ABB8}
    .fil0 {fill:#E31E24}
    .fil3 {fill:#F2E200}
   ]]>
  </style>
 </defs>
 <g id="Layer_x0020_1">
  <metadata id="CorelCorpID_0Corel-Layer"/>
  <g id="_2815391764800">
   <g>
    <polygon class="fil0" points="37003000,10449000 37003000,5251000 42201000,10449000 47442000,5251000 47442000,10449000 52640000,10449000 47442000,15690000 52640000,20889000 47442000,20889000 47442000,26131000 42201000,20889000 37003000,26131000 37003000,20889000 31760000,20889000 37003000,15690000 31760000,10449000 "/>
    <path id="1" class="fil1" d="M37003000 10449000l0 -5198000 5198000 5198000 5241000 -5198000 0 5198000 5198000 0 -5198000 5241000 5198000 5199000 -5198000 0 0 5242000 -5241000 -5242000 -5198000 5242000 0 -5242000 -5243000 0 5243000 -5199000 -5243000 -5241000 5243000 0zm1181000 -2347000l0 2347000 0 1181000 -1181000 0 -2391000 0 3226000 3225000 836000 837000 -841000 834000 -3209000 3181000 2379000 0 1181000 0 0 1182000 0 2378000 3182000 -3209000 834000 -841000 836000 836000 3225000 3226000 0 -2390000 0 -1182000 1181000 0 2347000 0 -3182000 -3181000 -829000 -830000 829000 -836000 3203000 -3230000 -2368000 0 -1181000 0 0 -1181000 0 -2368000 -3230000 3203000 -836000 830000 -829000 -830000 -3182000 -3182000z"/>
   </g>
   <g>
    <polygon class="fil0" points="73801000,10449000 73801000,5251000 78999000,10449000 84241000,5251000 84241000,10449000 89439000,10449000 84241000,15690000 89439000,20889000 84241000,20889000 84241000,26131000 78999000,20889000 73801000,26131000 73801000,20889000 68559000,20889000 73801000,15690000 68559000,10449000 "/>
    <path id="1" class="fil1" d="M73801000 10449000l0 -5198000 5198000 5198000 5242000 -5198000 0 5198000 5198000 0 -5198000 5241000 5198000 5199000 -5198000 0 0 5242000 -5242000 -5242000 -5198000 5242000 0 -5242000 -5242000 0 5242000 -5199000 -5242000 -5241000 5242000 0zm1182000 -2347000l0 2347000 0 1181000 -1182000 0 -2390000 0 3225000 3225000 837000 837000 -841000 834000 -3209000 3181000 2378000 0 1182000 0 0 1182000 0 2378000 3181000 -3209000 834000 -841000 836000 836000 3226000 3226000 0 -2390000 0 -1182000 1181000 0 2347000 0 -3182000 -3181000 -830000 -830000 830000 -836000 3203000 -3230000 -2368000 0 -1181000 0 0 -1181000 0 -2368000 -3230000 3203000 -836000 830000 -830000 -830000 -3181000 -3182000z"/>
   </g>
   <g>
    <polygon class="fil0" points="55402000,5215000 55402000,17000 60600000,5215000 65841000,17000 65841000,5215000 71039000,5215000 65841000,10457000 71039000,15655000 65841000,15655000 65841000,20897000 60600000,15655000 55402000,20897000 55402000,15655000 50160000,15655000 55402000,10457000 50160000,5215000 "/>
    <path id="1" class="fil1" d="M55402000 5215000l0 -5198000 5198000 5198000 5241000 -5198000 0 5198000 5198000 0 -5198000 5242000 5198000 5198000 -5198000 0 0 5242000 -5241000 -5242000 -5198000 5242000 0 -5242000 -5242000 0 5242000 -5198000 -5242000 -5242000 5242000 0zm1181000 -2346000l0 2346000 0 1181000 -1181000 0 -2391000 0 3226000 3226000 836000 836000 -841000 834000 -3209000 3182000 2379000 0 1181000 0 0 1181000 0 2378000 3182000 -3209000 834000 -841000 836000 837000 3225000 3225000 0 -2390000 0 -1181000 1181000 0 2347000 0 -3182000 -3182000 -829000 -830000 829000 -836000 3203000 -3230000 -2368000 0 -1181000 0 0 -1181000 0 -2368000 -3230000 3203000 -836000 830000 -829000 -830000 -3182000 -3181000z"/>
   </g>
   <path class="fil1" d="M19650000 28786000l17937000 0c2081000,-2102000 4561000,-3914000 7611000,-5312000 2922000,-1150000 0,0 2922000,-1150000 3460000,-1154000 7560000,-1842000 12480000,-1934000 5554000,104000 10064000,968000 13787000,2404000 2365000,1038000 0,0 2365000,1038000 2709000,1344000 4953000,3027000 6860000,4954000l17937000 0 0 96790000c-462000,13330000 -8910000,20112000 -24878000,17749000 -2754000,4982000 -8054000,8219000 -16071000,8644000 -8018000,-425000 -13318000,-3662000 -16072000,-8644000 -15968000,2363000 -24416000,-4419000 -24878000,-17749000l0 -96790000z"/>
   <polygon class="fil2" points="60600000,150834000 59784000,150780000 58893000,150693000 58030000,150581000 57193000,150445000 56383000,150285000 55601000,150101000 54845000,149895000 54115000,149666000 53412000,149415000 52735000,149144000 52083000,148851000 51457000,148538000 50857000,148205000 50282000,147852000 49731000,147480000 49204000,147090000 48702000,146681000 48224000,146254000 47769000,145809000 47337000,145347000 46928000,144867000 46542000,144370000 46179000,143856000 45838000,143325000 45128000,142103000 42923000,142394000 41530000,142532000 40184000,142619000 38884000,142655000 37632000,142640000 36426000,142577000 35268000,142465000 34158000,142306000 33094000,142100000 32077000,141848000 31108000,141552000 30184000,141211000 29307000,140827000 28476000,140401000 27689000,139933000 26946000,139423000 26247000,138871000 25590000,138279000 24975000,137644000 24402000,136968000 23870000,136251000 23379000,135490000 22929000,134687000 22521000,133842000 22154000,132953000 21828000,132021000 21545000,131046000 21305000,130029000 21108000,128968000 20955000,127866000 20846000,126722000 20783000,125545000 20783000,64877000 60600000,64877000 100416000,64877000 100416000,125545000 100353000,126722000 100244000,127866000 100091000,128968000 99894000,130029000 99654000,131046000 99371000,132021000 99046000,132953000 98678000,133842000 98270000,134687000 97820000,135490000 97329000,136251000 96797000,136968000 96224000,137644000 95609000,138279000 94952000,138871000 94253000,139423000 93510000,139933000 92723000,140401000 91892000,140827000 91015000,141211000 90091000,141552000 89122000,141848000 88105000,142100000 87042000,142306000 85931000,142465000 84773000,142577000 83567000,142640000 82315000,142655000 81015000,142619000 79669000,142532000 78276000,142394000 76071000,142103000 75361000,143325000 75020000,143856000 74657000,144370000 74271000,144867000 73862000,145347000 73430000,145809000 72975000,146254000 72497000,146681000 71995000,147090000 71468000,147480000 70918000,147852000 70342000,148205000 69742000,148538000 69116000,148851000 68465000,149144000 67787000,149415000 67084000,149666000 66355000,149895000 65598000,150101000 64816000,150285000 64006000,150445000 63169000,150581000 62306000,150693000 61415000,150780000 "/>
   <path class="fil1" d="M77949000 70323000l-9174000 0c-2551000,130000 -4341000,1021000 -5371000,2672000 -760000,29000 -1546000,-77000 -2360000,-319000 570000,599000 984000,1295000 1240000,2090000 162000,500000 194000,814000 140000,1320000l0 16583000 15681000 0c1084000,348000 2043000,871000 2573000,1995000 -66000,-1095000 -42000,-2191000 160000,-3287000 1728000,-1191000 2880000,-2958000 3109000,-5647000l0 -9291000 -2940000 0 -3411000 2940000c1529000,1607000 1764000,4156000 0,5528000l-7527000 0 0 -7645000c1502000,-2196000 3319000,-2196000 5449000,0l2431000 -3108000 0 -3831000zm353000 47977000l-9645000 0 -6351000 -5763000 0 -16584000 15760000 0 6940000 6939000 0 9292000 -2941000 0 -4587000 -4587000 0 -3881000 -7527000 0 0 7645000 5449000 0 2902000 3108000 0 3831000zm-34108000 0l9173000 0c2551000,-130000 4342000,-1021000 5372000,-2672000 759000,-29000 1546000,77000 2360000,319000 -571000,-599000 -985000,-1296000 -1241000,-2091000 -161000,-499000 -194000,-814000 -139000,-1319000l0 -16584000 -15682000 0c-1084000,-348000 -2043000,-871000 -2573000,-1995000 66000,1096000 42000,2192000 -160000,3287000 -1727000,1191000 -2879000,2958000 -3109000,5647000l0 9292000 2941000 0 3410000 -2940000c-1529000,-1608000 -1764000,-4156000 0,-5528000l7528000 0 0 7645000c-1503000,2195000 -3320000,2195000 -5450000,0l-2430000 3108000 0 3831000zm-353000 -47977000l9644000 0 6351000 5763000 0 16583000 -15760000 0 -6939000 -6939000 0 -9291000 2940000 0 4587000 4587000 0 3881000 7527000 0 0 -7645000 -5449000 0 -2901000 -3108000 0 -3831000z"/>
   <path class="fil0" d="M81211000 90337000c1318000,-1214000 1933000,-2648000 2126000,-4421000l21000 -214000 0 -8674000 -2133000 0 -2804000 2418000c1311000,1726000 1441000,4259000 -276000,5771000l-337000 279000 -8328000 0 0 -8422000c18000,-58000 477000,-646000 576000,-760000 1699000,-1938000 3631000,-1504000 5400000,71000l1904000 -2434000 0 -3039000 -8567000 0c-1519000,46000 -3218000,514000 -4305000,1643000 -1714000,1844000 -1475000,2637000 -1475000,4980000l0 14545000 12634000 0c3591000,-57000 3691000,285000 5564000,-1743000zm-3498000 27374000l0 -3010000 -2569000 -2752000 -5782000 0 0 -8822000 8705000 0 0 4226000 4242000 4242000 2108000 0 0 -8459000 -6595000 -6594000 -14927000 0 0 15734000 5990000 5435000 8828000 0zm-36782000 -19425000c-1318000,1213000 -1933000,2647000 -2126000,4421000l-21000 214000 0 8674000 2133000 0 2805000 -2418000c-1311000,-1727000 -1442000,-4260000 275000,-5772000l337000 -278000 8329000 0 0 8422000c-19000,58000 -477000,645000 -577000,759000 -1699000,1939000 -3631000,1505000 -5400000,-70000l-1903000 2434000 0 3039000 8567000 0c955000,-29000 1978000,-245000 2858000,-631000 3114000,-1362000 2922000,-3281000 2922000,-6478000l0 -14060000 -13560000 0c-3351000,0 -2942000,222000 -4639000,1744000zm3499000 -27374000l0 3009000 2568000 2752000 5782000 0 0 8823000 -8705000 0 0 -4226000 -4242000 -4242000 -2107000 0 0 8458000 6594000 6594000 14927000 0 0 -15733000 -5989000 -5435000 -8828000 0z"/>
   <path class="fil3" d="M56855000 124487000c-24000,425000 -48000,850000 -71000,1275000 -662000,401000 -1157000,967000 -1629000,1558000 472000,567000 967000,1110000 1629000,1487000 -47000,5075000 -95000,10150000 -142000,15225000 1314000,1294000 6660000,1259000 9985000,-637000 -2099000,-3287000 -2787000,-7443000 -2650000,-12106000 -366000,-2962000 -11000,-5138000 1064000,-6528000l28000 -415000c-2738000,295000 -5476000,413000 -8214000,141000zm7628000 6007000c2256000,-57000 4419000,-36000 5614000,792000 2101000,849000 4296000,1227000 6586000,1133000 -71000,-1724000 -142000,-3447000 -213000,-5170000 -2195000,236000 -4201000,-189000 -6019000,-1275000 -1345000,-806000 -3242000,-694000 -5137000,-584000 -748000,1154000 -1025000,2855000 -831000,5104000z"/>
   <path class="fil0" d="M60208000 36134000l-1799000 1877000 -3476000 -3256000 1767000 -1914000 979000 1109000 -313000 438000 552000 393000 469000 -656000 156000 -219000 -179000 -202000 -1406000 -1593000 -248000 -281000 -255000 276000 -2249000 2436000 -228000 247000 245000 230000 3717000 3481000 -3000 3000 256000 234000 15000 14000 2392000 2240000 2391000 -2240000 15000 -14000 256000 -234000 -3000 -3000 3717000 -3481000 245000 -230000 -228000 -247000 -2249000 -2436000 -255000 -276000 -248000 281000 -1406000 1593000 -179000 202000 156000 219000 469000 656000 552000 -393000 -313000 -438000 979000 -1109000 1767000 1914000 -3476000 3256000 -1799000 -1877000 0 -4392000 3710000 -3816000 5390000 5114000 0 2357000 0 21000 -8082000 7827000 -104000 100000 0 143000 0 18182000 0 338000 340000 0 38171000 0 0 2189000 -39816000 0 -39817000 0 0 -2189000 38171000 0 340000 0 0 -338000 0 -18182000 0 -143000 -103000 -100000 -8083000 -7827000 0 -21000 0 -2357000 5390000 -5114000 3710000 3816000 0 4392000zm40208000 25197000l0 -2783000 -35137000 0 -340000 0 0 -339000 -133000 -9793000 2624000 -2906000 239000 -265000 252000 252000 1687000 1687000 256000 256000 -273000 239000 -750000 656000 -446000 -510000 476000 -417000 -1179000 -1179000 -2288000 2533000 59000 915000 37000 33000 3153000 2742000 3492000 -3358000 -117000 -2465000 -4215000 -4215000 -5228000 5058000 0 13859000 37831000 0zm-32114000 -19390000l3776000 3777000 354000 95000 808000 217000 4811000 -5176000 -5255000 -5117000 -2060000 0 -8151000 7893000 0 2902000 8047000 -7786000 240000 -232000 235000 235000 2343000 2343000 227000 226000 -213000 240000 -750000 843000 -507000 -451000 537000 -604000 -1882000 -1881000 -2560000 2476000zm-47519000 19390000l0 -2783000 35137000 0 340000 0 0 -339000 133000 -9793000 -2624000 -2906000 -239000 -265000 -252000 252000 -1687000 1687000 -256000 256000 274000 239000 749000 656000 446000 -510000 -476000 -417000 1179000 -1179000 2288000 2533000 -59000 915000 -37000 33000 -3153000 2742000 -3492000 -3358000 117000 -2465000 4215000 -4215000 5229000 5058000 0 13859000 -37832000 0zm32114000 -19390000l-3776000 3777000 -354000 95000 -808000 217000 -4811000 -5176000 5255000 -5117000 2061000 0 8151000 7893000 0 2902000 -8048000 -7786000 -240000 -232000 -235000 235000 -2343000 2343000 -227000 226000 213000 240000 750000 843000 507000 -451000 -537000 -604000 1882000 -1881000 2560000 2476000z"/>
   <path class="fil3" d="M20783000 29918000l17266000 0 873000 -855000c5753000,-5481000 13244000,-7283000 21001000,-7523000 2307000,-72000 5770000,259000 8054000,666000 5418000,967000 10285000,3031000 14300000,6857000l873000 855000 17266000 0 0 27951000 -34797000 0 0 -7159000 3057000 2660000 4161000 -4001000 -132000 -2780000 753000 202000 5541000 -5960000 -5930000 -5774000c0,0 -2113000,0 -2298000,0l0 -2306000 -6089000 -5777000 -4082000 4199000 -4082000 -4199000 -6089000 5777000 0 2306000c-186000,0 -2299000,0 -2299000,0l-5930000 5774000 5541000 5960000 754000 -202000 -133000 2780000 4161000 4001000 3058000 -2660000 0 7159000 -34798000 0 0 -27951000zm39817000 10108000l1694000 -1553000 -1694000 -1768000 -1695000 1768000 1695000 1553000z"/>
   <g>
    <path class="fil0" d="M60600000 155731000c-7366000,-335000 -12880000,-3365000 -18182000,-8298000 -5221000,283000 -10376000,-83000 -15189000,-2385000 -8501000,-4063000 -11979000,-12598000 -12150000,-21747000 -46000,-2435000 357000,-3021000 -2588000,-3008000l-9624000 0c-1514000,13000 -1762000,670000 -1726000,2045000 67000,3717000 123000,6216000 835000,10077000 3303000,17893000 15778000,28052000 33466000,29342000 3402000,248000 1719000,-326000 4303000,1276000 6318000,3918000 13144000,6278000 20597000,6648000 1088000,53000 3978000,-302000 5120000,-490000 10362000,-1702000 17294000,-7149000 17767000,-7304000l2528000 -130000c8871000,-552000 17762000,-3815000 24052000,-10243000 7049000,-7204000 9960000,-17168000 10230000,-27056000 20000,-753000 5000,-1534000 27000,-2305000 38000,-1321000 -401000,-1849000 -1734000,-1860000l-9624000 0c-1830000,-8000 -2593000,54000 -2585000,1715000 36000,8003000 -2085000,16051000 -8799000,21028000 -5412000,4012000 -12021000,4751000 -18542000,4397000 -5303000,4933000 -10817000,7963000 -18182000,8298000z"/>
    <path id="1" class="fil1" d="M78782000 147433000c-5303000,4933000 -10817000,7963000 -18182000,8298000 -7366000,-335000 -12880000,-3365000 -18182000,-8298000 -5221000,283000 -10376000,-83000 -15189000,-2385000 -8501000,-4063000 -11979000,-12598000 -12150000,-21747000 -46000,-2435000 357000,-3021000 -2588000,-3008000l-9624000 0c-1514000,13000 -1762000,670000 -1726000,2045000 67000,3717000 123000,6216000 835000,10077000 3303000,17893000 15778000,28052000 33466000,29342000 3402000,248000 1719000,-326000 4303000,1276000 6318000,3918000 13144000,6278000 20597000,6648000 1088000,53000 3978000,-302000 5120000,-490000 10362000,-1702000 17294000,-7149000 17767000,-7304000l2528000 -130000c8871000,-552000 17762000,-3815000 24052000,-10243000 7049000,-7204000 9960000,-17168000 10230000,-27056000 20000,-753000 5000,-1534000 27000,-2305000 38000,-1321000 -401000,-1849000 -1734000,-1860000l-9624000 0c-1830000,-8000 -2593000,54000 -2585000,1715000 36000,8003000 -2085000,16051000 -8799000,21028000 -5412000,4012000 -12021000,4751000 -18542000,4397000zm-27641000 5024000c2838000,1357000 5925000,2165000 9459000,2330000 3533000,-165000 6620000,-973000 9458000,-2330000 2865000,-1370000 5494000,-3308000 8081000,-5714000l293000 -273000 398000 22000c3192000,173000 6397000,80000 9450000,-543000 3017000,-616000 5897000,-1752000 8483000,-3669000 2952000,-2188000 4974000,-5006000 6293000,-8159000 1558000,-3724000 2144000,-7920000 2125000,-12110000 -5000,-1238000 341000,-1915000 1106000,-2321000 608000,-322000 1365000,-343000 2421000,-338000l0 -4000 9624000 0 7000 4000c946000,8000 1609000,237000 2072000,745000 452000,497000 622000,1170000 596000,2081000 -11000,398000 -13000,780000 -14000,1159000l0 4000c-2000,388000 -3000,775000 -13000,1139000 -145000,5317000 -1040000,10657000 -2907000,15597000 -1685000,4457000 -4161000,8592000 -7592000,12098000 -3117000,3186000 -6851000,5615000 -10901000,7339000 -4347000,1852000 -9061000,2892000 -13768000,3184000l-7000 0 -2342000 121000c-58000,42000 -158000,120000 -348000,245000 -2021000,1328000 -8486000,5576000 -17502000,7057000 -670000,110000 -1939000,278000 -3109000,390000 -875000,83000 -1702000,136000 -2206000,111000 -3817000,-189000 -7468000,-887000 -10972000,-2037000 -3497000,-1149000 -6851000,-2751000 -10076000,-4751000 -609000,-377000 -962000,-618000 -1211000,-788000 -237000,-161000 -351000,-239000 -382000,-248000 -46000,-14000 -182000,-16000 -445000,-20000 -388000,-7000 -969000,-17000 -1836000,-80000 -9169000,-668000 -16982000,-3678000 -22910000,-8876000 -5778000,-5066000 -9747000,-12193000 -11416000,-21238000 -365000,-1978000 -562000,-3599000 -675000,-5195000 -110000,-1553000 -141000,-3136000 -175000,-5029000l0 0c-24000,-886000 65000,-1570000 462000,-2113000 433000,-593000 1107000,-886000 2198000,-895000l7000 -4000 9624000 0 0 4000c3537000,-16000 3535000,631000 3525000,3152000l0 3000c0,234000 -1000,491000 4000,779000 88000,4687000 1066000,9199000 3179000,12981000 1863000,3334000 4618000,6107000 8436000,7932000 2309000,1104000 4708000,1745000 7161000,2077000 2477000,335000 5014000,355000 7574000,216000l397000 -22000 293000 273000c2587000,2406000 5216000,4344000 8081000,5714000z"/>
   </g>
   <path class="fil3" d="M84764000 156018000c-1883000,-193000 -2618000,528000 -2206000,2162000 351000,-1088000 1087000,-1808000 2206000,-2162000zm-81137000 -32296000l9475000 -184000 0 5526000 -9475000 184000 0 -1421000 7402000 -144000 0 -2369000 -7402000 146000 0 -1738000zm2452000 15215000c2408000,-503000 4678000,-1422000 6909000,-2458000 -331000,-665000 -1128000,-1019000 -1993000,-1329000 886000,-443000 1772000,-885000 2658000,-1328000 653000,1611000 1450000,3150000 2458000,4584000 -842000,642000 -1683000,1284000 -2525000,1927000 266000,-864000 310000,-1728000 -133000,-2592000 -2225000,986000 -4307000,2115000 -6178000,3455000 -733000,-753000 -998000,-1506000 -1196000,-2259000zm-2258000 -8569000l9182000 -364000c119000,944000 328000,1889000 624000,2833000l-8586000 3614000 -425000 -1746000 2431000 -951000 -425000 -1809000 -2501000 264000 -300000 -1841000zm4450000 1394000l399000 1594000 2724000 -1195000 -200000 -665000 -2923000 266000zm58325000 35082000c-329000,-2932000 -767000,-5579000 -1590000,-8422000 680000,-283000 1333000,-371000 1958000,-262000 -111000,784000 108000,1370000 591000,1918000 2186000,967000 4053000,1585000 3992000,4242000 -325000,1835000 -2410000,2704000 -4951000,2524000zm2998000 -9038000c1229000,2303000 2292000,4717000 2989000,7374000 864000,111000 1462000,-132000 1794000,-730000 -1384000,-2237000 -2403000,-4717000 -3255000,-7309000 -709000,-177000 -1174000,133000 -1528000,665000zm-1529000 7146000c-156000,-1022000 -311000,-2045000 -466000,-3067000 962000,324000 2079000,121000 2468000,1655000 -135000,823000 -1098000,1391000 -2002000,1412000zm3704000 -8599000c1482000,2551000 2800000,5019000 3833000,7792000 715000,-178000 1291000,-496000 1729000,-956000 -557000,-564000 -822000,-1245000 -761000,-1973000 1180000,-2080000 2091000,-3993000 459000,-6090000 -1354000,-1280000 -3327000,-431000 -5260000,1227000zm2307000 645000c484000,913000 968000,1827000 1453000,2740000 579000,-833000 1377000,-1641000 776000,-3104000 -599000,-580000 -1491000,-158000 -2229000,364000zm-14563000 10185000c648000,-2374000 796000,-4415000 888000,-6873000 -743000,-8000 -1554000,541000 -2223000,1171000 186000,-991000 328000,-1981000 159000,-2972000 1732000,152000 3665000,208000 5400000,-36000 189000,1041000 179000,2016000 368000,3058000 -648000,-630000 -1397000,-1062000 -2368000,-1061000 -135000,2431000 -10000,4400000 332000,6676000 -1004000,309000 -1795000,203000 -2556000,37000zm-8768000 -1660000l3465000 -8047000c909000,281000 1855000,482000 2838000,602000l-259000 8846000 -1766000 -334000 139000 -2607000 -1823000 -360000 -793000 2387000 -1801000 -487000zm3108000 -3477000l1617000 296000 103000 -2909000 -687000 -93000 -1033000 2706000zm-5586000 -6765000c-974000,2879000 -2303000,5227000 -3986000,7043000 1798000,1311000 3603000,2527000 5580000,797000 1728000,-2027000 776000,-3444000 -1395000,-4584000 111000,-465000 399000,-842000 864000,-1130000 1063000,111000 1860000,842000 2392000,2193000 553000,-554000 930000,-1196000 1129000,-1927000 -1439000,-1063000 -2967000,-1860000 -4584000,-2392000zm-399000 4651000c-443000,841000 -974000,1594000 -1594000,2259000 1240000,708000 2303000,708000 3189000,0 358000,-1198000 -530000,-1773000 -1595000,-2259000zm-2857000 -1595000c-1661000,-1107000 -2701000,-797000 -3122000,931000 864000,-842000 1905000,-1152000 3122000,-931000zm-4136000 1239000c933000,-1765000 519000,-2769000 -1242000,-3012000 925000,773000 1339000,1778000 1242000,3012000zm-1177000 -3635000c1856000,735000 2809000,214000 2859000,-1563000 -668000,1004000 -1621000,1525000 -2859000,1563000zm3856000 -1550000c-830000,1815000 -359000,2794000 1414000,2936000 -968000,-720000 -1439000,-1698000 -1414000,-2936000zm-12627000 2750000c1340000,-575000 1827000,-2613000 1926000,-5315000 -1066000,-753000 -888000,-1196000 -531000,-1594000 1893000,321000 3466000,144000 5182000,-67000 268000,465000 579000,1063000 -399000,1528000 -45000,2636000 -1000,5494000 665000,7774000 -908000,88000 -1816000,-89000 -2724000,0 875000,-2453000 1118000,-5011000 930000,-7641000 -687000,45000 -1373000,89000 -2060000,133000 421000,3366000 -310000,5758000 -2192000,7176000 -886000,-488000 -1152000,-1152000 -797000,-1994000zm-3655000 -8570000c-597000,2901000 -1660000,5824000 -3321000,8371000 1694000,531000 3443000,1085000 4783000,2326000 399000,-1241000 975000,-2215000 1727000,-2924000 -287000,-243000 -575000,-487000 -863000,-731000 -576000,89000 -975000,532000 -1196000,1329000 -709000,-266000 -1329000,-620000 -1860000,-1063000 177000,-620000 354000,-1240000 531000,-1860000 598000,-44000 1019000,266000 1262000,930000 111000,-775000 399000,-1462000 864000,-2060000 -576000,45000 -1063000,-88000 -1462000,-398000 288000,-576000 576000,-1152000 864000,-1728000 1440000,488000 1949000,1373000 2724000,2060000 244000,-930000 22000,-2259000 266000,-3189000 -1550000,-222000 -2945000,-310000 -4319000,-1063000zm-8894000 5280000c1872000,-2282000 3653000,-4628000 5115000,-7200000 678000,289000 1196000,696000 1554000,1219000 -639000,467000 -1096000,1219000 -1152000,1947000 832000,2241000 1692000,4010000 -254000,5819000 -1541000,1048000 -3619000,161000 -5263000,-1785000zm2381000 -268000c624000,-825000 1248000,-1649000 1872000,-2474000 439000,915000 1363000,1574000 536000,2923000 -684000,477000 -1762000,184000 -2408000,-449000zm-1459000 -10394000c-1938000,2226000 -3953000,4375000 -6245000,6246000 398000,620000 885000,1063000 1461000,1328000 355000,-708000 1019000,-1284000 1728000,-1461000 2348000,447000 4453000,693000 5913000,-1528000 775000,-1695000 -664000,-3289000 -2857000,-4585000zm133000 2392000c-709000,753000 -1418000,1506000 -2126000,2259000 975000,280000 1997000,775000 3189000,-266000 356000,-754000 -331000,-1462000 -1063000,-1993000zm-10774000 -1493000l8188000 -4170000c504000,808000 1088000,1579000 1752000,2313000l-6289000 6873000 -1116000 -1409000 1811000 -1880000 -1142000 -1465000 -2162000 1285000 -1042000 -1547000zm8913000 -5084000c67000,1417000 753000,2303000 2060000,2657000 -886000,-686000 -1528000,-1616000 -2060000,-2657000zm-4288000 4490000l1029000 1282000 1974000 -2226000 -459000 -520000 -2544000 1464000zm95019000 -19834000c260000,-3238000 9167000,-3723000 9407000,456000 -1711000,4637000 -9065000,3345000 -9407000,-456000zm1889000 175000c156000,-1938000 5485000,-2228000 5629000,273000 -1024000,2774000 -5424000,2001000 -5629000,-273000zm-1832000 7522000c3122000,465000 6077000,1129000 8437000,2508000 1164000,-3943000 433000,-5901000 -1596000,-6499000 -1406000,-95000 -2318000,532000 -2565000,1368000 -418000,-1197000 -1027000,-1482000 -2167000,-1539000 -2071000,-153000 -2470000,1577000 -2109000,4162000zm4276000 -343000c950000,343000 1900000,685000 2850000,1027000 694000,-1920000 238000,-2794000 -741000,-3193000 -988000,-304000 -2090000,988000 -2109000,2166000zm-2965000 -684000c570000,95000 1140000,190000 1710000,285000 305000,-1159000 76000,-1862000 -684000,-2109000 -722000,-76000 -1064000,532000 -1026000,1824000zm-2939000 5794000c2692000,813000 5366000,2067000 7633000,3855000 646000,-1557000 1319000,-3164000 2606000,-4325000 -1138000,-483000 -2011000,-1110000 -2617000,-1883000 -255000,252000 -509000,503000 -764000,755000 34000,552000 419000,966000 1154000,1244000 -311000,647000 -699000,1204000 -1164000,1668000 -571000,-220000 -1142000,-440000 -1713000,-661000 9000,-569000 338000,-940000 987000,-1114000 -724000,-171000 -1348000,-502000 -1874000,-993000 -7000,549000 -175000,998000 -502000,1349000 -520000,-322000 -1040000,-643000 -1560000,-964000 584000,-1320000 1465000,-1726000 2180000,-2401000 -859000,-309000 -2134000,-213000 -2993000,-523000 -341000,1447000 -544000,2759000 -1373000,3993000zm-2453000 4352000c2487000,1589000 4788000,3178000 6976000,5171000 555000,-486000 921000,-1033000 1099000,-1642000 -753000,-246000 -1300000,-731000 -1579000,-1406000 96000,-2388000 30000,-4507000 -2382000,-5623000 -1790000,-518000 -3155000,1140000 -4114000,3500000zm2346000 -484000c849000,591000 1698000,1181000 2547000,1771000 134000,-1006000 473000,-2090000 -731000,-3115000 -799000,-242000 -1398000,542000 -1816000,1344000zm-1692000 11774000c-1693000,-2416000 -3345000,-4531000 -5429000,-6632000 462000,-574000 992000,-964000 1593000,-1168000 278000,742000 751000,1151000 1437000,1401000 2383000,-198000 4318000,-550000 5536000,1812000 594000,1766000 -820000,3529000 -3137000,4587000zm-1697000 -9370000c2182000,1433000 4271000,3043000 6157000,5042000 811000,-316000 1219000,-816000 1224000,-1501000 -2286000,-1300000 -4368000,-2990000 -6358000,-4856000 -707000,184000 -966000,679000 -1023000,1315000zm2080000 7006000c-626000,-823000 -1252000,-1647000 -1878000,-2470000 1000000,-176000 1884000,-888000 2960000,271000 275000,787000 -298000,1747000 -1082000,2199000zm-5568000 5909000c-640000,-2375000 -1544000,-4211000 -2705000,-6379000 -646000,368000 -1068000,1252000 -1328000,2133000 -340000,-949000 -718000,-1875000 -1364000,-2644000 1571000,-745000 3268000,-1672000 4642000,-2761000 689000,804000 1173000,1651000 1862000,2454000 -877000,-216000 -1742000,-211000 -2579000,281000 1112000,2166000 2214000,3802000 3659000,5593000 -710000,774000 -1446000,1082000 -2187000,1323000zm-8102000 3018000l-1031000 -8701000c928000,-212000 1848000,-512000 2758000,-900000l4206000 7788000 -1696000 594000 -1185000 -2325000 -1758000 601000 508000 2463000 -1802000 480000zm949000 -4566000l1548000 -554000 -1368000 -2569000 -641000 264000 461000 2859000zm-7594000 -3458000c432000,3009000 308000,5703000 -372000,8084000 2198000,356000 4357000,625000 5339000,-1812000 625000,-2589000 -866000,-3422000 -3318000,-3458000 -111000,-465000 -25000,-931000 260000,-1398000 998000,-382000 1907000,-423000 2992000,542000 243000,-744000 289000,-1487000 136000,-2229000 -1765000,-298000 -3355000,14000 -5037000,271000zm1747000 4329000c-15000,951000 -148000,1863000 -401000,2735000 1427000,72000 2375000,-409000 2845000,-1442000 -223000,-1230000 -1274000,-1341000 -2444000,-1293000zm-4903000 4254000c1000,-1893000 -791000,-2552000 -2375000,-1976000 1118000,239000 1909000,898000 2375000,1976000zm-2596000 -2526000c1881000,-206000 2449000,-1065000 1704000,-2577000 -116000,1138000 -684000,1996000 -1704000,2577000zm2546000 -3008000c108000,1890000 936000,2502000 2485000,1836000 -1130000,-175000 -1958000,-786000 -2485000,-1836000z"/>
   <g>
    <path class="fil4" d="M741000 109230000l8000 -393000c4181000,1082000 6508000,5238000 6753000,9347000 -4340000,-869000 -6758000,-4465000 -6761000,-8954000zm14936000 -393000c90000,4489000 -2033000,8402000 -6753000,9347000 243000,-4085000 2533000,-8255000 6753000,-9347000zm-7676000 -20435000c-2178000,-3162000 -1908000,-6387000 -11000,-9633000 2364000,3112000 2861000,6482000 11000,9633000zm6063000 -3575000c494000,-252000 1077000,-485000 1613000,-624000 92000,4586000 -2097000,8414000 -6753000,9347000 210000,-3520000 1871000,-7052000 5140000,-8723000zm-13323000 -231000l8000 -393000c4181000,1082000 6508000,5238000 6753000,9347000 -4340000,-869000 -6758000,-4465000 -6761000,-8954000zm13323000 8443000c494000,-253000 1077000,-486000 1613000,-624000 90000,4488000 -2033000,8401000 -6753000,9346000 210000,-3520000 1871000,-7052000 5140000,-8722000zm-13323000 -232000l8000 -392000c4181000,1081000 6508000,5237000 6753000,9346000 -4340000,-869000 -6758000,-4465000 -6761000,-8954000zm14936000 7819000c18000,875000 -17000,1652000 -172000,2521000 -628000,3526000 -3080000,6124000 -6581000,6825000 243000,-4084000 2533000,-8254000 6753000,-9346000zm-14936000 393000l8000 -393000c4181000,1081000 6508000,5237000 6753000,9346000 -4340000,-869000 -6758000,-4465000 -6761000,-8953000z"/>
    <path id="1" class="fil1" d="M35000 109216000l8000 -393000 18000 -893000 865000 224000c2148000,555000 3842000,1852000 5058000,3535000 1334000,1847000 2088000,4159000 2224000,6453000l5000 84000 5000 -84000c136000,-2287000 883000,-4606000 2221000,-6458000 1211000,-1676000 2902000,-2972000 5061000,-3530000l866000 -224000 17000 893000c50000,2500000 -553000,4842000 -1868000,6662000 -1214000,1680000 -3018000,2906000 -5452000,3394000l-801000 160000 1000 20000 -50000 -10000 -49000 10000 1000 -20000 -801000 -160000c-2304000,-462000 -4112000,-1637000 -5361000,-3291000 -1287000,-1704000 -1967000,-3911000 -1968000,-6358000l0 -14000zm706000 14000l8000 -393000c4181000,1082000 6508000,5238000 6753000,9347000 -4340000,-869000 -6758000,-4465000 -6761000,-8954000zm14936000 -393000c90000,4489000 -2033000,8402000 -6753000,9347000 243000,-4085000 2533000,-8255000 6753000,-9347000zm-7676000 -20435000c-2178000,-3162000 -1908000,-6387000 -11000,-9633000 2364000,3112000 2861000,6482000 11000,9633000zm6063000 -3575000c494000,-252000 1077000,-485000 1613000,-624000 92000,4586000 -2097000,8414000 -6753000,9347000 210000,-3520000 1871000,-7052000 5140000,-8723000zm-13323000 -231000l8000 -393000c4181000,1082000 6508000,5238000 6753000,9347000 -4340000,-869000 -6758000,-4465000 -6761000,-8954000zm14936000 7819000c90000,4488000 -2033000,8401000 -6753000,9346000 210000,-3520000 1871000,-7052000 5140000,-8722000 494000,-253000 1077000,-486000 1613000,-624000zm-14936000 392000l8000 -392000c4181000,1081000 6508000,5237000 6753000,9346000 -4340000,-869000 -6758000,-4465000 -6761000,-8954000zm14936000 7819000c18000,875000 -17000,1652000 -172000,2521000 -628000,3526000 -3080000,6124000 -6581000,6825000 243000,-4084000 2533000,-8254000 6753000,-9346000zm-14936000 393000l8000 -393000c4181000,1081000 6508000,5237000 6753000,9346000 -4340000,-869000 -6758000,-4465000 -6761000,-8953000zm6678000 -12215000c-1177000,-1710000 -1693000,-3446000 -1657000,-5201000 34000,-1737000 610000,-3469000 1616000,-5191000l534000 -912000 640000 843000c1328000,1748000 2107000,3590000 2109000,5457000 2000,1721000 -652000,3434000 -2137000,5076000l-599000 662000 -506000 -734000zm6324000 -4605000c279000,-142000 579000,-278000 881000,-394000 291000,-113000 589000,-211000 876000,-285000l865000 -224000 18000 894000c51000,2532000 -561000,4858000 -1862000,6659000 -1222000,1692000 -3035000,2910000 -5458000,3396000l-801000 160000 1000 20000 -50000 -10000 -49000 10000 1000 -20000 -801000 -160000c-2304000,-462000 -4112000,-1637000 -5361000,-3291000 -1287000,-1704000 -1967000,-3911000 -1968000,-6358000l0 -14000 8000 -392000 18000 -894000 865000 224000c2148000,555000 3842000,1853000 5058000,3535000 1334000,1847000 2088000,4159000 2224000,6453000l5000 84000 5000 -84000c117000,-1954000 659000,-3916000 1651000,-5599000 909000,-1543000 2194000,-2852000 3874000,-3710000zm0 8211000c279000,-142000 579000,-277000 881000,-394000 291000,-113000 589000,-211000 876000,-285000l866000 -224000 17000 894000c50000,2499000 -553000,4841000 -1868000,6661000 -1214000,1681000 -3018000,2906000 -5452000,3394000l-801000 160000 1000 20000 -50000 -10000 -49000 10000 1000 -20000 -801000 -160000c-2304000,-461000 -4112000,-1637000 -5361000,-3290000 -1287000,-1705000 -1967000,-3912000 -1968000,-6359000l0 -14000 8000 -392000 18000 -894000 865000 224000c2148000,555000 3842000,1853000 5058000,3536000 1334000,1846000 2088000,4159000 2224000,6453000l5000 84000 5000 -84000c117000,-1954000 659000,-3916000 1651000,-5600000 909000,-1543000 2194000,-2851000 3874000,-3710000zm2640000 8202000c10000,465000 5000,899000 -21000,1321000 -28000,442000 -78000,880000 -159000,1336000 -341000,1912000 -1182000,3575000 -2418000,4857000 -1227000,1273000 -2837000,2164000 -4722000,2541000l-801000 161000 1000 19000 -50000 -10000 -49000 10000 1000 -19000 -801000 -161000c-2304000,-461000 -4112000,-1636000 -5361000,-3290000 -1287000,-1704000 -1967000,-3911000 -1968000,-6358000l0 -14000 8000 -393000 18000 -894000 865000 224000c2148000,556000 3842000,1853000 5058000,3536000 1334000,1846000 2088000,4159000 2224000,6453000l5000 84000 5000 -84000c136000,-2288000 883000,-4606000 2221000,-6458000 1211000,-1676000 2902000,-2972000 5061000,-3531000l865000 -224000 18000 894000z"/>
   </g>
   <g>
    <path class="fil4" d="M109209000 82834000c132000,628000 183000,1374000 -208000,1929000 -397000,563000 -1084000,685000 -1724000,540000 -424000,-96000 -1116000,-112000 -1361000,338000 -175000,320000 -84000,785000 28000,1109000 347000,1007000 1239000,1782000 1577000,2913000 665000,2224000 -1541000,2702000 -1671000,3278000 -295000,1318000 2587000,3391000 1060000,6762000 -455000,991000 -1682000,1978000 -978000,2968000 808000,1067000 1701000,2212000 2571000,3227000 978000,1161000 975000,2305000 -32000,3471000 -776000,899000 -1385000,1446000 -152000,2319000 4317000,3446000 2839000,6264000 4216000,6264000 1377000,0 101000,-2818000 4216000,-6264000 2088000,-1479000 -1176000,-2085000 -898000,-4331000 74000,-594000 402000,-1096000 784000,-1541000 813000,-933000 1507000,-1997000 2348000,-2943000 990000,-1143000 -286000,-1995000 -826000,-3170000 -801000,-1746000 -435000,-3300000 440000,-4916000 238000,-439000 885000,-1514000 544000,-2028000 -114000,-172000 -679000,-436000 -951000,-706000 -576000,-572000 -862000,-1274000 -716000,-2087000 178000,-995000 894000,-1775000 1349000,-2567000 351000,-612000 833000,-1864000 -181000,-2109000 -270000,-65000 -581000,-50000 -852000,13000 -886000,200000 -1710000,-132000 -1957000,-1051000 -153000,-567000 -42000,-1246000 126000,-1794000 350000,-1138000 284000,-1270000 -981000,-1171000 -1032000,82000 -1828000,-518000 -2056000,-1541000 -97000,-436000 -152000,-1045000 -389000,-1468000 -282000,502000 -302000,1251000 -459000,1722000 -299000,889000 -1057000,1353000 -1987000,1287000 -1106000,-86000 -1367000,-42000 -1017000,1057000 59000,187000 91000,298000 137000,490000z"/>
    <path id="1" class="fil1" d="M112535000 78278000c-282000,502000 -302000,1251000 -459000,1722000 -299000,889000 -1057000,1353000 -1987000,1287000 -1106000,-86000 -1367000,-42000 -1017000,1057000 59000,187000 91000,298000 137000,490000 132000,628000 183000,1374000 -208000,1929000 -397000,563000 -1084000,685000 -1724000,540000 -424000,-96000 -1116000,-112000 -1361000,338000 -175000,320000 -84000,785000 28000,1109000 347000,1007000 1239000,1782000 1577000,2913000 665000,2224000 -1541000,2702000 -1671000,3278000 -295000,1318000 2587000,3391000 1060000,6762000 -455000,991000 -1682000,1978000 -978000,2968000 808000,1067000 1701000,2212000 2571000,3227000 978000,1161000 975000,2305000 -32000,3471000 -776000,899000 -1385000,1446000 -152000,2319000 4317000,3446000 2839000,6264000 4216000,6264000 1377000,0 101000,-2818000 4216000,-6264000 2088000,-1479000 -1176000,-2085000 -898000,-4331000 74000,-594000 402000,-1096000 784000,-1541000 813000,-933000 1507000,-1997000 2348000,-2943000 990000,-1143000 -286000,-1995000 -826000,-3170000 -801000,-1746000 -435000,-3300000 440000,-4916000 238000,-439000 885000,-1514000 544000,-2028000 -114000,-172000 -679000,-436000 -951000,-706000 -576000,-572000 -862000,-1274000 -716000,-2087000 178000,-995000 894000,-1775000 1349000,-2567000 351000,-612000 833000,-1864000 -181000,-2109000 -270000,-65000 -581000,-50000 -852000,13000 -886000,200000 -1710000,-132000 -1957000,-1051000 -153000,-567000 -42000,-1246000 126000,-1794000 350000,-1138000 284000,-1270000 -981000,-1171000 -1032000,82000 -1828000,-518000 -2056000,-1541000 -97000,-436000 -152000,-1045000 -389000,-1468000zm-3940000 5509000c16000,-264000 -23000,-547000 -78000,-809000l0 0c-15000,-65000 -32000,-128000 -53000,-203000 -23000,-83000 -43000,-149000 -65000,-218000 -274000,-859000 -249000,-1358000 176000,-1723000 361000,-311000 833000,-310000 1570000,-253000l0 1000c313000,21000 588000,-42000 800000,-180000 205000,-133000 366000,-344000 461000,-627000 45000,-134000 80000,-327000 117000,-529000 79000,-435000 165000,-905000 394000,-1314000l618000 -1098000 617000 1098000c233000,414000 320000,898000 397000,1329000 22000,120000 43000,236000 64000,333000 77000,341000 239000,606000 462000,773000 218000,163000 510000,241000 850000,214000 882000,-69000 1375000,-22000 1702000,385000 336000,417000 257000,894000 10000,1700000 -78000,252000 -141000,537000 -161000,819000 -14000,207000 -5000,409000 42000,584000 64000,239000 191000,399000 352000,485000 200000,108000 469000,126000 762000,61000l0 -1000c182000,-43000 385000,-68000 592000,-72000l3000 0c196000,-3000 394000,16000 583000,62000 163000,39000 309000,98000 438000,172000l1000 -2000c387000,222000 593000,554000 674000,939000 64000,306000 37000,633000 -39000,948000 -98000,406000 -285000,807000 -448000,1090000 -145000,254000 -299000,483000 -455000,716000 -347000,517000 -709000,1057000 -811000,1624000 -48000,268000 -26000,519000 53000,750000 87000,255000 248000,493000 467000,711000 84000,83000 257000,194000 413000,293000 259000,166000 492000,315000 630000,523000 550000,831000 -109000,2024000 -450000,2643000l-64000 117000 0 0c-397000,733000 -677000,1444000 -766000,2154000 -85000,685000 8000,1386000 349000,2128000 124000,270000 316000,549000 499000,816000 680000,989000 1288000,1874000 218000,3109000l-5000 8000c-441000,496000 -821000,996000 -1198000,1493000 -374000,494000 -747000,985000 -1143000,1439000l1000 1000c-164000,191000 -314000,389000 -424000,592000 -98000,179000 -168000,370000 -194000,575000 -86000,697000 389000,1245000 791000,1710000 157000,181000 306000,352000 434000,533000l0 3000c592000,835000 736000,1599000 -587000,2551000 -2297000,1928000 -2785000,3641000 -3087000,4701000 -307000,1080000 -489000,1720000 -1572000,1720000 -1084000,0 -1240000,-622000 -1503000,-1676000l-1000 0c-262000,-1048000 -694000,-2780000 -3150000,-4741000 -1313000,-942000 -1209000,-1681000 -586000,-2561000l0 -3000c141000,-198000 313000,-395000 500000,-610000l0 0 142000 -163000c390000,-452000 585000,-877000 588000,-1278000 3000,-403000 -184000,-826000 -558000,-1272000l-1000 1000c-426000,-497000 -875000,-1047000 -1325000,-1616000 -477000,-602000 -898000,-1148000 -1274000,-1644000l-11000 -17000c-788000,-1108000 -168000,-2017000 453000,-2927000 178000,-259000 355000,-520000 457000,-741000l-1000 -1000c846000,-1867000 82000,-3330000 -497000,-4439000 -421000,-805000 -768000,-1469000 -607000,-2187000l1000 0c97000,-431000 413000,-662000 804000,-950000 488000,-358000 1202000,-883000 877000,-1971000 -150000,-502000 -455000,-956000 -752000,-1398000 -313000,-468000 -620000,-925000 -815000,-1487000 -82000,-239000 -156000,-542000 -164000,-846000 -6000,-284000 42000,-571000 184000,-831000 213000,-391000 563000,-603000 952000,-700000 404000,-100000 857000,-63000 1184000,11000 223000,50000 449000,54000 641000,-6000 137000,-43000 260000,-124000 350000,-252000 111000,-157000 160000,-357000 172000,-569000z"/>
   </g>
   <path class="fil1" d="M112451000 81500000c-117000,2955000 -197000,5901000 -242000,8838000l-2950000 -2873000 2937000 3806000c-32000,2505000 -39000,5005000 -21000,7498000l-3830000 -4156000 3839000 5166000c22000,2232000 63000,4459000 123000,6682000l-3697000 -3615000 3725000 4589000c76000,2585000 175000,5119000 301000,7699000 8000,-309000 194000,-1534000 204000,-2046000l2649000 -2857000 -2677000 2045000c35000,-1645000 -46000,-3224000 -25000,-4869000l4463000 -4218000 -4453000 3360000c24000,-2289000 34000,-4579000 29000,-6869000l4210000 -4899000 -4213000 3970000c-10000,-2446000 -38000,-4892000 -84000,-7338000 87000,-70000 3806000,-3909000 4222000,-4337000l-4239000 3476000c-62000,-3018000 -152000,-6035000 -271000,-9052000z"/>
  </g>
 </g>
</svg>
