<?xml version="1.0" encoding="UTF-8"?>
<svg xmlns="http://www.w3.org/2000/svg" xmlns:xlink="http://www.w3.org/1999/xlink" width="120pt" height="150pt" viewBox="0 0 120 150" version="1.1">
<g id="surface1">
<path style=" stroke:none;fill-rule:evenodd;fill:rgb(100%,100%,100%);fill-opacity:1;" d="M 59.996094 149.988281 C 59.480469 142.675781 53.386719 136.914062 45.992188 136.914062 L 11.996094 136.914062 C 5.71875 136.914062 0.550781 132.039062 0.0429688 125.84375 L 0.0429688 0.0546875 L 119.957031 0.0546875 L 119.957031 125.84375 C 119.449219 132.039062 114.28125 136.914062 108.003906 136.914062 L 74 136.914062 C 66.605469 136.914062 60.511719 142.683594 59.996094 149.988281 Z M 59.996094 149.988281 "/>
<path style=" stroke:none;fill-rule:evenodd;fill:rgb(0%,0%,0%);fill-opacity:1;" d="M 59.996094 149.988281 C 59.480469 142.675781 53.386719 136.914062 45.992188 136.914062 L 11.996094 136.914062 C 5.71875 136.914062 0.550781 132.039062 0.0429688 125.84375 L 0.0429688 0.0546875 L 119.957031 0.0546875 L 119.957031 125.84375 C 119.449219 132.039062 114.28125 136.914062 108.003906 136.914062 L 74 136.914062 C 66.605469 136.914062 60.511719 142.683594 59.996094 149.988281 Z M 55.890625 140.324219 C 57.820312 142.125 59.269531 144.453125 59.996094 147.070312 C 60.722656 144.445312 62.171875 142.125 64.097656 140.324219 C 66.695312 137.894531 70.183594 136.414062 74 136.414062 L 108.003906 136.414062 C 110.996094 136.414062 113.730469 135.253906 115.777344 133.359375 C 117.84375 131.453125 119.203125 128.796875 119.457031 125.824219 L 119.457031 0.542969 L 0.53125 0.554688 L 0.53125 125.824219 C 0.785156 128.796875 2.148438 131.453125 4.214844 133.359375 C 6.261719 135.253906 8.992188 136.414062 11.988281 136.414062 L 45.992188 136.414062 C 49.808594 136.414062 53.292969 137.894531 55.890625 140.324219 Z M 55.890625 140.324219 "/>
<path style=" stroke:none;fill-rule:nonzero;fill:rgb(0%,0%,0%);fill-opacity:1;" d="M 60.039062 149.988281 L 59.953125 149.988281 C 59.4375 142.675781 53.304688 136.953125 45.992188 136.953125 L 11.996094 136.953125 C 8.960938 136.953125 6.058594 135.8125 3.824219 133.730469 C 1.609375 131.664062 0.246094 128.863281 0 125.84375 L 0 0.0117188 L 120 0.0117188 L 120 125.84375 C 119.753906 128.863281 118.390625 131.664062 116.175781 133.730469 C 113.941406 135.8125 111.039062 136.953125 108.003906 136.953125 L 74 136.953125 C 66.6875 136.953125 60.554688 142.683594 60.039062 149.988281 Z M 0.0859375 0.0976562 L 0.0859375 125.84375 C 0.59375 132.019531 5.820312 136.871094 11.996094 136.871094 L 45.992188 136.871094 C 49.570312 136.871094 52.980469 138.222656 55.605469 140.679688 C 58.09375 143.015625 59.640625 146.128906 59.996094 149.507812 C 60.742188 142.378906 66.808594 136.871094 74 136.871094 L 108.003906 136.871094 C 114.179688 136.871094 119.40625 132.019531 119.914062 125.84375 L 119.914062 0.0976562 Z M 59.996094 147.230469 L 59.953125 147.085938 C 59.242188 144.519531 57.820312 142.195312 55.859375 140.355469 C 53.167969 137.84375 49.664062 136.457031 45.984375 136.457031 L 11.988281 136.457031 C 9.09375 136.457031 6.320312 135.363281 4.1875 133.390625 C 2.054688 131.421875 0.746094 128.738281 0.492188 125.835938 L 0.492188 0.511719 L 0.53125 0.511719 L 119.5 0.503906 L 119.5 125.824219 C 119.253906 128.738281 117.945312 131.421875 115.804688 133.390625 C 113.671875 135.371094 110.894531 136.457031 108.003906 136.457031 L 74 136.457031 C 70.316406 136.457031 66.816406 137.84375 64.125 140.355469 C 62.160156 142.195312 60.742188 144.519531 60.03125 147.085938 Z M 55.917969 140.289062 C 57.855469 142.101562 59.257812 144.386719 59.996094 146.90625 C 60.722656 144.386719 62.128906 142.101562 64.074219 140.289062 C 66.78125 137.757812 70.300781 136.371094 74 136.371094 L 108.003906 136.371094 C 110.878906 136.371094 113.628906 135.289062 115.753906 133.324219 C 117.867188 131.371094 119.171875 128.703125 119.417969 125.816406 L 119.417969 0.578125 L 0.574219 0.59375 L 0.574219 125.824219 C 0.820312 128.710938 2.125 131.371094 4.238281 133.324219 C 6.363281 135.289062 9.113281 136.371094 11.988281 136.371094 L 45.992188 136.371094 C 49.691406 136.371094 53.21875 137.765625 55.917969 140.289062 Z M 55.917969 140.289062 "/>
<path style="fill-rule:evenodd;fill:rgb(0%,0%,0%);fill-opacity:1;stroke-width:0.9167;stroke-linecap:butt;stroke-linejoin:miter;stroke:rgb(0%,0%,0%);stroke-opacity:1;stroke-miterlimit:3.3333;" d="M 385.415638 208.301225 C 385.415638 208.301225 448.989827 197.500816 463.994629 199.716284 C 463.994629 199.716284 481.215524 164.084164 535.094303 165.191898 C 599.684202 166.299633 621.291117 228.79431 640.681937 248.17966 C 659.010879 267.611166 721.477021 311.782072 735.512282 323.597905 C 748.393327 335.506048 807.720003 387.200316 820.601048 394.677523 C 832.512552 403.308619 855.089007 417.293765 872.309902 424.909438 C 926.188682 448.587259 1031.822484 472.311236 1031.822484 472.311236 L 984.407311 500.281527 C 955.321081 490.588852 830.296458 465.803297 815.291657 466.911031 C 801.302565 469.080344 773.278213 477.71144 764.69085 478.819175 C 764.69085 478.819175 673.092308 483.111645 640.820443 479.880753 C 593.40527 476.696017 557.809264 435.709848 538.418444 409.90887 C 512.517848 374.322905 489.895225 271.995948 485.601543 261.195539 C 475.906133 205.116489 385.415638 208.301225 385.415638 208.301225 Z M 385.415638 208.301225 " transform="matrix(0.0846083,0,0,0.0846322,0,0.0116325)"/>
<path style="fill-rule:evenodd;fill:rgb(0%,0%,0%);fill-opacity:1;stroke-width:0.9167;stroke-linecap:butt;stroke-linejoin:miter;stroke:rgb(0%,0%,0%);stroke-opacity:1;stroke-miterlimit:3.3333;" d="M 460.808994 225.517263 C 430.614717 206.085757 385.415638 208.301225 385.415638 208.301225 C 385.415638 208.301225 448.989827 197.500816 463.994629 199.716284 L 482.277402 219.101635 Z M 460.808994 225.517263 " transform="matrix(0.0846083,0,0,0.0846322,0,0.0116325)"/>
<path style="fill-rule:evenodd;fill:rgb(99.607843%,99.607843%,99.607843%);fill-opacity:1;stroke-width:0.9167;stroke-linecap:butt;stroke-linejoin:miter;stroke:rgb(0%,0%,0%);stroke-opacity:1;stroke-miterlimit:3.3333;" d="M 521.105212 375.292172 C 502.822438 331.121267 488.787178 268.580434 485.509206 261.103227 C 483.293112 247.118082 475.813796 237.379251 466.118385 229.902044 L 461.778535 226.717308 L 482.277402 219.193946 L 542.619788 237.517718 L 536.110013 241.810188 L 575.999701 263.318696 L 560.902562 270.795903 L 586.803158 299.920084 L 562.010609 328.998109 L 556.60888 374.322905 L 544.697376 366.799543 L 540.403695 386.184893 L 523.182799 369.984279 Z M 521.105212 375.292172 " transform="matrix(0.0846083,0,0,0.0846322,0,0.0116325)"/>
<path style="fill-rule:evenodd;fill:rgb(73.333333%,20.784314%,19.607843%);fill-opacity:1;stroke-width:0.9167;stroke-linecap:butt;stroke-linejoin:miter;stroke:rgb(0%,0%,0%);stroke-opacity:1;stroke-miterlimit:3.3333;" d="M 572.814066 448.587259 C 558.778805 435.709848 546.91347 421.678547 538.279938 409.816558 C 532.87821 402.293196 527.52265 392.600521 523.182799 380.692377 L 521.012874 375.292172 L 523.182799 369.891968 L 540.403695 386.092582 L 544.697376 366.707232 L 556.60888 374.184438 L 560.902562 340.813942 L 578.077288 339.706208 L 585.602773 351.614352 L 592.112549 407.60109 L 578.077288 401.093151 L 580.293382 423.709393 L 566.30429 418.309188 Z M 572.814066 448.587259 " transform="matrix(0.0846083,0,0,0.0846322,0,0.0116325)"/>
<path style="fill-rule:evenodd;fill:rgb(73.333333%,20.784314%,19.607843%);fill-opacity:1;stroke-width:0.9167;stroke-linecap:butt;stroke-linejoin:miter;stroke:rgb(0%,0%,0%);stroke-opacity:1;stroke-miterlimit:3.3333;" d="M 707.48793 479.788442 C 707.48793 479.788442 725.816872 494.881322 725.816872 498.112214 C 725.816872 501.29695 672.999971 590.792651 672.999971 590.792651 C 672.999971 590.792651 641.789984 584.284712 635.280208 585.392446 C 627.800892 586.500181 619.121191 596.192856 619.121191 596.192856 C 619.121191 596.192856 624.52292 593.977387 628.816602 593.977387 C 634.21833 592.915809 665.382148 593.977387 666.490195 596.192856 C 668.706289 597.30059 666.490195 599.377592 663.304561 599.377592 C 661.088467 599.377592 627.708555 596.192856 624.52292 597.208279 C 620.18307 598.316013 618.013145 603.716218 618.013145 603.716218 L 615.797051 606.900954 C 615.797051 606.900954 624.384414 603.716218 626.600508 602.608484 C 628.816602 602.608484 642.805693 602.608484 642.805693 602.608484 L 676.185605 602.608484 C 676.185605 602.608484 694.514548 602.608484 698.808229 602.608484 C 703.101911 601.500749 713.905368 598.316013 715.013415 599.377592 C 721.477021 601.593061 720.415143 608.008688 720.415143 608.008688 C 720.415143 608.008688 723.600778 602.608484 723.600778 600.485326 C 723.600778 599.377592 725.816872 597.30059 723.600778 593.977387 C 721.384684 591.808074 717.091003 590.792651 713.905368 590.792651 C 711.689274 590.792651 686.989063 590.792651 686.989063 590.792651 C 686.989063 590.792651 720.415143 522.897769 723.600778 516.482141 C 726.786413 510.020358 742.991598 497.096791 742.991598 493.912055 C 741.883551 490.681163 737.58987 489.619584 736.481823 487.404116 C 735.419945 486.296381 731.080094 479.880753 731.080094 479.880753 L 707.48793 479.880753 Z M 707.48793 479.788442 " transform="matrix(0.0846083,0,0,0.0846322,0,0.0116325)"/>
<path style="fill-rule:evenodd;fill:rgb(73.333333%,20.784314%,19.607843%);fill-opacity:1;stroke-width:0.9167;stroke-linecap:butt;stroke-linejoin:miter;stroke:rgb(0%,0%,0%);stroke-opacity:1;stroke-miterlimit:3.3333;" d="M 640.681937 479.788442 C 640.681937 479.788442 659.010879 499.219948 660.118926 505.681732 C 657.902832 519.713033 609.518118 593.00812 603.008343 595.085122 C 597.606615 596.192856 545.89776 586.500181 539.387985 589.684917 C 532.87821 592.915809 530.800622 599.377592 530.800622 599.377592 C 530.800622 599.377592 537.310397 595.085122 542.712126 592.915809 C 549.221901 591.808074 601.992633 596.100545 601.992633 598.316013 C 601.992633 599.377592 557.809264 598.316013 545.990098 600.485326 C 535.186641 603.716218 535.186641 615.578206 535.186641 615.578206 C 535.186641 615.578206 538.418444 609.116423 547.098145 604.777797 C 554.577461 601.593061 599.915046 604.777797 601.992633 604.777797 C 605.178268 605.885531 625.677135 604.777797 647.284049 618.809098 L 649.500143 617.701364 C 649.500143 617.701364 639.804733 609.116423 633.294958 604.777797 C 625.815641 601.593061 613.904137 600.485326 613.904137 600.485326 C 613.904137 600.485326 658.087507 525.113238 661.31931 518.605299 C 665.612992 513.205094 676.416449 504.620153 676.416449 500.281527 C 676.416449 497.096791 666.721038 482.003911 666.721038 482.003911 Z M 640.681937 479.788442 " transform="matrix(0.0846083,0,0,0.0846322,0,0.0116325)"/>
<path style="fill-rule:evenodd;fill:rgb(73.333333%,20.784314%,19.607843%);fill-opacity:1;stroke-width:0.9167;stroke-linecap:butt;stroke-linejoin:miter;stroke:rgb(0%,0%,0%);stroke-opacity:1;stroke-miterlimit:3.3333;" d="M 664.412607 268.580434 C 654.717197 261.103227 646.083665 253.487554 640.681937 248.087349 C 621.291117 228.701999 599.822708 166.207322 535.094303 165.099587 C 481.215524 163.991853 463.994629 199.577818 463.994629 199.577818 L 465.102676 200.685552 L 481.307861 219.009324 L 482.415908 219.009324 L 542.712126 237.28694 L 536.20235 241.57941 L 576.092038 263.087918 L 560.994899 270.61128 L 586.895495 299.689306 L 566.396628 324.521017 Z M 664.412607 268.580434 " transform="matrix(0.0846083,0,0,0.0846322,0,0.0116325)"/>
<path style="fill-rule:evenodd;fill:rgb(0%,0%,0%);fill-opacity:1;stroke-width:1.6667;stroke-linecap:butt;stroke-linejoin:miter;stroke:rgb(96.862745%,65.490196%,2.745098%);stroke-opacity:1;stroke-miterlimit:3.3333;" d="M 626.692845 273.011371 C 622.399163 273.011371 625.584798 281.596312 613.8118 288.104251 C 605.178268 293.504456 591.189176 286.996517 577.200085 292.396722 C 571.798356 293.504456 566.396628 296.689192 562.102946 303.197131 C 543.820173 326.921108 555.593171 343.121722 569.582262 358.122291 C 661.180804 453.987464 849.687279 504.620153 849.687279 504.620153 C 849.687279 504.620153 720.415143 345.106412 706.379883 337.58305 C 632.094574 301.997086 629.87848 273.011371 626.692845 273.011371 Z M 626.692845 273.011371 " transform="matrix(0.0846083,0,0,0.0846322,0,0.0116325)"/>
<path style="fill:none;stroke-width:0.9167;stroke-linecap:butt;stroke-linejoin:miter;stroke:rgb(0%,0%,0%);stroke-opacity:1;stroke-miterlimit:3.3333;" d="M 466.210723 197.500816 C 466.210723 196.393082 467.31877 195.285347 468.380648 194.31608 " transform="matrix(0.0846083,0,0,0.0846322,0,0.0116325)"/>
<path style="fill:none;stroke-width:2.5;stroke-linecap:round;stroke-linejoin:miter;stroke:rgb(96.862745%,65.490196%,2.745098%);stroke-opacity:1;stroke-miterlimit:3.3333;" d="M 585.787448 187.808141 L 592.297223 194.31608 M 583.617523 196.485393 L 592.204886 201.885597 M 600.792249 204.008755 L 608.317734 214.809164 M 598.714661 213.70143 L 604.11639 220.209369 M 585.787448 209.40896 L 593.312933 216.886166 M 596.498568 224.50184 L 603.008343 234.194515 M 607.302025 228.79431 L 613.8118 239.59472 M 611.595706 220.209369 L 616.997435 227.686576 M 621.291117 236.317672 L 628.816602 246.010347 M 618.105482 248.17966 L 623.50721 255.703023 M 611.595706 253.579865 L 616.997435 262.210962 M 603.008343 239.59472 L 610.48766 248.17966 " transform="matrix(0.0846083,0,0,0.0846322,0,0.0116325)"/>
<path style="fill:none;stroke-width:1.6667;stroke-linecap:butt;stroke-linejoin:miter;stroke:rgb(96.862745%,65.490196%,2.745098%);stroke-opacity:1;stroke-miterlimit:3.3333;" d="M 578.215794 295.581458 C 578.215794 295.581458 585.695111 307.489602 582.509476 309.612759 C 579.277673 312.797495 569.582262 306.381867 569.582262 306.381867 C 569.582262 306.381867 578.215794 319.305434 576.092038 320.413169 C 573.922113 322.582482 564.180534 316.120698 564.180534 316.120698 C 564.180534 316.120698 573.922113 328.998109 569.582262 334.398314 C 566.396628 340.906253 553.377077 326.921108 553.377077 326.921108 M 595.390521 292.30441 C 595.390521 292.30441 608.317734 307.39729 605.085931 310.582027 C 601.900296 313.812918 592.204886 305.181822 592.204886 305.181822 C 592.204886 305.181822 603.008343 321.382436 599.684202 325.721062 C 595.390521 330.013533 585.695111 321.382436 585.695111 321.382436 C 585.695111 321.382436 596.498568 340.813942 595.390521 343.998678 C 593.220596 347.183414 581.401429 339.706208 581.401429 339.706208 C 581.401429 339.706208 592.204886 357.983824 588.880745 362.32245 C 585.695111 366.61492 568.381878 350.414306 568.381878 350.414306 M 625.584798 281.596312 C 625.584798 281.596312 637.496302 298.81235 635.280208 304.212554 C 633.110283 309.612759 621.291117 298.81235 621.291117 298.81235 C 621.291117 298.81235 636.388255 315.982231 634.21833 322.49017 C 632.002236 328.998109 615.889388 315.012964 615.889388 315.012964 C 615.889388 315.012964 633.110283 333.29058 629.87848 338.690785 C 626.692845 344.090989 609.379613 325.813373 609.379613 325.813373 C 609.379613 325.813373 628.816602 350.598928 625.584798 354.891399 C 622.399163 358.122291 607.302025 344.090989 607.302025 344.090989 C 607.302025 344.090989 621.291117 365.599497 616.997435 368.9227 C 612.703753 372.107436 596.498568 358.122291 596.498568 358.122291 C 596.498568 358.122291 614.781341 380.692377 611.595706 384.984848 C 608.410072 389.277318 585.695111 369.891968 585.695111 369.891968 M 636.388255 367.814966 C 636.388255 367.814966 649.315469 395.785257 621.291117 384.984848 M 659.010879 370.999702 C 659.010879 370.999702 672.999971 404.416354 641.789984 391.492787 M 679.509746 382.815535 C 679.509746 382.815535 688.097109 416.186031 664.412607 396.80068 M 682.695381 337.58305 C 721.477021 370.999702 716.121462 354.799088 716.121462 354.799088 C 716.121462 354.799088 734.404235 391.400475 717.18334 387.108005 C 725.816872 414.016718 707.48793 405.385621 707.48793 405.385621 C 707.48793 405.385621 719.399434 430.217332 696.684473 424.817127 C 693.498838 444.202478 677.293652 434.509802 677.293652 434.509802 M 718.291387 354.799088 L 718.291387 347.321881 M 695.622594 370.999702 C 697.79252 377.507641 715.013415 386.092582 717.091003 387.200316 C 720.322806 388.308051 724.616488 386.092582 724.616488 386.092582 C 724.616488 386.092582 762.290081 426.017173 786.020752 428.094174 M 688.097109 393.615944 C 693.498838 399.016149 707.48793 405.477932 707.48793 405.477932 C 707.48793 405.477932 715.013415 405.477932 717.18334 405.477932 C 720.415143 405.477932 720.415143 401.185462 720.415143 401.185462 C 720.415143 401.185462 798.994134 462.61856 813.121732 461.510826 M 708.595977 411.89356 C 744.191982 447.479525 829.280749 485.188647 829.280749 485.188647 M 670.922383 407.60109 C 707.48793 439.910007 814.18361 493.819743 814.18361 493.819743 " transform="matrix(0.0846083,0,0,0.0846322,0,0.0116325)"/>
<path style="fill:none;stroke-width:1.6667;stroke-linecap:round;stroke-linejoin:round;stroke:rgb(96.862745%,65.490196%,2.745098%);stroke-opacity:1;stroke-miterlimit:3.3333;" d="M 642.898031 254.595288 L 650.377347 270.795903 L 636.388255 261.103227 M 638.512012 268.580434 L 641.697646 282.611735 L 628.816602 272.91906 M 659.010879 285.888783 L 663.304561 298.81235 L 650.377347 290.181253 M 662.196514 270.795903 L 666.490195 283.71947 L 653.60915 275.088373 M 676.277943 301.997086 L 680.617793 314.920653 L 667.690579 306.289556 M 681.587334 285.888783 L 684.819137 299.920084 L 671.891924 291.288987 M 696.684473 313.905229 L 700.978154 327.890375 L 688.097109 319.305434 M 703.194248 300.981663 L 706.379883 315.012964 L 693.498838 306.381867 M 716.121462 327.890375 L 720.415143 341.921676 L 707.48793 333.29058 M 723.693115 315.982231 L 726.87875 328.905798 L 713.997705 320.320857 M 734.404235 345.106412 L 738.697917 359.091558 L 725.816872 349.398883 M 743.083936 333.29058 L 746.315739 346.214147 L 733.388525 337.58305 M 750.609421 362.414761 L 753.795055 375.292172 L 740.91401 366.707232 M 760.304831 349.398883 L 764.598512 362.32245 L 751.717467 353.691353 M 768.892194 375.292172 L 773.185876 388.215739 L 760.304831 379.584643 M 779.695651 364.491763 L 783.989333 378.523064 L 771.108288 369.891968 M 785.09738 392.50821 L 789.391061 405.385621 L 776.510016 396.80068 M 796.916546 379.584643 L 800.102181 393.615944 L 787.221136 384.984848 M 797.978424 410.878137 L 801.210228 424.909438 L 788.283014 416.278342 M 808.781882 393.615944 L 813.121732 407.60109 L 800.194518 399.016149 M 813.121732 432.386645 L 817.415413 446.417946 L 804.4882 437.78685 M 824.89473 422.69397 L 828.080365 436.679115 L 815.19932 428.094174 M 833.620599 413.001295 L 836.806234 425.878706 L 823.87902 417.293765 M 838.883822 441.017741 L 842.115625 455.002887 L 829.188411 446.417946 M 846.501644 430.217332 L 849.687279 444.202478 L 836.806234 435.617537 M 856.197054 421.586235 L 859.382689 434.509802 L 846.501644 425.878706 M 858.320811 451.818151 C 945.579502 485.188647 1004.813841 487.404116 1004.813841 487.404116 M 613.8118 415.216763 L 628.908939 426.017173 M 609.518118 423.801704 L 622.399163 434.602114 M 604.11639 435.617537 L 615.981725 444.202478 M 595.390521 442.07932 L 612.611416 451.818151 M 642.898031 438.894584 L 659.103216 446.417946 M 638.512012 448.587259 L 655.686738 455.095198 M 632.094574 456.110621 L 648.299759 461.510826 M 675.216064 455.002887 L 690.313203 456.110621 M 669.814336 462.61856 L 684.911475 463.680139 " transform="matrix(0.0846083,0,0,0.0846322,0,0.0116325)"/>
<path style="fill-rule:evenodd;fill:rgb(96.862745%,65.490196%,2.745098%);fill-opacity:1;stroke-width:1.9167;stroke-linecap:round;stroke-linejoin:round;stroke:rgb(0%,0%,0%);stroke-opacity:1;stroke-miterlimit:3.3333;" d="M 523.321305 195.377658 C 521.105212 194.31608 518.981455 193.208345 516.81153 193.208345 C 511.409801 193.208345 507.11612 197.500816 507.11612 202.901021 C 507.11612 202.901021 497.42071 202.901021 493.080859 208.301225 C 498.482588 207.193491 508.177998 207.193491 508.177998 207.193491 C 510.394092 210.378227 513.579727 212.593696 516.81153 212.593696 C 519.997165 212.593696 523.321305 210.378227 524.290846 207.193491 C 524.290846 207.193491 545.805423 199.716284 575.999701 209.40896 C 564.180534 197.500816 523.321305 195.377658 523.321305 195.377658 Z M 523.321305 195.377658 " transform="matrix(0.0846083,0,0,0.0846322,0,0.0116325)"/>
<path style="fill:none;stroke-width:1.9167;stroke-linecap:butt;stroke-linejoin:miter;stroke:rgb(0%,0%,0%);stroke-opacity:1;stroke-miterlimit:3.3333;" d="M 526.50694 202.901021 C 526.50694 208.301225 522.213258 212.593696 516.81153 212.593696 C 511.409801 212.593696 507.11612 208.301225 507.11612 202.901021 C 507.11612 202.901021 507.11612 201.793286 508.177998 201.793286 C 508.177998 197.500816 512.517848 193.208345 516.81153 193.208345 C 522.213258 193.208345 526.50694 197.500816 526.50694 202.901021 Z M 526.50694 202.901021 " transform="matrix(0.0846083,0,0,0.0846322,0,0.0116325)"/>
<path style="fill-rule:evenodd;fill:rgb(0%,0%,0%);fill-opacity:1;stroke-width:1.9167;stroke-linecap:round;stroke-linejoin:round;stroke:rgb(0%,0%,0%);stroke-opacity:1;stroke-miterlimit:3.3333;" d="M 518.981455 201.793286 C 518.981455 204.008755 517.919577 204.978022 515.79582 204.978022 C 514.687773 204.978022 512.610186 203.916444 512.610186 201.793286 C 512.610186 200.685552 514.780111 198.60855 515.79582 198.60855 C 517.919577 198.60855 518.981455 200.777863 518.981455 201.793286 Z M 518.981455 201.793286 " transform="matrix(0.0846083,0,0,0.0846322,0,0.0116325)"/>
<path style="fill-rule:nonzero;fill:rgb(0%,59.607843%,32.54902%);fill-opacity:1;stroke-width:3.25;stroke-linecap:butt;stroke-linejoin:miter;stroke:rgb(0%,0%,0%);stroke-opacity:1;stroke-miterlimit:3.3333;" d="M 171.701097 611.701136 C 287.122646 693.996564 341.509281 782.892242 366.717347 870.403253 C 368.010068 875.711146 399.912585 907.604663 435.693265 912.912557 C 435.693265 912.912557 439.709935 918.220451 435.693265 919.512807 C 399.912585 922.189832 374.704518 896.896565 374.704518 900.912102 C 389.293802 965.899181 390.586523 1030.886261 392.017751 1093.288627 C 392.017751 1099.888877 397.280973 1135.797931 454.391556 1171.614674 L 455.684277 1176.922567 C 414.594206 1171.614674 393.310472 1126.520656 393.310472 1130.490037 C 394.603193 1208.816084 399.912585 1283.080439 437.078324 1346.821317 C 437.078324 1346.821317 564.503714 1571.091359 429.091152 1357.390948 C 385.277132 1287.095975 377.289961 1206.092904 373.411797 1122.505119 C 373.411797 1117.197226 346.911009 1163.5836 318.978994 1172.90703 L 315.008493 1166.30678 C 364.085736 1133.120906 370.687848 1072.103208 370.687848 1060.102753 C 366.717347 983.115219 360.115234 906.219996 325.581107 833.201842 C 322.903327 827.893949 300.419209 879.588217 284.491035 894.219541 C 275.211143 895.511897 275.211143 891.49636 276.503864 886.188467 C 307.021322 842.386806 312.284544 807.908576 309.699102 803.893039 C 275.211143 745.50621 220.77834 691.088762 131.903747 641.979207 Z M 171.701097 611.701136 " transform="matrix(0.0846083,0,0,0.0846322,0,0.0116325)"/>
<path style="fill-rule:nonzero;fill:rgb(73.333333%,20.784314%,19.607843%);fill-opacity:1;stroke-width:2.5;stroke-linecap:butt;stroke-linejoin:miter;stroke:rgb(0%,0%,0%);stroke-opacity:1;stroke-miterlimit:3.3333;" d="M 435.693265 915.589582 C 438.417214 898.281233 425.120651 894.404163 429.091152 875.803458 C 431.815101 857.202752 472.905173 786.907779 564.503714 809.477866 C 654.717197 838.694358 649.407806 922.282143 645.391136 939.49818 C 642.713356 955.421861 613.580957 1052.302458 519.304635 1034.994109 C 445.019326 1012.377867 430.383874 975.314923 429.091152 952.698681 C 427.798431 931.513262 434.400544 934.097976 435.693265 915.589582 Z M 435.693265 915.589582 " transform="matrix(0.0846083,0,0,0.0846322,0,0.0116325)"/>
<path style="fill-rule:nonzero;fill:rgb(73.333333%,20.784314%,19.607843%);fill-opacity:1;stroke-width:2.5;stroke-linecap:butt;stroke-linejoin:miter;stroke:rgb(0%,0%,0%);stroke-opacity:1;stroke-miterlimit:3.3333;" d="M 317.593936 1171.706985 C 304.297373 1158.414173 313.577266 1147.798386 298.987982 1135.890242 C 284.398698 1122.597431 208.820667 1092.088581 150.417363 1166.399091 C 97.277282 1244.678983 153.095143 1308.419861 166.299368 1318.989492 C 179.595931 1329.60528 260.483353 1387.992109 324.196048 1317.697136 C 369.30279 1254.002413 357.391286 1215.508646 345.387445 1196.90794 C 333.383604 1178.307235 329.597777 1183.615129 317.593936 1171.706985 Z M 317.593936 1171.706985 " transform="matrix(0.0846083,0,0,0.0846322,0,0.0116325)"/>
<path style=" stroke:none;fill-rule:nonzero;fill:rgb(0%,59.607843%,32.54902%);fill-opacity:1;" d="M 38.777344 99.515625 C 38.777344 99.515625 37.769531 97.828125 38.4375 95.46875 C 38.777344 94.910156 39.902344 91.542969 44.046875 92.101562 C 48.089844 92.546875 50.671875 98.167969 56.957031 102.773438 C 55.382812 102.542969 52.695312 102.882812 49.4375 104.792969 C 46.289062 106.816406 46.289062 107.605469 43.371094 107.824219 C 39.554688 107.597656 38.210938 104.117188 38.089844 103.667969 C 37.539062 100.859375 38.777344 99.515625 38.777344 99.515625 Z M 38.777344 99.515625 "/>
<path style="fill:none;stroke-width:2.9167;stroke-linecap:butt;stroke-linejoin:miter;stroke:rgb(0%,0%,0%);stroke-opacity:1;stroke-miterlimit:3.3333;" d="M 458.315889 1175.722522 C 458.315889 1175.722522 446.404385 1155.783304 454.299219 1127.905324 C 458.315889 1121.305074 471.612451 1081.51895 520.597357 1088.1192 C 568.381878 1093.380938 598.899336 1159.798841 673.184645 1214.216289 C 654.578691 1211.493109 622.814681 1215.508646 584.310052 1238.078732 C 547.098145 1261.987331 547.098145 1271.310762 512.610186 1273.895475 C 467.503444 1271.21845 451.621439 1230.093814 450.190212 1224.785921 C 443.680436 1191.600047 458.315889 1175.722522 458.315889 1175.722522 Z M 458.315889 1177.014878 C 521.982415 1219.478027 609.610456 1179.691903 669.306481 1214.216289 " transform="matrix(0.0846083,0,0,0.0846322,0,0.0116325)"/>
<path style=" stroke:none;fill-rule:nonzero;fill:rgb(0%,59.607843%,32.54902%);fill-opacity:1;" d="M 23.613281 75.699219 C 23.613281 75.699219 23.386719 73.785156 21.59375 72.21875 C 20.914062 71.882812 18.113281 69.859375 15.078125 72.558594 C 11.929688 75.25 13.054688 81.429688 10.472656 88.730469 C 11.710938 87.605469 14.070312 86.371094 17.777344 86.148438 C 21.59375 86.039062 22.039062 86.597656 24.511719 85.144531 C 27.660156 82.78125 26.644531 79.195312 26.421875 78.746094 C 25.296875 76.035156 23.613281 75.699219 23.613281 75.699219 Z M 23.613281 75.699219 "/>
<path style="fill:none;stroke-width:2.9167;stroke-linecap:butt;stroke-linejoin:miter;stroke:rgb(0%,0%,0%);stroke-opacity:1;stroke-miterlimit:3.3333;" d="M 279.089307 894.311852 C 279.089307 894.311852 276.411527 871.69561 255.22013 853.187216 C 247.18679 849.217834 214.08389 825.309235 178.210872 857.202752 C 140.998965 889.003958 154.295527 962.022111 123.77807 1048.286921 C 138.413522 1034.994109 166.299368 1020.408941 210.113389 1017.778072 C 255.22013 1016.485715 260.483353 1023.085965 289.708089 1005.916083 C 326.919997 977.991948 314.916156 935.62111 312.284544 930.313217 C 298.987982 898.281233 279.089307 894.311852 279.089307 894.311852 Z M 277.796585 896.988876 C 248.618018 968.714673 154.387865 984.592198 123.916576 1046.902253 " transform="matrix(0.0846083,0,0,0.0846322,0,0.0116325)"/>
<path style=" stroke:none;fill-rule:nonzero;fill:rgb(0%,59.607843%,32.54902%);fill-opacity:1;" d="M 36.304688 114.5625 C 36.304688 114.5625 36.304688 113.097656 38.886719 111.980469 C 42.929688 110.296875 44.386719 113.554688 44.832031 114.222656 C 47.195312 118.039062 42.703125 124.894531 46.40625 129.949219 C 41.019531 125.34375 34.730469 126.242188 31.921875 122.421875 C 31.246094 121.746094 28.894531 118.714844 32.371094 115.457031 C 33.605469 114.222656 36.304688 114.5625 36.304688 114.5625 Z M 36.304688 114.5625 "/>
<path style="fill:none;stroke-width:2.9167;stroke-linecap:butt;stroke-linejoin:miter;stroke:rgb(0%,0%,0%);stroke-opacity:1;stroke-miterlimit:3.3333;" d="M 429.091152 1353.513878 C 429.091152 1353.513878 429.091152 1336.20553 459.60861 1323.005029 C 507.393132 1303.111967 524.614027 1341.605735 529.877249 1349.498341 C 557.809264 1394.592359 504.715352 1475.59543 548.483203 1535.320772 C 484.816676 1480.903324 410.485199 1491.519111 377.289961 1446.378938 C 369.30279 1438.39402 341.509281 1402.577277 382.599352 1364.08351 C 397.188636 1349.498341 429.091152 1353.513878 429.091152 1353.513878 Z M 433.107822 1356.098592 C 470.31973 1443.701913 549.91443 1536.613128 549.91443 1536.613128 " transform="matrix(0.0846083,0,0,0.0846322,0,0.0116325)"/>
<path style="fill-rule:nonzero;fill:rgb(0%,59.607843%,32.54902%);fill-opacity:1;stroke-width:3.25;stroke-linecap:butt;stroke-linejoin:miter;stroke:rgb(0%,0%,0%);stroke-opacity:1;stroke-miterlimit:3.3333;" d="M 1246.598903 611.701136 C 1131.177354 693.996564 1076.698382 782.892242 1051.490316 870.495564 C 1050.197594 875.803458 1018.295078 907.696975 982.514398 913.004868 C 982.514398 913.004868 978.497728 918.312762 982.514398 919.605118 C 1018.295078 922.282143 1043.503145 896.988876 1043.503145 901.004413 C 1028.913861 965.991493 1027.621139 1030.978572 1026.189912 1093.380938 C 1026.189912 1099.981188 1020.880521 1135.890242 963.816107 1171.706985 L 962.477217 1177.014878 C 1003.613457 1171.706985 1024.897191 1126.612967 1024.897191 1130.582349 C 1023.604469 1208.908395 1018.295078 1283.218905 981.083171 1346.913628 C 981.083171 1346.913628 853.703949 1571.18367 989.11651 1357.48326 C 1032.884362 1287.188287 1040.917702 1206.185215 1044.795866 1122.597431 C 1044.795866 1117.289537 1071.296654 1163.722067 1099.1825 1172.999342 L 1103.19917 1166.399091 C 1054.121927 1133.213218 1047.519814 1072.195519 1047.519814 1060.195064 C 1051.490316 983.20753 1058.092428 906.312307 1092.580387 833.294154 C 1095.304336 827.98626 1117.788454 879.680528 1133.716628 894.311852 C 1142.99652 895.604208 1142.99652 891.588672 1141.703799 886.280778 C 1111.186341 842.479117 1105.87695 808.000887 1108.508561 803.98535 C 1142.99652 745.598521 1197.383154 691.181073 1286.303916 642.117674 Z M 1246.598903 611.701136 " transform="matrix(0.0846083,0,0,0.0846322,0,0.0116325)"/>
<path style="fill-rule:nonzero;fill:rgb(73.333333%,20.784314%,19.607843%);fill-opacity:1;stroke-width:2.5;stroke-linecap:butt;stroke-linejoin:miter;stroke:rgb(0%,0%,0%);stroke-opacity:1;stroke-miterlimit:3.3333;" d="M 982.606735 915.589582 C 979.882786 898.281233 993.179349 894.404163 989.208848 875.803458 C 986.484899 857.202752 945.394827 786.907779 853.796286 809.477866 C 763.582803 838.694358 768.892194 922.282143 772.908864 939.49818 C 775.586644 955.421861 804.719043 1052.302458 898.995365 1034.994109 C 973.280674 1012.377867 987.916126 975.314923 989.208848 952.698681 C 990.501569 931.513262 983.899456 934.097976 982.606735 915.589582 Z M 982.606735 915.589582 " transform="matrix(0.0846083,0,0,0.0846322,0,0.0116325)"/>
<path style="fill-rule:nonzero;fill:rgb(73.333333%,20.784314%,19.607843%);fill-opacity:1;stroke-width:2.5;stroke-linecap:butt;stroke-linejoin:miter;stroke:rgb(0%,0%,0%);stroke-opacity:1;stroke-miterlimit:3.3333;" d="M 1100.706064 1171.706985 C 1114.002627 1158.414173 1104.722734 1147.798386 1119.312018 1135.890242 C 1133.901302 1122.597431 1209.479333 1092.088581 1267.882637 1166.399091 C 1321.022718 1244.678983 1265.204857 1308.419861 1252.000632 1318.989492 C 1238.704069 1329.60528 1157.816647 1387.992109 1094.103952 1317.697136 C 1048.99721 1254.002413 1060.908714 1215.508646 1072.912555 1196.90794 C 1084.916396 1178.307235 1088.702223 1183.615129 1100.706064 1171.706985 Z M 1100.706064 1171.706985 " transform="matrix(0.0846083,0,0,0.0846322,0,0.0116325)"/>
<path style=" stroke:none;fill-rule:nonzero;fill:rgb(0%,59.607843%,32.54902%);fill-opacity:1;" d="M 81.222656 99.515625 C 81.222656 99.515625 82.230469 97.828125 81.5625 95.46875 C 81.222656 94.910156 80.097656 91.542969 75.953125 92.101562 C 71.910156 92.546875 69.328125 98.167969 63.042969 102.773438 C 64.617188 102.542969 67.304688 102.882812 70.5625 104.792969 C 73.710938 106.816406 73.710938 107.605469 76.628906 107.824219 C 80.445312 107.597656 81.789062 104.117188 81.910156 103.667969 C 82.460938 100.859375 81.222656 99.515625 81.222656 99.515625 Z M 81.222656 99.515625 "/>
<path style="fill:none;stroke-width:2.9167;stroke-linecap:butt;stroke-linejoin:miter;stroke:rgb(0%,0%,0%);stroke-opacity:1;stroke-miterlimit:3.3333;" d="M 959.984111 1175.722522 C 959.984111 1175.722522 971.895615 1155.783304 964.000781 1127.905324 C 959.984111 1121.305074 946.687549 1081.51895 897.702643 1088.1192 C 849.918122 1093.380938 819.400664 1159.798841 745.115355 1214.216289 C 763.721309 1211.493109 795.485319 1215.508646 833.989948 1238.078732 C 871.201855 1261.987331 871.201855 1271.310762 905.689814 1273.895475 C 950.796556 1271.21845 966.678561 1230.093814 968.109788 1224.785921 C 974.619564 1191.600047 959.984111 1175.722522 959.984111 1175.722522 Z M 959.984111 1177.014878 C 896.317585 1219.478027 808.689544 1179.691903 748.993519 1214.216289 " transform="matrix(0.0846083,0,0,0.0846322,0,0.0116325)"/>
<path style=" stroke:none;fill-rule:nonzero;fill:rgb(0%,59.607843%,32.54902%);fill-opacity:1;" d="M 96.386719 75.699219 C 96.386719 75.699219 96.613281 73.785156 98.40625 72.21875 C 99.085938 71.882812 101.886719 69.859375 104.921875 72.558594 C 108.070312 75.25 106.945312 81.429688 109.527344 88.730469 C 108.289062 87.605469 105.929688 86.371094 102.222656 86.148438 C 98.40625 86.039062 97.960938 86.597656 95.488281 85.144531 C 92.339844 82.78125 93.355469 79.195312 93.578125 78.746094 C 94.703125 76.035156 96.386719 75.699219 96.386719 75.699219 Z M 96.386719 75.699219 "/>
<path style="fill:none;stroke-width:2.9167;stroke-linecap:butt;stroke-linejoin:miter;stroke:rgb(0%,0%,0%);stroke-opacity:1;stroke-miterlimit:3.3333;" d="M 1139.210693 894.311852 C 1139.210693 894.311852 1141.888473 871.69561 1163.07987 853.187216 C 1171.11321 849.217834 1204.21611 825.309235 1240.089128 857.202752 C 1277.301035 889.003958 1264.004473 962.022111 1294.52193 1048.286921 C 1279.886478 1034.994109 1252.000632 1020.408941 1208.186611 1017.778072 C 1163.07987 1016.485715 1157.816647 1023.085965 1128.591911 1005.916083 C 1091.380003 977.991948 1103.383844 935.62111 1106.015456 930.313217 C 1119.312018 898.281233 1139.210693 894.311852 1139.210693 894.311852 Z M 1140.503415 896.988876 C 1169.681982 968.714673 1263.912135 984.592198 1294.383424 1046.902253 " transform="matrix(0.0846083,0,0,0.0846322,0,0.0116325)"/>
<path style=" stroke:none;fill-rule:nonzero;fill:rgb(0%,59.607843%,32.54902%);fill-opacity:1;" d="M 83.695312 114.5625 C 83.695312 114.5625 83.695312 113.097656 81.113281 111.980469 C 77.070312 110.296875 75.613281 113.554688 75.167969 114.222656 C 72.804688 118.039062 77.296875 124.894531 73.59375 129.949219 C 78.980469 125.34375 85.269531 126.242188 88.078125 122.421875 C 88.753906 121.746094 91.105469 118.714844 87.628906 115.457031 C 86.394531 114.222656 83.695312 114.5625 83.695312 114.5625 Z M 83.695312 114.5625 "/>
<path style="fill:none;stroke-width:2.9167;stroke-linecap:butt;stroke-linejoin:miter;stroke:rgb(0%,0%,0%);stroke-opacity:1;stroke-miterlimit:3.3333;" d="M 989.208848 1353.513878 C 989.208848 1353.513878 989.208848 1336.20553 958.69139 1323.005029 C 910.906868 1303.111967 893.685973 1341.605735 888.422751 1349.498341 C 860.490736 1394.592359 913.584648 1475.59543 869.816797 1535.320772 C 933.483324 1480.903324 1007.814801 1491.519111 1041.010039 1446.378938 C 1048.99721 1438.39402 1076.790719 1402.577277 1035.700648 1364.08351 C 1021.111364 1349.498341 989.208848 1353.513878 989.208848 1353.513878 Z M 985.192178 1356.098592 C 947.98027 1443.701913 868.38557 1536.613128 868.38557 1536.613128 " transform="matrix(0.0846083,0,0,0.0846322,0,0.0116325)"/>
</g>
</svg>
