<?xml version="1.0" encoding="utf-8"?>
<!-- Generator: Adobe Illustrator 15.1.0, SVG Export Plug-In . SVG Version: 6.00 Build 0)  -->
<!DOCTYPE svg PUBLIC "-//W3C//DTD SVG 1.1//EN" "http://www.w3.org/Graphics/SVG/1.1/DTD/svg11.dtd">
<svg version="1.1" id="Layer_1" xmlns="http://www.w3.org/2000/svg" xmlns:xlink="http://www.w3.org/1999/xlink" x="0px" y="0px"
	 width="540px" height="600px" viewBox="0 0 540 600" enable-background="new 0 0 540 600" xml:space="preserve">
<g>
	<path d="M510.249,560.53l-6.23-30.771l-1.51-7.471l-0.39-1.969l-1.98,0.41c-0.03,0.01-2.979,0.629-5.49,0.629
		c-1.67,0-2.21-0.279-2.3-0.32c-0.96-1.039-1.54-3.279-2-5.84c-0.188-1.09-0.37-2.24-0.54-3.379c-1.16-7.59-2.6-17.051-11.55-17.051
		c-18.24,0-48.279,21.361-52.82,24.67H119.959c-4.3-3.15-31.58-22.629-47.5-22.83h-0.1c-6.319,0-9.189,7.43-11.96,14.621
		c-2.069,5.359-4.21,10.9-7.34,12.41c-0.46,0.219-2.03,0.75-6.56,0.75c-2.67,0-5.011-0.191-5.03-0.191l-1.69-0.139l-0.409,1.639
		l-1.021,4.021l-8.43,33.35l-0.33,1.301l1.08,0.801c0.24,0.18,6.05,4.391,12.26,4.391c5.18,0,9.08-2.191,12.18-4.781
		c1.65-1.35,3.08-2.83,4.34-4.148l0.051-0.061c1.609-1.67,2.26-4.58,3.02-7.939c1.669-7.432,3.349-12.691,9.769-12.691h0.12
		c5.189,0.051,14.079,7.58,19.399,12.07c0.87,0.74,1.66,1.41,2.351,1.971c9.439,7.76,21.46,13.07,21.97,13.289l0.38,0.17h315.7
		l0.271-0.08c6.569-1.879,16.729-8.199,26.561-14.309c8.06-5.012,17.199-10.691,19.79-10.691c0.01,0,0.01,0,0.01,0
		c4.25,1.42,3.609,11.85,2.63,16.68l-0.18,0.881l0.54,0.721c0.05,0.068,0.31,0.41,0.76,0.932c1.96,2.25,7.51,7.75,14.84,7.75
		c7.61,0,12.33-6.99,12.521-7.291l0.461-0.689L510.249,560.53z"/>
	<path fill="#025098" d="M492.429,523.16c0.65,0.141,1.42,0.199,2.22,0.199c2.762,0,5.9-0.672,5.9-0.672l1.24,6.102l-4.49,4.49
		l1.41,1.42l3.55-3.549l1.11,5.5l-0.16-0.16l-4.61,4.6l1.41,1.42l3.79-3.789l0.95,4.738l-4.94,4.939l1.42,1.41l4-4l1.011,5.012
		l-5.159,5.17l1.409,1.42l4.229-4.23l1.57,7.75c0,0-4.24,6.391-10.86,6.391c-5.39,0-9.79-3.471-12.14-5.811l0.05-0.061
		C492.019,553.78,492.409,526.731,492.429,523.16z"/>
	<path fill="#025098" d="M400.129,541.869c0,3.148-0.7,5.529-2.09,7.068c-1.392,1.553-3.13,2.303-5.312,2.303
		c-2.18,0-3.92-0.762-5.34-2.32c-1.4-1.561-2.119-3.9-2.119-6.971c0-3.119,0.699-5.471,2.069-6.99c1.37-1.521,3.13-2.26,5.39-2.26
		s4.021,0.729,5.37,2.229S400.129,538.77,400.129,541.869z"/>
	<path fill="#025098" d="M313.929,533.051v17.84h-9.67c1.4-3.941,2.12-9.932,2.15-17.84H313.929z"/>
	<path fill="#025098" d="M287.609,541.869c0,3.148-0.699,5.529-2.09,7.068c-1.391,1.553-3.131,2.303-5.311,2.303
		c-2.182,0-3.932-0.762-5.34-2.32c-1.4-1.561-2.12-3.9-2.12-6.971c0-3.119,0.698-5.471,2.06-6.99c1.381-1.521,3.141-2.26,5.4-2.26
		s4.01,0.729,5.37,2.229C286.929,536.43,287.609,538.77,287.609,541.869z"/>
	<path fill="#025098" d="M256.769,536.59c0,0.74-0.18,1.369-0.56,1.92c-0.391,0.561-0.9,0.949-1.58,1.211
		c-0.49,0.189-1.65,0.42-4.4,0.42h-2.67v-7.051h2.3c2.051,0,3.42,0.061,4.08,0.18c0.83,0.15,1.5,0.51,2.04,1.111
		C256.509,534.959,256.769,535.68,256.769,536.59z"/>
	<path fill="#025098" d="M230.278,541.869c0,3.148-0.71,5.529-2.1,7.068c-1.39,1.553-3.13,2.303-5.3,2.303
		c-2.181,0-3.931-0.762-5.34-2.32c-1.41-1.561-2.12-3.9-2.12-6.971c0-3.119,0.689-5.471,2.06-6.99c1.37-1.521,3.141-2.26,5.4-2.26
		c2.25,0,4.01,0.729,5.359,2.229C229.589,536.43,230.278,538.77,230.278,541.869z"/>
	<path fill="#025098" d="M176.948,541.869c0,3.148-0.71,5.529-2.09,7.068c-1.399,1.553-3.13,2.303-5.31,2.303s-3.93-0.762-5.34-2.32
		c-1.41-1.561-2.12-3.9-2.12-6.971c0-3.119,0.689-5.471,2.06-6.99c1.37-1.521,3.141-2.26,5.4-2.26s4.01,0.729,5.37,2.229
		C176.259,536.43,176.948,538.77,176.948,541.869z"/>
	<path fill="#025098" d="M145.559,547.66c0,0.777-0.22,1.42-0.689,1.947c-0.471,0.541-1.011,0.883-1.641,1.031
		c-0.689,0.17-1.93,0.25-3.68,0.25h-5.13v-6.5h5.38c2.18,0,3.72,0.271,4.58,0.818C145.169,545.709,145.559,546.52,145.559,547.66z"
		/>
	<path fill="#025098" d="M52.929,525.801v13.83v24.34c-2.67,2.039-5.88,3.59-10,3.59c-5.62,0-11.08-4-11.08-4l2.58-10.191l4.92,4.92
		l1.41-1.42l-5.76-5.76l1.38-5.459l4.39,4.389l1.42-1.42l-5.149-5.148l-0.141,0.141l1.2-4.74l3.92,3.92l1.42-1.408l-4.77-4.771
		l1.42-5.59l3.38,3.381l1.42-1.41l-4.229-4.221l0.649-2.58c0,0,2.4,0.201,5.19,0.201C48.738,526.391,51.238,526.26,52.929,525.801z"
		/>
	<path fill="#025098" d="M490.299,527.99c0.08-1.84,0.11-3.303,0.12-4.189l-9.65-6.92l1.16-1.621l8.01,5.74
		c-0.58-1.16-1-2.65-1.34-4.313l-8.21-5.867l1.16-1.633l6.55,4.691c-0.188-1.201-0.37-2.441-0.569-3.691l-0.101,0.133l-6.46-4.633
		l1.17-1.629l4.931,3.539c-1.12-5.738-3.069-10.83-8.811-10.83c-18.91,0-52.16,24.67-52.16,24.67h-306.79
		c0,0-30.38-22.617-46.88-22.828h-0.07c-8.81,0-10.029,20.949-17.43,26.229v1.971l6.68-6.102l1.351,1.48l-8.03,7.34v2.971
		l7.51-6.859l1.351,1.48l-8.86,8.09v2.711l8.69-7.93l1.35,1.479l-10.04,9.17v21.66c1.13-1.031,2.15-2.102,3.12-3.111
		c3.78-3.938,1.64-21.25,14.24-21.25h0.14c6.8,0.07,17.75,10.191,23,14.5c9.33,7.672,21.5,13,21.5,13h315
		c12.46-3.568,40.5-25.078,46.9-25.078c0.229,0,0.43,0.02,0.6,0.078c7.351,2.393,4,19,4,19s0.17,0.23,0.48,0.602
		c3.31-3.93,4.938-13.58,5.738-22.068l-9.26-6.641l1.16-1.621l8.3,5.951c0.15-1.881,0.261-3.67,0.351-5.279l-9.431-6.762l1.16-1.629
		L490.299,527.99z M104.119,545.391l-15.881-13.25l1.28-1.541l15.88,13.25L104.119,545.391z M104.119,539.891l-15.881-13.25
		l1.28-1.541l15.88,13.25L104.119,539.891z M104.119,534.27l-15.881-13.25l1.28-1.539l15.88,13.25L104.119,534.27z M104.119,529.02
		l-15.881-13.25l1.28-1.539l15.88,13.25L104.119,529.02z M104.119,523.53l-15.881-13.25l1.28-1.529l15.88,13.25L104.119,523.53z
		 M150.979,552.891c-1.05,1.43-2.28,2.43-3.649,2.969c-1.341,0.521-3.24,0.791-5.67,0.791h-14.031v-29.361h22.43v5.762h-15.64v5.58
		h7.24c2.189,0,4.039,0.271,5.489,0.799c1.5,0.551,2.79,1.57,3.84,3.041c1.061,1.469,1.591,3.219,1.591,5.189
		C152.579,549.68,152.049,551.44,150.979,552.891z M180.019,553.1c-2.609,2.68-6.12,4.031-10.45,4.031
		c-4.39,0-7.93-1.352-10.529-4.012c-2.601-2.648-3.92-6.352-3.92-10.98c0-2.939,0.46-5.461,1.359-7.471
		c0.67-1.5,1.601-2.85,2.771-4.039c1.17-1.191,2.47-2.092,3.87-2.66c1.84-0.77,3.979-1.16,6.369-1.16c4.341,0,7.87,1.359,10.5,4.039
		c2.61,2.67,3.94,6.432,3.94,11.16C183.929,546.699,182.609,550.43,180.019,553.1z M208.159,533.051h-13.631v23.6h-6.79v-29.361
		h20.421V533.051z M233.339,553.1c-2.601,2.68-6.11,4.031-10.45,4.031c-4.38,0-7.92-1.352-10.52-4.012
		c-2.601-2.648-3.921-6.352-3.921-10.98c0-2.939,0.461-5.461,1.36-7.471c0.67-1.5,1.601-2.85,2.76-4.039
		c1.181-1.191,2.48-2.092,3.88-2.66c1.83-0.77,3.98-1.16,6.37-1.16c4.341,0,7.87,1.359,10.49,4.039c2.62,2.67,3.95,6.432,3.95,11.16
		C237.259,546.699,235.939,550.43,233.339,553.1z M262.719,541.141c-0.67,1.25-1.55,2.25-2.59,2.969
		c-1.04,0.711-2.11,1.191-3.181,1.42c-1.42,0.281-3.47,0.42-6.109,0.42h-3.28v10.701h-6.78v-29.361h9.78
		c3.601,0,5.9,0.15,7.021,0.441c1.739,0.449,3.22,1.449,4.39,2.959c1.17,1.5,1.77,3.461,1.77,5.83
		C263.738,538.33,263.389,539.891,262.719,541.141z M290.679,553.1c-2.6,2.68-6.12,4.031-10.45,4.031
		c-4.38,0-7.92-1.352-10.53-4.012c-2.59-2.648-3.909-6.352-3.909-10.98c0-2.939,0.449-5.461,1.35-7.471
		c0.67-1.5,1.61-2.85,2.771-4.039c1.17-1.191,2.47-2.092,3.868-2.66c1.842-0.77,3.98-1.16,6.371-1.16
		c4.351,0,7.879,1.359,10.5,4.039c2.619,2.67,3.949,6.432,3.949,11.16C294.599,546.699,293.277,550.43,290.679,553.1z
		 M323.219,562.84h-5.81v-6.189h-17.051v6.189h-5.81v-11.949h2.609c1.091-2.301,1.811-4.99,2.171-8
		c0.368-3.17,0.56-7.24,0.56-12.102v-3.5h20.81v23.602h2.521L323.219,562.84L323.219,562.84z M351.049,547.619
		c-0.88,3.189-2.39,5.602-4.47,7.16c-2.08,1.561-4.74,2.352-7.92,2.352c-3.932,0-7.211-1.352-9.75-4.012
		c-2.53-2.66-3.812-6.318-3.812-10.898c0-4.83,1.29-8.641,3.83-11.34c2.55-2.701,5.94-4.07,10.08-4.07c3.63,0,6.62,1.08,8.89,3.209
		c1.36,1.26,2.4,3.1,3.07,5.451l0.15,0.5l-6.73,1.59l-0.109-0.49c-0.319-1.35-0.971-2.43-1.949-3.201
		c-0.98-0.779-2.19-1.17-3.61-1.17c-1.989,0-3.56,0.691-4.8,2.09c-1.23,1.41-1.86,3.771-1.86,7.012c0,3.439,0.62,5.908,1.841,7.33
		c1.209,1.42,2.75,2.109,4.699,2.109c1.43,0,2.62-0.43,3.641-1.33c1.029-0.891,1.779-2.34,2.229-4.301l0.12-0.529l6.59,2.07
		L351.049,547.619z M369.589,556.651l-3.55-7.621c-0.052-0.08-0.15-0.279-0.32-0.561c-0.05-0.09-0.3-0.541-0.729-1.352
		c-0.869-1.639-1.399-2.238-1.681-2.439c-0.31-0.229-0.77-0.369-1.38-0.42v12.393h-6.79v-29.361h6.79v12
		c0.84-0.139,1.44-0.389,1.74-0.738c0.279-0.33,0.87-1.342,2.02-4.271c1.25-3.199,2.5-5.148,3.82-5.969
		c1.29-0.801,3.28-1.191,6.07-1.191c0.13,0,0.408-0.01,0.83-0.02l0.51-0.02v5.27l-1.33-0.039c-1.09,0-1.88,0.129-2.352,0.379
		c-0.47,0.25-0.84,0.621-1.129,1.131c-0.33,0.57-0.819,1.77-1.471,3.58c-0.359,1.01-0.76,1.869-1.189,2.549
		c-0.33,0.521-0.819,1.01-1.479,1.48c0.96,0.439,1.79,1.109,2.47,2c0.852,1.109,1.801,2.701,2.812,4.721l4.278,8.5H369.589
		L369.589,556.651z M403.198,553.1c-2.601,2.68-6.119,4.031-10.449,4.031c-4.38,0-7.92-1.352-10.521-4.012
		c-2.6-2.648-3.92-6.352-3.92-10.98c0-2.939,0.45-5.461,1.352-7.471c0.68-1.5,1.609-2.85,2.77-4.039
		c1.17-1.191,2.48-2.092,3.88-2.66c1.83-0.77,3.98-1.16,6.37-1.16c4.34,0,7.87,1.359,10.49,4.039c2.62,2.67,3.95,6.432,3.95,11.16
		C407.119,546.699,405.799,550.43,403.198,553.1z M433.438,556.651h-22.8v-29.361h22.25v5.801h-15.47v5.279h14.398v5.781h-14.398
		v6.719h16.02V556.651z M447.369,549.901l-1.07-1.691l16.82-10.559l1.06,1.688L447.369,549.901z M447.369,543.59l-1.07-1.699
		l16.82-10.561l1.06,1.688L447.369,543.59z M447.369,537.27l-1.07-1.689l16.82-10.57l1.06,1.699L447.369,537.27z M447.369,530.949
		l-1.07-1.689l16.82-10.561l1.06,1.689L447.369,530.949z M447.369,524.641l-1.07-1.701l16.82-10.559l1.06,1.689L447.369,524.641z
		 M447.369,518.321l-1.07-1.689l16.82-10.57l1.06,1.689L447.369,518.321z"/>
</g>
<g>
	<polygon fill="#F8C600" points="432.438,551.869 432.438,555.651 411.639,555.651 411.639,528.289 431.889,528.289 431.889,532.09 
		416.419,532.09 416.419,539.369 430.817,539.369 430.817,543.151 416.419,543.151 416.419,551.869 	"/>
	<path fill="#F8C600" d="M392.749,556.131c-4.102,0-7.4-1.24-9.811-3.711c-2.41-2.461-3.631-5.92-3.631-10.279
		c0-2.801,0.43-5.182,1.271-7.061c0.619-1.393,1.479-2.65,2.568-3.75c1.07-1.09,2.262-1.91,3.541-2.439
		c1.709-0.721,3.729-1.08,5.989-1.08c4.06,0,7.351,1.25,9.78,3.729c2.43,2.49,3.66,6.012,3.66,10.471c0,4.42-1.221,7.92-3.631,10.4
		C400.079,554.881,396.799,556.131,392.749,556.131z M384.269,541.949c0,3.33,0.801,5.898,2.381,7.641
		c1.59,1.76,3.641,2.65,6.08,2.65c2.449,0,4.489-0.893,6.061-2.631c1.55-1.73,2.34-4.342,2.34-7.74c0-3.359-0.771-5.92-2.29-7.609
		c-1.53-1.699-3.58-2.561-6.11-2.561c-2.52,0-4.59,0.871-6.14,2.59C385.049,536,384.269,538.58,384.269,541.949z"/>
	<path fill="#F8C600" d="M363.899,543.869c-0.569-0.42-1.371-0.619-2.471-0.641l-0.5-0.01v12.432h-4.79v-27.361h4.79v12.121
		l0.54-0.051c1.44-0.141,2.41-0.521,2.95-1.16c0.51-0.58,1.21-2.029,2.2-4.549c1.159-2.963,2.31-4.803,3.42-5.49
		c1.108-0.689,2.979-1.041,5.54-1.041c0.068,0,0.189-0.01,0.34-0.01v3.211l-0.32-0.012c-1.279,0-2.21,0.17-2.83,0.5
		c-0.63,0.33-1.148,0.842-1.529,1.521c-0.359,0.619-0.859,1.84-1.541,3.729c-0.34,0.939-0.709,1.74-1.1,2.359
		c-0.369,0.59-1.039,1.15-2,1.689l-1.06,0.59l1.17,0.33c1.188,0.33,2.149,0.99,2.93,2c0.82,1.07,1.73,2.602,2.72,4.57l3.552,7.051
		h-5.681l-3.301-7.061c-0.05-0.109-0.16-0.311-0.35-0.641c-0.07-0.102-0.301-0.529-0.7-1.299
		C365.089,545.18,364.438,544.27,363.899,543.869z"/>
	<path fill="#F8C600" d="M333.139,549.78c1.4,1.631,3.23,2.461,5.46,2.461c1.66,0,3.11-0.531,4.301-1.57
		c1.09-0.949,1.899-2.4,2.42-4.311l4.629,1.449c-0.828,2.74-2.17,4.82-3.969,6.17c-1.899,1.432-4.371,2.15-7.32,2.15
		c-3.649,0-6.68-1.24-9.021-3.701c-2.35-2.459-3.54-5.898-3.54-10.209c0-4.561,1.2-8.148,3.561-10.648
		c2.351-2.5,5.5-3.762,9.351-3.762c3.36,0,6.12,0.99,8.21,2.939c1.13,1.051,2.02,2.561,2.641,4.49l-4.739,1.119
		c-0.4-1.35-1.132-2.449-2.171-3.279c-1.159-0.91-2.579-1.381-4.229-1.381c-2.26,0-4.13,0.82-5.55,2.432
		c-1.4,1.6-2.109,4.18-2.109,7.67C331.059,545.539,331.737,548.151,333.139,549.78z"/>
	<path fill="#F8C600" d="M322.219,551.891v9.949h-3.81v-6.189h-19.05v6.189h-3.811v-9.949h2.24l0.14-0.281
		c1.2-2.459,2.011-5.359,2.391-8.6c0.379-3.221,0.569-7.33,0.569-12.221v-2.5h18.81v23.602H322.219z M314.929,551.891v-19.84h-9.52
		v0.5c0,8.51-0.791,14.789-2.33,18.658l-0.28,0.682H314.929z"/>
	<path fill="#F8C600" d="M280.148,527.811c4.07,0,7.36,1.25,9.78,3.729c2.431,2.49,3.67,6.012,3.67,10.471
		c0,4.42-1.229,7.92-3.64,10.4c-2.4,2.471-5.682,3.721-9.73,3.721c-4.1,0-7.398-1.24-9.81-3.711c-2.41-2.461-3.63-5.92-3.63-10.279
		c0-2.801,0.42-5.182,1.26-7.061c0.63-1.391,1.49-2.65,2.57-3.75c1.078-1.09,2.27-1.91,3.55-2.439
		C275.879,528.17,277.898,527.811,280.148,527.811z M274.129,549.59c1.59,1.76,3.641,2.65,6.08,2.65c2.449,0,4.479-0.893,6.05-2.631
		c1.56-1.73,2.351-4.342,2.351-7.74c0-3.359-0.771-5.92-2.291-7.609c-1.528-1.699-3.59-2.561-6.108-2.561
		c-2.521,0-4.59,0.871-6.142,2.59c-1.539,1.711-2.318,4.291-2.318,7.66C271.749,545.28,272.549,547.85,274.129,549.59z"/>
	<path fill="#F8C600" d="M250.559,528.289c3.46,0,5.74,0.141,6.76,0.41c1.53,0.398,2.83,1.27,3.86,2.602
		c1.03,1.33,1.56,3.08,1.56,5.219c0,1.641-0.31,3.041-0.899,4.15c-0.601,1.109-1.37,1.99-2.28,2.619
		c-0.93,0.641-1.88,1.061-2.81,1.27c-1.34,0.262-3.33,0.391-5.91,0.391h-4.28v10.699h-4.78v-27.359H250.559L250.559,528.289z
		 M257.769,536.59c0-1.15-0.35-2.131-1.05-2.891c-0.68-0.75-1.56-1.221-2.6-1.41c-0.73-0.139-2.12-0.199-4.261-0.199h-3.3v9.051
		h3.67c2.37,0,3.92-0.16,4.76-0.48c0.86-0.34,1.551-0.859,2.04-1.58C257.519,538.369,257.769,537.53,257.769,536.59z"/>
	<path fill="#F8C600" d="M216.789,549.59c1.6,1.76,3.64,2.65,6.09,2.65c2.439,0,4.479-0.893,6.05-2.631
		c1.56-1.73,2.35-4.342,2.35-7.74c0-3.359-0.77-5.92-2.29-7.609c-1.54-1.699-3.59-2.561-6.109-2.561c-2.53,0-4.59,0.871-6.141,2.59
		c-1.54,1.711-2.319,4.291-2.319,7.66C214.419,545.28,215.219,547.85,216.789,549.59z M222.818,527.811
		c4.061,0,7.351,1.25,9.78,3.729c2.43,2.49,3.66,6.012,3.66,10.471c0,4.42-1.22,7.92-3.63,10.4c-2.41,2.471-5.681,3.721-9.74,3.721
		c-4.1,0-7.4-1.24-9.81-3.711c-2.41-2.461-3.631-5.92-3.631-10.279c0-2.801,0.431-5.182,1.271-7.061c0.62-1.391,1.49-2.65,2.57-3.75
		c1.069-1.09,2.26-1.91,3.54-2.439C218.549,528.17,220.559,527.811,222.818,527.811z"/>
	<polygon fill="#F8C600" points="207.159,528.289 207.159,532.051 193.528,532.051 193.528,555.651 188.738,555.651 
		188.738,528.289 	"/>
	<path fill="#F8C600" d="M169.488,527.811c4.061,0,7.351,1.25,9.78,3.729c2.43,2.49,3.66,6.012,3.66,10.471
		c0,4.42-1.22,7.92-3.63,10.4c-2.41,2.471-5.68,3.721-9.73,3.721c-4.109,0-7.409-1.24-9.81-3.711c-2.41-2.461-3.64-5.92-3.64-10.279
		c0-2.801,0.43-5.182,1.27-7.061c0.62-1.391,1.49-2.65,2.57-3.75c1.08-1.09,2.27-1.91,3.54-2.439
		C165.219,528.17,167.229,527.811,169.488,527.811z M161.089,541.949c0,3.33,0.8,5.898,2.38,7.641c1.59,1.76,3.63,2.65,6.08,2.65
		c2.439,0,4.479-0.893,6.05-2.631c1.561-1.73,2.35-4.342,2.35-7.74c0-3.359-0.77-5.92-2.289-7.609
		c-1.53-1.699-3.591-2.561-6.11-2.561c-2.53,0-4.59,0.871-6.14,2.59C161.869,536,161.089,538.58,161.089,541.949z"/>
	<path fill="#F8C600" d="M141.659,539.631c2.069,0,3.8,0.25,5.149,0.738c1.3,0.479,2.44,1.381,3.37,2.682
		c0.93,1.299,1.4,2.85,1.4,4.609c0,1.799-0.471,3.357-1.4,4.629c-0.95,1.291-2.03,2.17-3.22,2.641c-1.221,0.48-3,0.721-5.3,0.721
		h-13.029v-27.361h20.43v3.762h-15.64v7.58H141.659L141.659,539.631z M146.559,547.66c0-1.49-0.55-2.602-1.649-3.303
		c-1.03-0.658-2.711-0.969-5.11-0.969h-6.38v8.5h6.13c1.86,0,3.13-0.09,3.91-0.27c0.83-0.199,1.56-0.648,2.17-1.352
		C146.249,549.561,146.559,548.68,146.559,547.66z"/>
</g>
<path d="M383.659,482.44h-75.66c-23.511,0-36.479,31.85-36.601,32.17c0,0-0.399,1.424-1.462,1.424c-0.844,0-1.328-1.424-1.328-1.424
	c-0.13-0.32-13.09-32.17-36.61-32.17h-69.28h-49.219c-16.47,0-31.48-10.379-38.62-24.719c-2.79-5.621-4.38-11.83-4.38-18.281V255.96
	c0-0.71,0.49-1.319,1.18-1.47c23.22-5.11,40.07-26.11,40.07-49.93c0-23.811-16.85-44.811-40.07-49.92
	c-0.69-0.15-1.18-0.761-1.18-1.471V31.94c0-0.83,0.67-1.5,1.5-1.5h160c13.89,0,24.43,3.59,31.33,10.68c3.54,3.63,5.54,7.6,6.68,11
	c1.16-3.45,3.19-7.47,6.761-11.1c6.899-7.021,17.409-10.58,31.229-10.58h160c0.83,0,1.5,0.67,1.5,1.5V153.17
	c0,0.71-0.49,1.32-1.17,1.471c-23.23,5.109-40.08,26.109-40.08,49.92c0,23.819,16.85,44.819,40.08,49.93
	c0.68,0.149,1.17,0.76,1.17,1.47v183.48c0,0.941-0.03,1.881-0.101,2.811c-1.56,21.721-20.93,40.189-42.899,40.189H383.659"/>
<path fill="#FFFFFF" d="M79.299,458.18c0.04-0.129,3.79-12.6,8.62-18.879c1.61-2.102,3.16-4.211,4.65-6.25
	c9.17-12.49,18.64-25.42,49.96-44.762c3.5-2.158,8.1-5.01,13.1-8.119c11.13-6.9,23.74-14.721,31.39-19.381
	c2.43-1.469,5.4-3.299,8.68-5.299c11.68-7.16,27.69-16.973,36.62-22.012c21.21-11.971,34.38-28.051,37.68-32.369
	c3.3,4.318,16.47,20.398,37.68,32.369c8.939,5.039,24.95,14.859,36.65,22.021c3.27,2,6.229,3.82,8.65,5.289
	c5.438,3.311,14.77,8.391,24.648,13.762c10.14,5.51,20.63,11.209,26.34,14.738l2.932,1.811c33.92,20.951,34.56,21.35,47.898,34.551
	c6.47,6.4,10.22,13.16,11.641,15.99c-1.239,20.379-19.369,37.799-39.939,37.799h-41.141c-1.119-4.32-5.899-20.98-16.221-32.9
	c-7.939-9.18-26.119-20.52-36.25-26.459c-4.09-2.4-9.439-4.711-15.119-7.15c-6.41-2.76-13.051-5.619-17.591-8.58
	c-20.369-13.289-29.189-31.898-29.27-32.08l-1.46-3.139l-0.44,3.43c-0.02,0.189-2.6,18.602-22.81,31.789
	c-4.53,2.961-11.17,5.82-17.59,8.58c-5.67,2.439-11.03,4.75-15.12,7.15c-10.13,5.939-28.31,17.279-36.25,26.459
	c-10.31,11.92-15.09,28.58-16.2,32.9h-47.539c-14.313,0-27.441-8.426-34.516-20.416L79.299,458.18z"/>
<path fill="#025098" d="M383.289,479.44h-75.29c-21.19,0-33.95,22.471-38,30.941c-4.05-8.471-16.8-30.941-38-30.941h-68.91
	c1.32-4.83,6.11-20.549,15.67-31.6c7.75-8.959,25.72-20.16,35.75-26.039c3.98-2.33,9.28-4.611,14.89-7.031
	c6.5-2.799,13.22-5.689,17.9-8.74c16.47-10.75,21.62-24.57,23.12-30.42c3.19,5.65,12.28,19.721,28.67,30.42
	c4.68,3.051,11.4,5.941,17.891,8.74c5.619,2.42,10.92,4.701,14.899,7.031c10.03,5.879,28,17.08,35.75,26.039
	C377.179,458.881,381.979,474.61,383.289,479.44z M255.619,262.86c2.85-0.38,5.2-1.54,7.08-2.94c-0.58,0.891-0.84,1.94-0.76,3.13
	c0.07,0.95,0.37,1.88,0.89,2.761c0.52,0.89,1.66,2.08,3.48,3.64c0.62,0.54,1.11,1.79,1.62,3.13c0.84,2.16,1.78,4.61,3.681,4.61
	c0.119,0,0.25-0.011,0.379-0.04c1.841-0.29,2.531-2.75,3.201-5.13c0.398-1.4,0.77-2.73,1.34-3.391c1.6-1.84,2.568-3.2,2.959-4.16
	c0.399-0.949,0.569-1.92,0.511-2.88c-0.05-0.81-0.25-1.529-0.61-2.16c3.53,2.65,7.94,4.57,12.17,4.58c0.012,0,0.03,0,0.04,0
	c4.052,0,8.16-2.63,10.45-4.89c4.7-4.64,9.681-8.57,14.49-12.37c3.13-2.47,6.35-5.01,9.5-7.75c4.239-3.68,8.81-6.16,14.09-9.02
	c4.62-2.511,9.87-5.351,15.53-9.46c5.039-3.66,5.96-11.23,5.25-13.65c-0.24-0.82-0.57-1.83-0.971-2.94
	c0.381,0.391,0.84,0.721,1.369,0.99c0.83,0.431,1.771,0.641,2.79,0.641c0.07,0,0.142,0,0.21,0c1.102-0.03,2.852-0.5,5.352-1.44
	c0.898-0.33,2.359-0.19,3.898-0.03c2.48,0.25,5.271,0.53,6.37-1.26c1.28-2.09-0.778-4.22-2.59-6.1c-1.06-1.09-2.06-2.12-2.3-3.011
	c-0.69-2.579-1.32-4.27-1.93-5.18c-0.621-0.91-1.381-1.61-2.271-2.07c-1.05-0.529-2.109-0.699-3.16-0.5
	c1.58-0.88,2.95-2,3.771-3.409c1.449-2.511,2.68-8.67,2.318-11.57c-0.779-6.17-4.619-15.811-8.34-25.13
	c-2.609-6.561-5.08-12.75-6.18-17.04c-0.7-2.74-1.23-6.47-1.801-10.41c-1.479-10.18-3.311-22.85-9.239-28.58
	c-1.57-1.52-5.351-3.22-8.07-3.22c-0.778,0-1.739,0.04-2.819,0.109c0.461-0.279,0.891-0.649,1.279-1.1c0.7-0.8,1.17-1.79,1.42-2.93
	c0.24-1.141,0.19-3.061-0.148-5.87c-0.12-1.01,0.39-2.47,0.938-4.021c0.882-2.479,1.87-5.29,0.29-6.87
	c-1.84-1.84-4.55-0.26-6.938,1.141c-1.392,0.82-2.71,1.59-3.69,1.609c-2.83,0.061-4.729,0.29-5.83,0.69
	c-1.09,0.4-2,1.021-2.699,1.82c-0.971,1.12-1.41,2.399-1.311,3.79c-1.1-4.09-3.38-8.101-7.99-9.12
	c-8.33-1.84-17.358-0.74-26.09,0.33c-5.188,0.64-10.13,1.25-14.81,1.25c-0.24,0-0.49-0.011-0.74-0.011
	c-4.58,0.07-9.77-0.529-15.25-1.149c-9.98-1.14-20.3-2.311-28.82,0.17c-5.47,1.59-8.12,6.68-8.84,8.29c-0.13-0.2-0.28-0.4-0.45-0.59
	c-0.74-0.851-1.7-1.5-2.86-1.931c-1.16-0.43-3.18-0.67-6.18-0.739c-1.04-0.021-2.44-0.84-3.92-1.7c-2.53-1.48-5.41-3.16-7.36-1.21
	c-1.67,1.67-0.62,4.66,0.31,7.28c0.58,1.649,1.12,3.199,0.99,4.27c-0.36,2.98-0.41,5.021-0.15,6.23c0.26,1.21,0.76,2.25,1.5,3.109
	c0.86,0.99,1.89,1.61,3.07,1.84c-2.68,0.141-6.21,1.761-7.71,3.21c-5.93,5.73-7.76,18.4-9.24,28.591
	c-0.57,3.939-1.11,7.659-1.8,10.399c-1.17,4.59-4.37,10.69-7.76,17.141c-4.14,7.88-8.42,16.029-9.15,21.89
	c-0.37,2.899,0.87,9.07,2.32,11.58c0.86,1.49,2.35,2.689,4.04,3.66c-0.89-0.061-1.77,0.13-2.65,0.58
	c-0.89,0.46-1.65,1.149-2.26,2.06c-0.62,0.92-1.25,2.61-1.94,5.18c-0.24,0.891-1.24,1.92-2.3,3.021c-1.81,1.87-3.87,4-2.59,6.09
	c1.1,1.8,3.9,1.52,6.37,1.26c1.54-0.149,3-0.3,3.9,0.04c2.5,0.93,4.25,1.4,5.35,1.43c0.07,0.011,0.14,0.011,0.21,0.011
	c1.02,0,1.96-0.221,2.79-0.65c0.67-0.34,1.22-0.78,1.64-1.3c-0.16,0.439-0.29,0.85-0.4,1.21c-0.82,2.77-1.41,7.83,3.77,10.63
	l3.36,1.8c11.58,6.221,21.58,11.59,28.98,18.01c2.49,2.171,5.07,4.78,7.79,7.54c6.1,6.16,12.4,12.54,19.14,15.49
	c0.68,0.3,6.36,2.73,9.91,2.73C255.089,262.9,255.359,262.89,255.619,262.86z M466.499,257.15V437.53
	c-2.04-3.49-5.4-8.449-10.3-13.301c-13.49-13.369-14.8-14.17-48.251-34.83l-2.92-1.811c-5.76-3.561-16.279-9.27-26.449-14.801
	c-9.42-5.119-19.16-10.42-24.562-13.699c-2.42-1.48-5.38-3.289-8.648-5.289c-11.7-7.182-27.74-17-36.71-22.061
	c-24.171-13.641-37.71-32.679-37.841-32.87l-0.819-1.17l-0.82,1.17c-0.13,0.19-13.65,19.219-37.84,32.87
	c-8.96,5.049-24.99,14.869-36.69,22.039c-3.27,2.01-6.24,3.83-8.67,5.311c-7.66,4.66-20.27,12.48-31.4,19.381
	c-5.01,3.102-9.6,5.959-13.11,8.119c-31.64,19.551-41.23,32.631-50.51,45.279c-1.49,2.031-3.03,4.131-4.63,6.211
	c-4.3,5.59-7.65,15.43-8.65,18.561c-2.66-5.27-4.18-11.131-4.18-17.201V257.15c23.97-5.86,41.25-27.78,41.25-52.59
	c0-24.801-17.28-46.721-41.25-52.58V33.44h158.5c12.99,0,22.78,3.26,29.1,9.68c6.9,7.021,7.37,15.59,7.4,17.18
	c0,0.16,0,0.271,0,0.301c0.01,0.39,0.16,0.76,0.43,1.029c0.43,0.44,1.09,0.57,1.66,0.33c0.56-0.24,0.931-0.8,0.91-1.42
	c0,0,0-0.01,0-0.04c0-0.02,0-0.04,0-0.07c0.01-1.1,0.31-10.05,7.36-17.26c6.31-6.46,16.121-9.729,29.14-9.729h158.5v118.54
	c-23.971,5.859-41.25,27.779-41.25,52.58C425.249,229.37,442.528,251.29,466.499,257.15z"/>
<path fill="#F8C600" d="M187.629,190.6c1.43,0,2.59,0.22,3.08,0.329c-0.27,0.53-1.02,1.851-2.26,3.141c-0.02,0-0.04,0.01-0.05,0.03
	c-0.02,0.02-0.04,0.05-0.05,0.069c-0.82,0.84-1.86,1.65-3.11,2.2c-2.4,1.06-4.33,1.58-5.73,1.53c-0.01,0.01-0.02,0.01-0.03,0
	c-0.21-0.03-0.43-0.05-0.68-0.07c-0.71-0.14-1.24-0.47-1.56-1c-0.26-0.43-0.32-0.84-0.19-1.26c0.02-0.061,0.04-0.12,0.07-0.18h0.01
	c0.08-0.141,0.16-0.28,0.24-0.421c0-0.01,0.01-0.01,0.01-0.02c0.91-1.23,3.23-2.38,5.66-3.45c0.32-0.14,0.65-0.27,0.99-0.37
	C185.129,190.78,186.339,190.6,187.629,190.6z M234.359,167.98c8.03-3.45,15.82-3.28,17.39,0.37c1.58,3.659-3.66,9.43-11.7,12.88
	c-3.38,1.46-6.72,2.27-9.57,2.449c-3.92,0.25-6.91-0.699-7.82-2.819c-0.52-1.21-0.29-2.641,0.53-4.15
	c3.01-2.149,6.15-4.76,8.44-7.41c0,0,0,0,0.01-0.01C232.499,168.83,233.409,168.39,234.359,167.98z M248.779,169.16
	c-0.38-0.75-1.38-1.15-2.88-1.15c-2.79,0-7.01,1.301-11.29,3.48c-3.21,1.64-6.04,3.57-7.97,5.43c-1.99,1.92-2.78,3.58-2.23,4.67
	c0.38,0.75,1.38,1.15,2.88,1.15c2.79,0,7.01-1.3,11.28-3.48C245.409,175.77,249.889,171.34,248.779,169.16z M244.909,136.61
	c-2.69-3.44-4.57-7.03-5.47-10.16c-1.06-3.61-0.82-6.6,0.96-7.99c1.84-1.439,4.94-0.87,8.32,1.19c2.71,1.66,5.61,4.27,8.2,7.58
	c5.81,7.439,7.83,15.569,4.51,18.16c-0.77,0.6-1.77,0.85-2.91,0.789C254.749,145.95,249.359,142.31,244.909,136.61z M246.499,134.28
	c4.03,4.649,8.55,7.899,11,7.899c0.51,0,0.93-0.14,1.25-0.409c0.92-0.801,0.81-2.63-0.31-5.17c-1.09-2.45-2.98-5.301-5.35-8.03
	c-4.02-4.65-8.55-7.9-10.99-7.9c-0.52,0-0.94,0.141-1.25,0.42c-0.92,0.79-0.81,2.63,0.31,5.16
	C242.239,128.7,244.139,131.55,246.499,134.28z M354.269,200.61c-1.3,2.74-5.93,7.859-7.72,9.04c-3.479,2.279-9.91,4.54-16.12,6.72
	c-6.66,2.34-13.54,4.76-17.238,7.33c-3.771,2.62-7.4,7.28-10.91,11.79c-2.63,3.39-5.11,6.58-7.562,8.83
	c-2.979,2.75-11.738,4.5-11.818,4.51l0.09,0.48c-1.392-0.601-2.61-1.551-3.11-3.08c-3.649-11.2-3.851-21.091-3.38-27.42
	c0.46-6.171,3.54-19.48,8.58-22.271c0.76-0.42,1.68-0.63,2.729-0.63c7.602,0,19.65,10.94,19.771,11.05
	c0.2,0.18,0.489,0.18,0.68-0.01c0.19-0.18,0.21-0.47,0.05-0.68c-3.529-4.311-11.979-16.301-8.77-19.83
	c2.75-3.03,6.439-4.5,11.27-4.5c2.881,0,5.721,0.52,8,0.939c0.922,0.17,1.762,0.33,2.5,0.431c7.881,1.109,24.46,7.239,30.36,13.109
	C353.099,197.85,353.899,199.27,354.269,200.61z M354.179,193.52c2.79,3.409,5.24,10.09,6.25,13.489
	c0.66,2.25-0.29,9.641-5.06,13.101c-5.64,4.09-10.87,6.93-15.48,9.43c-5.31,2.88-9.89,5.36-14.18,9.09
	c-3.14,2.721-6.36,5.271-9.47,7.73c-4.83,3.8-9.82,7.74-14.541,12.399c-2.229,2.2-6.199,4.75-10.101,4.75c-0.01,0-0.02,0-0.04,0
	c-7.399-0.02-15.39-6.04-17.93-11.42c-0.011-0.029-0.029-0.06-0.062-0.08c-0.56-3.229-2.5-5.56-2.59-5.67l-0.209-0.239l-0.179,0.26
	c-0.09,0.109-1.81,2.5-2.26,5.74c0,0-0.01,0.01-0.01,0.029c-0.27,0.61-4.15,9.09-12.77,10.23c-2.49,0.33-7.19-1.22-10.45-2.65
	c-6.66-2.91-12.92-9.25-18.979-15.38c-2.73-2.77-5.32-5.39-7.83-7.57c-7.43-6.449-17.46-11.84-29.07-18.069l-3.35-1.8
	c-4.63-2.5-4.47-6.841-3.53-10.051c0.85-2.859,3.48-8.79,6.45-12.42c0.02-0.029,0.03-0.06,0.04-0.1c1.59-1.65,2.36-3.34,2.41-3.45
	l0.1-0.229l-0.25-0.07c-0.06-0.021-1.49-0.41-3.46-0.41c-1.29,0-2.5,0.17-3.61,0.5c-0.01,0-0.03-0.01-0.04-0.01
	c-0.11-0.021-10.94-1.76-13.85-6.79c-1.38-2.391-2.6-8.5-2.26-11.26c0.73-5.78,4.98-13.881,9.1-21.721
	c3.4-6.489,6.62-12.609,7.8-17.25c0.71-2.77,1.25-6.51,1.82-10.46c1.46-10.109,3.28-22.689,9.08-28.3c1.48-1.42,5.17-3.08,7.73-3.08
	c2.92,0,8.55,1.8,13,3.63c1.98,1.03,3.7,1.36,3.82,1.38l0.28,0.061l0.01-0.29c0-0.09,0.04-1.061-0.17-2.44
	c-0.01-0.02-0.01-0.029-0.01-0.05c-0.11-0.7-0.28-1.52-0.55-2.38c0-0.01-0.01-0.03-0.02-0.06c-0.78-3.561-1.65-8.091-1.65-10.82
	c0.54-0.771,0.85-1.66,0.92-2.65c0.08-1.029-0.13-2.01-0.62-2.899c0.37-0.92,2.89-6.66,8.66-8.341
	c8.43-2.449,18.69-1.279,28.62-0.149c5.5,0.62,10.69,1.22,15.31,1.149c4.95,0.07,10.12-0.569,15.61-1.239
	c8.688-1.061,17.68-2.17,25.919-0.351c9.711,2.15,8.591,18.42,8.58,18.58c0,0.04,0,0.08,0.021,0.11
	c-2.011,3.36-1.899,7.12-1.89,7.29l0.01,0.28l0.27-0.051c0.16-0.029,3.461-0.67,6.141-3.01c0.021,0,0.031,0,0.051-0.01
	c2.4-1.01,5.87-1.68,9.021-2.061c0.1,0,0.198,0,0.31-0.01c0.229-0.02,0.45-0.05,0.659-0.09c1.689-0.18,3.25-0.26,4.439-0.26
	c2.561,0,6.25,1.649,7.73,3.08c5.8,5.609,7.619,18.189,9.08,28.29c0.568,3.96,1.108,7.689,1.818,10.46
	c1.102,4.319,3.58,10.529,6.2,17.109c3.7,9.29,7.53,18.9,8.3,25c0.352,2.771-0.88,8.87-2.26,11.271
	c-2.898,5.01-13.72,6.22-13.83,6.229c-0.029,0-0.061,0.011-0.09,0.021c-0.88-0.19-1.811-0.29-2.79-0.29
	c-1.97,0-3.399,0.399-3.46,0.41l-0.25,0.069l0.109,0.24c0.051,0.13,1.16,2.53,3.431,4.41
	C354.129,193.45,354.149,193.49,354.179,193.52z M239.159,112.55c2.08,1.96,5.69,4.74,9.58,7.07l-0.02,0.03
	c-3.38-2.061-6.48-2.63-8.32-1.19c-1.78,1.391-2.02,4.38-0.96,7.99l-0.14,0.04c-0.19-0.69-0.41-1.33-0.65-1.91
	c-2.95-7.1-12.93-20.01-20.13-22.61c-1.35-0.489-2.72-0.739-4.05-0.739c-2.85,0-5.59,1.17-7.51,3.199
	c-4.01,4.23-5.38,13.841-6.59,22.32c-0.7,4.91-1.36,9.561-2.44,12.63c-1.2,3.4-3.73,7.88-6.4,12.62c-4.3,7.61-9.16,16.23-9.42,22.24
	c-0.08,1.979,0.65,4.729,2.04,7.14c1.27,2.181,3.08,4.08,5.34,4.88c2.19,0.78,4.54,1.17,6.96,1.17c7.4,0,14.43-3.67,19.08-6.09
	l1.27-0.66c1.74-0.899,4.03-2.289,6.39-3.97c-0.82,1.51-1.05,2.94-0.53,4.15c0.91,2.12,3.9,3.069,7.82,2.819v0.091
	c-3.31,0.18-6.41,0.5-8.48,0.79c-7.62,1.069-23.69,5.76-28.12,12.22c-1.58,2.3-1.83,5.09-1.43,7.649c0.34,2.25,1.19,4.32,2.07,5.73
	c3.09,4.95,12.04,8.69,19.94,11.99c4.59,1.91,8.92,3.72,11.61,5.54c3.27,2.21,6.48,6.239,9.87,10.51
	c4.65,5.86,9.47,11.92,14.89,13.58c0.87,0.27,1.97,0.41,3.16,0.41c1.88,0,4.19-0.37,6.26-1.301c1.61-0.71,3.07-1.76,4.07-3.22
	c6.66-9.81,6.22-22.27,4.92-28.09c-0.27-1.2-0.54-2.8-0.86-4.65c-0.59-3.43-1.27-7.449-2.27-11.04l0.26-0.069
	c1.27,4.569,3.561,7.62,6.17,7.62c2.369,0,4.47-2.5,5.79-6.36l0.13,0.04c-1.79,5.13-2.75,10.85-2.96,13.62
	c-0.479,6.41-0.271,16.45,3.43,27.8c1.44,4.41,7.642,4.75,9.511,4.75c1.51,0,2.979-0.18,4.041-0.51
	c5.42-1.66,10.238-7.72,14.89-13.58c3.39-4.271,6.6-8.3,9.869-10.51c2.99-2.021,8.439-4.13,14.211-6.37
	c8.648-3.37,17.6-6.84,21.18-10.931c1.47-1.68,5.811-7.64-0.25-13.68c-6.04-6.01-22.93-12.26-30.939-13.39
	c-0.721-0.101-1.551-0.25-2.449-0.42c-1.78-0.33-3.9-0.721-6.131-0.88l0.021-0.311c3.771,0.25,6.66-0.649,7.59-2.7
	c0.79-1.729,0.021-3.979-1.87-6.25c3.2,2.381,6.352,4.351,8.32,5.36c0.82,0.42,1.72,0.92,2.689,1.46
	c4.83,2.67,11.439,6.32,18.42,6.32c2.149,0,4.24-0.36,6.201-1.05c1.51-0.54,2.81-1.66,3.879-3.07c2.359-3.11,3.601-7.58,3.5-10.101
	c-0.26-6-5.129-14.63-9.42-22.239c-2.681-4.74-5.209-9.221-6.41-12.62c-1.061-3.021-1.829-7.9-2.641-13.07
	c-1.46-9.32-3.109-19.88-7.148-24.149c-1.2-1.271-3.12-2.15-5.32-2.471c-0.63-0.1-1.29-0.149-1.96-0.149
	c-1.72,0-3.45,0.31-5.13,0.91c-7.4,2.67-16.92,17.329-19.74,24.109c-0.41,0.99-0.76,2.17-1.029,3.46
	c0.221-1.97-0.189-3.63-1.32-4.71c-2.21-2.13-6.569-1.41-10.96,1.44l-0.09-0.15c4.359-2.649,8.229-6.08,8.899-6.689
	c5.7-5.171,16.37-18.07,16.41-25.91c0.02-2.82-1.38-5.3-3.189-7.2l0.021-0.05c-0.011,0-0.04-0.011-0.091-0.03
	c-1.521-1.59-3.319-2.78-4.789-3.43c-1.682-0.74-3.811-1.101-6.53-1.101c-4.979,0-10.939,1.21-16.7,2.38
	c-4.87,0.99-9.47,1.92-12.778,1.931c-3.602,0-8.642-0.88-13.98-1.8c-6.18-1.08-12.58-2.19-17.89-2.19c-2.52,0-4.55,0.25-6.22,0.76
	c-1.9,0.58-4.24,2.19-6.04,4.33c-1.63,1.91-2.81,4.26-2.81,6.65c0,10.489,8.04,17.96,13.37,22.89L239.159,112.55z M237.729,124.96
	c1.89,4.55,2.5,13.34-0.78,17.33c-2.22,2.69-7.37,3.26-11.31,3.26c-2.66,0-4.72-0.27-4.74-0.27c-0.23-0.03-0.46,0.1-0.54,0.32
	c-0.08,0.22,0.01,0.47,0.2,0.59c0.16,0.1,15.27,9.85,13.33,17.43c-0.65,2.53-3.13,5.46-6.14,8.16c-0.75,0.56-1.43,1.14-2.03,1.729
	c-0.01,0-0.01,0.011-0.02,0.021c-3.34,2.7-6.95,5.02-9.36,6.26l-1.27,0.66c-4.84,2.52-11.47,5.979-18.62,5.979
	c-2.31,0-4.54-0.369-6.63-1.119c-1.97-0.7-3.5-2.25-4.59-4.03c0.07-1.08,0.63-8.601,1.63-11.15c1.39-3.54,4.88-8.35,8.26-13
	c3.56-4.91,7.25-9.979,8.66-13.81c1.56-4.22,1.85-10.91,2.14-17.38c0.27-6.08,0.55-12.38,1.88-16.32c0.71-2.07,3.76-6.42,3.8-6.46
	l-0.46-0.33c1.05-0.39,2.18-0.6,3.33-0.6c1.22,0,2.46,0.229,3.71,0.68C225.149,105.429,234.839,118.02,237.729,124.96z
	 M265.899,258.49c1.73-0.13,2.3,0.45,3.31,1.91c0.07,0.12,0.14,0.21,0.221,0.3c0.319,0.4,0.729,0.62,1.26,0.62
	c0.109,0,0.209-0.01,0.319-0.03c0.63-0.1,1.16-0.47,1.57-1.09c0.021-0.021,0.03-0.04,0.04-0.06c0.15-0.23,0.279-0.49,0.39-0.79
	c0.021-0.03,0.03-0.061,0.04-0.091c0.57-1.09,0.95-1.42,2.439-1.54c1.051-0.09,1.939,0.23,2.721,0.98
	c0.779,0.74,1.21,1.72,1.29,2.93c0.06,0.87-0.101,1.771-0.47,2.65c-0.371,0.89-1.34,2.24-2.881,4.02
	c-0.641,0.74-1.029,2.12-1.439,3.591c-0.6,2.119-1.279,4.529-2.801,4.77c-1.771,0.29-2.649-2.03-3.509-4.26
	c-0.54-1.4-1.04-2.71-1.76-3.32c-1.76-1.51-2.89-2.7-3.38-3.52c-0.48-0.811-0.76-1.67-0.82-2.551c-0.08-1.199,0.22-2.25,0.9-3.109
	C264.009,259.04,264.849,258.58,265.899,258.49z M240.239,237.11c2.65,3.41,5.16,6.64,7.67,8.95c2.4,2.21,7.95,3.739,10.71,4.399
	c-1.58,0.51-3.23,0.73-4.63,0.73c-1.1,0-2.09-0.13-2.87-0.36c-5.12-1.58-9.84-7.51-14.4-13.25c-3.44-4.33-6.69-8.42-10.09-10.72
	c-2.78-1.87-7.15-3.7-11.78-5.63c-7.76-3.25-16.56-6.92-19.479-11.601c-0.6-0.96-1.19-2.26-1.58-3.7
	c1.54,1.811,4.09,4.671,5.42,5.551c3.55,2.34,9.27,4.6,14.8,6.79c5.86,2.33,11.93,4.739,15.54,7.25
	C233.189,228.05,236.769,232.66,240.239,237.11z M308.009,167.59c-3.74-1.89-7.54-3.02-10.149-3.02c-1.59,0-2.649,0.43-3.061,1.24
	c-0.54,1.09,0.16,2.689,1.971,4.51c1.75,1.76,4.351,3.56,7.319,5.05c3.75,1.89,7.54,3.021,10.15,3.021c1.59,0,2.648-0.431,3.06-1.24
	c0.55-1.08-0.149-2.681-1.97-4.51C313.579,170.88,310.979,169.09,308.009,167.59z M291.619,164.95c1.64-3.63,9.43-3.65,17.399-0.04
	c1.42,0.65,2.76,1.36,3.979,2.13c1.71,1.66,3.67,3.26,5.6,4.72c1.892,2.271,2.66,4.521,1.87,6.25c-0.93,2.051-3.818,2.95-7.59,2.7
	c-2.91-0.2-6.34-1.09-9.811-2.66C295.099,174.44,289.98,168.58,291.619,164.95z M269.749,260.3c-0.05-0.069-0.09-0.13-0.13-0.189
	c-0.02-0.01-0.03-0.03-0.03-0.04c-0.7-1.2-0.85-3.68-0.88-6.311c-0.01-0.54,0.03-1.06,0.11-1.569c0.35-2.521,1.52-4.54,1.98-5.261
	c0.62,0.83,2.391,3.511,2.43,6.73c0.021,1.88-0.1,4-0.648,5.44c-0.012,0.029-0.021,0.05-0.04,0.069c-0.08,0.16-0.16,0.33-0.25,0.51
	l-0.091,0.181c-0.319,0.51-0.729,0.85-1.27,0.939C270.43,260.88,270.039,260.69,269.749,260.3z M298.009,118.94
	c-2.33,0-6.26,3.09-9.54,7.529c-4.05,5.471-5.689,10.9-3.72,12.36c0.319,0.24,0.72,0.36,1.18,0.36c2.341,0,6.271-3.101,9.552-7.54
	c1.898-2.57,3.35-5.25,4.068-7.55c0.75-2.381,0.63-4.08-0.35-4.801C298.879,119.06,298.48,118.94,298.009,118.94z M296.789,135.6
	c-5.631,5.859-12.631,8.26-15.65,5.359c-3.029-2.91-0.92-10,4.7-15.859c1.5-1.561,3.101-2.881,4.69-3.91
	c4.39-2.851,8.75-3.57,10.96-1.44c1.13,1.08,1.539,2.74,1.318,4.71c-0.1,0.48-0.188,0.97-0.26,1.48
	C301.81,128.96,299.809,132.46,296.789,135.6z M357.209,189.06c0.59,0.14,1.149,0.33,1.68,0.56c2.42,1.06,4.73,2.21,5.642,3.43
	c0.09,0.15,0.18,0.311,0.27,0.471h0.01c0.03,0.06,0.051,0.119,0.07,0.18c0.13,0.42,0.07,0.83-0.189,1.25
	c-0.33,0.54-0.869,0.88-1.609,1.01c-0.09,0.021-0.18,0.03-0.271,0.03c-0.13,0.01-0.25,0.02-0.369,0.03
	c-0.011,0.01-0.021,0.01-0.029,0c-1.4,0.05-3.32-0.471-5.721-1.521c-0.789-0.35-1.5-0.8-2.119-1.3
	c-0.012-0.01-0.012-0.01-0.021-0.021c-1.88-1.52-2.99-3.449-3.33-4.119c0.5-0.12,1.65-0.341,3.08-0.341
	C355.329,188.719,356.299,188.83,357.209,189.06z M377.019,197.04c1.78,1.851,3.631,3.76,2.53,5.561c-0.95,1.55-3.49,1.3-5.938,1.05
	c-1.602-0.16-3.102-0.32-4.102,0.06c-2.42,0.9-4.18,1.38-5.21,1.41s-1.97-0.17-2.79-0.6c-1.13-0.58-1.898-1.45-2.26-2.591
	c-0.37-1.14-0.27-2.27,0.29-3.35c0.85-1.65,1.399-1.93,2.87-2.1c0.289-0.011,0.55-0.03,0.8-0.08c0.01,0,0.03-0.01,0.05-0.01
	c0.82-0.171,1.42-0.57,1.811-1.211c0.33-0.529,0.399-1.069,0.229-1.619c-0.021-0.07-0.05-0.15-0.09-0.221
	c-0.07-0.17-0.17-0.34-0.3-0.51c-0.86-1.52-1.18-2.36-0.28-4.11c0.562-1.079,1.43-1.819,2.569-2.18
	c1.141-0.36,2.301-0.25,3.431,0.33c0.83,0.42,1.53,1.07,2.11,1.92c0.568,0.851,1.199,2.55,1.869,5.04
	C374.879,194.83,375.919,195.9,377.019,197.04z M360.61,170.719c0.08,1.971-0.762,5.341-2.371,8.08
	c0.25-3.02,0.561-8.87-0.439-12.54c-1.12-4.14-5.12-9.439-8.979-14.569c-3.45-4.561-6.7-8.88-7.95-12.271
	c-1.5-4.08-1.79-10.689-2.08-17.08c-0.271-6.16-0.55-12.52-1.931-16.6c-0.601-1.73-3.939-6.39-5.471-8.46
	c1.61,0.36,2.971,1.05,3.87,2c3.83,4.05,5.46,14.45,6.899,23.62c0.811,5.22,1.58,10.14,2.681,13.25c1.229,3.479,3.78,8,6.479,12.779
	C355.549,156.45,360.36,164.96,360.61,170.719z M356.829,166.52c1.229,4.51,0.369,12.859,0.24,13.979
	c-0.91,1.101-1.972,1.97-3.182,2.4c-1.85,0.66-3.818,1-5.859,1c-6.721,0-13.199-3.58-17.931-6.2c-0.979-0.54-1.89-1.04-2.729-1.47
	c-5.779-2.971-17.311-11.41-18.719-16.91c-1.94-7.561,14.31-16.58,14.469-16.67c0.211-0.11,0.311-0.36,0.24-0.59
	c-0.069-0.21-0.271-0.341-0.479-0.341c-0.021,0-0.04,0-0.06,0c-0.012,0-0.57,0.061-1.49,0.131c-0.92,0.069-2.19,0.13-3.62,0.13
	c-4.32,0-9.931-0.57-12.16-3.271c-3.29-4-2.67-12.78-0.78-17.33c2.762-6.64,12.021-20.97,19.15-23.55c1.57-0.56,3.18-0.85,4.79-0.85
	c0.43,0,0.86,0.02,1.271,0.069c0.829,1.12,5.289,7.141,5.93,9.021c1.341,3.939,1.609,10.229,1.881,16.31
	c0.29,6.471,0.59,13.16,2.14,17.38c1.302,3.54,4.601,7.91,8.091,12.53C351.829,157.34,355.759,162.57,356.829,166.52z
	 M354.509,202.219c0.12,2.91-1.58,5.311-2.64,6.521c-3.41,3.89-12.64,7.479-20.79,10.64c-5.82,2.261-11.32,4.4-14.4,6.48
	c-3.398,2.3-6.648,6.39-10.09,10.72c-4.561,5.74-9.28,11.67-14.399,13.25c-0.971,0.29-2.341,0.46-3.75,0.46
	c-0.859,0-2.74-0.07-4.539-0.649c2.289-0.511,8.84-2.131,11.5-4.58c2.51-2.311,5.02-5.54,7.669-8.95
	c3.471-4.45,7.051-9.061,10.689-11.59c3.59-2.5,10.4-4.891,17-7.2c6.561-2.311,12.76-4.49,16.34-6.84
	C348.749,209.4,352.629,205.219,354.509,202.219z M340.769,66.26c1.36,1.37,0.471,3.92-0.398,6.381
	c-0.57,1.6-1.102,3.119-0.971,4.239c0.33,2.71,0.381,4.641,0.149,5.71c-0.22,1.061-0.66,1.98-1.3,2.721
	c-0.69,0.79-1.49,1.31-2.41,1.54c-0.439,0.04-0.898,0.09-1.359,0.14c-1.051-0.03-2-0.42-2.83-1.14
	c-1.489-1.29-1.721-1.95-1.529-3.49c0.07-0.32,0.08-0.65,0.08-0.931c0-0.01,0-0.069,0-0.069h-0.01c0.02-0.94-0.132-1.55-0.701-2.11
	c-0.431-0.43-0.92-0.6-1.471-0.6c-0.13,0-0.26,0.04-0.39,0.06V78.7l-0.05,0.01c-0.03,0.01-0.051,0.01-0.07,0.021
	c-0.109,0.02-0.22,0.06-0.33,0.1c-1.87,0.54-2.85,0.7-4.47-0.7c-0.97-0.84-1.521-1.91-1.61-3.18c-0.09-1.271,0.32-2.43,1.2-3.45
	c0.642-0.74,1.479-1.31,2.5-1.689c1.03-0.37,2.94-0.601,5.681-0.66c1.101-0.021,2.471-0.82,3.92-1.67
	C336.749,66.1,339.179,64.679,340.769,66.26z M329.19,79.64c0.5,0.5,0.658,1.159,0.618,1.909c-0.04,0.261-0.079,0.511-0.108,0.74
	c-0.381,1.72-1.7,3.771-3,5.47c-0.4,0.521-0.84,0.98-1.312,1.381c-2.188,1.909-4.88,2.67-5.739,2.88
	c0.021-0.95,0.159-4.11,1.851-6.88c0.06-0.04,0.1-0.101,0.11-0.181c0.148-0.229,0.31-0.46,0.479-0.689
	c1.74-2.25,3.46-4.36,4.96-4.96c0.16-0.051,0.319-0.101,0.319-0.15v-0.01c0.451,0,0.561-0.01,0.561-0.01
	C328.339,79.15,328.86,79.31,329.19,79.64z M314.979,172.99c1.631,1.64,2.311,3.07,1.869,3.939c-0.398,0.79-1.64,0.961-2.609,0.961
	c-2.529,0-6.239-1.11-9.92-2.961c-2.92-1.479-5.479-3.239-7.189-4.96c-1.63-1.64-2.31-3.069-1.88-3.93c0.4-0.8,1.64-0.97,2.609-0.97
	c2.54,0,6.251,1.109,9.931,2.97C310.709,169.51,313.259,171.27,314.979,172.99z M311.849,81.92c1.641,1.74,2.91,3.98,2.9,6.521
	c-0.04,7.43-10.67,20.26-16.091,25.17c-3.93,3.56-11.899,9.59-16.771,9.59c-0.54,0-1.04-0.07-1.47-0.23
	c-5.54-2-8.148-16.47-8.18-16.619c-0.041-0.24-0.25-0.41-0.49-0.41c0,0,0,0-0.01,0c-0.24,0-0.45,0.18-0.48,0.42
	c-0.029,0.16-2.54,15.88-10.31,16.58c-0.19,0.02-0.39,0.029-0.59,0.029c-6.04,0-16.51-7.38-20.52-11.14l-1.04-0.979
	c-5.2-4.82-13.05-12.101-13.05-22.16c0-2.08,0.95-4.03,2.26-5.66c1.02-0.28,8.3-2.23,11.06-2.17c3.8,0.12,9.5,1.84,15.01,3.46
	c5.82,1.72,11.83,3.62,15.92,3.62c0.05,0,0.11,0,0.17,0c4.49,0,10.8-2.19,16.91-4.061c5.83-1.779,11.85-3.939,16.01-3.939
	c0.021,0,0.04,0,0.05,0C305.049,79.94,310.289,81.46,311.849,81.92z M313.879,145.38l-23.99,12.2c0.852-1.14,1.28-2.57,1.141-4.08
	c-0.26-2.649-2.189-4.74-4.699-5.24l0.029-0.13L313.879,145.38z M310.278,80.49c-2.271-0.66-5.609-1.55-7.141-1.55
	c-0.02,0-0.04,0-0.06,0c-4.311,0-10.4,2.1-16.29,3.899c-6.12,1.88-12.472,3.971-16.78,3.931c-3.95-0.04-9.9-1.79-15.65-3.49
	c-5.57-1.64-11.33-3.33-15.26-3.46c-2.27-0.08-7.22,1.13-9.82,1.82c1.57-1.511,3.34-2.58,4.62-2.971c1.56-0.479,3.5-0.72,5.92-0.72
	c5.23,0,11.58,1.1,17.72,2.17c5.38,0.94,10.46,1.82,14.21,1.82c3.351-0.011,8-0.95,12.92-1.95c5.71-1.16,11.62-2.36,16.5-2.36
	c2.58,0,4.58,0.33,6.13,1.021C308.209,79.06,309.259,79.679,310.278,80.49z M298.908,119.7c0.771,0.57,0.841,2.12,0.171,4.25
	c-0.71,2.24-2.13,4.87-4,7.41c-3.15,4.24-6.99,7.33-9.15,7.33c-0.35,0-0.649-0.09-0.89-0.261c-1.68-1.25,0.08-6.59,3.83-11.659
	c3.148-4.25,6.99-7.33,9.14-7.33C298.369,119.44,298.669,119.52,298.908,119.7z M286.249,170.719l10.42,23.54l-18.17-19.04
	c0.61,0.21,1.26,0.32,1.93,0.32c1.19,0,2.341-0.35,3.33-1.02C285.068,173.62,285.959,172.27,286.249,170.719z M290.029,153.6
	c0.26,2.71-1.73,5.119-4.45,5.38c-0.16,0.02-0.312,0.02-0.47,0.02c-2.521,0-4.67-1.91-4.91-4.47c-0.26-2.71,1.729-5.12,4.449-5.38
	c0.159-0.021,0.319-0.021,0.471-0.021C287.639,149.13,289.789,151.04,290.029,153.6z M284.499,166.83c1.54,2.25,0.95,5.33-1.3,6.86
	c-0.852,0.58-1.82,0.85-2.771,0.85c-1.58,0-3.14-0.75-4.09-2.16c-1.53-2.25-0.95-5.319,1.311-6.859
	c0.851-0.58,1.811-0.851,2.771-0.851C281.999,164.67,283.549,165.42,284.499,166.83z M279.759,195.61c0,3.55-0.528,6.83-1.43,9.47
	c-1.32,3.86-3.421,6.36-5.79,6.36c-2.609,0-4.9-3.05-6.17-7.62c-0.66-2.4-1.04-5.21-1.04-8.21c0-8.75,3.23-15.84,7.21-15.84
	C276.529,179.77,279.759,186.86,279.759,195.61z M275.839,203.89c0.761-2.271,1.14-5.271,1.101-8.45
	c-0.101-6.73-2.08-11.99-4.541-11.99c-1.209,0.01-2.31,1.32-3.088,3.67c-0.75,2.26-1.14,5.271-1.09,8.45
	c0.1,6.72,2.08,11.99,4.509,11.99h0.03C273.969,207.54,275.068,206.24,275.839,203.89z M271.809,115.44l4.94,27.25l-0.011,0.01
	c-1.06-1.59-2.869-2.64-4.931-2.64c-2.05,0-3.859,1.05-4.93,2.63L271.809,115.44z M276.439,195.44c0.039,3.13-0.34,6.069-1.069,8.29
	c-0.7,2.1-1.65,3.31-2.62,3.33l-0.021,0.25v-0.25c-2.08,0-3.918-5.271-4.009-11.5c-0.04-3.131,0.33-6.07,1.07-8.29
	c0.689-2.101,1.649-3.311,2.641-3.32C274.509,183.95,276.339,189.21,276.439,195.44z M271.809,141.06c2.73,0,4.94,2.22,4.94,4.939
	c0,2.73-2.21,4.94-4.94,4.94c-2.72,0-4.93-2.21-4.93-4.94C266.879,143.28,269.089,141.06,271.809,141.06z M271.809,154.06
	c2.73,0,4.94,2.22,4.94,4.939c0,2.73-2.21,4.94-4.94,4.94c-2.72,0-4.93-2.21-4.93-4.94
	C266.879,156.28,269.089,154.06,271.809,154.06z M268.259,219.8c1.271,5.66,1.7,17.78-4.77,27.311c-0.8,1.18-1.95,2.06-3.24,2.689
	c-1.19-0.25-8.9-1.93-11.66-4.479c-2.45-2.25-4.93-5.44-7.56-8.83c-3.51-4.51-7.14-9.17-10.91-11.79c-3.7-2.58-9.83-5.01-15.74-7.35
	c-5.49-2.181-11.15-4.431-14.62-6.7c-1.69-1.12-5.8-6.04-6.39-6.771c-0.28-2.22-0.01-4.58,1.33-6.529
	c4.21-6.141,20.21-10.78,27.44-11.801c3.04-0.43,8.31-0.92,13.17-0.92c8.39,0,11.17,1.41,12.04,2.601
	c2.83,3.899-4.35,15.08-7.36,19.06c-0.16,0.22-0.12,0.521,0.09,0.69c0.21,0.17,0.52,0.14,0.69-0.07
	c0.1-0.12,10.15-11.97,17.21-11.97c0.9,0,1.72,0.21,2.44,0.6c4.02,2.22,5.8,12.66,6.98,19.561
	C267.709,216.969,267.989,218.58,268.259,219.8z M265.709,165.35c2.35,1.39,3.13,4.42,1.74,6.76c-0.92,1.569-2.57,2.43-4.26,2.43
	c-0.85,0-1.71-0.22-2.5-0.68c-2.35-1.391-3.13-4.42-1.74-6.76c0.92-1.57,2.56-2.431,4.25-2.431
	C264.059,164.67,264.919,164.89,265.709,165.35z M263.189,175.54c1.14,0,2.24-0.33,3.17-0.92l-16.48,19.64l0.36-1.229l7.02-23.97
	h0.03c-0.21,2.21,0.85,4.449,2.89,5.659C261.099,175.26,262.139,175.54,263.189,175.54z M259.609,149.25
	c2.66,0.61,4.32,3.26,3.71,5.92c-0.52,2.28-2.55,3.83-4.81,3.83c-0.36,0-0.73-0.04-1.1-0.12c-2.66-0.609-4.32-3.26-3.71-5.92
	c0.52-2.28,2.56-3.83,4.81-3.83C258.869,149.13,259.239,149.17,259.609,149.25z M257.979,136.8c1.01,2.29,1.17,3.96,0.44,4.591
	c-0.22,0.189-0.53,0.289-0.92,0.289c-2.31,0-6.68-3.18-10.62-7.729c-2.33-2.69-4.2-5.5-5.26-7.9c-1.01-2.279-1.18-3.949-0.45-4.59
	c0.23-0.189,0.54-0.29,0.93-0.29c2.31,0,6.68,3.181,10.61,7.73C255.049,131.59,256.919,134.4,257.979,136.8z M228.499,147.32
	l26.76,1.77c-1.25,0.811-2.18,2.101-2.54,3.65c-0.46,2,0.16,4,1.47,5.39L228.499,147.32z M248.329,169.39
	c0.85,1.659-2.96,5.84-9.98,9.42c-4.15,2.109-8.39,3.43-11.06,3.43c-0.91,0-2.06-0.15-2.43-0.88c-0.44-0.86,0.34-2.351,2.13-4.08
	c1.89-1.83,4.68-3.73,7.85-5.34c4.15-2.12,8.39-3.431,11.06-3.431C246.809,168.51,247.959,168.66,248.329,169.39z M217.359,88.03
	c2.39,3.12,2.63,7.1,2.65,8.22c-0.51-0.12-1.61-0.43-2.89-1.03c-0.01,0-0.01-0.01-0.02-0.01c-0.03-0.04-0.06-0.06-0.1-0.08
	c-0.13-0.05-0.26-0.109-0.39-0.17c-1.36-0.7-2.86-1.74-4.01-3.229c-1.38-1.811-2.77-3.98-3.18-5.811c-0.03-0.24-0.07-0.5-0.11-0.779
	c-0.05-0.79,0.14-1.49,0.68-2.03c0.36-0.36,0.76-0.54,1.21-0.54c0.11,0,0.22,0.01,0.33,0.03v0.01c0.18,0.05,0.35,0.1,0.52,0.149
	C213.639,83.4,215.529,85.64,217.359,88.03z M217.259,74.469c0.94,1.091,1.37,2.32,1.27,3.671c-0.09,1.34-0.67,2.479-1.7,3.38
	c-1.72,1.479-2.75,1.31-4.74,0.729c-0.12-0.04-0.24-0.08-0.35-0.1c-0.03-0.01-0.05-0.021-0.07-0.021l-0.06-0.02v0.02
	c-0.14-0.02-0.28-0.06-0.41-0.06c-0.58,0-1.11,0.17-1.57,0.63c-0.59,0.59-0.87,1.24-0.84,2.24v0.069c0.01,0.301,0.06,0.65,0.13,0.99
	c0.2,1.63,0.03,2.34-1.54,3.7c-1.04,0.9-2.25,1.3-3.59,1.21c-1.35-0.1-2.51-0.7-3.44-1.78c-0.69-0.79-1.15-1.76-1.39-2.89
	c-0.24-1.14-0.19-3.18,0.16-6.061c0.14-1.189-0.42-2.789-1.02-4.489c-0.92-2.61-1.88-5.311-0.43-6.771
	c1.69-1.68,4.27-0.17,6.76,1.29c1.54,0.9,2.99,1.75,4.15,1.771c2.91,0.069,4.93,0.31,6.03,0.71
	C215.689,73.09,216.579,73.69,217.259,74.469z M210.389,103.15c-0.88,1.279-2.93,4.39-3.53,6.149c-1.38,4.08-1.67,10.44-1.94,16.601
	c-0.28,6.39-0.57,13-2.08,17.069c-1.36,3.71-5.01,8.721-8.53,13.57c-3.41,4.7-6.94,9.561-8.38,13.22
	c-0.83,2.12-1.36,7.21-1.58,9.881c-0.89-1.99-1.3-4.021-1.24-5.36c0.25-5.76,5.05-14.28,9.29-21.79c2.7-4.78,5.25-9.3,6.47-12.78
	c1.12-3.16,1.79-7.85,2.49-12.819c1.19-8.33,2.53-17.771,6.32-21.771C208.459,104.3,209.379,103.64,210.389,103.15z M182.389,200.46
	c0.56,1.08,0.66,2.2,0.29,3.34c-0.36,1.141-1.12,2.021-2.26,2.601c-0.82,0.42-1.76,0.62-2.78,0.59c-1.04-0.03-2.79-0.5-5.21-1.41
	c-1.01-0.37-2.51-0.22-4.11-0.06c-2.45,0.25-4.99,0.51-5.94-1.051c-1.1-1.8,0.75-3.71,2.54-5.55c1.09-1.14,2.13-2.21,2.4-3.21
	c0.67-2.49,1.3-4.189,1.88-5.05c0.57-0.85,1.27-1.49,2.1-1.92c1.13-0.58,2.29-0.69,3.43-0.32c1.14,0.36,2.01,1.09,2.57,2.181
	c0.91,1.75,0.57,2.609-0.31,4.14c-0.02,0.02-0.04,0.05-0.04,0.07c-0.1,0.13-0.18,0.27-0.23,0.399c-0.04,0.08-0.07,0.15-0.09,0.23
	c-0.17,0.54-0.09,1.09,0.23,1.62c0.53,0.859,1.47,1.3,2.79,1.3C181.029,198.54,181.559,198.85,182.389,200.46z"/>
</svg>
