<?xml version="1.0" encoding="UTF-8"?>
<svg xmlns="http://www.w3.org/2000/svg" xmlns:xlink="http://www.w3.org/1999/xlink" width="200pt" height="249pt" viewBox="0 0 200 249" version="1.1">
<defs>
<clipPath id="clip1">
  <path d="M 99.992188 248.980469 C 99.132812 236.84375 88.980469 227.273438 76.65625 227.273438 L 19.996094 227.273438 C 9.53125 227.273438 0.917969 219.183594 0.0703125 208.898438 L 0.0703125 0.0898438 L 199.929688 0.0898438 L 199.929688 208.898438 C 199.082031 219.183594 190.46875 227.273438 180.003906 227.273438 L 123.332031 227.273438 C 111.007812 227.273438 100.851562 236.855469 99.992188 248.980469 Z M 99.992188 248.980469 "/>
</clipPath>
<clipPath id="clip2">
  <path d="M 0 0 L 200 0 L 200 222 L 0 222 Z M 0 0 "/>
</clipPath>
<clipPath id="clip3">
  <path d="M 99.992188 248.980469 C 99.132812 236.84375 88.980469 227.273438 76.65625 227.273438 L 19.996094 227.273438 C 9.53125 227.273438 0.917969 219.183594 0.0703125 208.898438 L 0.0703125 0.0898438 L 199.929688 0.0898438 L 199.929688 208.898438 C 199.082031 219.183594 190.46875 227.273438 180.003906 227.273438 L 123.332031 227.273438 C 111.007812 227.273438 100.851562 236.855469 99.992188 248.980469 Z M 99.992188 248.980469 "/>
</clipPath>
<clipPath id="clip4">
  <path d="M 0 0 L 200 0 L 200 228 L 0 228 Z M 0 0 "/>
</clipPath>
<clipPath id="clip5">
  <path d="M 99.992188 248.980469 C 99.132812 236.84375 88.980469 227.273438 76.65625 227.273438 L 19.996094 227.273438 C 9.53125 227.273438 0.917969 219.183594 0.0703125 208.898438 L 0.0703125 0.0898438 L 199.929688 0.0898438 L 199.929688 208.898438 C 199.082031 219.183594 190.46875 227.273438 180.003906 227.273438 L 123.332031 227.273438 C 111.007812 227.273438 100.851562 236.855469 99.992188 248.980469 Z M 99.992188 248.980469 "/>
</clipPath>
<clipPath id="clip6">
  <path d="M 99.992188 248.980469 C 99.132812 236.84375 88.980469 227.273438 76.65625 227.273438 L 19.996094 227.273438 C 9.53125 227.273438 0.917969 219.183594 0.0703125 208.898438 L 0.0703125 0.0898438 L 199.929688 0.0898438 L 199.929688 208.898438 C 199.082031 219.183594 190.46875 227.273438 180.003906 227.273438 L 123.332031 227.273438 C 111.007812 227.273438 100.851562 236.855469 99.992188 248.980469 Z M 99.992188 248.980469 "/>
</clipPath>
<clipPath id="clip7">
  <path d="M 62 80 L 68 80 L 68 86 L 62 86 Z M 62 80 "/>
</clipPath>
<clipPath id="clip8">
  <path d="M 99.992188 248.980469 C 99.132812 236.84375 88.980469 227.273438 76.65625 227.273438 L 19.996094 227.273438 C 9.53125 227.273438 0.917969 219.183594 0.0703125 208.898438 L 0.0703125 0.0898438 L 199.929688 0.0898438 L 199.929688 208.898438 C 199.082031 219.183594 190.46875 227.273438 180.003906 227.273438 L 123.332031 227.273438 C 111.007812 227.273438 100.851562 236.855469 99.992188 248.980469 Z M 99.992188 248.980469 "/>
</clipPath>
<clipPath id="clip9">
  <path d="M 72 104 L 79 104 L 79 111 L 72 111 Z M 72 104 "/>
</clipPath>
<clipPath id="clip10">
  <path d="M 99.992188 248.980469 C 99.132812 236.84375 88.980469 227.273438 76.65625 227.273438 L 19.996094 227.273438 C 9.53125 227.273438 0.917969 219.183594 0.0703125 208.898438 L 0.0703125 0.0898438 L 199.929688 0.0898438 L 199.929688 208.898438 C 199.082031 219.183594 190.46875 227.273438 180.003906 227.273438 L 123.332031 227.273438 C 111.007812 227.273438 100.851562 236.855469 99.992188 248.980469 Z M 99.992188 248.980469 "/>
</clipPath>
<clipPath id="clip11">
  <path d="M 70 102 L 80 102 L 80 112 L 70 112 Z M 70 102 "/>
</clipPath>
<clipPath id="clip12">
  <path d="M 99.992188 248.980469 C 99.132812 236.84375 88.980469 227.273438 76.65625 227.273438 L 19.996094 227.273438 C 9.53125 227.273438 0.917969 219.183594 0.0703125 208.898438 L 0.0703125 0.0898438 L 199.929688 0.0898438 L 199.929688 208.898438 C 199.082031 219.183594 190.46875 227.273438 180.003906 227.273438 L 123.332031 227.273438 C 111.007812 227.273438 100.851562 236.855469 99.992188 248.980469 Z M 99.992188 248.980469 "/>
</clipPath>
<clipPath id="clip13">
  <path d="M 30 83 L 185 83 L 185 182 L 30 182 Z M 30 83 "/>
</clipPath>
<clipPath id="clip14">
  <path d="M 99.992188 248.980469 C 99.132812 236.84375 88.980469 227.273438 76.65625 227.273438 L 19.996094 227.273438 C 9.53125 227.273438 0.917969 219.183594 0.0703125 208.898438 L 0.0703125 0.0898438 L 199.929688 0.0898438 L 199.929688 208.898438 C 199.082031 219.183594 190.46875 227.273438 180.003906 227.273438 L 123.332031 227.273438 C 111.007812 227.273438 100.851562 236.855469 99.992188 248.980469 Z M 99.992188 248.980469 "/>
</clipPath>
<clipPath id="clip15">
  <path d="M 29 82 L 186 82 L 186 184 L 29 184 Z M 29 82 "/>
</clipPath>
<clipPath id="clip16">
  <path d="M 99.992188 248.980469 C 99.132812 236.84375 88.980469 227.273438 76.65625 227.273438 L 19.996094 227.273438 C 9.53125 227.273438 0.917969 219.183594 0.0703125 208.898438 L 0.0703125 0.0898438 L 199.929688 0.0898438 L 199.929688 208.898438 C 199.082031 219.183594 190.46875 227.273438 180.003906 227.273438 L 123.332031 227.273438 C 111.007812 227.273438 100.851562 236.855469 99.992188 248.980469 Z M 99.992188 248.980469 "/>
</clipPath>
<clipPath id="clip17">
  <path d="M 66 100 L 73 100 L 73 113 L 66 113 Z M 66 100 "/>
</clipPath>
<clipPath id="clip18">
  <path d="M 99.992188 248.980469 C 99.132812 236.84375 88.980469 227.273438 76.65625 227.273438 L 19.996094 227.273438 C 9.53125 227.273438 0.917969 219.183594 0.0703125 208.898438 L 0.0703125 0.0898438 L 199.929688 0.0898438 L 199.929688 208.898438 C 199.082031 219.183594 190.46875 227.273438 180.003906 227.273438 L 123.332031 227.273438 C 111.007812 227.273438 100.851562 236.855469 99.992188 248.980469 Z M 99.992188 248.980469 "/>
</clipPath>
<clipPath id="clip19">
  <path d="M 68 104 L 71 104 L 71 108 L 68 108 Z M 68 104 "/>
</clipPath>
<clipPath id="clip20">
  <path d="M 99.992188 248.980469 C 99.132812 236.84375 88.980469 227.273438 76.65625 227.273438 L 19.996094 227.273438 C 9.53125 227.273438 0.917969 219.183594 0.0703125 208.898438 L 0.0703125 0.0898438 L 199.929688 0.0898438 L 199.929688 208.898438 C 199.082031 219.183594 190.46875 227.273438 180.003906 227.273438 L 123.332031 227.273438 C 111.007812 227.273438 100.851562 236.855469 99.992188 248.980469 Z M 99.992188 248.980469 "/>
</clipPath>
<clipPath id="clip21">
  <path d="M 66 103 L 73 103 L 73 109 L 66 109 Z M 66 103 "/>
</clipPath>
<clipPath id="clip22">
  <path d="M 99.992188 248.980469 C 99.132812 236.84375 88.980469 227.273438 76.65625 227.273438 L 19.996094 227.273438 C 9.53125 227.273438 0.917969 219.183594 0.0703125 208.898438 L 0.0703125 0.0898438 L 199.929688 0.0898438 L 199.929688 208.898438 C 199.082031 219.183594 190.46875 227.273438 180.003906 227.273438 L 123.332031 227.273438 C 111.007812 227.273438 100.851562 236.855469 99.992188 248.980469 Z M 99.992188 248.980469 "/>
</clipPath>
<clipPath id="clip23">
  <path d="M 73 109 L 79 109 L 79 115 L 73 115 Z M 73 109 "/>
</clipPath>
<clipPath id="clip24">
  <path d="M 99.992188 248.980469 C 99.132812 236.84375 88.980469 227.273438 76.65625 227.273438 L 19.996094 227.273438 C 9.53125 227.273438 0.917969 219.183594 0.0703125 208.898438 L 0.0703125 0.0898438 L 199.929688 0.0898438 L 199.929688 208.898438 C 199.082031 219.183594 190.46875 227.273438 180.003906 227.273438 L 123.332031 227.273438 C 111.007812 227.273438 100.851562 236.855469 99.992188 248.980469 Z M 99.992188 248.980469 "/>
</clipPath>
<clipPath id="clip25">
  <path d="M 58 82 L 68 82 L 68 106 L 58 106 Z M 58 82 "/>
</clipPath>
<clipPath id="clip26">
  <path d="M 99.992188 248.980469 C 99.132812 236.84375 88.980469 227.273438 76.65625 227.273438 L 19.996094 227.273438 C 9.53125 227.273438 0.917969 219.183594 0.0703125 208.898438 L 0.0703125 0.0898438 L 199.929688 0.0898438 L 199.929688 208.898438 C 199.082031 219.183594 190.46875 227.273438 180.003906 227.273438 L 123.332031 227.273438 C 111.007812 227.273438 100.851562 236.855469 99.992188 248.980469 Z M 99.992188 248.980469 "/>
</clipPath>
<clipPath id="clip27">
  <path d="M 42 109 L 180 109 L 180 183 L 42 183 Z M 42 109 "/>
</clipPath>
<clipPath id="clip28">
  <path d="M 99.992188 248.980469 C 99.132812 236.84375 88.980469 227.273438 76.65625 227.273438 L 19.996094 227.273438 C 9.53125 227.273438 0.917969 219.183594 0.0703125 208.898438 L 0.0703125 0.0898438 L 199.929688 0.0898438 L 199.929688 208.898438 C 199.082031 219.183594 190.46875 227.273438 180.003906 227.273438 L 123.332031 227.273438 C 111.007812 227.273438 100.851562 236.855469 99.992188 248.980469 Z M 99.992188 248.980469 "/>
</clipPath>
<clipPath id="clip29">
  <path d="M 29 170 L 36 170 L 36 176 L 29 176 Z M 29 170 "/>
</clipPath>
<clipPath id="clip30">
  <path d="M 99.992188 248.980469 C 99.132812 236.84375 88.980469 227.273438 76.65625 227.273438 L 19.996094 227.273438 C 9.53125 227.273438 0.917969 219.183594 0.0703125 208.898438 L 0.0703125 0.0898438 L 199.929688 0.0898438 L 199.929688 208.898438 C 199.082031 219.183594 190.46875 227.273438 180.003906 227.273438 L 123.332031 227.273438 C 111.007812 227.273438 100.851562 236.855469 99.992188 248.980469 Z M 99.992188 248.980469 "/>
</clipPath>
<clipPath id="clip31">
  <path d="M 88 19 L 113 19 L 113 53 L 88 53 Z M 88 19 "/>
</clipPath>
<clipPath id="clip32">
  <path d="M 99.992188 248.980469 C 99.132812 236.84375 88.980469 227.273438 76.65625 227.273438 L 19.996094 227.273438 C 9.53125 227.273438 0.917969 219.183594 0.0703125 208.898438 L 0.0703125 0.0898438 L 199.929688 0.0898438 L 199.929688 208.898438 C 199.082031 219.183594 190.46875 227.273438 180.003906 227.273438 L 123.332031 227.273438 C 111.007812 227.273438 100.851562 236.855469 99.992188 248.980469 Z M 99.992188 248.980469 "/>
</clipPath>
<clipPath id="clip33">
  <path d="M 84 15 L 117 15 L 117 57 L 84 57 Z M 84 15 "/>
</clipPath>
<clipPath id="clip34">
  <path d="M 99.992188 248.980469 C 99.132812 236.84375 88.980469 227.273438 76.65625 227.273438 L 19.996094 227.273438 C 9.53125 227.273438 0.917969 219.183594 0.0703125 208.898438 L 0.0703125 0.0898438 L 199.929688 0.0898438 L 199.929688 208.898438 C 199.082031 219.183594 190.46875 227.273438 180.003906 227.273438 L 123.332031 227.273438 C 111.007812 227.273438 100.851562 236.855469 99.992188 248.980469 Z M 99.992188 248.980469 "/>
</clipPath>
<clipPath id="clip35">
  <path d="M 162 94 L 185 94 L 185 117 L 162 117 Z M 162 94 "/>
</clipPath>
<clipPath id="clip36">
  <path d="M 99.992188 248.980469 C 99.132812 236.84375 88.980469 227.273438 76.65625 227.273438 L 19.996094 227.273438 C 9.53125 227.273438 0.917969 219.183594 0.0703125 208.898438 L 0.0703125 0.0898438 L 199.929688 0.0898438 L 199.929688 208.898438 C 199.082031 219.183594 190.46875 227.273438 180.003906 227.273438 L 123.332031 227.273438 C 111.007812 227.273438 100.851562 236.855469 99.992188 248.980469 Z M 99.992188 248.980469 "/>
</clipPath>
<clipPath id="clip37">
  <path d="M 158 90 L 189 90 L 189 121 L 158 121 Z M 158 90 "/>
</clipPath>
<clipPath id="clip38">
  <path d="M 99.992188 248.980469 C 99.132812 236.84375 88.980469 227.273438 76.65625 227.273438 L 19.996094 227.273438 C 9.53125 227.273438 0.917969 219.183594 0.0703125 208.898438 L 0.0703125 0.0898438 L 199.929688 0.0898438 L 199.929688 208.898438 C 199.082031 219.183594 190.46875 227.273438 180.003906 227.273438 L 123.332031 227.273438 C 111.007812 227.273438 100.851562 236.855469 99.992188 248.980469 Z M 99.992188 248.980469 "/>
</clipPath>
<clipPath id="clip39">
  <path d="M 15 97 L 36 97 L 36 118 L 15 118 Z M 15 97 "/>
</clipPath>
<clipPath id="clip40">
  <path d="M 99.992188 248.980469 C 99.132812 236.84375 88.980469 227.273438 76.65625 227.273438 L 19.996094 227.273438 C 9.53125 227.273438 0.917969 219.183594 0.0703125 208.898438 L 0.0703125 0.0898438 L 199.929688 0.0898438 L 199.929688 208.898438 C 199.082031 219.183594 190.46875 227.273438 180.003906 227.273438 L 123.332031 227.273438 C 111.007812 227.273438 100.851562 236.855469 99.992188 248.980469 Z M 99.992188 248.980469 "/>
</clipPath>
<clipPath id="clip41">
  <path d="M 15 97 L 36 97 L 36 119 L 15 119 Z M 15 97 "/>
</clipPath>
<clipPath id="clip42">
  <path d="M 99.992188 248.980469 C 99.132812 236.84375 88.980469 227.273438 76.65625 227.273438 L 19.996094 227.273438 C 9.53125 227.273438 0.917969 219.183594 0.0703125 208.898438 L 0.0703125 0.0898438 L 199.929688 0.0898438 L 199.929688 208.898438 C 199.082031 219.183594 190.46875 227.273438 180.003906 227.273438 L 123.332031 227.273438 C 111.007812 227.273438 100.851562 236.855469 99.992188 248.980469 Z M 99.992188 248.980469 "/>
</clipPath>
<clipPath id="clip43">
  <path d="M 89 184 L 111 184 L 111 207 L 89 207 Z M 89 184 "/>
</clipPath>
<clipPath id="clip44">
  <path d="M 99.992188 248.980469 C 99.132812 236.84375 88.980469 227.273438 76.65625 227.273438 L 19.996094 227.273438 C 9.53125 227.273438 0.917969 219.183594 0.0703125 208.898438 L 0.0703125 0.0898438 L 199.929688 0.0898438 L 199.929688 208.898438 C 199.082031 219.183594 190.46875 227.273438 180.003906 227.273438 L 123.332031 227.273438 C 111.007812 227.273438 100.851562 236.855469 99.992188 248.980469 Z M 99.992188 248.980469 "/>
</clipPath>
</defs>
<g id="surface1">
<g clip-path="url(#clip1)" clip-rule="nonzero">
<path style=" stroke:none;fill-rule:evenodd;fill:rgb(0%,45.490196%,39.607843%);fill-opacity:1;" d="M 99.992188 248.980469 C 99.132812 236.84375 88.980469 227.273438 76.65625 227.273438 L 19.996094 227.273438 C 9.53125 227.273438 0.917969 219.183594 0.0703125 208.898438 L 0.0703125 0.0898438 L 199.929688 0.0898438 L 199.929688 208.898438 C 199.082031 219.183594 190.46875 227.273438 180.003906 227.273438 L 123.332031 227.273438 C 111.007812 227.273438 100.851562 236.855469 99.992188 248.980469 Z M 99.992188 248.980469 "/>
</g>
<g clip-path="url(#clip2)" clip-rule="nonzero">
<g clip-path="url(#clip3)" clip-rule="nonzero">
<path style=" stroke:none;fill-rule:nonzero;fill:rgb(94.509804%,72.54902%,29.019608%);fill-opacity:1;" d="M 210.984375 -12.328125 L 208.023438 -12.328125 L 100.007812 100.636719 L -8.023438 -12.328125 L -10.984375 -12.328125 L -10.984375 -7.652344 L 96.285156 104.515625 L -10.984375 216.683594 L -10.984375 221.359375 L -8.023438 221.359375 L 100.007812 108.40625 L 208.023438 221.359375 L 210.984375 221.359375 L 210.984375 216.683594 L 103.714844 104.515625 L 210.984375 -7.652344 Z M 210.984375 -12.328125 "/>
</g>
</g>
<g clip-path="url(#clip4)" clip-rule="nonzero">
<g clip-path="url(#clip5)" clip-rule="nonzero">
<path style="fill:none;stroke-width:3;stroke-linecap:butt;stroke-linejoin:miter;stroke:rgb(0%,0%,0%);stroke-opacity:1;stroke-miterlimit:10;" d="M 1496.195695 -87.888689 L 1475.198207 -87.888689 L 709.205402 716.191845 L -56.898207 -87.888689 L -77.895695 -87.888689 L -77.895695 -54.606612 L 682.806186 743.801789 L -77.895695 1542.21019 L -77.895695 1575.492267 L -56.898207 1575.492267 L 709.205402 771.495147 L 1475.198207 1575.492267 L 1496.195695 1575.492267 L 1496.195695 1542.21019 L 735.493814 743.801789 L 1496.195695 -54.606612 Z M 1496.195695 -87.888689 " transform="matrix(0.141014,0,0,0.140489,0,0.0193099)"/>
</g>
</g>
<g clip-path="url(#clip6)" clip-rule="nonzero">
<path style=" stroke:none;fill-rule:evenodd;fill:rgb(0%,0%,0%);fill-opacity:1;" d="M 99.992188 248.980469 C 99.132812 236.84375 88.980469 227.273438 76.65625 227.273438 L 19.996094 227.273438 C 9.53125 227.273438 0.917969 219.183594 0.0703125 208.898438 L 0.0703125 0.0898438 L 199.929688 0.0898438 L 199.929688 208.898438 C 199.082031 219.183594 190.46875 227.273438 180.003906 227.273438 L 123.332031 227.273438 C 111.007812 227.273438 100.851562 236.855469 99.992188 248.980469 Z M 93.152344 232.9375 C 96.367188 235.929688 98.78125 239.792969 99.992188 244.132812 C 101.207031 239.777344 103.617188 235.929688 106.832031 232.9375 C 111.160156 228.90625 116.972656 226.445312 123.332031 226.445312 L 180.003906 226.445312 C 184.996094 226.445312 189.550781 224.519531 192.964844 221.375 C 196.402344 218.214844 198.675781 213.800781 199.097656 208.871094 L 199.097656 0.90625 L 0.886719 0.917969 L 0.886719 208.871094 C 1.3125 213.800781 3.582031 218.214844 7.023438 221.375 C 10.433594 224.519531 14.988281 226.445312 19.980469 226.445312 L 76.65625 226.445312 C 83.015625 226.445312 88.824219 228.90625 93.152344 232.9375 Z M 93.152344 232.9375 "/>
<path style=" stroke:none;fill-rule:nonzero;fill:rgb(0%,0%,0%);fill-opacity:1;" d="M 100.0625 248.980469 L 99.921875 248.980469 C 99.0625 236.84375 88.839844 227.34375 76.65625 227.34375 L 19.996094 227.34375 C 14.933594 227.34375 10.097656 225.449219 6.375 221.992188 C 2.679688 218.566406 0.410156 213.914062 0 208.898438 L 0 0.0195312 L 200 0.0195312 L 200 208.898438 C 199.589844 213.914062 197.320312 218.566406 193.625 221.992188 C 189.902344 225.449219 185.066406 227.34375 180.003906 227.34375 L 123.332031 227.34375 C 111.148438 227.34375 100.921875 236.855469 100.0625 248.980469 Z M 0.140625 0.160156 L 0.140625 208.898438 C 0.988281 219.15625 9.703125 227.203125 19.996094 227.203125 L 76.65625 227.203125 C 82.621094 227.203125 88.304688 229.453125 92.675781 233.527344 C 96.820312 237.40625 99.402344 242.574219 99.992188 248.179688 C 101.234375 236.351562 111.34375 227.203125 123.332031 227.203125 L 180.003906 227.203125 C 190.296875 227.203125 199.011719 219.15625 199.859375 208.898438 L 199.859375 0.160156 Z M 99.992188 244.402344 L 99.921875 244.160156 C 98.738281 239.90625 96.367188 236.042969 93.097656 232.992188 C 88.613281 228.820312 82.773438 226.515625 76.640625 226.515625 L 19.980469 226.515625 C 15.160156 226.515625 10.535156 224.703125 6.980469 221.429688 C 3.425781 218.15625 1.242188 213.703125 0.816406 208.886719 L 0.816406 0.847656 L 0.886719 0.847656 L 199.167969 0.835938 L 199.167969 208.871094 C 198.757812 213.703125 196.574219 218.15625 193.003906 221.429688 C 189.453125 224.71875 184.828125 226.515625 180.003906 226.515625 L 123.332031 226.515625 C 117.195312 226.515625 111.359375 228.820312 106.875 232.992188 C 103.601562 236.042969 101.234375 239.90625 100.050781 244.160156 Z M 93.195312 232.878906 C 96.425781 235.886719 98.765625 239.679688 99.992188 243.867188 C 101.207031 239.679688 103.546875 235.886719 106.789062 232.878906 C 111.300781 228.679688 117.167969 226.375 123.332031 226.375 L 180.003906 226.375 C 184.796875 226.375 189.382812 224.578125 192.921875 221.316406 C 196.445312 218.074219 198.617188 213.648438 199.027344 208.855469 L 199.027344 0.960938 L 0.957031 0.988281 L 0.957031 208.871094 C 1.367188 213.660156 3.539062 218.074219 7.066406 221.316406 C 10.605469 224.578125 15.1875 226.375 19.980469 226.375 L 76.65625 226.375 C 82.816406 226.375 88.699219 228.695312 93.195312 232.878906 Z M 93.195312 232.878906 "/>
</g>
<g clip-path="url(#clip7)" clip-rule="nonzero">
<g clip-path="url(#clip8)" clip-rule="nonzero">
<path style="fill:none;stroke-width:2;stroke-linecap:round;stroke-linejoin:miter;stroke:rgb(0%,0%,0%);stroke-opacity:1;stroke-miterlimit:3.3333;" d="M 460.310373 579.393331 C 449.396111 580.811364 452.19393 603.805749 461.695432 602.498934 C 467.09716 601.192119 471.196934 579.393331 460.310373 579.393331 Z M 460.310373 579.393331 " transform="matrix(0.141014,0,0,0.140489,0,0.0193099)"/>
</g>
</g>
<g clip-path="url(#clip9)" clip-rule="nonzero">
<g clip-path="url(#clip10)" clip-rule="nonzero">
<path style=" stroke:none;fill-rule:nonzero;fill:rgb(99.607843%,99.607843%,99.607843%);fill-opacity:1;" d="M 72.128906 104.039062 L 78.488281 104.78125 L 73.441406 110.191406 Z M 72.128906 104.039062 "/>
</g>
</g>
<g clip-path="url(#clip11)" clip-rule="nonzero">
<g clip-path="url(#clip12)" clip-rule="nonzero">
<path style="fill:none;stroke-width:2;stroke-linecap:round;stroke-linejoin:miter;stroke:rgb(0%,0%,0%);stroke-opacity:1;stroke-miterlimit:3.3333;" d="M 511.502139 740.409631 L 556.599646 745.6925 L 520.809732 784.201838 Z M 511.502139 740.409631 " transform="matrix(0.141014,0,0,0.140489,0,0.0193099)"/>
</g>
</g>
<g clip-path="url(#clip13)" clip-rule="nonzero">
<g clip-path="url(#clip14)" clip-rule="nonzero">
<path style=" stroke:none;fill-rule:nonzero;fill:rgb(99.607843%,99.607843%,99.607843%);fill-opacity:1;" d="M 61.636719 85.199219 C 61.636719 85.199219 58.648438 85.015625 57.898438 85.578125 C 56.589844 86.703125 58.082031 102.367188 57.71875 105.34375 C 57.152344 108.324219 56.222656 111.316406 55.839844 113.730469 C 55.460938 116.160156 55.460938 125.476562 55.460938 125.476562 C 55.460938 125.476562 55.839844 134.425781 50.414062 147.113281 C 44.417969 161.289062 40.683594 165.207031 37.875 167.804688 C 35.253906 170.417969 29.640625 170.785156 31.136719 173.398438 C 32.066406 175.070312 36 174.886719 39.371094 172.835938 C 42.742188 170.785156 54.53125 156.609375 55.476562 155.484375 C 56.222656 154.359375 57.535156 152.6875 59.59375 153.617188 C 60.71875 154.179688 61.652344 155.289062 61.269531 159.023438 C 56.589844 178.230469 45.363281 178.046875 44.617188 178.425781 C 43.871094 178.804688 43.304688 179.550781 43.871094 180.476562 C 44.25 181.601562 45.746094 183.273438 53.796875 179.355469 C 61.847656 175.433594 68.390625 165.179688 69.140625 163.871094 C 70.070312 162.75 71.199219 160.148438 73.441406 159.390625 C 75.683594 158.644531 77.375 161.0625 79.617188 161.0625 C 82.605469 161.0625 82.988281 158.265625 86.171875 158.449219 C 88.230469 158.449219 88.414062 160.316406 91.222656 160.316406 C 94.210938 160.136719 94.59375 158.085938 97.214844 158.085938 C 99.65625 157.902344 99.457031 160.136719 102.828125 160.136719 C 106.382812 159.953125 105.449219 157.523438 109.75 157.523438 C 113.867188 157.523438 112.375 159.011719 116.109375 160.316406 C 117.042969 160.695312 132.765625 165.164062 135.769531 167.398438 C 137.078125 168.324219 139.886719 170.375 139.320312 173.550781 C 138.941406 174.480469 137.445312 175.785156 137.261719 176.347656 C 137.261719 177.09375 137.445312 177.652344 138.011719 178.019531 C 138.574219 178.582031 139.886719 178.203125 140.253906 177.835938 C 140.816406 177.652344 142.496094 176.53125 142.875 173.917969 C 143.058594 164.222656 131.453125 153.589844 131.453125 153.589844 C 131.453125 153.589844 146.046875 157.3125 150.730469 165.53125 C 151.292969 166.835938 151.660156 167.582031 151.292969 169.253906 C 150.730469 171.121094 147.921875 174.101562 149.800781 175.042969 C 152.789062 176.347656 153.535156 173.550781 153.734375 172.609375 C 153.917969 172.046875 155.609375 163.097656 152.421875 158.617188 C 149.617188 155.640625 147.175781 155.261719 144.75 152.28125 C 142.3125 149.304688 141.195312 143.148438 139.886719 140.902344 C 138.757812 138.851562 136.148438 136.984375 136.148438 136.984375 C 136.148438 136.984375 142.507812 140.707031 148.882812 141.828125 C 159.925781 143.5 165.167969 142.390625 173.222656 139.960938 C 179.214844 138.289062 184.445312 134.371094 184.445312 134.371094 C 184.445312 134.371094 176.210938 126.347656 156.933594 127.835938 C 148.882812 128.019531 134.652344 133.0625 134.652344 133.0625 C 134.652344 133.0625 132.410156 131.390625 129.789062 130.828125 C 123.796875 129.707031 110.132812 132.5 108.453125 132.699219 C 106.578125 132.878906 103.773438 133.441406 100.21875 133.078125 C 92.351562 132.699219 77.570312 126.921875 74.949219 115.359375 C 78.136719 114.238281 81.125 109.390625 81.125 109.390625 L 74.386719 109.011719 C 74.386719 109.011719 74.386719 104.726562 73.636719 102.859375 C 73.074219 100.988281 70.449219 97.449219 69.703125 95.214844 C 69.140625 92.980469 68.957031 84.398438 68.390625 83.835938 C 67.644531 83.273438 62.398438 84.578125 62.398438 84.578125 L 63.894531 86.070312 L 63.144531 87.375 L 64.273438 88.863281 L 63.144531 90.734375 L 64.273438 92.40625 L 63.144531 94.273438 L 64.441406 95.832031 L 62.949219 98.066406 L 64.625 100.496094 L 60.507812 100.875 L 61.636719 98.644531 L 60.707031 96.773438 L 62.582031 95.652344 L 60.707031 93.980469 L 62.019531 92.488281 L 60.707031 91 L 62.019531 88.949219 L 60.707031 87.277344 Z M 61.636719 85.199219 "/>
</g>
</g>
<g clip-path="url(#clip15)" clip-rule="nonzero">
<g clip-path="url(#clip16)" clip-rule="nonzero">
<path style="fill:none;stroke-width:2;stroke-linecap:butt;stroke-linejoin:miter;stroke:rgb(0%,0%,0%);stroke-opacity:1;stroke-miterlimit:3.3333;" d="M 437.096791 606.308161 C 437.096791 606.308161 415.905395 605.001346 410.58677 609.005204 C 401.306877 617.012922 411.888725 728.509272 409.312516 749.696359 C 405.295846 770.911251 398.702967 792.209556 395.988252 809.392784 C 393.301238 826.68723 393.301238 893.001144 393.301238 893.001144 C 393.301238 893.001144 395.988252 956.701428 357.511324 1047.010691 C 314.990025 1147.913497 288.507705 1175.801487 268.590562 1194.29153 C 250.003076 1212.892791 210.196492 1215.506421 220.806041 1234.107683 C 227.39892 1246.008041 255.294 1244.701226 279.200111 1230.103824 C 303.106223 1215.506421 386.708359 1114.603615 393.412043 1106.595897 C 398.702967 1098.588179 408.010561 1086.687821 422.609078 1093.30531 C 430.587016 1097.309169 437.207596 1105.205668 434.492881 1131.786843 C 401.306877 1268.501943 321.693709 1267.195128 316.402785 1269.892172 C 311.111861 1272.589216 307.095191 1277.89989 311.111861 1284.489574 C 313.798875 1292.497292 324.408424 1304.397651 381.500539 1276.509661 C 438.592654 1248.593867 484.992117 1175.606855 490.310742 1166.292322 C 496.903621 1158.312408 504.90926 1139.794561 520.809732 1134.400473 C 536.710205 1129.089799 548.704812 1146.300832 564.605285 1146.300832 C 585.796682 1146.300832 588.511396 1126.392755 611.087852 1127.69957 C 625.686369 1127.69957 626.988324 1140.990158 646.905467 1140.990158 C 668.096863 1139.711147 670.811578 1125.113745 689.399064 1125.113745 C 706.712297 1123.80693 705.299537 1139.711147 729.205648 1139.711147 C 754.413715 1138.404332 747.793135 1121.109886 778.292125 1121.109886 C 807.48916 1121.109886 796.907312 1131.703429 823.389633 1140.990158 C 830.010213 1143.687201 941.50743 1175.495636 962.809631 1191.399854 C 972.089523 1197.989538 992.006666 1212.586941 987.989996 1235.192061 C 985.302982 1241.80955 974.693434 1251.096279 973.391479 1255.100138 C 973.391479 1260.410812 974.693434 1264.386866 978.710104 1267.000496 C 982.699072 1271.004355 992.006666 1268.307311 994.610576 1265.693681 C 998.599545 1264.386866 1010.511049 1256.406953 1013.198062 1237.805691 C 1014.500018 1168.794734 932.199836 1093.110678 932.199836 1093.110678 C 932.199836 1093.110678 1035.691414 1119.608439 1068.905119 1178.109267 C 1072.894088 1187.395995 1075.497998 1192.706669 1072.894088 1204.607028 C 1068.905119 1217.897615 1048.987977 1239.112506 1062.31224 1245.813409 C 1083.503637 1255.100138 1088.794561 1235.192061 1090.20732 1228.491158 C 1091.509275 1224.487299 1103.503883 1160.787016 1080.899727 1128.895167 C 1061.010285 1107.70808 1043.697053 1105.011036 1026.494625 1083.796145 C 1009.209094 1062.609058 1001.286559 1018.789046 992.006666 1002.801415 C 984.001027 988.204012 965.496645 974.913425 965.496645 974.913425 C 965.496645 974.913425 1010.594152 1001.411186 1055.802465 1009.391099 C 1134.113678 1021.291458 1171.28865 1013.394958 1228.408467 996.100512 C 1270.902064 984.200153 1307.993934 956.312164 1307.993934 956.312164 C 1307.993934 956.312164 1249.599863 899.201564 1112.89458 909.795108 C 1055.802465 911.101923 954.887096 946.997631 954.887096 946.997631 C 954.887096 946.997631 938.986623 935.097272 920.399137 931.093413 C 877.905539 923.1135 781.00684 942.993772 769.095336 944.411805 C 755.798773 945.690816 735.909332 949.694675 710.701266 947.108849 C 654.911105 944.411805 550.089871 903.288837 531.502385 820.987292 C 554.106541 813.007379 575.297937 778.5019 575.297937 778.5019 L 527.513416 775.804856 C 527.513416 775.804856 527.513416 745.303236 522.194791 732.012649 C 518.205822 718.694257 499.590635 693.503311 494.299711 677.599094 C 490.310742 661.694876 489.008787 600.608223 484.992117 596.604364 C 479.701193 592.600505 442.49852 601.887233 442.49852 601.887233 L 453.108068 612.508581 L 447.789443 621.795309 L 455.795082 632.388853 L 447.789443 645.707245 L 455.795082 657.607603 L 447.789443 670.898191 L 456.986232 681.992217 L 446.404385 697.896434 L 458.288187 715.19088 L 429.091152 717.887924 L 437.096791 702.011511 L 430.503912 688.693119 L 443.800475 680.713206 L 430.503912 668.812848 L 439.811506 658.191499 L 430.503912 647.597956 L 439.811506 633.000554 L 430.503912 621.100195 Z M 437.096791 606.308161 " transform="matrix(0.141014,0,0,0.140489,0,0.0193099)"/>
</g>
</g>
<g clip-path="url(#clip17)" clip-rule="nonzero">
<g clip-path="url(#clip18)" clip-rule="nonzero">
<path style="fill:none;stroke-width:2;stroke-linecap:butt;stroke-linejoin:miter;stroke:rgb(0%,0%,0%);stroke-opacity:1;stroke-miterlimit:3.3333;" d="M 488.897982 725.812228 C 506.211215 737.712587 506.211215 770.911251 495.490861 789.512512 C 482.305104 778.891164 478.288434 742.995456 488.897982 725.812228 Z M 488.897982 725.812228 " transform="matrix(0.141014,0,0,0.140489,0,0.0193099)"/>
</g>
</g>
<g clip-path="url(#clip19)" clip-rule="nonzero">
<g clip-path="url(#clip20)" clip-rule="nonzero">
<path style=" stroke:none;fill-rule:nonzero;fill:rgb(6.27451%,43.529412%,45.882353%);fill-opacity:1;" d="M 68.195312 106.273438 C 68.195312 105.527344 68.757812 104.78125 69.503906 104.78125 C 70.253906 104.78125 70.816406 105.527344 70.816406 106.273438 C 70.816406 107.015625 70.253906 107.578125 69.503906 107.578125 C 68.757812 107.578125 68.195312 107.015625 68.195312 106.273438 Z M 68.195312 106.273438 "/>
</g>
</g>
<g clip-path="url(#clip21)" clip-rule="nonzero">
<g clip-path="url(#clip22)" clip-rule="nonzero">
<path style="fill:none;stroke-width:2;stroke-linecap:butt;stroke-linejoin:miter;stroke:rgb(0%,0%,0%);stroke-opacity:1;stroke-miterlimit:3.3333;" d="M 483.607059 756.313848 C 483.607059 751.003174 487.596027 745.6925 492.886951 745.6925 C 498.205576 745.6925 502.194545 751.003174 502.194545 756.313848 C 502.194545 761.596718 498.205576 765.600577 492.886951 765.600577 C 487.596027 765.600577 483.607059 761.596718 483.607059 756.313848 Z M 483.607059 756.313848 " transform="matrix(0.141014,0,0,0.140489,0,0.0193099)"/>
</g>
</g>
<g clip-path="url(#clip23)" clip-rule="nonzero">
<g clip-path="url(#clip24)" clip-rule="nonzero">
<path style="fill:none;stroke-width:2;stroke-linecap:butt;stroke-linejoin:miter;stroke:rgb(0%,0%,0%);stroke-opacity:1;stroke-miterlimit:3.3333;" d="M 527.402611 790.791523 L 544.688143 789.512512 L 530.089625 808.113773 Z M 527.402611 790.791523 " transform="matrix(0.141014,0,0,0.140489,0,0.0193099)"/>
</g>
</g>
<g clip-path="url(#clip25)" clip-rule="nonzero">
<g clip-path="url(#clip26)" clip-rule="nonzero">
<path style="fill:none;stroke-width:2;stroke-linecap:butt;stroke-linejoin:miter;stroke:rgb(0%,0%,0%);stroke-opacity:1;stroke-miterlimit:3.3333;" d="M 422.498273 606.308161 C 422.498273 606.308161 425.212988 731.095098 425.212988 733.708728 C 425.212988 737.712587 429.201957 742.995456 443.800475 742.995456 C 457.097037 742.995456 469.008541 731.095098 469.008541 721.808369 C 469.008541 720.501554 461.002902 598.300443 461.002902 598.300443 " transform="matrix(0.141014,0,0,0.140489,0,0.0193099)"/>
</g>
</g>
<g clip-path="url(#clip27)" clip-rule="nonzero">
<g clip-path="url(#clip28)" clip-rule="nonzero">
<path style="fill:none;stroke-width:2;stroke-linecap:round;stroke-linejoin:miter;stroke:rgb(0%,0%,0%);stroke-opacity:1;stroke-miterlimit:3.3333;" d="M 401.306877 785.508653 C 401.306877 785.508653 427.789197 798.79924 429.201957 866.503383 C 430.503912 882.407601 431.888971 936.90457 466.404631 951.501972 C 466.404631 951.501972 467.706586 951.501972 469.091645 951.501972 C 494.299711 960.7887 523.496746 947.498113 534.106295 922.307167 C 542.111934 901.092276 531.39158 875.790111 510.200184 867.893612 C 492.886951 861.303927 474.41027 869.200427 467.706586 886.494873 C 461.113707 899.813265 467.706586 915.689678 482.305104 921.000352 C 492.886951 925.004211 504.90926 919.693537 510.200184 909.099994 C 512.887197 899.813265 508.898229 890.498732 500.89259 886.494873 C 492.886951 883.797829 484.992117 887.801688 482.305104 894.502591 M 488.897982 1000.604853 C 494.188906 991.29032 506.211215 990.01131 515.408004 995.294179 C 525.989852 1003.301897 528.704566 1017.8993 520.698928 1028.492843 C 511.391334 1041.811235 492.803848 1045.787289 479.507285 1036.500561 C 462.194053 1024.600202 458.288187 1001.995082 470.199691 984.700636 C 484.798209 963.513549 513.995244 958.202875 535.186641 972.800277 C 560.394707 991.401539 567.098391 1027.213832 549.812859 1053.795007 C 527.208703 1085.686856 484.798209 1093.61116 451.612205 1073.703084 C 450.31025 1073.703084 450.31025 1072.396269 448.89749 1072.396269 C 427.706094 1057.798866 421.00241 1023.293387 419.700455 1003.413115 C 419.700455 983.505039 417.013441 936.987983 411.694816 919.804755 C 407.705848 902.510309 395.794344 887.912907 395.794344 887.912907 M 393.301238 1056.297419 C 393.301238 1056.297419 383.993645 1056.297419 383.993645 1049.707734 C 383.993645 1041.700017 388.010314 1037.807376 393.301238 1037.807376 C 398.592162 1037.807376 407.899756 1041.811235 409.201711 1055.101822 C 411.888725 1068.39241 403.910787 1079.013758 393.301238 1081.599583 C 382.691689 1082.906398 377.400766 1076.288909 372.109842 1065.695366 C 368.093172 1055.101822 368.093172 1040.50442 364.104203 1033.803517 M 348.20373 1105.4003 C 348.20373 1105.4003 349.505686 1094.806757 357.511324 1094.806757 C 365.489262 1094.806757 366.791217 1102.78667 366.791217 1106.707115 C 366.791217 1109.404159 366.791217 1119.997703 354.907414 1121.304518 C 341.610852 1122.611333 334.990271 1097.392582 334.990271 1097.392582 M 334.907168 1129.312236 C 334.907168 1129.312236 344.187061 1139.905779 337.594182 1146.606682 C 321.693709 1158.50704 317.70474 1132.00928 317.70474 1132.00928 M 464.991871 1141.296008 C 464.991871 1141.296008 458.398992 1146.606682 454.410023 1137.292149 C 450.393354 1129.312236 458.398992 1125.39179 459.700947 1124.001562 C 462.387961 1124.001562 472.99751 1119.997703 480.892344 1129.312236 C 487.512924 1138.598964 483.607059 1151.889551 483.607059 1154.503182 C 482.305104 1155.809997 479.590389 1165.096725 467.706586 1166.40354 C 441.196564 1165.096725 435.794836 1126.587387 435.794836 1126.587387 M 426.487242 1191.705704 C 426.487242 1191.705704 427.789197 1185.088215 434.492881 1183.697986 C 442.49852 1182.391171 446.404385 1190.287671 446.404385 1198.295389 C 446.404385 1204.912878 443.68967 1211.613781 430.503912 1211.613781 C 418.592408 1211.613781 413.19068 1191.705704 413.19068 1191.705704 M 660.091225 1013.812027 C 660.091225 1013.812027 661.39318 1029.68844 648.207422 1029.68844 C 633.608904 1029.68844 629.592234 1015.091037 629.592234 1011.087178 C 630.894189 1005.804309 634.910859 991.206907 652.196391 991.206907 C 669.509623 992.513722 681.393426 1004.497494 682.695381 1021.708526 C 683.997336 1039.002973 669.398818 1068.197778 630.894189 1065.500734 C 591.087605 1061.496875 581.807713 1005.804309 581.807713 1001.80045 C 581.807713 996.489776 577.791043 968.601786 575.187133 950.000525 C 571.198164 916.801861 552.610678 867.69898 552.610678 867.69898 M 771.588441 1049.707734 C 771.588441 1049.707734 771.588441 1067.002181 756.989924 1067.002181 C 742.391406 1065.695366 739.704393 1051.097963 739.704393 1045.787289 C 739.704393 1041.811235 744.995316 1023.209974 763.610504 1024.600202 C 782.19799 1025.907017 791.505584 1041.894649 790.092824 1057.798866 C 788.790869 1071.089453 787.405811 1100.312063 750.28624 1100.312063 C 713.111268 1100.312063 713.111268 1072.396269 710.507357 1063.10954 C 709.205402 1055.101822 682.612277 959.593104 661.39318 938.294798 M 876.492779 1008.501353 C 876.492779 1008.501353 880.509449 1000.493635 893.806012 1000.493635 C 908.404529 1000.493635 913.695453 1017.788081 913.695453 1024.40557 C 913.695453 1030.995255 911.008439 1052.29356 881.811404 1053.600375 C 852.586668 1054.90719 843.306775 1024.40557 843.306775 1013.812027 C 844.60873 997.907809 857.905293 960.705287 905.689814 967.294971 C 953.502037 973.91246 961.507676 1023.098755 960.094916 1032.30207 C 960.094916 1040.309788 956.105947 1104.010071 884.387613 1104.010071 C 786.186959 1105.289082 787.488914 965.904742 768.901428 944.689851 M 1043.807857 958.091656 C 1043.807857 958.091656 1047.796826 968.713005 1038.489232 968.713005 C 1030.511295 967.406189 1029.20934 962.095515 1029.20934 958.091656 C 1029.20934 954.087798 1029.20934 946.191298 1039.791187 946.191298 C 1051.702691 946.191298 1058.406375 958.091656 1058.406375 964.792559 C 1057.10442 967.489603 1059.70833 979.389962 1039.791187 980.696777 C 1019.901746 983.393821 1013.308867 955.505831 1006.605184 948.804928 C 1001.286559 942.187439 984.001027 938.211385 984.001027 938.211385 M 1100.899973 960.705287 C 1100.899973 960.705287 1102.201928 968.713005 1094.307094 969.992015 C 1087.686514 969.992015 1084.9995 960.705287 1084.9995 958.091656 C 1084.9995 954.087798 1084.9995 946.191298 1096.911004 946.191298 C 1108.794807 946.191298 1114.196535 959.50969 1114.196535 964.792559 C 1114.196535 968.796418 1114.196535 982.087006 1096.911004 983.393821 C 1081.010531 986.090865 1074.306848 966.099374 1074.306848 966.099374 C 1074.306848 966.099374 1066.301209 942.187439 1064.999254 938.211385 C 1062.31224 935.486536 1045.109812 920.889134 1045.109812 920.889134 M 1163.199908 955.394613 C 1163.199908 955.394613 1164.501863 964.709146 1156.607029 965.988156 C 1147.299436 967.294971 1144.695525 956.701428 1144.695525 954.087798 C 1145.99748 952.808787 1144.695525 940.79721 1160.595998 942.187439 C 1175.194516 942.187439 1179.211186 954.087798 1179.211186 960.7887 C 1179.211186 966.099374 1176.496471 983.393821 1157.992088 983.393821 C 1139.487705 983.393821 1135.387932 971.493462 1131.509768 962.206734 C 1127.603902 952.892201 1127.493098 939.601613 1122.202174 931.705114 C 1116.91125 925.087625 1099.598018 911.797037 1099.598018 911.797037 M 1217.688113 950.111743 C 1217.688113 950.111743 1217.688113 958.091656 1211.095234 958.091656 C 1204.502355 958.091656 1201.787641 950.111743 1200.513387 946.191298 C 1200.513387 943.494254 1201.787641 935.597754 1213.809949 936.90457 C 1225.693752 936.90457 1229.710422 944.912287 1231.09548 952.808787 C 1232.397436 964.709146 1225.804557 973.995874 1212.507994 973.995874 C 1199.211432 973.995874 1192.590852 963.402331 1189.903838 958.091656 C 1188.601883 952.808787 1185.887168 935.486536 1181.898199 928.896852 C 1176.607275 920.889134 1163.310713 910.29559 1163.310713 910.29559 M 1250.901818 946.107884 C 1250.901818 946.107884 1250.901818 940.79721 1254.890787 940.79721 C 1260.209412 940.79721 1265.500336 944.801069 1264.198381 951.390754 C 1264.198381 956.701428 1264.198381 959.398472 1256.192742 960.705287 C 1237.605256 960.705287 1231.012377 919.498905 1231.012377 919.498905 M 1061.010285 1243.505629 C 1061.010285 1239.50177 1068.988223 1227.601412 1068.988223 1227.601412 M 1073.004893 1247.509488 C 1071.702937 1242.198814 1079.597771 1226.294597 1079.597771 1226.294597 M 992.006666 1266.11075 C 989.291951 1258.103032 994.69368 1248.788499 994.69368 1248.788499 M 977.408148 1263.413706 C 977.408148 1254.099173 989.291951 1247.509488 989.291951 1247.509488 M 322.995664 1292.608511 C 321.693709 1287.297837 336.292227 1283.293978 336.292227 1283.293978 M 312.413816 1284.600793 C 312.413816 1279.290119 331.001303 1276.593075 331.001303 1276.593075 " transform="matrix(0.141014,0,0,0.140489,0,0.0193099)"/>
</g>
</g>
<g clip-path="url(#clip29)" clip-rule="nonzero">
<g clip-path="url(#clip30)" clip-rule="nonzero">
<path style="fill:none;stroke-width:2;stroke-linecap:round;stroke-linejoin:miter;stroke:rgb(0%,0%,0%);stroke-opacity:1;stroke-miterlimit:3.3333;" d="M 230.113635 1239.50177 C 230.113635 1232.912086 241.997437 1227.601412 241.997437 1227.601412 M 220.806041 1232.912086 C 220.806041 1224.904368 236.706514 1219.593694 236.706514 1219.593694 " transform="matrix(0.141014,0,0,0.140489,0,0.0193099)"/>
</g>
</g>
<g clip-path="url(#clip31)" clip-rule="nonzero">
<g clip-path="url(#clip32)" clip-rule="nonzero">
<path style=" stroke:none;fill-rule:nonzero;fill:rgb(94.509804%,72.54902%,29.019608%);fill-opacity:1;" d="M 101.21875 36.953125 L 101.21875 36.320312 L 108.480469 36.320312 L 108.480469 34.480469 L 101.21875 34.480469 L 101.21875 28.847656 L 106.917969 28.847656 L 106.917969 27.203125 L 101.21875 27.203125 L 101.21875 19.757812 L 99.597656 19.757812 L 99.597656 27.203125 L 93.902344 27.203125 L 93.902344 28.847656 L 99.597656 28.847656 L 99.597656 34.480469 L 92.335938 34.480469 L 92.335938 36.320312 L 99.597656 36.320312 L 99.597656 36.953125 L 88.515625 52.15625 L 91.882812 52.15625 L 100.402344 40.3125 L 108.933594 52.15625 L 112.289062 52.15625 Z M 101.21875 36.953125 "/>
</g>
</g>
<g clip-path="url(#clip33)" clip-rule="nonzero">
<g clip-path="url(#clip34)" clip-rule="nonzero">
<path style="fill:none;stroke-width:2;stroke-linecap:butt;stroke-linejoin:miter;stroke:rgb(0%,0%,0%);stroke-opacity:1;stroke-miterlimit:10;" d="M 717.792766 262.893842 L 717.792766 258.389501 L 769.289244 258.389501 L 769.289244 245.293545 L 717.792766 245.293545 L 717.792766 205.199347 L 758.208775 205.199347 L 758.208775 193.49362 L 717.792766 193.49362 L 717.792766 140.498098 L 706.296779 140.498098 L 706.296779 193.49362 L 665.908471 193.49362 L 665.908471 205.199347 L 706.296779 205.199347 L 706.296779 245.293545 L 654.800301 245.293545 L 654.800301 258.389501 L 706.296779 258.389501 L 706.296779 262.893842 L 627.708555 371.109252 L 651.586965 371.109252 L 712.003221 286.805777 L 772.50258 371.109252 L 796.297887 371.109252 Z M 717.792766 262.893842 " transform="matrix(0.141014,0,0,0.140489,0,0.0193099)"/>
</g>
</g>
<g clip-path="url(#clip35)" clip-rule="nonzero">
<g clip-path="url(#clip36)" clip-rule="nonzero">
<path style=" stroke:none;fill-rule:nonzero;fill:rgb(94.509804%,72.54902%,29.019608%);fill-opacity:1;" d="M 184.644531 94.78125 L 180.765625 94.78125 L 173.574219 104.585938 L 166.382812 94.78125 L 162.519531 94.78125 L 172.628906 108.617188 L 172.628906 116.316406 L 174.53125 116.316406 L 174.53125 108.617188 Z M 184.644531 94.78125 "/>
</g>
</g>
<g clip-path="url(#clip37)" clip-rule="nonzero">
<g clip-path="url(#clip38)" clip-rule="nonzero">
<path style="fill:none;stroke-width:2;stroke-linecap:butt;stroke-linejoin:miter;stroke:rgb(0%,0%,0%);stroke-opacity:1;stroke-miterlimit:10;" d="M 1309.406693 674.512786 L 1281.89943 674.512786 L 1230.901572 744.302271 L 1179.903715 674.512786 L 1152.507256 674.512786 L 1224.197889 772.996594 L 1224.197889 827.799413 L 1237.688359 827.799413 L 1237.688359 772.996594 Z M 1309.406693 674.512786 " transform="matrix(0.141014,0,0,0.140489,0,0.0193099)"/>
</g>
</g>
<g clip-path="url(#clip39)" clip-rule="nonzero">
<g clip-path="url(#clip40)" clip-rule="nonzero">
<path style=" stroke:none;fill-rule:nonzero;fill:rgb(94.509804%,72.54902%,29.019608%);fill-opacity:1;" d="M 33.589844 97.292969 L 33.589844 106.832031 L 25.863281 106.832031 L 25.863281 97.292969 L 24.367188 97.292969 L 24.367188 106.832031 L 16.652344 106.832031 L 16.652344 97.292969 L 15.160156 97.292969 L 15.160156 117.875 L 16.652344 117.875 L 16.652344 108.324219 L 24.367188 108.324219 L 24.367188 117.875 L 25.863281 117.875 L 25.863281 108.324219 L 33.589844 108.324219 L 33.589844 117.875 L 35.070312 117.875 L 35.070312 97.292969 Z M 33.589844 97.292969 "/>
</g>
</g>
<g clip-path="url(#clip41)" clip-rule="nonzero">
<g clip-path="url(#clip42)" clip-rule="nonzero">
<path style="fill:none;stroke-width:2;stroke-linecap:butt;stroke-linejoin:miter;stroke:rgb(0%,0%,0%);stroke-opacity:1;stroke-miterlimit:10;" d="M 238.202377 692.391128 L 238.202377 760.289903 L 183.409459 760.289903 L 183.409459 692.391128 L 172.79991 692.391128 L 172.79991 760.289903 L 118.090096 760.289903 L 118.090096 692.391128 L 107.508248 692.391128 L 107.508248 838.893439 L 118.090096 838.893439 L 118.090096 770.911251 L 172.79991 770.911251 L 172.79991 838.893439 L 183.409459 838.893439 L 183.409459 770.911251 L 238.202377 770.911251 L 238.202377 838.893439 L 248.701121 838.893439 L 248.701121 692.391128 Z M 238.202377 692.391128 " transform="matrix(0.141014,0,0,0.140489,0,0.0193099)"/>
</g>
</g>
<g clip-path="url(#clip43)" clip-rule="nonzero">
<g clip-path="url(#clip44)" clip-rule="nonzero">
<path style="fill-rule:nonzero;fill:rgb(94.509804%,72.54902%,29.019608%);fill-opacity:1;stroke-width:2;stroke-linecap:butt;stroke-linejoin:miter;stroke:rgb(0%,0%,0%);stroke-opacity:1;stroke-miterlimit:10;" d="M 782.502703 1324.889623 L 782.502703 1312.099518 L 634.495342 1312.099518 L 634.495342 1324.889623 L 702.390914 1324.889623 L 702.390914 1364.010662 L 634.495342 1364.010662 L 634.495342 1376.800767 L 702.390914 1376.800767 L 702.390914 1470.39097 L 712.69575 1470.39097 L 712.69575 1376.800767 L 782.502703 1376.800767 L 782.502703 1364.010662 L 712.69575 1364.010662 L 712.69575 1324.889623 Z M 782.502703 1324.889623 " transform="matrix(0.141014,0,0,0.140489,0,0.0193099)"/>
</g>
</g>
</g>
</svg>
