<?xml version="1.0" encoding="UTF-8"?>
<!DOCTYPE svg PUBLIC "-//W3C//DTD SVG 1.1//EN" "http://www.w3.org/Graphics/SVG/1.1/DTD/svg11.dtd">
<!-- Creator: CorelDRAW X8 -->
<svg xmlns="http://www.w3.org/2000/svg" xml:space="preserve" width="3102px" height="3130px" version="1.1" style="shape-rendering:geometricPrecision; text-rendering:geometricPrecision; image-rendering:optimizeQuality; fill-rule:evenodd; clip-rule:evenodd"
viewBox="0 0 310200000 312999921"
 xmlns:xlink="http://www.w3.org/1999/xlink">
 <defs>
  <style type="text/css">
   <![CDATA[
    .str1 {stroke:white;stroke-width:312520}
    .str0 {stroke:black;stroke-width:625039}
    .fil5 {fill:none}
    .fil2 {fill:black}
    .fil3 {fill:#0074C1}
    .fil6 {fill:#F5BB3F}
    .fil1 {fill:#FF3300}
    .fil0 {fill:#FFD500}
    .fil4 {fill:white}
   ]]>
  </style>
 </defs>
 <g id="Слой_x0020_1">
  <metadata id="CorelCorpID_0Corel-Layer"/>
  <polygon class="fil0" points="174898937,37759252 185617323,27040866 174898937,16637362 185617323,16637362 185617323,5603268 196335827,16637362 206738622,5603268 206738622,16637362 217772717,16637362 206738622,27040866 217772717,37759252 206738622,37759252 206738622,48477756 196335827,37759252 185617323,48477756 185617323,37759252 "/>
  <g id="_2774201906480">
   <polygon class="fil1" points="182027480,34806496 188570079,34806496 188570079,41349213 196367244,33551929 203785866,41195669 203785866,34806496 210495236,34806496 202468110,27009094 210336732,19590118 203785866,19590118 203785866,13039606 196367717,20907992 188570079,12880748 188570079,19590118 182180551,19590118 189824528,27009449 "/>
  </g>
  <polygon class="fil0" points="133901929,32456220 144620315,21737835 133901929,11334331 144620315,11334331 144620315,300236 155338819,11334331 165741614,300236 165741614,11334331 176775709,11334331 165741614,21737835 176775709,32456220 165741614,32456220 165741614,43174724 155338819,32456220 144620315,43174724 144620315,32456220 "/>
  <g id="_2774201906672">
   <polygon class="fil1" points="141030472,29503465 147573071,29503465 147573071,36046181 155370236,28248898 162788858,35892638 162788858,29503465 169498228,29503465 161471102,21706063 169339724,14287087 162788858,14287087 162788858,7736575 155370709,15604961 147573071,7577717 147573071,14287087 141183543,14287087 148827520,21706417 "/>
  </g>
  <polygon class="fil0" points="92755748,37882913 103474134,27164528 92755748,16761024 103474134,16761024 103474134,5726929 114192638,16761024 124595433,5726929 124595433,16761024 135629528,16761024 124595433,27164528 135629528,37882913 124595433,37882913 124595433,48601417 114192638,37882913 103474134,48601417 103474134,37882913 "/>
  <g id="_2774201903472">
   <polygon class="fil1" points="99884291,34930157 106426890,34930157 106426890,41472874 114224055,33675591 121642677,41319331 121642677,34930157 128352047,34930157 120324921,27132756 128193543,19713780 121642677,19713780 121642677,13163268 114224528,21031654 106426890,13004409 106426890,19713780 100037362,19713780 107681339,27133110 "/>
  </g>
  <g id="ramka">
   <g>
    <g>
     <path class="fil2" d="M228283110 55989094l0 156800315c0,10269449 -8335866,18579685 -18637204,18579685l-27977481 0c-14685827,0 -26568425,9028229 -26568425,20185040 0,-11156811 -11882598,-20185040 -26567835,-20185040l-27977008 0c-10301574,0 -18637913,-8310118 -18637913,-18579685l0 -156800315 146365866 0 0 0zm4670788 -4670787l-4670788 0 -146365866 0 -4670787 0 0 4670787 0 156800315c0,6217087 2425393,12058819 6829134,16448741 4400078,4386141 10252559,6801614 16479566,6801614l27977008 0c6087992,0 11757992,1760315 15965079,4957205 3825354,2906220 5931850,6655511 5931850,10557401l9341339 0c0,-3901653 2106496,-7650827 5931850,-10557401 4207560,-3196536 9877323,-4957205 15965670,-4957205l27977126 0c6227126,0 12079488,-2415473 16479449,-6801614 4403622,-4389922 6828543,-10231772 6828543,-16448741l0 -156800315 0 -4670787 827 0z"/>
    </g>
   </g>
  </g>
  <path class="fil3" d="M153024094 251554134c0,-9985158 -10987086,-18109134 -24491929,-18109134l-27977008 0c-11421614,0 -20713937,-9266220 -20713937,-20655945l0 -158876102 150517796 0 0 158876220c0,11389607 -9292205,20655827 -20713465,20655827l-27977362 0c-13505079,0 -24492283,8123976 -24492283,18109134l-4151812 0z"/>
  <g>
   <path class="fil4" d="M228283110 55988740l0 156800315c0,10269685 -8336102,18580039 -18637441,18580039l-27977480 0c-14685472,0 -26568189,9028229 -26568189,20185040 0,-11156811 -11882835,-20185040 -26567835,-20185040l-27977008 0c-10301811,0 -18637913,-8310118 -18637913,-18580039l0 -156800315 146365866 0 0 0zm4151811 -4151693l-4151811 0 -150517677 0 0 160952008c0,6078543 2371181,11789528 6676299,16081417 4302048,4288465 10024488,6650315 16113307,6650315l27976772 0c6200669,0 11982047,1797993 16279370,5062796 3957402,3006968 6136772,6903071 6136772,10970551l8303622 0c0,-4067599 2179370,-7963583 6136771,-10970551 4297441,-3264803 10078701,-5062796 16279371,-5062796l27977126 0c6088818,0 11811259,-2361850 16113070,-6650315 4305355,-4291889 6676300,-10002874 6676300,-16081417l-119 -156800315 0 -4151693 827 0z"/>
  </g>
  <line class="fil5 str0" x1="150664724" y1="251294646" x2="159535630" y2= "251294646" />
  <g id="utki">
   <path class="fil4" d="M145361220 168194528c-2270433,-2594764 -2723503,-5069528 -4150748,-6820985 -1427126,-1751574 -4672795,-3000945 -4672795,-4233543 0,-1232598 3797362,-1412717 6041339,-832913 2155275,556771 3095197,1202480 5031141,2870669 1877953,1617874 3862678,4758661 4854449,5903268 1002756,1157126 3964134,3395905 5189764,4605945 1176732,1162204 2916850,3342755 3470551,3146220 1005591,-356693 1924607,-5049095 3351733,-7124882 1249960,-1818425 5535708,-4086850 6962834,-5449252 1427126,-1362283 4103268,-6189803 4995118,-6449291 809882,-235512 2626418,4524449 1264843,9260551 -745984,2594882 -7427717,7916457 -8141339,9666968 -713504,1750394 -512716,2931851 -972992,4215473 -535275,1492087 -2351693,2449016 -2140748,3049016 100394,286063 2400236,454134 3113740,454134 713622,0 4589882,-730040 5048032,-312638 352086,320433 -668386,2551771 -1901693,3523701 -1913622,1507795 -1005473,3080787 -1264843,3794409 -259370,713504 -3244015,1957795 -5773582,2010945 -9276615,194882 -15412914,-6708662 -20304685,-8108858 -4703150,-1346221 -4570512,-647717 -6616890,-892087 -2173229,-259488 -1946103,-600236 -3308386,-1054252 -1362165,-454134 -4865315,194528 -4865315,-713622 0,-908150 1686732,-389291 3373346,-1102795 1686615,-713622 1581851,-1319528 2638111,-1967717 951614,-583819 2616496,-432520 3524645,-43346 908150,389291 5254489,2578819 7070906,2967992 1816417,389291 6146929,1625197 6422244,340748 259488,-1210984 -1210984,-3373347 -3308386,-5903268 -1819016,-2194016 -4930394,-4800590 -4930394,-4800590z"/>
   <path class="fil4" d="M109746969 137142756c-2270434,-2594764 -2723504,-5069528 -4150749,-6821102 -1427126,-1751457 -4672795,-3001182 -4672795,-4233780 0,-1232598 3797362,-1412598 6041339,-832913 2155275,556889 3095197,1202480 5031142,2870669 1877952,1617874 3862677,4758661 4854448,5903268 1002638,1157126 3964134,3395905 5189764,4605945 1176732,1162322 2916851,3342755 3470551,3146338 1005591,-356811 1924607,-5049094 3351733,-7125000 1249960,-1818425 5535708,-4086850 6962834,-5449134 1427126,-1362401 4103268,-6189803 4995000,-6449291 810000,-235630 2626536,4524331 1264961,9260551 -745984,2594764 -7427717,7916339 -8141339,9666850 -713504,1750512 -512716,2931851 -972992,4215591 -535394,1492087 -2351693,2448898 -2140748,3048898 100394,286063 2400236,454134 3113740,454134 713622,0 4589882,-729922 5048032,-312638 352086,320433 -668386,2551771 -1901693,3524055 -1913740,1508386 -1005591,3081378 -1264961,3794882 -259370,713622 -3244016,1957913 -5773582,2011063 -9276615,194527 -15412914,-6709016 -20304685,-8109213 -4703150,-1346220 -4570512,-647716 -6616890,-892086 -2173229,-259489 -1946103,-600237 -3308386,-1054252 -1362165,-454134 -4865315,194527 -4865315,-713622 0,-908150 1686732,-389174 3373346,-1102796 1686615,-713622 1581851,-1319527 2638111,-1967598 951614,-583937 2616496,-432638 3524645,-43347 908150,389174 5254489,2578701 7070906,2967874 1816417,389292 6146929,1625197 6422244,340748 259488,-1210984 -1210984,-3373346 -3308386,-5903267 -1819016,-2194370 -4930275,-4800827 -4930275,-4800827z"/>
   <path class="fil4" d="M181126890 137142756c-2270551,-2594764 -2723622,-5069528 -4150748,-6821102 -1427126,-1751457 -4672796,-3000945 -4672796,-4233544 0,-1232480 3797599,-1412598 6041103,-832913 2155512,556890 3095197,1202480 5031378,2870787 1877953,1617874 3862795,4758662 4854449,5903268 1002401,1157008 3964133,3395905 5189763,4605945 1176733,1162205 2916851,3342638 3470552,3146220 1005472,-357165 1924606,-5049448 3351850,-7125236 1249842,-1818543 5535590,-4086968 6962716,-5449252 1427245,-1362401 4103268,-6189803 4995119,-6449291 809881,-235630 2626417,4524331 1264960,9260551 -746102,2594764 -7427834,7916339 -8141338,9666850 -713622,1750512 -512717,2931851 -973111,4215591 -535275,1492087 -2351693,2448898 -2140748,3049016 100394,285945 2400237,454015 3113859,454015 713504,0 4589763,-729921 5048031,-312637 352087,320551 -668504,2551771 -1901811,3523819 -1913622,1508267 -1005472,3081259 -1264961,3794881 -259370,713622 -3244015,1957796 -5773582,2010945 -9276614,194882 -15412795,-6708661 -20304567,-8108858 -4703268,-1346220 -4570630,-647598 -6616890,-892087 -2173228,-259488 -1946220,-600118 -3308504,-1054252 -1362165,-454133 -4865197,194528 -4865197,-713622 0,-908149 1686614,-389173 3373229,-1102795 1686732,-713622 1581850,-1319527 2638228,-1967598 951496,-583819 2616378,-432638 3524528,-43347 908149,389173 5254606,2578701 7071023,2967992 1816418,389174 6146929,1625079 6422126,340630 259606,-1210984 -1210630,-3373346 -3308386,-5903267 -1819015,-2194252 -4930275,-4800709 -4930275,-4800709z"/>
   <path class="fil4" d="M109746969 198900236c-2270434,-2594882 -2723504,-5069645 -4150749,-6821102 -1427126,-1751457 -4672795,-3001299 -4672795,-4233780 0,-1232480 3797362,-1412598 6041339,-832913 2155275,556890 3095197,1202480 5031142,2870669 1877952,1617992 3862677,4758780 4854448,5903386 1002638,1157008 3964134,3395906 5189764,4605827 1176732,1162323 2916851,3342756 3470551,3146338 1005591,-356811 1924607,-5049094 3351733,-7124881 1249960,-1818544 5535708,-4086969 6962834,-5449252 1427126,-1362402 4103268,-6189804 4995000,-6449292 810000,-235630 2626536,4524449 1264961,9260551 -745984,2594764 -7427717,7916339 -8141339,9666851 -713504,1750512 -512716,2931850 -972992,4215590 -535394,1492087 -2351693,2449016 -2140748,3049016 100394,285945 2400236,454016 3113740,454016 713622,0 4589882,-729921 5048032,-312638 352086,320551 -668386,2551772 -1901693,3523819 -1913740,1508268 -1005591,3081378 -1264961,3794882 -259370,713622 -3244016,1957795 -5773582,2011063 -9276615,194764 -15412914,-6708780 -20304685,-8108977 -4703150,-1346220 -4570512,-647598 -6616890,-892086 -2173229,-259488 -1946103,-600118 -3308386,-1054252 -1362165,-454016 -4865315,194646 -4865315,-713504 0,-908268 1686732,-389291 3373346,-1102913 1686615,-713504 1581851,-1319410 2638111,-1967599 951614,-583819 2616496,-432638 3524645,-43346 908150,389291 5254489,2578700 7070906,2967992 1816417,389173 6146929,1625197 6422244,340630 259488,-1210985 -1210984,-3373229 -3308386,-5903268 -1819016,-2194252 -4930275,-4800827 -4930275,-4800827z"/>
   <path class="fil4" d="M181126890 198900236c-2270551,-2594882 -2723268,-5069645 -4150512,-6821102 -1427126,-1751457 -4673032,-3000945 -4673032,-4233543 0,-1232599 3797245,-1412599 6041339,-832914 2155039,556890 3095079,1202480 5031142,2870669 1877598,1617874 3862677,4758662 4854330,5903268 1002756,1157126 3964134,3395906 5189764,4605945 1176851,1162323 2916851,3342756 3470670,3146339 1005472,-357284 1924606,-5049449 3351850,-7125355 1249842,-1818425 5535590,-4086850 6962716,-5449252 1427245,-1362283 4103268,-6189803 4995119,-6449291 809881,-235512 2626417,4524449 1264960,9260551 -746102,2594882 -7427834,7916339 -8141338,9666851 -713622,1750511 -512717,2931968 -973111,4215590 -535275,1492087 -2351693,2449016 -2140748,3049016 100394,285945 2400237,454134 3113859,454134 713504,0 4589763,-730040 5048031,-312756 352087,320551 -668504,2551771 -1901811,3523819 -1913622,1508386 -1005472,3081378 -1264961,3794882 -259370,713622 -3244015,1957913 -5773582,2011063 -9276614,194881 -15412795,-6708662 -20304567,-8108859 -4703268,-1346338 -4570630,-647716 -6616890,-892086 -2173228,-259488 -1946220,-600236 -3308504,-1054252 -1362165,-454134 -4865197,194527 -4865197,-713622 0,-908150 1686614,-389292 3373229,-1102796 1686732,-713622 1582204,-1319527 2638228,-1967716 951496,-583819 2616378,-432520 3524528,-43347 908149,389292 5254606,2578701 7071023,2967993 1816418,389291 6146929,1625196 6422126,340748 259606,-1210985 -1210984,-3373347 -3308386,-5903386 -1819015,-2194016 -4930275,-4800591 -4930275,-4800591z"/>
  </g>
  <g id="volna">
   <polygon class="fil4" points="81549567,55988740 81549567,110468150 85808740,110468150 90901063,115061102 96544843,110468150 102416575,114438071 108254882,110134961 115261063,114438071 120527835,110468150 125943307,115061102 131537953,110468150 137393031,115061102 142690394,110468150 147783071,114438071 154821142,109161969 161968346,114438071 167093740,110468150 172508858,115061102 178104213,110468150 183958583,115061102 189256299,110468150 194533701,114438071 201355276,110134961 207464882,114438071 213065197,110468150 218708858,115061102 223801299,110468150 228283110,110468150 228283110,55988740 "/>
  </g>
  <polygon class="fil1" points="117985630,81764528 112795866,81764528 118591063,76834252 124472835,81764528 117985630,87300000 122829449,91311142 108471024,103215118 94112953,91311142 98956772,87300000 92469685,81764528 98351220,76834252 104146535,81764528 98956772,81764528 103713898,85656732 108471024,81764528 113228504,85656732 "/>
  <polygon class="fil3" points="164551535,81764528 159361772,81764528 165157087,76834252 171038622,81764528 164551535,87300000 169395591,91311142 155037283,103215118 140679213,91311142 145523031,87300000 139035827,81764528 144917244,76834252 150712677,81764528 145523031,81764528 150280157,85656732 155037283,81764528 159794646,85656732 "/>
  <polygon class="fil1" points="211085787,81764528 205896024,81764528 211691339,76834252 217572874,81764528 211085787,87300000 215929843,91311142 201571535,103215118 187213110,91311142 192057165,87300000 185570079,81764528 191451496,76834252 197246929,81764528 192057165,81764528 196814055,85656732 201571535,81764528 206328898,85656732 "/>
  <polygon class="fil1" points="228283228,106514646 224017677,106514646 218925354,111107835 213281457,106514646 209097283,110199685 204641457,106514646 222762638,91311142 217918937,87300000 224578937,81764528 211259173,70433504 203387953,76834252 203387953,73806850 209875039,68357598 205204252,68357598 201571535,71471457 197938701,68357598 193267913,68357598 199755118,73806850 199755118,76834252 191883780,70433504 178563780,81764528 185223898,87300000 180380197,91311142 198501496,106514646 194327362,110199685 189472677,106514646 184175079,111107835 178320591,106514646 172725354,111107835 167310118,106514646 163125945,110199685 158107205,106514646 176228268,91311142 171384803,87300000 178044685,81764528 164724803,70433504 156853701,76834252 156853701,73806850 163340669,68357598 158670000,68357598 155037283,71471457 151404449,68357598 146733661,68357598 153220866,73806850 153220866,76834252 145349882,70433504 132029646,81764528 138689646,87300000 133846063,91311142 151967244,106514646 147761457,110199685 142906654,106514646 137609173,111107835 131754449,106514646 126159449,111107835 120743976,106514646 116559803,110199685 111541299,106514646 129662362,91311142 124818661,87300000 131478780,81764528 118158780,70433504 110287441,76834252 110287441,73806850 116774646,68357598 112103858,68357598 108471024,71471457 104838189,68357598 100167520,68357598 106654606,73806850 106654606,76834252 98783740,70433504 85463622,81764528 92123504,87300000 87279921,91311142 105401102,106514646 100945512,110199685 96761339,106514646 91117559,111107835 86025118,106514646 81917244,106514646 81917244,55988740 228283110,55988740 "/>
  <polygon class="fil4 str1" points="146820945,87235276 145880315,87235276 145426181,87689291 145426181,94771181 146820945,94771181 "/>
  <polygon class="fil4 str1" points="152351339,87235276 152351339,98474291 151540394,98474291 150786142,97719921 150786142,92749252 147469606,92749252 147469606,91003228 151069961,87235276 "/>
  <ellipse class="fil4 str1" cx="156346343" cy="92749291" rx="3113821" ry="2602860"/>
  <g>
   <path class="fil4" d="M153232205 92749252c0,-3969921 1393701,-5427638 5189764,-5427638l0 1102795c-1997245,0 -3110552,669449 -3110552,1870158l-2079212 2454685zm0 0l0 0 0 0z"/>
   <path id="1" class="fil5 str1" d="M153232205 92749252c0,-3969921 1393701,-5427638 5189764,-5427638l0 1102795c-1997245,0 -3110552,669449 -3110552,1870158m-2079212 2454685l0 0 0 0z"/>
  </g>
  <ellipse class="fil4 str1" cx="162054982" cy="89838089" rx="3113821" ry="2602860"/>
  <g>
   <path class="fil4" d="M165168780 89838071c0,3969921 -1393701,5427638 -5189410,5427638l0 -1102796c1997244,0 3110433,-669448 3110433,-1870157l2078977 -2454685zm0 0l0 0 0 0z"/>
   <path id="1" class="fil5 str1" d="M165168780 89838071c0,3969921 -1393701,5427638 -5189410,5427638l0 -1102796c1997244,0 3110433,-669448 3110433,-1870157m2078977 -2454685l0 0 0 0z"/>
  </g>
  <polygon class="fil3" points="149127992,91624843 150786142,91624843 150786142,89289567 149127992,91003228 "/>
  <ellipse class="fil3" cx="156346343" cy="92749291" rx="1448932" ry="1232485"/>
  <ellipse class="fil3" cx="162054982" cy="89838089" rx="1448932" ry="1232485"/>
  <path class="fil6" d="M218890276 310171890c13289645,-12780236 25365708,-28116851 30347007,-48650788 559134,-1669015 2012363,-1977992 3899174,-339212 2386535,2073543 2016023,4562362 508582,7120157 -651141,1104331 -416693,1470473 341811,1522914 2157402,149882 4841457,623385 7474961,-455433 7167874,-2936575 12696142,-10478977 14899606,-20054410 504567,-2192008 -1202480,-2914370 -8476299,-4068543 8147362,-4192914 8478071,-7020945 5085709,-17799921 3669921,2346377 7748386,4124645 12883937,3559960 6580275,-723779 10751693,-3742205 11358189,-9493464 766653,-7267796 -929410,-15162756 -6102992,-24581339 -885473,-1611850 -480945,-3438543 1017283,-4746614 2056654,-1795630 5180669,-735945 7628858,4746614 945237,2117480 2450788,743386 5933150,-4746614 3955984,-6237284 110315,-14869370 -7967598,-25767992 -731221,-986575 -1903111,-1112835 -5870079,2186575 -1099488,913937 -1450158,1018700 -1250079,17362l847795 -4237914c257244,-1924488 -2331968,-3139134 -5890039,-4291417 -808701,-262087 -946417,-496772 -508937,-440669 4306654,551456 8991142,779173 13811575,-214488 8961614,-1847363 12740079,-7129016 10726653,-14209725 -2790354,-9814606 -9366141,-18832677 -19156417,-26276575 -1043386,-793228 -1362756,-1528110 169370,-2586968 1637244,-1131260 4187717,-742677 6442205,847795 1374921,970039 1868740,1029449 2153976,-962598 191575,-1336536 266457,-3092599 219213,-4587874 -295630,-9378662 -6773268,-15363189 -18139134,-18986929 -1865787,-594567 -2630906,-464292 -3074173,925275 -783898,2458583 -1411418,4581614 -2077323,6897992 -173150,602362 -1099488,651851 -1115433,-33543 -45000,-1919646 -430748,-3754016 -652559,-5585906 -269764,-2226023 -1694528,-2948740 -4129843,-2710629 -721181,70157 -872598,-19252 -691299,-482008 1370433,-3495355 1390748,-6128859 -687283,-8139685 -1608544,-2068465 -3217441,-4136457 -4825867,-6204804 3372402,-788385 6014055,-117047 8077678,1857993 462519,442913 862559,266102 1122755,-336969 2141457,-4969842 2164016,-8527913 278977,-10828465 -3644055,-4447559 -6841890,-6959645 -10698189,-10036771 -776575,-619370 -1268977,-392008 -1842166,634488 -581338,1040079 -1541692,1904528 -2558976,2816929 -384567,344764 -844134,338858 -932362,-238819 -191575,-1256811 -439252,-2496614 -342165,-3861850 187086,-2630197 -1616693,-3501260 -5516811,-3619370 -4701497,-142795 -8715119,224764 -13395945,892795 -803859,114803 -1793032,1804488 -1844410,4161142 -152834,7035708 449173,12187559 1997599,13754291 1679763,1699725 3748582,2290630 6522283,2046614 883228,-77480 1199173,636378 517087,861851 -4075866,1346456 -4130197,2792244 -2597717,4901929 4506260,6201496 9617835,10467520 16256457,9863268 2094567,-190512 2980039,-1211339 3059764,-1666063 110669,-629292 -363189,-823111 -750000,-1199174 -2191300,-2130472 -2076851,-4607008 -464292,-7009842 583111,-869646 1226811,206338 2193898,1615157 2358189,3435945 3541890,6846024 2022992,10295197 -79370,180118 -423779,371339 -617126,402638 -7312559,1183346 -14053228,3343583 -19363110,8396220 -1003937,955276 -929055,1585276 386457,2374016 1615511,968504 2858267,3066496 4085551,6017717 262086,630472 -49488,1016456 -486142,1711889 -6092598,9692835 -7157835,18897638 -2175118,26306103 2541614,3778819 6250275,6182008 10778268,7501535 876968,255355 947126,717520 399330,1708583 -1886811,3413740 -6778110,8559685 -11458228,15514134 -3824528,5683346 -4062638,12575433 -2964921,18190866 3275669,16755472 11380630,27167598 26504645,28999370 3692481,447402 4006536,2957953 0,3765827 -7295196,1471535 -13046338,-2042953 -18503149,-3413032 -13575709,-3408189 -22225394,5240788 -26040000,18217087l-1964646 11288031c-14592874,-2496141 -31056732,-2557441 -50155512,3899528 -18549449,6271890 -18364134,6271890 -36913582,0 -19098780,-6456969 -35562638,-6395669 -50155512,-3899528l-1964646 -11288031c-3814606,-12976299 -12464291,-21625276 -26039646,-18217087 -5456692,1370079 -11208307,4884567 -18503149,3413032 -4006536,-807992 -3692835,-3318544 0,-3765827 15124016,-1831772 23228622,-12244016 26504291,-28999370 1097717,-5615433 859606,-12507520 -2964921,-18190866 -4680118,-6954449 -9571417,-12100394 -11458228,-15514134 -547796,-991063 -477284,-1453110 399330,-1708583 4528111,-1319527 8236772,-3722716 10778268,-7501535 4982835,-7408465 3917598,-16613268 -2174764,-26306103 -437008,-695433 -748582,-1081417 -486496,-1711889 1227284,-2951339 2470394,-5049213 4085551,-6017717 1315512,-788740 1390394,-1418858 386457,-2374016 -5309764,-5052519 -12050197,-7212874 -19363110,-8396220 -193347,-31417 -537756,-222520 -616772,-402638 -1518779,-3449173 -335551,-6859252 2022992,-10295197 967087,-1408819 1610315,-2484685 2193898,-1615157 1612205,2402834 1726653,4879488 -464646,7009842 -386456,376063 -860315,569882 -750000,1199174 79725,454724 965551,1475669 3059764,1666063 6638504,604252 11750079,-3661772 16256457,-9863268 1532834,-2109685 1478267,-3555473 -2597362,-4901929 -682441,-225473 -366142,-939331 516732,-861851 2774173,244016 4842519,-346889 6522283,-2046614 1548307,-1566850 2150315,-6718583 1997599,-13754291 -51260,-2356654 -1040433,-4046339 -1844410,-4161142 -4680827,-668031 -8693976,-1035709 -13395945,-892795 -3900236,118110 -5703661,989173 -5516811,3619370 97087,1365236 -150590,2605039 -342165,3861850 -88228,577677 -547677,583583 -932008,238819 -1017638,-912401 -1977992,-1776850 -2559331,-2816929 -573189,-1026496 -1065590,-1253858 -1842165,-634488 -3856299,3077126 -7053779,5589212 -10698189,10036771 -1884921,2300552 -1862480,5858623 279449,10828465 259842,603071 659882,779882 1122756,336969 2063268,-1975040 4704803,-2646378 8077677,-1857993 -1608898,2068465 -3217795,4136457 -4826339,6204804 -2078031,2010826 -2057716,4644330 -687283,8139685 181535,462874 29882,552165 -690945,482008 -2435669,-238111 -3859961,484606 -4130197,2710629 -221811,1831772 -607559,3666260 -652559,5585906 -15827,685394 -942283,635905 -1115433,33543 -665905,-2316496 -1292953,-4439527 -2077323,-6897992 -443268,-1389685 -1208386,-1519961 -3074173,-925275 -11365866,3623740 -17843504,9608267 -18139134,18986929 -46890,1495157 27638,3251338 219213,4587874 285708,1992047 779173,1932637 2154094,962598 2254370,-1590472 4804843,-1979055 6442205,-847795 1532126,1058976 1212874,1793858 169370,2586968 -9790276,7443898 -16366063,16461969 -19156417,26276575 -2013071,7080709 1765039,12362480 10726653,14209725 4820433,993661 9504921,765826 13811575,214488 437362,-56103 299646,178582 -508937,440669 -3558071,1152283 -6147283,2367047 -5890039,4291417l847795 4237914c200433,1001338 -150591,896575 -1249724,-17362 -3967441,-3299292 -5139331,-3173150 -5870434,-2186575 -8078031,10898622 -11923582,19530708 -7967598,25767992 3482362,5489882 4987913,6864094 5933622,4746614 2447835,-5482559 5571850,-6542244 7628504,-4746614 1498110,1308071 1902638,3134764 1017283,4746614 -5173228,9418583 -6869645,17313543 -6102992,24581339 606378,5751259 4777914,8769685 11358189,9493464 5135906,564685 9214489,-1213583 12883937,-3559960 -3392362,10779094 -3061653,13607007 5085709,17799921 -7273701,1154173 -8980866,1876535 -8476299,4068543 2203819,9575433 7731850,17117835 14899606,20054410 2633504,1078818 5317559,605315 7474961,455433 758858,-52441 992834,-418583 342165,-1522914 -1507795,-2557795 -1878307,-5046614 508228,-7120157 1886811,-1638780 3339922,-1329803 3899174,339212 4981299,20533819 17057362,35870433 30347008,48650788 9991417,-7020591 20135551,-10431378 32661614,-4475315 20410984,9706181 41845984,9705827 62256968,0 12525945,-5956063 22670197,-2545276 32661614,4475315l237 0zm-154277953 -49584213c-168662,-2713937 3759567,-2638701 6514488,1566851 1649528,-1181811 2968583,-2693622 3958228,-4535434 1491142,5895945 -804212,11008583 -5689606,15585355l-4783110 -12616772zm-14429764 -40225039c12943819,3066023 16041260,5436378 15222165,16067834 4683071,-2991850 7902284,-4315039 8738741,-2161063 644763,1659804 1949527,3930473 2725039,7893071 1566024,-877323 3132165,-1253031 4698189,-1127598 -356221,-13457244 -3706772,-23161063 -12309331,-26404252 -3711260,-1399252 -9874370,427087 -19074803,5732008zm-27303425 -21286063c-6573189,9520748 -9122126,17936575 -3345473,24400512 2421969,2709567 10029095,1569448 22629567,-4919646 2273977,-1170827 2041890,-2130827 0,-1770945 -7411771,805394 -10818543,-1301102 -12156496,-5491063 -564685,-1767992 1824803,-2747953 9204803,-5922165 19661693,-8455630 29238898,-22179685 21842245,-39355158 -2280591,-5295827 -8874567,-6771378 -16135749,-6887362 4021300,7348346 5958662,13158543 3738544,15938976 -1156418,1448386 -2787402,3140670 -5528268,4878662 -1384488,1138346 -1423937,1433622 371339,1576771 4648346,370158 6751535,1969134 6141023,4170355 -3366850,12137362 -9440315,19666535 -19718858,19519252 -1088858,-15473 -1319173,-1010906 -472795,-3181181 1439882,-3690945 -3203740,-6041693 -6569882,-2957244l0 236zm2708149 -55587166c-3410433,-1140118 -5533582,-282401 -5425748,1679410 256182,4660630 5209016,8027480 15759922,8267716 559960,12520 994724,-1018346 1162677,-2002322 156496,-918307 482716,-826418 1098071,-322914l3552519 2906221c2992205,-360591 6297166,-186733 9946772,1098071 1994646,702401 2767087,619370 2002323,-193819 -2326417,-2473347 -4650591,-5124095 -6588307,-8331969 -7206969,818268 -14079803,-616772 -21508229,-3100394zm-2521299 -14740157c3852284,-3779528 180827,-7623307 -2491063,-5535354 -8021929,6269763 -13923779,13282204 -15360236,20895590 -1574528,8348150 5880472,10240866 15498661,9133229 -4817480,-1920000 -7285984,-4892008 -6919015,-9133229 306614,-3467126 3501614,-6810354 7334291,-5811732 8256614,2352283 16512874,3505275 24770315,2905866 -145394,-6737835 3050197,-10522205 8856378,-11623937 1519252,-288307 2552716,1103976 1668307,1858346 -3608976,3079371 -5871142,5013426 -5681457,8243386 11243386,-4993110 14918386,-14350393 8126693,-24417874 -2834645,6489449 -5351456,9030237 -7711535,8579646 -2377323,-454016 -4797520,-721181 -7195866,-1044213 3365787,4221378 4695590,6259134 2890748,7549843 -8708740,6229252 -16412953,8405079 -25031693,5596181 -1996063,-650315 -3414095,-1937008 -4013150,-3459567 1953662,-1111772 3794646,-2300197 5258504,-3736299l118 118zm264068504 0c-3852283,-3779528 -180472,-7623307 2491063,-5535354 8021929,6269763 13923780,13282204 15360236,20895590 1574528,8348150 -5880472,10240866 -15498661,9133229 4817835,-1920000 7285984,-4892008 6919016,-9133229 -337914,-3310866 -3876733,-6904134 -7334292,-5811732 -8256614,2352283 -16512874,3505275 -24770315,2905866 145394,-6737835 -3050196,-10522205 -8856378,-11623937 -1519251,-288307 -2552244,1103976 -1668307,1858346 3608977,3079371 5871142,5013426 5681457,8243386 -11243386,-4993110 -14918386,-14350393 -8126693,-24417874 2835000,6489449 5351457,9030237 7711536,8579646 2377322,-454016 4797519,-721181 7195866,-1044213 -3365788,4221378 -4695591,6259134 -2890748,7549843 8708740,6229252 16412952,8405079 25031693,5596181 1996063,-650315 3414094,-1937008 4013149,-3459567 -1953189,-1111772 -3794645,-2300197 -5258504,-3736299l-118 118zm-2521299 14740157c3410433,-1140118 5533583,-282283 5425748,1679410 -256417,4660630 -5209016,8027480 -15759921,8267716 -559607,12520 -994725,-1018346 -1162677,-2002322 -156496,-918307 -482363,-826418 -1098071,-322914l-3552520 2906221c-2992205,-360591 -6297165,-186733 -9946772,1098071 -1994645,702401 -2767086,619370 -2002322,-193819 2326771,-2473347 4650590,-5124095 6588307,-8331969 7206968,818268 14079803,-616772 21508228,-3100394zm2708031 55587166c6573544,9520748 9122126,17936575 3345473,24400512 -2421614,2709567 -10029095,1569448 -22629567,-4919646 -2273976,-1170827 -2041417,-2130827 0,-1770945 7411772,805394 10818898,-1301102 12156850,-5491063 564331,-1767992 -1825157,-2747953 -9205275,-5922165 -19661693,-8455630 -29238898,-22179685 -21842244,-39355158 2280590,-5295827 8874921,-6771378 16135748,-6887362 -4021299,7348346 -5958662,13158543 -3738544,15938976 1156418,1448386 2787402,3140670 5528268,4878662 1384488,1138346 1423937,1433622 -370984,1576771 -4648701,370158 -6751890,1969134 -6141378,4170355 3366850,12137362 9440315,19666535 19718858,19519252 1088858,-15473 1319173,-1010906 472795,-3181181 -1439881,-3690945 3204095,-6041693 6569882,-2957244l118 236zm-27303425 21286063c-12943464,3066023 -16041260,5436378 -15222165,16067834 -4682717,-2991850 -7902284,-4315039 -8738740,-2161063 -644764,1659804 -1949528,3930473 -2725040,7893071 -1566023,-877323 -3132165,-1253031 -4698189,-1127598 356221,-13457244 3706772,-23161063 12309331,-26404252 3711260,-1399252 9874370,427087 19074803,5732008zm-14429764 40225039c168662,-2713937 -3759566,-2638701 -6514488,1566851 -1649173,-1181811 -2968582,-2693622 -3958228,-4535434 -1491142,5895945 804213,11008583 5689961,15585355l4782755 -12616772z"/>
  <path class="fil0" d="M263904685 221902795c7091102,12493111 6996142,20232638 -1770945,22235788 -627874,1639488 -890315,3279448 -786850,4919291 3608622,430394 6363543,1348346 8264409,2754921 -814960,6249095 -4677519,9809055 -9641811,12397205 -2344488,-7462323 -4521378,-11240787 -6690590,-10035709l-1770945 983622c1925551,-7399252 5611771,-15400866 10179685,-23798149 1249016,-2296181 261732,-3373937 -931181,-1979410 -6569174,7677520 -10555748,16266733 -13380827,24400158 -1900866,-2915906 -4411417,-3468071 -8264410,1180748 -3254645,-3103701 -2639763,-8341536 1180394,-15348425 3483898,2702480 4876890,3111850 5509843,2754921 1791968,-1010551 3450708,-2267362 4329094,-4132441 -2234882,-3926457 -1594134,-8532047 3541890,-11413110 3648189,-2046260 7432087,-2791890 10232362,-4919292l-118 -118z"/>
  <g id="_830385824">
   <path class="fil0" d="M268155236 71589685c3023977,862913 3197126,-441496 0,-3592087 -3413031,-3363543 -6253582,-4668307 -7184409,-3463937 -1514410,1958386 -2907047,2087599 -4875355,641457 -793937,-583583 -1085551,-1587520 -1411063,-3463937 -511181,-2946496 -2774527,-3910984 -5259921,-3592441 -2497323,319961 -5207953,1026851 -7410000,561024 -1671968,-353268 -2032559,-268347 -1827401,978425 301535,1833307 728622,3165709 769960,4105394 175276,4003582 1892008,6981023 5644961,6286417 1131614,-209646 1819961,-217795 2822480,1795984 1245355,2502520 956339,3971103 -256890,5003504 -1730315,1472362 -1319173,2553780 -128031,3720827 2149961,2106850 4241693,4060394 6703464,5388071 -1020236,-3517795 -1159724,-6649606 2790355,-8591103 428149,-210708 249567,-694960 -641457,-1672322 -3605315,-3954804 -7691220,-7402559 -11774173,-11121142 -933780,-850394 -503858,-1179685 756260,-569173 5110512,2475118 9981378,5813622 14096811,10535787 642638,737126 805748,567638 1136102,-478346 810118,-2564528 2953110,-3355867 6048307,-2472520l0 118z"/>
   <path class="fil0" d="M293248465 109263543c-1181103,-4822559 -3876969,-8807008 -9569882,-11537480 -927874,-445157 -1326496,-3307 -1947756,865512 -2026299,2833937 -2202402,5135905 -3789449,7364527 -1093583,1536496 -5045551,1201063 -5355236,-870708 -1266024,-8466260 -7485591,-8667402 -21154252,-2165433 2885905,11758582 8022992,16725118 16144252,14804763 1629921,-385275 3521575,1598504 5857204,4365709 -1949881,2634567 -3520039,5058071 -4254921,7016457 7537677,3531850 11910709,3616771 14182441,788031 -6574370,-5324527 -4008779,-10572756 0,-10567204 344764,-386811 -120709,-840827 -1396653,-1362756 -7031221,-4813701 -15091182,-8599489 -23854961,-11681457 -2560394,-841535 -1484882,-1844764 715630,-1373740 9760394,2090551 18535157,5688897 26585197,10562362 -1353425,-4103976 486496,-6252047 4219842,-5518701 3019607,592795 4109528,1314685 3618662,-689882l-118 0z"/>
   <path class="fil0" d="M289625433 177044173c3640039,-4444606 7817835,-5916968 9271299,-2075787 2623937,6933779 2538662,10841811 692008,13146378 -4977992,-5364803 -9190866,-5962677 -12039094,1937362 -5108268,-8026654 -9559607,-16928504 -13561300,-26430827 -2125275,3149882 1400670,12757795 9607560,27716103 -4830000,492401 -6906851,1982716 -6563268,5910708 93071,1061929 -977717,1204725 -2767441,276496 -3919370,-2032204 -6686929,-5320157 -8164725,-10240157 4253032,-1648347 7397363,-1636890 7611142,-1851024 834921,-2976378 -602008,-5685118 -3044291,-7973976 -5857559,-5488819 -4900866,-12534449 691653,-20618740 1012796,4019763 2509134,5487283 4566851,5535354 7775669,181181 13003228,4385197 9887362,10208740 -1858819,3474331 1910079,6782126 3812362,4459370l-118 0z"/>
   <path class="fil0" d="M42045118 71589685c-3023976,862913 -3197126,-441496 0,-3592087 3413032,-3363543 6253583,-4668307 7184410,-3463937 1514409,1958386 2907047,2087599 4875354,641457 794291,-583583 1085551,-1587520 1411063,-3463937 511181,-2946496 2774527,-3910984 5260394,-3592441 2496968,319961 5207598,1026851 7410000,561024 1671614,-353268 2032204,-268347 1827047,978425 -301536,1833307 -728622,3165709 -769606,4105394 -175749,4003582 -1892363,6981023 -5644961,6286417 -1131614,-209646 -1819961,-217795 -2822480,1795984 -1245709,2502520 -956693,3971103 256535,5003504 1730315,1472362 1319173,2553780 128032,3720827 -2149961,2106850 -4241693,4060394 -6703465,5388071 1020236,-3517795 1159724,-6649606 -2790000,-8591103 -428504,-210708 -249449,-694960 641102,-1672322 3605315,-3954804 7691221,-7402559 11774174,-11121142 933779,-850394 503858,-1179685 -756260,-569173 -5110512,2475118 -9981024,5813622 -14096811,10535787 -642638,737126 -805748,567638 -1136103,-478346 -810118,-2564528 -2953110,-3355867 -6048307,-2472520l-118 118z"/>
   <path class="fil0" d="M16951890 109263543c1181102,-4822559 3876968,-8807008 9569882,-11537480 927874,-445157 1326496,-3307 1948110,865512 2026299,2833937 2202401,5135905 3789094,7364527 1094055,1536496 5045552,1201063 5355237,-870708 1266023,-8466260 7485944,-8667402 21154252,-2165433 -2885906,11758582 -8022638,16725118 -16144252,14804763 -1629922,-385275 -3521221,1598504 -5857205,4365709 1949882,2634567 3520039,5058071 4254921,7016457 -7537677,3531850 -11910709,3616771 -14182441,788031 6574725,-5324527 4008780,-10572756 0,-10567204 -344764,-386811 120709,-840827 1396654,-1362756 7031575,-4813701 15091181,-8599489 23854960,-11681457 2560394,-841535 1484882,-1844764 -715630,-1373740 -9759921,2090551 -18535157,5688897 -26584842,10562362 1353071,-4103976 -486850,-6252047 -4220197,-5518701 -3019606,592795 -4109527,1314685 -3618661,-689882l118 0z"/>
   <path class="fil0" d="M20574921 177044173c-3640039,-4444606 -7817834,-5916968 -9271299,-2075787 -2623937,6933779 -2538661,10841811 -692008,13146378 4977992,-5364803 9190866,-5962677 12039095,1937362 5108622,-8026654 9559606,-16928504 13561299,-26430827 2125275,3149882 -1400315,12757795 -9607559,27716103 4830354,492401 6906850,1982716 6563268,5910708 -93071,1061929 977716,1204725 2767795,276496 3919370,-2032204 6686575,-5320157 8164370,-10240157 -4252677,-1648347 -7397362,-1636890 -7611142,-1851024 -834921,-2976378 602008,-5685118 3044646,-7973976 5857205,-5488819 4900512,-12534449 -692008,-20618740 -1012441,4019763 -2509134,5487283 -4566496,5535354 -7775669,181181 -13003228,4385197 -9887717,10208740 1858701,3474331 -1910078,6782126 -3812362,4459370l118 0z"/>
   <path class="fil0" d="M46295669 221902795c-7091102,12493111 -6996141,20232638 1770945,22235788 627874,1639488 890315,3279448 786851,4919291 -3608622,430394 -6363544,1348346 -8264410,2754921 815315,6249095 4677520,9809055 9641811,12397205 2344488,-7462323 4521378,-11240787 6690591,-10035709l1770945 983622c-1925552,-7399252 -5611772,-15400866 -10179685,-23798149 -1249016,-2296181 -261733,-3373937 931181,-1979410 6569173,7677520 10555748,16266733 13380826,24400158 1900867,-2915906 4411418,-3468071 8264764,1180748 3254292,-3103701 2639410,-8341536 -1180748,-15348425 -3483897,2702480 -4876535,3111850 -5509842,2754921 -1791969,-1010551 -3450709,-2267362 -4329095,-4132441 2234882,-3926457 1594134,-8532047 -3541890,-11413110 -3647716,-2046260 -7432086,-2791890 -10232362,-4919292l118 -118z"/>
  </g>
  <path class="fil1" d="M82351772 245202638c-858898,12533386 -4522559,23537126 -10510748,33273543 5580000,10623662 12324803,19615512 20235945,26975669 13731850,-8351929 24999212,-8172519 38322401,-1651299 12687992,6210000 35118661,7043858 46129843,1772717 15690236,-7511457 29488818,-7943622 42991771,-181654 7596024,-8229331 14013425,-17300551 19009843,-27386457 -7225040,-7583031 -8392087,-17840905 -7817481,-32478897 -16978346,-6040276 -35815157,-7225040 -54431929,1461260 -16071850,7498937 -31394882,4890472 -49082244,-1306536 -13432441,-4705984 -28222441,-5406496 -44847638,-478346l237 0z"/>
  <path class="fil0" d="M85493858 254715709l5606575 -791693c417402,4969134 1055197,9498307 2176890,13060039 1670905,153898 3341811,-43937 5013071,-593504 -505985,-4529173 -1847363,-9058701 -3759922,-13587874l6464292 -791338c-121063,5001968 142795,9619015 725315,13917401 1385197,307795 2770393,263858 4155590,-131811 395670,-4507795 -263858,-9014764 -1978700,-13521732l6002244 0c-975945,5930669 -937087,11636102 -329646,17215275 -5441575,252874 -11972008,1110237 -18996614,2242678 -1321772,-5969410 -2877520,-11752323 -5079095,-17017441zm67961811 6620433l5172874 -309685c417402,4969134 -390826,9642992 730748,13204724 1671260,153543 2812087,-477992 4482992,-1027559 -505984,-4529173 -401220,-8480315 -2313897,-13009488l5114527 -598701c341457,5087244 907559,8699528 1304056,12953740 1384842,307796 2962677,263858 4348346,-131811 -83740,-4507795 -1271221,-8677795 -2798150,-13184409l4556457 -1060394c641811,5930197 1119803,10720039 3284528,16106929 -5441221,252874 -15248741,3327047 -22273819,4459725 -797953,-6703465 759921,-12372402 -1608898,-17403189l236 118zm-43160787 -8929134l4419567 0c337677,4361575 915000,8324527 1780866,11807008 2039291,-3419292 3764764,-7047166 5276575,-10817481l4551260 1384843c-4474134,6903898 -8783741,13917402 -12730040,21173504l-3561732 -2902559c1445433,-2050276 2819528,-4171890 4089213,-6397914 -1181811,-4749094 -2468150,-9498661 -3825709,-14247401zm15566575 2440512c-1143071,5716535 -2462244,11081338 -3957402,16094409l3495709 1055197c1187362,-5914370 2374724,-10509567 3562086,-13785709l5342599 1715197c-901654,4485236 -2154803,8882599 -3759567,13191851l5012716 1319173c401221,-5386536 1929213,-10773544 4089567,-16160079l-13785708 -3430039zm17127047 10995236l4045630 -1761732c-1842165,-1073741 -2998110,-1617048 -3197480,-1501063 -311930,181653 -595748,1168228 -782835,2806181l-3589488 -1827402 2675551 -4698189c2583661,755906 5919212,1568622 8222362,4437284 2750079,3424842 3235512,8096811 3915354,13181811 -870000,1500708 -1600039,2618031 -2349330,2675551 -736299,56457 -1348701,-522284 -1892362,-1044213 231850,-1195512 297165,-2174291 195944,-2936575 -5410511,2023701 -8940944,2445237 -10636889,1295197 -2837244,-1924134 -3295630,-4157126 -1500709,-6384921 1214646,-1699370 2832756,-3122598 4894252,-4242047l0 118zm4855512 908031c764764,1885394 1341260,3980315 1705275,6537402 -2398700,879567 -4151220,1812638 -6281574,1701496 -2207599,-115157 -3003308,-2621693 -1582678,-4934764 1630276,-1877598 3191930,-2499921 6159095,-3304134l-118 0zm50873386 -8535000l3304488 -2924763c-2083583,-452126 -3350670,-612284 -3504567,-440670 -240709,269055 -206339,1295197 121417,2910709l-3978071 -630000 270591 -4545354c2690669,-78307 8287323,-1084016 11363268,933425 3672874,2408740 2879645,7601929 5095748,12228897 -364252,1695945 -713859,2983819 -1408465,3269764 -683150,280866 -1444252,-80433 -2122323,-409015 -148701,-1208386 -388701,-2159882 -720472,-2853426 -4521378,3595040 -6400512,4186300 -8368819,3616063 -3292323,-954448 -4417677,-2936929 -3398622,-5610236 630827,-1991220 1731023,-3844134 3345827,-5545275l0 -119zm4606653 -1172598c1077402,1725945 2399528,4522913 3197126,6979252 -2212323,1278543 -3603898,2761535 -5721378,3018071 -2194252,265748 -3778464,-2416418 -2581417,-4852441 1096535,-2231575 2320866,-3843071 5105669,-5144764l0 -118zm-27036496 30779646l1931102 -3968150c-2097992,380906 -3329645,719055 -3406063,936378 -119173,340630 306024,1275236 1227638,2642008l-3915708 942283 -1492205 -4301811c2455275,-1103622 7239449,-4177441 10853622,-3493110 4315512,817205 5572913,5918386 9393071,9342520 313701,1706338 484252,3029882 -47599,3560315 -523346,521220 -1364882,478701 -2117126,435118 -600472,-1058977 -1186653,-1845473 -1758779,-2359606 -2798858,5053700 -4307717,6319960 -6344410,6547322 -3406771,380552 -5205708,-1019409 -5288740,-3879212 -180472,-2080984 125079,-4213937 965197,-6404173l0 118zm3796890 -2468977c1670197,1161496 3878031,2970827 5579645,4914095 -1529173,2046968 -2487755,3785787 -4332755,4856220 -1911969,1109173 -4160433,-558779 -4020591,-3269055 127677,-2482913 727441,-4206968 2773701,-6501260zm-3562205 -28573819c1784173,-631889 3568465,-1040905 5352992,-1226929 -204803,1575355 -167598,3089646 222874,4516654 3066851,-1003937 4497402,-2974134 4293307,-5910709l5910355 -501614c-463937,2886732 -1034174,5550827 -2676260,6523701 -1687559,999094 -4051890,1461614 -6189331,2174291l167599 1003937c2750551,-725315 5511732,-1231653 7806023,-167598 1854331,859960 2764488,3154606 3624095,5464488 -1542402,836338 -3178229,1486653 -5018268,1728425 -576142,-3011102 -1379291,-4590118 -2397638,-4795276 -1193622,-240708 -2379212,-297519 -3568464,-111496 -123308,752244 1308070,3503504 2341889,5743111 -1524330,929409 -3345826,1486771 -5464488,1672795 88228,-2304685 -88583,-4609606 -445866,-6913937l-2564882 1170827 -836338 -2341890 2230039 -780591 -445866 -1337952 -2341890 836338 -557717 -1784173 2397638 -892087c-390472,-1282559 -1003582,-2639763 -1839921,-4070433l118 118zm37938898 -3481653c-211536,7073386 -1360512,15552874 -2772638,24427086l4795630 -3296811c-737126,-2872322 -662126,-6069448 599409,-9741141 6475394,2104252 9984331,-1130197 11464488,-8017441 -4495984,-2322756 -9191574,-3446575 -14086889,-3371693zm2815866 8779606c334016,-1126417 855590,-5285079 817559,-6874016 1400315,467244 5960197,1016811 6882165,1834016 955276,847087 -585708,5033386 -2097165,5448543 -1384843,380197 -3972520,297874 -5602441,-408543l-118 0zm-29216457 16486063c2440040,6642638 4000984,11740866 5998110,20502165l3983268 -3247322c-1754646,-2391024 -2800275,-4014685 -2998110,-7891654 6792874,-460630 8539016,-4541693 7345394,-11484331 -5037402,-479763 -9813898,227008 -14328662,2121142zm6068977 6379370c-281575,-1141299 -1205079,-3671811 -2041063,-5023346 1444606,-304843 5418661,-1549488 6627519,-1310315 1252323,248031 1422520,3431811 327756,4554685 -1002520,1028268 -3150945,1564252 -4914094,1779094l-118 -118zm-110419134 -5124803c1075866,-559488 3098149,-645236 5551535,-516732 923504,5378504 3204803,5646023 6197126,4647992 -183071,-1339843 -979252,-3394961 -2194606,-5939055 1721102,-559134 3442559,-645236 5164016,-516378 690944,5648268 1718149,11048858 3614881,16009134l-4970551 1161850c-150590,-2775945 -409015,-5444173 -903543,-7875354 -4518780,968504 -7660512,473149 -9424843,-1484528 -1468582,-1555394 -2426102,-3416338 -3034015,-5486929zm31501889 -2388779c-6638503,-1270040 -12502677,-958937 -14266299,3873307 -1823386,4996063 1032402,8455984 5035158,10586693 3478701,1851732 5670354,1925905 8004567,1420275l-129213 -6713858c-2108622,-172323 -3270590,0 -3485787,516732l-387520 2840197c-2625000,-365787 -4303228,-1678701 -5034803,-3937913 7859527,-1708229 11011535,-4639843 10263779,-8585552l118 119zm-2766732 1081771c-4792677,-398976 -7651299,732638 -8488110,4671614 6634134,-669567 8998110,-2343071 8488110,-4671614zm2250355 14540079l1807440 -16009134c4539922,1251260 9080079,1869803 13620709,2259213 -602716,2302441 -1291417,3830433 -2065866,4583385 -1097717,-42874 -2281063,-85984 -3550276,-645590l-64606 -2259213c-1334291,-430393 -2668583,-602362 -4002520,-516732l-286771 3098504c1591890,-85984 3729330,172323 5838307,774685 1958031,796535 2683346,2476299 1484882,4712598 -2489528,4644331 -6971811,5852717 -12781418,4002048l119 236zm4328385 -658465l1004292 -7943622c9188622,1810748 5240078,7396300 -1004292,7943622zm20330906 -12252047c-4497047,1656850 -7288465,3459567 -8843858,4970551 -3760394,3652559 -2722796,8294646 774685,13685315 7122401,-817913 10828819,-4129842 10650945,-9941220 -92245,-3026575 -1043386,-5901496 -2581772,-8714646zm-823465 2662323c2162953,6927520 19607,12038031 -6125078,13909370 -2450434,-6329646 -814607,-11192008 6125078,-13909370zm7053780 -1807913c964134,-1321418 1923307,-2095040 2892992,-2169922 581693,-45000 1123583,708307 1627323,1989095 -439607,2724330 -584292,5445236 -784370,8409449 3024330,169370 4502244,-1401142 5214567,-4341260 1271220,-315591 2637165,-109607 4068543,452126 -606024,2676260 -1427244,4807795 -2893347,5876693 -1239803,903897 -3758503,764055 -6871063,361653l0 1175197c3277560,-174567 6069804,638504 8317560,3616417 405944,537756 821574,1654252 813897,3797244 -1559055,429213 -3153897,569528 -4791614,361300 -30236,-2953465 -1032756,-4673859 -2983819,-5243740 -661417,-192993 -1235669,-301182 -1808150,-361300 -210708,1747677 -271299,3495355 0,5243740l-4995708 -420708c784370,-1513347 1243110,-3142087 1691220,-4822914l-2402480 -479409 208110 -1875354 2546811 125905 252047 -1250551 -2468503 -286417 105590 -2020394 2205354 102638c312638,-2652284 246615,-5587677 55040,-8239252l0 -236zm21037677 2028543c-2819173,983268 -4667244,3060945 -6135827,4886102 -748110,929764 -1287401,1931457 -1477086,3124725 -341103,2688897 23976,5113819 1704094,6703819 1973976,1868385 4493386,2944606 7101732,3692834 3046890,-2338583 4831418,-5065866 5908819,-8010472 -1401850,-795827 -2803228,-1307362 -4204370,-1193268 -227362,1193268 -784724,2237480 -1136457,3352087 -433346,1374448 -719763,2007165 -1420275,1761259 -3654803,-1098779 -4928150,-2432007 -4601929,-4204370 295275,-1601929 446929,-3257598 1533897,-4886102 1041615,-1515118 2092087,-1827756 3124725,-908740 851102,756968 1581260,1638071 2272559,2556378 1041614,-435473 1931457,-1401496 2670354,-2897362 -2206771,-2461890 -4115787,-4404095 -5340472,-3977008l236 118zm38920276 -6681732c-25040,5534527 -558071,10662401 -1599331,15384921 3795354,1770590 7506614,2292047 10815236,456968 1336536,-741850 2565945,-2185039 3122599,-4188897 346535,-1248307 -303071,-2186929 -1066300,-2665985 -2371417,-1488189 -4658740,-2577401 -7235315,-3046535 228071,-1726299 608977,-3630472 1447205,-5559685l-5483976 -380906 -118 119zm1899685 14018976c334015,-1126890 1777204,-5054764 1739527,-6643701 1400315,467244 4346811,1615866 5268780,2433071 955275,846732 12874,4342441 -1498111,4757244 -1384488,380551 -3880275,159449 -5510196,-546614zm12756732 -11950866l4785354 1854331c-2403897,5197559 -3974409,10502244 -4711181,15914645l-3838583 -1208740c1518426,-5379921 3543662,-10752874 3764410,-16560118l0 -118z"/>
 </g>
</svg>
