<?xml version="1.0" encoding="UTF-8" standalone="no"?>
<!-- Generator: Adobe Illustrator 28.4.1, SVG Export Plug-In . SVG Version: 6.00 Build 0)  -->

<svg
   version="1.1"
   x="0px"
   y="0px"
   viewBox="0 0 1000 1228.563"
   xml:space="preserve"
   id="svg7"
   sodipodi:docname="Coat of Arms of Chelyabinsk.svg"
   width="1000"
   height="1228.563"
   inkscape:version="1.3.2 (091e20e, 2023-11-25, custom)"
   xmlns:inkscape="http://www.inkscape.org/namespaces/inkscape"
   xmlns:sodipodi="http://sodipodi.sourceforge.net/DTD/sodipodi-0.dtd"
   xmlns="http://www.w3.org/2000/svg"
   xmlns:svg="http://www.w3.org/2000/svg"><defs
   id="defs7" /><sodipodi:namedview
   id="namedview7"
   pagecolor="#ffffff"
   bordercolor="#000000"
   borderopacity="0.25"
   inkscape:showpageshadow="2"
   inkscape:pageopacity="0.0"
   inkscape:pagecheckerboard="0"
   inkscape:deskcolor="#d1d1d1"
   inkscape:zoom="0.32629882"
   inkscape:cx="986.82551"
   inkscape:cy="942.38772"
   inkscape:window-width="1920"
   inkscape:window-height="991"
   inkscape:window-x="-9"
   inkscape:window-y="-9"
   inkscape:window-maximized="1"
   inkscape:current-layer="svg7" />
<style
   type="text/css"
   id="style1">
	.st0{display:none;}
	.st1{fill-rule:evenodd;clip-rule:evenodd;fill:#1D1D1B;}
	.st2{fill-rule:evenodd;clip-rule:evenodd;fill:#EDEDED;}
	.st3{fill-rule:evenodd;clip-rule:evenodd;fill:none;}
	.st4{fill-rule:evenodd;clip-rule:evenodd;fill:#FDD800;}
	.st5{fill-rule:evenodd;clip-rule:evenodd;fill:#706F6F;}
	.st6{fill-rule:evenodd;clip-rule:evenodd;fill:#FC862F;}
	.st7{fill-rule:evenodd;clip-rule:evenodd;fill:#009640;}
</style>
<g
   id="Grid"
   class="st0">
</g>
<g
   id="Layer_1">
</g>
<g
   id="Desktop">
</g>
<g
   id="Guides">
</g>
<g
   id="Page_1"
   transform="matrix(3.0193237,0,0,3.0193237,-405.49518,-722.82601)">
	<g
   id="Layer_1_00000034059697442073293730000005641839323280411782_">
		<g
   id="g7">
			<path
   class="st1"
   d="m 465.5,239.4 v 326.5 c 0,45.3 -26.8,46.6 -58,49.1 h -76 c -18.8,0 -27.3,24.1 -31.4,31.3 C 295.6,639.1 287,615 268.3,615 h -76 c -30.9,-2.5 -58,-3.8 -58,-49.1 V 239.4 Z"
   id="path1" />
			<path
   class="st2"
   d="M 135.9,505.7 V 240.9 H 464 v 264.8 h -55.4 c 0.5,-1.9 1,-3.8 1.6,-5.7 -7.5,-7.7 -10.1,-21 -3.1,-45.1 0.3,0.3 0.6,0.5 0.9,0.8 4,-11.2 4.1,-23.4 -1.1,-37 6.2,-0.3 9.3,6.3 9.1,13.9 -0.3,9.3 -4.7,17 -1.4,32.6 0.4,0.3 0.9,0.6 1.3,0.9 0.6,2.7 1.2,5.5 1.9,8.2 0.6,0.3 1.2,0.6 1.7,0.9 1.6,5.1 4,8.7 7,11.3 -8.9,-23.3 2.3,-39.1 -2.8,-55.9 -3.2,-10.7 -8.7,-18.6 -18.9,-17 -8.9,-12.4 -12.7,-24.4 -25.5,-32.6 3.7,-8.8 -5.3,-15 -12.6,-14.4 1.4,-5.1 -1.3,-11.5 -9.7,-10.8 2.8,-6.2 -0.7,-11.5 -6.5,-11.4 2.1,-6 -0.8,-11.1 -7.7,-10.2 -2.9,0.4 -6,1.4 -11.1,4.4 -1.8,-0.7 -3.8,-0.9 -6,0.4 -4.3,-1 -6.7,-4.2 -10,-4.9 -5.9,-1.3 -11.7,1.3 -11,10.5 -4.8,2.2 -7.4,5.7 -5.6,11.8 -6.5,0.7 -11.7,5.1 -10.4,11.8 -9.1,0.2 -14.7,6 -13,14.5 -6.1,4.8 -7.6,11.2 -11.6,14.5 0.3,0.2 0.6,0.4 0.9,0.7 -1.8,2.3 -3,4.7 -3.9,7 0.4,0 0.9,0 1.3,0 -2,8.6 -4.4,13.7 -8.6,13.7 -4.3,0 -8.6,-6 -9.5,-22.2 0.7,0.4 1.4,0.8 2.1,1.2 0,-3.3 -0.1,-6.6 -0.1,-9.8 0.6,0.4 1.2,0.7 1.7,1.1 -2.2,-12.9 1.7,-27.1 -6.6,-38.6 -0.4,-2.1 -1.4,-4.4 -3.2,-6.9 0.7,-2.4 1.2,-4.9 0.5,-7.3 -2.4,-0.2 -4.6,0.6 -6.5,2.3 -4.6,-2.9 -9.9,-5 -17.2,-4.5 0.3,0.4 0.5,0.9 0.8,1.3 -2,-0.2 -4,-0.1 -6,0.4 0.4,0.8 0.8,1.6 1.2,2.4 -2.5,0.8 -4.6,1.8 -5.7,3.3 0.3,0.5 0.6,1 0.9,1.5 -10,5.8 -26.7,5.7 -25.7,13 -6.5,5.7 -5.8,11.5 -0.9,12.9 1.5,1.7 3.4,3.6 5,5.9 1.5,-1.7 5.1,-3.6 7.6,-3.5 4.7,0.2 8.4,0.3 12.5,2.5 2,1.1 3.1,7.2 2.7,14.5 -0.3,6.1 -1.9,10.4 -2.3,17.9 0.7,-0.4 1.4,-0.8 2.1,-1.2 -1.4,8.3 -1.1,16.2 0.1,24.1 0.5,-0.6 1.1,-1.2 1.6,-1.7 0.7,6.4 2.8,12.7 5.6,18.9 0.3,-0.5 0.6,-1.1 0.9,-1.6 3.6,6.8 8.1,10.7 12,16.6 0.3,-0.9 0.6,-1.9 0.9,-2.8 3.9,3 8.2,5.7 12.8,8.2 -0.3,-1.2 -0.5,-2.3 -0.8,-3.5 4.4,1.9 8.9,3.8 13.3,5.7 -0.3,-1.3 -0.6,-2.7 -0.9,-4 3.2,0 5.3,0.4 6.4,1.1 6.4,6.8 10.5,28.9 10.4,39.6 H 135.9 Z m 255.2,0 h -7.5 c 0.1,-0.2 0.2,-0.4 0.2,-0.5 -5.8,-8.6 -3.7,-16.4 -4.4,-21.9 1.4,0.9 2.7,1.8 4.1,2.7 1.2,7.7 4.9,13.7 7.6,19.7 z m -26.2,0 h -56.3 c -0.2,-11.9 -0.6,-23.7 -1,-35.5 25.5,5 32.1,-4.6 43.9,-10.4 -0.7,16.2 9.7,31.2 13.4,45.9 z m -71.7,0 h -7.1 c 1.1,-5.3 2.2,-10.5 2.6,-16.1 2.4,3.9 4.5,8.3 4.5,16.1 z"
   id="path2" />
			<path
   class="st3"
   d="m 215.5,334 c 0.3,0.4 0.5,0.9 0.8,1.3 -2,-0.2 -4,-0.1 -6,0.4 0.4,0.8 0.8,1.6 1.2,2.4 -2.5,0.8 -4.6,1.8 -5.7,3.3 0.3,0.5 0.6,1 0.9,1.5 -10,5.8 -26.7,5.7 -25.7,13 -6.5,5.7 -5.8,11.5 -0.9,12.9 1.5,1.7 3.4,3.6 5,5.9 1.5,-1.7 5.1,-3.6 7.6,-3.5 4.7,0.2 8.4,0.3 12.5,2.5 2,1.1 3.1,7.2 2.7,14.5 -0.3,6.1 -1.9,10.4 -2.3,17.9 0.7,-0.4 1.4,-0.8 2.1,-1.2 -1.4,8.3 -1.1,16.2 0.1,24.1 0.5,-0.6 1.1,-1.2 1.6,-1.7 0.7,6.4 2.8,12.7 5.6,18.9 0.3,-0.5 0.6,-1.1 0.9,-1.6 3.6,6.8 8.1,10.7 12,16.6 0.3,-0.9 0.6,-1.9 0.9,-2.8 3.9,3 8.2,5.7 12.8,8.2 -0.3,-1.2 -0.5,-2.3 -0.8,-3.5 4.4,1.9 8.9,3.8 13.3,5.7 -0.3,-1.3 -0.6,-2.7 -0.9,-4 3.2,0 5.3,0.4 6.4,1.1 7.6,8.1 12,37.7 9.8,44.3 5.5,8.7 3.8,30.2 -4.3,39.5 0.3,13.7 -14.1,1.7 -17.8,18.1 8.7,0 17.4,0 26.1,0 0.2,-6.7 3.1,-11.5 8,-14.9 -3,-27.8 5.7,-43.4 7.3,-63.4 2.8,4.5 5.1,9.7 4.4,20.1 9,5.7 4.5,38.8 -3.7,44.4 2.1,10.6 -11.6,-0.8 -12.5,14 8,0 16,0 24.1,0 0,-4.5 3,-8.8 8.1,-12.9 -3.4,-14.9 0,-20.7 -0.1,-31 -0.2,-18.1 -0.6,-36.1 -1.3,-54 25.5,5 32.1,-4.6 43.9,-10.4 -0.8,17.4 11.4,33.5 14.1,49.2 2,11.7 -4,30.6 -17.1,41.2 -1.5,14 -16.6,4 -15.7,17.7 8.3,0 16.6,0 24.9,0 1.3,-7.3 5.1,-11.5 10.6,-13.7 2.7,-17.6 8.6,-33.6 15.6,-49.1 -5.8,-8.6 -3.7,-16.4 -4.4,-21.9 1.4,0.9 2.7,1.8 4.1,2.7 1.7,12.7 10.2,20.4 10.9,31.4 0.6,9.9 -2.4,21.3 -8.4,33.6 2.7,9.9 -18.6,3.3 -18.5,17 8.2,0 16.4,0 24.6,0 1.9,-6 5,-10.2 9.4,-12.8 0.3,-19.1 3.5,-37.4 8.5,-55.2 -7.5,-7.7 -10.1,-21 -3.1,-45.1 0.3,0.3 0.6,0.5 0.9,0.8 4,-11.2 4.1,-23.4 -1.1,-37 6.2,-0.3 9.3,6.3 9.1,13.9 -0.3,9.3 -4.7,17 -1.4,32.6 0.4,0.3 0.9,0.6 1.3,0.9 0.6,2.7 1.2,5.5 1.9,8.2 0.6,0.3 1.2,0.6 1.7,0.9 1.6,5.1 4,8.7 7,11.3 -8.9,-23.3 2.3,-39.1 -2.8,-55.9 -3.2,-10.7 -8.7,-18.6 -18.9,-17 -8.9,-12.4 -12.7,-24.4 -25.5,-32.6 3.7,-8.8 -5.3,-15 -12.6,-14.4 1.4,-5.1 -1.3,-11.5 -9.7,-10.8 2.8,-6.2 -0.7,-11.5 -6.5,-11.4 2.1,-6 -0.8,-11.1 -7.7,-10.2 -2.9,0.4 -6,1.4 -11.1,4.4 -1.8,-0.7 -3.8,-0.9 -6,0.4 -4.3,-1 -6.7,-4.2 -10,-4.9 -5.9,-1.3 -11.7,1.3 -11,10.5 -4.8,2.2 -7.4,5.7 -5.6,11.8 -6.5,0.7 -11.7,5.1 -10.4,11.8 -9.1,0.2 -14.7,6 -13,14.5 -6.1,4.8 -7.6,11.2 -11.6,14.5 0.3,0.2 0.6,0.4 0.9,0.7 -1.8,2.3 -3,4.7 -3.9,7 0.4,0 0.9,0 1.3,0 -2,8.6 -4.4,13.7 -8.6,13.7 -4.3,0 -8.6,-6 -9.5,-22.2 0.7,0.4 1.4,0.8 2.1,1.2 0,-3.3 -0.1,-6.6 -0.1,-9.8 0.6,0.4 1.2,0.7 1.7,1.1 -2.2,-12.9 1.7,-27.1 -6.6,-38.6 -0.4,-2.1 -1.4,-4.4 -3.2,-6.9 0.7,-2.4 1.2,-4.9 0.5,-7.3 -2.4,-0.2 -4.6,0.6 -6.5,2.3 -4.2,-2.6 -9.5,-4.6 -16.7,-4.2 z"
   id="path3" />
			<path
   class="st4"
   d="m 337.5,566.9 c -1.2,0 -2.3,0 -3.5,0 -0.2,-3.7 1.6,-5.9 5.7,-6.3 -1.8,1.6 -2.7,3.6 -2.2,6.3 z m 36.4,0 c -1.6,0 -3.2,0 -4.8,0 1.1,-4.8 4,-6.8 7.7,-7.4 -2,2 -3.1,4.4 -2.9,7.4 z M 262.5,467.5 c 13,4.1 22,10.9 25.3,21.5 -2.5,21.1 -10.1,35.5 -7.6,63.4 -4.5,3.5 -7.2,8.4 -8,14.7 -6,0 -12,0 -18,0 0.1,-2.9 1.8,-5.1 4.8,-6.8 -3.3,0 -5.7,1.9 -6.5,6.8 -1.2,0 -2.4,0 -3.6,0 2.2,-12.6 18.2,-3.2 17.5,-17 7.3,-8.9 10.2,-30.9 4.3,-39.5 1.7,-11.9 -0.7,-26.2 -8.2,-43.1 z m 90.1,-7.9 c 4.1,-3.1 9.6,-4.1 16.5,-3.1 1.4,9.5 4.5,18.2 9.2,26.1 -0.3,14.9 1.9,19.5 4.4,22.6 -7.5,15.4 -12.7,31.4 -15.3,48.1 -5.6,2.3 -9.2,6.8 -10.7,13.6 -6,0 -11.9,0 -17.9,0 -0.2,-9 10.5,-6.9 10.5,-16 13,-11 18.9,-27.6 17.3,-40.3 -2.1,-17.8 -14.9,-33.2 -14,-51 z M 327.8,349.2 c -0.4,-2.8 -0.9,-5.6 -1.3,-8.4 -6,-2.8 -7,-4.4 -10.3,-5.6 -6.1,-0.6 -10.8,0.8 -10,9.2 1.4,2.2 7,3.9 21.6,4.8 z m 3.8,-8.6 c 0.5,2.8 0.9,5.5 1.4,8.3 6.5,-0.4 12.1,-1.6 16.4,-4.2 3.8,-7.3 -3.2,-14.8 -17.8,-4.1 z m -4,129.4 c 1,-0.2 1.9,-0.4 2.9,-0.6 5.8,-27.1 5.9,-101.1 -0.4,-129.9 -0.5,-0.9 -2.8,-0.5 -2.9,0.4 6.2,37.9 5.9,104.7 0.4,130.1 z m 0.3,-119.8 c 0.5,4 1,7.9 1.3,11.9 -11.9,0.5 -21.8,-1.1 -28.8,-5.7 -1.8,-4.7 0.2,-9.1 5.1,-10.6 3.6,2.8 12.8,4 22.4,4.4 z m 5.2,-0.2 c 0.5,3.9 0.9,7.8 1.2,11.7 9.9,-0.8 16.4,-3.1 21.9,-5.9 2.7,-5 -0.4,-10.6 -6.3,-10.1 -4.4,2.3 -10,3.8 -16.8,4.3 z m 1.3,12.8 c 0.3,4.4 0.6,8.8 0.8,13.2 11.8,-1 22,-3.9 30.6,-9 2.1,-6.1 -3.9,-11.4 -9.1,-9.7 -6.3,2.5 -13.5,4.5 -22.3,5.5 z m -5.1,0.3 c 0.3,4.5 0.5,8.9 0.8,13.4 -17.7,0.2 -32.3,-1.7 -39.9,-8.3 -2,-5.9 3.9,-10.2 9.4,-10.4 8.2,4.2 18.3,5.7 29.7,5.3 z m 0.9,14.4 c 0.1,5.4 0.3,10.8 0.4,16.3 -20,0.9 -39.6,1.1 -53.7,-11.2 -1.6,-5.9 3.1,-13.6 12.5,-13.1 8.4,5.7 22.4,8.2 40.8,8 z m 5.1,-0.4 c 0.2,5.4 0.3,10.7 0.5,16.1 20.7,-2.2 37.6,-5.4 42.4,-12 3.3,-5.2 -1.9,-14.1 -11.4,-13.1 -9.3,5 -19.8,8 -31.5,9 z m 0.4,17.5 c 0.5,29.1 -0.8,54 -3.9,74.2 12.8,-4.3 22.2,-15.7 36.9,-14 -1,-10.5 -2.8,-20 -5.5,-28.6 8.2,13.8 4.2,45.9 21.3,59.4 2.3,10.1 5.7,15.1 8.8,22.3 3.5,7.9 4.5,18.6 -5.7,42.9 0.8,9.8 -11.7,4.7 -11.9,16.1 5.2,0 10.4,0 15.6,0 1.8,-5.7 4.9,-9.8 9.3,-12.2 0.3,-17.9 3.1,-36.2 8,-54.8 -7.9,-10.7 -9.6,-25.6 -2.1,-46.5 0.4,0.2 0.8,0.4 1.1,0.6 3.7,-13.9 2.4,-27.3 -3.8,-40.3 -1.4,-2.9 -4.6,-6.2 -6.4,-9.3 -4.9,-8.7 -9.7,-17.4 -18.4,-22.1 -5.2,6.2 -21.7,9.8 -43.3,12.3 z M 205.8,350 c 0.4,-0.9 1.2,-1.9 2.6,-3.1 0.5,0 1,0.1 1.6,0.1 2.5,-1.8 4.5,-1.8 5.8,1 -7.5,-0.3 -6.8,2.4 -10,2 z m 4,-0.2 c 0.6,0 1.1,0.4 1.1,0.9 0,0.5 -0.5,0.9 -1.1,0.9 -0.6,0 -1.1,-0.4 -1.1,-0.9 0,-0.5 0.5,-0.9 1.1,-0.9 z m -5,0.9 c 0.6,-1.7 1.8,-3 3.4,-4.2 0.5,-0.1 1,-0.1 1.6,0.1 3.4,-2.8 5.6,-0.8 6.8,2 -1.5,0.1 -2.9,0.3 -4.2,0.6 0.6,4.2 -4,5.2 -5,1.4 -0.8,-0.1 -1.6,-0.1 -2.6,0.1 z m 22.5,-4 c -0.5,-1.2 0.2,-2.7 1.1,-4.2 -15.9,-3.8 -18,0.7 -27.6,4.4 -8.5,3.3 -19.2,4 -18.8,8.9 6,-4.3 8.7,0.1 0.1,1 -7,5.6 -5.1,10.2 -1.2,11.4 4.1,-0.7 6.9,-2.7 9.6,-4.7 0.3,0.8 0.7,1.5 1,2.3 -3.3,0.6 -6.5,1.5 -9.7,3.4 1.2,1.4 2.5,2.8 3.7,4.1 5.7,-4.4 10.6,-2.5 17.8,-1.6 7.3,0.9 15.5,1.4 20.4,-2 -0.3,-0.4 -0.6,-0.7 -0.9,-1.1 1.9,-0.1 3.6,-0.5 5,-1.3 -0.3,-0.4 -0.6,-0.7 -0.9,-1.1 2.8,-1.2 5,-3.2 6.6,-5.7 -0.8,1.9 -2.1,3.8 -4,5.5 0.4,0.1 0.9,0.1 1.3,0.2 -1.2,1.3 -2.6,2.6 -5.8,3.4 0.3,0.1 0.7,0.3 1,0.4 -4.3,2.7 -11.4,3.4 -19.4,3.4 5.3,10.3 0.6,20.8 0.2,30.7 0.6,-0.2 1.1,-0.4 1.8,-0.3 -1.1,7.4 -1.4,14.8 -0.1,22.3 0.5,-0.1 0.9,-0.3 1.4,-0.4 1.1,6.3 2.6,12.3 5.3,18 0.3,-0.4 0.5,-0.7 0.8,-1.1 3.1,6.7 7.6,10.8 11.6,16.3 0.2,-0.5 0.5,-1.4 0.7,-2 3.6,2.7 7.4,5.5 11.6,7.8 0,-0.9 -0.4,-1.9 -0.4,-2.8 4.2,1.7 8.6,3.4 12.8,5.1 -0.2,-0.9 -0.4,-1.8 -0.5,-2.7 7.2,-1.9 22.4,5 31.7,13.3 -1.7,-8.2 -2.2,-16.6 1.6,-25.9 -6.9,28.7 10.7,36 9.1,57.7 9,5.9 4.6,40.3 -3.7,45.2 1.4,10.6 -12.2,1.9 -12.4,12.6 1.5,0 3,0 4.5,0 1.3,-4.4 4.1,-5.3 6.9,-5.5 -2.9,1.7 -5,3.1 -5.3,5.5 5.2,0 10.4,0 15.6,0 1.1,-5.8 4.1,-9.4 8.1,-12.1 -3.8,-18.5 0.5,-17.7 -0.1,-36.6 -0.6,-18.9 1.2,-56.7 -7.6,-78 4.5,7.9 6.8,17.7 7.5,28.7 7,1.5 13.2,1.8 18.6,1 3.3,-16.8 4.6,-42.2 4.4,-75.2 -27.5,1.7 -45.5,-2 -54,-11.2 -1.7,1.4 -3.4,3.1 -4.9,5.2 0.7,0.1 1.3,0.1 2,0.2 -1.7,1.3 -3.2,2.9 -4.4,4.7 0.3,0.1 0.5,0.2 0.8,0.3 -1.4,1.2 -2.7,2.5 -3.8,4 0.3,0.2 0.6,0.4 0.9,0.5 -1.5,1.5 -2.8,3.3 -3.7,5.7 0.6,0.1 1.2,0.2 1.7,0.3 -0.5,1.1 -1,2.2 -1.5,3.3 0.3,0 0.7,-0.1 1,-0.1 -0.9,1.2 -1.8,2.4 -2.6,3.7 0.3,0.1 0.7,0.1 1,0.2 -0.5,0.6 -1.1,1.2 -1.6,1.8 -1.7,5.5 -4.8,6.2 -7.4,6.3 -5.3,0.2 -10.4,-8.6 -10.8,-28.5 0.8,1.4 1.6,2.8 2.4,4.1 0.3,-4.2 -0.1,-8.3 -1,-12.5 0.8,1.2 1.5,2.4 2.3,3.6 -1.1,-11.8 2,-28.7 -10.1,-39.2 -1.2,1.7 -2.7,3.3 -4.9,4.7 -0.3,-0.1 -0.7,-0.2 -1,-0.3 4.8,-3.8 7.5,-8.6 7.2,-14.7 -4.4,0.6 -8,3.8 -11,9.6 z m 1.8,-5.1 c -6.5,-2.1 -13.5,-2.2 -21.2,0.8 -0.3,-0.4 -0.7,-0.7 -1,-1.1 1.8,-1.1 3.7,-2 5.6,-2.6 -0.1,-0.8 -0.2,-1.5 -0.3,-2.3 1.7,-0.1 3.4,-0.2 5.1,-0.3 0,-0.4 0.1,-0.8 0.1,-1.2 5.9,0.2 10.4,1.8 14.1,4.2 -0.7,0.9 -1.6,1.7 -2.4,2.5 z m 176.3,73.2 c 0,1.1 0.3,2 1.1,2.6 7.4,0.1 11.1,6.9 10.7,15.3 -0.5,9.6 -4.2,18.9 -1.6,31.7 0.5,0.5 1,0.9 1.5,1.4 0.7,2.8 1.3,5.5 2,8.3 0.6,0.2 1.1,0.4 1.7,0.6 0.9,3 2.3,5.8 4.1,8.2 -7,-19.3 2.5,-37.7 -1.5,-50.9 -4,-13.2 -9.1,-18.2 -18,-17.2 z"
   id="path4" />
			<path
   class="st5"
   d="m 135.9,505.7 v 0 h 47.7 v -19.5 h -47.7 v -1 h 24.4 v -19.5 h -24.4 v -1 h 47.7 v -19.5 h -47.7 v -1 h 24.4 v -19.5 h -24.4 v -1 h 47.7 v -19.5 h -47.7 v -1 h 24.4 v -19.5 h -24.4 v -1 h 47.7 v -9.9 c 0.3,0.4 0.7,0.8 1,1.2 v 8.6 H 208 c 0.1,1.7 0.1,3.6 0,5.7 -0.1,2.5 -0.5,4.6 -0.8,6.8 v -11.5 h -45.9 v 19.5 H 206 c 0,0.3 -0.1,0.6 -0.1,1 h -21.2 v 19.5 h 22.6 c 0.2,1.8 0.4,3.6 0.7,5.4 0.1,-0.1 0.1,-0.2 0.2,-0.2 v 15.3 h 6.1 c 0.1,0.3 0.3,0.7 0.4,1 h -30 v 19.5 h 45.9 v -5 c 0.3,0.2 0.6,0.5 1,0.7 v 4.3 h 6.7 c 0.6,0.3 1.1,0.7 1.7,1 h -31.7 v 19.5 H 254 v -16.3 c 0.1,0 0.1,0 0.2,0.1 -0.1,-0.2 -0.1,-0.4 -0.2,-0.7 v -2.7 h -0.6 c -0.1,-0.2 -0.1,-0.5 -0.2,-0.7 2.5,0 4.4,0.2 5.6,0.7 H 255 V 485 h 12.5 c 0.1,0.3 0.1,0.7 0.2,1 h -36.2 v 19.5 H 270 c 0,0 0,0 0,0 H 135.9 Z m 40.4,-142.5 h -40.5 v -1 h 24.4 v -19.5 h -24.4 v -1 h 70 c 0.2,0.3 0.4,0.7 0.6,1 h -45.3 v 19.5 h 15.3 c 0.1,0.3 0,0.7 -0.1,1 z m 62.8,-21.5 H 305 c 0,0.3 -0.1,0.6 -0.1,1 h -3.1 v 4 c -0.4,0.3 -0.7,0.6 -1,0.9 v -4.9 H 255 v 19.5 h 34.8 c -0.2,0.3 -0.3,0.6 -0.5,1 h -11 v 9.5 c -0.4,0.4 -0.7,0.8 -1,1.3 v -10.8 h -30.6 c -0.1,-0.3 -0.1,-0.7 -0.2,-1 h 7.4 v -19.5 h -15.1 c 0.1,-0.3 0.2,-0.7 0.3,-1 z m 112.2,0 H 464 v 1 h -21.6 v 19.5 H 464 v 1 h -45.1 v 19.5 H 464 v 1 h -21.6 v 19.5 H 464 v 1 h -45.1 v 15.6 c -0.3,-0.4 -0.6,-0.9 -1,-1.2 v -14.4 h -19.1 c -0.2,-0.3 -0.4,-0.7 -0.6,-1 h 43.2 v -19.5 h -45.9 v 15.1 c -0.3,-0.5 -0.6,-1 -1,-1.6 V 383.7 H 383 c -0.4,-0.3 -0.8,-0.7 -1.3,-1 H 418 v -19.5 h -45.9 v 4.3 c -0.3,-0.1 -0.6,-0.2 -1,-0.3 v -4 h -3.9 c 0,-0.3 -0.1,-0.7 -0.2,-1 h 27.6 v -19.5 h -43.4 c 0,-0.3 0.1,-0.7 0.1,-1 z m 69.9,82 H 464 v 1 h -21.6 v 19.5 H 464 v 1 h -38.9 c 0,-0.3 0,-0.7 0.1,-1 h 16.3 v -19.5 h -19.8 c -0.2,-0.4 -0.3,-0.7 -0.5,-1 z m 2,41 H 464 v 1 h -21.6 v 19.5 H 464 v 1 h -37.5 c -0.1,-0.3 -0.2,-0.7 -0.4,-1 h 15.3 v -19.5 h -18.3 c 0.1,-0.4 0.1,-0.7 0.1,-1 z m 2.9,21.4 h -7.2 v 19.5 H 464 v 0 h -55.4 c 0,0 0,0 0,0 h 9.3 v -19.5 h -14.4 c -0.1,-0.3 -0.1,-0.6 -0.2,-1 H 425 c 0.5,0.4 0.8,0.7 1.1,1 z m -35,19.6 h -7.5 c 0,0 0,0 0,0 z m -26.2,0 h -56.3 c 0,0 0,0 0,0 h 15.6 v -19.5 h -16.1 c 0,-0.3 0,-0.7 0,-1 h 39.6 v -19.5 h -6.3 c 0.5,-0.3 1.1,-0.6 1.6,-1 h 8.5 c 0,0.3 0.1,0.7 0.1,1 h -3 v 19.5 h 8.6 c 0.1,0.3 0.3,0.7 0.4,1 h -32.5 v 19.5 z m -71.7,0 h -7.1 c 0,0 0,0 0,0 z M 135.9,322.1 v -1 h 10.9 v -19.9 -0.5 h 0.5 23.6 0.5 v 0.5 19.9 H 194 v -19.9 -0.5 h 0.5 23.6 0.5 v 0.5 19.9 h 22.6 v -19.9 -0.5 h 0.5 23.6 0.5 v 0.5 19.9 h 22.6 v -19.9 -0.5 h 0.5 23.6 0.5 v 0.5 19.9 h 22.6 v -19.9 -0.5 h 0.5 23.6 0.5 v 0.5 19.9 h 22.6 v -19.9 -0.5 h 0.5 23.7 0.5 v 0.5 19.9 h 22.6 v -19.9 -0.5 h 0.5 23.6 0.5 v 0.5 19.9 h 9.3 v 1 h -9.8 -0.5 v -0.5 -19.9 h -22.6 v 19.9 0.5 h -0.5 -23.6 -0.5 v -0.5 -19.9 h -22.6 v 19.9 0.5 h -0.5 -23.6 -0.5 v -0.5 -19.9 h -22.6 v 19.9 0.5 h -0.5 -23.6 -0.5 v -0.5 -19.9 h -22.6 v 19.9 0.5 h -0.5 -23.6 -0.5 v -0.5 -19.9 h -22.6 v 19.9 0.5 h -0.5 -23.6 -0.5 v -0.5 -19.9 H 195 v 19.9 0.5 h -0.5 -23.6 -0.5 v -0.5 -19.9 h -22.6 v 19.9 0.5 h -0.5 z m 25.3,163.1 h 45.9 v -19.5 h -45.9 z m 85.2,-19.5 h -5 c -0.1,-0.3 -0.2,-0.7 -0.2,-1 h 3 c 0.7,0.3 1.5,0.6 2.2,1 z m 133.2,19.5 h 2.9 c 0.3,0.2 0.7,0.5 1,0.7 0,0.1 0,0.2 0,0.3 h -4 c 0.2,-0.4 0.2,-0.7 0.1,-1 z m 35.7,-19.5 h -10.8 c 0.1,-0.3 0.1,-0.6 0.2,-1 h 9.9 c 0,0.2 0.1,0.4 0.1,0.6 0.2,0.1 0.4,0.2 0.6,0.4 z m -184.8,20.4 h -45.9 v 19.5 h 45.9 z m -14.2,-40.9 h -0.6 c 0.1,-0.2 0.2,-0.3 0.3,-0.5 0.1,0.1 0.2,0.3 0.3,0.5 z m 198,0 h -3.7 c 0,-0.3 0.1,-0.6 0.1,-1 h 3.8 c -0.1,0.3 -0.1,0.6 -0.2,1 z m -253.1,-1 h 45.9 v -19.5 h -45.9 z m 253.7,-19.5 h -6 c -0.1,-0.3 -0.2,-0.6 -0.3,-1 h 5.8 c 0.3,0.3 0.4,0.6 0.5,1 z M 261.8,404.2 h -16.4 c 0,-0.3 -0.1,-0.6 -0.1,-1 h 8.7 v -19.5 h -6.2 c 0,-0.3 0,-0.7 -0.1,-1 h 28.2 c 0,0.1 0,0.2 0,0.2 -0.3,0.2 -0.6,0.5 -0.9,0.7 h -20 v 19.5 h 7.3 c -0.2,0.4 -0.3,0.7 -0.5,1.1 z m 133.8,-42 h 45.9 v -19.5 h -45.9 z"
   id="path5" />
			<path
   class="st6"
   d="m 207.1,351 c 1.3,4.2 6.2,2.9 6,-1.1 1.2,-0.2 2,-0.6 2.6,-1.2 -1.2,0.1 -2.2,0.3 -3.3,0.5 0.6,4.1 -3.8,5.2 -4.9,1.6 -0.1,0 -0.2,0.1 -0.4,0.2 z m 98.1,101.7 c 0.4,1.6 0.8,3.2 1.1,4.9 4.5,-7.5 5.8,-18.8 1.1,-31.2 1.1,10.6 0.5,19.5 -2.2,26.3 z m 84.9,114.2 c 0.4,0 0.8,0 1.2,0 1.8,-5.7 4.9,-9.8 9.3,-12.2 0.1,-3.5 0.2,-6.9 0.5,-10.4 -1.7,4.4 -1.2,9.3 -3.6,10.7 -3.1,1.8 -5.8,5.9 -7.4,11.9 z m -15.3,-95 c 2.2,5.4 5.2,10.2 9.7,13.8 2.3,10.1 5.7,15.1 8.8,22.3 3.5,7.9 4.5,18.6 -5.7,42.9 0.8,9.8 -11.7,4.7 -11.9,16.1 0.6,0 1.1,0 1.7,0 0.2,-8.6 12.4,-6.7 11.2,-15.8 0.6,-1.9 1.2,-3.8 2.7,-5.7 1,-4.3 2.2,-6.8 3.7,-8.5 2.4,-10.1 2.1,-18.7 0.6,-26.7 -1.8,-9.6 -7,-10.9 -10.1,-26.2 -3.8,-2.9 -7.3,-7.3 -10.7,-12.2 z m -8.3,-22.7 c 0,1.7 -0.2,3.2 -0.6,4.6 -8.5,-0.5 -19.2,3.5 -31.5,10.6 0.4,-3.6 0.7,-7.1 1,-10.7 1.8,-1.2 3.6,-2.3 5.4,-3.5 -0.7,1.7 -1.5,3.3 -2.2,5 9.9,-6.7 19.3,-9.8 27.9,-6 z m -30.8,-54.6 c 0.5,29.1 -0.8,54 -3.9,74.2 12.8,-4.3 22.2,-15.7 36.9,-14 -1,-10.5 -2.8,-20 -5.5,-28.6 3.6,6.1 4.9,15.8 6.6,25.9 -1.3,-22.3 -6,-25 -10,-31.2 2.5,7.8 6.4,18.8 6.7,27.3 -6.9,-3.3 -15,-2.4 -24.4,2.6 0.2,-0.8 0.4,-1.6 0.6,-2.3 -2.4,1.1 -4.8,2.3 -7.2,3.4 1.3,-16.6 2,-33 2.7,-49.4 0.2,-4.8 1.7,-4.5 5.9,-5.5 9.1,-2.2 18.2,-4.4 27.4,-6.6 5.2,-1.3 7.4,2 11.7,5 0.2,-0.7 0.3,-1.5 0.5,-2.2 1.2,-0.3 2.7,0.9 4.3,2.8 0.6,0.1 1.2,0.2 1.7,0.3 9.9,17.7 21.3,35.6 17.3,52.2 -0.7,-0.3 -1.4,-0.5 -2,-0.8 -0.2,1.8 -0.3,3.7 -0.5,5.5 -4.6,17.7 -6.1,34.2 1.7,47 -3.7,14.1 -4.8,24.9 -4.2,33.4 1.3,-11.1 3.6,-22.3 6.6,-33.7 -7.9,-10.7 -9.6,-25.6 -2.1,-46.5 0.4,0.2 0.8,0.4 1.1,0.6 3.7,-13.9 2.4,-27.3 -3.8,-40.3 -1.4,-2.9 -4.6,-6.2 -6.4,-9.3 -4.9,-8.7 -9.7,-17.4 -18.4,-22.1 -5.2,6.2 -21.7,9.8 -43.3,12.3 z m -28.5,69.2 c 0.2,1.7 0.4,3.5 0.5,5.3 7,1.5 13.2,1.8 18.6,1 0.1,-0.7 0.3,-1.5 0.4,-2.2 -4.7,0.8 -10.6,0.6 -17.7,-0.8 -0.3,-0.4 -0.6,-0.7 -0.9,-1.1 0.5,-0.6 1,-1.1 1.4,-1.7 -0.4,-0.4 -1.1,-0.5 -2.3,-0.5 z m -0.5,-3.7 c 0.1,0.9 0.3,1.8 0.4,2.7 6,0.1 9.3,-1.9 12.3,-4 -0.4,1.4 -0.8,2.7 -1.2,4.1 3.3,-1.8 6.7,-3.7 10,-5.5 0.1,-0.9 0.2,-1.9 0.3,-2.9 -2.5,1.6 -5.1,3.1 -7.6,4.7 0.2,-1.2 0.4,-2.5 0.5,-3.7 -3.9,3.4 -8.2,6.1 -14.7,4.6 z m 23,-19.8 c 0.8,-13 1.1,-28.1 1,-45.4 -27.5,1.7 -45.5,-2 -54,-11.2 -1.7,1.4 -3.4,3.1 -4.9,5.2 0.7,0.1 1.3,0.1 2,0.2 -1.7,1.3 -3.2,2.9 -4.4,4.7 0.3,0.1 0.5,0.2 0.8,0.3 -1.4,1.2 -2.7,2.5 -3.8,4 0.3,0.2 0.6,0.4 0.9,0.5 -1.5,1.5 -2.8,3.3 -3.7,5.7 0.6,0.1 1.2,0.2 1.7,0.3 -0.5,1.1 -1,2.2 -1.5,3.3 0.3,0 0.7,-0.1 1,-0.1 -0.9,1.2 -1.8,2.4 -2.6,3.7 0.3,0.1 0.7,0.1 1,0.2 -0.5,0.6 -1.1,1.2 -1.6,1.8 -1.7,5.5 -4.8,6.2 -7.4,6.3 -5.3,0.2 -10.4,-8.6 -10.8,-28.5 0.8,1.4 1.6,2.8 2.4,4.1 0.3,-4.2 -0.1,-8.3 -1,-12.5 0.8,1.2 1.5,2.4 2.3,3.6 -1.1,-11.8 2,-28.7 -10.1,-39.2 -0.5,0.7 -1,1.3 -1.6,2 13,7.3 5.6,29.9 8.4,40.2 -0.4,0.1 -0.9,0.1 -1.3,0.2 -2.6,29.2 8.9,31.6 12.8,31.8 3.9,0.2 8.9,-4.7 11.2,-18.1 -0.5,0.1 -1,0.1 -1.5,0.2 3.4,-5.4 7.3,-10.8 12,-16.2 8.2,7.8 25.6,11.7 52,11.7 0.2,13.7 0.5,27.4 0.7,41.2 z M 371,566.9 c -0.6,0 -1.3,0 -1.9,0 0.8,-3.7 2.7,-5.7 5.2,-6.7 -1.9,1.9 -3.1,4.1 -3.3,6.7 z m 0.3,-53 c -2.7,-3.8 -2.7,-8.4 -0.9,-10.5 2,-2.4 6.2,-1.9 8.7,0.2 -7.4,-1.4 -8.8,1.2 -7.8,10.3 z M 368,456.4 c 0.4,0 0.7,0.1 1.1,0.1 1.4,9.5 4.5,18.2 9.2,26.1 -0.3,14.9 1.9,19.5 4.4,22.6 -7.5,15.4 -12.7,31.4 -15.3,48.1 -0.4,0.2 -0.8,0.4 -1.2,0.5 2.2,-14.8 6.6,-30.7 14.7,-48.6 -2.5,-5.3 -4.1,-12.8 -4.6,-23.8 -4.6,-7.6 -6.8,-16.2 -8.3,-25 z m -5,99.6 c -3.1,2.5 -5.2,6.2 -6.2,11 -0.8,0 -1.5,0 -2.3,0 3.8,-8.3 6.3,-10.3 8.5,-11 z m -10.4,-96.4 c 3.5,-2.6 8.1,-3.8 13.7,-3.4 -2.8,1 -5.6,1.9 -8.3,2.9 -3.8,10.6 -1.6,14 0.8,17.2 3,11.7 9.3,25 9.7,36.4 0.4,14.8 -4.8,28 -19,38.8 0,-0.2 0,-0.4 0,-0.6 13,-11 18.9,-27.6 17.3,-40.3 -2.3,-17.8 -15.1,-33.2 -14.2,-51 z m -64.8,102.1 c 0.6,-0.1 1.2,-0.2 1.8,-0.3 -2.9,1.7 -5,3.1 -5.3,5.5 5.2,0 10.4,0 15.6,0 1.1,-5.8 4.1,-9.4 8.1,-12.1 -3.8,-18.5 0.5,-17.7 -0.1,-36.6 -0.6,-17.6 1,-51.7 -6,-73.5 -1.2,-2 -2.4,-4.1 -3.6,-6.1 7.9,28.7 8.3,57.6 7.9,85.6 -0.1,10.1 -2,19.4 -0.3,30 -3.5,3.2 -6.7,6.6 -7.1,11.5 -4.1,0 -8.1,0 -12.2,0 0.1,-1.3 1.7,-3 3.8,-4.9 -0.9,0.2 -1.8,0.4 -2.6,0.9 z m 1.1,-2.2 c -3.4,2.1 -10.6,-0.3 -10.7,7.5 1.5,0 3,0 4.5,0 0.1,-0.4 0.3,-0.8 0.4,-1.2 -1.2,0 -2.4,0 -3.7,0 0.3,-4.6 7,-4 9.5,-6.3 z m -42.4,-94.9 c 2,0.8 4,1.6 5.9,2.3 -0.2,-0.9 -0.4,-1.8 -0.5,-2.7 7.2,-1.9 22.4,5 31.7,13.3 -1.7,-8.2 -2.2,-16.6 1.6,-25.9 -6.9,28.7 10.7,36 9.1,57.7 9,5.9 4.6,40.3 -3.7,45.2 0.1,1 0.1,1.9 0,2.6 8.5,-8.1 13.4,-36.4 5.3,-49 -0.2,-21.1 -16.2,-27.4 -9,-59.2 -2.6,2.3 -5.2,4.9 -6.8,16.7 -0.2,-0.7 -0.4,-1.3 -0.7,-2 -0.6,2.5 -0.5,4.9 -0.1,7.4 -1.3,-0.2 -2.5,-0.9 -3.7,-1.8 -0.1,0.3 -0.3,0.6 -0.4,0.9 -4.9,-2.5 -9.7,-5 -17.5,-16.1 -0.4,-1.9 -0.3,-3.7 0,-5.6 -2.1,-4.8 -2.6,-10.7 -0.8,-18.2 -4,4.8 -4.7,11.1 -1.9,18.8 -0.4,1.9 -0.3,3.8 0.2,5.7 1.5,2.8 3,5.6 4.5,8.5 -4.3,-0.7 -8.7,-1.3 -13,-2 -0.4,1.1 -0.4,2.2 -0.2,3.4 z m 88.1,102.3 c -0.2,0 -0.4,0 -0.6,0 -0.2,-3.7 1.6,-5.9 5.7,-6.3 -0.6,0.5 -1,1.1 -1.4,1.7 -1.5,0.1 -2.8,1.1 -3.7,4.6 z m 4.4,-1.5 c 0.9,-6.3 8.1,-6.1 10,-11.5 -0.3,5.2 -6.4,6.2 -10,11.5 z m -76.5,-97.9 c 13,4.1 22,10.9 25.3,21.5 -2.5,21.1 -10.1,35.5 -7.6,63.4 -0.4,0.3 -0.8,0.6 -1.1,1 -2.3,-27.2 4.3,-43.6 6.3,-65.6 -3,-7.1 -8.7,-12.8 -18.4,-16.5 4.5,12.6 5.3,25.2 5.5,37.9 4.6,15.6 3,28 -4,37.9 5.7,-10.2 7.5,-28.7 2.3,-36.4 1.6,-12 -0.8,-26.3 -8.3,-43.2 z m 14.6,87.7 c -2.7,3.2 -4.4,7.1 -5,11.9 -6,0 -12,0 -18,0 0.1,-2.9 1.8,-5.1 4.8,-6.8 -3.3,0 -5.7,1.9 -6.5,6.8 -1.2,0 -2.4,0 -3.6,0 2.1,-12.1 17.1,-3.8 17.5,-15.6 3.4,8.3 -9.7,7.9 -10.4,14.5 4.6,0.2 9.1,0.4 14.1,-0.4 1.9,-5 4,-9.2 7.1,-10.4 z m -19.4,5.1 c -2.5,0.4 -4.3,2.1 -5.2,5.8 -0.7,-0.2 -1.4,-0.4 -2.1,-0.5 1.6,-3.9 4.6,-5.7 8.5,-5.8 -0.4,0.1 -0.8,0.3 -1.2,0.5 z m 38.7,-58.1 c 3.2,1.5 6.2,3.6 4.7,8.6 -1.3,0.3 -2.3,0.1 -2.8,0.5 2.2,1.1 3.2,1 4.9,0 0.5,-6.7 -4,-9.8 -6.8,-9.1 z m -23.2,0.3 c 3.2,1.5 5.8,3.5 4.3,8.5 -1.7,-0.5 -2.8,-0.5 -3.4,0 1.7,1.4 3.5,2 5.9,0.7 0.5,-6.7 -4,-9.9 -6.8,-9.2 z M 212.3,337 c 0,-0.2 0,-0.4 -0.1,-0.6 1.7,-0.1 3.4,-0.2 5.1,-0.3 0,-0.4 0.1,-0.8 0.1,-1.2 0.4,0 0.7,0 1.1,0 l -0.2,1.8 z m -5.1,4.6 c -0.1,-0.1 -0.2,-0.2 -0.3,-0.4 1.8,-1.1 3.7,-2 5.6,-2.6 0,-0.2 -0.1,-0.5 -0.1,-0.7 1.2,-0.1 2.5,-0.2 3.7,-0.2 0,0.4 0,0.7 0,1.1 -3.5,0.5 -6.3,1.6 -8.9,2.8 z m 19.2,26.2 c 0.5,-0.2 0.9,-0.4 1.3,-0.6 -0.3,-0.4 -0.6,-0.7 -0.9,-1.1 2.8,-1.2 5,-3.2 6.6,-5.7 -0.6,1.3 -1.3,2.5 -2.3,3.7 2.8,-1.9 4.8,-5.1 4.5,-11.6 -2.1,7.8 -6.1,11.2 -10.4,13.7 0.5,0.6 0.8,1.1 1.2,1.6 z m -42.8,-11.3 c -0.5,0.1 -1,0.2 -1.5,0.2 -7,5.6 -5.1,10.2 -1.2,11.4 4.1,-0.7 6.9,-2.7 9.6,-4.7 0.3,0.8 0.7,1.5 1,2.3 -3.3,0.6 -6.5,1.5 -9.7,3.4 1.2,1.4 2.5,2.8 3.7,4.1 5.7,-4.4 10.6,-2.5 17.8,-1.6 7.3,0.9 15.5,1.4 20.4,-2 -0.2,-0.2 -0.4,-0.5 -0.5,-0.7 -0.7,0.2 -1.4,0.3 -2.1,0.5 0.2,0.2 0.4,0.4 0.6,0.6 -15.6,4.9 -28,-5 -36.1,2 -0.5,-0.6 -1,-1.2 -1.4,-1.8 3.5,-2.5 6.4,-3.3 9.2,-4 -0.8,-0.8 -1.5,-2.1 -1.8,-3.8 -2.4,1.3 -4.8,2.6 -7.2,3.9 -7.3,0.7 -8.4,-2.1 -0.8,-9.8 z m 7.5,-6.7 c -5.2,1.4 -9.4,2.9 -9.1,5.9 0.3,-0.2 0.7,-0.5 1,-0.7 0.5,-1.9 3.8,-3.6 8.1,-5.2 z m 17.2,23.6 c -0.5,0 -1.1,0 -1.7,0 5.3,10.3 0.6,20.8 0.2,30.7 0.6,-0.2 1.1,-0.4 1.8,-0.3 -1.1,7.4 -1.4,14.8 -0.1,22.3 0.5,-0.1 0.9,-0.3 1.4,-0.4 1.1,6.3 2.6,12.3 5.3,18 0.3,-0.4 0.5,-0.7 0.8,-1.1 3.1,6.7 7.6,10.8 11.6,16.3 0.2,-0.5 0.5,-1.4 0.7,-2 3.6,2.7 7.4,5.5 11.6,7.8 0,-0.9 -0.4,-1.9 -0.4,-2.8 1.9,0.8 3.9,1.5 5.9,2.3 -5.1,-7.1 -11,-3.8 -19.7,-14.3 -0.3,0.1 -0.7,0.2 -1,0.3 -2.8,-4 -4.9,-8.3 -6.1,-12.7 -0.7,0 -1.5,0.1 -2.2,0.1 -2.6,-3.9 -3.8,-10.2 -4.1,-18 -0.7,0.3 -1.5,0.6 -2.2,0.9 -1.3,-5.1 -0.8,-11.7 1,-19.1 -0.8,0.1 -1.6,0.3 -2.3,0.4 1.9,-11.3 2.7,-21.6 -0.5,-28.4 z m 14.8,-1.9 c -4,1.4 -9.2,1.9 -15.1,2 2.3,0.4 5.2,0.6 6.6,0.5 3.4,7 3,13.6 1.5,20.1 1,-1.3 2,-2.5 3,-3.8 -1.6,4.8 -2.3,9 -2.3,12.7 0.9,-0.5 1.7,-1 2.6,-1.5 -1.9,6.1 -2.2,12.4 -2.2,18.8 0.9,-0.7 1.8,-1.4 2.8,-2.1 -0.2,4.9 0,9.6 2.1,13.7 -0.8,-5.3 -0.8,-10.6 -0.5,-15.9 -1,0.5 -1.9,1 -2.9,1.4 0.3,-7.1 2,-13.3 4.2,-19.3 -1.4,0.6 -2.7,1.2 -4.1,1.8 0.2,-5.6 1.6,-10 3,-14.5 -1,0.7 -2.1,1.3 -3.1,2 0.9,-5.9 -0.3,-10.3 -3,-13.7 3,-0.4 5.7,-1.1 7.4,-2.2 z m 5.1,19.3 c -0.2,-3.9 -0.3,-10.4 5.1,-15.9 -0.8,-0.1 -1.6,-0.3 -2.3,-0.4 0.4,-1.2 1.3,-2.6 3.5,-4.5 -0.7,-0.1 -1.5,-0.2 -2.2,-0.3 2,-3.7 3.4,-7.9 4.1,-12.5 0.4,2.8 0.3,6.1 -1.6,11.2 0.8,0.1 1.6,0.2 2.4,0.3 -1.2,1.6 -2.4,3.1 -3.6,4.7 1,0.1 1.9,0.2 2.9,0.3 -4.4,3.6 -6.9,9.7 -8.3,17.1 z m -27.9,-22.5 c 5.4,0.9 7.4,0.4 6,-1.6 2.7,0.2 5.4,0.5 8.4,0.4 -0.4,-0.8 -0.8,-1.5 -1.3,-2.3 2.1,0.7 4.4,0.5 6.8,-0.2 -0.6,-0.6 -1.1,-1.2 -1.7,-1.8 4.3,0 7.5,-1.9 10.3,-4.4 -1.3,2 -2.4,4.1 -7.2,5.6 0.6,0.5 1.1,1 1.7,1.5 -1.7,1.1 -3.9,1.6 -7.1,0.9 0.1,0.5 0.2,0.9 0.3,1.4 -0.9,1.1 -3.6,1.3 -7.9,0.6 0.6,1.2 -2.8,2.7 -8.3,-0.1 z m 37.8,-23.5 c -0.2,0.5 -0.4,1 -0.8,1.5 1.2,0.8 2.1,1.7 2.8,2.6 -0.2,-1.3 -0.8,-2.6 -2,-4.1 z m -10.2,-1.5 c 0.1,-0.3 0.3,-0.6 0.4,-0.8 -9.8,-2.3 -14.4,-1.5 -18.7,0.3 6.4,-0.9 12.4,-0.5 18.3,0.5 z m 0.4,4.6 c 1.3,-4.4 3.5,-6.6 6.5,-6.8 0.7,6.1 -2,8.7 -6.2,9.8 3,-2.4 5.4,-4.9 4.7,-7.8 -1.9,1 -3.5,2.8 -5,4.8 z M 390,402.5 c 7.8,9.2 11.1,23.2 10.5,42 -0.9,-0.7 -1.8,-1.3 -2.7,-2 0.8,3.2 1.6,6.4 2.4,9.6 -1.3,-0.7 -2.6,-1.4 -3.9,-2.1 -0.1,0.5 -0.3,1 -0.4,1.6 2.2,12 -3.9,24.5 3.6,37.8 -4.3,-13.7 -0.4,-24.6 -1,-36.9 1,0.4 1.9,0.9 2.9,1.3 -0.5,-2.8 -1.1,-5.5 -1.6,-8.3 1.1,0.8 2.3,1.6 3.4,2.4 -0.4,-25 -5.1,-39.5 -13.2,-45.4 z M 378.9,395 c 6.2,2.3 10.7,7.5 11.6,19.3 -2.8,-10 -7,-15.5 -11.6,-19.3 z m -28.1,3 c 6.4,0.6 11.7,6.2 16.4,15.3 -1,-0.1 -1.9,-0.1 -2.9,-0.2 3.2,4.5 5.2,8.9 5.9,13.4 -0.5,0.1 -1.1,0.1 -1.6,0.2 2.6,4.7 3.5,9.4 2.7,14.2 -0.6,-7.1 -2.5,-12.3 -5.7,-15.6 0.7,-0.1 1.5,-0.2 2.2,-0.3 -1.5,-5.8 -4.1,-9.4 -6.8,-12.7 1.1,-0.1 2.1,-0.1 3.2,-0.2 -3.3,-7 -7.9,-11.4 -13.4,-14.1 z m -79,67.9 c -12.4,-8 -14.4,-23.6 -7.8,-22.9 -1.3,-6.7 -0.2,-11.3 3.2,-13.8 0.4,-8.7 3,-13.6 7.2,-15.9 0.6,0.8 1.2,1.7 1.7,2.5 8,-22.3 25.5,-16.8 25.1,-4 -4.9,-14.1 -17.7,-11.2 -24.5,7.2 -1,-1.2 -2,-2.3 -3,-3.5 -3.4,5.1 -4.5,10.8 -4.9,16.7 -4.6,1.1 -4.2,6.5 -1.6,14 -9,-3.3 -3.3,9.9 4.6,19.7 z m 58.4,-88.4 c 0.1,5.4 0.3,10.8 0.4,16.3 -20,0.9 -39.6,1.1 -53.7,-11.2 -0.4,-1.6 -0.4,-3.3 0,-4.9 6.4,3.3 11.2,7.1 16.7,8.9 5.7,1.8 13,1.1 16.2,1.5 3.2,0.4 2.6,1.8 5.9,1.9 3.3,0.1 7.4,-1.4 13.6,-1 0.1,-3.2 -0.1,-6.3 -0.4,-9.5 -25.4,0.5 -37.3,-3.4 -41.1,-10 0.5,0 1,0 1.5,0 8.5,5.7 22.5,8.2 40.9,8 z m 7.1,1.4 c 5.5,-0.8 12.1,-2.3 17.6,-4.1 5.8,-1.9 9.9,-4.5 13.6,-4.6 7.1,-0.1 6.8,7.3 6,8.3 -0.7,1 -2.1,2.5 -2.5,3.6 0.5,0.1 0.9,0.2 1.4,0.4 -8.1,6.6 -30.6,8.8 -34.1,8.6 -3.5,-0.2 -1.8,-8.3 -2,-12.2 z m -2,-1.8 c 0.2,5.4 0.3,10.7 0.5,16.1 20.7,-2.2 37.6,-5.4 42.4,-12 3.3,-5.2 -1.9,-14.1 -11.4,-13.1 -9.3,5 -19.8,8 -31.5,9 z m -0.9,-14.3 c 0.3,4.4 0.6,8.8 0.8,13.2 11.8,-1 22,-3.9 30.6,-9 2,-5.8 -3.3,-10.9 -8.4,-9.9 14,6.7 0,16.1 -8.8,14.2 -0.9,1.2 -4.8,2.2 -8,2.4 -2.6,0.2 -4.8,0.1 -4.3,-2.3 -0.8,0.7 -1,-2.3 -0.7,-8.9 -0.3,0.2 -0.7,0.2 -1.2,0.3 z M 333.1,350 c 0.5,3.9 0.9,7.8 1.2,11.7 9.9,-0.8 16.4,-3.1 21.9,-5.9 2.7,-5 -0.4,-10.6 -6.2,-10.1 3.4,1.6 7,6.3 3.5,9.6 -3.9,3.7 -16.6,5.3 -18,3.5 -0.6,-1.7 -0.9,-4.1 -0.1,-9 -0.9,0.1 -1.6,0.1 -2.3,0.2 z m -5.3,-0.8 c -0.1,-0.9 -0.3,-1.9 -0.4,-2.8 -1.8,0.9 -5.3,2 -11.8,0.6 -6.8,-1.5 -6.8,-4.2 -9.5,-4.3 0,0.5 0,1.1 0.1,1.7 1.4,2.2 7,3.9 21.6,4.8 z m 5.1,-8.7 c 0.1,3.5 0.4,6.2 1.3,6.9 2.6,-0.2 5.2,-0.5 7.8,-0.7 3.2,-0.8 5,-2.4 6.1,-4.4 0,-4.3 -2.4,-6.2 -6.9,-5.7 -2.9,0.9 -5.8,1.7 -8.3,3.9 z m -1.3,0.1 c 0.5,2.8 0.9,5.5 1.4,8.3 6.5,-0.4 12.1,-1.6 16.4,-4.2 3.8,-7.3 -3.2,-14.8 -17.8,-4.1 z m -1.8,29.9 c 0.1,2 0.2,4 0.4,6 -17.7,0.2 -32.3,-1.7 -39.9,-8.3 -0.2,-0.5 -0.3,-1 -0.3,-1.5 0.4,-0.1 0.9,-0.1 1.9,0.1 2.7,0.7 8.6,3.7 12.4,4.8 3.8,1.1 8.7,1.6 10.4,1.9 1.7,0.3 5.4,2 5.8,2 0.4,0 8.3,-0.1 7.4,-0.5 -0.9,-0.4 -3.7,-1.6 -5.6,-2.4 2.4,-1.3 4,-0.5 7.5,-2.1 z m -1.2,-15.2 c 0.3,2.2 0.5,4.5 0.7,6.7 -11.9,0.5 -21.8,-1.1 -28.8,-5.7 -1,-2.7 -0.8,-5.3 0.5,-7.3 -0.3,1.1 -0.4,2.2 -0.1,3.3 7.5,4.8 15.5,5.8 23.7,5.3 1.4,-0.6 2.8,-1.3 4,-2.3 z m 78.8,60.3 c 6.4,2.8 10.7,7.9 10.6,17.9 0.5,0.3 1,0.5 1.5,0.8 -0.3,3.5 -0.5,7.1 -0.8,10.6 -0.6,0.2 -1.2,0.3 -1.8,0.5 -0.9,6.7 -1.1,12.1 -0.6,16.7 0.3,-3.1 1,-5.3 2,-6.4 -0.8,9.5 -0.5,14 0.8,13.7 0.5,1.6 1,3.1 1.5,4.7 -0.7,-7.2 -0.3,-15.7 -0.2,-24 0.1,-5.6 1.2,-8.6 0.8,-13.5 -0.9,-10.4 -5.1,-20.6 -13.8,-21 z m -2,-0.8 c 0,1.1 0.3,2 1.1,2.6 7.4,0.1 11.1,6.9 10.7,15.3 -0.5,9.6 -4.2,18.9 -1.6,31.7 0.5,0.5 1,0.9 1.5,1.4 0.7,2.8 1.3,5.5 2,8.3 0.6,0.2 1.1,0.4 1.7,0.6 0.9,3 2.3,5.8 4.1,8.2 -7,-19.3 2.5,-37.7 -1.5,-50.9 -4.1,-13.1 -9.1,-18.2 -18,-17.2 z"
   id="path6" />
			<path
   class="st7"
   d="m 461.4,586.6 -0.9,2.7 -1,2.5 -1.1,2.3 -1.2,2.1 -1.4,1.9 -1.5,1.7 -1.6,1.6 -1.7,1.4 -1.8,1.3 -1.9,1.2 -2,1.1 -2,1 -2.1,0.9 -2.2,0.8 -2.3,0.7 -2.4,0.6 -2.4,0.5 -2.5,0.5 -2.6,0.4 -2.6,0.4 -2.7,0.3 -2.7,0.3 -2.8,0.3 -2.8,0.2 -2.9,0.2 -2.8,0.2 h -76 l -1.8,0.1 -1.8,0.2 -1.7,0.4 -1.7,0.5 -1.6,0.6 -1.5,0.7 -1.5,0.8 -1.4,0.9 -1.4,1 -1.3,1.1 -1.2,1.1 -1.2,1.2 -1.1,1.2 -1.1,1.3 -1,1.3 -1,1.3 -0.9,1.3 -0.9,1.4 -0.8,1.4 -0.8,1.3 -0.8,1.3 -0.7,1.3 -0.7,1.3 -0.6,1.3 -0.6,1.2 -0.6,1.2 -0.5,1.1 -0.5,1 -0.5,1 v 0 -0.1 l -0.5,-1 -0.5,-1 -0.6,-1.1 -0.6,-1.2 -0.6,-1.2 -0.7,-1.3 -0.7,-1.3 -0.7,-1.3 -0.8,-1.3 -0.8,-1.3 -0.9,-1.4 -0.9,-1.3 -0.9,-1.3 -1,-1.3 -1,-1.3 -1.1,-1.3 -1.1,-1.2 -1.2,-1.2 -1.2,-1.1 -1.3,-1.1 -1.4,-1 -1.4,-0.9 -1.5,-0.8 -1.5,-0.7 -1.6,-0.6 -1.7,-0.5 -1.7,-0.4 -1.8,-0.2 -1.8,-0.1 h -76 l -2.8,-0.2 -2.9,-0.2 -2.8,-0.2 -2.8,-0.3 -2.7,-0.3 -2.7,-0.3 -2.6,-0.4 -2.6,-0.4 -2.5,-0.5 -2.4,-0.5 -2.4,-0.6 -2.3,-0.7 -2.2,-0.8 -2.1,-0.9 -2,-1 -2,-1.1 -1.9,-1.2 -1.8,-1.3 -1.7,-1.4 -1.6,-1.6 -1.5,-1.7 -1.4,-1.9 -1.3,-2.1 -1.1,-2.3 -1,-2.5 -0.9,-2.7 -0.8,-2.9 -0.7,-3.1 -0.5,-3.3 -0.4,-3.6 -0.2,-3.8 -0.1,-4.1 V 506.6 H 270 c -0.1,1.6 -0.2,2.8 -0.5,3.7 5.5,8.7 3.8,30.2 -4.3,39.5 0.3,13.7 -14.1,1.7 -17.8,18.1 8.7,0 17.4,0 26.1,0 0.2,-6.7 3.1,-11.5 8,-14.9 -2.1,-19.6 1.6,-33.1 4.5,-46.4 h 7.3 c 0,1 -0.1,2 -0.1,3 9,5.7 4.5,38.8 -3.7,44.4 2.1,10.6 -11.6,-0.8 -12.5,14 8,0 16,0 24.1,0 0,-4.5 3,-8.8 8.1,-12.9 -3.4,-14.9 0,-20.7 -0.1,-31 -0.1,-5.8 -0.1,-11.7 -0.3,-17.5 h 56.5 c 0.2,0.8 0.3,1.6 0.5,2.4 2,11.7 -4,30.6 -17.1,41.2 -1.5,14 -16.6,4 -15.7,17.7 8.3,0 16.6,0 24.9,0 1.3,-7.3 5.1,-11.5 10.6,-13.7 2.6,-17 8.2,-32.6 14.9,-47.6 h 8.4 c 1.5,3.4 2.7,6.8 2.9,10.7 0.6,9.9 -2.4,21.3 -8.4,33.6 2.7,9.9 -18.6,3.3 -18.5,17 8.2,0 16.4,0 24.6,0 1.9,-6 5,-10.2 9.4,-12.8 0.3,-16.7 2.7,-32.8 6.7,-48.5 H 464 v 59.2 l -0.1,4.1 -0.2,3.8 -0.4,3.6 -0.5,3.3 -0.6,3.1 z"
   id="path7" />
		</g>
	</g>
</g>
</svg>
