<?xml version="1.0" encoding="UTF-8" standalone="no"?><svg xmlns="http://www.w3.org/2000/svg" width="734.59" height="938.8" viewBox="0 0 734.58785 938.79687"><g transform="translate(3.946-86.6)"><path d="m-1.445 89.1v770.27 6.05c0 35.17 34.715 63.48 77.84 63.48h88.02 104.93v.018a94.36582 94.36582 0 0 1 93.98828 93.98237h.012.012a94.36582 94.36582 0 0 1 93.98828 -93.98237v-.018h104.94 88.02c43.12 0 77.84-28.313 77.84-63.48v-6.05-6.05-764.21h-729.59" fill="#007cc3"/><g stroke="#000"><g stroke-linejoin="round" stroke-linecap="round"><circle cx="363.35" cy="202.52" r="98.92" fill="#fcdb00" stroke-width="5"/><path d="m209.95 806.05c-3.267 0-13.286.219-15.246 1.525-1.96 1.307-9.582 3.92-10.889 4.791-1.307.871-7.84 2.395-7.84 2.395 0 0-4.464 1.633-6.352 4.139h-43.39c-.367-1.764-1.191-3.48-2.309-3.703-2.178-.436-27.441-8.274-29.619-8.492-.544-.054-1.375-.07-2.365-.053-2.971.051-7.38.378-9.83.705-3.267.436-16.12 3.049-16.12 3.049l-.652-.217c0 0-12.663 5.522-16.11 8.711h-50.67v40.467 6.05c0 35.17 34.715 63.48 77.84 63.48h88.02 104.93v.018a94.36582 94.36582 0 0 1 93.98828 93.98244h.012.012a94.36582 94.36582 0 0 1 93.98828 -93.98244v-.018h104.94 88.02c43.12 0 77.84-28.313 77.84-63.48v-6.05-6.05-34.414h-4.189l-.135-2.238c0 0 .218-1.307-3.484-2.178-3.702-.871-19.384-5.01-22.65-5.01-3.267 0-13.284.217-15.244 1.523-1.96 1.307-9.584 3.92-10.891 4.791-1.307.871-7.84 2.396-7.84 2.396 0 0-.702.269-1.633.713h-43.41c-4.126-2.106-12.441-5.904-15.371-6.594-3.702-.871-19.382-5.01-22.648-5.01-3.267 0-13.286.217-15.246 1.523-1.96 1.307-9.582 3.92-10.889 4.791-1.307.871-7.84 2.396-7.84 2.396 0 0-3.02 1.105-5.148 2.891h-44.928c-2.839-1.629-13.582-6.66-17-7.465-3.702-.871-19.384-5.01-22.65-5.01-3.267 0-13.284.217-15.244 1.523-1.96 1.307-9.582 3.92-10.889 4.791-1.307.871-7.842 2.396-7.842 2.396 0 0-4.03 1.468-6.06 3.762h-48.537c-4.405-2.158-11.167-5.192-13.764-5.803-3.702-.871-19.384-5.01-22.65-5.01-3.267 0-13.284.219-15.244 1.525-1.96 1.307-9.582 3.92-10.889 4.791-1.307.871-7.842 2.395-7.842 2.395 0 0-2.124.796-4.066 2.102h-43.686c-1.524-1.089-13.938-6.969-17.641-7.84-3.702-.871-19.382-5.01-22.648-5.01z" fill="#00923f"/></g><path d="m90.48 749.84c-20.747 0-39.89 14.04-60.64 14.04-10.71 0-20.994-3.738-31.29-7.357v14.04c10.297 3.619 20.581 7.357 31.29 7.357 20.747 0 39.89-14.04 60.64-14.04 20.747 0 39.89 14.04 60.64 14.04 20.747 0 39.89-14.04 60.64-14.04 20.747 0 39.89 14.04 60.64 14.04 20.747 0 39.89-14.04 60.64-14.04 20.747 0 39.89 14.04 60.64 14.04 20.747 0 39.89-14.04 60.64-14.04 20.747 0 39.89 14.04 60.64 14.04 20.747 0 39.89-14.04 60.64-14.04 20.747 0 39.89 14.04 60.64 14.04 20.747 0 39.89-14.04 60.64-14.04 10.711 0 20.995 3.74 31.29 7.359v-14.04c-10.298-3.619-20.582-7.359-31.29-7.359-20.747 0-39.89 14.04-60.64 14.04-20.747 0-39.89-14.04-60.64-14.04-20.747 0-39.89 14.04-60.64 14.04-20.747 0-39.89-14.04-60.64-14.04-20.747 0-39.89 14.04-60.64 14.04-20.747 0-39.89-14.04-60.64-14.04-20.747 0-39.89 14.04-60.64 14.04-20.747 0-39.89-14.04-60.64-14.04-20.747 0-39.89 14.04-60.64 14.04-20.747 0-39.89-14.04-60.64-14.04zm0 24.816c-20.747 0-39.89 14.04-60.64 14.04-10.71 0-20.994-3.738-31.29-7.357v14.04c10.297 3.619 20.581 7.357 31.29 7.357 20.747 0 39.89-14.04 60.64-14.04 20.747 0 39.89 14.04 60.64 14.04 20.747 0 39.89-14.04 60.64-14.04 20.747 0 39.89 14.04 60.64 14.04 20.747 0 39.89-14.04 60.64-14.04 20.747 0 39.89 14.04 60.64 14.04 20.747 0 39.89-14.04 60.64-14.04 20.747 0 39.89 14.04 60.64 14.04 20.747 0 39.89-14.04 60.64-14.04 20.747 0 39.89 14.04 60.64 14.04 20.747 0 39.89-14.04 60.64-14.04 10.711 0 20.995 3.74 31.29 7.359v-14.04c-10.298-3.619-20.582-7.359-31.29-7.359-20.747 0-39.89 14.04-60.64 14.04-20.747 0-39.89-14.04-60.64-14.04-20.747 0-39.89 14.04-60.64 14.04-20.747 0-39.89-14.04-60.64-14.04-20.747 0-39.89 14.04-60.64 14.04-20.747 0-39.89-14.04-60.64-14.04-20.747 0-39.89 14.04-60.64 14.04-20.747 0-39.89-14.04-60.64-14.04-20.747 0-39.89 14.04-60.64 14.04-20.747 0-39.89-14.04-60.64-14.04zm0 24.816c-20.747 0-39.89 14.04-60.64 14.04-10.71 0-20.994-3.738-31.29-7.357v14.04c10.297 3.619 20.581 7.357 31.29 7.357 20.747 0 39.89-14.04 60.64-14.04 20.747 0 39.89 14.04 60.64 14.04 20.747 0 39.89-14.04 60.64-14.04 20.747 0 39.89 14.04 60.64 14.04 20.747 0 39.89-14.04 60.64-14.04 20.747 0 39.89 14.04 60.64 14.04 20.747 0 39.89-14.04 60.64-14.04 20.747 0 39.89 14.04 60.64 14.04 20.747 0 39.89-14.04 60.64-14.04 20.747 0 39.89 14.04 60.64 14.04 20.747 0 39.89-14.04 60.64-14.04 10.711 0 20.995 3.74 31.29 7.359v-14.04c-10.298-3.619-20.582-7.359-31.29-7.359-20.747 0-39.89 14.04-60.64 14.04-20.747 0-39.89-14.04-60.64-14.04-20.747 0-39.89 14.04-60.64 14.04-20.747 0-39.89-14.04-60.64-14.04-20.747 0-39.89 14.04-60.64 14.04-20.747 0-39.89-14.04-60.64-14.04-20.747 0-39.89 14.04-60.64 14.04-20.747 0-39.89-14.04-60.64-14.04-20.747 0-39.89 14.04-60.64 14.04-20.747 0-39.89-14.04-60.64-14.04z" fill="#fff" fill-rule="evenodd"/><path d="m-1.446 89.1v770.27 6.05c0 35.17 34.715 63.48 77.84 63.48h88.02 104.93v.018a94.36582 94.36582 0 0 1 93.98828 93.98237h.012.012a94.36582 94.36582 0 0 1 93.98828 -93.98237v-.018h104.94 88.02c43.12 0 77.84-28.313 77.84-63.48v-6.05-6.05-764.21h-729.59z" fill="none" stroke-linejoin="round" stroke-linecap="round" stroke-width="5"/><g fill-rule="evenodd"><g stroke-width="3"><path d="m411.64 311.47l-26.988-153 58.841 149.61-11.276 7.641-12.711 1.435-3.671-.017z" fill="#da251d"/><g fill="#fff"><path d="m282.8 680.28c.349 4.936 2.467 9.661 4.672 14.09 1.564 3.141 3.059 6.715 5.974 8.667 5.739 3.844 13.418 5.373 20.254 4.38 3.772-.548 7.824-2.386 10.03-5.496 7.792-11 5.333-26.481 6.571-39.904 1.072-11.626 1.142-23.351.722-35.02-.24-6.681-1.852-19.97-1.852-19.97l-14.721.627c0 0-12.557 1.265-13.26 3.199-.702 1.934-4.564 11.858-6.424 17.927-3.557 11.609-6.446 23.425-9.03 35.29-1.17 5.365-3.318 10.732-2.931 16.209z"/><path d="m252.85 678.78c.349 4.936 2.467 9.661 4.672 14.09 1.564 3.141 3.059 6.715 5.974 8.667 5.739 3.844 13.418 5.373 20.254 4.38 3.772-.548 7.824-2.386 10.03-5.496 7.792-11 5.333-26.481 6.571-39.904 1.072-11.626 1.142-23.351.722-35.02-.24-6.681-1.852-19.97-1.852-19.97l-14.721.627c0 0-12.557 1.265-13.26 3.199-.702 1.934-4.564 11.858-6.424 17.927-3.557 11.609-6.446 23.425-9.03 35.29-1.17 5.365-3.318 10.732-2.931 16.209z"/><path d="m222.98 662.79c-.989 4.848-.772 10.11.717 14.827 1.618 5.125 4.559 10.1 8.609 13.632 3.63 3.165 8.35 6.325 13.153 5.979 5.01-.36 9.493-4.249 12.675-8.131 6.241-7.613 7.474-18.223 10.762-27.502 3.688-10.408 6.639-21.06 10.04-31.568 2.744-8.465 8.37-25.35 8.37-25.35l-14.349-3.348c0 0-12.436-2.152-13.632-.478-1.196 1.674-7.58 10.198-11 15.545-6.543 10.228-12.498 20.835-18.18 31.568-2.567 4.854-6.077 9.447-7.175 14.827z"/><path d="m263.87 607.06c-7.789 14.784-15.348 29.795-24.872 43.525-5.969 8.605-10.115 20.961-20.09 24.15-4.475 1.433-9.993-.615-13.632-3.587-5.02-4.105-7.427-11.08-8.609-17.458-1.43-7.714.746-15.719 2.152-23.437 1.883-10.331 1.632-22.318 8.37-30.372 6.635-7.931 17.778-11.714 27.981-13.392 7.21-1.186 15.192-.566 21.763 2.631 4.46 2.17 9.696 5.632 10.523 10.523.457 2.707-2.308 4.985-3.587 7.414z"/><path d="m176.52 607.15c-1.8 6.785-2.878 14.15-1.404 21.01.956 4.451 2.614 9.563 6.427 12.05 4.071 2.658 9.967 2.745 14.544 1.104 11.262-4.04 18.11-15.763 25.911-24.839 9.525-11.09 25.22-35.871 25.22-35.871 0 0-7.395-10.26-13.05-11.93-4.969-1.468-10.503.69-15.33 2.573-8.73 3.404-16.1 9.661-23.555 15.343-5.472 4.172-11.286 8.214-15.443 13.698-1.534 2.024-2.676 4.4-3.327 6.855z"/><path d="m163.01 572.71c-3.158 5.514-6.243 11.585-6.457 17.936-.176 5.22.48 11.509 4.305 15.07 3.995 3.716 10.656 4.333 16.02 3.348 8-1.469 14.329-7.928 20.567-13.153 12.887-10.796 26.295-22.23 34.2-37.07 1.618-3.038 2.392-10.04 2.392-10.04 0 0-7.04 11.1-11.24 8.849-4.958-2.662 6.03-13.663 1.377-16.826-18.07-12.281-41.612 15.5-58.773 29.02-.978.771-1.773 1.789-2.392 2.87z"/><path d="m148.12 538.67c-3.28 5.065-4.816 11.424-4.783 17.458.028 5.223.925 11.08 4.305 15.07 3.138 3.697 8.304 6.15 13.153 6.218 8.53.12 15.942-6.209 23.437-10.283 14.01-7.614 32.14-12.405 39.938-26.307 2.264-4.03 3.255-10.171.478-13.871-3.11-4.144-9.89-3.603-15.07-3.826-9.362-.404-18.572 2.614-27.741 4.544-9.99 2.103-20.556 3.02-29.655 7.653-1.565.796-3.111 1.874-4.066 3.348z"/><path d="m128.27 514.03c-2.533 1.476-4.864 3.618-6.218 6.218-1.271 2.441-1.572 5.382-1.435 8.131.132 2.647.689 5.444 2.152 7.653 1.973 2.979 5.088 5.284 8.37 6.696 5.323 2.291 11.427 2.206 17.219 2.392 6.471.207 13-.272 19.371-1.435 7.196-1.314 14.455-3.043 21.05-6.218 6.136-2.957 12.55-6.348 16.741-11.718 1.785-2.288 3.401-5.244 3.109-8.131-.314-3.102-2.334-6.312-5.02-7.892-4.681-2.752-10.832-1-16.262-.957-9.434.082-18.793 1.793-28.22 2.152-6.532.249-13.13-.879-19.61 0-3.852.523-7.881 1.152-11.24 3.109z"/><path d="m119.4 497.51c-3.86-.181-7.957-1.014-11.592.219-1.477.501-2.891 1.485-3.682 2.757-1.065 1.714-1.462 3.942-.997 5.876.759 3.161 3.145 6.01 5.861 8.01 5.576 4.108 12.972 5.632 19.895 7.07 11.431 2.37 23.326 2.703 35.02 2.405 11.964-.305 23.931-1.839 35.647-4.28 5.716-1.191 16.779-5.03 16.779-5.03l-.832-5.596c0 0-9-2.01-9.804-2.076-.8-.068 3.655-2.752 2.879-4.289-11.05-21.898-49.06-1.367-73.51-3.295-5.239-.413-10.413-1.526-15.667-1.772z"/><path d="m101.91 466.73c-4.347-.659-8.883-2.131-13.147-1.062-1.732.434-3.453 1.457-4.503 2.899-1.413 1.942-2.134 4.578-1.843 6.96.475 3.892 2.828 7.599 5.659 10.318 5.812 5.583 13.998 8.263 21.659 10.783 12.65 4.161 26.1 5.58 39.35 6.901 12.585 1.255 25.288 1.351 37.929.953 7.213-.227 21.566-1.905 21.566-1.905l.717-11.1c0 0-9.948-3.447-10.845-3.62-.897-.173-19.02-2.126-28.393-4-17.1-3.424-33.681-9.1-50.632-13.205-5.815-1.409-11.601-3.03-17.517-3.924z"/><path d="m95.03 436.31c-4.647-.965-9.451-2.82-14.11-1.913-1.893.368-3.807 1.373-5.02 2.87-1.636 2.02-2.566 4.823-2.391 7.414.286 4.233 2.607 8.376 5.5 11.479 5.94 6.372 14.778 9.335 22.719 12.914 11.216 5.05 23 8.889 34.916 11.958 11.131 2.867 22.576 4.391 33.959 5.979 12.303 1.716 37.07 3.826 37.07 3.826l1.674-21.524c0 0-10.523-4.305-11.479-4.544-.957-.239-20.38-3.406-30.372-5.979-18.237-4.696-35.775-11.792-53.809-17.219-6.186-1.862-12.328-3.947-18.654-5.261z"/><path d="m235.69 449.79c0 0-37.02-5.55-55.17-9.994-18.11-4.433-36.16-9.514-53.41-16.579-10.868-4.451-21.374-9.895-31.31-16.16-5.491-3.461-10.389-7.784-15.52-11.758-3.791-2.937-6.545-8.164-11.279-8.932-1.474-.239-3.066.568-4.21 1.528-2.067 1.735-3.731 4.335-4.04 7.02-.477 4.167 1.799 8.279 3.651 12.04 3.432 6.975 8.399 13.16 13.555 18.979 7.111 8.02 14.66 15.998 23.735 21.707 10.451 6.575 22.608 10.05 34.37 13.817 11.03 3.534 22.353 6.288 33.783 8.183 10.357 1.717 20.869 2.606 31.364 2.858 13.335.321 39.981-1.71 39.981-1.71z"/><path d="m209.72 438.22c0 0-34.02-15.617-50.23-24.93-16.16-9.288-32.09-19.19-46.698-30.764-9.204-7.295-17.381-15.819-25.588-24.22-4.901-5.02-10.141-9.828-14.1-15.615-2.468-3.604-2.099-9.539-5.892-11.706-1.296-.74-3.104-.306-4.469.298-2.467 1.093-4.789 3.128-5.828 5.619-1.616 3.871-.572 8.453.162 12.583 1.359 7.654 4.412 14.976 7.748 21.997 4.601 9.684 9.934 19.19 16.77 27.447 7.171 8.665 16.05 15.854 24.994 22.669 8.397 6.395 17.19 12.477 26.743 16.957 11.717 5.493 24.499 8.386 36.953 11.903 12.837 3.625 38.882 9.466 38.882 9.466z"/><path d="m204.96 418.4c0 0-32.915-22.664-48.25-35.431-15.293-12.733-30.23-26.06-43.47-40.919-8.341-9.36-15.377-19.824-22.468-30.16-4.234-6.175-8.862-12.195-11.969-19.01-1.934-4.243-.457-10.416-4.048-13.39-1.228-1.016-3.208-.891-4.755-.506-2.796.696-5.611 2.411-7.161 4.839-2.41 3.774-2.282 8.786-2.139 13.261.288 9 2.958 17.869 5.998 26.348 2.838 7.916 6.771 15.471 11.307 22.552 6.574 10.261 14.694 19.483 22.839 28.548 7.754 8.63 15.803 17.08 24.705 24.516 11.142 9.313 23.02 17.883 35.688 24.987 12.421 6.967 39.16 17.09 39.16 17.09z"/><path d="m197.06 394.73c0 0-29.03-27.461-42.22-42.44-13.15-14.935-25.857-30.406-36.651-47.12-6.801-10.533-13.144-21.528-17.556-33.26-2.452-6.521-3.547-13.487-4.837-20.334-.864-4.582 1.152-10.363-1.939-13.854-1.056-1.193-3.048-1.494-4.62-1.232-3.658.609-6.871 3.343-9.24 6.196-2.99 3.601-4.659 8.304-5.544 12.9-1.514 7.866-.723 16.13.616 24.02 1.405 8.291 4.308 16.329 7.7 24.02 4.915 11.151 11.52 21.513 18.17 31.723 6.333 9.721 12.986 19.306 20.636 28.03 9.576 10.917 19.994 21.21 31.415 30.18 11.2 8.796 36.06 22.912 36.06 22.912z"/><path d="m393.75 678.96c-1.207 4.545-4.03 8.577-6.875 12.318-2.02 2.653-4.053 5.722-7.123 7.02-6.04 2.564-13.483 2.62-19.686.474-3.423-1.184-6.876-3.623-8.377-6.92-5.309-11.659-.252-25.67.989-38.421 1.075-11.04 3.102-22 5.576-32.816 1.416-6.193 5.292-18.31 5.292-18.31l13.628 3.213c0 0 11.494 3.422 11.805 5.353.311 1.93 2.143 11.883 2.796 17.881 1.248 11.471 1.836 23.02 2.133 34.551.135 5.216 1.181 10.61-.158 15.653z"/><path d="m421.98 682.91c-1.207 4.545-4.03 8.577-6.875 12.318-2.02 2.653-4.053 5.722-7.123 7.02-6.04 2.564-13.483 2.62-19.686.474-3.423-1.184-6.876-3.623-8.377-6.92-5.309-11.659-.252-25.67.989-38.421 1.075-11.04 3.102-22 5.576-32.816 1.416-6.193 5.292-18.31 5.292-18.31l13.628 3.213c0 0 11.494 3.422 11.805 5.353.311 1.93 2.143 11.883 2.796 17.881 1.248 11.471 1.836 23.02 2.133 34.551.135 5.216 1.181 10.61-.158 15.653z"/><path d="m452.71 673.31c.057 4.702-1.083 9.574-3.316 13.712-2.425 4.495-6.06 8.614-10.468 11.187-3.953 2.306-8.922 4.413-13.343 3.233-4.609-1.23-8.101-5.661-10.379-9.852-4.466-8.22-3.723-18.344-5.136-27.592-1.584-10.374-2.437-20.846-3.741-31.26-1.05-8.391-3.288-25.16-3.288-25.16l13.99-.564c0 0 11.991.211 12.808 1.987.817 1.776 5.255 10.872 7.493 16.473 4.282 10.715 7.947 21.678 11.33 32.71 1.53 4.989 3.986 9.903 4.05 15.12z"/><path d="m424.49 614c4.631 15.19 9.01 30.551 15.445 45.07 4.04 9.1 5.7 21.371 14.439 26.13 3.921 2.136 9.436 1.21 13.363-.915 5.423-2.935 8.909-9.02 11.151-14.759 2.711-6.945 2.109-14.805 2.174-22.261.087-9.98 2.46-21.12-2.392-29.844-4.777-8.587-14.502-14.11-23.725-17.495-6.518-2.394-14.08-3.24-20.781-1.429-4.55 1.23-10.05 3.526-11.699 7.944-.91 2.445 1.264 5.065 2.025 7.56z"/><path d="m506 629.67c.469 6.655.161 13.722-2.44 19.865-1.687 3.984-4.147 8.46-8.149 10.1-4.274 1.754-9.793.783-13.771-1.565-9.791-5.779-14.09-17.947-19.75-27.81-6.911-12.05-17.14-37.986-17.14-37.986 0 0 8.733-8.257 14.306-8.807 4.9-.483 9.679 2.519 13.849 5.138 7.541 4.736 13.306 11.892 19.246 18.526 4.362 4.871 9.07 9.682 11.968 15.543 1.071 2.163 1.712 4.585 1.882 6.993z"/><path d="m524.76 599.94c1.964 5.711 3.76 11.929 2.825 17.895-.768 4.904-2.502 10.657-6.707 13.295-4.392 2.756-10.719 2.142-15.552.265-7.208-2.8-11.959-9.957-16.848-15.949-10.1-12.377-20.574-25.444-25.303-40.705-.968-3.124-.439-9.802-.439-9.802 0 0 6.666-6.348 10.629-5.686 11.285 1.884 14.13 18.387 23.363 25.14 7.828 5.73 19.235 5.8 26.312 12.436.863.809 1.335 1.987 1.72 3.106z"/><path d="m544.73 570.82c2.157 5.313 2.456 11.523 1.348 17.15-.959 4.87-2.841 10.181-6.707 13.295-3.589 2.891-8.848 4.258-13.386 3.456-7.983-1.411-13.771-8.641-20.04-13.782-11.713-9.607-27.78-17.315-32.581-31.684-1.393-4.17-1.223-10.07 2.029-13.03 3.643-3.313 9.873-1.598 14.745-.882 8.81 1.293 16.867 5.755 25.08 9.193 8.949 3.746 18.646 6.491 26.312 12.436 1.318 1.023 2.569 2.305 3.197 3.851z"/><path d="m567.65 551.37c2.1 1.83 3.894 4.245 4.694 6.914.751 2.506.506 5.304-.112 7.846-.595 2.447-1.614 4.958-3.375 6.759-2.373 2.428-5.692 4.02-9.01 4.756-5.377 1.188-11.06.019-16.498-.841-6.077-.962-12.09-2.574-17.824-4.797-6.482-2.511-12.949-5.42-18.533-9.56-5.2-3.855-10.58-8.166-13.533-13.926-1.258-2.454-2.238-5.502-1.451-8.145.846-2.84 3.305-5.475 6.096-6.47 4.86-1.733 10.289.997 15.349 2.01 8.79 1.76 17.22 5.03 25.954 7.05 6.05 1.398 12.414 1.523 18.303 3.5 3.502 1.176 7.15 2.482 9.936 4.908z"/><path d="m578.88 537.53c3.635.52 7.607.474 10.78 2.274 1.289.731 2.434 1.902 2.944 3.231.688 1.79.661 3.94-.118 5.663-1.273 2.815-4.01 5.05-6.9 6.434-5.938 2.839-13.11 2.941-19.83 3.046-11.09.172-22.253-1.64-33.12-4.01-11.11-2.42-22.01-5.988-32.507-10.358-5.123-2.132-14.762-7.692-14.762-7.692l1.775-5.075c0 0 8.763-.267 9.521-.188.758.08-3.688-7.547-1.266-9.76 17.284-15.788 45.39 11.839 68.54 15.288 4.939.736 9.991.435 14.938 1.143z"/><path d="m600.7 511.92c4.175.161 8.671-.403 12.46 1.356 1.539.715 2.963 1.976 3.685 3.509.973 2.065 1.175 4.654.478 6.826-1.138 3.548-3.996 6.588-7.124 8.621-6.421 4.174-14.539 5.215-22.14 6.199-12.55 1.626-25.355.55-37.959-.583-11.97-1.075-23.844-3.252-35.571-5.88-6.692-1.5-19.788-5.628-19.788-5.628l1.311-10.485c0 0 9.9-1.442 10.768-1.444.868 0 18.13 1.411 27.21 1.332 16.575-.143 33.06-2.479 49.614-3.288 5.679-.277 11.368-.755 17.05-.536z"/><path d="m612.55 484.75c4.51-.072 9.324-.945 13.511.733 1.701.682 3.308 1.961 4.175 3.575 1.168 2.174 1.535 4.96.909 7.347-1.022 3.901-3.928 7.353-7.182 9.733-6.681 4.887-15.458 6.076-23.51 7.999-11.37 2.716-23.06 4.191-34.722 4.929-10.9.69-21.854.069-32.762-.481-11.789-.594-35.28-3.045-35.28-3.045l2.279-20.389c0 0 10.589-2.14 11.525-2.192.936-.053 19.629.459 29.414-.16 17.86-1.128 35.495-4.621 53.29-6.468 6.106-.634 12.211-1.484 18.349-1.582z"/><path d="m478.86 472.23c0 0 35.542 1.427 53.28.519 17.69-.906 35.445-2.427 52.805-5.942 10.938-2.215 21.715-5.421 32.11-9.493 5.742-2.25 11.09-5.411 16.584-8.205 4.063-2.065 7.566-6.452 12.12-6.324 1.418.04 2.761 1.078 3.656 2.178 1.619 1.988 2.709 4.713 2.516 7.27-.299 3.975-3.157 7.406-5.557 10.589-4.448 5.898-10.188 10.785-16.04 15.296-8.07 6.221-16.538 12.316-26.03 16.03-10.927 4.271-22.895 5.347-34.542 6.763-10.93 1.329-21.985 1.88-32.992 1.608-9.973-.246-19.943-1.293-29.784-2.93-12.504-2.081-37.01-8.732-37.01-8.732z"/><path d="m505.17 466.06c0 0 34.539-8.505 51.33-14.306 16.741-5.785 33.375-12.18 49.08-20.381 9.892-5.167 19.05-11.664 28.2-18.04 5.47-3.808 11.219-7.364 15.951-12.06 2.947-2.924 3.661-8.53 7.588-9.875 1.342-.46 2.951.268 4.117 1.076 2.108 1.46 3.911 3.775 4.437 6.285.817 3.901-.975 7.992-2.397 11.716-2.635 6.902-6.79 13.191-11.157 19.15-6.02 8.218-12.696 16.14-20.55 22.627-8.239 6.809-17.806 11.935-27.374 16.698-8.979 4.471-18.267 8.579-27.986 11.05-11.916 3.036-24.362 3.455-36.614 4.515-12.628 1.092-37.979 1.895-37.979 1.895z"/><path d="m513.15 448.41c0 0 34.766-15.28 51.36-24.46 16.546-9.155 32.866-18.931 47.874-30.436 9.456-7.248 17.89-15.76 26.353-24.15 5.05-5.01 10.448-9.802 14.563-15.606 2.563-3.615 2.285-9.641 6.168-11.776 1.327-.73 3.153-.259 4.528.376 2.485 1.149 4.807 3.252 5.82 5.795 1.575 3.953.562 8.608-.37 12.76-1.875 8.352-5.95 16.15-10.301 23.523-4.062 6.882-9.08 13.233-14.578 19.03-7.967 8.405-17.192 15.563-26.411 22.571-8.777 6.671-17.797 13.12-27.433 18.475-12.06 6.704-24.679 12.583-37.768 16.954-12.836 4.286-39.597 8.961-39.597 8.961z"/><path d="m524.74 427.72c0 0 31.999-20.451 46.979-32.08 14.939-11.594 29.56-23.766 42.618-37.444 8.227-8.618 16.11-17.749 22.322-27.915 3.452-5.65 5.717-11.956 8.144-18.12 1.624-4.123.774-9.878 4.282-12.586 1.199-.925 3.111-.85 4.532-.325 3.305 1.222 5.816 4.347 7.518 7.433 2.148 3.895 2.867 8.583 2.872 13.03.009 7.613-2.204 15.181-4.862 22.314-2.791 7.488-6.935 14.473-11.474 21.05-6.578 9.531-14.591 18.02-22.622 26.368-7.646 7.943-15.565 15.703-24.26 22.478-10.886 8.481-22.448 16.233-34.708 22.567-12.02 6.211-37.745 14.951-37.745 14.951z"/></g></g><path d="m386.05 166.44l46.16 149.28" fill="none" stroke-width="2"/><path d="m440.42 298.07c0 0-2.268 7.301-4.631 10.188-2.171 2.652-5.02 5.158-8.334 6.02-2.557.664-5.451.127-7.873-.928-3.714-1.618-9.26-7.871-9.26-7.871 0 0 2.566 21.12.926 31.486-1.792 11.332-5.61 22.615-11.576 32.414-21.296 34.979-60.935 55.861-83.81 89.83-10.647 15.808-19.968 33.25-24.08 51.861-3.231 14.634-2.887 30.09-.771 45-4.56-2.122-6.473-5.067-8.59-8.492-4.03-6.53-5.176-14.472-7.15-21.889-5.718-21.481-3.118-45.666-13.551-65.29-15.742-29.618-70.22-72.07-70.22-72.07 0 0-9.638 39.567-9.855 59.752-.313 29.04 1.382 59.34 12.318 86.24 10.626 26.14 28.972 49.45 49.896 68.37 15.357 13.89 34.07 24.519 53.59 31.416 7.831 2.766 24.641 3.695 24.641 3.695 0 0 2.893 17.189 3.08 25.871.235 10.911 4.19 23.998-2.465 32.648-3.049 3.963-9.262 3.964-14.168 4.928-4.987.979-15.225.809-15.225.809 0 0 6.366 8.095 8.368 12.775 2.374 5.551 3.187 11.673 4.102 17.641 2.818 18.385 5.287 37.07 4.223 55.639-1.608 28.05-8.777 55.6-15.939 82.77-4.728 17.936-10.377 35.722-17.781 52.729-.818 1.88-1.782 3.716-2.842 5.523 50.13 2.374 89.64 43.574 89.9 93.76h.012.012c.21-51.82 42.17-93.78 93.99-93.98v-.018h3.447c-.772-2.185-1.572-4.359-2.422-6.512-12.356-31.29-28.46-60.974-42.918-91.35-8.474-17.807-18.383-34.976-25.691-53.29-7.156-17.934-18.456-35.871-17.678-55.16.225-5.581 3.762-10.561 6.383-15.494 1.264-2.379 4.471-6.734 4.471-6.734 0 0-8.936-3.999-12.915-6.799-2.732-1.923-6.189-3.654-7.388-6.771-3.64-9.464.967-20.324 2.871-30.28 1.512-7.909 6.752-23.19 6.752-23.19 0 0 17.477-1.272 25.721-3.975 17.841-5.849 34.591-15.231 49.955-26.02 19.913-13.987 40.34-29.12 53.691-49.46 13.901-21.19 20.644-46.843 24.977-71.814 3.207-18.483.498-56.28.498-56.28 0 0-42.992 19.597-61.36 34.09-21.359 16.86-38.34 38.793-55.14 60.2-12.482 15.904-15.184 42.33-33.709 50.42-3.841 1.679-8.878.27-12.42-1.973-7.221-4.573-11.341-13.217-14.463-21.17-4.763-12.139-6.827-25.689-5.789-38.688 1.329-16.636 7.638-32.821 15.176-47.711 12.906-25.495 32.723-46.9 50.46-69.31 10.731-13.561 24.855-24.557 33.801-39.36 5.412-8.953 11.735-18.712 11.576-29.17-.094-6.221-3.99-11.934-7.408-17.13-1.98-3.01-7.408-7.871-7.408-7.871z" fill="#fff" stroke-linejoin="round" stroke-width="3"/></g><g stroke-width="3"><rect rx=".923" width="5.126" height="1.845" x="436.31" y="323.72" stroke-linejoin="round" stroke-linecap="round" ry=".922"/><g fill="none" fill-rule="evenodd"><path d="m308.35 805.33c0 0 14.473 9.987 22.462 13.535 6.947 3.085 14.244 6.074 21.827 6.599 7.09.491 14.561-.433 21.07-3.299 6.444-2.84 11.561-8.174 16.497-13.197 3.29-3.348 8.604-11.15 8.604-11.15"/><path d="m391.47 807.19l35.7 127.56"/><path d="m380.56 818.11l26.18 127.04"/><path d="m367.87 823.95l19.331 137.23"/><path d="m359.75 825.21l4.833 182.28"/><path d="m347.56 824.96l-5.556 139.31"/><path d="m334.37 820.14l-13.735 125.45"/><path d="m321.93 814.05l-24.84 119.8"/></g></g></g></g></svg>