<?xml version="1.0" encoding="UTF-8" standalone="no"?>
<svg
   xmlns:dc="http://purl.org/dc/elements/1.1/"
   xmlns:cc="http://creativecommons.org/ns#"
   xmlns:rdf="http://www.w3.org/1999/02/22-rdf-syntax-ns#"
   xmlns:svg="http://www.w3.org/2000/svg"
   xmlns="http://www.w3.org/2000/svg"
   xmlns:sodipodi="http://sodipodi.sourceforge.net/DTD/sodipodi-0.dtd"
   xmlns:inkscape="http://www.inkscape.org/namespaces/inkscape"
   width="200"
   height="300"
   id="svg2"
   version="1.1"
   inkscape:version="1.0.1 (3bc2e813f5, 2020-09-07)"
   sodipodi:docname="Coat_of_Arms_of_Debessky_rayon_(Udmurtia).svg">
  <defs
     id="defs4">
    <inkscape:perspective
       sodipodi:type="inkscape:persp3d"
       inkscape:vp_x="0 : 526.18109 : 1"
       inkscape:vp_y="0 : 1000 : 0"
       inkscape:vp_z="744.09448 : 526.18109 : 1"
       inkscape:persp3d-origin="372.04724 : 350.78739 : 1"
       id="perspective10" />
    <inkscape:perspective
       id="perspective2824"
       inkscape:persp3d-origin="0.5 : 0.33333333 : 1"
       inkscape:vp_z="1 : 0.5 : 1"
       inkscape:vp_y="0 : 1000 : 0"
       inkscape:vp_x="0 : 0.5 : 1"
       sodipodi:type="inkscape:persp3d" />
    <inkscape:perspective
       id="perspective3711"
       inkscape:persp3d-origin="0.5 : 0.33333333 : 1"
       inkscape:vp_z="1 : 0.5 : 1"
       inkscape:vp_y="0 : 1000 : 0"
       inkscape:vp_x="0 : 0.5 : 1"
       sodipodi:type="inkscape:persp3d" />
  </defs>
  <sodipodi:namedview
     id="base"
     pagecolor="#ffffff"
     bordercolor="#666666"
     borderopacity="1.0"
     inkscape:pageopacity="0.0"
     inkscape:pageshadow="2"
     inkscape:zoom="0.98994949"
     inkscape:cx="104.83264"
     inkscape:cy="125.83125"
     inkscape:document-units="px"
     inkscape:current-layer="layer1"
     showgrid="false"
     inkscape:window-width="1920"
     inkscape:window-height="1137"
     inkscape:window-x="-8"
     inkscape:window-y="-8"
     inkscape:window-maximized="1"
     inkscape:document-rotation="0" />
  <metadata
     id="metadata7">
    <rdf:RDF>
      <cc:Work
         rdf:about="">
        <dc:format>image/svg+xml</dc:format>
        <dc:type
           rdf:resource="http://purl.org/dc/dcmitype/StillImage" />
      </cc:Work>
    </rdf:RDF>
  </metadata>
  <g
     inkscape:label="Layer 1"
     inkscape:groupmode="layer"
     id="layer1"
     transform="translate(964.296,-327.07648)">
    <path
       style="fill:#ff0000;fill-opacity:1;fill-rule:evenodd;stroke:none"
       d="m -964.28571,327.07648 199.91952,0 0,264 c 0.75773,12.12184 -4.64449,16.78782 -14.99397,18 -8.29061,0.97104 -61.64184,0 -69.97183,0 -12.11609,0 -9.32274,9.29335 -14.99396,18 -6.05762,-8.48528 -1.86811,-18 -14.99397,-18 l -69.97183,0 c -10.85435,0 -15.24682,-6.48426 -14.99396,-18 l 0,-264 z"
       id="rect3700"
       sodipodi:nodetypes="cccsscsscc" />
    <path
       style="color:#000000;fill:#ffff00;fill-opacity:1;fill-rule:evenodd;stroke:none;stroke-width:1;marker:none;visibility:visible;display:inline;overflow:visible;enable-background:accumulate"
       d="m -860.57316,541.6406 -2.67495,-8.29764 c 10.14625,-14.01211 13.95445,-12.71811 18.74242,-13.89563 -4.75588,2.42561 -12.65942,14.49279 -16.06747,22.19327 z m -35.26147,27.32874 c -24.12639,-1.65404 -29.82158,-23.70648 -20.45937,-43.39133 -6.77286,7.47361 -12.23544,31.04551 5.90713,43.06572 18.76104,8.81338 37.29011,-0.74641 46.10116,-17.80658 l -2.70025,-9.98325 c 0.39032,6.10971 -12.61372,29.35965 -28.84867,28.11544 z m 21.02278,-40.17287 c -19.17922,-23.31909 -42.24746,-6.17367 -41.67001,9.83998 0.57745,16.01365 2.92476,22.29414 16.97876,22.74109 14.05399,0.44694 20.56834,-21.55463 24.69125,-32.58107 z m 6.1338,-9.938 c -18.95513,-34.14922 -59.95002,-10.10614 -58.22619,19.97875 1.72383,30.08489 17.21419,37.43375 33.02614,38.20384 15.81194,0.77009 32.04825,-11.22868 35.83345,-15.52365 21.59342,26.66026 52.56048,13.93068 59.38916,-6.73751 6.82868,-20.66818 4.86534,-50.66595 -29.59486,-47.30226 -14.06963,-11.27007 -32.88421,-3.66146 -40.4277,11.38083 z m 13.8081,38.52966 c 24.3664,30.3099 52.99687,-14.99042 29.83204,-34.94913 -12.04938,3.11842 -25.57893,25.32992 -29.83204,34.94913 z m 33.48137,14.23633 c 17.40822,-10.98505 21.70344,-30.94594 11.65385,-48.51137 19.27606,10.4202 9.45654,43.934 -11.65385,48.51137 z"
       id="path3688"
       sodipodi:nodetypes="cccccccccccczcczccccccccczz" />
    <path
       style="color:#000000;fill:#fefdfd;fill-opacity:1;fill-rule:evenodd;stroke:none;stroke-width:1;marker:none;visibility:visible;display:inline;overflow:visible;enable-background:accumulate"
       d="m -931.28571,543.07647 2,5.00001 -25,-7.00001 25,-6.99999 -2,5 128,0 5,-5 24,0 -7,7 7,7 -24,0 -5,-5 -128,-10e-6 z"
       id="path3672"
       sodipodi:nodetypes="ccccccccccccc" />
    <path
       style="color:#000000;fill:#ffff00;fill-opacity:1;stroke:none;stroke-width:1;marker:none;visibility:visible;display:inline;overflow:visible;enable-background:accumulate"
       d="m -858.28571,470.874 c 7.01159,-0.53571 13.98261,-9.57841 14,-17 0.0107,-4.5655 -1.75751,-10.42857 -4,-14 l -16,11 -16,-11 c -1.99416,2.89012 -4.07553,8.70123 -4,14 0.10093,7.08056 7.29276,16.94538 14,17 1.98103,8.56829 10.71997,7.96619 12,0 z"
       id="path3690"
       sodipodi:nodetypes="cscccscc" />
    <path
       style="color:#000000;fill:#ffff00;fill-opacity:1;stroke:none;stroke-width:1;marker:none;visibility:visible;display:inline;overflow:visible;enable-background:accumulate"
       d="m -864.28571,448.874 15,-10 -3,-4 -12,8 -12,-8 -3,4 15,10 z"
       id="path3692"
       sodipodi:nodetypes="ccccccc" />
    <path
       style="color:#000000;fill:#ffff00;fill-opacity:1;stroke:none;stroke-width:1;marker:none;visibility:visible;display:inline;overflow:visible;enable-background:accumulate"
       d="m -864.28571,440.874 11,-7 -5,-10 -12,0 -5,10 11,7 z"
       id="path3694"
       sodipodi:nodetypes="cccccc" />
    <path
       style="color:#000000;fill:#ffff00;fill-opacity:1;stroke:none;stroke-width:1;marker:none;visibility:visible;display:inline;overflow:visible;enable-background:accumulate"
       d="m -870.28571,422.874 12,0 0,-5 -12,0 0,5 z"
       id="path3696"
       sodipodi:nodetypes="ccccc" />
    <path
       style="color:#000000;fill:#ffff00;fill-opacity:1;stroke:none;stroke-width:1;marker:none;visibility:visible;display:inline;overflow:visible;enable-background:accumulate"
       d="m -870.28571,416.874 12,0 0,-6 c 10.47193,-0.69861 18.25442,-10.42599 18,-22 l 5,-5 -5,0 c -0.47118,-4.78513 -3.24046,-11.63501 -5.61607,-14.56568 1.54768,-6.33079 -4.85504,-10.82507 -10.37795,-6.99996 -13.25496,-4.03687 -22.52641,1.10674 -27.9643,7.24749 -5.43788,6.14076 -1.68132,7.2808 1.83332,2.34029 3.51464,-4.94051 13.73554,-10.86657 24.5625,-6.48467 -0.002,5.50984 2.87491,7.85095 8.61608,6.46253 10.80543,15.22429 1.28916,33.40679 -13.05358,33 l 0,-4 c 0,0 4.07973,-3.25792 4,-6 -0.0794,-2.73108 -3.13095,-5.88879 -6,-6 -2.69076,-0.1043 -5.90346,3.48285 -6,6 -0.0965,2.51715 4,6 4,6 l 0,4 c -9.00399,2.10267 -20.30886,-8.44822 -19,-25 -0.15157,-2.04579 -3.17855,-2.04691 -3,0 l 0,4 -5,0 5,5 c 0.80559,10.56871 9.18533,21.73168 18,22 l 0,6 z"
       id="path3698"
       sodipodi:nodetypes="cccccccczzcccczzzccccccccc" />
    <path
       style="color:#000000;fill:#ffff00;fill-opacity:1;fill-rule:evenodd;stroke:none;stroke-width:1;marker:none;visibility:visible;display:inline;overflow:visible;enable-background:accumulate"
       d="m -858.04465,561.51741 3.1747,-4.12928 c 4.25311,-9.61921 17.78266,-31.83071 29.83204,-34.94913 l -3.21244,-14.96136 c -14.06963,-11.27007 -32.88421,-3.66146 -40.4277,11.38083 l -6.1338,9.938 c -4.12291,11.02644 -10.63726,33.02801 -24.69125,32.58107 -14.05399,-0.44694 -12.56648,6.34759 3.66847,7.5918 16.23495,1.24421 29.23899,-22.00573 28.84867,-28.11544 l 3.73785,-7.51094 c 10.14625,-14.01211 13.95445,-12.71811 18.74242,-13.89563 -4.75588,2.42561 -12.65942,14.49279 -16.06747,22.19327 l -3.71255,9.19655"
       id="path3688-0"
       sodipodi:nodetypes="cccccczcccccc" />
  </g>
</svg>
