<svg xmlns="http://www.w3.org/2000/svg" viewBox="0 0 151.9 192.93"><defs><style>.cls-1{fill:#0080b7;}.cls-2{fill:#d6d8d6;}.cls-3,.cls-5,.cls-7,.cls-9{fill:none;stroke:#212222;}.cls-3,.cls-5,.cls-9{stroke-miterlimit:10;}.cls-3{stroke-width:0.27px;}.cls-4{fill:#9e197e;}.cls-5{stroke-width:0.13px;}.cls-6{fill:#212222;}.cls-7{stroke-linecap:round;stroke-linejoin:round;stroke-width:0.25px;}.cls-8{fill:#e30d13;}.cls-9{stroke-width:0.08px;}.cls-10{fill:#010203;}</style></defs><title>Ресурс 1</title><g id="Слой_2" data-name="Слой 2"><g id="Слой_1-2" data-name="Слой 1"><path class="cls-1" d="M147.75,42.73c.72-1.12,1.5-2.26,2.35-3.4l1.67-2.23V.25L93.44.21C80.53.2,76.52,7.08,76.08,12.35H76C75.57,7.08,71.57.19,58.66.18L.23.13V37s1.2,1.54,1.76,2.3c.85,1.15,1.63,2.29,2.35,3.42a54.22,54.22,0,0,1,2.85,5c13.31,27-7,47.05-7,47.05s0,13.08,0,27.12c0,13,0,26.85,0,31.83C.13,164.09,2,176.28,21,176.3l30.31,0c4.95,0,11.82-.58,16.69,1.83,4.71,2.33,7.37,7.83,7.87,14.77.5-6.94,3.18-12.43,7.89-14.76,4.87-2.4,11.74-1.81,16.69-1.8l30.31,0c19.07,0,20.92-12.17,20.93-22.51,0-5,0-18.9,0-31.95,0-14,0-27,0-27s-20.32-20.17-6.89-47.14a53.56,53.56,0,0,1,2.87-5.05"/><path class="cls-2" d="M135.16,91.73l6.59-14.83c-.32-1.11-.58-2.28-.81-3.48l-7,15.67L115.81,48.2l21.31-48h-2.34L114.64,45.56,96.47,4.67l2-4.46H96.1L95.29,2,94.49.21h-1c-.45,0-.86,0-1.28,0l2,4.42L76,45.56,57.78,4.67l2-4.45c-.37,0-.71,0-1.1,0H57.43L56.61,2,55.79.18H53.44l2,4.49L37.27,45.56,17.09.15H14.74L36.09,48.2,17.92,89.09,11,73.52q-.35,1.78-.81,3.45l6.56,14.76L.15,129.08v5.3l17.77-40,18.17,40.89L17.92,176.16c.73.06,1.51.09,2.3.1l17.05-38.35,17,38.37c1.47,0,3,0,4.57,0L76,137.91,93,176.33c1.55-.05,3.08,0,4.54,0l17.07-38.41,17.08,38.44c.79,0,1.58,0,2.3-.1l-18.21-41L134,94.38l17.76,40v-5.27M95.29,7.31,113.46,48.2,95.29,89.09,77.13,48.2Zm-38.68,0L74.78,48.2,56.61,89.09,38.44,48.2ZM19.1,91.73,37.27,50.85,55.43,91.73,37.27,132.62Zm37.51,84.42L38.44,135.27,56.61,94.38l18.17,40.89Zm1.17-84.42L76,50.85,94.12,91.73,76,132.62Zm37.51,84.42L77.13,135.27,95.29,94.38l18.17,40.89Zm19.35-43.53L96.47,91.73l18.17-40.88,18.17,40.88Z"/><path class="cls-3" d="M147.75,42.73c.72-1.12,1.5-2.26,2.35-3.4l1.67-2.23V.25L93.44.21C80.53.2,76.52,7.08,76.08,12.35H76C75.57,7.08,71.57.19,58.66.18L.23.13V37s1.2,1.54,1.76,2.3c.85,1.15,1.63,2.29,2.35,3.42a54.22,54.22,0,0,1,2.85,5c13.31,27-7,47.05-7,47.05s0,13.08,0,27.12c0,13,0,26.85,0,31.83C.13,164.09,2,176.28,21,176.3l30.31,0c4.95,0,11.82-.58,16.69,1.83,4.71,2.33,7.37,7.83,7.87,14.77.5-6.94,3.18-12.43,7.89-14.76,4.87-2.4,11.74-1.81,16.69-1.8l30.31,0c19.07,0,20.92-12.17,20.93-22.51,0-5,0-18.9,0-31.95,0-14,0-27,0-27s-20.32-20.17-6.89-47.14A53.56,53.56,0,0,1,147.75,42.73Z"/><path class="cls-4" d="M139.15,25.71c-11.17,3.89-33.48,10-63.2,10-29.93,0-52.34-6.21-63.43-10.11A200.32,200.32,0,0,1,22.66,88.8a199.8,199.8,0,0,1-10.31,63.67A224,224,0,0,1,76,143a224,224,0,0,1,63.38,9.43,188.5,188.5,0,0,1-10.67-63.6,188.72,188.72,0,0,1,10.49-63.09"/><path class="cls-2" d="M145.58,19.35S118.28,32.16,76,32.16,6.33,19.35,6.33,19.35,19.08,48.22,19.08,88.8,6.33,158.25,6.33,158.25,36.92,146.54,76,146.54s69.63,11.71,69.63,11.71-13.34-27.77-13.34-69.45,13.34-69.45,13.34-69.45M76,143a224,224,0,0,0-63.6,9.5A199.8,199.8,0,0,0,22.66,88.8,200.32,200.32,0,0,0,12.52,25.62C23.61,29.52,46,35.74,76,35.74c29.72,0,52-6.14,63.2-10A188.46,188.46,0,0,0,128.66,88.8c0,29.87,6.63,52.56,10.67,63.6A224,224,0,0,0,76,143"/><path class="cls-5" d="M145.58,19.35S118.28,32.16,76,32.16,6.33,19.35,6.33,19.35,19.08,48.22,19.08,88.8,6.33,158.25,6.33,158.25,36.92,146.54,76,146.54s69.63,11.71,69.63,11.71-13.34-27.77-13.34-69.45S145.58,19.35,145.58,19.35ZM76,143a224,224,0,0,0-63.6,9.5A199.8,199.8,0,0,0,22.66,88.8,200.32,200.32,0,0,0,12.52,25.62C23.61,29.52,46,35.74,76,35.74c29.72,0,52-6.14,63.2-10A188.46,188.46,0,0,0,128.66,88.8c0,29.87,6.63,52.56,10.67,63.6A224,224,0,0,0,76,143Z"/><polyline class="cls-6" points="116.09 122.82 36.3 122.82 36.3 136.85 46.79 136.89 46.81 136.89 116.09 137.17"/><polygon class="cls-7" points="116.09 122.82 36.3 122.82 36.3 136.85 46.79 136.89 46.81 136.89 116.09 137.17 116.09 122.82"/><polyline class="cls-6" points="107 104.98 105.84 104.98 105.84 89.5 106.52 89.5 106.52 88.88 45.39 88.88 45.39 89.5 46.06 89.5 46.06 104.98 44.91 104.98 44.91 120.92 107 120.92"/><polygon class="cls-7" points="107 104.98 105.84 104.98 105.84 89.5 106.52 89.5 106.52 88.88 45.39 88.88 45.39 89.5 46.06 89.5 46.06 104.98 44.91 104.98 44.91 120.92 107 120.92 107 104.98"/><rect class="cls-8" x="66.85" y="68.63" width="18.2" height="15.44"/><rect class="cls-9" x="66.85" y="68.63" width="18.2" height="15.44"/><path class="cls-2" d="M69.7,83.34H68V74.87a.29.29,0,0,1,.3-.3H69.4a.29.29,0,0,1,.3.3"/><path class="cls-2" d="M83.87,83.34H82.2V74.87a.3.3,0,0,1,.3-.3h1.08a.29.29,0,0,1,.29.3"/><path class="cls-2" d="M82.23,58.81c-1.26-.83-5.12-3.54-6-6.6V40.43h-.64V52.21c-.83,3.06-4.7,5.77-5.95,6.6S65,60.81,65,65.19a4.73,4.73,0,0,0,3.91,4.94H83a4.73,4.73,0,0,0,3.91-4.94c0-4.38-3.42-5.54-4.67-6.38"/><path class="cls-9" d="M82.23,58.81c-1.26-.83-5.12-3.54-6-6.6V40.43h-.64V52.21c-.83,3.06-4.7,5.77-5.95,6.6S65,60.81,65,65.19a4.73,4.73,0,0,0,3.91,4.94H83a4.73,4.73,0,0,0,3.91-4.94C86.9,60.81,83.48,59.65,82.23,58.81Z"/><rect class="cls-2" x="74.53" y="41.85" width="2.83" height="0.51"/><rect class="cls-9" x="74.53" y="41.85" width="2.83" height="0.51"/><rect class="cls-2" x="75.7" y="49" width="0.51" height="1.81" transform="translate(12.31 114.78) rotate(-78.86)"/><rect class="cls-9" x="75.7" y="49" width="0.51" height="1.81" transform="translate(12.31 114.78) rotate(-78.86)"/><rect class="cls-2" x="72.19" y="43.82" width="7.52" height="0.66"/><rect class="cls-9" x="72.19" y="43.82" width="7.52" height="0.66"/><rect class="cls-8" x="51.89" y="74.06" width="10.09" height="13.63"/><rect class="cls-9" x="51.89" y="74.06" width="10.09" height="13.63"/><path class="cls-2" d="M54.82,83.5H53.17V76.19a.29.29,0,0,1,.29-.29h1.07a.29.29,0,0,1,.29.29"/><path class="cls-2" d="M57.74,83.5H56.09V76.19a.29.29,0,0,1,.29-.29h1.06a.29.29,0,0,1,.3.29"/><path class="cls-2" d="M60.71,83.5H59.06V76.19a.29.29,0,0,1,.29-.29h1.06a.29.29,0,0,1,.3.29"/><rect class="cls-8" x="89.87" y="74.06" width="10.09" height="13.63"/><rect class="cls-9" x="89.87" y="74.06" width="10.09" height="13.63"/><path class="cls-2" d="M97,83.5h1.65V76.19a.29.29,0,0,0-.29-.29H97.32a.29.29,0,0,0-.29.29"/><path class="cls-2" d="M94.11,83.5h1.65V76.19a.29.29,0,0,0-.29-.29H94.41a.29.29,0,0,0-.3.29"/><path class="cls-2" d="M91.14,83.5h1.65V76.19a.29.29,0,0,0-.29-.29H91.44a.29.29,0,0,0-.3.29"/><rect class="cls-8" x="70.91" y="74.06" width="10.09" height="13.63"/><rect class="cls-9" x="70.91" y="74.06" width="10.09" height="13.63"/><path class="cls-2" d="M73.83,85.39H72.18v-8a.29.29,0,0,1,.3-.3h1.06a.29.29,0,0,1,.29.3"/><path class="cls-2" d="M76.75,85.39H75.1v-8a.29.29,0,0,1,.29-.3h1.07a.29.29,0,0,1,.29.3"/><path class="cls-2" d="M79.72,85.39H78.07v-8a.29.29,0,0,1,.29-.3h1.07a.29.29,0,0,1,.29.3"/><path class="cls-2" d="M79.66,68.35c-.74-.5-2.88-2.1-3.38-3.9V55.86h-.66v8.59c-.49,1.8-2.63,3.4-3.37,3.9a4.88,4.88,0,0,0-2.76,4.19,2.79,2.79,0,0,0,2.3,2.91h8.32a2.8,2.8,0,0,0,2.31-2.91,4.9,4.9,0,0,0-2.76-4.19"/><path class="cls-9" d="M79.66,68.35c-.74-.5-2.88-2.1-3.38-3.9V55.86h-.66v8.59c-.49,1.8-2.63,3.4-3.37,3.9a4.88,4.88,0,0,0-2.76,4.19,2.79,2.79,0,0,0,2.3,2.91h8.32a2.8,2.8,0,0,0,2.31-2.91A4.9,4.9,0,0,0,79.66,68.35Z"/><rect class="cls-2" x="73.7" y="58.24" width="4.43" height="0.63"/><rect class="cls-9" x="73.7" y="58.24" width="4.43" height="0.63"/><path class="cls-10" d="M77.38,62c-.07,1-1.1,1.17-1.43,1.17S74.59,63,74.52,62a1.37,1.37,0,0,0,1.4,1.79H76A1.37,1.37,0,0,0,77.38,62"/><path class="cls-2" d="M60.64,67.77c-.74-.5-2.88-2.1-3.37-3.91V55.28h-.66v8.58c-.49,1.81-2.64,3.41-3.38,3.91A4.9,4.9,0,0,0,50.47,72a2.8,2.8,0,0,0,2.31,2.91H61.1A2.79,2.79,0,0,0,63.4,72a4.88,4.88,0,0,0-2.76-4.19"/><path class="cls-9" d="M60.64,67.77c-.74-.5-2.88-2.1-3.37-3.91V55.28h-.66v8.58c-.49,1.81-2.64,3.41-3.38,3.91A4.9,4.9,0,0,0,50.47,72a2.8,2.8,0,0,0,2.31,2.91H61.1A2.79,2.79,0,0,0,63.4,72,4.88,4.88,0,0,0,60.64,67.77Z"/><rect class="cls-2" x="54.69" y="57.66" width="4.43" height="0.63"/><rect class="cls-9" x="54.69" y="57.66" width="4.43" height="0.63"/><path class="cls-10" d="M58.37,61.4c-.07,1-1.1,1.17-1.43,1.17s-1.36-.18-1.43-1.17a1.37,1.37,0,0,0,1.39,1.79H57a1.37,1.37,0,0,0,1.4-1.79"/><path class="cls-2" d="M98.67,67.77c-.74-.5-2.88-2.1-3.38-3.91V55.28h-.65v8.58c-.5,1.81-2.64,3.41-3.38,3.91A4.9,4.9,0,0,0,88.5,72a2.8,2.8,0,0,0,2.31,2.91h8.31A2.8,2.8,0,0,0,101.43,72a4.9,4.9,0,0,0-2.76-4.19"/><path class="cls-9" d="M98.67,67.77c-.74-.5-2.88-2.1-3.38-3.91V55.28h-.65v8.58c-.5,1.81-2.64,3.41-3.38,3.91A4.9,4.9,0,0,0,88.5,72a2.8,2.8,0,0,0,2.31,2.91h8.31A2.8,2.8,0,0,0,101.43,72,4.9,4.9,0,0,0,98.67,67.77Z"/><rect class="cls-2" x="92.72" y="57.66" width="4.43" height="0.63"/><rect class="cls-9" x="92.72" y="57.66" width="4.43" height="0.63"/><path class="cls-10" d="M96.39,61.4c-.06,1-1.1,1.17-1.43,1.17s-1.36-.18-1.42-1.17a1.37,1.37,0,0,0,1.39,1.79H95a1.37,1.37,0,0,0,1.39-1.79"/><rect class="cls-8" x="36.76" y="123.14" width="78.88" height="13.4"/><path class="cls-2" d="M115.18,136.22h-78V123.45h78m.92-.63H36.3v14l79.8.32Z"/><path class="cls-2" d="M53,125H48.12a1.34,1.34,0,0,0-1.33,1.34v10.51h7.53V126.38A1.33,1.33,0,0,0,53,125"/><path class="cls-2" d="M65.69,125H60.82a1.33,1.33,0,0,0-1.33,1.34v10.51H67V126.38A1.34,1.34,0,0,0,65.69,125"/><path class="cls-2" d="M78.39,125H73.52a1.34,1.34,0,0,0-1.34,1.34v10.51h7.54V126.38A1.34,1.34,0,0,0,78.39,125"/><path class="cls-2" d="M91.09,125H86.22a1.34,1.34,0,0,0-1.34,1.34v10.51h7.54V126.38A1.34,1.34,0,0,0,91.09,125"/><path class="cls-2" d="M103.78,125H98.91a1.34,1.34,0,0,0-1.33,1.34v10.51h7.54V126.38a1.34,1.34,0,0,0-1.34-1.34"/><rect class="cls-2" x="37.28" y="128.74" width="77.35" height="0.8"/><rect class="cls-2" x="43.12" y="124.24" width="2.15" height="11.33"/><rect class="cls-2" x="55.82" y="124.24" width="2.15" height="11.33"/><rect class="cls-2" x="68.53" y="124.24" width="2.15" height="11.33"/><rect class="cls-2" x="106.64" y="124.24" width="2.15" height="11.33"/><rect class="cls-2" x="93.94" y="124.24" width="2.15" height="11.33"/><rect class="cls-2" x="81.23" y="124.24" width="2.15" height="11.33"/><polygon class="cls-2" points="95.79 117.03 56.11 117.03 47.9 119.29 104 119.29 95.79 117.03"/><rect class="cls-8" x="46.53" y="89.19" width="58.85" height="16.15"/><rect class="cls-8" x="45.26" y="105.34" width="61.38" height="15.22"/><path class="cls-2" d="M106.28,120.2H45.62V105.69h60.66ZM107,105H44.91v15.93H107Z"/><rect class="cls-2" x="48.42" y="109.27" width="4.2" height="7.76"/><rect class="cls-2" x="99.28" y="109.27" width="4.2" height="7.76"/><rect class="cls-2" x="73.54" y="108.35" width="4.82" height="8.69"/><polyline class="cls-2" points="65.69 97.74 65.69 89.31 64.76 89.31 64.76 105.5 67.48 105.5 67.48 97.74"/><polyline class="cls-2" points="86.21 89.31 86.21 97.74 84.42 97.74 84.42 105.5 87.14 105.5 87.14 98.95 87.14 97.74 87.14 89.31"/><rect class="cls-2" x="46.06" y="89.31" width="0.92" height="16.03"/><rect class="cls-2" x="104.92" y="89.31" width="0.92" height="16.03"/><rect class="cls-2" x="56.58" y="89.31" width="0.92" height="16.03"/><rect class="cls-2" x="94.4" y="89.31" width="0.92" height="16.03"/><rect class="cls-2" x="59.03" y="97.74" width="4.37" height="7.76"/><rect class="cls-2" x="88.5" y="97.74" width="4.37" height="7.76"/><rect class="cls-2" x="49.78" y="97.74" width="4.37" height="7.76"/><rect class="cls-2" x="97.76" y="97.74" width="4.37" height="7.76"/><rect class="cls-2" x="73.77" y="97.74" width="4.37" height="7.76"/><rect class="cls-2" x="45.39" y="88.88" width="61.13" height="0.61"/><path class="cls-2" d="M61.83,117h-2a.07.07,0,0,1-.08-.08v-8.22a.37.37,0,0,1,.37-.38h1.38a.38.38,0,0,1,.38.38V117a.08.08,0,0,1-.08.08"/><path class="cls-2" d="M90.08,117h2a.08.08,0,0,0,.09-.08v-8.22a.38.38,0,0,0-.38-.38H90.37a.38.38,0,0,0-.38.38V117a.08.08,0,0,0,.09.08"/><rect class="cls-2" x="55.54" y="106.47" width="0.65" height="11.06"/><rect class="cls-2" x="64.77" y="106.47" width="0.65" height="11.06"/><rect class="cls-2" x="95.71" y="106.47" width="0.65" height="11.06"/><rect class="cls-2" x="86.48" y="106.47" width="0.65" height="11.06"/><polygon class="cls-2" points="89.06 84.08 62.84 84.08 45.39 88.88 106.52 88.88 89.06 84.08"/><polygon class="cls-9" points="89.06 84.08 62.84 84.08 45.39 88.88 106.52 88.88 89.06 84.08"/><polygon class="cls-9" points="75.95 88.88 45.39 88.88 45.39 89.5 106.52 89.5 106.52 88.88 75.95 88.88"/><polyline class="cls-9" points="68.03 84.08 56.96 88.88 56.96 89.5"/><polyline class="cls-9" points="70.01 84.08 64.42 88.88 64.42 89.5"/><polyline class="cls-9" points="83.87 84.08 94.94 88.88 94.94 89.5"/><polyline class="cls-9" points="81.89 84.08 87.48 88.88 87.48 89.5"/><rect class="cls-2" x="35.04" y="122.82" width="81.83" height="0.68"/><rect class="cls-9" x="35.04" y="122.82" width="81.83" height="0.68"/><polygon class="cls-2" points="116.87 122.82 95.79 117.03 56.11 117.03 35.03 122.82 116.87 122.82"/><polygon class="cls-9" points="116.87 122.82 95.79 117.03 56.11 117.03 35.03 122.82 116.87 122.82"/></g></g></svg>