<?xml version="1.0" encoding="UTF-8" standalone="no"?>
<!-- Created with Inkscape (http://www.inkscape.org/) -->

<svg
   xmlns:dc="http://purl.org/dc/elements/1.1/"
   xmlns:cc="http://creativecommons.org/ns#"
   xmlns:rdf="http://www.w3.org/1999/02/22-rdf-syntax-ns#"
   xmlns:svg="http://www.w3.org/2000/svg"
   xmlns="http://www.w3.org/2000/svg"
   xmlns:xlink="http://www.w3.org/1999/xlink"
   xmlns:sodipodi="http://sodipodi.sourceforge.net/DTD/sodipodi-0.dtd"
   xmlns:inkscape="http://www.inkscape.org/namespaces/inkscape"
   width="218.1875"
   height="247.3125"
   id="svg16251"
   version="1.1"
   inkscape:version="0.48.4 r9939"
   sodipodi:docname="Eenddjuh.svg">
  <defs
     id="defs16253">
    <linearGradient
       id="linearGradient4070-8-2-8-8-7-0-6-5">
      <stop
         style="stop-color:#a3a3a3;stop-opacity:1;"
         offset="0"
         id="stop4072-1-2-6-4-1-4-7-9" />
      <stop
         style="stop-color:#b0b0b0;stop-opacity:1;"
         offset="0.14285725"
         id="stop4074-8-0-7-0-4-8-7-1" />
      <stop
         id="stop4076-6-1-0-3-7-5-9-8"
         offset="0.32142863"
         style="stop-color:#d1d1d1;stop-opacity:1;" />
      <stop
         style="stop-color:#bdbdbd;stop-opacity:1;"
         offset="0.5"
         id="stop4078-0-2-8-7-6-7-6-1" />
      <stop
         id="stop4080-2-7-1-8-8-3-4-7"
         offset="0.75"
         style="stop-color:#e5e5e5;stop-opacity:1;" />
      <stop
         style="stop-color:#cccccc;stop-opacity:1;"
         offset="0.875"
         id="stop4082-4-7-8-3-2-3-1-8" />
      <stop
         id="stop4084-9-0-3-1-3-0-9-6"
         offset="1"
         style="stop-color:#cccccc;stop-opacity:1;" />
    </linearGradient>
    <linearGradient
       inkscape:collect="always"
       xlink:href="#linearGradient4070-8-2-8-8-7-0-6-5"
       id="linearGradient7649"
       x1="200.65964"
       y1="460.58371"
       x2="414.06921"
       y2="456.298"
       gradientUnits="userSpaceOnUse" />
    <linearGradient
       id="linearGradient16222">
      <stop
         style="stop-color:#a3a3a3;stop-opacity:1;"
         offset="0"
         id="stop16224" />
      <stop
         style="stop-color:#b0b0b0;stop-opacity:1;"
         offset="0.14285725"
         id="stop16226" />
      <stop
         id="stop16228"
         offset="0.32142863"
         style="stop-color:#d1d1d1;stop-opacity:1;" />
      <stop
         style="stop-color:#bdbdbd;stop-opacity:1;"
         offset="0.5"
         id="stop16230" />
      <stop
         id="stop16232"
         offset="0.75"
         style="stop-color:#e5e5e5;stop-opacity:1;" />
      <stop
         style="stop-color:#cccccc;stop-opacity:1;"
         offset="0.875"
         id="stop16234" />
      <stop
         id="stop16236"
         offset="1"
         style="stop-color:#cccccc;stop-opacity:1;" />
    </linearGradient>
    <filter
       inkscape:collect="always"
       id="filter16840">
      <feGaussianBlur
         inkscape:collect="always"
         stdDeviation="1.234158"
         id="feGaussianBlur16842" />
    </filter>
    <filter
       inkscape:collect="always"
       id="filter16852">
      <feGaussianBlur
         inkscape:collect="always"
         stdDeviation="1.234158"
         id="feGaussianBlur16854" />
    </filter>
    <linearGradient
       inkscape:collect="always"
       xlink:href="#linearGradient16222-4"
       id="linearGradient16862-7"
       x1="247.14578"
       y1="545.12653"
       x2="460.93506"
       y2="545.12653"
       gradientUnits="userSpaceOnUse" />
    <linearGradient
       id="linearGradient16222-4">
      <stop
         style="stop-color:#a3a3a3;stop-opacity:1;"
         offset="0"
         id="stop16224-7" />
      <stop
         style="stop-color:#b0b0b0;stop-opacity:1;"
         offset="0.14285725"
         id="stop16226-6" />
      <stop
         id="stop16228-6"
         offset="0.32142863"
         style="stop-color:#d1d1d1;stop-opacity:1;" />
      <stop
         style="stop-color:#bdbdbd;stop-opacity:1;"
         offset="0.5"
         id="stop16230-3" />
      <stop
         id="stop16232-0"
         offset="0.75"
         style="stop-color:#e5e5e5;stop-opacity:1;" />
      <stop
         style="stop-color:#cccccc;stop-opacity:1;"
         offset="0.875"
         id="stop16234-9" />
      <stop
         id="stop16236-0"
         offset="1"
         style="stop-color:#cccccc;stop-opacity:1;" />
    </linearGradient>
    <linearGradient
       inkscape:collect="always"
       xlink:href="#linearGradient16222-4"
       id="linearGradient16864-8"
       x1="247.08347"
       y1="463.91577"
       x2="460.87274"
       y2="463.91577"
       gradientUnits="userSpaceOnUse" />
    <linearGradient
       id="linearGradient16897">
      <stop
         style="stop-color:#a3a3a3;stop-opacity:1;"
         offset="0"
         id="stop16899" />
      <stop
         style="stop-color:#b0b0b0;stop-opacity:1;"
         offset="0.14285725"
         id="stop16901" />
      <stop
         id="stop16903"
         offset="0.32142863"
         style="stop-color:#d1d1d1;stop-opacity:1;" />
      <stop
         style="stop-color:#bdbdbd;stop-opacity:1;"
         offset="0.5"
         id="stop16905" />
      <stop
         id="stop16907"
         offset="0.75"
         style="stop-color:#e5e5e5;stop-opacity:1;" />
      <stop
         style="stop-color:#cccccc;stop-opacity:1;"
         offset="0.875"
         id="stop16909" />
      <stop
         id="stop16911"
         offset="1"
         style="stop-color:#cccccc;stop-opacity:1;" />
    </linearGradient>
    <linearGradient
       inkscape:collect="always"
       xlink:href="#linearGradient16222-4-8"
       id="linearGradient16862-7-5"
       x1="247.14578"
       y1="545.12653"
       x2="460.93506"
       y2="545.12653"
       gradientUnits="userSpaceOnUse"
       gradientTransform="translate(-5.9841355e-6,8.4422254e-8)" />
    <linearGradient
       id="linearGradient16222-4-8">
      <stop
         style="stop-color:#a3a3a3;stop-opacity:1;"
         offset="0"
         id="stop16224-7-9" />
      <stop
         style="stop-color:#b0b0b0;stop-opacity:1;"
         offset="0.14285725"
         id="stop16226-6-6" />
      <stop
         id="stop16228-6-2"
         offset="0.32142863"
         style="stop-color:#d1d1d1;stop-opacity:1;" />
      <stop
         style="stop-color:#bdbdbd;stop-opacity:1;"
         offset="0.5"
         id="stop16230-3-5" />
      <stop
         id="stop16232-0-7"
         offset="0.75"
         style="stop-color:#e5e5e5;stop-opacity:1;" />
      <stop
         style="stop-color:#cccccc;stop-opacity:1;"
         offset="0.875"
         id="stop16234-9-6" />
      <stop
         id="stop16236-0-3"
         offset="1"
         style="stop-color:#cccccc;stop-opacity:1;" />
    </linearGradient>
    <linearGradient
       inkscape:collect="always"
       xlink:href="#linearGradient16222-4-8"
       id="linearGradient16864-8-8"
       x1="247.08347"
       y1="463.91577"
       x2="460.87274"
       y2="463.91577"
       gradientUnits="userSpaceOnUse" />
    <linearGradient
       id="linearGradient16995">
      <stop
         style="stop-color:#a3a3a3;stop-opacity:1;"
         offset="0"
         id="stop16997" />
      <stop
         style="stop-color:#b0b0b0;stop-opacity:1;"
         offset="0.14285725"
         id="stop16999" />
      <stop
         id="stop17001"
         offset="0.32142863"
         style="stop-color:#d1d1d1;stop-opacity:1;" />
      <stop
         style="stop-color:#bdbdbd;stop-opacity:1;"
         offset="0.5"
         id="stop17003" />
      <stop
         id="stop17005"
         offset="0.75"
         style="stop-color:#e5e5e5;stop-opacity:1;" />
      <stop
         style="stop-color:#cccccc;stop-opacity:1;"
         offset="0.875"
         id="stop17007" />
      <stop
         id="stop17009"
         offset="1"
         style="stop-color:#cccccc;stop-opacity:1;" />
    </linearGradient>
    <linearGradient
       y2="463.91577"
       x2="460.87274"
       y1="463.91577"
       x1="247.08347"
       gradientUnits="userSpaceOnUse"
       id="linearGradient17013"
       xlink:href="#linearGradient16222-4-8"
       inkscape:collect="always"
       gradientTransform="translate(-5.9841355e-6,8.4422254e-8)" />
    <linearGradient
       id="linearGradient16222-4-8-9">
      <stop
         style="stop-color:#a3a3a3;stop-opacity:1;"
         offset="0"
         id="stop16224-7-9-3" />
      <stop
         style="stop-color:#b0b0b0;stop-opacity:1;"
         offset="0.14285725"
         id="stop16226-6-6-0" />
      <stop
         id="stop16228-6-2-2"
         offset="0.32142863"
         style="stop-color:#d1d1d1;stop-opacity:1;" />
      <stop
         style="stop-color:#bdbdbd;stop-opacity:1;"
         offset="0.5"
         id="stop16230-3-5-5" />
      <stop
         id="stop16232-0-7-1"
         offset="0.75"
         style="stop-color:#e5e5e5;stop-opacity:1;" />
      <stop
         style="stop-color:#cccccc;stop-opacity:1;"
         offset="0.875"
         id="stop16234-9-6-5" />
      <stop
         id="stop16236-0-3-7"
         offset="1"
         style="stop-color:#cccccc;stop-opacity:1;" />
    </linearGradient>
    <linearGradient
       id="linearGradient17082">
      <stop
         style="stop-color:#a3a3a3;stop-opacity:1;"
         offset="0"
         id="stop17084" />
      <stop
         style="stop-color:#b0b0b0;stop-opacity:1;"
         offset="0.14285725"
         id="stop17086" />
      <stop
         id="stop17088"
         offset="0.32142863"
         style="stop-color:#d1d1d1;stop-opacity:1;" />
      <stop
         style="stop-color:#bdbdbd;stop-opacity:1;"
         offset="0.5"
         id="stop17090" />
      <stop
         id="stop17092"
         offset="0.75"
         style="stop-color:#e5e5e5;stop-opacity:1;" />
      <stop
         style="stop-color:#cccccc;stop-opacity:1;"
         offset="0.875"
         id="stop17094" />
      <stop
         id="stop17096"
         offset="1"
         style="stop-color:#cccccc;stop-opacity:1;" />
    </linearGradient>
    <linearGradient
       inkscape:collect="always"
       xlink:href="#linearGradient16222-4-8-5"
       id="linearGradient16862-7-5-8"
       x1="247.14578"
       y1="545.12653"
       x2="460.93506"
       y2="545.12653"
       gradientUnits="userSpaceOnUse"
       gradientTransform="translate(-9.9849462e-6,4e-7)" />
    <linearGradient
       id="linearGradient16222-4-8-5">
      <stop
         style="stop-color:#a3a3a3;stop-opacity:1;"
         offset="0"
         id="stop16224-7-9-7" />
      <stop
         style="stop-color:#b0b0b0;stop-opacity:1;"
         offset="0.14285725"
         id="stop16226-6-6-8" />
      <stop
         id="stop16228-6-2-8"
         offset="0.32142863"
         style="stop-color:#d1d1d1;stop-opacity:1;" />
      <stop
         style="stop-color:#bdbdbd;stop-opacity:1;"
         offset="0.5"
         id="stop16230-3-5-4" />
      <stop
         id="stop16232-0-7-2"
         offset="0.75"
         style="stop-color:#e5e5e5;stop-opacity:1;" />
      <stop
         style="stop-color:#cccccc;stop-opacity:1;"
         offset="0.875"
         id="stop16234-9-6-3" />
      <stop
         id="stop16236-0-3-8"
         offset="1"
         style="stop-color:#cccccc;stop-opacity:1;" />
    </linearGradient>
    <linearGradient
       y2="463.91577"
       x2="460.87274"
       y1="463.91577"
       x1="247.08347"
       gradientUnits="userSpaceOnUse"
       id="linearGradient17013-4"
       xlink:href="#linearGradient16222-4-8-5"
       inkscape:collect="always"
       gradientTransform="translate(-9.9849462e-6,4e-7)" />
    <linearGradient
       id="linearGradient17171">
      <stop
         style="stop-color:#a3a3a3;stop-opacity:1;"
         offset="0"
         id="stop17173" />
      <stop
         style="stop-color:#b0b0b0;stop-opacity:1;"
         offset="0.14285725"
         id="stop17175" />
      <stop
         id="stop17177"
         offset="0.32142863"
         style="stop-color:#d1d1d1;stop-opacity:1;" />
      <stop
         style="stop-color:#bdbdbd;stop-opacity:1;"
         offset="0.5"
         id="stop17179" />
      <stop
         id="stop17181"
         offset="0.75"
         style="stop-color:#e5e5e5;stop-opacity:1;" />
      <stop
         style="stop-color:#cccccc;stop-opacity:1;"
         offset="0.875"
         id="stop17183" />
      <stop
         id="stop17185"
         offset="1"
         style="stop-color:#cccccc;stop-opacity:1;" />
    </linearGradient>
    <linearGradient
       inkscape:collect="always"
       xlink:href="#linearGradient17171"
       id="linearGradient17308"
       x1="248.68936"
       y1="434.77521"
       x2="460.63388"
       y2="430.98712"
       gradientUnits="userSpaceOnUse" />
    <linearGradient
       inkscape:collect="always"
       xlink:href="#linearGradient17171"
       id="linearGradient17326"
       x1="0.54548138"
       y1="73.820328"
       x2="215.2047"
       y2="73.315254"
       gradientUnits="userSpaceOnUse"
       gradientTransform="translate(245.46875,388.84375)" />
  </defs>
  <sodipodi:namedview
     id="base"
     pagecolor="#ffffff"
     bordercolor="#666666"
     borderopacity="1.0"
     inkscape:pageopacity="0.0"
     inkscape:pageshadow="2"
     inkscape:zoom="0.98994949"
     inkscape:cx="-207.9394"
     inkscape:cy="-7.8249131"
     inkscape:document-units="px"
     inkscape:current-layer="layer1"
     showgrid="false"
     fit-margin-top="0"
     fit-margin-left="0"
     fit-margin-right="0"
     fit-margin-bottom="0"
     inkscape:window-width="1600"
     inkscape:window-height="837"
     inkscape:window-x="-8"
     inkscape:window-y="-8"
     inkscape:window-maximized="1" />
  <metadata
     id="metadata16256">
    <rdf:RDF>
      <cc:Work
         rdf:about="">
        <dc:format>image/svg+xml</dc:format>
        <dc:type
           rdf:resource="http://purl.org/dc/dcmitype/StillImage" />
        <dc:title></dc:title>
      </cc:Work>
    </rdf:RDF>
  </metadata>
  <g
     inkscape:label="Laag 1"
     inkscape:groupmode="layer"
     id="layer1"
     transform="translate(-245.46875,-388.84375)">
    <path
       sodipodi:nodetypes="cccccccc"
       id="path2830-4"
       d="m 354.14974,390.20566 -107.20503,0 0,205.36052 c -0.3532,11.6945 10.4634,21.516 23.8687,20.4508 l 30.1696,0 27.98,0 c 10.418,0.5978 20.42063,2.2983 25.18673,17.8945 l 0,-243.70582 z"
       style="fill:#000080;fill-opacity:1;stroke:#000000;stroke-width:1.19615089999999990px;stroke-linecap:butt;stroke-linejoin:miter;stroke-opacity:0"
       inkscape:connector-curvature="0" />
    <path
       sodipodi:nodetypes="cccccccc"
       id="path2830-5-4"
       d="m 354.10844,390.15726 107.2051,0 0,205.36052 c 0.3531,11.6945 -10.4635,21.516 -23.8688,20.4508 l -30.1695,0 -27.98,0 c -10.4181,0.5978 -20.4206,2.2983 -25.1868,17.8945 -20.22523,-86.2372 -14.17713,-165.97663 0,-243.70582 z"
       style="fill:#000080;fill-opacity:1;stroke:#000000;stroke-width:1.19615089999999990px;stroke-linecap:butt;stroke-linejoin:miter;stroke-opacity:0"
       inkscape:connector-curvature="0" />
    <path
       style="fill:#ffffff;fill-opacity:1"
       d="m 386.61289,491.32567 c -5.24063,-0.28615 -10.21813,-1.18295 -15.46651,-2.78656 -6.82328,-2.08477 -7.76772,-2.35292 -9.7604,-2.77096 -4.04291,-0.84809 -6.69661,-1.12942 -10.66762,-1.13097 -6.02786,-0.003 -10.35827,0.88288 -16.58649,3.39041 -6.12087,2.46434 -13.18526,3.56467 -20.15422,3.13924 -6.55295,-0.40005 -14.29562,-1.86302 -18.7885,-3.55009 -9.65348,-3.62482 -17.87566,-4.28447 -27.20284,-2.18246 -2.55908,0.57671 -3.9721,1.01535 -7.80834,2.42391 -3.91962,1.43916 -7.65131,2.43614 -11.03676,2.94866 -0.7846,0.1188 -1.57856,0.24545 -1.76439,0.28148 l -0.33786,0.0654 0,-17.67721 0,-17.67724 0.33786,-0.0609 c 0.18583,-0.0335 1.24826,-0.21912 2.36096,-0.41259 2.88491,-0.50158 4.94539,-1.08296 9.38908,-2.64929 4.69122,-1.65359 6.36842,-2.15847 9.23484,-2.77995 9.24644,-2.00466 17.80166,-1.32248 26.78249,2.13569 4.40565,1.69644 7.2844,2.56117 10.93723,3.28534 2.93478,0.58185 4.69802,0.76057 8.2504,0.83623 4.46312,0.0951 7.47867,-0.17924 11.24879,-1.02328 3.78992,-0.84845 5.9633,-1.58317 10.80368,-3.65208 4.96468,-2.12207 6.25155,-2.53982 9.80669,-3.18362 2.91478,-0.52785 4.8398,-0.65101 8.8646,-0.56721 6.86833,0.14297 12.37441,1.16607 21.57166,4.00822 5.04756,1.55983 8.09746,2.25781 12.01281,2.74919 2.10863,0.26462 8.31696,0.23285 10.47348,-0.0537 4.06059,-0.53935 7.28266,-1.35095 11.82129,-2.97758 4.14812,-1.48668 5.94974,-2.05671 8.28559,-2.62156 4.00473,-0.96845 7.6779,-1.4111 11.71136,-1.41134 6.57387,0 11.82531,1.01313 18.61223,3.59224 3.79416,1.44184 6.18271,2.18633 9.1458,2.85067 l 2.55272,0.57237 0.0381,17.44291 0.0381,17.4429 -0.63874,-0.0873 c -3.10667,-0.42449 -9.24514,-1.88788 -11.29057,-2.69168 -9.0292,-3.54825 -18.10671,-4.33708 -27.11337,-2.35609 -2.13854,0.47036 -5.38413,1.47605 -8.0971,2.50903 -2.63956,1.00498 -6.70472,2.16554 -9.24649,2.63974 -0.99105,0.1849 -2.81551,0.54678 -4.05433,0.8042 -4.969,1.03251 -9.7666,1.43127 -14.26522,1.18561 z"
       id="path16124-5-1"
       inkscape:connector-curvature="0" />
    <path
       style="fill:#ffffff;fill-opacity:1"
       d="m 386.67535,572.53643 c -5.24062,-0.28615 -10.21813,-1.18296 -15.46651,-2.78656 -6.82328,-2.08478 -7.76772,-2.35292 -9.7604,-2.77096 -4.0429,-0.84809 -6.69661,-1.12942 -10.66762,-1.13097 -6.02785,-0.003 -10.35827,0.88288 -16.58648,3.39041 -6.12087,2.46434 -13.18526,3.56467 -20.15422,3.13924 -6.55295,-0.40005 -14.29562,-1.86302 -18.78851,-3.5501 -9.65347,-3.62482 -17.87565,-4.28447 -27.20283,-2.18246 -2.55909,0.57671 -3.97211,1.01536 -7.80835,2.42392 -3.91962,1.43915 -7.65131,2.43614 -11.03676,2.94865 -0.78459,0.11881 -1.57856,0.24546 -1.76439,0.28149 l -0.33786,0.0654 0,-17.67721 0,-17.67724 0.33786,-0.0609 c 0.18583,-0.0335 1.24826,-0.21912 2.36097,-0.41259 2.8849,-0.50158 4.94539,-1.08296 9.38907,-2.64929 4.69123,-1.65359 6.36842,-2.15847 9.23485,-2.77995 9.24643,-2.00467 17.80165,-1.32248 26.78248,2.13569 4.40565,1.69643 7.2844,2.56117 10.93723,3.28534 2.93478,0.58185 4.69803,0.76057 8.25041,0.83623 4.46311,0.0951 7.47867,-0.17924 11.24878,-1.02328 3.78992,-0.84845 5.9633,-1.58317 10.80368,-3.65208 4.96469,-2.12207 6.25155,-2.53983 9.80669,-3.18363 2.91478,-0.52785 4.83981,-0.651 8.8646,-0.5672 6.86833,0.14296 12.37441,1.16606 21.57167,4.00822 5.04755,1.55983 8.09745,2.25781 12.0128,2.74919 2.10864,0.26462 8.31696,0.23285 10.47348,-0.0537 4.06059,-0.53935 7.28266,-1.35096 11.82129,-2.97758 4.14813,-1.48668 5.94974,-2.05671 8.2856,-2.62156 4.00472,-0.96845 7.67789,-1.41111 11.71135,-1.41134 6.57387,0 11.82531,1.01313 18.61223,3.59224 3.79416,1.44184 6.18272,2.18633 9.1458,2.85067 l 2.55272,0.57236 0.0381,17.44292 0.0381,17.4429 -0.63875,-0.0873 c -3.10667,-0.42449 -9.24514,-1.88788 -11.29057,-2.69168 -9.0292,-3.54825 -18.1067,-4.33708 -27.11337,-2.35609 -2.13853,0.47036 -5.38412,1.47605 -8.09709,2.50902 -2.63956,1.00499 -6.70473,2.16555 -9.2465,2.63975 -0.99105,0.1849 -2.81551,0.54678 -4.05433,0.8042 -4.969,1.03251 -9.7666,1.43127 -14.26522,1.1856 z"
       id="path16124-4-1-7"
       inkscape:connector-curvature="0" />
    <path
       style="fill:#000060;fill-opacity:1"
       d="m 386.66358,495.77895 c -5.23522,-0.28615 -10.20759,-1.18296 -15.45056,-2.78656 -6.81625,-2.08478 -7.75971,-2.35292 -9.75034,-2.77096 -4.03873,-0.84809 -6.6897,-1.12942 -10.65662,-1.13097 -6.02163,-0.003 -10.34758,0.88288 -16.56937,3.39041 -6.11456,2.46434 -13.17167,3.56467 -20.13344,3.13924 -6.54619,-0.40005 -14.28088,-1.86302 -18.76913,-3.5501 -9.64352,-3.62482 -17.85722,-4.28447 -27.17478,-2.18246 -2.55645,0.57671 -3.96801,1.01536 -7.80029,2.42392 -3.91559,1.43915 -7.64343,2.43614 -11.02539,2.94865 -0.78378,0.11881 -1.57693,0.24546 -1.76256,0.28149 l -0.33752,0.0654 0,-17.67721 0,-17.67724 0.33752,-0.0609 c 0.18563,-0.0335 1.24696,-0.21912 2.35853,-0.41259 2.88192,-0.50158 4.94029,-1.08296 9.37938,-2.64929 4.6864,-1.65359 6.36187,-2.15847 9.22533,-2.77995 9.2369,-2.00467 17.78329,-1.32248 26.75486,2.13569 4.40112,1.69643 7.27689,2.56117 10.92596,3.28534 2.93175,0.58185 4.69318,0.76057 8.2419,0.83623 4.45851,0.0951 7.47095,-0.17924 11.23719,-1.02328 3.786,-0.84845 5.95715,-1.58317 10.79253,-3.65208 4.95957,-2.12207 6.2451,-2.53983 9.79657,-3.18363 2.91178,-0.52785 4.83482,-0.651 8.85546,-0.5672 6.86125,0.14296 12.36166,1.16606 21.54943,4.00822 5.04234,1.55983 8.08909,2.25781 12.00041,2.74919 2.10646,0.26462 8.30838,0.23285 10.46269,-0.0537 4.05639,-0.53935 7.27515,-1.35096 11.80909,-2.97758 4.14385,-1.48668 5.9436,-2.05671 8.27705,-2.62156 4.0006,-0.96845 7.66997,-1.41111 11.69928,-1.41134 6.56709,0 11.81311,1.01313 18.59304,3.59224 3.79024,1.44184 6.17634,2.18633 9.13636,2.85067 l 2.55009,0.57236 0.0381,17.44292 0.0381,17.4429 -0.63808,-0.0873 c -3.10347,-0.42449 -9.23561,-1.88788 -11.27894,-2.69168 -9.01988,-3.54825 -18.08803,-4.33708 -27.08541,-2.35609 -2.13632,0.47036 -5.37857,1.47605 -8.08874,2.50902 -2.63684,1.00499 -6.69782,2.16555 -9.23695,2.63975 -0.99003,0.1849 -2.81262,0.54678 -4.05015,0.8042 -4.96389,1.03251 -9.75654,1.43127 -14.25052,1.1856 z"
       id="path16124"
       inkscape:connector-curvature="0" />
    <path
       style="fill:#000060;fill-opacity:1"
       d="m 386.62324,576.9897 c -5.23137,-0.28615 -10.20007,-1.18296 -15.43917,-2.78656 -6.81122,-2.08478 -7.75399,-2.35292 -9.74315,-2.77096 -4.03576,-0.84809 -6.68477,-1.12942 -10.64876,-1.13097 -6.0172,-0.003 -10.33995,0.88288 -16.55716,3.39041 -6.11005,2.46434 -13.16196,3.56467 -20.1186,3.13924 -6.54136,-0.40005 -14.27034,-1.86302 -18.75528,-3.5501 -9.63642,-3.62482 -17.84406,-4.28447 -27.15475,-2.18246 -2.55457,0.57671 -3.96508,1.01536 -7.79454,2.42392 -3.91269,1.43915 -7.63778,2.43614 -11.01725,2.94865 -0.78321,0.11881 -1.57578,0.24546 -1.76127,0.28149 l -0.33726,0.0654 0,-17.67721 0,-17.67724 0.33726,-0.0609 c 0.18549,-0.0335 1.24606,-0.21912 2.35679,-0.41259 2.87981,-0.50158 4.93665,-1.08296 9.37247,-2.64929 4.68294,-1.65359 6.35717,-2.15847 9.21853,-2.77995 9.23009,-2.00467 17.77019,-1.32248 26.73513,2.13569 4.39787,1.69643 7.27153,2.56117 10.9179,3.28534 2.9296,0.58185 4.68972,0.76057 8.23582,0.83623 4.45523,0.0951 7.46545,-0.17924 11.2289,-1.02328 3.78321,-0.84845 5.95276,-1.58317 10.78458,-3.65208 4.95591,-2.12207 6.2405,-2.53983 9.78936,-3.18363 2.90962,-0.52785 4.83124,-0.651 8.84893,-0.5672 6.85618,0.14296 12.35253,1.16606 21.53352,4.00822 5.03863,1.55983 8.08315,2.25781 11.99158,2.74919 2.1049,0.26462 8.30224,0.23285 10.45496,-0.0537 4.0534,-0.53935 7.26979,-1.35096 11.80039,-2.97758 4.14079,-1.48668 5.93922,-2.05671 8.27094,-2.62156 3.99766,-0.96845 7.66433,-1.41111 11.69066,-1.41134 6.56225,0 11.80441,1.01313 18.57933,3.59224 3.78744,1.44184 6.17178,2.18633 9.12962,2.85067 l 2.54822,0.57236 0.038,17.44292 0.038,17.4429 -0.63761,-0.0873 c -3.10118,-0.42449 -9.22879,-1.88788 -11.27061,-2.69168 -9.01324,-3.54825 -18.0747,-4.33708 -27.06544,-2.35609 -2.13476,0.47036 -5.37461,1.47605 -8.08278,2.50902 -2.6349,1.00499 -6.69287,2.16555 -9.23015,2.63975 -0.98929,0.1849 -2.81054,0.54678 -4.04716,0.8042 -4.96022,1.03251 -9.74934,1.43127 -14.24,1.1856 z"
       id="path16124-4"
       inkscape:connector-curvature="0" />
    <path
       style="fill:url(#linearGradient17013-4);fill-opacity:1"
       d="m 386.6054,494.13704 c -5.24062,-0.28615 -10.21813,-1.18295 -15.46651,-2.78656 -6.82328,-2.08477 -7.76772,-2.35292 -9.7604,-2.77096 -4.0429,-0.84809 -6.69661,-1.12942 -10.66762,-1.13097 -6.02785,-0.003 -10.35827,0.88288 -16.58648,3.39041 -6.12087,2.46434 -13.18526,3.56467 -20.15422,3.13924 -6.55295,-0.40005 -14.29563,-1.86302 -18.78851,-3.55009 -9.65347,-3.62482 -17.87565,-4.28447 -27.20283,-2.18246 -2.55909,0.57671 -3.97211,1.01535 -7.80835,2.42391 -3.91962,1.43916 -7.65131,2.43614 -11.03676,2.94866 -0.78459,0.1188 -1.57856,0.24545 -1.76439,0.28148 l -0.33786,0.0654 0,-17.67721 0,-17.67724 0.33786,-0.0609 c 0.18583,-0.0335 1.24826,-0.21912 2.36097,-0.41259 2.8849,-0.50158 4.94539,-1.08296 9.38907,-2.64929 4.69123,-1.65359 6.36842,-2.15847 9.23485,-2.77995 9.24643,-2.00466 17.80165,-1.32248 26.78248,2.13569 4.40565,1.69644 7.2844,2.56117 10.93723,3.28534 2.93478,0.58185 4.69803,0.76057 8.25041,0.83623 4.46311,0.0951 7.47866,-0.17924 11.24878,-1.02328 3.78992,-0.84845 5.9633,-1.58317 10.80368,-3.65208 4.96469,-2.12207 6.25155,-2.53982 9.80669,-3.18362 2.91478,-0.52785 4.83981,-0.65101 8.8646,-0.56721 6.86833,0.14297 12.37441,1.16607 21.57167,4.00822 5.04755,1.55983 8.09745,2.25781 12.0128,2.74919 2.10864,0.26462 8.31696,0.23285 10.47348,-0.0537 4.06059,-0.53935 7.28266,-1.35095 11.82129,-2.97758 4.14813,-1.48668 5.94974,-2.05671 8.2856,-2.62156 4.00472,-0.96845 7.67789,-1.4111 11.71135,-1.41134 6.57387,0 11.82531,1.01313 18.61223,3.59224 3.79416,1.44184 6.18272,2.18633 9.1458,2.85067 l 2.55272,0.57237 0.0381,17.44291 0.0381,17.4429 -0.63875,-0.0873 c -3.10667,-0.42449 -9.24514,-1.88788 -11.29057,-2.69168 -9.0292,-3.54825 -18.1067,-4.33708 -27.11337,-2.35609 -2.13853,0.47036 -5.38412,1.47605 -8.09709,2.50903 -2.63956,1.00498 -6.70473,2.16554 -9.2465,2.63974 -0.99105,0.1849 -2.81551,0.54678 -4.05433,0.8042 -4.969,1.03251 -9.7666,1.43127 -14.26522,1.18561 z"
       id="path16124-5"
       inkscape:connector-curvature="0" />
    <path
       style="fill:url(#linearGradient16862-7-5-8);fill-opacity:1"
       d="m 386.66786,575.3478 c -5.24062,-0.28615 -10.21812,-1.18296 -15.46651,-2.78656 -6.82327,-2.08478 -7.76772,-2.35292 -9.7604,-2.77096 -4.0429,-0.84809 -6.69661,-1.12942 -10.66761,-1.13097 -6.02786,-0.003 -10.35827,0.88288 -16.58649,3.39041 -6.12087,2.46434 -13.18526,3.56467 -20.15422,3.13924 -6.55295,-0.40005 -14.29562,-1.86302 -18.78851,-3.5501 -9.65347,-3.62482 -17.87565,-4.28447 -27.20283,-2.18246 -2.55909,0.57671 -3.9721,1.01536 -7.80834,2.42392 -3.91962,1.43915 -7.65132,2.43614 -11.03677,2.94865 -0.78459,0.11881 -1.57856,0.24546 -1.76438,0.28149 l -0.33787,0.0654 0,-17.67721 0,-17.67724 0.33787,-0.0609 c 0.18582,-0.0335 1.24825,-0.21912 2.36096,-0.41259 2.8849,-0.50158 4.94539,-1.08296 9.38907,-2.64929 4.69123,-1.65359 6.36843,-2.15847 9.23485,-2.77995 9.24643,-2.00467 17.80165,-1.32248 26.78248,2.13569 4.40566,1.69643 7.2844,2.56117 10.93724,3.28534 2.93477,0.58185 4.69802,0.76057 8.2504,0.83623 4.46312,0.0951 7.47867,-0.17924 11.24879,-1.02328 3.78991,-0.84845 5.9633,-1.58317 10.80368,-3.65208 4.96468,-2.12207 6.25155,-2.53983 9.80668,-3.18363 2.91478,-0.52785 4.83981,-0.651 8.8646,-0.5672 6.86833,0.14296 12.37442,1.16606 21.57167,4.00822 5.04755,1.55983 8.09745,2.25781 12.0128,2.74919 2.10864,0.26462 8.31696,0.23285 10.47349,-0.0537 4.06058,-0.53935 7.28266,-1.35096 11.82128,-2.97758 4.14813,-1.48668 5.94974,-2.05671 8.2856,-2.62156 4.00473,-0.96845 7.67789,-1.41111 11.71136,-1.41134 6.57386,0 11.8253,1.01313 18.61223,3.59224 3.79415,1.44184 6.18271,2.18633 9.14579,2.85067 l 2.55272,0.57236 0.0381,17.44292 0.0381,17.4429 -0.63874,-0.0873 c -3.10667,-0.42449 -9.24514,-1.88788 -11.29058,-2.69168 -9.02919,-3.54825 -18.1067,-4.33708 -27.11337,-2.35609 -2.13853,0.47036 -5.38412,1.47605 -8.09709,2.50902 -2.63956,1.00499 -6.70473,2.16555 -9.24649,2.63975 -0.99105,0.1849 -2.81552,0.54678 -4.05433,0.8042 -4.96901,1.03251 -9.76661,1.43127 -14.26523,1.1856 z"
       id="path16124-4-1"
       inkscape:connector-curvature="0" />
    <path
       sodipodi:nodetypes="ccccccccccc"
       id="path4051-6-4-2-4-2-2-3-0"
       d="m 461.53896,390.12548 -5.0117,4.6867 0,200.67372 c -3.012,7.9662 -8.1822,13.6113 -16.9959,15.3382 l -66.2404,0 c -9.0022,1.3536 -17.0579,3.7097 -19.175,12.3557 l 0,11.2905 c 3.3606,-13.5249 11.6481,-17.4157 21.3539,-18.5335 l 64.7152,0 c 9.965,0.2476 22.0341,-9.2129 21.1359,-20.4509 l 0.218,-205.36042 z"
       style="fill:#000000;fill-opacity:0.24528304;stroke:#000000;stroke-width:1.19615089999999990px;stroke-linecap:butt;stroke-linejoin:miter;stroke-opacity:0"
       inkscape:connector-curvature="0" />
    <path
       sodipodi:nodetypes="ccccccccccc"
       id="path4051-2-1-1-1-3-9-3"
       d="m 246.94185,390.12548 5.0117,4.6867 0,200.67362 c 3.012,7.9663 8.18205,13.6114 16.99588,15.3382 l 66.24052,0 c 9.00207,1.3537 17.05793,3.7098 19.17493,12.3558 l 0,11.2904 c -3.3605,-13.5248 -11.64814,-17.4156 -21.35383,-18.5334 l -64.71524,0 c -9.9651,0.2476 -22.03426,-9.2129 -21.13596,-20.451 l -0.218,-205.36032 z"
       style="fill:#ffffff;fill-opacity:0.14622641;stroke:#000000;stroke-width:1.1961509px;stroke-linecap:butt;stroke-linejoin:miter;stroke-opacity:0"
       inkscape:connector-curvature="0" />
    <path
       sodipodi:nodetypes="ccccc"
       id="path25964-5-2-2-0-3-2-9"
       d="m 246.94185,390.12548 5.6305,5.4487 200.69573,0 8.3498,-5.4487 -214.67603,0 z"
       style="fill:#ffffff;fill-opacity:0.28773582;stroke:#000000;stroke-width:1.1961509px;stroke-linecap:butt;stroke-linejoin:miter;stroke-opacity:0"
       inkscape:connector-curvature="0" />
    <path
       style="fill:url(#linearGradient17308);fill-opacity:1"
       d="m 352.11746,457.81939 c -6.13743,-0.16644 -12.96794,-1.27475 -20.39997,-3.31008 l -1.29208,-0.35384 -0.35694,-0.42847 c -1.50698,-1.80887 -2.35248,-3.66173 -2.7507,-6.02799 -0.13579,-0.80685 -0.18664,-2.58316 -0.10127,-3.53659 0.22578,-2.52095 0.95137,-5.26238 2.23883,-8.45884 0.98922,-2.45601 2.01905,-4.63028 4.57569,-9.66072 1.1643,-2.29089 1.73618,-3.46555 1.70659,-3.50548 -0.0245,-0.033 -0.19397,-0.24665 -0.37666,-0.47474 -0.74717,-0.93291 -1.13386,-1.90908 -1.13386,-2.86229 0,-0.2035 -0.0167,-0.37102 -0.0372,-0.37222 -0.0205,0 -0.13791,-0.0227 -0.2609,-0.0482 -0.30801,-0.0634 -2.03962,-0.0625 -2.86953,0 -0.37603,0.0291 -1.33222,0.11101 -2.12487,0.18221 -0.9802,0.0881 -1.79879,0.13127 -2.5593,0.135 -1.02355,0.005 -1.14764,-0.004 -1.4666,-0.10432 -0.42966,-0.13543 -0.66506,-0.35269 -0.70497,-0.65074 -0.11682,-0.87237 1.76369,-2.42744 6.19996,-5.12709 1.2365,-0.75245 1.35912,-0.84041 1.93813,-1.39021 1.77738,-1.68783 2.79279,-2.46299 4.05894,-3.09865 0.8701,-0.43678 1.57613,-0.67803 2.57233,-0.87892 0.65611,-0.13234 2.71005,-0.12411 3.45383,0.0137 l 0.52179,0.0967 1.66395,-0.76157 c 0.91516,-0.41888 1.701,-0.77336 1.7463,-0.78776 0.055,-0.0176 0.13506,0.0403 0.24054,0.17386 l 0.15818,0.19999 -0.67077,0.80952 c -0.36893,0.44522 -0.65569,0.82292 -0.63725,0.83929 0.0185,0.0163 0.78268,0.12506 1.69832,0.24155 0.91564,0.11653 1.66735,0.21511 1.67048,0.21914 0.003,0.004 0.0205,0.12368 0.0387,0.26596 l 0.0329,0.25869 -0.59586,0.18457 c -0.32773,0.10153 -0.58644,0.19986 -0.57492,0.21854 0.0115,0.0188 0.72623,0.32316 1.58823,0.67666 l 1.56728,0.64268 -0.0304,0.22399 c -0.0167,0.12317 -0.0495,0.24446 -0.0727,0.26952 -0.0232,0.0253 -0.45107,0.0753 -0.95083,0.11169 -0.49976,0.0364 -0.93822,0.0719 -0.97434,0.0788 -0.0362,0.007 0.59426,0.46026 1.40086,1.00715 0.8066,0.54689 1.45785,1.00308 1.44723,1.01371 -0.0146,0.0146 -2.89621,0.24536 -3.18258,0.25491 -0.0357,0 -0.0321,0.1395 0.0115,0.43725 0.22172,1.51167 0.16314,3.52438 -0.15319,5.26355 -0.42212,2.32079 -1.50465,5.14071 -2.88519,7.51583 -0.90582,1.55836 -1.71857,3.33034 -2.15739,4.70363 -0.47976,1.50134 -0.62362,3.26252 -0.378,4.62754 0.13321,0.74036 0.092,0.73248 0.60544,0.11589 1.7605,-2.11396 4.21153,-4.16133 6.97203,-5.82372 1.17885,-0.70994 3.16383,-1.76435 3.85465,-2.04758 2.07207,-0.84958 4.89034,-1.34493 8.2052,-1.44214 8.09871,-0.23756 15.60985,1.72511 17.88349,4.67304 0.91327,1.18409 1.04536,2.59032 0.36933,3.93165 -0.43614,0.86534 -1.13318,1.71594 -2.11397,2.57961 -0.32989,0.29051 -0.60272,0.55061 -0.60631,0.57799 -0.003,0.0274 2.41317,0.80039 5.37055,1.71782 l 5.37707,1.66809 0.0151,0.15492 c 0.0136,0.13992 -0.0688,0.2433 -0.85229,1.06944 -2.18959,2.30872 -4.70851,4.47211 -7.21349,6.19546 -8.04893,5.53735 -17.49465,8.10488 -28.6991,7.80104 z m 6.68403,-13.10763 c 3.47174,-0.20402 6.84218,-0.9168 11.18147,-2.36467 1.25588,-0.41905 7.41118,-2.62674 7.46002,-2.67562 0.0342,-0.0343 -0.14862,-0.48374 -0.19686,-0.48374 -0.025,0 -1.13275,0.39411 -2.46163,0.87584 -1.32888,0.48168 -2.97523,1.07269 -3.65854,1.3133 -5.97488,2.10393 -10.26586,2.92137 -14.80922,2.82111 -3.41387,-0.0753 -6.54133,-0.61085 -10.19415,-1.74558 -0.5682,-0.17652 -1.04768,-0.31194 -1.06551,-0.30089 -0.0399,0.0249 -0.16658,0.46742 -0.13988,0.48909 0.0351,0.0287 1.44879,0.46879 2.15619,0.67152 2.7516,0.78861 5.59703,1.27312 8.32397,1.41737 0.70125,0.0373 2.64321,0.027 3.40414,-0.0176 z m -24.1587,-26.25473 c 0.13937,-1.29193 -0.3846,-2.64975 -1.82472,-4.72852 -0.24654,-0.3559 -0.45281,-0.65391 -0.45837,-0.66235 -0.005,-0.009 -0.11245,0.057 -0.23755,0.14532 l -0.22745,0.16057 0.22181,0.31134 c 0.97857,1.3735 1.59415,2.48677 1.8414,3.33018 0.10418,0.35529 0.13273,0.56325 0.13814,1.00535 0.006,0.48553 0.018,0.56034 0.0938,0.58017 0.0553,0.0146 0.087,0.0709 0.087,0.15505 0,0.11923 0.0159,0.13072 0.16151,0.11666 l 0.16152,-0.0154 0.043,-0.39818 z m 5.46299,-1.65065 c 0.5204,-0.16602 0.95576,-0.52183 1.23942,-1.01298 0.37974,-0.65751 0.386,-1.58201 0.0152,-2.24646 -0.40688,-0.72919 -1.09024,-1.14283 -1.88652,-1.14198 -1.64563,0 -2.67891,1.72747 -1.9521,3.26034 0.47007,0.99134 1.55346,1.46977 2.58398,1.14108 z"
       id="path17274"
       inkscape:connector-curvature="0" />
    <path
       style="fill:#000000;fill-opacity:0.35377359"
       d="m 352.5413,457.79566 c -6.23371,-0.17776 -13.10806,-1.28992 -20.44967,-3.30841 -1.16928,-0.3215 -1.2775,-0.36065 -1.40007,-0.50649 -0.0731,-0.0869 -0.12547,-0.16542 -0.11647,-0.17446 0.009,-0.009 0.39305,0.0845 0.85343,0.20783 6.27946,1.68188 11.57756,2.66843 16.61534,3.09386 3.55147,0.29994 7.7266,0.29921 10.96459,0 10.245,-0.95253 18.89198,-4.68735 26.25727,-11.3411 0.8214,-0.74204 2.74647,-2.66881 3.08112,-3.08387 0.24752,-0.30697 0.29336,-0.31974 0.67089,-0.18722 0.21893,0.0769 0.2503,0.1056 0.2638,0.2418 0.0138,0.13984 -0.0696,0.24382 -0.8762,1.09104 -2.6167,2.74858 -5.48847,5.12263 -8.55207,7.06983 -7.69537,4.89116 -16.8276,7.19798 -27.31196,6.89903 z m 3.25505,-13.63765 c -2.87956,-0.15235 -5.79139,-0.67537 -8.81621,-1.58356 -0.49459,-0.14849 -1.03134,-0.31592 -1.19278,-0.37204 -0.16144,-0.0561 -0.30237,-0.10201 -0.31318,-0.10201 -0.0108,0 -0.0423,0.0652 -0.0701,0.14494 l -0.0504,0.14489 -0.30726,-0.10167 c -0.16899,-0.0559 -0.3278,-0.12043 -0.35287,-0.1433 -0.0636,-0.058 0.0579,-0.44304 0.13965,-0.44304 0.0358,0 0.52137,0.13474 1.07888,0.29943 3.25886,0.96267 5.65185,1.4282 8.4183,1.63762 3.67041,0.27788 7.36739,-0.0951 11.38024,-1.14797 2.08007,-0.54578 3.76757,-1.09725 7.97612,-2.60652 1.35296,-0.48519 2.64525,-0.94558 2.87177,-1.02304 l 0.41187,-0.14091 0.10687,0.22038 c 0.0588,0.1212 0.0971,0.23015 0.0851,0.24211 -0.0667,0.0666 -6.83513,2.48192 -8.147,2.90727 -3.80515,1.23387 -6.89142,1.87514 -9.86455,2.04973 -0.7617,0.0447 -2.65474,0.0547 -3.35443,0.0176 z m 22.4499,-5.28286 c -0.21183,-0.0714 -0.38514,-0.14228 -0.38514,-0.15749 0,-0.015 0.26914,-0.27385 0.59809,-0.57474 1.04557,-0.95634 1.67807,-1.73989 2.08632,-2.58445 0.27314,-0.5651 0.37765,-0.92917 0.42242,-1.47165 0.0353,-0.42796 -0.054,-1.00848 -0.22471,-1.4606 -0.178,-0.47136 -0.65075,-1.12702 -1.15643,-1.60382 l -0.45845,-0.43228 0.38256,0.25958 c 0.85394,0.57941 1.65652,1.50541 1.92806,2.22449 0.55749,1.47636 0.11342,2.95315 -1.39827,4.65003 -0.30885,0.34668 -1.28852,1.25499 -1.37307,1.27307 -0.02,0.004 -0.20956,-0.0507 -0.42138,-0.12214 z m -35.4709,-2.27684 c -0.0892,-0.23504 -0.19799,-1.26832 -0.19799,-1.88089 0,-2.23485 0.70183,-4.33252 2.60901,-7.79799 1.51375,-2.75055 2.3939,-5.00439 2.85729,-7.31674 0.28962,-1.44522 0.41696,-3.39243 0.30272,-4.62891 -0.0316,-0.34223 -0.0708,-0.78 -0.087,-0.97292 l -0.0296,-0.35071 1.50969,-0.11332 c 0.83033,-0.0623 1.53992,-0.12305 1.57686,-0.13496 0.0484,-0.0154 0.0344,-0.05 -0.0497,-0.1233 -0.0642,-0.0559 0.0999,0.0394 0.36483,0.2119 0.36176,0.23551 0.46074,0.32188 0.39757,0.34681 -0.0463,0.0184 -0.77711,0.0815 -1.62409,0.14044 -0.84698,0.0589 -1.54398,0.11122 -1.54888,0.11615 -0.005,0.005 0.01,0.10968 0.0324,0.23285 0.15231,0.82648 0.20035,2.74498 0.0969,3.87029 -0.26737,2.9086 -1.34317,6.02036 -3.20804,9.27925 -0.58501,1.02235 -1.38785,2.68898 -1.72181,3.57437 -0.64477,1.70948 -0.86741,2.91542 -0.81968,4.43993 l 0.026,0.83128 -0.1722,0.20149 c -0.20103,0.23525 -0.24914,0.24669 -0.31434,0.075 z m -17.23646,-17.56492 c -0.36754,-0.0704 -0.79728,-0.28555 -0.84226,-0.42166 -0.0171,-0.0516 0.002,-0.0601 0.0706,-0.0321 0.32352,0.13153 2.29876,0.0709 4.81481,-0.14789 1.01292,-0.0881 1.80295,-0.12652 2.6587,-0.12935 1.26224,-0.004 1.68917,0.027 1.69032,0.12373 3.6e-4,0.0313 0.0141,0.10698 0.0307,0.16859 l 0.03,0.11199 -0.91505,0 c -0.84823,0 -2.24779,0.0922 -4.19032,0.276 -1.17886,0.11156 -2.89394,0.13748 -3.34738,0.0506 z m 8.40697,-0.86362 c -0.0836,-0.1802 -0.1135,-0.35547 -0.1293,-0.75712 -0.0165,-0.41875 -0.0518,-0.61518 -0.17792,-0.98856 -0.23422,-0.69358 -0.69713,-1.56046 -1.38309,-2.59019 -0.33676,-0.50555 -0.5938,-0.93187 -0.57119,-0.94734 0.19266,-0.13204 0.41486,-0.26023 0.42539,-0.2454 0.008,0.01 0.0992,0.13833 0.20465,0.28524 l 0.19178,0.26713 -0.10857,0.082 -0.10859,0.082 0.38224,0.54681 c 0.81268,1.16245 1.34444,2.09672 1.58606,2.78658 0.0938,0.26781 0.15579,1.23833 0.0986,1.54371 -0.0277,0.14802 -0.0523,0.17317 -0.16691,0.17155 -0.11095,0 -0.15338,-0.0429 -0.24314,-0.23645 z m 4.07888,-2.08135 c -0.28324,-0.19001 -0.4016,-0.30976 -0.59599,-0.60306 -0.75852,-1.14459 -0.38397,-2.69267 0.79234,-3.27499 0.40867,-0.20226 0.83778,-0.27188 1.29963,-0.21074 0.29593,0.039 0.80414,0.2481 0.99429,0.4088 0.0976,0.0825 0.097,0.0834 -0.0248,0.0491 -0.0683,-0.0193 -0.31876,-0.0454 -0.55651,-0.0583 -0.6386,-0.0347 -1.07377,0.12832 -1.54683,0.57911 -0.49078,0.46767 -0.70837,1.00436 -0.69795,1.72168 0.009,0.57199 0.12191,0.89452 0.49536,1.4061 0.10526,0.14417 0.0772,0.14104 -0.15949,-0.0176 z m 10.8495,-4.48218 c -0.13094,-0.0984 -0.22535,-0.19172 -0.20981,-0.20727 0.0156,-0.0154 0.35467,-0.056 0.75357,-0.0899 1.08975,-0.0926 1.09505,-0.094 1.13217,-0.2921 l 0.0313,-0.16691 0.3339,0.13743 0.33389,0.13749 -0.0166,0.21965 c -0.009,0.12082 -0.0428,0.24451 -0.0746,0.27488 -0.0487,0.0464 -1.51201,0.17412 -1.92145,0.16769 -0.0683,0 -0.23139,-0.0825 -0.36232,-0.18093 z m -1.00961,-2.049 c -0.1669,-0.0733 -0.31226,-0.15376 -0.32302,-0.17882 -0.0108,-0.0253 0.22644,-0.12823 0.5271,-0.22921 0.43358,-0.14558 0.54349,-0.20111 0.5314,-0.26828 -0.0135,-0.0753 0.0195,-0.0809 0.29817,-0.0504 0.17238,0.0188 0.3167,0.0368 0.32069,0.0403 0.004,0.004 0.0151,0.12596 0.0248,0.27283 l 0.0176,0.26695 -0.44726,0.14069 c -0.246,0.0774 -0.49198,0.14044 -0.54665,0.14006 -0.0546,0 -0.23595,-0.0606 -0.40286,-0.13393 z m -2.31797,-1.51462 c -0.18449,-0.027 -0.33544,-0.0648 -0.33544,-0.0843 0,-0.0197 0.23812,-0.33319 0.52917,-0.69701 0.46979,-0.58729 0.56026,-0.67529 0.80629,-0.78429 l 0.27715,-0.12274 0.11551,0.14121 c 0.22356,0.27325 0.23235,0.24922 -0.34729,0.95 -0.32748,0.39595 -0.57833,0.65682 -0.62772,0.65275 -0.0452,-0.004 -0.23317,-0.0287 -0.41767,-0.0556 z"
       id="path17300"
       inkscape:connector-curvature="0" />
    <path
       style="fill:#ffffff"
       d="m 330.11781,453.80309 c -1.57188,-1.88658 -2.44762,-3.81717 -2.82529,-6.22849 -0.12309,-0.78582 -0.15014,-2.62417 -0.0529,-3.59524 0.33579,-3.35408 1.44007,-6.80704 3.79022,-11.85157 0.71481,-1.53433 4.65796,-9.40173 4.76648,-9.51008 0.0462,-0.0461 0.26956,0.23885 0.26956,0.3439 0,0.0518 -0.95656,2.00474 -2.12569,4.33998 -2.11678,4.22811 -3.02283,6.13012 -3.77715,7.92913 -1.39803,3.33425 -2.14312,5.87213 -2.50379,8.52834 -0.13402,0.98697 -0.14785,3.08901 -0.0261,3.96656 0.31525,2.27225 1.1832,4.33788 2.53663,6.03677 0.15962,0.20037 0.28132,0.3732 0.27045,0.38408 -0.0109,0.0107 -0.15595,-0.14365 -0.32239,-0.34338 z m 25.40379,-8.72503 c -1.70234,-0.13684 -2.64952,-0.24703 -3.82656,-0.44518 -1.89906,-0.31969 -3.87484,-0.80767 -5.85163,-1.44526 -0.47721,-0.15393 -0.53422,-0.18469 -0.53422,-0.28833 l 0,-0.11606 0.60877,0.19545 c 2.5126,0.80668 5.37761,1.39894 8.03823,1.6617 1.11024,0.10963 3.84891,0.15141 5.02038,0.0766 3.54324,-0.22634 6.98484,-0.97652 11.44634,-2.49504 2.38764,-0.81268 7.06496,-2.52588 7.05163,-2.58286 -0.006,-0.0291 0.0299,-0.0531 0.0816,-0.0531 0.0638,0 0.12038,0.0661 0.17601,0.2053 0.0451,0.11294 0.0716,0.2158 0.0587,0.22866 -0.0869,0.087 -7.06454,2.56962 -8.47878,3.01664 -3.91028,1.23602 -7.06572,1.86153 -10.21242,2.0245 -0.86379,0.0447 -3.10128,0.0554 -3.57805,0.0171 z m 31.60628,-2.76246 c -0.95664,-0.29977 -2.74568,-0.85909 -3.97563,-1.24283 -1.22997,-0.38374 -2.7811,-0.87759 -3.44697,-1.09738 -1.06912,-0.35293 -1.20207,-0.40829 -1.13709,-0.47337 0.065,-0.0651 0.67718,0.11332 5.236,1.52589 2.83933,0.87974 5.20319,1.61158 5.25301,1.62628 0.086,0.0253 0.0863,0.0317 0.004,0.12175 -0.0472,0.0523 -0.11035,0.0927 -0.14029,0.0899 -0.0299,-0.004 -0.83711,-0.25042 -1.79374,-0.55023 z m -43.724,-4.85752 c -0.0899,-0.33233 -0.0864,-0.37128 0.0511,-0.55237 0.29319,-0.3864 1.29762,-1.45508 1.94855,-2.07317 1.52626,-1.44929 3.16529,-2.68779 5.12371,-3.87153 1.07979,-0.65271 3.21307,-1.79075 3.85432,-2.05616 1.57569,-0.6522 3.57675,-1.08328 6.25869,-1.34835 1.27624,-0.12613 5.33874,-0.12643 6.70889,0 5.21731,0.4795 9.08523,1.53759 11.55418,3.16073 0.52819,0.34724 1.37011,1.04297 1.32128,1.09189 -0.0146,0.0146 -0.11103,-0.0496 -0.21425,-0.14275 -1.03193,-0.93127 -3.08398,-1.89575 -5.48023,-2.57571 -4.53744,-1.2876 -10.88033,-1.65198 -15.70406,-0.90218 -1.88872,0.2936 -3.37876,0.72772 -4.72076,1.37546 -2.73613,1.32055 -5.32167,2.9781 -7.33676,4.70338 -0.78135,0.66894 -1.97906,1.85809 -2.66294,2.64378 -0.3038,0.34904 -0.58066,0.63463 -0.61523,0.63463 -0.0346,0 -0.0735,-0.039 -0.0865,-0.0871 z m -7.94618,-15.2709 c -0.73911,-0.89323 -1.12604,-1.75111 -1.21042,-2.68376 l -0.0329,-0.36451 0.16792,0.0343 0.16792,0.0343 0.034,0.4762 c 0.0688,0.96186 0.37773,1.74623 1.0215,2.59345 0.31114,0.40949 0.21882,0.35341 -0.148,-0.0899 z m -0.83303,-3.04827 c 0,-0.0493 -0.0277,-0.11743 -0.0617,-0.1514 -0.047,-0.0471 -0.0477,-0.0704 -0.003,-0.0981 0.0347,-0.0214 0.0723,-0.23928 0.0921,-0.53297 0.0374,-0.55511 -0.0452,-1.16699 -0.23636,-1.75 -0.18095,-0.55207 -0.72725,-1.58591 -1.25194,-2.36929 -0.27055,-0.40393 -0.47851,-0.74783 -0.46213,-0.76423 0.0164,-0.0163 0.324,0.41514 0.68361,0.95903 1.25066,1.89147 1.7155,3.14869 1.61425,4.36607 l -0.0358,0.43049 -0.16947,0 c -0.13007,0 -0.16948,-0.021 -0.16948,-0.0896 z m -10.20357,-0.38815 c -0.39451,-0.36639 -0.27641,-0.85575 0.3717,-1.54007 0.90809,-0.95887 2.61476,-2.17012 5.60776,-3.97997 1.23927,-0.74937 1.35063,-0.82897 1.88843,-1.34977 2.64387,-2.56024 4.44657,-3.62707 6.85797,-4.05858 0.61092,-0.10934 2.62746,-0.0845 3.2799,0.0403 l 0.52179,0.0999 1.7145,-0.78522 c 0.94297,-0.4319 1.73685,-0.78557 1.76419,-0.78604 0.0472,0 0.33718,0.34694 0.31071,0.37248 -0.006,0.006 -0.77966,0.36056 -1.71725,0.78646 l -1.70471,0.77443 -0.50674,-0.0828 c -0.37765,-0.0617 -0.84221,-0.0834 -1.82366,-0.0854 -1.18821,-0.004 -1.36851,0.009 -1.84455,0.11062 -1.00258,0.21516 -1.97937,0.59175 -2.92317,1.12698 -0.88389,0.50122 -1.76492,1.19056 -3.14681,2.46205 -0.98854,0.9096 -1.05235,0.95638 -2.65346,1.94708 -2.69764,1.66911 -4.15337,2.70381 -5.042,3.58367 -0.62127,0.61518 -0.80862,0.9054 -0.80862,1.2526 0,0.13234 -10e-4,0.2406 -0.003,0.2406 -0.002,0 -0.0661,-0.0582 -0.14261,-0.1293 z m 14.98773,-1.51591 c -0.2874,-0.0568 -0.63595,-0.21704 -0.89023,-0.40924 -0.30691,-0.23195 -0.29636,-0.28289 0.0256,-0.12325 1.05244,0.52191 2.33262,0.061 2.86696,-1.03226 0.31827,-0.65117 0.31709,-1.43896 -0.003,-2.06892 l -0.087,-0.17133 0.12404,0.11456 c 0.29507,0.27244 0.53464,0.93483 0.53464,1.47821 0,0.61895 -0.20433,1.12591 -0.63685,1.58008 -0.50488,0.53014 -1.2379,0.76976 -1.93391,0.63215 z m 11.11567,-4.08648 c -1.08866,-0.75493 -1.33047,-0.93796 -1.2391,-0.93796 0.0492,0 2.27119,1.47667 2.40716,1.5998 0.028,0.0253 0.006,0.0428 -0.0524,0.0428 -0.0547,0 -0.55684,-0.31704 -1.11566,-0.70455 z m -1.03763,-2.35743 c -0.74985,-0.31429 -1.37601,-0.57182 -1.39148,-0.57225 -0.0727,0 0.13198,-0.0973 0.21027,-0.098 0.0696,0 2.4921,0.9667 2.56101,1.02261 0.009,0.007 0.009,0.0596 0,0.11628 -0.0152,0.0951 -0.12028,0.0594 -1.3798,-0.46862 z m -0.92263,-1.60266 c -1.18975,-0.16576 -2.63821,-0.36249 -2.66896,-0.36249 -0.0721,0 -0.0408,-0.13269 0.051,-0.21585 0.0842,-0.0763 0.18601,-0.0697 1.47844,0.0971 0.7634,0.0985 1.39337,0.18396 1.39991,0.18988 0.006,0.006 0.0261,0.082 0.0435,0.16897 0.0341,0.17077 0.0364,0.16983 -0.30386,0.1224 z"
       id="path17296"
       inkscape:connector-curvature="0" />
    <path
       style="fill:url(#linearGradient17326);fill-opacity:1;stroke:none"
       d="m 332.98692,454.72768 c 10.79424,-3.33584 32.5289,-3.47323 41.61311,-1.07143 l -16.01881,14.19643 z"
       id="path17310"
       inkscape:connector-curvature="0"
       sodipodi:nodetypes="cccc" />
    <path
       style="fill:#ffffff;stroke:none"
       d="m 333.87065,455.33894 c 12.26995,-3.69713 27.86973,-3.64309 41.95452,-0.96682 l 2.52288,-2.31431 c -16.33129,-3.79695 -34.30452,-3.90058 -48.09813,2.01844 z"
       id="path17328"
       inkscape:connector-curvature="0"
       sodipodi:nodetypes="ccccc" />
    <path
       style="fill:#ffffff;fill-opacity:0.41981135;stroke:none"
       d="m 348.00484,437.31434 c 2.67574,5.72926 5.86216,7.20134 9.44637,5.35714 -4.94051,0.46664 -6.92678,-2.78046 -9.44637,-5.35714 z"
       id="path17330"
       inkscape:connector-curvature="0"
       sodipodi:nodetypes="ccc" />
    <path
       style="fill:#ffffff;fill-opacity:0.41981135;stroke:none"
       d="m 353.41783,436.94365 c 2.67574,5.72926 5.86215,7.20134 9.44637,5.35714 -4.94051,0.46665 -6.92678,-2.78046 -9.44637,-5.35714 z"
       id="path17330-1"
       inkscape:connector-curvature="0"
       sodipodi:nodetypes="ccc" />
    <path
       style="fill:#ffffff;fill-opacity:0.41981135;stroke:none"
       d="m 357.37104,436.1229 c 2.67574,5.72926 5.86216,7.20134 9.44637,5.35714 -4.9405,0.46665 -6.92678,-2.78046 -9.44637,-5.35714 z"
       id="path17330-5"
       inkscape:connector-curvature="0"
       sodipodi:nodetypes="ccc" />
    <path
       style="fill:#ffffff;fill-opacity:0.41981135;stroke:none"
       d="m 362.00586,435.04962 c 2.67574,5.72926 5.86216,7.20134 9.44637,5.35714 -4.9405,0.46665 -6.92678,-2.78046 -9.44637,-5.35714 z"
       id="path17330-0"
       inkscape:connector-curvature="0"
       sodipodi:nodetypes="ccc" />
    <path
       style="fill:#ffffff;fill-opacity:0.41981135;stroke:none"
       d="m 366.02725,433.53438 c 2.67574,5.72926 5.86216,7.20134 9.44638,5.35714 -4.94051,0.46665 -6.92679,-2.78046 -9.44638,-5.35714 z"
       id="path17330-51"
       inkscape:connector-curvature="0"
       sodipodi:nodetypes="ccc" />
  </g>
</svg>
