<svg xmlns="http://www.w3.org/2000/svg" xml:space="preserve" width="410" height="510"><path fill="#FCF100" stroke="#000" stroke-miterlimit="10" stroke-width="2" d="M205.458 508.998c0-22.29-19.599-42.778-44.137-42.778H56.4c-40.751 0-52.674-17.787-52.674-54.936V4.333h403.235v408.978c0 38.052-18.469 52.909-48.188 52.909H249.128c-23.866 0-43.67 18.462-43.67 42.778z"/><path fill="#00933F" stroke="#000" stroke-miterlimit="10" stroke-width="2" d="M3.727 333.272v78.689c0 36.472 11.923 54.259 52.674 54.259H161.32c24.542 0 44.139 20.488 44.139 42.779 0-24.317 19.803-42.779 43.669-42.779h109.646c29.721 0 48.189-14.857 48.189-52.232v-80.716"/><path fill="#BBBABF" stroke="#000" stroke-miterlimit="10" stroke-width=".75" d="M69.525 364.004h22.121l29.551 32.59-29.214 33.772-21.698 3.546"/><path fill="#E6E4E5" stroke="#000" stroke-miterlimit="10" stroke-width=".75" d="m38.455 399.635 31.07-35.631 31.24 34.617-30.48 35.291z"/><path fill="none" stroke="#000" stroke-miterlimit="10" stroke-width=".75" d="m100.765 398.621 20.432-2.027"/><path fill="#BBBABF" stroke="#000" stroke-miterlimit="10" stroke-width=".75" d="M195.157 364.004h22.122l29.55 32.59-29.214 33.772-21.697 3.546"/><path fill="#E6E4E5" stroke="#000" stroke-miterlimit="10" stroke-width=".75" d="m164.087 399.635 31.07-35.631 31.239 34.617-30.478 35.291z"/><path fill="none" stroke="#000" stroke-miterlimit="10" stroke-width=".75" d="m226.396 398.621 20.433-2.027"/><path fill="#BBBABF" stroke="#000" stroke-miterlimit="10" stroke-width=".75" d="M320.619 364.004h22.121l29.55 32.59-29.212 33.772-21.699 3.546"/><path fill="#E6E4E5" stroke="#000" stroke-miterlimit="10" stroke-width=".75" d="m289.55 399.635 31.069-35.631 31.24 34.617-30.48 35.291z"/><path fill="none" stroke="#000" stroke-miterlimit="10" stroke-width=".75" d="m351.859 398.621 20.431-2.027"/><path fill="#E2001B" stroke="#000" stroke-linecap="round" stroke-linejoin="round" stroke-miterlimit="10" d="M197.86 306.761s3.006 19.081 9.017 22.459c0 0 6.012-8.079 7.699-23.811 0 0-6.247-22.29-9.118-28.536l-7.598 29.888z"/><path fill="#E2001B" stroke="#000" stroke-linecap="round" stroke-linejoin="round" stroke-miterlimit="10" d="M242.575 219.966s0 68.391 15.871 81.223c-20.061 7.092-23.1-13.846-23.1-13.846 1.35 14.69 10.638 22.963 10.638 22.963-11.482 5.742-21.277-6.921-21.277-6.921 1.184 15.535 7.769 17.763 7.769 17.763-12.664 2.499-15.196-2.229-20.095-10.503-4.008-6.775-6.924-27.862-6.924-27.862s0 18.235-6.079 28.875c-8.43 14.755-18.913 8.95-18.913 8.95 6.417-2.701 8.275-19.419 8.275-19.419-8.106 14.015-22.121 9.456-22.121 9.456 7.937-8.779 11.313-22.458 11.313-22.458-4.727 19.757-22.626 13.002-22.626 13.002 15.873-12.832 15.873-81.223 15.873-81.223h71.396z"/><path fill="none" stroke="#000" stroke-linecap="round" stroke-linejoin="round" stroke-miterlimit="10" d="M182.493 274.002s5.404-18.911 7.599-45.086M188.742 301.189s10.299-16.551 12.496-60.455M206.218 275.353l.659-22.121M212.043 240.737s-1.352 30.732 12.664 62.649"/><path fill="none" stroke="#000" stroke-linecap="round" stroke-linejoin="round" stroke-miterlimit="10" d="M193.722 234.827s0-5.151-6.247-7.262c-2.828-.953-3.884 3.631-3.884 3.631M229.588 273.964s-5.404-18.913-7.6-45.085"/><path fill="none" stroke="#000" stroke-linecap="round" stroke-linejoin="round" stroke-miterlimit="10" d="M218.359 234.789s0-5.148 6.247-7.26c2.827-.956 3.884 3.629 3.884 3.629"/><path fill="#007CC3" stroke="#000" stroke-linecap="round" stroke-linejoin="round" stroke-miterlimit="10" d="M289.382 272.143H88.156c-36.922 0-47.957 9.25-47.957 9.25s9.569 9.664 50.095 9.664h199.087c.001 0 9.06-8.444.001-18.914z"/><path fill="none" stroke="#000" stroke-linecap="round" stroke-linejoin="round" stroke-miterlimit="10" d="M40.2 281.393h252.896"/><path fill="#007CC3" stroke="#000" stroke-linecap="round" stroke-linejoin="round" stroke-miterlimit="10" d="M288.088 281.393s-5.854-4.52-4.391-7.898c1.464-3.377 6.688-7.141 14.521-3.151 5.318 2.709 13.189 11.05 13.189 11.05s-7.702 8.355-14.314 11.464c-7.227 3.399-12.625-.644-13.631-4.053-.618-2.094-1.116-3.794 4.626-7.412z"/><path fill="#005877" d="M300.59 286.6s-3.334-.448-7.182 6.204c0 0 10.295-6.913 12.014-6.652l-4.832.448zM300.212 276.195s-4.021-.9-6.804-6.863c0 0 .973.537 1.827 1.182 2.216 1.667 5.587 4.563 8.229 4.754l-3.252.927z"/><path fill="#007CC3" stroke="#000" stroke-linecap="round" stroke-linejoin="round" stroke-miterlimit="10" d="M298.244 274.846s5.794 3.395 5.794 6.754c0 4.08-5.794 6.191-5.794 6.191 6.249-1.463 41.627-1.294 49.506 1.04v7.828s0 1.714 1.801 1.714h5.516s1.352-.113 1.352-2.139v-30.17s.675-2.139-1.578-2.139h-5.516s-1.575-.11-1.575 1.916v8.584c0-.002-31.098 3.077-49.506.421z"/><path fill="#005877" d="M347.75 278.222s-21.198 1.499-33.272 2.62h33.272v-2.62z"/><path fill="none" stroke="#000" stroke-linecap="round" stroke-linejoin="round" stroke-miterlimit="10" d="M347.75 289.748v-17.225"/><path fill="#E2001B" stroke="#000" stroke-linecap="round" stroke-linejoin="round" stroke-miterlimit="10" d="M186.545 221.037c2.927-19.477-2.475-38.39-2.475-38.39h43.646s-5.404 18.913-2.477 38.39h-38.694zM162.567 227.735s-6.754 16.209 3.883 22.626c0 0-1.698 15.705 2.693 13.511 0 0 8.876-.93 7.609-15.367 0 0 3.376 4.729 6.417 5.572 0 0-.338-4.559 2.194-7.601 2.533-3.039 2.533-10.467 0-10.131M250.037 227.735s6.755 16.209-3.885 22.626c0 0 1.698 15.705-2.691 13.511 0 0-8.874-.93-7.607-15.367 0 0-3.378 4.729-6.418 5.572 0 0 .339-4.559-2.193-7.601-2.535-3.039-2.535-10.467 0-10.131"/><path fill="#E6E4E5" stroke="#000" stroke-linecap="round" stroke-linejoin="round" stroke-miterlimit="10" d="M166.957 287.004c-.167-2.871-3.799-6.586-7.007-5.15 0 0 .084-2.111 2.701-5.066a591.051 591.051 0 0 1 4.154-4.645h13.746s-1.859-5.486-4.982-5.486-6.247 2.786-6.247 2.786.845-7.599 1.267-9.88c.42-2.279 3.546-14.352 9.033-20.854 0 0-3.349-18.404-12.776.677l-8.443 25.779s-.563 1.914-2.365 3.826c0 0-3.18 1.041-8.921 1.547-5.741.507-7.852 5.74-7.852 5.74-2.786 2.533-6.305 9.71-1.125 11.626 0 0 3.15 7.317 5.74 7.317 2.59 0 3.716-.563 3.716-.563s3.264 1.688 7.541-2.477c0 0 2.144 3.826 7.66 1.575 0 0 6.413.903 8.439-2.7h-5.41c0 .001 1.3-1.181 1.131-4.052zm-16.44 4.139c.374-1.369-1.987-4.229-1.987-4.229s1.077.97 1.646.942c.578-.029 1.285-.106 2.012-.49l.012-.007c-.609 1.037 1.051 2.909 1.051 2.909-.797 1.285-2.734.875-2.734.875z"/><path fill="none" stroke="#000" stroke-linecap="round" stroke-linejoin="round" stroke-miterlimit="10" d="M138.466 288c1.033.283 2.477.271 3.922-1.08M145.597 283.879l1.207-1.057M138.15 277.502c1.703-2.381 4.368-1.607 6.141-1.523s3.368.076 4.806-1.047c1.352-1.055 5.208-4.324 6.926-5.957M148.522 286.918s2.97 3.399 1.674 4.982c-1.241 1.52-2.601 2.76-2.601 2.76M155.137 292.182s-3.822-3.188-2.944-4.816"/><path fill="none" stroke="#000" stroke-linecap="round" stroke-linejoin="round" stroke-miterlimit="10" d="M150.509 291.146s1.937.41 2.734-.873M159.985 281.584s-.668 2.762 2.54 4.113"/><path fill="none" stroke="#898989" stroke-linecap="round" stroke-linejoin="round" stroke-miterlimit="10" d="M171.629 234.152s1.521 4.839 5.516 6.079c0 0-5.459 3.208-10.525 2.701 0 0 2.728 4.449 6.247 6.023 0 0-2.928 3.209-9.286 2.591 0 0 3.657 3.658 6.924 5.291 0 0-3.829 4.053-9.232 2.475 0 0 5.742 4.617 7.542 5.686 0 0-6.617 2.844-10.121 2.258 0 0 1.733 3.06 6.938 3.708"/><path fill="none" stroke="#000" stroke-linecap="round" stroke-linejoin="round" stroke-miterlimit="10" d="M161.638 270.034s-1.941 4.391-5.911 6.5c-3.967 2.113-7.345 1.013-8.611 4.646-1.267 3.629 1.533 6.43 3.055 6.684 1.52.252 4.066-1.602 5.135-3.391M162.247 293.936c.965-.49 2.867-1.646 4.102-3.613"/><path fill="#898989" d="M158.933 267.599s-3.552 5.19-5.689 7.642c0 0 4.043-3.428 6.684-6.61l-.995-1.032z"/><path fill="#E6E4E5" stroke="#000" stroke-linecap="round" stroke-linejoin="round" stroke-miterlimit="10" d="M246.592 291.057h-5.541c2.027 3.604 8.216 2.7 8.216 2.7 5.518 2.255 7.881-1.575 7.881-1.575 4.277 4.164 7.54 2.477 7.54 2.477s1.125.563 3.717.563c2.59 0 5.74-7.317 5.74-7.317 5.177-1.916 1.662-9.093-1.125-11.626 0 0-.357-4.813-6.934-5.387-5.743-.505-10.193-2.292-10.193-2.292-1.801-1.914-2.01-3.438-2.01-3.438l-8.443-25.779c-9.43-19.081-12.776-.675-12.776-.675 5.487 6.5 8.612 18.575 9.034 20.854s1.266 9.878 1.266 9.878-3.123-2.786-6.248-2.786c-3.123 0-4.98 5.489-4.98 5.489h13.744s1.538 1.688 4.154 4.642c2.617 2.956 2.703 5.067 2.703 5.067-3.209-1.437-6.84 2.279-7.008 5.148-.169 2.875 1.263 4.057 1.263 4.057zm12.444-.788s1.659-1.872 1.051-2.909l.012.007c.728.382 1.435.461 2.013.49.568.027 1.646-.942 1.646-.942s-2.361 2.857-1.987 4.229c0-.001-1.937.409-2.735-.875z"/><path fill="none" stroke="#000" stroke-linecap="round" stroke-linejoin="round" stroke-miterlimit="10" d="M273.822 288c-1.034.283-2.479.271-3.924-1.08M266.689 283.879l-1.207-1.057M274.14 277.502c-1.705-2.381-4.37-1.607-6.143-1.523s-3.368.076-4.808-1.047c-1.35-1.055-5.576-4.698-7.294-6.33M263.766 286.918s-2.971 3.399-1.678 4.982a29.242 29.242 0 0 0 2.604 2.76M257.15 292.182s3.822-3.188 2.944-4.816"/><path fill="none" stroke="#000" stroke-linecap="round" stroke-linejoin="round" stroke-miterlimit="10" d="M261.778 291.146s-1.937.41-2.734-.873M252.302 281.584s.668 2.762-2.54 4.113"/><path fill="none" stroke="#898989" stroke-linecap="round" stroke-linejoin="round" stroke-miterlimit="10" d="M240.655 234.152s-1.52 4.839-5.515 6.079c0 0 5.461 3.208 10.526 2.701 0 0-2.729 4.449-6.247 6.023 0 0 2.928 3.209 9.287 2.591 0 0-3.66 3.658-6.924 5.291 0 0 3.827 4.053 9.229 2.475 0 0-5.74 4.617-7.54 5.686 0 0 6.108 2.827 10.468 2.758 0 0-3.349 1.995-6.725 3.139"/><path fill="none" stroke="#000" stroke-linecap="round" stroke-linejoin="round" stroke-miterlimit="10" d="M250.648 270.034s1.942 4.391 5.91 6.5c3.969 2.113 7.346 1.013 8.611 4.646 1.268 3.629-1.533 6.43-3.053 6.684-1.52.252-4.068-1.602-5.137-3.391M245.988 290.273s1.516 2.416 4.067 3.771"/><path fill="#898989" d="M253.145 267.599s3.164 4.538 5.303 6.992c0 0-3.457-2.53-6.297-6.556l.994-.436z"/><path fill="#E2001B" stroke="#000" stroke-linecap="round" stroke-linejoin="round" stroke-miterlimit="10" d="M162.403 205.257s-7.942 4.973-8.053 13.303c-.112 8.329.787 17.335-3.265 19.249 0 0 8.669 3.265 13.284-4.615 0 0 .877 7.62 0 11.144 0 0 6.813-3.49 9.229-10.637 0 0 2.815 4.333 7.204 5.768 4.391 1.437 6.924-3.376 6.924-3.376s-6.417-2.196-5.994-7.598c.421-5.404 14.099-8.611 19.502.253 0 0 1.352-4.559 5.065-7.516 0 0-5.572-4.642-8.273-5.993 0 0-2.45 3.122-5.151 4.052 0 0 1.858-10.638-8.443-16.801-10.299-6.164-24.4-3.546-29.213 4.221.002 0 4.584-2.157 7.184-1.454z"/><path fill="none" stroke="#000" stroke-linecap="round" stroke-linejoin="round" stroke-miterlimit="10" d="m198.028 215.239 2.026-2.111M161.94 205.174c1.783.299 5.547 1.223 7.128 3.819"/><path fill="none" stroke="#000" stroke-linecap="round" stroke-linejoin="round" stroke-miterlimit="10" d="M164.58 235.503s-.575-5.236-1.503-10.555c-.93-5.319 1.387-16.488 12.326-18.828"/><path fill="none" stroke="#000" stroke-linecap="round" stroke-linejoin="round" stroke-miterlimit="10" d="M185.025 213.719s-4.22-4.306-10.469 0c-6.247 4.306-6.5 14.943-1.35 18.068 0 0-1.013-12.074 8.948-12.157"/><path fill="#E2001B" stroke="#000" stroke-linecap="round" stroke-linejoin="round" stroke-miterlimit="10" d="M250.201 205.257s7.94 4.973 8.052 13.303c.111 8.329-.786 17.335 3.267 19.249 0 0-8.67 3.265-13.283-4.615 0 0-.877 7.62 0 11.144 0 0-6.811-3.49-9.231-10.637 0 0-2.813 4.333-7.203 5.768-4.391 1.437-6.924-3.376-6.924-3.376s6.417-2.196 5.995-7.598c-.423-5.404-14.1-8.611-19.504.253 0 0-1.35-4.559-5.065-7.516 0 0 5.572-4.642 8.275-5.993 0 0 2.447 3.122 5.148 4.052 0 0-1.856-10.638 8.443-16.801 10.302-6.164 24.401-3.546 29.214 4.221-.003 0-4.582-2.157-7.184-1.454z"/><path fill="none" stroke="#000" stroke-linecap="round" stroke-linejoin="round" stroke-miterlimit="10" d="m214.576 215.239-2.026-2.111M250.664 205.174c-1.783.299-5.546 1.223-7.127 3.819"/><path fill="none" stroke="#000" stroke-linecap="round" stroke-linejoin="round" stroke-miterlimit="10" d="M248.024 235.503s.577-5.236 1.506-10.555c.928-5.319-1.39-16.488-12.327-18.828"/><path fill="none" stroke="#000" stroke-linecap="round" stroke-linejoin="round" stroke-miterlimit="10" d="M227.578 213.719s4.223-4.306 10.469 0c6.25 4.306 6.503 14.943 1.352 18.068 0 0 1.014-12.074-8.949-12.157"/><path fill="#E2001B" stroke="#000" stroke-linecap="round" stroke-linejoin="round" stroke-miterlimit="10" d="M62.932 107.134c-4.158-.809-9.785-3.005-9.785-3.005s4.615 15.366 23.808 22.29l-6.753.676s6.079 11.481 27.186 16.379c17.461 4.051 94.9-9.963 14.354-70.246 0 0-35.757-23.823-48.596-30.098-10.81-5.281-34.99-15.495-41.407-25.625 0 0-3.445 14.276 10.087 27.61l-5.867-4.308s-1.632 12.157 9.119 22.12l-2.87-.844s1.181 14.859 18.236 24.992c0 0-6.172-.676-8.15-2.533 0 0-1.642 10.749 18.292 21.535l2.346 1.057z"/><path fill="none" stroke="#000" stroke-linecap="round" stroke-linejoin="round" stroke-miterlimit="10" d="M29.897 43.429s22.687 20.005 55.501 27.267M23.411 19.713S40.145 50.938 78.307 54.99"/><path fill="none" stroke="#000" stroke-linecap="round" stroke-linejoin="round" stroke-miterlimit="10" d="M25.958 40.808s14.805 28.143 67.376 39.428"/><path fill="none" stroke="#000" stroke-linecap="round" stroke-linejoin="round" stroke-miterlimit="10" d="M33.882 61.756s13.442 15.356 63.844 24.136M47.323 85.048s13.421 11.482 54.792 10.131"/><path fill="none" stroke="#000" stroke-linecap="round" stroke-linejoin="round" stroke-miterlimit="10" d="M42.293 84.541s13.048 21.446 70.292 18.744M62.932 107.134c9.177 3.883 25.531 7.933 44.757-.135"/><path fill="none" stroke="#000" stroke-linecap="round" stroke-linejoin="round" stroke-miterlimit="10" d="M53.146 104.129s21.107 21.783 63.828 7.599M75.592 125.86s17.745 7.257 46.789-7.716"/><path fill="none" stroke="#000" stroke-linecap="round" stroke-linejoin="round" stroke-miterlimit="10" d="M70.201 127.095c9.456 8.021 35.291 13.002 65.011-7.598M32.208 62.083S53.147 86.905 98.316 92.14"/><path fill="#E2001B" stroke="#000" stroke-linecap="round" stroke-linejoin="round" stroke-miterlimit="10" d="M184.183 130.134c19.587 22.459-7.562 56.459-11.314 55.221-4.447-1.466-1.013-15.37-1.013-15.37s-5.123 17.23-9.851 15.795c-4.728-1.435.248-17.288.248-17.288s-7.126 18.745-11.336 17.195c-7.035-2.588 2.071-21.515 2.071-21.515s-7.08 17.801-13.554 16.113c-6.851-1.787 5.697-22.4 5.697-22.4s-12.055 20.826-15.997 16.829c-4.702-4.77 2.929-18.405 2.929-18.405s-7.206 11.82-10.527 9.963c-2.578-1.441-.169-6.079-.169-6.079-5.235 1.689-12.327 0-12.327 0-.507-1.689 3.883-5.741 3.883-5.741s-10.47.001-17.898-3.693c-2.108-1.048-4.596-3.006-3.563-3.896 4.375-3.769 30.581-7.272 45.44-29.73 7.03-10.627 38.906 3.399 47.281 13.001z"/><path fill="none" stroke="#000" stroke-linecap="round" stroke-linejoin="round" stroke-miterlimit="10" d="M95.715 144.755s-2.969 1.086 2.572 1.534c8.443.679 16.66-1.801 32.421-12.496 0 0-2.026 4.616 5.404 0 0 0-4.954 8.893-1.69 12.695 1.675 1.951 8.893-7.068 8.893-7.068s-9.118 12.608-4.84 15.309c3.961 2.501 12.047-9.118 12.047-9.118s-8.218 12.945-4.503 15.647c3.352 2.437 12.271-11.703 12.271-11.703s-8.59 14.325-3.942 17.444c3.378 2.266 11.259-14.297 11.259-14.297s-6.079 13.621-2.928 16.323c3.15 2.702 11.82-17.498 11.82-17.498s-7.322 15.618-2.646 18.455c3.435 2.082 6.925-8.5 6.925-8.5"/><path fill="none" stroke="#000" stroke-linecap="round" stroke-linejoin="round" stroke-miterlimit="10" d="M111.899 154.425s5.425 1.119 21.574-9.926c0 0-9.866 10.199-12.563 16.745"/><path fill="none" stroke="#000" stroke-linecap="round" stroke-linejoin="round" stroke-miterlimit="10" d="M109.039 160.191s9.514-1.407 16.564-6.505"/><path fill="#E2001B" stroke="#000" stroke-linecap="round" stroke-linejoin="round" stroke-miterlimit="10" d="M174.556 106.832s-10.976 7.429-18.406-1.52c0 0 13.34-21.276-13.509-37.318-26.848-16.042-76.663-18.912-81.222-30.226 0 0 1.858 13.002 19.082 26.511 0 0-8.443 2.195 15.535 23.64 0 0-5.91-3.883-6.754 0-.845 3.883 14.354 15.028 20.433 15.535 0 0-10.639-1.013-3.884 5.572 6.754 6.585 18.574 3.546 18.574 3.546s-9.287 5.235-8.95 8.274c0 0 5.742 3.208 17.055 0 0 0-1.118 2.718-2.87 5.91-.837 1.522-.676 9.625 13.678-2.364 0 0 1.858.337 3.715-1.857 0 0-3.789 7.188-1.014 10.469 1.858 2.196 8.275-6.585 8.275-6.585s-7.43 11.482-3.04 14.353c2.597 1.699 10.3-9.793 10.3-9.793s-8.035 12.093-3.883 14.859c3.039 2.026 9.961-9.962 9.961-9.962s-7.598 11.82-1.35 15.366c6.247 3.546 13.677-43.566 13.677-43.566l-5.403-.844z"/><path fill="none" stroke="#000" stroke-linecap="round" stroke-linejoin="round" stroke-miterlimit="10" d="M81.621 47.955s-2.976-.958-5.34 0c0 0 .536 7.596 14.139 15.969 14.567 8.966 18.813 7.71 24.699 10.148"/><path fill="none" stroke="#000" stroke-linecap="round" stroke-linejoin="round" stroke-miterlimit="10" d="M87.762 57.693c9.963 6.248 16.776 7.075 25.632 9.877 12.827 4.059 16.04 6.078 22.493 9.035 12.159 5.572 21.107 19.081 6.754 24.991M88.912 69.911s-4.864-1.918-1.149 4.161c3.714 6.079 13.002 11.313 29.55 15.197M144.062 124.375s-1.841.018-1.334-.995M141.965 107.085s-9.498 4.957-17.737 5.529"/><path fill="none" stroke="#000" stroke-linecap="round" stroke-linejoin="round" stroke-miterlimit="10" d="M131.667 89.861s-20.855 4.729-35.63-1.942c0 0 1.013 16.125 34.757 15.061M79.188 63.222s10.939 10.175 25.462 11.864c14.521 1.689 14.858 3.208 14.858 3.208M105.155 79.645s7.437 3.115 29.55 2.702M149.481 113.164s-6.249 7.139-11.146 11.211M145.005 108.858s-8.189 6.079-12.579 7.514"/><path fill="none" stroke="#000" stroke-linecap="round" stroke-linejoin="round" stroke-miterlimit="10" d="M138.716 105.48s-10.664 6.59-22.502 5.15c-6.416-.781-8.02-5.741.506-6.079 8.528-.337 18.913-1.942 23.472-4.475M113.598 96.869s13.424 1.182 24.147-1.436c0 0 3.123-.907 3.883-.833"/><path fill="#E2001B" stroke="#000" stroke-linecap="round" stroke-linejoin="round" stroke-miterlimit="10" d="M347.387 107.138c4.264-.958 9.792-3.009 9.792-3.009s-4.616 15.366-23.81 22.29l6.755.676s-6.079 11.481-27.188 16.379c-17.46 4.051-94.897-9.963-14.352-70.246 0 0 35.755-23.823 48.596-30.097 10.808-5.281 34.989-15.495 41.406-25.625 0 0 3.444 14.276-10.089 27.61l5.866-4.308s1.632 12.157-9.118 22.12l2.871-.844s-1.183 14.859-18.237 24.992c0 0 6.172-.676 8.152-2.533 0 0 1.642 10.749-18.292 21.535l-2.352 1.06z"/><path fill="none" stroke="#000" stroke-linecap="round" stroke-linejoin="round" stroke-miterlimit="10" d="M380.429 43.429s-22.688 20.005-55.503 27.267M386.914 19.713S370.18 50.938 332.016 54.99"/><path fill="none" stroke="#000" stroke-linecap="round" stroke-linejoin="round" stroke-miterlimit="10" d="M384.364 40.808s-14.802 28.143-67.376 39.428"/><path fill="none" stroke="#000" stroke-linecap="round" stroke-linejoin="round" stroke-miterlimit="10" d="M376.441 61.756s-13.439 15.356-63.842 24.136M363.002 85.048S349.58 96.53 308.209 95.179"/><path fill="none" stroke="#000" stroke-linecap="round" stroke-linejoin="round" stroke-miterlimit="10" d="M368.032 84.541s-13.05 21.446-70.292 18.744M347.387 107.138c-9.18 3.882-25.529 7.927-44.75-.138"/><path fill="none" stroke="#000" stroke-linecap="round" stroke-linejoin="round" stroke-miterlimit="10" d="M357.179 104.129s-21.106 21.783-63.829 7.599M334.734 125.86s-17.746 7.257-46.789-7.716"/><path fill="none" stroke="#000" stroke-linecap="round" stroke-linejoin="round" stroke-miterlimit="10" d="M340.124 127.095c-9.456 8.021-35.292 13.002-65.011-7.598M378.117 62.083s-20.938 24.822-66.109 30.057"/><path fill="#E2001B" stroke="#000" stroke-linecap="round" stroke-linejoin="round" stroke-miterlimit="10" d="M226.144 130.134c-19.587 22.459 7.562 56.459 11.313 55.221 4.448-1.466 1.013-15.37 1.013-15.37s5.123 17.23 9.853 15.795c4.728-1.435-.248-17.288-.248-17.288s7.124 18.745 11.335 17.195c7.035-2.588-2.068-21.515-2.068-21.515s7.076 17.801 13.551 16.113c6.851-1.787-5.697-22.4-5.697-22.4s12.057 20.824 15.998 16.829c4.702-4.77-2.929-18.405-2.929-18.405s7.204 11.82 10.527 9.963c2.578-1.441.168-6.079.168-6.079 5.235 1.689 12.327 0 12.327 0 .507-1.689-3.884-5.741-3.884-5.741s10.47.001 17.899-3.693c2.107-1.048 4.595-3.006 3.564-3.896-4.376-3.769-30.582-7.272-45.441-29.73-7.03-10.627-38.907 3.399-47.281 13.001z"/><path fill="none" stroke="#000" stroke-linecap="round" stroke-linejoin="round" stroke-miterlimit="10" d="M314.607 144.755s2.969 1.086-2.572 1.534c-8.443.679-16.66-1.801-32.421-12.496 0 0 2.026 4.616-5.403 0 0 0 4.955 8.893 1.688 12.695-1.673 1.951-8.892-7.067-8.892-7.067s9.118 12.607 4.839 15.31c-3.96 2.502-12.046-9.118-12.046-9.118s8.217 12.945 4.504 15.646c-3.352 2.437-12.27-11.703-12.27-11.703s8.588 14.324 3.938 17.444c-3.377 2.268-11.256-14.296-11.256-14.296s6.079 13.62 2.927 16.322c-3.152 2.702-11.818-17.498-11.818-17.498s7.319 15.62 2.643 18.455c-3.434 2.083-6.922-8.5-6.922-8.5"/><path fill="none" stroke="#000" stroke-linecap="round" stroke-linejoin="round" stroke-miterlimit="10" d="M298.427 154.425s-5.425 1.119-21.574-9.926c0 0 9.864 10.199 12.562 16.745"/><path fill="none" stroke="#000" stroke-linecap="round" stroke-linejoin="round" stroke-miterlimit="10" d="M301.285 160.191s-9.514-1.407-16.563-6.505"/><path fill="#E2001B" stroke="#000" stroke-linecap="round" stroke-linejoin="round" stroke-miterlimit="10" d="M235.768 106.832s10.977 7.429 18.406-1.52c0 0-13.34-21.276 13.51-37.318 26.849-16.042 76.661-18.912 81.221-30.226 0 0-1.856 13.002-19.082 26.511 0 0 8.443 2.195-15.534 23.64 0 0 5.91-3.883 6.755 0 .844 3.883-14.354 15.028-20.432 15.535 0 0 10.637-1.013 3.882 5.572-6.753 6.585-18.574 3.546-18.574 3.546s9.288 5.235 8.95 8.274c0 0-5.74 3.208-17.055 0 0 0 1.116 2.718 2.871 5.91.836 1.522.674 9.625-13.678-2.364 0 0-1.857.337-3.716-1.857 0 0 3.79 7.188 1.013 10.47-1.857 2.195-8.272-6.585-8.272-6.585s7.429 11.482 3.04 14.353c-2.6 1.699-10.302-9.793-10.302-9.793s8.036 12.093 3.884 14.859c-3.039 2.026-9.963-9.962-9.963-9.962s7.599 11.82 1.352 15.366c-6.248 3.546-13.679-43.566-13.679-43.566l5.403-.845z"/><path fill="none" stroke="#000" stroke-linecap="round" stroke-linejoin="round" stroke-miterlimit="10" d="M328.705 47.955s2.976-.958 5.34 0c0 0-.536 7.596-14.141 15.969-14.567 8.966-18.811 7.71-24.698 10.148"/><path fill="none" stroke="#000" stroke-linecap="round" stroke-linejoin="round" stroke-miterlimit="10" d="M322.563 57.693c-9.963 6.248-16.777 7.075-25.631 9.877-12.829 4.059-16.039 6.078-22.495 9.035-12.157 5.572-21.107 19.081-6.753 24.991M321.412 69.911s4.865-1.918 1.15 4.161c-3.716 6.079-13.002 11.313-29.552 15.197M266.266 124.375s1.839.018 1.332-.995M268.357 107.085s9.498 4.957 17.74 5.529"/><path fill="none" stroke="#000" stroke-linecap="round" stroke-linejoin="round" stroke-miterlimit="10" d="M278.659 89.861s20.854 4.729 35.629-1.942c0 0-1.013 16.125-34.757 15.061M331.139 63.222s-10.94 10.175-25.463 11.864c-14.521 1.689-14.859 3.208-14.859 3.208M305.17 79.645s-7.438 3.115-29.551 2.702M260.845 113.164s6.247 7.139 11.144 11.211M265.318 108.858s8.189 6.079 12.58 7.514"/><path fill="none" stroke="#000" stroke-linecap="round" stroke-linejoin="round" stroke-miterlimit="10" d="M271.609 105.48s10.663 6.59 22.502 5.15c6.414-.781 8.02-5.741-.507-6.079-8.528-.337-18.913-1.942-23.472-4.475M296.727 96.869s-13.424 1.182-24.146-1.436c0 0-3.124-.907-3.884-.833"/><path fill="#E2001B" stroke="#000" stroke-linecap="round" stroke-linejoin="round" stroke-miterlimit="10" d="M193.976 84.598s1.013 6.754-6.417 11.032c-7.43 4.277-9.569 3.94-13.958 0 0 0-1.915 3.94 0 6.191 0 0-1.351 3.039 2.251 6.979 0 0-7.093 8.331-7.43 20.376-.337 12.046.9 21.727-2.702 23.64 0 0 2.702 1.464 5.292.451 0 0 1.125 11.032 3.04 17.112 2.724 8.655 7.767 17.335 5.065 28.256 0 0 12.252 1.8 14.908-12.608 0 0-.834 5.74 3.104 10.467 3.939 4.727 8.78 9.907 8.78 11.372 0 0 4.279-6.643 6.755-9.007 2.478-2.363 5.292-6.303 5.292-13.396 0 0-.338 12.383 15.086 13.509 0 0-3.49-3.263-.902-12.608 2.59-9.344 7.865-33.543 8.314-37.708 0 0 2.416.936 4.07 1.124 0 0-2.703-7.205-2.139-10.582.564-3.376-.9-23.414-6.417-27.467 0 0 4.052-2.364 4.052-8.442 0 0 .113-2.477-.674-3.94 0 0-1.126 4.391-4.729 4.166-3.603-.225-6.306-3.152-6.528-6.979-.226-3.826 1.013-11.482 0-15.084 0 0 3.15.788 5.065 0 1.914-.788 2.927-2.477 2.927-2.477s-3.827.45-4.839-3.04c-1.014-3.489-5.967-11.032-8.443-12.496 0 0 7.316-3.376 3.715-13.846 0 0-3.941 4.841-12.496 4.841s-23.865-.788-25.891-.788-6.306 4.39-7.319 6.192c-1.013 1.801.212 4.123 15.423 13.509 5.292 3.264 5.516 11.144 5.516 11.144l-7.771.107z"/><path fill="none" stroke="#000" stroke-linecap="round" stroke-linejoin="round" stroke-miterlimit="10" d="M177.315 145.5s-.22 5.795 4.727 15.76c3.522 7.092 4.842 15.985.677 19.139 0 0 3.04 3.152 9.005-4.391l1.239 1.013s3.377-3.152 3.826-5.404c0 0 1.952 4.374 4.165 6.529 2.828 2.751 5.178 6.305 5.178 6.305s2.268-2.844 4.617-5.63c1.434-1.701 4.277-6.529 4.277-6.529s2.252 4.617 3.826 5.742l.788-1.463s4.165 5.84 9.231 4.277c0 0-3.555-3.202-2.702-7.542 2.591-13.17 8.513-22.81 8.176-27.539"/><path fill="none" stroke="#000" stroke-linecap="round" stroke-linejoin="round" stroke-miterlimit="10" d="M196.514 172.452s1.625-3.649 1.514-14.907M215.37 172.967s-1.583-2.14-1.245-13.847M228.198 140.884s5.958 5.738 12.253 7.769M175.513 108.413s2.086 2.132 5.461 2.639c3.378.506 10.133.337 13.255-.676"/><path fill="none" stroke="#000" stroke-linecap="round" stroke-linejoin="round" stroke-miterlimit="10" d="M186.379 111.322s-11.232 10.875-6.84 23.287"/><path fill="none" stroke="#000" stroke-linecap="round" stroke-linejoin="round" stroke-miterlimit="10" d="M189.939 111.134s-6.862 5.837-7.954 15.284c-1.773 15.366 7.956 24.653 7.954 34.701 0 0 4.122-3.546 5.135-5.572l2.2 2.533 3.749-4.276"/><path fill="none" stroke="#000" stroke-linecap="round" stroke-linejoin="round" stroke-miterlimit="10" d="M196.514 141.785s-.174 5.403 2.273 8.781c2.45 3.376 7.345 10.891 7.43 12.833 0 0 1.181-4.896 2.786-6.923 1.604-2.026 4.306-6.417 4.727-14.691"/><path fill="none" stroke="#000" stroke-linecap="round" stroke-linejoin="round" stroke-miterlimit="10" d="M205.836 158.502s.548-2.702 0-5.572M211.582 152.032s2.252 2.755 2.498 4.106l1.321-1.604s4.494 5.995 8.549 5.741c0 0-1.858-6.416 0-9.877 1.856-3.462 3.629-20.248.76-27.432"/><path fill="none" stroke="#000" stroke-linecap="round" stroke-linejoin="round" stroke-miterlimit="10" d="M226.211 135.032s1.284 1.347 2.383 1.094c0 0 1.013-17.42-7.431-24.366M202.84 148.655s-8.779-6.87-2.954-27.133M173.601 101.821s1.912 4.503 8.169 3.237M178.52 99.316c2.115 1.426 5.999 1.436 10.812-2.617s5.487-8.321 5.404-10.216M194.284 95.378c1.877-2.915 3.228-6.555 2.896-10.828M185.786 103.552s2.501-1.421 5.165-4.08"/><path fill="none" stroke="#000" stroke-linecap="round" stroke-linejoin="round" stroke-miterlimit="10" d="M219.895 98.303c.424 6.754-4.474 14.522-7.177 16.632-2.7 2.11-4.059 6.585-4.059 6.585-1.864-1.436-1.597-4.896-1.597-4.896-3.378 2.956-1.943 9.71-1.943 9.71-9.878-7.008-8.441-14.775-7.231-18.997 1.211-4.221 9.934-15.281 10.694-20.263s-4.305-9.372-4.305-9.372 7.513-1.52 13.002 2.28c5.486 3.799-.507 9.455-.507 9.455s6.858 2.072 10.306-5.994c1.552-3.632-1.188-8.275-4.031-10.527-4.104-3.253-7.486-2.21-7.486-2.21"/><path fill="none" stroke="#000" stroke-linecap="round" stroke-linejoin="round" stroke-miterlimit="10" d="M216.673 109.871s9.547 5.572 19.293 1.857M221.161 89.325s-2.382 8.725 5.056 13.2c7.439 4.475 10.906 1.438 12.424-1.52M233.91 108.013s6.143-.91 5.898-7.293M209.016 62.457s10.449-2.656 14.884 1.862"/><path fill="#FFF" stroke="#000" stroke-linecap="round" stroke-linejoin="round" stroke-miterlimit="10" stroke-width="1.333" d="M196.265 61.871a2.873 2.873 0 1 1-4.566-.046"/><path fill="none" stroke="#000" stroke-linecap="round" stroke-linejoin="round" stroke-miterlimit="10" stroke-width=".75" d="M193.802 66.683h11.318"/><circle cx="193.964" cy="63.644" r="1.401"/><path fill="#E2001B" stroke="#000" stroke-linecap="round" stroke-linejoin="round" stroke-miterlimit="10" d="M188.235 58.819s.056 3.14 4.614 3.146c4.559.006 11.231-.388 13.903 1.244 2.256 1.377 8.809 5.517 7.994 11.032 0 0 3.656-4.953-4.503-10.976-8.161-6.023-19.509-.676-22.008-4.446z"/><path fill="#FFF" stroke="#000" stroke-linecap="round" stroke-linejoin="round" stroke-miterlimit="10" d="M171.293 75.93s-5.968-4.671-5.124-10.975c.845-6.304 9.307-7.974 14.09-7.073 0 0 1.127-3.059 3.81-1.482 0 0-1.632 5.629 1.464 7.993 3.095 2.363 18.236 6.417 18.292 22.346 0 0-1.293-1.238-4.559-1.238h-13.338s-5.124.958-7.094-3.49c0 0 3.239 1.295 6.122 1.125 2.885-.169 13.974-.169 16 .507 0 0-6.923-15.817-14.916-9.738 0 0-2.196-5.403-8.049-5.01-5.855.393-6.81 5.121-6.698 7.035z"/><path fill="#FFF" stroke="#000" stroke-linecap="round" stroke-linejoin="round" stroke-miterlimit="10" d="M162.061 73.115s5.113 5.402 10.133 4.222c5.599-1.317 15.478-5.122 26.262 2.022l1.239 2.02s-6.226-4.042-13.26-2.409c-5.177 1.199-21.954 7.374-24.374-5.855z"/><path fill="none" stroke="#000" stroke-linecap="round" stroke-linejoin="round" stroke-miterlimit="10" d="M180.257 57.878c-.528 1.268-.763 3.493 2.574 5.442M169.322 269.442s.845-7.599 1.267-9.878c.4-2.163 3.23-13.131 8.202-19.803M165.063 244.831l-6.658 20.333s-.565 1.916-2.365 3.828c0 0-3.181 1.039-8.922 1.545M256.248 268.994c-1.801-1.916-2.365-3.829-2.365-3.829l-6.25-19.085M233.436 239.68c5.008 6.665 7.861 17.713 8.262 19.884.422 2.281 1.266 9.88 1.266 9.88"/></svg>