<?xml version="1.0" encoding="UTF-8" standalone="no"?>
<!-- Created with Inkscape (http://www.inkscape.org/) -->

<svg
   xmlns:dc="http://purl.org/dc/elements/1.1/"
   xmlns:cc="http://creativecommons.org/ns#"
   xmlns:rdf="http://www.w3.org/1999/02/22-rdf-syntax-ns#"
   xmlns:svg="http://www.w3.org/2000/svg"
   xmlns="http://www.w3.org/2000/svg"
   xmlns:sodipodi="http://sodipodi.sourceforge.net/DTD/sodipodi-0.dtd"
   xmlns:inkscape="http://www.inkscape.org/namespaces/inkscape"
   id="svg2816"
   version="1.1"
   inkscape:version="0.47 r22583"
   width="410"
   height="490"
   sodipodi:docname="gerb gatchina rayon var3.svg"
   style="display:inline">
  <title
     id="title4041">Герб Гатчинского района</title>
  <metadata
     id="metadata2822">
    <rdf:RDF>
      <cc:Work
         rdf:about="">
        <dc:format>image/svg+xml</dc:format>
        <dc:type
           rdf:resource="http://purl.org/dc/dcmitype/StillImage" />
        <dc:title>Герб Гатчинского района</dc:title>
        <dc:date>2010-08-04</dc:date>
        <dc:creator>
          <cc:Agent>
            <dc:title>Art-top (Артем Топчий)</dc:title>
          </cc:Agent>
        </dc:creator>
        <dc:source></dc:source>
        <dc:language>ru</dc:language>
        <dc:subject>
          <rdf:Bag>
            <rdf:li>Гатчинский район</rdf:li>
            <rdf:li>герб</rdf:li>
          </rdf:Bag>
        </dc:subject>
        <dc:description>Герб Гатчинского муниципального района Ленинградской области</dc:description>
        <cc:license
           rdf:resource="http://creativecommons.org/licenses/publicdomain/" />
        <dc:rights>
          <cc:Agent>
            <dc:title>Art-top (Артем Топчий)</dc:title>
          </cc:Agent>
        </dc:rights>
      </cc:Work>
      <cc:License
         rdf:about="http://creativecommons.org/licenses/publicdomain/">
        <cc:permits
           rdf:resource="http://creativecommons.org/ns#Reproduction" />
        <cc:permits
           rdf:resource="http://creativecommons.org/ns#Distribution" />
        <cc:permits
           rdf:resource="http://creativecommons.org/ns#DerivativeWorks" />
      </cc:License>
    </rdf:RDF>
  </metadata>
  <defs
     id="defs2820" />
  <sodipodi:namedview
     pagecolor="#ffffff"
     bordercolor="#666666"
     borderopacity="1"
     objecttolerance="10"
     gridtolerance="10"
     guidetolerance="10"
     inkscape:pageopacity="0"
     inkscape:pageshadow="2"
     inkscape:window-width="1440"
     inkscape:window-height="851"
     id="namedview2818"
     showgrid="false"
     inkscape:zoom="0.80229425"
     inkscape:cx="-122.79553"
     inkscape:cy="239.35065"
     inkscape:window-x="-4"
     inkscape:window-y="-4"
     inkscape:window-maximized="1"
     inkscape:current-layer="svg2816"
     showborder="true" />
  <path
     style="fill:#de2119;fill-opacity:1;stroke:none;display:inline"
     d="m 138.72775,378.64459 c -11.05241,4.47946 -22.48631,8.03924 -34.25356,10.01378 -28.566625,5.29855 -58.921228,4.39949 -86.084434,-6.14022 -2.761681,-0.80467 -6.131317,-3.377 -8.9952769,-3.73949 0.266229,3.38098 1.2405149,5.8945 2.0536209,8.18931 5.071529,14.99315 13.297434,29.21989 25.6678,39.25784 15.636657,12.89378 33.750287,24.87697 54.407392,27.01224 26.461508,1.29361 53.062748,0.20839 79.501008,1.548 10.58224,0.83805 19.56877,8.25795 26.18889,16.08822 2.91116,3.01594 4.96788,8.46912 7.70746,11.7901 1.80833,-2.85932 2.81471,-4.89998 4.21292,-6.30349 7.56699,-12.33546 20.68992,-22.46748 35.61673,-21.93825 25.29784,-0.82585 50.70635,-0.18871 75.94455,-1.44369 14.34815,-1.51506 27.32375,-8.86447 39.22979,-16.60465 11.60677,-7.85038 22.89176,-16.95756 29.80379,-29.38212 4.67338,-7.93543 11.46111,-27.63092 11.46111,-27.63092 0,0 -4.78557,1.46784 -6.21099,2.13233 -17.77305,7.36246 -37.14838,10.95707 -56.42669,10.27213 -21.59034,-0.43582 -43.34343,-4.19528 -63.33681,-12.40101 -3.77839,-2.02299 -7.65334,1.52764 -11.29812,2.33697 -27.39675,10.41709 -57.59996,12.24234 -86.47155,7.94844 -13.30768,-2.00844 -26.09146,-6.79396 -38.71763,-11.00582 l 0,3e-4 z"
     id="path4596"
     sodipodi:nodetypes="ccccccccccccccccccccccc" />
  <path
     style="fill:#0063ad;fill-opacity:1;stroke:none;display:inline"
     d="m 6.8846151,7.3257187 c -0.579671,29.0274603 -0.08195,58.2297303 -0.248016,87.3243003 0,89.158141 0,178.316241 0,267.474391 4.7022189,3.79228 11.2339149,5.39213 16.9553019,7.50811 26.978948,8.67581 56.146864,8.82499 83.784439,3.72024 10.69412,-2.32392 21.16104,-6.11952 31.25006,-10.39414 19.91507,8.06725 41.12006,14.07472 62.81579,13.09979 15.45458,0.26842 31.06385,0.0474 45.97068,-4.47237 8.80118,-2.27539 17.29883,-5.54224 25.79625,-8.76269 14.67082,7.17376 31.01669,10.14295 47.05547,12.53612 26.60239,2.74123 54.66656,0.68062 79.04957,-10.8902 5.693,-0.91644 4.1815,-6.6182 4.28391,-10.82252 0,-115.19234 0,-230.38465 0,-345.5769813 -2.69882,-2.692429 -8.21862,-0.38243 -11.97244,-1.14989 -127.94637,0 -255.89275,0 -383.8391369,0 l -0.657953,0.29607 -0.243925,0.10963 z"
     id="path4600"
     sodipodi:nodetypes="ccccccccccccccccc" />
  <path
     style="fill:#f7c500;fill-opacity:1;stroke:#b58c08;stroke-width:2.31542826px;stroke-linecap:butt;stroke-linejoin:miter;stroke-opacity:1;display:inline"
     d="m 298.0784,134.99289 0,0 z"
     id="path3001" />
  <path
     style="fill:#f7c500;fill-opacity:1;stroke:#b58c08;stroke-width:2.31542826px;stroke-linecap:butt;stroke-linejoin:miter;stroke-opacity:1;display:inline"
     d="m 294.67687,118.06128 0,0 z"
     id="path2986" />
  <path
     id="path3024"
     style="fill:#f7c500;fill-opacity:1;stroke:#b58c08;stroke-width:2.31542826px;stroke-linecap:butt;stroke-linejoin:miter;stroke-opacity:1;display:inline"
     d="m 321.4628,122.16803 c -2.70738,-4.47532 -6.19645,-7.84798 -10.57169,-10.71432 -2.94281,-1.92792 -10.13549,-2.94353 -10.13549,-2.94353 l -29.08758,-41.460631 -4.34141,0.21696 -1.51951,3.76256 27.53345,38.857841 c 0.34199,7.57495 -0.74467,14.74421 2.55077,22.33257 4.93484,9.30299 19.96964,12.71428 25.81114,13.08576 2.01879,-5.44093 4.68166,-15.00235 -0.23968,-23.13733 z m -5.7806,-6.97162 -31.49636,-48.870421 0,0 -5.96999,0.18152 28.53138,43.248581 m -13.6868,9.64078 -29.35166,-43.230201 -2.89427,7.16335 36.36629,51.059511" />
  <path
     style="fill:#f7c500;fill-opacity:1;stroke:#b58c08;stroke-width:2.31542826px;stroke-linecap:butt;stroke-linejoin:miter;stroke-opacity:1;display:inline"
     d="m 312.72167,64.707629 -7.30806,0.43415 31.91363,50.799861 c -3.76283,7.75682 -8.07409,15.76755 -11.54251,23.8205 -1.74819,4.94097 -2.22066,11.44388 -0.25584,17.85206 1.96482,6.40815 4.57244,13.31233 10.05765,13.38607 10.89761,-4.55053 16.25145,-24.86381 16.85921,-35.81681 -0.39143,-7.4293 -7.81458,-18.95756 -7.81458,-18.95756 l -31.9095,-51.518271 z m 18.66816,63.203431 3.61785,-7.19281 -38.13221,-55.142321 -5.93329,0.36178 40.44765,61.973351 z"
     id="path3803"
     sodipodi:nodetypes="cccczccccccccc" />
  <path
     style="fill:#f7c500;fill-opacity:1;stroke:#b58c08;stroke-width:2.31542826px;stroke-linecap:butt;stroke-linejoin:miter;stroke-opacity:1;display:inline"
     d="m 258.89756,88.157949 -2.47904,6.36845 30.37216,44.880291 c 2.27505,0.18571 4.72966,0.39912 7.52516,0.72357 L 258.89756,88.157949 z m 35.41828,51.972311 -7.52516,-0.72357 c -3.31113,-0.27014 -5.93328,-0.43414 -5.93328,-0.43414 l -26.44601,-39.816316 -2.60485,6.457586 25.07122,38.35138 c 1.08367,1.70053 6.90822,14.80601 16.13564,20.4047 9.22742,5.59868 35.55781,9.32761 37.91514,7.23572 1.60111,-1.42086 -4.98397,-14.93568 -9.26172,-19.82586 -4.27774,-4.89018 -7.53377,-6.67257 -14.39906,-9.18935 -2.88474,-1.05752 -7.97749,-1.88282 -12.95192,-2.46015 z"
     id="path2972"
     sodipodi:nodetypes="cccccccccccssssc" />
  <path
     style="fill:#f7c500;fill-opacity:1;stroke:#b58c08;stroke-width:2.31542826px;stroke-linecap:butt;stroke-linejoin:miter;stroke-opacity:1;display:inline"
     d="m 341.90963,197.42853 c -3.5287,-2.11233 -8.20701,-23.54644 -2.54976,-31.07926 9.58261,-12.75954 14.79952,-26.4935 17.0899,-26.18835 2.29037,0.30514 6.54822,20.95263 4.58206,32.69031 -2.41029,14.38923 -15.59348,26.68961 -19.1222,24.5773 z"
     id="path3883"
     sodipodi:nodetypes="cszsz" />
  <path
     style="fill:#f7c500;fill-opacity:1;stroke:#b58c08;stroke-width:2.31542826px;stroke-linecap:butt;stroke-linejoin:miter;stroke-opacity:1;display:inline"
     d="m 348.63535,222.89406 c -2.47972,-2.60967 -8.8819,-23.62643 -0.43012,-32.48638 11.83634,-12.40802 16.39194,-23.96146 19.6143,-23.39707 3.22237,0.56438 5.14414,21.41972 1.88778,32.95584 -3.98432,14.11499 -18.59221,25.53726 -21.07196,22.92761 z"
     id="path3883-1"
     sodipodi:nodetypes="cszsz" />
  <path
     style="fill:#f7c500;fill-opacity:1;stroke:#b58c08;stroke-width:2.38735795px;stroke-linecap:butt;stroke-linejoin:miter;stroke-opacity:1;display:inline"
     d="m 340.27433,195.44684 c -1.26959,4.95891 -16.79574,5.47421 -29.21617,-3.01689 -10.34395,-7.07153 -19.6091,-21.62112 -18.54863,-24.06469 1.06049,-2.44363 7.42532,2.18885 30.31295,3.42374 11.28133,0.6087 18.72141,18.69896 17.45185,23.65784 z"
     id="path3883-1-7-8-8-2"
     sodipodi:nodetypes="cszsz" />
  <path
     style="fill:#f7c500;fill-opacity:1;stroke:#b58c08;stroke-width:2.42954731px;stroke-linecap:butt;stroke-linejoin:miter;stroke-opacity:1;display:inline"
     d="m 346.3356,221.93362 c -0.19425,5.71063 -16.56636,7.411 -26.89935,-3.95645 -8.90907,-9.80102 -17.40112,-22.93655 -16.21868,-25.62103 1.18247,-2.68446 15.27241,2.48886 29.38716,5.5549 11.70221,2.54198 13.92516,18.31193 13.73087,24.02258 z"
     id="path3883-1-7-8-8"
     sodipodi:nodetypes="cszsz" />
  <path
     style="fill:#f7c500;fill-opacity:1;stroke:#b58c08;stroke-width:2.31542826px;stroke-linecap:butt;stroke-linejoin:miter;stroke-opacity:1;display:inline"
     d="m 322.50177,255.99786 c -4.49989,2.18111 -7.72706,4.77927 -8.56397,7.77989 -0.37305,1.3376 -0.29194,2.5318 0.16583,3.59367 2.73038,6.33385 18.86088,7.96023 31.94108,7.22885 15.45296,-0.86408 41.37417,-7.99826 43.10974,-18.93944 0.14609,-0.92177 0.15055,-1.7512 0.0268,-2.49671 l 3e-5,0 0,0 c -0.45149,-2.72085 -2.60917,-4.32319 -5.80444,-5.21249 l -8.36548,-5.32509 -48.97197,6.8543 -3.53765,6.51702 z"
     id="path3999" />
  <path
     style="fill:#f7c500;fill-opacity:1;stroke:#b58c08;stroke-width:2.31542826px;stroke-linecap:butt;stroke-linejoin:miter;stroke-opacity:1;display:inline"
     d="m 353.3943,250.27162 c -3.50409,-2.83275 -6.03642,-22.9819 1.86207,-30.28997 7.37573,-6.82437 18.12299,-24.35716 20.60942,-24.3545 2.30607,0.001 3.52771,21.66671 -0.0742,33.00974 -4.41559,13.90545 -16.61013,24.59282 -22.39732,21.63473 l -7e-5,0 z"
     id="path3883-1-4"
     sodipodi:nodetypes="cszszc" />
  <path
     style="fill:#f7c500;fill-opacity:1;stroke:#b58c08;stroke-width:2.31542826px;stroke-linecap:butt;stroke-linejoin:miter;stroke-opacity:1;display:inline"
     d="m 350.52311,249.43973 c -0.84196,2.8734 -16.52153,1.91658 -26.45854,-8.68038 -9.35963,-9.98121 -14.29519,-22.89868 -12.75704,-25.14521 1.53813,-2.24653 15.78605,6.36373 28.46553,8.91619 12.32977,2.48208 11.59201,22.03599 10.75005,24.9094 z"
     id="path3883-1-7-8"
     sodipodi:nodetypes="cszsz" />
  <path
     style="fill:#f7c500;fill-opacity:1;stroke:#b58c08;stroke-width:2.31542826px;stroke-linecap:butt;stroke-linejoin:miter;stroke-opacity:1;display:inline"
     d="m 357.62845,280.2861 c -4.1722,-0.51207 -6.18603,-25.79754 3.98481,-34.19341 7.15798,-5.90877 17.64604,-20.54911 20.22829,-19.702 2.5823,0.84709 2.75718,21.743 -1.13318,32.99037 -4.43622,12.82551 -18.90772,21.41711 -23.07992,20.90504 z"
     id="path3883-1-0"
     sodipodi:nodetypes="cszsz" />
  <path
     style="fill:#f7c500;fill-opacity:1;stroke:#b58c08;stroke-width:2.31542826px;stroke-linecap:butt;stroke-linejoin:miter;stroke-opacity:1;display:inline"
     d="m 354.04267,277.26639 c -2.33961,4.16329 -17.75915,2.81277 -25.43891,-9.51853 -6.6215,-10.63202 -12.08718,-24.14789 -10.40163,-26.20747 1.68558,-2.05957 16.97799,3.95463 27.52979,11.48455 7.41953,5.29468 10.65034,20.07814 8.31075,24.24145 z"
     id="path3883-1-7"
     sodipodi:nodetypes="cszsz" />
  <path
     style="fill:#f7c500;fill-opacity:1;stroke:#b58c08;stroke-width:2.31542826px;stroke-linecap:round;stroke-linejoin:miter;stroke-opacity:1;display:inline"
     d="m 316.47245,270.21985 c 1.26261,1.9105 7.20756,13.62165 0.72148,28.67973 -6.48609,15.05803 -29.72283,28.35601 -48.52101,26.69558 -16.16708,-1.42802 -32.23599,-15.34697 -37.77228,-15.62494 -1.40632,-5.13338 -2.06658,-5.44925 -6.9609,-8.54538 -1.318,-0.83376 -6.22211,1.38771 -7.75613,0 -1.53403,-1.3877 1.95651,-4.4788 -0.7215,-5.23088 -2.67807,-0.75206 -8.42974,6.17852 -7.21504,8.83842 1.2147,2.6599 4.98534,-0.94271 5.23091,0 0.24553,0.94271 0.10621,6.09152 0.90188,7.03464 3.71077,4.39858 4.79797,6.58369 9.62223,6.19333 0.10539,5.10773 14.18764,11.97894 26.63329,19.2396 19.41144,11.32452 56.67278,15.12702 81.06622,2.59567 18.38504,-9.44472 29.38851,-20.05144 38.34236,-35.78475 8.95386,-15.73334 14.62593,-41.3962 14.61041,-41.3962 0,0 -6.41487,7.9227 -31.91937,11.09721 -25.51538,3.1759 -36.26255,-3.79203 -36.26255,-3.79203 z"
     id="path3657"
     sodipodi:nodetypes="czscszzzzscsszczc" />
  <path
     style="fill:#f7c500;fill-opacity:1;stroke:#b58c08;stroke-width:2.31542826px;stroke-linecap:round;stroke-linejoin:miter;stroke-opacity:1;display:inline"
     d="m 316.20894,301.24862 c 0,0 0.15193,7.25994 14.24968,14.24967 13.15148,6.52055 27.21614,5.24858 28.81499,3.92319"
     id="path3690"
     sodipodi:nodetypes="css" />
  <path
     style="fill:#f7c500;fill-opacity:1;stroke:#b58c08;stroke-width:2.31542826px;stroke-linecap:round;stroke-linejoin:miter;stroke-opacity:1;display:inline"
     d="m 310.07618,308.82439 c -0.10211,-0.0795 -1.09616,5.95152 11.36366,15.87304 14.4328,11.49255 26.4701,5.28415 23.89974,6.85427"
     id="path3692"
     sodipodi:nodetypes="csc" />
  <path
     style="fill:#f7c500;fill-opacity:1;stroke:#b58c08;stroke-width:2.31542826px;stroke-linecap:round;stroke-linejoin:miter;stroke-opacity:1;display:inline"
     d="m 272.73845,325.77968 c 0,0 -2.43988,0.12332 -3.24677,9.0188 -0.78681,8.67459 1.98413,10.28141 1.98413,10.28141"
     id="path3694"
     sodipodi:nodetypes="csc" />
  <path
     style="fill:#f7c500;fill-opacity:1;stroke:#b58c08;stroke-width:2.31542826px;stroke-linecap:round;stroke-linejoin:miter;stroke-opacity:1;display:inline"
     d="m 263.71968,325.0582 c 0,0 -2.41485,0.90269 -4.329,7.21503 -1.68194,5.54662 0,8.83838 0,8.83838"
     id="path3696"
     sodipodi:nodetypes="csc" />
  <path
     style="fill:#f7c500;fill-opacity:1;stroke:#b58c08;stroke-width:2.31542826px;stroke-linecap:round;stroke-linejoin:miter;stroke-opacity:1;display:inline"
     d="m 230.35019,325.41895 c 0,0 -0.53509,-4.59481 2.70564,-8.47765 3.27955,-3.92937 6.49352,-2.88602 6.49352,-2.88602"
     id="path3698"
     sodipodi:nodetypes="csc" />
  <path
     style="fill:#f7c500;fill-opacity:1;stroke:#b58c08;stroke-width:2.31542826px;stroke-linecap:round;stroke-linejoin:miter;stroke-opacity:1;display:inline"
     d="m 224.03706,317.84317 c 0,0 0.14317,-2.85422 2.34489,-5.41126 2.96778,-3.44683 4.68975,-3.06639 4.68975,-3.06639"
     id="path3700"
     sodipodi:nodetypes="csc" />
  <path
     style="fill:#f7c500;fill-opacity:1;stroke:#b58c08;stroke-width:2.31542826px;stroke-linecap:round;stroke-linejoin:miter;stroke-opacity:1;display:inline"
     d="m 213.39489,304.85613 c 0.90188,-1.8186 1.80378,-2.7313 2.70565,-3.60751"
     id="path3702"
     sodipodi:nodetypes="cc" />
  <path
     style="fill:#f7c500;fill-opacity:1;stroke:#b58c08;stroke-width:2.31542826px;stroke-linecap:round;stroke-linejoin:miter;stroke-opacity:1;display:inline"
     d="m 318.98832,276.58441 c 0,0 6.38229,9.92148 33.18908,9.37952 24.17292,-0.4851 28.86011,-10.46176 28.86011,-10.46176"
     id="path3688"
     sodipodi:nodetypes="csc" />
  <path
     transform="matrix(2.2419884,0.60377753,-0.48290974,1.7954041,57.767667,11.191199)"
     sodipodi:type="arc"
     style="fill:#f7c500;fill-opacity:1;fill-rule:evenodd;stroke:#b58c08;stroke-width:0.55720901;stroke-linecap:round;stroke-miterlimit:4;stroke-opacity:1;stroke-dasharray:none;display:inline"
     id="path4001-8"
     sodipodi:cx="122.56356"
     sodipodi:cy="141.51271"
     sodipodi:rx="0.49576271"
     sodipodi:ry="0.49576271"
     d="m 123.05932,141.51271 a 0.49576271,0.49576271 0 1 1 -2.5e-4,-0.0159"
     sodipodi:start="0"
     sodipodi:end="6.2511355"
     sodipodi:open="true" />
  <path
     transform="matrix(2.4672198,0.45254685,-0.3713205,2.0243855,14.849481,-8.1935209)"
     sodipodi:type="arc"
     style="fill:#f7c500;fill-opacity:1;fill-rule:evenodd;stroke:#b58c08;stroke-width:0.5095247;stroke-linecap:round;stroke-miterlimit:4;stroke-opacity:1;stroke-dasharray:none;display:inline"
     id="path4001-2"
     sodipodi:cx="122.56356"
     sodipodi:cy="141.51271"
     sodipodi:rx="0.49576271"
     sodipodi:ry="0.49576271"
     d="m 123.05932,141.51271 a 0.49576271,0.49576271 0 1 1 -2.5e-4,-0.0159"
     sodipodi:start="0"
     sodipodi:end="6.2511355"
     sodipodi:open="true" />
  <path
     transform="matrix(2.2246621,0.62791457,-0.5189454,1.6617505,67.031445,16.432789)"
     sodipodi:type="arc"
     style="fill:#f7c500;fill-opacity:1;fill-rule:evenodd;stroke:#b58c08;stroke-width:0.57722247;stroke-linecap:round;stroke-miterlimit:4;stroke-opacity:1;stroke-dasharray:none;display:inline"
     id="path4001-5"
     sodipodi:cx="122.56356"
     sodipodi:cy="141.51271"
     sodipodi:rx="0.49576271"
     sodipodi:ry="0.49576271"
     d="m 123.05932,141.51271 a 0.49576271,0.49576271 0 1 1 -2.5e-4,-0.0159"
     sodipodi:start="0"
     sodipodi:end="6.2511355"
     sodipodi:open="true" />
  <path
     style="fill:#f7c500;fill-opacity:1;stroke:#b58c08;stroke-width:2.31542826px;stroke-linecap:butt;stroke-linejoin:miter;stroke-opacity:1;display:inline"
     d="m 89.9788,256.31975 c 5.201671,2.36001 9.083105,5.64459 8.398173,11.37356 -2.730377,6.33386 -18.860877,7.96021 -31.941077,7.22883 -15.452958,-0.86406 -41.374177,-7.99825 -43.109752,-18.93941 -0.63628,-4.12157 2.975528,-6.78252 6.542816,-7.58168 10.21204,-2.28769 23.06923,-0.53014 33.874459,1.43481 10.805226,1.96493 18.475866,3.33697 26.235381,6.48389 z"
     id="path3999-8"
     sodipodi:nodetypes="ccscszc" />
  <path
     style="fill:#f7c500;fill-opacity:1;stroke:#b58c08;stroke-width:2.31542826;stroke-opacity:1;display:inline"
     d="m 143.6323,65.266769 -9.6235,0.28942 -2.17071,13.53079 c -1.63529,3.69209 -2.87121,3.03763 -4.84793,3.03899 l 0,-16.49742 -4.63086,0.14472 0.72358,24.52906 c -0.80047,2.74101 -2.09636,2.95588 -4.5585,3.03901 l -0.79593,-27.56807 -6.15036,0.21694 4.99264,33.356645 c -0.58127,2.650726 -1.88407,2.982256 -4.26907,3.111376 l -5.42678,-36.468021 -5.86093,0.14472 c 3.27447,13.82426 6.58335,27.64666 9.91293,41.460621 -0.657,3.55167 -2.13008,3.04816 -3.97965,3.32842 C 103.32577,96.039494 99.830865,81.132109 96.383093,66.207279 l -1.664214,0.0723 c -1.014751,1.30478 -1.859167,2.73371 -2.74957,4.12435 l 12.879571,47.032131 c -0.18658,2.63764 -1.62404,3.07081 -3.90729,3.40079 L 88.64088,75.613649 c -0.911065,1.49401 -1.739838,2.98559 -2.821928,4.77558 l 12.807212,47.755681 c -0.152006,2.64182 -1.462785,3.12191 -3.76257,3.47314 L 82.562882,85.815999 c -1.178456,1.97685 -2.360288,3.97532 -3.617857,6.15036 l 13.458426,47.828071 c -0.466025,3.80039 -1.829365,3.29353 -3.690214,3.6902 L 75.761311,97.537864 c -0.978429,1.72341 -1.954853,3.446556 -2.966643,5.282076 l 15.12264,46.3809 c -0.05807,2.65623 -1.358286,3.27258 -3.617855,3.90729 L 69.828026,108.46377 c -1.291314,2.40808 -2.636342,4.76771 -3.907286,7.23573 l 17.003927,44.86142 c 0.110264,2.68942 -1.113004,3.3374 -3.400785,3.97962 L 63.098814,121.34332 c -0.688004,1.37751 -1.431198,2.74383 -2.098358,4.12436 l 17.944569,45.51264 c 0.131275,2.7944 -1.112561,3.48973 -3.400786,4.34141 L 58.323243,131.32859 c -1.262418,2.75448 -2.480092,5.47288 -3.617857,8.17635 l 19.898212,44.42727 c 0.337476,2.65812 -0.800893,3.37535 -2.966644,4.26907 L 52.462315,145.36587 c -0.789678,1.9715 -1.662431,3.9146 -2.315428,5.78856 l 21.562426,42.9078 c 0.381183,2.69589 -0.737843,3.47168 -2.894285,4.48612 L 48.193244,157.52186 c -0.734831,2.09952 -1.19985,4.28349 -1.736571,6.43978 l 22.430711,41.82243 c 0.387292,2.64412 -0.700295,3.40912 -2.821928,4.41379 L 44.864817,170.76321 c -0.444494,2.03119 -0.923616,4.01513 -1.374786,6.15037 l 23.226639,39.00048 c 0.559971,2.67695 -0.50576,3.4753 -2.677213,4.48615 l -21.851855,-36.6127 c -0.376886,1.84092 -0.790218,3.67644 -1.157714,5.57148 l 23.733139,36.82979 c 0.760236,3.79148 -0.914505,3.76226 -2.5325,4.70321 l -22.43071,-34.80378 c -0.428883,2.29239 -0.894394,4.58539 -1.302429,6.87393 l 24.601426,33.71842 c 0.853459,3.79151 -0.707285,3.67629 -2.31543,4.63085 l -23.371352,-32.0542 c -0.359904,2.14432 -0.743591,4.29787 -1.085356,6.36743 l 25.397352,31.04122 c 0.928642,2.46167 -0.05713,3.45471 -2.025999,4.7032 L 35.313674,221.70264 c -0.285527,1.77578 -0.533531,3.52428 -0.795928,5.2097 l 26.193282,29.52172 c 1.084084,3.56596 -0.540302,3.57951 -2.026,4.63086 L 33.577104,232.77328 c -0.27881,1.96997 -0.549221,3.94671 -0.795929,5.71622 l 27.206282,27.06156 c 1.235462,3.4196 -0.339521,3.5414 -1.808929,4.63085 l -26.19328,-25.90384 c -0.366223,2.23315 -0.595988,4.47829 -0.795929,6.7292 l 0,0.0723 26.193282,23.58841 9.912925,1.3e-4 26.120925,-11.21535 c -0.09285,-1.64695 0.183428,-3.28768 0.361785,-4.9203 l -29.666423,13.6755 c -2.457917,-0.85006 -1.635813,-2.18 -0.795928,-4.55849 l 31.185922,-14.47143 c 0.207393,-1.2183 0.46117,-2.5995 0.723572,-3.97965 l -30.24528,13.96493 c -2.497387,-0.86734 -1.616624,-2.28617 -0.79593,-4.70321 l 32.198924,-14.83322 c 0.386501,-1.84896 0.914991,-3.90704 1.374786,-5.93328 l -31.76478,15.62914 c -2.580154,-1.2485 -1.269242,-2.91818 -0.723572,-4.77556 l 33.790779,-16.64214 c 0.258224,-1.09629 0.531644,-2.21458 0.795928,-3.32845 l -32.70542,14.83322 c -2.466338,-1.35759 -1.259299,-2.70995 -0.651216,-4.63085 l 34.731422,-15.77385 c 0.30925,-1.17529 0.61217,-2.35914 0.94064,-3.5455 l -33.790776,14.54375 c 0,0 -0.5065,-4.84793 -0.5065,-4.84793 l 35.816776,-15.41206 c 0.25423,-0.8891 0.53448,-1.79429 0.79593,-2.67722 l -34.441992,12.87956 c -2.44754,-1.08698 -1.471108,-2.44002 -0.434143,-4.84792 l 36.540355,-13.6755 c 0.40616,-1.32179 0.88526,-2.59694 1.30242,-3.90729 l -35.527348,11.64951 c -2.454606,-1.51626 -0.926712,-3.03822 -0.217069,-4.77558 l 37.553347,-12.30071 c 0.52633,-1.54172 1.05351,-3.06309 1.59186,-4.5585 l -36.612708,10.34708 c -2.249748,-1.64937 -0.753702,-3.08852 0,-4.77557 l 38.566348,-10.85358 c 0.92756,-2.35565 1.93569,-4.51601 2.89429,-6.65685 l -38.711069,11.21535 c -2.239679,-1.36381 -1.058974,-2.64714 0.14471,-4.84792 l 41.098849,-11.86657 c 0.76263,-1.49881 1.61272,-3.07635 2.46014,-4.63086 l -40.664704,10.56414 c -2.23829,-1.73952 -0.660695,-3.13343 0.217072,-4.84792 l 43.414282,-11.21536 c 0.91243,-1.59237 1.86283,-3.17746 2.82192,-4.77557 l -42.980131,9.98527 c -2.248945,-1.45024 -0.983152,-2.61183 0.434141,-4.77556 l 45.94678,-10.70885 c 1.05118,-1.70529 2.10705,-3.44344 3.18371,-5.13736 l -45.006132,9.18935 c -2.173112,-1.93355 -0.407856,-3.22914 0.651213,-4.92028 l 47.900419,-9.84057 c 1.2868,-1.97561 2.56611,-3.83223 3.83493,-5.71621 l -47.90042,10.05765 c -1.987461,-1.98801 -0.290488,-3.13284 0.868286,-4.77559 L 143.99408,131.8351 c 0.99797,-1.47005 1.94269,-2.82198 2.89428,-4.19671 l -47.900416,6.94629 c -1.940177,-2.1139 -0.130426,-3.24214 1.085356,-4.84795 l 50.43292,-7.38042 c 0.99171,-1.44328 2.1417,-3.17257 3.25607,-4.84792 l -49.34756,7.30807 c -1.95904,-2.13939 -0.11476,-3.23364 1.15771,-4.84793 l 51.59064,-7.38044 c 1.67713,-2.38031 2.60689,-3.86777 4.45303,-6.11722 l -51.30121,7.81455 c -1.78917,-2.18313 1.19968,-3.14455 2.51411,-4.79273 l 48.29655,-7.6355 -2.15356,-4.898216 -42.6907,8.538126 c -1.87811,-2.21081 -0.1107,-3.26195 1.30243,-4.99262 l 39.36227,-7.814571 -1.51949,-3.25608 -32.416,6.005655 c -2.09528,-1.850885 -0.49845,-2.929455 1.44714,-4.992655 l 28.94285,-5.28207 -2.60485,-5.42677 -19.39171,3.90726 c -2.0861,-1.74839 -0.47419,-2.72889 1.15771,-4.92027 l 12.73486,-3.76257 -1.66421,-9.69587 z"
     id="path4198"
     sodipodi:nodetypes="cccccccccccccccccccccccccccccccccccccccccccccccccccccccccccccccccccccccccccccccccccccccccccccccccccccccccccccccccccccccccccccccccccccccccccccccccccccccccccccccc" />
  <path
     sodipodi:type="arc"
     style="fill:none;stroke:#b58c08;stroke-width:1;stroke-linecap:round;stroke-miterlimit:4;stroke-opacity:1;stroke-dasharray:none;display:inline"
     id="path4067"
     sodipodi:cx="117.13771"
     sodipodi:cy="133.30508"
     sodipodi:rx="2.0656779"
     sodipodi:ry="2.1483049"
     d="m 119.20339,133.30508 a 2.0656779,2.1483049 0 1 1 -0.001,-0.0688"
     sodipodi:start="0"
     sodipodi:end="6.2511355"
     sodipodi:open="true"
     transform="matrix(2.3154281,0,0,2.3154281,-1.7468529,10.294949)" />
  <path
     sodipodi:type="arc"
     style="fill:none;stroke:#b58c08;stroke-width:1;stroke-linecap:round;stroke-miterlimit:4;stroke-opacity:1;stroke-dasharray:none;display:inline"
     id="path4067-5"
     sodipodi:cx="117.13771"
     sodipodi:cy="133.30508"
     sodipodi:rx="2.0656779"
     sodipodi:ry="2.1483049"
     d="m 119.20339,133.30508 a 2.0656779,2.1483049 0 1 1 -0.001,-0.0688"
     sodipodi:start="0"
     sodipodi:end="6.2511355"
     sodipodi:open="true"
     transform="matrix(2.3154281,0,0,2.3154281,36.325251,-6.7960209)" />
  <path
     style="fill:#f7c500;fill-opacity:1;stroke:#b58c08;stroke-width:2.31542826px;stroke-linecap:round;stroke-linejoin:miter;stroke-opacity:1;display:inline"
     d="m 96.008127,270.54172 c -1.262625,1.91053 -7.207581,13.62168 -0.721486,28.67974 6.486089,15.05804 29.722829,28.35602 48.521009,26.69559 16.16706,-1.42801 32.23599,-15.34698 37.7723,-15.62493 1.40631,-5.13338 2.06656,-5.44926 6.96089,-8.54538 1.31802,-0.83378 6.2221,1.38771 7.75615,0 1.534,-1.3877 -1.95654,-4.47881 0.72148,-5.23088 2.67806,-0.75208 8.42973,6.17851 7.21504,8.83842 -1.21472,2.65987 -4.98535,-0.94272 -5.23089,0 -0.24556,0.94269 -0.10621,6.09151 -0.90189,7.03463 -3.71077,4.39857 -4.79799,6.58369 -9.62225,6.19333 -0.10539,5.10772 -14.18767,11.97894 -26.6333,19.23961 -19.41145,11.32451 -56.67277,15.12702 -81.066202,2.59566 -18.385055,-9.44472 -29.388525,-20.05143 -38.342378,-35.78476 -8.953855,-15.73334 -14.625909,-41.3962 -14.610398,-41.3962 0,0 6.41487,7.92271 31.919358,11.09723 25.515392,3.1759 36.262567,-3.79206 36.262567,-3.79206 z"
     id="path3657-6"
     sodipodi:nodetypes="czscszzzzscsszczc" />
  <path
     style="fill:#f7c500;fill-opacity:1;stroke:#b58c08;stroke-width:2.31542826px;stroke-linecap:round;stroke-linejoin:miter;stroke-opacity:1;display:inline"
     d="m 96.271624,301.57051 c 0,0 -0.151886,7.25992 -14.249678,14.24968 -13.151468,6.52055 -27.216143,5.24856 -28.814993,3.92317"
     id="path3690-5"
     sodipodi:nodetypes="css" />
  <path
     sodipodi:type="arc"
     style="fill:#f7c500;fill-opacity:1;fill-rule:evenodd;stroke:#b58c08;stroke-width:1.57150578;stroke-linecap:round;stroke-miterlimit:4;stroke-opacity:1;stroke-dasharray:none;display:inline"
     id="path3708-4-4-0"
     sodipodi:cx="140.92398"
     sodipodi:cy="125.89172"
     sodipodi:rx="2.882359"
     sodipodi:ry="2.7265558"
     d="m 143.80634,125.89172 a 2.882359,2.7265558 0 1 1 -0.001,-0.0874"
     sodipodi:start="0"
     sodipodi:end="6.2511355"
     sodipodi:open="true"
     transform="matrix(-0.58155632,-0.55092612,-0.46089265,0.48726807,208.68675,342.59316)" />
  <path
     style="fill:#f7c500;fill-opacity:1;stroke:#b58c08;stroke-width:2.31542826px;stroke-linecap:round;stroke-linejoin:miter;stroke-opacity:1;display:inline"
     d="m 139.74212,326.10156 c 0,0 2.43989,0.12319 3.24677,9.01882 0.7868,8.67458 -1.98414,10.28139 -1.98414,10.28139"
     id="path3694-1"
     sodipodi:nodetypes="csc" />
  <path
     style="fill:#f7c500;fill-opacity:1;stroke:#b58c08;stroke-width:2.31542826px;stroke-linecap:round;stroke-linejoin:miter;stroke-opacity:1;display:inline"
     d="m 148.7609,325.38008 c 0,0 2.41483,0.90269 4.329,7.21504 1.68195,5.54661 0,8.83839 0,8.83839"
     id="path3696-3"
     sodipodi:nodetypes="csc" />
  <path
     style="fill:#f7c500;fill-opacity:1;stroke:#b58c08;stroke-width:2.31542826px;stroke-linecap:round;stroke-linejoin:miter;stroke-opacity:1;display:inline"
     d="m 182.13038,325.74085 c 0,0 0.53511,-4.59482 -2.70564,-8.47767 -3.27955,-3.92935 -6.49354,-2.886 -6.49354,-2.886"
     id="path3698-8"
     sodipodi:nodetypes="csc" />
  <path
     style="fill:#f7c500;fill-opacity:1;stroke:#b58c08;stroke-width:2.31542826px;stroke-linecap:round;stroke-linejoin:miter;stroke-opacity:1;display:inline"
     d="m 188.44351,318.16507 c 0,0 -0.14299,-2.85424 -2.34487,-5.41128 -2.9678,-3.44681 -4.68977,-3.06639 -4.68977,-3.06639"
     id="path3700-9"
     sodipodi:nodetypes="csc" />
  <path
     style="fill:#f7c500;fill-opacity:1;stroke:#b58c08;stroke-width:2.31542826px;stroke-linecap:round;stroke-linejoin:miter;stroke-opacity:1;display:inline"
     d="m 199.08568,305.17801 c -0.90187,-1.8186 -1.80375,-2.73128 -2.70565,-3.6075"
     id="path3702-3"
     sodipodi:nodetypes="cc" />
  <path
     style="fill:#f7c500;fill-opacity:1;stroke:#b58c08;stroke-width:2.31542826px;stroke-linecap:round;stroke-linejoin:miter;stroke-opacity:1;display:inline"
     d="m 93.492253,276.90629 c 0,0 -6.382292,9.92149 -33.189093,9.37951 -24.172907,-0.48507 -28.860097,-10.46175 -28.860097,-10.46175"
     id="path3688-4"
     sodipodi:nodetypes="csc" />
  <path
     transform="matrix(-2.2419884,0.60377753,0.48290974,1.7954041,354.71289,11.513079)"
     sodipodi:type="arc"
     style="fill:#f7c500;fill-opacity:1;fill-rule:evenodd;stroke:#b58c08;stroke-width:0.55720901;stroke-linecap:round;stroke-miterlimit:4;stroke-opacity:1;stroke-dasharray:none;display:inline"
     id="path4001-8-4"
     sodipodi:cx="122.56356"
     sodipodi:cy="141.51271"
     sodipodi:rx="0.49576271"
     sodipodi:ry="0.49576271"
     d="m 123.05932,141.51271 a 0.49576271,0.49576271 0 1 1 -2.5e-4,-0.0159"
     sodipodi:start="0"
     sodipodi:end="6.2511355"
     sodipodi:open="true" />
  <path
     transform="matrix(-2.4672198,0.45254685,0.3713205,2.0243855,397.63107,-7.8716409)"
     sodipodi:type="arc"
     style="fill:#f7c500;fill-opacity:1;fill-rule:evenodd;stroke:#b58c08;stroke-width:0.5095247;stroke-linecap:round;stroke-miterlimit:4;stroke-opacity:1;stroke-dasharray:none;display:inline"
     id="path4001-2-6"
     sodipodi:cx="122.56356"
     sodipodi:cy="141.51271"
     sodipodi:rx="0.49576271"
     sodipodi:ry="0.49576271"
     d="m 123.05932,141.51271 a 0.49576271,0.49576271 0 1 1 -2.5e-4,-0.0159"
     sodipodi:start="0"
     sodipodi:end="6.2511355"
     sodipodi:open="true" />
  <path
     transform="matrix(-2.2246621,0.62791457,0.5189454,1.6617505,345.44913,16.754689)"
     sodipodi:type="arc"
     style="fill:#f7c500;fill-opacity:1;fill-rule:evenodd;stroke:#b58c08;stroke-width:0.57722247;stroke-linecap:round;stroke-miterlimit:4;stroke-opacity:1;stroke-dasharray:none;display:inline"
     id="path4001-5-0"
     sodipodi:cx="122.56356"
     sodipodi:cy="141.51271"
     sodipodi:rx="0.49576271"
     sodipodi:ry="0.49576271"
     d="m 123.05932,141.51271 a 0.49576271,0.49576271 0 1 1 -2.5e-4,-0.0159"
     sodipodi:start="0"
     sodipodi:end="6.2511355"
     sodipodi:open="true" />
  <path
     sodipodi:type="arc"
     style="fill:none;stroke:#b58c08;stroke-width:1;stroke-linecap:round;stroke-miterlimit:4;stroke-opacity:1;stroke-dasharray:none;display:inline"
     id="path4067-6"
     sodipodi:cx="117.13771"
     sodipodi:cy="133.30508"
     sodipodi:rx="2.0656779"
     sodipodi:ry="2.1483049"
     d="m 119.20339,133.30508 a 2.0656779,2.1483049 0 1 1 -0.001,-0.0688"
     sodipodi:start="0"
     sodipodi:end="6.2511355"
     sodipodi:open="true"
     transform="matrix(-2.3154281,0,0,2.3154281,414.22741,10.616849)" />
  <path
     sodipodi:type="arc"
     style="fill:none;stroke:#b58c08;stroke-width:1;stroke-linecap:round;stroke-miterlimit:4;stroke-opacity:1;stroke-dasharray:none;display:inline"
     id="path4067-5-6"
     sodipodi:cx="117.13771"
     sodipodi:cy="133.30508"
     sodipodi:rx="2.0656779"
     sodipodi:ry="2.1483049"
     d="m 119.20339,133.30508 a 2.0656779,2.1483049 0 1 1 -0.001,-0.0688"
     sodipodi:start="0"
     sodipodi:end="6.2511355"
     sodipodi:open="true"
     transform="matrix(-2.3154281,0,0,2.3154281,376.15531,-6.4741309)" />
  <path
     style="fill:#f7c500;fill-opacity:1;stroke:#b58c08;stroke-width:2.31542826px;stroke-linecap:round;stroke-linejoin:miter;stroke-opacity:1;display:inline"
     d="m 102.40438,309.14629 c 0.10211,-0.0795 1.09617,5.95151 -11.363656,15.87302 -14.432805,11.49257 -26.470089,5.28416 -23.899734,6.85428"
     id="path3692-6"
     sodipodi:nodetypes="csc" />
  <path
     sodipodi:type="arc"
     style="fill:#f7c500;fill-opacity:1;fill-rule:evenodd;stroke:#b58c08;stroke-width:1.48099947;stroke-linecap:round;stroke-miterlimit:4;stroke-opacity:1;stroke-dasharray:none;display:inline"
     id="path3708-4-0"
     sodipodi:cx="140.92398"
     sodipodi:cy="125.89172"
     sodipodi:rx="2.882359"
     sodipodi:ry="2.7265558"
     d="m 143.80634,125.89172 a 2.882359,2.7265558 0 1 1 -0.001,-0.0874"
     sodipodi:start="0"
     sodipodi:end="6.2511355"
     sodipodi:open="true"
     transform="matrix(-0.38251984,-0.7484502,-0.67972612,0.25155988,218.74544,397.78749)" />
  <path
     sodipodi:type="arc"
     style="fill:#f7c500;fill-opacity:1;fill-rule:evenodd;stroke:#b58c08;stroke-width:1.57160485;stroke-linecap:round;stroke-miterlimit:4;stroke-opacity:1;stroke-dasharray:none;display:inline"
     id="path3708-1-9"
     sodipodi:cx="140.92398"
     sodipodi:cy="125.89172"
     sodipodi:rx="2.882359"
     sodipodi:ry="2.7265558"
     d="m 143.80634,125.89172 a 2.882359,2.7265558 0 1 1 -0.001,-0.0874"
     sodipodi:start="0"
     sodipodi:end="6.2511355"
     sodipodi:open="true"
     transform="matrix(-0.32514745,-0.72091891,-0.65334507,0.20364637,217.04072,394.49094)" />
  <path
     sodipodi:type="arc"
     style="fill:#f7c500;fill-opacity:1;fill-rule:evenodd;stroke:#b58c08;stroke-width:1.67402148;stroke-linecap:round;stroke-miterlimit:4;stroke-opacity:1;stroke-dasharray:none;display:inline"
     id="path3708-0"
     sodipodi:cx="140.92398"
     sodipodi:cy="125.89172"
     sodipodi:rx="2.882359"
     sodipodi:ry="2.7265558"
     d="m 143.80634,125.89172 a 2.882359,2.7265558 0 1 1 -0.001,-0.0874"
     sodipodi:start="0"
     sodipodi:end="6.2511355"
     sodipodi:open="true"
     transform="matrix(-0.4671172,-0.58937384,-0.49343753,0.39108139,224.22051,345.21763)" />
  <path
     sodipodi:type="arc"
     style="fill:#f7c500;fill-opacity:1;fill-rule:evenodd;stroke:#b58c08;stroke-width:1.67402148;stroke-linecap:round;stroke-miterlimit:4;stroke-opacity:1;stroke-dasharray:none;display:inline"
     id="path3708"
     sodipodi:cx="140.92398"
     sodipodi:cy="125.89172"
     sodipodi:rx="2.882359"
     sodipodi:ry="2.7265558"
     d="m 143.80634,125.89172 a 2.882359,2.7265558 0 1 1 -0.001,-0.0874"
     sodipodi:start="0"
     sodipodi:end="6.2511355"
     sodipodi:open="true"
     transform="matrix(0.4671172,-0.58937384,0.49343753,0.39108139,188.26007,344.89573)" />
  <path
     sodipodi:type="arc"
     style="fill:#f7c500;fill-opacity:1;fill-rule:evenodd;stroke:#b58c08;stroke-width:1.57160485;stroke-linecap:round;stroke-miterlimit:4;stroke-opacity:1;stroke-dasharray:none;display:inline"
     id="path3708-1"
     sodipodi:cx="140.92398"
     sodipodi:cy="125.89172"
     sodipodi:rx="2.882359"
     sodipodi:ry="2.7265558"
     d="m 143.80634,125.89172 a 2.882359,2.7265558 0 1 1 -0.001,-0.0874"
     sodipodi:start="0"
     sodipodi:end="6.2511355"
     sodipodi:open="true"
     transform="matrix(0.32514745,-0.72091891,0.65334507,0.20364637,195.43985,394.16904)" />
  <path
     sodipodi:type="arc"
     style="fill:#f7c500;fill-opacity:1;fill-rule:evenodd;stroke:#b58c08;stroke-width:1.48099947;stroke-linecap:round;stroke-miterlimit:4;stroke-opacity:1;stroke-dasharray:none;display:inline"
     id="path3708-4"
     sodipodi:cx="140.92398"
     sodipodi:cy="125.89172"
     sodipodi:rx="2.882359"
     sodipodi:ry="2.7265558"
     d="m 143.80634,125.89172 a 2.882359,2.7265558 0 1 1 -0.001,-0.0874"
     sodipodi:start="0"
     sodipodi:end="6.2511355"
     sodipodi:open="true"
     transform="matrix(0.38251984,-0.7484502,0.67972612,0.25155988,193.73515,397.46562)" />
  <path
     sodipodi:type="arc"
     style="fill:#f7c500;fill-opacity:1;fill-rule:evenodd;stroke:#b58c08;stroke-width:1.57150578;stroke-linecap:round;stroke-miterlimit:4;stroke-opacity:1;stroke-dasharray:none;display:inline"
     id="path3708-4-4"
     sodipodi:cx="140.92398"
     sodipodi:cy="125.89172"
     sodipodi:rx="2.882359"
     sodipodi:ry="2.7265558"
     d="m 143.80634,125.89172 a 2.882359,2.7265558 0 1 1 -0.001,-0.0874"
     sodipodi:start="0"
     sodipodi:end="6.2511355"
     sodipodi:open="true"
     transform="matrix(0.58155632,-0.55092612,0.46089265,0.48726807,203.79384,342.27126)" />
  <path
     style="fill:#ffffff;fill-opacity:1;stroke:none;display:inline"
     d="m 138.52639,363.53114 c -6.28646,2.50953 -27.97097,9.36934 -42.087235,11.84253 -13.724819,1.72268 -27.678307,1.95627 -41.467995,1.21167 -15.516792,-1.44572 -30.581356,-5.41995 -45.0392439,-11.09638 -1.732377,-1.17245 -1.566821,-0.76892 -3.392206,-1.667 0.616068,3.17831 0.758699,10.97783 2.483449,13.76779 13.7453899,8.04141 29.6807319,11.31599 45.3083919,13.35631 14.944111,0.90669 30.120889,0.78833 44.961417,-1.51058 13.543182,-2.32477 27.122052,-5.55425 39.554822,-11.46309 19.72671,8.5039 41.0266,13.56773 62.60829,13.49498 24.29769,1.01269 48.7491,-3.66637 70.99486,-13.4631 25.87304,11.38499 54.56965,14.95789 82.63307,13.10523 15.84969,-1.72839 31.78574,-5.31207 45.86829,-13.00958 1.67486,-3.84983 3.27739,-15.4651 3.27739,-15.4651 0,0 -5.50773,3.64276 -7.69364,3.98611 -18.33626,7.66864 -38.3068,10.93957 -58.19231,10.42675 -17.7615,0.0506 -35.54487,-3.10491 -52.41514,-8.34566 -4.58406,-1.27018 -8.84396,-3.68245 -13.41389,-4.80738 -19.18363,8.11076 -39.75644,12.82949 -60.59944,13.18588 -26.17009,3.961 -66.99928,-11.25803 -73.38888,-13.54938 z"
     id="path4594"
     sodipodi:nodetypes="cccccccccccccccccccc" />
  <path
     style="fill:#ffffff;fill-opacity:1;stroke:none;display:inline"
     d="m 150.02821,259.10835 111.4741,-0.12756 -3.31613,-78.18495 7.27003,-9.18322 -59.56339,-34.56457 -59.81849,34.56462 7.65268,9.56585 -3.6988,77.92984 z"
     id="path4249" />
  <path
     id="path3174-6"
     style="fill:#ffffff;fill-opacity:1;stroke:#5d5d5d;stroke-width:2.31542826;stroke-linecap:butt;stroke-linejoin:miter;stroke-miterlimit:6;stroke-opacity:1;stroke-dasharray:none;display:inline"
     d="m 186.7611,62.816979 c 7.66327,3.31027 12.71859,2.70476 18.74909,1.27545 3.53455,-0.83776 5.36637,-5.04979 8.92814,-4.33652 3.65423,0.73179 5.63546,4.07564 5.22933,7.78022 -0.32789,2.99075 -2.24872,5.58475 -5.22933,5.9946 -2.22273,0.30565 -3.52713,-1.55947 -5.99461,-3.06107 -1.7657,5.0747 5.8384,10.32447 10.96885,10.96886 10.37106,1.64515 18.54403,-1.8381 19.64187,-11.35149 1.0362,-8.97933 -8.46708,-14.27338 -16.32571,-15.688 -4.56774,-0.82224 -9.5114,-0.0231 -13.90239,0.76526 3.78816,-4.20169 4.64552,-6.33738 8.16288,-6.88741 6.06519,-0.94844 15.21142,2.00586 20.15204,-2.04071 6.87472,-4.97581 13.61987,-11.18006 21.30001,-15.56048 -6.7601,0.78546 -38.91866,-1.64154 -54.58917,0.5102 -10.65867,0.67571 -15.16713,13.10271 -24.2335,15.9431 -4.53641,0.36266 -11.09072,-2.27475 -11.86167,-6.75989 -0.41872,-2.43598 4.8467,-5.86704 4.8467,-5.86704 0,0 -10.30249,-1.98169 -15.11405,-0.2551 -4.48824,3.39171 -9.21029,3.38734 -14.17342,4.55972 6.88499,1.08026 10.76066,2.05884 16.66052,3.09294 9.00831,7.34952 21.89841,18.80677 26.78442,20.91736 z m 88.51608,205.857251 0,-9.56588 -138.8325,-0.0319 0,9.56587 m 129.07535,-9.27883 -0.82903,-4.71914 -24.23353,0 -0.51019,4.5916 m -5.35686,-0.12757 -1.02037,-4.46405 -25.50896,0 -0.82904,4.46405 m 54.14274,-4.14519 -2.55091,-63.38976 m -48.46699,63.26223 0.38262,-63.00714 m 20.72605,62.87957 -2.35959,-62.81577 m 13.77482,63.07089 -2.5509,-63.45355 m -1.91318,-3.82633 0.51018,4.20896 21.17244,0 0.51019,-4.59161 m -52.42089,0.51018 0.8928,4.20898 21.17241,0 0.76529,-4.5916 m 30.67452,-11.60654 0,11.73412 -111.66544,-0.0319 0,-11.73412 111.66544,0.0319 z m -29.97301,-9.1195 -25.8597,-16.72429 -25.85971,16.69241 51.71941,0.0319 z m 30.10059,9.18323 4.08142,-4.59161 m -119.63706,87.65516 0.76527,-4.33651 24.23351,0 0.51018,4.71915 m 5.29314,0.0636 1.08415,-4.78291 25.50894,0 0.82903,4.8467 m -54.14274,-4.8467 2.55091,-62.94335 m 48.46698,63.19844 -0.38261,-63.07092 m -20.66227,62.1781 2.29583,-62.11433 m -13.77485,61.85925 2.55089,-62.24187 m 1.91318,-4.33651 -0.51019,4.71913 -21.17243,0 -0.51017,-4.59161 m 52.42092,0.51018 -0.89285,4.209 -21.17238,0 -0.82904,-4.91047 m -30.73836,-11.22396 -4.08143,-4.59161 m 136.60423,97.59268 2.1645,18.31362 -157.454,-0.0319 2.16451,-18.31362 153.12499,0.0319 z m -77.07268,-204.714331 4.68726,53.074561 -2.80596,3.44371 c 0,0 3.75298,1.66113 3.69881,3.31617 -0.12647,3.8688 -3.06109,4.59161 -3.06109,4.59161 l 67.85385,40.4317 0,4.5916 -7.14251,0 -62.52885,-36.30244 -62.9115,36.27056 -7.14252,0 0,-4.59163 67.85386,-40.43168 c 0,0 -2.93452,-0.72281 -3.06109,-4.59161 -0.0542,-1.65503 3.69881,-3.31615 3.69881,-3.31615 l -2.80597,-3.44372 3.6669,-53.042681 z"
     sodipodi:nodetypes="cssssccsscsccccsccccscccccccccccccccccccccccccccccccccccccccccccccccccccccccccccccccccccccccccscccccccccsccc" />
  <path
     style="fill:none;stroke:#5d5d5d;stroke-width:2.31542826px;stroke-linecap:butt;stroke-linejoin:miter;stroke-opacity:1;display:inline"
     d="m 213.2904,50.126269 c 0,0 8.93993,-7.35387 13.64729,-10.71376 8.40125,-5.99639 13.90238,-8.80057 13.90238,-8.80057"
     id="path4303"
     sodipodi:nodetypes="csc" />
  <path
     style="fill:none;stroke:#5d5d5d;stroke-width:2.31542826px;stroke-linecap:butt;stroke-linejoin:miter;stroke-opacity:1;display:inline"
     d="m 178.72578,57.141239 c 5.00456,0.7926 20.04456,1.03158 24.74368,0 2.53959,-0.55752 7.27005,-2.65173 7.27005,-2.2958"
     id="path4305"
     sodipodi:nodetypes="csc" />
  <path
     style="fill:none;stroke:#5d5d5d;stroke-width:2.31542826px;stroke-linecap:butt;stroke-linejoin:miter;stroke-opacity:1;display:inline"
     d="m 188.03653,57.906509 c 4.41442,-1.11676 15.34756,-15.91855 18.11138,-17.34611 4.69375,-2.42438 20.27959,-1.14789 20.27959,-1.14789"
     id="path4307"
     sodipodi:nodetypes="csc" />
  <path
     style="fill:none;stroke:#5d5d5d;stroke-width:2.31542826px;stroke-linecap:butt;stroke-linejoin:miter;stroke-opacity:1;display:inline"
     d="m 211.69611,60.138539 c 0,0 7.79174,-3.61979 11.73411,-2.67845 5.20816,1.2436 9.90453,5.36346 9.31079,10.58622 -0.43212,3.80101 -1.80454,7.60106 -4.97427,9.43832 -7.0419,4.08168 -19.71781,-2.75793 -18.62154,-3.9539"
     id="path4339"
     sodipodi:nodetypes="csssc" />
  <path
     style="fill:none;stroke:#5d5d5d;stroke-width:2.31542826px;stroke-linecap:butt;stroke-linejoin:miter;stroke-opacity:1;display:inline"
     d="m 212.46138,59.755909 c 0,0 5.07176,-1.0237 7.65269,0 3.62937,1.43954 5.81399,4.25878 5.86706,8.16287 0.0376,2.75895 -1.7208,6.68272 -4.71915,7.52513 -6.6841,1.87792 -12.37187,-3.1886 -12.37187,-3.1886"
     id="path4341"
     sodipodi:nodetypes="csssc" />
  <path
     style="fill:none;stroke:#5d5d5d;stroke-width:2.31542826px;stroke-linecap:round;stroke-linejoin:miter;stroke-opacity:1;display:inline"
     d="m 200.25584,46.794199 c 4.61813,-1.77173 12.81393,-2.72463 19.52984,-2.50714"
     id="path4381"
     sodipodi:nodetypes="cc" />
  <path
     style="fill:none;stroke:#5d5d5d;stroke-width:2.31542826px;stroke-linecap:round;stroke-linejoin:miter;stroke-opacity:1;display:inline"
     d="m 194.05633,53.345409 c 6.03249,-1.84403 14.13131,-3.36476 19.43589,-3.3343"
     id="path4383"
     sodipodi:nodetypes="cc" />
  <path
     style="fill:none;stroke:#5d5d5d;stroke-width:2.31542826px;stroke-linecap:round;stroke-linejoin:miter;stroke-opacity:1;display:inline"
     d="m 223.1674,42.785869 c 4.39345,-0.53603 13.39407,0.58906 20.55017,-1.6143"
     id="path4381-0"
     sodipodi:nodetypes="cc" />
  <path
     style="fill:none;stroke:#5d5d5d;stroke-width:2.31542826px;stroke-linecap:round;stroke-linejoin:miter;stroke-opacity:1;display:inline"
     d="m 230.94762,36.839739 c 4.39345,-0.53605 13.39409,0.58907 20.55018,-1.61432"
     id="path4381-0-2"
     sodipodi:nodetypes="cc" />
  <path
     style="fill:none;stroke:#000000;stroke-width:2.31542826px;stroke-linecap:butt;stroke-linejoin:miter;stroke-opacity:1;display:inline"
     d="m 403.80916,362.72222 c 0,0 -24.07721,14.8909 -64.85327,14.32438 -40.41538,-0.56152 -66.01745,-13.70854 -66.01745,-13.70854 -19.33352,8.30423 -39.56738,13.75365 -67.14481,13.75163 -27.57741,-0.001 -47.90148,-5.45145 -67.23496,-13.75569 0,0 -25.60208,13.14703 -66.017466,13.70855 C 31.765148,377.60906 6.3487101,363.16459 6.3487101,363.16459"
     id="path4584" />
  <path
     style="fill:none;stroke:#000000;stroke-width:2.31542826px;stroke-linecap:butt;stroke-linejoin:miter;stroke-opacity:1;display:inline"
     d="m 401.72658,377.95652 c 0,0 -22.35538,14.63579 -63.13143,14.06928 -40.41538,-0.56152 -66.01746,-13.70854 -66.01746,-13.70854 -19.33351,8.30423 -39.74778,13.70855 -66.96442,13.70654 -27.21667,-10e-4 -47.36038,-5.40636 -66.69386,-13.71059 0,0 -25.60208,13.14701 -66.017463,13.70853 C 32.125891,392.58826 8.5588531,377.95246 8.5588531,377.95246"
     id="path4582" />
  <path
     style="fill:none;stroke:#000000;stroke-width:2.31542826px;stroke-linecap:butt;stroke-linejoin:miter;stroke-opacity:1;display:inline"
     d="m 205.00001,483.84227 c 6.19934,-12.87822 18.51651,-28.33545 37.88076,-29.3353 l 69.38438,-0.25511 c 23.90871,-0.54281 43.69995,-13.09152 62.75204,-29.08021 18.92704,-15.88375 28.74523,-45.57013 28.8251,-64.79275 l 0,-354.0642613 -397.6845759,0 0,354.0642613 c 0.07988,19.22262 9.8980609,48.909 28.8251099,64.79275 19.052091,15.98869 38.843329,28.5374 62.752045,29.08021 l 69.384361,0.25511 c 19.36429,0.99985 31.68146,16.45708 37.88078,29.3353 z"
     id="path4517-8-5" />
</svg>
