<?xml version="1.0" encoding="UTF-8" standalone="no"?>
<!-- Creator: CorelDRAW -->

<svg
   xmlns:dc="http://purl.org/dc/elements/1.1/"
   xmlns:cc="http://creativecommons.org/ns#"
   xmlns:rdf="http://www.w3.org/1999/02/22-rdf-syntax-ns#"
   xmlns:svg="http://www.w3.org/2000/svg"
   xmlns="http://www.w3.org/2000/svg"
   xmlns:sodipodi="http://sodipodi.sourceforge.net/DTD/sodipodi-0.dtd"
   xmlns:inkscape="http://www.inkscape.org/namespaces/inkscape"
   xml:space="preserve"
   width="92.803mm"
   height="120mm"
   style="shape-rendering:geometricPrecision; text-rendering:geometricPrecision; image-rendering:optimizeQuality; fill-rule:evenodd; clip-rule:evenodd"
   viewBox="0 0 92.803 120"
   id="svg2"
   version="1.1"
   inkscape:version="0.48.1 "
   sodipodi:docname="AM.svg"><metadata
   id="metadata78"><rdf:RDF><cc:Work
       rdf:about=""><dc:format>image/svg+xml</dc:format><dc:type
         rdf:resource="http://purl.org/dc/dcmitype/StillImage" /></cc:Work></rdf:RDF></metadata><sodipodi:namedview
   pagecolor="#ffffff"
   bordercolor="#666666"
   borderopacity="1"
   objecttolerance="10"
   gridtolerance="10"
   guidetolerance="10"
   inkscape:pageopacity="0"
   inkscape:pageshadow="2"
   inkscape:window-width="640"
   inkscape:window-height="480"
   id="namedview76"
   showgrid="false"
   inkscape:zoom="0.61383335"
   inkscape:cx="164.41476"
   inkscape:cy="212.59842"
   inkscape:window-x="0"
   inkscape:window-y="0"
   inkscape:window-maximized="0"
   inkscape:current-layer="svg2" />
 <defs
   id="defs4">
  <style
   type="text/css"
   id="style6">
   
    .fil5 {fill:#990000}
    .fil0 {fill:#A90000}
    .fil6 {fill:red}
    .fil4 {fill:#FF6600}
    .fil7 {fill:#FF6633}
    .fil1 {fill:black;fill-rule:nonzero}
    .fil11 {fill:#2C2C2B;fill-rule:nonzero}
    .fil15 {fill:#88898B;fill-rule:nonzero}
    .fil8 {fill:#990000;fill-rule:nonzero}
    .fil12 {fill:#B1B4B6;fill-rule:nonzero}
    .fil13 {fill:#E21C2A;fill-rule:nonzero}
    .fil14 {fill:#F39B7E;fill-rule:nonzero}
    .fil10 {fill:red;fill-rule:nonzero}
    .fil9 {fill:#FF6600;fill-rule:nonzero}
    .fil2 {fill:#FFCC00;fill-rule:nonzero}
    .fil3 {fill:white;fill-rule:nonzero}
   
  </style>
 
  
  
  
  
  
  
  
  
  
 </defs>
 <path
   style="fill:#a90000"
   inkscape:connector-curvature="0"
   id="path10"
   d="m 66.6515,57.7501 c 0.8283,0 1.5,0.6717 1.5,1.5 l 0,1.4998 c 0,0.8283 -0.6717,1.5 -1.5,1.5 l -1.5,0 0,-4.4998 1.5,0 z m 0,5.9998 c 1.6566,0 3,-1.3434 3,-3 l 0,-1.4998 c 0,-1.6566 -1.3434,-3 -3,-3 l -3,0 0,7.4998 3,0 z m -6,-7.4998 1.5,0 0,7.4998 -1.5,0 0,-7.4998 z m -3,0 1.5,0 0,7.4998 -1.5,0 -3,-4.7086 0,4.7086 -1.5,0 0,-7.4998 1.5,0 3,4.7086 0,-4.7086 z m -22.5,10e-5 4.5,0 0,1.5 -3,0 0,1.4999 3,0 0,1.5 -3,0 0,1.4999 3,0 0,1.5 -4.5,0 0,-7.4998 z m -6,-2e-4 1.5,0 0,6 3,0 0,1.5 -4.5,0 0,-7.5 z m 15.7504,6 1.4996,0 c 1.2424,0 2.25,-1.0076 2.25,-2.25 0,-1.2424 -1.0263,-2.2457 -2.25,-2.25 l -1.4996,0 0,1.5 1.4996,0 c 0.4141,0 0.75,0.3359 0.75,0.75 0,0.4141 -0.3359,0.75 -0.75,0.75 l -1.4996,0 0,1.5 z m 1.4996,-7.5 c 2.899,0 5.25,2.351 5.25,5.25 0,2.899 -2.351,5.25 -5.25,5.25 -2.899,0 -5.25,-2.351 -5.25,-5.25 0,-2.899 2.351,-5.25 5.25,-5.25 z m 0,1.5 c 2.0707,0 3.75,1.6793 3.75,3.75 0,2.0707 -1.6793,3.75 -3.75,3.75 -2.0707,0 -3.75,-1.6793 -3.75,-3.75 0,-2.0707 1.6793,-3.75 3.75,-3.75 z"
   class="fil0" /><g
   id="g12">
   <path
   style="fill:#000000;fill-rule:nonzero"
   inkscape:connector-curvature="0"
   id="path14"
   d="m 49.041,116.082 0.6414,0.9366 0,0 -0.0992,0.0672 -0.0964,0.068 -0.0982,0.0688 -0.0954,0.0694 -0.0971,0.0702 -0.0943,0.0687 -0.096,0.0717 -0.0933,0.0724 -0.0926,0.0731 -0.0944,0.0738 -0.0937,0.0746 -0.091,0.073 -0.0926,0.0759 -0.0897,0.0766 -0.0915,0.0774 -0.0886,0.078 -0.0902,0.0764 -0.0875,0.0794 -0.0889,0.08 -0.0885,0.0785 -0.0855,0.0813 -0.0871,0.082 -0.0866,0.0827 -0.0836,0.0811 -0.0852,0.0839 -0.0847,0.0846 -0.0816,0.083 -0.0833,0.0859 -0.0826,0.0863 -0.0797,0.0849 -0.0813,0.0877 -0.0806,0.086 -0.8418,-0.759 0.085,-0.095 0.0857,-0.0921 0.0887,-0.0937 0.087,-0.0909 0.0877,-0.0903 0.0906,-0.0918 0.0891,-0.089 0.0896,-0.0885 0.0926,-0.0899 0.091,-0.0871 0.0915,-0.0864 0.0945,-0.0859 0.0929,-0.0873 0.0935,-0.0844 0.0963,-0.0838 0.0946,-0.0854 0.0976,-0.0824 0.0959,-0.0818 0.0987,-0.081 0.097,-0.0805 0.1,-0.0818 0.0981,-0.079 0.0988,-0.0782 0.1016,-0.0777 0.1021,-0.0768 0.1004,-0.0761 0.1033,-0.0775 0.1015,-0.0748 0.1044,-0.0738 0.1026,-0.0732 0.1054,-0.0724 0.1036,-0.0716 0,0 z m 0.6414,0.9366 0,0 0,0 0,0 z m 8.7122,-3.4212 1.1404,0 -0.5702,0.566 -0.3193,0.004 -0.318,0.0102 -0.3168,0.0164 -0.3155,0.0226 -0.3161,0.0264 -0.3125,0.0347 -0.3109,0.0384 -0.3092,0.0443 -0.3075,0.0525 -0.308,0.056 -0.3038,0.0619 -0.3018,0.0675 -0.3021,0.0732 -0.2978,0.0764 -0.2955,0.0843 -0.2955,0.0898 -0.291,0.0928 -0.2908,0.1006 -0.2883,0.1036 -0.2835,0.1088 -0.2831,0.1163 -0.2783,0.1192 -0.2777,0.1242 -0.2748,0.1294 -0.2719,0.1343 -0.2688,0.1391 -0.2636,0.1419 -0.2626,0.1487 -0.2595,0.1537 -0.2561,0.156 -0.2528,0.1629 -0.2493,0.1652 -0.6414,-0.9366 0.2671,-0.1786 0.2706,-0.1717 0.2739,-0.1694 0.2773,-0.1625 0.2804,-0.1577 0.286,-0.1551 0.2866,-0.1481 0.2897,-0.1431 0.2926,-0.1382 0.2955,-0.1332 0.3005,-0.128 0.3009,-0.1207 0.3059,-0.1178 0.3061,-0.1124 0.3086,-0.105 0.3132,-0.1018 0.3133,-0.0942 0.3179,-0.0887 0.32,-0.0854 0.3199,-0.0776 0.3242,-0.0719 0.326,-0.0663 0.3258,-0.0604 0.3297,-0.0525 0.3316,-0.0489 0.3331,-0.0428 0.3347,-0.0347 0.3341,-0.0308 0.3377,-0.0226 0.339,-0.0164 0.3404,-0.0102 0.3415,-0.004 -0.5702,0.566 z m 1.1404,0 0,0.5646 -0.5702,10e-4 0.5702,-0.566 z m -0.5702,-0.5699 0.5702,0.5682 0,0.002 -1.1404,0 0,-0.002 0.5702,-0.5682 z m -0.5702,0.5682 0,-0.5681 0.5702,-1e-4 -0.5702,0.5682 z m 17.9671,0.5682 0,0 -17.3969,0 0,-1.1364 17.3969,0 0,1.1364 z m 0,-1.1364 0,0 0,0 0,0 z m 0.5707,0.5682 -0.5702,0.5682 -5e-4,0 0,-1.1364 5e-4,0 0.5702,0.5682 z m -0.5702,-0.5682 0.5702,0 0,0.5682 -0.5702,-0.5682 z m 0,1.1359 -0.5702,-0.566 0,-0.002 1.1404,0 0,0.002 -0.5702,0.566 z m 0,0 -0.5702,0 0,-0.566 0.5702,0.566 z m 15.3024,-17.0061 1.1404,0 0,0 -0.0231,0.8391 -0.0641,0.8302 -0.1039,0.8246 -0.1474,0.8157 -0.1831,0.803 -0.2243,0.7915 -0.2601,0.7764 -0.2949,0.7623 -0.3309,0.7469 -0.3637,0.7304 -0.3975,0.7102 -0.4282,0.6911 -0.4579,0.6708 -0.4886,0.6469 -0.5185,0.624 -0.5449,0.5997 -0.5705,0.5723 -0.5971,0.5456 -0.6206,0.5175 -0.6453,0.4863 -0.6665,0.4558 -0.6869,0.424 -0.7106,0.389 -0.7267,0.3525 -0.7462,0.317 -0.7646,0.2804 -0.7775,0.2401 -0.7962,0.1988 -0.807,0.1581 -0.8212,0.1143 -0.8324,0.069 -0.8424,0.0226 0,-1.132 0.78,-0.0226 0.77,-0.0646 0.759,-0.1053 0.749,-0.1449 0.7338,-0.1854 0.7241,-0.2223 0.7066,-0.2582 0.6928,-0.2948 0.6777,-0.3303 0.6572,-0.3624 0.6423,-0.393 0.6221,-0.4248 0.6007,-0.4551 0.5804,-0.4821 0.5571,-0.51 0.5349,-0.5367 0.5093,-0.5599 0.4827,-0.584 0.4576,-0.6069 0.4311,-0.6264 0.4014,-0.6467 0.3709,-0.6658 0.3413,-0.6816 0.3087,-0.6981 0.2771,-0.7135 0.2423,-0.7276 0.2065,-0.7381 0.1741,-0.7498 0.134,-0.7579 0.0995,-0.767 0.0597,-0.777 0.0185,-0.7813 0,0 z m 0.5702,-97.1842 0.5702,0.5682 0,96.616 -1.1404,0 0,-96.616 0.5702,-0.5682 z m 0,0 0.5702,0 0,0.5682 -0.5702,-0.5682 z m -92.2368,0.5682 0.5702,-0.5682 91.6666,0 0,1.1364 -91.6666,0 -0.5702,-0.5682 z m 0,0 0,-0.5682 0.5702,0 -0.5702,0.5682 z m 0,96.616 0,0 0,-96.616 1.1404,0 0,96.616 -1.1404,0 z m 15.8708,16.4401 1.1404,0 -0.5702,0.566 -0.8424,-0.0226 -0.8323,-0.069 -0.8212,-0.1143 -0.807,-0.1581 -0.7961,-0.1988 -0.7775,-0.2401 -0.7646,-0.2804 -0.7461,-0.3171 -0.7266,-0.3525 -0.7105,-0.3889 -0.6869,-0.4241 -0.6664,-0.4557 -0.6452,-0.4863 -0.6205,-0.5176 -0.5971,-0.5456 -0.5703,-0.5722 -0.5449,-0.5998 -0.5184,-0.624 -0.4885,-0.6469 -0.4578,-0.6708 -0.4282,-0.6911 -0.3974,-0.7102 -0.3636,-0.7304 -0.3308,-0.7469 -0.2949,-0.7623 -0.2601,-0.7763 -0.2243,-0.7916 -0.183,-0.803 -0.1473,-0.8156 -0.104,-0.8246 -0.064,-0.8302 -0.0231,-0.8391 1.1404,0 0.0185,0.7813 0.0596,0.777 0.0996,0.767 0.1339,0.7578 0.174,0.7498 0.2065,0.7382 0.2423,0.7275 0.2771,0.7135 0.3086,0.6981 0.3412,0.6816 0.3708,0.6658 0.4014,0.6467 0.431,0.6264 0.4575,0.6069 0.4826,0.584 0.5093,0.56 0.5347,0.5366 0.5571,0.51 0.5803,0.4822 0.6006,0.4551 0.622,0.4247 0.6423,0.3931 0.6571,0.3623 0.6776,0.3303 0.6927,0.2949 0.7066,0.2582 0.7241,0.2223 0.7337,0.1854 0.749,0.1449 0.759,0.1053 0.7699,0.0646 0.78,0.0226 -0.5702,0.566 z m 1.1404,0 0,0.566 -0.5702,0 0.5702,-0.566 z m -0.5702,-0.5699 0.5702,0.5682 0,0.002 -1.1404,0 0,-0.002 0.5702,-0.5682 z m -0.5702,0.5682 0,-0.5682 0.5702,0 -0.5702,0.5682 z m 0.5707,0.5682 0,0 -5e-4,0 0,-1.1364 5e-4,0 0,1.1364 z m 0,-1.1364 0,0 0,0 0,0 z m 17.9671,0.5682 -0.5702,0.5682 -17.3969,0 0,-1.1364 17.3969,0 0.5702,0.5682 z m -0.5702,-0.5682 0.5702,0 0,0.5682 -0.5702,-0.5682 z m 0,1.1359 -0.5702,-0.566 0,-0.002 1.1404,0 0,0.002 -0.5702,0.566 z m 0,0 -0.5702,-10e-4 0,-0.5647 0.5702,0.566 z m 9.9238,1.9186 -0.6414,0.9366 0,0 -0.2493,-0.1652 -0.2528,-0.1629 -0.2561,-0.156 -0.2595,-0.1537 -0.2626,-0.1487 -0.2636,-0.1419 -0.2688,-0.1391 -0.2719,-0.1343 -0.2748,-0.1294 -0.2777,-0.1242 -0.2783,-0.1192 -0.2831,-0.1163 -0.2835,-0.1088 -0.2883,-0.1036 -0.2908,-0.1006 -0.291,-0.0928 -0.2955,-0.0898 -0.2955,-0.0843 -0.2978,-0.0764 -0.3021,-0.0732 -0.3018,-0.0675 -0.3038,-0.0619 -0.308,-0.056 -0.3075,-0.0525 -0.3092,-0.0443 -0.3109,-0.0384 -0.3125,-0.0347 -0.3161,-0.0264 -0.3155,-0.0226 -0.3168,-0.0164 -0.318,-0.0102 -0.3193,-0.004 0,-1.132 0.3415,0.004 0.3404,0.0102 0.339,0.0164 0.3377,0.0226 0.3341,0.0308 0.3347,0.0347 0.3331,0.0428 0.3316,0.0489 0.3297,0.0525 0.3258,0.0604 0.326,0.0663 0.3242,0.0719 0.3199,0.0776 0.32,0.0854 0.3179,0.0887 0.3133,0.0942 0.3132,0.1018 0.3086,0.105 0.3061,0.1124 0.3059,0.1178 0.3009,0.1207 0.3005,0.128 0.2955,0.1332 0.2926,0.1382 0.2897,0.1431 0.2866,0.1481 0.286,0.1551 0.2804,0.1577 0.2773,0.1625 0.2739,0.1694 0.2706,0.1717 0.2671,0.1786 0,0 z m -0.6414,0.9366 0,0 0,0 0,0 z m 2.8609,1.7235 0.8418,0.759 -0.8418,0 -0.0806,-0.086 -0.0813,-0.0877 -0.0797,-0.0849 -0.0826,-0.0863 -0.0833,-0.0859 -0.0816,-0.083 -0.0847,-0.0846 -0.0852,-0.0839 -0.0836,-0.0811 -0.0866,-0.0827 -0.0871,-0.082 -0.0855,-0.0813 -0.0885,-0.0785 -0.0889,-0.08 -0.0875,-0.0794 -0.0902,-0.0764 -0.0886,-0.078 -0.0915,-0.0774 -0.0897,-0.0766 -0.0926,-0.0759 -0.091,-0.073 -0.0937,-0.0746 -0.0944,-0.0738 -0.0926,-0.0731 -0.0933,-0.0724 -0.096,-0.0717 -0.0943,-0.0687 -0.0971,-0.0702 -0.0954,-0.0694 -0.0982,-0.0688 -0.0964,-0.068 -0.0992,-0.0672 0.6414,-0.9366 0.1036,0.0716 0.1054,0.0724 0.1026,0.0732 0.1044,0.0738 0.1015,0.0748 0.1033,0.0775 0.1004,0.0761 0.1021,0.0768 0.1016,0.0777 0.0988,0.0782 0.0981,0.079 0.1,0.0818 0.097,0.0805 0.0987,0.081 0.0959,0.0818 0.0976,0.0824 0.0946,0.0854 0.0963,0.0838 0.0935,0.0844 0.0929,0.0873 0.0945,0.0859 0.0915,0.0864 0.091,0.0871 0.0926,0.0899 0.0896,0.0885 0.0891,0.089 0.0906,0.0918 0.0877,0.0903 0.087,0.0909 0.0887,0.0937 0.0857,0.0921 0.085,0.095 -0.8418,0 z m 0.8418,0.759 -0.4209,0.4634 -0.4209,-0.4634 0.8418,0 z"
   class="fil1" />
  </g><path
   style="fill:#ffcc00;fill-rule:nonzero"
   inkscape:connector-curvature="0"
   id="path16"
   d="m 46.4006,119.122 c 0.8796,-0.9685 1.8764,-1.8347 2.9611,-2.5713 2.7357,-1.8579 6.0726,-2.9446 9.6031,-2.9529 l 0,-0.002 17.3969,0 5e-4,0 0,0.002 c 8.7023,-1e-4 15.8726,-7.7675 15.8726,-16.4401 l 0,-96.616 -91.6666,0 0,96.616 c 0,8.6724 7.1686,16.44 15.8708,16.4401 l 0,-0.002 5e-4,0 17.3969,0 0,0.002 c 3.5305,0.008 6.8674,1.095 9.6031,2.9529 1.0847,0.7366 2.0815,1.6028 2.9611,2.5713 z"
   class="fil2" /><path
   style="fill:#ffffff;fill-rule:nonzero"
   inkscape:connector-curvature="0"
   id="path18"
   d="m 61.6792,113.596 0,-113.054 -30.5554,0 0,113.054 2.7127,0 0,0.002 c 3.5304,0.008 6.8673,1.095 9.603,2.9529 1.0847,0.7366 2.0815,1.6028 2.9611,2.5713 0.8797,-0.9685 1.8764,-1.8347 2.9611,-2.5713 2.7357,-1.8579 6.0726,-2.9445 9.6031,-2.9529 l 0,-0.002 2.7144,0 z"
   class="fil3" /><g
   id="g20">
   <path
   style="fill:#ffffff;fill-rule:nonzero"
   inkscape:connector-curvature="0"
   id="path22"
   d="m 26.1927,36.3141 c -0.5483,1.04 -1.0713,2.1294 -1.5673,3.2652 l -3e-4,-1e-4 -2e-4,4e-4 0,10e-4 -10.7363,24.5882 c 0.3457,1.1349 0.6663,2.4641 0.2048,3.6174 -0.4555,1.1383 -1.564,1.6214 -2.6351,1.9484 l -1.4049,3.2177 c -0.3735,0.8559 -0.2105,1.8783 0.0504,2.7406 0.2228,0.7367 0.5424,1.4457 0.9048,2.12 l 0.0014,0.0019 0.0479,0.0929 0,5e-4 0.0935,0.1822 0.003,0.0059 5e-4,5e-4 c 0.2875,0.5577 0.5882,1.141 1.0641,1.5493 0.4718,0.4049 1.1281,0.6487 2.1393,0.5449 l 0.0042,-4e-4 0.0097,-0.001 9e-4,0 c 0.3342,-0.0373 0.6531,-0.1863 0.9246,-0.3859 0.0185,-0.0136 0.041,-0.036 0.0607,-0.0462 l -10e-5,-10e-5 c 0.7122,-0.5609 1.1943,-1.4535 1.5504,-2.2895 L 31.5976,42.9332 c 2.685,-6.326 7.6871,-13.9109 14.8719,-14.1873 0.1328,-0.0051 0.2677,-0.0076 0.4046,-0.0075 l 0,-5e-4 c 6.328,0 11.2522,7.7016 13.5392,12.3759 0.3038,0.6209 0.5817,1.2305 0.8317,1.8184 l 5e-4,10e-4 4e-4,10e-4 0,0 14.6858,34.5277 c 0.509,1.1975 1.4233,2.6655 2.758,2.7957 0.6157,0.06 1.3776,-0.2288 1.8659,-0.6176 0.8601,-0.6844 1.3159,-1.8099 1.7422,-2.8003 0.0201,-0.0466 0.0402,-0.0942 0.0599,-0.1425 l -2e-4,0 0.0336,-0.0834 -10e-5,-1e-4 0.0338,-0.0859 10e-5,0 3e-4,-6e-4 10e-5,1e-4 c 0.0583,-0.1508 0.1121,-0.3009 0.1607,-0.448 l 1e-4,0 0.0272,-0.0841 1e-4,0 0.0253,-0.081 -4e-4,0 4e-4,-0.0014 2e-4,10e-5 c 0.2487,-0.8154 0.4468,-1.8051 0.2492,-2.6576 -0.025,-0.1082 -0.0575,-0.2089 -0.097,-0.3002 l -2e-4,1e-4 -1.4062,-3.2206 c -1.0652,-0.3253 -2.176,-0.801 -2.6351,-1.9484 -0.4614,-1.1533 -0.1409,-2.4825 0.2049,-3.6174 L 68.2182,39.5806 c -1.155,-2.6284 -2.5067,-5.1565 -4.141,-7.5018 -0.1201,-0.1725 -0.2436,-0.3461 -0.3697,-0.5206 l -2e-4,2e-4 C 59.595,25.8764 53.4411,21.3464 46.3811,21.3257 37.3442,21.2991 30.3061,28.51 26.1927,36.3141 z"
   class="fil3" />
   <path
   style="fill:#ff6600"
   inkscape:connector-curvature="0"
   id="path24"
   d="M 45.8432,21.9684 C 37.5936,21.9206 30.0397,28.7003 25.1769,39.837 L 14.5353,64.2084 c 0.9162,3.006 0.2762,5.1524 -2.6385,6.0428 l -1.2914,2.9576 c -0.3431,0.7857 0.0594,2.6265 0.7417,3.8958 0.3138,-1.0108 2.9649,-1.6956 4.0481,-0.7144 L 30.2146,41.9452 C 32.8023,35.9308 37.872,29.9486 43.4971,28.4006 51.6391,26.16 58.7774,35.5781 61.7999,42.684 l 14.6889,34.5348 c 0.4618,1.074 1.1972,2.2638 2.0551,2.3519 1.7862,0.1833 2.2921,-1.1671 2.8228,-2.1543 0.6822,-1.2693 0.9503,-3.2842 0.4334,-3.9615 L 79.9872,71.0797 C 77.0725,70.1894 76.4325,68.043 77.3486,65.037 L 66.707,40.6656 C 61.8443,29.5288 54.0919,22.0162 45.8432,21.9684 z"
   class="fil4" />
   <path
   style="fill:#990000"
   inkscape:connector-curvature="0"
   id="path26"
   d="M 46.9026,22.0125 C 38.6443,22.0592 30.9987,29.529 26.136,40.6656 L 15.4944,65.037 c 0.9162,3.006 0.2762,5.1524 -2.6385,6.0427 l -0.9071,1.9365 c -0.3632,0.7755 -1.0939,3.2247 -0.4119,4.4938 0.5305,0.987 0.9761,2.2439 2.7622,2.0607 0.8579,-0.088 1.5933,-1.2779 2.0552,-2.3519 L 31.0431,42.684 c 2.7782,-6.5316 8.1988,-13.9007 15.7964,-14.5659 6.7362,-0.5899 12.8897,7.0002 15.7889,13.8271 L 76.8045,75.326 c 0.4084,1.0319 0.2498,4.0028 1.8494,4.2789 0.6691,0.1155 1.5035,-0.2144 2.1733,-1.1608 0.4542,-0.6417 0.8085,-1.5228 1.0839,-2.2713 0.4111,-1.1175 0.5918,-2.3563 0.3265,-2.964 L 80.9463,70.2512 C 78.0316,69.3608 77.3916,67.2144 78.3077,64.2084 L 67.6661,39.837 C 62.8034,28.7003 55.1618,21.9658 46.9026,22.0125 z"
   class="fil5" />
   <path
   style="fill:#ff0000"
   inkscape:connector-curvature="0"
   id="path28"
   d="m 46.4216,28.3067 c -6.6155,0 -12.714,7.0361 -15.645,13.8489 l -14.8195,34.445 c -0.4618,1.074 -1.1944,2.1639 -2.0551,2.2175 -0.7867,0.049 -1.4227,-0.7638 -1.9535,-1.7511 -0.6823,-1.2694 -1.1242,-2.8621 -0.7811,-3.6478 l 1.2913,-2.9576 c 2.9147,-0.8904 3.5547,-3.0368 2.6386,-6.0428 L 25.7389,40.0474 C 30.6017,28.9107 38.1564,22.0513 46.4216,22.131 c 8.2651,-0.0797 15.8197,6.7797 20.6826,17.9164 l 10.6416,24.3714 c -0.9162,3.006 -0.2762,5.1524 2.6385,6.0428 l 1.2914,2.9576 c 0.343,0.7857 -0.0988,2.3784 -0.7812,3.6478 -0.5308,0.9873 -1.1668,1.8001 -1.9534,1.7511 -0.8607,-0.0536 -1.5934,-1.1435 -2.0552,-2.2175 L 62.0664,42.1556 C 59.1354,35.3428 53.037,28.3067 46.4216,28.3067 z"
   class="fil6" />
  </g><g
   id="bell">
   <path
   style="fill:#ff6600"
   inkscape:connector-curvature="0"
   id="path31"
   d="m 41.9217,37.182 4.4785,0 0,-6.9446 c -2.2484,0.0156 -2.7196,2.2088 -3.3694,4.3956 -0.2744,0.9231 -1.0779,1.2752 -1.1091,2.549 z"
   class="fil4" />
   <path
   style="fill:#990000"
   inkscape:connector-curvature="0"
   id="path33"
   d="m 50.8813,37.182 -4.4784,0 0,-6.9446 c 2.2299,0.0156 2.7196,2.2088 3.3694,4.3956 0.2743,0.9231 1.0778,1.2752 1.109,2.549 z"
   class="fil5" />
   <path
   style="fill:#ff0000"
   inkscape:connector-curvature="0"
   id="path35"
   d="m 42.9442,37.182 3.4598,0 3.4098,0 c -0.0601,-1.059 -0.8152,-1.3723 -0.9985,-2.3632 -0.4102,-2.2182 -0.9589,-4.5819 -2.4148,-4.5663 -1.4558,0.0156 -2.0429,2.4987 -2.512,4.6853 -0.1979,0.9227 -0.8642,1.1668 -0.9443,2.2442 z"
   class="fil6" />
   <ellipse
   style="fill:#ff6633"
   sodipodi:ry="1.07082"
   sodipodi:rx="1.0665801"
   sodipodi:cy="38.6735"
   sodipodi:cx="46.3325"
   id="ellipse37"
   ry="1.07082"
   rx="1.0665801"
   cy="38.6735"
   cx="46.3325"
   class="fil7" />
   <ellipse
   style="fill:#990000"
   sodipodi:ry="0.96283799"
   sodipodi:rx="0.95903301"
   sodipodi:cy="38.784"
   sodipodi:cx="46.488201"
   id="ellipse39"
   ry="0.96283799"
   rx="0.95903301"
   cy="38.784"
   cx="46.488201"
   class="fil5" />
   <ellipse
   style="fill:#ff0000"
   sodipodi:ry="0.78743201"
   sodipodi:rx="0.78432101"
   sodipodi:cy="38.6632"
   sodipodi:cx="46.367802"
   id="ellipse41"
   ry="0.78743201"
   rx="0.78432101"
   cy="38.6632"
   cx="46.367802"
   class="fil6" />
  </g><g
   id="g43">
   <g
   id="_159691224">
    <polygon
   style="fill:#990000;fill-rule:nonzero"
   points="54.7017,89.7529 54.7016,86.951 51.6349,80.5366 54.7016,74.1221 54.7017,71.3201 50.2954,80.5366 "
   class="fil8"
   id="_159691536" />
    <polygon
   style="fill:#990000;fill-rule:nonzero"
   points="54.7013,95.218 54.7013,92.4083 60.3771,80.5364 54.7013,68.6647 54.7013,65.8551 61.7202,80.5364 "
   class="fil8"
   id="_159691464" />
    <polygon
   style="fill:#ff6600;fill-rule:nonzero"
   points="54.7016,95.218 54.7016,92.4083 49.0259,80.5364 54.7016,68.6647 54.7016,65.8551 47.6827,80.5364 "
   class="fil9"
   id="_159691392" />
    <polygon
   style="fill:#ff6600;fill-rule:nonzero"
   points="54.7013,89.7529 54.7014,86.951 57.7681,80.5366 54.7014,74.1221 54.7013,71.3201 59.1076,80.5366 "
   class="fil9"
   id="_159691320" />
    <path
   style="fill:#ff0000;fill-rule:nonzero"
   inkscape:connector-curvature="0"
   d="m 54.7016,66.6499 -6.6389,13.8865 6.6389,13.8868 6.6388,-13.8868 -6.6388,-13.8865 z m 0,6.6773 3.4464,7.2094 -3.4464,7.2092 -3.4466,-7.2092 3.4466,-7.2094 z"
   class="fil10"
   id="_159691248" />
   </g>
   <g
   id="_159690840">
    <polygon
   style="fill:#990000;fill-rule:nonzero"
   points="38.1017,89.7529 38.1017,86.951 35.035,80.5366 38.1017,74.1221 38.1017,71.3201 33.6955,80.5366 "
   class="fil8"
   id="_159691152" />
    <polygon
   style="fill:#990000;fill-rule:nonzero"
   points="38.1014,95.218 38.1014,92.4083 43.7771,80.5364 38.1014,68.6647 38.1014,65.8551 45.1203,80.5364 "
   class="fil8"
   id="_159691080" />
    <polygon
   style="fill:#ff6600;fill-rule:nonzero"
   points="38.1017,95.218 38.1017,92.4083 32.4259,80.5364 38.1017,68.6647 38.1017,65.8551 31.0827,80.5364 "
   class="fil9"
   id="_159691008" />
    <polygon
   style="fill:#ff6600;fill-rule:nonzero"
   points="38.1014,89.7529 38.1015,86.951 41.1681,80.5366 38.1015,74.1221 38.1014,71.3201 42.5076,80.5366 "
   class="fil9"
   id="_159690936" />
    <path
   style="fill:#ff0000;fill-rule:nonzero"
   inkscape:connector-curvature="0"
   d="m 38.1017,66.6499 -6.639,13.8865 6.639,13.8868 6.6388,-13.8868 -6.6388,-13.8865 z m 0,6.6773 3.4464,7.2094 -3.4464,7.2092 -3.4467,-7.2092 3.4467,-7.2094 z"
   class="fil10"
   id="_159690864" />
   </g>
   <g
   id="_159704992">
    <polygon
   style="fill:#990000;fill-rule:nonzero"
   points="46.4017,73.2219 46.4016,70.42 43.335,64.0056 46.4016,57.591 46.4017,54.7891 41.9955,64.0056 "
   class="fil8"
   id="_159690768" />
    <polygon
   style="fill:#990000;fill-rule:nonzero"
   points="46.4014,78.6869 46.4014,75.8773 52.0771,64.0054 46.4014,52.1337 46.4014,49.3241 53.4203,64.0054 "
   class="fil8"
   id="_159705232" />
    <polygon
   style="fill:#ff6600;fill-rule:nonzero"
   points="46.4016,78.6869 46.4016,75.8773 40.7259,64.0054 46.4016,52.1337 46.4016,49.3241 39.3827,64.0054 "
   class="fil9"
   id="_159705160" />
    <polygon
   style="fill:#ff6600;fill-rule:nonzero"
   points="46.4014,73.2219 46.4014,70.42 49.4681,64.0056 46.4014,57.591 46.4014,54.7891 50.8076,64.0056 "
   class="fil9"
   id="_159705088" />
    <path
   style="fill:#ff0000;fill-rule:nonzero"
   inkscape:connector-curvature="0"
   d="m 46.4016,50.1189 -6.6389,13.8865 6.6389,13.8868 6.6388,-13.8868 -6.6388,-13.8865 z m 0,6.6773 3.4465,7.2094 -3.4465,7.2092 -3.4466,-7.2092 3.4466,-7.2094 z"
   class="fil10"
   id="_159705016" />
   </g>
  </g><g
   id="bear">
   <path
   style="fill:#2c2c2b;fill-rule:nonzero"
   inkscape:connector-curvature="0"
   id="path64"
   d="m 13.3978,26.4933 0,0 0.1536,-0.1767 0.0773,0.5919 0.1369,-0.1892 0.1292,0.5845 0.1231,-0.2062 c 0.0452,0.1677 0.1822,0.5032 0.0472,0.5593 -0.4229,0.1372 -0.9831,0.3568 -1.0944,0.5386 -0.2257,0.0456 -0.5053,0.1757 -0.571,0.3598 0.1504,-0.0709 0.2792,-0.1084 0.4469,-0.1225 l 0.0168,0.0423 c -0.2037,0.0526 -0.3887,0.1927 -0.4518,0.3441 0.1253,-0.0472 0.3424,-0.1398 0.5043,-0.1501 l 0.0308,0.0455 c -0.201,0.0638 -0.3578,0.2158 -0.4197,0.347 0.1692,-0.0475 0.3527,-0.1475 0.5374,-0.1764 l 0.0417,0.0334 c -0.1899,0.0798 -0.2893,0.173 -0.369,0.3071 0.183,-0.0461 0.3475,-0.1068 0.5321,-0.1372 0.0244,0.0163 0.177,0.0031 0.2103,-7e-4 l 2.039,-0.2389 c 0.1231,-0.0143 0.3582,0.0032 0.3915,-0.2106 0.0209,-0.133 0.0372,-0.2533 0.0372,-0.3675 l -0.001,-1.3225 0.1626,0.219 4e-4,-1.7469 0.1278,-0.3571 c 0.1575,0.6486 0.3636,1.0865 0.6663,1.7583 l 0.0029,0.0077 0.001,-0.0023 c 6e-4,10e-4 9e-4,0.0017 0.0016,0.0023 6e-4,-0.0035 0.0012,-0.007 0.0019,-0.0109 l 0.0987,-0.2357 0.3005,0.5846 0.0718,-0.2585 0.3678,0.5499 0.0349,-0.2369 c 0.1074,0.1728 0.3187,0.5896 0.2078,0.6323 -0.3713,0.1429 -0.8737,0.2763 -1.1402,0.5989 -0.2071,0.0446 -0.4572,0.1754 -0.5085,0.3607 0.1491,-0.0712 0.261,-0.1064 0.4502,-0.1369 0.0041,0.0141 0.0086,0.0285 0.0131,0.0426 -0.2007,0.0635 -0.3892,0.1969 -0.4438,0.354 0.1222,-0.0542 0.3332,-0.1357 0.5185,-0.1558 0.0058,0.0128 0.0116,0.0256 0.0177,0.0385 -0.1969,0.0744 -0.3697,0.2094 -0.4339,0.3469 0.1677,-0.0472 0.3665,-0.1334 0.5608,-0.1632 0.0087,0.0131 0.0292,0.0263 0.0385,0.0395 -0.1795,0.082 -0.3007,0.1458 -0.3687,0.286 0.1946,-0.0568 0.4053,-0.1069 0.5608,-0.1357 0.0747,0.0154 0.1939,0.0147 0.2529,0.0071 l 2.1082,-0.2806 c 0.1238,-0.0167 0.2786,-0.0561 0.302,-0.2357 0.0154,-0.1183 0.0122,-0.2542 -9e-4,-0.4004 l -0.1549,-1.2903 0.2039,0.1898 -0.3302,-1.8879 0.0016,-2.1254 0.2735,0.2196 0.0359,-2.9652 0.0032,-1.0671 c 7e-4,-0.2651 -0.0212,-0.5444 -0.1491,-1.1148 -0.0539,-0.2418 -0.2421,-1.1034 -0.3652,-1.246 l -0.0507,-1.548 0.2126,0.0801 -0.0583,-0.6826 0.1956,0.0865 -0.1187,-0.6777 0.2059,0.0715 -0.1437,-0.6689 0.2149,0.0554 -0.1918,-0.6374 0.2418,0.0668 c -0.1668,-0.6945 -0.4133,-1.3425 -0.7038,-1.9117 l 2.0001,-1.4422 c 0.0433,0.0295 0.0991,0.032 0.1401,0.0026 L 21.4031,9.9113 C 21.4326,9.8902 21.449,9.8562 21.4502,9.82 l 0.1081,-0.084 c 0.0484,0.092 0.0907,0.1869 0.125,0.2841 0.0247,0.0734 0.0436,0.1462 0.0568,0.2225 0.0112,0.0718 0.0167,0.1424 0.0173,0.2148 -3e-4,0.0708 -0.0051,0.1398 -0.0148,0.21 -0.0147,0.0891 -0.0368,0.1725 -0.0689,0.2568 -0.0109,0.0269 -0.0228,0.0536 -0.0349,0.0802 -0.0308,0.0635 -0.0651,0.1231 -0.1033,0.1825 -0.0987,0.1474 -0.1516,0.2064 -0.2655,0.3417 0.0843,0.0061 0.1296,-9e-4 0.2097,-0.0192 0.0311,-0.0071 0.0789,-0.0224 0.1094,-0.0356 0.0596,-0.0282 0.1157,-0.0593 0.1715,-0.0946 0.0539,-0.0356 0.1052,-0.0734 0.1552,-0.1135 0.0519,-0.0433 0.1003,-0.0882 0.1468,-0.1372 0.0443,-0.0484 0.0844,-0.0982 0.1222,-0.1513 0.0423,-0.0619 0.0792,-0.1248 0.1125,-0.1921 0.0228,-0.0481 0.043,-0.0965 0.0616,-0.1465 0.025,-0.0712 0.0452,-0.1424 0.0619,-0.2161 0.0176,-0.0838 0.0301,-0.1671 0.0381,-0.2527 0.0084,-0.1107 0.008,-0.2183 -0.0012,-0.329 C 22.4538,9.8046 22.4493,9.7686 22.4439,9.7325 22.4298,9.6475 22.4112,9.5654 22.3868,9.4827 22.3682,9.4233 22.3474,9.3657 22.3243,9.3076 22.3066,9.2662 22.2884,9.2252 22.2698,9.1845 l 0.1186,-0.092 c 0.0436,0.0321 0.1016,0.0359 0.144,0.0054 L 22.5542,9.0822 C 22.5991,9.0501 22.6125,8.9889 22.5917,8.935 l 0.0285,-0.0221 c 0.1062,0.0352 0.2274,0.0208 0.3248,-0.0494 0.1129,-0.0814 0.1648,-0.2171 0.1456,-0.3466 l 0.1113,-0.101 c 0.0949,7e-4 0.1894,0.0071 0.2834,0.0221 0.0747,0.0126 0.1462,0.0296 0.2196,0.0481 L 24.983,6.9506 23.1217,7.6769 23.114,7.7795 C 23.1015,7.9019 23.0771,8.0196 23.0422,8.1373 23.038,8.1504 23.0338,8.1633 23.0297,8.1761 L 22.8979,8.2498 C 22.7815,8.1909 22.6362,8.1969 22.5234,8.2784 22.4262,8.3482 22.3743,8.4579 22.3736,8.5695 L 22.3441,8.589 C 22.2993,8.5487 22.2342,8.5406 22.188,8.574 L 22.1662,8.5897 C 22.1226,8.6211 22.1085,8.6801 22.1274,8.733 L 22.0751,8.7677 C 22.044,8.7009 22.0136,8.6336 21.9844,8.5663 21.9511,8.4855 21.9238,8.4044 21.9023,8.3194 21.8824,8.2354 21.869,8.1517 21.8609,8.0654 21.8523,7.9504 21.8526,7.8362 21.8651,7.7211 l 0.0132,-0.0808 c 0.0115,-0.0545 0.0253,-0.1071 0.0423,-0.1603 0.0186,-0.0535 0.0391,-0.1052 0.0622,-0.1572 0.025,-0.0516 0.0513,-0.1009 0.0805,-0.1506 0.0381,-0.061 0.0782,-0.1183 0.1228,-0.1751 0.0269,-0.033 0.0545,-0.0648 0.0834,-0.0962 0.0487,-0.0507 0.0987,-0.0972 0.1529,-0.1417 0.0353,-0.0279 0.0712,-0.0548 0.109,-0.0795 0.0997,-0.0648 0.2071,-0.1158 0.3129,-0.1696 L 22.6164,6.3975 22.5295,6.3577 22.3567,6.2879 22.1848,6.2312 22.0139,6.1878 21.9289,6.1715 21.844,6.158 21.7593,6.1481 21.6747,6.1413 21.59,6.1382 l -0.0843,3e-4 -0.084,0.0032 -0.0843,0.007 -0.0837,0.01 -0.084,0.0138 -0.0837,0.0166 -0.0837,0.0202 -0.1667,0.05 -0.1668,0.0632 -0.1667,0.076 -0.1667,0.0888 -0.1671,0.1017 -0.1676,0.1141 -0.1479,0.1109 -0.1395,0.1158 -0.1308,0.1199 -0.1215,0.1257 -0.1122,0.1308 -0.1016,0.1366 -0.0914,0.143 -0.0414,0.0737 -0.0385,0.0754 -0.0356,0.0772 -0.0327,0.0789 -0.0295,0.0805 -0.0263,0.0821 -0.0234,0.084 -0.0198,0.086 -0.0167,0.0874 -0.0132,0.0895 -0.0099,0.0914 -0.0064,0.093 -0.0032,0.0949 6e-4,0.0968 0.0042,0.0991 0.0077,0.1007 0.0115,0.1029 0.0372,0.2578 C 18.9983,9.2614 19.0743,9.1835 19.1577,9.1139 19.2238,9.06 19.2924,9.0126 19.3664,8.9703 19.4591,8.919 19.5546,8.8783 19.6556,8.8462 19.7425,8.8202 19.8291,8.8023 19.9189,8.7907 20.05,8.776 20.1783,8.7757 20.3097,8.7904 l 0.0725,0.0106 c 0.0728,0.0135 0.143,0.0308 0.2135,0.0529 0.0465,0.0157 0.0917,0.0331 0.1369,0.0522 0.0562,0.0254 0.1097,0.0527 0.1629,0.0835 0.0738,0.0452 0.1414,0.0939 0.2075,0.1496 0.0327,0.0296 0.0641,0.0594 0.0949,0.0908 0.0231,0.0247 0.0455,0.0497 0.0673,0.075 l -0.125,0.0831 C 21.1049,9.3775 21.0671,9.3816 21.0369,9.4032 L 21.0155,9.4188 C 20.9738,9.4487 20.959,9.5032 20.9738,9.5539 l -1.954,1.4088 c -0.1157,-0.1975 -0.2366,-0.3828 -0.3604,-0.554 L 18.8618,10.4154 18.5437,9.9611 18.7399,9.9524 18.3885,9.602 18.5834,9.5772 18.2144,9.2304 18.4068,9.1899 C 18.0509,8.7112 17.5612,8.2081 17.2403,7.9862 c 10e-4,-3e-4 0.0016,-9e-4 0.0023,-0.0015 0,0 0.1494,-0.0718 0.1542,-0.1882 C 17.4016,7.6801 17.2531,7.487 17.0915,7.3709 16.9229,7.2498 16.7523,7.234 16.6683,7.2793 16.6221,7.3043 16.575,7.3607 16.5352,7.4281 16.4442,7.3652 16.3538,7.3094 16.2515,7.2671 16.2454,7.2633 16.2393,7.2594 16.2332,7.2556 16.212,7.2478 16.1912,7.2418 16.1707,7.2369 16.1049,7.2158 16.0338,7.1997 15.9542,7.1908 15.8651,7.1805 15.7702,7.1751 15.6717,7.1738 15.2443,7.168 14.7439,7.2405 14.2943,7.3521 14.1343,7.3918 13.847,7.6499 13.8426,7.6499 l -1.1344,0.0847 c -0.253,-0.0096 -0.1594,0.2565 -0.1328,0.4431 0.0186,0.1283 0.0414,0.2779 0.0414,0.2779 0.4607,0.1457 0.7102,0.2377 0.8522,0.3758 0.0199,0.0498 0.0147,0.1511 0.0026,0.1803 -0.1142,-0.0555 -0.4271,-0.1944 -0.7071,-0.1889 -0.0304,0.0035 0.0097,0.1475 0.0472,0.2864 0.0295,0.0916 0.1661,0.1901 0.3402,0.3314 0.4348,0.3525 0.6255,0.9822 0.7025,1.2993 l -3e-4,0.0019 7e-4,-6e-4 0,3e-4 c 0,-3e-4 0,-3e-4 0,-3e-4 l 0.1269,-0.1235 0.027,0.454 0.1109,-0.1391 0.084,0.4466 0.091,-0.1458 0.1844,0.4139 0,0.5775 c -0.1546,0.0048 -0.309,0.0063 -0.4511,0.0035 -0.3807,-0.0081 -0.5813,-0.011 -0.8465,-0.2767 L 11.7247,10.4904 C 11.6202,10.3856 11.4493,10.1676 11.1669,10.0271 L 10.1611,9.5269 C 9.9347,9.4144 9.6795,9.3182 9.4204,9.3586 9.1645,9.281 8.9161,9.2233 8.7874,9.349 8.944,9.3823 9.0888,9.4253 9.2325,9.4775 9.2142,9.4955 9.1972,9.5145 9.1815,9.534 8.9327,9.5231 8.6528,9.4926 8.5646,9.6378 8.746,9.6299 8.9122,9.6613 9.0898,9.6921 9.0799,9.7183 9.0722,9.7449 9.0671,9.7722 8.8471,9.7812 8.6259,9.7949 8.5611,9.9274 8.7294,9.9046 8.8875,9.9171 9.0538,9.9309 9.053,9.9611 9.0523,9.9902 9.0523,10.0184 8.8413,10.047 8.6348,10.0829 8.5841,10.2163 8.7448,10.1794 8.8994,10.1765 9.0613,10.1749 9.0654,10.2073 9.0712,10.2368 9.0786,10.2635 8.91,10.307 8.7628,10.3641 8.731,10.4792 c 0.1424,-0.0468 0.2825,-0.0651 0.4277,-0.0805 0.0023,0.0016 0.0042,0.0032 0.0061,0.0045 0.5698,0.3995 0.9988,1.2204 1.5131,1.4348 l 0.1481,0.2155 -0.3209,0.0427 0.5101,0.4969 -0.293,0.0516 0.5312,0.4746 -0.2905,0.0641 0.5509,0.4515 -0.2876,0.0766 0.5919,0.4444 -0.2944,0.0923 1.1165,0.7635 -1.5932,0.3924 c -0.6173,0.152 -0.844,0.3534 -1.0376,0.6188 L 9.1033,17.2657 C 8.8683,17.588 8.7724,17.79 8.7487,18.0756 8.7409,18.1093 8.7393,18.1427 8.7438,18.1744 8.7092,18.2629 8.6774,18.3511 8.6627,18.4303 l -1.3871,1.0001 -0.0272,0.0288 -0.0167,0.0407 -0.0035,0.0394 0.0042,0.0363 0.0096,0.0337 0.0134,0.032 0.036,0.0597 0.0452,0.0526 0.0263,0.0227 0.0288,0.0199 0.033,0.0157 0.0386,0.009 0.0439,-0.0029 0.0358,-0.017 1.3939,-1.0045 c 0.0106,0.0205 0.024,0.0388 0.0416,0.0538 0.0038,-0.0323 0.0094,-0.0638 0.0151,-0.0949 l 0.1783,-0.1286 c -0.0013,0.1206 0.0192,0.2222 0.092,0.2742 0.0038,-0.1334 0.0282,-0.2568 0.0584,-0.3825 l 0.0929,-0.0671 c 0.0058,-3e-4 0.0119,-9e-4 0.018,-0.0012 -0.0055,0.2061 0,0.4056 0.1196,0.4752 -0.0106,-0.1713 0.0138,-0.3296 0.0398,-0.497 0.0279,-0.0055 0.0563,-0.0132 0.0836,-0.0225 0.0132,0.2152 0.0331,0.4286 0.1642,0.4896 -0.0311,-0.2011 -0.0112,-0.3886 0,-0.5938 0.3992,-0.3322 0.8581,-0.5588 1.1989,-0.9568 l 0.2484,-0.0609 -0.1112,0.2703 0.6772,-0.1891 -0.1017,0.2757 0.6685,-0.2171 -0.0901,0.28 0.6499,-0.2421 -0.016,0.0692 -0.0528,0.2094 0.9394,-0.1818 0.0148,0.0029 c -0.0969,0.9433 -0.1537,1.7756 -0.1867,2.7558 l 0,0 0.1841,-0.0773 -0.1254,0.5314 0.1738,-0.0869 -0.0766,0.5431 0.1577,-0.0997 c 0.0093,0.0763 0.0173,0.4521 0.0529,0.7291 l -0.6336,1.348 c -0.2452,0.522 -0.3495,1.3781 -0.2847,2.035 0.117,0.6461 0.1436,0.7417 0.2706,1.2534 z"
   class="fil11" />
   <path
   style="fill:#ffffff;fill-rule:nonzero"
   inkscape:connector-curvature="0"
   id="path66"
   d="m 21.8712,11.2003 c -0.126,0.1026 -0.2677,0.192 -0.4242,0.2411 0.2373,-0.2882 0.3835,-0.5601 0.3944,-0.9346 0.0087,-0.2905 -0.0587,-0.5175 -0.1895,-0.7757 -0.008,-0.0163 -0.0163,-0.032 -0.025,-0.0481 l 0.5832,-0.4521 0.017,0.037 c 0.1626,0.352 0.2033,0.7252 0.128,1.1033 -0.0651,0.3267 -0.2149,0.6101 -0.4839,0.8291 z m -0.2831,-1.5874 0,0 -0.22,0.1705 c 0.008,0.0157 0.0109,0.0302 0.0026,0.0494 -0.009,0.0128 -0.0231,0.0214 -0.0365,0.0289 -0.0206,0.006 -0.035,-0.001 -0.051,-0.0138 L 21.0674,9.551 c -0.0125,-0.0212 -0.0189,-0.0372 -0.009,-0.0613 0.009,-0.0125 0.0228,-0.0211 0.0366,-0.0289 0.0205,-0.006 0.0349,10e-4 0.0513,0.0138 l 0.0019,0.0029 0.2405,-0.1593 C 21.3438,9.2617 21.296,9.2072 21.245,9.1554 20.9548,8.8587 20.5444,8.6959 20.1321,8.6955 c -0.2632,0 -0.5044,0.0513 -0.7397,0.1703 -0.1071,0.0538 -0.2055,0.1196 -0.2972,0.1975 -0.0391,0.033 -0.0763,0.0682 -0.1132,0.1045 -0.177,-1.1036 0.2757,-1.8337 1.0703,-2.4041 0.8795,-0.631 1.7099,-0.7234 2.6205,-0.2565 -0.066,0.0333 -0.1295,0.0686 -0.1908,0.1097 -0.3777,0.2523 -0.6727,0.7162 -0.698,1.1767 -0.0167,0.2975 0.0301,0.5793 0.1552,0.8506 l 0.109,0.2363 0.1927,-0.1279 -0.0224,-0.0308 C 22.206,8.7006 22.1992,8.6843 22.2095,8.6605 c 0.009,-0.0127 0.0228,-0.0214 0.0365,-0.0288 0.0206,-0.0064 0.035,6e-4 0.0513,0.0138 l 0.034,0.0471 0.1299,-0.0862 c -0.0138,-0.1001 0.0266,-0.2046 0.1138,-0.2678 0.1001,-0.0718 0.2318,-0.0683 0.3274,-9e-4 l 0.1981,-0.1113 c 0.008,-0.023 0.0157,-0.0465 0.0231,-0.0696 0.042,-0.1398 0.0699,-0.2821 0.0792,-0.4283 L 24.7306,7.1328 23.6815,8.3931 C 23.6145,8.3752 23.5465,8.362 23.4779,8.3515 23.416,8.3428 23.3542,8.3374 23.2926,8.3348 l 0.8878,-0.8061 -0.5736,0.4136 -0.43,0.3899 0,0 -0.1683,0.1529 c 0.034,0.112 -0.0048,0.238 -0.1045,0.3102 -0.0879,0.0631 -0.2001,0.0682 -0.2908,0.0227 l -0.1219,0.0945 0.0215,0.0296 c 0.0125,0.0211 0.0193,0.0378 0.009,0.0616 -0.009,0.0127 -0.0231,0.0211 -0.0366,0.0288 -0.0205,0.0061 -0.0349,-9e-4 -0.0513,-0.0138 l -0.0285,-0.0394 -0.2071,0.1603 0,0 -0.6102,0.4733 z"
   class="fil3" />
   <path
   style="fill:#b1b4b6;fill-rule:nonzero"
   inkscape:connector-curvature="0"
   id="path68"
   d="m 19.9824,7.1346 c 0.1837,-0.1548 0.3774,-0.2862 0.5899,-0.3988 0.328,-0.1735 0.8734,-0.3665 1.6064,-0.1334 -0.0539,0.05 -0.1039,0.1016 -0.1507,0.1552 -0.613,-0.169 -1.196,-0.0055 -1.7141,0.3681 -0.5153,0.3713 -0.8506,0.876 -0.8862,1.506 -0.068,0.0282 -0.1341,0.0599 -0.1982,0.0962 -0.0048,-0.8301 0.5214,-1.3986 0.7529,-1.5933 z m 3.1412,1.0222 c -0.0074,0.0235 -0.0151,0.0466 -0.0231,0.0696 l 0.5069,-0.2847 0.5733,-0.413 -1.0452,0.5871 c -0.0039,0.0138 -0.008,0.0272 -0.0119,0.041 z m -0.3841,0.1293 c 0.1549,0 0.2812,0.126 0.2812,0.2809 0,0.1548 -0.1263,0.2811 -0.2812,0.2811 -0.0452,0 -0.0885,-0.0108 -0.1263,-0.0301 l -0.059,0.0459 -0.009,0.0067 -0.0539,0.0419 -0.16,-0.2199 0.0584,-0.0388 0.009,-0.0057 0.0625,-0.0417 C 22.4593,8.5936 22.4583,8.5804 22.4583,8.567 c 0,-0.1549 0.1263,-0.2809 0.2812,-0.2809 z m -0.1469,0.5204 c -9e-4,-4e-4 -0.0019,-10e-4 -0.0028,-0.0016 -7e-4,-4e-4 -0.0013,-7e-4 -0.0017,-0.0014 l 0,0 C 22.5407,8.7734 22.5029,8.7288 22.4807,8.6769 c 0.0081,0.0186 0.0183,0.0373 0.0305,0.0545 0.0215,0.0295 0.0478,0.0539 0.0769,0.0721 m 0.136,-0.4626 c 0.1077,0 0.1953,0.0879 0.1953,0.1953 0,0.1074 -0.0876,0.1952 -0.1953,0.1952 -0.1074,0 -0.1949,-0.0878 -0.1949,-0.1952 0,-0.1074 0.0875,-0.1953 0.1949,-0.1953 z m -0.1315,0.4656 c -9e-4,-4e-4 -0.0019,-10e-4 -0.0028,-0.0016 M 22.1745,8.7965 22.305,8.978 21.3832,9.6654 21.219,9.4375 C 21.2181,9.4358 21.2168,9.4346 21.2155,9.4329 l -0.0673,0.0446 0.2135,0.2937 c 0.0026,0.0042 0.0048,0.008 0.0068,0.0122 l 0.0381,-0.0298 0,0 0.935,-0.7249 0.0638,-0.0494 -0.1645,-0.2267 -0.0664,0.0439 z M 21.6272,9.683 21.7866,9.5593 c 0.0647,0.118 0.1202,0.2405 0.1648,0.3661 0.0869,0.2579 0.1125,0.5282 0.0683,0.7978 0.1295,-0.2331 0.1789,-0.5031 0.1725,-0.7679 C 22.1838,9.7642 22.1447,9.5879 22.0729,9.4102 22.0652,9.3922 22.0572,9.374 22.0492,9.3557 l -0.422,0.3273 0,0 z M 22.0145,8.8074 21.8459,8.9196 C 21.8029,8.8276 21.7609,8.7356 21.7221,8.6423 21.5775,8.2764 21.5387,7.8683 21.6333,7.4851 21.6612,7.3867 21.6945,7.2949 21.7362,7.2017 21.8023,7.0657 21.8786,6.9423 21.969,6.8285 21.3928,6.6842 20.8494,6.85 20.3662,7.1985 19.8984,7.5361 19.5633,7.9946 19.5139,8.5986 19.8387,8.4861 20.1831,8.4691 20.5201,8.54 l 0.084,0.0211 c 0.1417,0.0405 0.2715,0.0934 0.4011,0.1639 0.1564,0.0905 0.2908,0.1956 0.4155,0.3268 0.0286,0.0307 0.0561,0.0625 0.0831,0.0945 l -0.1661,0.1103 c 0.0173,0.0202 0.0343,0.0408 0.051,0.0616 l 0.1654,-0.11 0.3261,-0.2161 0,0 0.168,-0.1116 -0.0337,-0.0731 z"
   class="fil12" />
   <path
   style="fill:#e21c2a;fill-rule:nonzero"
   inkscape:connector-curvature="0"
   id="path70"
   d="M 7.504,19.7342 8.9125,18.7185 C 8.8974,18.622 8.9186,18.4973 8.9455,18.3703 8.9314,18.3646 8.9172,18.3585 8.9029,18.352 L 8.7781,18.4422 C 8.747,18.5094 8.7191,18.5784 8.6974,18.6528 8.6698,18.6194 8.6566,18.578 8.6544,18.5313 l -1.3278,0.9574 c -0.0818,0.059 0.0956,0.3046 0.1774,0.2455 z M 9.0202,18.641 9.1767,18.5281 c 0.0022,-0.0292 0.0054,-0.0587 0.009,-0.0888 -0.0321,-0.0052 -0.0636,-0.012 -0.0949,-0.0202 -0.026,0.074 -0.0504,0.1472 -0.0706,0.2219 z m 5.9135,-4.2635 6.2578,-4.512 -0.178,-0.245 -6.9507,5.0115 0.8709,-0.2545 z"
   class="fil13" />
   <path
   style="fill:#f39b7e;fill-rule:nonzero"
   inkscape:connector-curvature="0"
   id="path72"
   d="m 21.0837,9.7173 -6.6864,4.817 -0.2287,0.0666 6.8687,-4.9476 0.0464,0.064 z M 8.925,18.4765 8.7021,18.6371 c 0.0142,-0.0458 0.0305,-0.0899 0.0485,-0.1327 l 0.1895,-0.1366 c 0.0019,9e-4 0.0035,0.0015 0.0054,0.0025 -0.0077,0.0356 -0.0148,0.0715 -0.0205,0.1062 z M 8.6912,18.6448 7.4084,19.5692 7.3619,19.5047 8.6592,18.5701 c 0.0054,0.0279 0.016,0.0529 0.032,0.0747 z"
   class="fil14" />
   <path
   style="fill:#88898b;fill-rule:nonzero"
   inkscape:connector-curvature="0"
   id="path74"
   d="M 13.1971,28.233 13.403,28.1834 13.3359,28.1403 13.1971,28.233 z M 14.6625,7.9946 C 14.5197,7.9449 14.4056,7.9288 14.2898,7.9253 c 0.0048,-0.1728 0.1729,-0.1218 0.2457,-0.0737 0.0496,0.0324 0.0789,0.0728 0.127,0.143 z m -4.2177,7.9665 0.1497,-0.0706 -0.058,-0.0221 -0.0917,0.0927 z M 9.8455,16.612 9.9962,16.4799 9.9212,16.4735 9.8455,16.612 z m 0.1543,0.1895 0.168,-0.1543 -0.0857,-0.0054 -0.0823,0.1597 z m 4.7325,5.6139 -0.0045,-0.2013 -0.0535,0.0539 0.058,0.1474 z m 0.1231,-11.689 0.0459,-0.2071 -0.0683,0.0413 0.0224,0.1658 z m 0.6333,-0.4321 0.0205,-0.2114 -0.0625,0.0494 0.042,0.162 z m 0.1439,-0.633 -0.0484,-0.2065 -0.0436,0.0666 0.092,0.1399 z m 0.4858,0.3116 -0.0484,-0.2065 -0.0436,0.0667 0.092,0.1398 z m 0.4062,-1.2764 -0.0942,-0.1899 -0.027,0.0751 0.1212,0.1148 z m -0.1317,0.7451 -0.0597,-0.2039 -0.0397,0.0692 0.0994,0.1347 z m -1.1424,1.3826 0.0959,-0.2427 -0.0908,0.0372 -0.0051,0.2055 z m 0.673,-0.3318 0.023,-0.2508 -0.074,0.059 0.051,0.1918 z m -0.8112,1.9321 0.1304,-0.2402 -0.0987,0.0273 -0.0317,0.2129 z m 0.4453,-0.4265 0.1007,-0.1865 -0.0769,0.0211 -0.0238,0.1654 z m -0.4149,0.0831 0.1007,-0.1869 -0.077,0.0214 -0.0237,0.1655 z m -0.3892,0.0638 0.1006,-0.1869 -0.0769,0.0215 -0.0237,0.1654 z m -4.6377,4.089 0.151,-0.1321 -0.0749,-0.0064 -0.0761,0.1385 z m 6.263,1.7812 0.1641,-0.4406 -0.1622,0.0702 -0.0019,0.3704 z m 1.1074,-0.6807 0.1065,-0.2863 -0.1052,0.0454 -0.0013,0.2409 z m -0.285,0.3055 0.1215,-0.3267 -0.1202,0.052 -0.0013,0.2747 z m -4.7438,-1.0648 0.2004,-0.0379 -0.0642,-0.0343 -0.1362,0.0722 z m 2.4638,-1.4906 0.2026,-0.0632 -0.0699,-0.0385 -0.1327,0.1017 z m -1.9895,1.7769 0.2025,-0.0631 -0.0698,-0.0385 -0.1327,0.1016 z m 1.0154,0.0651 0.2029,-0.0631 -0.0699,-0.0385 -0.133,0.1016 z m -1.7,-1.1135 0.2004,-0.0379 -0.0642,-0.034 -0.1362,0.0719 z m 2.3666,-0.2438 0.2029,-0.0631 -0.0699,-0.0385 -0.133,0.1016 z m 0.4104,0.4037 0.2029,-0.0631 -0.0699,-0.0385 -0.133,0.1016 z m -0.7272,0.109 0.2026,-0.0631 -0.0698,-0.0385 -0.1328,0.1016 z m -0.356,-0.4072 0.2027,-0.0631 -0.0698,-0.0385 -0.1329,0.1016 z m -0.6312,-0.0291 0.2026,-0.0635 -0.0699,-0.0381 -0.1327,0.1016 z m -1.4683,0.564 0.2005,-0.0378 -0.0641,-0.0343 -0.1364,0.0721 z m 1.1788,0.0468 0.2028,-0.0632 -0.0698,-0.0384 -0.133,0.1016 z m 0.7053,0.1564 0.2027,-0.0631 -0.0699,-0.0385 -0.1328,0.1016 z m -1.1094,-1.0506 0.2027,-0.0633 -0.0696,-0.0384 -0.1331,0.1017 z m 2.1108,1.1475 0.2025,-0.0635 -0.0698,-0.0385 -0.1327,0.102 z m -0.4791,-1.4605 0.2027,-0.0632 -0.0699,-0.0384 -0.1328,0.1016 z m -0.6085,0.1546 0.2026,-0.0632 -0.0699,-0.0385 -0.1327,0.1017 z m 1.6535,1.4874 0.2026,-0.0635 -0.0699,-0.0385 -0.1327,0.102 z m 1.8834,-4.7172 0.1766,-0.1177 -0.0776,-0.0173 -0.099,0.135 z m -1.2761,0.4745 0.217,-0.2978 -0.1369,0.0185 -0.0801,0.2793 z m -1.0697,0.2287 0.1668,-0.306 -0.1263,0.0343 -0.0405,0.2717 z m -0.1982,-0.0651 0.1507,-0.3146 -0.1243,0.0411 -0.0264,0.2735 z m 0.263,-0.3345 0.1304,-0.2398 -0.0987,0.0269 -0.0317,0.2129 z m 0.7724,0.076 0.1863,-0.2946 -0.1282,0.0259 -0.0581,0.2687 z m 1.5182,-0.7438 0.177,-0.1174 -0.0779,-0.0173 -0.0991,0.1347 z m 0.4248,-0.3184 0.1921,-0.0905 -0.0747,-0.0285 -0.1174,0.119 z m -1.0882,0.436 0.1337,-0.1648 -0.0795,0.0068 -0.0542,0.158 z m 0.9956,-0.0772 0.192,-0.0905 -0.0743,-0.0285 -0.1177,0.119 z m -0.6128,-0.0574 0.177,-0.1174 -0.0779,-0.0173 -0.0991,0.1347 z m -1.5509,0.8077 0.1867,-0.2947 -0.1283,0.0262 -0.0584,0.2685 z m -0.1462,0.4306 0.1866,-0.2947 -0.1282,0.0262 -0.0584,0.2685 z m 1.096,-0.7907 0.1487,-0.1511 -0.0798,-0.0013 -0.0689,0.1524 z m -0.1194,0.5011 0.1463,-0.2308 -0.1004,0.0205 -0.0459,0.2103 z m 0.6282,-0.6285 0.1488,-0.1513 -0.0799,-9e-4 -0.0689,0.1522 z m -0.0157,0.3127 0.177,-0.1174 -0.0776,-0.0173 -0.0994,0.1347 z m -0.8433,-0.2068 0.1462,-0.2308 -0.1006,0.0205 -0.0456,0.2103 z m -1.2075,1.8491 0.1671,-0.3062 -0.1267,0.0343 -0.0404,0.2719 z m 0.018,-0.4002 0.2251,-0.4126 -0.1706,0.0465 -0.0545,0.3661 z m 0.6925,-0.7361 0.1863,-0.2944 -0.1282,0.026 -0.0581,0.2684 z M 16.5747,9.9395 16.515,9.736 16.4753,9.8052 16.5747,9.9395 z M 17.6424,9.804 17.5581,9.5189 17.5029,9.6158 17.6424,9.804 z m -0.1635,1.262 -0.0151,-0.4005 -0.1045,0.108 0.1196,0.2925 z m -1.383,-0.3431 0.0623,-0.244 -0.0821,0.0465 0.0198,0.1975 z M 17.1204,8.423 17.0261,8.2331 16.9992,8.3078 17.1204,8.423 z M 16.7763,9.6196 16.7167,9.416 16.6769,9.4853 16.7763,9.6196 z m 0.3508,1.5522 -0.0147,-0.4005 -0.1045,0.108 0.1192,0.2925 z m -0.6393,0.2017 0.0606,-0.3963 -0.1231,0.0866 0.0625,0.3097 z M 16.878,9.1887 16.8052,8.9889 16.7699,9.0604 16.878,9.1887 z m -2.7908,8.7042 0.0911,-0.245 -0.0902,0.0392 -9e-4,0.2058 z m 4.8464,7.5086 -0.0026,-0.2013 -0.0539,0.0532 0.0565,0.1481 z m -0.5964,0.6775 -0.0022,-0.2013 -0.0542,0.0532 0.0564,0.1481 z m -0.3707,-0.6865 -0.0032,-0.2988 -0.0798,0.0789 0.083,0.2199 z m -1.0407,0.0719 -0.0026,-0.2181 -0.0584,0.0574 0.061,0.1607 z m 1.186,0.4043 0.0029,-0.2645 -0.0725,0.068 0.0696,0.1965 z m -0.0343,-1.3387 0.04,-0.2581 -0.0804,0.0561 0.0404,0.202 z m -0.2992,-2.413 0.1193,-0.3088 -0.1148,0.0481 -0.0045,0.2607 z m 0.7083,-0.0049 0.0766,-0.1981 -0.0737,0.0308 -0.0029,0.1673 z m -0.1391,-0.7603 0.0766,-0.1981 -0.0738,0.0308 -0.0028,0.1673 z m -0.1001,-11.0362 -0.0378,-0.2087 -0.0468,0.0645 0.0846,0.1442 z m -0.7826,-0.9653 -0.0757,-0.1982 -0.0343,0.0721 0.11,0.1261 z m 0.2888,1.4018 -0.041,-0.3463 -0.083,0.1013 0.124,0.245 z m -1.0151,-0.4306 -0.0272,-0.2501 -0.0606,0.0724 0.0878,0.1777 z m 0.2123,-0.2072 -0.0318,-0.2937 -0.0712,0.085 0.103,0.2087 z m 0.3033,-1.0856 -0.0757,-0.1982 -0.034,0.0718 0.1097,0.1264 z m -1.0946,2.1488 0.0862,-0.3379 -0.1138,0.0644 0.0276,0.2735 z m -0.2921,-0.0173 0.0872,-0.2841 -0.0994,0.0504 0.0122,0.2337 z m -0.1559,-0.2902 0.0623,-0.2442 -0.0821,0.0468 0.0198,0.1974 z m 0.7089,-0.4632 -0.0093,-0.2518 -0.0657,0.068 0.075,0.1838 z m -1.8785,0.7547 0.0917,-0.1914 -0.0757,0.025 -0.016,0.1664 z m 2.4143,-2.3652 -0.0756,-0.1986 -0.034,0.0721 0.1096,0.1265 z m 0.5419,0.073 -0.0946,-0.1901 -0.0269,0.075 0.1215,0.1151 z m 0.2988,0.5525 -0.0695,-0.2005 -0.0366,0.0709 0.1061,0.1296 z m 0.227,0.4424 -0.0593,-0.2036 -0.0398,0.069 0.0991,0.1346 z M 17.1563,9.627 17.0886,9.3374 17.0277,9.4314 17.1563,9.627 z m 0.6817,0.6063 -0.0667,-0.3422 -0.0754,0.1072 0.1421,0.235 z m 0.2004,0.4155 -0.0283,-0.3476 -0.0869,0.0979 0.1152,0.2497 z m -0.6631,-0.5752 -0.068,-0.2895 -0.0606,0.0936 0.1286,0.1959 z m -0.2129,0.5544 -0.0478,-0.398 -0.0952,0.1164 0.143,0.2816 z m -0.3254,0.7846 0.0173,-0.4005 -0.1129,0.0994 0.0956,0.3011 z m -0.0228,-0.5634 -0.0151,-0.4005 -0.1045,0.1081 0.1196,0.2924 z m -0.3155,0.0689 0.0176,-0.4004 -0.1129,0.0993 0.0953,0.3011 z m -1.1261,0.2575 0.1094,-0.2764 -0.1036,0.0423 -0.0058,0.2341 z m 7e-4,0.4691 0.1282,-0.3242 -0.1212,0.0494 -0.007,0.2748 z m -0.2735,-0.0677 0.0958,-0.243 -0.0907,0.0372 -0.0051,0.2058 z m -0.129,-0.3136 0.0959,-0.243 -0.0907,0.0372 -0.0052,0.2058 z m -0.2561,0.3075 0.0959,-0.243 -0.0908,0.0372 -0.0051,0.2058 z m 1.1282,0.0485 0.0863,-0.3379 -0.1138,0.0644 0.0275,0.2735 z m 0.3223,-0.0199 0.0972,-0.3803 -0.1283,0.0725 0.0311,0.3078 z m 1.3486,-1.0485 -0.058,-0.3437 -0.0783,0.1052 0.1363,0.2385 z m -1.8667,0.8183 0.0734,-0.288 -0.0971,0.0548 0.0237,0.2332 z m 0.4364,6.6782 0.1215,-0.3268 -0.1202,0.052 -0.0013,0.2748 z m -0.6974,-0.052 0.1214,-0.3267 -0.1198,0.0519 -0.0016,0.2748 z m -0.6782,-0.042 0.1216,-0.327 -0.1203,0.0522 -0.0013,0.2748 z m -0.361,0.0298 0.1215,-0.3267 -0.1202,0.0523 -0.0013,0.2744 z m -3.4545,-2.264 0.2646,-0.0461 -0.0838,-0.0463 -0.1808,0.0924 z m -0.2585,0.3415 0.296,-0.0962 -0.1029,-0.0551 -0.1931,0.1513 z m 0.0664,0.3799 0.2963,-0.0962 -0.1032,-0.0551 -0.1931,0.1513 z m 4.3578,1.4984 0.1218,-0.3267 -0.1203,0.0522 -0.0015,0.2745 z m 0.713,-0.0266 0.1216,-0.3271 -0.1203,0.0522 -0.0013,0.2749 z m 1.0979,4.1015 0.1254,-0.3254 -0.1206,0.0507 -0.0048,0.2747 z m 1.2835,-0.8574 0.0766,-0.1982 -0.0737,0.0311 -0.0029,0.1671 z m -2.4808,-1.1824 0.0738,-0.3409 -0.1113,0.0686 0.0375,0.2723 z m 0.5724,0.0243 0.0737,-0.3408 -0.1112,0.0686 0.0375,0.2722 z m -1.735,6.9109 0.0395,-0.1974 -0.0639,0.0407 0.0244,0.1567 z m -0.3482,-8.489 0.1216,-0.3268 -0.1203,0.052 -0.0013,0.2748 z m 0.1087,1.4938 0.0911,-0.2447 -0.0898,0.0392 -0.0013,0.2055 z m 0.4143,-0.2999 0.1638,-0.4404 -0.1618,0.0702 -0.002,0.3702 z m 1.6452,-0.8223 0.1215,-0.3268 -0.1199,0.052 -0.0016,0.2748 z m -0.1668,1.741 0.033,-0.2635 -0.0801,0.0595 0.0471,0.204 z m -0.3597,0.3117 0.033,-0.2639 -0.0798,0.0599 0.0468,0.204 z m 0.4418,0.1766 0.033,-0.2635 -0.0798,0.0596 0.0468,0.2039 z M 10.238,16.471 10.4778,16.3099 10.372,16.2868 10.238,16.471 z m -0.093,0.5453 0.1218,-0.1119 -0.0618,-0.0038 -0.06,0.1157 z m 0.6207,-0.305 0.1498,-0.0701 -0.0581,-0.0225 -0.0917,0.0926 z M 10.3999,16.7101 10.5955,16.5924 10.5128,16.57 10.3999,16.7101 z M 9.733,17.0881 9.901,16.9336 9.8157,16.9281 9.733,17.0881 z M 9.5668,16.9015 9.723,16.7582 9.6435,16.7531 9.5668,16.9015 z m 2.0098,-1.1161 0.2036,-0.0606 -0.0692,-0.0395 -0.1344,0.1001 z m 4.1724,-2.6514 0.1007,-0.1869 -0.0769,0.0215 -0.0238,0.1654 z m 0.6897,-0.5123 0.1372,-0.162 -0.0795,0.0049 -0.0577,0.1571 z m -0.3546,0.3264 0.1006,-0.187 -0.0769,0.0215 -0.0237,0.1655 z m 0.3828,-0.6428 0.1911,-0.1957 -0.1029,-9e-4 -0.0882,0.1966 z m -2.0078,1.7435 0.151,-0.3142 -0.1244,0.0407 -0.0266,0.2735 z m 0.0468,-0.4405 0.1511,-0.3143 -0.1244,0.0408 -0.0267,0.2735 z m 0.5702,-0.2325 0.1942,-0.4277 -0.1664,0.0586 -0.0278,0.3691 z m -0.1492,-0.4306 0.2248,-0.4126 -0.1703,0.0464 -0.0545,0.3662 z m 0.2728,0.6621 0.1444,-0.3174 -0.1238,0.0433 -0.0206,0.2741 z m 0.3201,-0.2731 0.1443,-0.3175 -0.1238,0.0436 -0.0205,0.2739 z m 0.3941,-0.4935 0.1462,-0.2312 -0.1008,0.0205 -0.0454,0.2107 z m -0.5451,0.3162 0.1439,-0.3175 -0.1234,0.0436 -0.0205,0.2739 z m 0.267,-0.2768 0.1972,-0.311 -0.1356,0.0272 -0.0616,0.2838 z m -1.0577,0.2328 0.1507,-0.3146 -0.1244,0.0411 -0.0263,0.2735 z m 3.2381,3.897 0.0997,-0.2684 -0.0985,0.0427 -0.0012,0.2257 z m -0.2671,0.6881 0.1,-0.2681 -0.0987,0.0427 -0.0013,0.2254 z m -0.2504,0.5091 0.1215,-0.3271 -0.1199,0.0524 -0.0016,0.2747 z m -0.0879,0.6772 0.1218,-0.3271 -0.1202,0.0523 -0.0016,0.2748 z m -0.2296,-0.2992 0.1219,-0.3267 -0.1203,0.052 -0.0016,0.2747 z m -0.6621,-0.193 0.1219,-0.3267 -0.1203,0.0523 -0.0016,0.2744 z m 0.4165,-0.5033 0.1071,-0.288 -0.1058,0.0462 -0.0013,0.2418 z m 0.5294,5.1666 0.1693,-0.4386 -0.1626,0.0683 -0.0067,0.3703 z m 0.3133,2.8729 -0.0033,-0.2985 -0.0801,0.0786 0.0834,0.2199 z m -0.2319,0.0686 -0.0032,-0.2986 -0.0801,0.0787 0.0833,0.2199 z m 0.0517,-0.3607 -0.0036,-0.2985 -0.0798,0.0786 0.0834,0.2199 z m -0.2665,0.0776 -0.0032,-0.2989 -0.0798,0.0789 0.083,0.22 z m 0.043,-0.3523 -0.0032,-0.2986 -0.0799,0.0785 0.0831,0.2201 z m 0.4431,0.0525 -0.0035,-0.2988 -0.0802,0.0789 0.0837,0.2199 z m -0.4242,-0.5207 0.0285,-0.3475 -0.1016,0.0826 0.0731,0.2649 z m -0.2661,0.103 0.0285,-0.3477 -0.1016,0.0828 0.0731,0.2649 z m 0.6784,-1.491 0.1254,-0.3254 -0.1209,0.0506 -0.0045,0.2748 z m -0.8994,0.8147 0.0555,-0.344 -0.1077,0.0743 0.0522,0.2697 z m -0.2577,-0.1632 0.0557,-0.344 -0.1077,0.0744 0.052,0.2696 z m -0.2604,-0.1818 0.094,-0.2437 -0.0905,0.0379 -0.0035,0.2058 z m -0.0086,-0.4466 0.0939,-0.2437 -0.0904,0.0378 -0.0035,0.2059 z m 0.5357,-0.6705 0.1693,-0.4386 -0.1629,0.0682 -0.0064,0.3704 z m 0.086,0.3521 0.1693,-0.4383 -0.1629,0.0679 -0.0064,0.3704 z m -0.2197,0.7416 0.1257,-0.3252 -0.1209,0.0504 -0.0048,0.2748 z m 0.2713,0.0741 0.1693,-0.4383 -0.1629,0.0683 -0.0064,0.37 z m -0.1033,-0.3261 0.1696,-0.4386 -0.1628,0.0683 -0.0068,0.3703 z m 0.2405,-0.3265 0.1693,-0.4382 -0.1629,0.068 -0.0064,0.3702 z m 0.0859,-0.5668 0.1693,-0.4383 -0.1625,0.0679 -0.0068,0.3704 z m -0.5559,0.2238 0.1256,-0.3254 -0.1208,0.0506 -0.0048,0.2748 z m -1.9158,-2.7902 0.1215,-0.327 -0.1202,0.0523 -0.0013,0.2747 z m 1.431,-1.1834 0.1215,-0.3267 -0.1202,0.0519 -0.0013,0.2748 z m -0.2075,-0.6775 0.1638,-0.4406 -0.1619,0.0703 -0.0019,0.3703 z m -0.2754,0.3367 0.1641,-0.4406 -0.1621,0.0702 -0.002,0.3704 z m -0.278,-0.0597 0.1639,-0.4406 -0.162,0.0703 -0.0019,0.3703 z m -0.8971,0.4028 0.1214,-0.3272 -0.1201,0.0524 -0.0013,0.2748 z m 1.3851,0.387 0.1215,-0.3268 -0.1202,0.052 -0.0013,0.2748 z m -0.3332,0.1724 0.1216,-0.3267 -0.1199,0.052 -0.0017,0.2747 z m 1.5538,-1.4726 0.1216,-0.3268 -0.1203,0.052 -0.0013,0.2748 z m -0.3228,0.1487 0.1218,-0.3267 -0.1202,0.052 -0.0016,0.2747 z m -2.4631,1.3701 0.091,-0.245 -0.0901,0.0392 -9e-4,0.2058 z m -0.2418,-0.2405 0.0908,-0.2446 -0.0898,0.0388 -0.001,0.2058 z m 1.1806,0.5278 0.1453,-0.3902 -0.1434,0.0622 -0.0019,0.328 z m 0.0898,-0.8122 0.1638,-0.4405 -0.1619,0.0702 -0.0019,0.3703 z m -0.3133,0.0619 0.1639,-0.4405 -0.162,0.0701 -0.0019,0.3704 z m -0.2366,-0.1757 0.1639,-0.4406 -0.162,0.0703 -0.0019,0.3703 z m 0.2735,-0.3726 0.1639,-0.4405 -0.162,0.0702 -0.0019,0.3703 z m -0.395,0.0513 0.1638,-0.4402 -0.1619,0.0702 -0.0019,0.37 z m 0.6598,4.2169 -0.0689,-0.1891 -0.0334,0.068 0.1023,0.1211 z m 0.4697,0.1447 -0.0689,-0.1892 -0.0333,0.068 0.1022,0.1212 z m 0.2309,-0.5689 -0.0048,-0.2013 -0.0533,0.0536 0.0581,0.1477 z m -0.9109,-0.4408 -0.0048,-0.2013 -0.0532,0.0539 0.058,0.1474 z m -1.0171,-1.985 0.0558,-0.2588 -0.0846,0.0523 0.0288,0.2065 z m 3.0098,0.5162 0.0523,-0.2421 -0.0789,0.0487 0.0266,0.1934 z m -1.6791,1.3929 0.0329,-0.2636 -0.0801,0.0596 0.0472,0.204 z m 1.363,-0.775 0.033,-0.264 -0.0802,0.0597 0.0472,0.2043 z m -0.4265,0.5794 0.0331,-0.2636 -0.0802,0.0596 0.0471,0.204 z m -0.4427,0.1513 0.033,-0.2636 -0.0802,0.0597 0.0472,0.2039 z m -0.3063,0.6226 -0.0259,-0.2644 -0.0651,0.0756 0.091,0.1888 z m -0.3251,-0.9525 0.0331,-0.2636 -0.0802,0.0597 0.0471,0.2039 z m 0.7179,-0.3591 0.0331,-0.2636 -0.0802,0.0596 0.0471,0.204 z m -0.343,0.3067 0.033,-0.2638 -0.0803,0.0597 0.0473,0.2041 z m 1.6336,-0.4539 0.0525,-0.2421 -0.0792,0.0488 0.0267,0.1933 z m -0.6076,-0.4582 0.0522,-0.2421 -0.0792,0.0488 0.027,0.1933 z m 0.0112,-0.4809 0.0737,-0.3409 -0.1116,0.0686 0.0379,0.2723 z m 0.075,-0.5457 0.1052,-0.2825 -0.1039,0.0452 -0.0013,0.2373 z m -0.6076,-0.0754 0.1216,-0.3271 -0.1203,0.0523 -0.0013,0.2748 z m 0.7108,-0.5076 0.0911,-0.2446 -0.0901,0.0391 -0.001,0.2055 z m -0.3802,0.3242 0.1218,-0.3271 -0.1202,0.0523 -0.0016,0.2748 z m 0.269,-0.5973 0.1218,-0.3271 -0.1202,0.0523 -0.0016,0.2748 z m 1.2627,-0.8215 0.074,-0.1991 -0.0731,0.0317 -9e-4,0.1674 z m -1.9405,0.6922 0.1638,-0.4405 -0.1619,0.0702 -0.0019,0.3703 z m 2.2139,0.6814 0.0741,-0.1988 -0.0731,0.0317 -0.001,0.1671 z m 0.1498,-0.7106 0.0741,-0.1991 -0.0735,0.0318 -6e-4,0.1673 z m -0.3928,1.8148 0.0741,-0.1992 -0.0731,0.0319 -10e-4,0.1673 z m -3.3759,0.792 0.033,-0.2636 -0.0801,0.0597 0.0471,0.2039 z m 3.0607,-2.1195 0.0738,-0.199 -0.0728,0.0317 -10e-4,0.1673 z m 0.0455,0.6372 0.0738,-0.1991 -0.0731,0.0318 -7e-4,0.1673 z m -0.6896,-0.344 0.074,-0.1991 -0.0731,0.0317 -9e-4,0.1674 z m 0.3969,0.9512 0.0741,-0.199 -0.0731,0.0316 -10e-4,0.1674 z m -0.3274,-0.409 0.0738,-0.1992 -0.0731,0.0318 -7e-4,0.1674 z m -2.9184,-0.6475 0.1216,-0.3266 -0.1199,0.0519 -0.0017,0.2747 z m 0.9286,3.192 -0.0048,-0.201 -0.0532,0.0535 0.058,0.1475 z m -0.9488,-2.0241 0.0562,-0.2588 -0.0847,0.0519 0.0285,0.2069 z m 0.2447,-0.1524 0.0558,-0.2587 -0.0843,0.0523 0.0285,0.2064 z m 0.0933,0.4717 0.0558,-0.2587 -0.0843,0.0522 0.0285,0.2065 z m -0.2905,0.2674 0.0542,-0.2109 -0.0712,0.04 0.017,0.1709 z m 0.1885,0.5381 -0.0051,-0.2178 -0.0577,0.0581 0.0628,0.1597 z m 0.3082,0.4007 -0.0052,-0.218 -0.0577,0.0581 0.0629,0.1599 z m 0.167,-0.3778 -0.0054,-0.2176 -0.0575,0.0581 0.0629,0.1595 z m -0.0013,-0.6139 0.033,-0.2639 -0.0801,0.0599 0.0471,0.204 z m 0.4855,0.2126 0.0776,-0.2539 -0.0892,0.0452 0.0116,0.2087 z m -0.3213,-1.6718 0.1218,-0.3267 -0.1202,0.0523 -0.0016,0.2744 z m -0.2713,1.0498 0.0738,-0.3405 -0.1113,0.0682 0.0375,0.2723 z m 0.4505,0.3058 0.0629,-0.3431 -0.109,0.0721 0.0461,0.271 z m 0.3678,-0.2715 0.0741,-0.3409 -0.1116,0.0687 0.0375,0.2722 z m 0.3357,-0.3618 0.0737,-0.3407 -0.1116,0.0686 0.0379,0.2721 z m -0.5502,0.0447 0.0738,-0.3409 -0.1117,0.0687 0.0379,0.2722 z m -0.3274,0.1282 0.0737,-0.3409 -0.1115,0.0686 0.0378,0.2723 z m -0.1818,-0.455 0.1216,-0.3268 -0.1199,0.0524 -0.0017,0.2744 z m -0.8657,-1.0828 0.0908,-0.2449 -0.0898,0.0391 -0.001,0.2058 z m 3.3644,0.5785 0.0741,-0.1989 -0.0731,0.0315 -10e-4,0.1674 z m -2.8479,-1.1591 0.1216,-0.327 -0.1203,0.0522 -0.0013,0.2748 z m -0.1988,0.4688 0.1216,-0.3268 -0.1203,0.0519 -0.0013,0.2749 z m 1.501,0.1978 0.1215,-0.3267 -0.12,0.0519 -0.0015,0.2748 z m -0.2674,0.184 0.1218,-0.3267 -0.1203,0.0519 -0.0015,0.2748 z m -0.2367,0.2306 0.1215,-0.3268 -0.1202,0.0519 -0.0013,0.2749 z m -0.8257,0.0294 0.1216,-0.3266 -0.1203,0.0519 -0.0013,0.2747 z m 0.0456,0.3874 0.1215,-0.3267 -0.1202,0.0521 -0.0013,0.2746 z m 3.1095,-1.4127 0.0741,-0.1989 -0.0731,0.0318 -0.001,0.1671 z m -2.4355,-0.0741 0.1638,-0.4405 -0.1619,0.0702 -0.0019,0.3703 z m 0.3668,-0.0571 0.1638,-0.4406 -0.1619,0.0703 -0.0019,0.3703 z m -0.7214,0.1478 0.1638,-0.4405 -0.1619,0.0702 -0.0019,0.3703 z m 3.1387,-0.9914 0.074,-0.1991 -0.0731,0.0317 -9e-4,0.1674 z m -3.0031,3.9563 0.033,-0.2638 -0.0801,0.0596 0.0471,0.2042 z m 3.9572,6.3525 -0.0022,-0.2014 -0.0542,0.0528 0.0564,0.1486 z m -0.3943,-0.0943 -0.0023,-0.2011 -0.0538,0.053 0.0561,0.1481 z m 0.6605,-0.2376 -0.0026,-0.2014 -0.0539,0.0532 0.0565,0.1482 z m -2.4166,-2.0553 0.0362,-0.2635 -0.0808,0.0586 0.0446,0.2049 z m 1.8721,-0.3267 0.0767,-0.1981 -0.0738,0.0308 -0.0029,0.1673 z m -0.101,0.7093 -0.0022,-0.2014 -0.0542,0.0529 0.0564,0.1485 z m -1.0061,0.6626 -0.0032,-0.2984 -0.0802,0.0786 0.0834,0.2198 z m 0.791,0.0956 -0.0022,-0.2014 -0.0539,0.053 0.0561,0.1484 z m -0.522,-3.896 0.1193,-0.3091 -0.1148,0.0481 -0.0045,0.261 z m 0.4854,2.8642 0.0594,-0.2577 -0.0853,0.0509 0.0259,0.2068 z m 0.2325,-0.9244 0.0346,-0.2205 -0.0689,0.0481 0.0343,0.1724 z m -0.2632,0.4672 0.04,-0.2578 -0.0804,0.0562 0.0404,0.2016 z m 0.8092,1.567 -0.0022,-0.2014 -0.0539,0.0529 0.0561,0.1485 z m -0.2465,-0.6185 -0.0023,-0.2015 -0.0538,0.053 0.0561,0.1485 z m -0.4303,-2.4224 0.0766,-0.1982 -0.0737,0.0308 -0.0029,0.1674 z m 0.3979,0.875 0.0763,-0.1982 -0.0734,0.0308 -0.0029,0.1674 z m -0.4742,-0.3222 0.0763,-0.1979 -0.0738,0.0305 -0.0025,0.1674 z m -1.1476,-2.3083 0.1106,-0.2866 -0.1061,0.0445 -0.0045,0.2421 z m -0.7951,2.063 0.1253,-0.3252 -0.1209,0.0504 -0.0044,0.2748 z m 1.6701,-0.2158 0.0767,-0.1982 -0.0738,0.0308 -0.0029,0.1674 z m 0.1645,3.7075 -0.0022,-0.2014 -0.0539,0.0532 0.0561,0.1482 z m 0.6429,-0.2002 -0.0023,-0.2009 -0.0538,0.0529 0.0561,0.148 z m -0.2389,-0.6421 -0.0022,-0.2014 -0.0542,0.0529 0.0564,0.1485 z m -1.3082,0.1138 -0.0022,-0.2014 -0.0539,0.0529 0.0561,0.1485 z m 0.5163,0.4178 -0.0023,-0.2014 -0.0542,0.0532 0.0565,0.1482 z m 0.0121,-0.3976 -0.0022,-0.2014 -0.0539,0.0529 0.0561,0.1485 z m -1.5188,-2.1806 0.059,-0.2582 -0.0853,0.0513 0.0263,0.2069 z m 0.2251,0.1887 0.0593,-0.258 -0.0853,0.0513 0.026,0.2067 z m 0.185,0.3236 0.0285,-0.3476 -0.1013,0.0827 0.0728,0.2649 z m -0.3024,0.0651 0.0568,-0.2104 -0.0715,0.0395 0.0147,0.1709 z m 0.2428,0.6025 -0.0026,-0.2178 -0.0584,0.0575 0.061,0.1603 z m 0.2154,0.2943 -0.0025,-0.2177 -0.0584,0.0573 0.0609,0.1604 z m 0.2783,0.1785 -0.0022,-0.2179 -0.0584,0.0573 0.0606,0.1606 z m 0.7634,-1.1494 0.0401,-0.258 -0.0805,0.0563 0.0404,0.2017 z m -0.7615,-1.2826 0.1254,-0.325 -0.1205,0.0506 -0.0049,0.2744 z m -0.2468,0.9068 0.0779,-0.3398 -0.1122,0.0673 0.0343,0.2725 z m 0.4533,0.6757 0.0674,-0.3422 -0.11,0.0709 0.0426,0.2713 z m 0.3803,-0.6628 0.0779,-0.3396 -0.1122,0.067 0.0343,0.2726 z m 0.1892,-0.3918 0.0782,-0.3399 -0.1125,0.0674 0.0343,0.2725 z m -0.4079,0.1725 0.078,-0.3399 -0.1123,0.067 0.0343,0.2729 z m -0.3302,0.1026 0.0779,-0.3399 -0.1122,0.0673 0.0343,0.2726 z m -0.1,-0.3963 0.1256,-0.3251 -0.1209,0.0503 -0.0047,0.2748 z m 1.1488,-1.6314 0.0766,-0.1982 -0.0737,0.0308 -0.0029,0.1674 z m 0.2857,0.1699 0.0766,-0.1978 -0.0738,0.0308 -0.0028,0.167 z m 0.1394,0.3999 0.0767,-0.1982 -0.0738,0.0308 -0.0029,0.1674 z m -0.4267,0.0904 0.0766,-0.1979 -0.0737,0.0307 -0.0029,0.1672 z m -0.1228,0.7676 0.0766,-0.1982 -0.0734,0.0308 -0.0032,0.1674 z m 0.5729,-0.2107 0.0767,-0.1981 -0.0738,0.0307 -0.0029,0.1674 z m -2.0248,-1.5217 0.0767,-0.1978 -0.0738,0.0307 -0.0029,0.1671 z m -0.0202,0.3694 0.1257,-0.3255 -0.1209,0.0507 -0.0048,0.2748 z m -0.2459,0.385 0.1257,-0.3254 -0.1209,0.0506 -0.0048,0.2748 z m 1.1505,-0.2552 0.1253,-0.3254 -0.1206,0.0506 -0.0047,0.2748 z m 0.3728,0.2096 0.1257,-0.3251 -0.1208,0.0507 -0.0049,0.2744 z m -0.0275,0.489 0.1083,-0.2808 -0.1045,0.0436 -0.0038,0.2372 z m -0.5502,0.6429 0.15,-0.3882 -0.1443,0.0602 -0.0057,0.328 z m 0.2946,-0.8759 0.1254,-0.3255 -0.1209,0.0507 -0.0045,0.2748 z m -0.2164,0.3136 0.1257,-0.3255 -0.1209,0.0507 -0.0048,0.2748 z m -0.8397,0.0692 0.1257,-0.3254 -0.1209,0.0506 -0.0048,0.2748 z m -0.2152,-0.0532 0.1254,-0.3251 -0.1206,0.0506 -0.0048,0.2745 z m 1.3313,0.4832 0.1257,-0.3255 -0.1209,0.0507 -0.0048,0.2748 z m 0.3495,-1.7244 0.1192,-0.3088 -0.1147,0.0481 -0.0045,0.2607 z m -0.648,0.2042 0.1689,-0.4386 -0.1628,0.0683 -0.0061,0.3703 z m -0.1844,-0.1856 0.1693,-0.4383 -0.1629,0.068 -0.0064,0.3703 z m -0.2283,0.2927 0.1693,-0.4383 -0.1629,0.0684 -0.0064,0.3699 z m 0.9401,-0.8304 0.1193,-0.3091 -0.1148,0.0481 -0.0045,0.261 z m 0.1857,0.1154 0.0763,-0.1981 -0.0735,0.0308 -0.0028,0.1673 z m 0.7926,0.1559 0.0763,-0.1982 -0.0735,0.0308 -0.0028,0.1674 z m -0.0626,-0.7853 0.0767,-0.1978 -0.0738,0.0308 -0.0029,0.167 z m -0.2789,0.463 0.0766,-0.1981 -0.0737,0.0308 -0.0029,0.1673 z m -0.7118,-0.3576 0.0766,-0.198 -0.0734,0.0307 -0.0032,0.1673 z m -0.2536,0.6596 0.1692,-0.4385 -0.1628,0.0682 -0.0064,0.3703 z m -0.126,-0.3472 0.124,-0.3216 -0.1192,0.05 -0.0048,0.2716 z m 1.0831,5.4603 -0.0023,-0.2013 -0.0539,0.053 0.0562,0.1483 z m -0.8677,-1.9821 -0.0035,-0.2985 -0.0798,0.0785 0.0833,0.22 z m -0.228,-0.2394 0.0908,-0.2845 -0.1007,0.0494 0.0099,0.2351 z m 0.4105,0.9464 -0.0033,-0.2984 -0.0801,0.0785 0.0834,0.2199 z m -0.077,0.3938 -0.0032,-0.2988 -0.0798,0.0785 0.083,0.2203 z m 0.2055,0.2565 -0.0035,-0.2986 -0.0798,0.0786 0.0833,0.22 z m 0.179,0.5547 -0.0026,-0.2366 -0.0635,0.0622 0.0661,0.1744 z m -7.0389,-10.7804 0.2645,-0.0461 -0.0837,-0.0462 -0.1808,0.0923 z m 0.1497,0.3848 0.2011,-0.035 -0.0635,-0.0349 -0.1376,0.0699 z m 7.6321,2.6558 0.0282,-0.2106 -0.0642,0.0471 0.036,0.1635 z m -0.237,-1.4432 0.0282,-0.2103 -0.0644,0.0471 0.0362,0.1632 z m -0.0686,2.4406 0.0282,-0.2106 -0.0644,0.0472 0.0362,0.1634 z m -5.1343,3.3405 0.1096,-0.2765 -0.1032,0.0424 -0.0064,0.2341 z m 0.6753,0.9529 0.057,-0.344 -0.108,0.074 0.051,0.27 z m -0.4284,-0.0468 0.1734,-0.4368 -0.1635,0.0668 -0.0099,0.37 z m 0.2135,-1.0592 0.1732,-0.4369 -0.1632,0.0667 -0.01,0.3702 z m -0.2196,0.5731 0.1734,-0.437 -0.1634,0.0667 -0.01,0.3703 z m 0.259,0.329 0.1735,-0.4371 -0.1635,0.0668 -0.01,0.3703 z m -0.0048,-0.4467 0.1736,-0.437 -0.1637,0.0669 -0.0099,0.3701 z m 0.4089,0.6531 0.0567,-0.344 -0.108,0.0741 0.0513,0.2699 z m 0.2202,-0.3331 0.1283,-0.3242 -0.1209,0.0494 -0.0074,0.2748 z m -0.1148,-0.2829 0.1731,-0.4369 -0.1631,0.067 -0.01,0.3699 z m -0.9708,0.1306 0.1097,-0.2767 -0.1033,0.0423 -0.0064,0.2344 z m 0.2067,-0.5637 0.1097,-0.2763 -0.1035,0.042 -0.0062,0.2343 z m -3e-4,-0.3113 0.1097,-0.2764 -0.1035,0.042 -0.0062,0.2344 z m -0.1487,1.3316 0.0561,-0.2934 -0.094,0.0613 0.0379,0.2321 z m 0.1722,0.3154 0.0561,-0.2933 -0.0939,0.0609 0.0378,0.2324 z m -0.0167,1.5914 0.0327,-0.1985 -0.0622,0.0427 0.0295,0.1558 z m 0.3831,-0.9843 0.0331,-0.1985 -0.0626,0.0426 0.0295,0.1559 z m 0.1334,-0.1594 0.0561,-0.2934 -0.0939,0.061 0.0378,0.2324 z m -0.0356,-0.3777 0.0561,-0.2934 -0.0939,0.061 0.0378,0.2324 z m -0.6166,0.3764 0.0357,-0.2148 -0.0674,0.0461 0.0317,0.1687 z m 0.1905,0.1299 0.0433,-0.1882 -0.0622,0.0372 0.0189,0.151 z m 0.3088,0.4444 0.033,-0.1988 -0.0625,0.043 0.0295,0.1558 z m 0.4829,-1.1251 0.057,-0.3441 -0.1077,0.0741 0.0507,0.27 z m -0.3403,-0.6159 0.1286,-0.3242 -0.1212,0.0493 -0.0074,0.2749 z m 0.0293,-0.3977 0.1731,-0.437 -0.1635,0.0667 -0.0096,0.3703 z m -0.2944,-0.815 0.1097,-0.2764 -0.1036,0.0424 -0.0061,0.234 z m 0.2232,3.6517 0.0327,-0.1988 -0.0623,0.0427 0.0296,0.1561 z m 0.309,-1.0606 0.0434,-0.1882 -0.0623,0.0371 0.0189,0.1511 z m -1.1443,-1.3452 0.0433,-0.1882 -0.0622,0.0373 0.0189,0.1509 z m 0.2261,1.5981 0.0432,-0.1882 -0.0622,0.0371 0.019,0.1511 z m -0.0802,-0.8116 0.0433,-0.1882 -0.0622,0.0373 0.0189,0.1509 z m 1.7776,-0.1628 0.033,-0.1984 -0.0625,0.0426 0.0295,0.1558 z m -1.4903,0.2876 0.0433,-0.1882 -0.0626,0.0369 0.0193,0.1513 z m 0.1795,-0.2706 0.0561,-0.2934 -0.0939,0.0613 0.0378,0.2321 z m 0.7997,0.0715 0.0972,-0.2979 -0.1059,0.051 0.0087,0.2469 z m 0.2296,0.733 0.049,-0.26 -0.0833,0.0545 0.0343,0.2055 z m 0.0185,-0.5608 0.0331,-0.1988 -0.0625,0.0426 0.0294,0.1562 z m -0.3276,0.7965 0.0331,-0.1985 -0.0626,0.0426 0.0295,0.1559 z m 0.5639,0.0586 0.0331,-0.1984 -0.0625,0.0425 0.0294,0.1559 z m 0.0848,-0.6211 0.0326,-0.1987 -0.0622,0.0429 0.0296,0.1558 z m -0.4012,1.4737 0.0113,-0.2011 -0.0575,0.0494 0.0462,0.1517 z m 0.3149,-0.2818 0.033,-0.1985 -0.0626,0.0426 0.0296,0.1559 z m -0.2915,-0.3056 0.0327,-0.1986 -0.0621,0.0428 0.0294,0.1558 z m -1.0571,-0.0388 0.0327,-0.1985 -0.0622,0.0427 0.0295,0.1558 z m 0.0022,-0.4819 0.0327,-0.1988 -0.0622,0.043 0.0295,0.1558 z m 0.8449,-0.2851 0.0487,-0.26 -0.083,0.0545 0.0343,0.2055 z m -1.4553,-0.7127 0.0356,-0.2149 -0.0678,0.0462 0.0322,0.1687 z m 0.0561,0.5624 0.0356,-0.2149 -0.0674,0.0462 0.0318,0.1687 z m 1.2976,1.2197 0.0327,-0.1989 -0.0622,0.043 0.0295,0.1559 z m -0.1712,-1.2695 0.057,-0.344 -0.108,0.074 0.051,0.27 z m -0.4573,0.0421 0.0491,-0.2947 -0.0927,0.0635 0.0436,0.2312 z m 0.2764,0.4662 0.0491,-0.2947 -0.0927,0.0634 0.0436,0.2313 z m 0.0779,0.4469 0.0388,-0.2335 -0.0735,0.0505 0.0347,0.183 z m 0.625,-1.4983 0.0836,-0.211 -0.0788,0.0323 -0.0048,0.1787 z m 0.4257,-0.237 0.1008,-0.2539 -0.0954,0.0387 -0.0054,0.2152 z m -0.5646,-0.0015 0.1286,-0.3242 -0.1212,0.0494 -0.0074,0.2748 z m 0.2661,-0.1825 0.1287,-0.3241 -0.1213,0.0497 -0.0074,0.2744 z m -0.748,-1.0824 0.1283,-0.3242 -0.1213,0.0497 -0.007,0.2745 z m 0.1741,0.2469 0.1283,-0.3243 -0.1213,0.0495 -0.007,0.2748 z m 0.1734,0.2962 0.1286,-0.3241 -0.1215,0.0497 -0.0071,0.2744 z m 0.1569,0.254 0.1285,-0.3243 -0.1212,0.0495 -0.0073,0.2748 z m -0.7984,-1.3448 0.1096,-0.2764 -0.1035,0.042 -0.0061,0.2344 z m 0.0917,0.8827 0.1478,-0.3726 -0.1391,0.0571 -0.0087,0.3155 z m 0.0458,-0.5018 0.1479,-0.3729 -0.1392,0.0571 -0.0087,0.3158 z m 1.2912,-8.3826 0.1719,-0.1963 -0.0978,0.0045 -0.0741,0.1918 z m 3.3176,-1.6558 0.2184,-0.2491 -0.1241,0.0057 -0.0943,0.2434 z m -0.3017,-0.1542 0.3097,-0.3534 -0.1763,0.0077 -0.1334,0.3457 z m -2.3442,3.6889 0.1713,-0.1257 -0.0786,-0.0135 -0.0927,0.1392 z M 16.869,16.25 16.9953,16.0794 16.9161,16.0897 16.869,16.25 z m 1.2819,-1.3229 0.2071,-0.2803 -0.1298,0.0167 -0.0773,0.2636 z m -0.5005,0.4068 0.2074,-0.2802 -0.1298,0.0167 -0.0776,0.2635 z m -0.3745,-0.1058 0.2074,-0.2802 -0.1298,0.0167 -0.0776,0.2635 z M 18.25,13.943 18.4574,13.6628 18.3273,13.6795 18.25,13.943 z m -0.8956,1.8141 0.1261,-0.1709 -0.0789,0.0103 -0.0472,0.1606 z m 1.1017,-1.6509 0.1264,-0.1709 -0.0792,0.0103 -0.0472,0.1606 z m 0.5365,-0.8814 0.1263,-0.1705 -0.0792,0.0102 -0.0471,0.1603 z m -0.1119,0.5627 0.1263,-0.1706 -0.0792,0.0103 -0.0471,0.1603 z m -0.3486,0.6823 0.1264,-0.1706 -0.0792,0.01 -0.0472,0.1606 z m -0.9465,1.8571 0.1264,-0.1706 -0.0793,0.0103 -0.0471,0.1603 z m 1.1678,-4.1609 0.1401,-0.1596 -0.0795,0.0035 -0.0606,0.1561 z m -0.7022,3.526 0.1263,-0.1708 -0.0792,0.0102 -0.0471,0.1606 z m -1.186,-0.0166 0.2539,-0.2389 -0.1308,-0.0067 -0.1231,0.2456 z m 0.5213,-0.9779 0.3101,-0.3534 -0.1764,0.008 -0.1337,0.3454 z m -1.9003,0.1946 0.2025,-0.0641 -0.0702,-0.0382 -0.1323,0.1023 z m 0.8307,0.9036 0.2055,-0.0527 -0.0677,-0.0419 -0.1378,0.0946 z m -0.5704,0.294 0.2058,-0.0526 -0.068,-0.042 -0.1378,0.0946 z m -0.4932,-0.7958 0.2882,-0.0716 -0.0942,-0.0596 -0.194,0.1312 z m 0.8709,-0.3996 0.2296,-0.2623 -0.1309,0.0061 -0.0987,0.2562 z m -0.2896,0.3444 0.3383,-0.0837 -0.1106,-0.0699 -0.2277,0.1536 z M 16.8517,14.0129 17.1261,13.7 16.97,13.707 16.8517,14.0129 z m 0.5823,-1.0081 0.2036,-0.2321 -0.1158,0.0054 -0.0878,0.2267 z m 0.2991,1.7257 0.2075,-0.2803 -0.1299,0.0167 -0.0776,0.2636 z m 0.3033,-0.2674 0.2075,-0.2805 -0.1299,0.0169 -0.0776,0.2636 z m 0.5666,-0.9898 0.2075,-0.2805 -0.1299,0.0169 -0.0776,0.2636 z m -2.0912,1.5614 0.3101,-0.3532 -0.1764,0.0076 -0.1337,0.3456 z m -0.6066,-0.4501 0.2033,-0.2321 -0.1157,0.0054 -0.0876,0.2267 z m 0.2469,0.816 0.3386,-0.084 -0.1106,-0.0699 -0.228,0.1539 z m -0.5227,0.2398 0.2662,-0.0628 -0.0863,-0.0558 -0.1799,0.1186 z m 1.1219,-0.3895 0.3742,-0.2844 -0.1744,-0.0273 -0.1998,0.3117 z m 0.1956,-0.4255 0.3098,-0.3533 -0.1761,0.008 -0.1337,0.3453 z m 1.3743,-2.4673 0.218,-0.2491 -0.1241,0.0057 -0.0939,0.2434 z m 0.0647,0.801 0.3098,-0.3534 -0.1764,0.0081 -0.1334,0.3453 z m 0.5278,1.193 0.1263,-0.1705 -0.0792,0.0102 -0.0471,0.1603 z m -2.103,0.1379 0.3097,-0.3533 -0.1764,0.008 -0.1333,0.3453 z m 0.4155,-0.4669 0.3101,-0.3532 -0.1764,0.0079 -0.1337,0.3453 z m 0.5338,0.2049 0.3098,-0.3533 -0.1764,0.008 -0.1334,0.3453 z m -0.4225,0.1857 0.31,-0.3533 -0.1763,0.008 -0.1337,0.3453 z m 0.2997,-0.4662 0.3098,-0.3533 -0.1764,0.0079 -0.1334,0.3454 z m 0.2575,-1.1136 0.2504,-0.2854 -0.1427,0.0065 -0.1077,0.2789 z m 0.5868,2.2782 0.1263,-0.1709 -0.0792,0.0102 -0.0471,0.1607 z M 17.255,13.516 17.5295,13.2033 17.3734,13.2104 17.255,13.516 z m 0.9446,-0.7632 0.2184,-0.2491 -0.1241,0.0058 -0.0943,0.2433 z m -2.102,1.3415 0.1721,-0.1962 -0.0977,0.0045 -0.0744,0.1917 z m 0.8535,-0.6723 0.2036,-0.2322 -0.1161,0.0051 -0.0875,0.2271 z m -0.3854,0.4428 0.2033,-0.2322 -0.1158,0.0055 -0.0875,0.2267 z m -0.1607,0.4995 0.2296,-0.2623 -0.1308,0.0061 -0.0988,0.2562 z m 1.2374,-0.7676 0.31,-0.3533 -0.1763,0.008 -0.1337,0.3453 z m -0.0731,-0.2805 0.2744,-0.313 -0.1561,0.0074 -0.1183,0.3056 z m 0.4582,0.3276 0.31,-0.3536 -0.1763,0.008 -0.1337,0.3456 z m -0.0347,-0.4216 0.3101,-0.3533 -0.1764,0.008 -0.1337,0.3453 z m -5.9737,-1.826 0.0532,0.1571 0.0286,-0.0552 -0.0818,-0.1019 z m 0.0792,0.608 0.0533,0.1567 0.0284,-0.0551 -0.0817,-0.1016 z m -0.3941,-0.2777 0.0529,0.1568 0.0289,-0.0552 -0.0818,-0.1016 z m 1.7481,1.3229 0.1841,0.1061 -0.0193,-0.0773 -0.1648,-0.0288 z m -0.9751,0.1619 0.147,0.1533 0.0032,-0.0799 -0.1502,-0.0734 z m -1.2196,-0.7628 0.0977,0.1885 0.0258,-0.0756 -0.1235,-0.1129 z m -0.0792,-0.3693 0.0975,0.1885 0.0256,-0.0757 -0.1231,-0.1128 z m 1.9671,2.1684 0.2382,0.178 -0.0138,-0.1106 -0.2244,-0.0674 z m -0.7214,-2.1906 0.0529,0.1568 0.0288,-0.0551 -0.0817,-0.1017 z m -0.7911,0.0193 0.0975,0.1885 0.0256,-0.0757 -0.1231,-0.1128 z m 0.2675,1.7151 0.2795,0.2084 -0.016,-0.1299 -0.2635,-0.0785 z m -0.0571,0.2292 0.2796,0.2084 -0.0164,-0.1298 -0.2632,-0.0786 z m 2.1479,-0.6277 0.1837,0.106 -0.0188,-0.0773 -0.1649,-0.0287 z m -2.4086,-0.2592 0.1366,0.1626 0.0084,-0.0795 -0.145,-0.0831 z m 0.5406,0.0966 0.2276,0.2638 0.0122,-0.1301 -0.2398,-0.1337 z m 1.13,0.7849 0.2382,0.178 -0.0138,-0.111 -0.2244,-0.067 z m 0.8198,-0.1687 0.1837,0.1061 -0.0189,-0.0773 -0.1648,-0.0288 z m -0.4319,-0.3027 0.184,0.1064 -0.0192,-0.0775 -0.1648,-0.0289 z m -0.2443,0.2248 0.1837,0.1065 -0.019,-0.0777 -0.1647,-0.0288 z m 0.3154,0.226 0.1841,0.1062 -0.0192,-0.0773 -0.1649,-0.0289 z m 0.3117,0.2985 0.1837,0.1065 -0.0192,-0.0776 -0.1645,-0.0289 z m -0.3738,0.0279 0.2385,0.178 -0.0141,-0.1109 -0.2244,-0.0671 z m -1.4455,-1.8523 0.0976,0.1886 0.0259,-0.0757 -0.1235,-0.1129 z m -0.3401,0.3056 0.1583,0.3107 0.043,-0.1238 -0.2013,-0.1869 z m -0.3745,-0.4053 0.1583,0.3111 0.043,-0.1238 -0.2013,-0.1873 z m 0.4126,0.1077 0.0978,0.1886 0.0256,-0.0757 -0.1234,-0.1129 z m 1.0536,0.1177 0.0978,0.1886 0.0256,-0.0757 -0.1234,-0.1129 z m -0.7201,0.2707 0.0974,0.1885 0.0257,-0.0757 -0.1231,-0.1128 z m 1.0719,0.452 0.1468,0.1533 0.0033,-0.0799 -0.1501,-0.0734 z m -0.5409,0.0734 0.1468,0.1533 0.0036,-0.0798 -0.1504,-0.0735 z m 0.333,0.1184 0.1469,0.1533 0.0035,-0.0799 -0.1504,-0.0734 z m -0.5248,-0.9841 0.0978,0.1886 0.0257,-0.0754 -0.1235,-0.1132 z m 0.4322,0.5108 0.0978,0.1886 0.0256,-0.0754 -0.1234,-0.1132 z m -0.4197,-0.1174 0.0978,0.1886 0.0256,-0.0757 -0.1234,-0.1129 z m -1.2816,-0.0705 0.1369,0.1626 0.0084,-0.0795 -0.1453,-0.0831 z m 0.1338,0.5015 0.1369,0.1626 0.0083,-0.0796 -0.1452,-0.083 z m 0.3831,-0.2158 0.2276,0.2642 0.0123,-0.1302 -0.2399,-0.134 z m -0.301,-0.3408 0.2279,0.2639 0.0122,-0.1302 -0.2401,-0.1337 z m 0.9403,0.7384 0.2277,0.2642 0.0125,-0.1305 -0.2402,-0.1337 z m -0.7393,-0.0962 0.2276,0.2642 0.0122,-0.1305 -0.2398,-0.1337 z m 0.3507,0.0542 0.352,0.3116 -0.0072,-0.1763 -0.3448,-0.1353 z m 0.7949,0.2401 0.2385,0.178 -0.0137,-0.1109 -0.2248,-0.0671 z m -0.1558,0.4585 0.3767,0.2813 -0.0218,-0.1751 -0.3549,-0.1062 z m -0.4762,-0.3703 0.3768,0.2812 -0.0222,-0.1754 -0.3546,-0.1058 z m -0.0115,0.2745 0.3767,0.2812 -0.0218,-0.1751 -0.3549,-0.1061 z m 0.4726,-0.2013 0.2385,0.1779 -0.0141,-0.1107 -0.2244,-0.0672 z m -0.3931,0.561 0.3768,0.2813 -0.0219,-0.1751 -0.3549,-0.1062 z m 0.582,0.2411 0.2795,0.2085 -0.0163,-0.1299 -0.2632,-0.0786 z m 0.5845,-0.1747 0.2382,0.178 -0.0138,-0.111 -0.2244,-0.067 z m -0.8555,-0.1077 0.3216,0.2398 -0.019,-0.1494 -0.3026,-0.0904 z m 0.473,0.1751 0.3213,0.2398 -0.0187,-0.1495 -0.3026,-0.0903 z m 4.4593,13.8568 0.2902,-0.0248 -0.0821,-0.072 -0.2081,0.0968 z m 0.9478,-0.1654 0.1959,-0.0427 -0.0625,-0.0421 -0.1334,0.0848 z m -0.2482,-0.1681 0.1959,-0.0426 -0.0625,-0.042 -0.1334,0.0846 z m -0.7836,0.6476 0.161,-0.039 -0.0526,-0.0333 -0.1084,0.0723 z m 1.2296,-0.3414 0.1655,0.011 -0.0401,-0.0475 -0.1254,0.0365 z m -0.3687,0.0889 0.1651,0.0109 -0.0397,-0.0475 -0.1254,0.0366 z m -0.4967,0.1086 0.2274,-0.0195 -0.0645,-0.0564 -0.1629,0.0759 z m 0.229,-0.2222 0.228,-0.0083 -0.0616,-0.0597 -0.1664,0.068 z m -0.1924,-0.1849 0.2902,-0.0247 -0.0821,-0.0722 -0.2081,0.0969 z m 0.0895,-0.2261 0.1648,-0.0141 -0.0465,-0.0411 -0.1183,0.0552 z m -0.498,0.2626 0.2812,-0.068 -0.0917,-0.0583 -0.1895,0.1263 z m -0.2799,0.3386 0.2219,-0.0539 -0.0722,-0.0461 -0.1497,0.1 z m -0.0487,-0.2097 0.2058,-0.0497 -0.067,-0.043 -0.1388,0.0927 z m -3.51,-0.0661 0.2898,-0.0246 -0.0821,-0.0722 -0.2077,0.0968 z m 0.9475,-0.1654 0.1959,-0.0427 -0.0626,-0.0419 -0.1333,0.0846 z m -0.2482,-0.168 0.1959,-0.0427 -0.0625,-0.042 -0.1334,0.0847 z m -0.7836,0.6477 0.161,-0.0392 -0.0527,-0.0333 -0.1083,0.0725 z m 1.2299,-0.3416 0.1652,0.011 -0.0402,-0.0475 -0.125,0.0365 z m -0.369,0.0888 0.1654,0.0109 -0.0401,-0.0473 -0.1253,0.0364 z m -0.4967,0.1088 0.2274,-0.0196 -0.0645,-0.0564 -0.1629,0.076 z m 0.2289,-0.2222 0.228,-0.0083 -0.0613,-0.0597 -0.1667,0.068 z m -0.1921,-0.185 0.29,-0.0247 -0.0821,-0.0721 -0.2079,0.0968 z m 0.0892,-0.2257 0.1651,-0.0141 -0.0467,-0.0411 -0.1184,0.0552 z m -0.4976,0.2623 0.2809,-0.068 -0.0915,-0.0584 -0.1894,0.1264 z m -0.2802,0.3385 0.2218,-0.0538 -0.0721,-0.0459 -0.1497,0.0997 z"
   class="fil15" />
  </g>
</svg>