<?xml version="1.0" encoding="UTF-8" standalone="no"?>
<!-- Created with Inkscape (http://www.inkscape.org/) -->
<svg
   xmlns:svg="http://www.w3.org/2000/svg"
   xmlns="http://www.w3.org/2000/svg"
   version="1.0"
   width="480"
   height="600"
   id="svg2">
  <defs
     id="defs5" />
  <g
     id="g2641">
    <path
       d="M 0,0 L 0,126 L 0,276.09375 L 0.125,276.09375 L 0.125,442.90625 L 0.125,505.65625 C 0.26191194,511.19304 0.96467363,516.13565 1.9375,520.8125 C 2.296429,520.37965 2.6387181,519.93087 3,519.5 C 6.1691296,515.72042 9.4347165,512.03048 12.78125,508.40625 C 16.127783,504.78202 19.576341,501.2437 23.09375,497.78125 C 26.611159,494.3188 30.193244,490.91924 33.875,487.625 C 37.556756,484.33076 41.316675,481.15086 45.15625,478.03125 C 48.995825,474.91164 52.915385,471.87605 56.90625,468.9375 C 60.897115,465.99895 64.958122,463.15732 69.09375,460.40625 C 73.229378,457.65518 77.444889,454.99466 81.71875,452.4375 C 85.992611,449.88034 90.344433,447.41932 94.75,445.0625 C 99.155567,442.70568 103.62551,440.43131 108.15625,438.28125 C 112.68699,436.13119 117.28811,434.09312 121.9375,432.15625 C 126.58689,430.21938 131.26974,428.40475 136.03125,426.6875 C 140.79276,424.97025 145.63289,423.36621 150.5,421.875 C 155.36711,420.38379 160.28383,419.00874 165.25,417.75 C 170.21617,416.49126 175.22255,415.33234 180.28125,414.3125 C 185.33995,413.29266 190.44904,412.39952 195.59375,411.625 C 200.73846,410.85048 205.90081,410.21027 211.125,409.6875 C 216.34919,409.16473 221.64036,408.7646 226.9375,408.5 C 232.23464,408.2354 237.54269,408.09375 242.90625,408.09375 C 248.26981,408.09375 253.60911,408.2354 258.90625,408.5 C 264.20339,408.7646 269.46331,409.16473 274.6875,409.6875 C 279.91169,410.21027 285.10529,410.85048 290.25,411.625 C 295.39471,412.39952 300.5038,413.29266 305.5625,414.3125 C 310.6212,415.33234 315.62758,416.49126 320.59375,417.75 C 325.55992,419.00874 330.47664,420.38379 335.34375,421.875 C 340.21086,423.36621 345.01974,424.97025 349.78125,426.6875 C 354.54276,428.40475 359.25686,430.21938 363.90625,432.15625 C 368.55564,434.09312 373.15676,436.13119 377.6875,438.28125 C 382.21824,440.43131 386.68818,442.70568 391.09375,445.0625 C 395.49932,447.41932 399.81989,449.88034 404.09375,452.4375 C 408.36761,454.99466 412.58312,457.65518 416.71875,460.40625 C 420.85438,463.15732 424.91538,465.99895 428.90625,468.9375 C 432.89712,471.87605 436.81668,474.91164 440.65625,478.03125 C 444.49582,481.15086 448.25574,484.33076 451.9375,487.625 C 455.61926,490.91924 459.23259,494.3188 462.75,497.78125 C 466.26741,501.2437 469.68472,504.78202 473.03125,508.40625 C 475.21039,510.76622 477.30184,513.19868 479.40625,515.625 C 479.68624,512.71895 479.97577,509.83245 480,506.625 L 480,442.90625 L 480,276.0625 L 479.875,276.0625 L 479.875,126 L 479.875,0 L 0,0 z"
       id="path2553"
       style="opacity:1;fill:#da251d;fill-opacity:1;fill-rule:nonzero;stroke:none;stroke-width:1;stroke-linecap:butt;stroke-linejoin:miter;marker:none;marker-start:none;marker-mid:none;marker-end:none;stroke-miterlimit:4;stroke-dasharray:none;stroke-dashoffset:0;stroke-opacity:1;visibility:visible;display:inline;overflow:visible;enable-background:accumulate" />
    <path
       d="M 478.25,522.875 C 476.37502,520.68587 474.55875,518.44827 472.625,516.3125 C 469.27847,512.61636 465.82991,508.9999 462.3125,505.46875 C 458.79509,501.9376 455.18176,498.51586 451.5,495.15625 C 447.81824,491.79664 444.05832,488.52526 440.21875,485.34375 C 436.37918,482.16224 432.45962,479.05936 428.46875,476.0625 C 424.47788,473.06564 420.41688,470.1494 416.28125,467.34375 C 412.14562,464.5381 407.96136,461.8579 403.6875,459.25 C 399.41364,456.6421 395.06182,454.12233 390.65625,451.71875 C 386.25068,449.31517 381.78074,447.00522 377.25,444.8125 C 372.71926,442.61978 368.11814,440.5378 363.46875,438.5625 C 358.81936,436.5872 354.10526,434.72007 349.34375,432.96875 C 344.58224,431.21743 339.77336,429.5833 334.90625,428.0625 C 330.03914,426.5417 325.12242,425.12746 320.15625,423.84375 C 315.19008,422.56004 310.1837,421.41508 305.125,420.375 C 300.0663,419.33492 294.95721,418.41489 289.8125,417.625 C 284.66779,416.83511 279.47419,416.15815 274.25,415.625 C 269.02581,415.09185 263.76589,414.70735 258.46875,414.4375 C 253.17161,414.16765 247.86356,414.03125 242.5,414.03125 C 237.13644,414.03125 231.79714,414.16765 226.5,414.4375 C 221.20286,414.70735 215.94294,415.09185 210.71875,415.625 C 205.49456,416.15815 200.30096,416.83511 195.15625,417.625 C 190.01154,418.41489 184.90245,419.33492 179.84375,420.375 C 174.78505,421.41508 169.77867,422.56004 164.8125,423.84375 C 159.84633,425.12746 154.92961,426.5417 150.0625,428.0625 C 145.19539,429.5833 140.38651,431.21743 135.625,432.96875 C 130.86349,434.72007 126.14939,436.5872 121.5,438.5625 C 116.85061,440.5378 112.24949,442.61978 107.71875,444.8125 C 103.18801,447.00522 98.718067,449.31517 94.3125,451.71875 C 89.906933,454.12233 85.555111,456.6421 81.28125,459.25 C 77.007389,461.8579 72.823128,464.5381 68.6875,467.34375 C 64.551872,470.1494 60.490866,473.06564 56.5,476.0625 C 52.509134,479.05936 48.589575,482.16224 44.75,485.34375 C 40.910425,488.52526 37.150506,491.79664 33.46875,495.15625 C 29.786994,498.51586 26.173659,501.9376 22.65625,505.46875 C 19.138841,508.9999 15.721534,512.61636 12.375,516.3125 C 9.3503186,519.65316 6.4112667,523.09215 3.53125,526.5625 C 9.3773316,545.50441 23.093797,556.37072 45.0625,558.8125 L 197.8125,558.8125 C 207.7909,559.4823 216.55675,563.5047 224.40625,570.875 C 231.98945,578.02158 237.33035,587.7162 240.65625,600 C 243.71626,587.828 249.0337,578.01295 256.75,570.53125 C 264.2006,563.38474 272.98265,559.4823 283.09375,558.8125 L 435.71875,558.8125 C 459.07809,558.8125 473.70114,546.88633 478.25,522.875 z"
       id="path2477"
       style="fill:#00a13a;fill-opacity:1;stroke:none;stroke-width:43.5724144;stroke-linecap:butt;stroke-linejoin:miter;stroke-miterlimit:4;stroke-dasharray:none;stroke-dashoffset:0;stroke-opacity:1" />
    <path
       d="M 242.90625,408.09375 C 237.54269,408.09375 232.23464,408.2354 226.9375,408.5 C 221.64036,408.7646 216.34919,409.16473 211.125,409.6875 C 205.90081,410.21027 200.73846,410.85048 195.59375,411.625 C 190.44904,412.39952 185.33995,413.29266 180.28125,414.3125 C 175.22255,415.33234 170.21617,416.49126 165.25,417.75 C 160.28383,419.00874 155.36711,420.38379 150.5,421.875 C 145.63289,423.36621 140.79276,424.97025 136.03125,426.6875 C 131.26974,428.40475 126.58689,430.21938 121.9375,432.15625 C 117.28811,434.09312 112.68699,436.13119 108.15625,438.28125 C 103.62551,440.43131 99.155567,442.70568 94.75,445.0625 C 90.344433,447.41932 85.992611,449.88034 81.71875,452.4375 C 77.444889,454.99466 73.229378,457.65518 69.09375,460.40625 C 64.958122,463.15732 60.897115,465.99895 56.90625,468.9375 C 52.915385,471.87605 48.995825,474.91164 45.15625,478.03125 C 41.316675,481.15086 37.556756,484.33076 33.875,487.625 C 30.193244,490.91924 26.611159,494.3188 23.09375,497.78125 C 19.576341,501.2437 16.127783,504.78202 12.78125,508.40625 C 9.4347165,512.03048 6.1691296,515.72042 3,519.5 C 2.6387181,519.93087 2.296429,520.37965 1.9375,520.8125 C 2.3595159,522.84134 2.9541967,524.69279 3.53125,526.5625 C 6.4112667,523.09215 9.3503186,519.65316 12.375,516.3125 C 15.721534,512.61636 19.138841,508.9999 22.65625,505.46875 C 26.173659,501.9376 29.786994,498.51586 33.46875,495.15625 C 37.150506,491.79664 40.910425,488.52526 44.75,485.34375 C 48.589575,482.16224 52.509134,479.05936 56.5,476.0625 C 60.490866,473.06564 64.551872,470.1494 68.6875,467.34375 C 72.823128,464.5381 77.007389,461.8579 81.28125,459.25 C 85.555111,456.6421 89.906933,454.12233 94.3125,451.71875 C 98.718067,449.31517 103.18801,447.00522 107.71875,444.8125 C 112.24949,442.61978 116.85061,440.5378 121.5,438.5625 C 126.14939,436.5872 130.86349,434.72007 135.625,432.96875 C 140.38651,431.21743 145.19539,429.5833 150.0625,428.0625 C 154.92961,426.5417 159.84633,425.12746 164.8125,423.84375 C 169.77867,422.56004 174.78505,421.41508 179.84375,420.375 C 184.90245,419.33492 190.01154,418.41489 195.15625,417.625 C 200.30096,416.83511 205.49456,416.15815 210.71875,415.625 C 215.94294,415.09185 221.20286,414.70735 226.5,414.4375 C 231.79714,414.16765 237.13644,414.03125 242.5,414.03125 C 247.86356,414.03125 253.17161,414.16765 258.46875,414.4375 C 263.76589,414.70735 269.02581,415.09185 274.25,415.625 C 279.47419,416.15815 284.66779,416.83511 289.8125,417.625 C 294.95721,418.41489 300.0663,419.33492 305.125,420.375 C 310.1837,421.41508 315.19008,422.56004 320.15625,423.84375 C 325.12242,425.12746 330.03914,426.5417 334.90625,428.0625 C 339.77336,429.5833 344.58224,431.21743 349.34375,432.96875 C 354.10526,434.72007 358.81936,436.5872 363.46875,438.5625 C 368.11814,440.5378 372.71926,442.61978 377.25,444.8125 C 381.78074,447.00522 386.25068,449.31517 390.65625,451.71875 C 395.06182,454.12233 399.41364,456.6421 403.6875,459.25 C 407.96136,461.8579 412.14562,464.5381 416.28125,467.34375 C 420.41688,470.1494 424.47788,473.06564 428.46875,476.0625 C 432.45962,479.05936 436.37918,482.16224 440.21875,485.34375 C 444.05832,488.52526 447.81824,491.79664 451.5,495.15625 C 455.18176,498.51586 458.79509,501.9376 462.3125,505.46875 C 465.82991,508.9999 469.27847,512.61636 472.625,516.3125 C 474.55875,518.44827 476.37502,520.68587 478.25,522.875 C 478.69416,520.53047 479.15787,518.20291 479.40625,515.625 C 477.30184,513.19868 475.21039,510.76622 473.03125,508.40625 C 469.68472,504.78202 466.26741,501.2437 462.75,497.78125 C 459.23259,494.3188 455.61926,490.91924 451.9375,487.625 C 448.25574,484.33076 444.49582,481.15086 440.65625,478.03125 C 436.81668,474.91164 432.89712,471.87605 428.90625,468.9375 C 424.91538,465.99895 420.85438,463.15732 416.71875,460.40625 C 412.58312,457.65518 408.36761,454.99466 404.09375,452.4375 C 399.81989,449.88034 395.49932,447.41932 391.09375,445.0625 C 386.68818,442.70568 382.21824,440.43131 377.6875,438.28125 C 373.15676,436.13119 368.55564,434.09312 363.90625,432.15625 C 359.25686,430.21938 354.54276,428.40475 349.78125,426.6875 C 345.01974,424.97025 340.21086,423.36621 335.34375,421.875 C 330.47664,420.38379 325.55992,419.00874 320.59375,417.75 C 315.62758,416.49126 310.6212,415.33234 305.5625,414.3125 C 300.5038,413.29266 295.39471,412.39952 290.25,411.625 C 285.10529,410.85048 279.91169,410.21027 274.6875,409.6875 C 269.46331,409.16473 264.20339,408.7646 258.90625,408.5 C 253.60911,408.2354 248.26981,408.09375 242.90625,408.09375 z"
       id="path2473"
       style="opacity:1;fill:#ffe708;fill-opacity:1;fill-rule:nonzero;stroke:none;stroke-width:1;stroke-linecap:butt;stroke-linejoin:miter;marker:none;marker-start:none;marker-mid:none;marker-end:none;stroke-miterlimit:4;stroke-dasharray:none;stroke-dashoffset:0;stroke-opacity:1;visibility:visible;display:inline;overflow:visible;enable-background:accumulate" />
    <path
       d="M 359.80629,489.63455 C 358.01571,489.14584 356.06225,488.33178 354.27124,487.51773 C 353.13182,486.86658 351.82904,486.37832 350.68964,485.56428 C 349.87558,485.07602 349.06153,484.58732 348.24747,484.09906 C 346.45691,483.285 344.66587,482.1456 343.03775,481.00574 C 342.2237,480.51748 341.4101,480.02924 340.43314,479.37808 C 339.45618,478.56402 338.31676,477.74996 337.3398,476.93592 C 336.2004,476.28476 335.06053,475.4707 333.92113,474.65664 C 332.94415,473.84259 331.64185,473.02854 330.66489,472.37738 C 329.19967,471.23798 327.57155,470.09811 325.9439,468.95871 C 324.31578,467.98175 322.68764,467.00479 321.05953,465.86539 C 310.96594,459.35339 299.89537,453.16676 288.17365,447.46882 C 267.49772,439.49162 252.35732,435.74715 242.91534,436.56121 C 223.05348,435.58425 203.35453,441.28264 183.81848,453.98081 C 168.84052,466.19119 157.60706,474.49374 149.79273,478.88938 C 144.25768,481.49444 139.53622,482.3085 135.79173,481.33154 C 134.81477,481.00574 133.83827,480.6804 133.02421,480.02924 C 131.55899,479.21518 130.58203,478.88938 129.93088,479.05228 C 127.8145,479.21518 127.32624,480.6804 128.30276,482.95966 C 129.44262,484.42486 130.74493,485.56428 131.88433,486.05252 C 133.02421,486.70414 134.16361,487.19238 135.46639,487.35528 C 136.60579,487.51773 137.9081,487.68063 138.88506,487.84354 C 142.9549,488.16934 147.83927,486.54123 153.37432,482.79676 L 187.23717,458.70225 C 204.16859,447.46882 222.56523,441.93378 242.91534,441.77088 C 260.49747,441.77088 278.40539,447.14348 296.96494,457.56238 C 305.26797,462.28381 313.40811,467.16769 321.05953,472.21448 C 322.68764,473.35434 324.31578,474.49374 325.9439,475.4707 C 327.57155,476.773 329.19967,477.74996 330.66489,479.05228 C 332.13009,480.02924 333.75823,481.16864 335.38634,482.47094 C 337.014,483.4479 338.80502,484.75022 340.59604,485.72718 C 342.2237,486.86658 344.01473,488.00644 345.96819,488.98294 C 347.59631,490.1228 349.54978,490.93685 351.5037,491.75091 C 352.4802,492.23917 353.62008,492.72741 354.92238,493.05321 C 354.92238,493.21613 355.0853,493.21613 355.2482,493.21613 C 356.71341,493.86727 358.17863,494.19263 359.80629,494.68133 C 360.94615,494.84377 361.92311,495.16959 363.06252,495.33249 C 363.87658,495.49539 365.01598,495.49539 365.99294,495.65783 L 368.27222,495.65783 C 368.27222,495.65783 368.59758,495.65783 368.92338,495.65783 C 369.08628,495.65783 369.57454,495.65783 370.22569,495.65783 C 370.5515,495.49539 370.87685,495.49539 371.20265,495.33249 C 371.36555,495.33249 371.52799,495.00667 371.52799,495.00667 C 372.01671,494.68133 372.17961,494.03017 372.17961,493.21613 C 372.17961,492.56497 372.01671,492.07625 371.36555,491.42511 C 370.87685,490.93685 370.3886,490.61105 369.57454,490.61105 C 369.41164,490.77395 369.08628,490.77395 368.92338,490.77395 C 368.76048,490.93685 367.94642,490.93685 365.99294,490.61105 C 363.87658,490.44815 361.92311,489.95989 359.80629,489.63455 L 359.80629,489.63455 z"
       id="_65409824"
       style="fill:#fdde00;fill-rule:nonzero" />
    <path
       d="M 325.94712,483.6122 C 324.319,482.63524 322.69088,481.65828 321.06277,480.68178 C 317.31827,478.2396 313.57424,475.79744 309.66684,473.02992 C 261.96591,439.3301 217.35875,439.3301 176.00693,473.02992 C 163.63405,483.93754 151.91233,491.75229 140.84176,496.96199 C 134.49265,502.00877 134.49265,506.40439 140.84176,510.3113 C 143.44684,511.12536 146.05147,511.77652 148.81899,512.59058 C 150.28421,512.91638 151.91233,513.40464 153.54045,513.56754 C 155.16856,514.05578 156.79622,514.3816 158.42434,514.5445 C 160.21537,515.03274 162.00593,515.19566 163.95985,515.6839 C 165.75043,516.0097 167.37854,516.66086 169.16956,517.14912 C 170.14606,517.47492 171.44838,517.96316 172.42534,518.28852 C 174.05346,518.94014 175.68157,519.42838 177.14679,520.07954 C 179.10027,520.73068 180.89129,521.38184 182.68184,522.19589 C 184.30996,522.68414 185.93808,523.33576 187.56574,523.98691 C 189.19387,524.80097 191.14779,525.45211 192.93835,526.26617 C 194.40357,526.75443 196.03168,527.40557 197.4969,528.05673 C 223.38253,537.17379 250.08129,538.96435 277.59503,533.42933 C 279.38559,533.10351 281.1766,532.77817 282.80472,532.28945 C 284.5953,531.96411 286.38632,531.47539 288.17687,530.98715 C 289.80499,530.33599 291.75847,529.84775 293.38658,529.52193 C 295.0147,528.87079 296.80526,528.21963 298.59628,527.56847 C 300.71266,526.59151 303.15483,525.77747 305.27121,524.80097 L 328.87755,514.3816 C 331.80797,512.91638 334.41261,511.77652 336.69188,510.80002 C 338.4829,509.98596 340.11056,509.33482 341.73868,508.52076 C 342.87855,508.03204 344.18085,507.7067 345.32027,507.21845 C 345.80897,507.05555 346.29723,506.89264 346.78547,506.72974 C 347.43663,506.40439 347.92535,506.07859 348.57651,505.75324 C 349.22767,505.26453 349.87881,504.93919 350.36707,504.45047 C 350.69287,504.28803 350.85578,504.12513 350.85578,503.96223 C 351.50693,503.47397 351.83228,502.82283 352.15808,502.17121 C 352.321,501.84587 352.48344,501.52005 352.48344,501.19471 C 352.48344,500.05485 352.321,499.07835 351.50693,498.26429 C 350.52997,497.28733 349.39057,496.31037 348.08779,495.49677 C 346.29723,494.68271 344.66911,493.86865 342.87855,492.89169 C 341.41334,492.24055 340.27346,491.42649 338.97116,490.77534 C 337.50594,490.12419 336.20363,489.31013 334.90085,488.65898 C 333.43565,488.00782 332.13333,487.19376 330.83101,486.37972 C 329.2029,485.56566 327.57478,484.42626 325.94712,483.6122 L 325.94712,483.6122 z M 332.45913,500.38065 L 332.45913,500.38065 L 313.57424,510.14886 C 291.10731,519.91662 267.66386,524.96341 242.91858,525.28921 C 227.12656,524.80097 210.35802,521.0565 192.77545,514.5445 L 178.61201,508.52076 C 171.61128,505.91568 163.63405,503.79933 154.67986,502.49701 C 179.10027,484.10044 194.07823,473.19282 199.77618,469.93659 C 200.42734,480.03062 201.72964,488.17073 203.52067,494.84515 C 203.84601,496.14793 204.33473,497.28733 204.98589,498.75253 C 207.42761,505.10163 211.4979,510.14886 216.87005,514.05578 C 233.31323,525.77747 249.91837,526.42861 267.0127,515.8468 C 271.73416,513.24174 275.15285,509.49726 277.59503,504.77629 C 277.92037,503.79933 278.40863,502.82283 278.89733,501.84587 C 281.66486,494.51981 283.78122,484.26334 284.9211,471.23937 C 295.82876,477.42554 307.71292,484.5887 321.06277,493.05461 L 332.45913,500.38065 z M 252.36056,467.82023 L 252.36056,467.82023 C 251.7094,468.30895 251.22115,468.96011 250.73244,469.44835 C 246.66305,474.65803 243.73264,475.14628 241.45336,470.75065 C 240.9651,469.77415 240.4764,468.79719 240.15104,467.82023 C 238.84827,464.72737 238.03468,461.63405 238.03468,458.86653 C 245.849,457.23842 257.73316,459.35479 273.36182,465.21563 C 274.82703,477.58844 272.87357,488.17073 267.50096,496.63617 C 265.54749,499.56659 263.26821,502.33411 260.33779,504.93919 C 260.33779,505.10163 260.01243,505.10163 260.01243,505.10163 C 247.80201,511.93942 235.91785,511.93942 224.52192,505.10163 C 224.52192,505.10163 224.35902,505.10163 224.19612,504.93919 C 220.61453,502.17121 217.52167,498.91545 215.07948,495.17097 C 210.35802,487.68202 207.59051,477.91426 207.26517,466.02967 C 212.31196,463.75041 217.19585,462.12229 222.07975,461.63405 C 221.75441,463.75041 221.42859,465.86677 221.42859,467.82023 C 220.61453,480.03062 222.40557,488.49608 227.12656,493.21751 C 237.54596,503.63642 247.80201,503.63642 258.05852,493.21751 C 261.47765,488.49608 263.59403,483.28638 264.24519,477.58844 C 264.40809,476.44904 264.40809,475.30918 264.40809,474.33222 C 264.24519,473.35573 264.08227,472.37877 263.91937,471.56471 C 263.75647,470.58821 263.26821,469.61125 262.77997,468.63429 C 262.45415,468.47139 262.45415,468.14605 262.12881,467.82023 C 259.68663,464.07575 256.26796,464.07575 252.36056,467.82023 L 252.36056,467.82023 z"
       id="_65408960"
       style="fill:#ffe708;fill-rule:nonzero" />
    <polygon
       points="1071.52,1013.69 1047.53,1037.33 1023.9,1013.69 1023.9,1061.31 975.212,1061.31 999.2,1085.3 975.212,1109.65 1023.9,1109.65 1023.9,1157.62 1047.53,1133.28 1071.52,1157.62 1071.52,1109.65 1119.14,1109.65 1095.51,1085.3 1119.14,1061.31 1071.52,1061.31 1071.52,1013.69 "
       transform="matrix(0.6773021,0,0,0.6772995,-469.2545,-653.20161)"
       id="polygon2571"
       style="fill:#ffe708;fill-rule:nonzero" />
    <polygon
       points="1202.75,1147.74 1213.34,1144.57 1155.48,1461.36 1144.19,1473.71 1124.44,1581.66 1138.55,1572.14 1148.42,1586.25 1168.53,1478.3 1162.18,1462.78 1219.69,1145.63 1228.51,1152.33 1233.09,1054.96 1202.75,1147.74 "
       transform="matrix(0.6773021,0,0,0.6772995,-471.04868,-680.6843)"
       id="polygon2567"
       style="fill:#ffe708;fill-rule:nonzero" />
    <polygon
       points="1328.34,1167.85 1336.45,1175.26 1351.98,1078.95 1311.41,1167.85 1322.34,1165.74 1228.51,1474.42 1216.16,1485.7 1184.41,1590.48 1199.58,1582.72 1207.34,1597.54 1239.44,1492.76 1234.86,1476.53 1328.34,1167.85 "
       transform="matrix(0.6773021,0,0,0.6772995,-471.04868,-680.6843)"
       id="polygon2569"
       style="fill:#ffe708;fill-rule:nonzero" />
    <polygon
       points="885.253,1144.57 895.837,1147.74 865.498,1054.96 870.084,1152.33 878.55,1145.63 936.406,1462.78 930.409,1478.3 949.812,1586.25 959.689,1572.14 973.8,1581.66 954.398,1473.71 942.756,1461.36 885.253,1144.57 "
       transform="matrix(0.6773021,0,0,0.6772995,-471.04868,-680.6843)"
       id="polygon2573"
       style="fill:#ffe708;fill-rule:nonzero" />
    <polygon
       points="748.023,1078.95 747.67,1078.95 763.545,1175.26 771.659,1167.85 864.792,1476.53 860.559,1492.76 892.309,1597.54 900.423,1582.72 915.592,1590.48 883.842,1485.7 871.142,1474.42 777.656,1165.74 788.592,1167.85 748.023,1078.95 "
       transform="matrix(0.6773021,0,0,0.6772995,-471.04868,-680.6843)"
       id="polygon2575"
       style="fill:#ffe708;fill-rule:nonzero" />
    <path
       d="M 263.60682,143.96386 C 263.40461,143.5589 263.20185,142.95117 262.79631,142.74841 C 262.39135,142.34288 261.78306,141.93792 261.17533,141.93792 C 260.36482,141.93792 259.75711,142.34288 259.14882,142.74841 C 258.74386,142.95117 258.54107,143.5589 258.54107,143.96386 L 258.33832,191.17899 L 253.06984,195.23144 L 253.06984,143.96386 C 253.06984,143.5589 252.66429,143.15337 252.46211,142.74841 C 252.05657,142.34288 251.44885,141.93792 250.63835,141.93792 C 250.03006,141.93792 249.21957,142.34288 248.61184,142.74841 C 248.40908,142.95117 248.00412,143.5589 248.00412,143.96386 L 248.00412,180.84426 C 246.99086,177.19677 245.16711,174.9675 242.93782,173.75205 L 242.73505,143.96386 C 242.53229,143.5589 242.53229,143.15337 241.92456,142.74841 C 241.51961,142.34288 240.9113,141.93792 240.30416,141.93792 C 239.49366,141.93792 238.88535,142.34288 238.4804,142.74841 C 238.07487,142.95117 237.87266,143.5589 237.66991,143.96386 L 237.66991,173.75205 C 235.84616,174.9675 234.22519,177.80449 232.40142,182.06028 L 232.40142,148.82736 C 232.40142,148.6246 232.40142,148.6246 232.40142,148.42183 C 232.40142,148.21964 232.40142,148.01688 232.40142,147.81411 L 232.40142,143.96386 C 232.40142,143.5589 232.19867,142.95117 231.79312,142.74841 C 231.38817,142.34288 230.77987,141.93792 229.96937,141.93792 C 229.36166,141.93792 228.75393,142.34288 228.14561,142.74841 C 227.74067,142.95117 227.5379,143.5589 227.33514,143.96386 L 227.33514,195.02867 L 222.26943,190.5707 L 222.26943,148.82736 C 222.26943,148.6246 222.26943,148.6246 222.26943,148.42183 C 222.26943,148.21964 222.26943,148.01688 222.26943,147.81411 L 222.26943,144.16662 C 222.06663,143.5589 221.86388,143.15337 221.45893,142.74841 C 221.05338,142.34288 220.24289,141.93792 219.63517,141.93792 C 219.02686,141.93792 218.21637,142.34288 217.81143,142.74841 C 217.60866,142.95117 217.20311,143.5589 217.20311,143.96386 L 217.00035,242.04105 C 217.00035,245.28301 217.20311,247.30953 217.60866,248.72774 C 218.01361,249.5388 218.62192,250.95701 220.04013,252.98353 C 220.44567,253.794 221.05338,254.40174 221.45893,255.01002 C 221.66112,255.415 221.86388,255.82052 222.06663,256.02271 C 224.7009,259.6702 229.7666,263.11549 237.87266,266.56022 L 237.87266,332.01164 C 236.45389,332.01164 235.44063,331.80887 234.63013,331.20116 C 234.22519,330.9984 233.81964,330.59343 233.21193,330.1879 C 232.19867,328.97246 231.18541,327.35092 230.37491,325.12221 C 230.37491,324.31172 230.17215,323.70343 229.7666,322.89351 C 229.56441,321.88025 229.36166,320.86699 229.36166,320.05651 C 229.36166,319.04325 229.1589,318.03057 229.1589,316.81456 L 229.1589,292.90312 C 229.1589,288.85008 227.13236,286.6214 223.28269,286.41862 C 221.25614,286.21586 218.82411,286.41862 215.98766,287.22911 C 209.09762,288.85008 204.0319,292.4976 201.1949,297.56386 L 209.09762,297.56386 C 213.96116,297.56386 216.18986,299.79314 216.18986,304.65607 C 215.98766,305.0616 215.98766,305.46655 215.98766,305.8721 L 215.98766,324.10895 C 216.18986,328.16139 217.81143,331.40393 220.64786,333.83539 C 221.25614,334.03816 221.66112,334.24092 222.06663,334.64589 C 222.67438,335.05142 223.0799,335.05142 223.68764,335.45636 C 224.09316,335.86191 224.7009,336.06468 225.30863,336.06468 C 225.71415,336.26744 226.32188,336.46962 226.93016,336.46962 C 227.74067,336.67239 228.55116,336.87516 229.36166,336.87516 C 229.36166,336.87516 229.36166,336.87516 229.56441,336.87516 L 237.87266,336.87516 L 237.87266,408.81166 C 238.07487,409.01442 238.27764,409.41937 238.4804,409.62213 C 238.88535,410.22987 239.49366,410.43263 240.30416,410.43263 C 240.9113,410.43263 241.31685,410.22987 241.72179,409.62213 C 241.92456,409.41937 242.3301,409.01442 242.3301,408.81166 L 242.53229,336.87516 L 249.21957,336.87516 C 258.94662,336.46962 263.80958,332.21442 263.80958,323.70343 L 264.2151,291.48491 C 264.62006,286.41862 266.64659,284.18993 270.29407,284.18993 L 278.8051,284.18993 C 276.98135,278.51593 273.33384,275.2734 268.26756,274.26014 C 262.79631,273.0447 258.74386,273.65243 255.50129,276.28666 C 252.05657,278.51593 250.63835,281.7579 250.63835,285.60814 L 250.63835,289.66116 C 250.63835,290.26889 250.63835,295.74011 250.63835,306.47981 C 250.63835,317.01732 250.43559,323.29903 249.82788,325.12221 C 249.42233,326.94595 248.61184,328.36416 247.59857,329.37742 C 246.78808,330.39067 246.18037,330.9984 245.57206,331.40393 C 244.96435,332.01164 243.74831,332.21442 242.53229,332.01164 L 242.53229,266.35746 C 250.84054,262.91273 256.92011,258.25199 260.7698,252.78074 C 261.78306,251.36253 262.59412,249.741 262.99908,247.91724 C 263.20185,246.90398 263.20185,245.68853 263.20185,244.26975 L 263.60682,143.96386 L 263.60682,143.96386 z M 222.26943,210.22692 L 222.26943,210.22692 L 222.26943,205.56618 L 237.66991,215.4954 L 237.66991,219.95337 L 222.26943,210.22692 z M 242.93782,203.74244 L 242.93782,203.74244 L 242.93782,197.66349 C 244.35661,197.46072 245.97761,195.43421 248.00412,191.78672 L 248.00412,199.68942 L 242.93782,203.74244 z M 237.66991,203.74244 L 237.66991,203.74244 L 232.40142,199.28446 L 232.40142,191.78672 C 234.42737,195.23144 236.04894,197.25795 237.66991,197.86568 L 237.66991,203.74244 z M 242.93782,219.95337 L 242.93782,219.95337 L 242.93782,215.4954 L 258.33832,205.76895 L 258.54107,205.76895 L 258.54107,210.42911 L 258.33832,210.42911 L 242.93782,219.95337 z M 258.54107,227.65386 L 258.54107,227.65386 L 258.33832,227.65386 L 242.93782,237.17754 L 242.93782,232.71958 L 258.33832,222.99313 L 258.54107,222.99313 L 258.54107,227.65386 z M 258.54107,240.01456 L 258.54107,240.01456 L 258.54107,240.21732 L 258.54107,244.6753 L 258.33832,244.87806 L 242.93782,254.19955 L 242.93782,249.741 L 258.33832,240.21732 L 258.54107,240.01456 L 258.54107,240.01456 z M 237.66991,232.5168 L 237.66991,232.5168 L 237.66991,236.97478 L 222.26943,227.4511 L 222.26943,222.79037 L 237.66991,232.5168 z M 222.26943,244.6753 L 222.26943,244.6753 L 222.26943,240.01456 L 237.66991,249.741 L 237.66991,254.19955 L 222.26943,244.6753 z"
       id="path2577"
       style="fill:#ffe708;fill-rule:nonzero" />
  </g>
</svg>
