<?xml version="1.0" encoding="UTF-8" standalone="no"?>
<!-- Created with Inkscape (http://www.inkscape.org/) -->
<svg
   xmlns:dc="http://purl.org/dc/elements/1.1/"
   xmlns:cc="http://creativecommons.org/ns#"
   xmlns:rdf="http://www.w3.org/1999/02/22-rdf-syntax-ns#"
   xmlns:svg="http://www.w3.org/2000/svg"
   xmlns="http://www.w3.org/2000/svg"
   xmlns:sodipodi="http://sodipodi.sourceforge.net/DTD/sodipodi-0.dtd"
   xmlns:inkscape="http://www.inkscape.org/namespaces/inkscape"
   width="200"
   height="300"
   id="svg2"
   sodipodi:version="0.32"
   inkscape:version="0.46"
   version="1.0"
   sodipodi:docname="герб грахово.svg"
   inkscape:output_extension="org.inkscape.output.svg.inkscape">
  <defs
     id="defs4">
    <inkscape:perspective
       sodipodi:type="inkscape:persp3d"
       inkscape:vp_x="0 : 526.18109 : 1"
       inkscape:vp_y="0 : 1000 : 0"
       inkscape:vp_z="744.09448 : 526.18109 : 1"
       inkscape:persp3d-origin="372.04724 : 350.78739 : 1"
       id="perspective10" />
    <inkscape:perspective
       id="perspective2447"
       inkscape:persp3d-origin="372.04724 : 350.78739 : 1"
       inkscape:vp_z="744.09448 : 526.18109 : 1"
       inkscape:vp_y="0 : 1000 : 0"
       inkscape:vp_x="0 : 526.18109 : 1"
       sodipodi:type="inkscape:persp3d" />
  </defs>
  <sodipodi:namedview
     id="base"
     pagecolor="#ffffff"
     bordercolor="#666666"
     borderopacity="1.0"
     gridtolerance="10000"
     guidetolerance="10"
     objecttolerance="10"
     inkscape:pageopacity="0.0"
     inkscape:pageshadow="2"
     inkscape:zoom="1.4"
     inkscape:cx="100.20998"
     inkscape:cy="166.37314"
     inkscape:document-units="px"
     inkscape:current-layer="layer1"
     showgrid="false"
     borderlayer="true"
     inkscape:window-width="1280"
     inkscape:window-height="750"
     inkscape:window-x="-8"
     inkscape:window-y="-8" />
  <metadata
     id="metadata7">
    <rdf:RDF>
      <cc:Work
         rdf:about="">
        <dc:format>image/svg+xml</dc:format>
        <dc:type
           rdf:resource="http://purl.org/dc/dcmitype/StillImage" />
      </cc:Work>
    </rdf:RDF>
  </metadata>
  <g
     inkscape:label="Layer 1"
     inkscape:groupmode="layer"
     id="layer1">
    <rect
       style="opacity:1;fill:#0000ff;fill-opacity:1;fill-rule:nonzero;stroke:none;stroke-width:0.98698479;stroke-linejoin:round;stroke-miterlimit:4;stroke-dasharray:none;stroke-opacity:1"
       id="rect3381"
       width="200"
       height="140"
       x="0"
       y="-4.8849813e-15" />
    <path
       style="opacity:1;fill:#ff0000;fill-opacity:1;fill-rule:evenodd;stroke:none;stroke-width:1;stroke-linecap:butt;stroke-linejoin:miter;marker:none;marker-start:none;marker-mid:none;marker-end:none;stroke-miterlimit:4;stroke-dasharray:none;stroke-dashoffset:0;stroke-opacity:1;visibility:visible;display:inline;overflow:visible;enable-background:accumulate"
       d="M 0,130 L 0,270.00001 C 4.8127859e-16,277.89984 7.5670188,285 14.924619,285 L 84.572843,285 C 91.427906,285 98.944669,292.92893 99.497468,300 C 99.296449,292.92893 106.05941,285 114.42209,285 L 184.07031,285 C 193.18679,285 198.92922,279.15272 198.99493,270.00001 L 200,130 L 0,130 z"
       id="path3371"
       sodipodi:nodetypes="cssscssscc" />
    <path
       style="opacity:1;fill:#ffffff;fill-opacity:1;fill-rule:evenodd;stroke:#000000;stroke-width:1;stroke-linecap:butt;stroke-linejoin:miter;marker:none;marker-start:none;marker-mid:none;marker-end:none;stroke-miterlimit:4;stroke-dasharray:none;stroke-dashoffset:0;stroke-opacity:1;visibility:visible;display:inline;overflow:visible;enable-background:accumulate"
       d="M 90.711864,139.96801 C 90.309599,138.55696 109.6904,138.55696 109.28813,139.96801 C 108.88586,141.37906 108.24355,143.41263 109.40855,144.82367 C 107.84229,146.43543 108.68982,147.63127 108.92686,148.9323 C 108.79088,150.36008 108.22533,151.67682 109.28813,153.41444 C 108.35213,155.06506 109.04305,156.15499 110.01068,157.14957 C 109.63622,158.34468 110.2261,159.79998 111.45577,160 L 88.544229,160 C 89.773906,159.79998 90.363777,158.34468 89.989319,157.14956 C 90.956949,156.15499 91.647869,155.06505 90.711864,153.41445 C 91.774662,151.67683 91.209112,150.36008 91.073136,148.9323 C 91.310182,147.63126 92.157704,146.43543 90.591441,144.82366 C 91.756452,143.41262 91.114129,141.37906 90.711864,139.96801 z M 120.96928,122.66196 L 112,122 C 111.53553,115.97969 107.02768,110.14893 100,110 C 93.219016,109.85094 88.211928,116.23223 88,122 L 79.030719,122.66197 C 77.545487,121.28866 76.060256,120.75668 74.575024,121.04342 C 73.080224,120.32608 71.410326,120.15182 69.276361,121.41693 C 67.670706,120.46892 66.06505,120.4974 64.459394,121.54142 C 63.184272,121.21652 61.927123,120.98452 60.967094,122.28844 C 58.851623,121.86679 58.534264,122.93234 57.956489,123.78251 C 55.930822,123.58451 55.136335,124.40485 54.705036,125.52555 C 53.216899,125.54459 52.130024,126.08219 51.922213,127.75585 L 42.484866,127.27919 L 46.352012,132.37652 L 46.27291,138.09272 L 49.076901,140.51871 L 50.31892,155.63615 L 53.284656,156.28003 L 54.6471,153.11068 L 57.715641,156.02903 C 58.511122,156.22284 59.36019,156.19397 59.883275,154.53498 C 58.865233,151.71289 59.393739,149.88683 59.281155,147.06475 C 61.491059,146.05791 62.693061,144.66329 63.977697,140.55611 C 64.832389,137.82352 68.533745,136.1913 70.360179,136.97992 C 75.122623,138.46849 76.444829,141.48138 76.74266,144.94818 C 75.942727,151.30828 73.283919,155.9111 70.601027,160 L 60,160 C 55.151438,159.7978 50,166.66667 50,170 C 50.126269,170.55541 50.232397,171.7677 50.839571,173.35552 C 50.057785,175.32214 51.385068,180.66467 52.371765,180.91308 C 50.323921,180.19036 50.452109,182.23711 50.004975,183.55165 C 48.160794,183.49713 47.613981,185.6546 47.596912,188.71528 C 44.333738,189.37594 45.099162,192.04487 44.679714,194.12314 C 44.679714,194.12314 40.378783,196.39215 39.235746,198.05006 C 38.349206,199.33592 37.686343,202.46893 37.686343,202.46893 C 34.819422,203.80638 34.286762,205.89557 34.568302,208.91393 L 30.337377,214.60849 L 17.358416,221.50999 C 17.51033,225.84179 20.113751,226.53804 23.056984,226.73034 C 25.017866,236.50341 29.749364,233.22533 34.005166,232.18804 C 37.287796,236.21219 39.389501,234.66009 41.514939,233.22006 L 39.571228,219.24631 L 43.68214,211.8879 C 46.391469,210.22396 47.097899,207.95082 46.331002,204.35404 C 47.69066,203.89636 51.66043,199.85388 50.904603,194.95735 C 53.457776,195.19575 54.176733,192.99461 54.442745,190.19106 C 56.184681,190.20988 56.945543,187.70325 57.270499,184.07453 C 57.270499,184.07453 59.484923,184.50549 60.902143,183.56344 C 62.164414,182.72438 62.286315,180.70837 62.419262,180 L 68.071387,180 C 68.541512,181.06833 70.211229,182.38718 70.143991,182.33569 C 69.126175,181.55629 68.546956,184.035 68.387278,185.41428 C 66.573119,185.75014 66.493879,187.97441 67.123051,190.96977 C 64.072766,192.30414 65.384143,194.75145 65.41269,196.87145 C 65.41269,196.87145 61.687403,199.99693 60.919952,201.8587 C 60.324714,203.30269 60.337892,206.50502 60.337892,206.50502 C 57.511316,207.84408 57.737941,210.57188 58.650065,213.46285 L 55.716058,219.92198 L 44.485683,229.40686 C 45.548258,233.60906 48.239979,233.74027 51.157513,233.30716 C 55.136522,242.44639 59.069749,238.2437 63.010836,236.33172 C 67.068711,239.57257 68.79557,237.61192 70.56928,235.75582 L 65.720641,222.50687 L 68.18624,214.44669 C 70.271148,212.96991 70.662709,208.77839 69.185685,206.52351 C 70.775292,205.25353 73.4455,201.0001 71.673441,196.37331 C 74.219429,196.06758 74.457721,193.76429 74.126147,190.96775 C 75.832829,190.61855 76.04762,188.00782 75.599536,184.39224 C 75.599536,184.39224 77.855037,184.34622 79.041555,183.12632 C 80.098349,182.03979 79.858518,180.72047 79.838996,180 L 84.870806,180 C 86.018172,182.01661 88.735589,183.76251 88.69214,183.6898 C 86.526432,183.85012 87.465615,185.67319 87.583895,187.05665 C 85.872995,187.74715 86.238422,189.94263 87.451662,192.75263 C 84.728318,194.66788 86.50092,196.80492 86.951199,198.87673 C 86.951199,198.87673 83.923171,202.68166 83.541966,204.65899 C 83.246301,206.19261 83.897125,209.32814 83.897125,209.32814 C 81.483223,211.82842 82.159398,213.8314 83.629126,216.48274 L 82.040587,223.39688 L 72.924678,234.92876 C 74.803043,238.83508 77.466952,238.42747 80.239744,237.42188 C 85.959549,245.58532 88.976766,240.68335 92.458003,238.02462 C 97.080132,240.39218 98.381818,238.12683 99.750238,235.95461 L 92.359579,223.93705 L 93.170164,215.54725 C 94.71217,213.31052 94.824295,209.63589 92.571277,207.58378 C 93.632773,206.6187 95.645449,201.3225 92.987247,197.14143 C 95.421308,196.33467 95.196008,194.03008 94.314002,191.35562 C 95.916921,190.67346 95.607349,188.07225 94.448019,184.61839 C 94.448019,184.61839 96.649142,184.124 97.568884,182.69219 C 98.38806,181.41693 97.816653,180.70214 97.654004,180 L 102.97752,180 C 102.81115,180.70127 102.23122,181.22549 103.04361,182.50507 C 103.95574,183.94174 106.15421,184.44781 106.15421,184.44781 C 104.97656,187.89548 104.65318,190.495 106.25246,191.18566 C 105.35627,193.8554 105.11874,196.15876 107.54848,196.97843 C 104.86812,201.14533 106.85266,206.45215 107.90901,207.42284 C 105.7467,210.39764 105.16728,212.21583 107.26786,215.38302 L 108.0339,223.77701 L 100.57955,235.75516 C 101.93642,237.93463 103.22606,240.20684 107.86069,237.86386 C 111.32777,240.54102 114.31893,245.45894 120.08198,237.32598 C 122.84939,238.34628 125.5111,238.76803 127.41018,234.87173 L 118.35562,223.29163 L 116.8038,216.36915 C 118.16774,213.96533 118.46518,212.57324 116.57378,209.21323 C 116.57378,209.21323 117.24125,206.0812 116.95373,204.54603 C 116.58302,202.5667 113.57523,198.74575 113.57523,198.74575 C 114.0365,196.67636 115.82043,194.54875 113.10729,192.61908 C 114.33543,189.81556 114.7125,187.62205 113.00529,186.92247 C 113.13092,185.53966 114.07976,183.7216 111.91493,183.5498 C 111.8711,183.62227 114.59917,182.01049 115.75722,180 L 121.36799,180 C 121.32725,180.71958 121.03775,181.90679 122.06207,183.02398 C 123.21212,184.27832 125.46528,184.39079 125.46528,184.39079 C 124.91084,187.9916 125.04859,190.60754 126.74424,191.00687 C 126.33039,193.79243 126.5007,196.10174 129.03657,196.48238 C 127.12892,201.05493 130.01381,205.93121 131.2241,206.70149 C 129.67057,209.42351 129.02185,211.19848 131.9896,214.65068 L 134.21658,222.78003 L 128.97957,235.88031 C 130.69781,237.78789 132.36614,239.79858 136.51776,236.67874 C 140.40079,238.70602 144.20844,243.02282 148.45507,234.00484 C 151.35858,234.52373 154.05299,234.4719 155.23896,230.30284 L 144.293,220.49111 L 141.55063,213.94831 C 142.54756,211.44028 141.96162,208.71702 140.06859,206.94377 C 140.06859,206.94377 140.17614,203.74321 139.62372,202.28232 C 138.91147,200.39873 135.27992,197.16481 135.27992,197.16481 C 135.37093,195.04659 136.75387,192.63899 133.74424,191.21529 C 134.46141,188.23977 134.44776,186.01414 132.64428,185.62495 C 132.52533,184.24156 133.14045,182.28522 130.97907,182.49593 C 130.94863,182.57496 131.89471,182.18249 132.68204,180 L 136.7078,180 C 136.85281,180.706 137.0037,182.46679 138.28009,183.2842 C 139.71316,184.20195 141.91992,183.73329 141.91992,183.73329 C 142.3067,187.35595 143.11019,189.84924 144.85155,189.80072 C 145.16533,192.59933 145.92171,194.78789 148.47045,194.50599 C 147.79821,199.4147 151.83634,203.38891 153.2036,203.82333 C 152.70864,206.9415 153.02466,209.47742 155.98053,211.31093 L 160.2163,218.59819 L 158.51113,232.60304 C 160.66082,234.00662 162.78868,235.52266 166.00222,231.44313 C 170.27509,232.4077 175.06179,235.60464 176.85575,225.79956 C 179.79528,225.5571 182.38645,224.81656 182.46448,220.4828 L 169.36974,213.8036 L 165.04233,208.182 C 165.27237,205.15929 164.60419,203.07652 161.81486,201.79111 C 161.81486,201.79111 161.09868,198.66986 160.19034,197.39929 C 159.0192,195.76112 154.68021,193.56577 154.68021,193.56577 C 154.22538,191.49495 154.94519,188.81336 151.67123,188.20843 C 151.60198,185.14848 151.01845,183.00066 149.17548,183.08662 C 148.70599,181.77989 148.79926,179.73124 146.76403,180.48878 C 146.75486,180.57297 148.1325,176.97852 148.33426,174.66715 C 149.16737,173.1134 150.25254,171.94437 150,170 C 150,166.66667 145.35364,161.31303 140,160 L 129.39897,160 C 126.71607,155.9111 124.05727,151.30828 123.25735,144.94817 C 123.55517,141.48138 124.87737,138.46849 129.63983,136.97992 C 131.46626,136.19131 135.1676,137.82353 136.02231,140.55611 C 137.30693,144.66329 138.50894,146.0579 140.71884,147.06475 C 140.60626,149.88683 141.13476,151.71289 140.11673,154.53498 C 140.63981,156.19397 141.48888,156.22284 142.28436,156.02903 L 145.3529,153.11067 L 146.71534,156.28003 L 149.68108,155.63615 L 150.9231,140.51871 L 153.72709,138.09272 L 153.64799,132.37653 L 157.51513,127.2792 L 148.07779,127.75586 C 147.86997,126.0822 146.7831,125.5446 145.29496,125.52556 C 144.86366,124.40485 144.06919,123.58451 142.04351,123.78251 C 141.46573,122.93234 141.14837,121.86679 139.0329,122.28845 C 138.07288,120.98453 136.81572,121.21652 135.54061,121.54143 C 133.93494,120.49741 132.32929,120.46893 130.72364,121.41693 C 128.58967,120.15182 126.91977,120.32608 125.42497,121.04342 C 123.93974,120.75669 122.45451,121.28867 120.96928,122.66196 z M 107.42857,121.85714 C 107.42923,125.8025 104.23107,129.00119 100.28571,129.00119 C 96.340355,129.00119 93.142196,125.8025 93.142856,121.85714 C 93.142196,117.91178 96.340355,114.71309 100.28571,114.71309 C 104.23107,114.71309 107.42923,117.91178 107.42857,121.85714 z"
       id="path3377"
       sodipodi:nodetypes="cccccccccccccccccccccccccccccccccccscccsccccccscccccccccccccsccsccccscccccccccccccccssssccccccccccccccccccccccccccscccccsssscccccccccccccccccsssscccccccccccccccccssssccccccsccccccccccccccccccccccc" />
    <path
       style="opacity:1;fill:none;fill-opacity:1;fill-rule:evenodd;stroke:#000000;stroke-width:1;stroke-linecap:butt;stroke-linejoin:miter;marker:none;marker-start:none;marker-mid:none;marker-end:none;stroke-miterlimit:4;stroke-dasharray:none;stroke-dashoffset:0;stroke-opacity:1;visibility:visible;display:inline;overflow:visible;enable-background:accumulate"
       d="M 60,160 L 140,160 C 145.35364,161.31303 150,166.66667 150,170 C 150,173.33333 145.85871,179.69712 140,180 L 60,180 C 55.656514,180.2022 50,173.33333 50,170 C 50,166.66667 55.151438,159.7978 60,160 z"
       id="path3373"
       sodipodi:nodetypes="ccsccsc" />
    <path
       sodipodi:nodetypes="cccccccccccccccccscccccccccccccccccccccccccccccccccccccccccccccccccsccccccccccccccc"
       id="left head"
       d="M 86.153618,127.49174 C 84.934821,131.22758 83.597299,134.34969 82.151439,136.91176 M 88.623048,131.62951 C 86.882474,134.43827 85.332249,137.28721 83.378848,139.21584 M 90.326103,134.97493 C 88.226313,137.52935 86.261473,140.86084 83.75901,142.58263 M 90.581561,139.90503 C 88.383668,141.95206 86.744657,144.313 83.925036,145.50297 M 90.53168,144.82447 C 88.204172,146.54946 85.756238,148.89761 83.428729,149.76524 M 91.262783,148.9729 C 88.316588,150.54015 85.430491,152.9787 82.080896,153.71183 M 90.751866,153.37479 C 87.578221,154.54813 84.907293,156.58771 81.129606,156.72021 M 89.985492,157.1604 L 85.046633,159.09723 M 83.088119,125.37883 C 82.540141,129.33399 81.601884,131.92414 80.838875,134.99003 M 78.990455,122.74839 L 79.171092,133.47829 M 74.593505,121.10146 L 76.871968,131.62951 M 69.378526,121.3291 C 71.593957,124.74827 72.622449,127.65834 73.966443,130.85227 M 64.524819,121.59323 C 67.568036,124.6452 68.884084,127.69716 70.655817,130.74913 M 67.409682,130.80069 C 65.478384,127.23819 63.41754,124.60192 61.033556,122.20949 M 64.780277,131.71754 C 63.435669,128.6367 60.892068,126.08713 57.968057,123.70612 M 54.6471,125.55491 C 57.160754,127.4633 59.977057,129.32637 61.820593,132.85135 M 51.922213,127.93193 C 55.653493,130.29751 57.324021,132.81526 57.882905,135.41513 C 59.441057,134.82281 60.594828,134.48928 61.799931,132.86203 C 63.639103,133.12721 64.095841,132.24897 64.86543,131.62951 C 66.351634,131.7735 67.294962,131.54331 67.420012,130.74913 C 68.676512,131.17568 69.767542,131.26005 70.570665,130.74913 C 72.621987,131.32905 73.034152,130.89217 74.061927,130.83717 C 74.901117,131.57591 75.806618,131.97185 76.871968,131.54147 C 77.273915,133.02629 78.262071,132.99597 79.08594,133.39026 C 79.555674,134.57156 80.177981,134.96414 80.874148,134.97493 C 81.085132,135.70222 80.931865,136.61781 81.981133,136.91176 C 82.374066,137.99119 82.73284,139.24721 83.343578,139.20073 C 82.833013,140.4508 83.150355,141.52967 83.769341,142.54617 C 83.344947,143.77798 83.370593,144.77715 83.854494,145.53944 C 83.13704,147.20154 83.3498,148.38277 83.513883,149.58916 C 81.665432,151.84004 82.346131,152.45665 82.151439,153.63889 C 80.826003,155.28403 80.554381,156.24822 81.044453,156.72021 C 79.778495,157.90971 79.165922,158.87403 79.937467,159.36134 M 74.575024,121.04342 C 73.080224,120.32608 71.410326,120.15182 69.276361,121.41693 C 67.670706,120.46892 66.06505,120.4974 64.459394,121.54142 C 63.184272,121.21652 61.927123,120.98452 60.967094,122.28844 C 58.851623,121.86679 58.534264,122.93234 57.956489,123.78251 C 55.930822,123.58451 55.136335,124.40485 54.705036,125.52555 C 53.216899,125.54459 52.130024,126.08219 51.922213,127.75585 L 42.484866,127.27919 L 46.352012,132.37652 L 46.27291,138.09272 L 49.076901,140.51871 L 50.31892,155.63615 L 53.284656,156.28003 L 54.6471,153.11068 L 57.715641,156.02903 C 58.511122,156.22284 59.36019,156.19397 59.883275,154.53498 C 58.865233,151.71289 59.393739,149.88683 59.281155,147.06475 C 61.491059,146.05791 62.693061,144.66329 63.977697,140.55611 C 64.832389,137.82352 68.533745,136.1913 70.360179,136.97992 C 75.122623,138.46849 76.444829,141.48138 76.74266,144.94818 C 75.942727,151.30828 73.283919,155.42623 70.601027,159.51513 L 88.544229,159.14162 C 89.773906,158.9416 90.363777,158.34468 89.989319,157.14956 C 90.956949,156.15499 91.647869,155.06505 90.711864,153.41445 C 91.774662,151.67683 91.209112,150.36008 91.073136,148.9323 C 91.310182,147.63126 92.157704,146.43543 90.591441,144.82366 C 91.756452,143.41262 91.114129,141.37906 90.711864,139.96801 C 91.957764,137.6435 91.437314,136.5344 90.471015,134.86335 C 90.530591,132.81683 89.386963,132.42893 88.544229,131.62625 C 87.977616,128.26147 87.001639,128.28254 86.135746,127.39312 C 85.743762,126.58221 85.393596,125.76412 83.125141,125.27655 C 82.4178,123.72529 81.022435,122.88535 79.030719,122.66197 C 77.545487,121.28866 76.060256,120.75668 74.575024,121.04342 z"
       style="opacity:1;fill:none;fill-opacity:1;fill-rule:evenodd;stroke:#000000;stroke-width:0.96973127000000003;stroke-linecap:butt;stroke-linejoin:miter;marker:none;marker-start:none;marker-mid:none;marker-end:none;stroke-miterlimit:4;stroke-dasharray:none;stroke-dashoffset:0;stroke-opacity:1;visibility:visible;display:inline;overflow:visible;enable-background:accumulate" />
    <path
       sodipodi:nodetypes="cccccccccccccccccscccccccccccccccccccccccccccccccccccccccccccccccccsccccccccccccccc"
       id="righte head"
       d="M 113.84638,127.49174 C 115.06518,131.22758 116.4027,134.34969 117.84856,136.91176 M 111.37694,131.6295 C 113.11752,134.43827 114.66775,137.28722 116.62114,139.21584 M 109.6739,134.97493 C 111.77368,137.52935 113.73852,140.86084 116.24098,142.58264 M 109.41843,139.90503 C 111.61633,141.95206 113.25533,144.313 116.07496,145.50298 M 109.46831,144.82447 C 111.79582,146.54946 114.24377,148.89761 116.57126,149.76525 M 108.73721,148.9729 C 111.68341,150.54016 114.5695,152.97871 117.9191,153.71183 M 109.24813,153.37479 C 112.42177,154.54813 115.09271,156.58772 118.87039,156.72022 M 110.01451,157.1604 L 114.95336,159.09723 M 116.91187,125.37884 C 117.45986,129.33399 118.39812,131.92414 119.16113,134.99003 M 121.00954,122.74839 L 120.82891,133.47829 M 125.40649,121.10147 L 123.12803,131.6295 M 130.62147,121.32911 C 128.40605,124.74827 127.37754,127.65834 126.03356,130.85227 M 135.47518,121.59323 C 132.43197,124.6452 131.11592,127.69716 129.34418,130.74913 M 132.59032,130.8007 C 134.52161,127.23819 136.58246,124.60193 138.96644,122.20949 M 135.21972,131.71754 C 136.56432,128.6367 139.10793,126.08714 142.03194,123.70612 M 145.3529,125.55491 C 142.83925,127.46331 140.02294,129.32637 138.17941,132.85136 M 148.07779,127.93193 C 144.34652,130.29751 142.67598,132.81527 142.11709,135.41512 C 140.55894,134.82281 139.40517,134.48928 138.20006,132.86204 C 136.36089,133.12721 135.90416,132.24897 135.13457,131.6295 C 133.64836,131.7735 132.70504,131.54331 132.57999,130.74913 C 131.32349,131.17567 130.23246,131.26005 129.42933,130.74913 C 127.37801,131.32906 126.96585,130.89218 125.93807,130.83717 C 125.09888,131.57591 124.19338,131.97185 123.12803,131.54147 C 122.72609,133.02629 121.73793,132.99597 120.91406,133.39026 C 120.44432,134.57156 119.82202,134.96415 119.12585,134.97493 C 118.91487,135.70222 119.06814,136.61781 118.01886,136.91176 C 117.62592,137.9912 117.26716,139.24721 116.65642,139.20073 C 117.16698,140.4508 116.84964,141.52967 116.23065,142.54617 C 116.65504,143.77799 116.6294,144.77716 116.1455,145.53944 C 116.86295,147.20154 116.65019,148.38277 116.48612,149.58917 C 118.33457,151.84005 117.65386,152.45665 117.84856,153.6389 C 119.17399,155.28403 119.44562,156.24822 118.95555,156.72022 C 120.2215,157.90972 120.83408,158.87403 120.06254,159.36134 M 125.42497,121.04342 C 126.91977,120.32608 128.58967,120.15182 130.72364,121.41693 C 132.32929,120.46893 133.93494,120.49741 135.54061,121.54143 C 136.81572,121.21652 138.07288,120.98453 139.0329,122.28845 C 141.14837,121.86679 141.46573,122.93234 142.04351,123.78251 C 144.06919,123.58451 144.86366,124.40485 145.29496,125.52556 C 146.7831,125.5446 147.86997,126.0822 148.07779,127.75586 L 157.51513,127.2792 L 153.64799,132.37653 L 153.72709,138.09272 L 150.9231,140.51871 L 149.68108,155.63615 L 146.71534,156.28003 L 145.3529,153.11067 L 142.28436,156.02903 C 141.48888,156.22284 140.63981,156.19397 140.11673,154.53498 C 141.13476,151.71289 140.60626,149.88683 140.71884,147.06475 C 138.50894,146.0579 137.30693,144.66329 136.02231,140.55611 C 135.1676,137.82353 131.46626,136.19131 129.63983,136.97992 C 124.87737,138.46849 123.55517,141.48138 123.25735,144.94817 C 124.05727,151.30828 126.71607,155.42623 129.39897,159.51513 L 111.45577,159.14162 C 110.2261,158.9416 109.63622,158.34468 110.01068,157.14957 C 109.04305,156.15499 108.35213,155.06506 109.28813,153.41444 C 108.22533,151.67682 108.79088,150.36008 108.92686,148.9323 C 108.68982,147.63127 107.84229,146.43543 109.40855,144.82367 C 108.24355,143.41263 108.88586,141.37906 109.28813,139.96801 C 108.04223,137.6435 108.56268,136.5344 109.52898,134.86335 C 109.46941,132.81684 110.61303,132.42894 111.45577,131.62625 C 112.02238,128.26147 112.99836,128.28254 113.86425,127.39312 C 114.25624,126.58221 114.6064,125.76412 116.87486,125.27656 C 117.5822,123.72528 118.97756,122.88535 120.96928,122.66196 C 122.45451,121.28867 123.93974,120.75669 125.42497,121.04342 z"
       style="opacity:1;fill:none;fill-opacity:1;fill-rule:evenodd;stroke:#000000;stroke-width:0.96973127000000003;stroke-linecap:butt;stroke-linejoin:miter;marker:none;marker-start:none;marker-mid:none;marker-end:none;stroke-miterlimit:4;stroke-dasharray:none;stroke-dashoffset:0;stroke-opacity:1;visibility:visible;display:inline;overflow:visible;enable-background:accumulate" />
    <path
       style="opacity:1;fill:none;fill-opacity:1;fill-rule:evenodd;stroke:#000000;stroke-width:0.87765259;stroke-linecap:butt;stroke-linejoin:miter;marker:none;marker-start:none;marker-mid:none;marker-end:none;stroke-miterlimit:4;stroke-dasharray:none;stroke-dashoffset:0;stroke-opacity:1;visibility:visible;display:inline;overflow:visible;enable-background:accumulate"
       d="M 61.951061,161.86658 L 138.04894,161.86658 C 143.14146,162.92982 147.56117,167.26505 147.56117,169.96428 C 147.56117,172.66352 143.62189,177.81674 138.04894,178.062 L 61.951061,178.062 C 57.819435,178.22574 52.438826,172.66352 52.438826,169.96428 C 52.438826,167.26505 57.338995,161.70283 61.951061,161.86658 z"
       id="path3412"
       sodipodi:nodetypes="ccsccsc" />
    <path
       style="fill:#ffffff;fill-opacity:1;fill-rule:nonzero;stroke:#000000;stroke-width:1;stroke-linecap:butt;stroke-linejoin:miter;marker:none;marker-start:none;marker-mid:none;marker-end:none;stroke-miterlimit:4;stroke-dasharray:none;stroke-dashoffset:0;stroke-opacity:1;visibility:visible;display:inline;overflow:visible;enable-background:accumulate"
       d="M 30.337377,214.60849 L 17.358416,221.50999 C 17.51033,225.84179 20.113751,226.53804 23.056984,226.73034 C 25.017866,236.50341 29.749364,233.22533 34.005166,232.18804 C 37.287796,236.21219 39.389501,234.66009 41.514939,233.22006 L 39.571228,219.24631 L 43.68214,211.8879 C 46.391469,210.22396 47.097899,207.95082 46.331002,204.35404 C 47.69066,203.89636 51.66043,199.85388 50.904603,194.95735 C 53.457776,195.19575 54.176733,192.99461 54.442745,190.19106 C 56.184681,190.20988 56.945543,187.70325 57.270499,184.07453 C 57.270499,184.07453 59.484923,184.50549 60.902143,183.56344 C 62.164414,182.72438 62.286315,180.70837 62.419262,180 L 58.931348,180 C 57.39917,180 56.265381,178.54099 56.19888,177.01026 C 56.145438,175.78015 57.691301,174.41049 58.764333,173.80664 C 59.763777,173.2442 60.645129,173.57633 61.288515,173.12807 C 62.004056,172.62954 62.613425,171.66537 62.281839,170.30288 C 61.771971,168.20781 58.767517,168.03866 56.188531,168.37213 C 53.284282,168.74798 50.116256,172.43041 50.460764,175.75463 C 50.701914,178.06223 52.38237,180.9971 52.371765,180.91308 C 50.323921,180.19036 50.452109,182.23711 50.004975,183.55165 C 48.160794,183.49713 47.613981,185.6546 47.596912,188.71528 C 44.333738,189.37594 45.099162,192.04487 44.679714,194.12314 C 44.679714,194.12314 40.378783,196.39215 39.235746,198.05006 C 38.349206,199.33592 37.686343,202.46893 37.686343,202.46893 C 34.819422,203.80638 34.286762,205.89557 34.568302,208.91393 L 30.337377,214.60849 z M 57.070971,183.91972 L 52.77082,181.22269 M 50.359306,183.50693 L 54.287941,190.39059 M 47.662591,188.6887 L 51.303658,195.26696 M 43.593557,211.89908 C 42.113033,212.33089 39.416516,212.64492 38.05532,212.08217 C 36.856876,211.5867 34.66387,208.88643 34.66387,208.88643 M 46.364112,204.25986 C 45.647861,202.64785 44.938428,202.14575 43.61536,201.20818 C 42.789633,203.30591 42.820682,203.58172 43.286937,205.5482 C 43.831532,206.65188 43.414996,207.94789 42.531842,208.47832 C 41.299552,209.21845 39.153082,208.47238 38.250184,207.35385 C 37.308013,206.18666 37.624067,202.3932 37.624067,202.3932 M 43.648414,201.04786 C 45.808337,199.40974 46.330408,197.91929 44.834518,193.92362 M 32.707315,211.92319 C 35.16846,215.12012 37.963837,216.14593 40.951562,215.9223 M 30.617455,214.61681 C 33.019532,218.02183 35.572724,218.62491 39.271938,219.01411 M 41.102343,233.13389 C 36.778539,226.58902 33.184008,221.86353 25.969531,217.09871 M 28.692742,215.48229 C 33.465562,218.31455 38.494636,221.85851 40.64014,226.44687 M 22.651569,219.04474 C 28.602264,223.03723 31.79369,226.19375 34.19396,231.84224 M 19.051432,220.77185 C 23.887731,224.03207 28.644158,229.53703 31.31385,233.22392 M 33.393608,217.43437 C 30.269315,217.39588 26.451457,218.09374 22.651569,219.04474 M 39.190327,218.9936 C 33.426937,220.05987 25.343764,221.3868 17.550571,222.99762 M 39.946859,222.97079 C 34.986714,223.37335 26.501127,225.2966 22.59808,226.68775 M 40.514865,226.46268 C 35.31292,226.97069 29.37554,228.35288 23.792463,230.10058 M 40.990441,231.23895 C 38.095247,229.89623 32.311355,232.19976 31.177066,233.01753"
       id="001"
       sodipodi:nodetypes="cccccccccccscsssssssccccsccccccccccsccccssccccccccccccccccccccccccc" />
    <path
       style="fill:#ffffff;fill-opacity:1;fill-rule:nonzero;stroke:#000000;stroke-width:1;stroke-linecap:butt;stroke-linejoin:miter;marker:none;marker-start:none;marker-mid:none;marker-end:none;stroke-miterlimit:4;stroke-dasharray:none;stroke-dashoffset:0;stroke-opacity:1;visibility:visible;display:inline;overflow:visible;enable-background:accumulate"
       d="M 55.716058,219.92198 L 44.485683,229.40686 C 45.548258,233.60906 48.239979,233.74027 51.157513,233.30716 C 55.136522,242.44639 59.069749,238.2437 63.010836,236.33172 C 67.068711,239.57257 68.79557,237.61192 70.56928,235.75582 L 65.720641,222.50687 L 68.18624,214.44669 C 70.271148,212.96991 70.662709,208.77839 69.185685,206.52351 C 70.775292,205.25353 73.4455,201.0001 71.673441,196.37331 C 74.219429,196.06758 74.457721,193.76429 74.126147,190.96775 C 75.832829,190.61855 76.04762,188.00782 75.599536,184.39224 C 75.599536,184.39224 77.855037,184.34622 79.041555,183.12632 C 80.098349,182.03979 79.858518,180.72047 79.838996,180 L 76.461731,180 C 74.929551,180 73.449383,179.1954 73.061369,177.71317 C 72.749557,176.52203 73.971589,174.85701 74.893036,174.04033 C 75.751291,173.27965 76.682881,173.41832 77.217191,172.84441 C 77.811423,172.20611 78.203613,171.13505 77.591985,169.87322 C 76.651503,167.93292 73.679009,168.40156 71.228464,169.27174 C 68.468922,170.25196 66.149285,174.51997 67.187504,177.69666 C 67.910167,179.90141 70.172088,182.41558 70.143991,182.33569 C 67.989753,182.06137 68.546956,184.035 68.387278,185.41428 C 66.573119,185.75014 66.493879,187.97441 67.123051,190.96977 C 64.072766,192.30414 65.384143,194.75145 65.41269,196.87145 C 65.41269,196.87145 61.687403,199.99693 60.919952,201.8587 C 60.324714,203.30269 60.337892,206.50502 60.337892,206.50502 C 57.511316,207.84408 57.737941,210.57188 58.650065,213.46285 L 55.716058,219.92198 z M 75.371835,184.28302 L 70.599394,182.55413 M 68.724195,185.29579 L 74.016932,191.19545 M 67.290664,190.70161 L 72.128846,196.59176 M 68.10201,214.47631 C 68.10201,214.47631 65.07708,215.69698 63.223289,215.57582 C 61.142609,215.43982 58.737678,213.41582 58.737678,213.41582 M 69.198177,206.42448 C 68.506997,204.92454 67.370392,204.29087 65.867363,204.02153 C 65.502885,206.24627 65.591436,206.50933 66.462153,208.33315 C 67.227378,209.29704 67.093704,210.65177 66.342365,211.35663 C 65.294004,212.34011 63.038431,212.06378 61.919838,211.16097 C 60.752585,210.21887 60.261041,206.44415 60.261041,206.44415 M 65.865844,203.85786 C 67.822767,201.59057 69.132131,199.22207 65.521907,196.64375 M 57.465987,216.79706 C 60.54632,219.40266 63.495214,219.81549 66.368472,218.96644 M 55.991584,219.87102 C 59.058089,222.6925 61.681048,222.74321 65.379095,222.34307 M 70.147791,235.75866 C 64.540271,230.27355 60.029525,226.41298 51.972042,223.27782 M 54.29284,221.12315 C 59.555843,222.88449 65.21951,225.28743 68.284923,229.31974 M 49.13944,225.88018 C 55.798623,228.52708 59.584261,230.93906 63.122407,235.95387 M 45.984818,228.32808 C 51.400175,230.49435 57.211138,234.87167 60.59871,237.9122 M 59.299779,222.03932 C 56.237715,222.66097 52.653086,224.14876 49.13944,225.88018 M 65.294992,222.34024 C 59.88638,224.59866 52.265226,227.6014 44.987426,230.82044 M 66.873741,226.06822 C 62.110235,227.50838 54.22156,231.17895 50.699956,233.36237 M 68.165805,229.36163 C 63.188195,230.9559 57.676175,233.55984 52.587609,236.44632 M 69.638546,233.93 C 66.525207,233.22844 61.357638,236.70061 60.421453,237.73931"
       id="002"
       sodipodi:nodetypes="cccccccccccscsssssssccccsccccccccccsccccssccccccccccccccccccccccccc" />
    <path
       style="fill:#ffffff;fill-opacity:1;fill-rule:evenodd;stroke:#000000;stroke-width:0.99999994000000003;stroke-linecap:butt;stroke-linejoin:miter;marker:none;marker-start:none;marker-mid:none;marker-end:none;stroke-miterlimit:4;stroke-dasharray:none;stroke-dashoffset:0;stroke-opacity:1;visibility:visible;display:inline;overflow:visible;enable-background:accumulate"
       d="M 82.040587,223.39688 L 72.924678,234.92876 C 74.803043,238.83508 77.466952,238.42747 80.239744,237.42188 C 85.959549,245.58532 88.976766,240.68335 92.458003,238.02462 C 97.080132,240.39218 98.381818,238.12683 99.750238,235.95461 L 92.359579,223.93705 L 93.170164,215.54725 C 94.71217,213.31052 94.824295,209.63589 92.571277,207.58378 C 93.632773,206.6187 95.645449,201.3225 92.987247,197.14143 C 95.421308,196.33467 95.196008,194.03008 94.314002,191.35562 C 95.916921,190.67346 95.607349,188.07225 94.448019,184.61839 C 94.448019,184.61839 96.649142,184.124 97.568884,182.69219 C 98.38806,181.41693 97.816653,180.70214 97.654004,180 L 94.520672,180 C 92.98849,180 91.30574,179.95402 90.630241,178.57878 C 90.087403,177.47364 90.953271,175.59856 91.693567,174.61469 C 92.383093,173.69829 93.323638,173.64861 93.732908,172.97975 C 94.188086,172.23588 94.359065,171.10817 93.508331,169.99345 C 92.200189,168.27939 89.380622,169.33076 87.152528,170.67165 C 84.643555,172.18194 83.220599,176.82649 84.870806,179.73268 C 86.018172,181.74929 88.735589,183.76251 88.69214,183.6898 C 86.526432,183.85012 87.465615,185.67319 87.583895,187.05665 C 85.872995,187.74715 86.238422,189.94263 87.451662,192.75263 C 84.728318,194.66788 86.50092,196.80492 86.951199,198.87673 C 86.951199,198.87673 83.923171,202.68166 83.541966,204.65899 C 83.246301,206.19261 83.897125,209.32814 83.897125,209.32814 C 81.483223,211.82842 82.159398,213.8314 83.629126,216.48274 L 82.040587,223.39688 z M 94.203118,184.55673 L 89.181931,183.81316 M 87.890455,186.87341 L 94.252331,191.60051 M 87.879777,193.12085 L 93.477036,197.26477 M 93.093524,215.59306 C 92.267497,216.7928 91.111689,217.78301 88.390143,218.00585 C 87.111865,218.11052 84.812285,217.72088 83.705616,216.4192 M 92.563789,207.48423 C 91.587671,206.15203 90.347624,205.75748 88.821064,205.79295 C 88.907061,208.04571 89.046237,208.28585 90.262809,209.89967 C 91.204708,210.69181 91.343572,212.04602 90.747701,212.88641 C 89.916262,214.05903 87.65085,214.23755 86.374831,213.57565 C 85.043308,212.88496 83.809683,209.28379 83.809683,209.28379 M 88.78697,205.63286 C 90.253025,203.02118 91.064342,200.43932 87.012867,198.63184 M 83.132958,219.98599 C 86.670593,221.92577 89.642625,221.74291 92.289167,220.33852 M 82.30044,223.29206 C 85.867526,225.44613 88.448023,224.97334 91.992244,223.84455 M 99.337765,236.04135 C 92.749992,231.7832 87.560618,228.89854 79.040092,227.43127 M 80.885167,224.85748 C 86.393553,225.53513 92.422378,226.76171 96.229599,230.10256 M 76.782651,230.54574 C 83.835636,231.81306 88.025878,233.42262 92.49207,237.63212 M 74.178877,233.57299 C 79.917223,234.61709 86.483693,237.74913 90.40905,240.05391 M 85.97426,224.7579 C 83.097399,225.97707 79.880977,228.14909 76.782651,230.54574 M 91.909264,223.85854 C 87.058928,227.1491 80.188661,231.6098 73.697956,236.21408 M 94.198993,227.19733 C 89.817834,229.55752 82.818436,234.72594 79.802353,237.56712 M 96.121206,230.16734 C 91.560938,232.72121 86.678096,236.37097 82.266498,240.21324 M 98.47446,234.35078 C 95.283765,234.28347 90.911418,238.71543 90.200907,239.91981"
       id="003"
       sodipodi:nodetypes="cccccccccccscsssssssccccsccccccccccsccccssccccccccccccccccccccccccc" />
    <path
       style="fill:#ffffff;fill-opacity:1;fill-rule:evenodd;stroke:#000000;stroke-width:1;stroke-linecap:butt;stroke-linejoin:miter;marker:none;marker-start:none;marker-mid:none;marker-end:none;stroke-miterlimit:4;stroke-dasharray:none;stroke-dashoffset:0;stroke-opacity:1;visibility:visible;display:inline;overflow:visible;enable-background:accumulate"
       d="M 169.36974,213.8036 L 182.46448,220.4828 C 182.38645,224.81656 179.79528,225.5571 176.85575,225.79956 C 175.06179,235.60464 170.27509,232.4077 166.00222,231.44313 C 162.78868,235.52266 160.66082,234.00662 158.51113,232.60304 L 160.2163,218.59819 L 155.98053,211.31093 C 153.02466,209.47742 152.70864,206.9415 153.2036,203.82333 C 151.83634,203.38891 147.79821,199.4147 148.47045,194.50599 C 145.92171,194.78789 145.16533,192.59933 144.85155,189.80072 C 143.11019,189.84924 142.3067,187.35595 141.91992,183.73329 C 141.91992,183.73329 139.71316,184.20195 138.28009,183.2842 C 137.0037,182.46679 136.85281,180.706 136.7078,180 L 140.1978,180 C 141.72998,180 142.83055,178.18343 142.87094,176.65178 C 142.90339,175.42094 141.3344,174.07784 140.25123,173.49237 C 139.24234,172.94705 138.36678,173.29416 137.71585,172.85694 C 136.99191,172.37068 136.36619,171.41704 136.6745,170.04909 C 137.14857,167.94563 140.14971,167.72528 142.734,168.01473 C 145.64423,168.34101 148.87459,171.96888 148.5868,175.2985 C 148.38504,177.60987 146.75486,180.57297 146.76403,180.48878 C 148.79926,179.73124 148.70599,181.77989 149.17548,183.08662 C 151.01845,183.00066 151.60198,185.14848 151.67123,188.20843 C 154.94519,188.81336 154.22538,191.49495 154.68021,193.56577 C 154.68021,193.56577 159.0192,195.76112 160.19034,197.39929 C 161.09868,198.66986 161.81486,201.79111 161.81486,201.79111 C 164.60419,203.07652 165.27237,205.15929 165.04233,208.182 L 169.36974,213.8036 z M 142.11678,183.57511 C 142.75131,183.12178 145.11281,181.59655 146.90603,180.44801 M 149.26686,183.13723 L 145.00974,189.99758 M 151.70355,188.18594 L 148.07673,194.82237 M 156.06929,211.3206 C 158.12795,212.20053 160.47647,212.13616 162.14853,211.57865 C 163.48976,211.13145 164.57422,209.82833 164.94631,208.15614 M 153.16888,203.72973 C 153.97514,202.11183 154.68161,201.23605 155.86521,200.63163 C 156.72658,202.71498 157.32524,203.25914 156.89258,205.23328 C 156.36688,206.34608 156.80545,207.6348 157.69753,208.1501 C 158.94226,208.86911 161.0757,208.08655 161.95939,206.95279 C 162.88152,205.76971 161.87583,201.71433 161.87583,201.71433 M 155.82943,200.4719 C 153.40773,198.70964 151.59355,196.70141 154.52203,193.36892 M 166.95436,211.1591 C 164.54808,214.39753 161.7706,215.47085 158.7795,215.29819 M 169.08985,213.8167 C 166.74617,217.26217 164.20364,217.9087 160.51159,218.36092 M 158.9222,232.50985 C 163.13379,225.89221 166.64722,221.10612 173.77941,216.21898 M 171.02904,214.64923 C 166.3052,217.56246 161.33728,221.19165 159.27032,225.81592 M 177.13007,218.10816 C 171.24831,222.20153 168.11117,225.412 165.80756,231.1006 M 180.75913,219.77363 C 175.97913,223.11584 171.31725,228.7011 168.71081,232.43298 M 166.36214,216.68118 C 169.48532,216.58943 173.31452,217.22209 177.13007,218.10816 M 160.59284,218.33902 C 166.37358,219.30686 174.4782,220.49578 182.29773,221.97349 M 159.90423,222.32853 C 164.87052,222.64645 173.38767,224.42475 177.31387,225.74915 M 159.39585,225.82959 C 164.6057,226.24884 170.56578,227.52959 176.17785,229.18185 M 159.00178,230.61328 C 161.87366,229.22139 167.69599,231.42597 168.84405,232.22428"
       id="004"
       sodipodi:nodetypes="cccccccccccscsssssssccccsccccccccccsccccssccccccccccccccccccccccccc" />
    <path
       style="fill:#ffffff;fill-opacity:1;fill-rule:evenodd;stroke:#000000;stroke-width:1;stroke-linecap:butt;stroke-linejoin:miter;marker:none;marker-start:none;marker-mid:none;marker-end:none;stroke-miterlimit:4;stroke-dasharray:none;stroke-dashoffset:0;stroke-opacity:1;visibility:visible;display:inline;overflow:visible;enable-background:accumulate"
       d="M 144.293,220.49111 L 155.23896,230.30284 C 154.05299,234.4719 151.35858,234.52373 148.45507,234.00484 C 144.20844,243.02282 140.40079,238.70602 136.51776,236.67874 C 132.36614,239.79858 130.69781,237.78789 128.97957,235.88031 L 134.21658,222.78003 L 131.9896,214.65068 C 129.02185,211.19848 129.67057,209.42351 131.2241,206.70149 C 130.01381,205.93121 127.12892,201.05493 129.03657,196.48238 C 126.5007,196.10174 126.33039,193.79243 126.74424,191.00687 C 125.04859,190.60754 124.91084,187.9916 125.46528,184.39079 C 125.46528,184.39079 123.21212,184.27832 122.06207,183.02398 C 121.03775,181.90679 121.32725,180.71958 121.36799,180 L 124.71772,180 C 126.2499,180 127.76766,179.25959 128.19919,177.78943 C 128.54598,176.608 127.37354,174.90769 126.47656,174.06421 C 125.6411,173.27857 124.70583,173.38973 124.18866,172.8003 C 123.61351,172.14477 123.25305,171.06263 123.90161,169.81936 C 124.89886,167.90762 127.85625,168.46367 130.28009,169.40568 C 133.00954,170.46682 135.20239,174.80135 134.071,177.94604 C 133.28367,180.12853 130.94863,182.57496 130.97907,182.49593 C 133.14045,182.28522 132.52533,184.24156 132.64428,185.62495 C 134.44776,186.01414 134.46141,188.23977 133.74424,191.21529 C 136.75387,192.63899 135.37093,195.04659 135.27992,197.16481 C 135.27992,197.16481 138.91147,200.39873 139.62372,202.28232 C 140.17614,203.74321 140.06859,206.94377 140.06859,206.94377 C 141.96162,208.71702 142.54756,211.44028 141.55063,213.94831 L 144.293,220.49111 z M 125.42824,184.37763 L 131.05314,182.43298 M 132.66815,185.67517 L 126.75741,191.05912 M 133.74219,191.20459 L 128.93207,196.50873 M 132.07292,214.68277 C 133.52874,216.18224 135.8977,216.74333 137.88305,216.49 C 139.72131,216.25544 140.89102,215.09037 141.46444,213.89871 M 131.21454,206.60212 C 132.17844,205.46643 133.35163,204.89415 134.61472,204.29839 C 134.91347,206.53292 135.17434,206.97181 134.25025,208.76917 C 133.45695,209.7101 133.55064,211.06817 134.28089,211.79486 C 135.2998,212.80883 137.56254,212.59909 138.70726,211.72964 C 139.90177,210.82236 140.14721,206.88518 140.14721,206.88518 M 134.62106,204.13484 C 132.73181,201.81085 131.49282,199.4048 135.17746,196.93399 M 142.63593,217.31597 C 139.48014,219.82965 136.52036,220.15541 133.67338,219.22204 M 144.01909,220.43206 C 140.87077,223.16192 138.24745,223.13533 134.56281,222.62635 M 129.4008,235.89557 C 135.16753,230.57812 139.7901,226.85216 147.93649,223.95584 M 145.68019,221.7337 C 140.36757,223.33918 134.63554,225.57415 131.45263,229.51436 M 150.69116,226.64055 C 143.95686,229.09003 140.10179,231.3894 136.41738,236.29776 M 153.77227,229.18036 C 148.29542,231.18608 142.35797,235.39024 138.88226,238.32961 M 140.64843,222.50191 C 143.69085,223.21355 147.23007,224.80632 150.69116,226.64055 M 134.64695,222.626 C 139.98666,225.04285 147.51601,228.2689 154.69577,231.70103 M 132.95902,226.30585 C 137.67802,227.88578 145.45508,231.78722 148.91081,234.0735 M 131.57045,229.55974 C 136.49891,231.30002 141.9318,234.06529 146.93308,237.10047 M 129.96372,234.08272 C 133.09638,233.47322 138.15937,237.09617 139.06453,238.16202"
       id="005"
       sodipodi:nodetypes="cccccccccccscsssssssccccsccccccccccsccccssccccccccccccccccccccccccc" />
    <path
       style="fill:#ffffff;fill-opacity:1;fill-rule:evenodd;stroke:#000000;stroke-width:0.99999994000000003;stroke-linecap:butt;stroke-linejoin:miter;marker:none;marker-start:none;marker-mid:none;marker-end:none;stroke-miterlimit:4;stroke-dasharray:none;stroke-dashoffset:0;stroke-opacity:1;visibility:visible;display:inline;overflow:visible;enable-background:accumulate"
       d="M 118.35562,223.29163 L 127.41018,234.87173 C 125.5111,238.76803 122.84939,238.34628 120.08198,237.32598 C 114.31893,245.45894 111.32777,240.54102 107.86069,237.86386 C 103.22606,240.20684 101.93642,237.93463 100.57955,235.75516 L 108.0339,223.77701 L 107.26786,215.38302 C 105.16728,212.21583 105.7467,210.39764 107.90901,207.42284 C 106.85266,206.45215 104.86812,201.14533 107.54848,196.97843 C 105.11874,196.15876 105.35627,193.8554 106.25246,191.18566 C 104.65318,190.495 104.97656,187.89548 106.15421,184.44781 C 106.15421,184.44781 103.95574,183.94174 103.04361,182.50507 C 102.23122,181.22549 102.81115,180.70127 102.97752,180 L 106.10263,180 C 107.63482,180 109.32121,179.80019 110.00399,178.42857 C 110.55269,177.32631 109.69679,175.44666 108.96172,174.45887 C 108.27708,173.53884 107.3368,173.48416 106.93109,172.81314 C 106.47987,172.06686 106.31488,170.93825 107.17152,169.82807 C 108.48874,168.12097 111.30268,169.1873 113.52363,170.53999 C 116.02455,172.06358 117.42283,176.71562 115.75722,179.61301 C 114.59917,181.6235 111.8711,183.62227 111.91493,183.5498 C 114.07976,183.7216 113.13092,185.53966 113.00529,186.92247 C 114.7125,187.62205 114.33543,189.81556 113.10729,192.61908 C 115.82043,194.54875 114.0365,196.67636 113.57523,198.74575 C 113.57523,198.74575 116.58302,202.5667 116.95373,204.54603 C 117.24125,206.0812 116.57378,209.21323 116.57378,209.21323 C 118.46518,212.57324 118.16774,213.96533 116.8038,216.36915 L 118.35562,223.29163 z M 106.39943,184.38745 L 111.96021,183.58125 M 113.05684,187.09476 L 106.31283,191.43087 M 113.03437,192.71716 L 107.50447,197.00988 M 107.34426,215.42923 C 108.36935,217.17878 111.13729,218.2503 112.74714,218.22789 C 114.05687,218.20966 115.67195,217.54455 116.72765,216.3052 M 107.91703,207.32333 C 108.90021,206.20359 110.14233,205.8757 111.66868,205.65195 C 111.57073,207.90421 111.43028,208.14361 110.20515,209.75095 C 109.25906,210.53809 109.11302,211.89153 109.70441,212.73508 C 110.52962,213.9121 112.79405,214.10264 114.07356,213.44752 C 115.40874,212.76391 116.66146,209.16934 116.66146,209.16934 M 111.70362,205.49204 C 110.25146,202.87261 109.45385,200.28649 113.51486,198.50054 M 117.28136,219.87499 C 113.73348,221.79595 110.76247,221.59733 108.12341,220.1789 M 118.09632,223.18542 C 114.51785,225.32052 111.9399,224.83405 108.40172,223.68646 M 100.99156,235.84409 C 107.60184,231.62097 112.80646,228.7639 121.33465,227.34188 M 119.50326,224.75834 C 113.99136,225.40673 107.95611,226.60129 104.1312,229.92189 M 123.57552,230.46829 C 116.51591,231.69816 112.31718,233.28544 107.82872,237.47117 M 126.1632,233.50932 C 120.41939,234.52295 113.83639,237.62009 109.89885,239.904 M 114.41477,224.63175 C 117.28512,225.86616 120.48997,228.05522 123.57552,230.46829 M 108.48462,223.70088 C 113.31743,227.01715 120.16391,231.51426 126.63009,236.15292 M 106.1772,227.02747 C 110.54578,229.41089 117.51764,234.61639 120.5186,237.47355 M 104.23925,229.98724 C 108.7859,232.56528 113.6493,236.24091 118.04044,240.10655 M 101.86382,234.15813 C 105.05483,234.10775 109.40359,238.56286 110.1077,239.771"
       id="006"
       sodipodi:nodetypes="cccccccccccscsssssssccccsccccccccccsccccssccccccccccccccccccccccccc" />
    <g
       id="g3393"
       transform="matrix(1.0354302,0,0,1.0383744,0.7310318,-2.2510509)">
      <path
         sodipodi:nodetypes="cccccccc"
         id="path3391"
         d="M 69,-6 C 71.44771,1.1683475 71.287974,8.7903505 59.678571,12.25 C 62.757871,22.249436 58.505689,27.828977 49.214286,30.214286 C 49.064938,37.494327 47.14905,43.954151 33.839286,45.589286 C 30.628675,54.448568 25.094472,58.379774 15.178571,56.75 C 11.04156,67.719549 3.8506761,72.28521 -6,69 L -5,-5.714286 L 69,-6 z"
         style="opacity:1;fill:#ffffff;fill-opacity:1;fill-rule:evenodd;stroke:#000000;stroke-width:1;stroke-linecap:butt;stroke-linejoin:miter;marker:none;marker-start:none;marker-mid:none;marker-end:none;stroke-miterlimit:4;stroke-dasharray:none;stroke-dashoffset:0;stroke-opacity:1;visibility:visible;display:inline;overflow:visible;enable-background:accumulate" />
      <path
         sodipodi:nodetypes="cc"
         id="path3383"
         d="M -3,12 C 6.8711044,13.189494 12.567849,9.0961445 12,-3.0000003"
         style="opacity:1;fill:none;fill-opacity:1;fill-rule:evenodd;stroke:#000000;stroke-width:1;stroke-linecap:butt;stroke-linejoin:miter;marker:none;marker-start:none;marker-mid:none;marker-end:none;stroke-miterlimit:4;stroke-dasharray:none;stroke-dashoffset:0;stroke-opacity:1;visibility:visible;display:inline;overflow:visible;enable-background:accumulate" />
      <path
         sodipodi:nodetypes="cccc"
         id="path3385"
         d="M -4,26 C 2.4844712,27.862524 6.057598,24.484628 7.785714,17.785714 C 16.474146,18.141494 17.534707,13.412027 17.785714,8.142857 C 25.657489,6.947282 26.619252,1.9128119 26,-4.0000003"
         style="opacity:1;fill:none;fill-opacity:1;fill-rule:evenodd;stroke:#000000;stroke-width:1;stroke-linecap:butt;stroke-linejoin:miter;marker:none;marker-start:none;marker-mid:none;marker-end:none;stroke-miterlimit:4;stroke-dasharray:none;stroke-dashoffset:0;stroke-opacity:1;visibility:visible;display:inline;overflow:visible;enable-background:accumulate" />
      <path
         sodipodi:nodetypes="ccccc"
         id="path3387"
         d="M -4,41 C 3.7057152,42.766906 7.747774,39.038328 9.75,32.25 C 23.246224,33.31877 20.798741,27.028906 22.785714,22.785714 C 31.097325,19.987531 33.44795,15.401052 32.25,9.75 C 40.557679,8.069519 45.031605,4.3247104 41,-4"
         style="opacity:1;fill:none;fill-opacity:1;fill-rule:evenodd;stroke:#000000;stroke-width:1;stroke-linecap:butt;stroke-linejoin:miter;marker:none;marker-start:none;marker-mid:none;marker-end:none;stroke-miterlimit:4;stroke-dasharray:none;stroke-dashoffset:0;stroke-opacity:1;visibility:visible;display:inline;overflow:visible;enable-background:accumulate" />
      <path
         sodipodi:nodetypes="cccccc"
         id="path3389"
         d="M -4,56 C 3.8980142,56.537497 8.959122,52.819636 11.142857,44.785714 C 22.856101,46.025406 22.394669,40.624365 24.142857,36.428571 C 32.169435,35.390734 36.186895,31.680152 35.642857,24.928571 C 46.346805,23.205852 47.742687,17.187101 46.142857,9.785714 C 56.841894,8.279361 56.464188,2.1576976 56,-4"
         style="opacity:1;fill:none;fill-opacity:1;fill-rule:evenodd;stroke:#000000;stroke-width:1;stroke-linecap:butt;stroke-linejoin:miter;marker:none;marker-start:none;marker-mid:none;marker-end:none;stroke-miterlimit:4;stroke-dasharray:none;stroke-dashoffset:0;stroke-opacity:1;visibility:visible;display:inline;overflow:visible;enable-background:accumulate" />
    </g>
    <g
       id="g3400"
       transform="matrix(-1.0354302,0,0,1.0383744,199.2691,-2.2510509)">
      <path
         sodipodi:nodetypes="cccccccc"
         id="path3402"
         d="M 69,-6 C 71.44771,1.1683475 71.287974,8.7903505 59.678571,12.25 C 62.757871,22.249436 58.505689,27.828977 49.214286,30.214286 C 49.064938,37.494327 47.14905,43.954151 33.839286,45.589286 C 30.628675,54.448568 25.094472,58.379774 15.178571,56.75 C 11.04156,67.719549 3.8506761,72.28521 -6,69 L -5,-5.714286 L 69,-6 z"
         style="opacity:1;fill:#ffffff;fill-opacity:1;fill-rule:evenodd;stroke:#000000;stroke-width:1;stroke-linecap:butt;stroke-linejoin:miter;marker:none;marker-start:none;marker-mid:none;marker-end:none;stroke-miterlimit:4;stroke-dasharray:none;stroke-dashoffset:0;stroke-opacity:1;visibility:visible;display:inline;overflow:visible;enable-background:accumulate" />
      <path
         sodipodi:nodetypes="cc"
         id="path3404"
         d="M -3,12 C 6.8711044,13.189494 12.567849,9.0961445 12,-3.0000003"
         style="opacity:1;fill:none;fill-opacity:1;fill-rule:evenodd;stroke:#000000;stroke-width:1;stroke-linecap:butt;stroke-linejoin:miter;marker:none;marker-start:none;marker-mid:none;marker-end:none;stroke-miterlimit:4;stroke-dasharray:none;stroke-dashoffset:0;stroke-opacity:1;visibility:visible;display:inline;overflow:visible;enable-background:accumulate" />
      <path
         sodipodi:nodetypes="cccc"
         id="path3406"
         d="M -4,26 C 2.4844712,27.862524 6.057598,24.484628 7.785714,17.785714 C 16.474146,18.141494 17.534707,13.412027 17.785714,8.142857 C 25.657489,6.947282 26.619252,1.9128119 26,-4.0000003"
         style="opacity:1;fill:none;fill-opacity:1;fill-rule:evenodd;stroke:#000000;stroke-width:1;stroke-linecap:butt;stroke-linejoin:miter;marker:none;marker-start:none;marker-mid:none;marker-end:none;stroke-miterlimit:4;stroke-dasharray:none;stroke-dashoffset:0;stroke-opacity:1;visibility:visible;display:inline;overflow:visible;enable-background:accumulate" />
      <path
         sodipodi:nodetypes="ccccc"
         id="path3408"
         d="M -4,41 C 3.7057152,42.766906 7.747774,39.038328 9.75,32.25 C 23.246224,33.31877 20.798741,27.028906 22.785714,22.785714 C 31.097325,19.987531 33.44795,15.401052 32.25,9.75 C 40.557679,8.069519 45.031605,4.3247104 41,-4"
         style="opacity:1;fill:none;fill-opacity:1;fill-rule:evenodd;stroke:#000000;stroke-width:1;stroke-linecap:butt;stroke-linejoin:miter;marker:none;marker-start:none;marker-mid:none;marker-end:none;stroke-miterlimit:4;stroke-dasharray:none;stroke-dashoffset:0;stroke-opacity:1;visibility:visible;display:inline;overflow:visible;enable-background:accumulate" />
      <path
         sodipodi:nodetypes="cccccc"
         id="path3410"
         d="M -4,56 C 3.8980142,56.537497 8.959122,52.819636 11.142857,44.785714 C 22.856101,46.025406 22.394669,40.624365 24.142857,36.428571 C 32.169435,35.390734 36.186895,31.680152 35.642857,24.928571 C 46.346805,23.205852 47.742687,17.187101 46.142857,9.785714 C 56.841894,8.279361 56.464188,2.1576976 56,-4"
         style="opacity:1;fill:none;fill-opacity:1;fill-rule:evenodd;stroke:#000000;stroke-width:1;stroke-linecap:butt;stroke-linejoin:miter;marker:none;marker-start:none;marker-mid:none;marker-end:none;stroke-miterlimit:4;stroke-dasharray:none;stroke-dashoffset:0;stroke-opacity:1;visibility:visible;display:inline;overflow:visible;enable-background:accumulate" />
    </g>
    <path
       style="opacity:1;fill:#ff0000;fill-opacity:1;fill-rule:evenodd;stroke:#ffffff;stroke-width:1;stroke-linecap:butt;stroke-linejoin:miter;marker:none;marker-start:none;marker-mid:none;marker-end:none;stroke-miterlimit:4;stroke-dasharray:none;stroke-dashoffset:0;stroke-opacity:1;visibility:visible;display:inline;overflow:visible;enable-background:accumulate"
       d="M 93.33333,45 L 100,51.66667 L 106.66667,45 L 106.66667,58.33333 L 120,58.33333 L 113.33333,65 L 120,71.66667 L 106.66667,71.66667 L 106.66667,85 L 100,78.33333 L 93.33333,85 L 93.33333,71.66667 L 80,71.66667 L 86.66667,65 L 80,58.33333 L 93.33333,58.33333 L 93.33333,45 z"
       id="path3414"
       sodipodi:nodetypes="ccccccccccccccccc" />
  </g>
</svg>
