<?xml version="1.0" encoding="UTF-8" standalone="no"?>
<svg xmlns="http://www.w3.org/2000/svg" xmlns:xlink="http://www.w3.org/1999/xlink" width="213.64362" height="258.66138" version="1.0">
  <defs>
    <path id="a" fill="#ff0" stroke="#000" stroke-width="1.00111" d="M130.39620983 115.92628076c0 6.74264594-3.8682432 12.20863829-8.63995679 12.20863829-4.7717236 0-8.6399668-5.46599235-8.6399668-12.2086383 0-6.74264594 3.8682432-12.20863828 8.6399668-12.20863828 4.7717136 0 8.6399568 5.46599234 8.6399568 12.20863829z"/>
  </defs>
  <path fill="red" stroke="#000" stroke-linecap="round" stroke-linejoin="round" stroke-opacity=".94117647" stroke-width="1.52600002" d="M.76300001.76300001V228.90389c0 8.00248 6.49476999 14.49725 14.49724999 14.49725h77.06431c8.0025 0 14.49725 6.49477 14.49725 14.49725.00001-8.00248 6.49476-14.49725 14.49724-14.49725h77.06432c8.00248 0 14.49726-6.49477 14.49725-14.49725V.76300001H.76300001z"/>
  <path fill="#2a7fff" stroke="#000" stroke-linejoin="round" d="M212.888.77614001 106.8255 122.08864 208.763 238.99489c1.79256-1.8422 3.10389-4.13459 3.71875-6.71875L212.888.77614001z"/>
  <path fill="#0a0" stroke="#000" stroke-linejoin="round" d="M.50292001.77614001 106.56541 122.08864 4.62792 238.99489c-1.79256-1.8422-3.10389-4.13459-3.71874999-6.71875L.50292001.77614001z"/>
  <path fill="#ff0" d="m105.25679 104.46729 15.68526-.18709v23.57504l-15.7792.28063z"/>
  <path fill="#ff0" stroke="#000" stroke-width="1.00111" d="M108.19460622 126.95408154c-4.31019256 2.8929633-9.4639792.30085312-11.51130615-5.7896307-2.04732695-6.09049384-.21291576-13.37301758 4.0972768-16.26598088 1.62573012-1.09116822 3.45204235-1.43770192 5.22389427-.99119752"/>
  <path fill="#ff0" stroke="#000" stroke-width="1.00110853" d="M96.41443 49.84792c-69.07369 2.31828-56.7146 161.93165 22.22731 128.33288l.0453-5.29466c-45.70494-7.48438-44.24304-110.43152.47349-113.55895V53.8351c-7.76211-2.96855-16.3851-4.20066-22.74615-3.98718z"/>
  <path fill="none" stroke="#000" stroke-width="1.00111" d="M115.95162535 178.71515516c-23.0341751 11.1965176-47.73610688-7.8384493-55.1733119-42.51578657-7.43721502-34.67734728 5.20663517-71.86545465 28.24081028-83.06197224 8.68057176-4.21947211 18.01935234-4.25619277 26.71445018-.1050363"/>
  <path fill="none" stroke="#000" stroke-width="1.00111" d="M114.5488839 177.96412445c-23.75075856 4.2502562-45.38347187-20.19045634-48.31802121-54.58985585-2.93454935-34.3993995 13.94031573-65.73114229 37.69106428-69.98139848 4.2205533-.7552763 8.49486613-.60658165 12.68550631.44130865"/>
  <path fill="none" stroke="#000" stroke-width="1.00110853" d="M119.13075 53.50419c-57.88411 6.91614-57.96351 115.75435-.49561 125.58848"/>
  <path fill="#ff0" stroke="#000" stroke-width="1.00110853" d="M119.12706 53.50823c-.2126.0248-.41481.0659-.62568.0939.21686.0797.44143.13642.65697.21898v5.50609c-5.03479.3522-9.51987 1.96327-13.45238 4.56757 15.34823 2.94945 27.43969 23.68279 27.90588 49.39845.50439 27.82158-12.81547 51.05707-29.9081 52.62077 4.2615 3.56789 9.24194 6.03598 14.98532 6.97648l-.0627 5.28708c-.51091.21756-.99631.42435-1.50166.62571.49585.10134.99684.19524 1.50166.28169 49.14021 1.16781 66.33694-121.51651.50056-125.57654z"/>
  <path fill="none" stroke="#000" stroke-width="1.00110853" d="M118.76805 172.89358c42.94531-2.54916 51.14807-110.12609.38063-113.58166"/>
  <path fill="#ff0" stroke="#000" stroke-width="1.00110853" d="M122.5567 59.64378c-3.00232-.46109-.78102-.0319-3.39835-.31641-4.03019.28169-7.68756 1.39914-11.01217 3.15974l1.12624 46.01969c1.57928-2.907 4.05733-4.78655 6.85133-4.78655.87067 0 1.71025.16193 2.50275.50057z"/>
  <path fill="#ff0" stroke="#000" stroke-width="1.00110853" d="M93.72392 77.47229c-2.94225 5.29235-5.14619 11.41979-6.60104 17.98866l16.12067 13.84405 6.0452.0354 4.20708-5.05705z"/>
  <path fill="none" stroke="#000" stroke-width="1.00110853" d="m113.83152 60.15997-.23102 44.15974M88.37084 90.89579l20.45601 18.36099"/>
  <path fill="#ff0" stroke="#000" stroke-width="1.00110853" d="M85.18324 109.69544c-.22783 3.89424-.21437 7.82833.0319 11.73175l22.46244-2.94077c-.12472-.82534-.18779-1.68743-.18779-2.56532 0-1.24281.1311-2.43662.37541-3.56644l-22.68134-2.65922zm26.07329 18.3932-2.6724 41.23534c1.4192.80239 2.89336 1.49322 4.44242 2.06479l.68829.0627 10.44907-2.15865-3.87932-42.67226-5.15204 1.50165z"/>
  <use xlink:href="#a" stroke-width="1.00111"/>
  <path fill="#ff0" stroke="#000" stroke-width="1.00110853" d="m103.53105 121.1135-16.06404 15.61188c1.27874 5.33137 3.06361 10.39649 5.34969 14.95407l18.89592-25.27799-3.44133-5.44355-.37541.2817z"/>
  <path fill="none" stroke="#000" stroke-width="1.00110853" d="m108.09976 121.40033-19.31017 20.71261m26.21437-14.13205-1.18665 43.47485"/>
  <path fill="#ff0" stroke="#000" stroke-width="1.00110853" d="M128.23092 123.96126c-1.58347 2.54597-3.88875 4.16083-6.47593 4.16083-.49029 0-.97111-.0769-1.43911-.1878l12.92056 20.20989 7.88372-.31287c2.08279-3.37837 3.62615-6.64887 4.63014-11.10604z"/>
  <path fill="none" stroke="#000" stroke-width="1.00110853" d="m141.00259 147.93835-16.18172-20.60472"/>
  <path fill="#ff0" stroke="#000" stroke-width="1.00110853" d="m136.45876 108.22507-6.56979 3.25361v.31287c.32882 1.29143.50056 2.67804.50056 4.12959 0 1.17212-.0946 2.30577-.31287 3.37872l18.05124 4.16087c.67854-4.50103.92558-9.10995.0939-14.79763z"/>
  <path fill="none" stroke="#000" stroke-width="1.00110853" d="m148.12255 109.10222-18.12352 3.56"/>
  <path fill="#ff0" stroke="#000" stroke-width="1.00110853" d="m131.73479 75.65776-11.35634 28.21875c.44756-.10098.90882-.15626 1.37654-.15626 2.35166 0 4.48002 1.31882 6.03794 3.47262l17.20655-21.49256c-.68684-3.34747-2.45243-7.88156-5.94408-10.04237z"/>
  <use xlink:href="#a" stroke-width="1.00111"/>
  <path fill="none" stroke="#000" stroke-width="1.00110853" d="m139.16864 75.76792-15.42656 28.26404"/>
  <path fill="none" stroke="#000" stroke-width="1.00111" d="M125.70058049 115.92628076c0 3.11198581-1.76593537 5.63475921-3.94432745 5.63475921-2.17839207 0-3.94432744-2.5227734-3.94432744-5.63475921 0-3.11199583 1.76593537-5.63475922 3.94432744-5.63475922 2.17839208 0 3.94432745 2.52276339 3.94432745 5.63475922z"/>
</svg>