<?xml version="1.0" encoding="UTF-8" standalone="no"?>
<!-- Created with Inkscape (http://www.inkscape.org/) -->
<svg
   xmlns:dc="http://purl.org/dc/elements/1.1/"
   xmlns:cc="http://creativecommons.org/ns#"
   xmlns:rdf="http://www.w3.org/1999/02/22-rdf-syntax-ns#"
   xmlns:svg="http://www.w3.org/2000/svg"
   xmlns="http://www.w3.org/2000/svg"
   xmlns:sodipodi="http://sodipodi.sourceforge.net/DTD/sodipodi-0.dtd"
   xmlns:inkscape="http://www.inkscape.org/namespaces/inkscape"
   version="1.0"
   width="210"
   height="300"
   viewBox="0 0 2100 2970"
   id="svg2610"
   xml:space="preserve"
   style="fill-rule:evenodd"
   sodipodi:version="0.32"
   inkscape:version="0.46"
   sodipodi:docname="Coat_of_Arms_of_Igra_Rayon_(Udmurtia).svg"
   inkscape:output_extension="org.inkscape.output.svg.inkscape"><metadata
     id="metadata17"><rdf:RDF><cc:Work
         rdf:about=""><dc:format>image/svg+xml</dc:format><dc:type
           rdf:resource="http://purl.org/dc/dcmitype/StillImage" /></cc:Work></rdf:RDF></metadata><sodipodi:namedview
     inkscape:window-height="750"
     inkscape:window-width="1280"
     inkscape:pageshadow="2"
     inkscape:pageopacity="0.0"
     guidetolerance="10.0"
     gridtolerance="10.0"
     objecttolerance="10.0"
     borderopacity="1.0"
     bordercolor="#666666"
     pagecolor="#ffffff"
     id="base"
     showgrid="false"
     inkscape:zoom="1.2822203"
     inkscape:cx="119.99131"
     inkscape:cy="100.45356"
     inkscape:window-x="-8"
     inkscape:window-y="-8"
     inkscape:current-layer="svg2610" /><defs
     id="defs2612"><inkscape:perspective
       sodipodi:type="inkscape:persp3d"
       inkscape:vp_x="0 : 150 : 1"
       inkscape:vp_y="0 : 1000 : 0"
       inkscape:vp_z="600 : 150 : 1"
       inkscape:persp3d-origin="300 : 100 : 1"
       id="perspective19" /><inkscape:perspective
       sodipodi:type="inkscape:persp3d"
       inkscape:vp_x="0 : 526.18109 : 1"
       inkscape:vp_y="0 : 1000 : 0"
       inkscape:vp_z="744.09448 : 526.18109 : 1"
       inkscape:persp3d-origin="372.04724 : 350.78739 : 1"
       id="perspective2468" /><inkscape:perspective
       id="perspective10"
       inkscape:persp3d-origin="372.04724 : 350.78739 : 1"
       inkscape:vp_z="744.09448 : 526.18109 : 1"
       inkscape:vp_y="0 : 1000 : 0"
       inkscape:vp_x="0 : 526.18109 : 1"
       sodipodi:type="inkscape:persp3d" /></defs><rect
     style="fill:#00a13a;fill-opacity:1;fill-rule:evenodd;stroke:none;stroke-width:1;stroke-miterlimit:4;stroke-dasharray:none;stroke-dashoffset:0;stroke-opacity:1"
     id="rect3246"
     width="2099.9998"
     height="1300"
     x="0.00012330334"
     y="-15" /><path
     style="fill:#da251d;fill-opacity:1;fill-rule:evenodd;stroke:none;stroke-width:4;stroke-linecap:butt;stroke-linejoin:miter;marker:none;marker-start:none;marker-mid:none;marker-end:none;stroke-miterlimit:4;stroke-dasharray:none;stroke-dashoffset:0;stroke-opacity:1;visibility:visible;display:inline;overflow:visible;enable-background:accumulate"
     d="M -1.4210855e-14,1285 L 2099.9996,1285 L 2099.9996,2304.9999 C 2099.9996,2465.2775 1981.0658,2644.9999 1874.9997,2644.9999 L 1274.9997,2644.9999 C 1168.9338,2644.9999 1085.3818,2906.4693 1049.9998,2985 C 1019.35,2903.502 931.0659,2644.9999 824.99985,2644.9999 L 224.99999,2644.9999 C 118.93403,2644.9999 -1.4210855e-14,2465.2775 -1.4210855e-14,2304.9999 L -1.4210855e-14,1285 z"
     id="path2474"
     sodipodi:nodetypes="cczzscsssc" /><path
     style="fill:#ffffff;fill-rule:nonzero;stroke:none;stroke-width:15.43835068;stroke-linejoin:round;stroke-miterlimit:4;stroke-dasharray:none;stroke-opacity:1"
     id="_65405504"
     d="M 1569.9525,763.27323 C 1568.9423,764.28334 1567.9323,765.29345 1565.912,765.29345 L 1462.9481,765.29345 L 1510.3941,812.73974 C 1512.4113,813.74699 1512.4113,814.7571 1512.4113,816.7773 C 1512.4113,818.79465 1512.4113,819.80477 1510.3941,820.81486 L 1462.9481,869.26841 L 1565.912,869.26841 C 1567.9323,869.26841 1568.9423,870.27852 1569.9525,871.2886 C 1570.9596,872.29872 1571.9698,874.31606 1571.9698,875.32618 L 1571.9698,977.28093 L 1619.4155,929.83749 C 1619.4155,927.81727 1621.4331,927.81727 1623.4532,927.81727 C 1624.4603,927.81727 1626.4806,927.81727 1627.4906,929.83749 L 1674.9338,977.28093 L 1674.9338,875.32618 C 1674.9338,874.31606 1675.9438,872.29872 1676.9539,871.2886 C 1678.9741,870.27852 1679.9813,869.26841 1682.0014,869.26841 L 1782.9481,869.26841 L 1736.5123,820.81486 C 1735.5021,819.80477 1734.4921,818.79465 1734.4921,816.7773 C 1734.4921,815.76719 1735.5021,814.7571 1736.5123,812.73974 L 1782.9481,765.29345 L 1682.0014,765.29345 C 1679.9813,765.29345 1678.9741,764.28334 1676.9539,763.27323 C 1675.9438,762.26598 1674.9338,760.24579 1674.9338,759.23569 L 1674.9338,657.28093 L 1627.4906,704.72437 C 1626.4806,705.73448 1624.4603,706.74457 1623.4532,706.74457 C 1621.4331,706.74457 1619.4155,705.73448 1619.4155,704.72437 L 1571.9698,657.28093 L 1571.9698,759.23569 C 1571.9698,760.24579 1570.9596,762.26598 1569.9525,763.27323 z" /><path
     style="fill:#ffffff;fill-rule:nonzero;stroke:none;stroke-width:15.39221573;stroke-linejoin:round;stroke-miterlimit:4;stroke-dasharray:none;stroke-opacity:1"
     id="_65405408"
     d="M 1046.2848,296.28504 C 1045.2808,296.28504 1043.267,296.28504 1042.2599,294.27118 L 994.96544,246.97703 L 994.96544,348.61097 C 994.96544,349.61789 994.96544,351.6289 993.95846,351.6289 C 991.94459,353.64275 990.94048,353.64275 989.93359,353.64275 L 886.28487,353.64275 L 934.58638,401.94383 C 935.59331,402.95073 936.60024,403.95767 936.60024,405.97154 C 936.60024,406.97561 935.59331,408.98947 934.58638,409.99639 L 886.28487,458.29745 L 989.93359,458.29745 C 990.94048,458.29745 991.94459,459.3044 993.95846,459.3044 C 994.96544,461.31539 994.96544,462.32232 994.96544,464.33616 L 994.96544,565.97011 L 1042.2599,517.66904 C 1043.267,516.66209 1045.2808,515.65518 1046.2848,515.65518 C 1047.2889,515.65518 1049.3028,516.66209 1050.3098,517.66904 L 1098.6112,565.97011 L 1098.6112,464.33616 C 1098.6112,462.32232 1099.6181,461.31539 1100.6223,459.3044 C 1101.6293,459.3044 1102.6362,458.29745 1104.65,458.29745 L 1206.2849,458.29745 L 1159.9944,409.99639 C 1157.9834,408.98947 1157.9834,406.97561 1157.9834,405.97154 C 1157.9834,403.95767 1157.9834,402.95073 1159.9944,401.94383 L 1206.2849,353.64275 L 1104.65,353.64275 C 1102.6362,353.64275 1101.6293,353.64275 1100.6223,351.6289 C 1099.6181,351.6289 1098.6112,349.61789 1098.6112,348.61097 L 1098.6112,245.97011 L 1050.3098,294.27118 C 1049.3028,296.28504 1047.2889,296.28504 1046.2848,296.28504 z" /><path
     style="fill:#ffffff;fill-rule:nonzero;stroke:none;stroke-width:15.39208984;stroke-linejoin:round;stroke-miterlimit:4;stroke-dasharray:none;stroke-opacity:1"
     id="_65405360"
     d="M 521.03027,763.29622 C 520.02335,762.28897 520.02335,760.26876 520.02335,759.25866 L 520.02335,657.30391 L 471.72227,704.74734 C 470.71534,705.75746 469.70842,706.76756 467.6974,706.76756 C 465.68356,706.76756 464.67664,705.75746 463.67257,704.74734 L 416.37556,657.30391 L 416.37556,759.25866 C 416.37556,760.26876 416.37556,762.28897 415.36863,763.29622 C 413.35764,764.30632 411.34378,765.31642 410.33686,765.31642 L 307.69599,765.31642 L 354.993,812.76273 C 357.004,813.76997 358.01092,814.78008 358.01092,816.80029 C 358.01092,818.81764 357.004,819.82775 354.993,820.83784 L 307.69599,869.29138 L 410.33686,869.29138 C 411.34378,869.29138 413.35764,870.3015 415.36863,871.31158 C 416.37556,872.32171 416.37556,874.33906 416.37556,875.34917 L 416.37556,977.30391 L 463.67257,929.86048 C 464.67664,927.84026 465.68356,927.84026 467.6974,927.84026 C 469.70842,927.84026 470.71534,927.84026 471.72227,929.86048 L 520.02335,977.30391 L 520.02335,875.34917 C 520.02335,874.33906 520.02335,872.32171 521.03027,871.31158 C 523.04127,870.3015 525.05513,869.29138 526.06205,869.29138 L 627.69599,869.29138 L 580.40183,820.83784 C 579.3949,819.82775 579.3949,818.81764 579.3949,816.80029 C 579.3949,815.79018 579.3949,814.78008 580.40183,812.76273 L 627.69599,765.31642 L 526.06205,765.31642 C 525.05513,765.31642 523.04127,764.30632 521.03027,763.29622 z" /><g
     style="fill-rule:evenodd"
     id="g3178"
     transform="matrix(0,-0.7806395,0.7435721,0,-170.73793,2779.9682)"><path
       style="fill:#ffe708;fill-rule:nonzero"
       id="_65404760"
       d="M 1059.8992,1422.6144 L 1043.0727,1422.6144 C 1030.2031,1422.6144 1023.2716,1427.5647 1023.2716,1436.4747 L 1020.3026,1522.3874 L 991.59431,1503.5767 C 981.79111,1497.9665 978.51078,1502.0506 969.81196,1506.5457 C 962.88325,1513.4773 961.89264,1521.3967 966.84292,1530.3068 L 1019.3119,1590.6986 L 1018.3241,1652.0782 L 966.84292,1612.4784 C 957.93298,1606.5374 950.01365,1606.5374 942.09433,1614.4568 C 935.16282,1620.3978 932.19377,1629.3078 935.16282,1638.2178 L 1016.3429,1736.2283 L 1016.0952,1789.6555 L 946.03796,1729.2708 C 946.03796,1727.6947 928.04475,1725.439 922.18674,1735.1151 C 916.48756,1744.5288 921.77242,1762.6918 924.56051,1762.6918 L 1015.5999,1877.0714 L 1015.3523,1930.7023 L 941.92607,1871.5833 C 934.00394,1865.6423 918.59175,1862.056 911.55503,1869.3492 C 904.62632,1877.2686 903.63571,1890.7527 907.59537,1896.6936 L 1014.3617,2021.7811 L 1011.3926,2092.2423 C 1011.5263,2113.3902 1019.4448,2115.7941 1035.1534,2116.0033 L 1063.8588,2116.0033 C 1080.6909,2116.0033 1088.6102,2108.0839 1088.6102,2091.2517 L 1085.6412,2021.7811 L 1190.9004,1898.6602 C 1193.8695,1892.7193 1198.4985,1881.2018 1191.5698,1873.2824 C 1182.6599,1861.4005 1170.3698,1864.3312 1162.4476,1870.2722 L 1085.6412,1930.7023 L 1085.1459,1870.3471 L 1184.491,1758.7586 C 1185.7139,1759.7215 1191.6882,1742.1954 1182.6822,1731.1819 C 1176.6788,1723.8404 1160.2682,1727.2535 1160.2682,1729.1709 L 1084.1552,1789.6555 L 1083.6599,1736.2283 L 1164.84,1638.2178 C 1167.8091,1629.3078 1165.8306,1620.3978 1157.9085,1613.4662 C 1149.9892,1606.5374 1142.0699,1606.5374 1133.1599,1612.4784 L 1082.6693,1651.0876 L 1080.6909,1590.6986 L 1133.1599,1530.3068 C 1138.1102,1521.3967 1135.9719,1513.9309 1130.1909,1506.5457 C 1124.0407,1498.6888 1114.6198,1497.0634 1108.4085,1503.5767 L 1079.7003,1522.3874 L 1077.719,1436.4747 C 1075.2369,1425.3291 1068.784,1426.1687 1059.8992,1422.6144 z"
       sodipodi:nodetypes="cccccccccccccccsccccccccccccccccccsccccsccccssccc" /><path
       style="fill:#000000;fill-opacity:1;fill-rule:evenodd;stroke:#ffffff;stroke-width:63.57274628;stroke-linejoin:round;stroke-miterlimit:4;stroke-dasharray:none;stroke-opacity:1"
       id="_65405288"
       d="M 1242.9042,1484.5545 L 1050.3784,1279.5547 L 857.85296,1484.5545 L 857.85296,2031.2213 L 1050.3784,2236.2213 L 1242.9042,2031.2213 L 1242.9042,1484.5545 z M 1435.4299,1142.8882 L 1307.0794,1279.5547 L 1178.7289,1142.8882 L 1307.0794,1006.2217 L 1050.3784,732.88837 L 793.67781,1006.2217 L 922.0281,1142.8882 L 793.67781,1279.5547 L 665.32752,1142.8882 L 536.97724,1279.5547 L 665.32752,1416.2212 L 665.32752,2099.5546 L 536.97724,2236.2213 L 665.32752,2372.888 L 793.67781,2236.2213 L 960.53319,2413.888 L 960.53319,2550.5547 L 1140.2238,2550.5547 L 1140.2238,2413.888 L 1307.0794,2236.2213 L 1435.4299,2372.888 L 1563.7803,2236.2213 L 1435.4299,2099.5546 L 1435.4299,1416.2212 L 1563.7803,1279.5547 L 1435.4299,1142.8882 z"
       sodipodi:nodetypes="ccccccccccccccccccccccccccccccccc" /></g><path
     style="opacity:1;fill:#ffffff;fill-opacity:1;fill-rule:evenodd;stroke:none;stroke-width:2.00000118999999990;stroke-linecap:butt;stroke-linejoin:miter;marker:none;marker-start:none;marker-mid:none;marker-end:none;stroke-miterlimit:4;stroke-dasharray:none;stroke-dashoffset:0;stroke-opacity:1;visibility:visible;display:inline;overflow:visible;enable-background:accumulate"
     d="M 0,1285 L 300,1365 L 250,1315 L 1750,1315 L 1800,1365 L 2100,1365 L 2100,1205 L 1800,1205 L 1750,1255 L 250,1255 L 300,1205 L 0,1285 z"
     id="path3328"
     sodipodi:nodetypes="cccccccccccc" /></svg>