<?xml version="1.0" encoding="UTF-8"?>
<!DOCTYPE svg PUBLIC "-//W3C//DTD SVG 1.1//EN" "http://www.w3.org/Graphics/SVG/1.1/DTD/svg11.dtd">
<!-- Creator: CorelDRAW X6 -->
<svg xmlns="http://www.w3.org/2000/svg" xml:space="preserve" width="204.584mm" height="254.488mm" version="1.1" style="shape-rendering:geometricPrecision; text-rendering:geometricPrecision; image-rendering:optimizeQuality; fill-rule:evenodd; clip-rule:evenodd"
viewBox="0 0 204584 254488"
 xmlns:xlink="http://www.w3.org/1999/xlink">
 <defs>
  <style type="text/css">
   <![CDATA[
    .str2 {stroke:#C5C6C6;stroke-linejoin:round}
    .str1 {stroke:#FEFEFE;stroke-width:76.2}
    .str0 {stroke:#1F1A17;stroke-width:76.2}
    .str3 {stroke:#DC241C;stroke-width:76.2}
    .fil4 {fill:none}
    .fil3 {fill:#FEFEFE}
    .fil1 {fill:#00A651}
    .fil2 {fill:#1F1A17}
    .fil5 {fill:#DC241C}
    .fil0 {fill:#E6E7E8}
    .fil6 {fill:#2B2A29;fill-rule:nonzero}
   ]]>
  </style>
 </defs>
 <g id="Слой_x0020_1">
  <metadata id="CorelCorpID_0Corel-Layer"/>
  <g id="_337139856">
   <path class="fil0" d="M985 841l-7 164143c0,12066 -26,21240 50,29332 32582,-6775 68064,-10496 105187,-10496 34285,0 67170,3174 97664,8996 61,-7751 38,-16554 38,-27928l0 -164095 -202932 48z"/>
   <path class="fil1" d="M106215 183820c-37123,0 -72605,3720 -105187,10496 32,3370 81,6553 157,9679 219,9021 5980,23427 22286,30414 14977,6418 36389,882 56237,4915 10118,2056 17340,8377 22693,13890l93 0c5353,-5608 12576,-11930 22694,-13986 19848,-4033 41260,1503 56237,-4915 16307,-6987 22067,-21393 22286,-30414 87,-3557 138,-7187 169,-11083 -30494,-5822 -63379,-8996 -97664,-8996z"/>
   <path class="fil2 str0" d="M159052 146238c-1,-1323 2907,-11181 3034,-12686 127,-1505 279,-1677 421,-2735 433,224 787,398 1060,515 1193,509 4530,2828 5122,3153l1141 613c319,1098 550,2061 545,2622 -17,1752 643,4153 1226,4095 1009,-100 827,-3709 662,-5453 1512,765 3051,1498 3633,1626 392,86 1184,67 2140,-28 0,2 0,3 1,5 116,984 193,1977 363,2190 170,213 626,315 909,192 283,-123 1180,-397 909,-1176 -191,-548 -531,-217 -749,-639 -49,-95 -87,-361 -107,-737 1763,-260 3697,-698 4697,-1180 2810,-1353 5585,2173 6786,3040 1201,868 3462,1660 3562,2027 -471,232 -2861,225 -3153,534 -292,309 3395,4133 3153,5256 -523,217 -2703,-1611 -3345,-1793 -642,-183 -1101,401 -1068,751 34,350 968,2736 734,3353 -542,58 -1352,-1635 -2152,-1919 -801,-284 -5989,-17 -6656,-350 -668,-334 -1602,-1135 -2169,-1368 -567,-233 -3855,-334 -4723,-334 -868,0 -5239,632 -6757,667l-9467 221 248 -463z"/>
   <path class="fil3 str1" d="M71576 146379c968,2336 2736,3337 5939,4671 2066,860 9894,2219 14549,2402 4655,183 10621,612 14858,1480 4238,868 6179,2835 8515,4504 -361,-109 -3270,-1613 -6407,-2197 -3136,-584 -6432,-409 -7851,-459 -1419,-49 -9084,42 -12988,-25 -3904,-67 -10603,-1009 -12880,-1835 -2277,-826 -4547,-2449 -5072,-2869 -481,-385 -3570,3470 -5639,5539 -2069,2069 -11058,8231 -14531,9960 -3987,1985 -9999,3201 -12043,3761 2311,-1673 4319,-2676 6654,-4245 2336,-1568 9334,-6681 12871,-10085 3537,-3404 4256,-4587 5799,-6849 1942,-2845 5422,-10994 5689,-11328 267,-334 1568,5239 2536,7575z"/>
   <path class="fil3 str1" d="M141083 72661c651,2253 1855,2720 1823,3821 -29,991 -700,1397 -1713,1284 -1243,-139 -1406,-1455 -1673,-2608 -619,-2674 -68,-5992 974,-7619 517,1302 -62,2870 589,5123z"/>
   <path class="fil2 str0" d="M154080 172059c267,-2970 -152,-23945 -435,-30464 -116,-2684 709,-2719 1301,-2711 592,8 1093,234 1151,1059 58,825 442,4163 24,4980 -417,818 -909,1476 -743,2110 167,634 1167,1568 1134,3470 -33,1902 -173,7089 317,8358 278,720 1560,1576 2294,1543 1157,-52 1918,-1235 1535,-2319 -139,-393 -997,-611 -1072,-1086 -100,-636 -103,-1429 -99,-2297 2978,2009 8586,5767 10110,6173 2002,534 5249,1329 6801,912 1552,-417 3434,-1087 5586,-1004 2152,84 4962,2246 5748,2811 786,566 3229,976 3312,1477 -425,275 -1702,617 -2769,984 -1068,367 -1710,1121 -1749,1689 -76,1091 3187,5737 2854,6754 -1285,434 -5594,-2420 -5861,-1753 -409,1021 464,5495 -12,6070 -534,300 -2441,-2817 -4042,-3234 -1199,-312 -6505,235 -7306,-165 -801,-401 -2096,-2396 -3389,-2705 -1293,-309 -5833,-446 -7150,-442 -854,2 -4723,-51 -7546,-171 1,-14 3,-28 4,-42z"/>
   <path class="fil2 str0" d="M115437 159436c-2336,-1669 -4278,-3636 -8515,-4504 -4238,-868 -10204,-1296 -14858,-1480 -4655,-183 -12483,-1542 -14549,-2402 -3203,-1334 -4972,-2335 -5939,-4671 -968,-2336 -2269,-7908 -2536,-7575 -267,334 -3747,8483 -5689,11328 -1543,2262 -2262,3445 -5799,6849 -3537,3404 -10536,8517 -12871,10085 -2336,1568 -4344,2572 -6654,4245 2044,-559 8056,-1775 12043,-3761 3473,-1729 12463,-7891 14531,-9960 2069,-2069 5158,-5924 5639,-5539 525,421 2795,2043 5072,2869 2278,826 8976,1768 12880,1835 3904,67 11569,-25 12988,25 1419,49 4714,-125 7851,459 3136,584 6045,2087 6407,2197zm28186 11992c-5349,-503 -7504,-682 -9108,-908 -1732,-244 -11013,-1235 -12831,-2753 -1819,-1518 -4205,-6340 -5974,-6774 -1768,-434 -15561,-1167 -18369,-1319 -2809,-152 -13415,-2369 -14115,-1268 -701,1101 5806,4538 7041,6139 1234,1602 2236,4238 1969,6240 -267,2002 -2053,4855 -3320,5923 -1268,1068 -4621,4521 -4413,5230 209,709 8186,768 11105,919 2920,150 6169,2542 7204,3543 1034,1001 2969,4071 2736,4705 -551,184 -4404,-1402 -6323,-1752 -1919,-350 -3771,-434 -5339,-434 -1568,0 -4147,19 -5115,1153 -637,746 -111,4859 -661,5193 -1068,-1134 -6493,-3764 -7755,-4360 -1262,-596 -11646,-5955 -11729,-6373 -83,-417 3030,-4628 2820,-5372 -445,-1578 -8568,-5314 -9761,-6807 -1193,-1493 -3554,-6674 -4947,-6715 -1393,-42 -5849,4011 -7334,4662 -1485,651 -7708,2803 -9443,3003 -1735,200 -5323,-594 -6565,-92 -648,262 -1198,1193 -1243,1994 -46,816 3335,2108 5384,2780 2440,800 6395,4560 7363,6229 968,1669 1894,3019 1894,3854 -1327,-275 -4813,-2085 -5914,-1618 -1101,467 -1045,7101 -2085,7324 -659,141 -5452,-5363 -7074,-6256 -517,-285 -1545,-925 -3128,-843 -2190,113 -4649,6290 -4916,6523 -278,-121 -594,-3102 -913,-4521 -284,-1267 -1237,-2360 -1721,-2694 -854,-589 -5628,-2096 -6215,-3062 -390,-643 -601,-3670 -1068,-4705 -467,-1034 -2043,-2894 -2119,-3887 -237,-3111 9230,-9877 10159,-11762 653,-1323 699,-2010 680,-3225 -27,-1743 -375,-3277 -671,-4324 -357,-1261 -1035,-4471 -317,-6090 718,-1618 11493,-16683 11195,-19336 -534,-4738 -6723,-7223 -10060,-11261 -3337,-4038 -6389,-10301 -7008,-12948 -993,-4247 -2625,-9995 -2637,-12280 -11,-2285 260,-20897 -457,-23841 -717,-2945 -3505,-6247 -4398,-7807 -892,-1560 -186,-2284 225,-2720 680,-720 1944,-1351 4813,-751 2870,601 7075,1612 10210,2719 3135,1107 6775,4154 8476,6924 1702,2769 3505,6740 3705,10310 200,3571 407,12572 401,16951 -6,4379 1235,9343 1985,12363 751,3020 1394,5598 2936,7891 1032,1534 2415,3542 2979,3545 9896,58 16637,-1834 26005,-2141 7186,-235 22990,1791 31232,668 4104,-923 8848,-7087 13047,-10144 3172,-2309 6555,-3821 9560,-6457 2649,-2323 4058,-9915 6757,-14431 2150,-3596 7106,-9033 7459,-10344 1112,-4126 -139,-14459 1886,-13614 3037,756 5879,3480 6657,3620 2055,370 5295,-790 11812,-801 6517,-11 8420,1718 9935,1193 1193,-413 5515,-3895 7967,-4190 1602,-22 -620,5645 450,8369 943,2400 2564,3162 3089,5328 429,1774 198,5038 -371,8222 -1213,39 -2446,104 -3671,177 0,601 53,1140 84,1372 8,64 1478,-338 3415,-642 -89,447 -185,890 -286,1324 -898,46 -1903,98 -3094,110 0,154 74,774 62,1251 289,-70 1425,-296 2807,-443 -119,445 -270,890 -446,1335 -623,11 -1343,33 -2197,59 0,154 24,710 12,1187 310,-55 845,-313 1848,-457 -1144,2506 -2950,4987 -4196,7307 -125,-95 -247,-183 -367,-262 -1079,-598 -1256,-1068 -2916,-1035 -1661,34 -1808,618 -2901,843 -1093,225 -744,125 -2262,158 -1518,33 -2953,-751 -3620,-1134 -668,-384 -837,-429 -1885,-434 -1049,-5 -3332,1446 -4305,2369 -1389,1318 -4892,6069 -5141,8609 -230,2344 122,13416 -351,15399 -868,3637 -695,10060 -784,13164 -83,2869 -3002,5497 -4105,8442 -1104,2945 -2505,9703 -2636,13447 -242,6927 525,11619 1000,14347 47,268 122,596 220,970zm-3128 -103889c-1043,1627 -1594,4945 -974,7619 267,1153 430,2469 1673,2608 1012,113 1683,-292 1713,-1284 33,-1101 -1172,-1568 -1823,-3821 -651,-2252 -72,-3821 -589,-5123zm15459 10779c0,1451 1177,2628 2628,2628 1451,0 2628,-1177 2628,-2628 0,-1451 -1177,-2628 -2628,-2628 -1451,0 -2628,1177 -2628,2628zm-3222 11211c3502,-67 4052,79 4537,166 -12,-477 12,-1033 12,-1187 -5004,32 -5134,-743 -8976,1731 1335,-446 3330,-688 4427,-709zm-175 -2467c3556,39 4653,171 5138,257 -12,-477 41,-800 41,-954 -5005,-302 -7249,-551 -11566,1514 1368,-179 3688,-847 6387,-817zm-1953 -2467c5959,136 7184,926 7198,823 32,-233 84,-771 84,-1372 -5005,-301 -9751,-517 -14102,847 1369,-179 653,-439 6820,-298zm19680 -6223c0,1451 1177,2628 2628,2628 1451,0 2628,-1177 2628,-2628 0,-1451 -1177,-2628 -2628,-2628 -1451,0 -2628,1177 -2628,2628z"/>
   <path class="fil4 str2" d="M175667 84142c0,601 53,1140 84,1372 13,102 3785,-993 7216,-960 2415,24 4658,3 6151,192 -3299,-1047 -8447,-906 -13451,-605z"/>
   <path class="fil3 str1" d="M157281 88507c0,154 -24,710 -12,1187 -485,-87 -1035,-233 -4537,-166 -1097,21 -3092,263 -4427,709 3842,-2473 3971,-1698 8976,-1731z"/>
   <path class="fil3" d="M179338 83965c3743,-122 7289,-9 9781,782 -1494,-189 -3736,-169 -6151,-192 -1292,-13 -2632,135 -3801,318 -1937,304 -3407,705 -3415,642 -31,-232 -84,-771 -84,-1372 1225,-74 2458,-138 3671,-177z"/>
   <path class="fil3 str1" d="M157736 86365c0,154 -53,477 -41,954 -485,-87 -1582,-218 -5138,-257 -2699,-30 -5019,638 -6387,817 4317,-2065 6561,-1816 11566,-1514z"/>
   <path class="fil3 str1" d="M157789 85397c-14,103 -1240,-687 -7198,-823 -6167,-141 -5451,119 -6820,298 4351,-1364 9097,-1148 14102,-847 0,601 -52,1139 -84,1372z"/>
   <path class="fil4 str2" d="M175786 86306c0,154 74,774 62,1251 441,-106 2841,-576 5087,-574 2699,2 4535,388 5903,567 -4317,-2065 -6032,-1294 -11053,-1243z"/>
   <path class="fil5 str3" d="M167748 120139c-167,-1335 -1183,-2096 -1558,-3056 -375,-960 -758,-3536 -658,-5104 100,-1568 -814,-3214 -1564,-3197 -751,17 -1399,927 -1433,1961 -34,1035 235,6591 -266,7642 -501,1051 -1301,1835 -1201,2936 100,1101 1668,1869 1902,3303 233,1435 -690,6624 -884,8927 -194,2303 -3003,11378 -3119,12696 -117,1318 523,6039 526,7473 1,335 -2,663 -4,981 -5,868 -2,1661 99,2297 75,475 933,694 1072,1086 383,1084 -378,2267 -1535,2319 -734,33 -2016,-823 -2294,-1543 -491,-1270 -351,-6456 -317,-8358 33,-1902 -967,-2836 -1134,-3470 -167,-634 326,-1293 743,-2110 417,-818 34,-4155 -24,-4980 -58,-825 -559,-1051 -1151,-1059 -592,-8 -1417,27 -1301,2711 282,6520 701,27494 435,30464l-4 42c-301,2996 -4389,10251 -5585,10119 -1083,-120 -3964,-7367 -4868,-10792 -98,-374 -174,-702 -220,-970 -475,-2729 -1242,-7421 -1000,-14347 131,-3744 1532,-10502 2636,-13447 1104,-2945 4022,-5573 4105,-8442 90,-3104 -83,-9527 784,-13164 473,-1983 121,-13055 351,-15399 249,-2540 3752,-7291 5141,-8609 973,-923 3256,-2374 4305,-2369 1048,5 1218,50 1885,434 668,384 2102,1168 3620,1134 1518,-33 1169,67 2262,-158 1093,-225 1240,-809 2901,-843 1661,-34 1837,436 2916,1035l367 262c2097,1598 4910,5317 5865,8488 1263,4196 756,10856 1201,15216 475,29 2790,263 2928,1413 138,1150 -500,1474 -1397,1634 -325,58 -1014,5714 -1764,7665 -240,624 -561,635 -761,1336 -155,544 -126,1262 -239,1966 -298,1847 -257,3969 -97,4279 218,422 558,91 749,639 271,779 -626,1054 -909,1176 -6,3 -13,5 -19,8 -332,62 -660,8 -832,-208l-363 -2195c-20,2 -39,4 -59,6 -47,-410 -48,-972 -258,-1576 -295,-850 -864,-1834 -1306,-3025 -648,-1748 -2336,-7274 -3087,-7357 -751,-84 -1247,737 -1318,1919 -55,909 -673,2724 -598,4339 74,1587 640,2947 690,3228 98,558 687,6031 -501,6323 -3,-1 -6,0 -10,1 -581,31 -1233,-2354 -1217,-4096 6,-560 -226,-1524 -545,-2622l-72 -39c-679,-2328 -1741,-5240 -1786,-6209 -67,-1435 -58,-7377 -224,-8712z"/>
   <path class="fil3" d="M178880 86196c2887,-147 4666,-221 7958,1354 -1368,-179 -3205,-565 -5903,-567 -771,-1 -1559,54 -2281,131 -1382,147 -2517,374 -2807,443 12,-477 -62,-1097 -62,-1251 1191,-12 2197,-65 3094,-110z"/>
   <path class="fil4 str2" d="M176011 88507c0,154 24,710 12,1187 485,-87 1522,-668 4039,-535 1095,58 3106,332 4441,778 -3075,-1606 -3471,-1582 -8492,-1430z"/>
   <path class="fil3" d="M178208 88449c3037,-54 3744,157 6295,1489 -1335,-446 -3346,-720 -4441,-778 -909,-48 -1624,-3 -2191,78 -1003,144 -1538,401 -1848,457 12,-477 -12,-1033 -12,-1187 854,-26 1575,-48 2197,-59z"/>
   <path class="fil5" d="M170283 78371c0,-1451 1177,-2628 2628,-2628 1451,0 2628,1177 2628,2628 0,1451 -1177,2628 -2628,2628 -1451,0 -2628,-1177 -2628,-2628zm1744 -11c0,498 403,901 901,901 498,0 901,-403 901,-901 0,-498 -403,-901 -901,-901 -498,0 -901,403 -901,901z"/>
   <path class="fil5" d="M159529 78377c0,-498 -403,-901 -901,-901 -498,0 -901,403 -901,901 0,498 403,901 901,901 498,0 901,-403 901,-901zm-947 2569c-1451,0 -2628,-1177 -2628,-2628 0,-1451 1177,-2628 2628,-2628 1451,0 2628,1177 2628,2628 0,1451 -1177,2628 -2628,2628z"/>
   <path class="fil5 str3" d="M159529 78377c0,498 -403,901 -901,901 -398,0 -736,-259 -855,-617 -6,-55 -19,-108 -37,-159 -6,-41 -9,-83 -9,-125 0,-498 403,-901 901,-901 498,0 901,403 901,901z"/>
   <path class="fil2 str0" d="M158619 79115c-498,0 -901,-347 -901,-774 0,-428 403,-774 901,-774 498,0 901,347 901,774 0,428 -403,774 -901,774z"/>
   <path class="fil5 str3" d="M172027 78360c0,-498 403,-901 901,-901 498,0 901,403 901,901 0,498 -403,901 -901,901 -498,0 -901,-403 -901,-901z"/>
   <path class="fil2 str0" d="M172904 79204c-498,0 -901,-347 -901,-774 0,-428 403,-774 901,-774 498,0 901,347 901,774 0,428 -403,774 -901,774z"/>
   <path class="fil6" d="M1811 1666l-7 163318 -2 7333c-6,13127 -11,22626 209,31659 120,4954 1966,11587 6417,17661 3435,4688 8423,9036 15368,12012 8147,3491 18343,3376 29147,3255 8799,-99 17998,-202 26928,1612 5195,1056 9639,3206 13467,5797 3532,2391 6529,5149 9105,7763 2578,-2659 5579,-5441 9116,-7846 3828,-2603 8272,-4753 13467,-5809 8930,-1814 18128,-1711 26928,-1612 10804,121 21000,236 29147,-3255 6945,-2976 11933,-7324 15368,-12012 4451,-6074 6297,-12707 6417,-17661 219,-9033 215,-18532 209,-31659l-2 -7333 -3 0 0 -163269 -201277 47zm202921 -1699l0 188019c-22,5811 -75,10946 -196,15933 -127,5236 -2064,12227 -6734,18600 -3593,4904 -8805,9450 -16054,12556 -8458,3624 -18824,3508 -29809,3384 -8717,-98 -17831,-200 -26591,1579 -4951,1006 -9199,3063 -12865,5557 -3681,2504 -6789,5460 -9437,8237l-594 623 -598 -617c-2650,-2732 -5760,-5666 -9444,-8160 -3665,-2481 -7913,-4539 -12865,-5545 -8760,-1780 -17873,-1678 -26591,-1579 -10984,124 -21351,240 -29809,-3384 -7249,-3106 -12462,-7652 -16054,-12556 -4670,-6373 -6607,-13364 -6734,-18600 -220,-9034 -215,-18549 -209,-31698l2 -7333 7 -164143 0 -826 825 0 202932 -48 816 0z"/>
  </g>
 </g>
</svg>
