<svg xmlns="http://www.w3.org/2000/svg" xml:space="preserve" width="390" height="500"><path d="M347.593 447.06H234.017c-39.047 0-39.047 53.38-39.047 53.38s-.391-53.38-40.707-53.38H39.85c-25.678 0-39.908-11.382-39.908-39.199V0H390v409.112c0 31.007-15.963 37.948-42.407 37.948z" fill="#E4000D"/><ellipse fill="#F7D900" cx="104.53" cy="225.514" rx="24.243" ry="24.485"/><path d="M305.134 161.494c-6.463-4.719-32.294 2.809-32.294 2.809s8.741-3.411 22.752-10.035c14.009-6.623 9.142-9.031 9.142-9.031-3.279-2.307-23.847 4.916-23.847 4.916l20.27-8.128c-.992-5.417-16.099-2.208-16.099-2.208 8.146-4.214 7.055-7.625 7.055-7.625-4.369-2.81-27.517 5.818-27.517 5.818 7.946-4.214 16.787-13.247 17.584-14.148.796-.905 1.224-2.684 1.292-4.317.062-1.607-3.279-.905-3.279-.905l-30.106 17.866c8.35-5.721 21.662-19.568 24.047-22.882 2.38-3.311.596-6.223.596-6.223l-10.434 7.228c-3.777-2.811-13.32 1.203-13.32 1.203s8.271-5.91 9.938-7.525c1.801-1.744 3.177-4.517 2.487-4.816-1.185-.513-4.176-.503-4.176-.503l-19.771 11.141s8.311-7.468 11.328-10.637c2.392-2.509 2.49-6.414 1.986-7.025-.547-.667-3.976.201-3.976.201l-20.071 11.841s4.574-3.688 7.154-6.221c3.377-3.313 1.493-6.323 1.493-6.323s-2.983-1.304-5.962.703c-1.771 1.192-24.541 18.064-24.541 18.064s5.564-6.535 9.103-11.546c2.918-4.134 1.627-8.125-.361-9.329-.971-.587-2.581 1.806-2.581 1.806-13.713 20.471-46.104 49.375-49.081 51.982-2.982 2.609-19.278 11.844-19.673 35.927-.549 33.118-14.628 54.871-14.628 54.871-2.216-1.402-3.059-9.21-4.746-12.926-1.69-3.711-8.745-9.83-15.5-10.939-6.756-1.102-11.329 1.606-12.818 3.011-1.489 1.406-.403.894-6.159 3.313-5.101 2.141-3.419 7.226-2.983 9.433 0 0 2.753-1.607 4.307-2.244 1.559-.634 4.105-.299 6.227 1.572 2.118 1.873 2.982 1.34 3.841 7.025.86 5.687 5.695 15.79 9.672 19.739 0 0 3.246 27.427 25.768 33.713 6.34 1.772 5.563-.664 11.79 4.415 0 0 3.378 14.854 7.881 22.143 0 0-1.124 3.816.796 5.287 1.516 1.163 1.876.491 1.96.155l.028-.155s-.005.064-.028.155c-.138.775-.841 4.166-2.425 4.465-1.789.333-2.515.464-3.44.333-.928-.136-12.719-6.158-15.501-9.167 0 0-11.79 12.372 0 22.276h7.948s1.391 2.809 3.045 2.609c0 0 1.324 2.278 3.576 1.54 0 0 1.061-.469.569-2.868l.59-.242c.528 1.268 1.595 2.263 2.749 2.103 0 0 2.178-.864 1.547-3.845l.938-.166c.729 1.071 2.101 2.034 3.544 1.602l.731-1.602s12.979-1.34 19.206-3.815c0 0 1.391.404 2.385-.067l-.067-.402 2.65-.872s1.787.272 3.246-.464l.068-.536 2.184-.868 1.159-.121s.384-.341.496-.684c0 0 12.584-3.882 18.942-8.295 6.36-4.415 2.788-13.779-.857-14.184l-.203-3.411s-10.918 8.465-14.632 11.237c0 0-4.176-2.204-8.218.672-1.833 1.305-.794-2.407-1.809-3.951 0 0 2.472 2.008 3.53 1.608 0 0 .465-1.537.067-2.608 0 0 3.311.267 4.241-.4 0 0 3.876-4.514-9.641-11.343 0 0 4.75 2.438 6.857 1.706 3.177-1.101 8.34-8.028 8.34-8.028s3.263 2.507 11.231 7.429c10.233 6.325 17.19 18.063 17.19 18.063 2.785-1.405 4.864-5.519 4.864-5.519 5.768 2.207 7.651.501 7.651.501.501-1.505.103-4.114.103-4.114 8.843-.501 7.849-1.304 7.849-1.304v-6.621c3.479-.203 5.862-1.612 5.765-2.712-.098-1.103-1.293-2.609-1.892-4.114-.594-1.503 1.69-5.521 3.479-6.427 1.786-.898.101-2.907.101-2.907s.994-.402 4.369-2.912c3.379-2.507-.992-4.714-.992-4.714 7.35-4.716-.301-4.119-.301-4.119-12.731.143-22.269-.511-29.403-2.1-18.014-4.023-20.67-11.841-20.67-11.841 10.236-7.629 17.085-20.854 17.19-22.883.098-1.907 2.414-7.571 4.672-10.035 3.577-3.913 1.981-8.974 1.981-8.974 2.189-3.549.098-6.883.098-6.883 1.887-1.804.103-5.015.103-5.015 15.004-3.916 13.514-10.039 13.514-10.039 5.168-2.208 5.962-5.82 5.962-5.82 13.017.805 10.534-3.612 10.534-3.612 13.708-3.112 14.505-6.522 14.505-6.522-.896-2.71-5.568-3.511-5.568-3.511 36.761-11.137 31.304-16.153 31.304-16.153zm-129.76 165.177-1.89.499s-2.024-.452-2.619.452c0 0-1.356-2.959-2.549-4.06-1.191-1.105-.994-3.213-.994-3.213l2.683 2.108s1.89-1.405 2.285-2.609c0 0 2.784 1.002 3.676.4 0 0 .694-4.413-2.39-9.576l.077.04c2.389 1.219 4.276 2.347 4.598 3.413.794 2.611-.992 7.227 1.986 6.429.002-.003-4.37 3.104-4.863 6.117z" fill="#F7D900" stroke="#000" stroke-linecap="round" stroke-linejoin="round" stroke-miterlimit="10" stroke-width="1.064"/><path d="m159.707 321.987.561-1.739 3.379 1.739 3.279-2.443.927 1.22" fill="none" stroke="#000" stroke-linecap="round" stroke-linejoin="round" stroke-miterlimit="10" stroke-width=".851"/><path d="M187.368 125.442s4.697-2.082 6.385 2.133c0 0 3.731.559 3.675 4.815-.021 1.797 2.684 3.931-1.09 8.838 0 0 1.987 3.003-.696 4.609 0 0 .896 4.917-2.187 7.026 0 0 1.688 3.912-1.587 5.219 0 0-1.688 2.606-3.282 2.606 0 0-1.391 2.712-3.376 3.516 0 0 1.093 4.458 0 7.345" fill="none" stroke="#000" stroke-linecap="round" stroke-linejoin="round" stroke-miterlimit="10" stroke-width=".879"/><path d="M111.487 256.425s1.974-6.117 1.98-8.142c0 0 4.507 1.475 4.838 4.072 0 0-.199-5.832-1.455-10.248 0 0 4.636-.667 6.295.269 0 0 .527-3.946-.863-6.956 0 0 3.775 2.34 3.711 5.016 0 0-.798-6.614 1.192-7.19" fill="none" stroke="#000" stroke-linecap="round" stroke-linejoin="round" stroke-miterlimit="10" stroke-width=".851"/><path d="M201.523 294.351s3.255 2.507 11.224 7.429c10.235 6.32 17.192 18.058 17.192 18.058 2.781-1.4 4.865-5.519 4.865-5.519 5.767 2.211 7.65.506 7.65.506.496-1.505.098-4.114.098-4.114-22.531-14.421-32.174-16.089-36.551-17.357-4.387-1.274-4.478.997-4.478.997z" fill="#F6C700" stroke="#000" stroke-linecap="round" stroke-linejoin="round" stroke-miterlimit="10" stroke-width=".479"/><path d="M250.404 302.787c3.479-.208 5.864-1.612 5.767-2.715-.104-1.101-1.295-2.606-1.894-4.114-.592-1.505 1.693-5.518 3.482-6.424 1.783-.903.098-2.907.098-2.907s.994-.402 4.371-2.912c3.38-2.507-.992-4.719-.992-4.719 7.351-4.716-.296-4.114-.296-4.114-12.735.143-22.272-.513-29.403-2.105-18.023-4.023-20.675-11.842-20.675-11.842 10.231-7.624 17.083-20.851 17.188-22.881.104-1.904 2.417-7.57 4.67-10.032 3.577-3.915 1.986-8.974 1.986-8.974 2.189-3.553.103-6.883.103-6.883 1.887-1.807.098-5.018.098-5.018 15.001-3.915 13.513-10.036 13.513-10.036 5.166-2.208 5.958-5.82 5.958-5.82 13.021.803 10.536-3.612 10.536-3.612 13.708-3.112 14.503-6.522 14.503-6.522-.888-2.71-5.564-3.511-5.564-3.511 36.766-11.139 31.3-16.158 31.3-16.158-6.461-4.716-32.292 2.811-32.292 2.811s8.741-3.412 22.752-10.038c14.009-6.619 9.142-9.029 9.142-9.029-3.277-2.309-23.845 4.915-23.845 4.915l20.268-8.127c-.99-5.418-16.096-2.208-16.096-2.208 8.146-4.212 7.057-7.627 7.057-7.627-4.371-2.806-27.524 5.821-27.524 5.821 7.951-4.213 16.792-13.246 17.587-14.149.796-.903 1.227-2.683 1.292-4.314.066-1.605-3.276-.904-3.276-.904l-30.109 17.863c8.347-5.72 21.662-19.567 24.047-22.88 2.38-3.312.594-6.222.594-6.222l-10.432 7.227c-3.775-2.811-13.313 1.203-13.313 1.203s8.271-5.911 9.938-7.527c1.799-1.744 3.177-4.515 2.483-4.816-1.19-.514-4.172-.502-4.172-.502l-19.775 11.139s8.309-7.466 11.326-10.637c2.395-2.509 2.492-6.414 1.991-7.024-.555-.667-3.978.202-3.978.202l-20.069 11.84s4.567-3.689 7.152-6.221c3.379-3.312 1.488-6.321 1.488-6.321s-2.977-1.308-5.958.702c-1.771 1.19-24.543 18.063-24.543 18.063s5.564-6.537 9.105-11.544c2.917-4.135 1.627-8.126-.359-9.33-.976-.587-2.583 1.807-2.583 1.807-6.212 9.271-16.257 20.272-25.657 29.778 0 0 4.693-2.082 6.383 2.135 0 0 3.729.559 3.675 4.816-.022 1.793 2.683 3.928-1.09 8.838 0 0 1.984 3.002-.699 4.608 0 0 .897 4.915-2.185 7.025 0 0 1.687 3.912-1.589 5.219 0 0-1.688 2.606-3.278 2.606 0 0-1.392 2.709-3.377 3.515 0 0 1.091 4.459 0 7.346l-.142.16c.55-.64 1.246-1.32 2.127-1.988 3.182-2.407 32.706-27.017 32.706-27.017s2.066-2.22 3.792-.28c1.723 1.94 2.913 4.819-8.281 16.792 0 0 8.677.937-.068 8.765 0 0 4.838 5.887-5.098 14.652 0 0 10.999 7.223-2.25 18.462 0 0 6.886 8.229-13.645 14.52 0 0 1.092 20.234-21.859 34.989 0 0 5.363 3.509 6.061 10.333 0 0 7.947 5.318 6.357 11.242 0 0 12.22 10.435-2.085 7.224 0 0 7.051 6.32-1.89 8.828 0 0 6.64-2.298 11.739-2.031 0 0 7.521 3.811 18.63 4.617 11.104.799 32.006 3.333 39.076 11.972z" fill="#F6C700"/><path d="M250.404 302.787c3.479-.208 5.864-1.612 5.767-2.715-.104-1.101-1.295-2.606-1.894-4.114-.592-1.505 1.693-5.518 3.482-6.424 1.783-.903.098-2.907.098-2.907s.994-.402 4.371-2.912c3.38-2.507-.992-4.719-.992-4.719 7.351-4.716-.296-4.114-.296-4.114-12.735.143-22.272-.513-29.403-2.105-18.023-4.023-20.675-11.842-20.675-11.842 10.231-7.624 17.083-20.851 17.188-22.881.104-1.904 2.417-7.57 4.67-10.032 3.577-3.915 1.986-8.974 1.986-8.974 2.189-3.553.103-6.883.103-6.883 1.887-1.807.098-5.018.098-5.018 15.001-3.915 13.513-10.036 13.513-10.036 5.166-2.208 5.958-5.82 5.958-5.82 13.021.803 10.536-3.612 10.536-3.612 13.708-3.112 14.503-6.522 14.503-6.522-.888-2.71-5.564-3.511-5.564-3.511 36.766-11.139 31.3-16.158 31.3-16.158-6.461-4.716-32.292 2.811-32.292 2.811s8.741-3.412 22.752-10.038c14.009-6.619 9.142-9.029 9.142-9.029-3.277-2.309-23.845 4.915-23.845 4.915l20.268-8.127c-.99-5.418-16.096-2.208-16.096-2.208 8.146-4.212 7.057-7.627 7.057-7.627-4.371-2.806-27.524 5.821-27.524 5.821 7.951-4.213 16.792-13.246 17.587-14.149.796-.903 1.227-2.683 1.292-4.314.066-1.605-3.276-.904-3.276-.904l-30.109 17.863c8.347-5.72 21.662-19.567 24.047-22.88 2.38-3.312.594-6.222.594-6.222l-10.432 7.227c-3.775-2.811-13.313 1.203-13.313 1.203s8.271-5.911 9.938-7.527c1.799-1.744 3.177-4.515 2.483-4.816-1.19-.514-4.172-.502-4.172-.502l-19.775 11.139s8.309-7.466 11.326-10.637c2.395-2.509 2.492-6.414 1.991-7.024-.555-.667-3.978.202-3.978.202l-20.069 11.84s4.567-3.689 7.152-6.221c3.379-3.312 1.488-6.321 1.488-6.321s-2.977-1.308-5.958.702c-1.771 1.19-24.543 18.063-24.543 18.063s5.564-6.537 9.105-11.544c2.917-4.135 1.627-8.126-.359-9.33-.976-.587-2.583 1.807-2.583 1.807-6.212 9.271-16.257 20.272-25.657 29.778 0 0 4.693-2.082 6.383 2.135 0 0 3.729.559 3.675 4.816-.022 1.793 2.683 3.928-1.09 8.838 0 0 1.984 3.002-.699 4.608 0 0 .897 4.915-2.185 7.025 0 0 1.687 3.912-1.589 5.219 0 0-1.688 2.606-3.278 2.606 0 0-1.392 2.709-3.377 3.515 0 0 1.091 4.459 0 7.346l-.142.16c.55-.64 1.246-1.32 2.127-1.988 3.182-2.407 32.706-27.017 32.706-27.017s2.066-2.22 3.792-.28c1.723 1.94 2.913 4.819-8.281 16.792 0 0 8.677.937-.068 8.765 0 0 4.838 5.887-5.098 14.652 0 0 10.999 7.223-2.25 18.462 0 0 6.886 8.229-13.645 14.52 0 0 1.092 20.234-21.859 34.989 0 0 5.363 3.509 6.061 10.333 0 0 7.947 5.318 6.357 11.242 0 0 12.22 10.435-2.085 7.224 0 0 7.051 6.32-1.89 8.828" fill="none" stroke="#000" stroke-linecap="round" stroke-linejoin="round" stroke-miterlimit="10" stroke-width=".851"/><path d="M180.953 288.228s6.642-2.298 11.742-2.031c0 0 7.519 3.811 18.629 4.617 11.108.8 32.011 3.334 39.08 11.968m-44.406-5.299s17.898 2.988 28.807 16.836m-42.11-28.122s-5.402-3.581 7.416-5.79c0 0-1.364-2.036 9.441-4.815 5.459-1.404 8.301-7.858 8.301-7.858" fill="none" stroke="#000" stroke-linecap="round" stroke-linejoin="round" stroke-miterlimit="10" stroke-width=".479"/><path d="M200.111 280.407s4.596 3.112 24.687 6.323c19.106 3.052 29.475 7.907 29.475 7.907m-47.724-18.199s6.079 3.667 25.254 5.578c19.177 1.905 26.054 4.61 26.054 4.61m-44.747-12.824s-.124 2.448 10.549 3.697c11.146 1.301 28.113 2.407 37.572 1.496m-82.658-18.056h32.289m-37.093-9.319s5.475-1.215 12.134-1.116c6.656.102 36.212-1.45 36.212-1.45m-43.542-2.927s12.631-.742 19.368-1.443c6.739-.704 28.174-2.025 28.174-2.025m-41.614-2.4s27.429-2.699 43.627-2.803m-38.069-5.432s9.455-1.09 13.631-1.187c4.172-.102 26.171-2.819 29.03-2.813m-41.345 1.168 43.332-10.142m-41.008 2.867 41.308-9.375m1.375-5.919s-39.949 9.928-42.019 10.064m14.554-16.394 39.502-3.18m-34.327-4.041 52.409-5.794m-52.409.324 65.325-6.443m-69.154 1.471 94.747-21.237m-32.152 2.906-28.898 7.712m-29.335 5.703 89.962-32.584m-88.327 28.947 84.152-33.508m-85.051 27.409 76.771-35.792m-31.218 17.895 24.167-10.268m-33.605 5.135 13.137-6.942m-49.182 21.206 34.675-22.71m-27.146 5.327s.796-3.516 9.344-8.634c8.543-5.119 29.052-15.765 32.011-18.57" fill="none" stroke="#000" stroke-linecap="round" stroke-linejoin="round" stroke-miterlimit="10" stroke-width=".479"/><path d="M224.534 143.639s10.446-6.23 17.405-9.844c6.955-3.61 28.255-16.058 30.919-25.086m-79.086 18.861 13.114-12.843m-10.069 14.977 32.577-21.729m-31.05 27.99s24.904-9.519 41.753-22.402m-42.587 25.894s33.639-11.99 53.492-23.627m-54.816 29.605 30.08-7.891m-32.692 15.579s2.131-.532 8.226-1.766c6.265-1.269 8.566-.705 8.566-.705m-19.368 8.56s11.64-3.622 10.87-1.521" fill="none" stroke="#000" stroke-linecap="round" stroke-linejoin="round" stroke-miterlimit="10" stroke-width=".479"/><path d="M95.517 218.829s3.018 4.496 1.171 9.732c0 0-2.88-1.803-5.445-.482-2.569 1.314-3.702 2.027-3.702 2.027s-1.739-5.793 1.34-7.974c1.898-1.342 4.025-1.815 6.636-3.303z" fill="#D88000" stroke="#000" stroke-linecap="round" stroke-linejoin="round" stroke-miterlimit="10" stroke-width=".479"/><path d="M150.233 334.897s.53 3.482 3.305 6.959m5.241-1.941s-4.372-5.018-1.723-9.769m-59.769-103.85s4.13 1.56 5.982 4.572" fill="none" stroke="#000" stroke-linecap="round" stroke-linejoin="round" stroke-miterlimit="10" stroke-width=".479"/><path d="M94.117 222.315c.112.215-.082.533-.424.713-.345.176-1.202.077-1.202.077s.464-.677.808-.855c.343-.178.711-.149.818.065z"/><path d="M100.609 229.685s2.593 2.354 2.747 3.938" fill="none" stroke="#000" stroke-linecap="round" stroke-linejoin="round" stroke-miterlimit="10" stroke-width=".2"/><path d="M177.676 350.315c.744-3.394-1.391-5.136-3.273-6.666-.75-.61-1.455-1.187-1.93-1.816-.323-.437-.441-.871-.357-1.328.228-1.241 1.805-2.266 1.818-2.278l.167-.104-.629-1.02-.167.108c-.082.047-2.037 1.293-2.361 3.07-.146.798.048 1.565.576 2.273.565.756 1.331 1.375 2.139 2.034 1.844 1.498 3.436 2.798 2.851 5.467l-.031.135a3.232 3.232 0 0 0-1.467-.326c-.434 0-.878.072-1.287.21-1.178.393-1.963 1.227-2.093 2.243-.154 1.202.548 2.187 1.713 2.389.138.027.278.04.42.04 1.048 0 2.062-.634 2.813-1.73a4.647 4.647 0 0 1-.214.745c-.648 1.772-3.047 3.872-3.063 3.885-.021.022-.212.17-.227.417-.009.108.02.274.186.444.165.163.329.2.44.2a.547.547 0 0 0 .367-.141c.11-.091 2.664-2.32 3.418-4.386.459-1.253.453-2.288-.02-3.075.079-.25.149-.519.211-.79zm-4.859 2.157c.068-.538.549-1.01 1.284-1.251.291-.099.604-.15.904-.15.433 0 .828.104 1.104.296-.653 1.607-1.624 2.179-2.33 2.179-.077 0-.152-.007-.229-.02-.526-.091-.803-.496-.733-1.054z"/><path d="M173.619 337.724s-3.372 2.127-1.622 4.469c1.752 2.337 6.044 3.675 5.097 7.994-1.135 5.183-5.172 4.561-4.87 2.204.334-2.574 6.396-3.045 4.705 1.582-.712 1.939-3.246 4.144-3.246 4.144" fill="none" stroke="#FFF" stroke-linecap="round" stroke-linejoin="round" stroke-miterlimit="10" stroke-width=".479"/><path d="M210.085 350.115c-4.221 0-5.955-2.508-7.536-4.801-1.095-1.589-2.134-3.087-3.902-3.652-3.665-1.18-6.275.104-10.568 2.473-4.446 2.446-6.899 1.92-10.129-.008-3.25-1.937-2.079-6.829-2.025-7.036l.771.195c-.012.044-1.078 4.519 1.657 6.147 3.04 1.809 5.212 2.273 9.348-.01 4.485-2.465 7.216-3.798 11.189-2.53 2.025.652 3.186 2.335 4.31 3.964 2.146 3.1 4.362 6.306 12.922 3.159 0 0 .391-.106.496.198.174.481-.225.561-.225.561-2.586.948-4.642 1.34-6.308 1.34z" fill="none" stroke="#000" stroke-linecap="round" stroke-linejoin="round" stroke-miterlimit="10" stroke-width=".479"/><path d="M176.31 337.188s-1.188 4.783 1.84 6.594c3.033 1.804 5.366 2.404 9.739 0 4.373-2.412 7.044-3.736 10.88-2.502 5.613 1.796 4.122 12.034 17.486 7.115" fill="none" stroke="#FFF" stroke-linecap="round" stroke-linejoin="round" stroke-miterlimit="10" stroke-width=".479"/><path d="M180.239 320.551s2.326-4.578 8.876-2.88" fill="none" stroke="#000" stroke-linecap="round" stroke-linejoin="round" stroke-miterlimit="10" stroke-width=".879"/><path d="M149.737 342.358s1.802-1.333 3.071-1.088l1.599-.565s1.86-1.861 3.608-1.523c0 0 3.956-.671 4.941-1.542l.463 1.209s-.136 1.202-.602 1.938c0 0-2.948-.197-3.345-1.871l-1.458.269s.764 2.505-1.223 3.808c0 0-1.657-.197-2.386-2.288l-1.599.565s1.201 1.59-.288 2.759c.002 0-1.193.54-2.781-1.671zm42.022-11.75s1.902-.92 2.096-1.762c0 0 .145 1.019.582 1.762.439.743.376.973-.057 1.429-.43.457-1.485-.247-2.004-1.002-.511-.752-.617-.427-.617-.427z" fill="#FFF" stroke="#000" stroke-linecap="round" stroke-linejoin="round" stroke-miterlimit="10" stroke-width=".479"/><path d="M159.678 322.143c.023-.091.028-.156.028-.156l-.028.156z" fill="#F7D900" stroke="#000" stroke-linecap="round" stroke-linejoin="round" stroke-miterlimit="10" stroke-width=".879"/><path d="M145.676 292.098s13.699 9.186 17.671 12.799c2.242 2.036 7.227 4.28 10.601 5.965" fill="none" stroke="#000" stroke-linecap="round" stroke-linejoin="round" stroke-miterlimit="10" stroke-width="1.064"/><path d="M101.179 220.149s-1.049 2.647 1.232 4.256c2.284 1.611 4.484-.115 4.925-1.499.438-1.387.564-2.335.564-2.335s-3.249-.936-6.721-.422z" fill="#E5BB0A"/><path d="M96.615 221.381s6.654-3.134 13.479 0" fill="none" stroke="#000" stroke-linecap="round" stroke-linejoin="round" stroke-miterlimit="10" stroke-width=".3"/><path d="m101.093 222.345-2.376 1.007 2.941.326zm1.319-2.318c-.428 2.105.792 2.863.792 2.863s.962-.757.566-2.901l-1.358.038z"/><path d="M101.084 220.317s-.847 3.74 2.386 4.531c4.107 1.003 4.431-4.166 4.431-4.166" fill="none" stroke="#000" stroke-linecap="round" stroke-linejoin="round" stroke-miterlimit="10" stroke-width=".479"/><path d="M138.312 317.774s-12.074 12.678 0 22.276h8.177s-2.55-3.5-.942-8.29c0 0 1.025-3.384 4.419-1.676 0 0-.726-2.476 3.845-3.146.002 0-12.121-5.269-15.499-9.164zm59.934-1.056 14.518-11.254.347 3.582s3.731.73 4.206 7.14c.379 5.166-4.455 7.508-4.455 7.508s-10.898 5.819-17.984 7.661c0 0-.909-1.178-.992-2.824-.086-1.651.032-2.692-1.349-3.517-1.38-.832-3.215-2.006-2.385-3.248.833-1.253 2.808-1.207 3.506-1.454.701-.24 3.019-1.155 4.588-3.594zm-15.247 18.708c-6.306-1.291-7.199-6.341-7.312-8.485l-2.356.456c-1.589-.822-2.66.592-2.66.592l-.435.817s-4.636-.531-6.159 0c-1.523.541-1.322 2.078-.527 3.882.792 1.809-.593 4.951-.593 4.951l.593 1.542s13.449-1.389 18.472-3.539l.977-.216z" fill="#FFF"/><path d="M157.253 326.605c-1.789.333-2.515.467-3.44.333-.928-.134-12.719-6.158-15.501-9.164 0 0-11.79 12.372 0 22.276h7.948s1.391 2.809 3.045 2.609c0 0 1.324 2.275 3.576 1.537 0 0 1.061-.466.569-2.865l.59-.244c.366 1.12 1.608 2.263 2.752 2.105 0 0 2.175-.869 1.544-3.85l.938-.161c.563.869 2.044 2.049 3.544 1.602l.731-1.602s12.979-1.34 19.206-3.815c0 0 1.393.402 2.385-.067l-.064-.402 2.647-.871s1.787.271 3.246-.467l.068-.538 2.184-.866 1.159-.119s.384-.346.496-.687c0 0 12.584-3.879 18.942-8.292 6.36-4.42 2.788-13.784-.857-14.184l-.203-3.416s-10.918 8.465-14.632 11.242c0 0-4.176-2.209-8.218.672" fill="none" stroke="#000" stroke-linecap="round" stroke-linejoin="round" stroke-miterlimit="10" stroke-width=".879"/><path d="M206.601 310.225s-3.544 12.579 6.509 13.308" fill="none" stroke="#000" stroke-linecap="round" stroke-linejoin="round" stroke-miterlimit="10" stroke-width="1.064"/><path d="M214.583 309.638s-2.705-2.488-5.532 2.685c-2.827 5.163 1.161 8.327 2.769 8.026 1.604-.299 3.066-4.919-.496-6.224" fill="none" stroke="#000" stroke-linecap="round" stroke-linejoin="round" stroke-miterlimit="10" stroke-width="1.064"/><path d="M173.484 327.17s-4.928 6.673 3.165 9.943m-6.413-8.306s-4.773 6.347 2.745 9.03m-3.324-8.083 2.853 4.011" fill="none" stroke="#000" stroke-linecap="round" stroke-linejoin="round" stroke-miterlimit="10" stroke-width=".479"/><path d="M168.742 333.024s2.646 3.507 5.582 4.569m-1.343-9.604-2.963 1.14m-15.611-2.146s-4.835.224-4.439 3.102c0 0-3.772-1.942-4.701 2.675-.927 4.612 1.65 7.949 1.65 7.949m28.741-15.01s-.566 8.107 7.341 9.727m-19.45 3.756-.593-1.542s1.385-3.142.593-4.951c-.795-1.804-.996-3.341.527-3.882 1.523-.531 6.159 0 6.159 0l.861-1.636" fill="none" stroke="#000" stroke-linecap="round" stroke-linejoin="round" stroke-miterlimit="10" stroke-width=".479"/><path d="m184.93 334.498-.674-1.846s2.321.286 2.926-.089c0 0 .327.893.614 1.043l-2.866.892zm4.517-4.352-.332 1.409 1.465 1.15 2.522-.859-1.073-1.286c0 .006-1.322.261-2.582-.414z" fill="#FFF"/><path d="M185.338 324.529s1.242 3.7 4.38 5.738" fill="none" stroke="#000" stroke-linecap="round" stroke-linejoin="round" stroke-miterlimit="10" stroke-width=".479"/><path d="m184.412 333.177.729 2.123s-3.046.486-2.583-1.061l1.854-1.062zm2.757-.609s.39 2.517 3.801.992l.067-.536s-1.689-1.1-1.923-1.468c.001 0-1.156.839-1.945 1.012z" fill="#FFF" stroke="#000" stroke-linecap="round" stroke-linejoin="round" stroke-miterlimit="10" stroke-width=".479"/><path d="M180.239 326.671s2.749 6 4.439 6.118c1.146.084 2.848.032 4.437-1.234l.332-1.409s1.391.696 2.582.419c0 0 .925 1.489 1.987 1.506l.86-.718s-1.124-1.807-1.061-2.206c.068-.4.398-3.208-1.058-4.014-1.457-.807-3.71-1.942-2.451-3.613 1.259-1.673 4.53.251 8.096-5.025" fill="none" stroke="#000" stroke-linecap="round" stroke-linejoin="round" stroke-miterlimit="10" stroke-width=".479"/><path d="M176.276 350.315s.621.18 1.09 1.02m-1.09-.097s.666.457.544 1.486" fill="none" stroke="#000" stroke-linecap="round" stroke-linejoin="round" stroke-miterlimit="10" stroke-width=".32"/><path d="M127.183 249.999s36.164-18.462 56.036-75.257c0 0 .794-2.61 3.974-5.02 3.183-2.408 32.705-27.016 32.705-27.016s2.072-2.217 3.795-.278c1.723 1.94 2.911 4.815-8.278 16.79 0 0 8.67.937-.068 8.764 0 0 4.833 5.887-5.1 14.652 0 0 10.998 7.225-2.253 18.464 0 0 6.891 8.231-13.647 14.519 0 0 1.1 20.237-21.856 34.99 0 0 5.366 3.512 6.063 10.338 0 0 7.947 5.315 6.355 11.234 0 0 12.225 10.438-2.088 7.227 0 0 7.056 6.325-1.887 8.828 0 0 9.452 2.216 9.837 8.233" fill="none" stroke="#000" stroke-linecap="round" stroke-linejoin="round" stroke-miterlimit="10" stroke-width=".851"/><path d="M356.945 248.645s2.981-4.012 4.572-2.705c0 0 3.577-3.564 5.613-2.059 4.188 3.098-1.989 5.421 0 6.922 1.217.926 2.78 2.261.97 4.215-1.811 1.955-3.949 2.955.32 3.915 4.021.906 1.539 6.123-3.775 5.923-4.86-.183-2.981 2.621-1.442 3.063 1.54.447.602 2.754-3.626 2.353-4.218-.4-9.784-3.966-8.096-6.671 1.686-2.714 5.464-14.956 5.464-14.956z" fill="#F9CB00" stroke="#000" stroke-linecap="round" stroke-linejoin="round" stroke-miterlimit="10" stroke-width=".692"/><path d="M356.546 262.346s5.68-6.291 7.087-10.744" fill="none" stroke="#000" stroke-linecap="round" stroke-linejoin="round" stroke-miterlimit="10" stroke-width=".3"/><path d="m346.067 266.46-8.147-5.817s-1.49-1.311-.599-2.411c.897-1.104 3.775.501 4.369-1.202.599-1.708-7.331-6.446-6.321-9.539.958-2.959 4.569-4.066 5.63-2.807 2.084 2.478 3.424 1.001 2.485-1.755-.917-2.672.394-4.919 3.523-4.818 2.441.078 1.64-.954 1.84-2.559.198-1.607 1.451-4.911 4.271-4.214 4.073 1.003 2.881 5.018 3.873 6.623.997 1.605 5.168 0 3.284 5.117-1.892 5.119-2.297 7.118-.398 6.023.818-.474 1.583-2.408 3.475-1.105 1.887 1.307 0 5.119-1.788 5.817-1.789.708-3.292 1.429-3.873 3.815-.943 3.865-4.177 5.013-4.071 7.224.098 2.209-1.991 3.815-5.269 2.715l-2.284-1.107z" fill="#F9CB00" stroke="#000" stroke-linecap="round" stroke-linejoin="round" stroke-miterlimit="10" stroke-width=".692"/><path d="M348.798 256.917s-1.241-10.83 2.732-19.207m-.362 12.948s2.451-2.774 3.644-3.347m-3.281.335s2.533-2.961 4.127-3.665m-4.127.502s1.438-2.107 3.281-2.913m-3.281-.549s1.438-1.808 2.826-2.509m-9.684 14.347s1.64 3.164 2.832 3.817m-2.832.001 2.336 2.86" fill="none" stroke="#000" stroke-linecap="round" stroke-linejoin="round" stroke-miterlimit="10" stroke-width=".3"/><path d="M349.405 276.493s3.623-3.436 4.963-1.869c0 0 4.137-2.88 5.881-1.042 3.595 3.781-2.886 4.985-1.188 6.819 1.041 1.121 2.349 2.709.228 4.321-2.116 1.606-4.396 2.219-.352 3.912 3.807 1.594.462 6.296-4.736 5.166-4.762-1.034-3.389 2.061-1.949 2.764 1.438.713.112 2.821-3.974 1.683-4.091-1.138-8.96-5.622-6.827-7.991 2.128-2.366 7.954-13.763 7.954-13.763z" fill="#F9CB00" stroke="#000" stroke-linecap="round" stroke-linejoin="round" stroke-miterlimit="10" stroke-width=".692"/><path d="M346.658 289.909s6.671-5.193 8.826-9.336" fill="none" stroke="#000" stroke-linecap="round" stroke-linejoin="round" stroke-miterlimit="10" stroke-width=".3"/><path d="m335.625 292.125-7.023-7.162s-1.241-1.543-.173-2.473c1.072-.93 3.631 1.155 4.513-.419.88-1.577-6.111-7.634-4.589-10.499 1.454-2.75 5.2-3.204 6.023-1.782 1.63 2.806 3.206 1.587 2.749-1.291-.439-2.794 1.239-4.773 4.306-4.126 2.388.506 1.779-.649 2.248-2.199.474-1.545 2.274-4.578 4.934-3.398 3.836 1.698 1.972 5.444 2.678 7.202.701 1.752 5.09.903 2.346 5.612-2.739 4.714-3.479 6.61-1.427 5.861.892-.323 1.981-2.09 3.614-.478 1.637 1.618-.877 5.044-2.759 5.419-1.882.377-3.487.822-4.472 3.075-1.596 3.638-4.976 4.21-5.254 6.402-.281 2.194-2.614 3.406-5.652 1.74l-2.062-1.484z" fill="#F9CB00" stroke="#000" stroke-linecap="round" stroke-linejoin="round" stroke-miterlimit="10" stroke-width=".692"/><path d="M339.96 283.203s.635-10.879 5.991-18.434m-2.579 12.686s2.883-2.3 4.158-2.655m-3.286-.245s3.003-2.478 4.689-2.885m-4.147-.227s1.786-1.824 3.727-2.293m-3.134-1.12s1.73-1.523 3.221-1.977m-12.007 12.436s1.07 3.401 2.135 4.255m-2.79-.501 1.809 3.228" fill="none" stroke="#000" stroke-linecap="round" stroke-linejoin="round" stroke-miterlimit="10" stroke-width=".3"/><path d="M337.404 302.52s4.162-2.745 5.212-.97c0 0 4.567-2.112 5.978.005 2.888 4.361-3.702 4.408-2.346 6.506.828 1.288 1.845 3.085-.521 4.297-2.365 1.214-4.706 1.414-1.02 3.791 3.476 2.241-.628 6.284-5.557 4.26-4.503-1.855-3.687 1.434-2.387 2.384 1.292.948-.374 2.791-4.208.958-3.829-1.838-7.854-7.108-5.352-9.07 2.506-1.964 10.201-12.161 10.201-12.161z" fill="#F9CB00" stroke="#000" stroke-linecap="round" stroke-linejoin="round" stroke-miterlimit="10" stroke-width=".692"/><path d="M332.395 315.25s7.465-3.946 10.297-7.646" fill="none" stroke="#000" stroke-linecap="round" stroke-linejoin="round" stroke-miterlimit="10" stroke-width=".3"/><path d="m321.155 315.499-5.688-8.283s-.963-1.745.254-2.473c1.214-.728 3.379 1.777 4.516.377 1.139-1.399-4.704-8.584-2.715-11.143 1.906-2.445 5.676-2.241 6.246-.693 1.111 3.048 2.878 2.125 2.927-.79.047-2.826 2.035-4.484 4.946-3.31 2.263.914 1.859-.33 2.592-1.767.727-1.443 3.028-4.114 5.442-2.49 3.491 2.352 1.009 5.711 1.396 7.566.388 1.849 4.854 1.785 1.346 5.938-3.506 4.158-4.564 5.898-2.409 5.523.931-.163 2.314-1.72 3.641.16 1.335 1.88-1.732 4.81-3.652 4.852-1.916.042-3.575.203-4.932 2.249-2.189 3.3-5.62 3.27-6.272 5.38-.655 2.108-3.162 2.895-5.869.731l-1.769-1.827z" fill="#F9CB00" stroke="#000" stroke-linecap="round" stroke-linejoin="round" stroke-miterlimit="10" stroke-width=".692"/><path d="M326.946 307.473s2.505-10.605 9.075-17.106m-4.721 12.044s3.235-1.764 4.552-1.885m-3.193-.822s3.382-1.908 5.112-2.017m-4.045-.95s2.07-1.483 4.069-1.604m-2.895-1.654s1.969-1.199 3.514-1.377m-13.963 10.134s.465 3.542 1.366 4.566m-2.659-.98 1.227 3.495" fill="none" stroke="#000" stroke-linecap="round" stroke-linejoin="round" stroke-miterlimit="10" stroke-width=".3"/><path d="M320.59 326.139s4.569-1.972 5.3-.042c0 0 4.867-1.276 5.884 1.054 2.095 4.791-4.403 3.69-3.428 5.998.599 1.409 1.287 3.361-1.249 4.139-2.539.779-4.882.563-1.656 3.554 3.037 2.811-1.696 6.081-6.2 3.218-4.124-2.614-3.883.765-2.764 1.925 1.109 1.17-.853 2.69-4.308.212-3.453-2.482-6.515-8.376-3.712-9.872 2.801-1.492 12.133-10.186 12.133-10.186z" fill="#F9CB00" stroke="#000" stroke-linecap="round" stroke-linejoin="round" stroke-miterlimit="10" stroke-width=".692"/><path d="M313.464 337.8s8.034-2.582 11.461-5.728" fill="none" stroke="#000" stroke-linecap="round" stroke-linejoin="round" stroke-miterlimit="10" stroke-width=".3"/><path d="m302.356 336.067-4.176-9.154s-.646-1.883.675-2.389c1.321-.501 3.022 2.342 4.383 1.167 1.361-1.175-3.154-9.282-.757-11.449 2.297-2.081 5.97-1.214 6.261.408.578 3.195 2.479 2.601 3.022-.265.535-2.776 2.783-4.057 5.439-2.391 2.079 1.303 1.896 0 2.863-1.288.968-1.291 3.685-3.518 5.781-1.496 3.033 2.93.013 5.802.078 7.695.066 1.893 4.479 2.608.306 6.089-4.169 3.477-5.51 5.007-3.323 5.015.948 0 2.571-1.283 3.558.795.992 2.085-2.536 4.435-4.433 4.139-1.894-.293-3.553-.427-5.241 1.348-2.729 2.865-6.099 2.238-7.101 4.198-1.01 1.962-3.614 2.298-5.909-.313l-1.426-2.109z" fill="#F9CB00" stroke="#000" stroke-linecap="round" stroke-linejoin="round" stroke-miterlimit="10" stroke-width=".692"/><path d="M309.445 329.182s4.278-10.003 11.873-15.255m-6.722 11.032s3.489-1.163 4.807-1.062m-3.004-1.367s3.661-1.281 5.386-1.086m-3.825-1.651s2.297-1.093 4.286-.867m-2.565-2.129s2.141-.834 3.692-.741m-15.492 7.536s-.145 3.561.56 4.729m-2.451-1.429.606 3.657" fill="none" stroke="#000" stroke-linecap="round" stroke-linejoin="round" stroke-miterlimit="10" stroke-width=".3"/><path d="M300.379 346.277s4.836-1.138 5.225.891c0 0 5.009-.402 5.612 2.07 1.231 5.089-4.975 2.863-4.408 5.304.345 1.495.689 3.534-1.945 3.862-2.631.318-4.898-.304-2.24 3.203 2.512 3.305-2.715 5.689-6.661 2.088-3.611-3.302-3.951.069-3.052 1.412.895 1.34-1.298 2.497-4.276-.553-2.981-3.053-4.976-9.391-1.955-10.371 3.017-.976 13.7-7.906 13.7-7.906z" fill="#F9CB00" stroke="#000" stroke-linecap="round" stroke-linejoin="round" stroke-miterlimit="10" stroke-width=".692"/><path d="M291.355 356.515s8.354-1.135 12.267-3.63" fill="none" stroke="#000" stroke-linecap="round" stroke-linejoin="round" stroke-miterlimit="10" stroke-width=".3"/><path d="m280.707 352.857-2.534-9.741s-.313-1.969 1.077-2.236c1.386-.262 2.571 2.838 4.113 1.917 1.547-.923-1.516-9.694 1.217-11.412 2.622-1.641 6.097-.146 6.104 1.505.022 3.25 1.992 2.991 3.025.264 1.002-2.639 3.431-3.51 5.767-1.399 1.82 1.646 1.862.333 3.037-.768 1.173-1.101 4.237-2.816 5.955-.454 2.48 3.416-.992 5.716-1.251 7.589-.257 1.873 3.961 3.356-.743 6.048-4.703 2.698-6.287 3.964-4.134 4.354.929.17 2.751-.814 3.364 1.412.618 2.224-3.26 3.922-5.072 3.294-1.815-.62-3.431-1.039-5.396.41-3.182 2.347-6.393 1.135-7.72 2.89-1.329 1.76-3.948 1.629-5.762-1.35l-1.047-2.323z" fill="#F9CB00" stroke="#000" stroke-linecap="round" stroke-linejoin="round" stroke-miterlimit="10" stroke-width=".692"/><path d="M288.873 347.324s5.94-9.104 14.322-12.942m-8.519 9.686s3.641-.533 4.916-.2m-2.724-1.875s3.824-.622 5.491-.125m-3.478-2.296s2.441-.679 4.359-.101m-2.157-2.55s2.255-.446 3.765-.083m-16.552 4.701s-.756 3.487-.262 4.763m-2.167-1.841-.032 3.709" fill="none" stroke="#000" stroke-linecap="round" stroke-linejoin="round" stroke-miterlimit="10" stroke-width=".3"/><path d="M276.904 363.868s4.961-.274 4.997 1.794c0 0 5 .479 5.163 3.021.35 5.232-5.385 1.945-5.253 4.453.09 1.53.08 3.599-2.571 3.455-2.646-.143-4.774-1.158-2.759 2.767 1.901 3.695-3.655 5.126-6.915.881-2.988-3.88-3.907-.62-3.252.858.649 1.481-1.706 2.238-4.12-1.288-2.407-3.527-3.284-10.121-.142-10.561 3.143-.433 14.852-5.38 14.852-5.38z" fill="#F9CB00" stroke="#000" stroke-linecap="round" stroke-linejoin="round" stroke-miterlimit="10" stroke-width=".692"/><path d="M266.262 372.365s8.418.348 12.702-1.424" fill="none" stroke="#000" stroke-linecap="round" stroke-linejoin="round" stroke-miterlimit="10" stroke-width=".3"/><path d="m256.405 366.898-.823-10.045s.029-1.994 1.439-2.011c1.415-.02 2.048 3.245 3.729 2.613 1.677-.639.174-9.817 3.16-11.027 2.866-1.158 6.025.925 5.754 2.552-.54 3.204 1.439 3.297 2.93.79 1.435-2.421 3.983-2.849 5.919-.366 1.508 1.942 1.776.654 3.125-.222 1.344-.878 4.652-2.031 5.938.598 1.86 3.798-1.952 5.452-2.531 7.25-.581 1.805 3.323 3.999-1.773 5.827-5.098 1.836-6.874 2.804-4.824 3.566.89.329 2.852-.318 3.074 1.978.223 2.3-3.886 3.292-5.564 2.361-1.684-.933-3.198-1.631-5.385-.548-3.536 1.755-6.488-.005-8.096 1.494-1.61 1.498-4.171.91-5.444-2.335l-.628-2.475z" fill="#F9CB00" stroke="#000" stroke-linecap="round" stroke-linejoin="round" stroke-miterlimit="10" stroke-width=".692"/><path d="M265.4 362.875s7.414-7.92 16.323-10.225m-10.051 8.043s3.67.106 4.872.662m-2.36-2.322s3.876.059 5.433.834m-3.033-2.868s2.526-.234 4.31.667m-1.686-2.894s2.299-.047 3.727.58m-17.112 1.731s-1.344 3.302-1.073 4.642m-1.823-2.191-.667 3.645" fill="none" stroke="#000" stroke-linecap="round" stroke-linejoin="round" stroke-miterlimit="10" stroke-width=".3"/><path d="M251.173 376.121s4.929.6 4.608 2.644c0 0 4.839 1.345 4.572 3.879-.563 5.21-5.643.973-5.94 3.465-.179 1.525-.542 3.559-3.133 2.949-2.578-.605-4.503-1.975-3.193 2.244 1.244 3.974-4.479 4.407-6.962-.341-2.274-4.349-3.738-1.298-3.35.274.388 1.567-2.063 1.898-3.829-1.997-1.767-3.897-1.493-10.541 1.676-10.42 3.165.119 15.551-2.697 15.551-2.697z" fill="#F9CB00" stroke="#000" stroke-linecap="round" stroke-linejoin="round" stroke-miterlimit="10" stroke-width=".692"/><path d="M239.229 382.624s8.228 1.821 12.758.82" fill="none" stroke="#000" stroke-linecap="round" stroke-linejoin="round" stroke-miterlimit="10" stroke-width=".3"/><path d="m230.459 375.509.916-10.037s.374-1.952 1.77-1.726c1.396.235 1.459 3.552 3.221 3.221 1.757-.325 1.854-9.63 5.007-10.296 3.018-.642 5.776 1.964 5.227 3.521-1.085 3.058.853 3.495 2.749 1.288 1.83-2.132 4.415-2.104 5.892.684 1.158 2.169 1.64.952 3.113.328 1.476-.629 4.936-1.185 5.749 1.631 1.178 4.062-2.861 5.025-3.738 6.696-.88 1.673 2.58 4.523-2.752 5.427-5.331.91-7.25 1.554-5.36 2.663.818.479 2.861.19 2.686 2.493-.177 2.303-4.389 2.559-5.887 1.345-1.493-1.214-2.864-2.169-5.21-1.485-3.782 1.108-6.385-1.14-8.228.052-1.842 1.19-4.262.168-4.958-3.255l-.197-2.55z" fill="#F9CB00" stroke="#000" stroke-linecap="round" stroke-linejoin="round" stroke-miterlimit="10" stroke-width=".692"/><path d="M240.009 373.125s8.659-6.498 17.838-7.211m-11.279 6.159s3.599.753 4.684 1.508m-1.926-2.702s3.805.738 5.2 1.777m-2.487-3.352s2.526.203 4.132 1.409m-1.166-3.146s2.27.36 3.563 1.227m-17.142-1.299s-1.894 3.016-1.854 4.383m-1.415-2.475-1.288 3.47" fill="none" stroke="#000" stroke-linecap="round" stroke-linejoin="round" stroke-miterlimit="10" stroke-width=".3"/><path d="M224.172 381.565s4.758 1.454 4.086 3.408c0 0 4.532 2.182 3.831 4.627-1.449 5.032-5.721-.035-6.443 2.367-.44 1.471-1.151 3.411-3.59 2.359-2.441-1.049-4.101-2.737-3.526 1.646.53 4.126-5.173 3.556-6.8-1.558-1.496-4.677-3.465-1.935-3.348-.315.109 1.608-2.358 1.5-3.431-2.639-1.073-4.149.342-10.647 3.438-9.968 3.104.675 15.783.073 15.783.073z" fill="#F9CB00" stroke="#000" stroke-linecap="round" stroke-linejoin="round" stroke-miterlimit="10" stroke-width=".692"/><path d="M211.292 385.877s7.787 3.238 12.42 3.048" fill="none" stroke="#000" stroke-linecap="round" stroke-linejoin="round" stroke-miterlimit="10" stroke-width=".3"/><path d="m203.878 377.331 2.629-9.725s.699-1.858 2.036-1.389c1.337.472.823 3.756 2.614 3.739 1.791-.02 3.487-9.161 6.705-9.262 3.086-.101 5.354 2.949 4.545 4.381-1.598 2.823.234 3.593 2.48 1.757 2.172-1.779 4.711-1.306 5.687 1.7.765 2.345 1.453 1.229 3.013.872 1.562-.363 5.067-.301 5.381 2.611.457 4.213-3.681 4.455-4.836 5.94-1.156 1.498 1.767 4.906-3.639 4.864-5.407-.042-7.409.259-5.737 1.686.721.61 2.785.682 2.216 2.922-.564 2.236-4.762 1.748-6.023.291-1.271-1.453-2.453-2.636-4.877-2.374-3.917.43-6.094-2.243-8.115-1.395-2.023.852-4.228-.583-4.322-4.072l.243-2.546z" fill="#F9CB00" stroke="#000" stroke-linecap="round" stroke-linejoin="round" stroke-miterlimit="10" stroke-width=".692"/><path d="M213.692 376.661s9.649-4.884 18.806-3.979m-12.169 4.09s3.416 1.372 4.354 2.308m-1.43-2.999s3.619 1.395 4.818 2.661m-1.878-3.734s2.456.642 3.829 2.11m-.605-3.303s2.175.751 3.301 1.829m-16.666-4.281s-2.378 2.633-2.578 3.988m-.968-2.69-1.864 3.201" fill="none" stroke="#000" stroke-linecap="round" stroke-linejoin="round" stroke-miterlimit="10" stroke-width=".3"/><path d="M195.468 383.404s4.432 2.266 3.436 4.077c0 0 4.093 2.935 2.979 5.225-2.29 4.704-5.625-1.032-6.752 1.205-.684 1.368-1.719 3.157-3.94 1.69-2.224-1.463-3.568-3.411-3.76 1.007-.184 4.16-5.701 2.594-6.431-2.73-.665-4.867-3.07-2.51-3.237-.9-.169 1.609-2.581 1.068-2.926-3.199-.342-4.272 2.168-10.422 5.103-9.213 2.933 1.212 15.528 2.838 15.528 2.838z" fill="#F9CB00" stroke="#000" stroke-linecap="round" stroke-linejoin="round" stroke-miterlimit="10" stroke-width=".692"/><path d="M182.041 385.388s7.119 4.553 11.709 5.185" fill="none" stroke="#000" stroke-linecap="round" stroke-linejoin="round" stroke-miterlimit="10" stroke-width=".3"/><path d="m176.21 375.677 4.262-9.112s1.013-1.708 2.243-1.011c1.232.696.166 3.842 1.935 4.139 1.766.294 5.007-8.411 8.198-7.949 3.055.442 4.758 3.845 3.717 5.111-2.055 2.502-.381 3.586 2.138 2.167 2.454-1.373 4.873-.459 5.311 2.67.354 2.441 1.219 1.466 2.819 1.384 1.599-.081 5.039.592 4.849 3.517-.271 4.228-4.389 3.739-5.784 5.005-1.391 1.269.896 5.141-4.426 4.154-5.314-.992-7.335-1.046-5.93.646.599.73 2.624 1.165 1.676 3.266-.943 2.107-4.992.888-5.985-.766-.996-1.658-1.961-3.025-4.393-3.196-3.932-.267-5.615-3.275-7.753-2.796-2.134.483-4.062-1.313-3.556-4.766l.679-2.463z" fill="#F9CB00" stroke="#000" stroke-linecap="round" stroke-linejoin="round" stroke-miterlimit="10" stroke-width=".692"/><path d="M185.991 376.733s10.34-3.113 19.2-.618m-12.685 1.896s3.128 1.95 3.893 3.038m-.895-3.205s3.328 2.004 4.288 3.462m-1.207-4.008s2.305 1.061 3.406 2.754m-.029-3.359s2.012 1.12 2.936 2.384m-15.671-7.144s-2.799 2.182-3.228 3.475m-.493-2.816-2.38 2.821" fill="none" stroke="#000" stroke-linecap="round" stroke-linejoin="round" stroke-miterlimit="10" stroke-width=".3"/><path d="M166.523 381.257s3.971 3.008 2.683 4.62c0 0 3.527 3.608 2.037 5.667-3.064 4.232-5.366-2.007-6.855 0-.913 1.229-2.234 2.809-4.173.975-1.938-1.829-2.926-3.983-3.876.33-.894 4.065-6.058 1.555-5.86-3.811.18-4.918-2.596-3.013-3.038-1.458-.441 1.555-2.726.605-2.328-3.658.397-4.271 3.926-9.889 6.606-8.184 2.681 1.706 14.804 5.519 14.804 5.519z" fill="#F9CB00" stroke="#000" stroke-linecap="round" stroke-linejoin="round" stroke-miterlimit="10" stroke-width=".692"/><path d="M152.96 380.857s6.227 5.733 10.638 7.157" fill="none" stroke="#000" stroke-linecap="round" stroke-linejoin="round" stroke-miterlimit="10" stroke-width=".3"/><path d="m148.884 370.272 5.764-8.229s1.29-1.51 2.384-.605c1.093.904-.493 3.813 1.194 4.413 1.687.604 6.381-7.401 9.438-6.39 2.932.97 4.028 4.623 2.781 5.689-2.452 2.103-.991 3.462 1.737 2.507 2.646-.923 4.872.402 4.771 3.562-.075 2.47.944 1.658 2.534 1.86 1.589.197 4.859 1.464 4.171 4.312-.994 4.114-4.966 2.912-6.555 3.914-1.591 1.004-.001 5.217-5.07 3.31-5.066-1.905-7.047-2.315-5.961-.4.472.829 2.386 1.609 1.098 3.509-1.296 1.911-5.072 0-5.768-1.806-.695-1.802-1.407-3.32-3.772-3.912-3.825-.953-4.968-4.213-7.154-4.114-2.187.101-3.775-2.004-2.685-5.319l1.093-2.301z" fill="#F9CB00" stroke="#000" stroke-linecap="round" stroke-linejoin="round" stroke-miterlimit="10" stroke-width=".692"/><path d="M158.335 373.031s10.721-1.258 19.019 2.757m-12.818-.363s2.743 2.473 3.307 3.678m-.327-3.315s2.931 2.559 3.624 4.166m-.495-4.166s2.088 1.456 2.882 3.313m.544-3.313s1.792 1.456 2.485 2.86m-14.208-9.785s-3.129 1.658-3.774 2.863m-.001-2.863-2.829 2.362" fill="none" stroke="#000" stroke-linecap="round" stroke-linejoin="round" stroke-miterlimit="10" stroke-width=".3"/><path d="M138.557 373.641s3.396 3.66 1.848 5.012c0 0 2.855 4.181 1.035 5.943-3.749 3.63-4.941-2.92-6.753-1.208-1.109 1.057-2.686 2.38-4.277.235-1.596-2.142-2.197-4.438-3.871-.36-1.581 3.85-6.238.471-5.12-4.778 1.023-4.805-2.035-3.423-2.738-1.97-.701 1.457-2.787.119-1.665-4.013 1.126-4.129 5.565-9.05 7.913-6.896 2.347 2.151 13.628 8.035 13.628 8.035z" fill="#F9CB00" stroke="#000" stroke-linecap="round" stroke-linejoin="round" stroke-miterlimit="10" stroke-width=".692"/><path d="M125.271 370.867s5.146 6.737 9.246 8.909" fill="none" stroke="#000" stroke-linecap="round" stroke-linejoin="round" stroke-miterlimit="10" stroke-width=".3"/><path d="m123.078 359.724 7.092-7.09s1.531-1.257 2.451-.178c.922 1.083-1.145 3.668.418 4.559 1.558.889 7.552-6.172 10.393-4.637 2.719 1.468 3.168 5.257 1.762 6.088-2.778 1.644-1.573 3.236 1.276 2.776 2.764-.447 4.729 1.251 4.087 4.347-.502 2.416.646 1.799 2.175 2.273 1.533.476 4.535 2.297 3.37 4.983-1.687 3.875-5.392 1.989-7.131 2.697-1.738.714-.898 5.144-5.56 2.38-4.664-2.772-6.545-3.52-5.803-1.444.321.894 2.075 2 .473 3.65-1.599 1.651-4.988-.891-5.362-2.789-.376-1.901-.819-3.525-3.046-4.517-3.603-1.609-4.167-5.025-6.338-5.306-2.17-.286-3.375-2.639-1.726-5.711l1.469-2.081z" fill="#F9CB00" stroke="#000" stroke-linecap="round" stroke-linejoin="round" stroke-miterlimit="10" stroke-width=".692"/><path d="M131.913 364.097s10.772.649 18.249 6.057m-12.559-2.607s2.277 2.91 2.628 4.201m.247-3.32s2.446 3.036 2.854 4.733m.227-4.187s1.804 1.802 2.27 3.769m1.106-3.165s1.509 1.745 1.954 3.253m-12.307-12.128s-3.371 1.079-4.214 2.15m.494-2.813-3.196 1.828" fill="none" stroke="#000" stroke-linecap="round" stroke-linejoin="round" stroke-miterlimit="10" stroke-width=".3"/><path d="M112.637 360.799s2.715 4.201.958 5.262c0 0 2.089 4.616-.004 6.032-4.313 2.917-4.364-3.739-6.445-2.367-1.273.841-3.051 1.868-4.25-.521-1.201-2.387-1.397-4.759-3.751-1.032-2.219 3.507-6.224-.632-4.22-5.607 1.834-4.553-1.42-3.727-2.36-2.416-.94 1.306-2.765-.375-.949-4.25 1.817-3.87 7.036-7.93 8.978-5.399 1.945 2.529 12.043 10.298 12.043 10.298z" fill="#F9CB00" stroke="#000" stroke-linecap="round" stroke-linejoin="round" stroke-miterlimit="10" stroke-width=".692"/><path d="M100.03 355.74s3.908 7.54 7.574 10.4" fill="none" stroke="#000" stroke-linecap="round" stroke-linejoin="round" stroke-miterlimit="10" stroke-width=".3"/><path d="m99.787 344.382 8.202-5.741s1.722-.973 2.444.256-1.757 3.414-.375 4.561c1.386 1.147 8.501-4.753 11.033-2.742 2.426 1.92 2.22 5.73.689 6.308-3.018 1.123-2.107 2.91.785 2.952 2.796.047 4.438 2.058 3.272 5-.907 2.288.329 1.878 1.755 2.616 1.423.738 4.068 3.061 2.459 5.499-2.327 3.521-5.654 1.014-7.485 1.412-1.837.392-1.77 4.901-5.886 1.357-4.116-3.542-5.839-4.61-5.465-2.433.16.942 1.696 2.337-.163 3.679-1.86 1.346-4.761-1.752-4.802-3.692-.043-1.938-.199-3.608-2.226-4.98-3.269-2.216-3.238-5.676-5.33-6.333-2.086-.664-2.865-3.196-.717-5.928l1.81-1.791z" fill="#F9CB00" stroke="#000" stroke-linecap="round" stroke-linejoin="round" stroke-miterlimit="10" stroke-width=".692"/><path d="M107.733 350.236s10.498 2.525 16.937 9.164m-11.922-4.766s1.741 3.271 1.865 4.593m.812-3.226s1.887 3.42 1.998 5.168m.942-4.085s1.468 2.088 1.588 4.107m1.634-2.922s1.188 1.984 1.364 3.542m-10.036-14.1s-3.504.476-4.518 1.384m.969-2.687-3.459 1.242" fill="none" stroke="#000" stroke-linecap="round" stroke-linejoin="round" stroke-miterlimit="10" stroke-width=".3"/><path d="M89.029 344.9s1.95 4.62.038 5.353c0 0 1.269 4.914-1.041 5.945-4.748 2.11-3.651-4.45-5.937-3.467-1.4.604-3.327 1.308-4.098-1.257-.772-2.569-.561-4.928-3.518-1.676-2.786 3.068-6.021-1.712-3.191-6.259 2.59-4.163-.756-3.919-1.91-2.791-1.151 1.118-2.659-.861-.202-4.353 2.455-3.495 8.292-6.578 9.77-3.744 1.48 2.827 10.089 12.249 10.089 12.249z" fill="#F9CB00" stroke="#000" stroke-linecap="round" stroke-linejoin="round" stroke-miterlimit="10" stroke-width=".692"/><path d="M77.482 337.708s2.554 8.112 5.673 11.57" fill="none" stroke="#000" stroke-linecap="round" stroke-linejoin="round" stroke-miterlimit="10" stroke-width=".3"/><path d="m79.196 326.484 9.064-4.221s1.866-.646 2.363.687c.501 1.335-2.316 3.05-1.152 4.425 1.164 1.373 9.189-3.186 11.337-.765 2.058 2.32 1.201 6.035-.404 6.328-3.164.585-2.575 2.5.263 3.053 2.748.536 4.016 2.806 2.365 5.494-1.285 2.095-.001 1.91 1.276 2.885 1.278.975 3.485 3.727 1.477 5.842-2.895 3.065-5.741.017-7.614.083-1.874.067-2.584 4.517-6.027.304-3.446-4.208-4.959-5.563-4.965-3.359-.003.956 1.271 2.596-.793 3.598-2.061 1-4.388-2.561-4.095-4.479.291-1.91.422-3.586-1.331-5.296-2.844-2.752-2.214-6.155-4.161-7.172-1.941-1.017-2.276-3.647.309-5.96l2.088-1.447z" fill="#F9CB00" stroke="#000" stroke-linecap="round" stroke-linejoin="round" stroke-miterlimit="10" stroke-width=".692"/><path d="M86.013 333.644s9.905 4.329 15.105 11.992m-10.922-6.787s1.153 3.522 1.048 4.852m1.354-3.031s1.271 3.695 1.081 5.435m1.627-3.855s1.092 2.315.858 4.322m2.112-2.59s.833 2.162.737 3.729m-7.461-15.649s-3.531-.146-4.688.572m1.418-2.478-3.619.61" fill="none" stroke="#000" stroke-linecap="round" stroke-linejoin="round" stroke-miterlimit="10" stroke-width=".3"/><path d="M67.899 324.593s1.131 4.892-.881 5.282c0 0 .402 5.057-2.047 5.667-5.041 1.249-2.835-5.02-5.251-4.455-1.483.355-3.498.703-3.819-1.958-.319-2.658.297-4.953-3.178-2.268-3.27 2.532-5.632-2.737-2.063-6.726 3.269-3.645-.072-3.988-1.401-3.085-1.328.904-2.47-1.308.549-4.319 3.02-3.008 9.295-5.02 10.265-1.972.969 3.042 7.826 13.834 7.826 13.834z" fill="#F9CB00" stroke="#000" stroke-linecap="round" stroke-linejoin="round" stroke-miterlimit="10" stroke-width=".692"/><path d="M57.769 315.484s1.118 8.436 3.595 12.392" fill="none" stroke="#000" stroke-linecap="round" stroke-linejoin="round" stroke-miterlimit="10" stroke-width=".3"/><path d="m61.384 304.729 9.651-2.562s1.949-.313 2.209 1.088c.265 1.402-2.807 2.596-1.896 4.156.911 1.557 9.598-1.53 11.296 1.231 1.63 2.648.146 6.158-1.485 6.165-3.22.017-2.965 2.009-.267 3.053 2.614 1.009 3.474 3.468 1.391 5.822-1.632 1.838-.334 1.883.757 3.065 1.092 1.187 2.788 4.285.45 6.017-3.38 2.507-5.657-.997-7.514-1.259-1.859-.262-3.321 3.996-5.99-.75-2.667-4.75-3.923-6.353-4.311-4.181-.167.938.805 2.782-1.399 3.403-2.202.62-3.88-3.29-3.262-5.123.616-1.839 1.032-3.465-.402-5.455-2.324-3.211-1.125-6.456-2.865-7.796-1.737-1.34-1.611-3.983 1.332-5.814l2.305-1.06z" fill="#F9CB00" stroke="#000" stroke-linecap="round" stroke-linejoin="round" stroke-miterlimit="10" stroke-width=".692"/><path d="M66.867 312.979s9.011 5.999 12.812 14.458m-9.589-8.596s.528 3.67.197 4.963m1.856-2.752s.618 3.865.129 5.546m2.269-3.51s.673 2.465.099 4.403m2.526-2.184s.444 2.28.083 3.806m-4.657-16.716s-3.451-.768-4.715-.264m1.822-2.192-3.67-.029" fill="none" stroke="#000" stroke-linecap="round" stroke-linejoin="round" stroke-miterlimit="10" stroke-width=".3"/><path d="M52.102 301.188s.272 5.01-1.776 5.044c0 0-.473 5.049-2.99 5.222-5.179.346-1.927-5.445-4.408-5.304-1.518.082-3.566.072-3.422-2.604.143-2.678 1.145-4.828-2.739-2.789-3.657 1.922-5.076-3.688-.876-6.984 3.844-3.016.615-3.941-.848-3.285-1.465.661-2.208-1.723 1.282-4.154 3.492-2.436 10.02-3.319 10.448-.148.431 3.175 5.329 15.002 5.329 15.002z" fill="#F9CB00" stroke="#000" stroke-linecap="round" stroke-linejoin="round" stroke-miterlimit="10" stroke-width=".692"/><path d="M43.69 290.437s-.347 8.504 1.413 12.833" fill="none" stroke="#000" stroke-linecap="round" stroke-linejoin="round" stroke-miterlimit="10" stroke-width=".3"/><path d="m49.1 280.476 9.948-.827s1.973.032 1.989 1.459c.019 1.423-3.212 2.068-2.58 3.764.627 1.69 9.712.172 10.912 3.191 1.147 2.892-.915 6.091-2.524 5.81-3.174-.545-3.267 1.456-.787 2.961 2.401 1.452 2.825 4.021.365 5.976-1.919 1.527-.651 1.794.219 3.153.87 1.363 2.011 4.702-.59 6.005-3.757 1.873-5.4-1.977-7.183-2.56-1.784-.585-3.959 3.354-5.769-1.792-1.811-5.15-2.773-6.947-3.526-4.874-.33.896.312 2.875-1.964 3.107-2.276.222-3.255-3.921-2.331-5.625.923-1.695 1.614-3.226.54-5.435-1.738-3.571.002-6.552-1.479-8.179-1.481-1.629-.903-4.213 2.311-5.491l2.449-.643z" fill="#F9CB00" stroke="#000" stroke-linecap="round" stroke-linejoin="round" stroke-miterlimit="10" stroke-width=".692"/><path d="M53.082 289.565s7.841 7.488 10.132 16.486M55.25 295.9s-.11 3.712-.661 4.926m2.301-2.39s-.056 3.919-.826 5.491m2.836-3.066s.237 2.55-.66 4.361m2.864-1.71s.046 2.322-.573 3.764m-1.71-17.286s-3.27-1.355-4.598-1.083m2.169-1.834-3.608-.674" fill="none" stroke="#000" stroke-linecap="round" stroke-linejoin="round" stroke-miterlimit="10" stroke-width=".3"/><path d="M39.571 275.247s-.592 4.985-2.613 4.654c0 0-1.336 4.889-3.842 4.615-5.161-.563-.964-5.694-3.428-5.995-1.513-.183-3.526-.553-2.925-3.159.6-2.614 1.955-4.556-2.219-3.226-3.933 1.249-4.367-4.526.337-7.037 4.307-2.3 1.285-3.776-.271-3.384-1.551.393-1.877-2.085 1.977-3.867 3.857-1.79 10.439-1.508 10.318 1.69-.123 3.2 2.666 15.709 2.666 15.709z" fill="#F9CB00" stroke="#000" stroke-linecap="round" stroke-linejoin="round" stroke-miterlimit="10" stroke-width=".692"/><path d="M33.136 263.185s-1.804 8.31-.818 12.88" fill="none" stroke="#000" stroke-linecap="round" stroke-linejoin="round" stroke-miterlimit="10" stroke-width=".3"/><path d="m40.176 254.325 9.939.928s1.937.373 1.708 1.782c-.227 1.41-3.517 1.474-3.188 3.253.326 1.779 9.535 1.878 10.198 5.06.634 3.053-1.948 5.834-3.486 5.276-3.03-1.093-3.469.861-1.283 2.776 2.115 1.852 2.091 4.46-.668 5.951-2.154 1.17-.949 1.656-.326 3.146s1.171 4.985-1.613 5.807c-4.026 1.188-4.98-2.887-6.638-3.778-1.653-.889-4.472 2.609-5.372-2.779-.896-5.385-1.536-7.322-2.635-5.412-.474.822-.186 2.888-2.465 2.712-2.28-.18-2.531-4.435-1.33-5.943 1.199-1.516 2.142-2.898 1.466-5.262-1.096-3.82 1.129-6.451-.05-8.31-1.176-1.861-.166-4.309 3.222-5.01l2.521-.197z" fill="#F9CB00" stroke="#000" stroke-linecap="round" stroke-linejoin="round" stroke-miterlimit="10" stroke-width=".692"/><path d="M42.538 263.97s6.434 8.749 7.141 18.016m-6.096-11.395s-.747 3.633-1.498 4.736m2.675-1.947s-.729 3.848-1.757 5.254m3.321-2.517s-.203 2.555-1.399 4.176m3.115-1.18s-.353 2.298-1.211 3.606m1.285-17.318s-2.985-1.91-4.342-1.873m2.455-1.431-3.44-1.296" fill="none" stroke="#000" stroke-linecap="round" stroke-linejoin="round" stroke-miterlimit="10" stroke-width=".3"/><path d="M31.868 247.679s-1.442 4.8-3.375 4.122c0 0-2.159 4.585-4.579 3.877-4.985-1.464.032-5.781-2.344-6.511-1.458-.445-3.378-1.159-2.337-3.625 1.036-2.464 2.708-4.139-1.634-3.565-4.085.542-3.521-5.221 1.543-6.87 4.633-1.507 1.913-3.492.316-3.379-1.597.114-1.492-2.38 2.609-3.461 4.105-1.083 10.539.343 9.87 3.472-.666 3.128-.069 15.94-.069 15.94z" fill="#F9CB00" stroke="#000" stroke-linecap="round" stroke-linejoin="round" stroke-miterlimit="10" stroke-width=".692"/><path d="M27.602 234.667s-3.206 7.872-3.021 12.543" fill="none" stroke="#000" stroke-linecap="round" stroke-linejoin="round" stroke-miterlimit="10" stroke-width=".3"/><path d="m36.06 227.181 9.627 2.656s1.843.71 1.376 2.055c-.465 1.346-3.718.834-3.7 2.646.016 1.807 9.068 3.52 9.172 6.768.1 3.115-2.92 5.408-4.34 4.589-2.794-1.609-3.562.242-1.738 2.505 1.762 2.197 1.29 4.761-1.685 5.748-2.319.765-1.217 1.461-.86 3.04.36 1.575.3 5.111-2.586 5.435-4.167.466-4.41-3.722-5.883-4.887-1.479-1.163-4.855 1.784-4.815-3.677.041-5.459-.255-7.479-1.665-5.796-.61.734-.679 2.813-2.893 2.242-2.218-.576-1.733-4.81-.29-6.087 1.439-1.28 2.609-2.477 2.349-4.921-.42-3.959 2.224-6.159 1.378-8.199-.838-2.04.58-4.268 4.033-4.362l2.52.245z" fill="#F9CB00" stroke="#000" stroke-linecap="round" stroke-linejoin="round" stroke-miterlimit="10" stroke-width=".692"/><path d="M36.726 237.095s4.833 9.746 3.937 18.992m-4.048-12.289s-1.36 3.449-2.287 4.398m2.97-1.446s-1.378 3.66-2.635 4.871m3.703-1.9s-.638 2.481-2.093 3.869m3.266-.617s-.74 2.197-1.811 3.339m4.243-16.833s-2.61-2.402-3.951-2.604m2.662-.981-3.164-1.879" fill="none" stroke="#000" stroke-linecap="round" stroke-linejoin="round" stroke-miterlimit="10" stroke-width=".3"/><path d="M29.282 218.782s-2.246 4.477-4.034 3.471c0 0-2.912 4.135-5.177 3.008-4.655-2.313 1.025-5.682-1.189-6.819-1.357-.694-3.126-1.732-1.675-3.979 1.445-2.247 3.377-3.604-.995-3.797-4.119-.185-2.569-5.759 2.7-6.495 4.823-.671 2.487-3.104.892-3.271-1.592-.17-1.058-2.61 3.166-2.953 4.229-.347 10.32 2.187 9.122 5.152-1.197 2.964-2.81 15.683-2.81 15.683z" fill="#F9CB00" stroke="#000" stroke-linecap="round" stroke-linejoin="round" stroke-miterlimit="10" stroke-width=".692"/><path d="M27.317 205.223s-4.511 7.189-5.127 11.827" fill="none" stroke="#000" stroke-linecap="round" stroke-linejoin="round" stroke-miterlimit="10" stroke-width=".3"/><path d="m36.933 199.333 9.024 4.303s1.692 1.023 1.004 2.266c-.692 1.248-3.806.17-4.101 1.955-.293 1.783 8.325 5.06 7.871 8.278-.438 3.084-3.806 4.81-5.065 3.756-2.475-2.077-3.547-.389-2.143 2.164 1.358 2.47.453 4.911-2.646 5.363-2.418.351-1.45 1.228-1.371 2.842.081 1.617-.585 5.089-3.482 4.903-4.183-.275-3.7-4.438-4.955-5.847-1.255-1.405-5.087.908-4.109-4.464.98-5.371 1.036-7.413-.644-6-.725.612-1.151 2.652-3.234 1.698-2.085-.952-.881-5.04.761-6.043 1.64-1.004 2.996-1.982 3.16-4.439.264-3.967 3.248-5.671 2.769-7.826-.476-2.158 1.304-4.105 4.721-3.593l2.44.684z" fill="#F9CB00" stroke="#000" stroke-linecap="round" stroke-linejoin="round" stroke-miterlimit="10" stroke-width=".692"/><path d="M35.887 209.213s3.083 10.444.609 19.395m-1.869-12.814s-1.933 3.156-3.012 3.928m3.173-.9s-1.986 3.36-3.431 4.331m3.975-1.219s-1.058 2.329-2.732 3.44m3.328-.028s-1.111 2.028-2.359 2.965m7.074-15.83s-2.159-2.828-3.443-3.26m2.786-.496-2.791-2.406" fill="none" stroke="#000" stroke-linecap="round" stroke-linejoin="round" stroke-miterlimit="10" stroke-width=".3"/><path d="M31.882 189.572s-2.982 4.017-4.571 2.715c0 0-3.578 3.56-5.614 2.055-4.189-3.095 1.987-5.418.002-6.925-1.218-.922-2.781-2.256-.968-4.214 1.811-1.957 3.947-2.954-.326-3.914-4.025-.904-1.542-6.122 3.775-5.922 4.865.186 2.981-2.622 1.44-3.067-1.54-.445-.597-2.75 3.626-2.351 4.222.402 9.788 3.962 8.095 6.673-1.685 2.71-5.459 14.95-5.459 14.95z" fill="#F9CB00" stroke="#000" stroke-linecap="round" stroke-linejoin="round" stroke-miterlimit="10" stroke-width=".692"/><path d="M32.277 175.879s-5.676 6.288-7.086 10.743" fill="none" stroke="#000" stroke-linecap="round" stroke-linejoin="round" stroke-miterlimit="10" stroke-width=".3"/><path d="m42.759 171.763 8.149 5.822s1.488 1.304.596 2.407c-.894 1.107-3.776-.5-4.373 1.205-.596 1.706 7.331 6.443 6.328 9.535-.961 2.96-4.574 4.067-5.63 2.811-2.084-2.48-3.431-1.004-2.484 1.753.91 2.673-.402 4.917-3.527 4.816-2.443-.076-1.641.956-1.841 2.561-.197 1.606-1.451 4.912-4.272 4.216-4.073-1.002-2.877-5.019-3.873-6.624-.993-1.605-5.166 0-3.278-5.117 1.889-5.117 2.292-7.12.397-6.022-.821.475-1.593 2.411-3.479 1.104-1.888-1.303 0-5.119 1.789-5.818 1.788-.702 3.292-1.425 3.877-3.815.943-3.863 4.172-5.017 4.071-7.227-.097-2.207 1.992-3.812 5.269-2.706l2.281 1.099z" fill="#F9CB00" stroke="#000" stroke-linecap="round" stroke-linejoin="round" stroke-miterlimit="10" stroke-width=".692"/><path d="M40.028 181.309s1.241 10.827-2.73 19.206m.359-12.948s-2.447 2.772-3.64 3.342m3.281-.328s-2.534 2.961-4.124 3.664m4.124-.507s-1.443 2.109-3.281 2.91m3.281.555s-1.443 1.805-2.833 2.506m9.686-14.347s-1.64-3.161-2.831-3.814m2.834-.002-2.338-2.858" fill="none" stroke="#000" stroke-linecap="round" stroke-linejoin="round" stroke-miterlimit="10" stroke-width=".3"/><path d="M39.155 162.269s-3.625 3.429-4.966 1.867c0 0-4.135 2.879-5.883 1.042-3.592-3.786 2.888-4.989 1.19-6.822-1.039-1.119-2.348-2.709-.226-4.317 2.119-1.61 4.395-2.217.353-3.912-3.807-1.597-.465-6.301 4.734-5.169 4.761 1.034 3.387-2.06 1.946-2.767-1.438-.708-.114-2.814 3.973-1.679 4.093 1.135 8.959 5.62 6.827 7.99-2.125 2.371-7.948 13.767-7.948 13.767z" fill="#F9CB00" stroke="#000" stroke-linecap="round" stroke-linejoin="round" stroke-miterlimit="10" stroke-width=".692"/><path d="M41.901 148.848s-6.676 5.197-8.827 9.339" fill="none" stroke="#000" stroke-linecap="round" stroke-linejoin="round" stroke-miterlimit="10" stroke-width=".3"/><path d="m52.929 146.634 7.025 7.164s1.244 1.543.172 2.474c-1.07.932-3.633-1.155-4.513.422-.881 1.575 6.11 7.629 4.592 10.497-1.456 2.745-5.204 3.202-6.027 1.778-1.626-2.806-3.204-1.59-2.749 1.293.44 2.79-1.236 4.772-4.3 4.126-2.393-.505-1.779.65-2.253 2.195-.469 1.547-2.273 4.583-4.932 3.402-3.837-1.704-1.972-5.445-2.676-7.2-.704-1.757-5.088-.909-2.35-5.617 2.739-4.708 3.485-6.608 1.429-5.857-.892.32-1.983 2.092-3.614.474-1.637-1.614.878-5.038 2.76-5.416 1.882-.379 3.485-.828 4.473-3.075 1.594-3.639 4.97-4.209 5.251-6.401.283-2.193 2.614-3.407 5.652-1.745l2.06 1.486z" fill="#F9CB00" stroke="#000" stroke-linecap="round" stroke-linejoin="round" stroke-miterlimit="10" stroke-width=".692"/><path d="M48.599 155.554s-.638 10.881-5.993 18.439m2.58-12.689s-2.886 2.302-4.157 2.656m3.286.248s-3.004 2.471-4.693 2.884m4.15.228s-1.781 1.822-3.73 2.289m3.134 1.121s-1.73 1.526-3.219 1.972m12.004-12.431s-1.071-3.402-2.133-4.252m2.792.497-1.809-3.225" fill="none" stroke="#000" stroke-linecap="round" stroke-linejoin="round" stroke-miterlimit="10" stroke-width=".3"/><path d="M51.44 135.979s-4.162 2.743-5.212.968c0 0-4.568 2.11-5.972-.005-2.889-4.356 3.701-4.408 2.343-6.509-.831-1.285-1.849-3.08.521-4.293 2.363-1.213 4.71-1.412 1.019-3.789-3.478-2.241.622-6.285 5.552-4.26 4.508 1.854 3.688-1.434 2.391-2.384-1.295-.953.374-2.792 4.206-.958 3.834 1.835 7.855 7.105 5.349 9.068-2.505 1.962-10.197 12.162-10.197 12.162z" fill="#F9CB00" stroke="#000" stroke-linecap="round" stroke-linejoin="round" stroke-miterlimit="10" stroke-width=".692"/><path d="M56.45 123.243s-7.465 3.952-10.297 7.652" fill="none" stroke="#000" stroke-linecap="round" stroke-linejoin="round" stroke-miterlimit="10" stroke-width=".3"/><path d="m67.692 122.997 5.688 8.284s.959 1.743-.255 2.472c-1.213.728-3.378-1.777-4.517-.378-1.139 1.396 4.705 8.583 2.717 11.141-1.905 2.45-5.678 2.245-6.243.696-1.116-3.05-2.883-2.127-2.929.792-.045 2.824-2.038 4.483-4.946 3.307-2.268-.916-1.862.33-2.593 1.768-.73 1.44-3.03 4.113-5.443 2.485-3.487-2.348-1.009-5.711-1.397-7.561-.391-1.85-4.855-1.788-1.348-5.943 3.508-4.156 4.565-5.897 2.412-5.519-.93.163-2.311 1.712-3.641-.166-1.334-1.878 1.732-4.809 3.65-4.851 1.918-.042 3.576-.202 4.934-2.242 2.194-3.306 5.62-3.275 6.274-5.384.653-2.109 3.159-2.898 5.867-.726l1.77 1.825z" fill="#F9CB00" stroke="#000" stroke-linecap="round" stroke-linejoin="round" stroke-miterlimit="10" stroke-width=".692"/><path d="M61.897 131.024s-2.501 10.603-9.072 17.106m4.72-12.043s-3.235 1.759-4.551 1.884m3.194.821s-3.384 1.907-5.114 2.02m4.045.951s-2.07 1.484-4.067 1.601m2.895 1.651s-1.968 1.201-3.511 1.38m13.96-10.139s-.468-3.534-1.371-4.56m2.664.978-1.23-3.493" fill="none" stroke="#000" stroke-linecap="round" stroke-linejoin="round" stroke-miterlimit="10" stroke-width=".3"/><path d="M68.252 112.365s-4.569 1.974-5.3.042c0 0-4.863 1.277-5.882-1.054-2.091-4.795 4.402-3.692 3.429-5.997-.598-1.412-1.292-3.357 1.252-4.136 2.534-.784 4.879-.569 1.654-3.555-3.037-2.816 1.695-6.082 6.199-3.221 4.124 2.614 3.88-.766 2.766-1.93-1.112-1.161.847-2.685 4.303-.205 3.46 2.48 6.515 8.375 3.713 9.869-2.803 1.494-12.134 10.187-12.134 10.187z" fill="#F9CB00" stroke="#000" stroke-linecap="round" stroke-linejoin="round" stroke-miterlimit="10" stroke-width=".692"/><path d="M75.377 100.705s-8.028 2.579-11.454 5.728" fill="none" stroke="#000" stroke-linecap="round" stroke-linejoin="round" stroke-miterlimit="10" stroke-width=".3"/><path d="m86.49 102.435 4.178 9.155s.644 1.882-.677 2.387c-1.321.505-3.021-2.341-4.384-1.166-1.358 1.176 3.159 9.282.76 11.45-2.296 2.078-5.976 1.215-6.267-.409-.575-3.2-2.474-2.602-3.02.266-.533 2.774-2.78 4.059-5.438 2.391-2.077-1.3-1.896-.001-2.861 1.288-.965 1.291-3.687 3.518-5.785 1.492-3.033-2.924-.011-5.8-.077-7.691-.066-1.893-4.476-2.608-.308-6.088 4.171-3.479 5.513-5.008 3.328-5.014-.947-.005-2.57 1.285-3.559-.8-.989-2.084 2.533-4.432 4.43-4.139 1.895.296 3.556.43 5.243-1.344 2.731-2.87 6.1-2.239 7.104-4.202 1.007-1.96 3.61-2.296 5.9.315l1.433 2.109z" fill="#F9CB00" stroke="#000" stroke-linecap="round" stroke-linejoin="round" stroke-miterlimit="10" stroke-width=".692"/><path d="M79.402 109.321s-4.285 10.005-11.876 15.254m6.722-11.03s-3.49 1.163-4.808 1.057m3.007 1.371s-3.662 1.282-5.388 1.09m3.823 1.646s-2.293 1.095-4.281.865m2.568 2.132s-2.146.838-3.697.743m15.493-7.535s.145-3.565-.567-4.732m2.455 1.43-.607-3.657" fill="none" stroke="#000" stroke-linecap="round" stroke-linejoin="round" stroke-miterlimit="10" stroke-width=".3"/><path d="M88.168 92.613s-4.835 1.139-5.224-.892c0 0-5.007.407-5.609-2.068-1.236-5.091 4.97-2.863 4.408-5.302-.346-1.499-.695-3.536 1.94-3.859 2.633-.322 4.905.3 2.241-3.207-2.509-3.308 2.715-5.69 6.66-2.087 3.61 3.3 3.952-.071 3.054-1.413-.894-1.342 1.296-2.495 4.277.553 2.979 3.05 4.974 9.391 1.956 10.368-3.016.978-13.703 7.907-13.703 7.907z" fill="#F9CB00" stroke="#000" stroke-linecap="round" stroke-linejoin="round" stroke-miterlimit="10" stroke-width=".692"/><path d="M97.192 82.376s-8.351 1.132-12.267 3.633" fill="none" stroke="#000" stroke-linecap="round" stroke-linejoin="round" stroke-miterlimit="10" stroke-width=".3"/><path d="m107.84 86.029 2.535 9.751s.312 1.965-1.075 2.231c-1.388.267-2.572-2.834-4.113-1.917-1.544.919 1.514 9.693-1.221 11.411-2.622 1.644-6.096.146-6.105-1.503-.016-3.251-1.985-2.995-3.018-.267-1.002 2.639-3.436 3.509-5.767 1.401-1.823-1.645-1.864-.336-3.038.766-1.175 1.102-4.237 2.819-5.958.456-2.481-3.414.987-5.715 1.25-7.59.257-1.873-3.957-3.355.744-6.048 4.705-2.694 6.288-3.963 4.138-4.354-.931-.169-2.754.811-3.368-1.413-.614-2.226 3.256-3.92 5.075-3.297 1.817.624 3.429 1.048 5.394-.403 3.183-2.35 6.392-1.138 7.722-2.894 1.327-1.753 3.947-1.629 5.758 1.346l1.047 2.324z" fill="#F9CB00" stroke="#000" stroke-linecap="round" stroke-linejoin="round" stroke-miterlimit="10" stroke-width=".692"/><path d="M99.673 91.568s-5.938 9.102-14.315 12.942m8.511-9.686s-3.633.536-4.913.199m2.724 1.875s-3.825.624-5.492.128m3.479 2.293s-2.445.679-4.361.1m2.158 2.551s-2.253.449-3.766.084m16.552-4.702s.759-3.486.26-4.761m2.169 1.838.031-3.706" fill="none" stroke="#000" stroke-linecap="round" stroke-linejoin="round" stroke-miterlimit="10" stroke-width=".3"/><path d="M111.855 74.98s-4.959.276-4.992-1.794c0 0-4.998-.477-5.168-3.022-.344-5.229 5.386-1.946 5.252-4.448-.084-1.538-.076-3.602 2.575-3.458 2.646.142 4.778 1.153 2.761-2.768-1.903-3.694 3.649-5.126 6.916-.885 2.988 3.881 3.907.621 3.252-.856-.651-1.479 1.704-2.232 4.113 1.293 2.412 3.524 3.284 10.12.147 10.554-3.143.436-14.856 5.384-14.856 5.384z" fill="#F9CB00" stroke="#000" stroke-linecap="round" stroke-linejoin="round" stroke-miterlimit="10" stroke-width=".692"/><path d="M122.5 66.483s-8.42-.351-12.704 1.425" fill="none" stroke="#000" stroke-linecap="round" stroke-linejoin="round" stroke-miterlimit="10" stroke-width=".3"/><path d="m132.359 71.948.822 10.045s-.029 1.992-1.441 2.01c-1.412.018-2.046-3.244-3.727-2.607-1.675.634-.172 9.811-3.159 11.022-2.865 1.16-6.028-.923-5.753-2.55.542-3.202-1.443-3.297-2.929-.791-1.438 2.422-3.987 2.852-5.921.368-1.511-1.94-1.778-.657-3.121.221-1.349.88-4.659 2.031-5.944-.596-1.857-3.794 1.953-5.455 2.532-7.254.579-1.803-3.322-3.998 1.773-5.828 5.097-1.828 6.876-2.801 4.822-3.561-.888-.331-2.847.317-3.072-1.982-.224-2.298 3.881-3.291 5.563-2.357 1.681.931 3.197 1.63 5.383.549 3.537-1.754 6.489.001 8.097-1.495 1.611-1.494 4.17-.912 5.441 2.334l.634 2.472z" fill="#F9CB00" stroke="#000" stroke-linecap="round" stroke-linejoin="round" stroke-miterlimit="10" stroke-width=".692"/><path d="M123.362 75.97s-7.411 7.918-16.321 10.232m10.049-8.044s-3.672-.111-4.873-.667m2.357 2.325s-3.872-.057-5.427-.835m3.03 2.867s-2.523.239-4.313-.664m1.687 2.89s-2.296.047-3.723-.58m17.111-1.727s1.343-3.302 1.072-4.645m1.822 2.192.667-3.646" fill="none" stroke="#000" stroke-linecap="round" stroke-linejoin="round" stroke-miterlimit="10" stroke-width=".3"/><path d="M137.587 62.727s-4.932-.599-4.608-2.641c0 0-4.846-1.348-4.572-3.884.561-5.21 5.64-.972 5.938-3.458.183-1.526.547-3.563 3.13-2.956 2.585.604 4.508 1.977 3.196-2.241-1.241-3.97 4.477-4.408 6.963.341 2.273 4.347 3.739 1.297 3.349-.273-.385-1.57 2.067-1.898 3.831 1.996 1.77 3.896 1.495 10.543-1.672 10.42-3.167-.124-15.555 2.696-15.555 2.696z" fill="#F9CB00" stroke="#000" stroke-linecap="round" stroke-linejoin="round" stroke-miterlimit="10" stroke-width=".692"/><path d="M149.533 56.228s-8.232-1.824-12.758-.824" fill="none" stroke="#000" stroke-linecap="round" stroke-linejoin="round" stroke-miterlimit="10" stroke-width=".3"/><path d="m158.301 63.338-.916 10.036s-.375 1.955-1.767 1.727c-1.396-.229-1.458-3.551-3.221-3.221-1.762.333-1.859 9.632-5.012 10.3-3.018.639-5.774-1.968-5.225-3.521 1.086-3.06-.853-3.5-2.748-1.295-1.832 2.136-4.414 2.111-5.89-.675-1.156-2.175-1.639-.959-3.114-.329-1.478.629-4.938 1.184-5.75-1.63-1.178-4.065 2.861-5.026 3.738-6.699.88-1.675-2.582-4.521 2.749-5.426 5.335-.91 7.253-1.555 5.364-2.664-.819-.479-2.86-.185-2.686-2.49.172-2.303 4.385-2.561 5.884-1.345 1.495 1.213 2.866 2.165 5.207 1.482 3.784-1.105 6.389 1.143 8.233-.05 1.843-1.189 4.264-.167 4.952 3.254l.202 2.546z" fill="#F9CB00" stroke="#000" stroke-linecap="round" stroke-linejoin="round" stroke-miterlimit="10" stroke-width=".692"/><path d="M148.75 65.719s-8.66 6.501-17.832 7.215m11.277-6.159s-3.599-.754-4.684-1.512m1.924 2.705s-3.807-.738-5.205-1.775m2.495 3.356s-2.528-.211-4.134-1.413m1.164 3.143s-2.271-.359-3.564-1.224m17.143 1.298s1.892-3.012 1.854-4.384m1.42 2.476 1.28-3.47" fill="none" stroke="#000" stroke-linecap="round" stroke-linejoin="round" stroke-miterlimit="10" stroke-width=".3"/><path d="M166.081 56.246s-4.754-1.455-4.083-3.41c0 0-4.537-2.175-3.834-4.624 1.446-5.034 5.72.033 6.443-2.367.439-1.472 1.147-3.411 3.59-2.359 2.439 1.046 4.097 2.735 3.53-1.647-.536-4.129 5.167-3.557 6.798 1.556 1.493 4.682 3.457 1.936 3.347.317-.113-1.612 2.357-1.506 3.43 2.638 1.07 4.146-.34 10.646-3.44 9.968-3.097-.673-15.781-.072-15.781-.072z" fill="#F9CB00" stroke="#000" stroke-linecap="round" stroke-linejoin="round" stroke-miterlimit="10" stroke-width=".692"/><path d="M178.961 51.938s-7.795-3.24-12.421-3.051" fill="none" stroke="#000" stroke-linecap="round" stroke-linejoin="round" stroke-miterlimit="10" stroke-width=".3"/><path d="m186.375 60.481-2.63 9.724s-.702 1.858-2.035 1.389c-1.333-.47-.823-3.755-2.618-3.738-1.793.018-3.486 9.162-6.704 9.264-3.083.103-5.352-2.949-4.543-4.383 1.594-2.823-.239-3.596-2.481-1.757-2.172 1.782-4.712 1.304-5.688-1.699-.764-2.345-1.448-1.229-3.007-.869-1.564.36-5.067.3-5.383-2.615-.461-4.209 3.684-4.45 4.833-5.942 1.155-1.494-1.764-4.904 3.64-4.862 5.409.039 7.412-.258 5.743-1.682-.725-.617-2.787-.685-2.219-2.923.566-2.237 4.762-1.751 6.026-.292 1.266 1.457 2.451 2.637 4.874 2.373 3.916-.424 6.093 2.246 8.117 1.394 2.015-.847 4.225.582 4.318 4.072l-.243 2.546z" fill="#F9CB00" stroke="#000" stroke-linecap="round" stroke-linejoin="round" stroke-miterlimit="10" stroke-width=".692"/><path d="M176.561 61.152s-9.651 4.883-18.806 3.976m12.17-4.086s-3.415-1.371-4.355-2.311m1.43 3s-3.622-1.394-4.819-2.662m1.879 3.741s-2.455-.646-3.828-2.114m.604 3.298s-2.174-.75-3.3-1.829m16.662 4.286s2.383-2.637 2.582-3.989m.97 2.684 1.858-3.194" fill="none" stroke="#000" stroke-linecap="round" stroke-linejoin="round" stroke-miterlimit="10" stroke-width=".3"/><path d="M193.967 55.076s-4.43-2.267-3.437-4.074c0 0-4.095-2.938-2.979-5.226 2.29-4.703 5.63 1.034 6.752-1.202.685-1.373 1.719-3.158 3.941-1.692 2.222 1.459 3.568 3.41 3.759-1.005.181-4.16 5.698-2.598 6.432 2.726.664 4.872 3.073 2.513 3.237.899.166-1.608 2.585-1.07 2.923 3.2.347 4.271-2.16 10.422-5.098 9.213-2.935-1.209-15.53-2.839-15.53-2.839z" fill="#F9CB00" stroke="#000" stroke-linecap="round" stroke-linejoin="round" stroke-miterlimit="10" stroke-width=".692"/><path d="M207.395 53.093s-7.118-4.556-11.707-5.182" fill="none" stroke="#000" stroke-linecap="round" stroke-linejoin="round" stroke-miterlimit="10" stroke-width=".3"/><path d="m213.225 62.807-4.259 9.114s-1.015 1.707-2.243 1.012c-1.234-.7-.167-3.845-1.936-4.14-1.767-.296-5.007 8.41-8.195 7.95-3.055-.443-4.759-3.845-3.72-5.115 2.056-2.5.383-3.583-2.146-2.165-2.442 1.373-4.861.458-5.308-2.673-.349-2.442-1.214-1.466-2.813-1.383-1.603.081-5.043-.593-4.852-3.521.271-4.224 4.393-3.735 5.783-5.004 1.394-1.266-.897-5.138 4.422-4.148s7.339 1.046 5.938-.649c-.604-.734-2.622-1.164-1.679-3.268.943-2.106 4.99-.891 5.984.768.994 1.656 1.96 3.025 4.391 3.194 3.932.268 5.615 3.277 7.754 2.794 2.138-.481 4.062 1.314 3.558 4.77l-.679 2.464z" fill="#F9CB00" stroke="#000" stroke-linecap="round" stroke-linejoin="round" stroke-miterlimit="10" stroke-width=".692"/><path d="M203.446 61.746s-10.344 3.116-19.202.619m12.685-1.892s-3.131-1.949-3.889-3.04m.888 3.206s-3.324-2.007-4.286-3.466m1.205 4.015s-2.305-1.07-3.404-2.755m.031 3.356s-2.014-1.12-2.938-2.38m15.672 7.142s2.798-2.179 3.228-3.48m.491 2.82 2.383-2.822" fill="none" stroke="#000" stroke-linecap="round" stroke-linejoin="round" stroke-miterlimit="10" stroke-width=".3"/><path d="M222.147 57.587s-3.979-3.01-2.686-4.612c0 0-3.524-3.612-2.038-5.67 3.069-4.231 5.363 2.002 6.858 0 .912-1.23 2.233-2.811 4.172-.976 1.939 1.826 2.927 3.986 3.873-.329.896-4.068 6.06-1.558 5.861 3.813-.183 4.914 2.601 3.01 3.038 1.452.442-1.555 2.729-.603 2.328 3.663-.394 4.266-3.922 9.886-6.604 8.178-2.68-1.703-14.802-5.519-14.802-5.519z" fill="#F9CB00" stroke="#000" stroke-linecap="round" stroke-linejoin="round" stroke-miterlimit="10" stroke-width=".692"/><path d="M235.708 57.991s-6.229-5.735-10.645-7.155" fill="none" stroke="#000" stroke-linecap="round" stroke-linejoin="round" stroke-miterlimit="10" stroke-width=".3"/><path d="m239.782 68.58-5.765 8.23s-1.29 1.501-2.382.601c-1.098-.903.495-3.813-1.198-4.416-1.686-.602-6.372 7.406-9.434 6.391-2.933-.97-4.03-4.623-2.786-5.688 2.458-2.103.997-3.464-1.74-2.507-2.646.922-4.864-.404-4.765-3.564.076-2.467-.945-1.656-2.534-1.858-1.591-.2-4.862-1.467-4.173-4.315.996-4.112 4.968-2.909 6.556-3.914 1.591-1.004 0-5.217 5.07-3.311 5.065 1.907 7.05 2.317 5.957.4-.469-.827-2.38-1.604-1.095-3.512 1.298-1.907 5.07 0 5.768 1.808.693 1.804 1.409 3.324 3.771 3.913 3.828.953 4.975 4.214 7.156 4.114 2.188-.1 3.775 2.008 2.684 5.318l-1.09 2.31z" fill="#F9CB00" stroke="#000" stroke-linecap="round" stroke-linejoin="round" stroke-miterlimit="10" stroke-width=".692"/><path d="M230.33 65.819s-10.72 1.255-19.016-2.759m12.819.363s-2.747-2.469-3.309-3.673m.326 3.31s-2.933-2.558-3.624-4.166m.496 4.166s-2.087-1.458-2.881-3.311m-.55 3.311s-1.784-1.456-2.482-2.859m14.209 9.781s3.13-1.653 3.775-2.86m.002 2.86 2.827-2.358" fill="none" stroke="#000" stroke-linecap="round" stroke-linejoin="round" stroke-miterlimit="10" stroke-width=".3"/><path d="M250.184 64.672s-3.401-3.663-1.854-5.015c0 0-2.852-4.178-1.034-5.943 3.749-3.628 4.941 2.916 6.757 1.205 1.104-1.05 2.683-2.373 4.276-.23 1.596 2.14 2.194 4.438 3.87.358 1.581-3.849 6.238-.473 5.119 4.78-1.026 4.806 2.033 3.42 2.742 1.964.703-1.452 2.783-.113 1.659 4.016-1.124 4.133-5.564 9.047-7.912 6.896-2.351-2.151-13.623-8.031-13.623-8.031z" fill="#F9CB00" stroke="#000" stroke-linecap="round" stroke-linejoin="round" stroke-miterlimit="10" stroke-width=".692"/><path d="M263.467 67.444s-5.144-6.741-9.249-8.912" fill="none" stroke="#000" stroke-linecap="round" stroke-linejoin="round" stroke-miterlimit="10" stroke-width=".3"/><path d="m265.654 78.586-7.086 7.094s-1.532 1.253-2.451.172c-.921-1.08 1.146-3.665-.42-4.556-1.56-.89-7.549 6.17-10.391 4.639-2.72-1.47-3.171-5.26-1.762-6.091 2.778-1.64 1.574-3.235-1.277-2.775-2.764.445-4.731-1.251-4.086-4.344.498-2.416-.65-1.795-2.175-2.273-1.532-.476-4.54-2.299-3.37-4.982 1.687-3.878 5.391-1.994 7.131-2.705 1.739-.709.899-5.139 5.557-2.371 4.665 2.767 6.544 3.519 5.809 1.441-.33-.899-2.08-2.001-.475-3.65 1.599-1.653 4.985.887 5.359 2.787.381 1.901.82 3.523 3.044 4.52 3.606 1.606 4.169 5.02 6.344 5.305 2.167.285 3.37 2.639 1.726 5.709l-1.477 2.08z" fill="#F9CB00" stroke="#000" stroke-linecap="round" stroke-linejoin="round" stroke-miterlimit="10" stroke-width=".692"/><path d="M256.826 74.213s-10.771-.648-18.256-6.055m12.564 2.605s-2.277-2.91-2.627-4.199m-.249 3.322s-2.446-3.037-2.856-4.739m-.228 4.188s-1.803-1.8-2.265-3.767m-1.109 3.166s-1.511-1.747-1.953-3.254m12.309 12.129s3.37-1.081 4.213-2.156m-.494 2.819 3.194-1.828" fill="none" stroke="#000" stroke-linecap="round" stroke-linejoin="round" stroke-miterlimit="10" stroke-width=".3"/><path d="M276.254 77.585s-2.718-4.202-.958-5.262c0 0-2.092-4.614.005-6.033 4.311-2.916 4.361 3.738 6.441 2.37 1.272-.839 3.052-1.867 4.254.524 1.2 2.387 1.4 4.757 3.751 1.031 2.216-3.512 6.224.627 4.22 5.608-1.835 4.553 1.417 3.724 2.358 2.413.94-1.31 2.766.377.95 4.247-1.817 3.872-7.037 7.934-8.978 5.405-1.946-2.532-12.043-10.303-12.043-10.303z" fill="#F9CB00" stroke="#000" stroke-linecap="round" stroke-linejoin="round" stroke-miterlimit="10" stroke-width=".692"/><path d="M288.861 82.646s-3.91-7.54-7.573-10.397" fill="none" stroke="#000" stroke-linecap="round" stroke-linejoin="round" stroke-miterlimit="10" stroke-width=".3"/><path d="m289.105 94.003-8.206 5.744s-1.72.966-2.443-.259c-.721-1.227 1.76-3.412.377-4.563-1.386-1.148-8.502 4.755-11.035 2.746-2.427-1.925-2.219-5.734-.685-6.307 3.016-1.128 2.106-2.91-.784-2.958-2.798-.047-4.44-2.059-3.277-4.994.904-2.292-.329-1.884-1.752-2.623-1.425-.736-4.068-3.055-2.463-5.498 2.329-3.519 5.659-1.014 7.492-1.41 1.83-.396 1.767-4.904 5.882-1.361 4.117 3.547 5.84 4.612 5.466 2.438-.164-.942-1.698-2.333.164-3.677 1.859-1.349 4.762 1.751 4.799 3.688.044 1.938.2 3.61 2.221 4.98 3.279 2.217 3.245 5.677 5.332 6.337 2.09.662 2.869 3.191.719 5.926l-1.807 1.791z" fill="#F9CB00" stroke="#000" stroke-linecap="round" stroke-linejoin="round" stroke-miterlimit="10" stroke-width=".692"/><path d="M281.161 88.147s-10.5-2.522-16.941-9.164m11.927 4.768s-1.747-3.267-1.867-4.594m-.812 3.226s-1.891-3.417-1.999-5.166m-.942 4.085s-1.472-2.089-1.586-4.105m-1.633 2.921s-1.192-1.988-1.373-3.546m10.043 14.102s3.504-.477 4.511-1.384m-.965 2.687 3.462-1.24" fill="none" stroke="#000" stroke-linecap="round" stroke-linejoin="round" stroke-miterlimit="10" stroke-width=".3"/><path d="M300.337 94.164s-1.952-4.61-.041-5.35c0 0-1.264-4.91 1.043-5.939 4.748-2.115 3.653 4.443 5.938 3.464 1.399-.604 3.328-1.306 4.098 1.26.772 2.563.56 4.929 3.517 1.674 2.785-3.07 6.021 1.711 3.188 6.261-2.59 4.163.755 3.92 1.911 2.792 1.153-1.124 2.658.855.202 4.35-2.453 3.495-8.293 6.578-9.767 3.747-1.479-2.834-10.089-12.259-10.089-12.259z" fill="#F9CB00" stroke="#000" stroke-linecap="round" stroke-linejoin="round" stroke-miterlimit="10" stroke-width=".692"/><path d="M311.883 101.362s-2.554-8.111-5.669-11.569" fill="none" stroke="#000" stroke-linecap="round" stroke-linejoin="round" stroke-miterlimit="10" stroke-width=".3"/><path d="m310.168 112.589-9.063 4.216s-1.862.649-2.36-.684c-.503-1.333 2.316-3.048 1.151-4.428-1.166-1.372-9.19 3.195-11.336.771-2.061-2.322-1.2-6.037.405-6.333 3.165-.58 2.573-2.495-.264-3.049-2.749-.537-4.02-2.808-2.365-5.492 1.287-2.1 0-1.911-1.278-2.89-1.273-.974-3.481-3.725-1.474-5.845 2.896-3.059 5.737-.011 7.612-.076 1.874-.068 2.582-4.52 6.03-.308 3.445 4.211 4.956 5.564 4.958 3.358.005-.957-1.266-2.595.794-3.596 2.061-1 4.387 2.559 4.099 4.477-.289 1.914-.426 3.591 1.331 5.295 2.845 2.758 2.217 6.158 4.159 7.173 1.94 1.02 2.274 3.646-.313 5.962l-2.086 1.449z" fill="#F9CB00" stroke="#000" stroke-linecap="round" stroke-linejoin="round" stroke-miterlimit="10" stroke-width=".692"/><path d="M303.353 105.426s-9.903-4.327-15.104-11.993m10.918 6.787s-1.148-3.522-1.041-4.855m-1.358 3.037s-1.271-3.699-1.083-5.442m-1.627 3.86s-1.088-2.316-.857-4.323m-2.112 2.595s-.829-2.166-.733-3.732m7.46 15.644s3.528.149 4.685-.571m-1.418 2.479 3.619-.613" fill="none" stroke="#000" stroke-linecap="round" stroke-linejoin="round" stroke-miterlimit="10" stroke-width=".3"/><path d="M319.891 114.042s-1.124-4.885.885-5.276c0 0-.403-5.06 2.053-5.668 5.038-1.25 2.829 5.02 5.248 4.454 1.483-.351 3.499-.7 3.817 1.961.322 2.657-.296 4.952 3.179 2.266 3.27-2.533 5.633 2.741 2.067 6.728-3.271 3.644.071 3.991 1.397 3.084 1.327-.904 2.468 1.308-.55 4.317-3.02 3.011-9.295 5.023-10.265 1.979-.97-3.055-7.831-13.845-7.831-13.845z" fill="#F9CB00" stroke="#000" stroke-linecap="round" stroke-linejoin="round" stroke-miterlimit="10" stroke-width=".692"/><path d="M330.03 123.154s-1.117-8.437-3.595-12.388" fill="none" stroke="#000" stroke-linecap="round" stroke-linejoin="round" stroke-miterlimit="10" stroke-width=".3"/><path d="m326.411 133.908-9.652 2.563s-1.942.314-2.206-1.084c-.267-1.403 2.805-2.598 1.896-4.16-.911-1.556-9.598 1.53-11.301-1.23-1.625-2.646-.142-6.155 1.488-6.165 3.223-.016 2.966-2.006.269-3.05-2.612-1.009-3.475-3.469-1.388-5.826 1.627-1.838.332-1.881-.761-3.068-1.087-1.185-2.788-4.279-.449-6.014 3.379-2.506 5.659.996 7.517 1.26 1.852.262 3.318-3.998 5.989.754 2.663 4.75 3.924 6.351 4.308 4.176.169-.939-.807-2.778 1.397-3.398 2.204-.624 3.883 3.289 3.265 5.125-.615 1.834-1.038 3.46.403 5.449 2.319 3.212 1.124 6.451 2.864 7.795 1.734 1.344 1.61 3.988-1.335 5.815l-2.304 1.058z" fill="#F9CB00" stroke="#000" stroke-linecap="round" stroke-linejoin="round" stroke-miterlimit="10" stroke-width=".692"/><path d="M320.932 125.661s-9.015-5.997-12.814-14.46m9.587 8.598s-.528-3.673-.196-4.962m-1.857 2.752s-.613-3.865-.127-5.546m-2.271 3.512s-.675-2.471-.098-4.407m-2.526 2.181s-.447-2.277-.083-3.802m4.655 16.718s3.455.762 4.712.261m-1.822 2.192 3.676.029" fill="none" stroke="#000" stroke-linecap="round" stroke-linejoin="round" stroke-miterlimit="10" stroke-width=".3"/><path d="M337.177 137.747s-.274-5.01 1.773-5.042c0 0 .475-5.052 2.991-5.22 5.181-.348 1.931 5.44 4.408 5.307 1.52-.087 3.567-.078 3.423 2.598-.142 2.676-1.146 4.827 2.739 2.786 3.656-1.919 5.075 3.688.878 6.988-3.844 3.018-.613 3.944.845 3.285 1.467-.659 2.209 1.721-1.277 4.155-3.492 2.436-10.019 3.318-10.449.146-.432-3.173-5.331-15.003-5.331-15.003z" fill="#F9CB00" stroke="#000" stroke-linecap="round" stroke-linejoin="round" stroke-miterlimit="10" stroke-width=".692"/><path d="M345.592 148.5s.345-8.505-1.415-12.832" fill="none" stroke="#000" stroke-linecap="round" stroke-linejoin="round" stroke-miterlimit="10" stroke-width=".3"/><path d="m340.177 158.455-9.945.832s-1.972-.029-1.986-1.458c-.018-1.425 3.206-2.063 2.58-3.762-.633-1.692-9.715-.176-10.918-3.193-1.143-2.891.919-6.086 2.527-5.811 3.177.549 3.267-1.455.787-2.957-2.397-1.453-2.825-4.025-.364-5.979 1.918-1.526.645-1.797-.22-3.155-.87-1.357-2.009-4.703.588-6.001 3.761-1.877 5.405 1.973 7.182 2.558 1.789.583 3.962-3.355 5.77 1.792 1.815 5.146 2.773 6.943 3.528 4.87.328-.898-.313-2.876 1.965-3.102 2.272-.23 3.258 3.92 2.331 5.62-.919 1.698-1.612 3.227-.542 5.437 1.739 3.572 0 6.55 1.48 8.177 1.48 1.629.904 4.211-2.313 5.494l-2.45.638z" fill="#F9CB00" stroke="#000" stroke-linecap="round" stroke-linejoin="round" stroke-miterlimit="10" stroke-width=".692"/><path d="M336.195 149.37s-7.842-7.487-10.131-16.487m7.963 10.151s.112-3.708.662-4.921m-2.299 2.382s.056-3.913.823-5.482m-2.837 3.061s-.234-2.551.66-4.357m-2.862 1.706s-.041-2.322.569-3.762m1.716 17.281s3.267 1.358 4.597 1.083m-2.17 1.838 3.609.675" fill="none" stroke="#000" stroke-linecap="round" stroke-linejoin="round" stroke-miterlimit="10" stroke-width=".3"/><path d="M349.228 163.335s.597-4.981 2.617-4.653c0 0 1.334-4.89 3.844-4.615 5.158.564.961 5.695 3.426 5.998 1.516.18 3.526.55 2.925 3.16-.601 2.607-1.954 4.551 2.222 3.226 3.932-1.252 4.364 4.522-.337 7.032-4.306 2.298-1.286 3.776.269 3.384 1.552-.392 1.882 2.083-1.977 3.87-3.858 1.785-10.435 1.509-10.314-1.691.118-3.201-2.675-15.711-2.675-15.711z" fill="#F9CB00" stroke="#000" stroke-linecap="round" stroke-linejoin="round" stroke-miterlimit="10" stroke-width=".692"/><path d="M355.669 175.4s1.801-8.315.818-12.883" fill="none" stroke="#000" stroke-linecap="round" stroke-linejoin="round" stroke-miterlimit="10" stroke-width=".3"/><path d="m348.625 184.255-9.938-.927s-1.933-.375-1.703-1.782c.223-1.409 3.509-1.472 3.187-3.251-.328-1.779-9.537-1.877-10.199-5.06-.636-3.052 1.949-5.835 3.489-5.279 3.024 1.094 3.46-.862 1.277-2.775-2.113-1.853-2.089-4.458.67-5.953 2.152-1.167.948-1.653.325-3.146-.623-1.49-1.168-4.984 1.62-5.806 4.017-1.187 4.973 2.891 6.627 3.779 1.659.887 4.479-2.61 5.373 2.775.901 5.388 1.539 7.324 2.639 5.416.475-.828.187-2.89 2.464-2.714 2.282.174 2.533 4.434 1.334 5.944-1.2 1.51-2.148 2.897-1.469 5.26 1.097 3.823-1.134 6.455.047 8.315 1.183 1.862.171 4.305-3.216 5.004l-2.527.2z" fill="#F9CB00" stroke="#000" stroke-linecap="round" stroke-linejoin="round" stroke-miterlimit="10" stroke-width=".692"/><path d="M346.264 174.61s-6.434-8.748-7.14-18.014m6.102 11.393s.742-3.632 1.49-4.729m-2.671 1.94s.729-3.842 1.757-5.252m-3.32 2.517s.2-2.556 1.396-4.175m-3.114 1.175s.354-2.294 1.212-3.602m-1.288 17.32s2.986 1.91 4.343 1.871m-2.451 1.432 3.435 1.297" fill="none" stroke="#000" stroke-linecap="round" stroke-linejoin="round" stroke-miterlimit="10" stroke-width=".3"/><path d="M356.611 191.467s1.438-4.803 3.372-4.127c0 0 2.155-4.583 4.581-3.872 4.985 1.462-.031 5.779 2.346 6.508 1.454.443 3.37 1.159 2.331 3.624-1.033 2.468-2.704 4.141 1.635 3.565 4.084-.54 3.52 5.221-1.544 6.869-4.633 1.509-1.916 3.496-.313 3.381 1.598-.115 1.49 2.383-2.612 3.462-4.105 1.083-10.539-.342-9.867-3.471.669-3.131.071-15.939.071-15.939z" fill="#F9CB00" stroke="#000" stroke-linecap="round" stroke-linejoin="round" stroke-miterlimit="10" stroke-width=".692"/><path d="M360.872 204.477s3.206-7.872 3.021-12.546" fill="none" stroke="#000" stroke-linecap="round" stroke-linejoin="round" stroke-miterlimit="10" stroke-width=".3"/><path d="m352.417 211.962-9.628-2.652s-1.84-.711-1.373-2.06c.467-1.347 3.714-.833 3.702-2.643-.022-1.809-9.073-3.52-9.176-6.77-.105-3.114 2.918-5.405 4.337-4.588 2.801 1.611 3.565-.241 1.742-2.507-1.762-2.196-1.292-4.759 1.677-5.744 2.324-.772 1.225-1.465.862-3.042-.354-1.577-.296-5.116 2.593-5.436 4.166-.462 4.403 3.722 5.884 4.885 1.479 1.165 4.855-1.783 4.812 3.677-.036 5.46.259 7.483 1.664 5.796.611-.733.682-2.813 2.898-2.241 2.219.575 1.734 4.812.291 6.087-1.447 1.277-2.615 2.478-2.354 4.922.42 3.955-2.219 6.157-1.378 8.197.835 2.039-.577 4.27-4.032 4.365l-2.521-.246z" fill="#F9CB00" stroke="#000" stroke-linecap="round" stroke-linejoin="round" stroke-miterlimit="10" stroke-width=".692"/><path d="M351.75 202.049s-4.829-9.743-3.935-18.992m4.048 12.29s1.358-3.447 2.287-4.397m-2.972 1.446s1.381-3.659 2.637-4.87m-3.704 1.897s.64-2.477 2.097-3.865m-3.27.613s.74-2.198 1.811-3.336m-4.243 16.829s2.607 2.405 3.951 2.605m-2.658.982 3.159 1.877" fill="none" stroke="#000" stroke-linecap="round" stroke-linejoin="round" stroke-miterlimit="10" stroke-width=".3"/><path d="M359.381 220.17s2.243-4.477 4.029-3.468c0 0 2.913-4.135 5.181-3.012 4.654 2.314-1.031 5.684 1.188 6.823 1.356.691 3.128 1.733 1.679 3.979-1.449 2.245-3.385 3.598.989 3.797 4.125.184 2.578 5.759-2.697 6.494-4.823.671-2.485 3.102-.892 3.271 1.593.169 1.061 2.606-3.167 2.953-4.23.344-10.319-2.188-9.117-5.152 1.19-2.964 2.807-15.685 2.807-15.685z" fill="#F9CB00" stroke="#000" stroke-linecap="round" stroke-linejoin="round" stroke-miterlimit="10" stroke-width=".692"/><path d="M361.343 233.731s4.506-7.189 5.129-11.826" fill="none" stroke="#000" stroke-linecap="round" stroke-linejoin="round" stroke-miterlimit="10" stroke-width=".3"/><path d="m351.723 239.621-9.019-4.303s-1.693-1.021-1.005-2.266c.694-1.244 3.805-.167 4.103-1.953.291-1.787-8.33-5.06-7.873-8.279.436-3.084 3.808-4.808 5.063-3.753 2.476 2.073 3.548.385 2.141-2.165-1.356-2.473-.455-4.914 2.644-5.366 2.419-.349 1.451-1.225 1.376-2.839-.081-1.618.586-5.091 3.478-4.9 4.186.272 3.706 4.436 4.957 5.843 1.259 1.406 5.093-.907 4.11 4.463-.978 5.371-1.033 7.415.641 5.998.73-.61 1.153-2.65 3.24-1.695 2.081.953.877 5.036-.766 6.044-1.637 1.003-2.99 1.982-3.156 4.431-.267 3.974-3.245 5.676-2.769 7.833.477 2.156-1.306 4.106-4.724 3.587l-2.441-.68z" fill="#F9CB00" stroke="#000" stroke-linecap="round" stroke-linejoin="round" stroke-miterlimit="10" stroke-width=".692"/><path d="M352.777 229.741s-3.089-10.443-.611-19.395m1.874 12.813s1.926-3.155 3.003-3.928m-3.169.905s1.984-3.364 3.429-4.335m-3.974 1.218s1.056-2.329 2.728-3.44m-3.322.032s1.107-2.033 2.355-2.968m-7.074 15.83s2.16 2.826 3.448 3.26m-2.791.498 2.791 2.404" fill="none" stroke="#000" stroke-linecap="round" stroke-linejoin="round" stroke-miterlimit="10" stroke-width=".3"/><path d="M356.945 248.645s2.981-4.012 4.572-2.705c0 0 3.577-3.564 5.613-2.059 4.188 3.098-1.989 5.421 0 6.922 1.217.926 2.78 2.261.97 4.215-1.811 1.955-3.949 2.955.32 3.915 4.021.906 1.539 6.123-3.775 5.923" fill="#F9CB00" stroke="#000" stroke-linecap="round" stroke-linejoin="round" stroke-miterlimit="10" stroke-width=".692"/><path d="M356.546 262.346s5.68-6.291 7.087-10.744" fill="none" stroke="#000" stroke-linecap="round" stroke-linejoin="round" stroke-miterlimit="10" stroke-width=".3"/><path d="M335.369 247.491c.963-2.959 4.574-4.066 5.63-2.807 2.084 2.478 3.424 1.001 2.485-1.755-.914-2.672.394-4.919 3.525-4.818 2.439.078 1.638-.954 1.838-2.559.198-1.607 1.451-4.911 4.271-4.214 4.078 1.003 2.886 5.018 3.873 6.623.997 1.605 5.168 0 3.284 5.117-1.892 5.119-2.297 7.118-.398 6.023.818-.474 1.588-2.408 3.475-1.105 1.892 1.307 0 5.119-1.788 5.817-1.784.708-3.287 1.429-3.873 3.815" fill="#F9CB00" stroke="#000" stroke-linecap="round" stroke-linejoin="round" stroke-miterlimit="10" stroke-width=".692"/><path d="M348.798 256.917s-1.241-10.83 2.732-19.207m-.362 12.948s2.451-2.774 3.644-3.347m-3.281.335s2.533-2.961 4.127-3.665m-4.127.502s1.438-2.107 3.281-2.913m-3.281-.549s1.438-1.808 2.826-2.509" fill="none" stroke="#000" stroke-linecap="round" stroke-linejoin="round" stroke-miterlimit="10" stroke-width=".3"/></svg>