<?xml version="1.0" encoding="UTF-8" standalone="no"?>
<!-- Created with Inkscape (http://www.inkscape.org/) -->

<svg
   id="svg2"
   sodipodi:version="0.32"
   inkscape:version="1.3.2 (091e20e, 2023-11-25, custom)"
   width="420"
   height="508.5"
   version="1.0"
   sodipodi:docname="Coat of Arms of Izmalkovo rayon (Lipetsk oblast).svg"
   inkscape:output_extension="org.inkscape.output.svg.inkscape"
   xml:space="preserve"
   xmlns:inkscape="http://www.inkscape.org/namespaces/inkscape"
   xmlns:sodipodi="http://sodipodi.sourceforge.net/DTD/sodipodi-0.dtd"
   xmlns="http://www.w3.org/2000/svg"
   xmlns:svg="http://www.w3.org/2000/svg"
   xmlns:rdf="http://www.w3.org/1999/02/22-rdf-syntax-ns#"
   xmlns:cc="http://creativecommons.org/ns#"
   xmlns:dc="http://purl.org/dc/elements/1.1/"><metadata
     id="metadata7"><rdf:RDF><cc:Work
         rdf:about=""><dc:format>image/svg+xml</dc:format><dc:type
           rdf:resource="http://purl.org/dc/dcmitype/StillImage" /></cc:Work></rdf:RDF></metadata><defs
     id="defs5" /><sodipodi:namedview
     inkscape:window-height="837"
     inkscape:window-width="1600"
     inkscape:pageshadow="2"
     inkscape:pageopacity="0.0"
     guidetolerance="10.0"
     gridtolerance="10.0"
     objecttolerance="10.0"
     borderopacity="1.0"
     bordercolor="#666666"
     pagecolor="#ffffff"
     id="base"
     showgrid="false"
     inkscape:zoom="0.70710678"
     inkscape:cx="182.43355"
     inkscape:cy="212.83914"
     inkscape:window-x="-4"
     inkscape:window-y="-4"
     inkscape:current-layer="svg2"
     inkscape:showpageshadow="false"
     inkscape:pagecheckerboard="0"
     inkscape:deskcolor="#d1d1d1"
     showguides="true"
     inkscape:window-maximized="1" /><path
     id="path2957"
     d="M 1.5,1.5 V 450 c 0,15.732 12.768,28.5 28.5,28.5 h 151.5 c 15.73202,10e-6 28.5,12.768 28.5,28.5 2e-5,-15.73199 12.768,-28.5 28.5,-28.5 H 390 c 15.732,0 28.50003,-12.768 28.5,-28.5 V 1.5 Z"
     style="display:inline;opacity:1;fill:#da251d;fill-opacity:1;fill-rule:nonzero;stroke:#1f1a17;stroke-width:3;stroke-linecap:round;stroke-linejoin:round;stroke-miterlimit:4;stroke-dasharray:none;stroke-dashoffset:0;stroke-opacity:1" /><g
     id="g112"><ellipse
       style="display:inline;fill:#f6d700;fill-opacity:1;stroke:#1f1a17;stroke-width:2;stroke-opacity:1;paint-order:stroke fill markers"
       id="ellipse6"
       cx="210"
       cy="407.30072"
       rx="41.556"
       ry="13.191127" /><path
       id="path6"
       style="display:inline;opacity:1;fill:#eca12b;fill-opacity:1;stroke:none;stroke-width:2;paint-order:stroke fill markers"
       d="m 210,394.10938 a 41.556,13.191127 0 0 0 -31.49414,4.60156 c 1.42732,3.85446 4.0721,8.6676 5.63672,10.21289 4.55938,4.50303 10.00709,8.63601 16.92187,11.24414 A 41.556,13.191127 0 0 0 210,420.49219 41.556,13.191127 0 0 0 251.55664,407.30078 41.556,13.191127 0 0 0 210,394.10938 Z" /><path
       id="path5"
       style="display:inline;fill:#f6d700;fill-opacity:1;stroke:#1f1a17;stroke-width:2;stroke-opacity:1;paint-order:stroke fill markers"
       d="m 284.12016,321.35867 c 5.49788,39.10485 -33.13093,92.51346 -74,92.51346 -40.86907,0 -80.78545,-56.59435 -74,-96.57932 4.92838,-29.0417 33.01077,-48.4887 73.87984,-48.4887 40.86907,0 69.90347,22.56242 74.12016,52.55456 z"
       sodipodi:nodetypes="asaza" /><path
       id="path4"
       style="display:inline;opacity:1;fill:#eca12b;fill-opacity:1;stroke:none;stroke-width:2;paint-order:stroke fill markers"
       d="m 210,268.80469 c -1.46805,0 -2.91512,0.0295 -4.34766,0.082 -0.15347,0.005 -0.30394,0.0137 -0.45703,0.0195 -1.34904,0.0545 -2.68719,0.12739 -4.00781,0.22266 -0.01,6.9e-4 -0.0196,10e-4 -0.0293,0.002 31.71367,4.19165 53.44284,21.87936 56.98828,44.39453 5.3134,33.74241 -31.92958,80.44141 -71.53515,80.44141 -11.696,-0.8108 -11.25547,-0.0836 -5.05469,11.21875 9.01682,5.44226 18.69928,8.6875 28.44336,8.6875 40.86903,0 79.48289,-53.40676 74,-92.51367 -0.26263,-1.87322 -0.62138,-3.71741 -1.07422,-5.5293 -0.22631,-0.90565 -0.47539,-1.80247 -0.74805,-2.69141 -0.81797,-2.66681 -1.84339,-5.2562 -3.06445,-7.75586 -0.81404,-1.66644 -1.71579,-3.29214 -2.70117,-4.875 -0.98564,-1.58328 -2.05425,-3.12302 -3.20508,-4.61523 -0.57523,-0.74592 -1.16982,-1.4794 -1.78515,-2.20117 -0.61564,-0.72213 -1.25126,-1.43189 -1.90626,-2.12891 -0.65434,-0.69636 -1.32863,-1.37845 -2.02148,-2.04883 -0.6932,-0.67069 -1.40575,-1.3289 -2.13672,-1.97265 -2.19289,-1.93126 -4.55358,-3.74001 -7.07226,-5.41211 -2.51869,-1.67211 -5.19614,-3.20784 -8.01954,-4.59571 -1.88226,-0.92524 -3.82995,-1.78459 -5.83984,-2.57422 -2.00988,-0.78962 -4.08163,-1.50968 -6.21289,-2.15625 -1.06563,-0.32328 -2.14543,-0.62793 -3.24023,-0.91406 -3.28442,-0.85837 -6.69756,-1.54746 -10.23047,-2.05469 -4.71056,-0.6763 -9.63357,-1.02929 -14.74219,-1.02929 z"
       sodipodi:nodetypes="sccscsscssssssssssssssssss" /><path
       id="rect1"
       style="display:inline;fill:#f6d700;fill-opacity:1;stroke:#1f1a17;stroke-width:2;stroke-dasharray:none;stroke-opacity:1;paint-order:stroke fill markers"
       d="m 170.5,223.64164 h 79 l -2,52.06393 c 0,0 -12.62926,14.31891 -37.5,14.31891 -24.87074,0 -37.5,-14.31891 -37.5,-14.31891 z"
       sodipodi:nodetypes="ccczcc" /><ellipse
       style="fill:#f6d700;fill-opacity:1;stroke:#1f1a17;stroke-width:2;stroke-opacity:1;paint-order:stroke fill markers"
       id="path1"
       cx="210"
       cy="212.32582"
       rx="46.555847"
       ry="20.665869" /><ellipse
       style="fill:#eca12b;fill-opacity:1;stroke:#1f1a17;stroke-width:2;stroke-opacity:1;paint-order:stroke fill markers"
       id="ellipse2"
       cx="210"
       cy="212.32582"
       rx="41.556"
       ry="15.666" /><g
       id="g111"><g
         id="g21"
         transform="matrix(-1,0,0,1,362.6629,-17.375)"><path
           id="path20"
           style="display:inline;fill:#eca12b;fill-opacity:1;stroke:#1f1a17;stroke-width:2;stroke-linecap:round;stroke-linejoin:round;stroke-opacity:1;paint-order:stroke fill markers"
           d="m 223.6346,333.78125 c -0.93834,0.0681 -1.66101,1.96314 -2.67029,2.07617 -1.07657,0.12059 -2.47894,-1.78629 -3.56106,-1.23828 -1.08213,0.54802 -1.79286,3.52457 -2.75709,4.4375 -0.96423,0.91311 -2.18232,-0.238 -3.0237,0.91602 -0.84137,1.15402 -1.3057,4.61349 -2.01924,5.88476 -0.71356,1.27127 -1.67616,0.35445 -2.25693,1.61914 -0.58076,1.26468 -0.77948,4.70948 -1.22251,5.84375 -0.24294,0.62201 -0.55047,1.19674 -0.86184,1.70899 -0.96172,0.84186 -2.17394,2.15823 -3.26241,4.10937 -2.22787,3.99361 -2.70128,8.08399 -2.70128,8.08399 a 0.52909604,1 0 0 0 0.40819,1.18554 0.52909604,1 0 0 0 0.62726,-0.77148 c 0,0 0.3665,-3.41365 2.39333,-7.04688 0.82137,-1.47234 1.7301,-2.55011 2.52045,-3.3164 0.50513,0.1466 1.06359,0.3858 1.54801,0.78515 0.68374,0.56364 1.76765,3.35983 2.60518,3.90625 0.83753,0.54642 1.42873,-1.15517 2.38301,-0.72851 0.95426,0.42664 2.27187,2.98124 3.30581,3.18555 1.03394,0.20431 1.78386,-1.94194 2.86043,-2.0625 1.07655,-0.12057 2.47894,1.78629 3.56105,1.23828 1.08212,-0.54802 1.79287,-3.52456 2.75709,-4.4375 0.96423,-0.91261 2.18234,0.23607 3.0237,-0.91797 0.84136,-1.15402 1.30569,-4.61156 2.01925,-5.88281 0.71354,-1.27128 1.67617,-0.35642 2.25693,-1.6211 0.58075,-1.26469 0.78051,-4.70948 1.22353,-5.84375 0.81152,-2.07765 2.34063,-3.72461 2.34063,-3.72461 0,0 -1.76099,0.0188 -3.01337,-1.01367 -0.68373,-0.56365 -1.76765,-3.35982 -2.60517,-3.90625 -0.83753,-0.54644 -1.42771,1.15712 -2.38197,0.73047 -0.95426,-0.42664 -2.27189,-2.98319 -3.30582,-3.1875 -0.0646,-0.0128 -0.12862,-0.0163 -0.19117,-0.0117 z" /><path
           id="path21"
           style="fill:none;fill-opacity:1;stroke:#dc8911;stroke-width:2;stroke-linecap:round;stroke-dasharray:none;stroke-opacity:1;paint-order:stroke fill markers"
           d="m 225.56029,341.75354 -0.44427,5.43589 2.01094,4.15425 m -9.84424,-8.3527 -1.80048,9.8553 5.37808,6.01041 m -10.7094,-8.92723 -1.6368,5.65686 2.89948,3.35876 m -3.91074,-3.07008 c 0,0 4.63985,-1.18844 12.10307,-5.3125 7.46322,-4.12406 11.97081,-8.0625 11.97081,-8.0625" /></g><g
         id="g23"
         transform="matrix(-1,0,0,1,421.0379,0)"><path
           id="path22"
           style="display:inline;fill:#eca12b;fill-opacity:1;stroke:#1f1a17;stroke-width:2;stroke-linecap:round;stroke-linejoin:round;stroke-opacity:1;paint-order:stroke fill markers"
           d="m 245.04102,333.78125 c -1.77347,0.0681 -3.13934,1.96314 -5.04688,2.07617 -2.03473,0.12059 -4.68524,-1.78629 -6.73047,-1.23828 -2.04522,0.54802 -3.38854,3.52457 -5.21094,4.4375 -1.8224,0.91311 -4.12463,-0.238 -5.71484,0.91602 -1.5902,1.15402 -2.4678,4.61349 -3.81641,5.88476 -1.34862,1.27127 -3.16796,0.35445 -4.26562,1.61914 -1.09765,1.26468 -1.47324,4.70948 -2.31055,5.84375 -0.45916,0.62201 -1.04041,1.19674 -1.6289,1.70899 -1.81767,0.84186 -4.1088,2.15823 -6.16602,4.10937 -4.21072,3.99361 -5.10547,8.08399 -5.10547,8.08399 a 1,1 0 0 0 0.77149,1.18554 1,1 0 0 0 1.18554,-0.77148 c 0,0 0.69269,-3.41365 4.52344,-7.04688 1.55239,-1.47234 3.26991,-2.55011 4.76367,-3.3164 0.95472,0.1466 2.01021,0.3858 2.92578,0.78515 1.29227,0.56364 3.34089,3.35983 4.92383,3.90625 1.58294,0.54642 2.70033,-1.15517 4.50391,-0.72851 1.80357,0.42664 4.29388,2.98124 6.24804,3.18555 1.95417,0.20431 3.37153,-1.94194 5.40626,-2.0625 2.0347,-0.12057 4.68524,1.78629 6.73046,1.23828 2.04522,-0.54802 3.38853,-3.52456 5.21094,-4.4375 1.82241,-0.91261 4.12466,0.23607 5.71484,-0.91797 1.5902,-1.15402 2.46779,-4.61156 3.81641,-5.88281 1.34861,-1.27128 3.16798,-0.35642 4.26563,-1.6211 1.09765,-1.26469 1.47518,-4.70948 2.3125,-5.84375 1.53378,-2.07765 4.42382,-3.72461 4.42382,-3.72461 0,0 -3.32828,0.0188 -5.69531,-1.01367 -1.29227,-0.56365 -3.34089,-3.35982 -4.92383,-3.90625 -1.58294,-0.54644 -2.69837,1.15712 -4.50195,0.73047 -1.80357,-0.42664 -4.29389,-2.98319 -6.24805,-3.1875 -0.12213,-0.0128 -0.24309,-0.0163 -0.36132,-0.0117 z" /><path
           id="path23"
           style="fill:none;fill-opacity:1;stroke:#dc8911;stroke-width:2;stroke-linecap:round;stroke-dasharray:none;stroke-opacity:1;paint-order:stroke fill markers"
           d="m 248.68062,341.75354 -0.83969,5.43589 3.8007,4.15425 m -18.60575,-8.3527 -3.40295,9.8553 10.16466,6.01041 m -20.24094,-8.92723 -3.09358,5.65686 5.48007,3.35876 m -7.39136,-3.07008 c 0,0 8.76939,-1.18844 22.875,-5.3125 14.10561,-4.12406 22.625,-8.0625 22.625,-8.0625" /></g><g
         id="g19"
         transform="translate(57.337099,-17.375)"><path
           id="path18"
           style="display:inline;fill:#eca12b;fill-opacity:1;stroke:#1f1a17;stroke-width:2;stroke-linecap:round;stroke-linejoin:round;stroke-opacity:1;paint-order:stroke fill markers"
           d="m 223.6346,333.78125 c -0.93834,0.0681 -1.66101,1.96314 -2.67029,2.07617 -1.07657,0.12059 -2.47894,-1.78629 -3.56106,-1.23828 -1.08213,0.54802 -1.79286,3.52457 -2.75709,4.4375 -0.96423,0.91311 -2.18232,-0.238 -3.0237,0.91602 -0.84137,1.15402 -1.3057,4.61349 -2.01924,5.88476 -0.71356,1.27127 -1.67616,0.35445 -2.25693,1.61914 -0.58076,1.26468 -0.77948,4.70948 -1.22251,5.84375 -0.24294,0.62201 -0.55047,1.19674 -0.86184,1.70899 -0.96172,0.84186 -2.17394,2.15823 -3.26241,4.10937 -2.22787,3.99361 -2.70128,8.08399 -2.70128,8.08399 a 0.52909604,1 0 0 0 0.40819,1.18554 0.52909604,1 0 0 0 0.62726,-0.77148 c 0,0 0.3665,-3.41365 2.39333,-7.04688 0.82137,-1.47234 1.7301,-2.55011 2.52045,-3.3164 0.50513,0.1466 1.06359,0.3858 1.54801,0.78515 0.68374,0.56364 1.76765,3.35983 2.60518,3.90625 0.83753,0.54642 1.42873,-1.15517 2.38301,-0.72851 0.95426,0.42664 2.27187,2.98124 3.30581,3.18555 1.03394,0.20431 1.78386,-1.94194 2.86043,-2.0625 1.07655,-0.12057 2.47894,1.78629 3.56105,1.23828 1.08212,-0.54802 1.79287,-3.52456 2.75709,-4.4375 0.96423,-0.91261 2.18234,0.23607 3.0237,-0.91797 0.84136,-1.15402 1.30569,-4.61156 2.01925,-5.88281 0.71354,-1.27128 1.67617,-0.35642 2.25693,-1.6211 0.58075,-1.26469 0.78051,-4.70948 1.22353,-5.84375 0.81152,-2.07765 2.34063,-3.72461 2.34063,-3.72461 0,0 -1.76099,0.0188 -3.01337,-1.01367 -0.68373,-0.56365 -1.76765,-3.35982 -2.60517,-3.90625 -0.83753,-0.54644 -1.42771,1.15712 -2.38197,0.73047 -0.95426,-0.42664 -2.27189,-2.98319 -3.30582,-3.1875 -0.0646,-0.0128 -0.12862,-0.0163 -0.19117,-0.0117 z" /><path
           id="path19"
           style="fill:none;fill-opacity:1;stroke:#dc8911;stroke-width:2;stroke-linecap:round;stroke-dasharray:none;stroke-opacity:1;paint-order:stroke fill markers"
           d="m 225.56029,341.75354 -0.44427,5.43589 2.01094,4.15425 m -9.84424,-8.3527 -1.80048,9.8553 5.37808,6.01041 m -10.7094,-8.92723 -1.6368,5.65686 2.89948,3.35876 m -3.91074,-3.07008 c 0,0 4.63985,-1.18844 12.10307,-5.3125 7.46322,-4.12406 11.97081,-8.0625 11.97081,-8.0625" /></g><g
         id="g14"
         transform="translate(-1.0379012)"><path
           id="path9"
           style="display:inline;fill:#eca12b;fill-opacity:1;stroke:#1f1a17;stroke-width:2;stroke-linecap:round;stroke-linejoin:round;stroke-opacity:1;paint-order:stroke fill markers"
           d="m 245.04102,333.78125 c -1.77347,0.0681 -3.13934,1.96314 -5.04688,2.07617 -2.03473,0.12059 -4.68524,-1.78629 -6.73047,-1.23828 -2.04522,0.54802 -3.38854,3.52457 -5.21094,4.4375 -1.8224,0.91311 -4.12463,-0.238 -5.71484,0.91602 -1.5902,1.15402 -2.4678,4.61349 -3.81641,5.88476 -1.34862,1.27127 -3.16796,0.35445 -4.26562,1.61914 -1.09765,1.26468 -1.47324,4.70948 -2.31055,5.84375 -0.45916,0.62201 -1.04041,1.19674 -1.6289,1.70899 -1.81767,0.84186 -4.1088,2.15823 -6.16602,4.10937 -4.21072,3.99361 -5.10547,8.08399 -5.10547,8.08399 a 1,1 0 0 0 0.77149,1.18554 1,1 0 0 0 1.18554,-0.77148 c 0,0 0.69269,-3.41365 4.52344,-7.04688 1.55239,-1.47234 3.26991,-2.55011 4.76367,-3.3164 0.95472,0.1466 2.01021,0.3858 2.92578,0.78515 1.29227,0.56364 3.34089,3.35983 4.92383,3.90625 1.58294,0.54642 2.70033,-1.15517 4.50391,-0.72851 1.80357,0.42664 4.29388,2.98124 6.24804,3.18555 1.95417,0.20431 3.37153,-1.94194 5.40626,-2.0625 2.0347,-0.12057 4.68524,1.78629 6.73046,1.23828 2.04522,-0.54802 3.38853,-3.52456 5.21094,-4.4375 1.82241,-0.91261 4.12466,0.23607 5.71484,-0.91797 1.5902,-1.15402 2.46779,-4.61156 3.81641,-5.88281 1.34861,-1.27128 3.16798,-0.35642 4.26563,-1.6211 1.09765,-1.26469 1.47518,-4.70948 2.3125,-5.84375 1.53378,-2.07765 4.42382,-3.72461 4.42382,-3.72461 0,0 -3.32828,0.0188 -5.69531,-1.01367 -1.29227,-0.56365 -3.34089,-3.35982 -4.92383,-3.90625 -1.58294,-0.54644 -2.69837,1.15712 -4.50195,0.73047 -1.80357,-0.42664 -4.29389,-2.98319 -6.24805,-3.1875 -0.12213,-0.0128 -0.24309,-0.0163 -0.36132,-0.0117 z" /><path
           id="path13"
           style="fill:none;fill-opacity:1;stroke:#dc8911;stroke-width:2;stroke-linecap:round;stroke-dasharray:none;stroke-opacity:1;paint-order:stroke fill markers"
           d="m 248.68062,341.75354 -0.83969,5.43589 3.8007,4.15425 m -18.60575,-8.3527 -3.40295,9.8553 10.16466,6.01041 m -20.24094,-8.92723 -3.09358,5.65686 5.48007,3.35876 m -7.39136,-3.07008 c 0,0 8.76939,-1.18844 22.875,-5.3125 14.10561,-4.12406 22.625,-8.0625 22.625,-8.0625" /></g></g></g><g
     id="g110"
     transform="translate(-3.7975823)"><path
       id="path35"
       style="fill:none;fill-opacity:1;stroke:#1f1a17;stroke-width:2;stroke-linecap:round;stroke-linejoin:miter;stroke-dasharray:none;stroke-opacity:1;paint-order:stroke fill markers"
       d="m 227.31273,198.91797 c 0,0 -0.52934,2.92961 -1.34792,5.39169 -0.81857,2.46209 -1.5468,3.27037 -1.5468,3.27037 m 14.31892,-0.48613 c 0,0 -3.91058,-4.20496 -6.18718,-7.95496 -2.2766,-3.75 -3.35877,-7.42461 -3.35877,-7.42461 m -0.0521,-0.21877 c 0,0 -2.57714,1.33873 -4.97909,4.84413 -2.40195,3.50539 -1.59727,6.22281 -1.59727,6.22281 m 9.36852,-17.56569 c 0,0 -4.50936,9.52325 -4.58731,14.08592 -0.0779,4.56267 3.9686,12.43059 3.9686,12.43059" /><path
       id="path38"
       style="fill:none;fill-opacity:1;stroke:#1f1a17;stroke-width:2;stroke-linecap:round;stroke-linejoin:miter;stroke-dasharray:none;stroke-opacity:1;paint-order:stroke fill markers"
       d="m 188.8859,194.01242 c 0,0 -1.64046,0.94731 -2.2981,2.12132 -0.65764,1.17401 -0.53033,1.67938 -0.53033,1.67938 m 14.67247,-7.95495 c 0,0 -4.15265,4.38701 -6.98269,7.42462 -2.83004,3.03761 -3.27036,5.12653 -3.27036,5.12653 M 207.625,178.75 c 0,0 0.39664,4.95803 -4.86612,9.54657 -5.26276,4.58854 -20.42309,7.10616 -20.42309,7.10616" /><path
       id="path24"
       style="display:inline;fill:#c2c1c1;stroke:#1f1a17;stroke-width:2;stroke-linecap:round;stroke-opacity:1;paint-order:stroke fill markers"
       d="m 285.5261,152.54333 c -17.54839,20.4989 -43.27224,33.93531 -43.27224,33.93531 0,0 -26.63932,-4.95686 -42.60437,-7.68055 -40.9725,-6.99004 -54.81155,-22.93728 -54.81155,-49.4125 0,-26.47522 27.20301,-30.949706 41.03275,-19.1512 22.86552,19.50716 113.94655,25.61497 99.65541,42.30894 z"
       sodipodi:nodetypes="scssss" /><path
       id="path25"
       style="display:inline;fill:#e8902b;fill-opacity:1;stroke:#1f1a17;stroke-width:2;stroke-linecap:round;stroke-dasharray:none;stroke-opacity:1;paint-order:stroke fill markers"
       d="m 186.625,103.125 c 0,0 -25.34782,-9.084267 -27.17383,-14.197266 C 157.62515,83.814736 162.4375,79 162.4375,79 l -15.37277,-4.764457 c -5.64052,6.081599 -0.48304,21.586775 4.96261,30.014457 2.65491,4.10874 -1.7832,8.21875 -1.7832,8.21875 0,0 2.05346,10.55917 8.45313,11.12695 6.39966,0.56778 24.13867,-16.5332 24.13867,-16.5332 z"
       sodipodi:nodetypes="csccscscc" /><path
       id="path26"
       style="fill:#1f1a17;fill-opacity:1;stroke:#1f1a17;stroke-width:2;stroke-linecap:round;stroke-linejoin:round;stroke-dasharray:none;stroke-opacity:1;paint-order:stroke fill markers"
       d="m 167.68945,66.75 c -11.22348,0 -17.53458,2.98131 -20.65234,7.408203 L 162.4375,79 c 0,0 -4.81235,4.814736 -2.98633,9.927734 C 161.27718,94.040733 186.625,103.125 186.625,103.125 l -3.97266,6.58008 c -0.41055,7.81544 0.36149,32.3569 25.44336,43.14062 29.98571,12.89207 44.19532,10.5586 44.19532,10.5586 L 250.75,181.5 c 0,0 28.81462,-11.88328 50.875,-12 12.58258,0 42.42416,5.59961 62.50977,9.6582 C 378.05254,181.97051 397,177.625 397,177.625 c 0,0 -9.58484,0.13143 -20.82227,-2.30078 -11.23742,-2.43222 -28.73046,-7.11719 -28.73046,-7.11719 0,0 14.28121,-2.32804 26.02343,-7.01562 C 385.21292,156.5038 392.25,150.5 392.25,150.5 c 0,0 -33.24858,10.01314 -51.57227,10.20703 -8.49403,0.0899 -21.28868,-1.73063 -32.63281,-3.69922 l 26.34766,-11.26367 c -6.32731,2.30813 -32.78174,7.83944 -97.94727,-25.36523 C 185.07929,94.205671 199.93386,66.75 167.68945,66.75 Z" /><path
       style="fill:none;fill-opacity:1;stroke:#1f1a17;stroke-width:2;stroke-linecap:butt;stroke-dasharray:none;stroke-opacity:1;paint-order:stroke fill markers"
       d="m 159.5625,124.1875 c 0,0 -1.372,6.5325 1.93525,15.70779 3.30725,9.1753 11.18975,11.97971 11.18975,11.97971"
       id="path27"
       sodipodi:nodetypes="czc" /><g
       id="g108"><circle
         style="fill:#c2c1c1;fill-opacity:1;stroke:#1f1a17;stroke-width:2;stroke-linecap:butt;stroke-dasharray:none;stroke-opacity:1;paint-order:stroke fill markers"
         id="path28"
         cx="166.09727"
         cy="84.795494"
         r="4" /><circle
         style="fill:#1f1a17;fill-opacity:1;stroke:none;stroke-width:2;stroke-linecap:butt;stroke-dasharray:none;stroke-opacity:1;paint-order:stroke fill markers"
         id="path29"
         cx="164.79863"
         cy="84.795494"
         r="1.5" /></g><g
       id="g105"><path
         style="display:inline;fill:#605d5c;fill-opacity:1;stroke:none;stroke-width:0.5;stroke-linecap:round;stroke-linejoin:round;stroke-dasharray:none;stroke-opacity:1;paint-order:stroke fill markers"
         d="m 329.44985,147.44474 c 0,0 -5.5075,0.44515 -13.60411,0.38599 -8.09661,-0.0592 -13.24307,-0.44821 -13.24307,-0.44821 l -3.95564,3.64965 c 0,0 17.19981,1.18012 21.86118,0.001 4.66137,-1.17912 8.94164,-3.58843 8.94164,-3.58843 z"
         id="path81"
         sodipodi:nodetypes="czcczc" /><path
         style="fill:#605d5c;fill-opacity:1;stroke:none;stroke-width:0.5;stroke-linecap:round;stroke-linejoin:round;stroke-dasharray:none;stroke-opacity:1;paint-order:stroke fill markers"
         d="m 300.8907,157.98798 26.2343,8.26202 -27.40533,-1.77903 c 0,0 1.45319,-1.18826 2,-2.84597 0.54681,-1.65771 -0.82897,-3.63702 -0.82897,-3.63702 z"
         id="path82"
         sodipodi:nodetypes="ccczc" /><path
         style="fill:#605d5c;fill-opacity:1;stroke:none;stroke-width:0.5;stroke-linecap:round;stroke-linejoin:round;stroke-dasharray:none;stroke-opacity:1;paint-order:stroke fill markers"
         d="m 289.86959,169.74982 c 0,0 5.29555,-0.85348 10.03207,-0.88388 4.73652,-0.0304 11.44629,0.53033 11.44629,0.53033 l -0.13258,-1.59099 c 0,0 -3.88417,-1.40614 -10.6066,-1.32583 -6.72243,0.0803 -11.00435,1.32583 -11.00435,1.32583 z"
         id="path83"
         sodipodi:nodetypes="czcczcc" /><path
         style="fill:#605d5c;fill-opacity:1;stroke:none;stroke-width:0.5;stroke-linecap:round;stroke-linejoin:round;stroke-dasharray:none;stroke-opacity:1;paint-order:stroke fill markers"
         d="m 286.90625,159.65625 1.4375,5.625 c 0,0 3.82455,0.42829 6.5625,-0.71875 2.73795,-1.14704 4.6875,-4.25 4.6875,-4.25 z"
         id="path84"
         sodipodi:nodetypes="cczcc" /><path
         style="fill:#605d5c;fill-opacity:1;stroke:none;stroke-width:0.5;stroke-linecap:round;stroke-linejoin:round;stroke-dasharray:none;stroke-opacity:1;paint-order:stroke fill markers"
         d="m 273.03161,171.65017 13.52341,-2.87262 -1.84895,-5.61526 c 0,0 -1.58814,-2.47555 -5.96497,-0.18371 -4.37683,2.29184 -5.84208,4.11958 -5.84208,4.11958 z"
         id="path85"
         sodipodi:nodetypes="ccczcc" /><path
         style="fill:#605d5c;fill-opacity:1;stroke:none;stroke-width:0.5;stroke-linecap:round;stroke-linejoin:round;stroke-dasharray:none;stroke-opacity:1;paint-order:stroke fill markers"
         d="M 294.3125,150.79289 294.75,146.25 c 0,0 -12.95695,-2.47484 -23.4375,-5.8125 -10.48055,-3.33766 -19.6875,-8.875 -19.6875,-8.875 l -1.375,10.8125 c 0,0 9.64144,3.12705 20.125,5.38128 10.48356,2.25423 23.9375,3.03661 23.9375,3.03661 z"
         id="path86"
         sodipodi:nodetypes="cczcczc" /><path
         style="fill:#605d5c;fill-opacity:1;stroke:none;stroke-width:0.5;stroke-linecap:round;stroke-linejoin:round;stroke-dasharray:none;stroke-opacity:1;paint-order:stroke fill markers"
         d="m 249.1875,145.875 c 0,0 8.83166,3.51164 20.1875,5.3125 11.35584,1.80086 24.1875,2.4375 24.1875,2.4375 l -0.6875,3.5 c 0,0 -26.07729,-0.80695 -33.98483,-2.05622 C 250.98263,153.81951 245.375,152 245.375,152 Z"
         id="path87"
         sodipodi:nodetypes="czcczcc" /><path
         style="fill:#605d5c;fill-opacity:1;stroke:none;stroke-width:0.5;stroke-linecap:round;stroke-linejoin:round;stroke-dasharray:none;stroke-opacity:1;paint-order:stroke fill markers"
         d="m 240.85381,154.95105 c 0,0 11.9435,2.72606 21.57119,3.70603 9.62769,0.97997 23.95325,0.26517 23.95325,0.26517 0,0 -17.15974,4.0881 -26.91188,4.18274 -9.75214,0.0946 -30.36377,-4.53629 -30.36377,-4.53629 z"
         id="path88"
         sodipodi:nodetypes="czczcc" /><path
         style="fill:#605d5c;fill-opacity:1;stroke:none;stroke-width:0.5;stroke-linecap:round;stroke-linejoin:round;stroke-dasharray:none;stroke-opacity:1;paint-order:stroke fill markers"
         d="m 248.19448,133.81996 0.97227,-3.44715 c 0,0 -7.84105,-3.27897 -12.81631,-5.92202 -4.97526,-2.64305 -10.16466,-6.09879 -10.16466,-6.09879 l -2.38648,5.12652 c 0,0 7.03761,3.15026 11.84403,5.56847 4.80642,2.41821 12.55115,4.77297 12.55115,4.77297 z"
         id="path89"
         sodipodi:nodetypes="cczcczc" /><path
         style="fill:#605d5c;fill-opacity:1;stroke:none;stroke-width:0.5;stroke-linecap:round;stroke-linejoin:round;stroke-dasharray:none;stroke-opacity:1;paint-order:stroke fill markers"
         d="m 246.32525,139.78898 1.18432,-3.57537 c 0,0 -9.08996,-2.69411 -14.29431,-4.85133 -5.20436,-2.15722 -10.69928,-5.10304 -10.69928,-5.10304 l -2.07421,5.29723 c 0,0 7.49244,2.49898 12.50731,4.44846 5.01487,1.94948 13.37617,3.78405 13.37617,3.78405 z"
         id="path90"
         sodipodi:nodetypes="cczcczc" /><path
         style="fill:#605d5c;fill-opacity:1;stroke:none;stroke-width:0.5;stroke-linecap:round;stroke-linejoin:round;stroke-dasharray:none;stroke-opacity:1;paint-order:stroke fill markers"
         d="m 244.64694,146.43486 1.20317,-3.44958 c 0,0 -9.7277,-2.49402 -15.02595,-4.40906 -5.29826,-1.91503 -10.92313,-4.60443 -10.92313,-4.60443 l -2.00925,5.0093 c 0,0 7.78108,2.52887 12.88048,4.24512 5.0994,1.71625 13.87468,3.20865 13.87468,3.20865 z"
         id="path91"
         sodipodi:nodetypes="cczcczc" /><path
         style="fill:#605d5c;fill-opacity:1;stroke:none;stroke-width:0.5;stroke-linecap:round;stroke-linejoin:round;stroke-dasharray:none;stroke-opacity:1;paint-order:stroke fill markers"
         d="m 241.96611,152.11156 1.66614,-2.98267 c 0,0 -9.23871,-2.08942 -14.65808,-3.62865 -5.41939,-1.53921 -11.74915,-4.09319 -11.74915,-4.09319 l -1.90176,4.46885 c 0,0 8.71775,2.9117 13.92484,4.26655 5.20709,1.35485 12.71801,1.96911 12.71801,1.96911 z"
         id="path92"
         sodipodi:nodetypes="cczcczc" /><path
         style="fill:#605d5c;fill-opacity:1;stroke:none;stroke-width:0.5;stroke-linecap:round;stroke-linejoin:round;stroke-dasharray:none;stroke-opacity:1;paint-order:stroke fill markers"
         d="m 235.73173,154.32605 c 0,0 -9.07479,-1.42452 -12.2499,-2.54556 -3.17512,-1.12103 -8.83073,-3.59742 -8.83073,-3.59742 l -1.37002,3.84489 11.84404,4.68458 z"
         id="path93"
         sodipodi:nodetypes="czcccc" /><path
         style="fill:#605d5c;fill-opacity:1;stroke:none;stroke-width:0.5;stroke-linecap:round;stroke-linejoin:round;stroke-dasharray:none;stroke-opacity:1;paint-order:stroke fill markers"
         d="M 221.86428,120.83395 224.5,116.6875 c 0,0 -3.59418,-1.70709 -6.33035,-3.07455 -2.73617,-1.36745 -3.05982,-2.12497 -3.05982,-2.12497 l -6.64108,10.82452 c 0,0 2.41725,0.20035 5.99917,0.0301 3.58192,-0.17025 7.39636,-1.50866 7.39636,-1.50866 z"
         id="path102"
         sodipodi:nodetypes="cczcczc" /><path
         style="fill:#605d5c;fill-opacity:1;stroke:none;stroke-width:0.5;stroke-linecap:round;stroke-linejoin:round;stroke-dasharray:none;stroke-opacity:1;paint-order:stroke fill markers"
         d="m 221,123.9375 c 0,0 -4.45976,1.05814 -8.16847,1.54995 -3.70871,0.4918 -6.39403,0.0751 -6.39403,0.0751 l -2.9583,4.90977 c 0,0 2.59998,1.9976 5.06334,3.25223 2.46336,1.25462 6.79271,2.67011 6.79271,2.67011 z"
         id="path103"
         sodipodi:nodetypes="czcczcc" /><path
         style="fill:#605d5c;fill-opacity:1;stroke:none;stroke-width:0.5;stroke-linecap:round;stroke-linejoin:round;stroke-dasharray:none;stroke-opacity:1;paint-order:stroke fill markers"
         d="m 201.61382,132.49414 -8.04334,3.97747 c 0,0 2.45373,4.88668 6.18719,7.95495 3.73346,3.06827 9.98788,6.0988 9.98788,6.0988 l 4.76853,-11.15838 c 0,0 -4.06735,-1.05851 -7.38801,-3.08287 -3.32067,-2.02435 -5.51225,-3.78997 -5.51225,-3.78997 z"
         id="path104"
         sodipodi:nodetypes="cczcczc" /><path
         style="fill:#605d5c;fill-opacity:1;stroke:none;stroke-width:0.5;stroke-linecap:round;stroke-linejoin:round;stroke-dasharray:none;stroke-opacity:1;paint-order:stroke fill markers"
         d="m 270.25,172.5 v -6.625 c 0,0 -4.57746,0.64641 -8.5,0.6875 -3.92254,0.0411 -7.5,-0.375 -7.5,-0.375 l -0.0625,11.375 z"
         id="path105"
         sodipodi:nodetypes="cczccc" /></g></g><g
     id="g109"
     transform="translate(-3.7975823)"><path
       id="path40"
       style="display:inline;fill:none;fill-opacity:1;stroke:#f6d700;stroke-width:2;stroke-linecap:round;stroke-linejoin:miter;stroke-dasharray:none;stroke-opacity:1;paint-order:stroke fill markers"
       d="m 151.43133,90.598057 c 0,0 -17.41483,-2.162109 -26.22923,-3.491341 M 189.5,121.25 c 0,0 -10.14986,-26.895955 -42.625,-31.5 C 114.39986,85.145955 89.5,128.375 89.5,128.375"
       sodipodi:nodetypes="cccsc" /><path
       style="fill:#f6d700;fill-opacity:1;stroke:#f6d700;stroke-width:0.5;stroke-linecap:round;stroke-linejoin:round;stroke-dasharray:none;stroke-opacity:1;paint-order:stroke fill markers"
       d="m 124.31821,87.040425 c 0,0 -8.43261,-1.01403 -11.9204,-0.853665 -3.48779,0.160365 -9.37801,1.280095 -12.92507,3.687184 -3.547065,2.407089 -5.071358,6.034563 -8.512247,9.35584 -3.440889,3.321276 -10.049306,7.763776 -10.049306,7.763776 0,0 13.823877,-4.54531 17.629257,-7.979004 3.805376,-3.433698 5.537906,-8.160862 8.522976,-9.619165 2.98507,-1.458303 17.25479,-2.354966 17.25479,-2.354966 z"
       id="path41"
       sodipodi:nodetypes="czzzczzc" /><g
       id="g107"><g
         id="g47"
         transform="translate(0.22097087,0.04419417)"><g
           id="g44"><path
             id="path43"
             style="fill:#f6d700;stroke:#f6d700;stroke-width:0.5;stroke-linecap:round;stroke-linejoin:round;paint-order:stroke fill markers"
             d="m 89.168929,128.78081 c 0,0 -1.530718,3.15534 -4.265544,3.88814 -2.734827,0.73279 -5.63814,-1.23446 -5.63814,-1.23446 0,0 1.530718,-3.15534 4.265544,-3.88814 2.734827,-0.73279 5.63814,1.23446 5.63814,1.23446 z"
             sodipodi:nodetypes="cscsc" /><path
             style="fill:#f6d700;fill-opacity:1;stroke:#f6d700;stroke-width:0.5;stroke-linecap:round;stroke-linejoin:round;stroke-dasharray:none;stroke-opacity:1;paint-order:stroke fill markers"
             d="m 57.625,141.25 21.648437,-9.81641"
             id="path44"
             sodipodi:nodetypes="cc" /></g><g
           id="g46"
           transform="rotate(-90,89.16538,128.78081)"><path
             id="path45"
             style="fill:#f6d700;stroke:#f6d700;stroke-width:0.5;stroke-linecap:round;stroke-linejoin:round;paint-order:stroke fill markers"
             d="m 89.168929,128.78081 c 0,0 -1.530718,3.15534 -4.265544,3.88814 -2.734827,0.73279 -5.63814,-1.23446 -5.63814,-1.23446 0,0 1.530718,-3.15534 4.265544,-3.88814 2.734827,-0.73279 5.63814,1.23446 5.63814,1.23446 z"
             sodipodi:nodetypes="cscsc" /><path
             style="fill:#f6d700;fill-opacity:1;stroke:#f6d700;stroke-width:0.5;stroke-linecap:round;stroke-linejoin:round;stroke-dasharray:none;stroke-opacity:1;paint-order:stroke fill markers"
             d="m 57.625,141.25 21.648437,-9.81641"
             id="path46"
             sodipodi:nodetypes="cc" /></g></g><g
         id="g55"
         transform="translate(-3.779,7.0439433)"><g
           id="g52"><path
             id="path51"
             style="fill:#f6d700;stroke:#f6d700;stroke-width:0.5;stroke-linecap:round;stroke-linejoin:round;paint-order:stroke fill markers"
             d="m 89.168929,128.78081 c 0,0 -1.530718,3.15534 -4.265544,3.88814 -2.734827,0.73279 -5.63814,-1.23446 -5.63814,-1.23446 0,0 1.530718,-3.15534 4.265544,-3.88814 2.734827,-0.73279 5.63814,1.23446 5.63814,1.23446 z"
             sodipodi:nodetypes="cscsc" /><path
             style="fill:#f6d700;fill-opacity:1;stroke:#f6d700;stroke-width:0.5;stroke-linecap:round;stroke-linejoin:round;stroke-dasharray:none;stroke-opacity:1;paint-order:stroke fill markers"
             d="m 57.625,141.25 21.648437,-9.81641"
             id="path52"
             sodipodi:nodetypes="cc" /></g><g
           id="g54"
           transform="rotate(-90,89.16538,128.78081)"><path
             id="path53"
             style="fill:#f6d700;stroke:#f6d700;stroke-width:0.5;stroke-linecap:round;stroke-linejoin:round;paint-order:stroke fill markers"
             d="m 89.168929,128.78081 c 0,0 -1.530718,3.15534 -4.265544,3.88814 -2.734827,0.73279 -5.63814,-1.23446 -5.63814,-1.23446 0,0 1.530718,-3.15534 4.265544,-3.88814 2.734827,-0.73279 5.63814,1.23446 5.63814,1.23446 z"
             sodipodi:nodetypes="cscsc" /><path
             style="fill:#f6d700;fill-opacity:1;stroke:#f6d700;stroke-width:0.5;stroke-linecap:round;stroke-linejoin:round;stroke-dasharray:none;stroke-opacity:1;paint-order:stroke fill markers"
             d="m 57.625,141.25 21.648437,-9.81641"
             id="path54"
             sodipodi:nodetypes="cc" /></g></g><g
         id="g59"
         transform="translate(-7.779,14.043943)"><g
           id="g56"><path
             id="path55"
             style="fill:#f6d700;stroke:#f6d700;stroke-width:0.5;stroke-linecap:round;stroke-linejoin:round;paint-order:stroke fill markers"
             d="m 89.168929,128.78081 c 0,0 -1.530718,3.15534 -4.265544,3.88814 -2.734827,0.73279 -5.63814,-1.23446 -5.63814,-1.23446 0,0 1.530718,-3.15534 4.265544,-3.88814 2.734827,-0.73279 5.63814,1.23446 5.63814,1.23446 z"
             sodipodi:nodetypes="cscsc" /><path
             style="fill:#f6d700;fill-opacity:1;stroke:#f6d700;stroke-width:0.5;stroke-linecap:round;stroke-linejoin:round;stroke-dasharray:none;stroke-opacity:1;paint-order:stroke fill markers"
             d="m 57.625,141.25 21.648437,-9.81641"
             id="path56"
             sodipodi:nodetypes="cc" /></g><g
           id="g58"
           transform="rotate(-90,89.16538,128.78081)"><path
             id="path57"
             style="fill:#f6d700;stroke:#f6d700;stroke-width:0.5;stroke-linecap:round;stroke-linejoin:round;paint-order:stroke fill markers"
             d="m 89.168929,128.78081 c 0,0 -1.530718,3.15534 -4.265544,3.88814 -2.734827,0.73279 -5.63814,-1.23446 -5.63814,-1.23446 0,0 1.530718,-3.15534 4.265544,-3.88814 2.734827,-0.73279 5.63814,1.23446 5.63814,1.23446 z"
             sodipodi:nodetypes="cscsc" /><path
             style="fill:#f6d700;fill-opacity:1;stroke:#f6d700;stroke-width:0.5;stroke-linecap:round;stroke-linejoin:round;stroke-dasharray:none;stroke-opacity:1;paint-order:stroke fill markers"
             d="m 57.625,141.25 21.648437,-9.81641"
             id="path58"
             sodipodi:nodetypes="cc" /></g></g><g
         id="g63"
         transform="translate(-11.779,21.043943)"><g
           id="g60"><path
             id="path59"
             style="fill:#f6d700;stroke:#f6d700;stroke-width:0.5;stroke-linecap:round;stroke-linejoin:round;paint-order:stroke fill markers"
             d="m 89.168929,128.78081 c 0,0 -1.530718,3.15534 -4.265544,3.88814 -2.734827,0.73279 -5.63814,-1.23446 -5.63814,-1.23446 0,0 1.530718,-3.15534 4.265544,-3.88814 2.734827,-0.73279 5.63814,1.23446 5.63814,1.23446 z"
             sodipodi:nodetypes="cscsc" /><path
             style="fill:#f6d700;fill-opacity:1;stroke:#f6d700;stroke-width:0.5;stroke-linecap:round;stroke-linejoin:round;stroke-dasharray:none;stroke-opacity:1;paint-order:stroke fill markers"
             d="m 57.625,141.25 21.648437,-9.81641"
             id="path60"
             sodipodi:nodetypes="cc" /></g><g
           id="g62"
           transform="rotate(-90,89.16538,128.78081)"><path
             id="path61"
             style="fill:#f6d700;stroke:#f6d700;stroke-width:0.5;stroke-linecap:round;stroke-linejoin:round;paint-order:stroke fill markers"
             d="m 89.168929,128.78081 c 0,0 -1.530718,3.15534 -4.265544,3.88814 -2.734827,0.73279 -5.63814,-1.23446 -5.63814,-1.23446 0,0 1.530718,-3.15534 4.265544,-3.88814 2.734827,-0.73279 5.63814,1.23446 5.63814,1.23446 z"
             sodipodi:nodetypes="cscsc" /><path
             style="fill:#f6d700;fill-opacity:1;stroke:#f6d700;stroke-width:0.5;stroke-linecap:round;stroke-linejoin:round;stroke-dasharray:none;stroke-opacity:1;paint-order:stroke fill markers"
             d="m 57.625,141.25 21.648437,-9.81641"
             id="path62"
             sodipodi:nodetypes="cc" /></g></g><g
         id="g67"
         transform="translate(-15.779,28.043943)"><g
           id="g64"><path
             id="path63"
             style="fill:#f6d700;stroke:#f6d700;stroke-width:0.5;stroke-linecap:round;stroke-linejoin:round;paint-order:stroke fill markers"
             d="m 89.168929,128.78081 c 0,0 -1.530718,3.15534 -4.265544,3.88814 -2.734827,0.73279 -5.63814,-1.23446 -5.63814,-1.23446 0,0 1.530718,-3.15534 4.265544,-3.88814 2.734827,-0.73279 5.63814,1.23446 5.63814,1.23446 z"
             sodipodi:nodetypes="cscsc" /><path
             style="fill:#f6d700;fill-opacity:1;stroke:#f6d700;stroke-width:0.5;stroke-linecap:round;stroke-linejoin:round;stroke-dasharray:none;stroke-opacity:1;paint-order:stroke fill markers"
             d="m 57.625,141.25 21.648437,-9.81641"
             id="path64"
             sodipodi:nodetypes="cc" /></g><g
           id="g66"
           transform="rotate(-90,89.16538,128.78081)"><path
             id="path65"
             style="fill:#f6d700;stroke:#f6d700;stroke-width:0.5;stroke-linecap:round;stroke-linejoin:round;paint-order:stroke fill markers"
             d="m 89.168929,128.78081 c 0,0 -1.530718,3.15534 -4.265544,3.88814 -2.734827,0.73279 -5.63814,-1.23446 -5.63814,-1.23446 0,0 1.530718,-3.15534 4.265544,-3.88814 2.734827,-0.73279 5.63814,1.23446 5.63814,1.23446 z"
             sodipodi:nodetypes="cscsc" /><path
             style="fill:#f6d700;fill-opacity:1;stroke:#f6d700;stroke-width:0.5;stroke-linecap:round;stroke-linejoin:round;stroke-dasharray:none;stroke-opacity:1;paint-order:stroke fill markers"
             d="m 57.625,141.25 21.648437,-9.81641"
             id="path66"
             sodipodi:nodetypes="cc" /></g></g><g
         id="g71"
         transform="translate(-19.779,35.043943)"><g
           id="g68"><path
             id="path67"
             style="fill:#f6d700;stroke:#f6d700;stroke-width:0.5;stroke-linecap:round;stroke-linejoin:round;paint-order:stroke fill markers"
             d="m 89.168929,128.78081 c 0,0 -1.530718,3.15534 -4.265544,3.88814 -2.734827,0.73279 -5.63814,-1.23446 -5.63814,-1.23446 0,0 1.530718,-3.15534 4.265544,-3.88814 2.734827,-0.73279 5.63814,1.23446 5.63814,1.23446 z"
             sodipodi:nodetypes="cscsc" /><path
             style="fill:#f6d700;fill-opacity:1;stroke:#f6d700;stroke-width:0.5;stroke-linecap:round;stroke-linejoin:round;stroke-dasharray:none;stroke-opacity:1;paint-order:stroke fill markers"
             d="m 57.625,141.25 21.648437,-9.81641"
             id="path68"
             sodipodi:nodetypes="cc" /></g><g
           id="g70"
           transform="rotate(-90,89.16538,128.78081)"><path
             id="path69"
             style="fill:#f6d700;stroke:#f6d700;stroke-width:0.5;stroke-linecap:round;stroke-linejoin:round;paint-order:stroke fill markers"
             d="m 89.168929,128.78081 c 0,0 -1.530718,3.15534 -4.265544,3.88814 -2.734827,0.73279 -5.63814,-1.23446 -5.63814,-1.23446 0,0 1.530718,-3.15534 4.265544,-3.88814 2.734827,-0.73279 5.63814,1.23446 5.63814,1.23446 z"
             sodipodi:nodetypes="cscsc" /><path
             style="fill:#f6d700;fill-opacity:1;stroke:#f6d700;stroke-width:0.5;stroke-linecap:round;stroke-linejoin:round;stroke-dasharray:none;stroke-opacity:1;paint-order:stroke fill markers"
             d="m 57.625,141.25 21.648437,-9.81641"
             id="path70"
             sodipodi:nodetypes="cc" /></g></g><g
         id="g75"
         transform="translate(-23.779,42.043943)"><g
           id="g72"><path
             id="path71"
             style="fill:#f6d700;stroke:#f6d700;stroke-width:0.5;stroke-linecap:round;stroke-linejoin:round;paint-order:stroke fill markers"
             d="m 89.168929,128.78081 c 0,0 -1.530718,3.15534 -4.265544,3.88814 -2.734827,0.73279 -5.63814,-1.23446 -5.63814,-1.23446 0,0 1.530718,-3.15534 4.265544,-3.88814 2.734827,-0.73279 5.63814,1.23446 5.63814,1.23446 z"
             sodipodi:nodetypes="cscsc" /><path
             style="fill:#f6d700;fill-opacity:1;stroke:#f6d700;stroke-width:0.5;stroke-linecap:round;stroke-linejoin:round;stroke-dasharray:none;stroke-opacity:1;paint-order:stroke fill markers"
             d="m 57.625,141.25 21.648437,-9.81641"
             id="path72"
             sodipodi:nodetypes="cc" /></g><g
           id="g74"
           transform="rotate(-90,89.16538,128.78081)"><path
             id="path73"
             style="fill:#f6d700;stroke:#f6d700;stroke-width:0.5;stroke-linecap:round;stroke-linejoin:round;paint-order:stroke fill markers"
             d="m 89.168929,128.78081 c 0,0 -1.530718,3.15534 -4.265544,3.88814 -2.734827,0.73279 -5.63814,-1.23446 -5.63814,-1.23446 0,0 1.530718,-3.15534 4.265544,-3.88814 2.734827,-0.73279 5.63814,1.23446 5.63814,1.23446 z"
             sodipodi:nodetypes="cscsc" /><path
             style="fill:#f6d700;fill-opacity:1;stroke:#f6d700;stroke-width:0.5;stroke-linecap:round;stroke-linejoin:round;stroke-dasharray:none;stroke-opacity:1;paint-order:stroke fill markers"
             d="m 57.625,141.25 21.648437,-9.81641"
             id="path74"
             sodipodi:nodetypes="cc" /></g></g><g
         id="g79"
         transform="translate(-27.779,49.043943)"><g
           id="g76"><path
             id="path75"
             style="fill:#f6d700;stroke:#f6d700;stroke-width:0.5;stroke-linecap:round;stroke-linejoin:round;paint-order:stroke fill markers"
             d="m 89.168929,128.78081 c 0,0 -1.530718,3.15534 -4.265544,3.88814 -2.734827,0.73279 -5.63814,-1.23446 -5.63814,-1.23446 0,0 1.530718,-3.15534 4.265544,-3.88814 2.734827,-0.73279 5.63814,1.23446 5.63814,1.23446 z"
             sodipodi:nodetypes="cscsc" /><path
             style="fill:#f6d700;fill-opacity:1;stroke:#f6d700;stroke-width:0.5;stroke-linecap:round;stroke-linejoin:round;stroke-dasharray:none;stroke-opacity:1;paint-order:stroke fill markers"
             d="m 57.625,141.25 21.648437,-9.81641"
             id="path76"
             sodipodi:nodetypes="cc" /></g><g
           id="g78"
           transform="rotate(-90,89.16538,128.78081)"><path
             id="path77"
             style="fill:#f6d700;stroke:#f6d700;stroke-width:0.5;stroke-linecap:round;stroke-linejoin:round;paint-order:stroke fill markers"
             d="m 89.168929,128.78081 c 0,0 -1.530718,3.15534 -4.265544,3.88814 -2.734827,0.73279 -5.63814,-1.23446 -5.63814,-1.23446 0,0 1.530718,-3.15534 4.265544,-3.88814 2.734827,-0.73279 5.63814,1.23446 5.63814,1.23446 z"
             sodipodi:nodetypes="cscsc" /><path
             style="fill:#f6d700;fill-opacity:1;stroke:#f6d700;stroke-width:0.5;stroke-linecap:round;stroke-linejoin:round;stroke-dasharray:none;stroke-opacity:1;paint-order:stroke fill markers"
             d="m 57.625,141.25 21.648437,-9.81641"
             id="path78"
             sodipodi:nodetypes="cc" /></g></g><g
         id="g106"><path
           id="path79"
           style="fill:#f6d700;stroke:#f6d700;stroke-width:0.5;stroke-linecap:round;stroke-linejoin:round;paint-order:stroke fill markers"
           d="m 58.195634,183.45499 c 0,0 1.148779,3.31355 -0.26687,5.76553 -1.415649,2.45197 -4.859662,3.11388 -4.859662,3.11388 0,0 -1.148779,-3.31355 0.26687,-5.76553 1.415649,-2.45197 4.859662,-3.11388 4.859662,-3.11388 z"
           sodipodi:nodetypes="cscsc" /><path
           style="fill:#f6d700;fill-opacity:1;stroke:#f6d700;stroke-width:0.5;stroke-linecap:round;stroke-linejoin:round;stroke-dasharray:none;stroke-opacity:1;paint-order:stroke fill markers"
           d="m 46.090803,210.94857 8.366506,-22.24901"
           id="path80"
           sodipodi:nodetypes="cc" /></g></g></g><path
     style="fill:#1f1a17;fill-opacity:1;stroke:#1f1a17;stroke-width:2;stroke-linecap:butt;stroke-linejoin:miter;stroke-dasharray:none;stroke-opacity:1;paint-order:stroke fill markers"
     d="m 140.79617,87.125 -3.74556,2.724112 4.71431,1.244638 2.52329,-2.773667 z"
     id="path31"
     sodipodi:nodetypes="ccccc" /></svg>
