<?xml version="1.0" encoding="UTF-8" standalone="no"?>
<!-- Created with Inkscape (http://www.inkscape.org/) -->
<svg
   xmlns:dc="http://purl.org/dc/elements/1.1/"
   xmlns:cc="http://creativecommons.org/ns#"
   xmlns:rdf="http://www.w3.org/1999/02/22-rdf-syntax-ns#"
   xmlns:svg="http://www.w3.org/2000/svg"
   xmlns="http://www.w3.org/2000/svg"
   xmlns:sodipodi="http://sodipodi.sourceforge.net/DTD/sodipodi-0.dtd"
   xmlns:inkscape="http://www.inkscape.org/namespaces/inkscape"
   width="140"
   height="200"
   id="svg2"
   sodipodi:version="0.32"
   inkscape:version="0.46"
   version="1.0"
   sodipodi:docname="Камбарка герб.svg"
   inkscape:output_extension="org.inkscape.output.svg.inkscape">
  <defs
     id="defs4">
    <inkscape:perspective
       sodipodi:type="inkscape:persp3d"
       inkscape:vp_x="0 : 526.18109 : 1"
       inkscape:vp_y="0 : 1000 : 0"
       inkscape:vp_z="744.09448 : 526.18109 : 1"
       inkscape:persp3d-origin="372.04724 : 350.78739 : 1"
       id="perspective10" />
    <inkscape:perspective
       id="perspective2468"
       inkscape:persp3d-origin="372.04724 : 350.78739 : 1"
       inkscape:vp_z="744.09448 : 526.18109 : 1"
       inkscape:vp_y="0 : 1000 : 0"
       inkscape:vp_x="0 : 526.18109 : 1"
       sodipodi:type="inkscape:persp3d" />
  </defs>
  <sodipodi:namedview
     id="base"
     pagecolor="#ffffff"
     bordercolor="#666666"
     borderopacity="1.0"
     gridtolerance="10000"
     guidetolerance="10"
     objecttolerance="10"
     inkscape:pageopacity="0.0"
     inkscape:pageshadow="2"
     inkscape:zoom="2"
     inkscape:cx="96.75"
     inkscape:cy="105.62871"
     inkscape:document-units="px"
     inkscape:current-layer="layer1"
     showgrid="false"
     borderlayer="true"
     inkscape:window-width="1280"
     inkscape:window-height="750"
     inkscape:window-x="-8"
     inkscape:window-y="-8" />
  <metadata
     id="metadata7">
    <rdf:RDF>
      <cc:Work
         rdf:about="">
        <dc:format>image/svg+xml</dc:format>
        <dc:type
           rdf:resource="http://purl.org/dc/dcmitype/StillImage" />
      </cc:Work>
    </rdf:RDF>
  </metadata>
  <g
     inkscape:label="Layer 1"
     inkscape:groupmode="layer"
     id="layer1">
    <g
       id="g3328">
      <rect
         y="54.999401"
         x="6.6175389e-06"
         height="70.000931"
         width="140"
         id="rect3268"
         style="opacity:1;fill:#ffff00;fill-opacity:1;fill-rule:evenodd;stroke:none;stroke-width:1;stroke-miterlimit:4;stroke-dasharray:none;stroke-dashoffset:0;stroke-opacity:1" />
      <path
         sodipodi:nodetypes="cczzscsssc"
         id="path2474"
         d="M 6.6002049e-06,125.00034 L 139.99999,125.00034 L 139.99999,170.00093 C 139.99999,177.07209 132.07107,185.00113 124.99999,185.00113 L 84.999997,185.00113 C 77.928931,185.00113 72.358799,196.53669 70,200.00133 C 67.95668,196.40578 62.07107,185.00113 55.000001,185.00113 L 15.000006,185.00113 C 7.9289382,185.00113 6.6002049e-06,177.07209 6.6002049e-06,170.00093 L 6.6002049e-06,125.00034 z"
         style="opacity:1;fill:#0000ff;fill-opacity:1;fill-rule:evenodd;stroke:none;stroke-width:4;stroke-linecap:butt;stroke-linejoin:miter;marker:none;marker-start:none;marker-mid:none;marker-end:none;stroke-miterlimit:4;stroke-dasharray:none;stroke-dashoffset:0;stroke-opacity:1;visibility:visible;display:inline;overflow:visible;enable-background:accumulate" />
      <rect
         y="-0.0013318198"
         x="6.6175389e-06"
         height="55.000729"
         width="140"
         id="rect3246"
         style="opacity:1;fill:#65cc33;fill-opacity:1;fill-rule:evenodd;stroke:none;stroke-width:1;stroke-miterlimit:4;stroke-dasharray:none;stroke-dashoffset:0;stroke-opacity:1" />
      <path
         sodipodi:nodetypes="ccccccccccccccc"
         id="path3278"
         d="M 1.0000059,69.999599 L 11.737821,79.999733 L 35.042692,59.999467 L 58.347563,79.999733 L 81.652435,59.999467 L 104.95731,79.999733 L 128.26218,59.999467 L 138.99999,69.999599 L 128.26218,79.999733 L 104.95731,59.999467 L 81.652435,79.999733 L 58.347563,59.999467 L 35.042692,79.999733 L 11.737821,59.999467 L 1.0000059,69.999599 z"
         style="opacity:1;fill:none;fill-opacity:1;fill-rule:evenodd;stroke:#000000;stroke-width:2.00001216;stroke-linecap:butt;stroke-linejoin:bevel;marker:none;marker-start:none;marker-mid:none;marker-end:none;stroke-miterlimit:4;stroke-dasharray:none;stroke-dashoffset:0;stroke-opacity:1;visibility:visible;display:inline;overflow:visible;enable-background:accumulate" />
      <path
         sodipodi:nodetypes="cc"
         id="path3280"
         d="M 6.6002049e-06,59.999467 L 139.99999,59.999467 M 6.6002049e-06,79.999733 L 139.99999,79.999733 M 6.6002049e-06,120.00027 L 139.99999,120.00027"
         style="opacity:1;fill:none;fill-opacity:1;fill-rule:evenodd;stroke:#000000;stroke-width:3;stroke-linecap:butt;stroke-linejoin:miter;marker:none;marker-start:none;marker-mid:none;marker-end:none;stroke-miterlimit:4;stroke-dasharray:none;stroke-dashoffset:0;stroke-opacity:1;visibility:visible;display:inline;overflow:visible;enable-background:accumulate" />
      <path
         sodipodi:nodetypes="csc"
         id="path3290"
         d="M 122.18573,79.999877 C 122.18573,79.999877 139.56754,92.050713 139.56754,100.00006 C 139.56754,107.94941 122.18573,120.00025 122.18573,120.00025 M 122.18573,79.999877 C 122.18573,79.999877 106.98528,92.463782 106.98528,100.00006 C 106.98528,107.53634 122.18573,120.00025 122.18573,120.00025 M 87.395244,79.999877 C 87.395244,79.999877 71.761203,92.384323 71.761203,100 C 71.761203,107.61568 87.395244,120.00012 87.395244,120.00012 M 87.395244,79.999877 C 87.395244,79.999877 105.22407,91.96206 105.22407,100 C 105.22407,108.03794 87.395244,120.00012 87.395244,120.00012 M 52.604752,79.999877 C 52.604752,79.999877 36.537131,92.303533 36.537131,100 C 36.537131,107.69647 52.604752,120.00012 52.604752,120.00012 M 52.604752,79.999877 C 52.604752,79.999877 70,92.048022 70,100 C 70,107.95198 52.604752,120.00012 52.604752,120.00012 M 17.814262,79.999421 C 17.814262,79.999421 2.1936615,92.38657 2.1936609,99.999832 C 2.1936603,107.6131 17.814262,120.00025 17.814262,120.00025 M 17.814262,79.999421 C 17.814262,79.999421 34.775927,92.132538 34.775928,99.999832 C 34.775929,107.86713 17.814262,120.00025 17.814262,120.00025 M 69.999998,79.999758 C 69.999998,79.999758 54.149167,92.344025 54.149167,99.999941 C 54.149167,107.65586 69.999998,120.00012 69.999998,120.00012 M 69.999998,79.999758 C 69.999998,79.999758 87.612036,92.005117 87.612036,99.999941 C 87.612036,107.99476 69.999998,120.00012 69.999998,120.00012 M 35.209508,79.999877 C 35.209508,79.999877 52.387963,92.090597 52.387964,100.00006 C 52.387965,107.90952 35.209508,120.00025 35.209508,120.00025 M 35.209508,79.999877 C 35.209508,79.999877 18.925096,92.26268 18.925095,100.00006 C 18.925094,107.73744 35.209508,120.00025 35.209508,120.00025 M 1.0000059,79.999758 C 1.0000059,79.999758 17.163891,92.285385 17.163892,100 C 17.163893,107.71462 1.0000059,120.00025 1.0000059,120.00025 M 139.58098,79.999877 C 139.58098,79.999877 124.59731,92.502909 124.59731,100 C 124.59731,107.49709 139.58098,120.00012 139.58098,120.00012 M 104.79049,79.999877 C 104.79049,79.999877 122.83611,91.918636 122.83611,100 C 122.83611,108.08136 104.79049,120.00012 104.79049,120.00012 M 104.79049,79.999877 C 104.79049,79.999877 89.373239,92.424204 89.373239,100 C 89.373239,107.5758 104.79049,120.00012 104.79049,120.00012"
         style="opacity:1;fill:none;fill-opacity:1;fill-rule:evenodd;stroke:#000000;stroke-width:2.00001311;stroke-linecap:butt;stroke-linejoin:miter;marker:none;marker-start:none;marker-mid:none;marker-end:none;stroke-miterlimit:4;stroke-dasharray:none;stroke-dashoffset:0;stroke-opacity:1;visibility:visible;display:inline;overflow:visible;enable-background:accumulate" />
    </g>
  </g>
</svg>
