<?xml version="1.0" encoding="UTF-8"?>
<!DOCTYPE svg PUBLIC "-//W3C//DTD SVG 1.1//EN" "http://www.w3.org/Graphics/SVG/1.1/DTD/svg11.dtd">
<!-- Creator: CorelDRAW -->
<svg xmlns="http://www.w3.org/2000/svg" xml:space="preserve" width="143.348mm" height="205.266mm" version="1.1" style="shape-rendering:geometricPrecision; text-rendering:geometricPrecision; image-rendering:optimizeQuality; fill-rule:evenodd; clip-rule:evenodd"
viewBox="0 0 14320.53 20506.2"
 xmlns:xlink="http://www.w3.org/1999/xlink"
 xmlns:xodm="http://www.corel.com/coreldraw/odm/2003">
 <defs>
  <style type="text/css">
   <![CDATA[
    .str0 {stroke:#CD3301;stroke-width:49.95;stroke-linecap:round;stroke-linejoin:round;stroke-miterlimit:22.9256}
    .str4 {stroke:#CD3301;stroke-width:49.95;stroke-linecap:round;stroke-linejoin:round;stroke-miterlimit:22.9256}
    .str1 {stroke:#CD3301;stroke-width:49.95;stroke-linecap:round;stroke-linejoin:round;stroke-miterlimit:22.9256}
    .str2 {stroke:#CD3301;stroke-width:49.95;stroke-linecap:round;stroke-linejoin:round;stroke-miterlimit:22.9256}
    .str3 {stroke:#CD3301;stroke-width:49.95;stroke-linecap:round;stroke-linejoin:round;stroke-miterlimit:22.9256}
    .str5 {stroke:#CD3301;stroke-width:49.95;stroke-linecap:round;stroke-linejoin:round;stroke-miterlimit:22.9256}
    .str6 {stroke:#CD3301;stroke-width:49.95;stroke-linecap:round;stroke-linejoin:round;stroke-miterlimit:22.9256}
    .str7 {stroke:#CD3301;stroke-width:49.95;stroke-linecap:round;stroke-linejoin:round;stroke-miterlimit:22.9256}
    .fil4 {fill:none}
    .fil2 {fill:#FEFEFE}
    .fil3 {fill:#CD3301}
    .fil0 {fill:#FE9901}
    .fil1 {fill:#CD3301;fill-rule:nonzero}
   ]]>
  </style>
 </defs>
 <g id="Слой_x0020_1">
  <metadata id="CorelCorpID_0Corel-Layer"/>
  <path class="fil0" d="M2076.8 0l0 13385.19c0,696.37 245.53,1099.59 718.94,1099.59l3790.35 0c227.75,0 418.96,105.57 574.17,343.63 155.21,-238.05 346.42,-343.63 574.17,-343.63l3790.35 0c473.42,0 718.94,-403.22 718.94,-1099.59l0 -13385.19 -10166.93 0z"/>
  <path class="fil1" d="M1547.18 1140.96l0 12750.83c0,396.84 114.57,659.54 328.7,818.41 229.02,169.91 581.08,239.96 1036.28,239.96l3219.42 0c319.19,0 574.44,20.67 772.18,93.52 101.43,37.37 186.9,86.53 256.5,150.45 69.6,-63.92 155.08,-113.08 256.5,-150.45 197.74,-72.85 452.99,-93.52 772.18,-93.52l3219.42 0c455.2,0 807.26,-70.05 1036.28,-239.96 214.14,-158.86 328.7,-421.57 328.7,-818.41l0 -12750.83 399.6 0 0 12750.83c0,534.68 -171.14,901.09 -491.04,1138.41 -305,226.27 -735.36,319.56 -1273.54,319.56l-3219.42 0c-276.35,0 -489.89,15.14 -634.82,68.54 -106.18,39.13 -172.94,104.87 -200.31,213.55l-193.56 768.5 -193.56 -768.5c-27.37,-108.68 -94.13,-174.42 -200.31,-213.55 -144.93,-53.4 -358.47,-68.54 -634.82,-68.54l-3219.42 0c-538.18,0 -968.55,-93.29 -1273.54,-319.56 -319.9,-237.31 -491.04,-603.73 -491.04,-1138.41l0 -12750.83 399.6 0zm12630.23 0l0 13121.18c0,645.97 -191.83,1151.04 -540.34,1500.5 -356.59,357.56 -868.63,543.94 -1499.08,543.94l-3827.36 0c-220.86,0 -414.76,107.58 -569.09,259.36 -210.28,206.79 -346.37,488.79 -384.58,706.47l-196.68 1120.23 -196.68 -1120.23c-38.21,-217.67 -174.3,-499.67 -384.58,-706.47 -154.34,-151.78 -348.23,-259.36 -569.09,-259.36l-3827.36 0c-630.45,0 -1142.49,-186.37 -1499.08,-543.94 -348.51,-349.45 -540.34,-854.53 -540.34,-1500.5l0 -13121.18 399.6 0 0 13121.18c0,535.73 150.27,945.77 423.28,1219.52 278.82,279.58 694.33,425.32 1216.54,425.32l3827.36 0c338,0 625.42,155.49 848.5,374.87 120.12,118.13 221.63,256.04 301.86,397.87 80.23,-141.84 181.74,-279.74 301.86,-397.87 223.08,-219.38 510.49,-374.87 848.5,-374.87l3827.36 0c522.21,0 937.72,-145.74 1216.54,-425.32 273.01,-273.75 423.28,-683.79 423.28,-1219.52l0 -13121.18 399.6 0z"/>
  <path class="fil2" d="M10840.03 11425.66l-7359.52 0c-235.29,0 -427.78,-192.5 -427.78,-427.78l0 1963.02c0,219.78 179.82,399.6 399.6,399.6l7415.88 0c219.78,0 399.6,-179.82 399.6,-399.6l0 -1963.02c0,235.29 -192.5,427.78 -427.78,427.78z"/>
  <path class="fil1" d="M4373.82 12906.94l-177.88 0 -388.86 -508.99 0 508.99 -141.55 0 0 -1038.05 141.55 0 0 482.96 380.72 -482.96 167.59 0 -410.01 493.54 428.44 544.51zm948.57 0l-154.03 0 -71.86 -226.16 -433.88 0 -71.86 226.16 -146.97 0 344.66 -1038.05 193.89 0 340.05 1038.05zm-266.3 -353.07l-176.25 -555.63 -176.8 555.63 353.06 0zm1081.98 353.07l-141.55 0 0 -476.72 -436.05 0 0 476.72 -141.55 0 0 -1038.05 141.55 0 0 439.3 436.05 0 0 -439.3 141.55 0 0 1038.05zm973.51 0l-154.03 0 -71.86 -226.16 -433.88 0 -71.86 226.16 -146.97 0 344.66 -1038.05 193.89 0 340.05 1038.05zm-266.3 -353.07l-176.25 -555.63 -176.8 555.63 353.06 0zm1073.85 42.58c0,49.62 -9.49,93.83 -28.75,132.33 -18.98,38.24 -46.09,70.78 -81.62,97.08 -35.25,26.57 -77.82,46.64 -127.99,60.47 -49.9,13.83 -105.49,20.61 -166.77,20.61l-268.45 0 0 -1038.05 293.41 0c228.59,0 342.76,84.07 342.76,252.46 0,56.13 -13.29,104.41 -39.59,144.81 -26.3,40.14 -69.42,69.97 -129.08,89.76 27.93,5.15 54.24,14.11 79.18,26.84 24.68,12.75 46.64,29.29 65.62,49.36 18.71,20.06 33.9,43.93 44.75,71.31 11.12,27.66 16.54,58.58 16.54,93.02zm-178.97 -456.12c0,-21.15 -3.26,-41.21 -9.49,-59.92 -6.24,-18.99 -17.36,-34.99 -33.09,-48.54 -15.72,-13.56 -37.15,-24.41 -63.73,-32.27 -26.84,-7.87 -60.74,-11.94 -101.69,-11.94l-145.08 0 0 325.41 140.19 0c32.28,0 61.29,-3.53 87.05,-10.3 26.03,-7.05 48.53,-17.63 66.97,-32 18.71,-14.11 33.36,-32 43.39,-53.7 10.31,-21.42 15.46,-46.91 15.46,-76.74zm37.41 461c0,-26.58 -5.69,-50.44 -16.8,-71.6 -11.12,-21.42 -27.12,-39.31 -48.54,-53.69 -21.16,-14.65 -46.91,-26.03 -77.28,-33.9 -30.65,-7.86 -64.82,-11.93 -103.05,-11.93l-144.81 0 0 357.94 149.41 0c81.36,0 141.56,-15.18 181.42,-45.28 39.86,-30.37 59.65,-77.55 59.65,-141.55zm473.2 -732.44l0 784.77 430.08 -784.77 134.51 0 0 1038.05 -141.56 0 0 -783.96 -429.26 783.96 -135.32 0 0 -1038.05 141.55 0zm1465.69 1038.05l-141.55 0 0 -476.72 -436.05 0 0 476.72 -141.55 0 0 -1038.05 141.55 0 0 439.3 436.05 0 0 -439.3 141.55 0 0 1038.05zm938.53 -525.81c0,93.29 -11.12,173.83 -33.08,241.62 -21.97,67.79 -51.53,123.93 -88.94,168.12 -37.15,44.21 -80.81,77.01 -130.98,98.44 -49.9,21.42 -102.78,32.27 -158.36,32.27 -66.71,0 -125.02,-11.94 -174.37,-36.06 -49.62,-24.14 -90.57,-59.12 -123.11,-104.68 -32.55,-45.55 -56.95,-100.88 -72.68,-166.5 -16,-65.34 -23.87,-139.11 -23.87,-221.27 0,-92.2 10.85,-172.2 32.55,-239.99 21.69,-67.79 51.25,-123.93 88.67,-168.12 37.14,-44.21 80.81,-77.01 130.7,-98.44 49.63,-21.42 102.24,-32.27 157.82,-32.27 66.71,0 125.02,12.21 174.37,36.61 49.62,24.41 90.84,59.11 123.65,104.4 32.82,45.28 57.22,100.61 73.5,165.69 15.99,65.35 24.13,138.57 24.13,220.19zm-141.55 10.04c0,-61.02 -4.61,-116.87 -14.1,-167.31 -9.49,-50.71 -24.96,-94.1 -45.83,-130.71 -21.15,-36.6 -48.26,-64.81 -81.62,-85.15 -33.36,-20.07 -73.49,-30.1 -120.4,-30.1 -45.28,0 -84.61,10.85 -117.14,32.27 -32.82,21.43 -59.66,50.44 -80.81,87.32 -20.88,36.87 -36.61,79.99 -46.91,129.62 -10.31,49.35 -15.46,101.96 -15.46,157.54 0,61.56 4.89,117.42 14.65,168.13 9.76,50.71 24.96,94.1 45.83,130.43 20.88,36.06 47.72,64.27 80.53,84.61 33.09,20.07 72.95,30.1 119.32,30.1 45.55,0 84.61,-10.85 117.68,-32.27 32.82,-21.43 60.2,-50.44 81.36,-87.32 21.42,-36.87 37.14,-79.72 47.45,-129.07 10.3,-49.35 15.45,-101.96 15.45,-158.09z"/>
  <path class="fil2" d="M10776.49 5115.13l646.01 0c27.6,196.95 42.2,398.07 42.2,602.64 0,2377.27 -1927.16,4304.43 -4304.43,4304.43 -2377.27,0 -4304.43,-1927.16 -4304.43,-4304.43 0,-204.57 14.6,-405.69 42.2,-602.64l646.01 0c73.67,-445.32 227.74,-863.44 446.55,-1239.23l-460.25 -431.01 1024.68 -1094.2 438.26 410.42c414.65,-304.53 895.71,-523.91 1417.44,-632.38l0 -524.54 1499.08 0 0 524.5c521.77,108.42 1002.81,327.88 1417.5,632.39l438.23 -410.39 1024.68 1094.2 -460.16 430.93c218.82,375.76 372.77,793.99 446.44,1239.31z"/>
  <path class="fil1" d="M11152.62 5803.34c-22.83,1084.27 -477.64,2062.21 -1199.23,2768.51 -720.21,704.96 -1705.99,1139.55 -2793.12,1139.55 -1087.13,0 -2072.91,-434.59 -2793.12,-1139.55 -721.58,-706.3 -1176.4,-1684.23 -1199.23,-2768.51l-0.02 -0.98 -0.18 0 0 -8.54 -0.87 -41.41 0.87 0 0 -384.96 609.95 0c36.9,-280.03 107.75,-549.33 208.26,-803.58 103,-260.55 237.31,-505.54 398.28,-730.3l-429.9 -402.58 614.62 -656.32 430.17 402.85c242.72,-198.91 513.37,-365.09 805.17,-491.65 284.38,-123.36 588.52,-209.12 906.15,-250.98l0 -530.99 899.68 0 0 530.99c317.62,41.86 621.79,127.62 906.17,250.98 291.79,126.56 562.45,292.73 805.17,491.65l430.18 -402.85 614.62 656.32 -429.91 402.59c160.97,224.77 295.29,469.75 398.27,730.29 100.51,254.25 171.36,523.55 208.26,803.58l609.95 0 0 384.96 0.87 0 -0.87 41.41 0 8.54 -0.18 0 -0.02 0.98zm-3992.35 1227.22c340.36,0 648.54,-137.11 872.29,-359.05 213.03,-211.3 349.72,-499.39 365.11,-819.2l-2474.8 0c15.38,319.8 152.08,607.9 365.11,819.2 223.75,221.94 531.93,359.05 872.29,359.05zm942.54 -288.42c-241.99,240.03 -575.02,388.32 -942.54,388.32 -367.52,0 -700.55,-148.29 -942.54,-388.32 -231.09,-229.22 -378.99,-542.28 -394.47,-889.82l-1516.52 0 -172.93 0c10.46,820.17 347.14,1561.73 886.24,2100.82 547.73,547.73 1304.41,886.51 2140.22,886.51 835.81,0 1592.5,-338.78 2140.22,-886.51 539.09,-539.09 875.78,-1280.65 886.24,-2100.82l-172.93 0 -1516.52 0c-15.47,347.54 -163.38,660.6 -394.47,889.82zm-942.54 -3782.9c785.92,0 1497.7,317.87 2013.82,832.06 505.29,503.41 822.87,1195.14 838.87,1961.11l1039.97 0 0 -285.06 -598.42 0 -5.22 -44.1c-34.04,-287.04 -104.83,-562.91 -207.53,-822.7 -105.46,-266.76 -244.43,-516.43 -411.67,-743.72l-26.1 -35.46 421.8 -395 -478.74 -511.22 -421.87 395.06 -33.75 -28.39c-244.01,-205.29 -518.04,-376.04 -814.55,-504.64 -288.16,-125 -598,-210.23 -922.55,-248.69l-44.1 -5.22 0 -519.46 -699.87 0 0 519.46 -44.1 5.22c-324.56,38.46 -634.37,123.7 -922.53,248.69 -296.51,128.6 -570.53,299.36 -814.55,504.64l-33.75 28.39 -421.86 -395.06 -478.74 511.22 421.79 394.99 -26.1 35.46c-167.24,227.29 -306.23,476.97 -411.68,743.73 -102.71,259.79 -173.5,535.66 -207.53,822.7l-5.22 44.1 -598.42 0 0 285.06 1039.97 0c15.99,-765.97 333.58,-1457.7 838.87,-1961.11 516.12,-514.19 1227.9,-832.06 2013.82,-832.06zm1943.57 902.69c-497.96,-496.11 -1184.9,-802.79 -1943.57,-802.79 -758.67,0 -1445.6,306.68 -1943.57,802.79 -487.29,485.48 -793.72,1152.26 -809.6,1890.48l1414.44 0 2677.46 0 1414.44 0c-15.88,-738.22 -322.32,-1405 -809.6,-1890.48zm1182.8 1990.38c-10.47,847.75 -358.33,1614.26 -915.52,2171.45 -565.81,565.81 -1347.47,915.78 -2210.85,915.78 -863.38,0 -1645.04,-349.97 -2210.85,-915.78 -557.19,-557.19 -905.05,-1323.7 -915.52,-2171.45l-765.07 0c35.19,1036.72 475.74,1970.74 1168.17,2648.51 701.97,687.1 1663.08,1110.68 2723.27,1110.68 1060.2,0 2021.3,-423.58 2723.27,-1110.68 692.43,-677.77 1132.97,-1611.79 1168.17,-2648.51l-765.07 0z"/>
  <path class="fil3" d="M7160.27 3645.51c1193.49,0 2161.58,964.7 2167.27,2156.84l-4334.55 0c5.69,-1192.14 973.78,-2156.84 2167.27,-2156.84z"/>
  <g id="_1845256660960">
   <g>
    <path class="fil0 str0" d="M6124.13 20021.31c429.93,-487.27 905.71,-825.6 1427.33,-1015 -602.88,271.45 -1004.65,763.09 -1205.3,1474.92 -148.02,-306.61 -222.03,-459.92 -222.03,-459.92z"/>
    <path class="fil0 str0" d="M9385.85 17758.71c-1262.33,101.42 -1873.8,517.29 -1834.4,1247.6 846.83,-601.1 1458.29,-1016.97 1834.4,-1247.6z"/>
    <path class="fil0 str0" d="M9385.85 17758.71c-309.64,1088.36 -921.1,1504.22 -1834.4,1247.6 349.04,-255.67 960.51,-671.53 1834.4,-1247.6z"/>
    <path class="fil0 str0" d="M9019.19 18565.66c-41.06,60.67 -107.25,134.86 -198.58,222.56 1247.33,191.2 1870.99,286.79 1870.99,286.79 -675.7,-545.08 -1233.16,-714.86 -1672.41,-509.35z"/>
    <path class="fil0 str0" d="M8820.61 18788.22c708.62,108.62 1332.27,204.22 1870.99,286.79 -1021.29,489.44 -1702.15,436.63 -2042.55,-158.47 29.72,-15.75 86.9,-58.52 171.56,-128.32z"/>
    <path class="fil0 str0" d="M11783.25 17425.64c-1327.23,12.02 -2022.59,376.64 -2086.08,1093.84 246.94,-174.16 942.31,-538.76 2086.08,-1093.84z"/>
    <path class="fil0 str0" d="M9697.16 18519.48c916.66,253.78 1612.02,-110.84 2086.08,-1093.84 -928.98,441.3 -1624.33,805.91 -2086.08,1093.84z"/>
    <path class="fil4 str0" d="M9483.95 18484.14c56.07,-133.97 143.2,-301.78 261.38,-503.44"/>
    <circle class="fil0 str1" cx="9828.58" cy="17827.4" r="165.21"/>
    <circle class="fil0 str2" cx="11197.76" cy="18897.9" r="165.21"/>
    <path class="fil4 str0" d="M10322.54 18595.14c374.75,114.25 614.43,197.15 719.05,248.73"/>
    <path class="fil0 str0" d="M11426.04 17999.65c570.35,-2 1199.11,-14.04 1886.25,-36.12 -691.51,-395.57 -1251.16,-482.18 -1678.94,-259.84 -69.83,114.55 -138.93,213.21 -207.31,295.97z"/>
    <path class="fil0 str0" d="M11426.04 17999.65c719.95,-5.13 1348.71,-17.18 1886.25,-36.12 -800.12,645.1 -1487.68,720.36 -2062.66,225.78 64.18,-60.68 122.98,-123.9 176.4,-189.65z"/>
    <path class="fil0 str0" d="M12870.77 17745.57c86.97,36.26 160.09,69.35 219.36,99.25 676,-22.01 1077.81,-459.1 1205.43,-1311.29 -628.8,536.03 -1103.73,940.03 -1424.79,1212.03z"/>
    <path class="fil0 str0" d="M14295.56 16533.53c-1021.39,154.91 -1496.32,558.92 -1424.79,1212.03 461.11,-391.15 936.04,-795.16 1424.79,-1212.03z"/>
    <path class="fil4 str0" d="M13381.79 17805.41c272.61,17.29 408.91,25.94 408.91,25.94"/>
    <circle class="fil0 str3" cx="13957.28" cy="17856.48" r="165.21"/>
   </g>
   <g>
    <path class="fil0 str4" d="M8196.41 20021.31c-429.93,-487.27 -905.71,-825.6 -1427.33,-1015 602.88,271.45 1004.65,763.09 1205.3,1474.92 148.02,-306.61 222.03,-459.92 222.03,-459.92z"/>
    <path class="fil0 str4" d="M4934.68 17758.71c1262.33,101.42 1873.8,517.29 1834.4,1247.6 -846.83,-601.1 -1458.29,-1016.97 -1834.4,-1247.6z"/>
    <path class="fil0 str4" d="M4934.68 17758.71c309.64,1088.36 921.1,1504.22 1834.4,1247.6 -349.04,-255.67 -960.51,-671.53 -1834.4,-1247.6z"/>
    <path class="fil0 str4" d="M5301.35 18565.66c41.06,60.67 107.25,134.86 198.58,222.56 -1247.33,191.2 -1870.99,286.79 -1870.99,286.79 675.7,-545.08 1233.16,-714.86 1672.41,-509.35z"/>
    <path class="fil0 str4" d="M5499.93 18788.22c-708.62,108.62 -1332.27,204.22 -1870.99,286.79 1021.29,489.44 1702.15,436.63 2042.55,-158.47 -29.72,-15.75 -86.9,-58.52 -171.56,-128.32z"/>
    <path class="fil0 str4" d="M2537.29 17425.64c1327.23,12.02 2022.59,376.64 2086.08,1093.84 -246.94,-174.16 -942.31,-538.76 -2086.08,-1093.84z"/>
    <path class="fil0 str4" d="M4623.37 18519.48c-916.66,253.78 -1612.02,-110.84 -2086.08,-1093.84 928.98,441.3 1624.33,805.91 2086.08,1093.84z"/>
    <path class="fil4 str4" d="M4836.59 18484.14c-56.07,-133.97 -143.2,-301.78 -261.38,-503.44"/>
    <circle class="fil0 str5" cx="4491.95" cy="17827.4" r="165.21"/>
    <circle class="fil0 str6" cx="3122.77" cy="18897.9" r="165.21"/>
    <path class="fil4 str4" d="M3997.99 18595.14c-374.75,114.25 -614.43,197.15 -719.05,248.73"/>
    <path class="fil0 str4" d="M2894.49 17999.65c-570.35,-2 -1199.11,-14.04 -1886.25,-36.12 691.51,-395.57 1251.16,-482.18 1678.94,-259.84 69.83,114.55 138.93,213.21 207.31,295.97z"/>
    <path class="fil0 str4" d="M2894.49 17999.65c-719.95,-5.13 -1348.71,-17.18 -1886.25,-36.12 800.12,645.1 1487.68,720.36 2062.66,225.78 -64.18,-60.68 -122.98,-123.9 -176.4,-189.65z"/>
    <path class="fil0 str4" d="M1449.77 17745.57c-86.97,36.26 -160.09,69.35 -219.36,99.25 -676,-22.01 -1077.81,-459.1 -1205.43,-1311.29 628.8,536.03 1103.73,940.03 1424.79,1212.03z"/>
    <path class="fil0 str4" d="M24.98 16533.53c1021.39,154.91 1496.32,558.92 1424.79,1212.03 -461.11,-391.15 -936.04,-795.16 -1424.79,-1212.03z"/>
    <path class="fil4 str4" d="M938.75 17805.41c-272.61,17.29 -408.91,25.94 -408.91,25.94"/>
    <circle class="fil0 str7" cx="363.26" cy="17856.48" r="165.21"/>
   </g>
  </g>
 </g>
</svg>
