<?xml version="1.0" encoding="utf-8"?>
<!-- Generator: Adobe Illustrator 15.1.0, SVG Export Plug-In  -->
<!DOCTYPE svg PUBLIC "-//W3C//DTD SVG 1.1//EN" "http://www.w3.org/Graphics/SVG/1.1/DTD/svg11.dtd" [
	<!ENTITY ns_flows "http://ns.adobe.com/Flows/1.0/">
]>
<svg version="1.1"
	 xmlns="http://www.w3.org/2000/svg" xmlns:xlink="http://www.w3.org/1999/xlink" xmlns:a="http://ns.adobe.com/AdobeSVGViewerExtensions/3.0/"
	 x="0px" y="0px" width="590px" height="620px" viewBox="-4.4 -4.7 590 620" enable-background="new -4.4 -4.7 590 620"
	 xml:space="preserve">
<defs>
</defs>
<path d="M512.2,272.7v168.3c0,35.9-25.9,65.2-57.6,65.2H335.1c-22.7,0-42,34.8-42.2,35.2l-2.3,5.1l-2.3-5.1
	c-0.2-0.4-19.5-35.2-42.2-35.2H123.9c-31.8,0-57.6-29.2-57.6-65.2l0-169l0.7-0.7c21.6-22.3,33.6-51.6,33.6-82.7
	c0-30.9-11.8-60.1-33.2-82.3l-1.1-1.1V0h179.6c28.6,0,39.4,17.5,43.4,30.4c4.2-13,15.5-30.4,45.5-30.4h177.4l0,104.5l-0.7,0.7
	c-22.1,22.3-34.3,52-34.3,83.4c0,31.4,12.2,61,34.3,83.4L512.2,272.7z"/>
<path d="M577.4,473.4c-1.5-2.4-4.7-3.8-7.9-5.1c-1.9-0.8-3.8-1.6-5.3-2.6c0,0,0,0,0,0c-1-0.7-1.8-1.5-2.3-2.4
	c-1.9-3.5-1.3-9.6-0.8-16c0.7-8.1,1.5-17.4-1.9-24.6c-1.3-2.8-4.7-4.3-7.7-5.6c-2.7-1.1-5.2-2.2-5.3-3.9c-0.6-5.5,0.5-12.5,1.6-20
	c1.9-12.7,4.1-27-1.5-37.8c-0.1-0.2-0.3-0.3-0.5-0.3c-0.2,0-0.4,0.2-0.4,0.3l-5.8,19.4c-2.2-38.5-18.1-60.1-18.3-60.4
	c-0.1-0.2-0.4-0.3-0.6-0.2c-0.2,0.1-0.3,0.3-0.3,0.5c0.1,0.3,5.2,33.3,5.1,45c0,1.9,0,3.8,0,5.7c0.1,10.3,0.2,20.9-4.9,34.8
	c-2.9,7.9-1.9,11.9-0.5,13.8c0.9,1.3,2.2,2,3.4,2.3c0,0,0,0,0,0l11.5,4.1c-0.9,2.3-2,4.7-3.1,7.3c-4.1,9.1-9.1,20.4-9.1,30.5
	c0,3.2,0,10.1,5,11.8l21,9.7c-2.8,5.7-6.8,11.2-10.7,12.4c-0.2,0-0.3,0-0.5,0c-0.5-0.1-1-0.6-1.6-1.1c-1.2-1-2.8-2.4-5.2-2.3
	c-3.9,0.2-9.5,2-12.5,5.5c-5.3,6.1-8.5,12.4-8.1,16.2c0.3,3.2,3.7,8.1,6.5,12.1c1,1.5,2.1,3.1,2.7,4.1c0,0,0,0,0,0
	c0.2,0.4,0.4,0.7,0.3,0.8c-0.3,1.3-10.1,8.8-12.2,8.8c0,0-0.1,0-0.1-0.1c0,0-0.1-0.1-0.1-0.2c-0.6-0.9-1.5-3.8-2.4-6.4
	c-1.9-5.9-4.5-14-8-17c-4.8-4.1-19.5-4.3-21.2-4.3c-15.1,0-28.3,8.2-28.3,13.2c0,0.3,0,0.6,0.1,0.8c0,0,0,0.1,0,0.1
	c0,0.1,0.1,0.1,0.1,0.2l6.8,13.1c-36.7,10.3-113.1,13.4-163.6,13.4h-0.3c-50.5,0-126.8-3.1-163.5-13.4l6.8-13
	c0.3-0.4,0.4-0.9,0.4-1.3c0-5-13.2-13.2-28.3-13.2c-1.7,0-16.4,0.1-21.2,4.3c-3.5,3-6.1,11.1-8,17c-1,3-2,6.4-2.7,6.7
	c-2.1,0-11.9-7.6-12.2-8.8c0-0.2,0.1-0.5,0.3-0.8l0,0c0.5-1,1.7-2.6,2.7-4.1c2.8-4,6.2-8.9,6.5-12.1c0.3-3.8-2.9-10.1-8.1-16.2
	c-3-3.5-8.6-5.3-12.5-5.5c-2.4-0.1-3.9,1.2-5.2,2.3c-0.8,0.7-1.5,1.3-2,1.1c-3.8-1.2-7.9-6.7-10.7-12.4l21-9.7c5-1.7,5-8.6,5-11.8
	c0-10.1-5.1-21.5-9.1-30.5c-1.1-2.6-2.3-5-3.1-7.3l11.4-4.1l0,0c1.2-0.2,2.4-0.9,3.4-2.3c1.4-1.9,2.4-5.9-0.5-13.8
	c-5.1-13.9-5-24.5-4.9-34.8c0-1.9,0-3.8,0-5.7c-0.1-11.7,5-44.7,5.1-45c0-0.2-0.1-0.5-0.3-0.5s-0.5,0-0.6,0.2
	c-0.2,0.2-16.1,21.8-18.3,60.4L36,355.6c-0.1-0.2-0.2-0.3-0.4-0.3c-0.2,0-0.4,0.1-0.5,0.3c-5.5,10.8-3.4,25.1-1.5,37.8
	c1.1,7.4,2.2,14.4,1.6,20c-0.2,1.7-2.7,2.8-5.3,3.9c-3,1.3-6.4,2.8-7.7,5.6c-3.5,7.2-2.6,16.5-1.9,24.6c0.6,6.4,1.1,12.5-0.8,16
	c-1.2,2.3-4.5,3.7-7.6,5c-3.1,1.3-6.4,2.7-7.9,5.1C1.3,477.6,0,483.8,0,491.9c0,4.6,2.4,13.2,5.7,20.4c2.4,5.2,7.2,13.9,12.5,13.9
	c0.5,0,1-0.1,1.5-0.2c0.6-0.2,1.1-0.6,1.3-1.1l9.6-13.3c4,3,8.1,7.4,11.5,12.1l-11,15.6c0,0,0,0,0,0c-1.9,2.2-2,5.4-0.3,9.2
	c4.9,10.7,24.6,25.6,37.3,25.6c3.4,0,6.1-1.1,7.8-3.2c0.5-0.6,0.8-1.3,0.8-2l4.9-15.2c10.8,1.2,22.4,4.7,24.5,7.3
	c0.3,0.3,0.4,0.7,0.5,1.2c0.2,1.4-0.1,3.4-0.4,5.4c-0.5,3-0.9,5.9,0.4,7.4c30.4,35.5,137,35.5,182.6,35.5h2.9
	c45.5,0,152.1,0,182.6-35.5c1.3-1.5,0.9-4.4,0.4-7.4c-0.3-1.9-0.6-3.9-0.4-5.3v0c0.1-0.5,0.2-1,0.5-1.3c2.1-2.6,13.6-6.1,24.5-7.3
	l4.9,15.2c0,0.7,0.3,1.4,0.8,2c0.9,1.1,2,1.9,3.3,2.4c1.3,0.5,2.8,0.8,4.5,0.8c12.8,0,32.5-14.9,37.3-25.6c1.7-3.8,1.6-6.9-0.3-9.2
	c0,0,0,0,0,0l-11-15.6c3.3-4.7,7.5-9.1,11.5-12.1l9.6,13.3c0.3,0.5,0.7,0.9,1.3,1.1c0.5,0.1,1,0.2,1.5,0.2
	c8.9,0,18.2-25.5,18.2-34.4C581.3,483.8,579.9,477.6,577.4,473.4z M536,420.6C536,420.6,535.9,420.6,536,420.6
	C535.9,420.6,536,420.6,536,420.6C536,420.6,536,420.6,536,420.6z"/>
<path fill="#F8F103" d="M399.1,270c-4.1-4.5-8.7-9.6-14.7-11.3c0.4-0.3,0.8-0.6,1.2-1c6.2-5.7,5-14.1,5.3-21.8
	c0-0.2-0.1-0.4-0.1-0.5c0.2-1-1.3-1.8-1.8-0.7c-1.7,3.2-3,6.1-6.6,7.7c-2.7,1.2-5.4,2.4-7.9,4.1c-3.9,2.7-7.3,5.9-9.6,10.1
	c-0.1,0-0.1,0-0.2,0.1c-6.1,2.1-9.7,0.7-15.4-1.7c-3.4-1.5-7.2-2.8-11-2.6c-8.2,0.5-14.8,4.9-20.6,10.4c-0.9,0.8-1.8,1.7-2.8,2.5
	c-0.3,0.2-0.7,0.4-1,0.7c0.1-0.5,0.2-1,0.4-1.5c0,0,0,0,0,0c3.1-3.7,6.1-7.9,7.8-12.5c2.1-5.6,1.2-9.7,0-15.3
	c-0.2-0.7-0.1-3.4-0.7-3.4c-0.6-0.1-2.7,2.3-3,2.8c-3.8,4.1-8.5,7.5-10.5,12.8c-2,5.3,0.4,10.4,3.5,14.9c-0.2,1-0.4,1.9-0.8,2.9
	c-0.3,0.7-0.6,1.3-1,1.9c-4.5,2.5-8.9,4.7-12.4,9c-0.8,1-1.6,2-2.3,3.1c-0.1,0.3-0.3,0.6-0.4,0.8c0-8.8-0.3-23.7-0.2-24.2
	c1.9-13.2,13.8-20.9,21.6-30.5c0.5-0.3,0.9-0.7,1.4-1c0.8-0.6,1.7-1.1,2.4-1.8c6.4-2.9,12.9-4.6,19.5-5c0.1,0.1,1.8,1.3,1.9,1.3
	c2.3,1.4,2.8,4,3.1,6.6c-1.6-0.9-3.6-1.4-5.3-1.4c-2.7,0.1-6.1,6.1-6,10.2c0,2.2,3.7,7.9,5.8,8.4c1.9,0.5,5.7-1,5.7-1
	s3.6,1.6,5.3,1.1c2.5-0.8,6.5-6,6.5-8.6c0-3.4-1.7-10-5.1-10c-1.6,0-4.2,0.5-5.4,1.3c-0.4-2.7-0.7-5.8-2.2-8.1
	c3.5,0.1,7.1,0.6,10.8,1.6c3.3,2.9,7.6,5.5,12,5.9c6.4,0.6,13.1-1.1,19.5-1.2c0.2,0,0.4-0.1,0.6-0.2c0.6-0.1,1.2-1,0.6-1.7
	c-4-5.2-9.7-9.8-16.3-10.9c-6.1-1.1-11.8,2.6-16.7,5.8c-0.1,0.1-0.2,0.1-0.2,0.2c-0.9-0.2-1.8-0.4-2.7-0.6c4.6-2.1,7.6-7.2,8.3-12.1
	c1-6.8-1.6-11.6-5.2-17.2c-0.5-0.8-1-2.9-1.2-2.2c-0.2,0.1-1,2.7-1.1,3.1c-1.3,4.7-4.7,8.3-5.4,13.3c-0.7,5.1,0.1,9.7,2,14.4
	c0.1,0.2,0.2,0.4,0.4,0.5c-10.4-1.5-20.4,0.4-30.1,4.8c0,0-0.1,0-0.1,0c-0.6,0.3-1.2,0.6-1.8,0.8c-1.1,0.5-2.2,1.1-3.3,1.6
	c0.8-1,1.8-2.1,2.9-2.8c0.1,0,0.3-0.1,0.4-0.2c0.5-0.1,1-0.3,1.5-0.4c0.1,0,0.1,0,0.1-0.1c8.9-0.8,18.1-8.7,20.5-17.2l1.2-2.8
	c0,0-2.9,1.3-3,1.4c-4.3,1.7-8.7,2.8-12.4,5.8c-3.9,3.2-7.2,7.1-9.3,11.7c0,0,0,0,0,0c-1.2,0.8-2.1,1.8-3,2.8
	c-0.1-0.8-0.2-1.6-0.3-2.4c3.1-4.7,6.4-9.2,6.4-15c0-4-3.2-7.6-5.5-10.5c0,0-1.2-1.9-1.2-1.6c0.2,1.3-0.5,2.4-0.5,2.4
	c-5.2,7.5-4.7,16.1-1.4,24.3c0.1,0.2,0.2,0.3,0.3,0.4c0.1,1,0.4,1.9,0.3,2.9c-0.1,1.2-0.5,2.3-1,3.4c-2.9,1.7-5.6,3.6-8,6
	c-3.2,3.2-5.5,7-7.8,10.8l-0.1-42c3.7-6.4,7.2-12.7,12.9-17.5c4.5-3.8,8.6-9.8,14.5-11.2c0.2,0,0.5,0,0.7-0.1c0.2,0,0.4,0,0.6-0.1
	c1.9,1.2,3.8,5.9,4.1,8c-1.3-0.7-3-1.2-4.5-1.2c-2.3,0.1-5.1,5.1-5.1,8.6c0,1.8,3.1,6.6,4.9,7.1c1.6,0.4,4.7-0.8,4.7-0.8
	s3,1.4,4.5,0.9c2.1-0.7,5.5-5.1,5.5-7.3c0-2.9-1.4-8.4-4.3-8.4c-1.3,0-3.5,0.4-4.6,1.1c-0.4-2.9-0.7-6.3-3.2-8.1
	c0.5,0,1.1,0.1,1.6,0.2c0.1,0.1,0.1,0.2,0.2,0.2c8.2,6.7,16.9,2.9,26.3,1.9c0.1,0,0.2,0,0.2-0.1c0.6,0,1.1-0.5,0.9-1.2
	c-1.9-4.6-6.4-7.6-11-9c-6-1.9-12,3-16.4,6.2c-0.7-0.1-1.3-0.2-1.9-0.2c6.1-6.8,12.3-16.4,7.8-25.4c-0.1-0.3-0.3-0.4-0.5-0.5
	c-0.4-0.3-1.1-0.4-1.5,0.2c-2.8,4-7.4,6.9-8.9,11.9c-1.4,4.8-1.3,9.4-1,14.3c-4.9,1.5-8.5,5.9-12.6,9.5c-1.8,1.6-3.5,3.1-5.1,4.7
	c0.1-1,0.4-1.9,0.8-2.7c3.7-2,6.2-5.8,8.1-9.5c1-2,1.9-4,2.3-6.2c0.4-2-0.3-4.1-0.4-6.1c0-0.3,0-2.6,0-2.6s-1.4,1.4-1.9,1.8
	c-7.5,6.2-11.7,16.4-11,26.1c0,0.5,0,1,0,1.5c0,0,0,0,0,0.1c-0.6,0.8-1.3,1.6-1.8,2.4c-1.7,2.6-3.4,5.2-5,7.9v-27.3
	c1.3,0.3,2.9,0.6,4,0.3c2.4-0.6,6.6-7.1,6.6-9.6c0-1.6-0.4-3.5-1.2-5.3c3.3-1.3,6.5-3.6,8.7-5.8c3.6-3.8,6.4-9.8,7.4-13.6
	c0.2-0.7,0.4-3,0.4-3l-2.1,1.3c-7,4.4-12.5,10-17.3,16.3c-0.9-0.9-1.8-1.5-2.7-1.5c0,0,0,0-0.1,0c0.1-0.1,0.1-0.2,0.2-0.3
	c0,0,0.1,0,0.1,0c5.2-3.6,9.7-6.6,12.6-12.4c1.9-4,3-8.8,1-12.9c0-0.1-0.1-0.1-0.1-0.2c-0.2-0.6-0.8-1-1.4-0.6
	c-4.1,2.9-7.5,6.5-10.1,10.9c-2.9,4.9-3,8.5-3.4,13.9c0,0,0,0,0,0c-0.3,0.8-1,1.5-1.7,2.1c-0.2,0.1-0.4,0.1-0.7,0.2v-17.9
	c4.7-9.7,4.5-19.3-1.6-28.5c-0.3-0.4-0.7-1.5-0.7-1.5s-0.8,1.3-0.9,1.3c-3.5,4.7-4.7,8.1-4.8,13.7c-0.1,5.2,1.5,10.3,4,15v18.9
	c-0.5-0.3-1.3-0.6-2.1-0.9c-0.6-0.8-1.2-1.5-1.8-2.3c-0.4-5.4-0.5-9-3.5-13.9c-2.6-4.3-6-8-10.1-10.9c-0.6-0.4-1.2,0-1.4,0.6
	c0,0.1-0.1,0.1-0.1,0.2c-2,4.1-1,8.9,1,12.9c2.8,5.9,7.3,8.9,12.6,12.4c0,0,0.1,0,0.1,0c0.1,0.1,0.2,0.3,0.3,0.4
	c-0.4,0-0.8-0.1-1.1-0.1c-0.8,0-1.6,0.4-2.2,0.9c-4.8-6.1-10.2-11.5-16.9-15.8l-2.1-1.3c0,0,0.2,2.3,0.4,3c1,3.7,3.7,9.7,7.4,13.6
	c2.1,2.2,5.2,4.4,8.4,5.7c-0.5,1.9-0.8,3.8-0.8,5.2c0,3,4.6,8.9,7.4,9.8c1.2,0.4,3.2-0.1,4.5-0.6v27.4c-1.6-2.6-3.2-5.2-4.9-7.8
	c-0.6-0.9-1.2-1.7-1.8-2.4c0,0,0,0,0-0.1c0-0.5,0-1,0-1.5c0.7-9.7-3.5-19.9-11-26.1c-0.5-0.4-1.9-1.8-1.9-1.8s0.1,2.3,0,2.6
	c-0.1,2-0.8,4.1-0.4,6.1c0.5,2.2,1.3,4.2,2.3,6.2c1.9,3.7,4.4,7.5,8.1,9.5c0.5,0.8,0.7,1.8,0.8,2.7c-1.6-1.6-3.3-3.1-5.1-4.7
	c-4-3.6-7.7-7.9-12.6-9.5c0.3-4.9,0.4-9.5-1-14.3c-1.4-5-6-7.9-8.9-11.9c-0.4-0.6-1.1-0.5-1.5-0.2c-0.2,0.1-0.4,0.2-0.5,0.5
	c-4.5,9,1.7,18.6,7.8,25.4c-0.6,0-1.2,0.1-1.9,0.2c-4.4-3.2-10.4-8.1-16.4-6.2c-4.6,1.4-9.1,4.4-11,9c-0.3,0.7,0.3,1.2,0.9,1.2
	c0.1,0,0.1,0.1,0.2,0.1c9.4,1,18,4.9,26.3-1.9c0.1-0.1,0.1-0.1,0.2-0.2c0.4-0.1,0.8-0.1,1.3-0.2c-1.5,1.9-1.7,4.6-2,6.9
	c-1-0.7-3.2-1.1-4.5-1.1c-2.8,0-4.2,5.4-4.2,8.2c0,2.2,3.3,6.4,5.4,7.1c1.4,0.5,4.4-0.9,4.4-0.9s3.1,1.2,4.7,0.8
	c1.7-0.5,4.8-5.2,4.8-7c0-3.4-2.7-8.4-5-8.4c-1.4,0-3.1,0.4-4.4,1.1c0.3-2.1,0.7-4.3,2.6-5.5c0.1,0,0.8-0.5,1-0.5
	c0.5-0.2,0.9-0.4,1.5-0.5c5.6,1.7,9.6,7.4,14,11.1c5.7,4.8,9.2,11.1,12.9,17.5l-0.1,41.5c-2.1-3.7-4.4-7.3-7.5-10.4
	c-2.3-2.4-5.1-4.3-8-6c-0.4-1.1-0.8-2.2-1-3.4c-0.1-1,0.2-1.9,0.3-2.9c0.1-0.1,0.2-0.2,0.3-0.4c3.3-8.2,3.8-16.8-1.4-24.3
	c0,0-0.7-1.1-0.5-2.4c0.1-0.3-1.2,1.6-1.2,1.6c-2.4,2.9-5.5,6.5-5.5,10.5c-0.1,5.9,3.3,10.3,6.4,15c-0.1,0.8-0.3,1.6-0.3,2.4
	c-0.9-1-1.8-2-3-2.8c0,0,0,0,0,0c-2.1-4.6-5.4-8.5-9.3-11.7c-3.6-3-8.1-4.1-12.4-5.8c-0.1,0-3-1.4-3-1.4l1.2,2.8
	c2.4,8.5,11.6,16.4,20.5,17.2c0,0,0.1,0.1,0.1,0.1c0.5,0.1,1,0.3,1.5,0.4c0.1,0.1,0.2,0.1,0.4,0.2c1.1,0.7,2,1.7,2.9,2.8
	c-1.1-0.6-2.2-1.1-3.3-1.6c-0.6-0.3-1.2-0.6-1.8-0.8c0,0-0.1,0-0.1,0c-9.7-4.4-19.7-6.3-30.1-4.8c0.2-0.1,0.3-0.3,0.4-0.5
	c1.9-4.7,2.7-9.3,2-14.4c-0.7-5-4.1-8.6-5.4-13.3c-0.1-0.3-0.9-3-1.1-3.1c-0.3-0.7-0.7,1.4-1.2,2.2c-3.6,5.6-6.3,10.4-5.2,17.2
	c0.7,4.9,3.8,10.1,8.3,12.1c-0.9,0.2-1.8,0.4-2.7,0.6c-0.1-0.1-0.1-0.1-0.2-0.2c-4.8-3.2-10.5-6.9-16.7-5.8
	c-6.6,1.2-12.3,5.8-16.3,10.9c-0.6,0.7,0,1.6,0.6,1.7c0.2,0.1,0.3,0.2,0.6,0.2c6.5,0.1,13.1,1.8,19.5,1.2c4.4-0.4,8.8-3,12-5.9
	c4-1,7.8-1.5,11.7-1.6c-1.8,2.3-2.1,5.5-2.5,8.4c-1.2-0.8-3.8-1.3-5.4-1.3c-3.4,0-5.1,6.5-5.1,9.9c0,2.6,4,7.8,6.5,8.6
	c1.7,0.6,5.3-1.1,5.3-1.1s3.8,1.5,5.6,1c2.1-0.5,5.8-6.2,5.8-8.4c0-4.1-3.3-10.1-6-10.1c-1.7,0-3.7,0.5-5.3,1.4
	c0.3-2.5,1.3-6.9,3.5-8.4c6.9,0.3,13.7,2.1,20.4,5.1c0.7,0.7,1.6,1.3,2.4,1.8c0.5,0.3,0.9,0.7,1.4,1c7.7,9.7,20,17.3,21.9,30.5
	c0.1,0.5-0.7,15.3-1,24.3c-0.6-0.4-1.3-0.8-1.9-1.2c-0.7-1-1.4-1.9-2.1-2.8c-3.5-4.3-8-6.5-12.4-9c-0.3-0.6-0.7-1.3-1-1.9
	c-0.4-0.9-0.6-1.9-0.8-2.9c3.1-4.5,5.5-9.6,3.5-14.9c-2-5.3-6.7-8.7-10.5-12.8c-0.3-0.5-2.5-2.9-3-2.8c-0.5,0.1-0.5,2.8-0.7,3.4
	c-1.3,5.6-2.1,9.7,0,15.3c1.7,4.6,4.7,8.8,7.8,12.5c0,0,0,0,0,0c0.1,0.5,0.2,1,0.4,1.5c-0.3-0.2-0.7-0.4-1-0.7
	c-0.9-0.8-1.9-1.7-2.8-2.5c-5.9-5.5-12.5-9.9-20.6-10.4c-3.8-0.2-7.5,1.1-11,2.6c-5.7,2.4-9.3,3.8-15.4,1.7c-0.1,0-0.2,0-0.2-0.1
	c-2.3-4.2-5.7-7.4-9.6-10.1c-2.4-1.7-5.2-2.9-7.9-4.1c-3.6-1.6-4.9-4.5-6.6-7.7c-0.6-1-2-0.3-1.8,0.7c-0.1,0.1-0.1,0.3-0.1,0.5
	c0.4,7.7-0.9,16.1,5.3,21.8c0.4,0.3,0.8,0.7,1.2,1c-6.1,1.7-10.6,6.7-14.7,11.3c-4.9,5.4-8.2,11.5-9.1,18.8
	c-0.1,0.8,0.9,1.1,1.5,0.9c7.3-3.1,12.4-9.4,19.3-13.4c3.4-1.9,6.9-3.7,9.9-6.1c2.9-2.3,4.1-5.1,6.2-8c0.3-0.4,0.2-0.7,0-1
	c1.9-0.3,3.8-0.8,5.6-1.3c0.2-0.1,0.3-0.1,0.4-0.3c1.9,0.7,3.8,1,5.5,1.1c-2.1,2.6-2.4,6.4-2.9,9.7c-1.4-0.9-4.4-1.5-6.2-1.5
	c-3.9,0-5.8,7.5-5.8,11.4c0,3,4.6,8.9,7.4,9.8c1.9,0.7,6.1-1.2,6.1-1.2s4.3,1.7,6.4,1.1c2.4-0.6,6.6-7.1,6.6-9.6
	c0-4.7-3.8-11.5-6.9-11.6c-2-0.1-4.3,0.6-6.1,1.6c0.4-2.9,1-5.9,3.5-7.5c0.5-0.3,0.6-1.3,0.5-2.2c2.5-0.2,5-1,7.7-2.3
	c10.9-5.2,19.8-2.2,28.5,5.3c1.2,1.1,2.5,2.1,3.7,3.2c-1,0.2-1.9,0.2-2.9,0.2c-0.1-0.3-0.2-0.6-0.6-0.8c-6.4-4.4-16.6-6.6-24.2-4.6
	c-0.6,0.2-2.3,0.1-2.5,0.6c-0.3,0.5,1,1.6,1.5,2.2c5.5,6.8,16.3,8.3,24.2,5.3c0.4-0.1,0.6-0.4,0.8-0.7c0,0,0,0,0,0
	c1.8,0,3.7,0,5.5-0.6c3.9,3.5,7.9,7.2,11.7,10.8c3.2,3,5.4,6.6,7,10.4c0.6,1.5-0.5,65.1-0.6,66.9c-0.3,0.9-0.6,1.7-1,2.6
	c-0.2,0.3-0.4,0.6-0.5,0.9c-0.3,0.1-0.5,0.3-0.5,0.6c-0.1,0.4-0.2,0.8-0.4,1.1c-0.6,0.9-1.2,1.8-2,2.6c-7.9,3.2-15.8,1.5-23.9,0.4
	c-1.7-0.4-3.5-0.5-5.2-0.5c-0.4,0-0.8,0-1.2-0.1c-1.5,0-3.2,0-4.9,0c-5.8-0.4-10-1.9-15.6,1.4c-0.5,0.3-0.9,0.6-1.4,0.8
	c-2.2-0.4-4.3-1.1-6.5-1.2c-2.8-0.2-5.3,1.5-7.9,2c-1.3,0.2-0.7,2.2,0.5,1.9c2.5-0.5,4.8-1.9,7.4-2c1.4,0,2.8,0.3,4.2,0.6
	c-1.6,1-3.3,1.9-5.2,2.5c-5.1,1.6-10.1-1-14.5-3.3c-1.1-0.6-2.2,1.1-1,1.7c6.1,3.2,12.6,5.8,19.3,2.3c0.6-0.3,1.2-0.7,1.8-1
	c0.2,0.2,0.4,0.3,0.7,0.4c2.5,0.3,5.2-0.3,7.8-0.8c-0.2,0.1-0.4,0.2-0.6,0.3c-1.6,0.7-3.8,1.3-4.7,3c-2.7,5-0.1,10.2,3.5,14
	c0.9,0.9,2.3-0.5,1.4-1.4c-3.8-4.1-6.7-11,0.3-13.7c1.8-0.7,3.3-1.8,4.8-2.9c0.2,0.3,0.4,0.5,0.8,0.5c1.5,0,3,0.2,4.5,0.4
	c-0.6,0.3-1.2,0.6-1.7,1c-1.6,1.5-2.5,2.4-4.7,2.5c-2.5,0.1-4.5,1.1-4.2,3.9c0.1,1.3,2.1,1.3,2,0c-0.3-2.5,2.9-1.8,4.6-2.1
	c0.9-0.2,1.7-0.9,2.4-1.5c1.6-1.5,3.2-2.1,5.3-3c0.1,0,0.1-0.1,0.2-0.1c1.9,0.5,3.8,1,5.8,1.5c-2.5,0.8-4.8,2.1-5,4.6
	c-0.3,2.7-3.4,2.6-3.5,5c-0.1,1.1,0.2,1.8,0.7,2.8c1.9,3.9-4.1,4.4-6.4,3.9c-1.3-0.3-1.8,1.7-0.5,1.9c3.3,0.7,11.7-0.8,9-6.1
	c-1.9-3.7,3.1-3,2.7-6.1c-0.1-1.2,0.3-2.1,1.1-2.7c-0.2,1.3-0.3,2.7-0.5,4c-0.2,1.4-0.9,2.2-0.6,3.6c0.5,3.1-2.9,3.7-1.6,6.8
	c1.3,3.2,5.4,4.8,8.1,6.4c1.1,0.7,2.1-1.1,1-1.7c-1.4-0.8-9-4.5-7.1-6.8c0.6-0.8,1.4-1.5,1.7-2.5c1-3.7-0.8-9.8,3.8-11.5
	c0.2-0.1,0.4-0.3,0.5-0.4c0.2,0,0.3-0.1,0.5-0.1c1.1,0.3,2.2,0.6,3.3,0.8c2.4,0.5,4.9,0.9,7.4,1c-1.4,2-1.2,4.3-1.4,7
	c-0.2-0.1-0.4-0.1-0.7,0c-3.7,1.4-7.5,1.4-9.3,5.5c-0.5,1.2,1.2,2.2,1.7,1c1.5-3.4,4.8-3.3,7.9-4.5c-0.8,2-3.6,2.1-4,4.2
	c-0.5,2,0.1,3.6,1.1,5.4c0.6,1.1,2.3,0.1,1.7-1c-2.6-4.9,2.2-4.7,3.1-7.9c0.9-3.4-0.5-7.3,2.6-9.6c1.8,0,3.6-0.1,5.3-0.3
	c0.9-0.1,1.9-0.3,2.8-0.5c-1,2.5-4.2,4.1-5.5,6.7c-0.8,1.5-0.3,3.2,0.2,4.7c1.1,3.1,2.5,5.1,2.2,8.7c-0.1,1.3,1.9,1.3,2,0
	c0.2-2,0.2-3.8-0.6-5.6c-1.6-3.8-2.8-7,0.6-9.9c1.9-1.7,3.2-3.2,3.4-5.3c0.9-0.4,1.8-0.8,2.6-1.4c0,1.3,0.1,2.5,0.3,3.9
	c0.6,3.4-0.1,4.5-1,7.3c-1.2,3.7-0.6,7.9-0.4,11.8c0.1,1.3,2.1,1.3,2,0c-0.2-4.3-0.6-8.5,0.7-12.6c0.8-2.7,0.6-4.9,0.5-7.3
	c2,3.6,2.8,6.4,1.7,10.6c-0.9,3.5-1.9,6.1-1.3,9.8c0.2,1.3,2.1,0.7,1.9-0.5c-0.7-4.5,1.6-7.4,2-11.7c0.2-2.5-0.3-4.6-1.3-7
	c-0.1-0.3-0.3-0.6-0.4-0.8c0.4-0.1,0.8-0.5,0.8-1c0.9,0,1.8,0,2.8,0c0,0.5,0.3,0.9,0.8,1.1c-0.1,0.3-0.3,0.6-0.4,0.8
	c-1,2.3-1.6,4.4-1.3,7c0.4,4.2,2.7,7.2,2,11.7c-0.2,1.3,1.7,1.8,1.9,0.5c0.6-3.7-0.4-6.2-1.3-9.8c-1.1-4.1-0.3-7,1.7-10.6
	c-0.2,2.4-0.4,4.6,0.5,7.3c1.3,4.2,1,8.3,0.7,12.6c-0.1,1.3,1.9,1.3,2,0c0.2-3.8,0.8-8-0.4-11.8c-0.9-2.9-1.6-4-1-7.3
	c0.2-1.4,0.4-2.6,0.3-3.9c0.8,0.6,1.7,1,2.6,1.4c0.2,2.1,1.5,3.6,3.4,5.3c3.4,2.9,2.2,6.1,0.6,9.9c-0.8,1.9-0.7,3.7-0.6,5.6
	c0.1,1.3,2.1,1.3,2,0c-0.3-3.5,1.1-5.5,2.2-8.7c0.5-1.5,1-3.2,0.2-4.7c-1.3-2.6-4.5-4.1-5.5-6.7c0.9,0.2,1.8,0.4,2.8,0.5
	c1.8,0.2,3.5,0.3,5.3,0.3c3.1,2.4,1.7,6.2,2.6,9.6c0.9,3.2,5.7,3,3.1,7.9c-0.6,1.1,1.1,2.1,1.7,1c1-1.8,1.6-3.4,1.1-5.4
	c-0.5-2.1-3.2-2.2-4-4.2c3.1,1.1,6.4,1.1,7.9,4.5c0.5,1.2,2.2,0.2,1.7-1c-1.8-4.1-5.6-4-9.3-5.5c-0.3-0.1-0.5-0.1-0.7,0
	c-0.2-2.7,0-5-1.4-7c2.5-0.1,5-0.4,7.4-1c1.1-0.3,2.2-0.5,3.3-0.8c0.2,0,0.3,0.1,0.5,0.1c0.1,0.2,0.3,0.3,0.5,0.4
	c4.6,1.7,2.8,7.7,3.8,11.5c0.3,1,1.1,1.7,1.7,2.5c1.9,2.3-5.7,6-7.1,6.8c-1.1,0.7-0.1,2.4,1,1.7c2.7-1.6,6.8-3.2,8.1-6.4
	c1.2-3.1-2.2-3.7-1.6-6.8c0.3-1.5-0.4-2.2-0.6-3.6c-0.2-1.3-0.3-2.7-0.5-4c0.8,0.7,1.2,1.6,1.1,2.7c-0.3,3.1,4.6,2.4,2.7,6.1
	c-2.7,5.3,5.7,6.8,9,6.1c1.3-0.3,0.7-2.2-0.5-1.9c-2.3,0.5-8.3,0.1-6.4-3.9c0.5-1,0.7-1.7,0.7-2.8c-0.1-2.4-3.2-2.3-3.5-5
	c-0.3-2.6-2.5-3.8-5-4.6c1.9-0.5,3.8-1.1,5.8-1.5c0.1,0,0.1,0.1,0.2,0.1c2,0.8,3.6,1.4,5.3,3c0.7,0.6,1.5,1.3,2.4,1.5
	c1.7,0.3,4.9-0.4,4.6,2.1c-0.1,1.3,1.9,1.3,2,0c0.3-2.8-1.7-3.8-4.2-3.9c-2.2-0.1-3.1-1-4.7-2.5c-0.5-0.4-1.1-0.8-1.7-1
	c1.5-0.2,3-0.4,4.5-0.4c0.4,0,0.7-0.2,0.8-0.5c1.5,1.1,3,2.2,4.8,2.9c7.1,2.7,4.1,9.6,0.3,13.7c-0.9,0.9,0.5,2.4,1.4,1.4
	c3.6-3.8,6.2-9,3.5-14c-0.9-1.7-3.1-2.3-4.7-3c-0.2-0.1-0.4-0.2-0.6-0.3c2.6,0.4,5.3,1,7.8,0.8c0.3,0,0.5-0.2,0.7-0.4
	c0.6,0.4,1.2,0.7,1.8,1c6.6,3.5,13.2,0.9,19.3-2.3c1.1-0.6,0.1-2.3-1-1.7c-4.4,2.3-9.4,4.9-14.5,3.3c-1.9-0.6-3.6-1.5-5.2-2.5
	c1.4-0.3,2.8-0.6,4.2-0.6c2.6,0.1,4.9,1.5,7.4,2c1.3,0.2,1.8-1.7,0.5-1.9c-2.7-0.5-5.2-2.2-7.9-2c-2.2,0.1-4.3,0.8-6.5,1.2
	c-0.5-0.3-0.9-0.6-1.4-0.8c-5.6-3.3-9.8-1.7-15.6-1.4c-1.7,0-3.3,0-4.9,0c-0.4,0-0.8,0-1.2,0.1c-1.8,0-3.5,0.1-5.2,0.5
	c-8.1,1-16,2.8-23.9-0.4c-0.7-0.8-1.4-1.6-2-2.6c-0.2-0.4-0.3-0.7-0.4-1.1c-0.1-0.3-0.3-0.5-0.5-0.6c-0.2-0.3-0.4-0.6-0.5-0.9
	c-0.4-0.8-0.7-1.7-1-2.6c-0.1-2.1-0.9-65.4-0.2-66.9c1.6-3.8,3.9-7.4,7-10.4c3.8-3.6,7.7-7.3,11.7-10.8c1.7,0.6,3.6,0.6,5.5,0.6
	c0,0,0,0,0,0c0.1,0.3,0.4,0.5,0.8,0.7c7.9,3,18.7,1.6,24.2-5.3c0.5-0.6,1.8-1.7,1.5-2.2c-0.1-0.5-1.8-0.5-2.5-0.6
	c-7.6-2-17.8,0.2-24.2,4.6c-0.3,0.2-0.5,0.5-0.6,0.8c-1,0-2,0-2.9-0.2c1.2-1.1,2.4-2.2,3.7-3.2c8.7-7.6,17.6-10.6,28.5-5.3
	c3.5,1.7,6.6,2.5,9.9,2.3c0.1,0.4,0.2,0.7,0.5,0.8c2.6,1.6,3.2,4.6,3.5,7.5c-1.8-1-4.1-1.6-6.1-1.6c-3.1,0.1-6.9,6.9-6.9,11.6
	c0,2.5,4.2,9,6.6,9.6c2.1,0.6,6.4-1.1,6.4-1.1s4.1,1.9,6.1,1.2c2.8-1,7.4-6.9,7.4-9.8c0-3.9-1.9-11.4-5.8-11.4
	c-1.8,0-4.8,0.6-6.2,1.5c-0.4-3-0.7-6.3-2.3-8.8c0.9-0.2,1.8-0.4,2.7-0.7c0.1,0.1,0.2,0.2,0.4,0.3c1.8,0.5,3.6,1,5.6,1.3
	c-0.2,0.3-0.2,0.6,0,1c2,2.9,3.3,5.8,6.2,8c3,2.4,6.6,4.2,9.9,6.1c6.9,3.9,12,10.3,19.3,13.4c0.6,0.3,1.6,0,1.5-0.9
	C407.3,281.5,404,275.4,399.1,270z M380.6,222.3c-7-2.2-13.4-4.4-20.6-3.2C367,215.8,374.5,217.1,380.6,222.3z M352.7,194.1
	c1.8,6,2,12.8-1.5,18C352.9,206.1,352.7,200.3,352.7,194.1z M327.8,212.1c2.2-1.8,4.4-3.6,6.6-5.4c-3.1,4.4-7.7,8-12.6,10.1
	C323.9,215.4,325.8,213.7,327.8,212.1z M311.8,199.1c2.6,4.9,2.8,10.4,0.4,15.2c0.5-2.3,0.5-4.4,0.4-6.9c0-1.6,0-3.2-0.1-4.7
	c-0.1-1.2-0.7-2.2-0.7-3.4c0,0,0,0,0-0.1C311.8,199.2,311.8,199.1,311.8,199.1z M340.2,168.6c2.8,0.2,5.1,1.4,7.4,2.8
	c-3.2-0.1-6.1-1.5-9.4-1.2c-0.1,0-0.1,0-0.2,0c-0.8-0.1-1.6,0-2.5,0.1c-0.7,0-1.4,0.1-2,0.3c-0.5,0-0.9,0.1-1.4,0.2
	c-0.1,0-0.3,0-0.4,0c-0.1,0-0.1,0-0.2,0C334.2,169.5,337.2,168.3,340.2,168.6z M329.9,148.5c0-0.1,0-0.1,0-0.2
	c1.1,5.7-1.4,11.6-4.9,16.5C327.3,159.7,328.7,153.9,329.9,148.5z M307.7,170.9c1-1.9,2.1-3.7,3-5.7c-0.7,5.4-3.7,9.7-7.5,13.6
	C304.8,176.3,306.3,173.6,307.7,170.9z M314.8,140.6c-1.6,2.6-3.4,5.1-5.4,7.4c-1.6,1.8-3.4,3.1-5.4,4.1
	C308.3,148.9,311.7,144.8,314.8,140.6z M305.2,136.7c1.5-3.1,2.1-6.6,3.5-9.7c0.3,7.5-3.6,13.2-9.1,17.6
	C301.6,142.1,303.8,139.7,305.2,136.7z M272.5,127c1.4,3.1,2,6.6,3.5,9.7c1.4,3,3.5,5.4,5.7,7.9C276,140.1,272.2,134.4,272.5,127z
	 M271.7,147.9c-2-2.2-3.8-4.8-5.4-7.4c3.1,4.2,6.5,8.4,10.7,11.5C275.1,151,273.3,149.7,271.7,147.9z M272,165.2
	c0.9,1.9,2,3.8,3,5.7c1.4,2.7,2.8,5.4,4.5,7.9C275.7,175,272.7,170.6,272,165.2z M252.8,148.3c0,0.1,0,0.1,0,0.2
	c1.3,5.3,2.6,11.1,4.9,16.3C254.2,160,251.7,154.1,252.8,148.3z M250.9,170.9c-0.1,0-0.3,0-0.4,0c-0.4-0.2-0.9-0.2-1.4-0.2
	c-0.6-0.2-1.3-0.3-2-0.3c-0.8-0.1-1.6-0.1-2.5-0.1c-0.1,0-0.1,0-0.2,0c-3.2-0.3-6.2,1.1-9.4,1.2c2.3-1.4,4.6-2.6,7.4-2.8
	c2.9-0.2,6,0.9,8.6,2.4C251,170.9,251,170.9,250.9,170.9z M248.5,206.7c2.2,1.8,4.5,3.5,6.6,5.4c2,1.7,3.9,3.4,6,4.8
	C256.2,214.7,251.6,211.1,248.5,206.7z M230.3,194.1c0,6.2-0.2,12.1,1.5,18C228.3,206.9,228.5,200.1,230.3,194.1z M202.4,222.3
	c6.1-5.2,13.6-6.5,20.6-3.2C215.8,217.9,209.3,220,202.4,222.3z M271.2,199.3c0,1.2-0.6,2.2-0.7,3.4c-0.1,1.6-0.1,3.2-0.1,4.7
	c0,2.4,0,4.6,0.4,6.9c-2.4-4.9-2.2-10.4,0.4-15.2C271.2,199.1,271.2,199.2,271.2,199.3C271.2,199.3,271.2,199.3,271.2,199.3z
	 M199.8,262.2c-2.5,1.3-4.7,3.5-7.1,5c-2.2,1.5-4.3,3-6.1,4.9c-3,3-5.8,6.2-8.4,9.5c1.8-4.2,4.3-7.8,7.7-11.4
	c4.4-4.6,8.8-7.6,14.2-8.3C200,262.1,199.9,262.1,199.8,262.2z M194.1,245.1c-0.2-1.1-0.9-2.2-1-3.3c2.3,3.2,4.8,6.5,7.6,9.2
	c3.2,3.1,7.6,4.9,11.7,6.7C205.1,257.8,197.2,252,194.1,245.1z M256.8,267.8c-6.2,0.1-11.6-1.6-17.4-3.7c-2.1-0.8,0.5-0.4,0.7-0.3
	c5.5,2.2,10.7,3.6,16.7,3.6C257.4,267.3,257.4,267.8,256.8,267.8z M268.8,260.8c-0.1,1.8-0.5-0.3-0.5-0.6c0.4-3.7-0.3-6.5-2.3-9.6
	c-0.6-0.9-1.2-1.8-1.6-2.8c-1.1-2.4-1.7-4.9-1.7-7.6c0-0.7,0.5,0.1,0.5,0.4c-0.1,4.8,2.5,8,4.7,11.9
	C269.1,255.1,268.9,258.1,268.8,260.8z M291.4,107.2c0,0.1,0.1,0.1,0.1,0.2c-0.1,0.1-0.1,0.3-0.1,0.4c0,4-0.4,7.9-0.2,11.8
	c0.1,3.4,0.6,6.8,0.7,10.2C290.2,122.5,287.9,113.9,291.4,107.2z M312.5,260.8c-0.2-2.7-0.4-5.7,1-8.2c2.2-4,4.7-7.1,4.7-11.9
	c0-0.3,0.5-1,0.5-0.4c0,2.6-0.6,5.2-1.7,7.6c-0.4,1-1,1.9-1.6,2.8c-2.1,3-2.7,5.9-2.3,9.6C313,260.5,312.6,262.6,312.5,260.8z
	 M324.5,267.3c6,0.1,11.2-1.3,16.7-3.6c0.3-0.1,2.9-0.5,0.7,0.3c-5.8,2.1-11.2,3.7-17.4,3.7C323.9,267.8,323.9,267.3,324.5,267.3z
	 M368.8,257.7c4.1-1.8,8.5-3.7,11.7-6.7c2.8-2.7,5.3-6,7.6-9.2c-0.1,1.1-0.8,2.2-1,3.3C384.1,252,376.2,257.8,368.8,257.7z
	 M394.7,272.1c-1.9-1.9-3.9-3.4-6.1-4.9c-2.4-1.6-4.5-3.7-7.1-5c-0.1-0.1-0.2-0.1-0.4-0.2c5.4,0.6,9.9,3.6,14.2,8.3
	c3.4,3.6,5.9,7.2,7.7,11.4C400.5,278.3,397.7,275.1,394.7,272.1z"/>
<path fill="#F8F103" d="M438.8,5v496.2H335.1c-21.2,0-38.4,21.8-44.5,33.5c-6-11.7-23.3-33.5-44.5-33.5H140.3V5h105.6
	c40.3,0,40.9,37.6,40.9,39.2l2.5,5.1l2.5-5.1c0-1.6,0.6-39.2,43.1-39.2H438.8z M290.6,404.1c35,0,125-25.5,125-103.5
	c0-93.5-125-202.5-125-202.5s-125,109-125,202.5C165.6,378.6,255.6,404.1,290.6,404.1z"/>
<path fill="#0099E1" d="M507.3,274.8v166.3c0,33.2-23.6,60.2-52.6,60.2h-15.9V5h68.5l0,97.4c-22.6,23.2-35,53.8-35,86.2
	S484.7,251.6,507.3,274.8z"/>
<path fill="#0099E1" d="M140.3,5v496.2h-16.4c-29,0-52.6-27-52.6-60.2l0-167c22.1-23.1,34.3-53.4,34.3-85.4
	c0-32-12.2-62.3-34.3-85.5V5H140.3z"/>
<path fill="#F8F103" d="M298,157c0,0,0.1,0,0.1,0c4.7,0.1,10.3-3.4,13.4-6.7c3.6-3.8,6.4-9.8,7.4-13.6c0.2-0.7,0.4-3,0.4-3l-2.1,1.3
	c-8.5,5.4-14.8,12.5-20.5,20.7C296.1,156.5,297.2,157.4,298,157z M304.2,152.1c4.2-3.1,7.6-7.2,10.7-11.5c-1.6,2.6-3.4,5.1-5.4,7.4
	C307.9,149.7,306.2,151,304.2,152.1z"/>
<path fill="#F8F103" d="M295.8,148.4c0,0.4,0.1,0.6,0.3,0.8c0.3,0.4,0.8,0.6,1.3,0.3c5.2-3.6,9.7-6.6,12.6-12.4c1.9-4,3-8.8,1-12.9
	c0-0.1-0.1-0.1-0.1-0.2c-0.2-0.6-0.8-1-1.4-0.6c-4.1,2.9-7.5,6.5-10.1,10.9C296.3,139.2,296.2,142.8,295.8,148.4z M299.6,144.6
	c2.1-2.5,4.3-4.9,5.7-7.9c1.5-3.1,2.1-6.6,3.5-9.7C309.1,134.4,305.2,140.1,299.6,144.6z"/>
<path fill="#F8F103" d="M284.7,155.6c-5.7-8.2-12-15.3-20.5-20.7l-2.1-1.3c0,0,0.2,2.3,0.4,3c1,3.7,3.7,9.7,7.4,13.6
	c3.1,3.3,8.7,6.8,13.4,6.7c0,0,0.1,0,0.1,0C284.2,157.4,285.3,156.5,284.7,155.6z M271.9,147.9c-2-2.2-3.8-4.8-5.4-7.4
	c3.1,4.2,6.5,8.4,10.7,11.5C275.3,151,273.5,149.7,271.9,147.9z"/>
<path fill="#F8F103" d="M282.1,134.2c-2.6-4.3-6-8-10.1-10.9c-0.6-0.4-1.2,0-1.4,0.6c0,0.1-0.1,0.1-0.1,0.2c-2,4.1-1,8.9,1,12.9
	c2.8,5.9,7.3,8.9,12.6,12.4c0.5,0.4,1,0.1,1.3-0.3c0.2-0.2,0.3-0.4,0.3-0.8C285.2,142.8,285.1,139.2,282.1,134.2z M272.6,127
	c1.4,3.1,2,6.6,3.5,9.7c1.4,3,3.5,5.4,5.7,7.9C276.2,140.1,272.3,134.4,272.6,127z"/>
<path fill="#F8F103" d="M536.1,409.6c1.8,1.6,1,5.4-0.9,10.2l-9.4-3.4c1.4-0.6,3-2.1,4.6-3.6C532.7,410.8,535,408.7,536.1,409.6
	C536.1,409.6,536.1,409.6,536.1,409.6L536.1,409.6z"/>
<path fill="#0099E1" d="M545.9,357.1c4.7,10.3,2.6,24,0.8,36.1c-1.1,7.5-2.2,14.6-1.6,20.2c0,0.2,0,0.3,0.1,0.5l-8.5-5
	c-0.3-0.3-0.8-0.5-1.2-0.5c-1.6,0-3.6,1.8-5.7,3.7c-1.9,1.7-4,3.6-5.4,3.7c-0.2,0-0.5,0-0.7-0.1c-0.1,0-0.1,0-0.2,0
	c-0.9-0.2-2-0.8-2.7-1.9c-1.2-1.8-2.1-5.4,0.6-12.9c5.2-14.1,5-24.8,4.9-35.2c0-1.9,0-3.8,0-5.7c0.1-10-3.6-35.3-4.8-43
	c3.9,6.1,15.8,27.3,17,60.9c0,0.3,0.2,0.5,0.4,0.5c0.2,0,0.5-0.1,0.5-0.3L545.9,357.1z"/>
<path fill="#0099E1" d="M561,463.8C561,463.8,561,463.8,561,463.8l-11.3-6.7c-0.1,0-0.1-0.1-0.2-0.1c-0.1-0.1-0.2-0.1-0.3-0.2
	l-0.1-0.1c0,0-0.1,0-0.1-0.1c0,0,0,0,0,0c-0.9-0.4-1.9-0.6-3.1-0.6c-2.7,0-4.7,3-6.9,6.2c-2.5,3.7-5.1,7.4-8.7,7.4
	c-0.8,0-1.5-0.1-2.2-0.3c0,0-0.1,0-0.1,0c-3.7-1.3-4.2-6.1-4.2-10.8c0-9.9,5-21.1,9-30.1c1.2-2.8,2.4-5.4,3.3-7.8c0,0,0,0,0-0.1
	c0,0,0,0,0,0c1.6-4.2,2.5-7.6,1.9-9.9l9.1,5.4c0,0,0,0,0,0c1.1,0.8,2.5,1.4,4,2c2.8,1.2,6.1,2.6,7.2,5.1c3.4,7,2.6,16.1,1.8,24.1
	C559.5,454.1,559,460.1,561,463.8z"/>
<path fill="#0099E1" d="M576.5,474c2.5,4,3.7,10,3.7,17.9c0,9.4-9.4,33.4-17.2,33.4c-0.4,0-0.8-0.1-1.2-0.2
	c-0.3-0.1-0.6-0.3-0.7-0.6c-0.7-1.4,0.3-4.5,1.2-7.6c1.3-4.2,2.6-8.5,0-9.6c0,0,0,0-0.1,0l-23.6-14c7-2.8,14.2-17.5,14.2-24.3
	c0-3.7-0.2-7.1-1.3-9.5l12.1,7.2c0,0,0,0,0,0c1.6,1,3.5,1.9,5.4,2.7C572.1,470.5,575.2,471.9,576.5,474z"/>
<path fill="#0099E1" d="M537.1,493.4l22.6,13.4c-9,0.1-22.5,14.9-27.2,27c-1.3,3.3-1.8,6.1-1.6,8.4l-10.8-15.8
	c-0.5-0.9-1.4-2.2-2.7-4.1c-2.6-3.7-6.1-8.7-6.3-11.6c-0.2-2.9,2.1-8.8,7.9-15.5c2.7-3.1,8-5,11.8-5.1c2-0.1,3.3,1,4.5,2
	C535.9,492.7,536.5,493.2,537.1,493.4z"/>
<path fill="#0099E1" d="M549.4,539.9c1.7,2,1.8,4.7,0.2,8.2c-4.8,10.5-24,25-36.4,25c-3.1,0-5.5-1-7.1-2.9c-0.4-0.5-0.6-0.9-0.6-1.4
	c0-0.1,0-0.3,0-0.4c0.5-2.4,5-4.9,8.7-7c3.7-2,6-3.4,6.1-4.7c0-0.2,0-0.5-0.1-0.7c0,0,0,0,0-0.1c0,0,0-0.1,0-0.1l-12.2-18.3
	c2.8-0.8,10.8-6.6,12.4-9l11.3,16.5c0.3,0.5,0.6,1,1,1.5c0,0,0,0,0,0c0.1,0.1,0.2,0.3,0.4,0.4c0.4,0.4,0.9,0.6,1.5,0.6
	c1.8,0,4-1.9,6.5-4c2.4-2,5-4.3,6.9-4.3C548.4,539.2,548.9,539.4,549.4,539.9C549.4,539.9,549.4,539.9,549.4,539.9z"/>
<path fill="#0099E1" d="M506.4,537.1l11.4,17c-2.5-1.3-6.2-1.9-11-1.9c-2.2,0-4.5,0.1-6.9,0.4c-0.1,0-0.1,0-0.1,0
	c-10.8,1.1-22.1,4.6-25.1,7.3l1.8-37.1l0-0.6c0,0,0,0,0,0c0-2.4-1.5-3.6-4.6-3.6c-3.1,0-7.6,1.3-11.8,2.5c-3.8,1.1-7.5,2.2-9.8,2.2
	c-0.7,0-1.3-0.1-1.6-0.3c-0.1,0-0.2-0.1-0.2-0.2c0,0,0,0,0,0l-0.1-0.2c0,0,0,0,0,0c0-0.1-0.1-0.3-0.1-0.5c0-4,12.6-12.2,27.3-12.2
	c5.9,0,16.9,0.8,20.5,4c3.3,2.8,5.8,10.8,7.7,16.5c1.1,3.6,1.8,5.7,2.5,6.7C506.4,537,506.4,537.1,506.4,537.1z"/>
<path fill="#F8F103" d="M549.2,458c2.2,1.6,2.7,5.3,2.7,10.9c0,2.6-1.1,6.4-2.9,10.3l-18.3-8.5c3.8-0.4,6.5-4.3,8.9-7.8
	c2.1-3,4-5.8,6.1-5.8c1.1,0,2,0.2,2.8,0.5c0,0,0,0,0,0L549.2,458C549.2,458,549.2,458,549.2,458z"/>
<path fill="#F8F103" d="M562,508.2c1.8,0.7,0.6,4.8-0.6,8.4c-0.7,2.3-1.4,4.5-1.5,6.2l-8.5-11.8c2.9-2,5.8-3.3,8.3-3.3
	C560.6,507.7,561.3,507.9,562,508.2z"/>
<path fill="#F8F103" d="M538.6,524.6l9.6,13.6c-0.1,0-0.2,0-0.3,0c-2.3,0-5,2.3-7.6,4.5c-2.7,2.3-5.4,4.6-6.6,3.5
	c-0.1-0.1-0.1-0.1-0.2-0.2c0,0,0,0,0,0l-0.9-1.3c-1.1-2.4-0.9-6,0.9-10.5C534.6,531,536.4,527.8,538.6,524.6z"/>
<path fill="#F8F103" d="M519.3,556.4c0.1,0.1,0.1,0.2,0.1,0.2c-0.1,0.9-3,2.5-5.6,4c-3.5,2-7.5,4.1-8.8,6.5l-4.3-13.5
	c2.1-0.2,4.2-0.3,6.2-0.3C512.8,553.3,517.1,554.3,519.3,556.4C519.3,556.3,519.3,556.4,519.3,556.4z"/>
<path fill="#F8F103" d="M475.6,522.2L475.6,522.2l0,0.6c-0.5,5.3-8.1,9.6-20.2,13.1l-6.1-11.8c0.3,0.1,0.7,0.1,1.1,0.1
	c2.4,0,6.1-1.1,10-2.2c4.2-1.2,8.5-2.5,11.5-2.5C475.1,519.6,475.6,521,475.6,522.2z"/>
<path fill="#0099E1" d="M413.1,555l2.6,12.8c-0.6,0.1-1.2,0.2-1.8,0.2c-2,0-3.9-0.6-5.6-1.8c-2.3-1.6-3.8-3.7-4.3-6.1
	c-0.2-1.1-0.1-1.9,0.4-2.5c0.5-0.6,1.4-1.1,2.8-1.4L413.1,555z"/>
<path fill="#0099E1" d="M209.5,567.8l1.4,9.8c-0.4,1.9-1.7,4.4-3.8,7.5c-1.6,2.4-3.1,4.4-4.5,5.9c-0.6,0.7-1.4,1-2.3,0.9
	c-0.7-0.1-1.3-0.4-1.8-1c-0.5-0.6-0.6-1.5-0.5-2.7c0.1-1.4,0.8-3.6,2-6.4c1.1-2.5,2.1-4.4,3-5.8c0.7-1.2,1.7-2.5,2.9-4
	C207.1,570.7,208.3,569.3,209.5,567.8z"/>
<path fill="#0099E1" d="M299.2,586.4c0.1,0.4,0.1,0.7,0.1,0.9c0,0.2,0,0.5-0.1,0.9c-0.3,1.7-1.1,3.2-2.4,4.6c-1.2,1.3-2.5,2.3-3.8,3
	c-0.2-0.8-0.5-1.6-1-2.4c-0.6-0.9-1.8-2.2-3.6-4.1c-2.8-2.9-5-5.5-6.3-7.5c-1.4-2.2-2.1-4.2-2.1-6c0-1.9,0.6-3.7,1.8-5.4
	c1.1-1.5,2.5-2.5,4.2-2.8c0.4,1.1,1.2,2.3,2.3,3.6c0.1,0.1,0.6,0.7,3.5,4.1c0.9,1,2.2,2.6,3.9,4.6
	C297.7,582.5,298.9,584.7,299.2,586.4z"/>
<path fill="#F8F103" d="M55.5,416.4l-9.4,3.4c-1.8-4.8-2.6-8.5-0.9-10.2c1.1-1,3.4,1.2,5.6,3.2C52.5,414.3,54,415.8,55.5,416.4z"/>
<path fill="#F8F103" d="M50.5,470.7l-18.3,8.5c-1.8-3.8-2.9-7.7-2.9-10.3c0-7.8,1-11.8,6.2-11.8c2.1,0,4.1,2.8,6.1,5.8
	C44,466.4,46.7,470.3,50.5,470.7z"/>
<path fill="#F8F103" d="M29.8,511l-8.5,11.8c-0.1-1.7-0.8-3.9-1.5-6.2c-1.1-3.6-2.4-7.7-0.6-8.4c0.7-0.3,1.4-0.4,2.2-0.4
	C23.9,507.7,26.8,509,29.8,511z"/>
<path fill="#F8F103" d="M47.8,534.1c1.8,4.5,2,8.1,0.9,10.5l-0.9,1.3l0,0c-0.1,0.1-0.1,0.2-0.2,0.2c-1.2,1.1-3.9-1.2-6.6-3.5
	c-2.6-2.2-5.3-4.5-7.6-4.5c-0.1,0-0.2,0-0.3,0l9.6-13.6C44.8,527.8,46.6,531,47.8,534.1z"/>
<path fill="#F8F103" d="M80.6,553.6l-4.3,13.5c-1.4-2.4-5.3-4.6-8.8-6.5c-2.6-1.4-5.5-3-5.6-4c0,0,0-0.1,0.1-0.2
	c0,0,0.1-0.1,0.1-0.1c2.1-2,6.4-3,12.4-3C76.4,553.3,78.5,553.4,80.6,553.6z"/>
<path fill="#F8F103" d="M132,524.1l-6.1,11.8c-12.1-3.5-19.7-7.8-20.2-13.1l0-0.6v0c0-1.2,0.4-2.6,3.6-2.6c3,0,7.4,1.3,11.6,2.5
	c3.9,1.1,7.6,2.2,10,2.2C131.3,524.2,131.7,524.2,132,524.1z"/>
<path fill="#0099E1" d="M62.3,495.2c5.8,6.7,8.1,12.6,7.9,15.5c-0.3,2.9-3.8,7.9-6.3,11.6c-1.3,1.8-2.2,3.1-2.7,4.1l-10.8,15.8
	c0.2-2.3-0.4-5.1-1.6-8.4c-4.7-12.1-18.3-27-27.3-27c-0.9,0-1.8,0.2-2.6,0.5c-2.7,1.1-1.3,5.4,0,9.6c0.9,3.1,1.9,6.2,1.2,7.6
	c-0.2,0.3-0.4,0.5-0.7,0.6c-3.7,1.2-8.4-3.7-12.7-13.2c-3.3-7.2-5.6-15.6-5.6-20c0-7.9,1.3-14,3.7-17.9c1.3-2.1,4.4-3.4,7.4-4.7
	c3.3-1.4,6.7-2.9,8.1-5.5c2-3.8,1.5-9.7,0.9-16.6c-0.7-8-1.5-17.1,1.8-24.1c1.2-2.5,4.4-3.8,7.2-5.1c2.9-1.3,5.7-2.5,6-4.7
	c0.6-5.6-0.5-12.7-1.6-20.2c-1.8-12.1-3.9-25.7,0.8-36.1l6.3,20.9c0.1,0.2,0.3,0.4,0.5,0.3c0.2,0,0.4-0.2,0.4-0.5
	c1.2-33.6,13.1-54.8,17-60.9c-1.1,7.6-4.8,33-4.8,43c0,1.9,0,3.8,0,5.7c-0.1,10.4-0.2,21.1,4.9,35.2c2.8,7.5,1.9,11.2,0.6,12.9
	c-0.8,1.1-1.8,1.6-2.7,1.9c-0.1,0-0.1,0-0.2,0c-0.3,0.1-0.5,0.1-0.7,0.1c-1.4,0-3.5-1.9-5.4-3.7c-2.1-1.9-4.1-3.7-5.7-3.7
	c-0.5,0-0.9,0.2-1.3,0.5c-2.3,2.1-1.4,6.2,0.8,11.7c0,0,0,0,0,0c0,0,0,0,0,0.1c0.9,2.4,2.1,5,3.3,7.8c4,9,9,20.2,9,30.1
	c0,4.7-0.6,9.5-4.2,10.8c0,0-0.1,0-0.1,0c-0.6,0.2-1.3,0.3-2.2,0.3c-3.6,0-6.2-3.8-8.7-7.4c-2.2-3.2-4.3-6.2-6.9-6.2
	c-6.6,0-7.2,6.1-7.2,12.8c0,7,7.5,22.3,14.7,24.5c0.2,0.1,0.3,0.1,0.5,0.1c0.9,0,1.6-0.6,2.5-1.4c1.1-1,2.4-2.1,4.5-2
	C54.3,490.2,59.6,492.1,62.3,495.2z"/>
<path fill="#0099E1" d="M75.7,568.4c0,0.1,0,0.3,0,0.4c0,0.5-0.2,1-0.6,1.4c-1.6,1.9-3.9,2.9-7.1,2.9c-12.4,0-31.7-14.5-36.4-25
	c-1.6-3.5-1.5-6.2,0.2-8.2c0,0,0,0,0,0c0.4-0.5,0.9-0.7,1.5-0.7c1.9,0,4.6,2.3,6.9,4.3c2.4,2,4.7,4,6.5,4c0.6,0,1-0.2,1.5-0.6
	c0.1-0.1,0.3-0.3,0.4-0.4l0,0c0.4-0.4,0.7-0.9,1-1.5l11.3-16.5c1.6,2.4,9.6,8.3,12.4,9l-12.2,18.3c0,0,0,0.1,0,0.1c0,0,0,0,0,0.1
	c-0.1,0.3-0.2,0.5-0.1,0.7c0.2,1.4,2.4,2.7,6.1,4.7C70.7,563.5,75.3,566,75.7,568.4z"/>
<path fill="#0099E1" d="M133,521.9c0,0.2,0,0.3-0.1,0.5c0,0,0,0,0,0l-0.1,0.2c-0.2,0.3-0.8,0.6-1.9,0.6c-2.3,0-5.9-1-9.8-2.2
	c-4.3-1.2-8.7-2.5-11.8-2.5c-3.1,0-4.6,1.2-4.6,3.6c0,0,0,0,0,0l0,0.6l1.8,37.1c-3-2.8-14.3-6.2-25-7.3c0,0-0.1,0-0.1,0
	c-2.4-0.3-4.7-0.4-6.9-0.4c-4.8,0-8.5,0.6-11,1.9l11.5-17.2c0,0,0,0,0-0.1c0.7-1,1.4-3.1,2.5-6.7c1.8-5.8,4.4-13.7,7.7-16.5
	c3.7-3.2,14.7-4,20.6-4C120.3,509.7,133,517.9,133,521.9z"/>
<path fill="#0099E1" d="M475.4,526.1l-1.7,36v0c-0.3,1.5,0.1,3.5,0.4,5.6c0.4,2.7,0.8,5.5-0.2,6.6c-30.1,35.2-136.4,35.2-181.8,35.2
	h-2.9c-45.4,0-151.7,0-181.8-35.2c-1-1.2-0.6-3.9-0.2-6.6c0.3-2,0.6-4,0.4-5.5v0l-1.7-36.1c14.9,23.7,166.5,24.5,184.6,24.5h0.3
	C308.8,550.6,460.5,549.8,475.4,526.1z M435.3,590.6l-0.7-3.4l-4.6,1l-7.2-35.1l4.6-1l-0.7-3.4l-25.6,5.2c-3.2,0.7-5.3,1.3-6.3,2
	c-1.6,1.1-2.1,3-1.6,5.6c0.7,3.3,2.6,6,5.6,8c3.4,2.2,8,3.2,13.6,2.9c-4.4,1.1-7.9,3.4-10.4,6.8c-3,4.1-4,9.3-2.8,15.3l-2.6,0.5
	l0.7,3.5l15.4-3.1l-0.7-3.5l-2.2,0.4c-1.2-6-0.9-10.8,0.8-14.2c1.4-2.6,3.4-4.2,6.3-4.9l3.5,17l-2.7,0.6l0.7,3.4L435.3,590.6z
	 M393.2,598.8l-0.3-3.5l-4.7,0.4l-3.1-35.7l4.7-0.4l-0.3-3.5l-18.3,1.6l0.3,3.5l3.8-0.3l1.2,13.6l-11.5,1l-1.2-13.6l3.9-0.3
	l-0.3-3.5l-18.4,1.6l0.3,3.5l4.7-0.4l3.1,35.7l-4.7,0.4l0.3,3.5l18.4-1.6l-0.3-3.5l-3.9,0.3l-1.6-18.3l11.5-1l1.6,18.3l-3.8,0.3
	l0.3,3.5L393.2,598.8z M347.9,564.1c0.5-1.3,0.7-2.2,0.7-2.7c0-0.7-0.3-1.3-0.8-1.9c-0.5-0.6-1.2-0.8-2.1-0.8l-0.2,0
	c-1.1,0.2-2.2,0.5-3.3,0.7c-1.1,0.2-2.5,0.3-4.2,0.4l-20.9,0.5c-1.5,0-2.9,0-4.1-0.2c-1.3-0.2-2.4-0.3-3.5-0.5
	c-0.9,0-1.7,0.3-2.2,0.9c-0.5,0.6-0.8,1.2-0.8,1.9c0,0.5,0.2,1.2,0.7,2.2c0.6,1.3,1,2.3,1.2,2.8c0.7,1.7,1.1,3.4,1.1,5
	c0,0.9,0.2,1.6,0.4,2.2c0.2,0.5,0.7,1,1.9,1c0.6,0,1.5-0.3,1.9-1.6c0-0.1,0.1-0.2,0.4-1.9c0.9-4.1,1.9-6.7,2.9-7.7
	c0.3-0.3,1.1-0.7,4-0.8l1.9,0l0.9,35.8l-4.7,0.1l0.1,3.5l19.3-0.5l-0.1-3.5l-4.8,0.1l-0.9-35.8l3.3-0.1c1.2,0,2.2,0.3,2.8,0.8
	c1,0.9,1.9,2.7,2.6,5.4c0.5,1.8,0.8,2.9,0.9,3.2c0.5,1.4,1.1,2.1,2.1,2.1c1,0,1.6-0.5,1.9-1.5c0-0.2,0.1-0.6,0.1-1.8
	c0-0.8,0.1-1.6,0.2-2.5c0.2-0.9,0.4-1.8,0.7-2.6C347.1,566.1,347.4,565.3,347.9,564.1z M305.9,581.4c0-2.7-0.5-5.1-1.3-7.2
	c-1.1-2.5-3.2-5.3-6.4-8.2c-1.9-1.7-3-2.8-3.4-3.2c-0.4-0.4-1.1-1.1-1.9-2c-0.3-0.4-0.7-0.8-1-1.2c-0.6-0.7-1.2-1-1.8-1
	c-0.7,0-1.2,0.2-1.7,0.5c-0.4,0.3-0.9,0.6-1.3,1.1c-0.4,0.4-0.7,0.8-1,1c-0.3,0.2-0.7,0.6-1.4,1.2c-3.1,2.6-5.5,5.2-7.2,7.5
	c-2.8,4-4.2,8.2-4.2,12.5c0,4.1,1.2,7.8,3.4,11c1.1,1.5,3.3,3.8,6.8,7c2.1,1.8,3.5,3,4.2,3.6c0.8,0.6,1.4,0.9,2,0.9
	c0.6,0,1.6-0.3,4.2-3c2-2.1,4.1-4.2,6-6.3c2-2.2,3.5-4.2,4.4-6.2C305.4,586.9,305.9,584.3,305.9,581.4z M272.2,563.9l0.1-3.5
	l-40.6-1.1l-0.1,3.5l4.7,0.1l-1,35.8l-4.7-0.1l-0.1,3.5l18.5,0.5l0.1-3.5l-4-0.1l1-35.8l11.6,0.3l-1,35.8l-3.9-0.1l-0.1,3.5
	l18.4,0.5l0.1-3.5l-4.7-0.1l1-35.8L272.2,563.9z M228.5,602.2l0.3-3.5l-4.1-0.4l-6.9-37.4l4.3,0.4l0.3-3.5l-18.6-1.7l-0.3,3.5
	l4.4,0.4c0,0.3,0,0.6,0,0.8c-0.1,1.4-0.8,3-1.9,4.6l-3.9,5.1c-3.2,4.2-5.6,7.8-7.2,10.7c-2.1,3.9-3.3,7.5-3.6,10.7
	c-0.2,2.5,0.3,4.6,1.6,6.1c1.1,1.3,2.6,2,4.6,2.2c3.2,0.3,6.4-1.7,9.6-5.9c2.2-3,4.1-6.4,5.4-10.2l2.4,13.2l-4.1-0.4l-0.3,3.5
	L228.5,602.2z M190.6,560l2.1-3.5l-0.4-0.3c-1.3-1-3-1.7-4.9-2.1c-2.7-0.5-5.4,0.5-8,3c-0.8,0.8-2.8,3.3-6.1,7.7l-1.7,2.3l-1.3,1.9
	l-1,1.2l-1.3-0.3l2.9-14.7l3.9,0.8l0.7-3.5l-18.1-3.6l-0.7,3.5l4.6,0.9l-7,35.2l-4.6-0.9l-0.7,3.5l17.7,3.5l0.7-3.4l-3.5-0.7
	l3.4-17.3c3.5,1.6,5.7,4.1,6.5,7.2c0.6,2.5,0.4,6.5-0.6,11.9l-2.2-0.4l-0.7,3.5l16.1,3.2l0.7-3.5l-3.4-0.7c0.9-4.9,0.7-9.1-0.6-12.5
	c-1.6-4.1-5.2-7.5-10.8-10.2c6-7.9,8.9-9.6,10.3-9.6c0.1,0,0.2,0,0.3,0c0.6,0.1,1.1,0.3,1.6,0.5c0.4,0.2,0.8,0.5,1.1,0.8l1.7,1.1
	l1.8,0.4l0.1-0.5c0.2-0.9,0.4-1.8,0.7-2.8C190.2,560.9,190.4,560.3,190.6,560z"/>
<path d="M536,420.5C536,420.6,536,420.6,536,420.5c0,0.1,0,0.1-0.1,0.1C535.9,420.6,536,420.6,536,420.5z"/>
<path fill="#E8F309" d="M433.8,588.4l0.3,1.5l-15,3.1l-0.3-1.5l2.7-0.6l-3.9-18.9l-0.5,0.1c-3.4,0.7-5.9,2.6-7.5,5.6
	c-1.9,3.7-2.1,8.8-0.8,15.3l0.1,0.5l2.2-0.4l0.3,1.5l-13.4,2.8l-0.3-1.5l2.6-0.5l-0.1-0.5c-1.2-6-0.4-11,2.6-15
	c2.5-3.4,6.1-5.7,10.6-6.6l0.5-0.1l-0.4-1.8l-0.4,0c-5.7,0.4-10.4-0.5-13.7-2.7c-2.8-1.8-4.6-4.3-5.2-7.3c-0.4-2.2,0-3.6,1.2-4.5
	c0.9-0.6,2.8-1.2,5.9-1.9l24.6-5l0.3,1.5l-4.6,0.9l7.6,37.1L433.8,588.4z M417,568.6l-3-14.8l-6.8,1.4c-1.6,0.3-2.7,0.9-3.4,1.8
	c-0.6,0.8-0.8,2-0.6,3.3c0.6,2.7,2.1,5,4.7,6.8c1.9,1.3,3.9,2,6.1,2c0.8,0,1.6-0.1,2.5-0.3L417,568.6z"/>
<polygon fill="#E8F309" points="392,596.3 392.1,597.8 375.8,599.3 375.7,597.7 379.5,597.4 377.7,577.1 364.2,578.3 366,598.6 
	369.9,598.2 370,599.8 353.6,601.2 353.5,599.7 358.2,599.3 354.9,561.5 350.2,561.9 350.1,560.4 366.5,559 366.6,560.5 
	362.7,560.9 364.1,576.4 377.6,575.3 376.2,559.7 372.4,560 372.3,558.5 388.6,557.1 388.7,558.6 384,559 387.3,596.7 "/>
<path fill="#E8F309" d="M347,560.2c0.3,0.4,0.5,0.8,0.5,1.2c0,0.3-0.1,0.9-0.7,2.3c-0.5,1.2-0.8,2-0.9,2.4c-0.3,0.9-0.5,1.8-0.7,2.7
	c-0.2,1-0.3,1.9-0.3,2.7c0,1.1,0,1.4,0,1.5c-0.2,0.5-0.5,0.7-1,0.8c-0.5,0-0.9-0.8-1.1-1.4c-0.1-0.2-0.3-0.9-0.9-3.1
	c-0.8-3-1.8-4.9-2.9-5.9c-0.8-0.7-1.9-1-3.4-1l-4.3,0.1l0.9,37.8l4.8-0.1l0,1.5l-17.3,0.4l0-1.5l4.7-0.1l-0.9-37.8l-2.9,0.1
	c-2.5,0.1-3.9,0.4-4.6,1.1c-1.2,1.1-2.2,3.8-3.2,8.2c-0.3,1.4-0.3,1.6-0.4,1.7c-0.3,0.8-0.6,0.9-1,0.9c-0.7,0-0.8-0.3-0.9-0.4
	c-0.2-0.4-0.3-1-0.3-1.8c0-1.7-0.4-3.5-1.2-5.3c-0.2-0.5-0.6-1.5-1.2-2.9c-0.5-1-0.6-1.6-0.6-1.8c0-0.5,0.2-0.9,0.5-1.3
	c0.3-0.4,0.8-0.6,1.4-0.6c1.1,0.2,2.2,0.4,3.5,0.5c1.3,0.2,2.7,0.2,4.3,0.2l20.9-0.5c1.8,0,3.3-0.2,4.4-0.4c1.1-0.2,2.2-0.4,3.3-0.7
	C346.3,559.7,346.7,559.8,347,560.2z"/>
<path fill="#E8F309" d="M303.7,574.6c0.8,2,1.3,4.2,1.3,6.8c0,2.7-0.5,5.2-1.5,7.4c-0.8,1.8-2.3,3.8-4.2,5.9c-2,2.1-4,4.2-6,6.3
	c-1.2,1.2-2,1.9-2.5,2.3c-0.5,0.4-0.8,0.5-0.9,0.5c-0.2,0-0.6-0.1-1.4-0.7c-0.7-0.5-2-1.7-4.1-3.5c-3.4-3.1-5.6-5.4-6.6-6.8
	c-2.2-3-3.3-6.6-3.3-10.4c0-4.1,1.3-8.1,4-12c1.6-2.3,4-4.8,7-7.3c0.7-0.6,1.2-1,1.4-1.2c0.3-0.3,0.6-0.6,1-1c0.4-0.4,0.7-0.7,1.1-1
	c0.3-0.2,0.7-0.3,1.2-0.3c0.1,0,0.4,0.1,1,0.7c0.3,0.4,0.7,0.9,1,1.2c0.9,1,1.5,1.7,2,2.1c0.4,0.4,1.6,1.5,3.5,3.2
	C300.6,569.6,302.6,572.2,303.7,574.6z M300.3,587.3c0-0.3,0-0.7-0.1-1.1c-0.3-1.9-1.5-4.1-3.8-6.9c-1.7-2-3-3.5-3.9-4.6
	c-2.8-3.3-3.4-3.9-3.5-4c-1.2-1.5-2-2.7-2.3-3.7l-0.1-0.4l-0.4,0.1c-2.2,0.3-3.9,1.4-5.3,3.3c-1.3,1.8-2,3.8-2,6
	c0,1.9,0.8,4.1,2.3,6.5c1.4,2.1,3.5,4.7,6.4,7.7c1.8,1.8,3,3.2,3.5,4c0.6,0.8,0.9,1.7,1,2.6l0.1,0.7l0.6-0.3
	c1.7-0.7,3.3-1.9,4.8-3.5c1.4-1.6,2.3-3.3,2.6-5.2C300.3,587.9,300.3,587.6,300.3,587.3z"/>
<polygon fill="#E8F309" points="271.3,561.4 271.2,562.9 266.5,562.8 265.4,600.6 270.2,600.8 270.1,602.3 253.7,601.8 253.8,600.3 
	257.6,600.4 258.7,562.6 245.1,562.2 244.1,600 248,600.1 248,601.7 231.5,601.2 231.6,599.7 236.3,599.8 237.3,562 232.6,561.8 
	232.7,560.3 "/>
<path fill="#E8F309" d="M227.8,599.6l-0.1,1.5l-16-1.4l0.1-1.5l4.4,0.4l-3.4-18.5l-0.6,2c-1.3,4.4-3.3,8.4-5.8,11.7
	c-3,3.9-5.9,5.7-8.7,5.5c-1.7-0.2-3-0.8-3.9-1.8c-1.1-1.3-1.6-3.1-1.4-5.4c0.3-3.1,1.4-6.6,3.5-10.3c1.6-2.9,3.9-6.4,7.1-10.6l4-5.1
	c1.2-1.8,1.9-3.5,2.1-5.1c0-0.3,0-0.8,0-1.4l0-0.4l-4.3-0.4l0.1-1.5l16.6,1.5l-0.1,1.5l-4.6-0.4l7.2,39.5L227.8,599.6z M212,577.7
	l-1.8-12.2l-0.7,0.9c-1.4,1.7-2.9,3.4-4.3,5.1c-1.2,1.5-2.2,2.9-3,4.1c-0.9,1.5-2,3.5-3.1,6c-1.3,3-2,5.1-2.1,6.7
	c-0.1,1.4,0.1,2.5,0.7,3.4c0.6,0.8,1.5,1.3,2.5,1.4c0.1,0,0.3,0,0.4,0c1.1,0,2-0.4,2.8-1.3c1.4-1.6,3-3.6,4.6-6
	C210.2,582.4,211.5,579.8,212,577.7L212,577.7z"/>
<path fill="#E8F309" d="M191.3,556.8l-1.6,2.7c-0.2,0.4-0.4,1.1-0.6,1.9c-0.3,0.8-0.5,1.6-0.7,2.4l-0.5-0.1l-1.5-1
	c-0.3-0.3-0.8-0.6-1.3-0.8c-0.5-0.3-1.1-0.5-1.8-0.6c-2.4-0.5-6.3,2.9-12,10.4l-0.4,0.5l0.6,0.3c5.7,2.6,9.3,5.9,10.8,9.9
	c1.3,3.4,1.5,7.5,0.5,12.4l-0.1,0.5l3.3,0.7l-0.3,1.5l-14.2-2.8l0.3-1.5l2.2,0.4l0.1-0.5c1.1-5.7,1.4-10,0.7-12.8
	c-0.9-3.7-3.5-6.4-7.6-8.2l-0.6-0.2l-3.9,19.4l3.5,0.7l-0.3,1.5l-15.8-3.1l0.3-1.5l4.6,0.9l7.4-37.1l-4.6-0.9l0.3-1.5l16.2,3.2
	l-0.3,1.5l-3.9-0.8l-3.3,16.7l2.8,0.6l1.4-1.7l1.3-1.9l1.7-2.3c3.2-4.3,5.2-6.8,6-7.6c2.4-2.3,4.7-3.2,7.1-2.7
	C188.8,555.4,190.2,556,191.3,556.8z"/>
<path d="M49.6,545c-0.3,0.5-0.6,1-1,1.5L49.6,545z"/>
<path d="M48.7,544.6c-0.2,0.5-0.5,0.9-0.9,1.3L48.7,544.6z"/>
<path d="M45.3,420.6C45.3,420.6,45.3,420.6,45.3,420.6c-0.1-0.1-0.1-0.1-0.1-0.1C45.3,420.6,45.3,420.6,45.3,420.6z"/>
</svg>
