<svg width="158.75mm" height="198.44mm" version="1.1" viewBox="0 0 158.75 198.44" xmlns="http://www.w3.org/2000/svg">
 <defs>
  <style type="text/css"><![CDATA[
    .str0 {stroke:aqua;stroke-width:20;stroke-miterlimit:22.9256}
    .fil7 {fill:none}
    .fil1 {fill:black}
    .fil3 {fill:#0066CC}
    .fil6 {fill:aqua}
    .fil0 {fill:#CC0000}
    .fil5 {fill:#D52C27}
    .fil2 {fill:gold}
    .fil4 {fill:white}
   ]]></style>
 </defs>
 <g>
  <g>
   <path d="m0 0v46.302s13.748-0.18294 13.748 23.63c0 23.812-13.748 23.995-13.748 23.995v72.76c0 18.521 18.521 18.521 18.521 18.521h43.656c17.198 0 17.198 13.229 17.198 13.229s0-13.229 17.198-13.229h43.656s18.521 0 18.521-18.521v-72.76s-13.748-0.18294-13.748-23.995c0-23.813 13.748-23.63 13.748-23.63v-46.302h-63.5s-15.875 0-15.875 15.875c0-15.875-15.875-15.875-15.875-15.875z" clip-rule="evenodd" fill="#fc0" fill-rule="evenodd" image-rendering="optimizeQuality" shape-rendering="geometricPrecision" stop-color="#000000"/>
   <g stroke-dashoffset="7.5591">
    <path transform="scale(.26458)" d="m600 75.445c1e-3 -5.56e-4 3e-3 -0.0014 4e-3 -2e-3 0.00244-30.292-4e-3 -75.443-4e-3 -75.443z" fill="#005197" stop-color="#000000" stroke-width="2"/>
    <path transform="scale(.26458)" d="m7.7461 664.98c0.28279 0.54359 0.54287 1.1177 0.83789 1.6445 0.74768 1.3352 1.5332 2.6172 2.3535 3.8477s1.6742 2.409 2.5586 3.5391c0.8844 1.1301 1.8003 2.2122 2.7402 3.2461 0.93994 1.0339 1.9037 2.0208 2.8906 2.9629 0.98694 0.94207 1.9961 1.8389 3.0215 2.6934 1.0254 0.85449 2.0677 1.6663 3.123 2.4375 1.0553 0.77118 2.1245 1.5012 3.2012 2.1934 1.0767 0.69213 2.1605 1.3455 3.25 1.9629s2.1836 1.1992 3.2773 1.7461 2.1879 1.0604 3.2773 1.541c1.0895 0.48065 2.1753 0.92895 3.252 1.3476 1.0767 0.4187 2.1439 0.80695 3.1992 1.168 1.0553 0.36102 2.0977 0.69434 3.123 1.002 2.0508 0.61524 4.0342 1.1274 5.9141 1.5547 1.8799 0.42725 3.6562 0.76953 5.2969 1.043s3.1455 0.479 4.4785 0.63281c1.333 0.15381 2.4941 0.25586 3.4512 0.32422 1.9141 0.13672 3.0078 0.13672 3.0078 0.13672h91.023c88.006-73.447 184.17-183.3 253.49-356.89 76.825-192.37 145.67-250.57 185.48-267.66v-75.445h-127.17c-18.504 16.596-37.53 35.934-56.133 58.752-88.474 108.52-208.74 435.46-313.12 537.07-27.586 26.856-65.268 51.67-95.84 69.156z" fill="#005197" stop-color="#000000" stroke-width="2"/>
    <path d="m73.872 117.29s-3.2799 22.706 20.312 29.564c23.592 6.8581 28.861 2.3777 36.943 4.3174 8.0823 1.9398 14.354-0.71124 14.354-2.845s-11.832-15.583-30.26-19.01c-18.428-3.4269-36.726-16.682-41.349-12.026z" fill="#a54736" stop-color="#000000" stroke="#000" stroke-width=".52917"/>
   </g>
   <path d="m65.176 51.856-0.75974 3.0874-0.0485 2.4409 5.4636 0.19397 1.1315-3.3946 1.5518-2.1984-3.1566 0.68454-1.9353-0.50673-0.99081-0.47626z" fill="#fff" stop-color="#000000"/>
   <path d="m27.981 47.961s5.7708-1.0187 9.1977 2.9255c3.4269 3.9442 7.2094 9.7634 11.251 9.9251 4.0412 0.16165 7.5327-3.7502 10.669-3.2653 3.1359 0.48494 3.3334 1.0218 3.3334 1.0218s0.06858-0.73153 0.61722-1.0973c0.54865-0.36577 1.2573-0.54865 1.2573-0.54865l0.0617 0.46244 5.4636 0.19397 1.5156-4.1769 1.1677-1.4161-3.1566 0.68454-1.4173-0.2286-1.5088-0.75439-1.2561 0.16914-0.22985-3.5753s0.94109-5.6062 3.1718-7.061c2.2307-1.4548 5.7223-3.0389 5.7223-3.0389l1.0345-1.2608 1.0345-1.7781 1.1962-0.38795 1.4548 0.51727 0.7759 2.263 0.80823 0.64659 6.0132 0.12932 1.0669 0.45261 1.6811 0.96988 0.87289-0.06466 2.4247-2.263 0.84056 1.0992 1.0345 5.302 1.2285 1.6811 5.9163 3.3946 2.0691 2.263 1.0992 2.6187 1.0022 4.8171 0.66275 2.263 1.3417 1.8428 2.6187 1.9074 4.1381 2.4247 3.1683 3.2653 2.922 3.4176 6.9038 6.6295s2.4232 2.1489 2.1489 5.395c-0.27432 3.2462-2.1489 5.6693-6.0808 7.1781-3.932 1.5088-7.4067 2.0346-7.4067 2.0346l-4.9607 2.5146-0.82297 1.0744-0.16002 3.5205 1.5726-1.4394 1.4548-0.0323 1.8751 1.0345 0.74358 2.554-0.22631 1.5841-1.5195 1.6165-1.6488 0.51727-1.52-0.0281 1.3261 4.3926 1.3257 10.787 1.6459 6.4466 1.5162 4.2404c0.23494 2.0025-0.0311 4.005-0.61425 6.0075l-1.7249 4.2226 0.54864 1.6688c1.8136 1.1369 3.6272 1.4869 5.4407 2.0574l2.9032 1.143 1.5316 1.9203-0.4572 2.3317-14.608 1.1202-9.7842 0.43435-2.6289-1.0516-1.4402-2.1031-1.3488-4.5492-1.5577-4.5371-3.2846-2.2665c-1.5314-1.5293-3.0712-3.0512-3.9302-5.1687l-3.4849-7.0078-2.876-8.795c-2.1501 0.0543-3.8045-0.70793-5.2241-1.857l-3.0389-3.6209-0.46959-0.64866-0.04768 4.8191-0.2263 1.8751-1.1962 2.457-0.38795 2.1661-0.06466 1.8751-0.90522 2.1014-1.2869 1.8971h-29.444v-1.9721l-0.09144-0.95403 0.32004-1.4859 2.8284-0.97662 10.054-2.651 0.71124-0.64659-0.09699-0.87288-0.09699-1.4872-3.3299-8.2116-3.0389-11.477-0.58193-7.4681 1.1962-5.7546 2.263-3.0066 3.7825-1.4548 3.6209-0.19398 5.8839 0.45261 4.1381 0.96988 0.7759-0.71124 0.48494-1.277 0.96988-1.0184v-0.5496l-1.9236-2.0529-3.5239-0.59809-8.0693 0.40756-4.8921-0.13716-3.6397-0.75534-3.6532-1.3902-4.7847-3.1683-4.3644-4.7524-2.7157-4.9787z" fill="#a54736" stop-color="#000000"/>
  </g>
  <g fill="none" stroke="#000" stroke-dashoffset="7.5591" stroke-width=".52917">
   <path d="m105.39 58.581s-0.64659-6.6598-3.2329-8.9875c-2.5863-2.3277-7.6944-3.1036-8.147-6.2719-0.45261-3.1683-1.0992-7.3064-2.5863-5.2373-1.4871 2.0691-2.4551 2.1959-4.1925 0.73282-1.7374-1.4631-7.8639 0.04572-8.0011-1.4173-0.13716-1.4631-0.54864-2.6975-2.4232-2.5603-1.8745 0.13716-1.6917 2.286-2.6061 3.0633s-5.7956 1.6041-7.8 5.6776c-2.0044 4.0735-1.2285 8.2763-1.2285 8.2763s1.3578-0.64659 2.3924 0.25863c1.0345 0.90522 2.1984 0.45261 3.6855 0 1.4871-0.45261 3.2329-0.06466 4.0088 0.7759" stop-color="#000000"/>
   <path d="m65.176 51.856s-0.51727 1.1962-0.71124 2.4247c-0.19398 1.2285-0.09699 3.1036-0.09699 3.1036l5.4636 0.19397s0.96988-4.2351 2.6833-5.593" stop-color="#000000"/>
   <path d="m67.941 52.441s-0.5715 1.9888-0.50292 4.8692" stop-color="#000000"/>
   <path d="m70.204 56.625s5.6406 8.2923 15.663 8.2923c10.022 0 19.527-6.3365 19.527-6.3365" stop-color="#000000"/>
   <path d="m105.39 58.581s-8e-3 3.8736 5.2959 6.4339c5.3036 2.5603 5.395 4.1148 8.4126 7.5439 3.0176 3.429 10.287 8.184 10.287 12.756 0 4.572-3.3376 7.0409-9.5556 8.5954-6.218 1.5545-9.4184 3.5205-9.8299 4.7092-0.41148 1.1887-0.13716 3.429-0.13716 3.429s0.98299-1.806 2.7661-1.5545c1.7831 0.25147 2.8477 1.8932 2.8477 4.1239 0 2.2307-2.748 3.5886-4.6554 3.2653-1.9074-0.32329-7.1124-7.4034-6.7891-14.451s7.8883-18.557 13.966-22.049" stop-color="#000000"/>
   <path d="m27.981 47.961s5.3493-1.4631 9.7842 3.5205c4.4349 4.9835 6.6295 9.2812 11.339 9.2812s5.5322-3.2462 9.8756-3.2462c4.3434 0 11.304 7.1422 11.304 12.056 0 4.914-3.6855 9.8927-3.6855 9.8927s0.15362 1.0027-0.76079 1.4599c-0.91441 0.4572-0.27432 2.4689-2.286 1.9203-2.0117-0.54864-14.905-3.932-18.471 2.8347s-0.18288 18.014 1.7374 24.232c1.9203 6.218 5.395 11.293 3.109 12.207-2.286 0.91441-12.299 2.6518-12.939 3.8862-0.64009 1.2344-0.18288 4.2063-0.18288 4.2063h29.444s2.5146-2.789 2.3317-5.4864c-0.18288-2.6975 0.68581-2.9718 1.3259-4.5263 0.64009-1.5545 0.45721-7.1781 0.45721-7.1781s1.9203 3.2462 4.3434 4.8921c2.4232 1.6459 4.3892 1.2344 4.3892 1.2344s2.1793 8.4884 6.2528 15.795c4.0735 7.3064 6.4012 5.302 7.953 8.4056 1.5518 3.1036 0.90522 11.251 6.8538 11.251 5.9486 0 21.143-1.1638 22.954-1.2285 1.8104-0.0647 2.263-3.7502-1.1639-5.108-3.4269-1.3578-8.9875-1.3578-7.6297-4.9787 1.3578-3.6209 3.7502-7.1771 1.0345-13.255-2.7156-6.0779-2.6041-12.252-3.1527-15.956-0.54865-3.7034-1.6002-6.218-1.6002-6.218" stop-color="#000000"/>
  </g>
  <ellipse cx="82.457" cy="47.458" rx="1.4859" ry="2.3775" stop-color="#000000"/>
  <path d="m30.358 64.649s6.5837 12.527 19.843 12.527c13.259 0 13.455-1.4568 16.397 2.2892" fill="none" stop-color="#000000" stroke="#000" stroke-dashoffset="7.5591" stroke-width=".52917"/>
  <g stroke="#000" stroke-dashoffset="7.5591">
   <path d="m23.859 152.79s-2.9096-0.71124-5.9486-0.84056c-3.0389-0.12931-3.5562-0.4526-4.7847 0.12932-1.2285 0.58193-1.6811 1.6811-1.6811 1.6811s-1.3578-2.845 1.1315-3.6855 5.8193-0.16165 8.6966-0.19398c2.8773-0.0323 4.5261-1.5195 4.5261-1.5195l-5.2697-1.0669s0.16165-0.0647-1.1639-0.097-3.4592 0.58192-3.4592 0.58192 1.0345-1.6811 4.0088-2.1984c2.9743-0.51727 8.7936 2.2307 8.4056-15.486-0.38795-17.716-3.2976-78.237-3.2976-84.832 0-6.5952 0.32329-8.6642-1.1639-9.5048-1.4871-0.84056-4.2449-1.603-6.8053-3.6147-2.5603-2.0117-4.9835-4.4806-4.9835-4.4806l1.4631-1.1887s1.8745 3.109 5.9894 4.9835c4.1148 1.8745 6.1265 3.8862 6.218 2.0574 0.09144-1.8288-1.6459-14.676-1.6459-14.676l3.2919-0.2743s0.73153 9.6013 0.96013 14.265c0.2286 4.6635 0 11.476 0.77725 11.567 0.77725 0.09144 3.6576-8.9612 7.0867-14.219 3.429-5.2579 7.0409-8.7783 7.0409-8.7783s-4.0234 6.4466-6.1723 13.442c-2.1489 6.9952-2.5603 9.7842-3.7034 10.881-1.143 1.0973-3.3376 0.6858-2.9718 2.6518 0.36577 1.966 0.37334 11.631 2.5717 31.804 2.1984 20.173 4.6554 70.995 4.6554 70.995z" fill="#a54736" stop-color="#000000" stroke-width=".52917"/>
   <path d="m25.928 51.016s4.3644 0.67891 4.3644 7.3064c0 6.6275-3.5562 6.8538-3.5562 6.8538s-6.6598-1.0669-6.6598-7.3064c0-6.2395 5.8516-6.8538 5.8516-6.8538z" fill="#a54736" stop-color="#000000" stroke-width=".52917"/>
   <path d="m37.885 129.68h-4.0464s0.08519-0.38334 1.363-1.4482c1.2778-1.0648 2.6834-1.15 2.6834-1.15z" fill="#fff" stop-color="#000000" stroke-width=".69718"/>
  </g>
  <g transform="translate(2.5988 -4.088)" fill="#da251d" stroke="#000" stroke-dashoffset="7.5591" stroke-width=".54464">
   <path d="m49.05 147.92v13.616h31.317v-13.616z" stop-color="#000000"/>
   <path d="m17.733 147.92v13.616h31.317v-13.616z" stop-color="#000000"/>
   <path d="m33.392 134.3v13.616h31.317v-13.616z" stop-color="#000000"/>
  </g>
  <g fill="#fff" stroke="#000" stroke-dashoffset="7.5591">
   <g stroke-width=".52917">
    <path d="m26.149 54.362v1.6002l2.126-0.84583z" stop-color="#000000"/>
    <path d="m26.149 57.549v1.6002l2.126-0.84583z" stop-color="#000000"/>
    <path d="m26.149 60.724v1.6002l2.126-0.84583z" stop-color="#000000"/>
   </g>
   <path d="m124.04 153.07h4.0464s-0.0852-0.38334-1.363-1.4482c-1.2778-1.0648-2.6834-1.15-2.6834-1.15z" stop-color="#000000" stroke-width=".69718"/>
  </g>
  <path d="m62.431 58.568s0.11555-1.2678 1.8745-1.6459" fill="none" stop-color="#000000" stroke="#000" stroke-dashoffset="7.5591" stroke-width=".52917"/>
  <path d="m16.642 8.8698s2.9261 0.2286 4.4806 0.04572c1.5545-0.18288 2.5146-1.0516 3.932-1.143 1.4173-0.091441 2.0574 0.82297 4.4349 0.96013 2.3775 0.13716 5.1664 0.27432 5.5779 0.77725 0.41148 0.50293 1.2344 0.41148 1.2802 1.4631 0.04572 1.0516-0.54864 0.91441-1.6002 0.91441-1.0516 0-4.1148-0.91441-4.2977-0.41148-0.18288 0.50292 1.2802 1.7831 4.252 1.8288 2.9718 0.04572 4.572-0.41148 7.9096-1.1887 3.3376-0.77725 5.3493-1.1887 7.1324-0.91441 1.7831 0.27432 3.2462 0.27432 3.3376 0.86869 0.09144 0.59436-0.91441 1.3259-2.6061 1.4631-1.6917 0.13716-3.3376 0.27432-3.932 0.77725-0.59437 0.50292-1.1887 1.0973 0.86869 1.0973 2.0574 0 7.2238 0.04572 8.6869 0.50292 1.4631 0.4572 1.0516 0.64009 3.109 1.4173 2.0574 0.77725 2.4232 1.0973 3.2004 1.1887 0.77725 0.09144 1.0516 0.59437 1.143-0.18288 0.09144-0.77725-0.04572-1.5088 0.6858-1.7374 0.73153-0.2286 1.6459-0.68581 2.6518-0.09144 1.0059 0.59437 1.4173 1.0516 3.0633 1.1887 1.6459 0.13716 2.7432 0 3.429 0s1.1887-0.13716 1.4173 0.41148c0.2286 0.54865 0.73153 1.4631 0.32004 1.6459-0.41148 0.18288-0.86869 0.36576-2.1946 0.27432-1.3259-0.09144-2.9261-0.32004-4.4349-0.27432-1.5088 0.04572-4.0234 0.13716-5.0292 0.59437-1.0059 0.4572-1.0059 0.77725-2.7889 1.1887-1.7831 0.41148-2.5603 1.1887-2.8804 1.7374-0.32004 0.54865-0.09144 1.6459-1.4631 1.9203-1.3716 0.27432-4.2063 0.36576-4.7549 0.32004-0.54864-0.04572-1.6002-0.27432-0.91441-0.68581 0.68581-0.41148 2.1489-1.0516 2.6061-1.4631 0.45721-0.41148 1.143-0.50292 0.36577-1.0516-0.77725-0.54864-0.91441-1.0516-2.0574-1.0516-1.143 0-2.6061 0.18288-3.8862 0.36576-1.2802 0.18288-1.966-0.64009-2.0574 0.6858-0.09144 1.3259-0.4572 1.5545 0.32004 2.1031 0.77725 0.54865 1.9203 1.0973 2.3317 1.3259 0.41148 0.2286 0.86869 0.59437 0.86869 1.0058 0 0.41148 0.64009 1.0059-0.73153 0.82297-1.3716-0.18288-1.4173-0.36576-2.5603-0.59436-1.143-0.2286-5.1207-1.6002-6.0808-2.286-0.96013-0.68581-0.41148-1.143-2.6061-1.143-2.1946 0-1.9203-0.27432-3.429 0.04572-1.5088 0.32004-1.8745 1.1887-1.0973 1.6917s1.8288 0.77725 2.5603 1.0973c0.73153 0.32004 2.3317 0.50293 1.6002 1.0058-0.73153 0.50293-1.0059 0.54865-2.3317 0.91441-1.3259 0.36576-1.7374 0.59436-2.6975 0.54864-0.96013-0.04572-1.7831 0.18288-1.8745-0.68581s0.59436-0.73152-0.18288-1.6002c-0.77725-0.86869 1.5545-1.0516-1.8745-1.0516h-4.6178c-1.6917 0-3.1547-0.68581-3.109 0 0.04572 0.68581-0.41148 1.0516 0.73153 1.7374 1.143 0.68581 1.5545 0.77725 2.286 1.0516 0.73153 0.27432 1.0516 0.27432 0.73153 0.96013-0.32004 0.68581-0.32004 1.6917-1.0516 1.8745-0.73153 0.18288-0.4572 0.36576-1.7374 0.41149-1.2802 0.04572-1.6002-0.2286-2.5603-0.50293-0.96013-0.27432-0.68581-0.50292-2.0574-0.41148-1.3716 0.09144 0 0.13716-3.0633 0.32004-3.0633 0.18288-3.2004 0.41149-4.9378 0.2286-1.7374-0.18288-1.3716-0.091439-2.6975-0.54864-1.3259-0.4572-1.4631-0.50292-2.2403-1.1887-0.77725-0.68581-2.1946-0.73153-0.68581-1.2345 1.5088-0.50292 1.4631-0.73152 2.4232-0.77724s2.0117 0.18288 2.8347-0.18288c0.82297-0.36576 1.143 0.27432 1.6917-1.0516 0.54865-1.3259 1.143-0.86869 0.54865-1.4631-0.59437-0.59437 0.50292-1.0973-1.3716-1.0058-1.8745 0.091441-1.2345 0.50292-2.9718 0.13716-1.7374-0.36576-1.6459 0.64009-1.8288-0.4572-0.18288-1.0973-0.77725-1.2345 0.13716-2.0574 0.91441-0.82297 0.96013-0.04572 1.0058-1.0058 0.04572-0.96013-0.82297-1.143 0.77725-1.1887 1.6002-0.04572 3.2462 0.64009 4.252 0.68581 1.0058 0.04572 1.5088-0.18288 1.966-1.143 0.4572-0.96013 0.50292-1.6917-0.68581-2.1031-1.1887-0.41148-1.966-0.36576-3.109-1.1887s-1.5545-1.1887-1.2345-2.0117c0.32004-0.82297 0.41148-1.5088 1.0516-1.5088s2.0117 0.91441 2.2403 0.50292c0.2286-0.41148 0.32004 0.13716 0.2286-1.5088-0.09144-1.6459-0.28302-1.021 1.4304-1.603 1.7134-0.58193 4.4218-0.40872 4.4218-0.40872z" fill="#00923f" stop-color="#000000" stroke="#000" stroke-dashoffset="7.5591" stroke-width=".52917"/>
 </g>
</svg>
