<?xml version="1.0" encoding="UTF-8"?>
<!DOCTYPE svg PUBLIC "-//W3C//DTD SVG 1.1//EN" "http://www.w3.org/Graphics/SVG/1.1/DTD/svg11.dtd">
<!-- Creator: CorelDRAW 2019 (64-Bit) -->
<svg xmlns="http://www.w3.org/2000/svg" xml:space="preserve" width="513px" height="650px" version="1.1" style="shape-rendering:geometricPrecision; text-rendering:geometricPrecision; image-rendering:optimizeQuality; fill-rule:evenodd; clip-rule:evenodd"
viewBox="0 0 51300000 64933000"
 xmlns:xlink="http://www.w3.org/1999/xlink"
 xmlns:xodm="http://www.corel.com/coreldraw/odm/2003">
 <defs>
  <style type="text/css">
   <![CDATA[
    .str1 {stroke:#767676;stroke-width:100000;stroke-miterlimit:22.9256}
    .str0 {stroke:black;stroke-width:100000;stroke-linecap:round;stroke-linejoin:round;stroke-miterlimit:22.9256}
    .fil6 {fill:none}
    .fil3 {fill:black}
    .fil5 {fill:#767676}
    .fil1 {fill:#DE2525}
    .fil2 {fill:#FECD67}
    .fil0 {fill:white}
    .fil4 {fill:black;fill-rule:nonzero}
   ]]>
  </style>
 </defs>
 <g id="Слой_x0020_1">
  <metadata id="CorelCorpID_0Corel-Layer"/>
  <path class="fil0" d="M34196000 59883000l0 -59371000 -17114000 0 0 59371000 3715000 0c2689000,149000 4820000,2370000 4820000,5062000 0,-2692000 2130000,-4913000 4820000,-5062000l3759000 0z"/>
  <path class="fil1" d="M17082000 59883000l0 -59371000 -17115000 0 0 54266000c0,2798000 2324000,5105000 5143000,5105000l11972000 0z"/>
  <path class="fil1" d="M51267000 512000l-17071000 0 0 59371000 11928000 0c2819000,0 5143000,-2307000 5143000,-5105000l0 -54266000z"/>
  <path class="fil2 str0" d="M40789000 20861000c-401000,-173000 -1114000,407000 -1135000,898000 -17000,392000 940000,1187000 1653000,4094000 361000,1470000 216000,3775000 -1510000,5337000 -244000,-3371000 -1190000,-4638000 -1138000,-6900000 32000,-1414000 67000,-2499000 1018000,-3345000 2020000,-1797000 4959000,731000 5612000,1843000 1674000,2846000 1114000,3821000 2108000,5345000 -1339000,-312000 -2711000,-1477000 -3520000,-2498000 -2757000,-3479000 -2568000,-4550000 -3088000,-4774000z"/>
  <path class="fil2 str0" d="M7208000 27363000c115000,422000 1012000,617000 1409000,328000 317000,-231000 342000,-1475000 2170000,-3845000 925000,-1198000 2817000,-2522000 5114000,-2147000 -2482000,2293000 -2884000,3823000 -4684000,5192000 -1126000,856000 -1996000,1506000 -3250000,1290000 -2665000,-460000 -2520000,-4334000 -2059000,-5537000 1182000,-3084000 2293000,-3253000 2865000,-4981000 591000,1241000 536000,3041000 242000,4309000 -1001000,4326000 -1956000,4846000 -1807000,5391000z"/>
  <path class="fil2 str0" d="M11126000 19879000c-80000,429000 644000,995000 1127000,907000 386000,-71000 949000,-1181000 3624000,-2523000 1353000,-679000 3632000,-1051000 5539000,285000 -3231000,988000 -4257000,2192000 -6473000,2645000 -1386000,282000 -2452000,491000 -3488000,-248000 -2201000,-1570000 -390000,-4998000 547000,-5882000 2403000,-2265000 3478000,-1936000 4743000,-3245000 -6000,1375000 -837000,2972000 -1652000,3988000 -2779000,3462000 -3865000,3517000 -3967000,4073000z"/>
  <path class="fil3" d="M51267000 54778000c0,2798000 -2324000,5105000 -5143000,5105000l-15687000 0c-2690000,149000 -4820000,2370000 -4820000,5062000 0,-2692000 -2131000,-4913000 -4820000,-5062000l-15687000 0c-2819000,0 -5143000,-2307000 -5143000,-5105000l0 -54766000 51300000 0 0 54766000zm-2000000 3289000c848000,-841000 1376000,-2007000 1376000,-3289000l0 -54266000 -50051000 0 0 54266000c0,1282000 528000,2448000 1375000,3289000 817000,811000 1932000,1316000 3143000,1316000l15687000 0 41000 2000c1535000,85000 2901000,753000 3876000,1777000 357000,375000 662000,797000 903000,1256000 241000,-459000 545000,-881000 902000,-1256000 975000,-1024000 2341000,-1692000 3877000,-1777000l41000 -2000 15687000 0c1212000,0 2326000,-505000 3143000,-1316000z"/>
  <path class="fil2 str0" d="M17899000 14830000c-258000,353000 149000,1177000 622000,1307000 379000,104000 1367000,-652000 4360000,-701000 1513000,-24000 3728000,629000 4867000,2660000 -3340000,-512000 -4787000,128000 -6980000,-426000 -1371000,-346000 -2422000,-621000 -3035000,-1736000 -1302000,-2370000 1817000,-4673000 3046000,-5062000 3148000,-998000 3973000,-236000 5680000,-866000 -602000,1236000 -2043000,2315000 -3218000,2876000 -4006000,1914000 -5008000,1492000 -5342000,1948000z"/>
  <path class="fil2 str0" d="M26194000 13228000c-385000,206000 -376000,1125000 -6000,1447000 296000,258000 1514000,6000 4231000,1260000 1375000,635000 3087000,2185000 3232000,4508000 -2788000,-1910000 -4369000,-1961000 -6105000,-3411000 -1085000,-907000 -1912000,-1611000 -1980000,-2882000 -145000,-2700000 3664000,-3421000 4940000,-3239000 3269000,466000 3682000,1511000 5494000,1685000 -1079000,852000 -2846000,1199000 -4148000,1195000 -4440000,-14000 -5159000,-829000 -5658000,-563000z"/>
  <path class="fil2 str0" d="M44204000 28588000c-287000,-330000 -1180000,-116000 -1412000,316000 -186000,346000 331000,1478000 -288000,4406000 -312000,1481000 -1443000,3495000 -3676000,4153000 1243000,-3142000 940000,-4695000 1969000,-6710000 642000,-1259000 1144000,-2223000 2368000,-2572000 2600000,-742000 4151000,2811000 4257000,4095000 273000,3291000 -654000,3926000 -420000,5731000 -1071000,-862000 -1802000,-2507000 -2088000,-3778000 -974000,-4331000 -340000,-5214000 -710000,-5641000z"/>
  <path class="fil2 str0" d="M34364000 15375000c-436000,19000 -827000,851000 -633000,1302000 155000,360000 1362000,662000 3266000,2971000 962000,1168000 1832000,3307000 955000,5464000 -1683000,-2931000 -3085000,-3663000 -4019000,-5723000 -584000,-1288000 -1025000,-2281000 -535000,-3455000 1041000,-2496000 4786000,-1493000 5857000,-775000 2743000,1838000 2661000,2959000 4218000,3901000 -1342000,300000 -3084000,-154000 -4255000,-723000 -3994000,-1939000 -4289000,-2985000 -4854000,-2962000z"/>
  <g id="_2566400094304">
   <path class="fil2" d="M7254000 32198000c1000,-10113000 8199000,-18311000 18312000,-18311000 10113000,0 18311000,8198000 18311000,18311000l-494000 0c0,-9840000 -7977000,-17817000 -17817000,-17817000 -9840000,0 -17817000,7977000 -17817000,17817000l-495000 0z"/>
   <path class="fil4" d="M7204000 32198000c0,-5070000 2056000,-9661000 5379000,-12983000 3322000,-3323000 7913000,-5379000 12983000,-5379000 5070000,0 9661000,2056000 12983000,5379000 3323000,3322000 5378000,7913000 5378000,12983000l-100000 0c0,-5043000 -2044000,-9608000 -5348000,-12913000 -3305000,-3304000 -7870000,-5348000 -12913000,-5348000 -5043000,0 -9608000,2044000 -12913000,5348000 -3304000,3305000 -5349000,7870000 -5349000,12913000l-100000 0zm36229000 0l-100000 0c0,-4906000 -1989000,-9348000 -5204000,-12563000 -3215000,-3215000 -7657000,-5204000 -12563000,-5204000 -4906000,0 -9348000,1989000 -12563000,5204000 -3215000,3215000 -5204000,7657000 -5204000,12563000l-100000 0c0,-4934000 2000000,-9400000 5233000,-12634000 3233000,-3233000 7700000,-5233000 12634000,-5233000 4933000,0 9400000,2000000 12633000,5233000 3234000,3234000 5234000,7700000 5234000,12634000z"/>
  </g>
  <g id="_2566400089120">
   <g>
    <rect class="fil3" x="24192000" y="3604000" width="2748000" height="53589000"/>
    <rect class="fil5" x="26401000" y="4112000" width="281000" height="52809000"/>
   </g>
   <g>
    <path class="fil3" d="M11723000 9514000c9900000,-3185000 24773000,-1280000 24773000,-1280000 495000,-4235000 0,0 495000,-4235000 -16020000,-1702000 -22035000,3095000 -25268000,5515000z"/>
    <path class="fil5" d="M35943000 7714000c409000,-3272000 0,0 409000,-3272000 -1579000,-286000 -2990000,-423000 -4781000,-530000 1791000,-31000 2746000,-8000 5301000,258000 -158000,1314000 -314000,2598000 -472000,3913000 -6413000,-781000 -15285000,-1456000 -23692000,951000 472000,-315000 943000,-630000 1414000,-945000 -78000,104000 -156000,208000 -234000,312000 3151000,-728000 11346000,-2300000 22055000,-687000z"/>
   </g>
   <path class="fil6 str1" d="M26566000 14477000c-416000,-149000 -681000,-584000 -749000,-961000 -208000,-1149000 17000,-2055000 -13000,-2480000 -11000,-154000 -257000,-204000 -249000,-420000 34000,-905000 -89000,-1557000 -254000,-1503000 -440000,145000 -195000,1973000 -421000,2935000 -52000,222000 -266000,370000 -398000,555000"/>
   <path class="fil6 str1" d="M24490000 21379000c416000,-149000 681000,-584000 749000,-961000 208000,-1149000 -18000,-2054000 13000,-2480000 11000,-154000 257000,-204000 249000,-419000 -34000,-906000 89000,-1558000 254000,-1504000 439000,145000 195000,1973000 421000,2936000 52000,221000 266000,369000 398000,554000"/>
   <path class="fil6 str1" d="M26566000 30714000c-416000,-148000 -681000,-583000 -749000,-960000 -208000,-1149000 17000,-2055000 -13000,-2480000 -11000,-154000 -257000,-205000 -249000,-420000 34000,-905000 -89000,-1558000 -254000,-1503000 -440000,145000 -195000,1973000 -421000,2935000 -52000,221000 -266000,370000 -398000,555000"/>
   <path class="fil6 str1" d="M24481000 39164000c417000,-148000 682000,-583000 750000,-960000 208000,-1149000 -18000,-2055000 12000,-2480000 11000,-154000 258000,-204000 250000,-420000 -34000,-905000 89000,-1558000 253000,-1503000 440000,145000 196000,1973000 422000,2935000 52000,222000 265000,370000 398000,555000"/>
   <path class="fil6 str1" d="M26566000 48532000c-416000,-148000 -681000,-583000 -749000,-960000 -208000,-1149000 17000,-2055000 -13000,-2480000 -11000,-154000 -257000,-204000 -249000,-420000 34000,-905000 -89000,-1558000 -254000,-1503000 -440000,145000 -195000,1973000 -421000,2935000 -52000,222000 -266000,370000 -398000,555000"/>
  </g>
  <path class="fil2 str0" d="M6927000 35808000c286000,330000 1180000,116000 1412000,-316000 185000,-346000 -332000,-1477000 287000,-4406000 313000,-1481000 1443000,-3495000 3676000,-4153000 -1242000,3142000 -940000,4695000 -1968000,6710000 -643000,1260000 -1145000,2223000 -2369000,2572000 -2600000,742000 -4150000,-2811000 -4257000,-4095000 -273000,-3291000 654000,-3926000 420000,-5731000 1071000,862000 1802000,2507000 2088000,3778000 974000,4331000 340000,5214000 711000,5641000z"/>
  <path class="fil2 str0" d="M10343000 43535000c401000,173000 1113000,-407000 1135000,-898000 17000,-392000 -940000,-1187000 -1653000,-4094000 -361000,-1470000 -217000,-3775000 1510000,-5337000 244000,3370000 1190000,4638000 1138000,6900000 -33000,1414000 -67000,2499000 -1018000,3345000 -2020000,1797000 -4959000,-732000 -5612000,-1843000 -1674000,-2847000 -1114000,-3821000 -2109000,-5345000 1339000,312000 2712000,1477000 3521000,2497000 2757000,3480000 2568000,4551000 3088000,4775000z"/>
  <path class="fil2 str0" d="M16767000 49020000c437000,-18000 827000,-850000 634000,-1301000 -155000,-361000 -1362000,-662000 -3266000,-2971000 -963000,-1168000 -1833000,-3308000 -955000,-5464000 1682000,2931000 3085000,3662000 4019000,5723000 584000,1287000 1024000,2280000 535000,3455000 -1041000,2495000 -4786000,1493000 -5857000,775000 -2743000,-1839000 -2661000,-2959000 -4219000,-3901000 1342000,-300000 3084000,154000 4256000,723000 3994000,1938000 4288000,2985000 4853000,2961000z"/>
  <path class="fil2 str0" d="M24938000 51168000c385000,-206000 376000,-1125000 6000,-1447000 -296000,-258000 -1514000,-6000 -4232000,-1261000 -1374000,-634000 -3086000,-2184000 -3231000,-4508000 2787000,1911000 4369000,1962000 6104000,3412000 1085000,907000 1913000,1611000 1981000,2882000 145000,2700000 -3664000,3421000 -4940000,3239000 -3269000,-467000 -3682000,-1512000 -5494000,-1685000 1079000,-852000 2846000,-1199000 4148000,-1195000 4439000,14000 5159000,829000 5658000,563000z"/>
  <path class="fil2 str0" d="M33232000 49565000c258000,-353000 -149000,-1176000 -622000,-1306000 -378000,-104000 -1366000,652000 -4359000,700000 -1514000,25000 -3729000,-629000 -4867000,-2659000 3340000,512000 4786000,-129000 6980000,425000 1371000,347000 2421000,622000 3034000,1737000 1302000,2370000 -1816000,4672000 -3045000,5062000 -3148000,998000 -3973000,236000 -5681000,866000 602000,-1236000 2044000,-2315000 3219000,-2876000 4006000,-1914000 5008000,-1492000 5341000,-1949000z"/>
  <path class="fil2 str0" d="M40006000 44517000c79000,-430000 -645000,-995000 -1128000,-907000 -386000,70000 -948000,1180000 -3623000,2522000 -1353000,679000 -3632000,1051000 -5539000,-284000 3231000,-988000 4257000,-2193000 6473000,-2645000 1385000,-283000 2452000,-491000 3488000,248000 2201000,1570000 390000,4998000 -548000,5882000 -2403000,2265000 -3477000,1936000 -4742000,3244000 6000,-1374000 837000,-2972000 1652000,-3987000 2778000,-3463000 3864000,-3517000 3967000,-4073000z"/>
  <path class="fil2 str0" d="M43924000 37032000c-115000,-421000 -1013000,-617000 -1409000,-328000 -318000,231000 -343000,1475000 -2171000,3845000 -924000,1199000 -2816000,2523000 -5114000,2147000 2483000,-2292000 2884000,-3822000 4685000,-5192000 1126000,-855000 1996000,-1505000 3250000,-1289000 2664000,459000 2520000,4333000 2059000,5537000 -1183000,3083000 -2293000,3253000 -2865000,4981000 -591000,-1242000 -536000,-3041000 -242000,-4310000 1001000,-4325000 1956000,-4845000 1807000,-5391000z"/>
  <path class="fil2" d="M25566000 50509000c-10113000,0 -18312000,-8198000 -18312000,-18311000l0 0 495000 0c0,9840000 7977000,17817000 17817000,17817000 9840000,0 17817000,-7977000 17817000,-17817000l494000 0 0 0c0,10113000 -8198000,18311000 -18311000,18311000z"/>
  <path class="fil4" d="M25566000 50559000c-5070000,0 -9661000,-2055000 -12983000,-5378000 -3323000,-3322000 -5379000,-7913000 -5379000,-12983000l0 0 100000 0 0 0c0,5043000 2045000,9608000 5349000,12913000 3305000,3304000 7870000,5348000 12913000,5348000 5043000,0 9608000,-2044000 12913000,-5348000 3304000,-3305000 5348000,-7870000 5348000,-12913000l0 0 100000 0 0 0c0,5070000 -2055000,9661000 -5378000,12983000 -3322000,3323000 -7913000,5378000 -12983000,5378000zm-17867000 -18361000l100000 0c0,4906000 1989000,9348000 5204000,12563000 3215000,3215000 7657000,5204000 12563000,5204000 4906000,0 9348000,-1989000 12563000,-5204000 3215000,-3215000 5204000,-7657000 5204000,-12563000l100000 0c0,4934000 -2000000,9400000 -5234000,12634000 -3233000,3233000 -7699000,5233000 -12633000,5233000 -4934000,0 -9401000,-2000000 -12634000,-5233000 -3233000,-3234000 -5233000,-7701000 -5233000,-12634000z"/>
 </g>
</svg>
