<?xml version="1.0" encoding="utf-8"?>
<!-- Generator: Adobe Illustrator 15.0.1, SVG Export Plug-In . SVG Version: 6.00 Build 0)  -->
<!DOCTYPE svg PUBLIC "-//W3C//DTD SVG 1.1//EN" "http://www.w3.org/Graphics/SVG/1.1/DTD/svg11.dtd">
<svg version="1.1" id="Слой_1" xmlns="http://www.w3.org/2000/svg" xmlns:xlink="http://www.w3.org/1999/xlink" x="0px" y="0px"
	 width="1200px" height="1600px" viewBox="459.031 847.238 1200 1600" enable-background="new 459.031 847.238 1200 1600"
	 xml:space="preserve">
<g>
	<path d="M1247.617,1197.713l106.805-223.282l-20.533-9.448l-11.197,21.258l-10.23-5.375l10.531-21.798l-17.914-8.879
		l-10.955,21.481l-8.256-3.932l9.898-22.799l-20.713-8.33l-45.568,110.475c-7.563-3.188-15.26-6.216-22.939-9.016l31.051-118.178
		l-24.461-6.012l-6.074,21.802l-9.146-2.265l4.889-22.429l-22.166-4.185l-4.748,22.419l-10.527-1.691l2.984-23.766l-24.102-3.11
		l-16.418,116.205c-6.273-1.099-12.586-2.056-18.826-2.857l5.164-116.765h-25.529l-0.787,20.34l-11.353-0.345l-0.672-19.995h-33.582
		l-0.67,19.995l-11.354,0.345l-0.782-20.34h-25.535l5.171,116.798c-6.172,0.826-12.48,1.818-18.813,2.96L973.82,900.655
		l-24.101,3.11l2.984,23.766l-10.527,1.691l-4.749-22.419l-22.167,4.185l4.889,22.429l-9.147,2.265l-6.07-21.802l-24.466,6.012
		l31.294,118.708c-7.752,2.848-15.547,5.925-23.231,9.171l-45.515-111.16l-20.718,8.33l9.9,22.799l-8.257,3.932l-10.955-21.481
		l-17.915,8.879l10.532,21.798l-10.226,5.375l-11.203-21.258l-20.534,9.448l106.812,223.282H572.005v1066.714
		c0,41.603,33.469,75.447,74.607,75.447h338.501c21.467,0,40.167,14.484,52.075,26.634c13.085,13.352,21.08,26.908,21.159,27.045
		l2.157,3.685l2.067-3.736c0.295-0.535,30.147-53.627,70.377-53.627h338.502c41.137,0,74.605-33.846,74.605-75.447V1197.713
		H1247.617z M880.953,1197.713c7.918-4.124,23.412-11.57,44.882-18.979c29.53-10.187,76.604-22.332,133.195-22.332
		c47.327,0,94.825,12.253,126.338,22.526c22.156,7.229,39.725,14.516,49.418,18.784H880.953z"/>
	<g>
		<path fill="#ED1C24" d="M1405.488,1534.178c4.344,6.197,5.604,12.899,3.363,17.997c-1.873,4.243-5.895,6.936-11.35,7.582
			c-12.99,1.618-20.578-10.989-29.447-25.477c-0.023-0.039-0.049-0.078-0.072-0.112
			C1381.003,1526.534,1392.953,1526.539,1405.488,1534.178z"/>
		<path fill="#ED1C24" d="M1535.121,1208.65v1055.777c0,35.572-28.563,64.514-63.672,64.514h-338.5
			c-19.563,0-39.664,10.396-58.132,30.06c-5.974,6.356-10.892,12.738-14.536,17.905c-3.835-5.211-9.016-11.66-15.28-18.051
			c-13.375-13.647-34.624-29.914-59.886-29.914H646.613c-35.109,0-63.672-28.941-63.672-64.514V1208.65H1535.121z
			 M1423.693,1583.412c30.439-23.333,17.574-55.435,14.688-61.636c-0.311-0.656-0.604-1.278-0.953-1.76l0.016-0.01
			c-21.482-31.109-59.328-26.386-88.361-11.271c-11.066-10.347-26.061-16.154-49.025-8.51
			c-23.848,7.946-20.445,39.882-20.412,40.203l0.799,6.818l3.197-6.075c0.334-0.637,8.324-15.416,32.869-13.525
			c1.811,0.724,3.563,1.564,5.248,2.508c-33.744,44.62-25.121,121.046-23.299,132.996l-0.039-0.023
			c-0.355,0.538-8.797,13.205-9.74,21.181c-0.621,5.248,1.074,8.451,4.166,14.273c3.076,5.798,7.723,14.566,13.273,31.444
			c2.342,7.12,1.813,15.154,1.205,24.451c-0.234,3.446-0.473,7.086-0.588,10.955l-0.166,5.205l3.756-3.611
			c1.828-1.75,3.895-3.597,6.066-5.54c5.607-5.025,11.883-10.64,16.461-16.738c10.691,59.857-15.158,80.484-43.766,95.433
			c-0.078-3.839-0.17-7.378-0.287-10.517c-3.523-16.831-26.76-29.885-49.223-42.507c-21.656-12.165-44.041-24.748-44.398-38.876
			l0.006-43.653c1.867,3.014,4.238,5.54,7.271,7.401c3.031,1.866,8.475,2.776,16.627,2.776c6.754,0,12.781-0.646,13.039-0.677
			l5.768-0.632l-4.816-3.241c-4.85-3.276-18.068-13.001-20.908-18.59c-6.338-12.477-6.734-23.587-1.049-39.449
			c0.875,3.547,1.385,7.27,1.875,10.915c1.439,10.586,2.926,21.525,13.525,27.436c4.881,2.722,10.139,5.239,15.539,5.239
			c7.109-0.006,13.072-4.424,17.725-13.143l2.537-4.764l-5.098,1.751c-2.08,0.715-4.082,1.074-5.953,1.074
			c-6.305,0-10.262-4.131-10.775-8.015c-2.775-20.996-1.355-46.273,0.15-73.038c2.279-40.688,4.641-82.758-6.518-118.931
			c-20.344-66.006-57.363-75.861-77.615-75.861c-5.006,0-8.865,0.612-11.051,1.069c-1.867-5.278-7.248-19.208-13.23-23.11
			c-4.137-2.697-8.535-4.063-13.078-4.063c-6.785,0-13.537,3.227-17.623,8.412c-8.314,10.562-11.23,18.279-11.748,22.474
			c-0.053,0-0.111,0-0.164,0l-10.566-0.039c-18.891,0-28.742,0.686-31.925,2.222c-4.802,2.308-8.043,11.571-9.239,15.542
			c-2.6-0.141-7.859-0.374-13.953-0.374c-33.345,0-35.984,6.663-36.849,8.859c-2.046,5.162-2.44,8.472-1.283,10.731
			c1.104,2.163,3.232,2.702,4.787,3.091c0.603,0.155,1.074,0.282,1.395,0.423c-4.068,10.634-6.727,31.61-3.781,38.055
			c1.628,3.563,6.342,4.029,10.27,4.029c3.203,0,7.071-0.35,11.183-0.72c4.875-0.438,10.411-0.938,15.825-0.938
			c6.677,0,12.087,0.758,16.529,2.317c3.558,1.254,7.212,4.137,8.933,7.559c-16.807-2.465-76.601-3.898-90.578-2.323
			c-6.007,0.67-17.326,5.234-17.151,17.739l0.03,2.352l2.342-0.271c5.011-0.594,8.082-2.362,10.794-3.932
			c2.406-1.386,4.676-2.703,8.282-3.193c20.816-2.838,60.348,1.171,77.227,2.887c1.735,0.175,3.135,0.312,4.262,0.423
			c-1.409,1.128-2.896,1.974-4.267,2.357c-5.458,1.525-14.668,2.396-25.282,2.396c-9.36,0-18.76-0.694-24.52-1.803l-2.639-0.511
			l0.112,2.688c0.782,19.042,2.347,31.805,4.928,40.174c1.448,4.69,9.37,6.216,15.236,6.702c-3.266,3.018-6.576,6.138-9.905,9.365
			l-116.569-95.155l38.725-39.8l15.314,13.011l17.497-17.487l-14.677-13.899l27.629-31.591l23.484,22.712l48.411-51.479
			l-0.71-61.972l-62.583-0.193l-49.865,49.864l23.728,22.959l-32.213,30.813l-13.866-13.107l-15.868,16.797l13.686,14.639
			l-40.052,41.301l-3.869-3.159l-0.807-0.408c-2.081-0.539-20.451-5.146-26.517,0.506c-3.942,3.654-5.336,12.548-5.798,16.972
			c-4.034-0.71-11.83-1.458-15.693,2.255c-4.169,4.02-2.255,13.948-0.996,18.765c-4.092,0.895-11.756,2.79-14.23,4.865
			c-3.582,3.018-3.242,12.097-3.052,14.804l0.18,2.498l1.39-0.336c1.74,1.474,4.462,3.675,8.165,6.392l-116.521,120.161
			l-15.431-14.658l-16.558,19.314l51.303,49.684l18.172-19.993l-16.811-16.807l115.821-119.059c0.539,0.734,1.079,1.376,1.594,1.891
			c2.031,2.036,3.587,3.724,4.865,5.113c6.843,7.401,7.538,7.45,25.39,8.689l11.231,0.797l-4.378-4.102
			c-4.506-4.214-7.635-6.993-9.924-9.03c-1.716-1.521-2.931-2.604-3.903-3.567c7.869,0.754,13.035,2.503,20.548,6.635
			c4.705,2.751,10.026,7.139,15.63,12.554c0.087,0.15,0.194,0.291,0.326,0.417c0.928,0.919,1.866,1.813,2.809,2.688
			c25.938,26.273,56.45,71.399,59.978,77.164c-2.021,3.489-3.985,7.075-5.88,10.75c-1.39,3.863-1.827,7.859-2.25,11.728
			c-0.563,5.182-1.098,10.079-3.742,14.867c-3.003,5.444-14.347,10.289-18.463,11.697l-7.106,2.431l7.325,1.652
			c0.52,0.116,12.768,2.858,20.985,2.858c3.169,0,5.317-0.39,6.761-1.24c7.83-4.568,10.828-13.248,14.983-25.252
			c0.885-2.552,1.828-5.279,2.887-8.18c3.704,12.724,6.775,23.143,15.066,31.586c-20.971,2.725-60.761,10.206-73.65,16.928
			c-3.149,1.632-3.577,4.951-3.985,8.164c-0.18,1.39-0.354,2.804-0.744,4.189c-1.517-0.423-3.091-0.943-4.675-1.457
			c-5.987-1.96-12.175-3.986-16.558-1.43c-6.498,4.302-10.372,8.963-13.478,12.709c-2.128,2.561-3.665,4.351-5.186,5.298
			l-0.136-0.175l-0.894,0.69c-0.413,0.15-0.841,0.243-1.283,0.272c-6.25-3.325-8.875-6.25-9.219-7.771
			c-0.083-0.369-0.029-0.627,0.194-0.919c20.413-26.424,22.974-55.055,7.028-78.568c-17.312-25.525-52.99-39.192-81.222-31.11
			c-27.265,7.811-55.968,30.449-37.86,94.01l1.891,6.629l2.167-6.536c21.783-65.632,37.836-64.066,52.013-62.651l1.064,0.072
			c16.899,4.612,27.484,12.277,31.45,22.789c7.149,18.931-7.592,44.752-19.295,62.525l-1.01,1.535l24.966,22.147
			c-3.756,2.542-11.333,7.917-18.167,14.26c-6.838,6.343-12.928,13.652-13.715,20.067c-1.031,8.461,12.077,22.546,13.579,24.126
			l0.661,0.472c4.7,2.123,9.531,3.746,14.196,5.312c3.888,1.308,7.699,2.591,11.407,4.122c0.005,0.004,0.009,0.004,0.014,0.009
			c0.505,0.269,0.992,0.477,1.463,0.622c5.613,2.45,10.998,5.575,16.096,10.377l4.753,4.485l-3.295-17.516h8.719
			c3.091,0.876,5.657,2.289,8.014,3.99c2.027,1.458,3.893,3.126,5.813,4.841c1.453,1.298,2.911,2.586,4.437,3.811l3.441,2.726
			l0.005-4.393c0.005-1.226,0.505-10.348,2.042-17.063c0.529-2.324,1.186-4.36,1.983-5.682c1.399-2.304,4.277-4.607,7.052-6.838
			c3.256-2.609,6.624-5.308,8.388-8.506c1.959-3.548,1.916-8.165,1.881-12.636c-0.039-4.175-0.073-8.491,1.643-11.062
			c3.479-5.23,17.564-11.586,22.789-13.628c3.402-0.359,32.776-0.024,65.067,0.414c15.965,60.464,57.831,71.803,128.934,71.122
			c4.555,4.354,8.705,9.86,9.025,12.694c-125.07,6.678-129.609,8.296-163.858,20.51c-4.048,1.443-8.524,3.043-13.671,4.812
			c-2.333,0.807-4.948,1.239-7.718,1.691c-7.281,1.194-15.528,2.546-21.701,11.371c-7.99,11.422,1.065,26.944,1.454,27.596
			l17.681,11.052c0.102,0.307,0.229,0.7,0.379,1.167c3.12,9.477,16.952,50.272,28.825,66.16c5.72,7.649,15.645,13.38,25.248,18.915
			c12.16,7.013,24.728,14.266,28.713,25.263c-2.085,15.021-17.404,30.809-30.147,39.956c-7.013,1.554-13.992,2.035-20.738,2.507
			c-8.898,0.613-18.104,1.249-27.347,4.354c-2.207,0.76-6.503-1.627-10.309-3.701c-4.252-2.319-8.646-4.72-12.719-4.837
			c-0.083-0.005-0.165-0.005-0.257-0.005c-6.357,0-17.934,6.439-19.246,7.179l-0.709,0.642
			c-14.678,21.213-22.58,38.662-19.523,65.076l0.452,3.912l3.023-2.526c3.572-2.989,5.91-6.745,7.976-10.065
			c2.561-4.111,4.578-7.349,7.854-7.864c0.928-0.029,2.712,0.861,4.632,2.148c1.468,0.986,3.013,2.207,4.311,3.432l5.686,3.076
			l5.647,3.052c1.599,3.393,9.195,18.857,21.428,34.279l3.349,4.218l0.433-5.364c1.478-18.158,2.012-20.282,3.781-27.311
			l0.389-1.534c1.083-0.093,2.138-0.2,3.164-0.302c4.957-0.496,9.229-0.929,12.86,0.32c3.076,1.055,6.099,4.258,9.03,7.344
			c2.785,2.955,5.652,5.982,8.952,7.698l0.034,0.224l0.306-0.053c0.827,0.403,1.677,0.723,2.561,0.938
			c8.452,2.08,20.111-5.589,25.661-10.43c5.074-4.428,6.79-11.154,8.297-17.079c0.981-3.863,1.915-7.514,3.601-10.229
			c14.633-23.475,59.284-71.074,65.052-77.203c4.623-0.093,22.125-0.904,27.563-7.675c3.33-4.146,3.65-11.96,1.861-16.656
			c-4.234-11.158-16.359-18.342-28.092-25.291c-6.877-4.078-13.375-7.927-17.604-12.237c-1.166-1.191-2.158-1.789-2.872-2.227
			c-0.238-0.15-0.535-0.325-0.563-0.325c-0.369-0.987,0.762-6.274,2.828-15.878l0.238-1.099
			c13.977-10.449,55.531-27.834,59.91-26.949c5.459,3.032,9.404,11.148,13.969,20.549c7.988,16.427,18.924,38.933,46.268,50.962
			c1.537,0.677,1.57,2.173,0.895,6.998c-0.82,5.881-1.955,13.935,5.035,21.492l0.719,0.51c10.279,4.428,21.307,3.83,31.051,3.334
			c7.814-0.423,15.193-0.811,20.771,1.113c8.045,5.098,18.109,8.287,27.844,11.368c9.172,2.9,17.852,5.646,23.68,9.667l0.611,1.564
			c6.518,16.695,14.625,37.481,9.182,56.14c-0.607,0.315-3.109-0.248-4.602-0.594c-3.32-0.753-7.088-1.613-9.449,0.491
			c-2.264,2.003-2.035,5.312-1.842,8.238c0.127,1.759,0.287,4.165-0.414,4.753c-2.002,1.695-6.113,0.103-10.084-1.434
			c-4.871-1.876-9.91-3.82-13.633-0.909c-2.133,1.682-1.9,5.316-1.598,8.642c-11.34-8.272-30.639-16.7-33.895-15.183l-0.186,0.102
			c-22.322,4.175-33.656,16.203-35.645,38.167l2.305,31.424l2.051,0.293l2.055,0.295c3.748-10.069,9.035-19.299,10.818-19.605
			c1.344,1.565,2.305,3.563,3.32,5.672c2.805,5.822,6.246,12.972,19.432,10.644l24.191,36.115l-0.65-8.126
			c-0.395-4.895-0.85-18.691,1.75-23.698c2.1-4.043,13.793-10.497,18.361-9.852c3.912,0.472,4.686,3.777,5.826,10.057
			c0.914,5.063,2.037,11.25,6.279,16.363c-0.01,0.067-0.023,0.127-0.033,0.185l-2.246,3.019l5.518,0.043l0.461-0.914
			c0.15-0.16,0.301-0.32,0.453-0.48c3.639-2.157,7.648-3.314,11.527-4.441c5.633-1.629,10.945-3.165,14.27-7.533
			c1.443-1.892,2.008-4.638,2.604-7.549c0.551-2.706,1.246-6.08,2.602-6.779c3.383-1.754,6.684-1.211,10.838-0.525
			c5.877,0.982,13.176,2.178,22.711-3.513l0.783-0.467l0.203-0.89c3.232-14.255,1.672-30.555,0.02-47.822
			c-1.146-11.946-2.322-24.296-2.123-37.166c0.199-12.65,0.734-24.961,1.244-36.859c1.492-34.726,2.58-59.813-5.107-67.492
			c-1.4-1.399-3.057-2.206-4.93-2.405c-0.326-0.379-0.748-0.739-1.258-1.05c-7.559-4.719-41.107-4.262-52.393-1.91
			c-14.984-14.653-19.547-29.899-20.117-31.975c0.061-3.732,0.629-41.919,0.676-78.428c89.018-23.804,84.869-110.411,79.584-144.223
			c6.736,3.388,15.174,6.916,25.721,10.43c1.025,0.34,2.076,0.685,3.141,1.025l6.084,1.953l-3.707-5.204
			c-10.387-14.586-17.391-32.685-19.223-49.665c-0.307-2.863-0.564-5.765-0.813-8.651c-1.408-16.028-2.867-32.612-13.689-40.46
			c-8.992-6.523-22.576-2.664-28.977-0.243c-3.5-9.045-17.613-50.482,1.92-84.42c2.09-3.592,4.311-6.989,6.633-10.144
			c13.736,17.341,30.746,38.414,50.584,40.242C1405.871,1594.405,1415.029,1590.984,1423.693,1583.412z"/>
	</g>
	<g id="Корона">
		<g id="XMLID_1_">
			<path fill="#FED700" d="M1174.427,985.415l-8.049,39.975c-11.273-3.018-22.549-5.579-33.766-7.664l5.758-40.776L1174.427,985.415
				z"/>
			<path fill="#FED700" d="M1212.974,994.464l-11.018,41.957c-10.25-3.62-20.555-6.872-30.877-9.749l8.082-40.149L1212.974,994.464z
				"/>
			<polygon fill="#FED700" points="1231.636,923.429 1214.212,989.76 1139.058,972.113 1148.384,906.093 1162.919,907.964 
				1159.951,931.584 1179.683,934.753 1184.406,912.46 1196.99,914.836 1192.158,936.999 1210.47,941.538 1216.55,919.721 			"/>
			<polygon fill="#FED700" points="1347.91,976.784 1317.875,1039.571 1252.146,1004.894 1277.71,942.918 1289.316,947.588 
				1279.539,970.11 1296.304,978.085 1307.226,956.677 1316.523,961.285 1306.041,982.985 1324.726,992.797 1336.041,971.326 			"/>
			<path fill="#FED700" d="M1282.58,1026.444l-18.695,36.767c-8.646-4.481-18.688-9.336-29.93-14.211l16.33-39.595L1282.58,1026.444
				z"/>
			<path fill="#FED700" d="M1286.882,1028.713l28.891,15.246l-18.438,38.551c-4.326-2.844-14.414-9.229-29.141-17.05
				L1286.882,1028.713z"/>
			<path fill="#FED700" d="M1265.011,1150.084l-22.008,46.006c-4.252-1.978-14.414-6.552-28.658-12.028l21.092-50.347
				C1250.63,1141.336,1261.041,1147.611,1265.011,1150.084z"/>
			<path fill="#FED700" d="M1231.078,1131.563l-21.277,50.778c-6.861-2.576-14.535-5.293-22.842-8.005
				c-11.52-3.757-25.152-7.776-40.135-11.382l15.381-58.438c16.199,4.869,30.707,10.269,42.887,15.323
				C1214.689,1123.821,1223.408,1127.821,1231.078,1131.563z"/>
			<path fill="#FED700" d="M1295.222,1086.932l-28.102,58.739c-6.969-4.315-29-17.379-60.057-30.278
				c-4.547-1.886-9.414-3.824-14.57-5.759l19.951-64.168c5.842,2.235,11.664,4.598,17.395,7.052l0.783,0.335
				C1265.488,1067.842,1288.917,1082.758,1295.222,1086.932z"/>
			<path fill="#FED700" d="M1207.89,1043.746l-19.965,64.202c-21.691-7.897-48.021-15.625-76.814-20.169l8.992-67.273
				c3.119,0.49,6.24,1.02,9.346,1.579l0.408,0.072l0.131,0.025c24.014,4.368,48.334,10.935,72.289,19.513l0.209,0.073l0.32,0.116
				C1204.5,1042.492,1206.195,1043.114,1207.89,1043.746z"/>
			<path fill="#FED700" d="M1157.539,1103.151l-15.449,58.695c-24.898-5.726-53.17-10.138-81.479-10.299v-63.025
				C1095.583,1088.542,1128.996,1094.922,1157.539,1103.151z"/>
			<path fill="#FED700" d="M1105.867,974.815l-1.711,38.6c-14.586-1.712-29.213-2.615-43.546-2.708v-35.892H1105.867
				L1105.867,974.815z"/>
			<path fill="#FED700" d="M1055.75,974.815v35.892c-13.608,0.098-27.664,1.007-41.845,2.712l-1.711-38.604H1055.75z"/>
			<polygon fill="#FED700" points="1109.085,902.098 1106.082,969.955 1011.979,969.955 1008.976,902.098 1024.752,902.098 
				1025.549,922.583 1046.272,921.957 1046.938,902.098 1071.122,902.098 1071.788,921.957 1092.515,922.583 1093.308,902.098 			
				"/>
			<polygon fill="#FED700" points="969.678,906.093 979.417,975.014 904.29,991.199 886.424,923.429 901.51,919.721 907.59,941.538 
				925.903,936.999 921.071,914.836 933.655,912.46 938.383,934.753 958.11,931.584 955.141,907.964 			"/>
			<path fill="#FED700" d="M937.941,988.919l9.638,38.025c-10.376,2.94-20.806,6.279-31.231,9.992l-10.813-41.029L937.941,988.919z"
				/>
			<path fill="#FED700" d="M980.098,979.835l5.375,38.055c-10.969,2.114-22.061,4.7-33.214,7.747l-9.564-37.738L980.098,979.835z"/>
			<path fill="#FED700" d="M1115.3,1019.776l-8.996,67.278c-14.779-2.129-30.163-3.393-45.859-3.393
				c-16.729,0-33.584,1.57-49.978,4.151l-10.722-67.498c4.098-0.656,8.155-1.239,12.156-1.749
				c15.712-1.998,31.285-3.009,46.278-3.009c15.427,0,31.23,0.963,46.972,2.862l1.021,0.127
				C1109.203,1018.92,1112.25,1019.329,1115.3,1019.776z"/>
			<path fill="#FED700" d="M994.955,1021.102l10.716,67.492c-27.527,4.676-53.573,12.059-75.288,19.412l-21.438-63.172
				c2.187-0.826,4.375-1.638,6.556-2.43l0.209-0.073c24.446-8.846,48.94-15.601,72.804-20.072v-0.005l0.136-0.024
				C990.755,1021.836,992.855,1021.462,994.955,1021.102z"/>
			<path fill="#FED700" d="M1055.75,1088.566v62.991c-29.963,0.243-57.208,3.82-80.552,8.651l-15.343-56.241
				C988.982,1095.802,1022.54,1089.144,1055.75,1088.566z"/>
			<path fill="#FED700" d="M882.4,1131.903l21.385,49.942c-14.843,6.08-24.767,11.3-29.01,13.652l-23.357-48.829
				C855.742,1144.403,866.76,1138.78,882.4,1131.903z"/>
			<path fill="#FED700" d="M955.18,1105.299l15.26,55.92c-18.104,3.956-33.7,8.617-46.19,12.923
				c-5.764,1.988-11.085,3.971-15.95,5.891l-21.438-50.073c8.705-3.747,18.648-7.791,29.515-11.825
				C927.745,1113.917,940.876,1109.45,955.18,1105.299z"/>
			<polygon fill="#FED700" points="840.346,942.918 866.061,1005.725 799.875,1038.919 770.151,976.784 782.02,971.326 
				793.333,992.797 812.025,982.985 801.537,961.285 810.84,956.677 821.756,978.085 838.528,970.11 828.744,947.588 			"/>
			<path fill="#FED700" d="M867.907,1010.236l16.155,39.449c-11.275,4.894-21.409,9.754-30.143,14.211l-18.332-37.452
				L867.907,1010.236z"/>
			<path fill="#FED700" d="M831.242,1028.622l18.357,37.51c-14.478,7.567-24.539,13.706-28.85,16.427l-18.779-39.255
				L831.242,1028.622z"/>
			<path fill="#FED700" d="M904.406,1046.579l21.38,63.002c-3.859,1.347-7.563,2.683-11.101,3.995
				c-33.296,12.354-57.996,24.854-65.363,28.714l-26.463-55.318c4.243-2.692,15.956-9.899,33.204-18.711
				c8.733-4.462,18.887-9.336,30.206-14.24c0.632-0.272,1.264-0.544,1.9-0.816C893.534,1050.91,898.968,1048.694,904.406,1046.579z"
				/>
		</g>
	</g>
	<g id="Лев">
		<path fill="#FFD700" d="M1433.966,1522.452c0.861,1.633,17.225,34.525-12.965,57.675c-7.967,6.949-15.83,9.978-23.971,9.219
			c-18.348-1.682-34.949-22.623-48.299-39.478c0.072-0.084,0.135-0.166,0.209-0.254l-1.152-0.933
			c-0.131-0.165-0.264-0.325-0.395-0.491c-8.01-10.007-17.18-19.78-29.631-24.616l-0.604-0.136
			c-18.236-1.526-28.465,5.521-33.438,10.683c0.287-8.787,2.891-24.938,17.676-29.861c24.193-8.063,38.326-0.544,49.035,11.854
			c5.225,6.046,9.631,13.253,13.99,20.383c9.234,15.091,17.973,29.282,33.574,27.479c6.912-0.816,12.281-4.491,14.74-10.095
			c2.898-6.58,1.381-15.008-4.043-22.531l-0.604-0.56c-14.006-8.68-27.861-8.762-42.33-0.243
			c-3.957-6.381-8.293-12.985-13.537-18.647c27.262-13.778,62.107-17.89,81.719,10.522L1433.966,1522.452z"/>
		<path fill="#FFD700" d="M1364.253,1736.217c5.236,30.051,12.516,118.193-74.863,142.318c0-11.975-0.059-23.61-0.215-33.606
			c30.1-15.45,60.549-37.904,47.061-105.145c-0.004-0.033-0.014-0.072-0.02-0.106c4.438-7.393,7.115-14.526,8.598-19.289
			C1347.556,1724.36,1353.085,1729.977,1364.253,1736.217z"/>
		<path fill="#FFD700" d="M1360.423,1686.096c1.172-0.248,2.281,0.456,2.543,1.594c4.184,18.172,10.195,38.497,28.299,53.208
			c-7.844-13.418-12.912-28.446-14.502-43.191c-0.314-2.887-0.568-5.813-0.826-8.729c-1.389-15.78-2.701-30.682-11.951-37.397
			c-9.787-7.097-27.994,1.555-28.182,1.643l-0.098-0.199l-33.949,12.344l0.195,0.132c-0.078,0.121-8.229,12.345-9.049,19.305
			c-0.473,3.938,0.834,6.396,3.693,11.786c3.139,5.929,7.896,14.886,13.555,32.11c2.6,7.902,2.051,16.314,1.41,26.055
			c-0.129,1.832-0.244,3.722-0.361,5.677c0.773-0.695,1.555-1.395,2.357-2.115c6.148-5.491,13.113-11.731,17.424-18.298
			c0.254-0.388,0.506-0.772,0.744-1.161c0.582-0.923,1.137-1.848,1.656-2.761c0.578-1.016,1.123-2.021,1.633-3.014
			c4.764-9.229,6.736-17.35,7.107-19.007l-0.035-1.205l5.035-2.066l-0.715,3.543c0.268,1.045,2.498,7.698,16.762,16.351
			c0.787,0.48,1.615,0.962,2.479,1.458c0.779,0.437,1.586,0.879,2.426,1.331c4.627,2.469,10.23,5.064,17.025,7.704
			c-16.434-15.175-22.197-34.853-26.27-52.548C1358.562,1687.5,1359.277,1686.358,1360.423,1686.096z"/>
		<path fill="#FFD700" d="M1324.337,1531.714l4.578,3.306c5.373,4.286,10.066,9.516,14.406,14.876
			c-2.668,3.538-5.209,7.378-7.576,11.455c-20.617,35.834-6.172,78.039-2.275,87.964l-31.201,11.349
			c-1.76-14.45-8.627-86.589,23.051-128.171l-1.283-0.973C1324.14,1531.583,1324.242,1531.651,1324.337,1531.714z"/>
		<path fill="#FFD700" d="M1321.865,2177.267c4.121,11.707-3.543,24.018-13.104,35.07c1.07-8.583,2.262-22.765,1.615-33.973
			c-0.039-0.563,0.357-1.817,1.324-2.843c0.963-1.016,2.178-1.536,3.734-1.536c0.01,0,0.01,0,0.01,0
			C1317.306,2174.03,1320.197,2175.896,1321.865,2177.267z"/>
		<path fill="#FFD700" d="M1270.458,2197.839c-0.414,0.521-0.758,1.031-1.016,1.53c-2.211,4.268-2.609,12.306-2.541,18.353
			l-14.746-22.006c0.529-1.061,1.025-2.197,1.541-3.374c1.865-4.253,3.791-8.646,7.203-9.321c3.6,1.031,5.656,7.762,7.174,12.714
			c0.285,0.919,0.549,1.804,0.814,2.62L1270.458,2197.839z"/>
		<path fill="#FFD700" d="M1223.953,2142.897c11.617,11.153,9.865,24.752,5.867,37.023c-0.492-0.747-1.041-1.492-1.688-2.23
			c-1.123-0.908-2.498-1.195-3.863-0.821c-3.766,1.025-7.664,7.737-10.443,13.701l-1.648-22.221
			C1213.226,2156.953,1216.998,2148.627,1223.953,2142.897z"/>
		<path fill="#FFD700" d="M1100.603,1722.045c-8.975-10.614-10.332-27.488-9.66-40.854c0.184-3.708,0.523-7.145,0.902-10.104
			c-5.244,4.661-9.316,10.645-13.582,16.904c-2.772,4.062-5.639,8.267-8.958,12.276c-4.171,5.035-9.056,9.769-15.382,13.559
			c-8.676,5.2-20.048,8.627-35.984,8.627c0,0,0,0-0.005,0c-3.197,0-6.581-0.136-10.06-0.413l-7.213-0.568l6.377-3.422
			c24.476-13.132,39.197-28.311,43.765-45.111c3.738-13.778,0.734-29.103-8.942-45.568c-15.897,6.59-30.789,14.206-34.569,24.942
			c-1.696,4.811-1.035,9.924,2.021,15.63c8.554,6.183,18.784,2.207,30.754-11.518l3.057-3.505l0.646,4.606
			c0.875,6.246-3.397,19.241-10.935,27.912c-4.729,5.438-9.949,8.127-15.105,7.685c-17.963-0.39-24.98-15.99-31.765-31.081
			c-1.677-3.742-3.397-7.557-5.293-11.217c0.01,0.68,0.02,1.366,0.029,2.041c0.218,17.9,0.408,33.354,15.44,52.417l5.079,6.444
			l-7.567-3.169c-5.745-2.401-10.337-5.06-14.075-7.98c-20.004,2.288-63.196,10.308-75.909,16.938
			c-1.123,0.582-1.375,2.176-1.73,4.937c-0.272,2.149-0.588,4.584-1.643,7.028l-0.7,1.618l-1.721-0.384
			c-2.177-0.496-4.525-1.259-6.892-2.036c-4.85-1.59-10.371-3.383-12.996-1.853c-5.871,3.889-9.516,8.282-12.451,11.815
			c-2.62,3.159-4.797,5.939-7.708,7.081l-24.252,18.653l0.355,0.315l-2.372,1.512c-4.092,2.609-11.382,7.766-18.007,13.628
			l0.17,0.053c-2.25,7.086-2.211,12.904,0.093,17.287c2.114,4.034,6.245,7.058,12.271,8.997c2.318-0.963,5.02-1.4,7.547-1.162
			c2.299,0.204,4.302,0.942,5.837,2.118c-1.453-26.269,12.457-31.061,22.838-34.639c1.312-0.451,2.595-0.89,3.815-1.355
			c1.083-0.428,2.323,0.122,2.746,1.215c0.423,1.094-0.122,2.323-1.215,2.742c-1.269,0.495-2.6,0.952-3.956,1.419
			c-11.456,3.941-23.294,8.019-19.353,36.868c2.046,3.102,4.141,6.567,5.837,9.37c0.768,1.264,1.604,2.645,2.163,3.523l11.14,0.054
			c0.778,0.209,1.531,0.447,2.25,0.714c-2.303-4.539-7.786-16.767-3.723-23.352c2.999-4.846,6.279-7.301,9.769-7.301h0.087
			c2.153,0.029,5.307,1.055,8.092,5.803c2.498,4.242,4.073,9.502,5.05,13.934c1.822-2.774,4.846-5.2,7.767-7.547
			c2.931-2.348,5.968-4.778,7.324-7.241c1.424-2.577,1.385-6.63,1.351-10.547c-0.039-4.816-0.083-9.803,2.362-13.462
			c4.865-7.3,22.804-14.459,24.84-15.252l0.01,0.039c2.289-0.651,12.208-0.621,70.306,0.16c4.01,0.054,8.252,0.111,12.738,0.175
			c26.793,0.364,54.35,0.748,74.573,0.88c4.184,0.025,8.053,0.044,11.537,0.049c0.012,0,0.012,0,0.012,0
			c2.895,0,6.479-4.637,9.578-12.398c0.434-1.359,1.172-9.395,2.104-22.025C1106.101,1727.333,1103.126,1725.031,1100.603,1722.045z
			 M849.57,1766.987c-10.007,2.751-14.614,10.941-19.605,21.355c-0.359,0.759-1.127,1.2-1.915,1.2c-0.306,0-0.623-0.063-0.919-0.203
			c-1.055-0.506-1.507-1.774-0.996-2.834c4.291-8.973,9.637-20.135,22.308-23.62c1.152-0.307,2.304,0.354,2.615,1.487
			C851.368,1765.504,850.702,1766.671,849.57,1766.987z M964.686,1740.674c-11.417-0.763-23.216-1.575-34.502,0.788
			c-1.715,0.238-5.958,3.572-9,6.536c-0.408,0.403-0.948,0.597-1.482,0.597c-0.554,0-1.104-0.212-1.526-0.641
			c-0.816-0.836-0.797-2.182,0.044-3.004c1.711-1.671,7.602-7.183,11.247-7.674c11.708-2.459,23.81-1.633,35.507-0.846
			c12.107,0.827,23.523,1.594,34.838-0.933c3.271-1.025,9.506-6.119,11.62-7.985c0.88-0.788,2.221-0.704,2.999,0.18
			c0.783,0.88,0.7,2.221-0.18,2.998c-0.846,0.754-8.422,7.373-13.346,8.909C988.826,1742.308,976.559,1741.472,964.686,1740.674z"/>
		<path fill="#FFD700" d="M960.832,1502.321c22.386-2.542,82.583,1.283,91.132,2.376c-0.068,1.745-0.885,3.65-2.104,5.42
			c-1.108-0.146-4.077-0.316-7.542-0.666c-17.035-1.735-56.917-5.778-78.233-2.868c-4.438,0.604-7.183,2.192-9.836,3.724
			c-1.998,1.156-3.913,2.265-6.605,2.931C949.27,1503.725,960.706,1502.335,960.832,1502.321z"/>
		<polygon fill="#FFD700" points="1034.715,1304.043 1035.357,1360.119 991.072,1407.213 970.577,1387.389 993.808,1345.932 
			953.211,1369.456 932.522,1349.432 978.085,1303.869 		"/>
		<path fill="#FFD700" d="M1005.7,2127.976c3.228,7.231-6.765,23.032-11.873,29.603c-1.122-9.415-2.386-25.467-0.029-31.236
			c0.666-1.638,2.06-2.47,4.15-2.47C1001.336,2123.875,1004.835,2126.037,1005.7,2127.976z"/>
		<polygon fill="#FFD700" points="982.523,1357.388 967.243,1384.638 934.219,1422.416 948.677,1436.122 937.042,1447.751 
			921.694,1434.703 879.936,1477.622 865.19,1465.579 907.804,1421.638 894.084,1406.951 904.28,1396.157 918.005,1409.109 
			956.055,1372.721 		"/>
		<path fill="#FFD700" d="M1251.267,1684.968c-8.725,0-14.23-6.025-14.984-11.703c-2.828-21.385-1.398-46.856,0.111-73.83
			c2.26-40.314,4.604-81.999-6.322-117.439c-19.547-63.396-54.482-72.862-73.563-72.862c-7.135,0-11.775,1.355-11.824,1.37
			l-1.979,0.594l-0.646-1.964c-1.725-5.249-7.275-19.553-12.154-22.735c-3.434-2.235-7.047-3.368-10.756-3.368
			c-6.586,0-11.699,3.509-14.279,6.794c-9.816,12.461-11.158,19.989-10.979,21.326l-1.648,0.374l1.648,1.249l-0.613,1.074
			l-2.521,0.121l-0.039-0.063c-0.32,0.005-0.689,0.005-1.104,0.005l-10.566-0.034c-21.772,0-28.378,0.977-30.083,1.793
			c-2.897,1.396-6.104,9.308-7.451,14.474l-0.442,1.711l-1.764-0.121c-0.063-0.006-6.887-0.467-15.377-0.467
			c-22.458,0-31.717,3.184-32.903,6.172c-2.026,5.123-1.691,6.766-1.448,7.232c0.213,0.413,0.918,0.622,2.051,0.908
			c1.613,0.413,3.83,0.972,4.782,3.354l0.326,0.816l-0.35,0.807c-4.116,9.624-6.663,30.731-4.326,35.854
			c0.263,0.573,1.449,1.541,6.406,1.541c3.004,0,6.794-0.346,10.794-0.7c4.977-0.452,10.604-0.953,16.213-0.953
			c7.168,0,13.035,0.837,17.943,2.562c5.317,1.866,10.93,6.697,12.413,12.578c0.253,0.962,0.384,1.959,0.384,2.97
			c0.015,3.344-1.682,6.853-4.116,9.769c-2.586,3.086-5.998,5.512-9.079,6.377c-7.956,2.221-19.975,2.556-26.424,2.556
			c-8.311,0-16.689-0.539-22.687-1.438c0.797,17.225,2.274,28.859,4.631,36.48c0.72,2.347,9.041,3.927,16.35,3.927h0.17
			c0.32-0.127,0.68-0.175,1.054-0.131c0.36,0.048,0.714,0.092,1.074,0.131h3.183l-0.282,0.262
			c22.041,1.483,45.272-8.515,60.158-26.137c11.98-14.183,16-30.361,11.311-45.559c-0.346-1.128,0.285-2.313,1.404-2.664
			c1.146-0.306,2.313,0.287,2.662,1.405c5.045,16.393,0.627,34.458-12.131,49.559c-14.715,17.423-37.169,27.785-59.113,27.785
			c-2.843,0-5.672-0.176-8.476-0.53c-15.145,13.832-31.455,29.778-46.419,48.858c-7.134,9.108-13.963,18.926-20.208,29.564
			c-2.241,3.806-4.399,7.718-6.474,11.742c-1.118,3.145-1.501,6.721-1.915,10.502c-0.588,5.37-1.195,10.926-4.248,16.457
			c-2.596,4.709-9.107,8.523-14.167,10.92c4.083,0.7,9.219,1.419,13.185,1.419c3.155,0,4.277-0.456,4.617-0.656
			c6.469-3.78,9.113-11.421,13.108-22.982c1.477-4.253,3.12-8.991,5.19-14.236l2.25-5.7l3.455,11.665
			c3.996,13.724,6.892,23.687,15.533,31.541c0.54,0.49,1.099,0.972,1.687,1.443c0.578,0.472,1.181,0.929,1.808,1.386
			c0.481-1.215,0.521-2.849,0.175-4.967c-2.765-5.788-4.417-11.368-5.418-16.859c-1.424-7.845-1.521-15.514-1.619-23.372
			c-0.039-3.358-0.083-6.766-0.229-10.251l-0.325-7.654l4.218,6.396c3.878,5.876,6.853,12.486,9.729,18.887
			c6.81,15.154,12.7,28.247,28.111,28.588c0.369,0.019,0.612,0.033,0.851,0.033c0,0,0,0,0.005,0c4.442,0,8.334-3.412,10.823-6.274
			c4.709-5.419,8.204-13.161,9.482-18.988c-12.131,12.004-23.436,14.435-32.733,7.412l-0.573-0.671
			c-3.806-6.896-4.661-13.453-2.527-19.494c4.476-12.699,21.224-21.04,38.657-28.159l1.677-0.686l0.942,1.545
			c11.047,18.095,14.527,35.066,10.348,50.454c-4.462,16.412-17.715,31.235-39.45,44.125c0.841,0.018,1.667,0.028,2.479,0.028h0.005
			c34.58-0.005,45.878-16.582,56.81-32.61c5.546-8.142,10.789-15.825,18.785-21.205l4.102-2.75l-0.82,4.873
			c-0.391,2.309-0.943,6.086-1.322,10.659c-1.037,12.65-0.701,31.416,8.357,42.127c1.746,2.065,3.738,3.747,5.994,5.045
			c0.66,0.379,1.34,0.725,2.049,1.035c0.662,0.297,1.344,0.559,2.049,0.798c3.867,1.292,8.35,1.695,13.455,1.19
			c11.996-3.013,15.098-18.521,15.902-26.425c-7.475,5.678-13.801,8.555-18.852,8.555c-4.141,0-7.26-1.944-8.971-5.4
			c-0.855-1.711-1.361-3.785-1.479-6.182c-0.043-0.846-0.033-1.721,0.016-2.619c0.209-3.573,1.156-7.514,2.77-11.49
			c5.467-13.473,18.609-27.41,36.844-29.204l2.461-0.232l-0.133,2.463c-0.014,0.369-1.9,36.5,2.09,58.851
			c3.52,7.087,7.768,10.834,12.301,10.834c4.18,0,8.633-3.377,11.627-8.807c2.648-4.815,4.494-12.145,2.293-18.804
			c-0.236,0.56-0.467,1.113-0.699,1.657c-2.863,6.78-5.564,13.186-11.645,13.186c-2.494,0-5.234-1.156-8.379-3.543l-0.602-0.714
			c-4.162-8.029-0.064-16.088,5.617-27.241c4.947-9.734,11.732-23.066,16.053-42.074l1.234-5.434l2.699,4.88
			c1.15,2.08,1.895,4.782,2.398,7.956c0.783,4.874,0.992,10.853,1.221,17.365c0.189,5.326,0.385,10.872,0.9,16.193
			c0.428,4.398,1.074,8.646,2.123,12.49c1.754,6.47,4.641,11.796,9.496,14.779c1.303,0.797,4.904,2.139,14.402,2.139
			c2.43,0,4.791-0.088,6.797-0.204c-5.729-4.224-14.822-11.489-17.506-16.763c-7.592-14.939-7.324-28.543,0.957-48.508l1.951-4.71
			l1.973,4.694c2.332,5.57,3.154,11.635,3.951,17.502c1.414,10.42,2.639,19.421,11.381,24.291c4.078,2.278,8.822,4.704,13.469,4.704
			c4.316,0,8.063-2.206,11.373-6.706C1252.701,1684.935,1251.976,1684.968,1251.267,1684.968z M1069.956,1519.978
			c-0.569,3.484-6.26,5.807-8.685,6.648c-0.233,0.077-0.462,0.116-0.695,0.116c-0.875,0-1.701-0.549-2.008-1.434
			c-0.379-1.108,0.204-2.313,1.313-2.702c2.712-0.938,5.574-2.576,5.896-3.378c1.399-8.588,2.017-21.229,0.029-28.553
			c-0.39-1.438-3.655-4.486-6.464-6.493c-0.953-0.681-1.176-2.008-0.496-2.965c0.68-0.947,2.016-1.171,2.965-0.496
			c1.181,0.846,7.12,5.234,8.097,8.841C1072.381,1498.68,1071.099,1512.969,1069.956,1519.978z M1075.02,1438.678
			c-4.689,2.765-7.927,4.977-10.521,6.755c-4.617,3.154-7.159,4.895-11.183,4.895c-0.598,0-1.229-0.044-1.906-0.122
			c-2.08-0.247-3.854-1.847-4.879-4.384c-1.361-3.373-1.361-8.49,1.278-11.727l0.433-0.53l0.651-0.185
			c3.592-0.973,6.765-0.676,14.06,0.16c2.926,0.34,6.547,0.753,11.184,1.187l6.542,0.611L1075.02,1438.678z M1107.525,1404.418
			c0.121-1.161,1.064-2.09,2.338-1.886c20.557,2.197,21.146,15.611,21.826,31.153c0.053,1.172-0.855,2.163-2.027,2.217h-0.092
			c-1.133,0-2.076-0.89-2.123-2.026c-0.754-17.094-1.832-25.39-18.037-27.12C1108.244,1406.63,1107.404,1405.59,1107.525,1404.418z
			 M1119.388,1640.814c-0.719,0.593-1.465,1.172-2.236,1.735c-0.719,0.529-1.459,1.045-2.221,1.545
			c-7.145,4.71-16.277,8.346-27.908,10.338c-5.186,2.731-10.924,5.259-17.222,7.572c-1.176,0.802-1.944,1.293-2.1,1.39
			c-0.351,0.224-0.744,0.33-1.138,0.33c-0.699,0-1.385-0.34-1.788-0.981c-0.638-0.991-0.341-2.299,0.651-2.93
			c0.014-0.011,0.116-0.073,0.291-0.19c0.229-0.496,0.651-0.903,1.211-1.107c0.311-0.112,0.621-0.225,0.928-0.331
			c5.599-3.878,19.133-13.924,21.608-22.128c1.803-5.992-7.193-18.002-13.769-26.779l-0.802-1.064
			c-5.832-7.806-5.501-13.127-5.234-17.404c0.117-1.866,0.22-3.479-0.257-5.001c-0.341-1.127,0.286-2.313,1.409-2.663
			c1.156-0.306,2.309,0.287,2.658,1.404c0.694,2.27,0.563,4.438,0.433,6.522c-0.248,3.956-0.5,8.049,4.394,14.59l0.801,1.074
			c7.902,10.547,16.859,22.498,14.436,30.551c-1.479,4.908-6.008,10.129-10.873,14.604c0.584-0.286,1.158-0.578,1.727-0.875
			c0.311-0.335,0.729-0.578,1.215-0.656c0.014-0.005,0.033-0.005,0.049-0.01c14.594-7.796,24.35-17.273,29.088-28.281
			c0.713-1.657,1.297-3.31,1.768-4.957c0.852-2.965,1.328-5.905,1.521-8.772c0.244-3.553,0.045-6.999-0.436-10.265
			c-1.279-8.879-4.604-16.422-6.693-21.166l-0.754-1.734c-0.461-1.084,0.039-2.333,1.119-2.79c1.078-0.467,2.322,0.034,2.785,1.113
			l0.742,1.696c0.986,2.24,2.318,5.263,3.588,8.879c0.631,1.793,1.248,3.732,1.797,5.793c0.695,2.586,1.287,5.366,1.672,8.282
			c0.813,6.075,0.738,12.753-1.117,19.586c-0.539,1.998-1.23,4.005-2.096,6.017c-0.146,0.336-0.291,0.671-0.447,1.002
			c-0.705,1.54-1.502,3.047-2.387,4.529c-3.908,6.536-9.559,12.49-16.912,17.832c6.518-2.207,11.91-5.084,16.363-8.442
			c0.771-0.583,1.518-1.181,2.23-1.794c0.787-0.665,1.535-1.351,2.256-2.051c20.242-19.673,15.547-51.133,13.418-65.378
			c-0.986-6.609-1.359-9.088,1.25-9.657c1.16-0.281,2.273,0.481,2.531,1.619c0.131,0.583,0.006,1.161-0.295,1.623
			c0,0.996,0.369,3.426,0.719,5.793C1139.494,1583.129,1144.976,1619.833,1119.388,1640.814z M1165.195,1610.297
			c-0.379,0.72-1.119,1.123-1.877,1.123c-0.336,0-0.68-0.078-1.002-0.253c-1.035-0.549-1.424-1.837-0.869-2.872
			c16.045-30.012,1.561-54.288,1.41-54.53c-0.607-0.997-0.297-2.309,0.703-2.926c0.988-0.603,2.309-0.307,2.926,0.704
			C1167.138,1552.613,1182.375,1578.158,1165.195,1610.297z"/>
		<path fill="#FFD700" d="M952.866,2146.347l-0.889,3.602c-1.643,6.497-2.265,8.946-3.446,22.511
			c-6.75-9.146-11.825-18.001-14.813-23.624c2.513-9.215,6.673-17.604,8.782-17.681
			C945.144,2131.105,949.8,2138.677,952.866,2146.347z"/>
		<path fill="#FFD700" d="M1369.158,2140.626c-1.15-12.058-2.354-24.533-2.133-37.641c0.199-12.705,0.729-25.04,1.244-36.971
			c1.336-31.096,2.494-57.947-3.869-64.3c-0.881-0.875-1.885-1.277-3.076-1.205l-1.818,0.082l-0.354-1.783
			c-2.785-3.203-38.682-4.159-50.43-1.078l-1.146,0.296l-0.861-0.812c-17.684-16.845-22.02-34.355-22.199-35.1
			c-0.029-0.948,0.568-40.349,0.637-78.088v-2.187c0.004-0.734,0.004-1.463,0.004-2.191c0.006-11.538-0.037-22.775-0.174-32.544
			c-0.012-0.808-0.02-1.599-0.035-2.387c-0.014-0.806-0.023-1.604-0.039-2.386c-0.082-4.49-0.184-8.588-0.311-12.16
			c-3.08-14.585-25.457-27.153-47.104-39.313c-23.727-13.341-46.143-25.929-46.555-42.526l0.004-54.102
			c-2.313-8.865-2.682-19.354-3.027-29.137c-0.209-5.982-0.412-11.761-1.092-16.354c-4.346,15.527-10.115,26.856-14.479,35.439
			c-5.352,10.521-8.637,16.967-5.842,22.939c2.172,1.58,4,2.387,5.418,2.387c3.256,0,5.332-4.908,7.732-10.596
			c0.826-1.963,1.691-3.994,2.654-5.973l1.676-3.422l2.031,3.213c4.729,7.475,4.604,18.089-0.32,27.026
			c-3.797,6.896-9.531,11.013-15.348,11.013c-4.414,0.006-10.809-2.337-16.252-13.481l-0.186-0.554
			c-3.563-19.605-2.682-48.781-2.313-57.573c-22.645,3.733-33.92,27.017-33.352,38.55c0.166,3.436,1.381,7.543,6.203,7.543
			c3.334,0,9.49-1.842,19.881-10.58l3.461-2.911l0.035,4.521c0.01,1.239,0,30.341-19.703,35.27
			c-1.867,0.199-3.369,0.276-4.803,0.276c0,0,0,0-0.004,0c-3.494,0-6.736-0.437-9.701-1.312c-0.963,12.592-1.754,20.781-2.26,22.04
			c-3.994,9.992-8.549,15.062-13.525,15.062h-0.01c-2.795-0.005-5.832-0.015-9.084-0.034c0.885,3.752,2.109,7.193,3.664,10.382
			c2.406,4.966,5.594,9.307,9.469,13.2c3.658,3.678,7.926,6.954,12.729,9.981c5.777,3.646,12.324,6.931,19.502,10.109
			c1.07,0.476,1.557,1.73,1.084,2.8c-0.355,0.797-1.133,1.264-1.943,1.264c-0.293,0-0.584-0.054-0.861-0.175
			c-6.299-2.79-12.52-5.822-18.316-9.346l-11.768,13.152c-0.418,0.466-1,0.704-1.578,0.704c-0.506,0-1.018-0.175-1.42-0.539
			c-0.871-0.782-0.947-2.125-0.166-2.999l11.295-12.631c-3.592-2.396-6.975-5.021-10.061-7.941l-14.09,13.418
			c-0.408,0.39-0.938,0.578-1.463,0.578c-0.563,0-1.121-0.219-1.539-0.656c-0.807-0.851-0.777-2.197,0.078-3.009l14.02-13.354
			c-2.861-3.111-5.398-6.537-7.518-10.338l-13.692,13.039c-0.408,0.39-0.933,0.584-1.463,0.584c-0.563,0-1.122-0.22-1.54-0.662
			c-0.807-0.845-0.778-2.191,0.072-3.003l14.63-13.929c-1.285-2.862-2.348-5.925-3.154-9.21l-19.534,15.509
			c-0.394,0.306-0.859,0.456-1.322,0.456c-0.626,0-1.248-0.276-1.666-0.802c-0.729-0.918-0.578-2.259,0.34-2.988l17.204-13.652
			c-19.42-0.16-44.051-0.5-68.08-0.831c-4.01-0.053-8.034-0.111-12.029-0.165c15.582,57.335,54.593,67.491,125.323,66.813
			l0.85-0.015l0.611,0.573c3.219,2.965,13.469,13.132,10.441,19.354l-0.549,1.126l-1.25,0.063
			c-126.076,6.717-129.697,8.009-164.315,20.354c-4.063,1.453-8.554,3.052-13.71,4.83c-2.683,0.924-5.599,1.4-8.417,1.867
			c-7.082,1.156-13.764,2.259-18.901,9.608c-5.789,8.276,0.068,20.135,1.375,22.556l17.827,10.853l0.208,0.646
			c14.4-8.836,14.08-12.039,13.152-21.069l-0.262-2.706c-0.107-1.167,0.758-2.201,1.924-2.309c1.293-0.151,2.197,0.768,2.304,1.93
			l0.263,2.653c1.088,10.648,0.86,15.431-16.009,25.646c4.102,12.181,16.864,48.601,27.469,62.793
			c5.2,6.955,14.318,12.218,23.97,17.783c13.005,7.508,26.458,15.266,30.774,28.037l0.156,0.457l-0.059,0.481
			c-2.002,16.685-18.658,33.928-32.31,43.633l-0.758,0.34c-7.479,1.707-14.76,2.212-21.807,2.698
			c-9.03,0.627-17.56,1.215-26.288,4.151c-3.932,1.316-8.68-1.265-13.696-4.01c-3.81-2.076-7.751-4.229-10.804-4.316
			c-4.111,0.141-13.205,4.363-16.874,6.391c-0.272,0.395-0.54,0.783-0.802,1.171l0.034,0.024l3.723-2.051
			c8.141,14.823,4.763,38.283,2.916,46.827c0.991,0.792,1.813,1.526,2.353,2.032l2.693,1.438
			c7.208-24.894,24.728-37.364,53.49-38.104c1.132-0.103,2.148,0.89,2.178,2.065c0.029,1.177-0.895,2.148-2.071,2.178
			c-27.353,0.709-43.201,12.126-49.762,35.906l5.351,2.854l0.297,0.659c0.009,0.016,0.102,0.22,0.282,0.589
			c2.172-6.6,6.226-16.247,11.421-16.428c0.053-0.005,0.111-0.005,0.17-0.005c6.561,0,12.262,12.685,14.439,18.241
			c0.763-0.073,1.512-0.147,2.246-0.225c5.448-0.55,10.158-1.021,14.667,0.529c4.068,1.396,7.46,4.982,10.736,8.447
			c1.667,1.764,3.363,3.563,5.093,4.978c-0.991-8.039-2.853-26.775,0.151-34.133c1.327-3.251,4.271-5.118,8.087-5.118
			c4.783,0,10.007,2.97,11.63,6.625c2.177,4.865,0.714,12.106-4.331,21.524c-2.041,3.812-6.158,10.284-9.326,13.925
			c6.289,0.302,15.401-5.414,20.325-9.711c4.087-3.553,5.555-9.336,6.979-14.925c1.021-4.004,2.076-8.146,4.117-11.427
			c15.8-25.354,64.134-76.371,66.185-78.529l0.621-0.66h0.91c5.666-0.029,21.229-1.176,25.189-6.104
			c2.236-2.784,2.484-9.108,1.195-12.48c-3.703-9.77-15.184-16.568-26.279-23.149c-7.123-4.223-13.855-8.214-18.472-12.913
			c-0.798-0.812-1.463-1.216-2.052-1.58c-3.649-2.215-3.576-2.565,0.321-20.718l0.559-2.629l0.612-0.473
			c11.645-9.068,59.172-31.147,65.198-27.771c6.631,3.684,10.844,12.355,15.729,22.401c8.129,16.723,18.244,37.533,44.148,48.935
			c4.715,2.065,4.043,6.854,3.393,11.476c-0.764,5.497-1.633,11.708,3.654,17.689c9.238,3.845,19.145,3.311,28.723,2.81
			c8.238-0.447,16.02-0.845,22.85,1.561c7.998,5.016,17.797,8.116,27.273,11.114c9.773,3.097,19.012,6.013,25.389,10.635l0.51,0.364
			l1.07,2.741c6.752,17.302,15.154,38.837,9.182,59.007c-1.227,4.116-6.018,3.032-9.508,2.23c-1.852-0.418-4.943-1.123-5.691-0.477
			c-0.693,0.618-0.529,3.019-0.412,4.769c0.199,2.965,0.428,6.328-1.926,8.301c-3.941,3.296-9.463,1.162-14.348-0.724
			c-3.766-1.453-7.678-2.97-9.467-1.531c-0.398,0.651-0.086,3.966,0.039,5.381c0.283,2.949,0.457,4.894-1.248,5.798
			c-0.453,0.224-1.619,0.66-3.01-0.486c-10.58-8.855-28.021-15.8-32.07-16.524l-0.68,0.122c-7.004,1.254-12.797,3.28-17.467,6.172
			c13.729,13.715,10.084,30.652,5.334,43.926l-0.709-0.254c0.078,0.166,0.156,0.327,0.232,0.486
			c1.547,3.213,2.908,6.046,5.639,7.549c-0.121-0.365-0.141-0.769-0.043-1.172c6.838-27.605,23.998-30.691,42.162-33.952
			c2.57-0.462,5.174-0.929,7.809-1.473c1.189-0.224,2.275,0.501,2.512,1.647c0.238,1.147-0.494,2.275-1.646,2.513
			c-2.674,0.55-5.316,1.03-7.926,1.492c-18.217,3.275-32.607,5.856-38.785,30.793c-0.127,0.496-0.408,0.903-0.787,1.191
			c1.881,0.253,4.215,0.106,7.184-0.545l0.555-0.122c0.266-0.587,0.539-1.204,0.816-1.832c2.172-4.962,4.889-11.148,10.904-11.888
			l0.336-0.044l0.326,0.068c6.313,1.19,8.777,9.244,10.76,15.718l0.379,1.21c5.199-4.656,14.678-9.073,19.576-8.452
			c7.203,0.885,8.365,7.305,9.492,13.517c0.627,3.484,1.316,7.266,3.004,10.706c0.977-8.092,2.182-21.71,1.541-32.863
			c-0.107-1.935,0.863-4.292,2.488-6.003c1.744-1.852,4.125-2.867,6.697-2.867c4.445,0.093,9.229,4.209,9.758,4.676l0.578,0.836
			c4.891,12.836-1.969,25.637-11.383,37.146c1.342-0.433,2.654-0.812,3.914-1.176c5.152-1.487,9.594-2.774,12.072-6.022
			c0.846-1.123,1.342-3.519,1.816-5.827c0.813-3.971,1.658-8.067,4.816-9.7c4.637-2.4,8.939-1.691,13.482-0.942
			c5.537,0.919,11.262,1.847,19.057-2.522C1372.24,2172.82,1370.738,2157.17,1369.158,2140.626z M1016.636,2111.966
			c-0.296,1.128-1.448,1.834-2.6,1.508c-14.225-3.757-25.195-3.65-31.731,0.32c-3.407,2.076-5.604,5.22-6.532,9.346
			c-0.224,0.981-1.104,1.652-2.076,1.652c-0.15,0-0.306-0.015-0.466-0.049c-1.147-0.264-1.862-1.396-1.609-2.542
			c1.19-5.293,4.043-9.346,8.481-12.038c7.66-4.646,19.44-4.924,35.026-0.793C1016.262,2109.667,1016.937,2110.83,1016.636,2111.966
			z M1045.67,2015.402c-0.258,0.941-1.113,1.56-2.051,1.56c-0.18,0-0.369-0.024-0.564-0.073c-18.245-5-29.467-22.06-40.324-38.551
			c-1.41-2.138-2.814-4.28-4.238-6.395c-0.661-0.978-0.398-2.299,0.573-2.95c0.967-0.665,2.289-0.403,2.945,0.573
			c1.434,2.135,2.853,4.283,4.272,6.435c10.896,16.563,21.195,32.214,37.899,36.786
			C1045.315,2013.103,1045.981,2014.269,1045.67,2015.402z M1150.9,1870.707c-30.297,16.952-64.773,37.331-90.552,64.649
			c-0.423,0.442-0.987,0.661-1.55,0.661c-0.52,0-1.05-0.189-1.458-0.574c-0.856-0.806-0.895-2.153-0.088-3.004
			c26.191-27.76,61.006-48.333,91.574-65.44c1.006-0.563,2.309-0.21,2.891,0.816
			C1152.287,1868.84,1151.925,1870.133,1150.9,1870.707z M1284.662,2024.611c-0.395,0.657-1.1,1.025-1.818,1.025
			c-0.375,0-0.754-0.097-1.094-0.301c-0.248-0.15-0.496-0.296-0.744-0.452c-0.111,0.02-0.223,0.028-0.334,0.028
			c-0.564,0-1.133-0.228-1.545-0.67c-0.375-0.398-0.75-0.792-1.125-1.191c-50.977-31.43-73.133-62.548-65.883-92.546
			c0.271-1.142,1.447-1.832,2.561-1.563c1.148,0.271,1.842,1.424,1.566,2.562c-5.965,24.67,10.027,50.559,47.561,77.115
			c-17.525-17.7-34.293-35.795-29.244-51.522c0.361-1.123,1.518-1.745,2.674-1.37c1.117,0.354,1.734,1.555,1.371,2.673
			c-4.568,14.24,13.773,32.697,31.512,50.535c3.586,3.605,7.17,7.212,10.586,10.793c1.064,0.657,2.137,1.313,3.227,1.965
			C1284.943,2022.298,1285.269,2023.601,1284.662,2024.611z M1306.462,2012.831c-0.359,0.782-1.133,1.244-1.939,1.244
			c-0.295,0-0.592-0.059-0.879-0.185c-23.15-10.479-34.998-29.852-35.211-57.572c-0.012-1.186,0.938-2.004,2.123-2.139
			c1.166,0,2.119,0.934,2.123,2.104c0.205,26.29,10.906,43.858,32.719,53.729
			C1306.468,2010.498,1306.939,2011.756,1306.462,2012.831z M1331.462,2166.005c-0.777,0.865-2.127,0.929-2.998,0.132
			c-1.322-1.2-8.545-3.62-16.49-2.813c-5.332,0.543-12.807,2.75-18.178,10.162c-0.412,0.573-1.059,0.874-1.719,0.874
			c-0.434,0-0.871-0.131-1.244-0.403c-0.953-0.685-1.162-2.016-0.473-2.965c6.289-8.688,14.994-11.26,21.18-11.896
			c9.012-0.895,17.41,1.725,19.791,3.912C1332.197,2163.795,1332.255,2165.141,1331.462,2166.005z M1334.152,2048.421
			c-2.256-3.66-4.104-4.666-4.783-4.734c-1.201,0.18-2.227-0.66-2.377-1.832c-0.156-1.162,0.67-2.226,1.832-2.377
			c4.744-0.676,9.633,5.638,14.488,18.584c2.469,6.576,11.1,33.997,5.035,38.046c-0.365,0.243-0.773,0.354-1.182,0.354
			c-0.68,0-1.355-0.331-1.764-0.943c-0.656-0.977-0.395-2.293,0.582-2.944C1347.904,2089.66,1342.281,2061.64,1334.152,2048.421z
			 M1367.228,2175.216c-0.787,0.871-2.137,0.919-2.998,0.115c-3.781-3.497-9.043-5.204-13.773-4.45
			c-3.717,0.593-6.746,2.667-8.52,5.852c-0.389,0.695-1.113,1.083-1.852,1.083c-0.35,0-0.709-0.082-1.041-0.263
			c-1.025-0.577-1.385-1.871-0.816-2.896c2.426-4.34,6.527-7.174,11.557-7.971c6.09-0.934,12.535,1.099,17.326,5.531
			C1367.978,2173.01,1368.031,2174.355,1367.228,2175.216z"/>
		<path fill="#FFD700" d="M909.49,2088.939c6.999,12.744,4.521,33.473,2.892,42.152c-2.119-1.259-4.379-2.148-6.211-1.837
			c-5.205,0.812-7.927,5.186-10.809,9.812c-1.244,2.008-2.518,4.043-4.043,5.92c-1.541-22.061,5.268-37.214,18.138-56.07
			L909.49,2088.939z"/>
		<path fill="#FFD700" d="M882.075,1824.263c-0.958,4.433-1.458,9.381-1.716,12.831c-0.35-0.312-0.7-0.622-1.05-0.938
			c-1.935-1.726-3.893-3.47-6.066-5.045l0.083-0.111c-2.245-1.667-11.451-19.013-7.693-25.088c2.104-3.402,4.286-5.273,6.152-5.273
			c0.01,0,0.025,0,0.034,0c2.017,0.024,3.669,2.328,4.476,3.703C880.247,1811.049,881.7,1821.139,882.075,1824.263z"/>
		<path fill="#FFD700" d="M887.615,1505.082c-5.04-0.593-11.003-1.726-14.075-3.719c-1.05-0.675-2.119-1.234-3.193-1.793
			c-2.337-1.215-4.544-2.367-6.644-5.021c-1.414-1.788-1.473-6.483-0.097-7.976c0.637-0.694,2.673-1.473,4.438-1.473
			c0.851,0,1.244,0.19,1.283,0.199C872.757,1492.343,881.651,1500.275,887.615,1505.082z"/>
		<path fill="#FFD700" d="M855.684,1463.313l14.08,11.495l-2.488,6.074c-2.357,0.176-5.254,1.138-6.794,2.814
			c-1.837,1.987-2.416,5.269-2.051,8.267c-0.5-0.082-0.967-0.131-1.375-0.131c-0.933,0-2.037-0.131-3.096-0.247
			c-1.254-0.137-2.391-0.263-3.363-0.238c-1.647-2.29-2.969-3.933-3.354-4.404c-0.743-0.913-2.09-1.044-2.989-0.311
			c-0.914,0.744-1.05,2.08-0.311,2.989c2.474,3.037,8.13,10.745,10.551,16.879c-3.291-0.719-6.032-0.315-8.17,1.22
			c-1.861,1.327-3.129,3.46-3.732,6.196c-0.733-0.247-1.438-0.48-2.109-0.699c-7.062-2.318-10.279-3.378-16.656-14.988
			c-0.56-1.03-1.871-1.391-2.877-0.842c-1.035,0.564-1.404,1.857-0.846,2.883c5.38,9.813,9.103,13.049,13.856,15.114l-0.583,10.42
			c-1.366-1.579-2.931-2.944-4.753-3.868c-0.987-0.5-2.027-0.758-3.072-0.758c-3.99,0-6.867,3.571-8.588,6.57
			c-0.602,1.055-0.923,2.245-1.016,3.51c-10.668-6.693-17.603-12.209-20.84-14.96c-0.189-4.354,0.369-9.336,1.599-10.366
			c1.658-1.396,9.512-3.427,14.57-4.423l2.314-0.462l-0.7-2.255c-1.671-5.404-3.072-14.449-0.749-16.689
			c2.537-2.431,10.022-1.721,14.153-0.681l2.493,0.617l0.146-2.562c0.277-4.986,1.789-13.89,4.646-16.548
			C836.812,1459.926,848.656,1461.54,855.684,1463.313z"/>
		<path fill="#FFD700" d="M858.585,1516.502c2.148,3.99,4.194,7.791,10.459,15.484c-9.195-1.813-13.754-6.639-18.182-11.334
			c-1.448-1.536-2.843-3.014-4.355-4.335c0.234-2.421,1.026-4.243,2.28-5.142c1.856-1.317,4.772-0.676,6.969,0.131l0.146,0.423
			C856.977,1513.494,857.788,1515.005,858.585,1516.502z"/>
		<path fill="#FFD700" d="M851.635,1745.136l-21.292,16.374l-22.808-20.238c12.038-18.482,26.336-44.635,18.716-64.813
			c-4.476-11.859-16.024-20.403-34.677-25.458l-1.395-0.14c-14.502-1.43-32.373-3.164-54.19,58.885
			c-10.809-44.364,1.531-71.94,36.733-82.01c26.575-7.631,60.188,5.307,76.532,29.398c8.729,12.864,19.436,39.537-6.887,73.606
			c-0.986,1.302-1.322,2.838-0.962,4.438C842.314,1739.198,847.641,1742.886,851.635,1745.136z"/>
		<path fill="#FFD700" d="M849.429,1829.556l1.308,6.97c-4.617-3.471-9.423-5.939-14.279-7.946
			c-3.042-1.939-9.045-8.496-10.916-13.93c-0.535-1.53-0.598-2.771-0.165-3.148c0.204-0.18,0.423-0.351,0.656-0.511
			c1.871-1.288,4.666-1.974,7.217-1.754c1.963,0.185,3.514,0.879,4.374,1.983c0.817,1.044,1.721,2.327,2.654,3.717
			c0.112,0.555,0.438,1.016,0.87,1.316c1.93,2.955,3.894,6.207,5.4,8.69C847.976,1827.305,848.821,1828.715,849.429,1829.556z"/>
		<path fill="#FFD700" d="M873.209,1477.617l-1.672,4.082c0.88,0.54,1.356,1.226,1.604,1.73c4.788,9.813,22.517,22.459,22.697,22.59
			l5.715,4.049l-7.003-0.194c-0.67-0.02-16.491-0.506-23.324-4.938c-0.928-0.607-1.886-1.098-2.838-1.594
			c-2.513-1.313-5.356-2.79-8.015-6.158c-0.122-0.155-0.243-0.315-0.354-0.49c-0.972-0.258-2.392-0.617-2.965-0.617
			c-1.026,0-2.231-0.122-3.412-0.253c2.906,4.539,5.769,9.953,6.163,14.152c0.986,1.647,1.759,3.086,2.522,4.51
			c2.396,4.447,4.646,8.637,13.418,18.901l3.261,3.811l-5.005-0.306c-14.507-0.904-21.011-7.791-26.23-13.322
			c-1.75-1.852-3.407-3.611-5.21-5.011l-0.36,0.01c-0.005-0.098-0.005-0.189-0.005-0.286c-0.005-0.006-0.015-0.011-0.019-0.015
			c-1.08-0.375-2.081-0.705-3.023-1.012c-0.35-0.111-0.69-0.224-1.021-0.335l-0.807,14.332l-0.185-0.01
			c0.612,1.04,1.176,2.07,1.711,3.048l0.287,0.544c1.225,2.235,2.099,3.845,2.867,5.113c10.318,0.568,16.656,2.24,26.143,7.46
			c5.706,3.339,12.422,8.928,20.097,16.729c19.304,17.622,42.375,26.201,70.374,26.201c1.176,0,2.124,0.947,2.124,2.123
			c0,1.172-0.948,2.119-2.124,2.119c-21.108,0-39.527-4.694-55.726-14.273c5.288,6.24,10.911,13.268,16.865,21.068
			c0.252,0.33,21.059,27.794,27.309,38.7c14.76-24.523,32.407-44.576,49.68-61.61L873.209,1477.617z M972.604,1578.128
			c-0.18,1.035-1.079,1.755-2.095,1.755c-0.117,0-0.243-0.005-0.37-0.029c-8.18-1.424-16.456-7.198-24.461-12.777
			c-3.349-2.333-6.507-4.539-9.608-6.401c-7.582-4.549-18.119-11.888-21.904-15.805c-0.816-0.841-0.792-2.187,0.049-3.009
			c0.84-0.812,2.182-0.792,3.008,0.054c3.382,3.505,13.803,10.78,21.03,15.12c3.231,1.935,6.595,4.286,9.856,6.556
			c7.625,5.317,15.514,10.814,22.77,12.078C972.03,1575.869,972.803,1576.972,972.604,1578.128z"/>
		<path fill="#FFD700" d="M846.581,1551.208c-3.771-3.354-5.356-4.777-6.969-7.115c-0.442-0.637-0.89-1.347-1.375-2.178
			c-0.379-0.637-0.783-1.346-1.234-2.157c-0.462-0.841-0.982-1.784-1.57-2.863l-0.311-0.563c-2.139-3.907-4.797-8.768-8.418-10.6
			c-0.398-0.209-0.777-0.302-1.152-0.302c-1.478,0-3.314,1.653-4.899,4.428c-0.549,0.962-0.583,2.439-0.272,4.112
			c0.18,0.952,0.471,1.963,0.851,2.974c0.438,1.162,0.986,2.318,1.604,3.383c0.729,1.259,1.551,2.386,2.401,3.236
			c2.07,2.09,3.66,3.811,4.977,5.23c5.604,6.069,5.691,6.162,21.783,7.28C849.774,1554.046,848.01,1552.482,846.581,1551.208z"/>
		<path fill="#FFD700" d="M826.834,1825.046c-0.666-0.223-1.327-0.447-1.988-0.671c-4.447-1.491-9.03-3.032-13.414-4.991
			c-5.127-5.479-12.743-15.582-12.155-20.378c0.505-4.166,4.131-9.172,8.884-14.062c-0.826,5.482-0.194,10.245,1.886,14.211
			c2.265,4.311,6.221,7.654,11.776,9.973c-0.986,1.366-1.545,3.651-0.126,7.397C822.641,1819.02,824.555,1822.154,826.834,1825.046z
			"/>
		<path fill="#FFD700" d="M816.633,1536.671c-4.311-2.619-8.097-5.098-11.354-7.344c-0.389-0.271-0.773-0.539-1.142-0.797
			l-119.889,123.642l-15.231-14.474l-11.042,12.88l45.282,43.847l12.49-13.744l-16.908-16.913l118.771-122.1v-0.005l0.724-0.743
			C817.659,1539.578,817.065,1538.134,816.633,1536.671z"/>
	</g>
</g>
</svg>
