<?xml version="1.0" encoding="UTF-8" standalone="no"?>
<!-- Created with Inkscape (http://www.inkscape.org/) -->
<svg
   xmlns:dc="http://purl.org/dc/elements/1.1/"
   xmlns:cc="http://creativecommons.org/ns#"
   xmlns:rdf="http://www.w3.org/1999/02/22-rdf-syntax-ns#"
   xmlns:svg="http://www.w3.org/2000/svg"
   xmlns="http://www.w3.org/2000/svg"
   xmlns:xlink="http://www.w3.org/1999/xlink"
   xmlns:sodipodi="http://sodipodi.sourceforge.net/DTD/sodipodi-0.dtd"
   xmlns:inkscape="http://www.inkscape.org/namespaces/inkscape"
   version="1.0"
   width="200"
   height="240"
   id="svg1910"
   sodipodi:version="0.32"
   inkscape:version="0.46"
   sodipodi:docname="Coat of Arms of Krasnogorsk (Moscow oblast).svg"
   inkscape:output_extension="org.inkscape.output.svg.inkscape">
  <metadata
     id="metadata3001">
    <rdf:RDF>
      <cc:Work
         rdf:about="">
        <dc:format>image/svg+xml</dc:format>
        <dc:type
           rdf:resource="http://purl.org/dc/dcmitype/StillImage" />
      </cc:Work>
    </rdf:RDF>
  </metadata>
  <sodipodi:namedview
     inkscape:window-height="866"
     inkscape:window-width="1391"
     inkscape:pageshadow="2"
     inkscape:pageopacity="0.0"
     guidetolerance="10.0"
     gridtolerance="10.0"
     objecttolerance="10.0"
     borderopacity="1.0"
     bordercolor="#666666"
     pagecolor="#ffffff"
     id="base"
     showgrid="false"
     inkscape:zoom="1"
     inkscape:cx="175.85659"
     inkscape:cy="83.529026"
     inkscape:window-x="31"
     inkscape:window-y="0"
     inkscape:current-layer="svg1910"
     showguides="true"
     inkscape:guide-bbox="true">
    <inkscape:grid
       type="xygrid"
       id="grid3155"
       visible="true"
       enabled="true" />
  </sodipodi:namedview>
  <defs
     id="defs1912">
    <inkscape:perspective
       sodipodi:type="inkscape:persp3d"
       inkscape:vp_x="0 : 500 : 1"
       inkscape:vp_y="0 : 1000 : 0"
       inkscape:vp_z="1500 : 500 : 1"
       inkscape:persp3d-origin="750 : 333.33333 : 1"
       id="perspective3003" />
    <inkscape:perspective
       id="perspective3012"
       inkscape:persp3d-origin="372.04724 : 350.78739 : 1"
       inkscape:vp_z="744.09448 : 526.18109 : 1"
       inkscape:vp_y="0 : 1000 : 0"
       inkscape:vp_x="0 : 526.18109 : 1"
       sodipodi:type="inkscape:persp3d" />
    <inkscape:perspective
       id="perspective3149"
       inkscape:persp3d-origin="372.04724 : 350.78739 : 1"
       inkscape:vp_z="744.09448 : 526.18109 : 1"
       inkscape:vp_y="0 : 1000 : 0"
       inkscape:vp_x="0 : 526.18109 : 1"
       sodipodi:type="inkscape:persp3d" />
    <inkscape:perspective
       id="perspective2693"
       inkscape:persp3d-origin="93.542999 : 12.639666 : 1"
       inkscape:vp_z="187.086 : 18.959499 : 1"
       inkscape:vp_y="0 : 1000 : 0"
       inkscape:vp_x="0 : 18.959499 : 1"
       sodipodi:type="inkscape:persp3d" />
    <inkscape:perspective
       id="perspective2784"
       inkscape:persp3d-origin="372.04724 : 350.78739 : 1"
       inkscape:vp_z="744.09448 : 526.18109 : 1"
       inkscape:vp_y="0 : 1000 : 0"
       inkscape:vp_x="0 : 526.18109 : 1"
       sodipodi:type="inkscape:persp3d" />
    <inkscape:perspective
       id="perspective6491"
       inkscape:persp3d-origin="450 : 600 : 1"
       inkscape:vp_z="900 : 900 : 1"
       inkscape:vp_y="0 : 1000 : 0"
       inkscape:vp_x="0 : 900 : 1"
       sodipodi:type="inkscape:persp3d" />
    <inkscape:perspective
       id="perspective7151"
       inkscape:persp3d-origin="372.04724 : 350.78739 : 1"
       inkscape:vp_z="744.09448 : 526.18109 : 1"
       inkscape:vp_y="0 : 1000 : 0"
       inkscape:vp_x="0 : 526.18109 : 1"
       sodipodi:type="inkscape:persp3d" />
  </defs>
  <path
     sodipodi:nodetypes="ccccccccccc"
     d="M 100,230 C 100,221.72 93.28,215 85,215 C 76.72,215 33.28,215 25,215 C 16.72,215 10,208.28 10,200 C 10,191.72 10.01428,5 10.01428,5 L 100.01428,5 L 190.01428,5 C 190.01428,5 190,191.72 190,200 C 190,208.28 183.28,215 175,215 C 166.72,215 123.28,215 115,215 C 106.72,215 100,221.72 100,230 z"
     style="opacity:1;fill:#3465a4;fill-opacity:1;stroke:none;stroke-width:2;stroke-linecap:square;stroke-linejoin:round;marker:none;stroke-miterlimit:4;stroke-dasharray:none;stroke-dashoffset:0;stroke-opacity:1;visibility:visible;display:inline;overflow:visible;enable-background:accumulate"
     id="path2764" />
  <path
     id="path5927"
     style="opacity:1;fill:#cc0000;fill-opacity:1;stroke:#000000;stroke-width:0.50000000000000000;stroke-linecap:square;stroke-linejoin:bevel;marker:none;stroke-miterlimit:4;stroke-dasharray:none;stroke-dashoffset:0;stroke-opacity:1;visibility:visible;display:inline;overflow:visible;enable-background:accumulate"
     d="M 190,185 C 180,185 175,180 170,175 C 155,160 145,175 135,175 C 125,175 120,160 100,160 C 80,160 75,175 65,175 C 55,175 45,160 30,175 C 25,180 20,185 10,185 C 10,185 10,185 10,200 C 10,215 25,215 25,215 C 25,215 75,215 85,215 C 95,215 100,225 100,230 C 99.5,224 105,215 115,215 C 125,215 160,215 175,215 C 190,215 190,200 190,200 L 190,185 z"
     sodipodi:nodetypes="csscssc" />
  <path
     style="opacity:1;fill:none;fill-opacity:1;stroke:#edd400;stroke-width:2;stroke-linecap:square;stroke-linejoin:bevel;marker:none;stroke-miterlimit:4;stroke-dasharray:none;stroke-dashoffset:0;stroke-opacity:1;visibility:visible;display:inline;overflow:visible;enable-background:accumulate"
     d="M 10,25 L 75,25 L 125,65 L 190,65"
     id="path5939" />
  <path
     style="opacity:1;fill:none;fill-opacity:1;stroke:#edd400;stroke-width:2;stroke-linecap:square;stroke-linejoin:bevel;marker:none;stroke-miterlimit:4;stroke-dasharray:none;stroke-dashoffset:0;stroke-opacity:1;visibility:visible;display:inline;overflow:visible;enable-background:accumulate"
     d="M 10,65 L 75,65 L 125,25 L 190,25"
     id="path5941" />
  <path
     style="opacity:1;fill:none;fill-opacity:1;stroke:#edd400;stroke-width:2;stroke-linecap:square;stroke-linejoin:bevel;marker:none;stroke-miterlimit:4;stroke-dasharray:none;stroke-dashoffset:0;stroke-opacity:1;visibility:visible;display:inline;overflow:visible;enable-background:accumulate"
     d="M 190,45 L 10,45"
     id="path5943" />
  <path
     id="path5932"
     style="opacity:1;fill:#ffffff;fill-opacity:1;stroke:#000000;stroke-width:1;stroke-linecap:square;stroke-linejoin:bevel;marker:none;stroke-miterlimit:4;stroke-dasharray:none;stroke-dashoffset:0;stroke-opacity:1;visibility:visible;display:inline;overflow:visible;enable-background:accumulate"
     d="M 75.000004,22.4375 C 63.679691,44.96875 75.000004,67.5 75.000004,67.5 M 75.000004,22.4375 C 86.320317,44.96875 75.000004,67.5 75.000004,67.5" />
  <path
     id="path3157"
     style="opacity:1;fill:none;fill-opacity:1;stroke:#000000;stroke-width:2;stroke-linecap:square;stroke-linejoin:round;marker:none;stroke-miterlimit:4;stroke-dasharray:none;stroke-dashoffset:0;stroke-opacity:1;visibility:visible;display:inline;overflow:visible;enable-background:accumulate"
     d="M 99.98572,230 C 99.98572,221.72 93.26572,215 84.98572,215 C 76.70572,215 33.26572,215 24.98572,215 C 16.70572,215 9.98572,208.28 9.98572,200 C 9.98572,191.72 10.000004,5 10.000004,5 L 190,5 C 190,5 189.98572,191.72 189.98572,200 C 189.98572,208.28 183.26572,215 174.98572,215 C 166.70572,215 123.26572,215 114.98572,215 C 106.70572,215 99.98572,221.72 99.98572,230 z"
     sodipodi:nodetypes="cccccccccc" />
  <path
     id="path5945"
     style="opacity:1;fill:#ffffff;fill-opacity:1;stroke:#000000;stroke-width:1;stroke-linecap:square;stroke-linejoin:bevel;marker:none;stroke-miterlimit:4;stroke-dasharray:none;stroke-dashoffset:0;stroke-opacity:1;visibility:visible;display:inline;overflow:visible;enable-background:accumulate"
     d="M 125,22.46875 C 113.67969,45 125,67.53125 125,67.53125 M 125,22.46875 C 136.32031,45 125,67.53125 125,67.53125" />
  <path
     style="opacity:1;fill:#ffffff;fill-opacity:1;stroke:#000000;stroke-width:0.99999994;stroke-linecap:square;stroke-linejoin:bevel;marker:none;stroke-miterlimit:4;stroke-dasharray:none;stroke-dashoffset:0;stroke-opacity:1;visibility:visible;display:inline;overflow:visible;enable-background:accumulate"
     d="M 90,170 L 92,95 L 108,95 L 110,170"
     id="path5971"
     sodipodi:nodetypes="cccc" />
  <rect
     style="opacity:1;fill:#000000;fill-opacity:1;fill-rule:evenodd;stroke:#000000;stroke-width:1.99999988;stroke-linecap:butt;stroke-linejoin:miter;marker:none;marker-start:none;marker-mid:none;marker-end:none;stroke-miterlimit:4;stroke-dasharray:none;stroke-dashoffset:0;stroke-opacity:1;visibility:visible;display:inline;overflow:visible;enable-background:accumulate"
     id="rect5947"
     width="34.099022"
     height="5"
     x="82.900978"
     y="175" />
  <text
     xml:space="preserve"
     style="font-size:1.5px;font-style:normal;font-weight:normal;fill:#000000;fill-opacity:1;stroke:none;stroke-width:1px;stroke-linecap:butt;stroke-linejoin:miter;stroke-opacity:1;font-family:Bitstream Vera Sans"
     x="303.71356"
     y="19.321924"
     id="text27077"><tspan
       sodipodi:role="line"
       id="tspan27079"
       x="303.71356"
       y="19.321924" /></text>
  <g
     id="g7187">
    <path
       id="path7167"
       d="M 90.028475,84.5 L 89.797015,80.941767 L 110.69435,80.941767 L 110.46968,84.480393"
       style="opacity:1;fill:#ffffff;fill-opacity:1;stroke:#000000;stroke-width:1;stroke-linecap:square;stroke-linejoin:bevel;marker:none;stroke-miterlimit:4;stroke-dasharray:none;stroke-dashoffset:0;stroke-opacity:1;visibility:visible;display:inline;overflow:visible;enable-background:accumulate"
       sodipodi:nodetypes="cccc" />
    <path
       sodipodi:nodetypes="ccccccc"
       id="path6984"
       d="M 89.517077,84.559448 L 110.46789,84.559448 L 112.14396,88.710953 L 110.46789,94.313795 L 89.517077,94.313795 L 87.237628,88.339679 L 89.517077,84.559448 z"
       style="fill:#ffffff;fill-opacity:1;fill-rule:nonzero;stroke:#000000;stroke-width:0.75000006;stroke-linecap:round;stroke-linejoin:round;stroke-miterlimit:4;stroke-dashoffset:0;stroke-opacity:1" />
    <path
       id="path6990"
       d="M 92.681854,94.098967 L 92.434161,95 L 99.649082,95 L 100.5,95 L 107.71491,95 L 107.46722,94.098967 L 100.5,94.098967 L 99.649082,94.098967 L 92.681854,94.098967 z"
       style="fill:#ffffff;fill-opacity:1;fill-rule:evenodd;stroke:#000000;stroke-width:0.5;stroke-linecap:butt;stroke-linejoin:miter;stroke-miterlimit:4;stroke-dasharray:none;stroke-opacity:1" />
    <path
       id="path6992"
       d="M 90.340805,88.495668 C 89.461334,88.495668 88.618976,88.801377 88.618971,88.801376 C 88.618971,88.801376 88.618976,89.251893 88.618971,89.251893 C 88.618971,89.251893 89.461334,88.946186 90.340805,88.946185 C 93.033549,88.946185 94.251266,90.703778 100.04458,90.716071 C 100.06516,90.716071 100.08401,90.716114 100.1045,90.716071 C 105.89741,90.703687 107.11558,88.946185 109.80827,88.946185 C 110.68774,88.946186 111.5301,89.251893 111.5301,89.251893 C 111.53009,89.251893 111.5301,88.801376 111.5301,88.801376 C 111.53009,88.801377 110.68774,88.495668 109.80827,88.495668 C 107.11558,88.495671 105.89741,90.253164 100.1045,90.265555 C 100.08405,90.265555 100.06491,90.265598 100.04458,90.265555 C 94.251266,90.253257 93.033549,88.495671 90.340805,88.495668 z"
       style="fill:#ffffff;fill-rule:evenodd;stroke:#000000;stroke-width:0.5;stroke-linecap:butt;stroke-linejoin:miter;stroke-miterlimit:4;stroke-dasharray:none;stroke-opacity:1" />
    <path
       sodipodi:nodetypes="csssc"
       d="M 89.695693,88.634522 C 91.94793,88.634522 93.718069,90.12202 93.718069,92.710057 C 93.718069,94.856118 91.761018,97.218617 88.936749,97.218617 C 85.948143,97.218617 83.29531,94.813872 83.29531,91.442875 C 83.29531,87.889666 85.891433,84.558986 89.898081,84.558986"
       style="fill:#ffffff;fill-rule:evenodd;stroke:#000000;stroke-width:0.75000006;stroke-linecap:butt;stroke-linejoin:miter;stroke-miterlimit:4;stroke-opacity:1"
       id="path6996" />
    <path
       sodipodi:nodetypes="cssccc"
       id="path7002"
       d="M 94.058268,91.115415 C 94.146571,91.087819 94.269736,91.08422 94.387365,91.115415 C 94.387365,91.115415 95.655854,91.115415 95.655854,91.115415 C 95.75653,91.073446 95.907687,91.06566 95.99615,91.115415 C 96.262989,92.323421 95.906233,93.531876 95.027203,93.998807 C 94.058668,93.484326 93.77747,92.386644 94.058268,91.115415 z"
       style="fill:#ffffff;fill-opacity:1;fill-rule:evenodd;stroke:#000000;stroke-width:0.5;stroke-linecap:butt;stroke-linejoin:miter;stroke-miterlimit:4;stroke-dasharray:none;stroke-opacity:1" />
    <path
       style="fill:#ffffff;fill-opacity:1;fill-rule:evenodd;stroke:#000000;stroke-width:0.5;stroke-linecap:butt;stroke-linejoin:miter;stroke-miterlimit:4;stroke-dasharray:none;stroke-opacity:1"
       d="M 96.329667,91.115415 C 96.432582,91.087819 96.576112,91.08422 96.713207,91.115415 C 96.713207,91.115415 98.191516,91.115415 98.191516,91.115415 C 98.308842,91.073446 98.485001,91.06566 98.588099,91.115415 C 98.899075,92.323421 98.483312,93.531876 97.458886,93.998807 C 96.330137,93.484326 96.002431,92.386644 96.329667,91.115415 z"
       id="path7006"
       sodipodi:nodetypes="cssccc" />
    <path
       sodipodi:nodetypes="cssccc"
       id="path7022"
       d="M 98.914889,91.115415 C 99.021273,91.087819 99.169647,91.08422 99.31138,91.115415 C 99.31138,91.115415 100.83964,91.115415 100.83964,91.115415 C 100.96094,91.073446 101.14306,91.06566 101.24963,91.115415 C 101.57112,92.323421 101.1413,93.531876 100.08226,93.998807 C 98.91537,93.484326 98.576585,92.386644 98.914889,91.115415 z"
       style="fill:#ffffff;fill-opacity:1;fill-rule:evenodd;stroke:#000000;stroke-width:0.5;stroke-linecap:butt;stroke-linejoin:miter;stroke-miterlimit:4;stroke-dasharray:none;stroke-opacity:1" />
    <path
       id="path7028"
       style="fill:#ffffff;fill-rule:evenodd;stroke:#000000;stroke-width:0.75000006;stroke-linecap:butt;stroke-linejoin:miter;stroke-miterlimit:4;stroke-opacity:1"
       d="M 110.45301,88.634522 C 108.20076,88.634522 106.43063,90.12202 106.43063,92.710057 C 106.43063,94.856118 108.38769,97.218617 111.21193,97.218617 C 114.20055,97.218617 116.85338,94.813872 116.85338,91.442875 C 116.85338,87.889666 114.25726,84.558986 110.25061,84.558986"
       sodipodi:nodetypes="csssc" />
    <path
       style="fill:#ffffff;fill-opacity:1;fill-rule:evenodd;stroke:#000000;stroke-width:0.5;stroke-linecap:butt;stroke-linejoin:miter;stroke-miterlimit:4;stroke-dasharray:none;stroke-opacity:1"
       d="M 106.09044,91.115415 C 106.00213,91.087819 105.87898,91.08422 105.76133,91.115415 C 105.76133,91.115415 104.49284,91.115415 104.49284,91.115415 C 104.39218,91.073446 104.24101,91.06566 104.15255,91.115415 C 103.88573,92.323421 104.24247,93.531876 105.12149,93.998807 C 106.09004,93.484326 106.37123,92.386644 106.09044,91.115415 z"
       id="path7032"
       sodipodi:nodetypes="cssccc" />
    <path
       sodipodi:nodetypes="csssssssssccsssssssssc"
       d="M 110.20413,93.303773 C 110.87835,93.303773 111.44382,92.83489 111.44382,92.163771 C 111.44382,91.492445 110.82586,90.862134 110.03643,90.862134 C 109.1892,90.862134 108.52258,91.541802 108.52258,92.409665 C 108.52258,93.280458 109.35285,94.095337 110.4091,94.095337 C 111.34051,94.095337 112.59218,93.226556 112.59218,91.784951 C 112.59218,90.344495 111.35961,89.235553 109.91004,89.235553 C 108.17739,89.235553 106.79324,90.341343 106.79324,92.48016 C 106.79324,94.459907 108.63796,96.124235 110.83686,96.124235 C 113.40869,96.124235 115.50378,94.271826 115.50378,91.394259 C 115.50378,88.19945 113.09286,85.708478 109.86995,85.708478 C 103.29787,85.708478 96.725809,85.708478 90.153749,85.708478 C 86.930825,85.708478 84.519903,88.19945 84.519903,91.394259 C 84.519903,94.271826 86.615,96.124235 89.186829,96.124235 C 91.385734,96.124235 93.230458,94.459907 93.230458,92.48016 C 93.230458,90.341343 91.846304,89.235553 90.113654,89.235553 C 88.664081,89.235553 87.431519,90.344495 87.431519,91.784951 C 87.431519,93.226556 88.683176,94.095337 89.614592,94.095337 C 90.670835,94.095337 91.501118,93.280458 91.501118,92.409665 C 91.501118,91.541802 90.834502,90.862134 89.987277,90.862134 C 89.197845,90.862134 88.57986,91.492445 88.57986,92.163771 C 88.57986,92.83489 89.145349,93.303773 89.819562,93.303773"
       style="fill:none;fill-rule:evenodd;stroke:#000000;stroke-width:0.5;stroke-linecap:butt;stroke-linejoin:miter;stroke-miterlimit:4;stroke-opacity:1"
       id="path7040" />
    <path
       sodipodi:nodetypes="cssccc"
       id="path7044"
       d="M 103.81903,91.115415 C 103.71612,91.087819 103.57259,91.08422 103.4355,91.115415 C 103.4355,91.115415 101.95719,91.115415 101.95719,91.115415 C 101.83986,91.073446 101.6637,91.06566 101.5606,91.115415 C 101.24963,92.323421 101.66539,93.531876 102.68982,93.998807 C 103.81855,93.484326 104.14627,92.386644 103.81903,91.115415 z"
       style="fill:#ffffff;fill-opacity:1;fill-rule:evenodd;stroke:#000000;stroke-width:0.5;stroke-linecap:butt;stroke-linejoin:miter;stroke-miterlimit:4;stroke-dasharray:none;stroke-opacity:1" />
    <path
       transform="matrix(0.1278389,0,0,0.128719,35.707664,208.66376)"
       d="M 430.01319,-903.61151 A 7.4703169,7.4703169 0 1 1 415.07256,-903.61151 A 7.4703169,7.4703169 0 1 1 430.01319,-903.61151 z"
       sodipodi:ry="7.4703169"
       sodipodi:rx="7.4703169"
       sodipodi:cy="-903.61151"
       sodipodi:cx="422.54288"
       id="path7062"
       style="fill:#ffffff;fill-opacity:1;fill-rule:nonzero;stroke:#000000;stroke-width:3.89777923;stroke-linecap:round;stroke-linejoin:round;stroke-miterlimit:4;stroke-dasharray:none;stroke-dashoffset:0;stroke-opacity:1"
       sodipodi:type="arc" />
    <path
       sodipodi:type="arc"
       style="fill:#ffffff;fill-opacity:1;fill-rule:nonzero;stroke:#000000;stroke-width:3.89777923;stroke-linecap:round;stroke-linejoin:round;stroke-miterlimit:4;stroke-dasharray:none;stroke-dashoffset:0;stroke-opacity:1"
       id="path7064"
       sodipodi:cx="422.54288"
       sodipodi:cy="-903.61151"
       sodipodi:rx="7.4703169"
       sodipodi:ry="7.4703169"
       d="M 430.01319,-903.61151 A 7.4703169,7.4703169 0 1 1 415.07256,-903.61151 A 7.4703169,7.4703169 0 1 1 430.01319,-903.61151 z"
       transform="matrix(-0.1278389,0,0,0.128719,164.44102,208.72626)" />
    <path
       sodipodi:nodetypes="cssccc"
       id="path7157"
       d="M 92.56622,84.486967 C 92.680274,84.514563 92.839356,84.518162 92.991288,84.486967 C 92.991288,84.486967 94.629691,84.486967 94.629691,84.486967 C 94.759725,84.528936 94.954962,84.536722 95.069223,84.486967 C 95.413876,83.278961 94.953084,82.070505 93.817715,81.603575 C 92.566738,82.118056 92.203538,83.215738 92.56622,84.486967 z"
       style="fill:#ffffff;fill-opacity:1;fill-rule:evenodd;stroke:#000000;stroke-width:0.5;stroke-linecap:butt;stroke-linejoin:miter;stroke-miterlimit:4;stroke-dasharray:none;stroke-opacity:1" />
    <path
       style="fill:#ffffff;fill-opacity:1;fill-rule:evenodd;stroke:#000000;stroke-width:0.5;stroke-linecap:butt;stroke-linejoin:miter;stroke-miterlimit:4;stroke-dasharray:none;stroke-opacity:1"
       d="M 95.5,84.486967 C 95.632925,84.514563 95.818312,84.518162 95.995387,84.486967 C 95.995387,84.486967 97.904796,84.486967 97.904796,84.486967 C 98.056332,84.528936 98.283862,84.536722 98.417032,84.486967 C 98.818692,83.278961 98.281682,82.070505 96.958517,81.603575 C 95.500606,82.118056 95.077335,83.215738 95.5,84.486967 z"
       id="path7159"
       sodipodi:nodetypes="cssccc" />
    <path
       sodipodi:nodetypes="cssccc"
       id="path7161"
       d="M 98.839112,84.486967 C 98.976522,84.514563 99.168162,84.518162 99.351232,84.486967 C 99.351232,84.486967 101.32517,84.486967 101.32517,84.486967 C 101.48183,84.528936 101.71706,84.536722 101.85472,84.486967 C 102.26994,83.278961 101.71478,82.070505 100.34691,81.603575 C 98.839732,82.118056 98.402152,83.215738 98.839112,84.486967 z"
       style="fill:#ffffff;fill-opacity:1;fill-rule:evenodd;stroke:#000000;stroke-width:0.5;stroke-linecap:butt;stroke-linejoin:miter;stroke-miterlimit:4;stroke-dasharray:none;stroke-opacity:1" />
    <path
       style="fill:#ffffff;fill-opacity:1;fill-rule:evenodd;stroke:#000000;stroke-width:0.5;stroke-linecap:butt;stroke-linejoin:miter;stroke-miterlimit:4;stroke-dasharray:none;stroke-opacity:1"
       d="M 108.10718,84.486967 C 107.99313,84.514563 107.83405,84.518162 107.6821,84.486967 C 107.6821,84.486967 106.0437,84.486967 106.0437,84.486967 C 105.91367,84.528936 105.71842,84.536722 105.60416,84.486967 C 105.25953,83.278961 105.72031,82.070505 106.85566,81.603575 C 108.10666,82.118056 108.46985,83.215738 108.10718,84.486967 z"
       id="path7163"
       sodipodi:nodetypes="cssccc" />
    <path
       sodipodi:nodetypes="cssccc"
       id="path7165"
       d="M 105.17338,84.486967 C 105.04046,84.514563 104.85508,84.518162 104.67801,84.486967 C 104.67801,84.486967 102.7686,84.486967 102.7686,84.486967 C 102.61705,84.528936 102.38952,84.536722 102.25636,84.486967 C 101.85472,83.278961 102.39171,82.070505 103.71488,81.603575 C 105.17276,82.118056 105.59605,83.215738 105.17338,84.486967 z"
       style="fill:#ffffff;fill-opacity:1;fill-rule:evenodd;stroke:#000000;stroke-width:0.5;stroke-linecap:butt;stroke-linejoin:miter;stroke-miterlimit:4;stroke-dasharray:none;stroke-opacity:1" />
  </g>
  <g
     id="g7139"
     transform="translate(-229.04952,-109.375)">
    <path
       sodipodi:nodetypes="csccscc"
       id="path7121"
       d="M 316.36134,280.79102 C 315.60077,280.79102 314.99024,281.40155 314.99024,282.16211 C 314.99024,282.92266 315.60077,283.53711 316.36134,283.53711 L 341.63477,283.53711 C 342.39534,283.53711 343.00978,282.92266 343.00977,282.16211 C 343.00977,281.40155 342.39534,280.79102 341.63477,280.79102 L 316.36134,280.79102 z"
       style="fill:#ffffff;fill-opacity:1;fill-rule:nonzero;stroke:#000000;stroke-width:0.5;stroke-linecap:round;stroke-linejoin:round;stroke-miterlimit:4;stroke-dasharray:none;stroke-dashoffset:0;stroke-opacity:1" />
    <path
       sodipodi:nodetypes="ccccc"
       id="path7125"
       d="M 318.1543,278.4004 C 318.98345,279.22963 318.39852,280.7754 316.69727,280.7754 L 341.30274,280.7754 C 339.6015,280.7754 339.01266,279.22963 339.8418,278.4004 L 318.1543,278.4004 z"
       style="fill:#ffffff;fill-opacity:1;fill-rule:nonzero;stroke:#000000;stroke-width:0.5;stroke-linecap:round;stroke-linejoin:round;stroke-miterlimit:4;stroke-dashoffset:0;stroke-opacity:1" />
    <path
       sodipodi:nodetypes="csccscc"
       id="path7131"
       d="M 318.20899,276.07617 C 317.56271,276.07617 317.04493,276.59616 317.04493,277.24023 C 317.04493,277.8843 317.56271,278.4004 318.20899,278.4004 L 339.47462,278.4004 C 340.12089,278.4004 340.64258,277.8843 340.64259,277.24023 C 340.64259,276.59616 340.12089,276.07617 339.47462,276.07617 L 318.20899,276.07617 z"
       style="fill:#ffffff;fill-opacity:1;fill-rule:nonzero;stroke:#000000;stroke-width:0.5;stroke-linecap:round;stroke-linejoin:round;stroke-miterlimit:4;stroke-dasharray:none;stroke-dashoffset:0;stroke-opacity:1" />
  </g>
  <use
     x="0"
     y="0"
     xlink:href="#g7214"
     id="use7220"
     transform="translate(-33.947698,0)"
     width="200"
     height="240" />
  <use
     x="0"
     y="0"
     xlink:href="#g7214"
     id="use7218"
     transform="translate(-16.973847,0)"
     width="200"
     height="240" />
  <g
     id="g7214"
     transform="matrix(0.8699172,0,0,0.8699172,8.4811019,24.360568)">
    <path
       id="path7208"
       d="M 65,180 L 65,140"
       style="opacity:1;fill:#ffffff;fill-opacity:1;stroke:#edd400;stroke-width:6.89720821;stroke-linecap:square;stroke-linejoin:bevel;marker:none;stroke-miterlimit:4;stroke-dasharray:none;stroke-dashoffset:0;stroke-opacity:1;visibility:visible;display:inline;overflow:visible;enable-background:accumulate" />
    <path
       sodipodi:nodetypes="cccccsscccccc"
       id="path7212"
       d="M 66.375,95.375 C 70.625,95.375 70.375,97.25 71.375,99.625 C 79.186229,100.69038 81.39199,108.87281 80.125,115.75 C 84.064242,120.66459 84.752155,127.98891 80.625,133.125 C 82.191754,138.21555 80.268339,144.07202 76.125,147.375 C 76.5,152.25 73.375,153.75 70.375,155.75 C 67.375,157.75 60.625,156.625 58.375,155.125 C 56.125,153.625 56.375,150.625 54.125,147.625 C 50.997004,147.1289 48.912217,141.66195 50.625,136.375 C 46.153544,131.27063 45.668126,126.65253 49.875,121.125 C 48.661684,116.18806 48.515444,111.51937 53.625,109.125 C 52.962069,104.0885 55.154468,99.273692 60.875,100.125 C 62.875,97.75 62.625,95.125 66.375,95.375 z"
       style="opacity:1;fill:#4e9a06;fill-opacity:1;stroke:#edd400;stroke-width:2.2990694;stroke-linecap:square;stroke-linejoin:bevel;marker:none;stroke-miterlimit:4;stroke-dasharray:none;stroke-dashoffset:0;stroke-opacity:1;visibility:visible;display:inline;overflow:visible;enable-background:accumulate" />
  </g>
  <use
     x="0"
     y="0"
     xlink:href="#use7220"
     id="use7222"
     transform="matrix(-1,0,0,1,200.1977,0)"
     width="200"
     height="240" />
  <use
     x="0"
     y="0"
     xlink:href="#use7218"
     id="use7224"
     transform="matrix(-1,0,0,1,200.1977,0)"
     width="200"
     height="240" />
  <use
     x="0"
     y="0"
     xlink:href="#g7214"
     id="use7226"
     transform="matrix(-1,0,0,1,200.1977,0)"
     width="200"
     height="240" />
</svg>
