<?xml version="1.0" encoding="UTF-8" standalone="no"?>
<!DOCTYPE svg PUBLIC "-//W3C//DTD SVG 1.1//EN" "http://www.w3.org/Graphics/SVG/1.1/DTD/svg11.dtd">
<svg width="100%" height="100%" viewBox="0 0 219 277" version="1.1" xmlns="http://www.w3.org/2000/svg" xmlns:xlink="http://www.w3.org/1999/xlink" xml:space="preserve" xmlns:serif="http://www.serif.com/" style="fill-rule:evenodd;clip-rule:evenodd;stroke-linecap:round;stroke-linejoin:round;stroke-miterlimit:2.613;">
    <g transform="matrix(1.33333,0,0,1.33333,-312.683,-363.375)">
        <clipPath id="_clip1">
            <path d="M238.775,293.247L238.761,311.457L238.758,314.679C239.393,315.475 239.988,316.266 240.564,317.054C241.427,318.238 242.23,319.414 242.964,320.577C244.076,322.338 245.042,324.074 245.88,325.784C259.501,353.58 238.712,374.306 238.712,374.306C238.712,374.306 238.671,424.433 238.663,435.102C238.655,445.77 240.538,458.34 260.05,458.356C278.251,458.37 284.076,458.375 291.065,458.38C291.896,458.381 292.782,458.366 293.701,458.35C298.387,458.271 303.982,458.193 308.148,460.269C312.967,462.67 315.694,468.339 316.199,475.499C316.714,468.339 319.451,462.676 324.273,460.282C329.259,457.806 336.287,458.417 341.357,458.421C348.348,458.426 354.172,458.431 372.373,458.446C391.886,458.461 393.79,445.894 393.798,435.226C393.807,424.557 393.845,374.43 393.845,374.43C393.845,374.43 373.046,353.629 386.794,325.812C387.638,324.105 388.612,322.372 389.729,320.615C390.468,319.454 391.271,318.282 392.138,317.101C392.698,316.338 393.277,315.573 393.892,314.803L393.895,311.483L393.91,293.288L393.923,276.806C393.923,276.806 342.109,276.765 334.149,276.759C320.936,276.747 316.833,283.839 316.387,289.274L316.304,289.274C315.867,283.839 311.774,276.74 298.561,276.729C290.603,276.723 238.789,276.682 238.789,276.682L238.775,293.247Z" clip-rule="nonzero"/>
        </clipPath>
        <g clip-path="url(#_clip1)">
            <g transform="matrix(1,0,0,1,0,-33.579)">
                <path d="M396.328,310.002L325.6,310.002C324.162,309.958 321.798,311.282 320.566,312.256C319.004,313.457 317.491,315.497 316.284,318.125C315.138,315.546 313.6,313.447 311.994,312.268C310.898,311.324 308.667,309.98 306.937,310.002L236.257,310.002L236.257,356.389C243.192,361.213 247.748,369.255 247.748,378.331C247.748,387.408 243.192,395.449 236.257,400.272L236.257,480.394C236.841,484.038 238.414,486.782 241.42,489.517C244.163,491.65 246.727,493.517 250.183,494.05L304.196,494.081C306.128,494.234 309.063,495.254 312.19,499.476C314.364,502.656 315.453,505.688 316.363,508.818C317.236,505.578 318.159,502.662 320.46,499.42C322.991,495.351 326.262,494.101 328.452,494.05L378.603,494.05C382.942,493.445 387.176,491.345 390.553,489.03C394.047,486 395.936,482.65 396.328,479.299L396.328,400.253C389.756,395.337 385.48,387.434 385.48,378.549C385.48,369.664 389.756,361.761 396.328,356.845L396.328,310.002Z" style="fill:rgb(227,13,19);stroke:rgb(33,34,34);stroke-width:0.36px;"/>
            </g>
            <g transform="matrix(1,0,0,1,0,-33.535)">
                <path d="M396.328,309.958L359.74,310.36L316.293,362.046L268.271,310.36L236.257,309.958L236.257,343.668L293.426,402.246L293.426,494.13L304.196,494.037C306.128,494.19 309.063,495.209 312.19,499.432C314.364,502.612 315.453,505.644 316.363,508.774C317.236,505.534 318.159,502.618 320.46,499.376C322.991,495.307 326.262,494.057 328.452,494.006C331.714,494.006 335.895,494.13 339.16,494.13L339.16,402.246L396.328,343.668L396.328,309.958Z" style="fill:rgb(157,172,172);stroke:rgb(33,34,34);stroke-width:0.2px;"/>
            </g>
            <g transform="matrix(1,0,0,1,0,-36.725)">
                <path d="M391.353,347.999L391.353,316.142L361.675,316.142L319.205,366.664C318.502,367.5 317.476,367.994 316.387,368.022C316.355,368.022 316.324,368.023 316.292,368.023C315.237,368.023 314.227,367.583 313.505,366.805L266.433,316.142L241.511,316.142L241.511,348.284L295.229,403.326C295.928,404.042 296.32,405.004 296.32,406.007L296.32,492.426C296.32,492.426 314.853,491.38 316.293,505.78C317.51,491.38 336.266,492.426 336.266,492.426L336.266,406.007C336.266,405.004 336.657,404.042 337.356,403.326L391.353,347.999Z" style="fill:rgb(214,216,213);fill-rule:nonzero;"/>
            </g>
            <g transform="matrix(1,0,0,1,0,-65.555)">
                <path d="M324.143,410.829C323.839,411.587 323.612,412.094 323.255,412.403C323.025,412.576 322.673,412.748 322.221,412.499C321.734,412.652 321.453,412.708 320.705,412.557C320.647,412.614 319.759,413.907 319.759,414.885C320.538,415.789 320.961,416.041 321.536,416.803C322.806,417.411 323.498,417.385 323.895,417.385C324.01,417.269 325.059,417.833 326.031,416.857C326.088,416.742 327.137,415.552 327.873,414.507C328.321,413.79 329.199,412.815 329.334,412.368C329.952,411.393 330.862,410.207 330.777,409.704C330.776,409.709 324.182,410.771 324.143,410.829M327.125,428.671C326.104,427.889 326.118,428.041 325.246,428.841C324.903,428.569 324.439,429.159 323.818,429.255C323.031,429.406 323.4,431.141 323.849,430.754C323.849,430.869 323.84,431.731 324.502,431.238C324.732,431.295 324.725,431.501 325.011,431.559C325.125,431.616 325.534,431.583 325.706,431.699L325.878,431.699C326.108,431.526 326.337,431.809 326.567,431.636C327.889,431.128 328.103,430.058 327.458,430.306C327.516,430.052 327.741,428.626 327.125,428.671M314.91,460.529C314.853,460.068 314.374,457.241 314.26,456.722C314.202,456.492 313.942,454.148 313.827,453.312C313.654,450.95 313.776,450.514 313.604,448.095C312.949,448.095 310.393,449.953 309.821,450.336C308.683,450.716 308.235,451.345 307.112,451.977C307.114,451.978 305.643,453.115 305.644,453.116C305.385,453.509 304.953,455.719 304.869,456.267C304.683,458.294 305.149,459.358 303.808,457.907C303.835,457.786 303.112,455.851 303.083,454.668C303.057,453.615 302.708,453.727 302.48,452.9C301.751,452.269 304.791,451.632 304.357,451.395C304.622,451.125 306.366,450.06 306.882,449.516C307.4,448.973 309.608,447.16 310.153,446.633C310.84,445.576 312.293,445.207 313.328,444.651C313.099,443.96 312.692,442.5 312.405,441.752C312.305,441.043 311.926,439.804 311.423,439.298C311.423,439.183 311.261,438.935 310.762,437.875C310.704,437.76 310.386,437.197 310.272,437.024C310.158,436.492 309.905,437.262 308.066,436.636C307.627,436.616 305.905,435.029 306.493,434.42C306.038,434.473 305.08,434.103 304.341,433.271C303.703,432.733 306.126,433.039 307.598,432.339C308.853,431.893 307.554,432.066 309.212,431.468C310.063,430.372 311.137,429.661 311.479,428.809C312.402,427.737 312.996,426.8 313.29,425.857C313.405,425.627 313.637,423.035 313.809,422.747C313.752,422.459 313.405,420.926 313.196,419.698C313.138,419.64 312.119,418.716 311.532,418.598C309.794,419.097 309.801,418.008 309.086,417.718C308.627,417.776 307.948,418.917 307.431,419.032C307.374,419.32 307.175,419.75 307.061,420.095C307.003,420.095 305.098,420.828 305.965,420.632C305.391,420.69 305.348,420.494 304.717,420.552C304.66,421.128 304.603,421.704 304.488,422.28C304.374,422.511 304.258,422.741 304.086,423.029C303.972,423.145 303.8,423.26 303.628,423.433C303.425,423.738 302.879,423.959 302.551,424.124C301.69,424.182 301.334,424.239 300.474,424.297C300.302,424.412 300.13,424.528 299.958,424.7C299.843,424.872 299.671,425.045 299.499,425.218C298.379,425.593 298.61,426.025 297.09,426.025C296.804,426.198 296.516,426.37 296.173,426.601C296.001,426.774 295.829,426.947 295.657,427.119C295.599,427.292 295.485,427.465 295.37,427.696C295.255,427.753 295.083,427.868 294.911,427.984C294.624,427.984 294.001,428.405 293.714,428.348C293.829,427.944 294.28,427.062 294.452,426.601C294.973,425.686 296.687,423.095 296.86,422.399C297.09,422.226 297.761,420.37 297.991,420.139C298.22,419.621 298.45,419.193 298.736,418.617C298.891,418.329 299.148,417.06 299.569,415.79C300.15,414.363 300.145,413.873 300.858,412.249C301.426,411.169 301.859,409.793 301.954,409.538C301.896,409.25 300.072,407.187 300.015,406.899C299.785,406.553 299.556,406.15 299.269,405.747C298.925,405.459 298.582,405.171 298.18,404.883C297.243,403.565 295.808,401.578 294.682,400.447C294.567,400.101 294.452,399.755 294.28,399.41C291.847,397.78 292.464,397.505 290.954,395.377C290.896,395.377 290.84,395.32 290.782,395.262C290.782,394.603 289.038,391.561 288.718,390.596C288.718,390.193 288.718,389.789 288.66,389.328C288.66,388.579 287.924,385.465 287.982,384.658C288.012,383.922 288.021,383.189 289.309,385.34C289.595,385.455 290.97,386.663 291.313,386.836C291.313,386.836 292.344,388.077 292.401,388.135C294.189,388.733 293.579,389.113 294.911,389.559C295.583,390.098 297.854,391.601 298.638,391.863C298.753,391.979 298.868,392.094 299.04,392.267C299.385,392.497 299.785,392.728 300.187,393.015C301.442,394.277 303.4,394.572 304.832,396.011C304.889,396.126 305.005,396.299 305.119,396.472C305.752,396.631 309.213,398.072 309.42,398.488C309.823,398.589 310.217,398.657 310.567,398.891C310.797,398.891 311.083,398.891 311.37,398.949C311.427,399.006 311.542,399.064 311.656,399.179C312.345,399.179 313.033,399.179 313.72,399.237C313.72,399.237 313.778,399.294 313.836,399.352L316.588,399.352C316.761,399.467 316.932,399.582 317.104,399.755C317.161,400.044 317.276,400.332 317.391,400.677C317.449,401.196 317.506,401.714 317.62,402.291L317.62,403.04C317.391,403.327 317.161,403.616 316.932,403.904C316.527,404.039 316.09,404.294 315.728,404.538C315.67,404.595 315.614,404.653 315.556,404.71C315.327,404.768 315.097,404.826 314.867,404.94C314.753,404.999 314.581,405.113 314.409,405.228C313.901,405.995 313.169,405.516 312.928,406.488C311.625,407.796 312.23,408.306 312.098,408.703C312.098,409.452 312.305,409.697 312.361,410.503C312.534,410.619 312.412,411.621 312.584,411.794C312.64,411.794 314.118,412.494 314.233,412.551C314.347,412.494 314.125,411.097 314.24,411.039C314.455,409.882 315.502,410.171 315.873,409.625C315.988,409.625 315.722,408.977 316.082,407.583C316.234,407.583 317.229,406.456 317.34,406.124C317.57,405.836 318.163,405.255 318.449,404.909C318.85,404.736 319.217,404.29 319.619,404.059C319.865,403.912 319.828,404.052 320.587,403.937C321.094,403.937 321.924,403.849 322.323,404.249C322.438,404.307 322.553,404.365 322.724,404.422C322.896,404.595 323.582,404.989 323.812,405.161C324.127,405.481 324.319,406.14 324.324,406.773C324.475,407.098 324.47,408.019 324.359,408.693C324.288,409.122 324.107,409.8 324.231,409.788C324.355,409.79 329.53,409.166 331.515,408.213C332.74,407.625 332.079,407.58 334.484,407.067C335.271,406.9 335.947,407.206 336.353,407.147C338.722,406.794 348.29,404.368 348.754,404.255C348.812,404.197 351.272,403.548 351.624,402.546C352.214,402.206 353.495,400.856 353.552,399.968C353.667,400.545 353.634,400.677 353.807,401.253C354.036,402.866 354.103,403.226 354.389,404.897C354.389,405.185 354.683,406.844 354.741,407.132C353.58,406.392 353.106,405.454 351.715,405.106C351.428,405.106 349.541,405.396 349.197,405.339C347.867,405.783 346.155,406.209 344.828,406.553C345.16,408.517 345.375,411.013 345.746,413.121C345.746,413.532 345.859,414.332 345.918,414.75C345.173,414.75 345.517,414.429 344.772,414.486C344.714,414.544 343.64,414.096 343.583,414.211C343.41,414.269 343.019,414.474 342.789,414.531C342.188,414.981 341.417,415.289 340.744,415.515C340.458,413.096 340.114,410.38 339.77,407.903C339.1,408.008 336.207,408.488 335.372,408.708C334.49,410.105 333.409,410.372 333.016,410.543C332.73,410.946 331.403,412.602 331.059,413.063C330.598,413.689 329.841,414.651 329.721,415.294C328.935,416.756 328.773,417.641 327.657,418.882C327.14,419.399 327.233,419.521 326.532,419.804C326.532,419.804 325.754,420.056 324.723,420.114C323.92,420.229 323.202,420.091 322.399,420.206C322.254,420.957 322.295,421.389 321.591,422.743C321.487,423.436 321.346,422.984 321.399,423.985C321.57,424.158 322.173,425.343 322.403,425.574C322.459,425.689 323.387,426.988 323.847,426.891C323.903,426.948 324.697,427.006 324.812,427.064C324.32,426.864 326.033,426.826 326.152,427.017C326.687,426.779 327.349,427.261 328.173,427.839C328.23,427.954 328.287,428.127 328.345,428.3C328.516,428.473 328.688,428.646 328.86,428.819C328.86,430.365 328.745,432.529 326.854,432.909C326.634,433.129 326.024,433.024 325.706,433.024C325.648,432.966 325.592,432.909 325.477,432.851C325.248,432.909 325.018,432.966 324.732,433.024C323.315,433.024 321.75,431.071 322.209,429.625C322.209,429.199 322.159,428.861 322.442,428.531L322.438,428.531C322.323,428.415 322.209,428.3 322.036,428.127C321.922,428.127 321.538,427.319 321.424,427.319C321.366,427.376 321.467,427.098 320.463,426.716C320.405,426.774 320.176,428.131 320.061,428.477C320.016,428.895 319.392,431.804 318.825,432.4C318.557,433.476 318.556,433.908 318.498,434.773C318.724,435.478 318.414,436.586 318.398,437.782C318.398,439.222 318.412,440.715 318.356,442.213C318.24,442.962 318.191,443.711 318.02,444.459C317.589,445.325 317.806,445.999 317.391,446.936C317.391,447.167 316.95,450.947 316.892,451.235C316.892,451.293 317.276,447.858 317.22,447.974C317.161,450.221 316.9,451.58 316.785,453.827C316.729,453.884 316.817,454.887 316.761,455.002C316.761,455.636 316.703,456.27 316.646,456.903C316.582,457.286 316.537,457.673 316.473,458.055C316.642,459.131 316.297,459.317 316.638,460.344C316.752,460.632 316.72,461.569 316.892,461.914C317.998,465.805 318.5,464.863 317.76,464.119C318.378,465.67 318.87,465.782 318.9,466.611C318.628,466.559 318.554,467.563 316.681,466.025C315.95,465.515 316.63,466.041 315.423,464.43C315.365,464.43 315.16,463.839 315.103,463.781C315.046,463.723 314.778,463.625 314.721,463.509C314.548,463.452 314.309,463.134 313.968,462.767C314.054,461.796 313.839,462.579 314.91,460.529" style="fill:rgb(33,34,34);"/>
            </g>
            <g transform="matrix(1,0,0,1,396.328,475.195)">
                <path d="M0,-198.772L-70.728,-198.772C-72.166,-198.816 -74.53,-197.492 -75.762,-196.518C-77.324,-195.317 -78.837,-193.277 -80.044,-190.649C-81.19,-193.228 -82.728,-195.327 -84.334,-196.506C-85.43,-197.45 -87.661,-198.794 -89.391,-198.772L-160.071,-198.772L-160.071,-152.385C-153.136,-147.561 -148.58,-139.519 -148.58,-130.443C-148.58,-121.366 -153.136,-113.325 -160.071,-108.502L-160.071,-28.38C-159.487,-24.736 -157.914,-21.992 -154.908,-19.257C-152.165,-17.124 -149.601,-15.257 -146.145,-14.724L-92.132,-14.693C-90.2,-14.54 -87.265,-13.52 -84.138,-9.298C-81.964,-6.118 -80.875,-3.086 -79.965,0.044C-79.092,-3.196 -78.169,-6.112 -75.868,-9.354C-73.337,-13.423 -70.066,-14.673 -67.876,-14.724L-17.725,-14.724C-13.386,-15.329 -9.152,-17.429 -5.775,-19.744C-2.281,-22.774 -0.392,-26.124 0,-29.475L0,-108.521C-6.572,-113.437 -10.848,-121.34 -10.848,-130.225C-10.848,-139.11 -6.572,-147.013 0,-151.929L0,-198.772Z" style="fill:none;fill-rule:nonzero;stroke:rgb(33,34,34);stroke-width:0.36px;"/>
            </g>
        </g>
    </g>
    <g transform="matrix(1.33333,0,0,1.33333,132.849,270.522)">
        <path d="M0,-198.665C-13.212,-198.676 -17.316,-191.584 -17.762,-186.149L-17.844,-186.149C-18.282,-191.585 -22.374,-198.683 -35.587,-198.693C-43.547,-198.7 -95.361,-198.741 -95.361,-198.741L-95.374,-182.176L-95.388,-163.967L-95.39,-160.744C-94.755,-159.948 -94.161,-159.157 -93.586,-158.369C-92.721,-157.185 -91.919,-156.01 -91.185,-154.846C-90.073,-153.086 -89.107,-151.349 -88.269,-149.64C-74.648,-121.844 -95.438,-101.117 -95.438,-101.117C-95.438,-101.117 -95.478,-50.99 -95.486,-40.322C-95.494,-29.653 -93.611,-17.084 -74.1,-17.068C-55.898,-17.052 -50.073,-17.048 -43.084,-17.043C-38.012,-17.039 -30.983,-17.639 -26,-15.154C-21.182,-12.752 -18.454,-7.085 -17.95,0.076C-17.435,-7.085 -14.698,-12.747 -9.876,-15.141C-4.89,-17.618 2.139,-17.007 7.21,-17.003C14.199,-16.998 20.024,-16.992 38.226,-16.977C57.737,-16.963 59.64,-29.529 59.649,-40.198C59.657,-50.866 59.696,-100.994 59.696,-100.994C59.696,-100.994 38.897,-121.795 52.646,-149.611C53.489,-151.317 54.463,-153.051 55.58,-154.808C56.319,-155.97 57.122,-157.141 57.989,-158.323C58.55,-159.085 59.127,-159.85 59.744,-160.62L59.746,-163.939L59.761,-182.135L59.774,-198.617C59.774,-198.617 7.96,-198.659 0,-198.665Z" style="fill:none;fill-rule:nonzero;stroke:rgb(33,34,34);stroke-width:0.83px;stroke-linecap:butt;stroke-linejoin:miter;stroke-miterlimit:10;"/>
    </g>
</svg>
