<?xml version="1.0" encoding="UTF-8" standalone="no"?>
<!-- Created with Inkscape (http://www.inkscape.org/) -->

<svg
   width="100.88037mm"
   height="124.77164mm"
   viewBox="0 0 100.88037 124.77164"
   version="1.1"
   id="svg5"
   xml:space="preserve"
   inkscape:version="1.2.1 (9c6d41e410, 2022-07-14)"
   sodipodi:docname="Курлово.svg"
   xmlns:inkscape="http://www.inkscape.org/namespaces/inkscape"
   xmlns:sodipodi="http://sodipodi.sourceforge.net/DTD/sodipodi-0.dtd"
   xmlns="http://www.w3.org/2000/svg"
   xmlns:svg="http://www.w3.org/2000/svg"><sodipodi:namedview
     id="namedview7"
     pagecolor="#ffffff"
     bordercolor="#000000"
     borderopacity="0.25"
     inkscape:showpageshadow="2"
     inkscape:pageopacity="0.0"
     inkscape:pagecheckerboard="0"
     inkscape:deskcolor="#d1d1d1"
     inkscape:document-units="mm"
     showgrid="false"
     inkscape:zoom="1"
     inkscape:cx="-83"
     inkscape:cy="269.5"
     inkscape:window-width="1920"
     inkscape:window-height="991"
     inkscape:window-x="-9"
     inkscape:window-y="-9"
     inkscape:window-maximized="1"
     inkscape:current-layer="layer1"
     showguides="true" /><defs
     id="defs2" /><g
     inkscape:label="Слой 1"
     inkscape:groupmode="layer"
     id="layer1"
     transform="translate(-54.615517,-76.108201)"><g
       id="g2023"
       transform="translate(-5.291667,-8.2020833)"><path
         style="fill:#fff100;fill-opacity:1;stroke:none;stroke-width:0.600001;stroke-linecap:round;stroke-dasharray:none;stroke-opacity:1"
         d="m 60.24255,84.797939 0.374179,107.155031 c 1.180418,2.94785 4.272069,4.91786 7.296457,6.92228 l 32.740514,-0.56126 c 5.57605,1.90132 9.25986,5.04239 9.72861,10.28987 0.5724,-5.76032 4.59365,-7.67715 9.49613,-9.71726 l 33.04967,0.42083 c 2.48533,-1.15636 4.86466,-2.41209 6.36687,-4.49012 z"
         id="path7406"
         sodipodi:nodetypes="ccccccccc" /><path
         style="fill:#00aeef;fill-opacity:1;stroke:none;stroke-width:0.600001;stroke-linecap:round;stroke-dasharray:none;stroke-opacity:1"
         d="m 60.195779,84.704393 98.876361,110.195227 1.26285,-4.02241 -0.14032,-106.009114 z"
         id="path5617" /><path
         style="fill:none;fill-opacity:1;stroke:#6e7171;stroke-width:0.6;stroke-linecap:round;stroke-dasharray:none;stroke-opacity:1"
         d="m 60.20825,84.610848 100.09221,0.18709 0.18709,105.518002 c 0.006,3.4849 -3.25737,8.60608 -7.85773,8.60608 h -32.55343 c -5.52385,1.34006 -8.69465,4.77171 -9.72861,10.10279 -0.81071,-5.55031 -3.92887,-9.04262 -9.35443,-10.47697 l -32.179068,0.18709 c -2.253128,0.0131 -8.215892,-3.91104 -8.231852,-8.41899 z"
         id="path5559"
         sodipodi:nodetypes="ccsscccssc" /><g
         id="g5495"
         transform="translate(8.6060777,-97.660285)"><path
           id="path5412"
           style="fill:#e8e9ea;stroke-width:0.2;stroke-linecap:round"
           d="m 106.55912,190.56889 c -1.15606,-0.0173 -1.06992,0.44741 1.94407,3.25923 1.67011,1.22715 2.13689,1.38822 3.32021,3.38533 0.71651,1.20918 1.67851,3.94817 1.73271,6.01617 0.10615,4.05172 0.61945,6.45892 1.38751,1.14205 0.19322,-1.33763 -0.43724,-4.31173 -1.08985,-6.02083 -0.84222,-2.03415 -2.75202,-5.8296 0.19016,-1.09657 0.87884,1.72268 1.94692,5.11086 1.71049,7.30601 -0.4542,4.21808 0.4685,7.78837 1.27693,6.97994 0.39085,-0.39084 0.73374,-4.16456 0.99115,-6.04253 0.45032,-3.28535 0.30447,-3.90002 -2.15594,-9.06818 -0.46546,-0.97761 -1.94071,-2.70821 -3.27422,-3.58996 -0.6027,-0.39852 -2.17236,-1.98984 -4.5253,-2.16214 -0.5989,-0.0438 -1.12257,-0.10276 -1.50792,-0.10852 z m 11.97188,3.16208 c -0.31795,0.0556 1.16416,3.15243 0.39429,8.56485 -1.51091,10.6224 -0.76296,11.17644 0.58704,8.0269 0.47759,-0.65275 0.5702,-4.69495 0.4806,-6.53035 -0.47051,-9.64371 0.93238,-5.67608 0.96118,-1.9792 0.0138,1.77575 0.42426,6.93306 -0.10387,8.41292 -1.2084,3.38603 0.0153,3.56087 1.41852,0.20257 1.65792,-3.96819 1.36303,-11.17239 -0.57465,-14.03222 -0.88792,-1.31049 -2.73231,-2.53406 -3.12694,-2.66133 -0.0141,-0.005 -0.0259,-0.006 -0.0362,-0.004 z m -55.434347,0.36019 c -0.20617,0.0576 0.704585,1.64939 0.853695,2.10839 4.735245,5.50743 9.738828,11.2385 13.024011,15.43834 0,2.16174 2.978627,6.62414 5.628077,7.68428 1.57385,0.62973 3.65309,1.34616 4.0566,2.10013 0.97817,1.82773 3.02337,2.64849 2.40554,0.96532 -0.24612,-0.6705 -0.85117,-1.46366 -1.34462,-1.76268 -0.49345,-0.29902 -0.96099,-1.89848 -1.757,-3.22926 -1.98327,-3.31567 -1.30273,-4.10519 -5.80171,-6.29368 -4.279619,-2.64891 -10.077286,-11.26271 -17.064593,-17.01084 z m 62.894877,3.46593 -0.99581,5.67356 c -0.55443,3.15705 -1.63618,7.01405 -2.40347,8.57105 -0.7673,1.55699 -1.26395,2.96155 -1.10433,3.12126 0.71468,0.71468 2.15638,-1.09708 4.10053,-5.15214 0.93498,-1.95021 1.43198,-4.92435 1.47588,-5.62808 -0.0707,0.1004 -0.11338,0.1404 -0.0388,-0.10697 0.0417,-0.13868 0.0492,-0.0601 0.0388,0.10697 0.13599,-0.19303 0.41186,-0.68779 0.41186,-0.34572 0,0.52002 -1.71016,7.78518 -3.09128,9.83765 -1.38122,2.05238 -2.51148,4.08516 -2.51148,4.51755 0,1.35582 6.40266,-6.35972 6.62027,-8.35608 0.30961,-2.84048 0.27945,-5.43827 -0.0274,-7.10396 -0.14559,-0.79055 -0.95799,-1.56959 -1.25677,-2.43344 z m 5.42499,6.4239 c -0.61512,0.044 -0.0335,1.22215 -0.18035,1.76062 -0.99073,3.63234 -3.5999,8.58106 -6.26319,11.53831 -1.72692,1.91762 -2.18704,2.74923 -1.24385,2.24793 2.99836,-1.80459 6.6185,-6.28495 8.33799,-8.71627 0.72661,0.72661 -2.86581,5.41049 -5.51801,7.73906 -1.41502,1.24248 -2.35756,2.25878 -2.09444,2.25878 2.80584,-0.32194 6.18597,-4.21735 7.95972,-6.39031 0.36124,-0.39329 0.50201,-0.99917 0.82837,-1.38751 0.0241,-0.26704 0.0821,-0.69316 0.17932,-1.34565 0.21326,-1.43117 -0.41844,-4.5422 -0.8847,-5.67614 0,0 -0.3796,-2.08182 -1.12086,-2.02882 z m -18.42007,3.19567 c -0.15833,0 -0.43893,1.03073 -0.62373,2.28978 -0.25086,1.70928 0.0697,2.69491 1.26504,3.89021 0.88052,0.88052 2.65757,3.15956 3.94859,5.0648 2.18465,3.22394 2.982,6.56842 3.53105,14.80789 0.0213,0.31927 0.3614,0.38085 0.75603,0.13694 0.39463,-0.24389 0.71779,-2.49695 0.71779,-5.00641 0,-5.25586 -0.57044,-7.50019 -1.52394,-5.99602 -0.39274,0.61958 -0.61053,-0.004 -0.61753,-1.7694 -0.0126,-3.12424 -2.27048,-8.16053 -2.71818,-6.0632 -0.42406,1.98625 -1.59794,1.4604 -1.60094,-0.71727 -0.002,-1.71439 -2.32694,-6.63732 -3.13418,-6.63732 z m 23.00635,4.72529 c -0.2814,-0.042 -0.88649,0.58971 -2.11098,2.05931 -3.44119,4.13002 -5.62216,6.11234 -8.43049,7.66155 -1.84,1.01498 -2.03208,1.25881 -0.71779,0.9126 3.2315,-0.8511 5.57422,-2.3699 7.89719,-5.11906 2.22926,-2.63835 2.25778,-2.64925 1.15497,-0.43719 -1.37236,2.75284 -3.99545,4.90646 -7.30963,6.00015 -1.36019,0.44891 -2.28911,1.1142 -2.06396,1.47847 0.49817,0.80606 3.67905,0.13624 5.88233,-1.23869 0.88792,-0.5541 1.61437,-0.78847 1.61437,-0.52089 0,0.26749 0.63804,-0.091 1.418,-0.79686 0.77995,-0.70576 1.25425,-1.54926 1.05369,-1.87378 -0.20056,-0.32452 0.12982,-1.7737 0.73432,-3.22048 0.60449,-1.44678 1.09916,-3.30828 1.09916,-4.13721 0,-0.47483 -0.0523,-0.74272 -0.22118,-0.76792 z m -25.17262,0.1478 c -0.0354,1.56245 -0.47909,3.94776 -0.5948,5.73608 0.0427,2.4806 0.29741,5.22509 0.56586,6.09886 0.26847,0.87378 0.23574,1.34995 -0.0718,1.05833 -0.30776,-0.2916 -0.81431,-1.7446 -1.12603,-3.22874 -0.32871,-1.56517 -0.46077,-2.16615 -0.45889,-1.74615 0.23443,0.91103 0.29013,1.75716 0.19327,2.51716 0.15999,1.81098 0.48021,4.87534 0.73536,7.01094 0.61291,5.13 -0.32785,7.09879 -3.39308,7.09879 -1.85275,0 -3.42659,-1.17773 -9.348784,-6.99595 -3.91644,-3.84765 -6.88255,-6.37479 -6.59133,-5.61568 0.43675,1.13849 0.29503,1.29015 -0.81029,0.8661 -1.22727,-0.47098 -1.24741,-0.40583 -0.23719,0.77256 8.73308,10.18681 11.373474,13.9627 11.373474,16.26722 0,3.1545 -5.328834,4.31404 -10.293434,2.23966 -1.41673,-0.59194 -3.15127,-1.05595 -3.85455,-1.03095 -1.00732,0.0358 -0.93641,0.18342 0.33538,0.69453 0.88792,0.3569 1.61437,0.77727 1.61437,0.93431 0,0.42373 -5.35266,-0.63271 -6.35981,-1.25522 -1.17544,-0.72646 -6.862219,0.27843 -6.068368,1.07229 0.343351,0.34336 1.907798,1.09429 3.476788,1.66863 2.06396,0.75552 2.40619,1.05791 1.23817,1.09451 -0.88793,0.0278 -1.61437,0.31356 -1.61437,0.6351 0,0.80795 4.72201,2.98755 6.66161,3.07475 1.48308,0.0667 1.46949,0.10537 -0.20361,0.57723 -1.77,0.49919 -1.76163,0.51751 0.64492,1.36374 1.34145,0.47168 4.40907,0.88025 6.81664,0.90795 3.10973,0.0358 3.9614,0.22906 2.94194,0.66714 -1.17449,0.50469 -0.97894,0.62495 1.07642,0.66405 1.38122,0.0263 3.568604,-0.5967 4.860694,-1.38441 2.97628,-1.81472 3.60363,-1.81817 1.96835,-0.0114 -0.70729,0.78155 -2.29503,1.61034 -3.52847,1.84174 -1.233344,0.23139 -3.045624,1.03801 -4.027144,1.79214 l -1.7849,1.37098 1.63762,0.016 c 2.02979,0.0198 6.435294,-1.78069 8.369004,-3.41995 1.37308,-1.16397 1.39846,-1.16254 0.47697,0.0274 -0.53481,0.69061 -0.64991,1.25574 -0.25528,1.25574 1.08131,0 2.39083,-1.84331 1.78387,-2.51096 -0.29255,-0.32181 0.48717,0.14961 1.7322,1.04748 1.24504,0.89788 2.59493,1.42795 2.99981,1.17771 0.40488,-0.25023 0.92492,-0.14986 1.15549,0.22324 0.24254,0.39249 -0.56866,0.56131 -1.92391,0.40049 -2.16534,-0.25694 -2.23956,-0.20068 -0.98134,0.74518 0.74875,0.56286 1.62692,0.85915 1.95182,0.65835 0.3249,-0.2008 1.49508,0.10256 2.59984,0.67386 1.10474,0.57129 3.45501,1.14925 5.22294,1.28468 3.20448,0.24551 3.21506,0.23864 3.45302,-2.26498 0.13128,-1.38122 -0.16784,-3.80306 -0.66456,-5.38158 -0.49673,-1.57853 -0.83434,-3.38559 -0.75034,-4.01578 0.084,-0.63019 -0.40552,-1.59862 -1.08779,-2.15232 -1.07893,-0.87565 -1.15409,-0.86716 -0.57775,0.0693 0.36446,0.59195 0.71433,2.02321 0.77773,3.18068 0.15631,2.85453 -0.86561,0.89396 -1.47071,-2.82153 -0.39814,-2.44469 -0.23929,-3.01092 1.07074,-3.81992 0.84588,-0.52243 1.32333,-0.60361 1.06143,-0.17984 -0.2619,0.42382 -0.13421,0.77101 0.28371,0.77101 0.81953,0 1.04061,-1.63258 0.31884,-2.35437 -0.24255,-0.24255 -1.29164,0.1023 -2.33164,0.76636 -1.69474,1.0821 -1.65493,0.96638 0.38499,-1.11311 2.00697,-2.04598 4.40132,-7.00521 3.71398,-7.69256 -0.63086,-0.63085 -2.59039,1.68507 -3.60908,4.26538 -0.61687,1.56242 -1.88154,3.33856 -2.81016,3.94653 -1.59214,1.04232 -1.57476,0.95563 0.30179,-1.51878 1.0945,-1.44311 2.17457,-3.8645 2.40037,-5.38106 0.39487,-2.65206 0.36458,-2.7026 -0.7891,-1.3224 -1.17701,1.40813 -1.19099,1.40091 -0.74673,-0.35915 0.24906,-0.98658 0.62083,-2.39065 0.82579,-3.12023 0.20497,-0.72958 0.14846,-2.82141 -0.12557,-4.64881 -0.43721,-2.91553 -0.61031,-3.16987 -1.4118,-2.07377 -0.79966,1.0936 -0.31209,0.38472 -0.63149,-2.44895 -0.20065,-1.78017 -1.47004,-3.28556 -1.98385,-3.94705 -1.42429,-1.83362 -0.52295,-2.77586 -1.4516,0.53796 l -0.47955,1.70945 -0.0713,-1.66139 c -0.0812,-1.8855 -1.33812,-4.5478 -2.50475,-5.30459 z m 25.84803,7.72304 c -0.25199,0.0253 -0.71698,0.44985 -1.52755,1.32447 -0.98494,1.06276 -3.16429,2.5561 -4.84312,3.31814 -1.89866,0.86181 -8.68406,1.24976 -6.0141,2.00608 0.75941,0.21512 6.90657,-1.25037 8.22069,-2.05155 1.31404,-0.80121 2.18195,-1.12036 1.92804,-0.70952 -0.73519,1.18956 -4.5268,2.93164 -7.7804,3.57498 0,0 -3.59556,0.65411 -2.99465,0.59221 1.0351,-0.1066 3.12074,0.0785 3.12074,0.0785 1.7162,0.0432 4.15171,-0.411 5.41259,-1.00924 2.39579,-1.13687 4.7408,-4.34336 4.7408,-6.4823 0,-0.43996 -0.0671,-0.66152 -0.26304,-0.64182 z m -2.60707,0.31936 c 0.037,0.037 -0.17956,0.32811 -0.62581,0.89711 -0.93725,1.19511 -1.52652,1.57496 -1.52652,0.98443 0,-0.14899 0.56513,-0.71413 1.25574,-1.25574 0.56901,-0.44624 0.85959,-0.6628 0.89659,-0.6258 z m 2.50114,5.74022 c -0.2308,0 -1.45316,0.53642 -2.71612,1.19218 -1.26296,0.65576 -3.74889,1.59539 -5.52473,2.08824 -1.77575,0.49284 -6.69651,0.83105 -4.22093,1.00666 0.79067,0.0561 4.97786,-0.29956 6.32985,-0.6873 1.79671,-0.5153 2.24436,-0.49093 1.66398,0.0894 -0.43672,0.43672 -2.67528,1.03418 -4.97437,1.32809 0,0 -3.71521,0.3476 -4.18011,0.53433 -1.22105,0.49045 3.94653,0.0915 3.94653,0.0915 2.77069,0.0642 4.62711,-0.32356 6.23218,-1.30225 2.05001,-1.24998 4.50202,-4.34082 3.44372,-4.34082 z m -3.54501,5.9986 c -2.18182,0.068 -4.68985,1.1354 -4.75785,2.84634 -0.0341,0.85731 -0.15359,3.06117 -0.2651,4.89737 -0.1115,1.83629 0.0545,3.75503 0.36897,4.26383 0.34442,0.55728 0.13472,1.24491 -0.52813,1.72961 -0.60519,0.44252 -1.19856,2.11773 -1.31827,3.72277 -0.18709,2.50854 0.0298,3.03101 1.54461,3.72122 0.96921,0.44161 2.34793,0.80305 3.0639,0.80305 1.92251,0 1.11856,-3.53925 -1.26246,-5.55728 -2.08799,-1.76976 -1.30564,-2.20751 0.92708,-0.51884 1.887,1.42725 2.55385,1.32479 2.55385,-0.39222 0,-0.86091 -0.9434,-2.02026 -2.33216,-2.86701 -1.28257,-0.78199 -1.82854,-1.42372 -1.21336,-1.42472 0.61519,-0.001 1.74457,0.45509 2.5094,1.01441 1.04789,0.76623 1.98287,-0.74818 2.01177,-2.13682 0.003,-0.15961 0.0276,-0.29489 0.063,-0.40463 -0.51924,-0.20829 -1.25382,-0.5285 -2.1115,-0.92604 -3.51421,-1.6289 -3.15877,-2.46967 0.50437,-1.19269 2.97046,1.03556 4.21338,-0.0514 2.37763,-2.07998 -0.7711,-0.85205 -2.21691,-1.4521 -3.49901,-1.4521 -1.44232,0 -1.94342,-0.24147 -1.47433,-0.71056 0.4474,-0.44729 1.54346,-0.47186 2.95951,-0.0656 2.48637,0.713 3.07475,0.43631 3.07475,-1.44746 0,-1.32393 -1.49974,-1.87553 -3.19671,-1.82263 z m -6.7014,0.25993 c -0.29132,0.0294 -0.53403,0.38579 -0.8201,0.39016 -0.45771,0.007 -0.76223,0.50211 -0.76223,1.48311 0,1.91089 1.33471,2.87573 2.49546,1.80403 0.45572,-0.42086 1.2316,-2.7194 0.74259,-3.49488 l -1.05885,0.26458 c -0.22989,-0.36435 -0.42207,-0.46462 -0.59687,-0.447 z m -13.94178,1.44488 c 0.0902,-0.0141 0.14273,0.0726 0.14573,0.27181 0.026,1.84659 -2.81222,4.9409 -4.52066,4.9289 -0.85929,-0.006 -2.04666,-0.34984 -2.6386,-0.76429 -0.84253,-0.58986 -0.72532,-0.65512 0.53847,-0.29973 2.46661,0.69383 4.21256,-0.17376 5.46582,-2.71559 0.43037,-0.87286 0.81082,-1.3902 1.00924,-1.4211 z m 12.48761,3.06493 c -0.68077,0.008 -1.51543,1.93812 -1.75338,3.57187 l 1.92133,0.17673 c 1.14937,0.1056 2.21348,-0.17417 2.36419,-0.62166 0.27349,-0.81207 -1.60972,-3.13754 -2.53214,-3.12694 z m -68.43924,0.32762 c -0.567941,0.0528 -0.712245,2.2005 -0.452685,4.25142 0.361801,2.85889 2.918494,6.70349 6.245097,8.25376 2.948903,1.37432 10.553318,1.42069 12.165149,0.39895 1.198442,-0.7597 -1.898253,-1.75514 -4.774386,-1.76114 -3.552424,-0.007 -6.886987,-1.29237 -9.200989,-3.58479 -1.265521,-1.25372 -1.934709,-2.05308 -1.119828,-1.38131 2.153112,1.77498 6.097554,4.06922 8.401037,4.08812 4.420164,0.0363 2.667654,-1.27521 -1.825211,-2.23656 -5.391275,-1.15349 -6.931459,-3.95847 -8.72815,-7.30188 -0.284331,-0.52904 -0.520714,-0.74417 -0.710034,-0.72657 z m 66.67397,3.31711 c -0.0764,0.56399 -0.0801,1.08868 0.0222,1.48002 0.25966,0.99298 -0.0393,1.86538 -0.84026,2.45101 -1.16447,0.85149 -1.16743,1.02518 -0.0496,2.7311 0.65655,1.00202 1.01419,2.11184 0.7953,2.466 -0.48908,0.79136 1.09167,5.15937 1.86707,5.15937 0.30812,0 0.56018,-0.53988 0.56018,-1.19941 0,-0.65945 -0.56373,-1.82205 -1.25264,-2.5833 -1.19598,-1.32155 -1.19129,-1.37272 0.1049,-1.13275 2.17259,0.40222 2.14493,-1.34729 -0.0537,-3.43648 -1.56318,-1.48515 -1.69908,-1.80518 -0.59273,-1.39785 2.47812,0.91238 2.82961,0.82255 3.0763,-0.78755 0.17054,-1.1132 -0.34509,-1.8983 -1.77664,-2.70371 z m -20.86384,0.97204 c 0.075,-0.057 0.11169,0.44156 0.16019,1.54461 0.10926,2.48315 -1.7259,4.62201 -3.904674,4.55011 -1.30079,-0.0429 -1.29624,-0.0787 0.0811,-0.63717 1.924894,-0.78028 2.992544,-2.14443 3.396174,-4.33979 0.12741,-0.69299 0.20887,-1.07346 0.26717,-1.11776 z m -28.032403,3.77134 c -1.282841,0.0169 -2.596329,0.47407 -2.375049,1.13792 0.346021,1.03808 4.886108,3.38326 6.549468,3.38326 1.35067,0 1.35161,-0.032 0.0284,-1.61438 -0.742332,-0.88792 -1.761852,-1.97274 -2.264973,-2.41122 -0.4097,-0.35705 -1.168165,-0.50568 -1.937866,-0.49558 z m -17.640267,3.46646 c -0.41178,0.0672 -0.243505,1.08438 0.467155,2.41226 0.995171,1.85942 2.45717,3.83095 7.435205,4.36562 2.960603,0.31798 13.519911,-0.70909 12.89482,-1.88309 -1.066911,-2.00373 -4.431617,-0.49137 -7.977291,-0.30799 -6.225136,0.32195 -8.7892,-1.01467 -5.058606,-0.51418 2.377652,0.31899 9.821298,-0.42519 10.598319,-0.8661 1.128261,-0.64015 -0.515589,-0.63703 -5.194514,-0.63303 -6.459046,0.005 -11.183486,-1.20892 -12.558407,-2.30012 -0.26762,-0.21236 -0.46943,-0.29577 -0.606681,-0.27337 z m 22.929346,1.51619 c -0.33261,-0.0184 -0.68236,0.0134 -1.06918,0.0873 l -2.012282,0.38447 1.922882,1.65416 c 1.0576,0.9097 3.04884,1.8652 4.42505,2.12339 1.3762,0.25817 2.33182,0.74464 2.1239,1.08107 -0.20793,0.33644 0.68311,0.91743 1.97973,1.29139 3.08088,0.88862 8.26307,0.98521 8.77104,0.1633 0.36041,-0.58314 -2.18036,-1.34159 -8.68474,-2.59209 -1.24917,-0.24015 -3.22592,-1.34865 -4.3925,-2.46341 -1.22317,-1.16892 -2.06606,-1.67461 -3.0639,-1.72961 z m 47.164574,3.03444 c -0.27482,0.0213 -0.3407,0.35012 -0.0548,1.09554 0.21183,0.55204 0.0401,1.2169 -0.38137,1.47743 -1.31883,0.81499 -0.84974,1.79452 1.56528,3.26698 2.33385,1.42302 4.47637,1.90099 3.98322,0.88883 -0.14421,-0.29598 -0.73243,-1.50689 -1.3069,-2.69079 -1.03786,-2.13888 -3.1032,-4.09239 -3.80545,-4.03799 z m -47.692184,1.03714 c -0.20378,-0.0316 -1.031659,0.23954 -1.23507,0.24391 -0.387451,0.009 -1.042582,0.22133 -1.781803,0.60359 -3.732364,1.7894 -7.283208,0.87454 -12.221993,0.92914 -1.212851,0.0134 -5.900784,0.5189 -2.457731,2.3704 2.394313,1.28745 5.36617,3.50309 9.265584,3.39669 0.845751,-0.0231 2.775659,-0.44622 8.597923,-3.11816 1.31438,-1.22292 1.83658,-2.12193 1.83658,-2.51096 0,-0.96276 -1.94995,-0.89858 -2.55746,0.0848 -0.798362,1.29173 -6.657458,2.60662 -8.979301,2.57142 -1.803882,-0.0274 -5.629452,-1.19392 0.214974,-0.74672 3.791144,0.29009 9.363767,-2.6691 9.363767,-3.79047 0,-0.0185 -0.0164,-0.0291 -0.0455,-0.0336 z m 3.28507,2.15491 c -0.1616,0.009 -0.43481,0.21904 -0.74311,0.5979 -2.05881,2.52989 -9.69832,6.48888 -13.405383,6.54068 -3.943444,0.0551 -1.955428,1.24657 0.06511,1.89136 2.180232,0.69574 4.882288,1.2982 5.640999,1.13946 0.609021,-0.12742 5.733034,-3.13437 7.430554,-4.96507 0.99921,-1.0776 1.649,-1.66393 1.649,-1.2485 0,1.00619 -2.89285,3.55748 -6.761866,5.82652 -3.092023,1.81336 -4.022595,1.44139 -3.662825,2.55488 0.243101,0.75242 2.106034,0.95606 4.853967,0.19585 2.250624,-0.62242 3.879064,-0.22189 4.301034,-0.41341 0.21936,-0.0996 0.99595,-1.28872 1.99368,-2.57142 4.85285,-6.23893 3.14657,-6.52827 3.85402,-7.90339 0.61377,-1.19302 -1.62443,1.86314 -2.91093,3.86798 -1.2865,2.00484 -3.24955,4.11591 -4.36201,4.69119 -3.165314,1.63686 -3.413119,1.22874 -0.4687,-0.77205 1.47165,-1.00001 3.32258,-3.08609 4.11292,-4.63537 1.69271,-3.31796 0.77867,-2.62296 0.9338,-3.93775 -2.22027,0.66054 -0.40639,0.35217 -3.98115,2.98948 -2.55499,2.41834 -4.945887,3.8299 -6.410469,3.7853 -0.51923,-0.0158 0.02483,-0.53745 1.208711,-1.15962 2.562838,-1.34684 6.816128,-5.25629 6.816128,-6.26473 0,-0.14729 -0.0565,-0.21429 -0.15348,-0.20929 z m 26.206154,0.0501 c -0.0746,0.008 -0.17104,0.0469 -0.28835,0.11937 -0.85367,0.52759 -0.2668,3.71572 0.95498,5.18779 0.89735,1.08123 3.13253,0.80201 2.90008,-0.36225 -0.097,-0.48577 0.67753,-0.37156 2.01796,0.29714 1.19641,0.59686 2.38795,0.87232 2.6479,0.61237 0.60236,-0.60235 -1.11379,-1.72472 -3.43183,-2.24431 -3.62873,-0.81336 -5.17301,-1.74708 -4.74286,-2.86804 0.19299,-0.503 0.16602,-0.76497 -0.0579,-0.74207 z m 15.62075,0.0785 -0.0289,2.6908 c -0.028,2.61919 -0.0992,2.69027 -2.68355,2.69027 -3.1771,0 -2.54222,0.95063 1.59628,2.39107 l 2.85254,0.9927 0.22066,-2.37401 c 0.12133,-1.30593 -0.26935,-3.27821 -0.86817,-4.38268 z m -18.71307,0.66611 c -0.78927,0 -1.43505,0.25372 -1.43505,0.56379 0,0.31007 0.64578,0.56379 1.43505,0.56379 0.78926,0 1.43506,-0.25372 1.43506,-0.56379 0,-0.31007 -0.6458,-0.56379 -1.43506,-0.56379 z m -11.648904,0.76895 -0.5612,3.32073 c -0.50627,2.996 -1.79768,6.3655 -2.43965,6.3655 -0.13693,0 0.18346,-1.2104 0.71159,-2.69028 0.52803,-1.47987 0.94559,-3.4979 0.92759,-4.48448 -0.0212,-1.16664 -0.35696,-0.61782 -0.95963,1.57045 -0.50966,1.85053 -1.61061,4.47185 -2.44688,5.82497 -1.99912,3.23454 -2.19855,3.23239 0.33538,2.31613 1.29089,-0.46669 2.39725,-0.88032 2.93057,-1.01337 -0.23891,-0.93046 -0.0567,-1.69855 0.59428,-2.95744 0.5922,-1.14517 1.03858,-3.47035 0.99218,-5.16713 z m -4.67103,0.4749 c -0.11811,-0.0976 -0.95043,2.04552 -1.68827,3.96462 -0.80924,2.10477 -2.508,4.66702 -3.90932,5.89731 -3.63299,3.18981 -3.41852,3.58883 0.98133,1.82832 3.28416,-1.31405 5.90556,-5.4007 5.795,-9.03408 l -0.0734,-2.4138 -0.524,2.15284 c -0.7151,2.93728 -2.55823,6.35026 -4.09691,7.5861 -1.04156,0.83657 -1.00479,0.62991 0.20154,-1.12862 1.50106,-2.18807 3.39586,-7.36803 3.32796,-8.80256 -10e-4,-0.0272 -0.006,-0.0436 -0.014,-0.0501 z m 13.797614,0.37931 c -0.45337,-0.005 -0.94042,0.0753 -1.35754,0.2434 -0.8256,0.33266 -2.735874,0.80585 -4.244714,1.05161 -2.28581,0.37232 -3.12928,1.21437 -2.41432,2.07584 1.16933,1.40893 3.36414,0.70917 3.36414,-0.77308 0,-1.0103 -0.41263,-0.61336 0.83715,0.72812 1.833914,1.96848 3.903684,1.30894 3.604444,-1.01802 -0.21708,-1.68809 -0.18325,-1.67978 1.49965,0.3669 2.09938,2.55329 4.1089,2.20225 3.56877,-0.62322 -0.25269,-1.32176 -0.70021,-1.76433 -1.52549,-1.50791 -0.64244,0.19962 -1.62307,0.078 -2.17868,-0.27079 -0.28071,-0.17625 -0.70004,-0.26785 -1.15341,-0.27285 z m 24.49721,1.24695 c -0.28116,0.0234 -0.26071,0.87004 0.015,2.88045 l 0.47853,3.48919 -2.98277,-0.47697 c -1.64035,-0.2623 -2.98276,-0.30164 -2.98276,-0.0868 0,0.63646 3.0842,1.68474 5.10098,1.73374 1.76793,0.043 1.86421,-0.1349 1.73633,-3.20445 -0.0745,-1.78757 -0.51625,-3.63131 -0.98185,-4.09691 -0.1626,-0.16263 -0.28974,-0.24623 -0.38344,-0.23823 z m 3.00705,1.51567 c -0.26137,0.0294 -0.38192,0.95429 -0.58601,3.19929 -0.38772,4.2649 -0.37778,4.2591 -5.31802,3.27577 -2.05429,-0.40888 -2.06749,-0.39172 -0.78187,1.02888 0.71908,0.79457 1.45962,1.29267 1.64538,1.10691 0.18577,-0.18576 1.45848,0.58606 2.82825,1.71514 2.54501,2.09772 3.91425,2.35254 5.2834,0.9834 0.55201,-0.55201 0.51806,-0.9302 -0.11834,-1.32343 -0.61181,-0.37812 -0.7087,-0.25641 -0.31006,0.3886 0.37595,0.60831 0.29969,0.76553 -0.21652,0.44649 -0.43836,-0.27093 -0.62815,-0.93391 -0.42116,-1.4733 0.20698,-0.5394 0.0474,-1.184 -0.3545,-1.43247 -0.40218,-0.24848 -0.58473,-1.59234 -0.40618,-2.9869 0.17854,-1.39455 -0.0796,-3.24235 -0.57361,-4.10569 -0.30659,-0.53579 -0.51394,-0.84029 -0.67076,-0.82269 z m -17.06511,1.58182 c -0.71883,-0.0295 -1.00512,0.26826 -0.86971,0.9002 0.18494,0.86306 0.0499,0.89854 -0.68161,0.17932 -1.09806,-1.07955 -3.95092,-1.18377 -4.57905,-0.16743 -0.24788,0.40107 -0.81455,0.50382 -1.25936,0.22892 -0.4448,-0.27491 -3.02608,-0.54638 -5.7366,-0.60358 -4.706774,-0.0993 -4.974714,-0.0143 -5.958294,1.88774 -1.77425,3.43105 -1.28631,5.6503 1.2423,5.6503 1.07483,0 1.3366,-0.62384 1.4304,-3.40857 0.0983,-2.91648 0.44175,-3.06165 0.41755,-0.89969 -0.0714,6.38039 5.741504,6.98724 4.195614,0.73846 0,0 -0.75807,-3.26893 -0.26924,-3.24683 0.20628,0.009 0.66973,2.98379 0.66973,2.98379 0.67763,3.01817 0.96188,4.56982 4.00286,3.43493 1.95487,-0.72946 0.72129,-1.74552 0.15709,-2.98379 -1.3961,-3.06441 -1.43631,-3.63213 0.0878,-0.74414 0.90923,1.72228 1.93101,2.92127 2.83859,2.92127 1.71066,0 2.098,-0.3952 0.65784,-3.18017 -1.57567,-3.04699 -1.16696,-3.38385 0.58808,-0.40928 0.90696,1.53719 1.86121,3.1804 3.08457,3.41426 1.86364,0.35628 3.29033,-0.78784 2.33629,-3.17293 -0.77383,-1.93456 -0.98746,-2.18812 -0.601,-2.39004 0.32682,-0.17076 1.05265,2.2531 1.05265,2.2531 1.12501,1.12501 3.6552,2.16799 4.40903,2.57142 1.112,0.59513 1.36913,0.49196 1.36013,-0.54726 -0.0236,-2.85873 -1.74816,-4.86391 -4.3155,-5.0183 -1.36987,-0.0824 -3.13617,-0.24369 -3.92534,-0.35863 -0.12037,-0.0175 -0.23218,-0.0291 -0.33487,-0.0331 z m 18.92701,4.71754 c -0.0368,0.006 -0.0694,0.0224 -0.0971,0.0501 -0.22158,0.22157 0.006,0.89506 0.50488,1.49655 1.28996,1.5543 1.6385,1.35302 0.69866,-0.40307 -0.38543,-0.72017 -0.84825,-1.1866 -1.10639,-1.1436 z m -3.1657,3.35793 c 0.037,-0.037 0.3281,0.17965 0.89711,0.6258 0.69061,0.54162 1.25522,1.10675 1.25522,1.25574 0,0.59054 -0.58927,0.21023 -1.52652,-0.98495 -0.44625,-0.56901 -0.66281,-0.85959 -0.62581,-0.89659 z m 6.74326,3.13159 c -0.0438,-10e-4 -0.081,0.0123 -0.1111,0.0424 -0.24057,0.24056 -0.0556,0.81924 0.41134,1.28623 0.46698,0.46698 0.84905,1.1722 0.84905,1.56683 0,0.39862 -0.38259,0.33459 -0.86093,-0.14366 -0.47356,-0.47356 -1.14404,-0.86093 -1.48984,-0.86093 -0.7814,0 11.81712,13.59697 12.61784,13.61777 0.31925,0.008 0.33737,-0.38883 0.0403,-0.88212 -0.29698,-0.49329 -2.40429,-3.07289 -4.68344,-5.73246 -2.27916,-2.65965 -4.66249,-5.83793 -5.2958,-7.06262 -0.55415,-1.07159 -1.17076,-1.82142 -1.47743,-1.83142 z" /><path
           id="path5340"
           style="fill:#6e7171;fill-opacity:1;stroke-width:0.717514"
           d="m 55.54413,186.19365 c -0.16108,-0.0498 -4.62676,-4.90097 -3.90622,-3.99097 0.27652,0.29922 0.62394,0.6935 0.94981,1.05885 3.22679,4.12543 17.02948,20.36289 18.99833,22.84047 2.41401,3.03777 4.05965,6.02362 4.89634,8.78034 1.09003,3.59143 3.78399,4.33696 6.43475,6.67298 2.65075,2.33604 7.77465,6.67068 10.70942,10.1968 4.49827,5.40461 5.30182,6.76569 5.11701,8.6682 -0.19773,2.03544 -0.4786,2.27841 -2.86495,2.47685 -1.45523,0.12101 -4.36154,-0.10293 -6.458,-0.49764 -2.90518,-0.54697 -5.60351,-0.43852 -11.34556,0.45682 -4.14364,0.64611 -7.74348,1.48225 -7.99951,1.85777 -0.54708,0.80239 -3.78584,0.24798 -7.41815,-1.26969 -1.94789,-0.81388 -2.82421,-1.98465 -4.19045,-4.45296 -2.1166,-3.82399 -3.02972,-3.32381 -2.92798,1.42007 0.0745,3.47411 2.26021,6.18131 4.52168,8.00778 0.93256,0.75316 1.40032,1.02706 0.79427,1.04076 -0.59194,0.0134 -1.96419,-0.439 -3.04942,-1.00511 -1.67296,-0.87266 -1.97301,-0.87677 -1.97301,-0.0289 0,1.92582 1.53065,4.31037 3.7946,5.91075 1.60393,1.13382 1.91294,1.61438 1.03818,1.61438 -3.36139,0 0.85458,4.36148 5.54488,5.62291 3.1079,0.8359 3.39522,0.7421 1.28158,0.786 -1.28256,0.0266 -2.18399,0.35575 -2.33164,0.65474 -0.83116,1.68305 2.58219,2.87301 5.27254,3.3724 1.88338,0.34962 2.45588,0.70201 1.79989,1.10743 -0.72057,0.44534 -0.75654,0.79994 -0.14314,1.41335 0.98156,0.98156 3.47231,1.16711 6.14588,0.45837 1.50676,-0.39943 1.86724,-0.29047 1.57354,0.4749 -0.52849,1.37721 1.34783,1.93972 3.96514,1.18908 1.44227,-0.41364 2.19366,-0.37369 2.19366,0.11627 0,0.86973 3.3063,-0.0624 4.85655,-1.00511 0.74444,-0.45271 1.18389,-0.74463 1.44126,-0.94206 0.0707,0.21895 0.15508,0.44514 0.26871,0.69453 0.9352,2.05254 3.24566,3.08006 4.37855,1.94717 0.51884,-0.51885 1.1841,-0.52577 2.12597,-0.0217 0.96255,0.5151 1.66804,0.48783 2.36729,-0.0925 0.54779,-0.45462 1.67245,-0.61186 2.49959,-0.34934 0.82714,0.26252 1.9068,0.14263 2.39934,-0.26613 0.9626,-0.79886 2.0024,-0.9339 6.74894,-0.8785 2.61158,0.0305 3.04943,-0.17675 3.04943,-1.44177 0,-1.4767 0.001,-1.47651 2.51302,0.076 1.38195,0.85409 2.91551,1.4127 3.40806,1.24127 0.49255,-0.17143 2.18714,0.56362 3.76567,1.63349 1.57852,1.06988 3.91986,2.48338 5.2033,3.14141 1.28343,0.65804 5.09309,4.37218 8.46563,8.25325 3.37255,3.88106 6.92345,7.41707 7.89099,7.85791 0.92705,0.4378 2.06981,0.84038 3.03547,0.4961 -0.7205,0.27648 -1.36928,-0.30878 -1.98179,-1.78749 -0.50081,-1.20906 -2.19455,-3.56686 -3.76411,-5.23947 -3.14221,-3.34853 -9.87059,-13.16057 -9.89759,-14.43375 -0.009,-0.44266 -0.77558,-2.6484 -1.70222,-4.90151 -1.12798,-2.74264 -1.41844,-4.19537 -0.87953,-4.39559 0.54594,-0.20283 0.40099,-1.03921 -0.45062,-2.59881 -1.63083,-2.98662 -1.58354,-3.61787 0.27285,-3.61787 1.34507,0 1.48062,-0.30079 1.12397,-2.49855 -0.22296,-1.37399 -0.10407,-2.68413 0.26458,-2.91197 0.36865,-0.22783 0.67024,-1.13826 0.67024,-2.02262 0,-0.88437 0.82831,-1.87529 0.8971,-2.61327 0.1322,-1.4182 0.078,-2.28847 -0.0424,-2.76314 0.17974,0.0573 0.28691,0.0792 0.22893,0.0212 -0.19455,-0.19454 0.0296,-0.81528 0.49764,-1.37924 0.46804,-0.56397 0.94453,-2.60255 1.05937,-4.53047 0.17342,-2.9112 -0.0372,-3.63766 -1.24489,-4.28398 -1.43438,-0.76765 -1.4294,-0.80729 0.36897,-2.94452 2.00716,-2.38536 2.24009,-3.23325 1.00253,-3.64577 -0.60552,-0.20183 -3.63228,2.48677 0.061,-1.9203 0.65989,-0.78742 0.67638,-2.46349 0.42582,-3.4618 -0.43513,-1.73369 -0.50132,-1.75482 -1.4733,-0.47129 -1.32507,1.74981 -1.32096,1.05921 0.0129,-2.13321 0.59195,-1.41673 1.07642,-3.37467 1.07642,-4.35064 0,-1.91737 -1.52121,-3.39456 -2.00401,-1.94613 -0.0958,0.28724 -0.58365,0.97441 -1.22628,1.77715 0.0589,-0.13601 0.0975,-0.22157 0.16846,-0.38499 0.42869,-0.98657 0.10401,-3.31907 -0.12247,-4.46536 -0.74421,-3.76671 -3.27319,-5.51557 -3.27319,-2.26343 0,1.95398 -1.79662,5.87699 -1.59401,1.6614 0.0715,-1.48702 0.0715,-3.7671 -0.045,-4.43701 -0.21762,-1.25192 -1.62812,-3.94543 -2.86414,-5.03271 l 1.22887,2.72646 c 0.29878,0.86385 1.11122,1.6429 1.25681,2.43345 0.30677,1.66569 0.33701,4.26348 0.0274,7.10396 -0.21761,1.99636 -6.62026,9.7119 -6.62026,8.35608 0,-0.43239 1.13025,-2.46509 2.51147,-4.51756 1.38121,-2.05247 3.09129,-9.31762 3.09129,-9.83764 0,-0.34207 -0.27588,0.15269 -0.41187,0.34572 -0.0439,0.70373 -0.54089,3.67787 -1.47587,5.62808 -1.94415,4.05515 -3.38585,5.86682 -4.10053,5.15214 -0.15971,-0.15971 0.33703,-1.56427 1.10433,-3.12126 0.76729,-1.557 1.84904,-5.414 2.40347,-8.57105 l 1.00045,-5.69889 c -0.13128,-0.10411 -0.25543,-0.18712 -0.36225,-0.22273 -0.59586,-0.19863 -0.92175,0.6128 -0.98495,2.4536 l -0.68931,5.36299 -0.34468,-5.98103 c -0.0781,-1.35553 -3.5398,-6.31797 -5.38469,-6.31797 -1.19114,0 -1.30561,0.23173 -0.68678,1.38803 0.40852,0.76331 0.73557,2.29688 0.72657,3.40806 -0.0149,1.91531 -0.0842,1.87077 -1.33687,-0.85008 -0.72673,-1.57853 -2.27811,-3.48019 -3.50315,-4.12533 -2.96918,-1.56365 -3.42097,-2.25993 -5.42393,-2.53114 -3.09084,-0.41852 -3.92732,9.4e-4 -0.24755,3.68866 1.20136,1.20395 2.83504,1.94 3.69279,3.74758 1.60674,3.38596 2.3431,8.90696 1.18805,8.90696 -0.44595,0 -0.81081,0.74237 -0.81081,1.65003 0,0.90765 -0.40091,2.05146 -0.8909,2.54144 -0.55187,0.55187 -0.6205,0.95196 -0.26252,1.28003 l -1.46554,4.93252 c -0.54128,2.04865 -0.87516,6.44505 -0.77876,10.2495 0.18483,7.29305 -0.35896,8.39963 -3.77755,7.68739 -2.18899,-0.45607 -16.08501,-14.66386 -17.98547,-18.38906 -0.73779,-1.44618 -2.16131,-3.98965 -3.38894,-4.91805 -6.23068,-3.79498 -26.57715,-24.93416 -27.70477,-25.2827 z m 71.49021,17.93225 c 0.0104,-0.16707 0.003,-0.24566 -0.0387,-0.10698 -0.0749,0.24737 -0.032,0.20738 0.0387,0.10698 z m -14.47198,-11.30304 c 1.33351,0.88175 2.80876,2.61226 3.27422,3.58996 2.46041,5.16816 2.60626,5.78275 2.15594,9.06819 -0.25741,1.87797 -0.60028,5.65163 -0.99113,6.04247 -0.80843,0.80843 -1.73124,-2.7618 -1.27695,-6.97988 0.23643,-2.19524 -0.83165,-5.58335 -1.71049,-7.30603 -2.94227,-4.73303 -1.03262,-0.93771 -0.1904,1.09653 0.6527,1.7091 1.28335,4.68325 1.09013,6.02088 -0.76806,5.31696 -1.28143,2.90952 -1.38758,-1.14229 -0.0542,-2.068 -1.01639,-4.8067 -1.7329,-6.01597 -1.18332,-1.99711 -1.64991,-2.15812 -3.32002,-3.38527 -4.01865,-3.74921 -2.83183,-3.32606 -0.43624,-3.15064 2.35294,0.1723 3.92272,1.76353 4.52542,2.16205 z m 5.975,0.89565 c 0.39463,0.12727 2.23885,1.35059 3.12677,2.66108 1.93768,2.85983 2.23265,10.06404 0.57464,14.03223 -1.40319,3.3583 -2.62692,3.18354 -1.41852,-0.20258 0.52813,-1.47986 0.11767,-6.63708 0.10387,-8.41292 -0.0288,-3.69688 -1.43169,-7.66459 -0.96118,1.97921 0.0896,1.8354 -0.003,5.8776 -0.48059,6.53035 -1.35009,3.14954 -2.09793,2.59582 -0.58702,-8.02667 0.7947,-5.58711 -0.81042,-8.70663 -0.35797,-8.5607 z m -55.47069,0.35579 c 6.98737,5.74822 12.78494,14.36186 17.06459,17.01086 4.49907,2.18849 3.81845,2.978 5.80172,6.29367 0.79601,1.33078 1.26355,2.93024 1.757,3.22926 0.49345,0.29902 1.0985,1.09219 1.34462,1.76269 0.61783,1.68317 -1.42737,0.86241 -2.40554,-0.96532 -0.40351,-0.75397 -2.48275,-1.4704 -4.0566,-2.10013 -2.64954,-1.06014 -5.62808,-5.52255 -5.62808,-7.68429 -3.28521,-4.19984 -8.28872,-9.93091 -13.02401,-15.43834 -0.14911,-0.459 -1.05987,-2.05078 -0.8537,-2.1084 z m 68.31987,9.88984 c 0.74126,-0.053 1.12086,2.02882 1.12086,2.02882 0.46626,1.13394 1.09796,4.24497 0.8847,5.67614 -0.0972,0.65249 -0.15523,1.07862 -0.17932,1.34566 -0.32636,0.38834 -0.46713,0.99422 -0.82837,1.38751 -1.77375,2.17296 -5.15389,6.06837 -7.95973,6.39031 -0.26312,0 0.67934,-1.0163 2.09445,-2.25878 2.6522,-2.32866 6.24462,-7.01245 5.51801,-7.73906 -1.71958,2.43132 -5.33963,6.91167 -8.33799,8.71626 -0.94319,0.5013 -0.48316,-0.3303 1.24385,-2.24792 2.66329,-2.95725 5.27245,-7.90589 6.26318,-11.53832 0.14687,-0.53847 -0.43476,-1.71665 0.18036,-1.76062 z m -18.42007,3.19568 c 0.80724,0 3.13218,4.92293 3.13418,6.63732 0.003,2.17767 1.17687,2.70352 1.60093,0.71727 0.44779,-2.09733 2.70558,2.93895 2.71818,6.06319 0.007,1.76525 0.22479,2.38899 0.61753,1.76941 0.9535,-1.50417 1.52394,0.74015 1.52394,5.99601 0,2.50955 -0.32315,4.76252 -0.71778,5.00641 -0.39463,0.24391 -0.73473,0.18233 -0.75603,-0.13694 -0.54914,-8.23947 -1.3464,-11.58394 -3.53105,-14.80788 -1.29111,-1.90533 -3.06808,-4.18429 -3.9486,-5.06481 -1.19532,-1.1953 -1.5159,-2.18092 -1.26504,-3.8902 0.1848,-1.25914 0.46541,-2.28978 0.62374,-2.28978 z m 23.00635,4.72529 c 0.16883,0.0252 0.22117,0.29308 0.22117,0.76791 0,0.82893 -0.49467,2.69044 -1.09916,4.13722 -0.6045,1.44678 -0.93488,2.89595 -0.73432,3.22047 0.20056,0.32452 -0.27373,1.16794 -1.05368,1.87379 -0.77996,0.70586 -1.418,1.06443 -1.418,0.79685 0,-0.26758 -0.72645,-0.0332 -1.61437,0.5209 -2.20328,1.37493 -5.38416,2.04474 -5.88233,1.23868 -0.22515,-0.36427 0.70377,-1.02955 2.06396,-1.47846 3.31418,-1.09378 5.93727,-3.24731 7.30963,-6.00015 1.10281,-2.21215 1.07429,-2.20117 -1.15497,0.43718 -2.32297,2.74925 -4.66569,4.26788 -7.89719,5.11907 -1.31429,0.34621 -1.12222,0.10238 0.71778,-0.9126 2.80842,-1.54921 4.9893,-3.53153 8.43049,-7.66155 1.22449,-1.4696 1.82959,-2.1013 2.11099,-2.05931 z m -25.17263,0.14779 c 1.16663,0.75679 2.42356,3.41908 2.50476,5.30458 l 0.0713,1.6614 0.47956,-1.70946 c 0.92865,-3.31382 0.0273,-2.37166 1.45159,-0.53795 0.51381,0.66149 1.78321,2.16688 1.98386,3.94705 0.3194,2.83367 -0.16817,3.54254 0.63149,2.44894 0.80149,-1.0961 0.97459,-0.84175 1.4118,2.07378 0.27403,1.8274 0.33054,3.91923 0.12557,4.64881 -0.20496,0.72958 -0.57673,2.13364 -0.82579,3.12022 -0.44435,1.76015 -0.43028,1.76728 0.74673,0.35915 1.15368,-1.3802 1.18396,-1.32966 0.78909,1.3224 -0.2258,1.51656 -1.30587,3.93787 -2.40037,5.38107 -1.87655,2.47441 -1.89393,2.56118 -0.30179,1.51877 0.92862,-0.60797 2.1933,-2.38402 2.81017,-3.94653 1.01869,-2.58031 2.97822,-4.89622 3.60908,-4.26537 0.68734,0.68735 -1.70702,5.64657 -3.71399,7.69255 -2.03992,2.07958 -2.07972,2.19521 -0.38498,1.11311 1.04,-0.66406 2.08909,-1.00891 2.33164,-0.76636 0.72177,0.72179 0.50068,2.35438 -0.31885,2.35438 -0.41792,0 -0.5456,-0.34719 -0.2837,-0.77101 0.2619,-0.42377 -0.21556,-0.3426 -1.06144,0.17983 -1.31003,0.80909 -1.46887,1.37523 -1.07073,3.81992 0.6051,3.71558 1.62702,5.67607 1.47071,2.82154 -0.0634,-1.15747 -0.41327,-2.58874 -0.77773,-3.18069 -0.57634,-0.93606 -0.50119,-0.94485 0.57774,-0.0692 0.68227,0.5537 1.17179,1.52213 1.08779,2.15232 -0.084,0.63019 0.25361,2.43725 0.75034,4.01578 0.49672,1.57852 0.79584,4.00036 0.66456,5.38158 -0.23796,2.50362 -0.24845,2.51049 -3.45302,2.26498 -1.76793,-0.13543 -4.11819,-0.71339 -5.22293,-1.28468 -1.10476,-0.5713 -2.27495,-0.87466 -2.59985,-0.67386 -0.3249,0.2008 -1.20306,-0.0955 -1.95181,-0.65836 -1.25822,-0.94586 -1.18401,-1.00211 0.98133,-0.74517 1.35534,0.16082 2.16645,-0.008 1.92391,-0.40049 -0.23057,-0.3731 -0.7506,-0.47348 -1.15548,-0.22325 -0.40488,0.25024 -1.75478,-0.27982 -2.99982,-1.1777 -1.24503,-0.89787 -2.02474,-1.36929 -1.73219,-1.04748 0.60696,0.66765 -0.70256,2.51095 -1.78387,2.51095 -0.39463,0 -0.27953,-0.56512 0.25528,-1.25573 0.92149,-1.18986 0.89611,-1.19137 -0.47697,-0.0274 -1.93371,1.63926 -6.33921,3.43974 -8.369,3.41994 l -1.63763,-0.016 1.78491,-1.37098 c 0.98152,-0.75413 2.79371,-1.56075 4.02714,-1.79214 1.23344,-0.2314 2.82118,-1.0602 3.52847,-1.84175 1.63528,-1.80701 1.00801,-1.80332 -1.96836,0.0114 -1.29209,0.7878 -3.47946,1.41071 -4.86068,1.38441 -2.05536,-0.0391 -2.25091,-0.15935 -1.07642,-0.66404 1.01946,-0.43808 0.16779,-0.63134 -2.94194,-0.66714 -2.40757,-0.0277 -5.47519,-0.43628 -6.81664,-0.90796 -2.40664,-0.84623 -2.41492,-0.86455 -0.64492,-1.36374 1.6731,-0.47186 1.68668,-0.51052 0.2036,-0.57722 -1.9396,-0.0872 -6.66161,-2.2668 -6.66161,-3.07475 0,-0.32154 0.72645,-0.6073 1.61438,-0.6351 1.16802,-0.0366 0.82579,-0.33899 -1.23817,-1.09451 -1.56899,-0.57434 -3.13343,-1.32527 -3.47679,-1.66863 -0.79386,-0.79386 4.89292,-1.79875 6.06836,-1.07229 1.00724,0.62251 6.35982,1.67895 6.35982,1.25522 0,-0.15704 -0.72645,-0.57741 -1.61437,-0.93431 -1.27179,-0.5112 -1.3427,-0.65873 -0.33538,-0.69453 0.70328,-0.025 2.43781,0.439 3.85454,1.03094 4.96469,2.07438 10.29343,0.91485 10.29343,-2.23965 0,-2.30452 -2.64029,-6.08033 -11.37346,-16.26723 -1.01022,-1.17839 -0.99017,-1.24354 0.23719,-0.77256 1.10532,0.42414 1.24704,0.27239 0.81029,-0.8661 -0.29122,-0.75911 2.67489,1.76803 6.59133,5.61568 5.92228,5.81831 7.49594,6.99596 9.34878,6.99596 3.06523,0 4.00598,-1.9687 3.39307,-7.09879 -0.26434,-2.21254 -0.60564,-5.47591 -0.75861,-7.25176 -0.26991,-3.13343 -0.26114,-3.14909 0.28887,-0.5302 0.31172,1.48423 0.81827,2.93715 1.12603,3.22875 0.30778,0.29162 0.34027,-0.18456 0.0718,-1.05834 -0.26845,-0.87377 -0.52315,-3.61825 -0.56585,-6.09885 0.11571,-1.78841 0.55943,-4.1737 0.59483,-5.73615 z m 25.84804,7.72304 c 0.19599,-0.0197 0.26303,0.20186 0.26303,0.64182 0,2.13894 -2.345,5.34542 -4.74079,6.48229 -1.26088,0.59833 -3.69639,1.05244 -5.41259,1.00924 0,0 -2.08564,-0.1852 -3.12074,-0.0786 -0.60091,0.0619 2.99465,-0.59221 2.99465,-0.59221 3.2536,-0.64334 7.04521,-2.38541 7.7804,-3.57497 0.25391,-0.41084 -0.61392,-0.0917 -1.92805,0.70951 -1.31412,0.80118 -7.46122,2.267 -8.22063,2.05188 -2.66996,-0.75632 4.11539,-1.14459 6.01405,-2.0064 1.67883,-0.76204 3.85817,-2.25538 4.84311,-3.31814 0.81057,-0.87462 1.27557,-1.29913 1.52756,-1.32447 z m -2.60708,0.31936 c -0.037,-0.037 -0.32757,0.17956 -0.89658,0.6258 -0.69061,0.54161 -1.25574,1.10675 -1.25574,1.25574 0,0.59053 0.58918,0.21076 1.52652,-0.98444 0.44625,-0.569 0.66284,-0.86007 0.6258,-0.8971 z m 2.50114,5.74022 c 1.05839,0 -1.39371,3.09084 -3.44372,4.34082 -1.60507,0.97869 -3.46148,1.36644 -6.23217,1.30224 0,0 -5.16758,0.39895 -3.94653,-0.0915 0.4649,-0.18673 4.1801,-0.53434 4.1801,-0.53434 2.29909,-0.29391 4.53766,-0.89136 4.97438,-1.32808 0.58038,-0.58033 0.13273,-0.6047 -1.66398,-0.0894 -1.35199,0.38774 -5.53944,0.74365 -6.33011,0.68756 -2.47567,-0.17561 2.44535,-0.51408 4.22119,-1.00692 1.77584,-0.49285 4.26177,-1.43249 5.52473,-2.08825 1.26296,-0.65576 2.48531,-1.19217 2.71611,-1.19217 z m -3.545,5.9986 c 1.69697,-0.0529 3.1967,0.4987 3.1967,1.82263 0,1.88377 -0.58838,2.16054 -3.07475,1.44745 -1.41605,-0.4061 -2.5121,-0.38178 -2.9595,0.0656 -0.46909,0.46909 0.032,0.71055 1.47432,0.71055 1.2821,0 2.72792,0.60006 3.49902,1.45211 1.83575,2.02853 0.59291,3.11554 -2.37764,2.07998 -3.66314,-1.27698 -4.01866,-0.43621 -0.50436,1.19269 0.85768,0.39754 1.59226,0.71775 2.1115,0.92604 -0.0354,0.10974 -0.0597,0.24502 -0.0631,0.40463 -0.0289,1.38864 -0.96387,2.90305 -2.01176,2.13682 -0.76492,-0.55932 -1.89422,-1.01541 -2.50941,-1.01441 -0.61518,0.001 -0.0692,0.64273 1.21337,1.42472 1.38876,0.84675 2.33215,2.0061 2.33215,2.86701 0,1.71701 -0.66685,1.81947 -2.55385,0.39222 -2.23272,-1.68876 -3.01506,-1.25093 -0.92707,0.51883 2.38102,2.01812 3.18496,5.55729 1.26245,5.55729 -0.71597,0 -2.09468,-0.36145 -3.06389,-0.80306 -1.51486,-0.69021 -1.7317,-1.21259 -1.54461,-3.72122 0.11971,-1.60504 0.71308,-3.28025 1.31827,-3.72277 0.66285,-0.4847 0.87255,-1.17233 0.52813,-1.72961 -0.31451,-0.5088 -0.48047,-2.42753 -0.36897,-4.26382 0.11151,-1.83629 0.231,-4.04006 0.2651,-4.89737 0.068,-1.71094 2.57603,-2.77831 4.75785,-2.84634 z m -7.52151,0.65009 c 0.45772,-0.007 0.80394,-0.91502 1.41697,0.0568 l 1.05885,-0.26459 c 0.4891,0.77548 -0.28674,3.07402 -0.74255,3.49488 -1.16075,1.0717 -2.49545,0.10687 -2.49545,-1.80402 0,-0.98109 0.30451,-1.47622 0.76222,-1.48311 z m -13.12168,1.05471 c -0.19842,0.0309 -0.57887,0.54824 -1.00924,1.4211 -1.25326,2.54183 -2.9992,3.40943 -5.46581,2.7156 -1.26379,-0.35548 -1.381,-0.29014 -0.53847,0.29972 0.59194,0.41445 1.77931,0.7583 2.6386,0.7643 1.70844,0.012 4.54665,-3.08231 4.52065,-4.9289 -0.003,-0.19918 -0.0555,-0.28588 -0.14573,-0.27182 z m 12.48761,3.06493 c 0.92242,-0.0106 2.80564,2.31487 2.53215,3.12694 -0.15071,0.44749 -1.21474,0.72727 -2.3642,0.62167 l -1.92133,-0.17673 c 0.23795,-1.63375 1.07261,-3.56402 1.75338,-3.57188 z m -68.43923,0.32763 c 0.18932,-0.0176 0.42569,0.19744 0.71003,0.72657 1.7967,3.34341 3.33683,6.1483 8.72815,7.30188 4.49291,0.96135 6.24542,2.27286 1.82522,2.23656 -2.30351,-0.0189 -6.24791,-2.31315 -8.40104,-4.08813 -0.81489,-0.67177 -0.1457,0.1276 1.11983,1.38132 2.31402,2.29242 5.64852,3.57779 9.20098,3.58479 2.87616,0.006 5.97261,1.00172 4.77415,1.76142 -1.61184,1.02174 -9.21598,0.97509 -12.16491,-0.39923 -3.32663,-1.55036 -5.88329,-5.39487 -6.2451,-8.25376 -0.25956,-2.05101 -0.11526,-4.19864 0.45269,-4.25142 z m 66.67397,3.31711 1.86035,1.04645 c 1.43155,0.80541 1.94717,1.59051 1.77663,2.70371 -0.24669,1.6101 -0.59817,1.69993 -3.07629,0.78755 -1.10635,-0.40733 -0.97046,-0.0873 0.59272,1.39785 2.19895,2.08919 2.22639,3.8387 0.0538,3.43648 -1.29619,-0.23997 -1.30088,-0.1888 -0.1049,1.13275 0.68891,0.76125 1.25263,1.92376 1.25263,2.5833 0,0.65953 -0.25205,1.19941 -0.56017,1.19941 -0.7754,0 -2.35615,-4.36801 -1.86707,-5.15937 0.21889,-0.35416 -0.13875,-1.46398 -0.7953,-2.466 -1.11775,-1.70592 -1.11487,-1.87961 0.0496,-2.7311 0.80092,-0.58563 1.09992,-1.45804 0.84026,-2.45102 -0.10234,-0.39134 -0.0986,-0.91602 -0.0222,-1.48001 z m -20.86385,0.97203 c -0.0583,0.0443 -0.13975,0.42478 -0.26716,1.11777 -0.40363,2.19536 -1.4712,3.5595 -3.39618,4.33978 -1.37766,0.55845 -1.38198,0.59427 -0.0811,0.63717 2.17877,0.0719 4.01393,-2.06687 3.90467,-4.55011 -0.0485,-1.10305 -0.0852,-1.60157 -0.1602,-1.54461 z m -28.03239,3.77135 c 0.76971,-0.0101 1.52816,0.13853 1.93786,0.49558 0.50313,0.43848 1.52259,1.5233 2.26498,2.41122 1.32305,1.58241 1.32227,1.61437 -0.0284,1.61437 -1.6634,0 -6.20344,-2.34517 -6.54947,-3.38325 -0.22128,-0.66385 1.0922,-1.121 2.37505,-1.13792 z m -17.64027,3.46646 c 0.13726,-0.0224 0.33906,0.061 0.60668,0.27336 1.37493,1.0912 6.09931,2.30512 12.55841,2.30012 4.67897,-0.004 6.32286,-0.007 5.19459,0.63315 -0.77703,0.44091 -8.22073,1.18498 -10.5984,0.86599 -3.73063,-0.50049 -1.16658,0.83613 5.05861,0.51418 3.54571,-0.18338 6.91032,-1.69568 7.97724,0.30805 0.6251,1.174 -9.93414,2.20101 -12.89477,1.88303 -4.97808,-0.53467 -6.44003,-2.50612 -7.43521,-4.36563 -0.71066,-1.32788 -0.87893,-2.34504 -0.46715,-2.41225 z m 22.92935,1.51618 c 0.99784,0.055 1.84072,0.56069 3.06389,1.72961 1.16658,1.11485 3.14333,2.22327 4.3925,2.46342 6.50447,1.2505 9.04515,2.00895 8.68474,2.59209 -0.50797,0.82191 -5.69007,0.72532 -8.77104,-0.1633 -1.29662,-0.37396 -2.18765,-0.95495 -1.97972,-1.29139 0.20792,-0.33643 -0.7477,-0.8229 -2.1239,-1.08107 -1.37621,-0.25819 -3.36746,-1.21369 -4.42506,-2.12339 l -1.92288,-1.65416 2.01228,-0.38447 c 0.38682,-0.0739 0.73658,-0.10568 1.06919,-0.0873 z m 47.16456,3.03444 c 0.70225,-0.0544 2.76759,1.89912 3.80545,4.038 0.57447,1.1839 1.16269,2.39481 1.3069,2.69079 0.49315,1.01216 -1.64928,0.53419 -3.98322,-0.88883 -2.41502,-1.47246 -2.88411,-2.45191 -1.56528,-3.26699 0.42148,-0.26053 0.59321,-0.92539 0.38138,-1.47743 -0.28606,-0.74542 -0.22002,-1.07425 0.0548,-1.09554 z m -48.92724,1.28106 c 0.23247,-0.005 1.28051,-0.35845 1.28051,-0.21011 0,1.12137 -5.57256,4.08034 -9.36374,3.79025 -5.84448,-0.4472 -2.01888,0.71933 -0.21498,0.74673 2.32187,0.0352 8.18097,-1.27969 8.9793,-2.57142 0.60751,-0.98298 2.55747,-1.04756 2.55747,-0.0848 0,0.38903 -0.52237,1.28804 -1.83675,2.51096 -5.82234,2.67194 -7.75179,3.09503 -8.59755,3.11811 -3.89945,0.1064 -6.87155,-2.10894 -9.26589,-3.39648 -3.44308,-1.8515 1.24497,-2.35717 2.45783,-2.37057 4.93883,-0.0546 8.48959,0.86035 12.22199,-0.92914 0.73923,-0.38226 1.39435,-0.59465 1.78181,-0.60358 z m 4.52013,1.911 c 0.097,-0.005 0.15348,0.062 0.15348,0.20929 0,1.00844 -4.25328,4.91789 -6.81612,6.26473 -1.18388,0.62217 -1.72794,1.14382 -1.20871,1.15962 1.4646,0.0446 3.85547,-1.36696 6.41046,-3.7853 3.57485,-2.6374 1.76097,-2.32904 3.98124,-2.98958 -0.15513,1.31479 0.75883,0.61988 -0.93388,3.93784 -0.79043,1.54937 -2.64128,3.63537 -4.11293,4.63538 -2.94442,2.00079 -2.69665,2.4089 0.46871,0.77204 1.11246,-0.57528 3.07551,-2.68634 4.36201,-4.69118 1.2865,-2.00484 3.52447,-5.06107 2.9107,-3.86805 -0.70745,1.37512 0.99914,1.66444 -3.8538,7.90346 -0.99773,1.2827 -1.7741,2.47217 -1.99346,2.57173 -0.42197,0.19152 -2.05062,-0.20932 -4.30125,0.4131 -2.74796,0.76021 -4.61093,0.55673 -4.85404,-0.19569 -0.35977,-1.11349 0.57085,-0.74168 3.6629,-2.55504 3.86902,-2.26904 6.7621,-4.82031 6.7621,-5.8265 0,-0.41543 -0.65002,0.17088 -1.64923,1.24848 -1.69752,1.8307 -6.82147,4.83776 -7.4305,4.96518 -0.75872,0.15874 -3.46081,-0.44384 -5.64106,-1.13958 -2.02058,-0.64479 -4.00858,-1.83625 -0.0651,-1.89135 3.70709,-0.0518 11.34658,-4.01071 13.40539,-6.54069 0.3083,-0.37886 0.5815,-0.58929 0.7431,-0.59789 z m 26.20616,0.0501 c 0.22376,-0.0229 0.25089,0.23908 0.0579,0.74208 -0.43015,1.12096 1.11414,2.05468 4.74287,2.86804 2.31804,0.51959 4.03419,1.64195 3.43183,2.2443 -0.25995,0.25995 -1.45149,-0.0155 -2.6479,-0.61236 -1.34043,-0.6687 -2.11497,-0.78291 -2.01797,-0.29714 0.23245,1.16426 -2.00273,1.44348 -2.90008,0.36225 -1.22178,-1.47216 -1.80865,-4.66021 -0.95498,-5.1878 0.11731,-0.0725 0.21377,-0.11174 0.28836,-0.11937 z m 15.62075,0.0786 1.08882,2.00815 c 0.59882,1.10447 0.98949,3.07674 0.86816,4.38267 l -0.22065,2.37402 -2.85254,-0.9927 c -4.13859,-1.44044 -4.77339,-2.39107 -1.59629,-2.39107 2.58433,0 2.65556,-0.071 2.68356,-2.69028 z m -18.71307,0.66611 c 0.78926,0 1.43505,0.25372 1.43505,0.56379 0,0.31007 -0.64579,0.56379 -1.43505,0.56379 -0.78927,0 -1.43506,-0.25372 -1.43506,-0.56379 0,-0.31007 0.64579,-0.56379 1.43506,-0.56379 z m -11.6489,0.76894 0.0842,3.08509 c 0.0464,1.69678 -0.39999,4.02195 -0.99219,5.16712 -0.65099,1.25889 -0.83319,2.02699 -0.59428,2.95745 -0.53332,0.13305 -1.63968,0.54659 -2.93057,1.01337 -2.53393,0.91626 -2.3345,0.91849 -0.33538,-2.31614 0.83627,-1.35312 1.93722,-3.97443 2.44688,-5.82496 0.60267,-2.18827 0.93843,-2.73709 0.95963,-1.57045 0.018,0.98658 -0.39947,3.00461 -0.92759,4.48448 -0.52813,1.47988 -0.84851,2.69027 -0.71158,2.69027 0.64197,0 1.93337,-3.36941 2.43964,-6.3655 z m -3.56568,0.71727 0.0734,2.41381 c 0.11056,3.63338 -2.51083,7.72002 -5.79499,9.03407 -4.39994,1.76051 -4.61433,1.3615 -0.98134,-1.82831 1.40132,-1.23038 3.10009,-3.79254 3.90933,-5.89731 0.78703,-2.04704 1.68138,-4.34874 1.70198,-3.91434 0.0679,1.43453 -1.82667,6.61425 -3.32773,8.80241 -1.20633,1.75853 -1.24309,1.96518 -0.20153,1.12861 1.53868,-1.23584 3.3818,-4.64873 4.0969,-7.5861 z m 12.69225,0.13695 c 0.45337,0.005 0.87271,0.0966 1.15342,0.27285 0.55561,0.34879 1.53624,0.4704 2.17868,0.27078 0.82528,-0.25642 1.2728,0.18607 1.52549,1.50792 0.54013,2.82547 -1.46931,3.17651 -3.56878,0.62322 -1.6829,-2.04668 -1.71673,-2.05499 -1.49965,-0.3669 0.29924,2.32696 -1.77052,2.9865 -3.60443,1.01802 -1.24987,-1.34157 -0.83716,-1.73842 -0.83716,-0.72812 0,1.48225 -2.19481,2.18201 -3.36414,0.77308 -0.71496,-0.86147 0.12843,-1.70352 2.41433,-2.07584 1.50884,-0.24576 3.4191,-0.71896 4.2447,-1.05162 0.41712,-0.16806 0.90417,-0.24868 1.35754,-0.24339 z m 24.49721,1.24695 c 0.0937,-0.008 0.22084,0.0756 0.38344,0.23823 0.4656,0.4656 0.90736,2.30933 0.98186,4.0969 0.12788,3.06964 0.0316,3.24746 -1.73633,3.20446 -2.01678,-0.049 -5.10098,-1.09728 -5.10098,-1.73374 0,-0.21468 1.34232,-0.1755 2.98276,0.0868 l 2.98276,0.47698 -0.47852,-3.4892 c -0.27555,-2.01041 -0.29616,-2.857 -0.015,-2.88044 z m 3.00706,1.51567 c 0.15682,-0.0176 0.36417,0.2869 0.67076,0.82269 0.49399,0.86334 0.75214,2.71114 0.5736,4.10569 -0.17855,1.39456 0.004,2.73842 0.40618,2.9869 0.40195,0.24847 0.56148,0.89307 0.3545,1.43247 -0.20699,0.53939 -0.0172,1.20236 0.42116,1.47329 0.51621,0.31904 0.59248,0.16183 0.21653,-0.44648 -0.39864,-0.64501 -0.30175,-0.76673 0.31006,-0.38861 0.6364,0.39332 0.67035,0.77143 0.11834,1.32344 -1.36915,1.36914 -2.73839,1.1144 -5.2834,-0.98341 -1.36977,-1.12908 -2.64248,-1.9009 -2.82825,-1.71514 -0.18576,0.18576 -0.9263,-0.31234 -1.64538,-1.10691 -1.28562,-1.4206 -1.27243,-1.43776 0.78186,-1.02888 4.94033,0.98333 4.93031,0.98914 5.31803,-3.27576 0.20409,-2.245 0.32464,-3.16989 0.58601,-3.19929 z m -17.06511,1.58181 c 0.10269,0.004 0.21449,0.0156 0.33486,0.0331 0.78926,0.11494 2.55547,0.27623 3.92534,0.35863 2.56743,0.15439 4.2919,2.15948 4.3155,5.0183 0.009,1.03922 -0.24812,1.14238 -1.36012,0.54725 -0.75383,-0.40343 -3.28403,-1.44641 -4.40904,-2.57142 0,0 -0.72582,-2.42385 -1.05264,-2.25309 -0.38646,0.20192 -0.17284,0.45548 0.60099,2.39004 0.95404,2.38509 -0.47256,3.52921 -2.33629,3.17293 -1.22336,-0.23386 -2.1776,-1.87707 -3.08456,-3.41426 -1.75504,-2.97457 -2.16375,-2.63772 -0.58808,0.40927 1.44016,2.78497 1.05282,3.18017 -0.65784,3.18017 -0.90758,0 -1.92936,-1.19899 -2.83859,-2.92127 -1.5246,-2.88799 -1.48409,-2.32027 -0.0879,0.74414 0.5642,1.23827 1.79777,2.25425 -0.1571,2.9838 -3.04098,1.13489 -3.32522,-0.41676 -4.00285,-3.43493 0,0 -0.46345,-2.9748 -0.66973,-2.9838 -0.48892,-0.0221 0.26923,3.24683 0.26923,3.24683 1.54589,6.24887 -4.267,5.64203 -4.1956,-0.73845 0.0242,-2.16196 -0.31925,-2.0168 -0.41755,0.89968 -0.0938,2.78482 -0.35557,3.40858 -1.4304,3.40858 -2.52861,0 -3.01656,-2.21925 -1.24231,-5.6503 0.98358,-1.90202 1.25144,-1.98704 5.9583,-1.88774 2.71052,0.0572 5.2918,0.32867 5.7366,0.60358 0.44481,0.2749 1.01147,0.17214 1.25935,-0.22893 0.62813,-1.01634 3.48099,-0.91212 4.57905,0.16743 0.73154,0.71922 0.86655,0.68375 0.68161,-0.17931 -0.13541,-0.63194 0.15089,-0.92967 0.86972,-0.90021 z m 18.92701,4.71755 c 0.25814,-0.043 0.72096,0.42342 1.10639,1.14359 0.93984,1.75609 0.59129,1.95738 -0.69867,0.40308 -0.49874,-0.60149 -0.72645,-1.27498 -0.50487,-1.49655 0.0277,-0.0277 0.0603,-0.044 0.0971,-0.0501 z m -3.1657,3.35793 c -0.037,0.037 0.17955,0.32758 0.6258,0.89659 0.93734,1.19518 1.52652,1.57549 1.52652,0.98495 0,-0.14899 -0.56461,-0.71412 -1.25522,-1.25574 -0.56901,-0.44624 -0.86007,-0.66284 -0.8971,-0.6258 z m 6.74326,3.13159 c 0.30667,0.01 0.92328,0.75982 1.47743,1.83141 0.63331,1.22469 3.01664,4.40297 5.2958,7.06262 2.27915,2.65966 4.38645,5.23918 4.68343,5.73247 0.29699,0.49329 0.27895,0.89012 -0.0403,0.88212 -0.80072,-0.0208 -13.39932,-13.61778 -12.61783,-13.61778 0.3458,0 1.01627,0.38737 1.48983,0.86093 0.47834,0.47834 0.86093,0.54228 0.86093,0.14366 0,-0.39463 -0.38206,-1.09985 -0.84904,-1.56683 -0.46697,-0.46699 -0.65192,-1.04566 -0.41135,-1.28622 0.0301,-0.0301 0.0673,-0.0438 0.11111,-0.0424 z"
           sodipodi:nodetypes="sccssssssssssssssssssssssssssssscsssssssssssssccsscsssssssscssssssssssssccssssccssssscsssccsccssscssssssssccssscsscccsssssccssscsssssscscssccssssscccscscccsccsssscscssscsssssssssssssssssssccccssssssssssssssssssssssssssssssssssssssccsssssssssssssssssssssssssssssccssssscssssssssssssssssssssssssssssssssccssssssssssssssscccssccssssccsssccssssssscssssccsssssssssssccsssssssssssssssccssssssssssssssccssssssssssscsscsscsssccccsssccssssssscsssssssscsssssssssscscccsccsssssccscssscsscccsssscsscccsssssssssscssssssccssssscsssssssssssscscscssssssssscccscssssssssssscsssssssssssscsssssss" /></g></g></g></svg>
