<?xml version="1.0" encoding="utf-8"?>
<!-- Generator: Adobe Illustrator 24.0.2, SVG Export Plug-In . SVG Version: 6.00 Build 0)  -->
<svg version="1.1" id="Слой_1" xmlns="http://www.w3.org/2000/svg" xmlns:xlink="http://www.w3.org/1999/xlink" x="0px" y="0px"
	 viewBox="0 0 1282.74 1597.61" style="enable-background:new 0 0 1282.74 1597.61;" xml:space="preserve">
<style type="text/css">
	.st0{fill:#323232;}
	.st1{fill:#FCFAFB;}
	.st2{fill:#DA251D;}
	.st3{fill:#0093DD;}
	.st4{fill:#FFFFFF;stroke:#FFFFFF;stroke-width:1.112;stroke-miterlimit:10;}
</style>
<g>
	<path class="st0" d="M643.05,1591.81c-20.04-17.48-38.48-34.58-57.99-50.38c-40.43-32.73-85.06-58.75-132.47-80.05
		c-31.15-13.99-63.42-24.73-95.99-34.91c-40.02-12.51-77.4-31.04-112.76-53.64c-46.73-29.87-87.15-66.87-122.42-109.42
		c-46.63-56.24-79.38-119.83-98.62-190.38C9.06,1022.67,3.48,971.4,5.27,919.29c2.63-76.32,21.2-148.51,55.14-216.97
		c21.78-43.93,43.11-88.13,63.27-132.82c24.29-53.87,31.21-110.41,21.49-168.83c-9.54-57.36-34.3-107.87-70.63-152.69
		c-13.9-17.14-30.03-32.47-45.15-48.62c-0.44-0.47-0.88-0.94-1.56-1.66c10.42-12.49,20.76-24.84,31.06-37.22
		c28.53-34.3,57.04-68.63,85.58-102.92c13.74-16.51,27.58-32.93,41.24-49.51c2.19-2.66,4.18-3.33,7.64-2.59
		c78.07,16.62,156.17,33.07,234.27,49.57c66.54,14.06,133.15,27.81,199.55,42.52c11.83,2.62,22.41,1.19,33.63-1.28
		c30.42-6.69,60.95-12.9,91.42-19.34C816,63.45,879.77,49.95,943.54,36.44c49.12-10.41,98.23-20.86,147.38-31.15
		c1.54-0.32,4.07,0.43,5.05,1.6c52.86,63.21,105.61,126.53,158.37,189.83c0.21,0.25,0.36,0.55,0.54,0.84
		c-8.38,8.52-16.91,16.9-25.12,25.57c-33.23,35.07-59.56,74.71-76.38,120.09c-29.98,80.91-25.93,160.44,11.4,238.29
		c22.36,46.63,44.85,93.19,66.76,140.03c14.98,32.05,25.94,65.52,33.64,100.12c14.31,64.27,16.85,128.92,7.05,194
		c-12.63,83.85-44.18,160.01-95.04,227.81c-42.82,57.09-94.55,104.54-156.46,140.58c-36.57,21.28-75.43,36.76-115.82,49.26
		c-83.95,25.98-160.05,66.75-226.8,124.33c-6.3,5.44-12.54,10.98-18.49,16.79C653.66,1580.24,648.12,1586.45,643.05,1591.81z
		 M641.78,1578.74c0.82-0.74,1.84-1.58,2.77-2.52c67.34-67.93,147.33-115.48,237.12-147.26c26.46-9.37,53.4-17.56,79.3-28.26
		c56.94-23.51,107.02-57.88,151.22-100.66c45.82-44.35,81.88-95.74,108.35-153.79c24.88-54.57,39.57-111.83,44.17-171.6
		c2.84-36.98,1.57-73.87-3.59-110.66c-7.57-54.02-23.97-105.29-47.5-154.31c-16.77-34.94-34.01-69.67-51.76-104.13
		c-18.59-36.08-32.06-73.64-37.91-113.95c-7.32-50.42-2.43-99.49,14.73-147.38c12.74-35.56,31.12-68.07,54.87-97.34
		c13.72-16.9,28.75-32.74,43.37-49.26c-0.07-0.09-0.74-1.03-1.48-1.91c-48.41-58.06-96.85-116.1-145.17-174.23
		c-2-2.41-3.8-2.49-6.46-1.93C993.05,38.8,902.28,58,811.49,77.15c-54.96,11.59-109.95,23.1-164.93,34.6
		c-2.55,0.53-5.25,1.16-7.76,0.82c-4.76-0.63-9.43-1.95-14.14-2.95c-41.81-8.87-83.61-17.76-125.43-26.6
		c-62.32-13.17-124.65-26.27-186.97-39.44c-36.61-7.74-73.24-15.4-109.78-23.46c-5.71-1.26-8.79,0.1-12.45,4.53
		c-39.48,47.71-79.23,95.2-118.89,142.77c-8.6,10.31-17.14,20.67-25.77,31.1c0.96,1.02,1.61,1.78,2.32,2.46
		c18.04,17.12,34.66,35.49,49.34,55.59c33.86,46.37,56.52,97.34,63.23,154.77c6.13,52.47-0.85,103.43-20.31,152.35
		c-9.13,22.95-20.8,44.9-31.54,67.19c-15.84,32.86-32.58,65.31-47.7,98.5c-26.42,58.02-40.44,119.24-43.4,182.87
		c-1.86,40.06,0.95,79.87,8.63,119.31c15.32,78.58,47.21,149.68,95.81,213.3c32.53,42.58,70.98,78.9,115.15,109.18
		c38.92,26.68,80.61,47.97,125.61,62.28c30.76,9.78,61.24,20.11,90.74,33.3c54.9,24.54,105.62,55.7,151.21,94.99
		C617.18,1555.58,629.27,1567.27,641.78,1578.74z"/>
	<path class="st1" d="M641.78,1578.74c-12.51-11.48-24.6-23.17-37.32-34.13c-45.59-39.29-96.31-70.45-151.21-94.99
		c-29.5-13.19-59.98-23.52-90.74-33.3c-45-14.31-86.69-35.6-125.61-62.28c-44.16-30.28-82.62-66.6-115.15-109.18
		c-48.6-63.63-80.49-134.72-95.81-213.3c-7.69-39.44-10.5-79.25-8.63-119.31c2.96-63.63,16.97-124.85,43.4-182.87
		c15.12-33.19,31.86-65.64,47.7-98.5c10.75-22.29,22.41-44.24,31.54-67.19c19.47-48.92,26.44-99.88,20.31-152.35
		c-6.71-57.43-29.37-108.41-63.23-154.77c-14.68-20.1-31.3-38.47-49.34-55.59c-0.72-0.68-1.36-1.43-2.32-2.46
		c8.64-10.42,17.17-20.79,25.77-31.1c39.66-47.56,79.41-95.05,118.89-142.77c3.66-4.43,6.75-5.79,12.45-4.53
		c36.54,8.06,73.17,15.72,109.78,23.46c62.32,13.17,124.65,26.28,186.97,39.44c41.82,8.83,83.62,17.72,125.43,26.6
		c4.71,1,9.38,2.32,14.14,2.95c2.51,0.33,5.22-0.29,7.76-0.82c54.98-11.5,109.96-23.01,164.93-34.6
		C902.28,58,993.05,38.8,1083.82,19.57c2.65-0.56,4.46-0.48,6.46,1.93c48.33,58.13,96.76,116.17,145.17,174.23
		c0.74,0.89,1.41,1.83,1.48,1.91c-14.62,16.52-29.66,32.35-43.37,49.26c-23.75,29.27-42.13,61.78-54.87,97.34
		c-17.16,47.89-22.05,96.95-14.73,147.38c5.85,40.31,19.32,77.87,37.91,113.95c17.75,34.45,34.99,69.19,51.76,104.13
		c23.53,49.01,39.93,100.29,47.5,154.31c5.15,36.79,6.43,73.68,3.59,110.66c-4.6,59.77-19.29,117.03-44.17,171.6
		c-26.47,58.05-62.53,109.44-108.35,153.79c-44.2,42.78-94.28,77.15-151.22,100.66c-25.91,10.69-52.85,18.89-79.3,28.26
		c-89.78,31.78-169.78,79.33-237.12,147.26C643.63,1577.16,642.6,1578,641.78,1578.74z M1114.91,1247.01
		c0.37-0.47,0.74-0.94,1.11-1.41c24.46-29.49,44.34-61.91,60.76-96.42c28.06-58.97,43.97-121.18,48.45-186.32
		c5.03-73.26-4.17-144.7-29.63-213.59c-12.91-34.92-28.28-68.94-42.36-103.43c-1.54-3.78-3.41-5.09-7.6-5.08
		c-117.78,0.13-235.57,0.09-353.35,0.08c-120.98,0-241.96,0-362.94,0.01c-97.65,0.01-195.3,0.04-292.95-0.06
		c-3.42,0-4.94,1.04-6.19,4.1c-6.41,15.62-13.04,31.16-19.61,46.72c-12.68,30.04-25.53,60-34.34,91.5
		c-16.45,58.79-22.65,118.59-18.49,179.5c3.62,53.04,14.97,104.33,34.32,153.83c18.42,47.13,43.3,90.55,75.32,129.8
		c0.16,0.29,0.27,0.62,0.48,0.88c29.43,35.93,63.36,66.89,102.39,92.11c30.89,19.96,63.46,36.51,99,46.6
		c65.62,18.62,127.25,46.04,184.34,83.48c30.14,19.77,58.2,42.17,84.21,67.13c2.55,2.45,3.94,3.27,7.1,0.26
		c22.55-21.5,46.51-41.3,72.17-59.06c45.85-31.73,95.06-56.94,147.48-75.76c20.49-7.36,41.67-12.79,62.22-20.01
		c47.44-16.66,90.09-41.89,128.58-74.14c21.85-18.31,41.97-38.37,59.63-60.82L1114.91,1247.01z M641.49,289.15
		c-25.52,39.28-50.56,77.77-75.44,116.38c-0.72,1.12-0.3,3.75,0.57,5.02c8.99,13.24,6.24,30.16-6.52,38.93
		c-12.67,8.71-30.28,5.57-39-6.95c-8.96-12.87-5.82-29.61,7.51-38.47c2.87-1.91,3.42-3.75,3.03-6.93c-5.01-40.99-9.88-82-14.8-123
		c-0.41-3.38-0.94-6.74-1.53-10.88c-41.24,26.87-81.75,53.27-122.23,79.64c0.51,1.85,0.9,3.27,1.28,4.69
		c3.61,13.4-2.57,26.29-15.01,32.42c-10.42,5.13-26.84,2.35-34.64-9.08c-11.83-17.33-1.96-39.85,18.55-42.94
		c3-0.45,3.83-1.88,4.48-4.28c11.61-43.4,23.25-86.79,34.85-130.19c0.27-1.01,0.21-2.11,0.34-3.47c-42.64,9-84.78,17.97-126.97,26.7
		c-4.3,0.89-6.19,2.21-7.03,6.92c-1.97,10.95-9.15,18-19.75,20.96c-10.45,2.92-19.88,0.28-27.43-7.54
		c-8.56-8.87-10.22-21.65-4.58-31.83c6.21-11.19,18.17-16.79,30.89-13.93c3.06,0.69,4.41-0.03,6.11-2.33
		c26.42-35.74,52.92-71.42,79.39-107.12c0.75-1.02,1.29-2.2,2.13-3.66c-2.08-0.5-3.67-0.93-5.28-1.27
		c-38.78-8.02-77.61-15.78-116.29-24.27c-7.04-1.55-10.67,0.26-14.9,5.45c-30.93,37.94-62.14,75.64-93.27,113.41
		c-7.16,8.69-14.35,17.35-21.64,26.15c35.49,35.66,64.46,75.1,83.88,121.21c19.55,46.41,27.31,94.64,23.08,144.93
		c300.34,0,600.24,0,900.19,0c0.1-0.71,0.25-1.19,0.22-1.65c-2.45-31.82-0.93-63.28,6.99-94.39c5.57-21.87,12.82-43.05,22.6-63.36
		c18.38-38.17,43-71.91,72.88-101.85c3.41-3.41,4.1-5.58,0.67-9.72c-37.81-45.64-75.45-91.43-112.95-137.33
		c-2.83-3.46-5.23-4.41-9.6-3.48c-31.08,6.63-62.22,12.97-93.34,19.4c-10.38,2.15-20.75,4.32-32.06,6.67
		c3.94,5.33,7.36,9.97,10.8,14.61c23.56,31.86,47.15,63.7,70.63,95.62c2,2.71,3.7,3.63,7.33,2.87c15.58-3.28,29.87,6.57,33.01,22.24
		c2.78,13.84-7.27,28.81-21.22,31.58c-15.84,3.15-30.2-6.07-33.56-21.56c-0.38-1.76-0.71-3.53-1.1-5.46
		c-44.18-9.31-88.24-18.59-132.81-27.98c0.26,1.64,0.35,2.92,0.68,4.13c11.55,43.23,23.14,86.44,34.65,129.68
		c0.67,2.52,1.6,3.75,4.51,4.15c15.55,2.14,25.87,16.81,23.05,32.34c-2.68,14.74-17.87,24.7-33.1,21.69
		c-15.14-2.99-25.29-17.96-21.29-32.96c1.47-5.53-0.33-7.52-4.31-10.09c-30.08-19.41-60.05-38.99-90.05-58.51
		c-8.59-5.59-17.18-11.17-26.3-17.1c-0.37,1.83-0.66,2.9-0.79,4c-5.03,41.99-9.93,84-15.22,125.97c-0.72,5.73,0.19,9.11,5.09,12.77
		c11.96,8.93,13.39,25.74,4.07,37.82c-9.1,11.8-26.24,13.91-38.94,4.79c-11.49-8.26-14.48-25.25-6.11-36.93
		c2.27-3.17,2.01-5.16,0.01-8.21c-16.43-25.05-32.67-50.23-48.99-75.36C658.58,315.37,650.23,302.57,641.49,289.15z M416.43,94.76
		c44.4,75.39,132.3,135.82,240.27,128.81c91.62-5.95,160.33-51.25,210.17-128.04c-1.56-0.28-2.06-0.52-2.5-0.43
		c-36.66,7.53-73.31,15.08-109.96,22.66c-36.65,7.57-73.3,15.2-109.97,22.71c-2.05,0.42-4.33,0.35-6.39-0.06
		c-15.17-3.04-30.31-6.23-45.46-9.37c-43.01-8.91-86.01-17.85-129.03-26.73C448.13,101.12,432.66,98.05,416.43,94.76z M360.28,83.2
		c39.9,97.11,149.99,190.49,293.8,184.47c141.06-5.9,235.89-102.88,268.47-184.43c-10.43,2.08-20.62,4.25-30.87,6.09
		c-3.45,0.62-5.46,2.29-7.17,5.28c-29.07,50.63-69.79,88.99-121.99,115.1c-34.08,17.04-70.2,27.02-108.22,29.11
		c-41.54,2.28-81.25-6.24-119.42-22.48c-37.64-16.01-70.21-39.22-97.99-69.14c-15-16.16-27.9-33.91-38.84-53.08
		c-0.86-1.51-2.11-3.57-3.51-3.88C383.23,87.7,371.85,85.53,360.28,83.2z M904.6,333.99c-12.11-46.5-23.85-91.61-35.55-136.52
		c-13.87,10.84-27,22.09-41.15,31.88c-14.09,9.75-29.2,18.04-44.23,27.19C823.6,282.11,863.45,307.64,904.6,333.99z M414.2,196.29
		c-11.93,46.07-23.58,91.08-35.56,137.34c41.22-26.3,81.17-51.8,121.72-77.68C468.43,240.33,440.21,220.96,414.2,196.29z
		 M625.77,289.5c-16.98-2.64-33.02-4.44-48.74-7.76c-15.7-3.31-31.09-8.13-47.14-12.42c5.99,43.72,11.99,87.54,17.99,131.36
		c0.41,0.09,0.82,0.18,1.23,0.27C574.65,363.8,600.21,326.66,625.77,289.5z M656.57,288.56c26.25,38.14,51.91,75.42,78.29,113.75
		c6.22-45.24,12.26-89.17,18.42-134C721.71,279.73,690.32,286.54,656.57,288.56z M940.75,94.63
		c-13.99,30.35-31.38,57.28-52.93,82.08c44.78,9.15,88.69,18.12,133.99,27.38C994.49,167.19,968.01,131.43,940.75,94.63z
		 M342.24,94.58c-27.02,36.52-53.45,72.26-79.89,108c0.21,0.38,0.41,0.75,0.62,1.13c43.8-8.94,87.6-17.89,132.28-27.01
		C373.51,151.65,356.13,124.87,342.24,94.58z M255.93,218.72c0.04-8.1-6.02-14.31-14.06-14.41c-7.67-0.09-13.93,6.1-14.02,13.88
		c-0.09,8.29,6.19,14.8,14.23,14.73C249.61,232.86,255.89,226.42,255.93,218.72z M1055.17,218.92c0.21-8.01-5.76-14.35-13.82-14.67
		c-7.39-0.3-14.01,6.07-14.3,13.75c-0.29,7.9,5.86,14.62,13.67,14.93C1048.45,233.23,1054.95,226.93,1055.17,218.92z M353.05,354.18
		c-0.05,8.41,5.62,14.79,13.28,14.93c7.91,0.15,14.72-6.1,14.42-14.07c-0.31-8.21-5.46-13.79-14.59-14.38
		C359.45,340.23,353.09,347.05,353.05,354.18z M738.53,441.19c8.18-0.06,13.95-6.1,13.81-14.44c-0.14-8.12-6.24-14.01-14.4-13.92
		c-7.5,0.08-13.87,6.68-13.76,14.26C724.3,435.17,730.48,441.25,738.53,441.19z M544.73,441.24c7.96-0.11,14.1-6.36,14.12-14.38
		c0.02-7.69-6.64-14.16-14.47-14.06c-7.95,0.1-13.8,6.37-13.7,14.68C530.78,435.24,537,441.34,544.73,441.24z M930.36,354.79
		c-0.05-8.23-5.97-14.09-14.21-14.07c-7.71,0.02-13.87,6.21-13.89,13.98c-0.03,7.97,6.3,14.44,14.07,14.39
		C924.38,369.04,930.41,362.9,930.36,354.79z"/>
	<g>
		<path class="st2" d="M1195.6,749.27c-12.91-34.92-28.28-68.94-42.36-103.43c-1.54-3.78-3.41-5.09-7.6-5.08
			c-117.78,0.13-235.57,0.09-353.35,0.08c-120.98,0-241.96,0-362.94,0.01c-97.65,0.01-195.3,0.04-292.95-0.06
			c-3.42,0-4.94,1.04-6.19,4.1c-6.41,15.62-13.04,31.16-19.61,46.72c-12.68,30.04-25.53,60-34.34,91.5
			c-16.45,58.79-22.65,118.59-18.49,179.5c3.62,53.04,14.97,104.33,34.32,153.83c18.42,47.13,43.3,90.55,75.32,129.8
			c5.28,0.41,10.55,0.9,15.84,1.22c30.7,1.81,58.71-5.42,83.03-24.9c1.41-1.13,2.74-2.38,4.11-3.58
			c40.05,51.07,115.9,48.19,152.9-1.23c18.78,22.18,42.45,34.62,71.68,35.46c29.29,0.84,53.69-10.19,74.2-31.56
			c19.67,21.65,43.91,33.63,73.35,33.49c29.43-0.14,53.66-12.01,72.97-34.09c37.78,42.85,105.53,44.52,145.96-1.58
			c19.87,22.94,44.8,35.64,75.41,35.33c30.5-0.31,55.15-13.16,74.3-36.35c27.4,31.28,61.72,37.83,100.54,28.84
			c1.08-0.25,2.22-0.26,3.32-0.38c0.34-0.44,0.68-0.87,1.02-1.31c24.46-29.49,44.34-61.91,60.77-96.42
			c28.06-58.97,43.97-121.18,48.45-186.32C1230.26,889.59,1221.06,818.15,1195.6,749.27z"/>
		<path class="st2" d="M1114.99,1246.91C1114.99,1246.91,1114.99,1246.91,1114.99,1246.91c-0.03,0.03-0.05,0.07-0.08,0.1
			C1114.91,1247.01,1114.99,1246.91,1114.99,1246.91z"/>
		<path class="st2" d="M191.27,463.8c300.34,0,600.24,0,900.19,0c0.1-0.71,0.25-1.19,0.22-1.65c-2.45-31.82-0.93-63.28,6.99-94.39
			c5.57-21.87,12.82-43.05,22.6-63.36c18.38-38.17,43-71.91,72.88-101.85c3.41-3.41,4.1-5.58,0.67-9.72
			c-37.81-45.64-75.45-91.43-112.95-137.33c-2.83-3.46-5.23-4.41-9.6-3.48c-31.08,6.63-62.22,12.97-93.34,19.4
			c-10.38,2.15-20.75,4.32-32.06,6.67c3.94,5.33,7.36,9.97,10.8,14.61c23.56,31.86,47.15,63.7,70.63,95.62
			c2,2.71,3.7,3.63,7.33,2.87c15.58-3.28,29.87,6.57,33.01,22.24c2.78,13.84-7.27,28.81-21.22,31.58
			c-15.84,3.15-30.2-6.07-33.56-21.56c-0.38-1.76-0.71-3.53-1.1-5.46c-44.18-9.31-88.24-18.59-132.81-27.98
			c0.26,1.64,0.35,2.92,0.68,4.13c11.55,43.23,23.14,86.44,34.65,129.68c0.67,2.52,1.6,3.75,4.51,4.15
			c15.55,2.14,25.87,16.81,23.05,32.34c-2.68,14.74-17.87,24.7-33.1,21.69c-15.14-2.99-25.29-17.96-21.29-32.96
			c1.47-5.53-0.33-7.52-4.31-10.09c-30.08-19.41-60.05-38.99-90.05-58.51c-8.59-5.59-17.18-11.17-26.3-17.1
			c-0.37,1.83-0.66,2.9-0.79,4c-5.03,41.99-9.93,84-15.22,125.97c-0.72,5.73,0.19,9.11,5.09,12.77
			c11.96,8.93,13.39,25.74,4.07,37.82c-9.1,11.8-26.24,13.91-38.94,4.79c-11.49-8.26-14.48-25.25-6.11-36.93
			c2.27-3.17,2.01-5.16,0.01-8.21c-16.43-25.05-32.67-50.23-48.99-75.36c-8.33-12.82-16.68-25.63-25.42-39.05
			c-25.52,39.28-50.56,77.77-75.44,116.38c-0.72,1.12-0.3,3.75,0.57,5.02c8.99,13.24,6.24,30.16-6.52,38.93
			c-12.67,8.71-30.28,5.57-39-6.95c-8.96-12.87-5.82-29.61,7.51-38.47c2.87-1.91,3.42-3.75,3.03-6.93c-5.01-40.99-9.88-82-14.8-123
			c-0.41-3.38-0.94-6.74-1.53-10.88c-41.24,26.87-81.75,53.27-122.23,79.64c0.51,1.85,0.9,3.27,1.28,4.69
			c3.61,13.4-2.57,26.29-15.01,32.42c-10.42,5.13-26.84,2.35-34.64-9.08c-11.83-17.33-1.96-39.85,18.55-42.94
			c3-0.45,3.83-1.88,4.48-4.28c11.61-43.4,23.25-86.79,34.85-130.19c0.27-1.01,0.21-2.11,0.34-3.47
			c-42.64,9-84.78,17.97-126.97,26.7c-4.3,0.89-6.19,2.21-7.03,6.92c-1.97,10.95-9.15,18-19.75,20.96
			c-10.45,2.92-19.88,0.28-27.43-7.54c-8.56-8.87-10.22-21.65-4.58-31.83c6.21-11.19,18.17-16.79,30.89-13.93
			c3.06,0.69,4.41-0.03,6.11-2.33c26.42-35.74,52.92-71.42,79.39-107.12c0.75-1.02,1.29-2.2,2.13-3.66
			c-2.08-0.5-3.67-0.93-5.28-1.27c-38.78-8.02-77.61-15.78-116.29-24.27c-7.04-1.55-10.67,0.26-14.9,5.45
			c-30.93,37.94-62.14,75.64-93.27,113.41c-7.16,8.69-14.35,17.35-21.64,26.15c35.49,35.66,64.46,75.1,83.88,121.21
			C187.75,365.28,195.5,413.51,191.27,463.8z"/>
	</g>
	<path class="st2" d="M167.4,1246.24c-32.02-39.26-56.9-82.68-75.32-129.8c-19.35-49.5-30.7-100.79-34.32-153.83
		c-4.15-60.91,2.04-120.72,18.49-179.5c8.81-31.5,21.66-61.46,34.34-91.5c6.57-15.56,13.2-31.09,19.61-46.72
		c1.26-3.06,2.77-4.11,6.19-4.1c97.65,0.11,195.3,0.07,292.95,0.06c120.98-0.01,241.96-0.01,362.94-0.01
		c117.78,0,235.57,0.04,353.35-0.08c4.19,0,6.06,1.31,7.6,5.08c14.09,34.49,29.45,68.51,42.36,103.43
		c25.46,68.89,34.66,140.33,29.63,213.59c-4.48,65.14-20.39,127.35-48.45,186.32c-16.42,34.51-36.3,66.93-60.77,96.42
		c-0.37,0.47-0.74,0.94-1.11,1.41c0,0,0.08-0.1,0.08-0.1c-1.11,0.12-2.25,0.13-3.33,0.38c-38.82,8.99-73.14,2.44-100.54-28.84
		c-19.14,23.19-43.8,36.04-74.3,36.35c-30.61,0.31-55.54-12.4-75.41-35.33c-40.43,46.1-108.18,44.43-145.96,1.58
		c-19.3,22.08-43.54,33.94-72.97,34.09c-29.44,0.14-53.67-11.83-73.35-33.49c-20.51,21.37-44.91,32.4-74.2,31.56
		c-29.23-0.84-52.9-13.28-71.68-35.46c-36.99,49.42-112.85,52.3-152.9,1.23c-1.37,1.2-2.69,2.45-4.11,3.58
		c-24.32,19.49-52.32,26.71-83.03,24.9C177.95,1247.14,172.68,1246.65,167.4,1246.24z M600.28,1043.43
		c2.72,10.76,5.23,20.49,7.64,30.23c4.05,16.34,4.27,33.05,3.69,49.68c-0.71,20.46,1.35,41.23-7.06,60.99
		c-2.47,5.79-2.23,12.74-3.27,19.39c8.15-0.67,14.94-1.26,21.74-1.77c4.44-0.33,7.6-2.55,9.13-6.62c2.15-5.74,5.09-11.49,5.72-17.44
		c1.92-18.36,4.34-36.86,3.92-55.24c-0.67-29.6,3.59-58.29,11.15-86.92c0.13-0.04,0.6-0.32,1.07-0.33
		c22.23-0.54,44.14-3.26,65.56-9.47c1.17-0.34,3.23,0.82,4.27,1.88c3.01,3.07,5.39,6.82,8.6,9.65
		c13.27,11.71,23.92,25.5,32.36,40.91c6.05,11.06,8.35,23.25,6.51,35.76c-3.39,23.12-12.27,43.81-28.89,60.69
		c-6.22,6.32-9.32,13.92-10.67,22.56c-0.71,4.59,1.29,6.2,5.29,6.33c6.49,0.22,12.99,0.41,19.49,0.4c8.08-0.01,8.12-0.1,10.2-8.05
		c0.63-2.41,0.97-4.89,1.46-7.33c5.44-27.43,15.17-53.08,31.98-75.68c6.81-9.16,11.02-19.3,12.99-30.43c1-5.66-1.02-7.67-6.54-9.81
		c-5.79-2.24-11.57-5.01-16.56-8.64c-5.1-3.71-5.31-8.21-2.35-13.74c4.18-7.81,15.54-11.07,25.08-7.46
		c9.29,3.51,14.31,11.44,19,19.14c22.93,37.65,30.4,78.71,25.78,122.26c-0.41,3.9-0.39,7.85-0.59,12.45
		c8.31,0,15.93,0.18,23.52-0.16c1.5-0.07,3.59-1.85,4.27-3.36c4.71-10.42,6.84-20.9-0.56-31.2c-0.83-1.16-1.05-2.78-1.49-4.21
		c-8.75-28.63-11.88-57.65-5.85-87.25c0.9-4.4-0.31-7.21-3.7-10.36c-12.42-11.53-24.37-23.57-36.52-35.38
		c-2.4-2.33-3.04-4.66-1.7-8.01c9-22.5,14.43-45.96,18.21-69.82c3.5-22.08-9.02-43.92-29.79-52.26
		c-22.9-9.21-46.95-10.41-71.21-10.12c-15.76,0.19-31.17,3.78-47.21,2.71c-23.05-1.53-46.27-0.66-69.42-0.55
		c-6.77,0.03-12.3-1.99-17.01-6.82c-2.07-2.12-4.46-4.03-6.97-5.6c-20.01-12.47-45.23-10.58-64.87,4.79
		c-16.76,13.12-32.98,27.01-50.4,39.17c-11.94,8.34-23.15,19.68-39.86,18.06c-29.77,8.61-57.67,20.95-79.93,43.17
		c-7.21,7.2-13.46,15.72-18.57,24.54c-5.5,9.5-1.34,18.16,9.18,21.23c5.36,1.56,11.1,1.91,16.69,2.59
		c24.34,2.96,47.45-0.06,68.34-14.04c7.15-4.78,13.47-3.66,19.7,2.41c7.48,7.28,15.06,14.51,23.11,21.14
		c13.06,10.76,27.47,11.13,42.02,2.02c1.7-1.07,4.01-1.5,6.06-1.61c8.47-0.46,16.97-0.41,25.41-1.12c4.02-0.34,5.49,0.95,6.74,4.61
		c3.81,11.17,7.25,22.6,12.43,33.14c6.06,12.34,9.69,24.98,11.03,38.58c2.56,25.82-1.3,50.42-12.87,73.69
		c-1.69,3.39-4.24,6.35-6.2,9.62c-1.05,1.76-2.87,4.8-2.29,5.48c1.99,2.31,4.76,5.09,7.49,5.39c7.39,0.83,11.75-3.77,11.89-11.9
		c0.16-9.2,1.92-17.81,7.13-25.58c0.77-1.15,1.07-2.8,1.1-4.22c0.48-22.3,1.48-44.62,1.06-66.91c-0.25-13.24-2.43-26.46-7.99-38.89
		C595.47,1054.28,597.71,1048.92,600.28,1043.43z M353.37,885.8c-7.58-5.59-14.6-10.86-21.74-15.98c-2.68-1.92-5.42-1.77-7.34,1.22
		c-1.96,3.04-0.01,4.65,2.28,6.53c5.52,4.52,10.62,9.55,16.21,13.97c3.16,2.5,6.76,5.38,10.5,6.01c8.5,1.44,17.26,2.42,25.85,2.07
		c14.15-0.58,23.28,8.1,33.53,15.6c-0.79,0.89-1.16,1.47-1.67,1.85c-1.07,0.79-2.16,1.6-3.35,2.17c-20.37,9.63-40.74,9.92-60.13-1.9
		c-7.2-4.39-12.71-11.51-19.24-17.09c-1.58-1.35-4.28-2.35-6.19-2c-1.21,0.22-2.98,3.46-2.66,4.95c1.47,6.73,3.99,13.31,9.61,17.62
		c6.09,4.67,9.68,10.86,12.77,17.53c2.58,5.57,4.33,6.59,10.04,5.01c17.13-4.73,34.69-6.39,52.34-6.94c4-0.12,9.4,0.19,11.82,2.62
		c6.22,6.25,11.79,4.24,17.95,0.97c0.29-0.15,0.63-0.22,0.96-0.27c3.48-0.54,4.62-2.61,5.24-6.07
		c3.77-21.15,13.29-38.77,31.53-51.21c9.73-6.64,18.81-14.2,28.38-21.08c1.7-1.22,4.34-1.65,6.52-1.58
		c5.77,0.17,11.52,0.99,17.29,1.16c2.71,0.08,6.04,0.06,5.37-4.47c-0.52-3.51-1.15-6.25-5.92-6.17c-4.7,0.08-9.42-0.99-13.99-1.54
		c2.06-6.76,4.15-12.51,5.48-18.43c0.68-3.04,1.77-3.63,4.64-3.49c3.27,0.16,6.83,0.16,9.81-0.97c2.61-0.99,6.05-3.34,6.53-5.63
		c0.83-3.96-3.46-4.78-6.47-5.25c-3.39-0.53-6.91-0.39-10.36-0.29c-2.07,0.06-4.12,0.61-6.4,0.97c-0.27-3.4-0.39-6.39-0.79-9.34
		c-0.4-2.96-0.48-6.19-1.76-8.78c-4.54-9.21-2.33-15.28,5.96-21.72c5.64-4.38,8.91-12.11,12.5-18.75c2.39-4.41-1.46-7.2-4.77-9.1
		c-3.44-1.98-3.95,1.78-5.27,3.57c-5.43,7.38-12.02,13.41-20.48,17.04c-2.49,1.07-5.58,1.82-8.16,1.38
		c-15.42-2.63-26.58-10.89-32.16-25.84c-1.86-4.99-1.65-9.6,2.67-13.69c2.09-1.98,3.72-4.8,4.65-7.54c0.69-2.02,0.31-6.4-0.29-6.53
		c-2.84-0.62-6.11-0.73-8.85,0.15c-1.65,0.53-2.75,3.12-3.84,4.94c-0.75,1.26-0.94,2.84-1.57,4.2c-3.29,7.06-10.85,7.98-14.82,1.36
		c-3.73-6.23-7.37-12.79-9.4-19.69c-2.32-7.89-2.84-16.31-4.13-24.51c-0.53-3.36-1.03-7.02-5.23-7.43
		c-4.34-0.42-4.43,3.45-4.77,6.25c-2.58,20.87,2.63,39.76,15.83,56.03c11.72,14.45,27.29,24.3,43.32,33.25
		c17.97,10.02,23.79,26.48,24.59,45.48c0.31,7.48-4.76,10.72-11.64,7.79c-8.4-3.58-16.62-7.65-24.7-11.9
		c-17.21-9.06-28.99-21.37-24.66-42.94c0.24-1.19-0.5-3.21-1.44-3.8c-0.85-0.54-2.9-0.05-3.89,0.7c-1.36,1.03-2.35,2.65-3.24,4.17
		c-1.76,2.99-2.98,6.38-5.14,9.01c-1,1.22-4.23,2.08-5.51,1.38c-10.47-5.74-19.9-12.73-25.63-23.68
		c-7.48-14.28-9.46-29.63-9.05-45.47c0.05-1.74,0.01-3.47,0.01-6.26c-2.42,1.31-4.1,1.93-5.42,2.99
		c-12.72,10.23-17.42,29.72-11.35,44.93c4.63,11.61,14.27,18.64,23.18,26.27c23.02,19.72,48.84,35.16,75.89,48.64
		c12.36,6.16,14.75,23.74,5.28,33.93c-10.86,11.68-21.26,23.79-31.5,36.02c-3.68,4.39-7.66,6.2-13.06,4.8
		c-2.57-0.66-5.16-1.43-7.54-2.57c-16.47-7.96-26.93-19.27-22.51-41.06c0.96-4.71,2.61-9.29,3.44-14.02
		c0.46-2.64,0.81-6.04-0.46-8.02c-1.17-1.82-5.12-3.54-6.88-2.85c-2.13,0.84-4.3,4.13-4.6,6.59c-1.2,9.9-1.45,19.92-2.54,29.84
		c-0.59,5.42-3.89,6.46-7.77,2.71c-4.37-4.22-7.37-9.12-8.55-15.38c-1.58-8.3-3.88-16.48-6.35-24.57c-0.64-2.12-2.7-4.31-4.69-5.36
		c-1.74-0.92-4.31-0.28-6.51-0.33c-0.04,2.01-0.53,4.13-0.04,6c1.81,6.89,4.06,13.67,5.9,20.55c0.61,2.28,1.58,5.21-1.86,6.33
		c-3.35,1.09-4.48-1.59-6.12-3.76c-2.26-2.99-4.6-6.2-7.63-8.24c-4.03-2.71-6.91-0.68-7.36,4.18c-0.39,4.12,2.15,6.22,4.88,8.61
		c6.09,5.32,12.09,10.76,17.73,16.55C357.08,880.89,356.3,884,353.37,885.8z"/>
	<path class="st2" d="M641.49,289.15c8.74,13.42,17.09,26.22,25.42,39.05c16.31,25.13,32.56,50.31,48.99,75.36
		c2,3.05,2.26,5.04-0.01,8.21c-8.38,11.68-5.39,28.67,6.11,36.93c12.7,9.12,29.84,7.01,38.94-4.79c9.32-12.08,7.9-28.89-4.07-37.82
		c-4.9-3.66-5.81-7.03-5.09-12.77c5.3-41.96,10.19-83.97,15.22-125.97c0.13-1.1,0.42-2.17,0.79-4c9.12,5.93,17.71,11.52,26.3,17.1
		c30,19.52,59.97,39.1,90.05,58.51c3.98,2.57,5.79,4.57,4.31,10.09c-4,15,6.15,29.97,21.29,32.96c15.23,3.01,30.42-6.95,33.1-21.69
		c2.82-15.53-7.5-30.2-23.05-32.34c-2.91-0.4-3.84-1.63-4.51-4.15c-11.51-43.24-23.1-86.45-34.65-129.68
		c-0.32-1.22-0.42-2.49-0.68-4.13c44.57,9.39,88.63,18.67,132.81,27.98c0.39,1.93,0.72,3.7,1.1,5.46
		c3.36,15.49,17.72,24.71,33.56,21.56c13.95-2.77,24-17.74,21.22-31.58c-3.15-15.67-17.43-25.52-33.01-22.24
		c-3.63,0.76-5.34-0.16-7.33-2.87c-23.49-31.92-47.07-63.76-70.63-95.62c-3.43-4.64-6.86-9.28-10.8-14.61
		c11.31-2.36,21.68-4.53,32.06-6.67c31.12-6.44,62.26-12.77,93.34-19.4c4.37-0.93,6.77,0.02,9.6,3.48
		c37.5,45.9,75.14,91.69,112.95,137.33c3.43,4.14,2.73,6.31-0.67,9.72c-29.88,29.93-54.5,63.68-72.88,101.85
		c-9.78,20.31-17.03,41.49-22.6,63.36c-7.92,31.11-9.43,62.57-6.99,94.39c0.04,0.46-0.12,0.93-0.22,1.65
		c-299.95,0-599.85,0-900.19,0c4.23-50.29-3.52-98.52-23.08-144.93c-19.43-46.11-48.39-85.55-83.88-121.21
		c7.29-8.8,14.48-17.46,21.64-26.15c31.13-37.77,62.34-75.47,93.27-113.41c4.23-5.19,7.86-7,14.9-5.45
		c38.68,8.49,77.51,16.25,116.29,24.27c1.61,0.33,3.2,0.77,5.28,1.27c-0.84,1.46-1.38,2.65-2.13,3.66
		c-26.47,35.71-52.97,71.38-79.39,107.12c-1.7,2.3-3.05,3.02-6.11,2.33c-12.71-2.86-24.68,2.74-30.89,13.93
		c-5.64,10.17-3.99,22.96,4.58,31.83c7.56,7.82,16.99,10.46,27.43,7.54c10.6-2.96,17.78-10.01,19.75-20.96
		c0.85-4.71,2.73-6.03,7.03-6.92c42.19-8.72,84.33-17.69,126.97-26.7c-0.12,1.37-0.07,2.46-0.34,3.47
		c-11.6,43.4-23.24,86.79-34.85,130.19c-0.64,2.4-1.48,3.83-4.48,4.28c-20.5,3.09-30.38,25.61-18.55,42.94
		c7.8,11.42,24.22,14.21,34.64,9.08c12.44-6.13,18.62-19.02,15.01-32.42c-0.38-1.42-0.78-2.84-1.28-4.69
		c40.48-26.38,80.99-52.77,122.23-79.64c0.58,4.14,1.12,7.5,1.53,10.88c4.92,41,9.79,82.01,14.8,123c0.39,3.18-0.16,5.03-3.03,6.93
		c-13.34,8.85-16.47,25.6-7.51,38.47c8.72,12.52,26.32,15.66,39,6.95c12.76-8.76,15.51-25.68,6.52-38.93
		c-0.86-1.27-1.29-3.9-0.57-5.02C590.93,366.92,615.97,328.43,641.49,289.15z"/>
	<path class="st3" d="M167.4,1246.24c5.28,0.41,10.55,0.9,15.84,1.22c30.7,1.81,58.71-5.42,83.03-24.9
		c1.41-1.13,2.74-2.38,4.11-3.58c40.05,51.07,115.9,48.19,152.9-1.23c18.78,22.18,42.45,34.62,71.68,35.46
		c29.29,0.84,53.69-10.19,74.2-31.56c19.67,21.65,43.91,33.63,73.35,33.49c29.43-0.14,53.66-12.01,72.97-34.09
		c37.78,42.85,105.53,44.52,145.96-1.58c19.87,22.94,44.8,35.64,75.41,35.33c30.5-0.31,55.15-13.16,74.3-36.35
		c27.4,31.28,61.72,37.83,100.54,28.84c1.08-0.25,2.22-0.26,3.33-0.38c-17.65,22.45-37.77,42.51-59.62,60.82
		c-38.49,32.25-81.13,57.48-128.58,74.14c-20.55,7.21-41.73,12.65-62.22,20.01c-52.42,18.82-101.63,44.03-147.48,75.76
		c-25.65,17.76-49.61,37.56-72.17,59.06c-3.17,3.02-4.55,2.19-7.1-0.26c-26-24.96-54.06-47.36-84.21-67.13
		c-57.09-37.43-118.72-64.85-184.34-83.48c-35.55-10.09-68.11-26.64-99-46.6c-39.03-25.22-72.97-56.18-102.39-92.11
		C167.67,1246.86,167.55,1246.53,167.4,1246.24z M655.98,1338.98c0,0,0.07,0.1,0.07,0.1c0.33-0.3,0.62-0.79,1-0.88
		c8.64-2.05,9.74-4.93,4.33-11.8c-6.18-7.84-12.53-15.55-18.66-23.44c-2.59-3.33-5.34-3.97-8.36-1
		c-8.64,8.48-17.09,17.14-25.78,25.57c-1.63,1.58-3.88,3.03-6.05,3.42c-7.36,1.31-14.82,2.11-22.24,3.13
		c-23.9,3.28-44.83,15.53-67.55,22.4c-0.16,0.05-0.35,0.1-0.44,0.22c-1.35,1.65-2.69,3.32-4.04,4.98c1.97,1.09,3.84,2.78,5.94,3.14
		c3.74,0.65,7.63,0.4,11.44,0.76c0.9,0.09,1.72,1.09,2.58,1.67c-0.81,0.65-1.54,1.68-2.45,1.89c-3.56,0.83-7.21,1.24-10.75,2.14
		c-1.74,0.44-3.3,1.6-4.94,2.44c1.13,1.62,1.9,3.83,3.44,4.76c11.85,7.1,24.86,9.1,38.44,7.83c7.38-0.69,14.45-0.08,20.11,5.15
		c2.1,1.94,3.06,5.06,4.79,7.47c2.7,3.78,5.78,7.15,11.71,8.27c-0.62-1.89-0.92-2.46-0.99-3.06c-0.33-2.78-1.57-5.95-0.66-8.26
		c1.32-3.39,4.94-2.7,8.27-2.52c7.1,0.37,14.23-0.16,21.34,0.05c3.3,0.1,6.95,0.33,9.8,1.77c7.86,3.99,15.32,8.74,23.06,12.97
		c1.53,0.84,3.6,0.71,5.42,1.02c0.23-1.83,0.87-3.73,0.6-5.48c-0.68-4.35-1.78-8.64-2.7-12.91c0.94-0.36,1.39-0.7,1.85-0.7
		c12.26,0,24.19-1.89,35.82-5.86c1.67-0.57,4.02-0.22,5.71,0.51c3.94,1.69,7.65,3.93,11.5,5.83c5.75,2.84,11.5,5.71,17.39,8.27
		c1.12,0.49,3-0.17,4.25-0.83c0.62-0.33,1.18-2.12,0.84-2.76c-3.03-5.8-6.34-11.46-9.41-17.24c-1.29-2.43-1.99-5.26,2.24-5.04
		c4.32,0.22,9.05,0.16,12.83,1.89c11.01,5.05,21.6,10.99,32.44,16.42c1.47,0.74,3.38,0.59,5.09,0.85c-0.02-1.68,0.32-3.47-0.11-5.04
		c-4.34-15.9-5.75-31.91-2.28-48.17c0.82-3.86,1.6-7.73,2.29-11.62c0.71-4-0.89-5.65-4.61-4.02c-2.75,1.2-5.28,3.39-7.31,5.68
		c-11.09,12.56-24.68,19.97-41.63,18.9c-5.05-0.32-11.66-0.57-13.88-7.71c-0.3-0.98-3.04-1.79-4.58-1.68
		c-3.11,0.23-6.19,1.72-9.26,1.67C679.92,1339.99,667.95,1339.41,655.98,1338.98z"/>
	<path class="st3" d="M416.43,94.76c16.23,3.29,31.7,6.36,47.14,9.55c43.01,8.89,86.02,17.82,129.03,26.73
		c15.15,3.14,30.29,6.33,45.46,9.37c2.06,0.41,4.34,0.48,6.39,0.06c36.67-7.51,73.31-15.13,109.97-22.71
		c36.65-7.57,73.3-15.12,109.96-22.66c0.44-0.09,0.94,0.15,2.5,0.43c-49.84,76.78-118.55,122.09-210.17,128.04
		C548.73,230.58,460.83,170.15,416.43,94.76z"/>
	<path class="st3" d="M360.28,83.2c11.58,2.33,22.96,4.5,34.26,7.03c1.4,0.31,2.65,2.37,3.51,3.88
		c10.94,19.17,23.84,36.92,38.84,53.08c27.78,29.92,60.35,53.13,97.99,69.14c38.17,16.23,77.88,24.76,119.42,22.48
		c38.02-2.09,74.15-12.07,108.22-29.11c52.2-26.11,92.92-64.46,121.99-115.1c1.71-2.98,3.72-4.66,7.17-5.28
		c10.25-1.84,20.44-4.01,30.87-6.09c-32.57,81.55-127.41,178.53-268.47,184.43C510.26,273.69,400.18,180.32,360.28,83.2z"/>
	<path class="st3" d="M904.6,333.99c-41.15-26.35-81-51.88-120.93-77.45c15.03-9.15,30.14-17.44,44.23-27.19
		c14.15-9.79,27.28-21.04,41.15-31.88C880.74,242.38,892.49,287.49,904.6,333.99z"/>
	<path class="st3" d="M414.2,196.29c26.01,24.67,54.24,44.04,86.16,59.66c-40.55,25.88-80.5,51.37-121.72,77.68
		C390.61,287.36,402.27,242.36,414.2,196.29z"/>
	<path class="st3" d="M625.77,289.5c-25.56,37.16-51.11,74.3-76.67,111.45c-0.41-0.09-0.82-0.18-1.23-0.27
		c-6-43.82-12-87.64-17.99-131.36c16.05,4.3,31.44,9.11,47.14,12.42C592.75,285.06,608.79,286.87,625.77,289.5z"/>
	<path class="st3" d="M656.57,288.56c33.75-2.03,65.13-8.83,96.71-20.26c-6.16,44.84-12.2,88.77-18.42,134
		C708.48,363.98,682.82,326.7,656.57,288.56z"/>
	<path class="st3" d="M940.75,94.63c27.26,36.81,53.74,72.57,81.06,109.46c-45.3-9.26-89.21-18.23-133.99-27.38
		C909.37,151.9,926.76,124.98,940.75,94.63z"/>
	<path class="st3" d="M342.24,94.58c13.89,30.29,31.28,57.07,53.01,82.12c-44.68,9.12-88.48,18.07-132.28,27.01
		c-0.21-0.38-0.41-0.75-0.62-1.13C288.78,166.84,315.22,131.1,342.24,94.58z"/>
	<path class="st3" d="M255.93,218.72c-0.04,7.7-6.32,14.14-13.84,14.2c-8.04,0.07-14.33-6.44-14.23-14.73
		c0.09-7.78,6.35-13.97,14.02-13.88C249.91,204.41,255.97,210.62,255.93,218.72z"/>
	<path class="st3" d="M1055.17,218.92c-0.21,8.01-6.71,14.31-14.45,14.01c-7.81-0.31-13.96-7.03-13.67-14.93
		c0.29-7.68,6.91-14.04,14.3-13.75C1049.41,204.57,1055.38,210.91,1055.17,218.92z"/>
	<path class="st3" d="M353.05,354.18c0.04-7.13,6.4-13.94,13.1-13.51c9.13,0.59,14.29,6.17,14.59,14.38
		c0.3,7.97-6.5,14.21-14.42,14.07C358.67,368.97,353,362.59,353.05,354.18z"/>
	<path class="st3" d="M738.53,441.19c-8.04,0.06-14.23-6.02-14.35-14.1c-0.11-7.58,6.25-14.17,13.76-14.26
		c8.17-0.09,14.27,5.81,14.4,13.92C752.48,435.09,746.7,441.13,738.53,441.19z"/>
	<path class="st3" d="M544.73,441.24c-7.73,0.1-13.95-5.99-14.05-13.76c-0.1-8.3,5.75-14.57,13.7-14.68
		c7.83-0.1,14.49,6.37,14.47,14.06C558.83,434.88,552.69,441.13,544.73,441.24z"/>
	<path class="st3" d="M930.36,354.79c0.05,8.1-5.98,14.25-14.03,14.3c-7.77,0.05-14.1-6.42-14.07-14.39
		c0.03-7.77,6.18-13.96,13.89-13.98C924.39,340.7,930.31,346.56,930.36,354.79z"/>
	<path class="st3" d="M1114.91,1247.01c0.37-0.47,0.74-0.94,1.11-1.41C1115.64,1246.07,1115.27,1246.54,1114.91,1247.01z"/>
	<path class="st1" d="M600.28,1043.43c-2.56,5.49-4.8,10.85-2.35,16.34c5.56,12.43,7.74,25.65,7.99,38.89
		c0.42,22.29-0.59,44.6-1.06,66.91c-0.03,1.43-0.33,3.08-1.1,4.22c-5.2,7.77-6.97,16.38-7.13,25.58c-0.14,8.14-4.5,12.73-11.89,11.9
		c-2.73-0.3-5.5-3.08-7.49-5.39c-0.59-0.68,1.24-3.72,2.29-5.48c1.96-3.27,4.51-6.23,6.2-9.62c11.57-23.27,15.43-47.87,12.87-73.69
		c-1.35-13.6-4.97-26.24-11.03-38.58c-5.18-10.54-8.62-21.97-12.43-33.14c-1.25-3.67-2.72-4.95-6.74-4.61
		c-8.44,0.72-16.94,0.66-25.41,1.12c-2.06,0.11-4.36,0.55-6.06,1.61c-14.55,9.11-28.96,8.74-42.02-2.02
		c-8.05-6.63-15.62-13.86-23.11-21.14c-6.23-6.06-12.56-7.19-19.7-2.41c-20.89,13.97-44.01,16.99-68.34,14.04
		c-5.59-0.68-11.33-1.02-16.69-2.59c-10.52-3.07-14.68-11.73-9.18-21.23c5.11-8.83,11.37-17.35,18.57-24.54
		c22.26-22.22,50.16-34.56,79.93-43.17c16.71,1.63,27.92-9.72,39.86-18.06c17.42-12.16,33.64-26.05,50.4-39.17
		c19.64-15.38,44.86-17.27,64.87-4.79c2.52,1.57,4.9,3.48,6.97,5.6c4.71,4.84,10.24,6.85,17.01,6.82
		c23.15-0.11,46.37-0.98,69.42,0.55c16.04,1.07,31.45-2.52,47.21-2.71c24.26-0.29,48.31,0.91,71.21,10.12
		c20.76,8.35,33.29,30.19,29.79,52.26c-3.78,23.86-9.21,47.32-18.21,69.82c-1.34,3.34-0.7,5.67,1.7,8.01
		c12.16,11.81,24.11,23.85,36.52,35.38c3.39,3.15,4.6,5.96,3.7,10.36c-6.03,29.6-2.9,58.62,5.85,87.25
		c0.44,1.43,0.65,3.05,1.49,4.21c7.41,10.3,5.28,20.78,0.56,31.2c-0.68,1.51-2.76,3.29-4.27,3.36c-7.59,0.34-15.21,0.16-23.52,0.16
		c0.21-4.59,0.18-8.54,0.59-12.45c4.62-43.55-2.84-84.61-25.78-122.26c-4.69-7.69-9.71-15.63-19-19.14
		c-9.54-3.61-20.9-0.35-25.08,7.46c-2.96,5.53-2.75,10.04,2.35,13.74c4.99,3.63,10.77,6.4,16.56,8.64c5.52,2.14,7.54,4.15,6.54,9.81
		c-1.97,11.13-6.17,21.27-12.99,30.43c-16.81,22.59-26.54,48.24-31.98,75.68c-0.48,2.45-0.83,4.93-1.46,7.33
		c-2.08,7.95-2.12,8.04-10.2,8.05c-6.5,0.01-12.99-0.18-19.49-0.4c-4-0.13-6.01-1.74-5.29-6.33c1.34-8.64,4.44-16.24,10.67-22.56
		c16.62-16.88,25.5-37.57,28.89-60.69c1.84-12.52-0.46-24.71-6.51-35.76c-8.44-15.42-19.09-29.21-32.36-40.91
		c-3.2-2.83-5.58-6.57-8.6-9.65c-1.04-1.06-3.1-2.22-4.27-1.88c-21.43,6.2-43.33,8.93-65.56,9.47c-0.47,0.01-0.94,0.28-1.07,0.33
		c-7.55,28.63-11.82,57.32-11.15,86.92c0.42,18.38-2,36.88-3.92,55.24c-0.62,5.95-3.57,11.7-5.72,17.44
		c-1.53,4.08-4.69,6.29-9.13,6.62c-6.8,0.51-13.59,1.1-21.74,1.77c1.04-6.65,0.8-13.59,3.27-19.39c8.41-19.75,6.35-40.53,7.06-60.99
		c0.58-16.63,0.35-33.33-3.69-49.68C605.51,1063.92,603,1054.19,600.28,1043.43z"/>
	<path class="st1" d="M353.37,885.8c2.93-1.8,3.72-4.91,1.08-7.63c-5.63-5.79-11.64-11.23-17.73-16.55
		c-2.73-2.39-5.27-4.48-4.88-8.61c0.46-4.86,3.34-6.89,7.36-4.18c3.03,2.04,5.37,5.26,7.63,8.24c1.64,2.17,2.77,4.86,6.12,3.76
		c3.44-1.12,2.47-4.05,1.86-6.33c-1.85-6.88-4.09-13.66-5.9-20.55c-0.49-1.87,0-3.99,0.04-6c2.2,0.05,4.76-0.59,6.51,0.33
		c1.99,1.05,4.05,3.24,4.69,5.36c2.46,8.09,4.77,16.27,6.35,24.57c1.19,6.26,4.18,11.16,8.55,15.38c3.88,3.74,7.18,2.71,7.77-2.71
		c1.09-9.92,1.33-19.93,2.54-29.84c0.3-2.46,2.47-5.75,4.6-6.59c1.76-0.69,5.71,1.03,6.88,2.85c1.27,1.98,0.93,5.39,0.46,8.02
		c-0.83,4.73-2.48,9.31-3.44,14.02c-4.42,21.79,6.04,33.1,22.51,41.06c2.38,1.15,4.97,1.91,7.54,2.57c5.41,1.4,9.39-0.41,13.06-4.8
		c10.24-12.23,20.64-24.34,31.5-36.02c9.47-10.18,7.08-27.76-5.28-33.93c-27.05-13.48-52.87-28.92-75.89-48.64
		c-8.91-7.63-18.55-14.67-23.18-26.27c-6.07-15.22-1.37-34.7,11.35-44.93c1.32-1.06,3-1.67,5.42-2.99c0,2.79,0.04,4.52-0.01,6.26
		c-0.41,15.84,1.57,31.19,9.05,45.47c5.74,10.95,15.17,17.94,25.63,23.68c1.28,0.7,4.51-0.16,5.51-1.38
		c2.16-2.64,3.39-6.02,5.14-9.01c0.89-1.52,1.88-3.13,3.24-4.17c0.98-0.75,3.03-1.24,3.89-0.7c0.94,0.59,1.67,2.62,1.44,3.8
		c-4.33,21.57,7.45,33.88,24.66,42.94c8.09,4.25,16.3,8.32,24.7,11.9c6.88,2.93,11.95-0.31,11.64-7.79
		c-0.8-19-6.61-35.46-24.59-45.48c-16.03-8.94-31.6-18.8-43.32-33.25c-13.2-16.27-18.41-35.16-15.83-56.03
		c0.35-2.8,0.43-6.67,4.77-6.25c4.2,0.41,4.7,4.07,5.23,7.43c1.28,8.19,1.8,16.62,4.13,24.51c2.03,6.9,5.66,13.46,9.4,19.69
		c3.97,6.62,11.53,5.71,14.82-1.36c0.63-1.35,0.82-2.93,1.57-4.2c1.08-1.82,2.19-4.41,3.84-4.94c2.74-0.88,6.01-0.78,8.85-0.15
		c0.6,0.13,0.97,4.51,0.29,6.53c-0.93,2.75-2.56,5.56-4.65,7.54c-4.32,4.09-4.53,8.71-2.67,13.69
		c5.58,14.95,16.74,23.21,32.16,25.84c2.59,0.44,5.67-0.31,8.16-1.38c8.46-3.63,15.05-9.66,20.48-17.04
		c1.32-1.79,1.83-5.56,5.27-3.57c3.3,1.91,7.16,4.69,4.77,9.1c-3.59,6.64-6.86,14.37-12.5,18.75c-8.28,6.43-10.49,12.5-5.96,21.72
		c1.28,2.59,1.36,5.81,1.76,8.78c0.4,2.95,0.51,5.94,0.79,9.34c2.28-0.36,4.33-0.91,6.4-0.97c3.45-0.1,6.97-0.24,10.36,0.29
		c3.01,0.47,7.3,1.29,6.47,5.25c-0.48,2.29-3.92,4.64-6.53,5.63c-2.98,1.13-6.54,1.13-9.81,0.97c-2.87-0.14-3.96,0.45-4.64,3.49
		c-1.33,5.92-3.42,11.67-5.48,18.43c4.57,0.55,9.29,1.62,13.99,1.54c4.77-0.08,5.4,2.66,5.92,6.17c0.67,4.53-2.66,4.55-5.37,4.47
		c-5.77-0.17-11.52-1-17.29-1.16c-2.18-0.06-4.82,0.36-6.52,1.58c-9.57,6.88-18.65,14.44-28.38,21.08
		c-18.23,12.44-27.76,30.05-31.53,51.21c-0.62,3.46-1.76,5.53-5.24,6.07c-0.33,0.05-0.67,0.12-0.96,0.27
		c-6.16,3.27-11.73,5.28-17.95-0.97c-2.42-2.43-7.82-2.74-11.82-2.62c-17.66,0.55-35.21,2.21-52.34,6.94
		c-5.72,1.58-7.46,0.56-10.04-5.01c-3.09-6.68-6.68-12.86-12.77-17.53c-5.62-4.31-8.14-10.89-9.61-17.62
		c-0.32-1.48,1.45-4.73,2.66-4.95c1.91-0.35,4.62,0.65,6.19,2c6.53,5.58,12.04,12.7,19.24,17.09c19.39,11.82,39.77,11.52,60.13,1.9
		c1.19-0.56,2.28-1.38,3.35-2.17c0.52-0.38,0.88-0.96,1.67-1.85c-10.25-7.5-19.37-16.18-33.53-15.6
		c-8.59,0.35-17.34-0.64-25.85-2.07c-3.75-0.63-7.35-3.51-10.5-6.01c-5.59-4.42-10.69-9.46-16.21-13.97
		c-2.29-1.87-4.24-3.49-2.28-6.53c1.92-2.99,4.66-3.14,7.34-1.22C338.76,874.94,345.78,880.21,353.37,885.8z"/>
	<path class="st1" d="M655.98,1338.98c11.97,0.43,23.93,1,35.9,1.18c3.08,0.05,6.15-1.44,9.26-1.67c1.54-0.11,4.28,0.7,4.58,1.68
		c2.22,7.13,8.83,7.39,13.88,7.71c16.95,1.06,30.54-6.34,41.63-18.9c2.02-2.29,4.56-4.47,7.31-5.68c3.72-1.63,5.33,0.02,4.61,4.02
		c-0.69,3.89-1.47,7.76-2.29,11.62c-3.46,16.26-2.06,32.27,2.28,48.17c0.43,1.57,0.09,3.35,0.11,5.04
		c-1.71-0.26-3.62-0.12-5.09-0.85c-10.83-5.43-21.43-11.37-32.44-16.42c-3.78-1.73-8.51-1.67-12.83-1.89
		c-4.23-0.22-3.53,2.61-2.24,5.04c3.08,5.78,6.38,11.44,9.41,17.24c0.34,0.65-0.21,2.44-0.84,2.76c-1.26,0.65-3.13,1.31-4.25,0.83
		c-5.88-2.55-11.63-5.43-17.39-8.27c-3.85-1.9-7.56-4.14-11.5-5.83c-1.69-0.73-4.03-1.08-5.71-0.51
		c-11.63,3.97-23.56,5.86-35.82,5.86c-0.46,0-0.92,0.33-1.85,0.7c0.92,4.27,2.02,8.56,2.7,12.91c0.27,1.75-0.37,3.65-0.6,5.48
		c-1.82-0.32-3.89-0.18-5.42-1.02c-7.74-4.23-15.2-8.98-23.06-12.97c-2.84-1.45-6.5-1.67-9.8-1.77c-7.11-0.21-14.25,0.32-21.34-0.05
		c-3.33-0.18-6.95-0.87-8.27,2.52c-0.9,2.32,0.33,5.48,0.66,8.26c0.07,0.6,0.37,1.17,0.99,3.06c-5.93-1.12-9-4.49-11.71-8.27
		c-1.72-2.41-2.69-5.53-4.79-7.47c-5.66-5.23-12.73-5.84-20.11-5.15c-13.58,1.27-26.59-0.73-38.44-7.83
		c-1.54-0.92-2.31-3.14-3.44-4.76c1.64-0.84,3.2-2,4.94-2.44c3.54-0.9,7.19-1.31,10.75-2.14c0.91-0.21,1.64-1.24,2.45-1.89
		c-0.86-0.58-1.68-1.58-2.58-1.67c-3.81-0.36-7.7-0.11-11.44-0.76c-2.1-0.36-3.97-2.05-5.94-3.14c1.34-1.66,2.68-3.32,4.04-4.98
		c0.1-0.12,0.29-0.17,0.44-0.22c22.71-6.87,43.65-19.11,67.55-22.4c7.42-1.02,14.88-1.82,22.24-3.13c2.17-0.39,4.42-1.84,6.05-3.42
		c8.69-8.42,17.14-17.09,25.78-25.57c3.02-2.97,5.77-2.33,8.36,1c6.13,7.88,12.48,15.59,18.66,23.44c5.41,6.87,4.31,9.75-4.33,11.8
		c-0.38,0.09-0.67,0.58-1.01,0.88c-1.36,0-2.71,0-4.07,0c0.06,0.38,0.12,0.75,0.17,1.13
		C653.43,1339.8,654.71,1339.39,655.98,1338.98z"/>
	<path class="st3" d="M655.98,1338.98c-1.28,0.41-2.55,0.82-3.83,1.23c-0.06-0.38-0.12-0.75-0.17-1.13c1.36,0,2.71,0,4.07,0
		C656.05,1339.08,655.98,1338.98,655.98,1338.98z"/>
</g>
<path class="st3" d="M189.28,479.07c10.26,0,19.9,0,29.55,0c287.98,0,575.95,0.01,863.93,0.01c10.58,0,10.73-0.03,12.6,10.57
	c5.55,31.57,17.61,60.96,30.01,90.26c6.03,14.26,12,28.54,17.98,42.82c0.31,0.73,0.48,1.51,0.86,2.74c-335.23,0-670.06,0-1005.5,0
	C157.4,577.24,182.3,531.54,189.28,479.07z"/>
<g>
	<path class="st4" d="M208.7,602.91c0-2.98,0.82-5.35,2.47-7.09c1.65-1.74,3.81-2.61,6.47-2.61c4.51,0,7.46,2.04,8.86,6.12
		c1.14,3.29,3.14,4.93,6,4.93c4.06,0,7.39-4.12,9.99-12.37c4.88-15.57,7.31-39.65,7.3-72.25c0-9.52-0.63-15.56-1.87-18.13
		c-1.24-2.56-4.3-3.84-9.19-3.84c-1.78-0.12-2.9-0.28-3.38-0.47c-0.48-0.19-0.71-0.66-0.72-1.42l0-3.31l0.19-0.09
		c4.82,0,11.46-0.01,19.9-0.01l47.7-0.02l23.8-0.01l0.38,0.09l0,3.56c0,0.98-0.51,1.46-1.52,1.46l-5.05,0.55
		c-3.94,0-6.71,0.66-8.33,1.98c-1.62,1.31-2.43,3.32-2.43,6.01l0.05,93.64c0,2.81,0.79,4.85,2.38,6.1c1.59,1.25,4.38,1.88,8.38,1.88
		l5.05,0.55c1.01,0,1.52,0.49,1.52,1.46l0,3.56l-0.38,0.18c-11.17,0.01-19.36,0.01-24.57,0.01l-25.71,0.01l-0.38-0.18l0-3.56
		c0-0.97,0.44-1.46,1.33-1.46l5.24-0.55c3.81,0,6.54-0.64,8.19-1.93c1.58-1.34,2.38-3.36,2.38-6.04l-0.05-93.94
		c0-2.81-0.86-4.85-2.57-6.13c-1.71-1.28-4.38-1.92-8-1.92l-14.19,0.01c-4.13,0-6.75,1.05-7.85,3.16c-1.11,2.1-1.66,6.75-1.66,13.94
		c0.02,41.19-3.11,69.26-9.38,84.19c-4.63,11.03-12.08,16.55-22.37,16.56c-2.03,0-4.02-0.2-5.95-0.59c-1.94-0.4-3.84-1.03-5.71-1.92
		c-1.87-0.88-3.4-2.19-4.57-3.93C209.29,607.34,208.71,605.29,208.7,602.91z"/>
	<path class="st4" d="M360.88,515.45c-1.21-2.5-2.18-4.43-2.91-5.8c-0.73-1.37-1.56-2.77-2.48-4.2c-0.92-1.43-1.76-2.48-2.52-3.15
		c-0.76-0.67-1.73-1.31-2.9-1.92c-1.18-0.61-2.43-1.03-3.76-1.28c-1.33-0.24-2.95-0.46-4.86-0.64c-0.57-0.55-0.89-1.58-0.95-3.11
		c-0.06-1.52,0.19-2.56,0.76-3.11c12.19-0.01,18.95-0.01,20.28-0.01c3.55,0,11.43-0.01,23.61-0.01c0.57,0.55,0.86,1.58,0.86,3.1
		c0,1.52-0.28,2.55-0.86,3.1c-6.35,0.61-9.95,1.92-10.81,3.93c-0.86,2.01,0.11,5.65,2.91,10.94l27.07,56.99h0.38l21.21-56.03
		c0.89-2.38,1.5-4.27,1.85-5.68c0.35-1.4,0.51-2.81,0.47-4.21c-0.03-1.4-0.48-2.49-1.33-3.25c-0.86-0.76-2.18-1.4-3.95-1.92
		c-1.78-0.52-4.09-0.78-6.95-0.77c-0.57-0.55-0.86-1.58-0.86-3.11c0-1.52,0.28-2.56,0.86-3.11c12.19-0.01,19.26-0.01,21.23-0.01
		c1.01,0,6.73,0,17.14-0.01c0.57,0.55,0.86,1.58,0.86,3.1c0,1.52-0.28,2.56-0.86,3.1c-3.11,0.37-5.75,1.02-7.9,1.97
		c-2.16,0.94-3.97,2.3-5.43,4.06c-1.46,1.77-2.59,3.41-3.38,4.93c-0.79,1.52-1.73,3.65-2.81,6.39l-27.67,67.28
		c-4.56,11.08-9.73,19.54-15.51,25.38c-5.84,5.9-12.88,8.86-21.13,8.86c-4.32,0-8.32-1-12-3.01c-3.68-2.01-5.52-4.44-5.53-7.31
		c0-2.62,0.87-4.77,2.62-6.44c1.74-1.68,4.05-2.52,6.9-2.52c1.52,0,3.19,0.32,5,0.96c1.81,0.64,3.16,1.51,4.05,2.6
		c2.22,2.74,4.54,4.11,6.95,4.11c3.3,0,6.28-1.3,8.95-3.9c2.66-2.6,5.42-7.25,8.28-13.95L360.88,515.45z"/>
	<path class="st4" d="M465.44,613.11l0-3.56c0-0.97,0.48-1.46,1.43-1.46l1.71-0.18c3.49-0.43,7.52-3.63,12.09-9.6
		c4.44-5.79,9.04-14.6,13.79-26.42c2.22-5.49,4.63-9.71,7.23-12.66c2.6-2.96,5.52-5.35,8.76-7.18l0-0.55
		c-3.49-0.48-6.89-1.44-10.19-2.87c-3.3-1.43-6.4-3.34-9.29-5.75c-2.89-2.4-5.21-5.47-6.96-9.21c-1.75-3.74-2.62-7.89-2.62-12.46
		c0-2.86,0.31-5.52,0.95-7.99c0.63-2.46,1.89-5.04,3.76-7.71c1.87-2.68,4.33-4.95,7.38-6.8c3.05-1.86,7.2-3.4,12.47-4.62
		c5.27-1.22,11.39-1.83,18.38-1.83c2.35,0,6.54,0,12.57-0.01c6.03,0,10.09,0,12.19-0.01l24.95-0.01l0,4.03
		c0,0.87-0.44,1.31-1.33,1.31l-5.9,0c-4.13,0.31-6.87,0.98-8.23,2.02c-1.37,1.04-2.05,3.15-2.04,6.33l0.05,93.61
		c0,2.81,0.76,4.83,2.29,6.05c1.46,1.28,4.19,1.92,8.19,1.92l5.33,0.55c1.01,0,1.52,0.49,1.52,1.46l0,3.56l-0.38,0.18
		c-11.3,0.01-19.49,0.01-24.57,0.01l-25.14,0.01l-0.38-0.18l0-3.56c0-0.97,0.51-1.46,1.52-1.46l5.05-0.37c4-0.31,6.79-1.1,8.38-2.38
		c1.59-1.28,2.38-3.26,2.38-5.94l-0.02-46.98c-3.49,0-6.49,0.16-9,0.46c-2.51,0.31-4.79,0.9-6.85,1.79
		c-2.06,0.89-3.79,1.86-5.19,2.93c-1.4,1.07-2.79,2.69-4.19,4.85c-1.4,2.17-2.62,4.33-3.66,6.5c-1.05,2.17-2.33,5.11-3.85,8.84
		c-1.71,4.15-3.08,7.42-4.09,9.8c-1.21,2.56-2.58,5.34-4.14,8.33c-1.56,2.99-3.04,5.42-4.47,7.28c-1.43,1.86-3.01,3.63-4.76,5.31
		c-1.75,1.68-3.62,2.92-5.62,3.71c-2,0.79-4.11,1.19-6.33,1.19l-12.95,0.01L465.44,613.11z M497.19,519.23
		c0.01,17.42,9.44,26.13,28.29,26.12l15.23-0.01l-0.02-40.02c0-1.4-0.1-2.44-0.29-3.11s-0.52-1.3-1-1.88
		c-0.48-0.58-1.48-0.96-3-1.14c-1.52-0.18-3.22-0.27-5.09-0.27c-1.87,0-4.68,0-8.43,0c-3.17,0-6.09,0.28-8.76,0.82
		c-2.67,0.55-5.36,1.49-8.09,2.83c-2.73,1.34-4.89,3.43-6.47,6.29C497.98,511.71,497.19,515.17,497.19,519.23z"/>
	<path class="st4" d="M621.4,491.83c2.92,0,7.17,0,12.76-0.01c5.58,0,9.46,0,11.62-0.01c6.92,0,12.96,0.63,18.14,1.89
		c5.17,1.27,9.21,2.83,12.09,4.71c2.89,1.87,5.21,4.18,6.95,6.93c1.75,2.75,2.87,5.32,3.38,7.7c0.51,2.39,0.76,5,0.77,7.84
		c0,4.89-1.71,9.56-5.13,14c-3.43,4.44-7.68,7.9-12.75,10.38v0.37c9.08,2.48,16.25,6.41,21.52,11.79
		c5.27,5.38,7.91,12.34,7.91,20.88c0,3.45-0.43,6.73-1.28,9.85c-0.86,3.12-2.41,6.25-4.66,9.4c-2.25,3.15-5.14,5.88-8.66,8.18
		c-3.52,2.3-8.19,4.16-13.99,5.59s-12.46,2.14-19.95,2.14c-6.54,0-12.41,0.01-17.61,0.01c-5.21,0-8.82,0-10.85,0.01
		c-3.62,0-8.05,0-13.28,0.01c-5.24,0-9.19,0-11.85,0.01c-0.57-0.5-0.86-1.16-0.86-1.96c0-0.81,0.28-1.46,0.86-1.97
		c2.6,0,4.6-0.06,6-0.19c1.4-0.12,2.84-0.4,4.33-0.83c1.49-0.43,2.55-0.98,3.19-1.65c0.63-0.67,1.25-1.65,1.86-2.93
		c0.6-1.28,1-2.81,1.19-4.58c0.19-1.77,0.32-4,0.38-6.68c0.25-13.85,0.37-27.1,0.36-39.73c-0.01-13.06-0.14-26.52-0.4-40.37
		c-0.07-2.69-0.19-4.9-0.38-6.64c-0.19-1.74-0.59-3.25-1.19-4.53c-0.6-1.28-1.22-2.26-1.86-2.93c-0.64-0.67-1.68-1.23-3.14-1.69
		c-1.46-0.46-2.9-0.75-4.33-0.87c-1.43-0.12-3.44-0.18-6.05-0.18c-0.57-0.5-0.86-1.16-0.86-1.96c0-0.81,0.29-1.46,0.86-1.97
		c2.79,0,6.76,0,11.9-0.01C613.5,491.83,617.84,491.83,621.4,491.83z M629.23,545.48l15.04-0.01c8.57,0,15.42-1.85,20.56-5.54
		c5.14-3.69,7.71-9.34,7.7-16.96c0-4.57-0.83-8.65-2.48-12.25c-1.65-3.59-3.78-6.44-6.38-8.54c-2.6-2.1-5.37-3.68-8.29-4.75
		c-2.92-1.06-5.81-1.6-8.67-1.6c-3.43,0-6.19,0.09-8.28,0.28c-2.09,0.18-3.76,0.41-5,0.69c-1.24,0.27-2.13,0.81-2.67,1.6
		c-0.54,0.79-0.87,1.52-1,2.19c-0.13,0.67-0.19,1.77-0.19,3.29C629.35,521.44,629.23,535.3,629.23,545.48z M629.64,597.12
		c0.06,3.72,1.26,6.73,3.58,9.05c2.32,2.31,6.59,3.47,12.81,3.47c5.71,0,10.73-0.54,15.04-1.61c4.31-1.07,7.76-2.44,10.33-4.12
		c2.57-1.68,4.65-3.75,6.23-6.22c1.58-2.47,2.66-4.94,3.23-7.41c0.57-2.47,0.85-5.19,0.85-8.18c0-4.33-0.77-8.38-2.29-12.16
		c-1.52-3.78-3.81-7.17-6.86-10.19c-3.05-3.02-7.08-5.4-12.09-7.17c-5.02-1.76-10.76-2.65-17.24-2.64l-14,0.01l0,2.92
		C629.24,568.06,629.38,582.8,629.64,597.12z"/>
	<path class="st4" d="M746,491.77c2.92,0,7.17,0,12.76-0.01c5.58,0,9.46,0,11.62-0.01c6.92,0,12.96,0.63,18.14,1.9
		c5.17,1.27,9.21,2.83,12.09,4.71c2.89,1.87,5.21,4.18,6.95,6.93c1.75,2.75,2.87,5.32,3.38,7.7c0.51,2.39,0.76,5,0.77,7.84
		c0,4.89-1.71,9.56-5.13,14c-3.43,4.44-7.68,7.9-12.75,10.38v0.37c9.08,2.48,16.25,6.41,21.52,11.79
		c5.27,5.38,7.91,12.34,7.91,20.88c0,3.45-0.43,6.73-1.28,9.85c-0.86,3.12-2.41,6.25-4.66,9.4c-2.25,3.15-5.14,5.88-8.66,8.18
		c-3.52,2.3-8.19,4.17-13.99,5.59c-5.81,1.42-12.46,2.14-19.95,2.14c-6.54,0-12.41,0.01-17.61,0.01c-5.21,0-8.82,0-10.85,0.01
		c-3.62,0-8.05,0-13.28,0.01c-5.24,0-9.19,0-11.85,0.01c-0.57-0.5-0.86-1.16-0.86-1.96c0-0.81,0.29-1.46,0.86-1.97
		c2.6,0,4.6-0.06,6-0.19c1.4-0.12,2.84-0.4,4.33-0.83c1.49-0.43,2.55-0.98,3.19-1.65c0.63-0.67,1.25-1.65,1.86-2.93
		c0.6-1.28,1-2.81,1.19-4.58c0.19-1.77,0.31-4,0.38-6.68c0.25-13.85,0.37-27.1,0.36-39.73c-0.01-13.06-0.14-26.52-0.4-40.37
		c-0.07-2.68-0.19-4.9-0.38-6.64c-0.19-1.74-0.59-3.25-1.19-4.53c-0.6-1.28-1.22-2.26-1.86-2.93c-0.64-0.67-1.68-1.23-3.14-1.69
		c-1.46-0.46-2.91-0.75-4.33-0.87c-1.43-0.12-3.44-0.18-6.05-0.18c-0.57-0.5-0.86-1.16-0.86-1.96c0-0.81,0.29-1.46,0.86-1.97
		c2.79,0,6.76,0,11.9-0.01C738.1,491.77,742.44,491.77,746,491.77z M753.83,545.42l15.04-0.01c8.57,0,15.42-1.85,20.56-5.54
		c5.14-3.69,7.71-9.34,7.7-16.96c0-4.57-0.83-8.65-2.48-12.25c-1.65-3.59-3.78-6.44-6.38-8.54c-2.6-2.1-5.37-3.68-8.29-4.75
		c-2.92-1.06-5.81-1.6-8.67-1.6c-3.43,0-6.19,0.09-8.28,0.28c-2.09,0.18-3.76,0.41-5,0.69c-1.24,0.27-2.13,0.81-2.67,1.6
		c-0.54,0.79-0.87,1.52-1,2.19c-0.13,0.67-0.19,1.77-0.19,3.29C753.95,521.38,753.83,535.24,753.83,545.42z M754.24,597.06
		c0.06,3.72,1.26,6.73,3.58,9.05c2.32,2.32,6.59,3.47,12.81,3.47c5.71,0,10.73-0.54,15.04-1.61c4.31-1.07,7.76-2.44,10.33-4.12
		c2.57-1.68,4.65-3.75,6.23-6.22c1.58-2.47,2.66-4.94,3.23-7.41c0.57-2.47,0.85-5.19,0.85-8.18c0-4.33-0.77-8.38-2.29-12.16
		c-1.52-3.78-3.81-7.17-6.86-10.19c-3.05-3.02-7.08-5.4-12.09-7.17c-5.02-1.76-10.76-2.65-17.24-2.64l-14,0.01l0,2.92
		C753.85,567.99,753.98,582.74,754.24,597.06z"/>
	<path class="st4" d="M862.18,590.12l-0.04-75.17c0-3.97-0.21-7.02-0.62-9.16c-0.42-2.14-1.37-3.8-2.86-4.99
		c-1.49-1.19-3.14-1.92-4.95-2.19c-1.81-0.27-4.65-0.41-8.52-0.41c-0.57-0.55-0.86-1.58-0.86-3.11c0-1.52,0.29-2.56,0.85-3.11
		c12.95-0.01,21.33-0.01,25.14-0.01c4.19,0,12.63-0.01,25.33-0.01c0.57,0.55,0.86,1.58,0.86,3.11c0,1.52-0.29,2.56-0.85,3.11
		c-3.87,0-6.71,0.14-8.52,0.42c-1.81,0.28-3.46,1.01-4.95,2.2c-1.49,1.19-2.44,2.86-2.85,4.99c-0.41,2.14-0.62,5.19-0.61,9.16
		l0.01,28.12l17.14-0.01c5.97,0,11.33,0.37,16.09,1.13c4.76,0.76,8.79,1.74,12.09,2.96c3.3,1.21,6.16,2.76,8.57,4.64
		c2.41,1.88,4.32,3.8,5.72,5.74c1.4,1.94,2.51,4.18,3.34,6.7c0.83,2.52,1.37,4.86,1.62,7.02c0.25,2.16,0.38,4.57,0.38,7.25
		c0.01,12.28-4.31,21.11-12.94,26.49c-8.63,5.38-22.37,8.08-41.22,8.09c-2.48,0-5.81,0-10,0.01c-4.19,0-7.17,0-8.95,0
		c-4.19,0-12.63,0.01-25.33,0.01c-0.57-0.54-0.86-1.54-0.86-3.02c0-1.47,0.28-2.48,0.85-3.02c2.6,0,4.62-0.06,6.05-0.19
		c1.43-0.12,2.87-0.41,4.33-0.87c1.46-0.46,2.54-1.02,3.24-1.7c0.7-0.67,1.33-1.66,1.9-2.98c0.57-1.31,0.95-2.84,1.14-4.58
		C862.08,595.02,862.18,592.81,862.18,590.12z M889.89,607.14c4.76,0,9.06-0.43,12.9-1.29c3.84-0.85,7.01-2.04,9.52-3.57
		c2.51-1.52,4.66-3.2,6.47-5.03c1.81-1.83,3.19-3.87,4.14-6.13c0.95-2.25,1.63-4.37,2.04-6.35c0.41-1.98,0.62-4.04,0.62-6.17
		c0-2.44-0.3-4.86-0.91-7.27c-0.6-2.41-1.7-4.89-3.29-7.45c-1.59-2.56-3.54-4.8-5.86-6.72c-2.32-1.92-5.4-3.5-9.24-4.75
		c-3.84-1.25-8.14-1.87-12.9-1.87l-14.66,0.01l0.02,43.97C878.75,602.94,882.46,607.14,889.89,607.14z"/>
	<path class="st4" d="M997.81,557.45c0,7.57,0.14,20.76,0.4,39.56c0,1.83,0.18,3.39,0.53,4.67c0.35,1.28,0.95,2.36,1.81,3.25
		c0.86,0.88,1.75,1.6,2.67,2.15c0.92,0.55,2.25,0.99,4,1.33c1.75,0.33,3.38,0.58,4.9,0.73c1.52,0.15,3.58,0.23,6.19,0.23
		c0.57,0.5,0.86,1.16,0.86,1.96c0,0.81-0.28,1.46-0.86,1.97c-2.54,0-6.78,0-12.71,0.01c-5.94,0-10.94,0.01-15,0.01
		c-3.62,0-8.08,0-13.38,0.01c-5.3,0-9.28,0-11.95,0.01c-0.57-0.5-0.86-1.16-0.86-1.96c0-0.81,0.29-1.46,0.86-1.97
		c2.6,0,4.58-0.06,5.95-0.19c1.36-0.12,2.79-0.4,4.29-0.83c1.49-0.43,2.54-0.96,3.14-1.6c0.6-0.64,1.2-1.62,1.81-2.93
		c0.6-1.31,1-2.85,1.19-4.62c0.19-1.71,0.31-3.94,0.38-6.68c0.25-10.68,0.37-23.93,0.36-39.73c0-6.16-0.14-19.62-0.4-40.37
		c-0.07-2.69-0.18-4.9-0.34-6.64c-0.16-1.74-0.52-3.26-1.1-4.58c-0.57-1.31-1.19-2.3-1.86-2.98c-0.67-0.67-1.73-1.22-3.19-1.65
		c-1.46-0.43-2.89-0.7-4.29-0.82c-1.4-0.12-3.4-0.18-6-0.18c-0.57-0.5-0.86-1.16-0.86-1.96c0-0.81,0.29-1.46,0.86-1.97
		c2.79,0,6.77,0,11.95-0.01c5.17,0,9.5,0,13-0.01c2.86,0,7.63-0.23,14.33-0.69c6.7-0.46,10.77-0.69,12.24-0.69
		c6.86,0,12.95,0.76,18.28,2.28c5.33,1.52,9.52,3.39,12.57,5.62c3.05,2.22,5.54,4.83,7.48,7.81c1.94,2.99,3.24,5.76,3.91,8.32
		c0.67,2.56,1,5.09,1,7.59c0,3.41-0.42,6.75-1.28,10.01c-0.86,3.26-2.38,6.57-4.57,9.92c-2.19,3.35-4.95,6.28-8.28,8.78
		c-3.33,2.5-7.71,4.54-13.14,6.13c-5.43,1.59-11.54,2.38-18.33,2.39C1007.01,559.09,1001.49,558.55,997.81,557.45z M998.16,503.71
		c-0.24,20.72-0.36,37.08-0.36,49.09v0.91c2.86,0.61,8,0.91,15.43,0.91c19.74-0.01,29.61-9.8,29.6-29.36
		c0-5.67-0.78-10.57-2.34-14.71c-1.56-4.14-3.69-7.31-6.38-9.5c-2.7-2.19-5.57-3.79-8.62-4.79c-3.05-1-6.38-1.5-10-1.5
		c-6.54,0-11.03,0.75-13.47,2.25C999.57,498.48,998.29,500.72,998.16,503.71z"/>
</g>
</svg>
