<?xml version="1.0" encoding="UTF-8" standalone="no"?>
<svg
   xmlns:svg="http://www.w3.org/2000/svg"
   xmlns="http://www.w3.org/2000/svg"
   version="1.0"
   width="480"
   height="715"
   viewBox="0 0 2100 3132.5"
   id="svg2"
   xml:space="preserve"
   style="fill-rule:evenodd">
 <path
   d="M 1507.3863,1103.8392 L 1507.8247,1103.4011 L 1392.6018,988.29174 L 1277.3781,1103.4011 L 1278.2548,1103.8392 L 1049.1229,1331.8706 L 935.214,1218.0733 L 934.77558,1218.0733 L 820.86663,1103.8383 L 820.86663,1103.4003 L 705.20417,988.2909 L 475.63477,1218.0724 L 590.85759,1333.1827 L 705.20517,1218.9468 L 927.3292,1439.9768 L 934.77684,1447.4172 L 705.20542,1677.6376 L 467.75001,1439.9772 L 361.28842,1333.6199 L 254.82684,1439.9772 L 246.06405,1448.7309 L 1049.9991,2252.3126 L 1165.2219,2138.0776 L 1164.3464,2137.6396 L 1278.694,2022.0917 L 1279.1311,2022.9666 L 1739.5877,1563.839 L 1739.1494,1562.9646 L 1854.3732,1448.7292 L 1845.6104,1439.9755 L 1739.1488,1333.6182 L 1632.2496,1439.9755 L 1624.3636,1447.8536 L 1624.3636,1448.7292 L 1510.4546,1562.9646 L 1509.5778,1562.9646 L 1395.2302,1677.6364 L 1395.6686,1678.0731 L 1395.2302,1678.0731 L 1394.3547,1678.0731 L 1163.9081,1447.4151 L 1171.3557,1439.9751 L 1392.6026,1218.9452 L 1506.5115,1333.181 L 1621.2967,1218.0708 L 1507.3868,1103.8358 L 1507.3863,1103.8392 z M 1164.3455,1907.8589 L 1164.3455,1907.8589 L 1163.9071,1907.4208 L 1048.6842,2022.0938 L 820.42867,1792.7478 L 1048.6842,1562.9663 L 1279.1299,1793.6239 L 1164.3457,1907.8593 L 1164.3455,1907.8589 z"
   id="_49139696"
   style="fill:#ffe708;fill-opacity:1;fill-rule:nonzero" /><polygon
   points="1163.75,1907.94 1164.19,1908.38 1278.81,1794.19 1048.69,1563.63 820.751,1793.31 1048.69,2022.56 1163.75,1907.94 "
   transform="matrix(1.0013975,0,0,1.000414,-1.469645,-1.3084041)"
   id="_49164040"
   style="fill:#000000;fill-rule:nonzero" /><path
   d="M 1507.8269,1103.399 L 1507.3884,1103.8371 L 1621.2984,1218.072 L 1506.5132,1333.1822 L 1392.6042,1218.9464 L 1171.3575,1439.9764 L 1632.2507,1439.9764 L 1739.1499,1333.6194 L 1845.6115,1439.9764 L 2101.4686,1439.9764 L 2101.4686,-0.00015236 L -1.4664165,-0.00015236 L -1.4664165,1439.9764 L 254.82929,1439.9764 L 361.29087,1333.6194 L 467.75244,1439.9764 L 927.33189,1439.9764 L 705.20786,1218.9464 L 590.86028,1333.1822 L 475.63745,1218.072 L 705.20685,988.29048 L 820.86927,1103.3999 L 820.86927,1103.8379 L 934.77826,1218.0729 L 935.21664,1218.0729 L 1049.1257,1331.8702 L 1278.2575,1103.8387 L 1277.3807,1103.4007 L 1392.6044,988.29132 L 1507.8273,1103.4007 L 1507.8269,1103.399 z M 851.97549,865.30055 L 851.97549,865.30055 L 1050.0009,667.90558 L 1248.0263,864.86251 L 1050.0009,1063.1323 L 851.97549,865.29971 L 851.97549,865.30055 z M 370.49049,208.77761 L 370.49049,208.77761 L 373.11958,211.40418 L 373.55797,211.40418 L 448.47512,287.56055 L 488.78068,246.85663 C 489.21906,246.85663 489.65744,246.85663 489.65744,246.41859 C 500.60975,235.03915 512.00035,224.09733 522.95383,212.71705 L 525.58292,210.52936 L 526.45846,210.52936 L 526.45846,374.65957 L 690.31212,374.65957 L 611.45198,454.31817 L 651.32043,494.14768 C 651.75755,494.58446 652.19593,495.02209 652.63435,495.02209 C 663.58783,505.96349 676.29235,518.21859 689.8737,532.22461 L 526.45863,532.22461 L 526.45863,697.66852 L 447.59849,618.44754 C 435.76947,629.82866 423.94044,642.08251 412.54976,653.46321 L 369.17672,696.35565 L 369.17672,530.47412 L 204.00921,530.47412 L 283.30648,451.69118 L 243.00093,411.86209 C 243.00093,411.86209 242.56253,410.98726 242.12415,410.54922 C 230.73355,399.60782 219.34286,388.22754 208.38937,377.28572 L 205.32314,374.65957 L 206.63706,374.65957 L 206.63706,373.78474 L 370.49075,373.78474 L 370.49075,208.77719 L 370.49049,208.77761 z"
   id="_49165000"
   style="fill:#d40000;fill-rule:nonzero" /><polygon
   points="1050,668.938 852.251,866.251 1050,1064 1247.75,865.813 1050,668.938 "
   transform="matrix(1.0013975,0,0,1.000414,-1.469645,-1.3084041)"
   id="_49162192"
   style="fill:#ffe708;fill-opacity:1;fill-rule:nonzero" /><path
   d="M 373.11615,211.40502 L 370.48707,208.77845 L 370.48707,373.786 L 206.63338,373.786 L 206.63338,374.66041 L 205.31945,374.66041 L 208.38569,377.28656 C 219.33917,388.22838 230.72977,399.60908 242.12047,410.55048 C 242.55886,410.9881 242.99724,411.86293 242.99724,411.86293 L 283.30279,451.69244 L 204.00552,530.47495 L 369.17304,530.47495 L 369.17304,696.35691 L 412.54608,653.46405 C 423.93667,642.08377 435.76569,629.8295 447.59479,618.4488 L 526.45493,697.66936 L 526.45493,532.22586 L 689.87001,532.22586 C 676.28866,518.21985 663.58414,505.96474 652.63066,495.02335 C 652.19228,495.02335 651.75386,494.5853 651.31674,494.14852 L 611.44829,454.31901 L 690.30843,374.66083 L 526.45477,374.66083 L 526.45477,210.53062 L 525.57923,210.53062 L 522.95014,212.71789 C 511.99665,224.09859 500.60605,235.03999 489.65379,246.41943 C 489.65379,246.85747 489.21537,246.85747 488.77699,246.85747 L 448.47142,287.56181 L 373.55429,211.40544 L 373.11589,211.40544 L 373.11615,211.40502 z M 500.60609,274.43062 L 500.60609,274.43062 L 500.60609,400.92111 L 628.53461,401.79593 L 576.39998,453.88055 L 628.53461,505.96433 L 500.60609,506.83999 L 500.60609,632.89202 L 447.59471,580.80782 L 395.02172,632.89202 L 395.02172,506.83999 L 267.53079,506.83999 L 320.54218,454.31859 L 267.53079,400.92153 L 395.02172,400.92153 L 395.02172,274.43104 L 447.59471,327.39006 L 500.60609,274.43104 L 500.60609,274.43062 z"
   id="_49609344"
   style="fill:#ffffff;fill-rule:nonzero" /><polygon
   points="501.375,402.063 501.375,275.625 448.438,328.563 395.938,275.625 395.938,402.063 268.625,402.063 321.562,455.438 268.625,507.938 395.938,507.938 395.938,633.938 448.438,581.875 501.375,633.938 501.375,507.938 629.125,507.062 577.063,455 629.125,402.937 501.375,402.063 "
   transform="matrix(1.0013975,0,0,1.000414,-1.469645,-1.3084041)"
   id="_49166112"
   style="fill:#d40000;fill-rule:nonzero" /><polygon
   points="1623.56,1449.44 1623.56,1448.56 1631.44,1440.69 1171.19,1440.69 1163.75,1448.13 1393.87,1678.69 1393.87,1678.25 1394.75,1678.69 1395.19,1678.69 1394.75,1678.25 1508.94,1563.63 1509.81,1563.63 1623.56,1449.44 "
   transform="matrix(1.0013975,0,0,1.000414,-1.469645,-1.3084041)"
   id="_49614824"
   style="fill:#000000;fill-rule:nonzero" /><path
   d="M 1739.1497,1562.9692 L 1739.5881,1563.844 L 1279.1315,2022.9712 L 1278.6943,2022.0968 L 1164.3467,2137.6442 L 1165.2223,2138.0822 L 1049.9995,2252.3176 L 246.06438,1448.7359 L 254.82717,1439.9818 L -1.4685315,1439.9818 L -1.4685315,2640.1085 C 2.0360897,2809.0534 67.75328,2901.4035 195.68163,2918.0365 L 865.11591,2918.0365 C 908.48895,2921.9755 947.04357,2942.5459 980.33975,2979.7488 C 1013.1977,3017.3898 1036.8558,3068.1615 1051.751,3132.5 C 1066.2079,3068.1615 1089.8659,3016.9522 1122.7252,2979.3116 C 1156.0216,2942.1087 1194.1364,2921.099 1237.5094,2917.1604 L 1906.5061,2917.1604 C 1992.8138,2906.6566 2050.6453,2861.1376 2080.8754,2781.4786 C 2094.0184,2743.8385 2100.5905,2698.319 2101.466,2645.3596 L 2101.466,1439.9906 L 1845.6089,1439.9906 L 1854.3717,1448.7447 L 1739.1479,1562.9801 L 1739.1497,1562.9692 z"
   id="_49615656"
   style="fill:#000000;fill-rule:nonzero" /><polygon
   points="468.563,1440.69 705.687,1678.25 934.938,1448.13 927.501,1440.69 468.563,1440.69 "
   transform="matrix(1.0013975,0,0,1.000414,-1.469645,-1.3084041)"
   id="_49617424"
   style="fill:#000000;fill-rule:nonzero" /><polygon
   points="1393.87,1678.25 1393.87,1678.69 1394.75,1678.69 1393.87,1678.25 "
   transform="matrix(1.0013975,0,0,1.000414,-1.469645,-1.3084041)"
   id="_49618784"
   style="fill:#fff500;fill-rule:nonzero" />
</svg>