<?xml version="1.0" encoding="UTF-8"?>
<!DOCTYPE svg PUBLIC "-//W3C//DTD SVG 1.1//EN" "http://www.w3.org/Graphics/SVG/1.1/DTD/svg11.dtd">
<!-- Creator: CorelDRAW -->
<svg xmlns="http://www.w3.org/2000/svg" xml:space="preserve" width="148.706mm" height="209.766mm" version="1.1" style="shape-rendering:geometricPrecision; text-rendering:geometricPrecision; image-rendering:optimizeQuality; fill-rule:evenodd; clip-rule:evenodd"
viewBox="0 0 15115.61 21322.3"
 xmlns:xlink="http://www.w3.org/1999/xlink"
 xmlns:xodm="http://www.corel.com/coreldraw/odm/2003">
 <defs>
  <style type="text/css">
   <![CDATA[
    .fil0 {fill:#E31E24}
    .fil1 {fill:#E31E24;fill-rule:nonzero}
   ]]>
  </style>
 </defs>
 <g id="Слой_x0020_1">
  <metadata id="CorelCorpID_0Corel-Layer"/>
  <path class="fil0" d="M995.12 4337.78l679.09 0 679.08 0 7244.77 0 -356.9 393.31 -6887.87 0 0 34.55 341.88 288.18 6253.12 0 -707.74 779.93 -4620.12 0 462.63 389.97 3803.62 0 -719.94 793.38 -2142.46 0 430.72 363.08 1382.27 0 -599.07 660.18 595.82 502.25 3815.63 -4204.84c1305.74,0 2611.47,0 3917.21,0l-486.39 393.31 -216.38 0 0 322.73 1251.53 0 -964.52 779.93 -287.01 0 0 389.97 1217.95 0 -981.15 793.38 -236.8 0 0 363.08 1206.57 0 -947.88 766.49 -258.69 0 0 5449.05c0,513.08 604.99,523.69 995.11,618.59l-1387.78 0c25.39,241.94 27.93,512.06 18.68,756.14l475.05 191.79c21.22,8.58 33.8,29.29 31.55,52.07l-33.83 345.92c-2.23,22.8 -18.54,40.67 -41.03,44.98l-502.76 96.08c-16.99,107.26 -36.76,213.47 -59.19,318.57l433.83 270.95c19.41,12.13 28.19,34.72 22.03,56.76l-93.37 334.8c-6.15,22.05 -25.33,36.84 -48.22,37.16l-510.68 7.29c-35.39,102.74 -73.44,204.13 -114.05,304.12l379.49 341.53c17.02,15.32 21.75,39.09 11.85,59.74l-150.1 313.49c-9.87,20.63 -31.34,31.87 -53.94,28.21l-504.25 -81.5c-52.71,94.76 -107.86,187.9 -165.37,279.31l314.74 402.65c14.09,18.03 14.62,42.27 1.3,60.87l-202.26 282.67c-13.33,18.61 -36.4,25.95 -58.03,18.42l-483.62 -168.24c-68.13,83.78 -138.4,165.71 -210.79,245.6l240.65 452.34c10.74,20.21 7.05,44.17 -9.3,60.17l-248.25 243.25c-16.37,16.02 -40.35,19.23 -60.35,8.06l-447.95 -250.15c-81.39,70.54 -164.56,138.98 -249.56,205.12l158.65 487.91c7.08,21.76 -0.71,44.69 -19.6,57.63l-286.74 196.44c-18.88,12.94 -43.08,11.93 -60.84,-2.54l-397.51 -323.99c-92.34,55.45 -186.14,108.61 -281.46,159.15l71.43 507.41c3.19,22.67 -8.48,43.91 -29.32,53.37l-316.48 143.68c-20.86,9.45 -44.51,4.26 -59.47,-13.07l-334.44 -387.21c-100.69,38.66 -202.61,74.67 -305.66,107.97l-4.27 123.17 -13.42 387.92c-0.19,6.81 -1.73,13.24 -4.34,19.08l-0.01 0.02 -0.41 0.89 -0.01 0.01c-0.56,1.22 -1.16,2.41 -1.83,3.56l-0.01 0.02 -0.49 0.85 -0.01 0.02 -0.51 0.83 -0.02 0.02 -0.52 0.82 -0.01 0.01 -0.53 0.81 -0.02 0.02 -0.56 0.8 -0.01 0.02 -0.58 0.79 -0.01 0.02 -0.59 0.77 -0.01 0.01 -0.61 0.78 -0.01 0.01 -0.62 0.76 -0.01 0.01 -0.1 0.13 -1.09 1.25 -0.1 0.1 -0.01 0.01 -0.68 0.73 -0.01 0.01 -0.68 0.7 -0.01 0.01 -0.7 0.69 0 0.01 -1.41 1.33 -0.04 0.04 -0.01 0.01 -0.75 0.65 0 0.01 -0.76 0.63 0 0.01 -1.58 1.25 0 0.01 -0.8 0.58 -0.01 0.02 -0.81 0.57 0 0.01 -0.83 0.58 0 0.01 -0.84 0.55 -0.01 0.01 -0.84 0.53 -0.01 0.01 -0.87 0.51 0 0.01 -0.88 0.5 0 0.01 -0.89 0.49 0 0.01 -0.9 0.46 -0.02 0.01 -0.9 0.46 -0.01 0.01 -0.91 0.43 -0.02 0.01c-2.82,1.3 -5.79,2.36 -8.91,3.16l-336.62 86.53c-7.65,1.96 -15.3,2.14 -22.5,0.75l-0.02 -0.01 -0.97 -0.18 -0.03 0 -0.96 -0.22 -0.02 0 -0.96 -0.23 -0.02 0 -0.94 -0.24 -0.02 -0.01 -0.95 -0.27 -0.01 -0.01 -0.95 -0.28 -0.02 -0.01 -0.92 -0.3 -0.01 0 -0.94 -0.33 -0.02 -0.01 -0.91 -0.35 -0.01 0 -0.9 -0.37 -0.01 -0.01 -0.91 -0.39 -0.01 0 -0.89 -0.41 -0.01 0 -0.89 -0.43 -0.01 0 -0.88 -0.45 -0.01 0 -0.87 -0.46 -0.01 -0.01 -0.86 -0.47 -0.01 0 -0.86 -0.51 -0.01 0 -0.84 -0.51 -0.01 0 -0.84 -0.54 -0.01 0 -0.82 -0.55 -0.01 0 -0.82 -0.57 -0.01 0 -0.79 -0.59 -0.01 -0.01 -0.8 -0.59 -0.01 0 -0.79 -0.62 -0.01 0 -0.77 -0.64 -0.01 0 -0.76 -0.65 -0.01 -0.01 -0.74 -0.67 -0.01 0 -0.75 -0.69 -0.01 0 -0.72 -0.69 -0.01 -0.02 -0.71 -0.71 -0.71 -0.73 -0.71 -0.77 -0.68 -0.77 -0.01 0 -0.67 -0.77 -0.65 -0.81 -0.64 -0.82 -0.64 -0.82 -0.62 -0.85 -0.6 -0.87 -0.58 -0.87 -0.58 -0.9 -0.55 -0.91 -262.05 -439.25c-105.79,20.44 -212.36,38.38 -319.85,53.17l-41.59 195.86 -64.58 304.32c-1.23,5.93 -3.48,11.45 -6.49,16.33l-0.02 0.01c-0.54,0.87 -1.06,1.7 -1.63,2.52l-0.04 0.01 -0.56 0.81 -0.02 0.02 -1.11 1.46 -0.09 0.11 -0.01 0.01 -0.62 0.76 -0.02 0.02 -1.3 1.51 -0.65 0.73 -0.02 0.02 -0.67 0.7 -0.01 0.01 -0.69 0.7 -0.02 0 -0.7 0.69 -0.02 0.01 -0.72 0.67 -0.01 0.02 -0.72 0.65 -0.01 0.01 -0.75 0.64 -0.01 0.01 -0.75 0.62 -0.02 0 -0.76 0.61 -0.01 0.02 -0.79 0.59 -0.01 0.01 -0.8 0.58 -0.01 0.02 -0.8 0.55 -0.01 0.01 -0.82 0.55 -0.01 0.01 -0.82 0.53 -0.02 0.02 -0.84 0.51 -0.01 0.01 -1.73 0.98 -0.01 0.01 -2.7 1.35 -0.01 0.01 -0.9 0.41 -0.01 0.01 -0.92 0.4 -0.01 0.01 -0.94 0.38 0 0.01 -0.94 0.36 -0.01 0.01 -0.96 0.34 -0.02 0.01 -1.93 0.63 -0.01 0.01 -0.99 0.27 0 0.01 -0.99 0.26 -0.01 0.01 -2.02 0.47 0 0.01 -1.02 0.21 0 0.01c-1.36,0.27 -2.74,0.48 -4.16,0.65l-0.01 0.01 -2.12 0.21 -346.54 26.74c-6.04,0.51 -11.95,-0.07 -17.5,-1.6l-0.01 -0.01 -1.92 -0.56 -0.02 -0.01 -0.95 -0.29 -0.02 -0.01 -0.92 -0.32 -0.02 -0.01 -0.92 -0.34 -0.02 -0.02 -0.91 -0.36 -0.02 -0.01 -0.9 -0.38 -0.02 -0.01 -0.9 -0.4 -0.02 0 -0.88 -0.41 -0.01 -0.02 -0.88 -0.43 -0.02 0 -0.86 -0.46 -0.02 0 -0.86 -0.48 -0.01 0 -0.85 -0.49 -0.01 0 -0.85 -0.51 -0.02 0 -0.82 -0.52 -0.01 -0.01 -0.81 -0.54 -0.02 -0.01 -0.82 -0.56 -0.01 0 -0.79 -0.57 -0.01 0 -0.8 -0.59 -0.01 -0.01 -0.78 -0.6 -0.01 0 -0.76 -0.62 -0.01 0 -0.76 -0.65 -0.01 0 -0.74 -0.65 -0.01 -0.01 -0.73 -0.67 -0.73 -0.69 -0.72 -0.69 -0.69 -0.72 -0.01 0 -0.69 -0.73 -0.66 -0.76 -0.01 0 -0.65 -0.75 -0.01 -0.01 -0.65 -0.77 -0.01 0 -0.62 -0.8 -0.62 -0.8 -0.01 0 -0.59 -0.82 -0.01 0 -0.58 -0.84 -0.57 -0.84 -0.01 0 -0.55 -0.86 0 -0.01 -0.55 -0.87 -0.53 -0.89 -0.5 -0.91 -0.01 0 -0.5 -0.9 -0.47 -0.95 -0.46 -0.94 -0.45 -0.97 -0.43 -0.97 -0.41 -0.99 -0.4 -1 -182.04 -478.76c-107.34,1.67 -215.2,0.7 -323.6,-3.41l-74.26 183.94 -117.51 291.11c-2.52,6.26 -6.16,11.81 -10.59,16.45l-0.02 0.01 -1.41 1.41 -0.02 0.01 -0.71 0.69 -0.02 0 -0.71 0.67 -0.02 0 -1.51 1.3 -0.02 0.01 -1.55 1.22 -0.02 0.01 -1.61 1.16 -0.02 0.01c-0.81,0.57 -1.65,1.1 -2.49,1.62l-0.02 0.01 -0.84 0.5 -0.02 0 -0.84 0.49 -0.01 0 -1.76 0.95 -0.01 0 -0.89 0.43 -0.01 0.01 -0.89 0.42 -0.01 0.01 -0.9 0.39 -0.02 0.01 -0.9 0.39 -0.02 0 -0.91 0.37 -0.01 0 -0.92 0.35 -0.01 0 -0.95 0.33 -0.01 0 -0.96 0.3 -0.01 0 -0.96 0.28 -0.01 0.01 -0.95 0.26 -0.02 0.01 -0.98 0.24 -0.01 0.01 -0.98 0.23 -0.01 0 -0.98 0.2 -0.01 0.01 -0.99 0.19 -0.01 0 -1.01 0.17 -0.01 0 -1.01 0.16 -0.01 0 -1 0.13 -0.01 0 -1.02 0.12 -0.01 0 -1.02 0.09 -0.01 0 -1.03 0.06 -1.04 0.05 -0.01 0.01 -1.04 0.03 0 0.01 -1.04 0.01 -0.01 0 -1.05 -0.01 -0.01 0 -1.05 -0.03 -0.01 0.01 -1.05 -0.06 -0.01 0.01 -1.06 -0.09 -0.01 0.01 -1.06 -0.1 -0.01 0.01 -345.91 -33.83c-6.81,-0.65 -13.11,-2.56 -18.76,-5.49l-0.03 -0.02 -1.75 -0.96 -0.02 -0.01 -0.85 -0.49 -0.02 -0.02 -0.83 -0.51 -0.02 -0.01 -0.82 -0.53 -0.02 -0.01 -0.8 -0.55 -0.02 -0.01 -0.8 -0.56 -0.02 -0.01 -0.79 -0.58 -0.02 -0.01 -0.77 -0.6 -0.01 -0.01 -0.78 -0.61 0 -0.01 -0.76 -0.62 -0.01 0 -0.74 -0.64 -0.02 -0.02 -0.72 -0.65 -0.02 -0.01 -1.43 -1.37 -0.01 0 -0.68 -0.69 -0.02 -0.01 -0.68 -0.72 -0.01 -0.01 -0.67 -0.72 -0.01 -0.02 -0.01 -0.01 -1.26 -1.48 -0.01 0 -0.01 -0.01 -0.62 -0.78 -0.01 0 -0.61 -0.79 -0.01 0 -0.58 -0.79 -0.01 0 -0.57 -0.82 -0.01 0 -0.57 -0.83 -0.01 0 -0.55 -0.84 -0.53 -0.85 -0.01 -0.01 -0.51 -0.85 -0.01 0 -0.49 -0.88 -0.01 0 -0.48 -0.88 -0.01 -0.01 -0.47 -0.9 -0.45 -0.91 -0.43 -0.92 -0.01 0 -0.41 -0.94 -0.41 -0.96 -0.01 0 -0.38 -0.96 -0.37 -0.98 -0.34 -0.98 -0.33 -0.99 -0.3 -1.01 -0.28 -1.02 -0.27 -1.02 -0.25 -1.04 -0.23 -1.04 -0.21 -1.05 -96.16 -503.22c-107.16,-16.99 -213.28,-36.72 -318.29,-59.12l-271.13 434.22c-12.14,19.4 -34.75,28.19 -56.79,22.02l-334.8 -93.4c-22.09,-6.11 -36.84,-25.29 -37.16,-48.18l-7.3 -511.09c-102.64,-35.36 -203.96,-73.38 -303.86,-113.95l-341.76 379.81c-15.32,17 -39.11,21.74 -59.74,11.83l-313.49 -150.12c-20.7,-9.86 -31.89,-31.31 -28.23,-53.91l81.55 -504.61c-94.67,-52.67 -187.75,-107.77 -279.09,-165.23l-402.88 314.98c-18.04,14.07 -42.3,14.61 -60.89,1.28l-282.66 -202.29c-18.67,-13.31 -25.97,-36.36 -18.44,-57.99l168.3 -483.82c-83.76,-68.09 -165.6,-138.36 -245.48,-210.71l-452.51 240.78c-20.2,10.73 -44.19,7.04 -60.17,-9.31l-243.25 -248.3c-16.07,-16.34 -19.25,-40.31 -8.08,-60.31l250.23 -448.07c-70.52,-81.36 -138.96,-164.52 -205.08,-249.48l-487.99 158.72c-21.76,7.06 -44.73,-0.73 -57.64,-19.62l-196.44 -286.76c-12.98,-18.89 -11.95,-43.06 2.52,-60.82l324.05 -397.59c-55.45,-92.32 -108.56,-186.13 -159.1,-281.44l-507.51 71.51c-22.66,3.17 -43.92,-8.51 -53.36,-29.34l-143.66 -316.52c-9.51,-20.86 -4.3,-44.48 13.03,-59.44l387.35 -334.57c-38.63,-100.66 -74.69,-202.52 -107.98,-305.53l-511.22 -17.69c-22.87,-0.8 -41.78,-16 -47.46,-38.15l-86.51 -336.65c-5.74,-22.2 3.5,-44.56 23.16,-56.27l439.32 -262.09c-20.44,-105.76 -38.32,-212.34 -53.11,-319.8l-500.31 -106.18c-22.38,-4.76 -38.37,-23 -40.12,-45.81l-26.72 -346.55c-1.81,-22.85 11.17,-43.28 32.57,-51.41l478.82 -182.07c-3.25,-208.48 2.35,-424.96 22.03,-632.5l-1387.79 0c390.12,-94.9 995.12,-105.51 995.12,-618.59l0 -9257.95zm11483.18 9876.53l-967.52 0c390.12,-94.9 995.12,-105.51 995.12,-618.59l0 -5449.05 -3827.66 0 -1774.11 1963.73 -4550.85 -3836.11 0 7321.44c0,513.08 604.99,523.69 995.11,618.59l-967.51 0c-203.72,1930.74 711.55,3808.61 2357.87,4837.65 213.82,133.65 435.15,249.78 661.97,348.71 150.91,-159.84 325.21,-242.34 522.93,-247.48 478.44,-313.12 761.77,-876.28 591.68,-1647.29 -154.22,-699.1 -724.5,-1154.76 -1459.06,-1438.84 -195.75,-85.71 -274.2,-29.68 -235.33,168.09 48.47,176.56 151.57,481.37 309.28,914.42 0,0 66.11,-8.97 198.35,-26.89 0,0 49.31,-34.73 147.92,-104.21 64.32,100.24 132.68,288.5 205.07,564.79 0,0 -110.94,2.24 -332.82,6.72 0,0 -7.85,-22.41 -23.54,-67.24 -218.85,30.19 -368.5,-37.3 -450.47,-201.71 -219.13,-439.52 -457.42,-869.95 -658.92,-1317.83 -170.52,-378.98 -26.38,-575.54 363.08,-490.82 201.21,43.78 424.45,170.33 685.81,134.47 304.59,-41.79 597.49,-719.28 912.5,-1884.69 58.7,-217.09 38.87,-415.96 38.87,-640 -26.6,-147.06 -142.4,-285.23 -366.44,-305.93 -296.83,-27.42 -458.32,-20.29 -467.3,-90.77 -32.55,-255.53 221.08,-363.02 746.33,-379.88 178.5,-5.73 303.42,-75.82 379.88,-151.28l0 -151.28c-1044.82,-41.09 -1759.76,-527.43 -2144.83,-1459.02l470.65 0c292.83,591 626.76,976.48 1001.82,1156.46 -329.65,-369.32 -493.27,-754.8 -490.83,-1156.46l470.65 0c19.27,805.08 227.69,1215.72 625.3,1230.42 1067.59,39.46 1643.6,-371.17 1727.95,-1230.42l551.35 0c-169.38,393.62 -418.15,743.25 -746.32,1048.89 414.54,85.51 775.37,-264.12 1082.49,-1048.89l416.91 0c-76.94,280.47 -274.16,574.06 -591.68,880.78 378.22,14.34 730.1,-279.25 1055.6,-880.78l722.82 0c-764.06,995.33 -1989.99,1513.03 -3677.81,1553.11 0,0 -1.12,73.95 -3.36,221.86 0,0 219.64,-2.25 658.91,-6.73 31.18,154.85 -6.92,280.36 -114.3,376.52 -283.94,43.39 -472.21,173.38 -564.78,389.97 -63.96,856.58 27.4,1386.69 194.98,1647.28 182.8,284.27 670.49,248.02 1593.49,-6.72 409.28,-112.96 915.42,12.48 1485.92,221.88 28.35,209.83 -70.27,454.12 -295.85,732.87 43.7,989.12 189.37,1970.76 437.04,2944.95 0,0 -22.41,62.75 -67.23,188.25l50.24 46.9c1496.22,-1055.97 2314.3,-2843.96 2120.59,-4679.83zm-6369.5 5434.64c-9.23,-186.08 99.38,-346.85 325.86,-482.31 22.41,-183.78 33.61,-275.67 33.61,-275.67 350.41,-432.35 595.12,-808.29 571.51,-1129.56 -42.67,-580.47 -118.78,-932.6 -67.24,-1075.78 352.4,-553.52 1579.48,-783.69 1674.18,-228.6 43.3,334.2 -91.17,659.17 -403.41,974.92 -420.88,450.44 -761.56,936.79 -1022,1459.02 -227.27,87.41 -379.68,212.91 -457.2,376.52 -5.3,29.93 -22.11,48.97 -50.43,57.15 0,76.21 0,114.3 0,114.3l638.75 20.17c0.81,-168.43 32.18,-258.08 94.12,-268.96 75.24,-548.69 458.49,-1017.1 1149.74,-1405.23 163.6,-4.48 245.41,-6.73 245.41,-6.73 -6.73,-112.07 -10.09,-168.1 -10.09,-168.1 90.5,-199.32 733.41,-1351.56 863.99,-578.22 171.25,618.18 269.87,1151.59 295.86,1600.22 -57.12,130.52 -119.87,267.23 -188.26,410.14 13.01,66.08 40.43,115.41 82.23,148.01 -1164.76,644.07 -2520.94,796.94 -3776.62,458.71zm6397.1 -12268.77l0 -363.08 -2807.16 0 -328.02 363.08 3135.18 0zm0 -1156.46l0 -389.97 -1738.07 0 -352.32 389.97 2090.39 0zm0 -1169.91l0 -322.73 -741.87 0 -291.57 322.73 1033.43 0z"/>
  <path class="fil1" d="M884.89 1752.36l0 -1359.36 412.3 0 243.65 927.12 240.79 -927.12 413.25 0 0 1359.36 -254.4 0 -0.95 -1070.15 -268.02 1070.15 -264.53 0 -266.74 -1070.15 -0.96 1070.15 -254.4 0zm1528.33 -671.46c0,-138.6 20.89,-255.03 62.34,-349.33 30.69,-69.29 73.1,-131.63 126.57,-186.69 53.48,-55.06 112.02,-95.87 175.62,-122.77 84.79,-35.76 182.57,-53.79 293.33,-53.79 200.61,0 360.72,62.33 481.28,186.69 120.24,124.67 180.35,297.76 180.35,519.57 0,219.92 -59.8,392.05 -179.09,516.09 -119.29,124.36 -279.08,186.37 -478.75,186.37 -202.2,0 -363.25,-61.7 -482.54,-185.43 -119.29,-123.4 -179.1,-293.64 -179.1,-510.71zm282.89 -9.18c0,154.11 35.76,270.86 106.95,350.6 71.19,79.42 161.69,119.29 271.18,119.29 109.8,0 199.67,-39.55 270.23,-118.35 70.24,-79.1 105.37,-197.44 105.37,-355.34 0,-156 -34.17,-272.45 -102.84,-349.02 -68.35,-76.89 -159.17,-115.18 -272.76,-115.18 -113.28,0 -204.73,38.92 -274.02,116.45 -69.3,77.83 -104.11,194.91 -104.11,351.54zm2120.37 179.42l265.79 81.63c-40.81,149.68 -108.84,260.74 -203.77,333.52 -94.93,72.45 -215.17,108.84 -361.04,108.84 -180.68,0 -329.08,-61.7 -445.52,-185.1 -116.13,-123.41 -174.35,-292.07 -174.35,-506.29 0,-226.24 58.53,-402.17 175.29,-527.48 116.76,-125.3 270.55,-187.95 461.03,-187.95 166.44,0 301.55,49.36 405.34,147.77 62.02,58.22 108.21,141.76 139.23,250.93l-271.49 64.55c-16.14,-70.25 -49.69,-125.93 -100.62,-166.75 -51.26,-40.82 -113.29,-61.07 -186.07,-61.07 -100.94,0 -182.89,36.07 -245.54,108.53 -62.97,72.15 -94.3,189.23 -94.3,351.23 0,171.5 31.01,293.96 92.71,366.74 62.03,73.1 142.4,109.49 241.43,109.49 73.1,0 136.07,-23.09 188.59,-69.62 52.53,-46.51 90.5,-119.28 113.29,-218.96zm505.32 -858.14l275.29 0 0 579.06c61.07,-6.33 102.52,-21.83 124.04,-47.47 21.52,-25.31 55.05,-95.87 99.99,-211.68 56.64,-147.15 113.91,-238.9 171.19,-274.66 56.95,-35.75 148.4,-53.79 274.97,-53.79 6.33,0 19.62,-0.32 39.88,-0.95l0 203.14 -38.92 -0.95c-56.32,0 -97.46,6.95 -123.41,20.88 -25.95,13.93 -46.83,35.12 -62.97,63.6 -16.13,28.48 -39.87,87.02 -71.19,175.62 -16.77,47.14 -34.8,86.38 -54.42,118.02 -19.3,31.64 -53.79,61.39 -103.15,89.24 61.07,17.09 111.38,52.21 151.25,104.74 39.87,52.52 83.53,126.56 130.99,222.45l185.11 372.11 -322.75 0 -162.96 -349.96c-2.53,-5.06 -7.91,-14.56 -15.82,-28.8 -3.17,-4.75 -14.56,-26.27 -34.17,-63.92 -34.81,-67.09 -63.29,-108.85 -85.44,-125.63 -22.46,-16.76 -56.32,-25.31 -102.21,-25.94l0 594.24 -275.29 0 0 -1359.36zm1097.99 687.9c0,-138.6 20.89,-255.03 62.34,-349.33 30.69,-69.29 73.1,-131.63 126.57,-186.69 53.48,-55.06 112.02,-95.87 175.62,-122.77 84.79,-35.76 182.57,-53.79 293.33,-53.79 200.61,0 360.72,62.33 481.28,186.69 120.24,124.67 180.35,297.76 180.35,519.57 0,219.92 -59.8,392.05 -179.09,516.09 -119.29,124.36 -279.08,186.37 -478.75,186.37 -202.2,0 -363.25,-61.7 -482.54,-185.43 -119.29,-123.4 -179.1,-293.64 -179.1,-510.71zm282.89 -9.18c0,154.11 35.76,270.86 106.95,350.6 71.19,79.42 161.69,119.29 271.18,119.29 109.8,0 199.67,-39.55 270.23,-118.35 70.24,-79.1 105.37,-197.44 105.37,-355.34 0,-156 -34.17,-272.45 -102.84,-349.02 -68.35,-76.89 -159.17,-115.18 -272.76,-115.18 -113.28,0 -204.73,38.92 -274.02,116.45 -69.3,77.83 -104.11,194.91 -104.11,351.54zm1250.83 -678.72l543.61 0c107.9,0 187.96,4.42 240.8,13.29 53.16,9.18 100.31,27.85 142.07,56.01 41.77,28.48 76.57,66.13 104.42,113.28 27.84,47.15 41.77,100.31 41.77,158.85 0,63.29 -17.09,121.83 -51.26,174.67 -34.17,53.16 -80.69,92.71 -139.23,119.29 82.59,24.37 145.86,65.5 190.49,123.72 44.3,58.22 66.45,126.57 66.45,205.36 0,62.03 -14.24,122.14 -43.04,180.68 -28.79,58.54 -68.03,105.37 -118.02,140.5 -49.68,34.8 -111.06,56.32 -184.16,64.55 -45.57,4.75 -156,7.91 -330.99,9.18l-462.93 0 0 -1359.36zm275.28 225.92l0 313.26 179.73 0c106.64,0 173.09,-1.58 199.03,-4.75 46.84,-5.38 83.86,-21.51 110.76,-48.4 26.9,-26.9 40.18,-62.03 40.18,-105.69 0,-42.08 -11.71,-75.94 -34.8,-102.2 -23.1,-26.27 -57.59,-42.09 -103.15,-47.47 -27.21,-3.16 -105.37,-4.75 -234.16,-4.75l-157.58 0zm0 539.19l0 364.52 254.41 0c98.72,0 161.69,-2.85 188.27,-8.22 40.81,-7.59 74.04,-25.64 99.67,-54.43 25.64,-29.11 38.61,-67.39 38.61,-115.81 0,-41.14 -9.81,-75.63 -29.74,-104.11 -19.62,-28.47 -48.41,-49.36 -85.75,-62.33 -37.34,-12.97 -118.66,-19.62 -243.65,-19.62l-221.82 0zm1892.86 93.03l265.79 81.63c-40.81,149.68 -108.84,260.74 -203.77,333.52 -94.93,72.45 -215.17,108.84 -361.04,108.84 -180.68,0 -329.08,-61.7 -445.52,-185.1 -116.13,-123.41 -174.35,-292.07 -174.35,-506.29 0,-226.24 58.53,-402.17 175.29,-527.48 116.76,-125.3 270.55,-187.95 461.03,-187.95 166.44,0 301.55,49.36 405.34,147.77 62.02,58.22 108.21,141.76 139.23,250.93l-271.49 64.55c-16.14,-70.25 -49.69,-125.93 -100.62,-166.75 -51.26,-40.82 -113.29,-61.07 -186.07,-61.07 -100.94,0 -182.89,36.07 -245.54,108.53 -62.97,72.15 -94.3,189.23 -94.3,351.23 0,171.5 31.01,293.96 92.71,366.74 62.03,73.1 142.4,109.49 241.43,109.49 73.1,0 136.07,-23.09 188.59,-69.62 52.53,-46.51 90.5,-119.28 113.29,-218.96zm505.32 -858.14l275.29 0 0 579.06c61.07,-6.33 102.52,-21.83 124.04,-47.47 21.52,-25.31 55.05,-95.87 99.99,-211.68 56.64,-147.15 113.91,-238.9 171.19,-274.66 56.95,-35.75 148.4,-53.79 274.97,-53.79 6.33,0 19.62,-0.32 39.88,-0.95l0 203.14 -38.92 -0.95c-56.32,0 -97.46,6.95 -123.41,20.88 -25.95,13.93 -46.83,35.12 -62.97,63.6 -16.13,28.48 -39.87,87.02 -71.19,175.62 -16.77,47.14 -34.8,86.38 -54.42,118.02 -19.3,31.64 -53.79,61.39 -103.15,89.24 61.07,17.09 111.38,52.21 151.25,104.74 39.87,52.52 83.53,126.56 130.99,222.45l185.11 372.11 -322.75 0 -162.96 -349.96c-2.53,-5.06 -7.91,-14.56 -15.82,-28.8 -3.17,-4.75 -14.56,-26.27 -34.17,-63.92 -34.81,-67.09 -63.29,-108.85 -85.44,-125.63 -22.46,-16.76 -56.32,-25.31 -102.21,-25.94l0 594.24 -275.29 0 0 -1359.36zm1158.75 0l256.31 0 0 904.97 550.58 -904.97 273.39 0 0 1359.36 -256.31 0 0 -890.42 -550.58 890.42 -273.39 0 0 -1359.36zm1364.75 0l256.31 0 0 904.97 550.58 -904.97 273.39 0 0 1359.36 -256.31 0 0 -890.42 -550.58 890.42 -273.39 0 0 -1359.36zm702.47 -393l127.2 0c-7.28,83.85 -37.02,149.98 -88.6,197.77 -51.59,47.77 -118.35,71.82 -200.3,71.82 -82.27,0 -149.04,-24.05 -200.62,-71.82 -51.58,-47.78 -81.32,-113.92 -88.6,-197.77l127.2 0c4.43,43.67 19.62,76.89 46.2,99.35 26.58,22.47 65.19,33.54 115.82,33.54 50.31,0 88.91,-11.07 115.49,-33.54 26.58,-22.46 41.77,-55.68 46.2,-99.35zm-9494.48 3873.36l0 -1359.36 440.15 0c166.75,0 275.29,6.64 325.91,20.25 77.84,20.56 143.03,64.87 195.55,133.21 52.53,68.35 78.8,156.64 78.8,264.85 0,83.53 -15.2,153.47 -45.25,210.42 -30.37,56.95 -68.66,101.58 -115.18,134.17 -46.51,32.27 -93.98,53.79 -142.07,64.23 -65.5,12.97 -160.12,19.62 -284.16,19.62l-178.46 0 0 512.61 -275.28 0zm275.28 -1129.63l0 387.3 149.68 0c107.9,0 179.72,-7.28 216.11,-21.52 36.39,-14.23 64.87,-36.39 85.44,-67.08 20.56,-30.37 31.01,-65.5 31.01,-106 0,-49.69 -14.56,-90.5 -43.35,-122.78 -29.11,-32.27 -65.5,-52.52 -110.12,-60.75 -32.59,-6.01 -98.09,-9.17 -196.82,-9.17l-131.95 0zm2048.86 1129.63l-296.49 0 -117.4 -309.47 -545.2 0 -112.96 309.47 -291.11 0 527.8 -1359.36 290.79 0 544.57 1359.36zm-503.12 -539.19l-188.9 -503.12 -183.53 503.12 372.43 0zm653.41 -820.17l256.31 0 0 904.97 550.58 -904.97 273.39 0 0 1359.36 -256.31 0 0 -890.42 -550.58 890.42 -273.39 0 0 -1359.36zm702.47 -393l127.2 0c-7.28,83.85 -37.02,149.98 -88.6,197.77 -51.59,47.77 -118.35,71.82 -200.3,71.82 -82.27,0 -149.04,-24.05 -200.62,-71.82 -51.58,-47.78 -81.32,-113.92 -88.6,-197.77l127.2 0c4.43,43.67 19.62,76.89 46.2,99.35 26.58,22.47 65.19,33.54 115.82,33.54 50.31,0 88.91,-11.07 115.49,-33.54 26.58,-22.46 41.77,-55.68 46.2,-99.35zm601.52 1080.9c0,-138.6 20.89,-255.03 62.34,-349.33 30.69,-69.29 73.1,-131.63 126.57,-186.69 53.48,-55.06 112.02,-95.87 175.62,-122.77 84.79,-35.76 182.57,-53.79 293.33,-53.79 200.61,0 360.72,62.33 481.28,186.69 120.24,124.67 180.35,297.76 180.35,519.57 0,219.92 -59.8,392.05 -179.09,516.09 -119.29,124.36 -279.08,186.37 -478.75,186.37 -202.2,0 -363.25,-61.7 -482.54,-185.43 -119.29,-123.4 -179.1,-293.64 -179.1,-510.71zm282.89 -9.18c0,154.11 35.76,270.86 106.95,350.6 71.19,79.42 161.69,119.29 271.18,119.29 109.8,0 199.67,-39.55 270.23,-118.35 70.24,-79.1 105.37,-197.44 105.37,-355.34 0,-156 -34.17,-272.45 -102.84,-349.02 -68.35,-76.89 -159.17,-115.18 -272.76,-115.18 -113.28,0 -204.73,38.92 -274.02,116.45 -69.3,77.83 -104.11,194.91 -104.11,351.54zm1250.83 680.63l0 -1359.36 275.28 0 0 535.39 535.39 0 0 -535.39 275.29 0 0 1359.36 -275.29 0 0 -594.24 -535.39 0 0 594.24 -275.28 0z"/>
 </g>
</svg>
