<?xml version="1.0" encoding="utf-8"?>
<!-- Generator: Adobe Illustrator 26.4.1, SVG Export Plug-In . SVG Version: 6.00 Build 0)  -->
<svg version="1.1" id="Ebene_1" xmlns="http://www.w3.org/2000/svg" xmlns:xlink="http://www.w3.org/1999/xlink" x="0px" y="0px"
	 viewBox="0 0 406.5 492.8" style="enable-background:new 0 0 406.5 492.8;" xml:space="preserve">
<style type="text/css">
	.st0{fill:#FFD72E;}
	.st1{fill:#D50029;}
	.st2{fill:none;stroke:#E41E2E;stroke-width:0.888;}
	.st3{fill:#FFFFFF;}
	.st4{fill:none;stroke:#FFFFFF;stroke-width:3.176;stroke-linecap:round;stroke-linejoin:round;}
	.st5{fill:none;stroke:#FFFFFF;stroke-width:2.664;stroke-linecap:round;stroke-linejoin:round;}
	.st6{fill:none;stroke:#000000;stroke-width:3.048;}
</style>
<g>
	<path class="st0" d="M203.1,1.5H405v296.7c0,106.6-90.3,193.1-201.7,193.1C91.9,491.3,1.5,404.9,1.5,298.2V1.5L203.1,1.5L203.1,1.5
		z"/>
	<path d="M386.6,202.5c-3.8-7-31.8-35.1-66.8-54.2c-15.4-8.4-63.1-34.1-102.2-41.2c-4.2-0.8-7.9-2.6-12.2-1.6
		c-1.8,0.4-4.4-2.2-1.4-3.9c1.7-1,3.4-1.8,12-1.6c-7.4-5.2-9.8-4.4-21.5-4.1c2.5-4.8,16.2-4.8,16.2-4.8s-6.3-3.9-25-2.5
		c3.8-3.1,11.1-4.6,11.1-4.6s-10.2-4.2-22,1.2c-1,0.4-2.1,1.4-4.4,1.5c-2.3,0.1-8-0.7-8.9-0.9c-0.9-0.2-4.5-0.8-4.1-4.1
		c0.4-3.3,3.2-3.4,3.9-3.4c0.7-0.1,9.2,0.5,11.4-3.5c1.5-2.8,4.3-13.6-3.4-16.7c-10.9-4.4-16.4-0.8-18-0.4c-1.6,0.4-3.9-1.3-3.9-1.3
		s-8.4-8.6-11.1-10.6c-2.7-2-10.6-5.7-16.6-6.7c-1.3-0.2-3.7-0.9-4-1.2c-1.4-1.1-5.8-1.8-7.4-1.7c-2,0.2-6.3-0.5-8.6,3
		c-1.5,2.2-2.6,2.3-5.6,2.8c-3,0.5-10.8,0-10.8,0s-10.1,0-13.4-2.3c-1.5-1-6.2-5.3-7.5-6.8c-1.3-1.5-3.2-0.6-3.1,0
		c0.8,2.8,0.2,8-2.8,11.3c-3.5,3.8-7.4,7.4-8,8.2c-0.7,0.8-1.8,4.9,0.6,6.4c2.4,1.5,4.3,2.6,4.3,2.6s-1.6,10-1.2,13
		c-2.3-1-6.2-3.1-8.6-5C27.9,56.8,26.6,42.7,23.3,42.2c-3.2-0.5-7.7,16,1.2,27.3c10.3,13.1,30,16.2,30,16.2s-3.2,4.1-2.9,9.7
		c-3.4,1.7-3.9,2.9-3.9,2.9s-0.3,2.2,1.9,4c60.9-1.4,104.9,56.6,94.7,123.3c-1.5,9.7-8.7,33.9-11.6,40.9c-2.9,7-3.8,18.5-3.8,18.5
		s-1,3.6-2.7,3.3c-1.7-0.2-1.8-1.6-1.8-2.6c0.3-1.3-0.9-6.5-0.4-9.8c0.5-3.2-1.4-5.6-1.4-5.6s4.7-10.4-7.4-19.5
		c2.2,11.8-1.7,14.5-1.7,14.5s-5-15.8-20.8-15.2c6.8,5.8,7.8,14.2,8.1,14.8c-1.9-3.8-17.6-14.2-26.8,0c15.5,0.9,18,6.8,18,6.8
		s-18.4-6.8-26.3,10.9c8.8-2.3,18-0.5,18-0.5s-11,2.5-11.1,12.1c6-2.9,15.4-0.9,15.4-0.9s-0.3,0-0.2,0.9c1.5,0.5,8.3,10.6,13.9,13.3
		c5.7,2.7,37.8,4.6,51.6-1.7c3.5-1.6,3.7-1,5-5.3c4.3-14.2,21.2-52.9,33-76.7c7.9-15.9,15.3-27,15.3-28c0.1-2-9.8-13-10.9-14.3
		c-1.1-1.3,1-2,1-2s7.4,1.8,10.5,6.1c3.1,4.4,3.6,5.1,3,7.5c-0.7,2.3-6.2,19-6.2,19s85.9,6.9,86.4,9.8c0.6,2.9-26.8,5.4-34,6.9
		c-12.3,2.6-23.9,17.3-22.7,21.5c5,17.3,6.8,60.8,7.2,64.1c0.4,3.3,4.8,5,6.5,5c1.7,0.1,10.6,0.2,11.4,1.6c0.8,1.4-0.5,2-0.5,2
		s-2,1.4-5.5,1.1c-3.5-0.3-24.2-6-27.5-9.8c-3.3-3.8-5-5.7-5-5.7s2-16.8-14.1-14.9c5.8,8.1,1.4,11.7,1.4,11.7s-6.5-12.4-26.5-6.4
		c13.5,5.2,13.9,9,13.9,9s-11.1-5-22.5,5.5c15,0.2,17,6,17,6s-16.9-3.5-20.3,14.6c12.1-7.4,18.6-2.6,18.6-2.6s-18.6,5.8-13.5,22.2
		c7.3-7.2,16.5-9,16.5-9l0.2,0.8c0,0,4.4,1.9,8.4,1.9c4,0,5-0.6,4.4-2.8c-0.5-2.2,0.3-4.7,0.4-5.6c0.1-0.8,1.5-1.1,1.5-1.1
		s0.9-0.2,1.2,1.1c0.7,2.9-1.5,5.3,1.3,8.6c2.8,3.3,7.2,2.6,8.6,3.1c1.4,0.5,9,2,9,2s21.6,3.8,28.4,0.9c4.8-2,18.9-11.2,22.8-17.5
		c1.9-3.1,2.7-7,3.1-11.3c1.7-16.6,5.9-36.5,17.9-45.9c0.9-0.8,2.9-1.3,3.9-1.9c1.2-0.7,2.2-1,2.6-2.1c0.3-2.6-4.2-36.5-4.9-45.9
		c-1.2-17-13.9-30.1-13.9-30.1s0-1.1,1.4-1.4c1.4-0.3,3.6,0.2,3.6,0.2s8-0.3,13.9,30.9c5.9,31.2,6.5,56.3,12.7,68.1
		c1.9,3.6,10.6,17.7,17.7,31.4c5.8,11.4,7.5,19.4,9.9,24c5.2,10.4,0.2,23.1-1.9,24.5c-2.1,1.4-2.2,0.1-2.9-0.3
		c-0.7-0.5,0.2-5.4,0.2-5.4s2-2.4-0.8-6.7c-2.8-4.3-15.4-7.4-15.4-7.4s-1.9-1.4-3.1-2c1.3-12.6-19.8-13.8-19.8-13.8s6.1,8.6,5.2,17
		c-15.2-11.2-27.5,0-27.5,0s11.5,2,16.6,11.1c-20.1-5.2-22.3,9.7-22.3,9.7s8.2-3.7,16.9,3c-18.9,1.4-16,16.4-16,16.4
		s4.9-6.5,19.6-1.6c-0.3,0.4-12.1,9.2-4.7,23.5c1.7-3.7,6.1-9.7,11.4-11.9c0.5,0.7,0.6,0.6,0.8,0.8c0,0,11.7-5,17.6-5.2
		c6-0.2,10.8-0.5,18.6-1.3c7.7-0.8,12.2-4.4,15.8-6.5c3.6-2.1,17.8-20.3,21.4-23.5c3.6-3.2,4.5-8.5,4.5-8.5s2.4-7.6,3.8-25.1
		c1.4-17.5,2.4-41.6,2-57c-0.5-20.9-13-68-13-68s0-1.6,1.1-2c1.1-0.4,1.1,0,2.7,2.5c1.5,2.5,4.5,15.9,7,17.8c1,0.7,0.8,3.6,4.7,2.1
		c1.2-0.4,3-8.1,3.6-12.2C392.2,217.7,390.3,209.5,386.6,202.5 M63.5,65.6c0.5,0.2,1,0.4,1,0.4s-1,8.9,0.3,13
		c-5.5-2.1-10-3.7-10-3.7S60,67.1,63.5,65.6 M63.7,95.8c-0.2,0-0.9-0.1-1.8-0.2c-4.1-3.4-4.4-9.2-4.4-9.2s9,2.2,10.5,2.9
		C67.3,91.2,64.1,93.7,63.7,95.8 M74.8,97.6c-1.1-0.4-3.7-2.7-3.8-4.2c-0.1-2.1-0.6-3.4-0.6-3.4s13.2,3.6,17,10.2
		C82.1,99,75.9,98,74.8,97.6 M66.1,79.6c0,0,4.3-6.9,8.1-8.6c12.4,6.5,18.4,17.7,20.5,25.6C87.7,87.8,66.1,79.6,66.1,79.6"/>
	<path d="M66.5,195.2c16-4.7,32.5-22.5,44.1-34.1c6.6-6.6,11.3-10,12.6-11c1.9,1.6,10.4,15.5,14.4,29c3.2,10.4,2.9,21.2,2.7,24.3
		c-0.5,9.4-6.7,11.3-6.7,11.3s-37.8,12.4-44.3,12.3c-3-0.1-26.1,5.5-32.8,4.8c-17.6-1.7-21.9-10.1-21.9-10.1l-8.8-15.3
		c0,0-1.1-3.6,2.1-2.5c3.2,1.1,3.7,1.2,6.6,2c2.9,0.8,0.6-2.1,0.6-2.1s-2.9-1.6-5.4-2.7c-8.1-3.6-9-15.5-9-15.5s-0.4-9.8,0-17
		c0.4-7.2-16.3-6.7-16.3-6.7s6.4-13.2,26-5.5c0.2-7.1-17-12.4-17-12.4s10.6-11.2,30,4.4c1-11.4-8.8-20.4-8.8-20.4
		s15.5-2.8,21.9,18.9c6.6-5.3,2.6-19.9,2.6-19.9s15,8.4,10.3,23.6c7.8-1.4,10.8-11.6,10.8-11.6s6,10.6-3.7,21.1
		c-3.7,3.9-4.5,2.8-4.5,2.8s-15.6,20.4-5.6,46.3c1.3,3.3,3.4,0.8,3.7-0.7C70.4,207,69.5,201.5,66.5,195.2"/>
	<path d="M137.4,43.1c0,0,11.5,10.3,12.6,11.6c0.9,1.1,7.9-2.7,11.4-1.8c2.2,0.5-1.2-6.2-2.5-8.1c-1.4-1.9-6-6.8-11.5-5.9
		C142.6,39.7,137.4,43.1,137.4,43.1"/>
	<path class="st1" d="M88.1,97c-5.9-7.1-18.6-10.1-33.3-13.8C44.2,80.5,32.7,75.9,27,67.7c-3-4.3-4.4-9-4.6-13.2
		c-0.1-3.2,0.3-5.9,0.9-7.8c0.3,0.6,0.6,1.2,0.8,1.7c2.6,5.5,6.8,14.8,17.5,23.1c5.1,3.9,14.2,6.7,23.1,10c9.5,3.3,19.8,8.1,26,14.4
		c0,0,3.9,4.4,4.3,5.8c-0.9-0.2-2.3-0.5-4-0.8C90.3,99.5,88.1,97,88.1,97"/>
	<path class="st2" d="M88.1,97c-5.9-7.1-18.6-10.1-33.3-13.8C44.2,80.5,32.7,75.9,27,67.7c-3-4.3-4.4-9-4.6-13.2
		c-0.1-3.2,0.3-5.9,0.9-7.8c0.3,0.6,0.6,1.2,0.8,1.7c2.6,5.5,6.8,14.8,17.5,23.1c5.1,3.9,14.2,6.7,23.1,10c9.5,3.3,19.8,8.1,26,14.4
		c0,0,3.9,4.4,4.3,5.8c-0.9-0.2-2.3-0.5-4-0.8C90.3,99.5,88.1,97,88.1,97z"/>
	<path class="st3" d="M53.8,95.4c1.5,0,3.5-0.2,5,0c-2.2-1.5-3.1-7.5-3.1-7.5S53.6,91.2,53.8,95.4"/>
	<path class="st3" d="M65.7,96.2c1.5,0.1,2.6,0.4,5.1,0.8c-2.2-1.5-1.3-4.3-2.2-5.5C67.1,94.1,66.2,94.3,65.7,96.2"/>
	<path class="st3" d="M66.2,75.8c2.3-3.7,5.5-6,5.7-6c-1.1-0.5-5.6-2.8-5.6-2.8S66,75.5,66.2,75.8"/>
	<path class="st3" d="M54.2,72.5c0,0,4.9-6.8,7.1-7.8c-3.4-1-4.8-1.8-5.9-2.4C54.4,67.5,54.2,72.5,54.2,72.5"/>
	<path class="st3" d="M109.6,43c0,0,3.6,0.3,4.9,3.8c1.2,3.4,1.8,8.5-0.8,19c-0.2,1-2.1,0.8-2.2-0.4c0-1.2,1.2-6.4,1.5-9.4
		c0.3-3-0.1-6.7-1.1-7.6c-0.8-0.7-2.4-1.4-2.7-1.4c-0.3-0.1-2.1-0.4-1.8-2.2C107.9,43,109.6,43,109.6,43"/>
	<path class="st3" d="M110.4,53.2c1.8-0.5,1-2.4-1.2-3.2c-2.2-0.8-7.4,0.5-8.9,5.3c-1.5,4.4,5.6,8.1,7.1,8c2.5-0.1,3.2-3.5,1.7-4.1
		c-1.5-0.7-3.9-1-3.6-2.9C105.6,54.3,108.6,53.7,110.4,53.2"/>
	<path class="st1" d="M70.6,153.4c0,0,4.2,0.2,8.4-6.1c-0.3,5.6-4.8,10.4-4.8,10.4L70.6,153.4z"/>
	<path class="st1" d="M11.2,159.3c6.1-5,18.4,0,18.4,0l-6.3,5.4C23.3,164.7,20.8,159.2,11.2,159.3"/>
	<path class="st1" d="M21.1,143.6c8.8-2.8,21.2,8,21.2,8s-6.6,3.4-8.5,4.3C34,155.2,32.9,147.3,21.1,143.6"/>
	<path class="st1" d="M41.3,131.6c8.7,3,12.1,17.3,12.1,17.3l-6.9,1.4C46.4,150.2,48.4,141.1,41.3,131.6"/>
	<path class="st1" d="M59.2,148.8c3.2-3.4,5.4-8.7,4-14.9c2.3,2.1,5.1,10.7,2.6,17C64.9,150.4,63.6,149,59.2,148.8"/>
	<path class="st1" d="M120.3,268.4c-1.2-0.8-3.1-1.1-4.4-1.1c3.6-3.5,2.8-8.7,2.8-8.7S122.1,264.1,120.3,268.4"/>
	<path class="st1" d="M110.9,267.4c-3.4,0.3-5.8,1.1-6.5,1.4c-0.5-9.9-4-14.4-4-14.4S108.5,259.1,110.9,267.4"/>
	<path class="st1" d="M101.3,270.1c-1.8,1.2-1.4,0.8-4.2,2.8c-3.2-5.3-6.8-9.8-18.2-10C87.6,256.7,98.7,264.1,101.3,270.1"/>
	<path class="st1" d="M72.2,278.5c3.2-6,16.1-6.4,22.5-2.9c-1.9,2.3-2.4,3.3-3.1,5.8C85.8,277.7,75.3,278.1,72.2,278.5"/>
	<path class="st1" d="M77.2,289.7c4.3-5.8,13-5.8,13.2-5.5c-0.3,0.4-1.8,5.1-1.8,5.7C88.2,289.7,83.4,288.4,77.2,289.7"/>
	<path class="st1" d="M217.4,307.9c-2-0.4-4.6-0.9-6.4-1.2c0.7-0.7,2.8-6.3,0.3-10.4C213.1,296.7,217.3,298.2,217.4,307.9"/>
	<path class="st1" d="M199.1,308.6c2.5-1.5,4.1-1.7,6-1.6c-2.2-5.4-13-7.5-14.9-6.9C191.4,300.5,198.8,304.2,199.1,308.6"/>
	<path class="st1" d="M180.5,311.6c7.2-3.5,14-0.9,14.5-0.5c-0.8,0.8-2.9,3.1-3.8,5.2C189.6,312.6,180.5,311.6,180.5,311.6"/>
	<path class="st1" d="M173.7,329c0.6-1.4,7.4-8.2,15.1-6c-1.2,2.1-1.4,3.3-0.8,5.1C180.4,325.1,173.9,328.9,173.7,329"/>
	<path class="st1" d="M176.6,348.2c1.8-9.1,8.4-11.7,11.6-13.2c-0.1,1.4,0.4,5.4,1.2,6.5C188.6,341.4,180.4,343.6,176.6,348.2"/>
	<path class="st1" d="M317.1,355.5c-2.3,0.6-5.7,2-6.9,2.8c0.4-5.5-1.3-10.8-2.9-13.2C309.9,345.5,317.8,348.8,317.1,355.5"/>
	<path class="st1" d="M299.7,368.3c-0.7-2.4-7.4-9.9-13.4-11.1c4.6-2.5,12.7-2.2,20,3.9C303.4,363,300.3,367,299.7,368.3"/>
	<path class="st1" d="M278.5,375.1c3.8-6.9,15.7-4.1,19.1-2.8c-1.5,1.6-2.8,4.4-3.1,8.7C291.6,375.7,282.3,374.1,278.5,375.1"/>
	<path class="st1" d="M278,392.7c-0.2,0.6,1.7-8.6,16.1-7.9c-0.4,3.5-0.5,5,0.1,8.4C284.8,389.3,278,392.7,278,392.7"/>
	<path class="st1" d="M290.4,413c0,0-1.3-7.3,4.9-13c0.6,3.1,1.6,5,2.8,6.2C294.4,407.4,290.4,413,290.4,413"/>
	<path class="st4" d="M61.4,155.7c-3.1,2.9-6.3,2.3-9.1,5.5c-2,2.3-7.5,10.2-4.6,23.1c1.9,8.4,3.7,23.2,4.8,28
		c1.5,6.4-2.3,12.5-4.9,12.6"/>
	<path class="st5" d="M212.3,313.1c0.2,3.7,0.2,5.9,1.5,9.3c0.9,2.5,5.6,4.3,14.7,6.9c5.6,1.6,15.9,5.1,19.1,6.5
		c7.4,3.2,4.3,8.2,4.4,11"/>
	<path class="st1" d="M1.5,298.2c0,106.6,90.3,193.1,201.7,193.1c46.3,0,88.9-14.9,122.9-40L1.5,254.3V298.2z"/>
	<polygon class="st1" points="405,1.5 203.1,1.5 104.1,1.5 405,184.2 	"/>
	<g>
		<path class="st6" d="M203.1,1.5H405v296.7c0,106.6-90.3,193.1-201.7,193.1C91.9,491.3,1.5,404.9,1.5,298.2V1.5L203.1,1.5
			L203.1,1.5z"/>
	</g>
</g>
</svg>
