<?xml version="1.0" encoding="utf-8"?>
<!-- Generator: Adobe Illustrator 17.1.0, SVG Export Plug-In . SVG Version: 6.00 Build 0)  -->
<!DOCTYPE svg PUBLIC "-//W3C//DTD SVG 1.1//EN" "http://www.w3.org/Graphics/SVG/1.1/DTD/svg11.dtd">
<svg version="1.1" id="Слой_1" xmlns="http://www.w3.org/2000/svg" xmlns:xlink="http://www.w3.org/1999/xlink" x="0px" y="0px"
	 viewBox="387.6 1.3 454 594.3" enable-background="new 387.6 1.3 454 594.3" xml:space="preserve">
<path display="none" fill="#FFFFFF" stroke="#000002" stroke-width="3" stroke-miterlimit="10" d="M614.5,525.9
	c-0.1-22-16.1-23.4-16.1-23.4H497.2c-35.2,0-34.3-35.2-34.3-35.2V153.6h151.6H766v313.5c0,0,0.8,35.2-34.3,35.2h-101
	C630.7,502.3,614.5,503.8,614.5,525.9z"/>
<path fill="#FFFFFF" stroke="#000000" stroke-width="2" stroke-miterlimit="10" d="M615.2,538.3c0-31.4,36.7-35.4,36.7-35.4h86.6
	c0,0,28.8-5.1,28.8-38.9V153.6H615.2H462.9v310.3c0,33.8,28.8,38.9,28.8,38.9h86.6C578.4,502.9,615.2,506.9,615.2,538.3z"/>
<g id="Слой_2_1_">
	<path fill="#FFCE31" stroke="#000000" stroke-width="0.8" stroke-miterlimit="10" d="M640,2l-1.2,57l8,0.8l2.9-48.2l9.5-7.5
		c32.7,4.9,38.6,8.6,38.6,8.6l-10.2,54.1l5.7,1.4l8.8-41.7l13.6-9.9l37.7,16.7c0,0-19,40.5-21.2,52.1c0,0-10.8,36.9-10.8,48.9
		c0,0,2.3,12.8-106.1,12.8s-106.1-12.9-106.1-12.9c0-12-10.8-48.9-10.8-48.9c-2.1-11.6-21.2-52.1-21.2-52.1l37.7-16.6l13.6,9.9
		l8.8,41.7l5.7-1.4l-10.3-54.2c0,0,5.9-3.6,38.6-8.6l9.5,7.5l3,48.2l8-0.7l-1.4-57C614.6,1.3,640,2,640,2z"/>
	<polygon fill="#C49E33" points="514.8,17.1 527.3,70.7 537,68.6 528.1,26.9 	"/>
	<polygon fill="#C49E33" points="715.6,17.1 703,70.7 693.3,68.6 702.1,26.9 	"/>
	<polygon fill="#A36F2F" points="571,4.4 577.2,59.9 583.1,59.9 580.1,11.7 	"/>
	<line fill="none" stroke="#000000" stroke-width="0.8" stroke-miterlimit="10" x1="514.8" y1="16.7" x2="527.3" y2="70.7"/>
	<line fill="none" stroke="#000000" stroke-width="0.8" stroke-miterlimit="10" x1="571" y1="4.4" x2="577.2" y2="59.9"/>
	<line fill="none" stroke="#000000" stroke-width="0.8" stroke-miterlimit="10" x1="715.5" y1="16.7" x2="703" y2="70.7"/>
	<line fill="none" stroke="#000000" stroke-width="0.8" stroke-miterlimit="10" x1="659.1" y1="4" x2="652.8" y2="60.1"/>
	<line fill="none" stroke="#000000" stroke-width="0.8" stroke-miterlimit="10" x1="492.7" y1="26.6" x2="502.2" y2="50.7"/>
	<line fill="none" stroke="#000000" stroke-width="0.8" stroke-miterlimit="10" x1="502.4" y1="50.3" x2="487.9" y2="56.8"/>
	<line fill="none" stroke="#000000" stroke-width="0.8" stroke-miterlimit="10" x1="489.5" y1="60.8" x2="521.5" y2="47.1"/>
	<line fill="none" stroke="#000000" stroke-width="0.8" stroke-miterlimit="10" x1="505.5" y1="49.1" x2="520.7" y2="42.8"/>
	<line fill="none" stroke="#000000" stroke-width="0.8" stroke-miterlimit="10" x1="496.9" y1="24.5" x2="505.9" y2="49"/>
	<path fill="#E0AD2F" stroke="#000000" stroke-width="0.8" stroke-miterlimit="10" d="M549.5,7.8l4.8,27.1c0,0-6.4,1.5-16.4,4.2
		l0.8,3.9c0,0,8-3,36.2-7.6l-0.5-4.1c0,0-11.2,1.6-14.7,2.4l-4.9-27.1C553.8,6.8,552.1,7.3,549.5,7.8z"/>
	<path fill="#E0AD2F" stroke="#000000" stroke-width="0.8" stroke-miterlimit="10" d="M612.1,1.9l0.1,27.1c0,0-18.3,0.2-21.2,0.3
		l0.1,5.3c0,0,18.1-2,48.4,0l0.1-5.2c0,0-16.3-0.5-22.7-0.5v-27C616.7,1.9,612.1,1.9,612.1,1.9z"/>
	<line fill="none" stroke="#000000" stroke-width="0.8" stroke-miterlimit="10" x1="737.6" y1="26.8" x2="728.1" y2="50.7"/>
	<line fill="none" stroke="#000000" stroke-width="0.8" stroke-miterlimit="10" x1="727.8" y1="50.3" x2="742.3" y2="56.9"/>
	<line fill="none" stroke="#000000" stroke-width="0.8" stroke-miterlimit="10" x1="740.7" y1="60.8" x2="708.5" y2="47.1"/>
	<line fill="none" stroke="#000000" stroke-width="0.8" stroke-miterlimit="10" x1="724.7" y1="49.1" x2="709.4" y2="42.8"/>
	<line fill="none" stroke="#000000" stroke-width="0.8" stroke-miterlimit="10" x1="733.2" y1="24.6" x2="724.4" y2="49"/>
	<path fill="#E0AD2F" stroke="#000000" stroke-width="0.8" stroke-miterlimit="10" d="M680.7,8l-4.8,26.9c0,0,6.4,1.5,16.4,4.2
		l-0.8,3.9c0,0-8-3-36.2-7.6l0.5-4.1c0,0,11.2,1.6,14.7,2.4l4.9-26.9C675.7,7,678,7.5,680.7,8z"/>
	<path fill="#E0AD2F" stroke="#000000" stroke-width="0.8" stroke-miterlimit="10" d="M614.5,57.9c69,0,118.3,24.3,118.3,24.3
		l-1.1,4.1c0,0-46.7-23.2-117.3-23.2s-116,22.7-116,22.7l-1.1-4C497.4,81.8,545.7,57.9,614.5,57.9z"/>
	<line fill="none" stroke="#000000" stroke-width="0.8" stroke-miterlimit="10" x1="520.7" y1="42.8" x2="532.7" y2="47.1"/>
	<line fill="none" stroke="#000000" stroke-width="0.8" stroke-miterlimit="10" x1="521.7" y1="47.1" x2="533.3" y2="49.9"/>
	<line fill="none" stroke="#000000" stroke-width="0.8" stroke-miterlimit="10" x1="573.9" y1="31.5" x2="582.1" y2="37.5"/>
	<line fill="none" stroke="#000000" stroke-width="0.8" stroke-miterlimit="10" x1="574.5" y1="35.7" x2="582.4" y2="41.1"/>
	<line fill="none" stroke="#000000" stroke-width="0.8" stroke-miterlimit="10" x1="709.6" y1="42.7" x2="697.5" y2="47.1"/>
	<line fill="none" stroke="#000000" stroke-width="0.8" stroke-miterlimit="10" x1="708.5" y1="47.1" x2="696.9" y2="49.9"/>
	<line fill="none" stroke="#000000" stroke-width="0.8" stroke-miterlimit="10" x1="656.3" y1="31.5" x2="648.1" y2="37.5"/>
	<path fill="none" stroke="#000000" stroke-width="0.8" stroke-miterlimit="10" d="M647.7,41.1"/>
	<path fill="none" stroke="#000000" stroke-width="0.8" stroke-miterlimit="10" d="M655.8,35.7"/>
	<path fill="#D89F2E" stroke="#000000" stroke-width="0.8" stroke-miterlimit="10" d="M719,136c0,5-17.7,10.5-105.2,10.5
		c-86,0-105.2-5.4-105.2-10.5c0-5,30.3-19.2,106.1-19.2C690.9,116.8,719,130.9,719,136z"/>
	<path fill="#C1751B" stroke="#000000" stroke-width="0.8" stroke-miterlimit="10" d="M706.9,133.7c0,3.5-14.9,8-93.2,8
		c-73,0-91.6-4.3-91.6-8c0-3.6,21.2-11.5,91.6-11.5C688.2,122.3,706.9,130.2,706.9,133.7z"/>
	<line fill="none" stroke="#000000" stroke-width="0.8" stroke-miterlimit="10" x1="511.5" y1="80.3" x2="516.4" y2="97"/>
	<line fill="none" stroke="#000000" stroke-width="0.8" stroke-miterlimit="10" x1="515.1" y1="79" x2="519.2" y2="94.9"/>
	<line fill="none" stroke="#000000" stroke-width="0.8" stroke-miterlimit="10" x1="559" y1="67.7" x2="562" y2="86.2"/>
	<path fill="none" stroke="#000000" stroke-width="0.8" stroke-miterlimit="10" d="M565.7,85.7"/>
	<path fill="none" stroke="#000000" stroke-width="0.8" stroke-miterlimit="10" d="M563.6,67.1"/>
	<line fill="none" stroke="#000000" stroke-width="0.8" stroke-miterlimit="10" x1="611.9" y1="63.1" x2="611.9" y2="77"/>
	<line fill="none" stroke="#000000" stroke-width="0.8" stroke-miterlimit="10" x1="666.5" y1="67.4" x2="664" y2="82.2"/>
	<line fill="none" stroke="#000000" stroke-width="0.8" stroke-miterlimit="10" x1="671.3" y1="68" x2="668.3" y2="82.9"/>
	<line fill="none" stroke="#000000" stroke-width="0.8" stroke-miterlimit="10" x1="715.2" y1="79.9" x2="710.2" y2="94.6"/>
	<path fill="none" stroke="#000000" stroke-width="0.8" stroke-miterlimit="10" d="M712.8,94.9"/>
	<path fill="none" stroke="#000000" stroke-width="0.8" stroke-miterlimit="10" d="M718.3,80.9"/>
	<polygon fill="#C9992D" stroke="#000000" stroke-width="0.8" stroke-miterlimit="10" points="511.5,80.4 516.6,97.4 520.1,96.2 
		515.2,79.1 	"/>
	<polygon fill="#E0AD2F" stroke="#000000" stroke-width="0.8" stroke-miterlimit="10" points="492.7,26.6 502.4,50.7 487.9,56.8 
		489.5,60.8 521.7,47.1 520.7,42.8 505.9,49 496.9,24.5 	"/>
	<polygon fill="#8C6F26" stroke="#000000" stroke-width="0.8" stroke-miterlimit="10" points="521.9,47.2 533.4,50.3 532.7,46.9 
		521,42.6 	"/>
	<polygon fill="#E0AD2F" stroke="#000000" stroke-width="0.8" stroke-miterlimit="10" points="737.7,26.6 728,50.7 742.5,56.8 
		740.9,60.8 708.5,47.1 709.6,42.8 724.4,49 733.4,24.5 	"/>
	<polygon fill="#8C6F26" stroke="#000000" stroke-width="0.8" stroke-miterlimit="10" points="708.3,47.2 696.9,50.3 697.6,46.8 
		709.4,42.5 	"/>
	<polygon fill="#6D4521" stroke="#000000" stroke-width="0.8" stroke-miterlimit="10" points="574.2,31.5 574.7,35.7 582.4,41.3 
		582.1,37.5 	"/>
	<polygon fill="#C9992D" stroke="#000000" stroke-width="0.8" stroke-miterlimit="10" points="656.1,31.3 655.7,35.5 648,41.1 
		648.2,37.3 	"/>
	<polygon fill="#C9992D" stroke="#000000" stroke-width="0.8" stroke-miterlimit="10" points="559,67.9 562.1,84.8 565.4,80.8 
		563.5,67.1 	"/>
	<polygon fill="#C9992D" stroke="#000000" stroke-width="0.8" stroke-miterlimit="10" points="611.6,63.1 611.6,75.5 616.8,75.8 
		616.8,63.2 	"/>
	<polygon fill="#C9992D" stroke="#000000" stroke-width="0.8" stroke-miterlimit="10" points="666.1,67.3 663.5,81.3 668.3,82.2 
		671.3,68.2 	"/>
	<polygon fill="#C9992D" stroke="#000000" stroke-width="0.8" stroke-miterlimit="10" points="714.4,94.5 719.5,81.2 715.2,79.7 
		710,93.1 	"/>
	<g id="Слой_3">
		<path fill="#FFCE31" stroke="#000000" stroke-width="0.8" stroke-miterlimit="10" d="M496.4,120.9c0,0-4.3-1.8-4.6-10.5
			c0,0,8-10,6.9-13.2C498.6,97,515.6,116.4,496.4,120.9z"/>
		<path fill="#FFCE31" stroke="#000000" stroke-width="0.8" stroke-miterlimit="10" d="M515.3,109.7c12.2-10,6-20.8,6-20.8
			s-6,6.5-11.2,7.3c0,0-7.6,1.9-8.1,9.3"/>
		<path fill="#FFCE31" stroke="#000000" stroke-width="0.8" stroke-miterlimit="10" d="M518.4,109.7c0,0,8.3-5.7,14.3,0
			c0,0,3.6,2.7,14.3,2.2c0,0-4.1,13.4-16.1,13.4c0,0-5.4,2.6-14.4,0"/>
		<path fill="#FFCE31" stroke="#000000" stroke-width="0.8" stroke-miterlimit="10" d="M519.2,116.8c0,0-0.5,6.4-5.7,9.6
			c0,0-5.7,4.3-4.9,8.5c0,0-1.5,2.6-5.4,0c0,0-3.8-3.9-3-8.5c0,0-6-2.8-3.6-5.7c0,0,2.6-2.8,8.6-2.1
			C505,118.8,514.8,119.2,519.2,116.8z"/>
		<path fill="#FFCE31" stroke="#000000" stroke-width="0.8" stroke-miterlimit="10" d="M575.9,96.2c0,0,17.7-10.4,24.3-9.9
			c0,0-5.2-5.9-8.6-6.4L575.9,96.2z"/>
		<path fill="#FFCE31" stroke="#000000" stroke-width="0.8" stroke-miterlimit="10" d="M530.4,92.7c0,0,2.6-8.8,10.5-8.6
			c0,0,10.1-1.3,13.4-6c0,0,2.8,14-9.6,21.1c0,0-2.6,2.2-5.4,5.2"/>
		<path fill="#FFCE31" stroke="#000000" stroke-width="0.8" stroke-miterlimit="10" d="M548.5,102.5c0,0,6.7-4.3,18.4,1.8
			c0,0,6.2,6,17.4,5.4c0,0-5.2,8.7-11.6,9.7c0,0-23.6,4.3-27.1-4"/>
		<path fill="#FFCE31" stroke="#000000" stroke-width="0.8" stroke-miterlimit="10" d="M562.6,84c0,0,3.6-7.3,14.7-7.5
			c0,0,8.3,1.5,14.4-3c0,0,0.2,13.7-7.8,17.7c0,0-13.7,7.6-18.9,12.3"/>
		<path fill="#FFCE31" stroke="#000000" stroke-width="0.8" stroke-miterlimit="10" d="M582,98.4c8.6-2.8,13.7-2.8,13.7-2.8
			c6.2,4.6,20.5,1.3,20.5,1.3c17.9-4.3,23.8-21.2,23.8-21.2c-3.6,2.3-27,0-27,0c-8-0.2-14.3,7.5-14.3,7.5"/>
		<path fill="#FFCE31" stroke="#000000" stroke-width="0.8" stroke-miterlimit="10" d="M584.3,98.4c8-3.4,19.5,0.8,19.5,0.8
			c11.1,6,20.7,9.2,20.7,9.2s-7.2,9.2-16.1,9.2c0,0-20.5,1.8-27.3-3.7"/>
		<path fill="#FFCE31" stroke="#000000" stroke-width="0.8" stroke-miterlimit="10" d="M635,90.6c0,0,14.1-14.1,35.2-8
			c0,0,6.4,2.7,14.1,0.9c0,0-1.1,16.9-20.9,19.2"/>
		<path fill="#FFCE31" stroke="#000000" stroke-width="0.8" stroke-miterlimit="10" d="M663.5,103c0,0,20.7-4.2,29.1,5.9
			c0,0,8.9,8,15.6,9.2c0,0-1.5,8-15.6,5.9c0,0-28.7-4.6-29.9-10.4"/>
		<path fill="#FFCE31" stroke="#000000" stroke-width="0.8" stroke-miterlimit="10" d="M627.5,95.2c0,0,14.9-3.8,25.7,8.3
			c0,0,8.6,7.8,12,7.3c0,0-8.3,8.5-17.3,7.3c0,0-21.7,2.4-26.5-6.4"/>
		<path fill="#FFCE31" stroke="#000000" stroke-width="0.8" stroke-miterlimit="10" d="M692.4,108.9c6.8,5.3,14.7-1.3,14.7-1.3
			c0.2-0.3,15.6-11.4,15.6-11.4c-4.3,0.2-16.7-4.3-16.7-4.3c-9.1-4-28.9,5.4-28.9,5.4"/>
		<path fill="#FFCE31" stroke="#000000" stroke-width="0.8" stroke-miterlimit="10" d="M705.2,112.4c0,0,6.7-5,17.6,5.9
			c0,0,3,9.2,5.7,9.8c0,0-3,5.7-9.9,4.6c0,0-15.7-5.8-19.9-8.6c0,0,8-0.6,9.5-6.2c0,0-4.3-1.3-6.4-2.4L705.2,112.4z"/>
		<path fill="#FFCE31" stroke="#000000" stroke-width="0.8" stroke-miterlimit="10" d="M721.7,97.4c0,0,4.4,7.8,8.3,7.6
			c0,0,3.2,5.3-8.7,11.9c0,0-8.6-6.7-15.6-4.9l-0.8-2.3"/>
		<path fill="#FFCE31" stroke="#000000" stroke-width="0.8" stroke-miterlimit="10" d="M494.7,110.7c0.7,2.6-0.6,4.6-2.3,4.6"/>
		<path fill="#FFCE31" stroke="#000000" stroke-width="0.8" stroke-miterlimit="10" d="M500,126.5c2.7-2.4,8-1.4,12.4-3.7"/>
		<path fill="#FFCE31" stroke="#000000" stroke-width="0.8" stroke-miterlimit="10" d="M510.3,129.6c-0.2-1.5-2.8-2.1-2.8-2.1
			s3.5-0.5,4.2,0.6L510.3,129.6z"/>
		<path fill="#FFCE31" stroke="#000000" stroke-width="0.8" stroke-miterlimit="10" d="M509.2,131.4c-0.5-1.2-5-1.6-5-1.6
			s3.7,2.7,4.3,3.7L509.2,131.4z"/>
		<path fill="#FFCE31" stroke="#000000" stroke-width="0.8" stroke-miterlimit="10" d="M502,118.3c0,0,3-7.5,7.6-6.1
			c0,0,5.6,0.8,3.2,6.1C512.9,118.3,504.6,119.5,502,118.3z"/>
		<path fill="#FFCE31" stroke="#000000" stroke-width="0.8" stroke-miterlimit="10" d="M535.4,117.2c-10.2-2.3-16.1-2.7-17.8,0.5"/>
		<path fill="#FFCE31" stroke="#000000" stroke-width="0.8" stroke-miterlimit="10" d="M521.6,115.4c0,0,6.7,6.7,10.8,5.6
			c0,0-5.7-1.8-5.4-5.3C527.2,115.6,523,115.1,521.6,115.4z"/>
		<path fill="#FFCE31" stroke="#000000" stroke-width="0.8" stroke-miterlimit="10" d="M518.5,116.4c0,0,2.8,7.2,7.5,6.4
			c0,0-7.6-1.5-7.5-2.3C518.6,119.6,518.7,117.1,518.5,116.4z"/>
		<path fill="#FFCE31" stroke="#000000" stroke-width="0.8" stroke-miterlimit="10" d="M529.9,116.4c0,0,3,3.8,6.6,3.1
			c0,0-2.8-1.4-3.2-2.8L529.9,116.4z"/>
		<line fill="none" stroke="#000000" stroke-width="0.8" stroke-miterlimit="10" x1="520.9" y1="113.5" x2="523.8" y2="110.7"/>
		<line fill="none" stroke="#000000" stroke-width="0.8" stroke-miterlimit="10" x1="528.4" y1="113" x2="531.4" y2="111.1"/>
		<line fill="none" stroke="#000000" stroke-width="0.8" stroke-miterlimit="10" x1="534.9" y1="114" x2="538" y2="113"/>
		<line fill="none" stroke="#000000" stroke-width="0.8" stroke-miterlimit="10" x1="537.3" y1="116.4" x2="541.3" y2="115.8"/>
		<path fill="#FFCE31" stroke="#000000" stroke-width="0.8" stroke-miterlimit="10" d="M507.5,109.7c0-8.2,6-3.6,12.3-14.7"/>
		<path fill="#FFCE31" stroke="#000000" stroke-width="0.8" stroke-miterlimit="10" d="M507.5,108.6c0,0,3-1.7,5.7-1.4
			c0,0-3.1-1.3-5-0.9L507.5,108.6z"/>
		<path fill="#FFCE31" stroke="#000000" stroke-width="0.8" stroke-miterlimit="10" d="M511.5,103.2c0,0,4.3-1,6.4-0.9
			c0,0-0.2-1-3-1.3L511.5,103.2z"/>
		<line fill="none" stroke="#000000" stroke-width="0.8" stroke-miterlimit="10" x1="510.3" y1="98.7" x2="509" y2="101"/>
		<line fill="none" stroke="#000000" stroke-width="0.8" stroke-miterlimit="10" x1="515.7" y1="96.4" x2="514.8" y2="98.4"/>
		<path fill="#FFCE31" stroke="#000000" stroke-width="0.8" stroke-miterlimit="10" d="M529.9,103.5c6.6-10.2,14.6-5.7,22.2-20.5"/>
		<path fill="#FFCE31" stroke="#000000" stroke-width="0.8" stroke-miterlimit="10" d="M533.6,99.2c0,0,4-0.8,5.8,0.6
			c0,0-6.4,1.3-8.9,2.9L533.6,99.2z"/>
		<path fill="#FFCE31" stroke="#000000" stroke-width="0.8" stroke-miterlimit="10" d="M539.3,95.6c0,0,5.2-0.5,6.6,0
			c0,0-2.8-2-3.2-1.8L539.3,95.6z"/>
		<line fill="none" stroke="#000000" stroke-width="0.8" stroke-miterlimit="10" x1="539" y1="91.2" x2="540.6" y2="86.8"/>
		<line fill="none" stroke="#000000" stroke-width="0.8" stroke-miterlimit="10" x1="545" y1="88.4" x2="547" y2="84.8"/>
		<line fill="none" stroke="#000000" stroke-width="0.8" stroke-miterlimit="10" x1="547.7" y1="90.4" x2="550.1" y2="89.8"/>
		<path fill="#FFCE31" stroke="#000000" stroke-width="0.8" stroke-miterlimit="10" d="M524.7,102.7c0,0,7.6-2.8,9.2-8.9
			c0,0-0.7,2.6-6.2,1c0,0-3.1-1.3-4.8,0C522.8,94.9,521.6,101.6,524.7,102.7z"/>
		<path fill="#FFCE31" stroke="#000000" stroke-width="0.8" stroke-miterlimit="10" d="M553.5,101.1c6.7-12,27.6-9.8,35.9-22.8"/>
		<line fill="none" stroke="#000000" stroke-width="0.8" stroke-miterlimit="10" x1="569.1" y1="82.5" x2="566.2" y2="88"/>
		<line fill="none" stroke="#000000" stroke-width="0.8" stroke-miterlimit="10" x1="576.9" y1="80.7" x2="575" y2="84.8"/>
		<line fill="none" stroke="#000000" stroke-width="0.8" stroke-miterlimit="10" x1="582.7" y1="79.2" x2="581.3" y2="82.5"/>
		<path fill="#FFCE31" stroke="#000000" stroke-width="0.8" stroke-miterlimit="10" d="M559.2,95.1c0,0,0.8,2.4,7.6,1.2
			c0,0-6.2,1.9-10.2,0.8L559.2,95.1z"/>
		<path fill="#FFCE31" stroke="#000000" stroke-width="0.8" stroke-miterlimit="10" d="M564,92.7c0,0,4.8,1.6,8.8,0.6
			c0,0-5.4-2-3.6-2.7L564,92.7z"/>
		<path fill="#FFCE31" stroke="#000000" stroke-width="0.8" stroke-miterlimit="10" d="M573.9,88.7c0,0,4.2,0.6,6.1,0
			c0,0-1.7-0.5-1.8-1.8L573.9,88.7z"/>
		<circle fill="#FFCE31" stroke="#000000" stroke-width="0.8" stroke-miterlimit="10" cx="726.1" cy="117.8" r="4"/>
		<path fill="#FFCE31" stroke="#000000" stroke-width="0.8" stroke-miterlimit="10" d="M584.3,83.4c0,0,2.1-0.1,3-0.5
			c0,0,0.2,0-1.2-1.1L584.3,83.4z"/>
		<path fill="#FFCE31" stroke="#000000" stroke-width="0.8" stroke-miterlimit="10" d="M595.4,95.1c9.7-12.2,27.4-3.8,41.7-17.7"/>
		<line fill="none" stroke="#000000" stroke-width="0.8" stroke-miterlimit="10" x1="605.7" y1="79.9" x2="603.3" y2="84.8"/>
		<line fill="none" stroke="#000000" stroke-width="0.8" stroke-miterlimit="10" x1="613.8" y1="78.1" x2="611.2" y2="82.5"/>
		<line fill="none" stroke="#000000" stroke-width="0.8" stroke-miterlimit="10" x1="622.1" y1="78.1" x2="618.9" y2="82.4"/>
		<line fill="none" stroke="#000000" stroke-width="0.8" stroke-miterlimit="10" x1="627.4" y1="79.2" x2="625.9" y2="81.9"/>
		<path fill="#FFCE31" stroke="#000000" stroke-width="0.8" stroke-miterlimit="10" d="M596.6,93.6c0,0,9,0.9,10,2.7
			c0,0,0.5-1.9-5.7-2.7c0,0-2.2-2.1-0.7-2.8L596.6,93.6z"/>
		<path fill="#FFCE31" stroke="#000000" stroke-width="0.8" stroke-miterlimit="10" d="M605.3,88.7c0,0,8.2,1.5,10.8,3
			c0,0-5.8-3-5.4-4.3L605.3,88.7z"/>
		<path fill="#FFCE31" stroke="#000000" stroke-width="0.8" stroke-miterlimit="10" d="M615.6,86.7c0,0,6.2,0.2,8.9,1.4
			c0,0-4.6-2.1-3-2.4L615.6,86.7z"/>
		<path fill="#FFCE31" stroke="#000000" stroke-width="0.8" stroke-miterlimit="10" d="M628.7,83.1c0,0,4.5,0,4.6,0.3
			c0,0-0.6-1.8-1.6-2L628.7,83.1z"/>
		<path fill="#FFCE31" stroke="#000000" stroke-width="0.8" stroke-miterlimit="10" d="M646,93.6c7.4-3.8,26.5,2.7,34.7-6"/>
		<line fill="none" stroke="#000000" stroke-width="0.8" stroke-miterlimit="10" x1="648.5" y1="89.5" x2="652.5" y2="85.4"/>
		<line fill="none" stroke="#000000" stroke-width="0.8" stroke-miterlimit="10" x1="656.3" y1="89.5" x2="662.5" y2="83.4"/>
		<line fill="none" stroke="#000000" stroke-width="0.8" stroke-miterlimit="10" x1="665.2" y1="89" x2="669.1" y2="85.4"/>
		<path fill="#FFCE31" stroke="#000000" stroke-width="0.8" stroke-miterlimit="10" d="M646.6,93.6c0,0,6.4,5,9.6,5.8
			c0,0-7.4-5.6-6.4-6.9L646.6,93.6z"/>
		<path fill="#FFCE31" stroke="#000000" stroke-width="0.8" stroke-miterlimit="10" d="M656.8,92.2c0,0,3.5,4.8,10.7,4.3
			c0,0-6-2.1-5.8-4L656.8,92.2z"/>
		<path fill="#FFCE31" stroke="#000000" stroke-width="0.8" stroke-miterlimit="10" d="M671.1,92c0,0,4.5,0.3,5.7,0.8l-1.2-1.8
			L671.1,92z"/>
		<path fill="#FFCE31" stroke="#000000" stroke-width="0.8" stroke-miterlimit="10" d="M684.9,103.8c8.3-4.6,26.4-1.1,38-7.6"/>
		<line fill="none" stroke="#000000" stroke-width="0.8" stroke-miterlimit="10" x1="693.9" y1="96.6" x2="699.1" y2="93.8"/>
		<line fill="none" stroke="#000000" stroke-width="0.8" stroke-miterlimit="10" x1="697.6" y1="97.4" x2="699.1" y2="93.8"/>
		<line fill="none" stroke="#000000" stroke-width="0.8" stroke-miterlimit="10" x1="700.7" y1="97.2" x2="704.8" y2="94.6"/>
		<line fill="none" stroke="#000000" stroke-width="0.8" stroke-miterlimit="10" x1="703.4" y1="98" x2="704.8" y2="94.6"/>
		<line fill="none" stroke="#000000" stroke-width="0.8" stroke-miterlimit="10" x1="708.3" y1="97.2" x2="711" y2="96.4"/>
		<path fill="#FFCE31" stroke="#000000" stroke-width="0.8" stroke-miterlimit="10" d="M720.2,120.5c0,0,4,2.1,6,4.9l-1.9-3.7
			L720.2,120.5z"/>
		<path fill="#FFCE31" stroke="#000000" stroke-width="0.8" stroke-miterlimit="10" d="M714.5,116.8c0,0,3.6,0.2,4.1,1.4
			c0,0-1.7-2.4-3.5-2.9L714.5,116.8z"/>
		<path fill="#FFCE31" stroke="#000000" stroke-width="0.8" stroke-miterlimit="10" d="M667.4,114.1c0,0,0.5,2.7-0.3,3
			c0,0,4,1.6,4.5,1.8C671.7,118.9,669.5,115,667.4,114.1z"/>
		<line fill="none" stroke="#000000" stroke-width="0.8" stroke-miterlimit="10" x1="677.6" y1="107" x2="682" y2="106.4"/>
		<line fill="none" stroke="#000000" stroke-width="0.8" stroke-miterlimit="10" x1="680.7" y1="108.3" x2="685.2" y2="107.6"/>
		<line fill="none" stroke="#000000" stroke-width="0.8" stroke-miterlimit="10" x1="687.3" y1="111.6" x2="690.3" y2="110.3"/>
		<line fill="none" stroke="#000000" stroke-width="0.8" stroke-miterlimit="10" x1="690.3" y1="113.6" x2="692.3" y2="112.4"/>
		<path fill="#FFCE31" stroke="#000000" stroke-width="0.8" stroke-miterlimit="10" d="M621.3,100.4c14-3,18.2,13.7,39.1,11.2"/>
		<line fill="none" stroke="#000000" stroke-width="0.8" stroke-miterlimit="10" x1="633" y1="99.3" x2="640.2" y2="98.8"/>
		<line fill="none" stroke="#000000" stroke-width="0.8" stroke-miterlimit="10" x1="640.4" y1="102.4" x2="647.6" y2="101.7"/>
		<line fill="none" stroke="#000000" stroke-width="0.8" stroke-miterlimit="10" x1="647.6" y1="108.2" x2="652.8" y2="106.4"/>
		<line fill="none" stroke="#000000" stroke-width="0.8" stroke-miterlimit="10" x1="623.5" y1="100.1" x2="631" y2="112.8"/>
		<line fill="none" stroke="#000000" stroke-width="0.8" stroke-miterlimit="10" x1="631.7" y1="102.4" x2="640.9" y2="118"/>
		<line fill="none" stroke="#000000" stroke-width="0.8" stroke-miterlimit="10" x1="641.1" y1="107.6" x2="646" y2="114.8"/>
		<line fill="none" stroke="#000000" stroke-width="0.8" stroke-miterlimit="10" x1="648.5" y1="110.8" x2="651.4" y2="114.8"/>
		<path fill="#FFCE31" stroke="#000000" stroke-width="0.8" stroke-miterlimit="10" d="M584.7,103.5c10.5-1.1,13.1,9.2,33.3,6.1"/>
		<line fill="none" stroke="#000000" stroke-width="0.8" stroke-miterlimit="10" x1="598.5" y1="108.2" x2="608.4" y2="117.7"/>
		<line fill="none" stroke="#000000" stroke-width="0.8" stroke-miterlimit="10" x1="587.4" y1="103.5" x2="598.5" y2="116.5"/>
		<path fill="#FFCE31" stroke="#000000" stroke-width="0.8" stroke-miterlimit="10" d="M575.9,103.4c8.8,0.1,6.8,8.5,16.1,14.1"/>
		<line fill="none" stroke="#000000" stroke-width="0.8" stroke-miterlimit="10" x1="592" y1="101.6" x2="596.6" y2="100.1"/>
		<line fill="none" stroke="#000000" stroke-width="0.8" stroke-miterlimit="10" x1="601.4" y1="104" x2="605.7" y2="102.4"/>
		<line fill="none" stroke="#000000" stroke-width="0.8" stroke-miterlimit="10" x1="609.7" y1="107.6" x2="612.5" y2="106.9"/>
		<line fill="none" stroke="#000000" stroke-width="0.8" stroke-miterlimit="10" x1="607.8" y1="110.6" x2="611.1" y2="112.7"/>
		<path fill="#FFCE31" stroke="#000000" stroke-width="0.8" stroke-miterlimit="10" d="M545.6,111.9c10.1-9.8,12.6,2.7,32,1"/>
		<line fill="none" stroke="#000000" stroke-width="0.8" stroke-miterlimit="10" x1="559.2" y1="110.3" x2="567.8" y2="119.6"/>
		<line fill="none" stroke="#000000" stroke-width="0.8" stroke-miterlimit="10" x1="551.4" y1="108.2" x2="561.7" y2="119.6"/>
		<line fill="none" stroke="#000000" stroke-width="0.8" stroke-miterlimit="10" x1="547.7" y1="110.7" x2="556.6" y2="120.4"/>
		<line fill="none" stroke="#000000" stroke-width="0.8" stroke-miterlimit="10" x1="566.2" y1="112.2" x2="571.9" y2="115.6"/>
		<line fill="none" stroke="#000000" stroke-width="0.8" stroke-miterlimit="10" x1="555.5" y1="105.6" x2="558.3" y2="104.3"/>
		<line fill="none" stroke="#000000" stroke-width="0.8" stroke-miterlimit="10" x1="562.6" y1="108.2" x2="566.2" y2="106.9"/>
		<line fill="none" stroke="#000000" stroke-width="0.8" stroke-miterlimit="10" x1="569.9" y1="110.6" x2="571.9" y2="109.7"/>
		<circle fill="#FFCE31" stroke="#000000" stroke-width="0.8" stroke-miterlimit="10" cx="501" cy="105.5" r="4.1"/>
		<circle fill="#FFCE31" stroke="#000000" stroke-width="0.8" stroke-miterlimit="10" cx="526.1" cy="96.9" r="4.8"/>
		<circle fill="#FFCE31" stroke="#000000" stroke-width="0.8" stroke-miterlimit="10" cx="538.9" cy="107.5" r="4.3"/>
		<circle fill="#FFCE31" stroke="#000000" stroke-width="0.8" stroke-miterlimit="10" cx="558.1" cy="87.1" r="4.4"/>
		<circle fill="#FFCE31" stroke="#000000" stroke-width="0.8" stroke-miterlimit="10" cx="570.7" cy="102.4" r="4.5"/>
		<circle fill="#FFCE31" stroke="#000000" stroke-width="0.8" stroke-miterlimit="10" cx="508.9" cy="116.7" r="4.3"/>
		<circle fill="#FFCE31" stroke="#000000" stroke-width="0.8" stroke-miterlimit="10" cx="595.2" cy="82.8" r="4.5"/>
		<circle fill="#FFCE31" stroke="#000000" stroke-width="0.8" stroke-miterlimit="10" cx="613.2" cy="99.9" r="4.6"/>
		<circle fill="#FFCE31" stroke="#000000" stroke-width="0.8" stroke-miterlimit="10" cx="640.2" cy="84.7" r="4.4"/>
		<circle fill="#FFCE31" stroke="#000000" stroke-width="0.8" stroke-miterlimit="10" cx="658.8" cy="103" r="4.5"/>
		<circle fill="#FFCE31" stroke="#000000" stroke-width="0.8" stroke-miterlimit="10" cx="686.5" cy="92.8" r="4.3"/>
		<circle fill="#FFCE31" stroke="#000000" stroke-width="0.8" stroke-miterlimit="10" cx="701.1" cy="111.1" r="4.1"/>
		<path fill="#FFCE31" stroke="#000000" stroke-width="0.8" stroke-miterlimit="10" d="M500,108.1c1.4,0.5,3-0.2,3.9-1.4"/>
		<path fill="#FFCE31" stroke="#000000" stroke-width="0.8" stroke-miterlimit="10" d="M507.7,119.6c1.4,0.5,3-0.2,3.9-1.4"/>
		<path fill="#FFCE31" stroke="#000000" stroke-width="0.8" stroke-miterlimit="10" d="M525.2,99.6c1.4,0.5,3-0.2,3.9-1.4"/>
		<path fill="#FFCE31" stroke="#000000" stroke-width="0.8" stroke-miterlimit="10" d="M537.8,110.3c1.4,0.5,3-0.2,3.9-1.4"/>
		<path fill="#FFCE31" stroke="#000000" stroke-width="0.8" stroke-miterlimit="10" d="M557,90.1c1.4,0.5,3-0.2,3.9-1.4"/>
		<path fill="#FFCE31" stroke="#000000" stroke-width="0.8" stroke-miterlimit="10" d="M569.8,105.4c1.4,0.5,3-0.2,3.9-1.4"/>
		<path fill="#FFCE31" stroke="#000000" stroke-width="0.8" stroke-miterlimit="10" d="M639.1,87.5c1.4,0.5,3-0.2,3.9-1.4"/>
		<path fill="#FFCE31" stroke="#000000" stroke-width="0.8" stroke-miterlimit="10" d="M657.4,105.5c1.4,0.5,3-0.2,3.9-1.4"/>
		<path fill="#FFCE31" stroke="#000000" stroke-width="0.8" stroke-miterlimit="10" d="M685.2,95.5c1.4,0.5,3-0.2,3.9-1.4"/>
		<path fill="#FFCE31" stroke="#000000" stroke-width="0.8" stroke-miterlimit="10" d="M699.5,113.6c1.4,0.5,3-0.2,3.9-1.4"/>
		<path fill="#FFCE31" stroke="#000000" stroke-width="0.8" stroke-miterlimit="10" d="M724.9,120.3c1.4,0.5,3-0.2,3.9-1.4"/>
		<path fill="#FFCE31" stroke="#000000" stroke-width="0.8" stroke-miterlimit="10" d="M594.1,86.2c1.4,0.5,3-0.2,3.9-1.4"/>
		<path fill="#FFCE31" stroke="#000000" stroke-width="0.8" stroke-miterlimit="10" d="M612.2,103c1.4,0.5,3-0.2,3.9-1.4"/>
		<path fill="#FFCE31" stroke="#000000" stroke-width="0.8" stroke-miterlimit="10" d="M711,111.3c5.7-3.1,12-0.5,19-6.4"/>
		<path fill="#FFCE31" stroke="#000000" stroke-width="0.8" stroke-miterlimit="10" d="M726.1,103.3c0,0-1.6,2.2-2.7,2.3
			c0,0,3.1,0,4-1.6L726.1,103.3z"/>
		<path fill="#FFCE31" stroke="#000000" stroke-width="0.8" stroke-miterlimit="10" d="M712.7,107.6c0,0,7.3-1.9,8.5-3.4
			c0,0-2.1,0.5-2.9,0C718.2,104,713.4,107.8,712.7,107.6z"/>
		<line fill="none" stroke="#000000" stroke-width="0.8" stroke-miterlimit="10" x1="714.5" y1="110" x2="724.4" y2="114.3"/>
		<line fill="none" stroke="#000000" stroke-width="0.8" stroke-miterlimit="10" x1="723.3" y1="108.5" x2="726.5" y2="109.2"/>
		<path fill="#FFCE31" stroke="#000000" stroke-width="0.8" stroke-miterlimit="10" d="M701.7,115.4c14.8-2.1,11.9,12.5,26.8,12.5"
			/>
		<path fill="#FFCE31" stroke="#000000" stroke-width="0.8" stroke-miterlimit="10" d="M712.7,118.3c0,8,0.6,10,5.7,14"/>
		<path fill="#FFCE31" stroke="#000000" stroke-width="0.8" stroke-miterlimit="10" d="M717.8,123.7c0,4.8,0.9,5.7,5,8.6"/>
		<path fill="#FFCE31" stroke="#000000" stroke-width="0.8" stroke-miterlimit="10" d="M722.5,127c0.2,2.4,0.6,3,2.9,4.1"/>
		<path fill="#FFCE31" stroke="#000000" stroke-width="0.8" stroke-miterlimit="10" d="M666.3,105.9c11.2,1,26.1,19,41.4,13"/>
		<line fill="none" stroke="#000000" stroke-width="0.8" stroke-miterlimit="10" x1="668.8" y1="106.4" x2="673.8" y2="118.3"/>
		<line fill="none" stroke="#000000" stroke-width="0.8" stroke-miterlimit="10" x1="672.6" y1="107.9" x2="677.6" y2="120.2"/>
		<line fill="none" stroke="#000000" stroke-width="0.8" stroke-miterlimit="10" x1="675.1" y1="109.2" x2="678.8" y2="116.8"/>
		<line fill="none" stroke="#000000" stroke-width="0.8" stroke-miterlimit="10" x1="680" y1="111.9" x2="684.9" y2="122.4"/>
		<line fill="none" stroke="#000000" stroke-width="0.8" stroke-miterlimit="10" x1="684.9" y1="114.7" x2="689.3" y2="123.1"/>
		<line fill="none" stroke="#000000" stroke-width="0.8" stroke-miterlimit="10" x1="689.4" y1="117.2" x2="693.2" y2="123.7"/>
		<line fill="none" stroke="#000000" stroke-width="0.8" stroke-miterlimit="10" x1="690.7" y1="102.1" x2="698.3" y2="107.1"/>
		<line fill="none" stroke="#000000" stroke-width="0.8" stroke-miterlimit="10" x1="696.9" y1="101.1" x2="705.2" y2="103.3"/>
		<line fill="none" stroke="#000000" stroke-width="0.8" stroke-miterlimit="10" x1="703.3" y1="100.6" x2="705.2" y2="103.3"/>
		<line fill="none" stroke="#000000" stroke-width="0.8" stroke-miterlimit="10" x1="706.9" y1="100.4" x2="714.5" y2="100.9"/>
		<path fill="#FFCE31" stroke="#000000" stroke-width="0.8" stroke-miterlimit="10" d="M708.6,115.9c-1.4,8.3-0.6,9.5,1.3,13.4"/>
	</g>
</g>
<g id="Слой_4_1_">
	<path fill="#CD201A" stroke="#000000" stroke-width="0.35" stroke-miterlimit="10" d="M415.6,217.6c0,0,5,0.5,40.3-18.4
		c0,0-16.1,11.8-4.4,58.4c0,0,14.4,60.8-2.4,65.5c0,0-27.7,13.7-29.3,14.5c0,0,0.5-57.8-3.8-66.2
		C415.6,271.4,403.1,237.6,415.6,217.6z"/>
	<path fill="#FCF43A" d="M416.4,217.7c0,0-6.9,7.9-5.7,28.5c0,0,0.2,11.4,6.4,28.4c0,0,2,14.2,1.8,21.2l3-1.9c0,0,1.8-2.6-2-20.7
		c0,0-3-9.6-5.3-27.3c0,0-1.9-17.7,5.7-29.4L416.4,217.7z"/>
	<path fill="#FCF43A" d="M454.7,200c0,0-13.5,11.3-4.7,52.4c0,0,6.6,24.4,6.9,49.6c0,0,1.1,20.4-10.1,21.5l-8,0.2c0,0,27.3,3.7,6-71
		c0,0-8.8-34.1,3.6-49.4L454.7,200z"/>
	<path fill="#B71515" d="M395.6,350l53-27c0,0-13,5.3-9.9-14.7c0,0,3.6-16.8-10.5-17.4c-1.4-0.1-3.2,0.3-4.3,0.9
		c-10.4,6.4-32.6,20.9-33.1,21.7C390.7,313.6,383.6,324.8,395.6,350z"/>
	<path fill="#FCF43A" d="M421.9,294.4c0,0,8.2-4.2,12.5,2.4c0,0,2.2,5.1,0.8,11.5c0,0-3.2,13.8,7.2,17.7l4.6-2.4
		c0,0-11.4,2.9-8.5-15.6c0,0,2.5-12.3-5.3-15.9c0,0-6.9-3.7-12.3,1.6L421.9,294.4z"/>
	<path fill="#CD201A" stroke="#000000" stroke-width="0.35" stroke-miterlimit="10" d="M424,291.9c-3,16-1.2,31.7,8,40.2
		c9.2,8.5,21.8,41.1,17.2,76.5c-4.6,35.5-0.5,70.2,4.9,78c5.4,7.8,20.5,17.9,29.8,17.9h49.1c0,0,11.9,3,7.3,11.2l-4.6,35.6h-38.7
		c0,0-72.6-1-85.5-60.4c0,0-6-25,0.5-103.7c0,0,1.2-5.4-17.9-38.9c0,0-13.7-25.9-0.7-37.5L424,291.9z"/>
	<path fill="#B71515" d="M541.3,512.6c0,0-1.3,13.2-23,4.3c0,0-11.6-6.5-17.7,3.4c0,0-6.8,44.3-6,47.8c0,0,27.4,11.6,40.1,3.4
		C534.6,571.4,543.3,519.4,541.3,512.6z"/>
	<path fill="#FCF43A" d="M500.4,522.2c0,0,5.9-6.7,17.2-0.8c0,0,26.7,8.5,23.6-7.8c0,0-2.3,12.1-23.1,3.6c0,0-11.3-6.5-17.5,3.4
		L500.4,522.2z"/>
	<path fill="#FCF43A" d="M393.3,310.9c0,0-12.4,8.3-0.2,35.2c0,0,1.4,2.6,5.3,9.7c5.4,9.8,11.1,20.3,13.6,30.6
		c0,0-4.3,47.9-2.8,80.2c0,0,0.2,21.9,4.8,33.3c0,0,13,45.7,80.7,51l0.8-6.9c0,0-82.1-0.8-79.8-77.9c0,0-2-32.2,2.1-73.3
		c0,0,4.3-11.2-19.6-50.4c0,0-10.5-17-1.3-34L393.3,310.9z"/>
	<path fill="#FCF43A" d="M423.7,292.3c0,0-6.3,27.2,8.8,40.6c0,0,16.1,17.2,17.4,58.4c0,0,0.4,9.1-1.8,24.5c0,0-2.9,25.9,0.3,49.9
		c0,0,0.3,10.6,4.9,20.1c0,0,9,13.8,27.3,18.5l2.2,0.3h50.2c0,0,11.1,2.8,7.4,10.1c0,0-1.2,2.9-4.2,4.2l-1.7,0.6c0,0,10-6.7-1.9-9.4
		l-50,0.5c0,0-20.1-1.3-35.1-21.9c0,0-9-9.3-5.3-72.8c0,0,8-46-13.9-78.3c0,0-17.1-18-10.2-41.8L423.7,292.3z"/>
	<path fill="none" stroke="#CD201A" stroke-miterlimit="10" d="M417.7,217.4c-7.6,13.6-5.3,33.8-3.7,39.7"/>
	<path fill="none" stroke="#CD201A" stroke-miterlimit="10" d="M414,257.1c0.4,1.4,1.6,9.9,4,16.3"/>
	<path fill="none" stroke="#CD201A" stroke-miterlimit="10" d="M420.2,293.7c0.2-6-0.1-13.2-2.2-20.3"/>
	<path fill="none" stroke="#CD201A" stroke-miterlimit="10" d="M394.1,340.8c-2.8-6.5-8.1-16.8,0.2-30.3"/>
	<path fill="none" stroke="#CD201A" stroke-miterlimit="10" d="M414.5,386.2c-2.5-17.3-12.3-29.6-20.3-45.5"/>
	<path fill="none" stroke="#CD201A" stroke-miterlimit="10" d="M414.4,386.1c0.5,2.9,0.1,4.3,0,5.6"/>
	<path fill="none" stroke="#CD201A" stroke-miterlimit="10" d="M414.5,391.7c-2.9,32.4-3.5,74.4-1.5,89.7"/>
	<path fill="none" stroke="#CD201A" stroke-miterlimit="10" d="M413,481.4c3.4,21.9,8.1,30.3,24,44.8"/>
	<path fill="none" stroke="#CD201A" stroke-miterlimit="10" d="M436.7,526c12.6,9.7,29.1,20.5,58.4,21.6"/>
	<path fill="none" stroke="#CD201A" stroke-miterlimit="10" d="M500.9,521.1c4.7-5.2,11.3-4.7,16.8-2.1"/>
	<path fill="none" stroke="#CD201A" stroke-miterlimit="10" d="M517.5,518.9c11.1,3.5,20.6,5.6,23.6-3.3"/>
	<path fill="none" stroke="#CD201A" stroke-miterlimit="10" d="M536.6,518.6c5.6-5.5,4.4-9.6-3.4-11.7"/>
	<path fill="none" stroke="#CD201A" stroke-miterlimit="10" d="M533.2,506.8c0,0-22.6,0-50.6,0"/>
	<path fill="none" stroke="#CD201A" stroke-miterlimit="10" d="M450.2,486.7c5.5,9.7,20,19.5,32.4,20"/>
	<path fill="none" stroke="#CD201A" stroke-miterlimit="10" d="M444.7,417.6c-2.8,40,0.9,60.4,5.6,69.2"/>
	<path fill="none" stroke="#CD201A" stroke-miterlimit="10" d="M444.7,417.6c4.5-25.8,2.5-51.4-8.5-72.2"/>
	<path fill="none" stroke="#CD201A" stroke-miterlimit="10" d="M436.4,345.7c-1.6-2.8-3.5-7.8-8.9-13.6"/>
	<path fill="none" stroke="#CD201A" stroke-miterlimit="10" d="M420.6,294.5c-4.2,16.9,1.8,32.1,7,37.7"/>
	<path fill="none" stroke="#CD201A" stroke-miterlimit="10" d="M424.2,292.7c5.1-1.9,11.8,0.3,12.7,7.4"/>
	<path fill="none" stroke="#CD201A" stroke-miterlimit="10" d="M437,299.9c0.3,2.5,0.6,5,0.1,7.1"/>
	<path fill="none" stroke="#CD201A" stroke-miterlimit="10" d="M437.1,306.7c-2.6,10.9,1.7,17.4,6.8,18.1"/>
	<path fill="none" stroke="#CD201A" stroke-miterlimit="10" d="M450.5,202.4c-8.9,12.8-7.2,34.1-3.8,48.1"/>
	<path fill="none" stroke="#CD201A" stroke-miterlimit="10" d="M446.6,250.2c6.8,26.2,7.2,31.8,8.4,46.3"/>
	<path fill="none" stroke="#CD201A" stroke-miterlimit="10" d="M455,296.4c0,14.8-0.7,22.8-9.6,26.6"/>
	<path fill="#CD201A" stroke="#000000" stroke-width="0.35" stroke-miterlimit="10" d="M813.4,271.5c-4.3,8.4-3.8,66.2-3.8,66.2
		c-1.6-0.8-29.3-14.5-29.3-14.5c-16.9-4.7-2.4-65.5-2.4-65.5c11.6-46.6-4.4-58.4-4.4-58.4c35.2,18.9,40.3,18.4,40.3,18.4
		C826,237.6,813.6,271.4,813.4,271.5z"/>
	<path fill="#FCF43A" d="M808.8,216.5c7.6,11.7,5.7,29.4,5.7,29.4c-2.2,17.7-5.3,27.3-5.3,27.3c-3.8,18.1-2,20.7-2,20.7l3,1.9
		c-0.2-7,1.8-21.2,1.8-21.2c6.2-17,6.4-28.4,6.4-28.4c1.2-20.6-5.7-28.5-5.7-28.5L808.8,216.5z"/>
	<path fill="#FCF43A" d="M780.7,203.3c12.4,15.3,3.6,49.4,3.6,49.4c-21.3,74.7,6,71,6,71l-8-0.2c-11.2-1.2-10.1-21.5-10.1-21.5
		c0.4-25.1,6.9-49.6,6.9-49.6c8.8-41.1-4.7-52.4-4.7-52.4L780.7,203.3z"/>
	<path fill="#B71515" d="M838.3,313.5c-0.5-0.8-22.6-15.3-33.1-21.7c-1.1-0.6-2.9-1-4.3-0.9c-14.1,0.6-10.5,17.4-10.5,17.4
		c3.1,20-9.9,14.7-9.9,14.7l53,27C845.5,324.8,838.3,313.6,838.3,313.5z"/>
	<path fill="#FCF43A" d="M808.2,293.7c-5.4-5.3-12.3-1.6-12.3-1.6c-7.9,3.6-5.3,15.9-5.3,15.9c2.9,18.4-8.5,15.6-8.5,15.6l4.6,2.4
		c10.4-3.9,7.2-17.7,7.2-17.7c-1.4-6.4,0.8-11.5,0.8-11.5c4.3-6.6,12.5-2.4,12.5-2.4L808.2,293.7z"/>
	<path fill="#CD201A" stroke="#000000" stroke-width="0.35" stroke-miterlimit="10" d="M835.9,310.8c13,11.5-0.7,37.5-0.7,37.5
		c-19.1,33.5-17.9,38.9-17.9,38.9c6.5,78.6,0.5,103.7,0.5,103.7c-12.9,59.4-85.5,60.4-85.5,60.4h-38.8l-4.6-35.6
		c-4.6-8.2,7.3-11.2,7.3-11.2h49.1c9.3,0,24.4-10.1,29.8-17.9c5.5-7.8,9.6-42.6,4.9-78c-4.6-35.4,8-68,17.2-76.5
		c9.2-8.5,11-24.1,8-40.2L835.9,310.8z"/>
	<path fill="#B71515" d="M694.5,571.5c12.6,8.2,40.1-3.4,40.1-3.4c0.8-3.4-6-47.8-6-47.8c-6.1-9.9-17.7-3.4-17.7-3.4
		c-21.7,8.9-23-4.3-23-4.3C685.8,519.4,694.6,571.4,694.5,571.5z"/>
	<path fill="#CD201A" stroke="#000000" stroke-width="0.35" stroke-miterlimit="10" d="M614.6,595.4c47.7,0,70-5,70-5
		c32.6-3.5,50.1-22.1,50.1-22.1c0.7-26.5-6-47.8-6-47.8s7,15.4-49,25c0,0-34.8,3-65.1,3l0,0c-30.3,0-65.1-3-65.1-3
		c-56-9.7-49-25-49-25s-6.7,21.2-6,47.8c0,0,17.5,18.6,50.1,22.1C544.7,590.4,566.9,595.4,614.6,595.4L614.6,595.4z"/>
	<path fill="#FCF43A" d="M728.5,520.5c-6.2-9.8-17.5-3.4-17.5-3.4c-20.8,8.5-23.1-3.6-23.1-3.6c-3.1,16.3,23.6,7.8,23.6,7.8
		c11.3-5.8,17.2,0.8,17.2,0.8L728.5,520.5z"/>
	<path fill="#FCF43A" d="M614.5,548.8c-31.7,0-65.2-3-65.2-3s-47.8-7.1-49.3-23l-1.6,6.8c0,0-5.7,13,50.4,22.3c0,0,30,3.4,65.8,3.3
		c35.8,0.1,65.8-3.3,65.8-3.3c56.1-9.3,50.4-22.3,50.4-22.3l-1.6-6.8c-1.6,15.9-49.3,23-49.3,23S646.2,548.8,614.5,548.8z"/>
	<path fill="#FCF43A" d="M614.5,590.3c-17.6,0.6-41.4-1.6-41.4-1.6c-8.9-0.5-29.1-4.4-29.1-4.4s-33.1-4.5-49.4-25.9l-0.1,9.7
		c0,0,17.9,18.7,50,22c0,0,4,0.9,11.2,1.8c0,0,24.3,3.2,58.8,3.2s58.8-3.2,58.8-3.2c7.2-1,11.2-1.8,11.2-1.8c32.1-3.3,50-22,50-22
		l-0.1-9.7c-16.2,21.4-49.4,26-49.4,26s-20.2,3.9-29.1,4.4C655.9,588.7,632.1,590.9,614.5,590.3L614.5,590.3z"/>
	<path fill="#FCF43A" d="M832.2,308.3c9.2,17-1.3,34-1.3,34c-23.9,39.2-19.6,50.4-19.6,50.4c4.1,41.2,2.1,73.3,2.1,73.3
		c2.3,77.1-79.8,77.9-79.8,77.9l0.8,6.9c67.7-5.3,80.7-51,80.7-51c4.7-11.3,4.8-33.3,4.8-33.3c1.5-32.4-2.8-80.2-2.8-80.2
		c2.5-10.3,8.2-20.7,13.6-30.6c3.9-7.1,5.3-9.7,5.3-9.7c12.2-26.9-0.2-35.2-0.2-35.2L832.2,308.3z"/>
	<path fill="#FCF43A" d="M811.2,295.7c6.9,23.7-10.2,41.8-10.2,41.8c-22,32.3-13.9,78.3-13.9,78.3c3.7,63.5-5.3,72.8-5.3,72.8
		c-14.9,20.6-35.1,21.9-35.1,21.9l-50-0.5c-11.9,2.6-1.9,9.4-1.9,9.4l-1.7-0.6c-3-1.3-4.2-4.2-4.2-4.2c-3.7-7.3,7.4-10.1,7.4-10.1
		h50.1l2.2-0.3c18.3-4.7,27.3-18.5,27.3-18.5c4.6-9.5,4.9-20.1,4.9-20.1c3.3-23.8,0.3-49.9,0.3-49.9c-2.2-15.5-1.8-24.5-1.8-24.5
		c1.3-41.1,17.4-58.4,17.4-58.4c15-13.3,8.8-40.6,8.8-40.6L811.2,295.7z"/>
	<path fill="none" stroke="#CD201A" stroke-miterlimit="10" d="M811.5,217.4c7.6,13.6,5.3,33.8,3.7,39.7"/>
	<path fill="none" stroke="#CD201A" stroke-miterlimit="10" d="M815.2,257.1c-0.4,1.4-1.6,9.9-4,16.3"/>
	<path fill="none" stroke="#CD201A" stroke-miterlimit="10" d="M809,293.7c-0.2-6,0.1-13.2,2.2-20.3"/>
	<path fill="none" stroke="#CD201A" stroke-miterlimit="10" d="M835,340.8c2.8-6.5,8.1-16.8-0.2-30.3"/>
	<path fill="none" stroke="#CD201A" stroke-miterlimit="10" d="M814.7,386.2c2.5-17.3,12.3-29.6,20.3-45.5"/>
	<path fill="none" stroke="#CD201A" stroke-miterlimit="10" d="M814.8,386.1c-0.5,2.9-0.1,4.3,0,5.6"/>
	<path fill="none" stroke="#CD201A" stroke-miterlimit="10" d="M814.7,391.7c2.9,32.4,3.5,74.4,1.5,89.7"/>
	<path fill="none" stroke="#CD201A" stroke-miterlimit="10" d="M816.2,481.4c-3.4,21.9-8.1,30.3-24,44.8"/>
	<path fill="none" stroke="#CD201A" stroke-miterlimit="10" d="M792.4,526c-12.6,9.7-29.1,20.5-58.4,21.6"/>
	<path fill="none" stroke="#CD201A" stroke-miterlimit="10" d="M734.2,563.9c-7.1,6.8-19.7,17.2-41.6,22.3"/>
	<path fill="none" stroke="#CD201A" stroke-miterlimit="10" d="M692.7,586.2c-5.6,1.2-36.8,7.8-78.2,6.6
		c-41.5,1.2-72.5-5.4-78.2-6.6h0.2c-21.9-5.1-34.5-15.5-41.6-22.3"/>
	<path fill="none" stroke="#CD201A" stroke-miterlimit="10" d="M729.8,527.1c-3,10.7-20.6,17.7-50.1,21.6"/>
	<path fill="none" stroke="#CD201A" stroke-miterlimit="10" d="M728.3,521.1c-4.7-5.2-11.3-4.7-16.8-2.1"/>
	<path fill="none" stroke="#CD201A" stroke-miterlimit="10" d="M711.6,518.9c-11.1,3.5-20.6,5.6-23.6-3.3"/>
	<path fill="none" stroke="#CD201A" stroke-miterlimit="10" d="M679.9,548.7c-4.7,0.7-29,3.2-65.4,3.2l0,0
		c-36.4,0-60.7-2.4-65.4-3.2h0.2c-29.4-4-47.1-10.9-50.1-21.6"/>
	<path fill="none" stroke="#CD201A" stroke-miterlimit="10" d="M692.6,518.6c-5.6-5.5-4.4-9.6,3.4-11.7"/>
	<path fill="none" stroke="#CD201A" stroke-miterlimit="10" d="M696,506.8c0,0,22.6,0,50.6,0"/>
	<path fill="none" stroke="#CD201A" stroke-miterlimit="10" d="M778.9,486.7c-5.5,9.7-20,19.5-32.4,20"/>
	<path fill="none" stroke="#CD201A" stroke-miterlimit="10" d="M784.4,417.6c2.8,40-0.9,60.4-5.6,69.2"/>
	<path fill="none" stroke="#CD201A" stroke-miterlimit="10" d="M784.4,417.6c-4.5-25.8-2.5-51.4,8.5-72.2"/>
	<path fill="none" stroke="#CD201A" stroke-miterlimit="10" d="M792.7,345.7c1.6-2.8,3.5-7.8,8.9-13.6"/>
	<path fill="none" stroke="#CD201A" stroke-miterlimit="10" d="M808.6,294.5c4.2,16.9-1.8,32.1-7,37.7"/>
	<path fill="none" stroke="#CD201A" stroke-miterlimit="10" d="M804.9,292.7c-5.1-1.9-11.8,0.3-12.7,7.4"/>
	<path fill="none" stroke="#CD201A" stroke-miterlimit="10" d="M792.1,299.9c-0.3,2.5-0.6,5-0.1,7.1"/>
	<path fill="none" stroke="#CD201A" stroke-miterlimit="10" d="M792,306.7c2.6,10.9-1.7,17.4-6.8,18.1"/>
	<path fill="none" stroke="#CD201A" stroke-miterlimit="10" d="M778.6,202.4c8.9,12.8,7.2,34.1,3.8,48.1"/>
	<path fill="none" stroke="#CD201A" stroke-miterlimit="10" d="M782.5,250.2c-6.8,26.2-7.2,31.8-8.4,46.3"/>
	<path fill="none" stroke="#CD201A" stroke-miterlimit="10" d="M774.1,296.4c0,14.8,0.7,22.8,9.6,26.6"/>
</g>
<path fill="none" stroke="#CD201A" stroke-miterlimit="10" d="M417.7,217.4"/>
<path fill="none" stroke="#CD201A" stroke-miterlimit="10" d="M421,293.8"/>
<g id="Слой_2">
	<path d="M581.8,233.3c0,0-14.8-1.2-20.4-12.5c0,0,10.2,8,18,6.6c0,0-16-20.7-27.4-29.3c0,0,14.4,10.1,16.8,11.7l-3.9-21.2
		c0,0-6.4-9-3.4-19.2c0,0,0.8,14.3,4.3,14.4c0,0,2.4-1.2,4.8-12.8c0,0-0.3,13.3-3.1,17.2c0,0,2.7,2.7,10.2-6c0,0-4.4,8.2-8.6,11.2
		l0.2,4.1c0,0,4.3,20.6,16.7,30.8c0,0,5.4,4.1,15.7,0c0,0-2.4-2.8-3.5-10.8c0,0,4.9,7.6,8.7,9.9c0.3,0.2,0.8,0.5,1.1,0.6
		c3.7,1.2,9.7,2,15-7.3c0,0-6.6-9.7-6-20.8c0,0,5.2,16.8,10.2,18c0,0,2.7,2.7,17.5-17.6c0,0,1-12.8-5.4-19.5c0,0,5.7,6.6,8.5,11.5
		c0,0,5.2-1.2,2.9-20.7c0,0,1.8,10.3,3,16c0,0,4.2-6.5,6.7-14.7c0,0-2.3,32.9-51.9,63.8C608.9,236.5,586,234,581.8,233.3z"/>
	<path fill="#CD201A" stroke="#9B1515" stroke-miterlimit="10" d="M556.1,254.4c0,0-2.4-5.4-0.2-5.8c3.1-0.5,15.5-4,19.3-8.6
		c0,0,8.6-8.8,14.7-8.2c0,0,12.6,1.2,16.4,4.6c0,0,16.8-0.3,20.2-2.4c0,0,3.1,2.4,0,5.9c0,0-4.1,6.1-18.6,7.3c0,0-0.8,23.6-4.6,33.9
		c-2.6,7.1-5.4,28.4,11.1,32c0,0,23.6,3.7,33.2,0c9.5-3.7,53.4-10.4,64.2,18.3c0,0,3.7,9.1-6.7,4.1c0,0-6,18-1.5,31.7
		c0,0-1.2,17,24.3,25.6c0,0-0.9,33.8,10.8,45.9v4.3c0,0-8.8,12.6-7,16.4h-9.6c0,0,8.6-14.5,10.4-17.4c0,0-6.7-22.7-7.6-31.3
		c0,0-5.7-10.8-11.7-12.6c0,0-23-2.8-34.2-14.5c0,0-0.6,16.1-11.1,28.4c0,0-2.8,1.9-4.1,5.7l-0.9,31.7c0,0-9.1,6.4-9.1,10.2h-11.7
		c0,0,11.7-14.7,12.9-15.1c0,0,7-28.4,6.7-34.5c0,0,1.5-7.6-2.4-12.6c0,0-19.9-17.4-20.2-28.7c0,0-17.7,8.2-35.4,4.1
		c0,0,1.9,7.6-2.8,13.2c0,0-1.9,15.1-0.9,18c0,0,6,7.8-0.1,14.3l-0.6,26.8l3,1.2c0,0-6.4,9.3-6.7,13.4h-9.5c0,0,5.2-9.4,8.3-11.1
		l-0.8-29.9c0,0-5.7-2.9-1.5-13.1c0,0,0.2-10.3-2.9-13.4c0,0-15.1-15.1-15.1-24.6c0,0-24.3,1.4-36.2-8.3c0,0,0.2-0.9-12.8-0.2
		c0,0-5.7,8.6-12.3,13.4c0,0-7.6,17.2-6.4,24.7l-5,6.4l-9.5,1.9c0,0,7-13.2,9.5-19c0,0,10.2-27.8,13.8-32.9c0,0,1.9-7,10.8-7.6
		c0,0,22.7-2.4,26.5-6.4c0,0,2.6-2.6,2.7-6.2c0,0-8.1-10.5,3.4-32.3c0,0,13.8-15.3,20.5-32.7c0,0-3.7-8.5-8.7-9.5
		c0,0-5.6,0.5-12.8-3L556.1,254.4z"/>
	<polygon points="500.9,403.1 491.4,404.9 490.5,415.8 503.3,407.5 502.4,401.1 	"/>
	<path d="M585.7,459.3h9.5c0,0,1.6,4.9,1.6,6.4h-13.4C583.2,465.7,584.3,460.9,585.7,459.3z"/>
	<path d="M641.7,459.3c0,0-3.7,3.5-3.7,6.4h14.4c0,0,0-3.7,1-6.4H641.7z"/>
	<path d="M731.6,459.3h-9.7c0,0-4.3,2.9-4.6,6.4h14.5C731.6,465.7,731.9,461.3,731.6,459.3z"/>
	<path d="M586.8,240.1c0,0-2.7,2-6.8,4.1c0,0-0.8,0.6,0.2,1.7c0,0,3.7,1.1,8.7,0C589,245.9,591.2,240.5,586.8,240.1"/>
	<path fill="none" stroke="#9B1515" stroke-miterlimit="10" d="M638.9,368.3c6.1-4.9,21.6-9.3,30.7-8.2"/>
	<path fill="none" stroke="#9B1515" stroke-miterlimit="10" d="M669.6,357.4c-2.4,8,2,18.1,9.4,26"/>
	<path fill="none" stroke="#9B1515" stroke-miterlimit="10" d="M573.7,367.2c0-2.9,0.3-5.3,0.9-8"/>
	<path fill="none" stroke="#9B1515" stroke-miterlimit="10" d="M603.5,372.5c-1-4.2-1.2-5.3-2.8-10.1"/>
	<path fill="none" stroke="#9B1515" stroke-miterlimit="10" d="M557.1,347.9c1.7,10.6,8,16.8,16.8,19.3"/>
	<path fill="none" stroke="#9B1515" stroke-miterlimit="10" d="M570.2,258.9c11.8,3.1,16.4,0,18.3-1.8"/>
	<path fill="#B71515" d="M556.6,348c0,0-7.1,9.4-7.9,15.9c0,0,8.3,2.9,22.3,2.9C570.9,366.8,558.6,362.8,556.6,348z"/>
	<path fill="#B71515" d="M640.9,374.1c0,0,24.3-6.7,30.9,0.2c0,0-4-7.1-3.3-13.7c0,0-15.2-1.2-29,8
		C639.4,368.6,639.6,371.4,640.9,374.1z"/>
	<path display="none" fill="#B71515" d="M602.9,280.7c0,0-10.8,12.7-7.9,27c0,0,5.8,16.7,26.6,6.7c0,0-13.5,0.3-17.8-8.2
		C603.8,306.2,597.6,297.1,602.9,280.7z"/>
	<path fill="#B71515" d="M573.7,260.2c0,0,9.7,1.9,15.1-2.7c0,0-3.1,6.4-9.5,10.9C579.4,268.4,577.4,263.3,573.7,260.2z"/>
</g>
</svg>
