<?xml version="1.0" encoding="UTF-8"?>
<!DOCTYPE svg PUBLIC "-//W3C//DTD SVG 1.1//EN" "http://www.w3.org/Graphics/SVG/1.1/DTD/svg11.dtd">
<!-- Creator: CorelDRAW X5 -->
<svg xmlns="http://www.w3.org/2000/svg" xml:space="preserve" width="197.5mm" height="247mm" style="shape-rendering:geometricPrecision; text-rendering:geometricPrecision; image-rendering:optimizeQuality; fill-rule:evenodd; clip-rule:evenodd"
viewBox="0 0 19750 24700"
 xmlns:xlink="http://www.w3.org/1999/xlink"
 version="1.1"
 enable-background="new 0 0 1000 1000">
 <defs>
  <style type="text/css">
   <![CDATA[
    .str1 {stroke:#2A2A29;stroke-width:49}
    .str0 {stroke:#2A2A29;stroke-width:150}
    .fil2 {fill:none}
    .fil5 {fill:black}
    .fil11 {fill:#00A651}
    .fil10 {fill:#297AA9}
    .fil7 {fill:#3D92C8}
    .fil14 {fill:#A54686}
    .fil3 {fill:#DA251D}
    .fil6 {fill:#E7E8E9}
    .fil12 {fill:#ED1C24}
    .fil13 {fill:#FAA74A}
    .fil0 {fill:#FCDB00}
    .fil15 {fill:#FED09E}
    .fil9 {fill:#FFCB05}
    .fil8 {fill:white}
    .fil1 {fill:black;fill-rule:nonzero}
    .fil4 {fill:#DA251D;fill-rule:nonzero}
   ]]>
  </style>
 </defs>
 <g id="Слой_x0020_1">
  <metadata id="CorelCorpID_0Corel-Layer"/>
  <path class="fil0" d="M19644 21061l-12 -21020 -6193 24 -13382 -3 62 20995c0,254 44,472 145,689 209,448 649,804 1115,970 243,87 507,130 792,130l5617 1c295,0 567,45 817,134 477,171 922,536 1139,989 63,133 108,272 133,419 69,-400 278,-730 598,-1005 423,-369 925,-537 1492,-537l5625 1c554,0 1043,-160 1456,-521 390,-341 597,-751 597,-1267z"/>
  <path class="fil1" d="M6334 14l7105 2 1406 -5 4835 0c1,2 1,4 1,6l12 21044c0,257 -51,495 -154,713 -102,217 -255,414 -460,590l-1 0c-205,179 -431,312 -678,400 -247,88 -516,132 -809,132l-4157 -1 -1468 0c-287,0 -552,44 -795,131 -243,87 -465,219 -665,394l0 0 0 0c-201,173 -351,363 -451,570 -101,207 -152,433 -154,677 0,13 -11,24 -25,24 -13,0 -24,-11 -24,-24 -2,-245 -53,-470 -152,-678 -99,-208 -248,-397 -444,-570l-1 -1c-200,-174 -422,-305 -667,-393 -245,-88 -512,-132 -801,-132l-1459 0 -4157 -1c-290,0 -560,-44 -808,-132 -249,-89 -476,-222 -684,-401l-1 -1c-204,-178 -357,-376 -458,-594 -102,-218 -152,-455 -150,-710l-62 -21019c0,-13 11,-24 24,-24l6301 1zm7105 50l-7105 -2 -6276 -1 62 20995 0 0 0 0c-2,248 47,478 145,689 99,212 248,405 446,578l0 0c203,175 425,305 668,392 243,87 507,130 792,130l4157 1 1459 0c295,0 567,45 817,134 250,89 477,223 682,402l2 1c201,177 353,372 456,586 63,133 108,272 133,419 25,-147 70,-287 134,-419 104,-214 258,-409 463,-586l0 0c205,-179 432,-313 681,-403 249,-89 519,-134 811,-134l1468 0 4157 1c287,0 550,-43 793,-129 242,-86 462,-217 663,-391l0 0c200,-172 348,-364 447,-574 100,-212 149,-443 149,-693l-12 -21020 -6193 24z"/>
  <g id="_140831344">
   <path class="fil2 str0" d="M13218 6018l2130 -4339 2275 4339 -2223 4260 -2170 -4154 -13 -106zm1139 6l1012 -2061 1081 2061 -1056 2024 -1031 -1973 -6 -50z"/>
   <path class="fil3" d="M15369 3963l1081 2061 -1056 2024 -1031 -1973 -6 -50 1012 -2061zm-21 -2284l-2130 4339 13 106 2170 4154 2223 -4260 -2275 -4339z"/>
  </g>
  <g id="_148586632">
   <path class="fil2 str0" d="M7701 6047l2130 -4339 2275 4339 -2223 4260 -2170 -4154 -13 -106zm1139 6l1012 -2061 1081 2061 -1056 2024 -1031 -1973 -6 -50z"/>
   <path class="fil3" d="M12107 6047l-2275 -4339 -2130 4339 13 106 2170 4154 2223 -4260zm-2254 -2055l1081 2061 -1056 2024 -1031 -1973 -6 -50 1012 -2061z"/>
  </g>
  <g id="_148586800">
   <path class="fil2 str0" d="M2156 17202l2130 -4339 2275 4339 -2223 4260 -2170 -4154 -13 -106zm1139 6l1012 -2061 1081 2061 -1056 2024 -1031 -1973 -6 -50z"/>
   <path class="fil3" d="M6561 17202l-2275 -4339 -2130 4339 13 106 2170 4154 2223 -4260zm-2254 -2055l1081 2061 -1056 2024 -1031 -1973 -6 -50 1012 -2061z"/>
  </g>
  <g id="_152970544">
   <path class="fil2 str0" d="M7694 17176l2130 -4339 2275 4339 -2223 4260 -2170 -4154 -13 -106zm1139 6l1012 -2061 1081 2061 -1056 2024 -1031 -1973 -6 -50z"/>
   <path class="fil3" d="M9824 12837l-2130 4339 13 106 2170 4154 2223 -4260 -2275 -4339zm-991 4345l1012 -2061 1081 2061 -1056 2024 -1031 -1973 -6 -50z"/>
  </g>
  <g id="_150028824">
   <path class="fil2 str0" d="M13266 17233l2130 -4339 2275 4339 -2223 4260 -2170 -4154 -13 -106zm1139 6l1012 -2061 1081 2061 -1056 2024 -1031 -1973 -6 -50z"/>
   <path class="fil3" d="M15396 12894l-2130 4339 13 106 2170 4154 2223 -4260 -2275 -4339zm-991 4345l1012 -2061 1081 2061 -1056 2024 -1031 -1973 -6 -50z"/>
  </g>
  <g id="_152974552">
   <path class="fil2 str0" d="M2112 6153l2130 -4339 2275 4339 -2222 4260 -2170 -4154 -13 -106zm1139 6l1012 -2061 1081 2061 -1056 2024 -1031 -1973 -6 -50z"/>
   <path class="fil3" d="M3251 6159l1012 -2061 1081 2061 -1056 2024 -1031 -1973 -6 -50zm1044 4254l2222 -4260 -2275 -4339 -2130 4339 13 106 2170 4154z"/>
  </g>
  <g id="_148582984">
   <polygon class="fil4" points="57,60 6644,63 6626,7528 72,7541 "/>
   <path class="fil5" d="M3435 1371l-29 -29 -59 0 -29 29 -59 30 0 29 -29 0 0 0 -59 0 -29 29 -59 30 -29 59 0 0 -29 0 0 29 -88 -117 -88 -59 -118 -117 -30 -59 -30 -88 -30 -59 -30 -59 -59 -59 -29 -29 -29 0 -29 29 0 -176 0 -59 0 -29 59 29 29 0 0 -59 -29 -29 -59 -59 0 0 0 -59 0 -59 29 0 59 0 29 0 29 0 0 -88 -29 0 -29 0 -59 0 -29 0 0 -29 59 0 0 0 29 -88 -59 0 -29 -29 0 -29 0 -29 -29 0 -88 0 0 29 0 59 -59 0 -29 29 0 59 29 0 59 0 0 59 -29 0 -29 0 -59 0 -29 0 30 88 0 0 59 0 59 0 29 0 0 29 0 29 -59 0 -29 -29 0 88 29 29 59 29 0 29 0 59 0 176 -29 0 -59 59 0 88 59 147 59 88 30 206 -59 0 -59 0 0 -59 0 -29 0 -29 -29 -29 0 29 -29 0 0 29 -59 30 -118 0 -59 0 -29 0 -59 30 0 -29 0 -29 0 -59 -59 -29 -29 0 0 29 29 0 0 29 -59 30 -59 30 -59 59 -59 -118 -118 -59 0 0 -30 -59 -29 0 0 29 29 29 0 88 -88 -88 -59 0 -29 0 -29 29 0 29 0 0 0 0 29 0 29 -29 0 29 30 88 -118 0 -59 0 -29 29 59 0 0 29 29 0 29 29 0 29 29 29 59 59 -88 0 -59 30 -59 30 0 0 -29 29 29 0 29 0 29 29 118 29 59 0 -59 118 -29 118 0 118 0 29 -29 29 -29 147 0 0 0 29 0 0 0 0 0 0 0 29 0 0 0 0 0 0 -29 88 0 0 0 0 0 29 0 0 0 29 -29 29 -29 59 0 0 30 59 0 29 29 -29 29 -29 29 -29 30 59 -29 29 0 0 0 59 0 0 235 0 0 -29 0 -118 0 -29 0 0 29 0 30 59 0 88 0 0 0 29 29 0 29 -29 29 0 0 0 0 -29 0 -59 0 -29 59 88 88 59 29 -29 88 117 -88 206 -147 236 -29 29 -29 59 -29 88 -29 88 0 29 0 88 0 59 0 88 -88 -88 -118 -29 -88 -29 -88 -88 -59 -59 -59 -29 -88 0 -59 0 -59 0 -29 88 -29 59 -58 206 -29 59 -29 29 -88 177 0 176 0 118 -29 0 -29 59 0 59 0 118 0 29 29 29 29 29 0 0 235 -236 29 -29 0 0 -30 -59 -29 0 -29 -29 0 -59 59 -30 29 -59 29 -88 29 -88 0 -88 0 -29 59 -88 29 -29 29 -29 59 59 118 88 118 147 147 147 -29 29 -29 0 -176 0 0 0 -59 30 -59 30 -29 88 -88 206 -29 59 -29 0 -29 59 -88 88 -59 118 -29 88 0 29 29 29 0 29 0 88 -59 118 -29 29 0 118 0 0 -29 29 -176 59 -147 0 -88 30 -29 0 0 29 206 88 147 117 59 88 29 29 0 0 29 0 147 -30 118 29 59 59 29 29 0 29 29 -29 59 -30 59 -30 118 29 0 176 0 88 0 29 -59 30 -59 30 -88 -59 -118 -29 -147 -88 -206 -88 -176 0 -147 30 -29 0 0 29 59 29 29 29 -88 59 -29 88 0 29 29 0 118 -59 88 0 0 29 -29 59 0 59 0 0 29 -29 29 -29 59 0 29 29 147 147 0 -29 88 -30 88 0 59 29 29 0 29 29 118 59 88 59 59 29 59 29 59 29 59 -30 29 -59 29 0 29 -29 29 29 118 59 29 0 -29 29 30 59 -147 -29 -176 0 -176 0 -59 0 -29 0 -177 -29 -176 0 -88 0 -59 0 0 29 29 29 0 29 0 0 -88 30 -59 59 -59 30 0 29 -29 29 88 0 29 0 59 -30 88 0 -59 59 0 59 -29 29 29 -29 206 -30 88 0 59 29 0 0 30 59 29 0 29 29 0 -29 29 -88 59 -30 29 0 206 88 235 29 206 0 59 -30 29 0 147 29 29 29 0 0 29 0 59 29 29 -29 29 -59 0 0 0 0 29 -59 29 -59 59 29 118 0 147 0 206 0 29 -29 -59 59 0 88 0 29 0 29 29 0 29 -59 88 -30 -29 88 0 59 0 29 29 29 0 -29 88 -59 88 -59 118 0 59 -30 0 0 147 29 147 -30 88 -30 88 -30 88 -88 29 -59 -29 -29 -59 -29 -29 -29 -59 -59 0 -88 29 -59 88 -88 59 -59 206 176 206 58 177 29 59 0 29 0 59 88 0 29 0 29 -59 30 -59 0 -265 1 -88 0 -59 30 -29 29 0 29 0 29 29 0 0 0 -59 59 -29 29 -29 29 147 0 0 -29 0 59 29 0 59 -30 0 0 235 0 176 0 118 -30 88 -59 59 -59 29 -88 88 -59 0 -88 0 -29 -30 -59 -88 -59 -88 -29 -59 -59 -30 -59 0 0 29 -88 88 59 177 88 265 58 265 -1 206 -89 147 -118 88 -206 0 -235 29 -59 -30 -88 -30 -118 -118 -206 -89 -176 -59 -206 29 -88 59 -118 29 0 29 -29 59 0 29 0 59 88 -29 -29 -59 30 -29 59 -29 59 29 29 59 88 88 88 0 59 0 88 0 29 29 0 29 -29 88 -59 59 -88 29 -118 0 -206 -147 -206 -29 -29 -118 -29 -177 -29 -118 30 -88 59 -29 59 -88 118 -58 177 0 118 30 147 59 147 89 147 59 88 59 118 0 118 -59 118 -88 88 -147 0 -147 -59 -206 -58 -236 -117 0 -206 88 0 118 -30 0 -29 29 -118 29 -177 88 -206 147 -177 29 -88 0 0 -59 -59 -29 -29 -29 -29 -59 -59 -59 -118 -30 -147 0 -118 59 -118 88 -147 59 -147 29 -265 -30 -265 -59 -147 -88 -117 118 0 147 29 30 88 30 88 0 147 0 235 0 235 59 206 118 206 147 88 206 0 0 0 29 -29 0 -29 -29 -29 -30 -59 -59 -59 0 -118 58 -177 117 -294 58 -265 -1 -265 -59 -118 -59 -118 -88 -88 -147 -59 -147 -59 -147 0 -147 30 -147 59 -117 118 -117 118 -147 -29 -206 -29 -59 0 -88 30 -118 30 -88 30 -29 -29 -88 -59 -88 -59 -59 -88 -30 -88 -30 -118 -59 -88 -30 -59 0 0 0 0 -29 -29 0 -88 -30 -59 -30 -88 29 -59 29 -59 0 -29 29 -29 89 235 118 176 118 88 88 88 29 0 118 29 118 -59 29 -59 0 -29 29 0 29 0 88 29 59 0 29 -29 29 -59 59 -88 59 -59 59 0 118 0 88 -59 59 -59 0 -59 0 -88 29 -59 29 -29 29 -29 176 -118 88 -118 0 -118 -30 -59 -30 -59 -29 -29 -59 -29 -59 30 -88 -29 -88 0 -206 -29 0 0 29 -29 0 -59 -29 -29 -59 -29 0 0 0 0 0 0 -88 -29 -29 0 -294 -29 -294 -29 -235 0 -206 0 29 0 -29 0 0 0 -29 -29 -29 -29 -30 -59 118 59 59 29 88 0 88 -88 29 -88 29 -29 29 0 29 0 30 59 29 0 88 29 59 -30 29 -88 29 -88 29 -29 0 -29 -29 0 -59 30 -29 59 -29 29 -29 0 -59 -29 -59 -88 -59 0 -59 30 -59 59 -29 59 -59 30 -29 0 0 -59 0 -88 0 -118 0 -118 -89 -176 -118 -88 -59 -59 -88 0 -88 -29 -118 -29 -88 30 0 29 29 29 59 88 29 29 29 29 0 0 -59 30 -59 88 -59 88 -29 147 0 29 59 118 0 0 30 176 0 0 29 29 29 0 0 0 0 29 0 0 0 0 0 0 0 0 29 29 29 29 59 0 -59 30 0 29 0 0 0 0zm-204 1206l-176 118 -88 88 29 -59 0 -59 0 0 -29 0 0 0 0 -118 294 -30 -29 59 0 0 0 0zm58 -471l-59 88 -59 0 -88 30 -29 0 0 -29 29 0 59 0 -59 -29 -59 -59 -30 -59 0 29 0 -29 29 -29 59 0 0 -29 -29 0 -29 0 -59 0 0 -29 0 0 0 0 -29 -29 -29 -29 88 0 118 -59 118 0 29 0 0 88 30 176 0 0 0 0zm-378 2383l-29 59 -147 147 29 0 0 29 59 29 118 0 88 -88 88 -30 88 -59 59 0 59 -30 29 -29 294 -30 235 -59 59 118 88 117 147 176 89 147 30 59 30 88 -29 88 -29 88 0 29 0 0 -29 59 -88 177 -176 236 -235 206 0 29 -206 59 -147 59 -117 88 -88 59 147 -147 59 -59 29 -59 0 0 -59 -29 -59 0 -29 -29 -59 -29 -59 30 59 -118 117 -147 118 -59 88 -30 29 0 29 -29 -29 -29 0 0 29 -59 88 -59 118 -30 118 -30 0 0 0 -29 0 -29 29 -118 59 -88 59 -30 29 -29 0 0 0 0 -29 -29 0 0 -118 30 -176 30 -235 -29 -206 0 -177 -29 -147 0 -118 0 -147 0 -1 -265 -30 -294 59 -59 29 0 0 -29 0 59 0 29 0 0 29 0 88 0 0 0 0 0zm-4 -2206l0 0 59 0 -59 0 0 0 0 0zm-237 -676l-59 0 0 0 0 -59 0 0 -29 -29 -29 0 -29 29 -1 -265 0 0 30 118 118 206 0 0 0 0zm-83 2853l30 323 1 294 -88 30 -117 88 -59 88 30 88 88 88 88 117 30 147 -29 0 -29 0 0 0 0 29 0 59 -59 118 -59 118 -88 -117 -118 -147 -177 -147 -177 -88 0 -29 -30 -118 -30 -88 0 0 29 -88 0 -59 0 -59 0 0 0 0 -59 -29 -88 0 -147 30 -118 59 -59 59 -206 147 -176 89 -29 0 29 -88 0 -59 59 0 59 -59 59 -147 29 -177 59 -118 59 -88 29 -29 59 -30 59 -88 88 0 118 29 294 -1 147 0 147 -30 118 -30 88 -30 0 -88 0 0 0 -29 0 -59 0 -29 29 0 0 29 118 117 0 0 0 0zm-621 -1675l-177 -117 -118 -59 29 -29 0 0 0 0 0 -29 59 -59 29 -29 88 -30 88 -88 30 88 0 147 -29 206 0 0 0 0zm2124 3202l59 -59 118 -59 118 -30 29 -59 -29 -29 0 -29 29 -118 58 -177 147 -236 29 -29 29 -88 0 0 -59 -88 -30 -88 0 -88 0 -59 147 59 118 88 88 59 30 59 30 59 30 88 -29 29 0 29 -29 59 -29 88 -59 118 -147 265 -205 236 0 29 -206 -29 -235 0 0 0 0 0z"/>
   <path class="fil6" d="M3287 988l-30 -59 0 -59 29 -118 59 -118 59 -59 29 -29 29 -29 0 0 0 -59 -59 -29 -59 -59 -29 -29 59 -30 88 29 88 0 88 59 88 29 88 88 89 147 0 118 0 118 0 29 -29 29 0 59 30 59 88 0 59 -30 29 -59 29 -59 59 -30 29 29 88 29 59 59 29 0 29 0 29 -59 29 -59 -29 118 -29 59 -59 30 -29 -29 -29 0 -59 -59 -29 -29 -29 29 -59 59 -29 59 -88 88 -59 0 -59 -29 -88 -59 -59 -29 0 29 0 29 -29 -29 -29 -29 -29 -29 -30 -59 -30 -59 -59 0 -88 0 0 0 0 0 -59 30 -88 0 0 0 0 0zm205 -471l88 29 59 59 30 118 30 176 59 176 0 -176 -30 -147 -30 -88 -30 -59 -59 -59 -118 -29 0 0 0 0z"/>
   <path class="fil7" d="M4935 1544l29 0 118 0 147 29 177 29 -29 29 -59 59 -29 59 0 29 -59 0 -59 30 -88 30 -29 0 -29 -29 -59 -29 -29 -29 -29 -29 0 -88 29 -88 0 0 0 0zm-1500 -144l29 0 29 29 265 -1 88 -88 0 0 206 -30 235 0 294 29 353 58 -59 0 0 0 -294 295 0 0 -29 0 -29 0 -59 -29 -59 -29 -88 -59 -147 -29 -206 -29 -88 -29 -118 -29 -118 0 -118 0 -29 0 -59 0 -29 -29 0 0 0 0 -29 0 -29 29 -29 -29 -29 0 0 0 29 -29 59 -30 29 0 0 0 0 29 29 0 0 0 0 0zm1559 -3l59 29 0 29 -29 29 -29 29 0 0 0 0 0 0 -29 0 0 0 0 0 0 0 0 0 0 0 -29 0 0 0 0 0 0 0 0 0 0 0 0 0 0 0 0 0 0 0 0 0 -29 0 0 0 0 0 0 0 0 0 0 0 0 0 0 0 0 0 0 0 0 0 0 0 -29 59 0 59 0 59 -29 29 0 29 206 117 235 -59 147 -206 118 0 0 29 29 29 30 59 -29 88 -59 147 -176 89 -29 29 -29 29 -29 88 0 88 0 59 -29 59 -88 30 -118 0 -59 0 -88 59 -59 88 -29 59 -29 29 -29 0 -59 -29 -59 0 -29 29 -29 0 0 0 0 0 -29 59 -29 29 -59 30 -88 -29 -29 0 -118 -88 -118 -88 -89 -176 -89 -265 59 -118 29 -118 29 -177 0 -118 -29 -29 0 0 177 29 147 29 88 29 59 29 29 29 88 0 29 0 59 -59 88 -88 88 -118 59 -30 88 -30 0 0 0 0z"/>
   <path class="fil8" d="M2466 2167l0 88 -59 30 -29 29 -29 29 0 88 59 118 88 59 1 265 -265 1 -235 -88 29 -206 0 -176 -30 -88 0 0 59 -88 29 -88 0 -118 29 0 29 0 88 59 118 29 118 59 0 0 0 0zm61 853l1 500 0 29 -117 88 -118 30 -265 30 -265 1 -88 -29 -59 0 0 -29 29 -88 29 -88 29 -29 29 -29 147 -236 88 -235 59 0 29 -29 88 88 59 29 59 -30 29 -29 59 88 29 29 88 -30 59 -30 0 0 0 0zm411 -442l0 88 -29 0 0 0 -147 118 -147 59 0 0 0 -59 -30 -176 88 0 59 -30 59 0 147 0 0 0 0 0zm-383 -293l0 -59 29 0 0 29 0 29 -29 0 0 0 0 0zm147 0l59 29 59 29 0 0 -59 0 -59 0 0 -59 0 0 0 0zm178 617l0 88 -117 118 -59 59 -29 88 -29 59 30 118 -29 206 0 -235 -30 -206 0 -118 0 -59 59 0 88 -30 29 -88 59 29 29 -29 0 0 0 0zm1501 321l29 0 88 29 88 29 89 147 89 206 -176 0 0 -176 -59 -118 -88 -88 -59 -29 0 0 0 0zm118 -30l29 0 0 0 0 0 29 0 59 29 88 29 88 88 88 117 30 147 -118 30 -30 -88 -89 -206 -88 -88 -88 -59 0 0 0 0zm118 -30l29 0 59 0 147 117 118 117 59 88 30 88 -88 30 -59 -176 -88 -117 -118 -88 -88 -59 0 0 0 0zm147 29l59 0 0 0 59 29 118 59 147 88 59 176 -88 30 -59 -88 -59 -118 -88 -88 -147 -88 0 0 0 0zm324 88l118 117 59 118 -29 0 -59 -147 -88 -88 0 0 0 0zm-529 325l-118 0 -59 -176 -89 -147 0 -29 59 -30 29 29 88 59 59 118 30 176 0 0 0 0 0 0zm-147 0l-88 -29 -59 0 29 -206 0 -29 88 117 30 147 0 0 0 0zm882 -2l-59 30 0 -88 29 0 30 59 0 0 0 0zm-88 59l-88 59 0 0 0 -118 88 -30 0 0 0 88 0 0 0 0zm-118 59l-118 30 0 -118 118 -30 0 118 0 0 0 0 0 0zm-147 59l-118 0 -30 -118 118 -30 30 147 0 0 0 0 0 0zm-147 0l-206 0 0 0 0 -118 176 0 30 118 0 0 0 0zm-235 0l-88 -29 0 -118 88 29 0 118 0 0 0 0 0 0zm-118 -29l-206 -58 29 -88 59 0 88 29 30 118 0 0 0 0zm853 -90l30 147 -59 -59 -29 -29 0 0 0 -29 59 -30 0 0 0 0zm30 206l-58 235 -29 147 -88 118 -59 147 0 118 59 206 89 147 29 29 0 0 29 0 0 29 29 0 29 29 0 29 -29 29 -176 236 -58 206 -58 177 0 59 0 29 0 0 -88 30 -118 0 -29 0 0 206 -118 -29 -88 -29 0 0 176 -236 147 -265 88 -235 29 -59 0 -29 29 -29 0 -29 0 -88 -118 -117 -206 -147 -236 -117 -118 -147 -88 -117 0 -29 0 -29 -30 -59 0 -29 -59 -29 -88 0 -117 88 -118 59 -147 59 -382 30 -30 -88 -30 -88 323 -59 323 -148 176 -177 117 -177 206 58 0 59 -59 30 0 29 0 59 30 88 59 29 59 29 29 0 29 0 29 -29 59 -88 0 -59 -59 -59 -30 -59 206 0 0 59 -29 88 0 29 0 29 0 0 0 0 29 29 59 29 59 0 59 -59 59 -88 0 0 -30 -59 -29 -29 0 -29 118 -59 0 29 0 59 0 29 0 29 29 29 30 88 59 0 59 -59 59 -88 0 0 0 0zm-206 -117l88 -30 29 29 0 29 29 29 29 29 0 0 -59 118 -29 29 -29 0 -30 -59 -30 -59 0 0 0 0 0 -88 0 -29 0 0 0 0zm-294 59l118 0 0 29 0 29 0 0 29 0 30 59 0 0 -29 88 -88 30 -59 -29 -29 -29 0 -29 0 -59 29 -59 0 -29 0 0 0 0zm-353 1l88 0 0 29 30 59 59 88 0 0 -59 59 -29 0 0 29 -29 0 -88 -29 -30 -88 0 -59 29 -29 29 0 0 -59 0 0 0 0zm-1528 650l-59 0 -59 0 0 -59 29 -59 0 -59 29 -29 -29 -29 -117 206 -29 29 0 -59 0 -147 -30 -176 0 -206 59 147 30 88 88 88 118 59 88 0 0 118 -29 29 -88 59 0 0 0 0zm-353 -58l-88 -59 -29 -29 -29 -29 0 0 -29 59 0 88 0 0 0 0 0 59 -59 30 -118 30 -265 30 -294 -29 -118 0 -118 0 -29 0 0 0 -59 88 -29 29 -29 0 0 0 0 0 -29 29 -59 88 -59 118 -29 206 -29 88 -29 59 -29 29 -59 0 -29 0 -29 -29 0 29 30 88 -29 59 0 59 -29 0 29 29 29 -29 0 0 29 29 0 0 0 29 0 88 -59 59 -59 59 -88 88 -29 0 -29 -29 0 0 0 -206 29 -29 88 -30 0 -29 -88 0 29 -59 0 -29 59 -147 0 -88 0 -29 0 0 0 -29 -29 0 0 -29 29 -59 29 -88 147 -177 29 -29 29 -59 88 -177 29 -88 59 -30 29 0 0 0 29 0 59 0 59 0 29 0 29 0 0 -29 0 0 29 0 117 -88 29 -29 29 0 88 -30 29 0 88 0 118 -30 118 29 0 0 0 -29 -29 -29 -88 0 -88 0 -29 0 0 0 -118 0 -59 0 -29 0 29 -29 0 0 -29 -29 0 0 118 -30 88 -88 147 -177 0 0 59 59 59 59 59 0 59 -30 59 -59 29 -59 0 29 0 0 0 0 88 29 59 0 59 -59 31 618 0 0 0 0z"/>
   <polygon class="fil5" points="1319,2463 1437,2551 1496,2580 1555,2580 1526,2610 1496,2580 1437,2551 1319,2463 1319,2463 "/>
   <polygon class="fil5" points="1848,1962 1877,1962 1848,1933 1848,1933 1877,1962 1907,2021 1878,2138 1819,2256 1790,2286 1702,2462 1673,2551 1673,2580 1673,2580 1643,2551 1614,2521 1672,2286 1760,2109 1819,1991 1848,1962 1848,1962 "/>
   <polygon class="fil9" points="2433,196 2433,225 2433,255 2462,255 2521,284 2521,313 2462,314 2433,314 2433,402 2463,402 2492,402 2551,402 2580,402 2580,431 2551,431 2492,431 2463,431 2433,431 2463,608 2492,637 2522,666 2522,696 2463,667 2434,667 2434,667 2434,725 2463,843 2464,961 2464,990 2464,1020 2434,1020 2434,990 2405,931 2404,814 2404,696 2404,667 2404,637 2345,608 2316,579 2316,549 2345,579 2404,608 2404,461 2374,461 2316,461 2257,461 2227,461 2227,432 2257,432 2315,432 2345,431 2374,431 2374,343 2345,343 2286,343 2286,285 2315,284 2374,284 2374,255 2374,196 2403,196 2433,196 2433,196 "/>
   <polygon class="fil6" points="1906,1756 1936,1726 1936,1638 1965,1668 1995,1726 2024,1815 2024,1844 1936,1844 1936,1815 1936,1815 1906,1756 1906,1756 1906,1756 "/>
   <polygon class="fil8" points="5494,2896 5641,2896 5788,2954 5906,3013 5994,3101 6053,3218 6112,3306 6113,3571 6025,3836 5938,4101 5879,4189 5879,4307 5879,4425 5938,4513 5968,4542 5997,4571 5997,4601 5968,4601 5791,4572 5674,4513 5556,4337 5496,4102 5496,3866 5495,3661 5495,3514 5465,3396 5407,3308 5318,3279 5230,3279 5171,3279 5112,3279 5053,3250 4995,3220 5112,3102 5229,2985 5347,2926 5494,2896 5494,2896 "/>
   <polygon class="fil10" points="3906,1399 3935,1399 3994,1399 4112,1399 4229,1428 4465,1427 4582,1457 4671,1486 4553,1604 4494,1574 4347,1516 4171,1457 3906,1399 3906,1399 "/>
   <polygon class="fil10" points="4198,1957 5111,2367 5052,2367 4963,2367 4846,2397 4787,2515 4758,2574 4758,2603 4758,2574 4758,2544 4728,2486 4640,2427 4463,2221 4286,2045 4227,1987 4198,1957 4198,1957 "/>
   <polygon class="fil10" points="3992,2193 4523,2604 4493,2633 4464,2663 4405,2692 4376,2751 4376,2722 4317,2663 4258,2575 4199,2487 4051,2281 4022,2222 3992,2193 3992,2193 "/>
   <polygon class="fil8" points="3405,1018 3405,1018 3405,1047 3405,1018 "/>
   <path class="fil8" d="M1202 2699l0 0 29 -29 0 -29 29 0 0 -59 235 88 0 29 0 118 -29 0 -59 0 -59 0 -29 0 0 -29 0 0 29 -29 0 0 0 0 -30 -59 -29 -29 -59 30 -29 29 0 -29 0 0 0 0zm410 -677l-29 29 0 0 -59 0 -59 30 -29 0 -29 0 29 29 0 0 0 0 30 59 29 29 0 88 147 -265 0 0 0 0 -29 0 0 0 0 0 0 0zm-59 59l0 0 0 59 -29 29 0 -29 -29 0 0 0 -29 -29 0 0 59 -30 29 0 0 0 0 0zm-293 471l29 -59 147 88 -177 -29 0 0 0 0zm29 -147l58 -206 0 0 0 -118 29 -118 29 -59 29 -29 59 -30 0 0 0 0 29 0 59 -59 59 0 59 29 0 29 29 0 0 0 29 29 59 59 -29 88 -88 118 -58 177 -88 235 0 0 29 0 -294 -146 0 0 0 0zm558 -442l29 0 30 59 -29 118 -59 118 -29 29 -88 177 -29 88 0 29 0 0 -29 -29 -29 -29 58 -235 88 -147 59 -118 29 -59 0 0 0 0zm88 0l59 29 29 0 0 29 0 0 30 88 -29 59 -29 59 -117 147 -59 59 -29 0 -59 30 88 -147 29 -59 59 -147 29 -88 0 -59 0 0 0 0zm-293 706l0 29 0 59 0 29 0 0 -29 29 0 -59 0 -59 29 -29 0 0 0 0zm-59 0l0 0 -29 -29 0 -29 0 0 29 0 0 59 0 0 0 0zm-265 -205l118 88 59 29 59 0 -29 29 -29 -29 -59 -29 -118 -88 0 0 0 0z"/>
   <polygon class="fil11" points="1354,5257 1413,5198 1531,5139 1678,5109 1737,5109 1795,5109 1795,5168 1796,5227 1766,5286 1766,5286 1737,5286 1737,5315 1796,5403 1826,5521 1826,5550 1767,5521 1590,5580 1444,5757 1356,6051 1238,6022 1150,6052 1502,5522 1062,6081 974,5993 885,5964 768,5964 1531,5374 709,5994 650,5935 591,5847 473,5759 326,5700 473,5671 679,5641 679,5817 679,5847 709,5876 797,5876 885,5788 973,5670 1031,5552 1002,5523 1002,5493 1178,5405 1354,5257 1354,5257 "/>
   <polygon class="fil12" points="2973,5636 3002,5666 3003,5783 2973,5930 2915,6107 2797,6166 2651,6225 2562,6255 2474,6284 2415,6343 2445,6314 2503,6225 2591,6049 2620,5872 2591,5784 2620,5843 2679,5931 2680,6049 2621,6137 2621,6137 2680,6137 2797,6078 2856,5989 2944,5901 2973,5783 2973,5636 2973,5636 "/>
   <path class="fil13" d="M827 6288l177 58 88 88 88 29 88 0 59 -59 89 176 147 147 -29 29 -29 29 0 0 -29 0 -29 29 -59 0 -59 -29 0 0 -265 -176 -29 0 -88 -29 -88 -29 -88 59 -29 -29 -29 -29 -30 -59 -29 0 -59 -29 -59 0 0 -59 29 -29 -29 0 -29 -29 -29 0 -59 30 -88 30 29 -59 59 -30 29 0 0 -29 -29 -29 -59 -29 88 -30 118 0 118 29 147 59 0 0 0 0zm1295 380l29 0 -29 0 -30 -118 -30 -88 0 -29 88 -147 176 -147 117 -88 59 -88 59 -88 0 -88 0 59 29 29 -29 177 -88 147 -88 88 0 59 0 29 29 29 29 0 0 0 0 -29 29 -29 59 -59 118 -30 147 -59 118 -59 59 -59 59 -30 29 0 59 -30 88 0 29 0 29 29 0 29 29 0 59 -30 29 0 0 0 0 29 -29 29 -59 30 -117 88 -59 118 -59 59 0 29 0 29 0 0 0 29 -29 88 -29 59 -59 59 0 29 -59 30 29 29 29 29 -147 30 -59 0 -59 0 0 0 0 0 0 0 59 -30 59 -59 88 -147 59 -88 0 -29 0 0 0 0 -29 0 -59 118 -117 118 -59 30 -59 30 0 0 -235 0 -176 0 -118 0 -29 -29 29 -59 29 -29 0 0 0 0zm323 -118l0 0 -59 30 -29 0 0 0 59 29 29 0 88 0 118 -30 117 -118 29 -59 29 -29 0 -29 0 0 -59 0 -118 30 -118 59 -88 118 0 0 0 0zm29 29l0 -29 59 -59 59 -59 176 -30 -29 59 -59 59 -88 30 -118 30 0 0 0 0 0 0zm1265 233l0 88 0 59 59 59 29 29 59 29 29 0 0 0 -29 29 -29 29 -59 59 -147 59 -147 30 -147 -29 0 0 -59 0 -88 30 -118 30 -88 59 0 -29 29 -59 59 -59 0 -29 -29 0 -59 30 -118 59 29 -88 88 -59 235 -59 206 -89 176 -89 117 -88 0 0 0 0zm1970 -533l59 -147 0 -118 -59 -118 -59 -118 -88 -117 -59 -176 -30 -118 0 -118 58 -177 59 -88 59 -59 88 -59 88 0 147 0 118 29 29 29 118 147 30 176 0 29 -58 177 -88 88 0 -29 -59 -118 -59 -88 -59 -59 -29 -29 29 -59 29 -29 29 -29 29 29 0 0 59 0 0 -29 -29 -29 -30 -59 -29 -29 -59 0 -59 0 -59 30 -29 0 -59 88 -29 88 0 147 59 147 89 176 118 206 30 118 0 118 -29 235 -58 177 -147 118 -176 89 -147 0 -147 0 -235 -58 -177 -88 -88 -59 0 -59 -30 -176 -59 -118 -59 -59 -59 -59 29 0 235 88 236 117 177 88 177 29 147 0 117 -88 0 0 0 0zm-3881 684l-30 -59 0 -29 0 -29 0 0 -29 0 -29 -29 -118 -59 -177 -176 -89 -235 29 -265 88 -324 147 -147 147 -30 118 0 88 59 206 147 118 176 59 59 29 29 -88 59 -176 147 -88 147 0 59 30 88 30 118 -29 59 -59 30 0 0 29 29 88 29 88 29 118 0 118 0 176 -30 29 0 88 -59 -59 59 -29 0 0 0 0 29 0 0 29 29 59 0 118 0 176 -30 0 -29 -59 -29 -29 -29 0 0 0 0 29 -29 59 -59 59 -88 0 -88 0 -29 29 -59 29 -29 88 -59 117 -88 176 -89 206 -59 235 -59 265 -1 324 58 29 29 59 59 88 88 30 206 -29 177 0 0 0 0 59 88 88 59 118 59 30 88 0 59 -59 88 -59 59 -59 59 -59 59 -118 30 -176 0 -118 0 59 -30 29 -29 -59 0 -59 30 -88 30 -59 0 0 -29 59 -30 0 -29 0 -29 -29 29 -29 29 -29 29 -29 29 -29 0 59 -59 59 -59 29 -29 0 0 -29 0 -59 0 29 -29 88 0 265 -1 29 0 29 0 59 0 29 -29 0 -88 -59 -118 0 0 -29 0 0 0 -59 0 -177 -29 -235 -58 -88 -88 -88 -88 -29 -29 0 29 -29 29 -29 29 -88 88 -118 59 -147 89 -176 89 -235 89 -235 30 -206 30 -147 0 -118 0 -59 -29 0 -29 0 -88 0 -29 -29 0 0 29 -29 59 29 29 -29 88 -29 59 0 0 -29 0 29 29 0 0 -29 29 0 29 -59 -29 -59 -29 -147 -29 -29 0 -59 0 -176 0 -235 0 -235 -88 0 0 -59 0 -59 59 0 29 -29 29 0 0 -29 -29 -29 -29 -29 -29 -118 0 -176 30 29 -29 59 -30 29 -29 0 0 -29 0 -29 -29 -59 0 -88 0 -59 30 -29 0 88 -59 88 -59 29 0 0 0 0 -29 0 -59 59 0 118 0 118 0 147 59 0 0 0 0 147 -30 176 0 177 29 88 0 29 29 29 -29 0 0 0 0z"/>
   <polygon class="fil8" points="4527,4721 4498,4810 4527,4927 4557,4957 4557,4986 4557,4986 4557,4986 4586,5074 4586,5074 4587,5133 4557,5162 4440,5369 4352,5516 4323,5634 4323,5722 4323,5751 4323,5781 4323,5810 4235,5840 4147,5869 4088,5899 4000,5987 3882,5987 3765,6017 4000,5781 4146,5575 4234,5398 4263,5369 4263,5340 4263,5310 4293,5281 4322,5134 4292,5016 4263,4957 4174,4810 4027,4634 3938,4517 3879,4399 3997,4340 4055,4281 4114,4252 4173,4251 4203,4310 4232,4369 4232,4369 4232,4369 4232,4398 4291,4487 4380,4604 4527,4721 4527,4721 "/>
   <polygon class="fil8" points="647,4523 647,4464 647,4347 676,4200 734,4023 764,3994 793,3935 851,3758 881,3670 910,3611 939,3611 998,3611 1086,3611 1116,3640 1175,3699 1293,3787 1381,3816 1469,3875 1587,3933 1558,3992 1587,4021 1617,4080 1646,4109 1646,4139 1646,4168 1676,4198 1676,4227 1647,4227 1588,4257 1529,4316 1411,4169 1293,4022 1146,3905 1087,3846 1058,3846 1058,3846 999,3875 969,3905 881,4023 881,4023 881,4023 882,4111 882,4199 882,4287 823,4346 794,4376 764,4347 764,4376 765,4405 765,4464 735,4494 706,4494 706,4523 765,4523 824,4523 853,4552 853,4552 853,4582 794,4611 736,4670 677,4729 618,4788 589,4759 589,4729 588,4641 588,4582 588,4553 618,4523 618,4523 677,4582 647,4523 647,4523 "/>
   <polygon class="fil11" points="3121,5989 3032,6019 3003,6019 3003,6019 3003,6019 2974,6048 2944,6078 3003,5901 3032,5754 3002,5636 3002,5607 2973,5607 2973,5636 2944,5842 2856,5960 2768,6048 2680,6107 2709,6019 2709,5990 2679,5843 2620,5755 2620,5696 2590,5549 2502,5431 2414,5373 2384,5285 2384,5285 2443,5226 2531,5137 2619,5108 2649,5225 2649,5313 2649,5372 2649,5402 2619,5402 2590,5431 2738,5901 2768,5901 2825,5401 2767,5401 2766,5372 2766,5313 2766,5196 2736,5078 2884,5078 3001,5077 3148,5077 3325,5106 3678,5135 3854,5135 3972,5105 3913,5193 3884,5340 3884,5340 2972,5225 3855,5370 3767,5399 3649,5458 3561,5488 3532,5576 3532,5576 3532,5606 3502,5606 2943,5372 3443,5606 3297,5694 3238,5753 3179,5842 3121,5989 3121,5989 "/>
   <polygon class="fil6" points="2322,3696 2322,3726 2293,3814 2234,3873 2175,3903 2087,3844 2057,3815 2057,3785 2057,3756 2057,3756 2028,3726 2175,3726 2322,3696 2322,3696 "/>
   <polygon class="fil6" points="1617,3962 1616,3904 1616,3904 1616,3874 1616,3815 1616,3757 1616,3698 1675,3727 1793,3727 2028,3756 2028,3756 1999,3815 1911,3903 1793,4021 1734,4050 1646,4051 1617,4021 1617,3962 1617,3962 "/>
   <polygon class="fil6" points="2557,3666 2528,3755 2469,3814 2440,3814 2381,3784 2351,3726 2351,3696 2381,3696 2440,3637 2557,3578 2557,3666 2557,3666 "/>
   <polygon class="fil6" points="2614,2872 2761,2813 2938,2695 2967,2695 2967,2695 2967,2724 2909,2842 2879,2872 2850,2901 2820,2901 2791,2842 2791,2872 2762,2960 2703,2990 2615,2990 2615,2931 2614,2872 2614,2872 "/>
   <polygon class="fil6" points="2085,2873 2085,2844 2291,2902 2291,2932 2262,2961 2203,2991 2144,2961 2085,2873 2085,2873 "/>
   <polygon class="fil6" points="1820,2786 1761,2756 1732,2727 1673,2639 1673,2639 1702,2668 1791,2727 1908,2785 2056,2844 2056,2873 2056,2903 2026,2903 1967,2903 1938,2844 1879,2785 1850,2756 1850,2785 1820,2786 1820,2786 "/>
   <polygon class="fil6" points="2497,2961 2468,3020 2409,3049 2350,2990 2320,2932 2320,2902 2497,2902 2497,2961 2497,2961 "/>
   <path class="fil6" d="M1523 1433l0 -59 118 88 59 147 0 59 29 0 0 -59 29 -88 59 -59 59 -30 29 -29 0 29 0 29 0 0 0 29 0 88 0 0 0 29 0 88 -29 29 -29 0 -29 0 -29 29 59 0 29 29 0 29 0 0 0 29 59 59 118 0 0 -29 0 -29 0 -29 -30 -118 -59 -59 -29 -29 0 -29 0 0 59 -59 29 -29 59 0 118 0 88 -30 0 0 -29 88 -29 59 -29 59 -29 29 29 0 59 -59 59 -59 29 -29 88 0 0 0 1 294 30 294 -147 -59 -88 -59 -88 -29 -29 0 -29 0 -29 0 0 0 0 0 -29 -29 -29 -29 -88 0 -59 -29 -29 0 -30 -59 -59 -29 -29 -29 0 0 0 -29 0 0 -59 -59 0 0 -30 -59 -88 -117 0 -29 0 -29 0 0 0 -29 0 0 0 0zm1000 145l59 -30 0 0 0 0 0 0 -29 88 -29 29 0 -88 0 0 0 0zm0 176l59 -30 29 -59 0 -29 59 0 29 29 88 117 0 0 0 0 -29 0 -59 30 -29 29 -29 29 0 0 -29 0 -59 -59 30 59 30 59 29 0 0 0 29 -29 59 -30 59 -30 29 0 59 59 59 88 0 -29 0 29 29 29 0 0 0 29 -59 30 -29 29 -29 0 0 0 -29 -29 -29 0 0 29 0 0 0 0 0 0 59 29 0 0 29 0 29 0 59 -30 29 0 0 29 59 29 -29 29 0 0 0 29 0 0 0 29 -88 -29 -59 30 0 29 0 29 -29 0 -29 0 -59 -29 -206 -88 -30 -441 0 0 0 0zm-1059 61l-29 0 -88 0 -118 -59 88 -30 59 0 59 29 29 -29 -88 -59 -59 -59 0 -59 -29 -29 88 0 29 29 0 29 0 0 0 0 29 -29 0 0 -29 -29 0 -118 0 -29 29 29 59 59 0 29 0 29 30 118 88 88 29 29 -59 0 -88 59 -29 0 0 0 0 0z"/>
   <path class="fil9" d="M2678 5402l0 0 0 -29 0 -29 0 -88 -30 -118 -1 -294 -30 -382 -30 -412 -30 -471 -31 -971 0 0 29 0 182 2823 59 0 0 59 -29 118 0 147 -29 88 -30 -88 -30 -147 -59 -118 0 -59 29 -29 29 0 0 0 0 0zm-183 -3147l-30 -412 -30 -353 -1 -265 0 -88 0 -59 29 0 0 59 0 59 30 118 0 147 30 382 30 441 -59 -29 0 0 0 0z"/>
   <polygon class="fil8" points="3175,3812 3205,3959 3235,4106 3264,4253 3294,4371 3324,4459 3294,4518 3265,4547 3206,4548 3147,4577 3089,4607 3030,4636 3030,4636 2912,4725 2853,4725 2795,4695 2824,4666 2853,4636 2883,4578 2912,4578 2912,4578 3029,4430 3059,4401 3088,4401 3088,4371 3088,4371 3088,4342 3088,4254 3029,4136 2970,4048 2881,3931 2881,3813 2881,3783 2881,3783 2852,3754 2881,3725 2969,3724 3028,3754 3116,3783 3175,3812 3175,3812 "/>
   <polygon class="fil9" points="4112,3340 4230,3281 4230,3369 4201,3516 4172,3693 4055,3869 3879,4046 3585,4194 3261,4253 3231,4077 3231,4018 3437,4047 3555,4017 3731,3958 3849,3870 3966,3781 4025,3693 4083,3575 4113,3428 4112,3340 4112,3340 "/>
   <polygon class="fil9" points="2970,4224 2852,4166 2793,4107 2764,3990 2705,3931 2705,3813 2675,3696 2704,3460 2704,3460 2704,3490 2734,3607 2763,3666 2793,3725 2822,3754 2822,3784 2822,3813 2852,3931 2940,4077 3029,4224 2970,4224 2970,4224 "/>
   <polygon class="fil14" points="4115,3369 4116,3399 4086,3516 4057,3634 3940,3781 3734,3929 3587,3988 3440,4018 3352,4018 3264,3989 3205,3812 3204,3724 3145,3606 3086,3489 3027,3401 3027,3401 3115,3371 3204,3312 3262,3283 3321,3253 3292,3283 3321,3341 3351,3371 3380,3400 3410,3400 3410,3400 3439,3371 3439,3429 3439,3459 3498,3459 3586,3459 3674,3429 3704,3458 3792,3458 3910,3399 3968,3399 4115,3369 4115,3369 "/>
   <polygon class="fil15" points="2733,3490 2733,3460 2733,3460 2733,3460 2704,3401 2704,3313 2703,3254 2733,3196 2850,3048 2909,2989 2938,2989 2997,3019 3056,3048 3085,3048 3115,3077 3174,3165 3203,3224 3233,3253 3174,3283 3115,3342 3027,3371 2998,3371 2968,3401 2998,3430 3057,3489 3086,3577 3146,3695 3175,3783 3116,3754 3028,3695 2940,3695 2881,3695 2822,3725 2763,3637 2733,3490 2733,3490 "/>
   <polygon class="fil8" points="3997,3046 4145,3163 4262,3222 4145,3310 4057,3340 3968,3370 3910,3370 3850,3223 3821,3223 3880,3399 3792,3429 3733,3429 3704,3399 3704,3399 3703,3252 3674,3223 3674,3282 3674,3341 3674,3400 3616,3400 3527,3429 3469,3429 3469,3429 3468,3341 3468,3312 3439,3282 3409,3312 3380,3371 3351,3341 3351,3283 3351,3253 3380,3253 3409,3224 3409,3224 3439,3224 3439,3194 3409,3194 3350,3194 3262,3224 3262,3224 3262,3224 3085,3018 2938,2960 2938,2930 3144,2901 3144,2901 3291,2783 3349,2724 3320,2812 3262,2900 3232,2959 3232,2959 3262,3018 3321,3077 3409,3077 3438,3047 3468,3018 3468,2988 3497,2929 3585,2811 3585,3047 3585,3076 3615,3135 3703,3105 3762,3046 3762,3105 3850,3017 3850,3017 3850,3017 3850,3017 3938,3046 3997,3046 3997,3046 3997,3046 "/>
   <polygon class="fil8" points="3379,2665 3291,2724 3232,2783 3144,2871 3114,2871 3056,2871 2997,2901 2938,2901 2967,2842 3026,2783 3114,2695 3232,2606 3320,2606 3349,2606 3379,2635 3379,2635 3349,2635 3379,2665 3379,2665 "/>
   <polygon class="fil8" points="3552,2723 3406,2988 3376,3018 3347,3047 3318,3047 3259,2989 3229,2959 3259,2900 3347,2782 3376,2694 3376,2694 3376,2665 3405,2694 3494,2753 3523,2753 3552,2723 3552,2723 "/>
   <polygon class="fil8" points="3729,2693 3729,2693 3729,2693 3758,2635 3787,2635 3817,2634 3906,2840 3935,2899 3965,2987 3935,3017 3906,3017 3847,2987 3818,2958 3817,2899 3817,2899 3788,2899 3788,3017 3759,3017 3759,2929 3729,2988 3641,3076 3583,3106 3582,3047 3582,2694 3640,2664 3670,2664 3670,2694 3729,2693 3729,2693 "/>
   <polygon class="fil8" points="3466,1900 3319,2077 3319,1930 3289,1812 3318,1635 3376,1488 3406,1459 3406,1488 3494,1488 3524,1488 3700,1488 3671,1517 3671,1517 3612,1517 3553,1606 3465,1694 3436,1782 3436,1871 3466,1900 3466,1900 3466,1900 "/>
   <polygon class="fil8" points="3287,2488 3287,2488 3375,2429 3463,2370 3522,2312 3551,2282 3640,2223 3698,2164 3757,2076 3816,2076 3904,1987 3787,2223 3787,2223 3757,2252 3728,2370 3758,2458 3787,2546 3787,2546 3787,2576 3787,2576 3787,2605 3758,2576 3729,2605 3699,2635 3670,2635 3611,2635 3552,2694 3523,2694 3494,2723 3435,2665 3376,2635 3376,2635 3376,2606 3346,2577 3228,2547 3258,2518 3287,2488 3287,2488 "/>
   <polygon class="fil10" points="4462,1780 4492,1780 4551,1809 4639,1809 4757,1838 4845,1838 4992,1838 5021,1867 5051,1867 5198,1896 5286,1896 5374,1925 5404,1925 5404,1955 5345,1984 5228,2073 5198,2073 5051,2014 4845,1927 4521,1839 4462,1780 4462,1780 "/>
   <path class="fil15" d="M2376 1196l-59 -147 0 -59 59 -30 0 29 0 29 0 29 29 0 0 88 0 118 -30 -59 0 0 0 0zm117 -118l29 29 0 88 0 0 -29 29 0 -147 0 0 0 0zm0 -88l0 0 29 -29 0 29 59 59 30 59 0 29 59 118 30 59 177 147 88 117 29 29 0 29 0 0 0 0 0 0 29 0 0 0 0 0 29 -59 0 29 29 0 0 0 29 -29 0 0 0 88 0 118 0 29 0 0 0 0 0 0 -88 30 -88 30 -59 -29 -147 -206 -118 -176 -59 -147 -30 -59 29 -59 0 -88 -59 -59 0 -59 0 0 0 0z"/>
   <polygon class="fil8" points="3082,1548 3141,1489 3229,1459 3259,1459 3318,1488 3318,1488 3289,1636 3259,1783 3230,1812 3142,1812 3142,1783 3142,1665 3141,1577 3141,1548 3112,1548 3082,1548 3082,1548 3082,1548 "/>
   <polygon class="fil15" points="3260,2224 3319,2165 3378,2047 3466,1959 3524,1900 3554,1929 3613,1929 3613,1929 3613,1929 3613,1958 3642,2017 3672,2017 3701,2047 3760,2017 3760,2017 3760,2046 3701,2135 3643,2194 3554,2253 3525,2282 3525,2282 3525,2282 3437,2371 3319,2430 3055,2518 2937,2519 2820,2548 2761,2548 2702,2519 2702,2519 2702,2548 2673,2578 2643,2578 2526,2578 2496,2578 2467,2549 2437,2520 2378,2402 2378,2343 2437,2314 2525,2314 2584,2313 2584,2343 2613,2343 2613,2313 2613,2255 2672,2313 2672,2343 2672,2372 2819,2401 2819,2372 2996,2283 3143,2253 3201,2224 3231,2224 3260,2224 3260,2224 3260,2224 "/>
   <path class="fil8" d="M3495 1870l-29 -29 0 -59 29 -88 59 -59 59 -59 59 -30 88 88 206 88 0 0 0 118 -29 118 -59 59 -29 29 -29 0 -29 -29 29 -88 58 -177 -29 -29 -29 88 -29 118 -59 59 -29 29 -29 -29 0 0 0 0 0 0 -29 -29 0 -29 0 -29 59 -88 59 -147 0 -29 -29 59 -29 29 -88 177 -29 0 0 0 0 0 0 0 -30 -59 0 0 0 -29 0 0 59 -118 88 -88 0 0 0 -29 -29 0 -59 30 -29 59 -59 147 0 0 -29 29 0 29 0 0 0 0zm205 -353l59 0 59 0 88 29 30 59 29 0 0 0 0 0 0 59 0 29 -177 -88 -88 -88 0 0 0 0z"/>
   <path class="fil15" d="M3729 1193l30 59 59 59 0 0 -29 29 -29 59 -265 1 0 -29 29 -59 88 -59 59 -30 29 -29 0 0 29 0 0 0 0 0 0 0zm-59 -29l-59 59 -88 59 -59 0 -59 -29 29 0 29 -29 -59 0 0 0 0 -29 -29 -29 0 0 -29 0 0 -59 -30 -88 59 0 0 0 29 29 0 29 0 0 0 0 29 -59 29 -29 59 0 29 0 30 59 0 29 59 59 29 29 0 0 0 0z"/>
   <line class="fil2 str1" x1="6644" y1="63" x2="6649" y2= "7569" />
   <line class="fil2 str1" x1="72" y1="7541" x2="6648" y2= "7539" />
  </g>
 </g>
</svg>
