<?xml version="1.0" encoding="UTF-8"?>
<!DOCTYPE svg PUBLIC "-//W3C//DTD SVG 1.1//EN" "http://www.w3.org/Graphics/SVG/1.1/DTD/svg11.dtd">
<!-- Creator: CorelDRAW 2019 (64-Bit) -->
<svg xmlns="http://www.w3.org/2000/svg" xml:space="preserve" width="1418px" height="1772px" version="1.1" style="shape-rendering:geometricPrecision; text-rendering:geometricPrecision; image-rendering:optimizeQuality; fill-rule:evenodd; clip-rule:evenodd"
viewBox="0 0 141800000 177200000"
 xmlns:xlink="http://www.w3.org/1999/xlink"
 xmlns:xodm="http://www.corel.com/coreldraw/odm/2003">
 <defs>
  <style type="text/css">
   <![CDATA[
    .str0 {stroke:#CA2B25;stroke-width:1417000;stroke-miterlimit:4}
    .fil4 {fill:none}
    .fil5 {fill:black}
    .fil3 {fill:#CA2B25}
    .fil1 {fill:#D38326}
    .fil2 {fill:#F9C407}
    .fil0 {fill:white}
   ]]>
  </style>
 </defs>
 <g id="Слой_x0020_1">
  <metadata id="CorelCorpID_0Corel-Layer"/>
  <path class="fil0" d="M70900000 177183000c-609000,-8635000 -7808000,-15452000 -16547000,-15452000l-40186000 0c-7423000,0 -13531000,-5765000 -14133000,-13080000l0 -148634000 141732000 0 0 148634000c-602000,7315000 -6710000,13080000 -14133000,13080000l-40186000 0c-8739000,0 -15938000,6817000 -16547000,15452000z"/>
  <path class="fil1" d="M97053000 53164000c0,-14443000 -11710000,-26153000 -26153000,-26153000 -14443000,0 -26152000,11710000 -26152000,26153000 0,14443000 11709000,26151000 26152000,26151000 14443000,0 26153000,-11708000 26153000,-26151000z"/>
  <path class="fil2" d="M48393000 53164000c0,-12430000 10077000,-22507000 22507000,-22507000 12430000,0 22507000,10077000 22507000,22507000 0,12430000 -10077000,22506000 -22507000,22506000 -12430000,0 -22507000,-10076000 -22507000,-22506000z"/>
  <polygon class="fil3" points="64636000,27793000 70899000,21529000 77163000,27793000 "/>
  <polygon class="fil3" points="53563000,33609000 56199000,25152000 64656000,27788000 "/>
  <polygon class="fil3" points="46462000,43904000 44866000,35191000 53579000,33596000 "/>
  <polygon class="fil3" points="44958000,56321000 39496000,49347000 46470000,43885000 "/>
  <polygon class="fil3" points="49396000,68014000 41319000,64377000 44956000,56300000 "/>
  <polygon class="fil3" points="58760000,76306000 49918000,76839000 49385000,67996000 "/>
  <polygon class="fil3" points="70903000,79297000 63322000,83877000 58741000,76296000 "/>
  <polygon class="fil3" points="83047000,76302000 78462000,83881000 70883000,79297000 "/>
  <polygon class="fil3" points="92407000,68007000 91869000,76849000 83028000,76311000 "/>
  <polygon class="fil3" points="96842000,56312000 100474000,64392000 92395000,68024000 "/>
  <polygon class="fil3" points="95334000,43897000 102304000,49363000 96839000,56333000 "/>
  <polygon class="fil3" points="88229000,33604000 96941000,35204000 95341000,43917000 "/>
  <polygon class="fil3" points="77156000,27791000 85613000,25160000 88245000,33618000 "/>
  <line class="fil4 str0" x1="70900000" y1="9124000" x2="70900000" y2= "19753000" />
  <line class="fil4 str0" x1="70900000" y1="86573000" x2="70900000" y2= "97202000" />
  <line class="fil4 str0" x1="76494000" y1="10672000" x2="75261000" y2= "20039000" />
  <line class="fil4 str0" x1="66539000" y1="86287000" x2="65306000" y2= "95655000" />
  <line class="fil4 str0" x1="59502000" y1="10625000" x2="62253000" y2= "20892000" />
  <line class="fil4 str0" x1="79547000" y1="85434000" x2="82298000" y2= "95702000" />
  <line class="fil4 str0" x1="65306000" y1="10672000" x2="66539000" y2= "20039000" />
  <line class="fil4 str0" x1="75261000" y1="86287000" x2="76494000" y2= "95655000" />
  <line class="fil4 str0" x1="48880000" y1="15025000" x2="54195000" y2= "24230000" />
  <line class="fil4 str0" x1="87604000" y1="82097000" x2="92920000" y2= "91302000" />
  <line class="fil4 str0" x1="54499000" y1="13568000" x2="58115000" y2= "22297000" />
  <line class="fil4 str0" x1="83685000" y1="84030000" x2="87301000" y2= "92759000" />
  <line class="fil4 str0" x1="39760000" y1="22023000" x2="47275000" y2= "29539000" />
  <line class="fil4 str0" x1="94524000" y1="76787000" x2="102040000" y2= "84304000" />
  <line class="fil4 str0" x1="44810000" y1="19162000" x2="50561000" y2= "26658000" />
  <line class="fil4 str0" x1="91238000" y1="79669000" x2="96990000" y2= "87165000" />
  <line class="fil4 str0" x1="32761000" y1="31144000" x2="41966000" y2= "36459000" />
  <line class="fil4 str0" x1="99833000" y1="69869000" x2="109039000" y2= "75182000" />
  <line class="fil4 str0" x1="36898000" y1="27073000" x2="44394000" y2= "32825000" />
  <line class="fil4 str0" x1="97406000" y1="73502000" x2="104901000" y2= "79254000" />
  <line class="fil4 str0" x1="28362000" y1="41765000" x2="38629000" y2= "44516000" />
  <line class="fil4 str0" x1="103171000" y1="61811000" x2="113438000" y2= "64561000" />
  <line class="fil4 str0" x1="31304000" y1="36762000" x2="40033000" y2= "40378000" />
  <line class="fil4 str0" x1="101767000" y1="65949000" x2="110496000" y2= "69564000" />
  <line class="fil4 str0" x1="26861000" y1="53164000" x2="37490000" y2= "53164000" />
  <line class="fil4 str0" x1="104309000" y1="53164000" x2="114939000" y2= "53163000" />
  <line class="fil4 str0" x1="28409000" y1="47569000" x2="37775000" y2= "48803000" />
  <line class="fil4 str0" x1="104023000" y1="57524000" x2="113391000" y2= "58757000" />
  <line class="fil4 str0" x1="28362000" y1="64561000" x2="38629000" y2= "61810000" />
  <line class="fil4 str0" x1="103171000" y1="44517000" x2="113438000" y2= "41764000" />
  <line class="fil4 str0" x1="28409000" y1="58758000" x2="37775000" y2= "57524000" />
  <line class="fil4 str0" x1="104023000" y1="48803000" x2="113391000" y2= "47569000" />
  <line class="fil4 str0" x1="32761000" y1="75182000" x2="41966000" y2= "69868000" />
  <line class="fil4 str0" x1="99833000" y1="36459000" x2="109039000" y2= "31143000" />
  <line class="fil4 str0" x1="31304000" y1="69565000" x2="40033000" y2= "65949000" />
  <line class="fil4 str0" x1="101767000" y1="40379000" x2="110496000" y2= "36762000" />
  <line class="fil4 str0" x1="39760000" y1="84304000" x2="47275000" y2= "76787000" />
  <line class="fil4 str0" x1="94524000" y1="29540000" x2="102040000" y2= "22022000" />
  <line class="fil4 str0" x1="36898000" y1="79254000" x2="44394000" y2= "73502000" />
  <line class="fil4 str0" x1="97406000" y1="32825000" x2="104901000" y2= "27072000" />
  <line class="fil4 str0" x1="48881000" y1="91302000" x2="54195000" y2= "82096000" />
  <line class="fil4 str0" x1="87605000" y1="24230000" x2="92920000" y2= "15024000" />
  <line class="fil4 str0" x1="44810000" y1="87165000" x2="50562000" y2= "79669000" />
  <line class="fil4 str0" x1="91238000" y1="26658000" x2="96990000" y2= "19161000" />
  <line class="fil4 str0" x1="59502000" y1="95702000" x2="62253000" y2= "85434000" />
  <line class="fil4 str0" x1="79548000" y1="20893000" x2="82298000" y2= "10624000" />
  <line class="fil4 str0" x1="54499000" y1="92760000" x2="58115000" y2= "84030000" />
  <line class="fil4 str0" x1="83686000" y1="22297000" x2="87301000" y2= "13567000" />
  <path class="fil2" d="M23620000 124867000l0 23784000 -23586000 0c602000,7315000 6710000,13080000 14133000,13080000l40186000 0c8739000,0 15938000,6817000 16547000,15452000 609000,-8635000 7808000,-15452000 16547000,-15452000l40186000 0c7423000,0 13531000,-5765000 14133000,-13080000l-23586000 0 0 -23784000 -94560000 0z"/>
  <polygon class="fil3" points="73852000,124867000 67947000,124867000 67947000,102833000 73852000,102833000 "/>
  <polygon class="fil3" points="72745000,120304000 69780000,123289000 55735000,109148000 58700000,106163000 "/>
  <polygon class="fil3" points="69053000,120304000 72018000,123289000 86063000,109148000 83097000,106163000 "/>
  <polygon class="fil3" points="34000,148651000 34000,142705000 17675000,142705000 17675000,118921000 70899000,118921000 124124000,118921000 124124000,142705000 141765000,142705000 141765000,148651000 118178000,148651000 118178000,124867000 70899000,124867000 23620000,124867000 23620000,148651000 "/>
  <g>
   <path class="fil5" d="M70900000 177183000c-609000,-8635000 -7808000,-15452000 -16547000,-15452000l-40186000 0c-7423000,0 -13531000,-5765000 -14133000,-13080000l0 -148634000 141732000 0 0 148634000c-602000,7315000 -6710000,13080000 -14133000,13080000l-40186000 0c-8739000,0 -15938000,6817000 -16547000,15452000zm-4849000 -11420000c2281000,2131000 3986000,4876000 4849000,7971000 863000,-3095000 2568000,-5840000 4849000,-7971000 3072000,-2868000 7187000,-4622000 11698000,-4622000l40186000 0c3544000,0 6774000,-1369000 9194000,-3609000 2435000,-2253000 4053000,-5390000 4349000,-8903000l0 -148024000 -140552000 1000 0 148023000c296000,3513000 1914000,6650000 4349000,8903000 2420000,2240000 5650000,3609000 9194000,3609000l40186000 0c4511000,0 8626000,1754000 11698000,4622000z"/>
  </g>
 </g>
</svg>
