<?xml version="1.0" encoding="UTF-8" standalone="no"?>
<!-- Created with Inkscape (http://www.inkscape.org/) -->

<svg
   width="295.55991mm"
   height="392.3157mm"
   viewBox="0 0 295.55991 392.3157"
   version="1.1"
   id="svg1"
   xml:space="preserve"
   xmlns="http://www.w3.org/2000/svg"
   xmlns:svg="http://www.w3.org/2000/svg"><defs
     id="defs1" /><g
     id="layer3-2"
     style="display:inline"
     transform="translate(-90.34506,25.113267)"><path
       id="rect262"
       d="M 91.345052,-24.113267 H 384.90497 V 318.27983 c 0,13.51139 -10.95315,24.46454 -24.46454,24.46454 l -97.85066,-1.1e-4 c -13.50964,-0.002 -24.46284,10.94842 -24.46458,24.45806 v -0.17615 c -1.1e-4,-13.50563 -10.95933,-24.44838 -24.46495,-24.42818 l -97.85674,0.14638 c -13.50801,0.0202 -24.458448,-10.95042 -24.458448,-24.45844 z"
       style="display:inline;fill:#0069a0;fill-opacity:1;stroke:none;stroke-width:2;stroke-linecap:square;stroke-linejoin:miter;stroke-dasharray:none;paint-order:fill markers stroke" /><path
       id="path22"
       style="color:#000000;display:inline;fill:#00923f;stroke-width:0.999988;stroke-linecap:square;-inkscape-stroke:none;paint-order:fill markers stroke"
       d="M 238.125,173.08562 91.420772,319.79088 c 0.64346,10.54574 7.982364,19.2037 17.808738,21.95267 h 257.76411 c 9.83849,-2.74851 17.1886,-11.3999 17.83509,-21.95267 z" /><path
       id="path23"
       style="color:#000000;display:inline;fill:#000000;stroke-width:0.999988;stroke-linecap:square;-inkscape-stroke:none;paint-order:fill markers stroke"
       d="M 238.125,171.50019 91.344802,318.27986 v 0.006 c 0,1.00713 0.0797,1.99391 0.19792,2.96933 L 238.125,174.67261 384.70623,321.25539 c 0.11876,-0.97731 0.19896,-1.96616 0.19896,-2.97553 v -5.2e-4 z" /><path
       style="color:#000000;fill:#000000;stroke-linejoin:round;-inkscape-stroke:none;paint-order:fill markers stroke;fill-opacity:1"
       d="m 269.40596,55.74588 c -0.0954,6.56e-4 -0.18957,0.01075 -0.28163,0.02894 -0.18192,0.03595 -0.35425,0.102844 -0.51522,0.187069 -0.3518,0.184129 -0.64117,0.422029 -0.87591,0.715718 -0.23177,0.289978 -0.39462,0.614966 -0.5178,0.956014 -0.12218,0.338296 -0.21042,0.706408 -0.28474,1.09089 -0.0742,0.383892 -0.13904,0.809184 -0.20877,1.258321 -0.14081,0.906912 -0.30804,1.963293 -0.62735,3.215307 -0.31888,1.25031 -0.79129,2.700375 -1.54203,4.37286 -0.43023,0.957644 -1.03149,2.04496 -1.73477,3.12229 -0.70309,1.077056 -1.49945,2.13048 -2.31356,3.024622 -0.40668,0.446668 -0.81413,0.849693 -1.21336,1.194242 -0.40017,0.345364 -0.78427,0.625338 -1.1436,0.831991 -0.3613,0.207782 -0.67826,0.330652 -0.94723,0.380855 -0.13272,0.02477 -0.25028,0.03119 -0.35398,0.02377 -0.0385,-0.0028 -0.0696,-0.01717 -0.10542,-0.02377 0.0135,-0.02721 0.0214,-0.04721 0.0388,-0.07906 0.0849,-0.156274 0.20103,-0.341146 0.34984,-0.567924 0.28872,-0.439965 0.68764,-1.01737 1.07229,-1.683618 0.38875,-0.673361 0.77711,-1.459962 1.06712,-2.364197 0.28065,-0.875094 0.53756,-1.763471 0.74052,-2.596741 0.2021,-0.829772 0.3544,-1.621527 0.41962,-2.299084 0.0326,-0.338971 0.0454,-0.664019 0.0269,-0.959115 -0.009,-0.148363 -0.0267,-0.295217 -0.0553,-0.436666 -0.0285,-0.140748 -0.0703,-0.284751 -0.13126,-0.42323 -0.061,-0.138626 -0.146,-0.280976 -0.26561,-0.40876 -0.12217,-0.130524 -0.27434,-0.238938 -0.45527,-0.307992 -0.17969,-0.06858 -0.36293,-0.08913 -0.53795,-0.07803 -0.17223,0.01092 -0.3365,0.05266 -0.48783,0.109554 -0.43011,0.161544 -0.79406,0.388637 -1.10587,0.674894 -0.30908,0.283754 -0.55309,0.612852 -0.7581,0.964282 -0.20367,0.34914 -0.37468,0.730453 -0.5333,1.12448 -0.15755,0.391366 -0.31337,0.822205 -0.47542,1.258321 -0.32838,0.883772 -0.7079,1.858768 -1.29036,2.919201 -0.58109,1.057942 -1.36843,2.208584 -2.51148,3.422014 -0.93529,0.99297 -1.72174,1.79044 -2.45411,2.441711 -0.72959,0.648795 -1.39734,1.14496 -2.09186,1.536857 -0.69257,0.390793 -1.42795,0.687469 -2.29909,0.922941 -0.51112,0.138162 -1.0915,0.251054 -1.7172,0.353984 0.52578,-0.48557 1.16305,-1.079185 1.7725,-1.749764 0.63117,-0.694477 1.25237,-1.492261 1.68258,-2.353862 0.58817,-1.17895 0.90627,-2.340576 1.03301,-3.427181 0.12661,-1.085356 0.0624,-2.093549 -0.11162,-2.968294 -0.087,-0.437515 -0.20211,-0.843544 -0.33538,-1.210779 -0.13308,-0.366697 -0.28551,-0.698732 -0.4501,-0.98702 -0.16324,-0.285903 -0.34579,-0.541447 -0.54209,-0.747241 -0.0987,-0.10345 -0.20728,-0.20063 -0.32556,-0.283703 -0.11701,-0.08219 -0.25657,-0.159656 -0.41651,-0.208773 -0.27419,-0.08433 -0.56412,-0.133096 -0.85266,-0.09974 -0.14762,0.01707 -0.29539,0.05549 -0.43718,0.121957 -0.14255,0.06683 -0.26791,0.156485 -0.37466,0.26355 -0.10524,0.105551 -0.18686,0.223191 -0.24959,0.340547 -0.0624,0.116661 -0.1077,0.235839 -0.14108,0.350883 -0.0656,0.226161 -0.0937,0.46469 -0.10542,0.689881 -0.0119,0.22813 -0.008,0.469058 0.003,0.708483 0.0104,0.239704 0.0285,0.491965 0.046,0.74104 0.0356,0.508453 0.0708,1.01111 0.0636,1.497067 -0.008,0.534275 -0.0145,0.960663 -0.0403,1.3255 -0.0257,0.363351 -0.0682,0.626701 -0.13333,0.835091 -0.0319,0.101901 -0.0688,0.189622 -0.1111,0.267684 -0.0421,0.0777 -0.0921,0.151135 -0.154,0.223759 -0.0771,0.0904 -0.19095,0.187925 -0.32659,0.289905 -0.0343,-0.145197 -0.0733,-0.311022 -0.12351,-0.497127 -0.10968,-0.407128 -0.26604,-0.893866 -0.52038,-1.429887 -0.17274,-0.365234 -0.34828,-0.712468 -0.53743,-1.02061 -0.18898,-0.307857 -0.40681,-0.602741 -0.67438,-0.84801 -0.27427,-0.251414 -0.59703,-0.447245 -0.98082,-0.556038 -0.37972,-0.10764 -0.77619,-0.117458 -1.18391,-0.05736 -0.1531,0.0227 -0.30306,0.0553 -0.44648,0.101802 -0.14356,0.04654 -0.28676,0.108983 -0.4222,0.194304 -0.13699,0.08629 -0.26362,0.194625 -0.37103,0.328662 -0.1079,0.134642 -0.18599,0.282143 -0.23772,0.435632 -0.051,0.151462 -0.0738,0.300603 -0.0801,0.438733 -0.006,0.137349 0.003,0.269436 0.0202,0.391191 0.0335,0.238352 0.10171,0.477217 0.17363,0.696081 0.0724,0.220421 0.16139,0.457663 0.24702,0.687297 0.088,0.235968 0.17679,0.475383 0.26044,0.727604 0.16686,0.503182 0.30597,1.035456 0.35657,1.601453 0.0572,0.639492 0.14291,1.222068 0.19431,1.651578 0.0268,0.224112 0.0453,0.410611 0.0527,0.571542 0.007,0.161615 0.003,0.276793 -0.009,0.360184 -0.0113,0.07991 -0.026,0.113893 -0.032,0.125574 -0.003,0.0056 -0.006,0.0125 -0.0258,0.02739 -0.0248,0.01859 -0.0858,0.05481 -0.20568,0.09198 -0.10874,0.0337 -0.27281,0.06332 -0.4687,0.08785 -0.01,-0.02003 -0.0143,-0.0235 -0.0264,-0.05271 -0.0702,-0.169733 -0.13538,-0.390075 -0.23874,-0.727088 -0.098,-0.319526 -0.2194,-0.70441 -0.39068,-1.131197 -0.23136,-0.579001 -0.49941,-1.094741 -0.80873,-1.535823 -0.30971,-0.441636 -0.66553,-0.815492 -1.07435,-1.100708 -0.4117,-0.287217 -0.86614,-0.476906 -1.35599,-0.558106 -0.48784,-0.08087 -0.98784,-0.05046 -1.49035,0.07235 -0.075,0.0182 -0.15566,0.04373 -0.23771,0.08061 -0.0829,0.03728 -0.17029,0.0879 -0.25477,0.157614 -0.0858,0.07078 -0.1643,0.157913 -0.22686,0.262516 -0.0626,0.10463 -0.10218,0.213977 -0.1235,0.321427 -0.021,0.105786 -0.0234,0.203809 -0.0171,0.290422 0.006,0.08562 0.022,0.163903 0.0398,0.23151 0.0347,0.13176 0.0866,0.252744 0.13591,0.353467 0.0506,0.103177 0.10942,0.206958 0.16847,0.306441 0.0593,0.09996 0.12501,0.205835 0.1912,0.311609 0.13511,0.215921 0.27905,0.443876 0.42581,0.700733 0.29132,0.50985 0.58016,1.110164 0.755,1.812809 0.0453,0.181901 0.0831,0.371225 0.1111,0.567407 0.0801,0.559698 0.0827,1.185715 -0.0455,1.882572 -0.0534,0.297503 -0.17959,0.642374 -0.37983,1.03818 -0.19911,0.393575 -0.45917,0.813831 -0.76119,1.260905 -0.60081,0.889344 -1.34985,1.852663 -2.02003,2.83807 -0.33409,0.491247 -0.65127,0.993426 -0.91829,1.497066 -0.17803,0.335799 -0.327,0.677945 -0.4532,1.02216 -0.58616,-0.150065 -1.19531,-0.252128 -1.8371,-0.275953 -0.35097,-1.487578 -1.00503,-2.812878 -1.63194,-4.017842 -0.75911,-1.459058 -1.46206,-2.75773 -1.65417,-3.884518 -0.27808,-1.631042 -0.0814,-3.136147 0.10336,-4.334102 0.0924,-0.598977 0.18461,-1.113542 0.19947,-1.588017 0.007,-0.237236 -2e-5,-0.469117 -0.0822,-0.72657 -0.0822,-0.257454 -0.28858,-0.559387 -0.58808,-0.708484 -0.49033,-0.244106 -1.01466,-0.343521 -1.49965,-0.217041 -0.48498,0.12648 -0.85642,0.456607 -1.11517,0.822172 -0.51751,0.73113 -0.74703,1.670275 -0.971,2.670121 -0.16674,0.744299 -0.25534,1.549201 -0.37879,2.097546 -0.036,0.15976 -0.0649,0.212365 -0.0997,0.308509 -0.0448,-0.03087 -0.12769,-0.03325 -0.16795,-0.08578 -0.0965,-0.125961 -0.19581,-0.371711 -0.25166,-0.722953 -0.1117,-0.702484 -0.0441,-1.761416 0.0176,-2.817916 0.0468,-0.802253 0.27133,-1.769179 0.31419,-2.665987 0.0214,-0.448404 0.01,-0.896835 -0.19533,-1.344104 -0.20522,-0.447269 -0.69203,-0.830883 -1.23404,-0.921908 -0.45359,-0.07618 -0.91808,0.08907 -1.22886,0.342098 -0.31078,0.253032 -0.51761,0.57067 -0.68937,0.912089 -0.3435,0.682836 -0.54248,1.494195 -0.66972,2.255676 -0.0494,0.295636 -0.0668,0.417381 -0.10181,0.68368 -0.44787,-0.960718 -0.79405,-2.21897 -0.73638,-3.449402 0.0381,-0.813156 0.17037,-1.564335 0.0863,-2.275314 -0.042,-0.355488 -0.15514,-0.78334 -0.54519,-1.07797 -0.39005,-0.294629 -0.88726,-0.296796 -1.32602,-0.187585 -0.73711,0.183476 -1.19653,0.802114 -1.47278,1.484147 -0.27625,0.682033 -0.413,1.501627 -0.44545,2.414323 -0.0649,1.825392 0.29926,4.020915 1.17202,5.98413 0.68225,1.53468 2.16259,2.915534 3.26957,3.965133 -0.78686,-0.248249 -1.48667,-0.576129 -2.10736,-1.07797 -1.03632,-0.837886 -2.00022,-2.108879 -3.21118,-3.908289 -1.31974,-1.96106 -2.00952,-4.156904 -2.62464,-6.029606 -0.30756,-0.936352 -0.59447,-1.79125 -0.96687,-2.517676 -0.37241,-0.726425 -0.85379,-1.368538 -1.5999,-1.681551 -0.33256,-0.139517 -0.86678,-0.0791 -1.15239,0.1757 -0.28561,0.254801 -0.37769,0.540474 -0.44906,0.822689 -0.14273,0.564428 -0.14901,1.227213 -0.10542,1.997811 0.0872,1.541192 0.42357,3.452017 0.85731,4.963004 0.39043,1.360149 1.05332,2.681451 1.48466,3.679879 -2.15755,-1.563636 -3.74464,-4.372359 -4.94181,-7.361825 -1.12324,-2.804807 -1.40962,-4.838034 -1.61903,-6.360852 -0.10471,-0.761409 -0.18238,-1.398968 -0.36897,-1.980757 -0.18658,-0.581791 -0.53968,-1.139697 -1.10536,-1.472779 -0.27082,-0.159461 -0.62265,-0.266037 -0.98237,-0.183451 h -5.1e-4 c -0.35971,0.08259 -0.62477,0.336702 -0.78135,0.581877 -0.31315,0.490349 -0.39406,1.036329 -0.45527,1.701188 -0.12242,1.329719 -0.0235,3.114575 0.13488,4.912362 0.10894,1.236621 0.46597,2.657565 0.60564,3.644222 0.0351,0.247734 0.019,0.295564 0.0212,0.460953 -1.09344,-0.507818 -1.88262,-1.136457 -2.70268,-2.058272 -0.92505,-1.039837 -1.92407,-2.417101 -3.49022,-4.117061 -0.46299,-0.502547 -0.87002,-0.84103 -1.38286,-0.992188 -0.25641,-0.07558 -0.57079,-0.09327 -0.86558,0.03669 -0.29479,0.129956 -0.50674,0.394184 -0.60927,0.646473 -0.20504,0.504578 -0.14739,1.000758 -0.004,1.590083 0.14336,0.589326 0.40962,1.267861 0.81648,2.039152 1.62748,3.085167 5.51246,7.643286 12.9651,12.214759 5.27792,3.237484 10.69815,4.800415 14.80427,5.953125 2.05307,0.576355 3.78181,1.055081 4.95525,1.554427 0.58672,0.249672 1.03015,0.507196 1.29915,0.740523 0.066,0.05725 0.12026,0.110284 0.1664,0.161231 -1.52127,0.639307 -3.00761,1.554631 -4.33256,2.762622 -2.38427,1.16105 -5.19648,1.931293 -7.5432,3.77703 -0.55434,0.123892 -1.11651,0.115844 -1.85726,0.264067 -0.76332,0.152737 -1.64917,0.509381 -2.67942,1.337902 a 0.750075,0.750075 0 0 0 -0.27182,0.478524 c -0.14832,1.052348 -0.39718,2.026574 -0.13849,3.774966 0.0879,0.59405 0.40927,0.94484 0.84543,1.45727 0.40377,0.47437 0.97772,1.06395 1.65623,1.75183 0.0937,0.91571 0.4656,1.68757 1.11931,2.05879 0.75535,0.42894 1.62067,0.43851 2.4846,0.35554 1.72786,-0.16593 3.67717,-0.7662 4.48396,-0.75396 1.29069,0.0196 2.9184,0.49102 3.80287,0.7245 -0.23123,0.38136 -0.36872,0.67974 -0.8263,1.24024 -0.72871,0.89257 -1.67219,1.95495 -2.63085,3.11919 -1.8643,2.26407 -3.76871,4.90777 -4.30258,7.6972 -1.49547,1.93925 -2.22396,4.11347 -2.15801,6.99027 -1.67046,2.68525 -1.59334,5.60755 -1.22886,8.36331 -0.70557,2.09331 -0.32578,4.40795 0.47697,6.75773 0.0232,2.12231 0.47711,4.27487 1.88051,6.24613 -4.97316,0.66555 -9.29169,-0.72508 -14.10509,-0.95705 -1.75921,-0.0848 -3.20416,1.17727 -4.26175,2.42363 -0.5288,0.62319 -0.96239,1.26546 -1.27383,1.81643 -0.15572,0.27548 -0.28147,0.52852 -0.37465,0.75602 -0.068,0.16591 -0.11753,0.31407 -0.14573,0.49558 -0.85761,2.47967 -2.15908,5.17361 -3.28817,7.77575 -1.13424,2.61403 -2.10836,5.12702 -2.23035,7.37526 -0.16166,2.97921 0.77067,7.23241 2.39468,9.69915 0.0937,1.37153 0.85669,2.5671 1.54461,3.67368 0.73879,1.1884 1.30383,2.26617 1.20354,3.06855 a 0.750075,0.750075 0 0 0 1.24592,0.6506 c 0.88995,-0.80332 2.15417,-1.7647 2.95124,-3.40651 1.97758,-1.89625 2.93445,-3.87232 2.51923,-5.97276 -0.32875,-1.66306 -1.60502,-3.34641 -3.34967,-5.16403 0.31274,-0.0963 0.66275,-0.13474 0.86352,-0.3669 0.64236,-0.74283 0.60436,-1.69911 0.50178,-2.63705 -0.10258,-0.93794 -0.35201,-1.90454 -0.57775,-2.65617 -0.11286,-0.37582 -0.2208,-0.69643 -0.30075,-0.92759 -0.0205,-0.0594 -0.0325,-0.0937 -0.0491,-0.14056 0.67916,-2.54282 1.47932,-4.74549 2.27945,-7.00215 1.24348,-0.24149 2.44769,-0.70383 3.58996,-1.18339 0.56285,-0.0114 1.96644,0.37077 3.65611,0.99218 1.71144,0.62941 3.7594,1.45454 5.87664,2.17765 2.11726,0.72311 4.30216,1.34697 6.33398,1.55856 1.61836,0.16853 3.10166,-0.0557 4.41214,-0.63459 0.42941,2.2717 -0.3157,4.9938 -1.36684,7.25176 -1.17007,2.51343 -2.56057,4.36924 -2.56057,4.36924 l 0.0372,-0.045 c -1.02439,1.16368 -1.41631,2.67771 -1.59215,4.28501 -0.17584,1.6073 -0.13895,3.34544 -0.20309,5.07411 -0.1263,3.40328 -2.84613,9.62809 -5.81257,13.36714 -0.32444,0.40894 -0.44476,0.85922 -0.58756,1.55081 -0.13558,0.65667 -0.2112,1.50716 -0.18758,2.46135 -0.95491,1.55543 -1.07514,3.40558 -1.02733,5.03483 0.0255,0.86974 0.084,1.68169 0.0822,2.33785 -0.002,0.65616 -0.0928,1.14878 -0.18965,1.32446 a 0.750075,0.750075 0 0 0 0.81442,1.09348 c 0,0 0.74114,-0.15937 1.61541,-0.447 0.0746,-0.0245 0.15188,-0.066 0.22737,-0.093 0.0175,0.0117 0.0323,0.006 0.0522,-0.0212 0.68658,-0.25035 1.39825,-0.58537 1.99781,-1.04593 2.1124,-0.14457 4.10651,-1.03567 5.12268,-3.07216 0.86277,-1.72908 0.81999,-4.33917 0.11524,-7.60574 0.29952,0.11475 0.59716,0.25467 0.90847,0.21084 0.89596,-0.12614 1.4052,-0.85507 1.73633,-1.55856 0.33113,-0.70349 0.52554,-1.49483 0.64854,-2.17351 0.123,-0.67869 0.17679,-1.14654 0.15968,-1.51361 -0.27245,-5.84401 1.36659,-10.60828 3.68763,-13.00592 0.39073,-0.40362 0.62343,-0.91295 1.02164,-1.6955 0.39821,-0.78257 0.89196,-1.79779 1.51154,-2.9962 1.18405,-2.29028 2.90393,-5.30233 5.16609,-8.51576 7.80155,2.01116 14.76161,1.36529 21.52169,0.41444 2.79681,5.97891 6.48909,9.15433 9.90637,11.39259 3.51865,2.30467 6.6438,3.72169 8.38657,6.3593 0.0866,0.1311 0.23544,0.56293 0.3085,1.16995 0.0731,0.60702 0.0947,1.38786 0.0703,2.27325 -0.0487,1.77079 -0.27941,3.96099 -0.59944,6.13864 -0.32004,2.17769 -0.7279,4.3468 -1.12345,6.09369 -0.39555,1.7469 -0.8348,3.14898 -1.00562,3.4711 a 0.750075,0.750075 0 0 0 -0.0822,0.2558 c -2.3e-4,0.002 -0.0767,0.20904 -0.26148,0.43719 -0.1848,0.22814 -0.4497,0.48684 -0.71675,0.71881 -0.53408,0.46392 -1.06247,0.81649 -1.06247,0.81649 a 0.750075,0.750075 0 0 0 -0.047,0.0351 c -0.87494,0.69031 -1.14546,1.73316 -1.68156,2.73627 -0.53611,1.0031 -1.21557,1.97529 -2.50424,2.6386 a 0.750075,0.750075 0 0 0 -0.18706,1.19734 c 1.53982,1.53985 3.88502,1.59064 4.11912,1.5937 5.65876,3.40922 10.69416,-2.1738 9.7808,-6.29677 0.47045,0.0524 0.90314,0.0105 1.3069,-0.1602 0.81718,-0.3454 1.23147,-1.17999 1.38648,-2.08566 0.31002,-1.81133 -0.0715,-4.41121 -0.42375,-7.81451 -0.40201,-3.88388 0.56725,-8.62211 1.17771,-14.52159 0.69344,0.64685 1.3083,1.58958 1.72082,3.07629 0.57502,2.07237 0.82347,4.76619 0.85163,7.4843 0.0282,2.71812 -0.1573,5.46475 -0.41806,7.6755 -0.26075,2.21074 -0.65624,3.98691 -0.82217,4.36718 a 0.750075,0.750075 0 0 0 -0.0119,0.0294 c -0.78928,2.03832 -1.84288,3.56911 -3.15433,4.62504 l 0.10387,-0.0703 c -1.38664,0.77652 -2.19955,2.17207 -2.99258,3.34192 -0.79303,1.16986 -1.52153,2.05464 -2.38435,2.24999 a 0.750075,0.750075 0 0 0 -0.34985,1.27744 c 0.33435,0.31507 0.69589,0.55985 1.0542,0.75344 -3e-5,3.1e-4 3e-5,0.001 0,0.002 -0.009,0.0936 0.005,0.0947 0.1297,0.0574 1.06129,0.53645 2.06851,0.63069 2.23243,0.64234 3.22965,1.76641 6.12872,1.61655 8.07186,0.13281 1.63347,-1.24732 2.34427,-3.38131 2.44171,-5.70094 0.43848,0.22521 0.97121,0.42028 1.57613,0.2775 0.6394,-0.15092 1.19413,-0.69443 1.50378,-1.4826 0.30966,-0.78817 0.45901,-1.85396 0.44132,-3.37499 a 0.750075,0.750075 0 0 0 -0.002,-0.0232 c -0.42052,-9.6543 -0.0227,-18.78659 0.13901,-28.02775 a 0.750075,0.750075 0 0 0 -0.26975,-0.58756 c -6.67083,-5.58791 -4.82038,-15.09779 -4.82038,-15.09779 a 0.750075,0.750075 0 0 0 0.006,-0.03 c 0.55117,-3.4747 0.28835,-6.78421 0.0486,-10.04021 0.42881,-0.0114 0.75631,0.0104 1.61747,-0.13333 1.28656,-0.21469 2.82588,-0.57723 3.61684,-1.81022 a 0.750075,0.750075 0 0 0 -0.25942,-1.05524 c -1.41289,-0.81002 -3.03863,-3.24123 -5.09788,-5.95674 -2.05924,-2.71548 -4.6376,-5.70925 -8.37882,-7.57835 -4.98964,-2.49277 -11.63773,-3.43751 -17.80873,-4.37286 -6.11488,-0.92685 -11.75087,-1.90098 -14.63063,-3.96616 -1.44307,-3.11326 -3.40375,-5.63126 -5.58622,-7.84397 1.85601,-7.19609 2.0418,-14.52812 -0.0233,-21.972817 2.53109,-0.603951 4.43449,-1.628228 5.51388,-3.117122 1.19565,-1.649265 1.43889,-3.718681 0.97462,-5.855457 a 0.750075,0.750075 0 0 0 -0.60772,-0.579809 v -0.001 a 0.750075,0.750075 0 0 0 -0.76533,0.347782 c -0.18948,0.309481 -0.62404,0.549235 -1.4025,0.724504 -0.77843,0.17527 -1.82019,0.266315 -2.95537,0.415995 -1.73016,0.228132 -3.70182,0.674249 -5.38675,1.887224 0.1372,-0.215472 0.28432,-0.424289 0.45423,-0.619601 0.5113,-0.587719 1.17763,-1.100336 1.99523,-1.562695 0.81835,-0.46279 1.7787,-0.869893 2.87114,-1.250053 1.092,-0.38 2.3049,-0.729525 3.62407,-1.080554 2.63527,-0.701232 5.67719,-1.402987 8.95191,-2.359546 3.2743,-0.956435 6.78322,-2.169058 10.35389,-3.895886 5.51267,-2.668805 9.71916,-5.290947 12.8602,-7.662065 1.57061,-1.18563 2.87624,-2.309195 3.94601,-3.345532 1.06933,-1.035921 1.90588,-1.987363 2.5368,-2.828251 0.31558,-0.420604 0.58092,-0.815129 0.79891,-1.180807 0.21766,-0.365135 0.38997,-0.705113 0.5178,-1.015958 0.1269,-0.308614 0.21535,-0.601686 0.25477,-0.870748 0.0198,-0.135471 0.0281,-0.271698 0.0202,-0.40566 -0.008,-0.133577 -0.0325,-0.273644 -0.0853,-0.409794 -0.0535,-0.13805 -0.13642,-0.272497 -0.25631,-0.38654 -0.12094,-0.115041 -0.26386,-0.194127 -0.416,-0.238745 -0.14917,-0.04374 -0.29675,-0.05213 -0.43563,-0.04083 -0.13755,0.0112 -0.27197,0.04268 -0.39997,0.08578 -0.25352,0.08536 -0.51525,0.227974 -0.77825,0.410311 -0.26566,0.184184 -0.54799,0.419858 -0.84388,0.705383 -1.02865,0.991896 -1.85942,1.786822 -2.59054,2.446363 -0.73007,0.658602 -1.35145,1.173301 -1.95853,1.604553 -0.60436,0.429324 -1.20043,0.780397 -1.88051,1.106909 -0.68308,0.327951 -1.45702,0.634112 -2.42104,0.971517 -0.0424,0.01459 -0.0639,0.01714 -0.0966,0.02584 -0.005,-0.09636 -0.007,-0.20368 0.0103,-0.374137 0.0204,-0.202631 0.0562,-0.437657 0.10387,-0.706417 0.0477,-0.269079 0.10405,-0.556922 0.16433,-0.870748 0.11885,-0.618751 0.2493,-1.320886 0.32194,-2.033984 0.1077,-1.068517 0.1944,-2.141252 0.23513,-3.135726 0.0406,-0.990683 0.0368,-1.922789 -0.0419,-2.704228 -0.0394,-0.391109 -0.0991,-0.759426 -0.18706,-1.086238 -0.0442,-0.164244 -0.0968,-0.323371 -0.16072,-0.473357 -0.0637,-0.149508 -0.14171,-0.296804 -0.23823,-0.432531 -0.0973,-0.136862 -0.21653,-0.267037 -0.36587,-0.375171 -0.15162,-0.109788 -0.32638,-0.19068 -0.52089,-0.230994 -0.0968,-0.02006 -0.19349,-0.02908 -0.28888,-0.02842 z"
       id="path82" /><path
       id="path24"
       style="color:#000000;display:inline;fill:#000000;stroke-width:0.999987;stroke-linecap:square;stroke-miterlimit:6.3;-inkscape-stroke:none;paint-order:fill markers stroke"
       d="m 238.125,220.42279 -122.32173,122.32173 97.85707,-0.14676 a 24.428405,24.428405 0 0 1 24.46466,24.42848 v 0.17622 a 24.461205,24.461205 0 0 1 24.46466,-24.45794 h 97.85087 c 0.002,0 0.004,-5.2e-4 0.006,-5.2e-4 z" /><path
       id="path21"
       d="M 91.345052,-24.113267 H 384.90497 V 318.27983 c 0,13.51139 -10.95315,24.46454 -24.46454,24.46454 l -97.85066,-1.1e-4 a 24.461205,24.461205 0 0 0 -24.46458,24.45806 v -0.17615 a 24.428405,24.428405 0 0 0 -24.46495,-24.42818 l -97.85674,0.14638 c -13.50801,0.0202 -24.458448,-10.95042 -24.458448,-24.45844 z"
       style="display:inline;fill:none;fill-opacity:1;stroke:#000000;stroke-width:2;stroke-linecap:square;stroke-linejoin:miter;stroke-dasharray:none;paint-order:fill markers stroke" /><path
       id="path79"
       style="color:#000000;fill:#f8c301;stroke-linecap:round;-inkscape-stroke:none;paint-order:fill markers stroke"
       d="m 224.22888,20.631228 a 10.478499,10.478544 0.04141215 0 0 -1.49345,0.0739 10.478499,10.478544 0.04141215 0 0 -9.13898,11.665438 10.478499,10.478544 0.04141215 0 0 11.66544,9.138977 10.478499,10.478544 0.04141215 0 0 9.13898,-11.665438 10.478499,10.478544 0.04141215 0 0 -10.17199,-9.212874 z m 27.70373,0 a 10.478544,10.478499 89.958588 0 0 -10.17199,9.212874 10.478544,10.478499 89.958588 0 0 9.13898,11.665438 10.478544,10.478499 89.958588 0 0 11.66492,-9.138977 10.478544,10.478499 89.958588 0 0 -9.13897,-11.665438 10.478544,10.478499 89.958588 0 0 -1.49294,-0.0739 z m -54.58943,6.760311 a 10.478545,10.478499 89.725037 0 0 -4.40593,0.658357 10.478545,10.478499 89.725037 0 0 -6.0818,13.513387 10.478545,10.478499 89.725037 0 0 13.51339,6.0818 10.478545,10.478499 89.725037 0 0 6.08179,-13.513387 10.478545,10.478499 89.725037 0 0 -9.10745,-6.740157 z m 81.47513,0 a 10.478498,10.478543 0.25196223 0 0 -9.10745,6.740157 10.478498,10.478543 0.25196223 0 0 6.0818,13.513387 10.478498,10.478543 0.25196223 0 0 13.51338,-6.0818 10.478498,10.478543 0.25196223 0 0 -6.08231,-13.513387 10.478498,10.478543 0.25196223 0 0 -4.40542,-0.658357 z M 171.37009,40.463092 a 10.478544,10.4785 89.918415 0 0 -5.60741,1.848983 10.478544,10.4785 89.918415 0 0 -2.67116,14.576371 10.478544,10.4785 89.918415 0 0 14.57638,2.671155 10.478544,10.4785 89.918415 0 0 2.67115,-14.576371 10.478544,10.4785 89.918415 0 0 -8.96896,-4.520138 z m 133.42131,0 a 10.4785,10.478544 0.13707083 0 0 -8.96896,4.520138 10.4785,10.478544 0.13707083 0 0 2.67116,14.576371 10.4785,10.478544 0.13707083 0 0 14.57637,-2.671155 10.4785,10.478544 0.13707083 0 0 -2.67116,-14.576371 10.4785,10.478544 0.13707083 0 0 -5.60741,-1.848983 z M 150.74912,59.134304 a 10.478499,10.478543 0.44639117 0 0 -7.95817,3.5295 10.478499,10.478543 0.44639117 0 0 0.89452,14.791862 10.478499,10.478543 0.44639117 0 0 14.79187,-0.895036 10.478499,10.478543 0.44639117 0 0 -0.89452,-14.791862 10.478499,10.478543 0.44639117 0 0 -6.8337,-2.634464 z m 174.66273,0 a 10.478543,10.478499 89.648273 0 0 -6.83318,2.634464 10.478543,10.478499 89.648273 0 0 -0.89503,14.791862 10.478543,10.478499 89.648273 0 0 14.79186,0.894519 10.478543,10.478499 89.648273 0 0 0.89504,-14.791862 10.478543,10.478499 89.648273 0 0 -7.95869,-3.528983 z M 135.21054,82.32772 a 10.478499,10.478544 0.30507393 0 0 -9.85366,5.593457 10.478499,10.478544 0.30507393 0 0 4.40851,14.147973 10.478499,10.478544 0.30507393 0 0 14.14798,-4.409032 10.478499,10.478544 0.30507393 0 0 -4.40852,-14.147457 10.478499,10.478544 0.30507393 0 0 -4.29431,-1.184941 z m 205.74041,0 a 10.478544,10.478499 89.694926 0 0 -4.29431,1.184941 10.478544,10.478499 89.694926 0 0 -4.40852,14.147457 10.478544,10.478499 89.694926 0 0 14.14746,4.409032 10.478544,10.478499 89.694926 0 0 4.40903,-14.147973 10.478544,10.478499 89.694926 0 0 -9.85366,-5.593457 z m -216.76299,26.32863 a 10.478544,10.478499 89.91583 0 0 -9.71362,7.96075 10.478544,10.478499 89.91583 0 0 7.6662,12.6814 10.478544,10.478499 89.91583 0 0 12.68139,-7.6662 10.478544,10.478499 89.91583 0 0 -7.6662,-12.68192 10.478544,10.478499 89.91583 0 0 -2.96777,-0.29403 z m 227.78557,0 a 10.478544,10.478498 89.900549 0 0 -2.96777,0.29403 10.478544,10.478498 89.900549 0 0 -7.66672,12.68192 10.478544,10.478498 89.900549 0 0 12.68192,7.6662 10.478544,10.478498 89.900549 0 0 7.66619,-12.6814 10.478544,10.478498 89.900549 0 0 -9.71362,-7.96075 z m -230.72028,27.94816 a 10.478499,10.478544 0 0 0 -10.47843,10.47895 10.478499,10.478544 0 0 0 10.47843,10.47843 10.478499,10.478544 0 0 0 10.47843,-10.47843 10.478499,10.478544 0 0 0 -10.47843,-10.47895 z m 233.65447,0 a 10.478499,10.478544 0 0 0 -10.47843,10.47895 10.478499,10.478544 0 0 0 10.47843,10.47843 10.478499,10.478544 0 0 0 10.47895,-10.47843 10.478499,10.478544 0 0 0 -10.47895,-10.47895 z m -229.79941,27.96884 a 10.478499,10.478544 0.08417326 0 0 -2.96777,0.29455 10.478499,10.478544 0.08417326 0 0 -7.6662,12.68191 10.478499,10.478544 0.08417326 0 0 12.68139,7.6662 10.478499,10.478544 0.08417326 0 0 7.66672,-12.68191 10.478499,10.478544 0.08417326 0 0 -9.71414,-7.96075 z m 225.94487,0 a 10.478498,10.478544 0.08373149 0 0 -9.71414,7.96075 10.478498,10.478544 0.08373149 0 0 7.66672,12.68191 10.478498,10.478544 0.08373149 0 0 12.68139,-7.6662 10.478498,10.478544 0.08373149 0 0 -7.66619,-12.68191 10.478498,10.478544 0.08373149 0 0 -2.96778,-0.29455 z m -216.99296,26.33999 a 10.478544,10.4785 89.665844 0 0 -4.29483,1.18442 10.478544,10.4785 89.665844 0 0 -4.40851,14.14798 10.478544,10.4785 89.665844 0 0 14.14797,4.40851 10.478544,10.4785 89.665844 0 0 4.40852,-14.14797 10.478544,10.4785 89.665844 0 0 -9.85315,-5.59294 z m 208.04105,0 a 10.4785,10.478544 0.33415622 0 0 -9.85315,5.59294 10.4785,10.478544 0.33415622 0 0 4.40852,14.14797 10.4785,10.478544 0.33415622 0 0 14.14797,-4.40851 10.4785,10.478544 0.33415622 0 0 -4.40903,-14.14798 10.4785,10.478544 0.33415622 0 0 -4.29431,-1.18442 z m -191.58211,23.16293 a 10.478543,10.478499 89.553613 0 0 -6.83369,2.63498 10.478543,10.478499 89.553613 0 0 -0.89452,14.79186 10.478543,10.478499 89.553613 0 0 14.79187,0.89452 10.478543,10.478499 89.553613 0 0 0.89452,-14.79186 10.478543,10.478499 89.553613 0 0 -7.95818,-3.5295 z m 175.12317,0 a 10.478499,10.478543 0.44638684 0 0 -7.95869,3.5295 10.478499,10.478543 0.44638684 0 0 0.89503,14.79186 10.478499,10.478543 0.44638684 0 0 14.79187,-0.89452 10.478499,10.478543 0.44638684 0 0 -0.89504,-14.79186 10.478499,10.478543 0.44638684 0 0 -6.83317,-2.63498 z m -153.58184,18.68154 a 10.4785,10.478544 0.13706178 0 0 -8.96897,4.52014 10.4785,10.478544 0.13706178 0 0 2.67116,14.57637 10.4785,10.478544 0.13706178 0 0 14.57637,-2.67115 10.4785,10.478544 0.13706178 0 0 -2.67115,-14.57637 10.4785,10.478544 0.13706178 0 0 -5.60741,-1.84899 z m 132.04051,0 a 10.478544,10.4785 89.86295 0 0 -5.6074,1.84899 10.478544,10.4785 89.86295 0 0 -2.67116,14.57637 10.478544,10.4785 89.86295 0 0 14.57637,2.67115 10.478544,10.4785 89.86295 0 0 2.67116,-14.57637 10.478544,10.4785 89.86295 0 0 -8.96897,-4.52014 z m -108.1381,13.10566 a 10.4785,10.478545 0.31449989 0 0 -9.10745,6.74016 10.4785,10.478545 0.31449989 0 0 6.0818,13.51287 10.4785,10.478545 0.31449989 0 0 13.51338,-6.0818 10.4785,10.478545 0.31449989 0 0 -6.08179,-13.51338 10.4785,10.478545 0.31449989 0 0 -4.40594,-0.65785 z m 84.23517,0 a 10.478545,10.478499 89.748056 0 0 -4.40541,0.65836 10.478545,10.478499 89.748056 0 0 -6.0818,13.51287 10.478545,10.478499 89.748056 0 0 13.51287,6.08232 10.478545,10.478499 89.748056 0 0 6.0818,-13.51339 10.478545,10.478499 89.748056 0 0 -9.10746,-6.74016 z m -56.42963,6.72001 a 10.478498,10.478544 0.04512011 0 0 -10.17199,9.21287 10.478498,10.478544 0.04512011 0 0 9.13898,11.66492 10.478498,10.478544 0.04512011 0 0 11.66544,-9.13897 10.478498,10.478544 0.04512011 0 0 -9.13898,-11.66544 10.478498,10.478544 0.04512011 0 0 -1.49345,-0.0734 z m 28.62461,0 a 10.478544,10.478498 89.95488 0 0 -1.49345,0.0739 10.478544,10.478498 89.95488 0 0 -9.13898,11.66492 10.478544,10.478498 89.95488 0 0 11.66493,9.13897 10.478544,10.478498 89.95488 0 0 9.13897,-11.66492 10.478544,10.478498 89.95488 0 0 -10.17147,-9.21287 z" /><path
       id="path80"
       style="color:#000000;fill:#000000;stroke-linecap:round;-inkscape-stroke:none;paint-order:fill markers stroke"
       d="m 223.78446,19.630255 c -0.38723,0.0075 -0.77737,0.03501 -1.16995,0.08268 -6.28142,0.762706 -10.77399,6.496599 -10.01128,12.778032 0.7627,6.281434 6.49715,10.773979 12.77855,10.011275 6.28141,-0.762705 10.77397,-6.496599 10.01127,-12.778031 -0.71503,-5.888844 -5.80009,-10.205844 -11.60859,-10.093958 z m 28.59205,0.001 c -5.8085,-0.111886 -10.89304,4.204597 -11.60807,10.09344 -0.7627,6.281433 3.72986,12.015327 10.01127,12.778032 6.28141,0.762704 12.01533,-3.729325 12.77803,-10.010759 0.76271,-6.281432 -3.72986,-12.015843 -10.01127,-12.778548 -0.39259,-0.04767 -0.78272,-0.07471 -1.16996,-0.08216 z m -28.55123,1.998327 c 4.81149,-0.09653 8.98948,3.452502 9.58237,8.335409 0.63241,5.208435 -3.0588,9.919392 -8.2672,10.551811 -5.2084,0.632417 -9.91939,-3.058245 -10.55181,-8.266679 -0.63241,-5.208434 3.05827,-9.919394 8.26668,-10.551811 0.32552,-0.03953 0.6492,-0.06229 0.96996,-0.06873 z m 28.51041,5.17e-4 c 0.32076,0.0064 0.64444,0.0292 0.96997,0.06873 5.2084,0.632417 8.89908,5.343376 8.26667,10.55181 -0.63241,5.208435 -5.3434,8.899097 -10.55181,8.266679 -5.2084,-0.632418 -8.89909,-5.343377 -8.26668,-10.55181 0.59289,-4.882908 4.77036,-8.431941 9.58185,-8.335409 z m -55.81933,4.740279 c -1.31008,0.01412 -2.63889,0.254346 -3.9331,0.745174 -5.91635,2.243784 -8.90642,8.886331 -6.66264,14.802714 2.24377,5.916379 8.88688,8.906427 14.80323,6.662643 5.91637,-2.243788 8.90591,-8.886852 6.66213,-14.803231 -1.75295,-4.622174 -6.19079,-7.457719 -10.86962,-7.4073 z m 83.12877,0 c -4.67882,-0.05042 -9.11718,2.785129 -10.87013,7.4073 -2.24378,5.916378 0.74629,12.559443 6.66264,14.803231 5.91636,2.243791 12.55893,-0.745747 14.80271,-6.662126 2.24378,-5.916379 -0.74576,-12.55944 -6.66212,-14.803231 -1.29421,-0.490828 -2.62302,-0.731056 -3.9331,-0.745174 z m -83.09777,1.994194 c 3.86608,-0.04789 7.51494,2.290012 8.96845,6.122623 1.8605,4.90574 -0.59576,10.363046 -5.50148,12.223544 -4.9057,1.860495 -10.36305,-0.595734 -12.22354,-5.501473 -1.8605,-4.905742 0.59577,-10.363048 5.50147,-12.223544 1.07313,-0.406984 2.1726,-0.607742 3.2551,-0.62115 z m 83.06625,0 c 1.0825,0.01341 2.18198,0.214167 3.2551,0.62115 4.9057,1.860502 7.36197,7.317805 5.50147,12.223544 -1.86049,4.905737 -7.31783,7.361974 -12.22354,5.501473 -4.90571,-1.860497 -7.36196,-7.317806 -5.50147,-12.223544 1.45351,-3.832608 5.10236,-6.170509 8.96844,-6.122623 z M 171.58765,39.46212 c -2.21188,0.02111 -4.43958,0.678823 -6.39238,2.026749 -5.20747,3.594476 -6.52088,10.759502 -2.92643,15.966984 3.59445,5.207492 10.7595,6.520911 15.96698,2.926437 5.20747,-3.59447 6.52089,-10.76001 2.92644,-15.967501 -2.24653,-3.254677 -5.88816,-4.987847 -9.57461,-4.952669 z m 132.98774,0 c -3.68645,-0.03518 -7.32807,1.697988 -9.5746,4.952669 -3.59446,5.207481 -2.28258,12.374579 2.92488,15.969051 5.20748,3.594478 12.37409,2.280011 15.96854,-2.92747 3.59446,-5.207489 2.28103,-12.373022 -2.92644,-15.967501 -1.9528,-1.347927 -4.1805,-2.005642 -6.39238,-2.026749 z m -132.96087,1.989025 c 3.04074,-0.0321 6.03907,1.401299 7.90184,4.100009 2.98045,4.317943 1.90153,10.204789 -2.41639,13.185241 -4.31792,2.980459 -10.20479,1.901554 -13.18524,-2.41639 -2.98044,-4.317935 -1.90153,-10.204783 2.41639,-13.185241 1.61922,-1.11767 3.45895,-1.664359 5.2834,-1.683619 z m 132.934,0 c 1.82445,0.01926 3.66419,0.565948 5.2834,1.683619 4.31793,2.980461 5.39684,8.8673 2.41639,13.185241 -2.98045,4.317934 -8.86836,5.39841 -13.18627,2.417941 -4.31792,-2.980456 -5.3958,-8.868859 -2.41536,-13.186792 1.86279,-2.698714 4.8611,-4.132109 7.90184,-4.100009 z M 150.49126,58.140566 c -3.12379,0.04012 -6.22052,1.343578 -8.44961,3.859713 -4.19594,4.736254 -3.75644,12.007707 0.97978,16.203662 4.73624,4.195955 12.00773,3.755951 16.20366,-0.980302 4.19594,-4.736254 3.75593,-12.007192 -0.9803,-16.203145 -2.22011,-1.966854 -4.99725,-2.915329 -7.75353,-2.879928 z m 175.17845,0 c -2.75628,-0.0354 -5.53342,0.913073 -7.75353,2.879928 -4.73623,4.195955 -5.17624,11.466896 -0.9803,16.203145 4.19595,4.736257 11.46692,5.176258 16.20315,0.980302 4.73623,-4.195956 5.17624,-11.467405 0.9803,-16.203662 -2.22909,-2.516133 -5.32583,-3.819593 -8.44962,-3.859713 z m -175.1552,1.987476 c 2.27253,-0.02857 4.5634,0.758644 6.40426,2.389518 3.92719,3.479197 4.28844,9.452861 0.80926,13.380062 -3.47918,3.9272 -9.45288,4.288449 -13.38006,0.809253 -3.92718,-3.479198 -4.28844,-9.452862 -0.80926,-13.380062 1.84832,-2.086326 4.40028,-3.16639 6.9758,-3.198771 z m 175.13143,0 c 2.57553,0.03238 5.12801,1.112446 6.97632,3.198771 3.47919,3.927199 3.11793,9.900863 -0.80925,13.380062 -3.92719,3.479198 -9.90088,3.117946 -13.38006,-0.809253 -3.47918,-3.927198 -3.11794,-9.900864 0.80925,-13.380062 1.84087,-1.630874 4.13122,-2.418089 6.40374,-2.389518 z m 16.03055,21.18682 c -1.85115,-0.02765 -3.73408,0.392621 -5.48494,1.311548 -5.60276,2.940571 -7.76972,9.894978 -4.82916,15.497762 2.94056,5.602788 9.89551,7.770248 15.49828,4.829678 5.60275,-2.94057 7.76972,-9.895493 4.82916,-15.498277 -2.02163,-3.851915 -5.94081,-6.079888 -10.01334,-6.140711 z m -207.19149,10e-4 c -4.07254,0.06082 -7.99171,2.288796 -10.01334,6.14071 -2.94056,5.602784 -0.77309,12.557718 4.82968,15.498278 5.60276,2.94057 12.5572,0.77311 15.49776,-4.829679 2.94056,-5.602784 0.7736,-12.55719 -4.82916,-15.497762 -1.75087,-0.918928 -3.63378,-1.339194 -5.48494,-1.311547 z m 207.17185,1.990059 c 3.36121,0.04556 6.58573,1.885349 8.26203,5.079277 2.43825,4.645713 0.65782,10.359417 -3.98787,12.797672 -4.6457,2.43827 -10.35942,0.65784 -12.79767,-3.987874 -2.43825,-4.645713 -0.65782,-10.359926 3.98787,-12.798186 1.45178,-0.761954 3.00782,-1.111597 4.53564,-1.090889 z m -207.15221,0.001 c 1.52782,-0.02071 3.08386,0.328934 4.53564,1.090889 4.64568,2.438255 6.42612,8.152474 3.98787,12.798185 -2.43825,4.645705 -8.15198,6.426115 -12.79767,3.987865 -4.64568,-2.438252 -6.42612,-8.151952 -3.98787,-12.797663 1.6763,-3.193926 4.90081,-5.033719 8.26203,-5.079276 z m -9.97665,24.338049 c -5.10847,0.0554 -9.74646,3.54853 -11.02414,8.73228 -1.51428,6.1437 2.25426,12.37737 8.39794,13.89166 6.14367,1.51429 12.3779,-2.25423 13.89218,-8.39794 1.51427,-6.1437 -2.25427,-12.37737 -8.39794,-13.89166 -0.95995,-0.2366 -1.92203,-0.34459 -2.86804,-0.33434 z m 227.10655,0 c -0.94601,-0.0102 -1.9081,0.0972 -2.86804,0.33383 -6.14369,1.51429 -9.91223,7.74795 -8.39794,13.89166 1.51428,6.1437 7.74797,9.91274 13.89166,8.39845 6.14368,-1.51428 9.91221,-7.74848 8.39793,-13.89218 -1.27767,-5.18375 -5.91516,-8.6764 -11.02361,-8.73176 z m -0.0145,1.99678 c 4.22525,0.0395 8.03666,2.91525 9.09608,7.21351 1.25561,5.09423 -1.84026,10.21604 -6.93446,11.47165 -5.0942,1.25562 -10.21604,-1.84075 -11.47165,-6.93498 -1.25561,-5.09423 1.84077,-10.21551 6.93498,-11.47113 0.79597,-0.19619 1.59259,-0.28637 2.37505,-0.27905 z m -227.07761,5.1e-4 c 0.78245,-0.007 1.57908,0.0824 2.37504,0.27854 5.0942,1.25561 8.19007,6.37741 6.93447,11.47165 -1.25562,5.09422 -6.37694,8.19059 -11.47114,6.93498 -5.0942,-1.25562 -8.19059,-6.37743 -6.93498,-11.47165 1.05942,-4.29826 4.87135,-7.174 9.09661,-7.21352 z m -3.28869,25.96328 c -6.32756,0 -11.47837,5.1508 -11.47837,11.47836 0,6.32758 5.15081,11.47837 11.47837,11.47837 6.32754,0 11.47888,-5.15079 11.47888,-11.47837 0,-6.32756 -5.15134,-11.47836 -11.47888,-11.47836 z m 233.65447,0 c -6.32754,0 -11.47837,5.1508 -11.47837,11.47836 0,6.32758 5.15083,11.47837 11.47837,11.47837 6.32755,0 11.47837,-5.15079 11.47837,-11.47837 0,-6.32756 -5.15082,-11.47836 -11.47837,-11.47836 z m -233.65447,1.99987 c 5.24665,0 9.47849,4.23181 9.47849,9.47849 0,5.2467 -4.23184,9.4785 -9.47849,9.4785 -5.24667,0 -9.47849,-4.2318 -9.47849,-9.4785 0,-5.24668 4.23182,-9.47849 9.47849,-9.47849 z m 233.65447,0 c 5.24666,0 9.47849,4.23181 9.47849,9.47849 0,5.2467 -4.23183,9.4785 -9.47849,9.4785 -5.24666,0 -9.47849,-4.2318 -9.47849,-9.4785 0,-5.24668 4.23183,-9.47849 9.47849,-9.47849 z M 124.7698,163.56197 c -0.94601,-0.0102 -1.90809,0.0972 -2.86804,0.33383 -6.14368,1.51429 -9.91222,7.74847 -8.39794,13.89217 1.51428,6.1437 7.74799,9.91223 13.89166,8.39794 6.14369,-1.51429 9.91223,-7.74796 8.39794,-13.89166 -1.27767,-5.18376 -5.91517,-8.67692 -11.02362,-8.73228 z m 226.62286,5.1e-4 c -5.10845,0.0554 -9.74646,3.54803 -11.02413,8.73177 -1.51428,6.14371 2.25426,12.3779 8.39794,13.89218 6.14368,1.51429 12.37789,-2.25424 13.89217,-8.39794 1.51428,-6.1437 -2.25425,-12.37789 -8.39794,-13.89218 -0.95995,-0.2366 -1.92203,-0.34408 -2.86804,-0.33383 z m -226.63733,1.99678 c 4.22526,0.0395 8.03719,2.91525 9.09661,7.21352 1.2556,5.09422 -1.84078,10.21552 -6.93498,11.47113 -5.0942,1.25562 -10.21604,-1.84024 -11.47165,-6.93446 -1.25561,-5.09425 1.84077,-10.21604 6.93497,-11.47165 0.79597,-0.19619 1.5926,-0.28586 2.37505,-0.27854 z m 226.6518,5.2e-4 c 0.78246,-0.007 1.57908,0.0823 2.37505,0.27854 5.0942,1.25561 8.19007,6.37741 6.93446,11.47165 -1.25561,5.09422 -6.37693,8.19008 -11.47113,6.93446 -5.0942,-1.25561 -8.19059,-6.37691 -6.93498,-11.47114 1.05942,-4.29826 4.87135,-7.17399 9.0966,-7.21351 z M 134.78625,189.8999 c -1.85116,-0.0276 -3.73408,0.3921 -5.48494,1.31103 -5.60277,2.94056 -7.76972,9.89548 -4.82916,15.49828 2.94054,5.60278 9.89499,7.76972 15.49776,4.82916 5.60276,-2.94057 7.77023,-9.89498 4.82968,-15.49776 -2.02164,-3.85192 -5.94081,-6.07989 -10.01334,-6.14071 z m 206.58894,5.1e-4 c -4.07254,0.0608 -7.9912,2.28932 -10.01283,6.14123 -2.94056,5.60278 -0.77359,12.5572 4.82916,15.49776 5.60277,2.94058 12.55772,0.77362 15.49828,-4.82916 2.94056,-5.60279 0.77309,-12.55771 -4.82968,-15.49828 -1.75086,-0.91893 -3.63378,-1.3392 -5.48493,-1.31155 z m -206.60858,1.99058 c 3.36121,0.0456 6.58573,1.88483 8.26203,5.07876 2.43824,4.64571 0.65781,10.35941 -3.98787,12.79767 -4.64569,2.43824 -10.35943,0.65783 -12.79767,-3.98787 -2.43825,-4.64572 -0.65782,-10.35941 3.98787,-12.79767 1.45177,-0.76195 3.00781,-1.1116 4.53564,-1.09089 z m 206.62873,5.2e-4 c 1.52782,-0.0207 3.08386,0.32945 4.53564,1.0914 4.6457,2.43827 6.42612,8.15196 3.98787,12.79767 -2.43825,4.64572 -8.15197,6.42613 -12.79767,3.98787 -4.64568,-2.43826 -6.42612,-8.15196 -3.98787,-12.79767 1.6763,-3.19393 4.90082,-5.03371 8.26203,-5.07927 z M 150.777,213.08246 c -2.75628,-0.0354 -5.53342,0.91307 -7.75353,2.87993 -4.73624,4.19595 -5.17624,11.4669 -0.9803,16.20314 4.19593,4.73626 11.46742,5.17626 16.20366,0.9803 4.73623,-4.19595 5.17625,-11.4674 0.9803,-16.20366 -2.22909,-2.51613 -5.32635,-3.81959 -8.45013,-3.85971 z m 174.60846,0.001 c -3.12378,0.0401 -6.22104,1.3441 -8.45013,3.86023 -4.19593,4.73626 -3.75592,12.00719 0.98031,16.20315 4.73623,4.19595 12.00721,3.75647 16.20314,-0.97979 4.19594,-4.73625 3.75644,-12.0077 -0.97978,-16.20366 -2.22011,-1.96685 -4.99725,-2.91533 -7.75354,-2.87993 z m -174.63171,1.98645 c 2.57552,0.0324 5.128,1.11244 6.97631,3.19877 3.47919,3.92719 3.11794,9.90086 -0.80925,13.38006 -3.92718,3.47919 -9.9014,3.11795 -13.38058,-0.80925 -3.47918,-3.9272 -3.11741,-9.90087 0.80977,-13.38007 1.84087,-1.63087 4.13122,-2.41809 6.40375,-2.38951 z m 174.65497,0.001 c 2.27252,-0.0286 4.56287,0.75864 6.40374,2.38952 3.92719,3.47919 4.28844,9.45285 0.80925,13.38006 -3.47917,3.92719 -9.45287,4.28845 -13.38006,0.80925 -3.92718,-3.47919 -4.28844,-9.45285 -0.80925,-13.38006 1.84831,-2.08632 4.40079,-3.16639 6.97632,-3.19877 z m -153.56531,16.68632 c -3.68645,-0.0352 -7.32755,1.6985 -9.57409,4.95318 -3.59445,5.20748 -2.28154,12.37252 2.92592,15.96699 5.20748,3.59448 12.37305,2.28155 15.9675,-2.92592 3.59446,-5.2075 2.28104,-12.37251 -2.92643,-15.96698 -1.95281,-1.34793 -4.18102,-2.00616 -6.3929,-2.02727 z m 132.47564,5.2e-4 c -2.21187,0.0211 -4.43957,0.67882 -6.39238,2.02675 -5.20747,3.59447 -6.52088,10.75949 -2.92643,15.96698 3.59445,5.20748 10.75951,6.5204 15.96698,2.92592 5.20748,-3.59447 6.5209,-10.75949 2.92644,-15.96699 -2.24653,-3.25467 -5.88816,-4.98784 -9.57461,-4.95266 z m -132.50251,1.9885 c 1.82445,0.0193 3.6647,0.56647 5.28392,1.68414 4.31792,2.98047 5.39632,8.86679 2.41587,13.18472 -2.98045,4.31794 -8.8668,5.39686 -13.18472,2.41639 -4.31792,-2.98044 -5.39683,-8.8673 -2.41639,-13.18524 1.86278,-2.69871 4.86058,-4.1321 7.90132,-4.10001 z m 132.52938,5.2e-4 c 3.04074,-0.0321 6.03907,1.4013 7.90184,4.10001 2.98045,4.31794 1.90153,10.20427 -2.41639,13.18472 -4.31792,2.98046 -10.20479,1.90208 -13.18524,-2.41587 -2.98043,-4.31793 -1.90153,-10.20477 2.41639,-13.18524 1.61922,-1.11767 3.45896,-1.66436 5.2834,-1.68362 z m -107.55571,11.0939 c -4.67882,-0.0504 -9.11667,2.78565 -10.86962,7.40781 -2.24379,5.9164 0.74577,12.55893 6.66213,14.80272 5.91636,2.24379 12.55945,-0.74574 14.80323,-6.66213 2.24378,-5.91638 -0.74628,-12.55891 -6.66264,-14.80271 -1.2942,-0.49083 -2.62303,-0.73158 -3.9331,-0.74569 z m 82.58049,0 c -1.31007,0.0141 -2.63889,0.25434 -3.93309,0.74517 -5.91636,2.24379 -8.90591,8.88686 -6.66213,14.80323 2.24378,5.9164 8.88636,8.90592 14.80272,6.66213 5.91636,-2.24379 8.9059,-8.88633 6.66212,-14.80272 -1.75294,-4.62216 -6.19079,-7.45823 -10.86962,-7.40781 z m -82.61149,1.99471 c 1.0825,0.0134 2.18197,0.21365 3.25509,0.62063 4.90572,1.8605 7.36197,7.31832 5.50148,12.22406 -1.8605,4.90575 -7.31783,7.36197 -12.22355,5.50148 -4.9057,-1.8605 -7.36197,-7.31832 -5.50147,-12.22406 1.45351,-3.83262 5.10237,-6.17 8.96845,-6.12211 z m 82.64301,0 c 3.86608,-0.0479 7.51494,2.2895 8.96845,6.12211 1.8605,4.90574 -0.59576,10.36304 -5.50147,12.22354 -4.90571,1.8605 -10.36358,-0.59574 -12.22406,-5.50147 -1.8605,-4.90574 0.59576,-10.36306 5.50147,-12.22355 1.07312,-0.40698 2.17311,-0.60722 3.25561,-0.62063 z m -55.18939,4.74648 c -5.80851,-0.11188 -10.89357,4.2046 -11.6086,10.09344 -0.7627,6.28144 3.72987,12.01533 10.01128,12.77803 6.28141,0.7627 12.01585,-3.72984 12.77855,-10.01127 0.7627,-6.28144 -3.72986,-12.01533 -10.01128,-12.77804 -0.39259,-0.0477 -0.78272,-0.0747 -1.16995,-0.0822 z m 27.73577,0.001 c -0.38723,0.007 -0.77736,0.0345 -1.16995,0.0822 -6.28142,0.7627 -10.77398,6.49711 -10.01128,12.77855 0.7627,6.28142 6.49662,10.77398 12.77803,10.01127 6.28142,-0.76271 10.77398,-6.49711 10.01128,-12.77855 -0.71503,-5.88883 -5.79957,-10.20533 -11.60808,-10.09344 z m -27.7766,1.99781 c 0.32077,0.006 0.64444,0.0292 0.96997,0.0687 5.20839,0.63242 8.89909,5.34339 8.26668,10.55181 -0.63242,5.20845 -5.34341,8.8991 -10.55181,8.26668 -5.20841,-0.63242 -8.89962,-5.34337 -8.2672,-10.55181 0.59289,-4.88291 4.77087,-8.43194 9.58236,-8.33541 z m 27.81743,0.002 c 4.81148,-0.0965 8.98896,3.4525 9.58184,8.33541 0.63242,5.20843 -3.05826,9.91939 -8.26668,10.55181 -5.20839,0.63242 -9.91939,-3.05824 -10.55181,-8.26668 -0.63241,-5.20843 3.05828,-9.91991 8.26668,-10.55232 0.32553,-0.0395 0.6492,-0.0618 0.96997,-0.0682 z" /><path
       id="path13"
       style="color:#000000;fill:#f8c301;stroke-linejoin:round;-inkscape-stroke:none;paint-order:fill markers stroke;fill-opacity:1"
       d="M 269.36669 57.289455 L 269.36721 57.289972 C 269.36757 57.289834 269.36787 57.2896 269.36824 57.289455 L 269.36669 57.289455 z M 269.36721 57.289972 C 269.35122 57.296128 269.34686 57.295114 269.31967 57.309609 C 269.14888 57.400276 269.02728 57.505622 268.93003 57.628969 C 268.82982 57.756006 268.74022 57.921863 268.65872 58.150901 C 268.57619 58.382762 268.50705 58.66379 268.44065 59.013381 C 268.37416 59.363643 268.315 59.757165 268.2448 60.216925 C 268.10576 61.127586 267.93123 62.249431 267.59419 63.578994 C 267.25673 64.910246 266.75766 66.445313 265.96948 68.205068 C 265.50229 69.248932 264.8605 70.408148 264.12153 71.542332 C 263.3824 72.676773 262.53722 73.799687 261.65812 74.766425 C 261.2182 75.250195 260.76645 75.698807 260.31143 76.091925 C 259.85735 76.484226 259.39234 76.827833 258.9265 77.095998 C 258.46263 77.363031 257.97874 77.566558 257.48835 77.658238 C 257.24139 77.704412 256.9896 77.722762 256.73697 77.704747 C 256.48349 77.686672 256.23238 77.63223 255.98973 77.535765 C 255.8533 77.481526 255.71589 77.409769 255.58924 77.313039 C 255.53392 77.270786 255.47996 77.223642 255.42956 77.170412 C 255.36322 77.100394 255.30407 77.021908 255.25437 76.934768 C 255.16501 76.778363 255.11721 76.612948 255.10141 76.449526 C 255.08601 76.289827 255.10173 76.140016 255.12983 76.008209 C 255.15787 75.876667 255.20067 75.752253 255.24817 75.638206 C 255.29589 75.523546 255.35229 75.41039 255.41199 75.300759 C 255.53001 75.084126 255.67658 74.853913 255.82902 74.622247 C 256.14287 74.145278 256.50041 73.630834 256.85634 73.016144 C 257.20812 72.408594 257.54419 71.725099 257.7922 70.955288 C 258.06546 70.10691 258.31283 69.25528 258.50637 68.466034 C 258.70077 67.673254 258.83673 66.959974 258.89343 66.384507 C 258.92173 66.096965 258.92892 65.8585 258.91772 65.669822 C 258.91472 65.618709 258.90825 65.586169 258.90325 65.545799 C 258.73331 65.627095 258.58168 65.720138 258.45521 65.835704 C 258.28612 65.990209 258.13261 66.187765 257.98341 66.442385 C 257.83288 66.699278 257.69306 67.00324 257.54622 67.366359 C 257.39833 67.732082 257.25412 68.129973 257.08424 68.585407 C 256.74873 69.484871 256.33596 70.545484 255.69724 71.706146 C 255.05714 72.8693 254.19459 74.124966 252.95736 75.437185 C 252.01367 76.437942 251.19034 77.274659 250.40609 77.971397 C 249.61906 78.670615 248.86329 79.236938 248.05068 79.695323 C 247.2361 80.154811 246.38064 80.49635 245.40123 80.761407 C 244.42645 81.025219 243.33096 81.212372 242.03761 81.364471 C 242.03141 81.365271 242.02501 81.36584 242.01901 81.366539 C 241.88046 81.382164 241.73183 81.390544 241.58854 81.376874 C 241.51254 81.369624 241.42087 81.354827 241.32447 81.322097 C 241.22828 81.289433 241.10665 81.231953 240.99375 81.127793 C 240.93645 81.074943 240.88385 81.012068 240.83975 80.938658 C 240.79555 80.865109 240.76373 80.787121 240.74363 80.708181 C 240.72373 80.629883 240.71639 80.555056 240.71676 80.487006 C 240.71706 80.419415 240.72488 80.357968 240.73588 80.304588 C 240.75738 80.200338 240.7931 80.112626 240.8258 80.046206 C 240.85929 79.978235 240.89718 79.917165 240.93328 79.864305 C 241.00442 79.7601 241.08888 79.658478 241.17358 79.565098 C 241.26007 79.469706 241.35825 79.369795 241.46193 79.267959 C 241.66763 79.065892 241.91843 78.83455 242.18282 78.589447 C 242.72006 78.0914 243.34171 77.510932 243.92277 76.868622 C 244.50588 76.224032 245.02285 75.544059 245.36247 74.858925 C 245.86588 73.844776 246.13215 72.855979 246.23632 71.940757 C 246.34064 71.024292 246.28276 70.17915 246.13607 69.456154 C 246.06275 69.094805 245.96767 68.766047 245.86063 68.475336 C 245.7534 68.184101 245.63557 67.934866 245.51853 67.732745 C 245.40016 67.528329 245.28924 67.383896 245.20124 67.293496 C 245.16104 67.252226 245.13387 67.231055 245.11597 67.218565 C 245.08187 67.209578 245.08571 67.212746 245.06171 67.208746 C 245.04951 67.272901 245.03623 67.335862 245.03123 67.45576 C 245.02403 67.611896 245.02829 67.796109 245.03949 68.011281 C 245.05079 68.226203 245.06837 68.457259 245.08807 68.709947 C 245.12667 69.204723 245.17268 69.77679 245.16868 70.343439 C 245.16528 70.863602 245.16236 71.33894 245.13716 71.757823 C 245.11187 72.178597 245.06194 72.582593 244.94906 72.963434 C 244.89192 73.156173 244.81855 73.343609 244.72375 73.525673 C 244.62877 73.708086 244.51533 73.87998 244.38114 74.042438 C 244.11319 74.366805 243.77665 74.638198 243.3781 74.885797 C 243.29018 74.940479 243.20125 74.991639 243.11145 75.035659 C 243.02224 75.079407 242.9247 75.120037 242.82102 75.150897 C 242.71734 75.181757 242.59724 75.205758 242.46549 75.208258 C 242.33073 75.210778 242.18747 75.190568 242.04433 75.136428 C 241.90083 75.082151 241.77984 75.002032 241.68104 74.910602 C 241.58473 74.82146 241.5137 74.725646 241.4609 74.639301 C 241.40827 74.553183 241.36828 74.46723 241.33688 74.39022 C 241.30528 74.312672 241.27886 74.234699 241.25626 74.161294 C 241.21234 74.018708 241.17224 73.858725 241.13534 73.710158 C 241.09655 73.554283 241.05745 73.395075 241.00925 73.222333 C 240.91386 72.880886 240.78602 72.497482 240.5855 72.081834 C 240.41875 71.736875 240.27209 71.456971 240.12972 71.230206 C 239.98714 71.003093 239.86462 70.85411 239.75558 70.75685 C 239.65324 70.66557 239.56381 70.61991 239.47291 70.59562 C 239.37368 70.56908 239.23774 70.556612 239.01919 70.590452 C 239.00479 70.592652 239.00192 70.59487 238.98922 70.59717 C 239.00612 70.677123 239.02217 70.755916 239.06777 70.893276 C 239.1275 71.073213 239.20321 71.272787 239.29411 71.514943 C 239.38254 71.750637 239.48189 72.017149 239.57729 72.303526 C 239.7685 72.877499 239.95111 73.552038 240.01861 74.30392 C 240.07323 74.911908 240.14823 75.407976 240.20723 75.903823 C 240.23563 76.142186 240.25976 76.379143 240.26976 76.605072 C 240.27976 76.830317 240.2769 77.064854 240.2434 77.295986 C 240.20953 77.529646 240.14214 77.774537 240.01448 78.009637 C 239.88421 78.249532 239.70499 78.454084 239.47911 78.618903 C 239.25837 78.779962 239.01093 78.891366 238.74789 78.971336 C 238.48754 79.050497 238.20013 79.101727 237.89006 79.134117 C 237.69685 79.154087 237.49288 79.149964 237.287 79.101044 C 237.0759 79.050887 236.88396 78.958239 236.71649 78.827159 C 236.55292 78.699132 236.43157 78.549214 236.33977 78.403929 C 236.24918 78.260521 236.18083 78.110865 236.12583 77.971397 C 236.02122 77.705891 235.93157 77.383557 235.84677 77.093414 C 235.75657 76.784637 235.65607 76.454157 235.51708 76.095026 C 235.32757 75.607903 235.12251 75.21128 234.90781 74.896132 C 234.69354 74.581612 234.4744 74.355115 234.25772 74.197467 C 234.0439 74.041898 233.82254 73.945734 233.58696 73.900844 C 233.54176 73.892274 233.4881 73.894476 233.4402 73.889476 C 233.5609 74.091154 233.70176 74.324674 233.85 74.594859 C 234.17231 75.182308 234.52016 75.924511 234.72798 76.815395 C 234.78181 77.046093 234.826 77.286661 234.8582 77.536798 C 234.95051 78.254564 234.94146 79.044292 234.77242 79.904095 C 234.67622 80.390906 234.47792 80.874323 234.23447 81.33915 C 233.98988 81.806175 233.68669 82.278849 233.36217 82.746299 C 232.70972 83.686086 231.95097 84.637515 231.3039 85.562665 C 230.97933 86.026709 230.68585 86.47866 230.44504 86.917104 C 230.23966 87.291034 230.07762 87.646836 229.96651 87.983706 C 229.93301 88.037036 229.90048 88.090186 229.86988 88.143386 C 229.6646 88.4997 229.51592 88.867008 229.46732 89.248228 C 229.44272 89.441268 229.44315 89.643443 229.47765 89.854393 C 229.51224 90.06553 229.58061 90.284774 229.69211 90.510166 C 229.498 90.351571 229.32945 90.176828 229.1862 89.98255 C 229.04246 89.78761 228.92552 89.574336 228.83687 89.342796 C 228.77099 89.170889 228.72679 88.990275 228.69269 88.805361 C 228.08852 88.623926 227.43635 88.49518 226.70676 88.48445 L 226.70625 88.48445 L 226.70418 88.48445 C 224.01906 88.44527 220.70106 89.628558 218.13984 92.021702 A 0.750075 0.750075 0 0 1 217.95846 92.146759 C 215.29532 93.451127 212.48975 94.177535 210.42714 95.890717 A 0.750075 0.750075 0 0 1 210.12225 96.043162 C 209.334 96.231769 208.72055 96.212547 208.15182 96.326349 C 207.65522 96.425719 207.08418 96.71745 206.37829 97.230686 C 206.22933 98.182207 206.04865 98.845824 206.25323 100.22844 C 206.23898 100.13209 206.37575 100.48374 206.75708 100.93175 C 207.09803 101.33233 207.65015 101.90178 208.28877 102.55078 C 208.44113 102.49645 208.61407 102.43466 208.8107 102.36216 C 209.18888 102.22273 209.56064 102.08618 209.96101 101.96425 C 210.29582 101.86228 210.53367 101.80596 210.75683 101.75186 C 210.90206 101.71664 211.11944 101.66344 211.21934 101.64024 C 211.36954 101.60534 211.52237 101.57262 211.69166 101.55342 C 212.07948 101.50952 212.4338 101.5211 212.68901 101.5374 A 0.3379234 0.3379234 0 1 1 212.64612 102.21178 C 212.48797 102.20168 212.04069 102.20245 211.75884 102.22625 C 211.61601 102.23835 211.46356 102.24924 211.33406 102.26604 C 211.21257 102.28174 211.07568 102.30635 210.916 102.35285 C 210.73153 102.40651 210.49585 102.49723 210.22043 102.63139 C 209.87821 102.79809 209.54872 102.99444 209.20964 103.19725 C 209.00484 103.31974 208.83793 103.41815 208.69598 103.49955 C 208.72056 104.07333 208.87475 104.2651 209.13006 104.41009 C 209.41816 104.57449 210.00285 104.64629 210.72996 104.57649 C 212.18418 104.43684 213.98382 103.79513 215.38032 103.81633 C 217.14861 103.84318 219.27798 104.43139 220.01311 104.64212 C 220.98076 104.68091 222.8876 105.01133 223.97618 104.94443 C 223.98338 104.94343 223.99088 104.94333 223.99788 104.94288 C 225.20603 104.86547 226.15604 104.70294 226.98168 104.46125 C 227.53914 104.29808 227.92743 104.16169 228.18419 104.04939 C 227.98828 104.21125 227.62545 104.51542 227.11242 104.78991 C 226.35121 105.19727 225.31732 105.58139 224.06403 105.72009 L 224.04129 105.72267 C 223.16817 105.81837 222.03487 105.83428 221.08695 105.73508 C 220.84817 106.55338 220.25316 107.30476 219.49738 108.23053 C 218.7366 109.16241 217.7981 110.21746 216.8624 111.35386 C 215.19113 113.38345 213.5647 115.68387 212.96652 117.81083 C 213.22262 117.61917 213.48287 117.43938 213.74373 117.27339 C 214.03203 117.09001 214.31121 116.92859 214.56745 116.79022 C 215.32553 116.38105 216.08437 116.0942 216.44899 115.94841 C 216.08018 116.18143 215.4861 116.59266 214.77054 117.11371 C 214.53944 117.28186 214.28829 117.46928 214.02847 117.67492 C 213.53349 118.06666 213.05448 118.48899 212.61357 118.95132 C 211.33878 120.5813 210.74916 122.21376 210.73306 124.58716 C 210.76673 124.55049 210.80003 124.51309 210.83383 124.47709 C 211.06785 124.22814 211.29823 124.00219 211.51234 123.80477 C 212.14577 123.22099 212.81048 122.75562 213.12775 122.52423 C 212.82798 122.84118 212.3544 123.38664 211.78984 124.06832 C 211.60747 124.28837 211.40992 124.53193 211.209 124.79541 C 211.02578 125.03567 210.8486 125.28208 210.67828 125.53439 A 0.750075 0.750075 0 0 1 210.59095 125.71887 C 209.29659 127.69057 209.17911 129.8327 209.39309 132.11745 C 209.57325 131.79074 209.76645 131.47684 209.96722 131.179 C 210.15825 130.89571 210.34981 130.63618 210.52946 130.40696 C 211.06092 129.729 211.64198 129.16285 211.918 128.88353 C 211.67299 129.24448 211.29301 129.85892 210.8452 130.62245 C 210.70051 130.86892 210.54493 131.14093 210.3889 131.43325 C 210.044 132.07936 209.7351 132.75473 209.50058 133.45897 A 0.750075 0.750075 0 0 1 209.45252 133.63673 C 209.40885 133.74338 209.38095 133.85745 209.34555 133.96798 C 209.28907 134.17489 209.24067 134.37791 209.20137 134.57776 C 209.17347 134.71939 209.14804 134.86507 209.12644 135.01391 C 209.01637 136.10974 209.22116 137.35631 209.60031 138.69069 C 209.71595 138.32619 209.84709 137.97191 209.98995 137.63287 C 210.12268 137.31801 210.26 137.02637 210.392 136.76677 C 210.78257 135.999 211.24378 135.33094 211.46066 135.00357 C 211.28997 135.40505 211.03532 136.08151 210.7434 136.91715 C 210.64904 137.18692 210.54906 137.48387 210.45246 137.80082 C 210.23314 138.52004 210.05683 139.26211 209.96463 140.01877 A 0.750075 0.750075 0 0 1 209.9667 140.02807 C 209.96844 142.19721 210.34701 144.16488 211.84152 145.99722 C 211.83812 145.75269 211.84054 145.50872 211.85134 145.26651 C 211.87138 144.81507 211.91458 144.39177 211.96658 144.02008 C 212.08592 143.16694 212.30423 142.38589 212.40273 142.00573 C 212.37203 142.44093 212.35143 143.16283 212.34743 144.04798 C 212.34563 144.41671 212.34995 144.82866 212.37275 145.26496 C 212.425 146.26684 212.56704 147.23709 212.86471 148.15419 C 212.88001 148.20134 212.89584 148.24804 212.91174 148.29424 C 213.18144 149.07788 213.56688 149.85382 214.16799 150.5773 C 214.68258 151.19666 215.23916 151.63551 215.68263 151.93019 C 215.68863 151.93399 215.6942 151.93704 215.7002 151.94104 C 215.53878 151.456 215.41269 150.96692 215.31779 150.48842 C 215.25134 150.15327 215.20145 149.83431 215.16535 149.54532 C 215.05852 148.69048 215.06651 147.87919 215.06251 147.48653 C 215.14604 147.91471 215.31445 148.61717 215.54052 149.47298 C 215.61351 149.7493 215.69727 150.05133 215.79477 150.36801 C 216.05785 151.22244 216.38753 152.07058 216.8376 152.85985 C 216.95093 153.05859 217.06824 153.24741 217.18951 153.42674 C 217.50777 153.89736 217.89508 154.37813 218.39254 154.82407 C 219.02139 155.38779 219.66678 155.74793 220.19243 155.97852 C 220.12912 155.73509 220.06022 155.47855 219.97332 155.15377 C 219.80346 154.51911 219.67157 153.99814 219.57076 153.47066 C 219.39929 152.57114 219.39 151.89463 219.4023 151.41963 C 219.48114 151.91733 219.63507 152.50668 219.93973 153.37093 C 220.12356 153.89241 220.2989 154.32495 220.55468 154.95946 C 220.80777 155.58729 221.01167 156.10877 221.16188 156.61414 C 221.18718 156.69916 221.20968 156.77979 221.22958 156.85599 C 221.36858 157.38854 221.39828 157.80464 221.40528 158.10707 C 221.73987 160.74144 220.82684 163.5127 219.78315 165.75467 C 218.54016 168.42486 217.06032 170.39108 217.06032 170.39108 A 0.750075 0.750075 0 0 1 217.02312 170.4381 C 216.30488 171.254 215.95711 172.42818 215.79683 173.89319 C 215.63649 175.3582 215.6677 177.0757 215.6015 178.85981 C 215.45014 182.93855 212.64476 189.09784 209.46647 193.1039 C 209.51381 193.04422 209.28884 193.46165 209.17192 194.02788 C 209.06619 194.53997 209.00003 195.23441 209.01068 196.02311 C 210.4507 196.44509 211.68352 196.37984 212.65387 195.98073 C 213.73022 195.53803 214.50687 194.68603 214.90645 193.51215 C 214.80019 193.07754 214.683 192.63101 214.54265 192.15874 A 0.750075 0.750075 0 0 1 215.85109 191.48126 C 216.53437 192.35251 216.92628 192.43051 217.02518 192.41661 C 217.12411 192.40268 217.37585 192.20787 217.61326 191.70347 C 217.85068 191.19908 218.03393 190.49969 218.14243 189.901 C 218.25092 189.30232 218.28005 188.70676 218.28092 188.72536 C 217.99398 182.57057 219.63664 177.44715 222.38868 174.60426 C 222.41622 174.57581 222.7626 174.0362 223.15039 173.27411 C 223.53818 172.51201 224.03883 171.48633 224.66761 170.27016 C 225.77889 168.12063 227.32754 165.35783 229.3805 162.35539 C 229.3815 162.35439 229.38238 162.35271 229.38257 162.35229 C 229.45361 162.1963 230.0034 161.26661 230.54219 160.49349 C 230.61405 160.39038 230.6969 160.27081 230.7799 160.15036 C 231.19299 159.55086 231.81472 158.64475 232.31262 157.72932 C 232.86233 156.71861 233.21969 155.79214 233.47224 154.8034 C 233.51387 154.64056 233.55076 154.48449 233.58386 154.33521 C 233.88895 152.96021 233.95195 151.805 233.89495 150.96849 C 234.09122 151.73485 234.40907 152.99115 234.28821 154.39722 C 234.27471 154.55451 234.25487 154.72004 234.22827 154.89228 C 234.06856 155.92539 233.70389 156.94499 233.15908 157.98977 C 232.66953 158.92855 232.01719 159.89878 231.65323 160.48161 C 231.57523 160.60651 231.50454 160.72156 231.44084 160.82887 C 231.41104 160.87905 231.38731 160.92235 231.35971 160.96995 C 238.38081 162.81745 244.69096 162.40205 250.95283 161.57818 C 251.0674 161.55318 251.18302 161.52796 251.3156 161.49756 C 251.40475 161.47706 251.50092 161.45499 251.60498 161.43039 C 252.08785 161.31634 252.67598 161.16895 253.3873 160.97563 C 254.49093 160.67572 255.61775 160.33853 256.5189 160.04959 L 257.43874 159.75452 L 256.9845 160.60098 C 256.72293 161.08856 256.58081 161.5349 256.50701 161.93785 C 256.50401 161.95305 256.50174 161.96844 256.49874 161.98384 C 256.45864 162.21737 256.43815 162.45543 256.43415 162.70318 C 257.51437 162.23868 258.50424 161.95787 259.3828 161.78179 C 260.19557 161.61884 260.89464 161.54995 261.35788 161.51875 C 261.52226 161.50765 261.67823 161.49998 261.82452 161.49498 C 261.16272 160.01549 260.88033 158.80965 260.68712 157.92672 C 260.56899 157.38691 260.4986 157.04089 260.3998 156.68132 C 260.30146 156.32329 260.20295 156.06512 260.0918 155.83848 C 260.0813 155.81678 260.07087 155.79548 260.05977 155.77388 C 259.90909 155.4804 259.71748 155.20354 259.40968 154.91864 C 258.96834 154.51014 258.39196 154.19083 257.98754 154.01533 C 258.39234 154.09001 259.09807 154.19849 259.70371 154.43908 C 260.1422 154.61326 260.53528 154.85622 260.84783 155.21578 C 260.87043 155.24198 260.89186 155.26826 260.91346 155.29536 C 261.14282 155.58292 261.31886 155.92975 261.46071 156.35731 C 261.59197 156.75294 261.68358 157.18058 261.78989 157.6916 C 261.97556 158.58398 262.20683 159.75191 262.82859 161.20043 C 263.46769 162.68928 264.49265 164.41727 266.18032 166.44558 C 266.48178 166.808 266.78904 167.15313 267.09758 167.47963 C 268.08401 168.52349 269.17224 169.49201 270.31754 170.41278 C 271.79398 171.59979 273.3173 172.66662 274.57826 173.56453 C 275.28227 174.06584 275.88644 174.50113 276.43293 174.92 C 277.06084 175.40128 277.54984 175.8132 277.94188 176.19486 C 277.98887 176.24053 278.03367 176.28543 278.07727 176.32973 C 278.37179 176.6287 278.61672 176.92103 278.81108 177.2103 A 0.750075 0.750075 0 0 1 279.09426 177.17568 C 280.92828 177.80613 281.96835 179.69662 282.60206 181.98055 C 283.23578 184.26447 283.47895 187.05293 283.50795 189.84984 C 283.53694 192.64675 283.34642 195.44578 283.07852 197.71706 C 282.81118 199.9837 282.52625 201.61979 282.14472 202.49816 C 281.29126 204.69383 280.11182 206.45041 278.57646 207.69888 C 279.50519 208.7225 280.51151 209.28764 281.4843 209.47448 C 282.58335 209.68557 283.65899 209.42922 284.60917 208.73086 C 284.60447 208.48578 284.5961 208.23902 284.5699 207.9862 A 0.750075 0.750075 0 0 1 285.86284 207.3945 C 286.00164 207.5418 286.27026 207.77009 286.53308 207.9123 C 286.79598 208.0545 287.0246 208.0931 287.13822 208.0663 C 287.25184 208.03948 287.3971 207.98885 287.59142 207.49424 C 287.78561 206.99997 287.94548 206.0944 287.92938 204.68769 C 287.5114 195.06464 287.89579 185.99853 288.06012 176.89042 C 281.02566 170.65771 283.00565 160.64077 283.00565 160.64077 L 282.99997 160.66816 C 283.50019 157.51317 283.29533 154.41732 283.0656 151.26821 C 283.0493 151.16604 283.02825 151.04062 282.99635 150.87237 C 282.94063 150.57869 282.85821 150.18488 282.74159 149.70552 C 282.49668 148.69948 282.20724 147.74148 281.88892 146.81112 C 281.86232 146.73336 281.83531 146.65578 281.80831 146.57858 C 281.36941 145.32646 280.87176 144.15301 280.31641 143.13021 C 280.24803 143.00427 280.17844 142.88001 280.10764 142.75762 C 279.38152 141.50243 278.7181 140.72179 278.16047 140.21101 C 278.77157 140.62257 279.60899 141.31147 280.49314 142.50389 C 280.58008 142.62114 280.66548 142.74048 280.74998 142.86201 C 281.43962 143.85374 282.06319 145.00523 282.60361 146.26955 C 282.63681 146.34715 282.66929 146.42483 282.70179 146.50313 C 283.07921 147.41295 283.43076 148.44037 283.71672 149.44145 A 0.750075 0.750075 0 0 1 283.74979 149.4275 C 283.74979 149.4275 284.76714 149.43756 285.90212 149.24818 C 286.7803 149.10163 287.41259 148.72462 287.91388 148.3671 C 286.31461 147.05491 284.92023 145.06388 283.21287 142.8124 C 281.19844 140.15589 278.77278 137.37514 275.35909 135.66968 C 270.71647 133.35034 264.17292 132.37574 257.99581 131.43945 C 251.81863 130.50316 246.01459 129.65786 242.60553 127.14462 A 0.750075 0.750075 0 0 1 242.36524 126.84748 C 240.94101 123.67429 238.94823 121.15091 236.66998 118.8888 A 0.750075 0.750075 0 0 1 236.47257 118.16429 C 238.42382 110.84715 238.62185 103.47482 236.40023 95.945494 C 236.32324 95.83464 236.2364 95.730541 236.13513 95.634401 C 236.08984 95.591392 236.04484 95.553847 236.00284 95.524847 C 235.80585 95.388923 235.6161 95.300127 235.43646 95.181199 C 235.37655 95.141541 235.31776 95.098601 235.26076 95.049941 C 235.02744 94.850626 234.85001 94.630486 234.72074 94.452561 C 234.89309 94.599832 235.11079 94.753319 235.37652 94.865456 C 235.43953 94.892046 235.50122 94.91733 235.56152 94.93987 C 235.74469 95.008389 235.92235 95.055183 236.1527 95.055109 C 236.20212 95.055099 236.25785 95.049106 236.32065 95.039606 C 236.49555 95.013216 236.70808 94.962265 236.95782 94.948655 A 0.750075 0.750075 0 0 1 236.96867 94.94142 C 239.70189 94.435197 241.37216 93.42721 242.27946 92.175698 C 242.96055 91.236098 243.13309 90.066364 243.06649 88.788824 C 242.73196 88.936046 242.38872 89.073584 242.02159 89.156244 C 241.08177 89.367844 240.02359 89.451747 238.93341 89.595494 C 236.75306 89.88298 234.5311 90.377834 233.00767 92.250112 A 0.750075 0.750075 0 0 1 231.71473 91.933852 C 231.68433 91.933652 231.65736 91.937119 231.62636 91.935919 C 231.58995 91.934919 231.55275 91.933235 231.51525 91.930235 C 231.42484 91.899138 231.33222 91.863598 231.23982 91.824298 C 230.97896 91.713258 230.71287 91.567629 230.48173 91.382465 C 230.24814 91.195335 230.05878 90.974236 229.94636 90.721006 C 230.16926 90.873626 230.42384 90.946921 230.66466 90.974221 C 230.90747 91.001721 231.15318 90.983926 231.36178 90.937531 C 231.43611 90.920931 231.5057 90.900886 231.569 90.877586 C 231.5943 90.878056 231.61878 90.878036 231.64238 90.877586 C 231.68198 90.876786 231.70673 90.872218 231.73953 90.869318 C 231.99478 90.025533 232.40072 89.285099 232.95496 88.639996 C 233.56675 87.927912 234.33911 87.335257 235.23647 86.821503 C 236.13209 86.308793 237.16019 85.870394 238.29003 85.471714 C 239.42039 85.072889 240.66346 84.709732 241.99265 84.350852 C 244.65407 83.632281 247.67827 82.924547 250.90994 81.970636 C 254.14197 81.016603 257.57956 79.817937 261.06591 78.121775 C 266.51213 75.474959 270.64296 72.885409 273.70493 70.563064 C 275.23582 69.40196 276.49844 68.308725 277.52433 67.308999 C 278.55064 66.308863 279.33754 65.404968 279.9185 64.623891 C 280.20887 64.233517 280.44638 63.875543 280.63629 63.553156 C 280.8265 63.230234 280.96635 62.946515 281.06365 62.705145 C 281.13956 62.51676 281.18006 62.371684 281.20576 62.248842 C 281.12549 62.290708 281.03362 62.344315 280.92257 62.422475 C 280.72831 62.559211 280.50191 62.748308 280.24665 62.997117 C 279.22573 63.992204 278.38493 64.807609 277.64009 65.489471 C 276.89406 66.172435 276.23425 66.730294 275.57251 67.209263 C 274.90811 67.690155 274.24801 68.087033 273.50029 68.453632 C 272.75557 68.818754 271.93043 69.150891 270.94127 69.503697 C 270.79533 69.556069 270.65028 69.597509 270.50771 69.623069 C 270.36548 69.648529 270.21658 69.659744 270.06587 69.646324 C 269.9132 69.632724 269.75706 69.593219 269.60802 69.516099 C 269.45743 69.438169 269.33217 69.331064 269.23337 69.205007 C 269.13652 69.0814 269.07179 68.948559 269.02769 68.821051 C 268.98379 68.694119 268.95784 68.565384 268.94294 68.44278 C 268.91344 68.201358 268.92148 67.941704 268.94398 67.688304 C 268.96688 67.431284 269.00748 67.153973 269.05508 66.870266 C 269.10265 66.586714 269.1595 66.282892 269.2158 65.97678 C 269.3299 65.356239 269.44418 64.710169 269.50518 64.067853 C 269.6066 63.016093 269.68567 61.974079 269.72067 61.018943 C 269.75577 60.060093 269.74575 59.207061 269.67365 58.526589 C 269.63765 58.186742 269.58735 57.904488 269.52585 57.681679 C 269.49535 57.571101 269.46372 57.480898 269.43232 57.408828 C 269.40695 57.350686 269.38623 57.318951 269.36721 57.289972 z M 196.52204 60.726971 C 196.46717 60.908754 196.4077 61.035701 196.37373 61.404449 C 196.27016 62.529373 196.35338 64.284976 196.50861 66.04706 C 196.60014 67.086098 196.94655 68.486953 197.10599 69.613251 C 197.18529 70.176398 197.25605 70.649424 197.09565 71.175946 C 197.01545 71.439209 196.81151 71.774889 196.45693 71.923704 C 196.10235 72.072515 195.75421 72.003328 195.47456 71.892698 C 193.89019 71.265845 192.82026 70.346627 191.81845 69.22051 C 190.81664 68.094393 189.85123 66.761442 188.34373 65.125153 C 188.1801 64.947537 188.14776 64.958877 188.02747 64.867287 C 188.03697 64.951849 188.01727 64.927628 188.04297 65.033169 C 188.14659 65.45914 188.36787 66.041692 188.73027 66.728672 C 190.17985 69.476599 193.87997 73.905597 201.15018 78.365171 C 206.22076 81.475462 211.48186 83.000361 215.57824 84.150348 C 217.62646 84.725339 219.37806 85.200501 220.71488 85.769371 C 221.38329 86.053803 221.95331 86.359861 222.40987 86.755874 C 222.66217 86.974717 222.8752 87.236132 223.03464 87.526369 C 223.82885 87.289126 224.62104 87.13264 225.39676 87.05198 C 225.07828 85.885142 224.53715 84.771765 223.96895 83.679576 C 223.22318 82.246158 222.42338 80.86061 222.16647 79.353741 C 221.84323 77.45813 222.07743 75.763144 222.26621 74.539048 C 222.36066 73.927003 222.44066 73.422835 222.44966 73.132933 C 222.45166 73.078283 222.44752 73.08489 222.44552 73.0487 C 222.33404 73.0177 222.19635 72.970137 222.15665 72.980487 C 222.09466 72.996652 222.01233 73.039447 221.8869 73.216648 C 221.63604 73.571057 221.3699 74.396075 221.15671 75.347784 C 221.01762 75.968701 220.93032 76.761345 220.77586 77.447398 C 220.69863 77.790426 220.61585 78.107823 220.42601 78.422015 C 220.33109 78.579113 220.20185 78.742673 220.0002 78.871084 C 219.79851 78.999492 219.51824 79.066295 219.27156 79.036965 C 218.69224 78.968081 218.17258 78.668189 217.85356 78.252 C 217.53453 77.835811 217.39005 77.351008 217.31095 76.853636 C 217.15274 75.858886 217.25459 74.747298 217.31509 73.711192 C 217.37275 72.723475 217.59511 71.732332 217.62721 71.060708 C 217.64331 70.724894 217.60015 70.486945 217.56675 70.414235 C 217.5334 70.341508 217.59963 70.370986 217.4479 70.345506 C 217.4323 70.342886 217.47544 70.321404 217.41224 70.372894 C 217.349 70.424386 217.22996 70.571897 217.11768 70.795091 C 216.89312 71.241475 216.69819 71.956205 216.58645 72.624953 C 216.47236 73.307769 216.44972 74.006714 216.27794 74.605711 C 216.235 74.75546 216.18564 74.907996 216.06659 75.080101 C 215.9475 75.252202 215.69613 75.46798 215.37929 75.50178 C 215.06244 75.535582 214.81543 75.408702 214.64858 75.287323 C 214.48173 75.165944 214.35703 75.028264 214.22484 74.863059 C 213.17281 73.548321 212.6809 71.478981 212.7717 69.540904 C 212.8135 68.649078 212.90256 67.858717 212.86626 67.523456 C 212.85406 67.526156 212.86081 67.52389 212.84611 67.52759 C 212.76508 67.547759 212.58096 67.677198 212.40273 68.117218 C 212.22451 68.557239 212.09483 69.233101 212.06683 70.021495 C 212.01076 71.598276 212.34552 73.624764 213.10966 75.34365 C 213.58114 76.404195 214.95006 77.79527 216.0454 78.833877 C 216.59307 79.353179 217.05687 79.773638 217.37141 80.160411 C 217.45006 80.257101 217.52084 80.351852 217.58794 80.478737 C 217.65498 80.605626 217.75378 80.777066 217.70318 81.088003 C 217.65257 81.398936 217.32464 81.693006 217.10942 81.759796 C 216.89421 81.826586 216.75105 81.811513 216.60764 81.797003 C 214.6874 81.602746 213.21251 81.021166 211.95934 80.007965 C 210.70618 78.994765 209.67725 77.6 208.44534 75.769464 C 206.97297 73.581541 206.24783 71.22505 205.6388 69.370888 C 205.33429 68.443807 205.05697 67.639825 204.76392 67.068186 C 204.61395 66.775644 204.47483 66.727325 204.33035 66.566408 C 204.30205 66.871288 204.26086 67.1432 204.28746 67.613373 C 204.36594 69.001044 204.69311 70.86561 205.08999 72.248232 C 205.46196 73.544058 206.23678 75.074355 206.69145 76.195278 C 206.80511 76.47551 206.90002 76.731708 206.96482 76.980243 C 207.02959 77.228778 207.10535 77.46088 206.9922 77.831871 C 206.93562 78.017363 206.7845 78.247938 206.56846 78.372923 C 206.35242 78.497913 206.13111 78.512113 205.96126 78.495913 C 205.62156 78.463502 205.38265 78.341227 205.07811 78.171901 C 201.99203 76.456012 200.16641 72.952165 198.79891 69.537286 C 197.61441 66.57952 197.29658 64.351234 197.08635 62.822451 C 196.98123 62.058059 196.89411 61.471364 196.77371 61.095941 C 196.70408 60.878854 196.60445 60.82783 196.52204 60.726971 z M 241.6552 90.627472 C 241.46265 90.742779 241.16032 90.912989 240.59429 91.082225 C 240.39891 91.140641 240.19377 91.192273 239.99226 91.234153 C 239.7805 91.278167 239.55695 91.318167 239.31374 91.359727 C 238.89855 91.430676 238.45683 91.500793 238.05026 91.587103 C 237.63609 91.675029 237.29667 91.771969 237.02034 91.891994 C 236.99114 91.904604 236.96225 91.917345 236.93405 91.930235 C 236.64263 92.063368 236.37908 92.221618 236.12531 92.388088 C 235.96342 92.494285 235.80714 92.602389 235.65402 92.706932 C 236.00554 92.794374 236.40066 92.901134 236.67153 92.912604 C 236.75902 92.916304 236.84411 92.918638 236.92681 92.919838 C 237.24626 92.924398 237.54316 92.909654 237.80789 92.861444 C 238.17637 92.794338 238.44508 92.693798 238.61508 92.616498 C 238.47607 92.735414 238.23529 92.916173 237.87352 93.074351 C 237.61227 93.188579 237.30829 93.29522 236.95833 93.34927 C 236.8681 93.36321 236.77431 93.373659 236.67721 93.379759 C 236.15159 93.412963 235.32294 93.386053 234.929 93.154449 C 234.77427 93.232453 234.60587 93.299882 234.43394 93.345652 C 234.27203 93.388752 234.12088 93.410065 233.9797 93.413865 C 233.78208 93.419115 233.63294 93.389317 233.53994 93.370457 C 233.63464 93.344571 233.76676 93.291297 233.91614 93.194757 C 234.02181 93.126466 234.12315 93.045926 234.22982 92.950328 C 234.35567 92.837528 234.48172 92.709891 234.60706 92.591693 C 234.68363 92.519477 234.76957 92.438776 234.85717 92.358116 C 235.07363 92.158881 235.34281 91.920183 235.6473 91.698724 C 235.92 91.500394 236.22978 91.309285 236.5842 91.151988 C 236.6185 91.136758 236.6534 91.121759 236.6891 91.107029 C 237.04942 90.958466 237.46703 90.86372 237.91383 90.801622 C 238.35633 90.740111 238.82541 90.711161 239.2445 90.694651 C 239.48497 90.685151 239.725 90.679548 239.92973 90.676048 C 240.12883 90.672648 240.33979 90.673519 240.53383 90.673981 C 241.10573 90.675341 241.42711 90.664792 241.6552 90.627472 z M 223.42944 91.351459 L 223.42996 91.351459 C 224.25227 91.321477 224.95378 91.807701 225.62104 92.314707 C 226.28831 92.821721 226.93052 93.353586 227.59973 93.492413 A 0.13251324 0.13251324 0 0 1 227.64831 93.732192 C 226.0154 94.835094 224.72171 94.998626 223.56845 94.863389 C 222.41518 94.728153 221.40517 94.311621 220.29682 94.257741 A 0.13251324 0.13251324 0 0 1 220.23429 94.011761 C 220.80115 93.666294 221.20909 93.035925 221.66211 92.466636 C 222.11513 91.897355 222.634 91.380479 223.42944 91.351459 z M 207.79577 97.892145 C 208.04 97.888882 208.29105 97.979228 208.48824 98.11332 C 208.70254 98.25905 208.93683 98.389644 209.10164 98.594944 C 209.27039 98.805154 209.1327 99.169405 208.84894 99.179405 C 208.55579 99.189365 208.38467 98.882711 208.11048 98.859011 C 207.8067 98.832731 207.70133 99.217456 207.67743 99.464659 C 207.7118 99.606274 207.58013 99.737295 207.44696 99.746295 C 207.15703 99.765945 207.09491 99.401682 207.02321 99.183022 C 206.89231 98.78395 206.98228 98.302516 207.32397 98.046141 C 207.46512 97.940235 207.62867 97.894345 207.79577 97.892145 z M 231.20881 99.282241 C 231.30457 99.460684 231.48587 99.773937 231.50337 100.15196 C 231.50747 100.24171 231.5036 100.33379 231.492 100.42739 C 231.4513 100.7547 231.32125 101.06648 231.14577 101.35963 C 231.12797 101.38943 231.10904 101.41935 231.08944 101.44955 C 230.89644 101.74669 230.64676 102.01686 230.40369 102.24278 C 230.31721 102.32317 230.23423 102.39519 230.16133 102.45569 C 229.95815 102.62446 229.72283 102.77303 229.64043 102.83293 C 229.7032 102.71969 229.804 102.51734 229.96806 102.27431 C 230.0226 102.19352 230.0807 102.11002 230.1479 102.01282 C 230.34376 101.7295 230.51108 101.48012 230.67138 101.1891 C 230.68668 101.1615 230.7011 101.13415 230.7153 101.10745 C 230.85629 100.84228 230.94914 100.58923 231.02174 100.33282 C 231.04264 100.25904 231.06111 100.18695 231.07911 100.11475 C 231.14501 99.849877 231.21581 99.442504 231.20881 99.282241 z M 196.19545 146.99612 C 195.27136 146.95159 194.06918 147.80775 193.1486 148.89265 C 192.68831 149.4351 192.30023 150.01183 192.03756 150.47653 C 191.90622 150.70888 191.80692 150.91534 191.74662 151.06254 C 191.68612 151.20979 191.68409 151.34034 191.68409 151.19949 A 0.750075 0.750075 0 0 1 191.64275 151.4434 C 190.74184 154.05857 189.41778 156.7883 188.30135 159.36126 C 187.185 161.93422 186.29289 164.35994 186.19192 166.22079 C 186.06629 168.53596 186.86442 172.27478 187.97424 174.42546 C 189.52597 173.93002 190.56908 173.11663 191.15441 172.17392 C 191.7265 171.25245 191.88097 170.1954 191.60606 169.09607 C 191.33148 168.82583 191.09618 168.57088 190.78751 168.28733 A 0.750075 0.750075 0 0 1 191.63138 167.06467 C 192.14961 167.32478 192.51717 167.40838 192.70522 167.41038 C 192.89328 167.41258 192.88768 167.39305 192.93208 167.34165 C 193.02092 167.23884 193.16372 166.62824 193.07832 165.84769 C 192.99296 165.06714 192.76418 164.16292 192.55329 163.46075 C 192.44785 163.10966 192.34642 162.80835 192.27166 162.59207 C 192.23426 162.48393 192.20445 162.39756 192.18225 162.33576 C 192.17115 162.30486 192.16187 162.27919 192.15487 162.25979 C 192.14787 162.24039 192.15828 162.28739 192.12748 162.17969 A 0.750075 0.750075 0 0 1 192.12334 161.78334 C 192.8678 158.9434 193.75672 156.55384 194.61156 154.13471 A 0.750075 0.750075 0 0 1 195.22858 153.64068 C 196.39899 153.5006 197.74431 152.90179 199.14462 152.32035 A 0.750075 0.750075 0 0 1 199.40249 152.2635 C 200.54668 152.21711 201.93772 152.71738 203.68388 153.35956 C 205.43005 154.00175 207.4613 154.82174 209.52745 155.52739 C 211.59361 156.23305 213.69611 156.82021 215.53328 157.01153 C 217.12086 157.17686 218.45657 157.01552 219.46483 156.49477 C 218.96978 156.24562 218.41318 155.90095 217.86751 155.40801 C 217.31294 154.90704 216.88467 154.35843 216.56165 153.82878 C 216.43803 153.62614 216.32128 153.41384 216.21128 153.19213 C 216.19928 153.16793 216.18846 153.14346 216.17666 153.11926 C 215.96994 153.01324 215.63364 152.83261 215.25165 152.57718 C 214.76788 152.25369 214.14278 151.77453 213.56338 151.08115 C 212.88822 150.27318 212.45523 149.38935 212.20067 148.51955 C 212.18567 148.46809 212.17095 148.41578 212.15675 148.36348 C 212.10267 148.16395 212.05807 147.96219 212.01877 147.75939 A 0.750075 0.750075 0 0 1 211.92989 147.80486 C 205.95012 149.0437 201.11422 147.23317 196.19545 146.99612 z M 255.94632 161.05573 C 255.25503 161.27674 254.49046 161.50891 253.7325 161.72597 A 0.750075 0.750075 0 0 1 253.79348 161.75956 C 256.49046 167.80985 260.01402 170.76569 263.41615 172.99402 C 266.81827 175.22235 270.18295 176.67697 272.23267 179.77914 C 272.56424 180.28095 272.69125 180.87794 272.77785 181.59763 C 272.86455 182.31731 272.8852 183.16028 272.8595 184.0936 C 272.80817 185.96024 272.57038 188.19135 272.24455 190.40846 C 271.91872 192.62558 271.50547 194.82428 271.09992 196.61532 C 270.71825 198.30089 270.38819 199.46781 270.02195 200.2306 C 269.95019 200.71048 269.71585 201.06433 269.45144 201.39074 C 269.18025 201.72554 268.86141 202.02907 268.55279 202.29714 C 268.42028 202.41223 268.41792 202.39753 268.29337 202.49713 C 269.19593 203.45688 270.16742 203.99138 271.10767 204.17196 C 272.20136 204.38202 273.27 204.12883 274.21652 203.43816 C 274.17307 203.36154 274.14067 203.27696 274.08837 203.20716 A 0.750075 0.750075 0 0 1 274.96532 202.0584 C 275.93507 202.44252 276.49444 202.43742 276.71146 202.34572 C 276.92848 202.25399 277.09 202.05137 277.20342 201.38867 C 277.43027 200.06327 277.12018 197.40475 276.76572 193.98034 C 276.31164 189.59332 277.41084 184.74883 278.00854 178.65724 C 278.00274 178.61882 277.99922 178.58302 277.98632 178.53632 C 277.95749 178.4321 277.90654 178.30176 277.81734 178.14358 C 277.67648 177.89392 277.45633 177.60252 277.12436 177.25216 C 277.08762 177.21339 277.04922 177.17369 277.00912 177.13279 C 276.67125 176.78861 276.23787 176.39642 275.64693 175.91167 C 275.13273 175.48988 274.55895 175.04632 273.87236 174.52364 C 272.65526 173.59711 271.12728 172.45899 269.65453 171.21842 C 268.50461 170.24979 267.40418 169.23395 266.39168 168.14005 C 266.07521 167.79815 265.75654 167.43814 265.44187 167.06053 C 264.00902 165.34071 263.01079 163.83078 262.29891 162.46908 C 262.05685 162.47288 261.76462 162.48057 261.41782 162.49957 C 260.98004 162.52358 260.31917 162.57115 259.55437 162.70214 C 258.58395 162.86835 257.45854 163.16469 256.21142 163.72689 L 255.62334 163.99199 L 255.61456 163.36412 C 255.60741 162.82886 255.64215 162.3376 255.73755 161.84431 C 255.74145 161.82651 255.7444 161.80869 255.7484 161.79109 C 255.79562 161.55768 255.85872 161.3127 255.94632 161.05573 z M 192.73106 170.2531 C 192.70964 171.11522 192.46882 171.95228 192.00397 172.70102 C 191.3009 173.83342 190.10616 174.75115 188.4724 175.31274 A 0.750075 0.750075 0 0 1 188.51581 175.57216 C 188.50439 176.39549 189.15739 177.51792 189.90642 178.72287 C 190.38271 179.48902 190.79746 180.32654 191.06346 181.20799 C 191.09509 181.16882 191.17221 181.10258 191.29342 180.96718 C 191.52976 180.70316 191.89301 180.21687 192.11404 179.73469 C 192.17873 179.59358 192.24059 179.44544 192.30059 179.29286 C 192.34439 179.18281 192.36687 179.0632 192.37087 178.93629 C 192.37527 178.80545 192.36058 178.66735 192.33108 178.52392 C 192.26915 178.2228 192.14347 177.90498 191.99829 177.58082 C 191.98829 177.55852 191.9779 177.53646 191.9678 177.51416 C 191.82502 177.19989 191.6694 176.88948 191.46964 176.55453 C 191.20269 176.10693 190.9479 175.77143 190.80714 175.61143 C 190.99535 175.722 191.35521 175.92953 191.77246 176.30183 C 192.06969 176.56704 192.345 176.87229 192.55226 177.1886 C 192.56756 177.212 192.58252 177.23559 192.59722 177.25939 C 192.81056 177.60335 192.96762 177.99474 193.03492 178.39369 C 193.05092 178.48877 193.06247 178.58493 193.06747 178.68153 C 194.79864 177.00376 195.38141 175.65776 195.08234 174.14485 C 194.86525 173.04672 194.07867 171.75579 192.73106 170.2531 z M 215.23821 195.08725 C 214.69897 195.89708 213.94912 196.52828 213.03525 196.90419 C 211.82481 197.40214 210.34969 197.45507 208.73112 196.98274 C 208.06553 198.09991 207.94333 199.6336 207.98853 201.17576 C 208.01283 202.00422 208.07269 202.81705 208.07069 203.56063 C 208.07004 203.79729 207.96732 203.98712 207.95132 204.21124 C 208.01963 204.19164 208.05953 204.17941 208.09653 204.17041 C 208.12031 204.14601 208.21733 204.13389 208.41796 204.07119 C 208.64924 203.99291 208.87663 203.89266 209.10732 203.79576 C 209.33338 203.6881 209.56814 203.55936 209.77498 203.41439 C 209.9021 203.32529 210.0301 203.22896 210.15894 203.12758 C 210.2523 203.05472 210.33195 202.96262 210.39975 202.85525 C 210.46963 202.74454 210.5269 202.61773 210.5739 202.47904 C 210.67263 202.1879 210.72453 201.85029 210.76303 201.49719 C 210.76603 201.47289 210.76778 201.44873 210.77078 201.42433 C 210.80638 201.08098 210.82856 200.73428 210.82556 200.34429 C 210.82126 199.82315 210.77108 199.40523 210.73048 199.19604 C 210.83703 199.38655 211.04276 199.7476 211.21468 200.27969 C 211.3372 200.65873 211.42038 201.06112 211.43948 201.4388 C 211.44048 201.4666 211.44186 201.49461 211.44258 201.52251 C 211.45291 201.92713 211.39072 202.34415 211.24724 202.72244 C 211.22904 202.77037 211.20933 202.81807 211.18833 202.86507 C 212.84909 202.71474 214.13778 202.08773 214.86769 200.62489 C 215.44913 199.45962 215.67628 197.666 215.23821 195.08725 z M 267.49704 203.11053 C 267.47923 203.12268 267.34408 203.22835 267.34408 203.22835 L 267.3911 203.19528 C 267.11908 203.40991 266.70085 204.33984 266.10177 205.46077 C 265.65908 206.28909 264.93333 207.15984 263.98459 207.92781 C 264.25921 208.06318 264.55025 208.17896 264.83312 208.27766 C 264.99415 208.30726 265.15834 208.3302 265.31784 208.3407 C 265.47275 208.3508 265.63295 208.35575 265.79688 208.35775 C 265.9153 208.35945 266.03491 208.33746 266.155 208.29626 C 266.27882 208.25374 266.40252 208.19099 266.52604 208.11229 C 266.78534 207.94717 267.0376 207.71643 267.28878 207.4653 C 267.30608 207.448 267.32326 207.43103 267.34046 207.41363 C 267.58326 207.16827 267.81796 206.9119 268.05979 206.60592 C 268.38295 206.19705 268.60532 205.83946 268.70472 205.65094 C 268.66844 205.86619 268.6027 206.2767 268.40344 206.79919 C 268.2615 207.17139 268.0743 207.53724 267.85257 207.84357 C 267.83627 207.86617 267.81996 207.88855 267.80296 207.91075 C 267.55756 208.23262 267.24744 208.51914 266.89862 208.72414 C 266.84828 208.75374 266.79641 208.78104 266.74411 208.80734 A 0.750075 0.750075 0 0 1 266.79114 208.82232 C 271.52767 211.87819 274.85518 207.30932 274.53072 204.43241 C 273.44016 205.12846 272.17601 205.39388 270.91802 205.15226 C 269.7186 204.9219 268.53919 204.24185 267.49704 203.11053 z M 277.77703 208.30246 C 277.14772 208.8987 276.56647 209.77457 275.95544 210.67596 C 275.41945 211.46664 274.76389 212.19642 273.9907 212.77764 C 274.54384 213.02178 275.00097 213.16081 275.3131 213.24841 C 275.35187 213.25231 275.39007 213.2573 275.42937 213.2603 C 275.54731 213.2711 275.66826 213.25809 275.7911 213.22619 C 275.91783 213.19332 276.04637 213.14006 276.17558 213.07116 C 276.44682 212.92648 276.71558 212.7162 276.98535 212.48515 C 277.00385 212.46935 277.02266 212.45361 277.04116 212.43761 C 277.30212 212.21167 277.55578 211.97424 277.82044 211.68778 C 278.1741 211.30499 278.42361 210.96531 278.53719 210.785 C 278.48445 210.99681 278.38694 211.40076 278.14807 211.90637 C 277.9779 212.26655 277.7633 212.61692 277.51865 212.90528 C 277.50065 212.92658 277.48195 212.94804 277.46335 212.96884 C 277.19432 213.2704 276.86404 213.53132 276.50114 213.70885 C 279.17779 215.05573 281.18737 214.80385 282.5571 213.75794 C 283.61602 212.94937 284.32707 211.58828 284.54303 209.9499 C 283.54046 210.48425 282.41606 210.67183 281.29671 210.45685 C 280.05903 210.21914 278.84328 209.50009 277.77703 208.30246 z " /><path
       style="color:#000000;fill:#000000;stroke-linejoin:round;-inkscape-stroke:none;paint-order:fill markers stroke"
       d="m 231.90179,90.842446 c 0.0136,-0.004 0.005,0.0011 -0.003,0.0041 -0.002,5.69e-4 -0.006,0.0015 -0.008,0.0021 0.002,-5.79e-4 0.01,-0.006 0.0109,-0.0062 z"
       id="path4" /><path
       id="path15-4"
       style="opacity:0.828393;fill:#ffffff;stroke-width:0.940298;stroke-linecap:square;paint-order:fill markers stroke"
       d="m 223.59583,92.993454 a 0.72009695,0.72009695 0 0 1 -0.7201,0.720097 0.72009695,0.72009695 0 0 1 -0.72009,-0.720097 0.72009695,0.72009695 0 0 1 0.72009,-0.720097 0.72009695,0.72009695 0 0 1 0.7201,0.720097 z" /></g></svg>
