<?xml version="1.0" encoding="UTF-8" standalone="no"?>
<svg
   xmlns:dc="http://purl.org/dc/elements/1.1/"
   xmlns:cc="http://creativecommons.org/ns#"
   xmlns:rdf="http://www.w3.org/1999/02/22-rdf-syntax-ns#"
   xmlns:svg="http://www.w3.org/2000/svg"
   xmlns="http://www.w3.org/2000/svg"
   xmlns:sodipodi="http://sodipodi.sourceforge.net/DTD/sodipodi-0.dtd"
   xmlns:inkscape="http://www.inkscape.org/namespaces/inkscape"
   width="800"
   height="1000.0001"
   viewBox="0 0 211.66666 264.58336"
   version="1.1"
   id="svg847"
   sodipodi:docname="omsk oblast.svg"
   inkscape:version="1.0.2 (e86c870879, 2021-01-15, custom)">
  <defs
     id="defs841" />
  <sodipodi:namedview
     id="base"
     pagecolor="#ffffff"
     bordercolor="#666666"
     borderopacity="1.0"
     inkscape:pageopacity="0.0"
     inkscape:pageshadow="2"
     inkscape:zoom="0.49497475"
     inkscape:cx="405.36465"
     inkscape:cy="585.95222"
     inkscape:document-units="px"
     inkscape:current-layer="layer1"
     inkscape:document-rotation="0"
     showgrid="false"
     inkscape:snap-smooth-nodes="true"
     inkscape:showpageshadow="false"
     borderlayer="true"
     units="px"
     inkscape:window-width="1920"
     inkscape:window-height="1017"
     inkscape:window-x="-8"
     inkscape:window-y="-4"
     inkscape:window-maximized="1"
     inkscape:snap-center="false"
     inkscape:snap-global="true" />
  <metadata
     id="metadata844">
    <rdf:RDF>
      <cc:Work
         rdf:about="">
        <dc:format>image/svg+xml</dc:format>
        <dc:type
           rdf:resource="http://purl.org/dc/dcmitype/StillImage" />
        <dc:title></dc:title>
      </cc:Work>
    </rdf:RDF>
  </metadata>
  <g
     inkscape:label="Layer 1"
     inkscape:groupmode="layer"
     id="layer1"
     transform="translate(-7.8819673,-18.507576)">
    <g
       id="g941"
       inkscape:transform-center-x="1.7282798e-05"
       inkscape:transform-center-y="22.861553" />
    <g
       id="g962"
       inkscape:transform-center-x="21.742636"
       inkscape:transform-center-y="7.0645909"
       transform="rotate(72,107.77643,144.40493)" />
    <g
       id="g970"
       inkscape:transform-center-x="13.437671"
       inkscape:transform-center-y="-18.495398"
       transform="rotate(144,107.77643,144.40493)" />
    <g
       id="g978"
       inkscape:transform-center-x="-13.437698"
       inkscape:transform-center-y="-18.495378"
       transform="rotate(-144,107.77643,144.40493)" />
    <g
       id="g986"
       inkscape:transform-center-x="-21.742625"
       inkscape:transform-center-y="7.0646231"
       transform="rotate(-72,107.77643,144.40493)" />
    <g
       id="g2335"
       transform="matrix(1.0595644,0,0,1.0595634,-0.48140378,-1.1390443)"
       style="stroke-width:0.943784">
      <g
         id="g1941"
         style="stroke-width:0.940817"
         transform="matrix(1.000006,0,0,1.0063117,-4.8721471e-5,-0.42168839)">
        <path
           style="font-variation-settings:normal;opacity:1;vector-effect:none;fill:#db261b;fill-opacity:1;stroke:none;stroke-width:0.373386;stroke-linecap:butt;stroke-linejoin:miter;stroke-miterlimit:4;stroke-dasharray:none;stroke-dashoffset:0;stroke-opacity:1;stop-color:#000000;stop-opacity:1"
           d="m 133.76838,236.06581 c 6.16207,-2.65112 10.58656,-4.20672 16.15818,-3.14611 5.57161,1.06062 7.97229,5.27547 7.77232,7.68577 l 0.36558,5.11603 c 0.76248,-0.64208 1.49532,-1.42029 2.16361,-2.33919 3.20723,-4.40995 6.79245,-6.61193 12.94421,-10.92695 5.59878,-3.92715 9.62378,-7.2086 9.23916,-19.70882 -0.38462,-12.50021 -1.60362,-26.05877 -3.00678,-39.48907 -1.40317,-13.43029 0.0357,-22.47034 3.0736,-29.46646 1.93575,-4.45789 2.64248,-9.0457 3.00187,-13.59734 h -6.40956 c -2.48047,0 -2.80361,-1.35104 -2.80361,-1.35104 l 0.0641,-40.008921 c 3.94882,-8.373832 5.94796,-8.832056 7.4718,-16.451269 -1.43655,0.820883 -2.68305,1.084924 -3.63226,0.801673 0,0 -1.46752,-0.520209 -4.37408,-2.524731 -2.90656,-2.004521 -9.90028,-7.679099 -9.90028,-7.679099 -4.53571,3.96875 -8.50446,6.378348 -8.50446,6.378348 l -19.41853,0.850447 -0.42522,-7.087054 2.73505,-0.514139 c 0,0 7.45014,-4.209494 15.66868,-12.828937 8.21854,-8.619442 10.2717,-8.961634 15.283,-6.957113 5.0113,2.004523 14.94937,4.622218 17.95426,5.606363 3.0049,0.984145 6.00982,7.705045 -0.99218,11.90625 3.50823,1.740015 8.01141,4.238024 11.98802,6.716795 4.78282,2.52677 6.42887,11.095333 1.76086,17.379187 -4.66801,6.283854 -9.49665,10.205358 -11.0558,17.15067 -1.55916,6.94531 -0.66085,12.87707 -0.66085,12.87707 h 7.98468 c 2.14885,0 7.51696,0.70159 8.92012,7.91787 1.40317,7.21627 -1.80407,18.20773 -5.41221,31.43757 -3.09567,11.3508 -2.80633,20.24567 -0.4009,36.48229 2.20711,14.89801 2.90656,31.27054 -0.90203,40.89224 -3.8086,9.62171 -9.79458,12.77322 -16.93821,18.94273 -7.14411,6.16991 -9.44123,11.52096 -17.74002,14.63301 -8.29878,3.11204 -12.82906,-0.91629 -13.80575,-2.47203 -0.9767,-1.55574 -1.17903,-2.72143 -2.33873,-7.37054 -4.76089,0 -8.01956,0.30422 -18.50033,5.26558 -10.48077,4.96136 -16.63753,6.61492 -23.31926,6.61492 -6.68173,0 -12.838494,-1.65356 -23.319259,-6.61492 -10.480765,-4.96136 -13.739434,-5.26558 -18.500325,-5.26558 -1.1597,4.64911 -1.362029,5.8148 -2.338729,7.37054 -0.976699,1.55574 -5.506972,5.58407 -13.805758,2.47203 -8.298787,-3.11205 -10.59591,-8.4631 -17.740015,-14.63301 -7.143631,-6.16951 -13.129616,-9.32102 -16.938207,-18.94273 -3.808591,-9.6217 -3.109149,-25.99423 -0.902035,-40.89224 2.405426,-16.23662 2.69477,-25.13149 -0.400904,-36.48229 -3.608139,-13.22984 -6.8153729,-24.2213 -5.4122078,-31.43757 1.403165,-7.21628 6.7712758,-7.91787 8.9201208,-7.91787 h 7.984679 c 0,0 0.898308,-5.93176 -0.660844,-12.87707 C 23.103794,94.635788 18.275148,90.714284 13.607142,84.43043 8.9391366,78.146576 10.585183,69.578013 15.367998,67.051243 c 3.976612,-2.478771 8.479799,-4.97678 11.988029,-6.716795 -7.002009,-4.201205 -3.99708,-10.922105 -0.992188,-11.90625 3.004892,-0.984145 12.942961,-3.60184 17.954265,-5.606363 5.011303,-2.004521 7.064463,-1.662329 15.283001,6.957113 8.218537,8.619443 15.668675,12.828937 15.668675,12.828937 l 2.735057,0.514139 -0.425224,7.087054 -19.418526,-0.850447 c 0,0 -3.96875,-2.409598 -8.504465,-6.378348 0,0 -6.993723,5.674578 -9.90028,7.679099 -2.906556,2.004522 -4.374079,2.524731 -4.374079,2.524731 -0.949211,0.283251 -2.195712,0.01921 -3.632263,-0.801673 1.523843,7.619213 3.522981,8.077437 7.471803,16.451269 l 0.0641,40.008921 c 0,0 -0.32314,1.35104 -2.80361,1.35104 h -6.40956 c 0.359391,4.55164 1.066119,9.13945 3.001873,13.59734 3.037933,6.99612 4.476765,16.03617 3.0736,29.46646 -1.403165,13.4303 -2.62216,26.98886 -3.006782,39.48907 -0.384623,12.50022 3.640375,15.78167 9.239158,19.70882 6.151757,4.31502 9.736977,6.517 12.944212,10.92695 0.668289,0.9189 1.40113,1.69711 2.16361,2.33919 l 0.365578,-5.11603 c -0.199974,-2.4103 2.200707,-6.62515 7.772325,-7.68577 5.571619,-1.06061 9.99611,0.49499 16.158171,3.14611 6.16206,2.65112 15.437163,9.68852 25.991952,9.68852 10.55479,0 19.82989,-7.0374 25.99195,-9.68852 z"
           id="path2253"
           sodipodi:nodetypes="ssccssssscsccccscccccsssccsscsssssssscszscsssssssscssccssscccccsccccscsssssccsszs" />
        <path
           id="path2043"
           style="font-variation-settings:normal;vector-effect:none;fill:#f5c209;fill-opacity:1;stroke:none;stroke-width:0.470409;stroke-linecap:butt;stroke-linejoin:miter;stroke-miterlimit:4;stroke-dasharray:none;stroke-dashoffset:0;stroke-opacity:1;stop-color:#000000"
           d="m 177.02344,158.71094 c -1.69171,0.3764 -3.45408,0.91813 -5.29492,1.55859 15.73134,-0.47986 24.24257,7.2755 48.94531,33.23438 31.41367,33.01107 62.81815,50.41119 71.76562,52.97265 l 1.89453,-2.65039 c -8.84736,-2.52781 -39.90265,-19.69797 -70.96484,-52.27539 -23.29664,-24.43307 -31.99321,-32.54712 -46.23242,-32.83984 -0.0371,-7.7e-4 -0.0761,6.5e-4 -0.11328,0 z m -9.05274,2.95508 c -0.16032,0.0635 -0.30681,0.11491 -0.46875,0.17968 -1.60985,0.64395 -3.39472,1.30826 -5.24609,1.98047 16.44522,0.0348 27.0481,8.80355 51.59961,34.60352 31.41367,33.01107 63.9545,51.16569 78.96289,56 v -3.40821 c -8.94748,-2.56146 -45.27774,-21.85416 -76.69141,-54.86523 -23.11638,-24.29186 -33.46675,-33.47177 -48.15625,-34.49023 z m -38.66797,12.63476 c -1.7495,0.51386 -3.20975,0.93313 -4.90429,1.42578 4.83165,1.1804 10.31434,3.07008 16.01367,6.10156 17.80394,9.47019 43.00362,36.28321 60.14648,51.28321 15.83925,13.85933 39.90397,27.94975 43.61524,30.09765 l 3.4375,0.1504 2.51562,-0.8379 c 0,0 -27.88058,-15.92578 -45.02343,-30.92578 -17.14286,-15 -42.34255,-41.81302 -60.14649,-51.2832 -5.55897,-2.9569 -10.91023,-4.82561 -15.6543,-6.01172 z m -10.94921,3.18164 c -1.60198,0.463 -3.45588,1.00558 -4.94141,1.43555 5.42632,1.09862 11.89601,3.09616 18.66601,6.69726 17.80395,9.47019 43.00363,36.28321 60.14649,51.28321 14.79275,12.94365 31.67432,22.97894 36.25195,25.62304 l 4.73828,0.20704 1.75977,-0.58594 c 0,0 -21.06222,-11.75781 -38.20508,-26.75781 -17.14286,-15 -42.34254,-41.81498 -60.14648,-51.28516 -6.60467,-3.51312 -12.92621,-5.50205 -18.26953,-6.61719 z m -11.22657,4.50391 c -5.58279,9.85201 -4.55603,27.22302 14.82813,38.85351 26.64171,15.98503 35.69404,25.36075 34.70312,41.02344 0.96074,-0.72347 2.94346,-1.66442 3.95508,-2.4375 2.03704,-16.46757 -7.38056,-24.28926 -33.73437,-40.10156 -17.45657,-10.47395 -21.10899,-27.15116 -16.50782,-37.06836 z m -3.21484,0.42383 -2.87695,0.37695 c -8.889425,8.38127 -13.644269,29.51187 8.79687,42.97656 26.46429,15.87857 37.42671,22.56287 38.25781,39.92969 l 4.92578,-1.89453 C 154.83617,249.84127 141.601,237.85318 115.13672,221.97461 94.853643,209.80476 96.788906,191.82218 103.91211,182.41016 Z m -23.494141,58.28515 c -0.282906,-0.003 -0.563377,0.0178 -0.845703,0.0215 -1.642549,0.92522 -3.285077,1.8585 -4.935547,2.80859 19.754967,-1.78264 41.761691,14.7375 49.597661,19.11719 5.80644,3.24539 10.99161,5.48143 16.23632,5.79883 l 0.35547,-3.65625 c -4.61783,-0.64165 -9.24981,-2.6569 -14.36719,-5.43555 -7.36371,-3.99837 -27.284907,-18.46137 -46.041011,-18.6543 z m -9.03711,5.36719 c -0.376248,-0.004 -0.751724,-3.9e-4 -1.126953,0.008 -1.640418,0.96294 -3.267245,1.93331 -4.890625,2.90821 20.573182,-2.49249 43.794599,15.367 51.984379,20.04687 6.94544,3.96882 13.02796,6.5044 19.3457,6.10547 l 2.08008,-2.71484 c -6.48811,0.55989 -12.69961,-2.00051 -19.81836,-6.06836 C 111.3461,261.9993 90.761689,246.2723 71.380859,246.0625 Z m -4.765625,4.98047 c -12.782701,13.71424 -14.930645,43.3764 0.451172,64.50781 17.642857,24.23761 34.554404,36.68177 40.447264,63.4707 5.89286,26.78892 2.23047,53.39063 2.23047,53.39063 h 4.92383 c 0,0 3.66239,-26.59874 -2.23047,-53.76953 -5.89286,-27.17081 -22.802465,-39.82514 -40.445312,-64.4082 -14.606763,-20.35271 -13.40657,-48.48472 -2.302735,-63.17383 z m 43.128906,181.36914 h -4.92578 c 0,0 3.66434,-25.84883 -2.22852,-52.25586 C 96.69701,353.74919 78.9827,339.10694 61.339844,315.21484 45.087542,293.20585 49.085615,263.82479 63.947266,251.82031 l -2.113282,0.53125 c -18.076775,9.60714 -23.227672,40.57889 -5.584821,64.47099 17.642858,23.8921 35.580635,40.40905 41.473493,66.81612 5.892854,26.40703 1.740235,48.77344 1.740235,48.77344 h 4.726559 c 0,0 -15.795094,5.26814 -18.572262,29.89062 -2.777178,24.62245 9.903835,68.6478 18.089842,94.70118 8.18602,26.05338 13.78872,63.26133 8.23438,114.02148 -5.55435,50.76019 -9.24312,90.63988 -10.76563,137.88477 -1.522504,47.24492 23.89613,69.49707 46.0586,84.33984 24.35135,16.30874 26.91102,19.32837 47.4414,40.10156 20.53038,20.77316 29.81382,23.86464 41.18164,22.45703 9.61893,-1.19104 16.2456,-7.19618 18.89844,-11.81836 l 0.36914,-3.44921 c -3.10431,5.04876 -9.93572,10.32885 -18.07812,11.43164 -11.3494,1.53717 -21.21248,-2.77252 -36.81836,-18.6211 -15.60589,-15.84861 -23.08808,-24.92954 -47.43946,-41.23828 -22.16246,-14.84277 -48.33891,-33.68476 -46.8164,-80.92969 1.5225,-47.24488 4.83237,-89.77692 10.38672,-140.53711 5.55432,-50.76013 0.70945,-87.9681 -7.47657,-114.02148 -8.18601,-26.05338 -20.488109,-69.69982 -17.710935,-94.32227 2.777174,-24.62248 18.572265,-29.89062 18.572265,-29.89062 z M 99.585938,262.27344 c 2.207552,41.7793 30.783552,66.23009 47.138672,96.96289 l -1.13672,-9.47071 C 129.61157,320.54811 106.5435,306.21291 104.33594,264.43359 Z m 8.916012,4.43359 c 4.1016,40.6429 23.38267,53.66612 37.84375,78.7168 l -0.75781,-7.78125 C 132.02045,311.42241 122.04798,312.14471 112.80273,269.4043 Z m 22.15821,165.65625 -2.9043,0.50781 c 8.51976,4.04268 11.07168,12.60645 5.39258,22.78711 -7.53233,13.50286 -18.22978,21.98239 -2.76367,36.67969 h 2.94726 c -15.46611,-14.6973 -5.1913,-23.15189 2.76367,-36.41016 6.88575,-11.47625 3.39166,-21.16689 -5.43554,-23.56445 z m -65.126957,0.23438 c 0,0 -21.602949,2.8743 -26.90625,30.14843 -5.3033,27.2741 6.439111,68.05801 20.076172,118.06055 11.700185,42.90066 10.606999,76.51997 1.515625,137.88672 -8.341848,56.30744 -10.984518,118.18725 3.410156,154.55273 14.394675,36.36552 37.018024,48.27592 64.017574,71.59375 27.00135,23.31935 36.14817,43.38445 66.51368,54.77149 25.61164,9.60437 42.6677,-5.86361 49.42773,-14.13477 l 0.96484,-4.15429 c -6.82672,8.29096 -23.30849,22.48533 -48.78515,12.93164 C 165.40207,982.86687 156.25525,962.80369 129.25391,939.48438 102.25436,916.16654 82.660495,905.01161 68.265824,868.64609 53.871149,832.28061 57.273389,768.88556 65.615234,712.57812 74.706608,651.2114 74.28417,617.59402 62.583984,574.69336 48.946927,524.69081 38.341238,488.44987 43.644531,461.17578 c 3.668319,-18.86566 14.88428,-25.76057 23.90625,-28.33594 z m 6.589844,0 c 0,0 -17.585371,2.8743 -22.888672,30.14843 -5.303301,27.2741 6.439111,68.05801 20.076172,118.06055 11.700185,42.90066 10.606999,76.51997 1.515625,137.88672 -8.341848,56.30744 -10.986472,113.9021 3.408203,150.26758 14.394675,36.36552 39.162555,48.81107 66.162105,72.1289 27.00135,23.31935 35.2556,39.90202 60.6211,49.41407 20.03483,7.51305 34.52823,-0.47159 44.96289,-13.36133 l 0.9707,-3.5918 c -9.0908,10.23636 -23.02482,19.98632 -41.11328,13.20313 C 175.47238,975.36687 169.00525,959.05369 142.00391,935.73438 115.00436,912.41654 94.025534,903.49638 79.630859,867.13086 65.236188,830.76538 67.878855,768.88556 76.220703,712.57812 85.312077,651.2114 84.891591,617.59402 73.191406,574.69336 59.554345,524.69081 48.946707,488.44987 54.25,461.17578 57.918319,442.31012 67.261233,435.41521 76.283203,432.83984 Z m 42.277343,0.25195 c 0,0 -13.25851,4.16855 -15.910156,28.79101 -2.651652,24.62246 7.715236,64.47983 15.531246,90.53321 7.81603,26.05338 13.88924,56.82188 8.58594,107.58203 -5.3033,50.76019 -11.42521,98.59496 -12.8789,145.83984 -1.4537,47.24493 22.09119,64.95217 43.25195,79.79492 23.25073,16.30874 31.12025,22.73571 46.74414,40.09961 15.6239,17.36391 28.82762,22.35097 39.68164,20.94336 9.18417,-1.19104 15.51198,-7.19618 18.04492,-11.81836 l 0.35156,-3.44921 c -2.964,5.04876 -9.48536,10.32885 -17.25976,11.43164 -10.83643,1.53717 -19.89173,0.2564 -35.51563,-17.10743 -15.62389,-17.3639 -23.49145,-23.79087 -46.74218,-40.09961 -21.16076,-14.84275 -44.7076,-32.54999 -43.25391,-79.79492 1.45369,-47.24488 6.05998,-93.18512 11.36328,-143.94531 5.3033,-50.76015 -0.76991,-85.31576 -8.58594,-111.36914 -7.81601,-26.05338 -16.66727,-64.01817 -14.01562,-88.64063 2.65165,-24.62246 15.91015,-28.79101 15.91015,-28.79101 z m 12.20117,1.01758 -3.04883,1.93359 c 4.12837,4.7905 5.58342,11.63636 1.29297,18.78711 -7.95497,13.25827 -17.02275,22.91797 -1.55664,37.61523 h 2.94532 c -15.46611,-14.69726 -6.66591,-21.41164 1.28906,-34.66992 5.54389,-9.23982 4.35797,-18.74959 -0.92188,-23.66601 z m 18.98633,28.97265 c -3.78807,17.04632 -13.44726,25 -13.44727,25 l 1.70508,1.13672 c 0,0 10.79547,-5.87016 12.87891,-17.23437 z m 0.94727,17.23438 c -3.78808,8.71257 -11.93164,9.66015 -11.93164,9.66016 l 0.87109,0.99609 c 9.375,0 11.66797,-8.32031 11.66797,-8.32031 z M 309.10742,902.3418 c -23.28968,-10.01998 -40.01223,-15.89927 -61.07031,-11.89063 -15.60707,2.97098 -25.22071,12.48987 -28.84375,20.92774 l -0.46484,-3.65235 c 3.20905,-8.70742 12.97654,-18.98865 29.30859,-22.09765 4.60645,-0.87689 9.0049,-1.28049 13.31055,-1.27149 15.37732,0.0331 29.5647,5.33595 47.75976,13.16406 23.28968,10.01999 58.34381,36.61719 98.23657,36.61725 39.89277,5e-5 74.9469,-26.59716 98.23658,-36.61714 18.19506,-7.82812 32.38246,-13.13095 47.75977,-13.16406 4.30564,-0.008 8.7041,0.39462 13.31055,1.27151 16.33206,3.109 26.09953,13.39022 29.30858,22.09765 l -0.46485,3.65235 c -3.62302,-8.43788 -13.23666,-17.95677 -28.84373,-20.92774 -21.05809,-4.00864 -37.78065,1.87064 -61.07032,11.89062 -23.28968,10.01998 -58.34381,36.61912 -98.23658,36.61907 -39.89276,-5e-5 -74.94689,-26.59921 -98.23657,-36.61919 z m 0,11.78515 c -23.28968,-10.01998 -40.01223,-17.50669 -61.07031,-13.49804 -11.72183,2.23139 -20.06239,8.15831 -25.02344,14.54492 l -2.1914,-1.61914 c 4.47651,-7.52149 13.54729,-15.14431 27.21484,-17.7461 3.94839,-0.75162 7.74357,-1.09956 11.45898,-1.10156 16.10013,-0.0106 30.68847,6.45838 49.61133,14.59961 23.28968,10.01998 58.34381,35.00977 98.23657,35.00983 39.89277,5e-5 74.9469,-24.98973 98.23658,-35.00971 18.92284,-8.14122 33.51122,-14.61018 49.61132,-14.5996 3.71543,0.002 7.51061,0.34999 11.459,1.10154 13.66753,2.60179 22.73832,10.22461 27.21483,17.7461 l -2.19141,1.61915 c -4.96104,-6.38661 -13.30159,-12.31355 -25.02342,-14.54491 -21.05809,-4.00868 -37.78065,3.47803 -61.07032,13.49801 -23.28968,10.01999 -58.34381,35.01173 -98.23658,35.01168 -39.89276,-6e-5 -74.94689,-24.9918 -98.23657,-35.01178 z m -90.44726,-1.00195 -0.26758,3.75 c 2.61613,8.84186 16.32982,7.93339 24.75586,4.27734 8.42603,-3.65605 16.22428,-2.73491 15.81445,3.13477 l 1.07227,-3.75 c 0.41794,-5.86968 -7.53604,-6.79082 -16.12891,-3.13477 -8.59287,3.65605 -24.49028,4.83238 -25.24609,-4.27734 z m -0.80274,8.83984 v 3.75 c 3.36366,6.84186 15.18529,8.03466 22.61133,4.8125 7.42604,-3.22212 13.41451,-3.41293 14.47656,-1.15039 l 1.875,-2.67773 c -2.00088,-4.26251 -7.38841,-3.84547 -15.81445,-0.18945 -8.42604,3.65605 -21.12406,2.29693 -23.14844,-4.54493 z m 103.65625,48.27539 C 282.741,951.33232 270.68672,950.17188 253.07422,950.17188 l 1.13672,-3.78907 c 17.48536,0 29.45253,1.14895 67.94531,19.90039 38.49278,18.75152 61.10424,25.00196 85.18774,25.00202 24.08349,6e-5 46.69497,-6.25037 85.18776,-25.00189 38.49279,-18.75145 50.45994,-19.90039 67.94532,-19.90039 l 1.13669,3.78905 c -17.61248,0 -29.66675,1.16043 -68.43945,20.06835 -38.77267,18.90799 -61.54878,25.209 -85.83032,25.20894 -24.28155,-6e-5 -47.05765,-6.30105 -85.83032,-25.20905 z"
           transform="scale(0.26458333)"
           sodipodi:nodetypes="ccsccssccccsccsccccscccssccccscccssccsccsccccsccsccccsccsccccsccccccsccssccccssccssccsssssssccssssssscccccccccccccsccscccsssssccssssssccccsssssccssssssccccssssssccsssssssccccsccscccccccscccscssccsszsscsssczccsscccszcscsscczccsccscccsccscccscczsccszc" />
        <path
           id="path2255"
           style="font-variation-settings:normal;vector-effect:none;fill:#f5c209;fill-opacity:1;stroke:none;stroke-width:0.124462;stroke-linecap:butt;stroke-linejoin:miter;stroke-miterlimit:4;stroke-dasharray:none;stroke-dashoffset:0;stroke-opacity:1;stop-color:#000000"
           d="m 168.71541,41.992269 c 0.4476,0.09959 0.91389,0.242922 1.40095,0.412377 -4.16225,-0.126963 -6.41418,1.924976 -12.95011,8.793263 -8.31154,8.734179 -16.62064,13.33796 -18.98799,14.01568 L 137.677,64.51234 c 2.34086,-0.668816 10.55757,-5.211754 18.77611,-13.831197 6.1639,-6.464583 8.46487,-8.611425 12.23233,-8.688874 0.01,-2.04e-4 0.0201,1.72e-4 0.03,0 z m 2.39521,0.781865 c 0.0424,0.0168 0.0812,0.0304 0.12402,0.04754 0.42594,0.170379 0.89818,0.346144 1.38803,0.524 -4.35113,0.0092 -7.15648,2.329272 -13.6524,9.155514 -8.31153,8.734179 -16.92129,13.537589 -20.89226,14.816667 v -0.901756 c 2.36735,-0.67772 11.97973,-5.782246 20.29126,-14.516425 6.11621,-6.427221 8.85475,-8.856073 12.74135,-9.12554 z m 10.2309,3.342947 c 0.46288,0.135959 0.84924,0.24689 1.29759,0.377237 -1.27838,0.312315 -2.729,0.812292 -4.23695,1.614371 -4.71063,2.505655 -11.37804,9.599933 -15.91376,13.568683 -4.1908,3.666948 -10.55792,7.395038 -11.53986,7.963336 l -0.90951,0.03979 -0.66559,-0.221695 c 0,0 7.37674,-4.213696 11.91245,-8.182445 4.53571,-3.96875 11.20313,-11.063029 15.91376,-13.56868 1.47081,-0.782347 2.88666,-1.276776 4.14187,-1.590601 z m 2.89697,0.841809 c 0.42386,0.122502 0.91437,0.266059 1.30742,0.379822 -1.43572,0.290677 -3.14749,0.819193 -4.93872,1.771984 -4.71063,2.505654 -11.37804,9.599932 -15.91376,13.568682 -3.91391,3.424674 -8.38049,6.079845 -9.59166,6.779429 l -1.25367,0.05478 -0.4656,-0.15503 c 0,0 5.57271,-3.110921 10.10842,-7.079671 4.53572,-3.96875 11.20313,-11.063546 15.91376,-13.569198 1.74749,-0.929513 3.42006,-1.455751 4.83381,-1.750798 z m 2.97037,1.191659 c 1.47711,2.606678 1.20545,7.202757 -3.92328,10.279991 -7.04895,4.229373 -9.44405,6.710032 -9.18187,10.854119 -0.25419,-0.191418 -0.77879,-0.440378 -1.04644,-0.644922 -0.53897,-4.357045 1.95277,-6.426534 8.92555,-10.610205 4.61872,-2.771232 5.58508,-7.183744 4.36769,-9.80767 z m 0.85059,0.112139 0.76119,0.09973 c 2.352,2.217545 3.61005,7.808349 -2.3275,11.370882 -7.00201,4.201205 -9.90249,5.969759 -10.12238,10.56473 l -1.30328,-0.501261 c -0.48169,-3.692938 3.02012,-6.864787 10.02213,-11.065992 5.36656,-3.219939 4.85452,-7.97783 2.96984,-10.468093 z m 6.21616,15.421279 c 0.0749,-7.94e-4 0.14906,0.0047 0.22376,0.0057 0.43459,0.244798 0.86917,0.491728 1.30586,0.743106 -5.22683,-0.471657 -11.04945,3.899297 -13.12271,5.05809 -1.53629,0.858676 -2.9082,1.450295 -4.29586,1.534274 l -0.094,-0.967383 c 1.2218,-0.16977 2.44734,-0.702971 3.80131,-1.438156 1.94832,-1.057902 7.21914,-4.884571 12.18169,-4.935617 z m 2.39107,1.420069 c 0.0995,-0.0011 0.19889,-1.04e-4 0.29817,0.0021 0.43403,0.254778 0.86446,0.511522 1.29398,0.769464 -5.44332,-0.659471 -11.58732,4.065852 -13.7542,5.304068 -1.83765,1.050083 -3.44698,1.720956 -5.11855,1.615405 l -0.55036,-0.718301 c 1.71665,0.148138 3.36011,-0.529302 5.24361,-1.605587 2.01321,-1.150554 7.4595,-5.311656 12.58735,-5.367165 z m 1.2609,1.317749 c 3.38209,3.628559 3.9504,11.476672 -0.11937,17.067691 -4.66801,6.412868 -9.14252,9.705385 -10.70167,16.793294 -1.55916,7.0879 -0.59015,14.12627 -0.59015,14.12627 h -1.30276 c 0,0 -0.96901,-7.03759 0.59014,-14.22653 1.55916,-7.188939 6.03316,-10.537063 10.70116,-17.041331 3.86471,-5.384988 3.54715,-12.828249 0.60926,-16.714743 z m -11.41119,47.987255 h 1.30328 c 0,0 -0.96952,-6.83917 0.58963,-13.82603 1.55915,-6.986871 6.24606,-10.860967 10.91406,-17.182418 4.30009,-5.823212 3.24227,-13.596951 -0.68988,-16.773136 l 0.55914,0.14056 c 4.78281,2.541889 6.14566,10.736498 1.47765,17.057949 -4.668,6.321452 -9.41404,10.691561 -10.97319,17.678435 -1.55915,6.98686 -0.46044,12.90464 -0.46044,12.90464 h -1.25057 c 0,0 4.17912,1.39386 4.91391,7.90856 0.7348,6.51469 -2.62039,18.16306 -4.78627,25.05635 -2.16588,6.89329 -3.64826,16.73789 -2.17868,30.16818 1.46959,13.4303 2.44558,23.9818 2.84841,36.48201 0.40283,12.50022 -6.32252,18.38777 -12.18634,22.31492 -6.44296,4.31502 -7.12021,5.11396 -12.5522,10.6102 -5.432,5.49624 -7.88824,6.31419 -10.89598,5.94176 -2.54501,-0.31513 -4.29831,-1.90399 -5.00021,-3.12694 l -0.0977,-0.9126 c 0.82135,1.33581 2.62883,2.73284 4.78317,3.02462 3.00286,0.40671 5.61247,-0.73357 9.74152,-4.92684 4.12906,-4.19327 6.10872,-6.59594 12.55169,-10.91096 5.86382,-3.92715 12.78967,-8.91242 12.38684,-21.41264 -0.40283,-12.50021 -1.27856,-23.75348 -2.74815,-37.18378 -1.46958,-13.43029 -0.18771,-23.27489 1.97818,-30.16818 2.16588,-6.89329 5.42081,-18.44141 4.68601,-24.9561 -0.73479,-6.5147 -4.91391,-7.90856 -4.91391,-7.90856 z m 2.68769,-45.01586 c -0.58408,11.054106 -8.14481,17.523378 -12.4721,25.654764 l 0.30075,-2.505792 c 4.22707,-7.730466 10.3305,-11.523321 10.91458,-22.577432 z m -2.35903,1.173054 c -1.08521,10.753434 -6.18666,14.199161 -10.01282,20.827153 l 0.2005,-2.058789 c 3.58972,-6.93742 6.22827,-6.746311 8.67441,-18.054711 z m -5.86269,43.829886 0.76843,0.13435 c -2.25419,1.06963 -2.92938,3.33546 -1.42679,6.02909 1.99293,3.57264 4.8233,5.81618 0.73123,9.70484 h -0.7798 c 4.09207,-3.88866 1.37353,-6.12561 -0.73122,-9.63352 -1.82186,-3.03643 -0.89738,-5.60041 1.43815,-6.23476 z m 17.23151,0.062 c 0,0 5.71578,0.76049 7.11894,7.97677 1.40317,7.21627 -1.70368,18.00702 -5.31182,31.23685 -3.09567,11.3508 -2.80643,20.24591 -0.40101,36.48253 2.20712,14.89801 2.90633,31.27038 -0.90227,40.89208 -3.80859,9.62171 -9.79435,12.773 -16.93798,18.94251 -7.14411,6.16991 -9.5642,11.4788 -17.59841,14.49162 -6.77641,2.54116 -11.28916,-1.55141 -13.07775,-3.73982 l -0.25528,-1.09916 c 1.80623,2.19365 6.16703,5.94925 12.90773,3.4215 8.03421,-3.01282 10.45431,-8.3212 17.59841,-14.4911 7.14363,-6.16952 12.32784,-9.12092 16.13643,-18.74263 3.80859,-9.6217 2.90842,-26.39498 0.70131,-41.29299 -2.40543,-16.23661 -2.29366,-25.13121 0.80201,-36.48201 3.60814,-13.22984 6.41423,-22.81859 5.01107,-30.03486 -0.97058,-4.99154 -3.93814,-6.81581 -6.3252,-7.49721 z m -1.74356,0 c 0,0 4.65279,0.76049 6.05596,7.97677 1.40316,7.21627 -1.70368,18.00702 -5.31182,31.23685 -3.09568,11.3508 -2.80644,20.24591 -0.40101,36.48253 2.20711,14.89801 2.90684,30.1366 -0.90176,39.7583 -3.80859,9.62171 -10.36176,12.91459 -17.50539,19.0841 -7.1441,6.16991 -9.32804,10.55741 -16.03933,13.07414 -5.30088,1.98783 -9.13559,-0.12477 -11.89643,-3.53518 l -0.25683,-0.95033 c 2.40527,2.70837 6.09198,5.28804 10.87789,3.49333 8.03421,-3.01283 9.7453,-7.32902 16.8894,-13.49892 7.14364,-6.16951 12.69428,-8.52964 16.50287,-18.15135 3.80859,-9.6217 3.10939,-25.99407 0.90227,-40.89208 -2.40542,-16.23661 -2.29417,-25.13121 0.80151,-36.48201 3.60814,-13.22984 6.41474,-22.81859 5.01158,-30.03486 -0.97058,-4.99154 -3.44256,-6.81581 -5.82962,-7.49721 z m -11.18588,0.0667 c 0,0 3.50798,1.10293 4.20956,7.61762 0.70158,6.51469 -2.04132,17.06029 -4.10931,23.95358 -2.06799,6.89329 -3.67486,15.03412 -2.2717,28.46441 1.40317,13.4303 3.02292,26.08659 3.40754,38.58679 0.38463,12.50022 -5.84496,17.18526 -11.44374,21.11241 -6.15176,4.31502 -8.2339,6.01549 -12.36772,10.60969 -4.13382,4.5942 -7.62731,5.91369 -10.4991,5.54126 -2.42998,-0.31513 -4.10421,-1.90399 -4.77439,-3.12694 l -0.093,-0.9126 c 0.78422,1.33581 2.50967,2.73284 4.56664,3.02462 2.86714,0.40671 5.26302,0.0678 9.39685,-4.52634 4.13382,-4.5942 6.21544,-6.29467 12.3672,-10.60969 5.59878,-3.92715 11.82888,-8.61219 11.44426,-21.11241 -0.38462,-12.5002 -1.60337,-24.65523 -3.00653,-38.08553 -1.40317,-13.43029 0.2037,-22.57312 2.27169,-29.46641 2.06799,-6.89329 4.40988,-16.93815 3.7083,-23.45284 -0.70158,-6.51469 -4.20956,-7.61762 -4.20956,-7.61762 z m -3.22823,0.26924 0.80667,0.51159 c -1.0923,1.26749 -1.47728,3.07879 -0.3421,4.97076 2.10475,3.50791 4.50394,6.06371 0.41186,9.95236 h -0.77928 c 4.09207,-3.88865 1.76369,-5.66516 -0.34106,-9.17308 -1.46683,-2.4447 -1.15305,-4.96083 0.24391,-6.26163 z m -5.02347,7.66568 c 1.00226,4.51017 3.55792,6.61458 3.55793,6.61458 l -0.45114,0.30076 c 0,0 -2.8563,-1.55315 -3.40754,-4.55993 z m -0.25063,4.55993 c 1.00226,2.3052 3.15691,2.55591 3.15691,2.55591 l -0.23047,0.26355 c -2.48047,0 -3.08715,-2.20141 -3.08715,-2.20141 z m -19.08307,114.57801 0.0708,0.99219 c -0.69219,2.33941 -4.3206,2.09904 -6.54999,1.13171 -2.22939,-0.96733 -4.29268,-0.72361 -4.18424,0.82941 l -0.28371,-0.99219 c -0.11058,-1.55302 1.99391,-1.79673 4.26744,-0.8294 2.27353,0.96733 6.47972,1.27856 6.6797,-1.13172 z m 0.21239,2.33888 v 0.99218 c -0.88997,1.81025 -4.01777,2.12584 -5.98258,1.27331 -1.96481,-0.85252 -3.54926,-0.903 -3.83026,-0.30437 l -0.49609,-0.70848 c 0.5294,-1.12779 1.95485,-1.01745 4.18424,-0.0501 2.22939,0.96733 5.58907,0.60773 6.12469,-1.20251 z m -27.2557,13.77487 c 10.33265,-5.00272 13.54507,-5.30924 18.23868,-5.30924 l 0.40101,1.10278 c -4.72725,0 -7.96271,0.30953 -18.36942,5.35367 -10.40671,5.04416 -16.52001,6.72516 -23.14956,6.72515 -6.62955,-2e-5 -12.742844,-1.68102 -23.149555,-6.72518 -10.406711,-5.04414 -13.642171,-5.35367 -18.36942,-5.35367 l 0.401008,-1.10278 c 4.693613,0 7.906025,0.30652 18.238678,5.30924 10.33266,5.00274 16.402399,6.67039 22.879289,6.67041 6.47689,1e-5 12.54663,-1.66764 22.87929,-6.67038 z"
           sodipodi:nodetypes="ccsccssccccsccsccccscccsscccsscccssccsccscccccccsccccsccsccccsccccccscccsccccssccssccsssssssccsssssssccccccccccccssccssccsssssccssssssccccsssssccssssssccccssssssccsssssssccccsccscccccccscccssccsssccsccscccsccscsccszcscczs" />
        <path
           style="font-variation-settings:normal;opacity:1;vector-effect:none;fill:none;fill-opacity:1;stroke:#000000;stroke-width:0.373386;stroke-linecap:butt;stroke-linejoin:miter;stroke-miterlimit:4;stroke-dasharray:none;stroke-dashoffset:0;stroke-opacity:1;stop-color:#000000;stop-opacity:1"
           d="m 133.76838,236.06581 c 6.16207,-2.65112 10.58656,-4.20672 16.15818,-3.14611 5.57161,1.06062 7.97229,5.27547 7.77232,7.68577 l 0.36558,5.11603 c 0.76248,-0.64208 1.49532,-1.42029 2.16361,-2.33919 3.20723,-4.40995 6.79245,-6.61193 12.94421,-10.92695 5.59878,-3.92715 9.62378,-7.2086 9.23916,-19.70882 -0.38462,-12.50021 -1.60362,-26.05877 -3.00678,-39.48907 -1.40317,-13.43029 0.0357,-22.47034 3.0736,-29.46646 1.93575,-4.45789 2.64248,-9.0457 3.00187,-13.59734 h -6.40956 c -2.48047,0 -2.80361,-1.35104 -2.80361,-1.35104 l 0.0641,-40.008921 c 3.94882,-8.373832 5.94796,-8.832056 7.4718,-16.451269 -1.43655,0.820883 -2.68305,1.084924 -3.63226,0.801673 0,0 -1.46752,-0.520209 -4.37408,-2.524731 -2.90656,-2.004521 -9.90028,-7.679099 -9.90028,-7.679099 -4.53571,3.96875 -8.50446,6.378348 -8.50446,6.378348 l -19.41853,0.850447 -0.42522,-7.087054 2.73505,-0.514139 c 0,0 7.45014,-4.209494 15.66868,-12.828937 8.21854,-8.619442 10.2717,-8.961634 15.283,-6.957113 5.0113,2.004523 14.94937,4.622218 17.95426,5.606363 3.0049,0.984145 6.00982,7.705045 -0.99218,11.90625 3.50823,1.740015 8.01141,4.238024 11.98802,6.716795 4.78282,2.52677 6.42887,11.095333 1.76086,17.379187 -4.66801,6.283854 -9.49665,10.205358 -11.0558,17.15067 -1.55916,6.94531 -0.66085,12.87707 -0.66085,12.87707 h 7.98468 c 2.14885,0 7.51696,0.70159 8.92012,7.91787 1.40317,7.21627 -1.80407,18.20773 -5.41221,31.43757 -3.09567,11.3508 -2.80633,20.24567 -0.4009,36.48229 2.20711,14.89801 2.90656,31.27054 -0.90203,40.89224 -3.8086,9.62171 -9.79458,12.77322 -16.93821,18.94273 -7.14411,6.16991 -9.44123,11.52096 -17.74002,14.63301 -8.29878,3.11204 -12.82906,-0.91629 -13.80575,-2.47203 -0.9767,-1.55574 -1.17903,-2.72143 -2.33873,-7.37054 -4.76089,0 -8.01956,0.30422 -18.50033,5.26558 -10.48077,4.96136 -16.63753,6.61492 -23.31926,6.61492 -6.68173,0 -12.838494,-1.65356 -23.319259,-6.61492 -10.480765,-4.96136 -13.739434,-5.26558 -18.500325,-5.26558 -1.1597,4.64911 -1.362029,5.8148 -2.338729,7.37054 -0.976699,1.55574 -5.506972,5.58407 -13.805758,2.47203 -8.298787,-3.11205 -10.59591,-8.4631 -17.740015,-14.63301 -7.143631,-6.16951 -13.129616,-9.32102 -16.938207,-18.94273 -3.808591,-9.6217 -3.109149,-25.99423 -0.902035,-40.89224 2.405426,-16.23662 2.69477,-25.13149 -0.400904,-36.48229 -3.608139,-13.22984 -6.8153729,-24.2213 -5.4122078,-31.43757 1.403165,-7.21628 6.7712758,-7.91787 8.9201208,-7.91787 h 7.984679 c 0,0 0.898308,-5.93176 -0.660844,-12.87707 C 23.103794,94.635788 18.275148,90.714284 13.607142,84.43043 8.9391366,78.146576 10.585183,69.578013 15.367998,67.051243 c 3.976612,-2.478771 8.479799,-4.97678 11.988029,-6.716795 -7.002009,-4.201205 -3.99708,-10.922105 -0.992188,-11.90625 3.004892,-0.984145 12.942961,-3.60184 17.954265,-5.606363 5.011303,-2.004521 7.064463,-1.662329 15.283001,6.957113 8.218537,8.619443 15.668675,12.828937 15.668675,12.828937 l 2.735057,0.514139 -0.425224,7.087054 -19.418526,-0.850447 c 0,0 -3.96875,-2.409598 -8.504465,-6.378348 0,0 -6.993723,5.674578 -9.90028,7.679099 -2.906556,2.004522 -4.374079,2.524731 -4.374079,2.524731 -0.949211,0.283251 -2.195712,0.01921 -3.632263,-0.801673 1.523843,7.619213 3.522981,8.077437 7.471803,16.451269 l 0.0641,40.008921 c 0,0 -0.32314,1.35104 -2.80361,1.35104 h -6.40956 c 0.359391,4.55164 1.066119,9.13945 3.001873,13.59734 3.037933,6.99612 4.476765,16.03617 3.0736,29.46646 -1.403165,13.4303 -2.62216,26.98886 -3.006782,39.48907 -0.384623,12.50022 3.640375,15.78167 9.239158,19.70882 6.151757,4.31502 9.736977,6.517 12.944212,10.92695 0.668289,0.9189 1.40113,1.69711 2.16361,2.33919 l 0.365578,-5.11603 c -0.199974,-2.4103 2.200707,-6.62515 7.772325,-7.68577 5.571619,-1.06061 9.99611,0.49499 16.158171,3.14611 6.16206,2.65112 15.437163,9.68852 25.991952,9.68852 10.55479,0 19.82989,-7.0374 25.99195,-9.68852 z"
           id="path2257"
           sodipodi:nodetypes="ssccssssscsccccscccccsssccsscsssssssscszscsssssssscssccssscccccsccccscsssssccsszs" />
        <path
           id="path1894"
           style="font-variation-settings:normal;opacity:1;vector-effect:none;fill:none;fill-opacity:1;stroke:#000000;stroke-width:0.373386;stroke-linecap:butt;stroke-linejoin:miter;stroke-miterlimit:4;stroke-dasharray:none;stroke-dashoffset:0;stroke-opacity:1;stop-color:#000000;stop-opacity:1"
           d="m 15.367998,67.051243 c 4.782815,-2.52677 13.575671,3.72758 16.382002,5.331197 m 3.632263,0.801673 c 1.017573,-0.30365 1.693492,-1.23626 1.895638,-2.786049 0.390711,-2.995462 -2.919866,-5.862409 -9.921874,-10.063616 m 22.300595,2.645835 C 45.120908,59.011533 38.954534,52.31801 34.243908,49.812358 c -4.710625,-2.505651 -7.880069,-1.38416 -7.880069,-1.38416 m 10.118452,81.765472 c -3.808591,-1.90429 -1.302939,-5.91334 0.801809,-9.42126 2.104747,-3.50791 0.260722,-6.31424 -2.906557,-6.31424 H 25.32379 m 9.053753,0 c 0,0 -3.808589,0.86863 -4.510173,7.38333 -0.254538,2.36356 7.31e-4,5.76056 0.205361,8.35217 M 69.013372,242.7085 c -0.337157,3.01599 -1.867718,7.44701 -3.056526,12.21281 m -8.468441,-9.19983 c 2.896799,2.43928 6.221419,2.91325 8.059449,1.66988 2.321827,-1.57065 3.354938,-3.12984 3.46552,-4.68286 0.110582,-1.55302 -1.993798,-1.7969 -4.267328,-0.82957 -2.273531,0.96733 -6.692088,1.1368 -6.892063,-1.27348"
           sodipodi:nodetypes="cccsccsccssccsccccsssc" />
        <path
           id="path2259"
           style="font-variation-settings:normal;opacity:1;vector-effect:none;fill:none;fill-opacity:1;stroke:#000000;stroke-width:0.373386;stroke-linecap:butt;stroke-linejoin:miter;stroke-miterlimit:4;stroke-dasharray:none;stroke-dashoffset:0;stroke-opacity:1;stop-color:#000000;stop-opacity:1"
           d="m 200.18486,67.051243 c -4.78281,-2.52677 -13.57567,3.72758 -16.382,5.331197 m -3.63226,0.801673 c -1.01757,-0.30365 -1.69349,-1.23626 -1.89564,-2.786049 -0.39071,-2.995462 2.91987,-5.862409 9.92188,-10.063616 m -22.3006,2.645835 c 4.53571,-3.96875 10.70209,-10.662273 15.41271,-13.167925 4.71063,-2.505651 7.88007,-1.38416 7.88007,-1.38416 m -10.11845,81.765472 c 3.80859,-1.90429 1.30294,-5.91334 -0.80181,-9.42126 -2.10474,-3.50791 -0.26072,-6.31424 2.90656,-6.31424 h 9.05375 m -9.05375,0 c 0,0 3.80859,0.86863 4.51017,7.38333 0.25454,2.36356 -7.3e-4,5.76056 -0.20536,8.35217 M 146.53949,242.7085 c 0.33716,3.01599 1.86772,7.44701 3.05653,12.21281 m 8.46844,-9.19983 c -2.8968,2.43928 -6.22142,2.91325 -8.05945,1.66988 -2.32183,-1.57065 -3.35494,-3.12984 -3.46552,-4.68286 -0.11058,-1.55302 1.9938,-1.7969 4.26733,-0.82957 2.27353,0.96733 6.69208,1.1368 6.89206,-1.27348"
           sodipodi:nodetypes="cccsccsccssccsccccsssc" />
      </g>
      <g
         id="g1754"
         transform="matrix(1.000006,0,0,1.0063117,0.57287292,-0.24339378)"
         style="stroke-width:0.940817">
        <path
           id="path1282"
           style="font-variation-settings:normal;opacity:1;vector-effect:none;fill:#f5c209;fill-opacity:1;stroke:#000000;stroke-width:0.248924;stroke-linecap:butt;stroke-linejoin:miter;stroke-miterlimit:4;stroke-dasharray:none;stroke-dashoffset:0;stroke-opacity:1;stop-color:#000000;stop-opacity:1"
           d="m 83.964843,21.996369 -2.074385,0.549355 0.541177,2.043871 -1.944057,0.514602 0.549355,2.074384 1.944057,-0.514601 0.799755,3.020812 2.074385,-0.548839 -0.799758,-3.020812 1.944057,-0.514602 -0.549355,-2.074384 -1.944058,0.514603 z" />
        <path
           style="font-variation-settings:normal;opacity:1;vector-effect:none;fill:#f5c209;fill-opacity:1;stroke:#000000;stroke-width:0.248924;stroke-linecap:butt;stroke-linejoin:miter;stroke-miterlimit:4;stroke-dasharray:none;stroke-dashoffset:0;stroke-opacity:1;stop-color:#000000;stop-opacity:1"
           d="m 76.773167,69.323034 -0.4456,-13.547923 1.67728,-2.078869 c -3.33092,-0.354352 -5.66965,-3.543526 -5.66965,-3.543526 -1.08516,-0.363751 -1.9524,-0.285506 -2.26785,0.566964 -1.55916,-0.992187 -0.85045,-2.62221 -0.85045,-2.62221 -2.61234,0.525231 -3.24071,-1.56957 -5.38616,-2.055245 1.03223,-1.758036 -0.32986,-3.56943 1.98437,-5.24442 -2.48047,-0.141741 -2.76395,-2.338727 -2.76395,-2.338727 1.9135,-0.07087 2.3151,-0.732329 2.3151,-0.732329 -2.19698,-2.126117 -0.7087,-3.96875 -2.40959,-5.102678 -1.7009,-1.133929 -2.97657,0.14174 -2.97657,0.14174 0,0 -0.44412,-2.140595 1.48828,-2.763951 1.93241,-0.623356 3.54353,0.496094 3.54353,0.496094 1.04291,-0.893706 2.86074,-1.538114 4.67746,0.425223 0,0 -1.29985,1.011086 -1.77176,2.409598 -0.47707,1.413767 -0.33546,3.157501 1.84263,2.834821 2.17809,-0.322679 1.13393,-3.685267 1.13393,-3.685267 3.82701,-0.566964 3.82701,3.401786 3.82701,3.401786 1.48643,-0.253837 2.12537,1.09282 4.3231,0.850446 -1.06995,2.173352 0.21953,3.430027 -0.85044,5.386161 0.85044,0.496094 1.41744,1.133928 1.34654,2.69308 -0.0709,1.559152 -1.27568,2.126116 -1.27568,2.126116 -1.27566,-1.34654 -3.1183,-0.850446 -2.90569,0.637835 0.21261,1.488281 2.19699,2.834822 4.96094,2.693081 2.76395,-0.141741 4.7483,-2.62221 4.8192,-5.457032 0.0709,-2.834821 -2.97656,-2.645833 -2.97656,-2.645833 0,0 0.28241,-1.755924 1.9135,-2.303293 1.86288,-0.625152 3.54353,0.248047 3.54353,0.248047 0,0 0.66854,-1.601468 2.87025,-1.984375 2.20171,-0.382906 3.15374,1.630023 3.15374,1.630023 -1.20477,0.682747 -1.42308,1.890691 -0.8171,3.44407 0.60598,1.55338 3.46271,3.538321 6.91197,2.792536 5.510733,-1.191509 3.587253,-4.394528 2.055243,-4.890066 -1.532,-0.495538 -2.124623,0.924306 -1.984373,1.559152 -1.19192,0.537968 -2.21095,0.374995 -2.90704,-0.222712 -0.69608,-0.597707 -0.9684,-1.93869 -0.56562,-3.179074 -2.35021,-0.703912 -1.97275,-1.89157 -3.18917,-3.260045 0.96445,-1.225663 0.77753,-1.892808 2.43322,-2.669457 -0.3875,-2.954524 0.87483,-3.89331 2.19699,-4.181361 0,0 1.06305,1.913504 2.905693,1.488281 1.84263,-0.425223 1.70089,-2.763951 0.21261,-3.543527 -1.488283,-0.779576 -2.480473,0.354352 -2.480473,0.354352 -0.3835,-0.596113 -0.93507,-2.069588 0.35435,-3.330915 1.289433,-1.261326 3.180153,-0.782588 4.181373,-0.141741 0,0 -0.35436,-1.2048 1.63001,-2.693081 1.98438,-1.488281 2.19699,-1.488281 2.62222,-2.338728 0.42523,0.850447 0.63784,0.850447 2.62222,2.338728 1.98437,1.488281 1.63001,2.693081 1.63001,2.693081 1.00122,-0.640847 2.89194,-1.119585 4.18136,0.141741 1.28943,1.261327 0.73786,2.734802 0.35436,3.330915 0,0 -0.99219,-1.133928 -2.48047,-0.354352 -1.48828,0.779576 -1.63002,3.118304 0.21261,3.543527 1.84263,0.425223 2.90569,-1.488281 2.90569,-1.488281 1.32216,0.288051 2.58449,1.226837 2.19699,4.181361 1.65569,0.776649 1.46877,1.443794 2.43322,2.669457 -1.21642,1.368475 -0.83896,2.556133 -3.18918,3.260045 0.40279,1.240384 0.13047,2.581367 -0.56562,3.179074 -0.69608,0.597707 -1.71512,0.76068 -2.90703,0.222712 0.14025,-0.634846 -0.45237,-2.05469 -1.98437,-1.559152 -1.53201,0.495538 -3.45549,3.698557 2.05524,4.890066 1.37209,0.296669 2.65042,0.161227 3.73061,-0.207268 1.63527,-0.557852 2.81643,-1.649813 3.18135,-2.585268 0.60598,-1.553379 0.38768,-2.761323 -0.8171,-3.44407 0,0 0.84573,-2.012929 3.04744,-1.630023 2.20171,0.382907 2.97656,1.984375 2.97656,1.984375 0,0 1.32764,-1.003314 3.47266,-0.283482 1.87812,0.630268 1.98437,2.338728 1.98437,2.338728 0,0 -3.04746,-0.188988 -2.97656,2.645833 0.0709,2.834822 2.05524,5.315291 4.8192,5.457032 2.76395,0.141741 4.74832,-1.2048 4.96093,-2.693081 0.21261,-1.488281 -1.63002,-1.984375 -2.90569,-0.637835 0,0 -1.20477,-0.566964 -1.27567,-2.126116 -0.0709,-1.559152 0.49609,-2.196986 1.34654,-2.69308 -1.06997,-1.956134 0.21951,-3.212809 -0.85044,-5.386161 2.19772,0.242374 2.83667,-1.104283 4.3231,-0.850446 0,0 0,-3.96875 3.82701,-3.401786 0,0 -1.04416,3.362588 1.13393,3.685267 2.17808,0.32268 2.31969,-1.421054 1.84263,-2.834821 -0.47192,-1.398512 -1.77176,-2.409598 -1.77176,-2.409598 1.81671,-1.963337 3.63454,-1.318929 4.67745,-0.425223 0,0 1.61112,-1.11945 3.54353,-0.496094 1.9324,0.623356 1.48828,2.763951 1.48828,2.763951 0,0 -1.27567,-1.275669 -2.97656,-0.14174 -1.7009,1.133928 -0.21261,2.976561 -2.4096,5.102678 0,0 0.4016,0.661459 2.3151,0.732329 0,0 -0.28348,2.196986 -2.76395,2.338727 2.31423,1.67499 0.95214,3.486384 1.98438,5.24442 -2.14545,0.485675 -2.77383,2.580476 -5.38616,2.055245 0,0 0.7087,1.630023 -0.85045,2.62221 -0.31546,-0.85247 -1.18269,-0.930715 -2.26786,-0.566964 0,0 -2.33872,3.189174 -5.66964,3.543526 l 1.67727,2.078869 -0.4456,13.547923 z"
           id="path1127"
           sodipodi:nodetypes="ccccccccccscsccssccccscssscscsczszczccccsscsczczcscsscccczczssscscscssscsccccssccscsccccccccccc" />
        <path
           id="path1756"
           style="fill:#f5c209;fill-opacity:1;stroke:#000000;stroke-width:0.248923;stroke-miterlimit:4;stroke-dasharray:none;paint-order:fill markers stroke"
           d="m 140.15117,61.054382 a 3.0007149,3.1470984 0 0 0 -3.00073,-3.147098 3.0007149,3.1470984 0 0 0 -3.0007,3.147098 3.0007149,3.1470984 0 0 0 3.0007,3.147099 3.0007149,3.1470984 0 0 0 3.00073,-3.147099 z" />
        <path
           id="path1214"
           style="opacity:1;fill:#f5c209;fill-opacity:1;stroke:#000000;stroke-width:0.248924;stroke-miterlimit:4;stroke-dasharray:none;paint-order:fill markers stroke"
           d="m 91.339353,34.110275 a 5.5124335,5.5124335 0 0 1 -5.512433,5.512434 5.5124335,5.5124335 0 0 1 -5.512434,-5.512434 5.5124335,5.5124335 0 0 1 5.512434,-5.512433 5.5124335,5.5124335 0 0 1 5.512433,5.512433 z" />
        <path
           style="font-variation-settings:normal;opacity:1;vector-effect:none;fill:none;fill-opacity:1;stroke:#000000;stroke-width:0.248924;stroke-linecap:butt;stroke-linejoin:miter;stroke-miterlimit:4;stroke-dasharray:none;stroke-dashoffset:0;stroke-opacity:1;stop-color:#000000;stop-opacity:1"
           d="m 98.121323,26.80593 c 0,0 1.653731,-1.515551 3.407687,0.08807 1.75396,1.603616 0.55125,3.107007 -0.55125,3.758477 -1.244449,0.735354 -2.906549,0.551243 -3.75847,-1.302938 m 1.620323,13.614041 c 0,0 -0.250566,-2.204974 2.555767,-1.954409 m -7.934567,-1.703843 c 0,0 -1.553504,0.465035 -1.553504,2.455539 0,1.990504 1.670061,3.174923 4.100543,4.026845 m -18.065376,0.850824 c 0.928944,-0.429611 2.046555,-3.454167 -0.50113,-4.359834 1.212467,-1.898928 0.292305,-3.47794 0.758211,-4.988637 -1.270772,-0.07475 -1.851417,-0.929666 -3.998106,-0.862606 0,0 0.614212,-3.071057 -3.307291,-3.945127 m -5.527902,5.244417 c 0,0 0.649316,0.626428 1.952255,1.328011 m 5.016681,11.097956 c 0,0 -0.70696,-1.075349 -1.208091,-2.278062"
           id="path1153"
           sodipodi:nodetypes="cssccccscccccc" />
        <path
           style="font-variation-settings:normal;opacity:1;vector-effect:none;fill:none;fill-opacity:1;stroke:#000000;stroke-width:0.248924;stroke-linecap:butt;stroke-linejoin:miter;stroke-miterlimit:4;stroke-dasharray:none;stroke-dashoffset:0;stroke-opacity:1;stop-color:#000000;stop-opacity:1"
           d="m 116.28568,26.80593 c 0,0 -1.65373,-1.515551 -3.40768,0.08807 -1.75396,1.603616 -0.55125,3.107007 0.55125,3.758477 1.24445,0.735354 2.90655,0.551243 3.75847,-1.302938 m -1.62033,13.614041 c 0,0 0.25057,-2.204974 -2.55576,-1.954409 m 7.93456,-1.703843 c 0,0 1.55351,0.465035 1.55351,2.455539 0,1.990504 -1.67006,3.174923 -4.10055,4.026845 m 18.06538,0.850824 c -0.92894,-0.429611 -2.04655,-3.454167 0.50113,-4.359834 -1.21247,-1.898928 -0.2923,-3.47794 -0.75821,-4.988637 1.27077,-0.07475 1.85142,-0.929666 3.99811,-0.862606 0,0 -0.61422,-3.071057 3.30729,-3.945127 m 5.5279,5.244417 c 0,0 -0.64932,0.626428 -1.95226,1.328011 m -5.01668,11.097956 c 0,0 0.70696,-1.075349 1.20809,-2.278062"
           id="path1188"
           sodipodi:nodetypes="cssccccscccccc" />
        <path
           style="color:#000000;font-style:normal;font-variant:normal;font-weight:normal;font-stretch:normal;font-size:medium;line-height:normal;font-family:sans-serif;font-variant-ligatures:normal;font-variant-position:normal;font-variant-caps:normal;font-variant-numeric:normal;font-variant-alternates:normal;font-variant-east-asian:normal;font-feature-settings:normal;font-variation-settings:normal;text-indent:0;text-align:start;text-decoration:none;text-decoration-line:none;text-decoration-style:solid;text-decoration-color:#000000;letter-spacing:normal;word-spacing:normal;text-transform:none;writing-mode:lr-tb;direction:ltr;text-orientation:mixed;dominant-baseline:auto;baseline-shift:baseline;text-anchor:start;white-space:normal;shape-padding:0;shape-margin:0;inline-size:0;clip-rule:nonzero;display:inline;overflow:visible;visibility:visible;opacity:1;isolation:auto;mix-blend-mode:normal;color-interpolation:sRGB;color-interpolation-filters:linearRGB;solid-color:#000000;solid-opacity:1;vector-effect:none;fill:#000000;fill-opacity:1;fill-rule:nonzero;stroke:none;stroke-width:0.940817;stroke-linecap:butt;stroke-linejoin:miter;stroke-miterlimit:4;stroke-dasharray:none;stroke-dashoffset:0;stroke-opacity:1;paint-order:fill markers stroke;color-rendering:auto;image-rendering:auto;shape-rendering:auto;text-rendering:auto;enable-background:accumulate;stop-color:#000000;stop-opacity:1"
           d="m 324.38477,146.32812 c -2.79152,-4e-5 -5.54191,-0.67098 -8.25,-1.51367 2.38944,1.80327 5.29815,2.51362 8.25,2.51367 9.48867,-1e-5 17.42998,-7.22366 17.82812,-16.7168 -1.34636,8.89469 -8.84642,15.7168 -17.82812,15.7168 z m 0,-7.67968 c 4.50542,-1.2e-4 8.42591,-3.10037 8.97851,-7.59962 -1.41963,3.82307 -4.93114,6.59951 -8.97851,6.59962 -1.33428,-5.9e-4 -2.65036,-0.30763 -4.06837,-0.44727 1.11376,1.10554 2.58124,1.44661 4.06837,1.44727 z m 0,5.76758 c 7.71621,-7.7e-4 14.26125,-5.68768 14.8457,-13.39844 -1.50413,7.08419 -7.62025,12.39772 -14.8457,12.39844 -2.17906,-4.5e-4 -4.33021,-0.49298 -6.50977,-0.98828 1.88136,1.46293 4.1804,1.9878 6.50977,1.98828 z m 0,-3.89649 c -1.69307,-1e-5 -3.36587,-0.37062 -5.11133,-0.63282 1.45588,1.23012 3.27231,1.63281 5.11133,1.63282 6.05663,-5.5e-4 11.2621,-4.31906 11.88866,-10.36328 -1.52326,5.39416 -6.30666,9.36277 -11.88866,9.36328 z"
           id="path1228"
           transform="scale(0.26458333)"
           sodipodi:nodetypes="scccsccccccccccccccc" />
        <path
           id="path1332"
           style="font-variation-settings:normal;opacity:1;vector-effect:none;fill:#f5c209;fill-opacity:1;stroke:#000000;stroke-width:0.248924;stroke-linecap:butt;stroke-linejoin:miter;stroke-miterlimit:4;stroke-dasharray:none;stroke-dashoffset:0;stroke-opacity:1;stop-color:#000000;stop-opacity:1"
           d="m 130.44216,21.996369 2.07439,0.549355 -0.54118,2.043871 1.94406,0.514602 -0.54936,2.074384 -1.94405,-0.514601 -0.79976,3.020812 -2.07438,-0.548839 0.79975,-3.020812 -1.94405,-0.514602 0.54935,-2.074384 1.94406,0.514603 z" />
        <path
           id="path1248"
           style="fill:#f5c209;fill-opacity:1;stroke:#000000;stroke-width:0.248924;stroke-miterlimit:4;stroke-dasharray:none;paint-order:fill markers stroke"
           d="m 134.09252,34.110275 a 5.5124335,5.5124335 0 0 1 -5.51243,5.512434 5.5124335,5.5124335 0 0 1 -5.51244,-5.512434 5.5124335,5.5124335 0 0 1 5.51244,-5.512433 5.5124335,5.5124335 0 0 1 5.51243,5.512433 z" />
        <path
           style="color:#000000;font-style:normal;font-variant:normal;font-weight:normal;font-stretch:normal;font-size:medium;line-height:normal;font-family:sans-serif;font-variant-ligatures:normal;font-variant-position:normal;font-variant-caps:normal;font-variant-numeric:normal;font-variant-alternates:normal;font-variant-east-asian:normal;font-feature-settings:normal;font-variation-settings:normal;text-indent:0;text-align:start;text-decoration:none;text-decoration-line:none;text-decoration-style:solid;text-decoration-color:#000000;letter-spacing:normal;word-spacing:normal;text-transform:none;writing-mode:lr-tb;direction:ltr;text-orientation:mixed;dominant-baseline:auto;baseline-shift:baseline;text-anchor:start;white-space:normal;shape-padding:0;shape-margin:0;inline-size:0;clip-rule:nonzero;display:inline;overflow:visible;visibility:visible;isolation:auto;mix-blend-mode:normal;color-interpolation:sRGB;color-interpolation-filters:linearRGB;solid-color:#000000;solid-opacity:1;vector-effect:none;fill:#000000;fill-opacity:1;fill-rule:nonzero;stroke:none;stroke-width:0.248924;stroke-linecap:butt;stroke-linejoin:miter;stroke-miterlimit:4;stroke-dasharray:none;stroke-dashoffset:0;stroke-opacity:1;paint-order:fill markers stroke;color-rendering:auto;image-rendering:auto;shape-rendering:auto;text-rendering:auto;enable-background:accumulate;stop-color:#000000"
           d="m 128.57997,38.715981 c -0.73859,-10e-6 -1.4663,-0.17753 -2.18281,-0.400492 0.6322,0.477116 1.4018,0.665062 2.18281,0.665076 2.51054,-3e-6 4.61168,-1.91126 4.71702,-4.422987 -0.35622,2.353387 -2.34061,4.158403 -4.71702,4.158403 z m 0,-2.031915 c 1.19206,-3.2e-5 2.22935,-0.820306 2.37556,-2.010733 -0.37561,1.011521 -1.30469,1.746121 -2.37556,1.74615 -0.35303,-1.56e-4 -0.70124,-0.08139 -1.07642,-0.118341 0.29468,0.292508 0.68295,0.382749 1.07642,0.382924 z m 0,1.526005 c 2.04158,-2.03e-4 3.77329,-1.504865 3.92792,-3.545003 -0.39796,1.874358 -2.01619,3.28023 -3.92792,3.28042 -0.57654,-1.19e-4 -1.1457,-0.130434 -1.72238,-0.261482 0.49778,0.387067 1.10607,0.525938 1.72238,0.526065 z m 0,-1.030946 c -0.44796,-2e-6 -0.89055,-0.09806 -1.35237,-0.167433 0.3852,0.325469 0.86579,0.432014 1.35237,0.432017 1.60248,-1.46e-4 2.97976,-1.142752 3.14554,-2.741952 -0.40303,1.427205 -1.66864,2.477233 -3.14554,2.477368 z"
           id="path1250"
           sodipodi:nodetypes="scccsccccccccccccccc" />
        <path
           id="path1386"
           style="color:#000000;font-style:normal;font-variant:normal;font-weight:normal;font-stretch:normal;font-size:medium;line-height:normal;font-family:sans-serif;font-variant-ligatures:normal;font-variant-position:normal;font-variant-caps:normal;font-variant-numeric:normal;font-variant-alternates:normal;font-variant-east-asian:normal;font-feature-settings:normal;font-variation-settings:normal;text-indent:0;text-align:start;text-decoration:none;text-decoration-line:none;text-decoration-style:solid;text-decoration-color:#000000;letter-spacing:normal;word-spacing:normal;text-transform:none;writing-mode:lr-tb;direction:ltr;text-orientation:mixed;dominant-baseline:auto;baseline-shift:baseline;text-anchor:start;white-space:normal;shape-padding:0;shape-margin:0;inline-size:0;clip-rule:nonzero;display:inline;overflow:visible;visibility:visible;opacity:1;isolation:auto;mix-blend-mode:normal;color-interpolation:sRGB;color-interpolation-filters:linearRGB;solid-color:#000000;solid-opacity:1;vector-effect:none;fill:#000000;fill-opacity:1;fill-rule:nonzero;stroke:none;stroke-width:3.55585;stroke-linecap:butt;stroke-linejoin:miter;stroke-miterlimit:4;stroke-dasharray:none;stroke-dashoffset:0;stroke-opacity:1;color-rendering:auto;image-rendering:auto;shape-rendering:auto;text-rendering:auto;enable-background:accumulate;stop-color:#000000;stop-opacity:1"
           d="m 405.68164,104.1582 -0.50293,-11.554684 -0.50293,11.554684 z m -4.25391,-10.496091 c 0.55575,5.056789 -0.22851,11.722661 -0.22851,11.722661 l 0.99609,0.125 c 0,0 0.81979,-6.725879 -0.76758,-11.847661 z m 7.50196,0 c -1.58737,5.121782 -0.76758,11.847661 -0.76758,11.847661 l 0.99609,-0.125 c 0,0 -0.78425,-6.665872 -0.22851,-11.722661 z m -10.98242,1.339844 c 0.56953,6.705127 0.0391,12.271487 0.0391,12.271487 l 0.99023,0.0957 c 0,0 0.54405,-5.67946 -1.02929,-12.367187 z m 14.46289,0 c -1.57335,6.687727 -1.0293,12.367187 -1.0293,12.367187 l 0.98828,-0.0957 h 0.002 c 0,0 -0.53047,-5.56636 0.0391,-12.271487 z m -18.74805,3.214844 c 0.29367,5.328593 -0.23047,13.087893 -0.23047,13.087893 l 0.99805,0.0664 c 0,0 0.54603,-7.7686 -0.76758,-13.154293 z m 23.0332,0 c -1.31361,5.385693 -0.76758,13.154293 -0.76758,13.154293 l 0.9961,-0.0664 h 0.002 c 0,0 -0.52414,-7.7593 -0.23047,-13.087893 z m -24.16797,14.257053 c -3.14171,5.55839 -9.66992,9.13162 -9.66992,9.13162 0,0 5.96672,-1.46734 9.54102,-7.79102 z m 25.30274,0 0.1289,1.3406 c 3.5743,6.32368 9.54102,7.79102 9.54102,7.79102 0,0 -6.5282,-3.57323 -9.66992,-9.13162 z m -29.04883,8.56717 c -2.50231,4.00377 -8.41406,4.89843 -8.41406,4.89843 0,0 6.40892,0.20046 9.26367,-4.36718 z m 32.79492,0 -0.84961,0.53125 c 2.85476,4.56764 9.26367,4.36718 9.26367,4.36718 0,0 -5.91175,-0.89466 -8.41406,-4.89843 z m -33.30273,6.80664 c -2.61547,1.57103 -5.21463,1.85843 -8.20117,2.46093 2.89878,0.27009 6.56572,0.14447 8.84179,-1.70117 z m 33.81054,0 -0.64257,0.75976 c 2.27607,1.84564 5.94496,1.97126 8.84375,1.70117 -2.98655,-0.6025 -5.5857,-0.8899 -8.20118,-2.46093 z m -32.96289,3.91211 c -3.67986,1.37235 -7.05132,1.54973 -10.94726,1.95898 3.69562,0.3917 7.99084,0.61237 11.40625,-1.07422 z m 32.11524,0 -0.45899,0.88476 c 3.41541,1.68659 7.71063,1.46592 11.40625,1.07422 -3.89593,-0.40925 -7.2674,-0.58663 -10.94726,-1.95898 z m -37.14258,4.84375 c -1.9248,0.0202 -3.84831,0.1964 -5.91992,0.52539 3.85572,0.52162 7.62452,0.0646 11.64258,0.86718 l 0.20507,-0.98047 c -2.07713,-0.29542 -4.00293,-0.43232 -5.92773,-0.4121 z m 42.16992,0 c -1.9248,-0.0202 -3.8506,0.11668 -5.92773,0.4121 l 0.20508,0.98047 c 4.01805,-0.80255 7.78685,-0.34556 11.64257,-0.86718 -2.07161,-0.32899 -3.99512,-0.50518 -5.91992,-0.52539 z m -42.49805,3.78125 c -0.89632,0.002 -1.80022,0.0547 -2.71679,0.15234 3.46291,0.6359 7.32694,0.97953 10.39062,2.16992 l 0.36914,-0.92969 c -2.72826,-0.95921 -5.35398,-1.39844 -8.04297,-1.39257 z m 42.82618,0 c -2.68899,-0.006 -5.31471,0.43336 -8.04297,1.39257 l 0.36914,0.92969 c 3.06368,-1.19039 6.92575,-1.53402 10.38867,-2.16992 -0.91657,-0.0976 -1.81851,-0.15039 -2.71484,-0.15234 z m -42.13477,4.51757 c -0.44978,0.0194 -0.9031,0.0596 -1.35937,0.11914 3.44999,0.48363 7.32324,1.57956 9.74414,3.30274 l 0.58984,-0.80469 c -2.83712,-1.90123 -5.82611,-2.75289 -8.97461,-2.61719 z m 41.44336,0 c -3.1485,-0.1357 -6.13945,0.71596 -8.97656,2.61719 l 0.59179,0.80469 c 2.42091,-1.72318 6.29416,-2.81911 9.74415,-3.30274 -0.45628,-0.0595 -0.90959,-0.0998 -1.35938,-0.11914 z"
           transform="scale(0.26458333)"
           sodipodi:nodetypes="ccccccccccccccccccccccccccccccccccccccccccccccccccccccccccccccscccsscccsscccsscccsscccsscccsccc" />
        <path
           id="path1214-4"
           style="fill:#f5c209;fill-opacity:1;stroke:#000000;stroke-width:0.248923;stroke-miterlimit:4;stroke-dasharray:none;paint-order:fill markers stroke"
           d="m 102.68824,34.489025 a 4.5152583,6.9311455 0 0 1 4.51527,-6.931146 4.5152583,6.9311455 0 0 1 4.51525,6.931146 4.5152583,6.9311455 0 0 1 -4.51525,6.931145 4.5152583,6.9311455 0 0 1 -4.51527,-6.931145 z" />
        <path
           id="path1365"
           style="fill:none;fill-opacity:1;stroke:#000000;stroke-width:0.248923;stroke-miterlimit:4;stroke-dasharray:none;paint-order:fill markers stroke"
           d="m 110.43879,34.489024 a 3.2352874,5.1608264 0 0 1 -3.2353,5.160825 3.2352874,5.1608264 0 0 1 -3.23528,-5.160825 3.2352874,5.1608264 0 0 1 3.23528,-5.160827 3.2352874,5.1608264 0 0 1 3.2353,5.160827 z" />
        <path
           style="color:#000000;font-style:normal;font-variant:normal;font-weight:normal;font-stretch:normal;font-size:medium;line-height:normal;font-family:sans-serif;font-variant-ligatures:normal;font-variant-position:normal;font-variant-caps:normal;font-variant-numeric:normal;font-variant-alternates:normal;font-variant-east-asian:normal;font-feature-settings:normal;font-variation-settings:normal;text-indent:0;text-align:start;text-decoration:none;text-decoration-line:none;text-decoration-style:solid;text-decoration-color:#000000;letter-spacing:normal;word-spacing:normal;text-transform:none;writing-mode:lr-tb;direction:ltr;text-orientation:mixed;dominant-baseline:auto;baseline-shift:baseline;text-anchor:start;white-space:normal;shape-padding:0;shape-margin:0;inline-size:0;clip-rule:nonzero;display:inline;overflow:visible;visibility:visible;opacity:1;isolation:auto;mix-blend-mode:normal;color-interpolation:sRGB;color-interpolation-filters:linearRGB;solid-color:#000000;solid-opacity:1;vector-effect:none;fill:#000000;fill-opacity:1;fill-rule:nonzero;stroke:none;stroke-width:0.940817;stroke-linecap:butt;stroke-linejoin:miter;stroke-miterlimit:4;stroke-dasharray:none;stroke-dashoffset:0;stroke-opacity:1;paint-order:fill markers stroke;color-rendering:auto;image-rendering:auto;shape-rendering:auto;text-rendering:auto;enable-background:accumulate;stop-color:#000000;stop-opacity:1"
           d="m 105.69118,39.958518 c -0.97149,-0.911699 -1.54311,-2.07416 -2.06836,-3.15918 0.1988,1.262879 0.92414,2.721876 2.06836,3.15918 z"
           id="path1384"
           sodipodi:nodetypes="ccc" />
        <path
           style="color:#000000;font-style:normal;font-variant:normal;font-weight:normal;font-stretch:normal;font-size:medium;line-height:normal;font-family:sans-serif;font-variant-ligatures:normal;font-variant-position:normal;font-variant-caps:normal;font-variant-numeric:normal;font-variant-alternates:normal;font-variant-east-asian:normal;font-feature-settings:normal;font-variation-settings:normal;text-indent:0;text-align:start;text-decoration:none;text-decoration-line:none;text-decoration-style:solid;text-decoration-color:#000000;letter-spacing:normal;word-spacing:normal;text-transform:none;writing-mode:lr-tb;direction:ltr;text-orientation:mixed;dominant-baseline:auto;baseline-shift:baseline;text-anchor:start;white-space:normal;shape-padding:0;shape-margin:0;inline-size:0;clip-rule:nonzero;display:inline;overflow:visible;visibility:visible;opacity:1;isolation:auto;mix-blend-mode:normal;color-interpolation:sRGB;color-interpolation-filters:linearRGB;solid-color:#000000;solid-opacity:1;vector-effect:none;fill:#000000;fill-opacity:1;fill-rule:nonzero;stroke:none;stroke-width:0.940817;stroke-linecap:butt;stroke-linejoin:miter;stroke-miterlimit:4;stroke-dasharray:none;stroke-dashoffset:0;stroke-opacity:1;color-rendering:auto;image-rendering:auto;shape-rendering:auto;text-rendering:auto;enable-background:accumulate;stop-color:#000000;stop-opacity:1"
           d="m 70.6875,39.294922 -0.01172,0.265625 c 0,0 1.602012,0.07563 2.911133,-1.053711 -1.383958,0.855028 -2.899414,0.788086 -2.899413,0.788086 z m 1.148438,1.285156 0.09961,0.246094 c 0,0 1.571971,-0.641048 2.786132,-1.75293 -1.337178,0.872492 -2.885741,1.506836 -2.885742,1.506836 z m 0.679687,0.867188 0.158203,0.21289 c 0,0 1.419288,-1.061512 2.402344,-1.736328 -1.143062,0.45911 -2.560547,1.523438 -2.560547,1.523438 z m 0.419922,0.925781 0.169922,0.203125 c 0,0 1.343712,-1.12932 2.537109,-1.94336 -1.357942,0.603371 -2.707031,1.740235 -2.707031,1.740235 z m 0.267578,1.007812 0.201172,0.171875 c 0,0 0.765209,-0.90385 2.02539,-1.786133 -1.432898,0.67687 -2.226562,1.614258 -2.226562,1.614258 z m 0.06445,1.498047 0.214844,0.154297 c 0,0 0.913142,-1.258661 2.088867,-2.132813 -1.375615,0.685001 -2.303711,1.978516 -2.303711,1.978516 z"
           id="path1441"
           sodipodi:nodetypes="cccccccccccccccccccccccc" />
        <path
           style="color:#000000;font-style:normal;font-variant:normal;font-weight:normal;font-stretch:normal;font-size:medium;line-height:normal;font-family:sans-serif;font-variant-ligatures:normal;font-variant-position:normal;font-variant-caps:normal;font-variant-numeric:normal;font-variant-alternates:normal;font-variant-east-asian:normal;font-feature-settings:normal;font-variation-settings:normal;text-indent:0;text-align:start;text-decoration:none;text-decoration-line:none;text-decoration-style:solid;text-decoration-color:#000000;letter-spacing:normal;word-spacing:normal;text-transform:none;writing-mode:lr-tb;direction:ltr;text-orientation:mixed;dominant-baseline:auto;baseline-shift:baseline;text-anchor:start;white-space:normal;shape-padding:0;shape-margin:0;inline-size:0;clip-rule:nonzero;display:inline;overflow:visible;visibility:visible;opacity:1;isolation:auto;mix-blend-mode:normal;color-interpolation:sRGB;color-interpolation-filters:linearRGB;solid-color:#000000;solid-opacity:1;vector-effect:none;fill:#000000;fill-opacity:1;fill-rule:nonzero;stroke:none;stroke-width:0.940817;stroke-linecap:butt;stroke-linejoin:miter;stroke-miterlimit:4;stroke-dasharray:none;stroke-dashoffset:0;stroke-opacity:1;color-rendering:auto;image-rendering:auto;shape-rendering:auto;text-rendering:auto;enable-background:accumulate;stop-color:#000000;stop-opacity:1"
           d="m 143.71951,39.294922 0.0117,0.265625 c 0,0 -1.60202,0.07563 -2.91114,-1.053711 1.38396,0.855028 2.89942,0.788086 2.89942,0.788086 z m -1.14844,1.285156 -0.0996,0.246094 c 0,0 -1.57197,-0.641048 -2.78613,-1.75293 1.33718,0.872492 2.88574,1.506836 2.88574,1.506836 z m -0.67969,0.867188 -0.1582,0.21289 c 0,0 -1.41929,-1.061512 -2.40235,-1.736328 1.14307,0.45911 2.56055,1.523438 2.56055,1.523438 z m -0.41992,0.925781 -0.16992,0.203125 c 0,0 -1.34371,-1.12932 -2.53711,-1.94336 1.35794,0.603371 2.70703,1.740235 2.70703,1.740235 z m -0.26758,1.007812 -0.20117,0.171875 c 0,0 -0.76521,-0.90385 -2.02539,-1.786133 1.4329,0.67687 2.22656,1.614258 2.22656,1.614258 z m -0.0644,1.498047 -0.21484,0.154297 c 0,0 -0.91314,-1.258661 -2.08887,-2.132813 1.37562,0.685001 2.30371,1.978516 2.30371,1.978516 z"
           id="path1447"
           sodipodi:nodetypes="cccccccccccccccccccccccc" />
        <path
           id="path1468"
           style="font-variation-settings:normal;opacity:1;vector-effect:none;fill:none;fill-opacity:1;stroke:#000000;stroke-width:0.248924;stroke-linecap:butt;stroke-linejoin:miter;stroke-miterlimit:4;stroke-dasharray:none;stroke-dashoffset:0;stroke-opacity:1;stop-color:#000000;stop-opacity:1"
           d="m 84.943504,52.050741 c 5.211756,-2.405426 4.117136,-8.158257 4.117136,-8.158257 m 10.158109,5.17355 c 7.119691,-0.06832 8.528111,-5.598774 8.528111,-5.598774 m 7.4414,5.598774 c 7.27065,1.341119 9.57414,-2.017446 11.07656,-4.981695 m -42.308779,7.966402 c 5.211756,-2.405426 4.186148,-7.966402 4.186148,-7.966402 l 0.918451,-0.191855 c 1.502416,2.964249 4.163129,5.876834 10.158109,5.17355 6.623591,-0.777026 7.441401,-5.598774 7.441401,-5.598774 h 1.08671 c 0,0 0.81781,4.821748 7.4414,5.598774 5.99498,0.703284 8.65569,-2.209301 10.15811,-5.17355 l 0.91845,0.191855 c 0,0 -1.02561,5.560976 4.18615,7.966402" />
        <path
           id="path1501"
           style="color:#000000;font-style:normal;font-variant:normal;font-weight:normal;font-stretch:normal;font-size:medium;line-height:normal;font-family:sans-serif;font-variant-ligatures:normal;font-variant-position:normal;font-variant-caps:normal;font-variant-numeric:normal;font-variant-alternates:normal;font-variant-east-asian:normal;font-feature-settings:normal;font-variation-settings:normal;text-indent:0;text-align:start;text-decoration:none;text-decoration-line:none;text-decoration-style:solid;text-decoration-color:#000000;letter-spacing:normal;word-spacing:normal;text-transform:none;writing-mode:lr-tb;direction:ltr;text-orientation:mixed;dominant-baseline:auto;baseline-shift:baseline;text-anchor:start;white-space:normal;shape-padding:0;shape-margin:0;inline-size:0;clip-rule:nonzero;display:inline;overflow:visible;visibility:visible;opacity:1;isolation:auto;mix-blend-mode:normal;color-interpolation:sRGB;color-interpolation-filters:linearRGB;solid-color:#000000;solid-opacity:1;vector-effect:none;fill:#000000;fill-opacity:1;fill-rule:nonzero;stroke:none;stroke-width:3.55585;stroke-linecap:butt;stroke-linejoin:miter;stroke-miterlimit:4;stroke-dasharray:none;stroke-dashoffset:0;stroke-opacity:1;color-rendering:auto;image-rendering:auto;shape-rendering:auto;text-rendering:auto;enable-background:accumulate;stop-color:#000000;stop-opacity:1"
           d="m 579.80273,118.56445 c -5.78721,-2.59211 -9.69921,-1.32226 -9.69921,-1.32226 0,0 4.63411,-0.32417 9.60268,2.06083 -5.21194,-1.31625 -9.97866,1.3464 -9.97866,1.3464 0,0 6.43281,-2.27995 11.97377,-0.34264 -1.52997,-3.13641 -5.14658,-4.98625 -7.99916,-5.33803 2.18218,1.02718 4.45003,2.08258 6.10058,3.5957 z"
           transform="scale(0.26458333)"
           sodipodi:nodetypes="ccccccc" />
        <path
           id="path1523"
           style="color:#000000;font-style:normal;font-variant:normal;font-weight:normal;font-stretch:normal;font-size:medium;line-height:normal;font-family:sans-serif;font-variant-ligatures:normal;font-variant-position:normal;font-variant-caps:normal;font-variant-numeric:normal;font-variant-alternates:normal;font-variant-east-asian:normal;font-feature-settings:normal;font-variation-settings:normal;text-indent:0;text-align:start;text-decoration:none;text-decoration-line:none;text-decoration-style:solid;text-decoration-color:#000000;letter-spacing:normal;word-spacing:normal;text-transform:none;writing-mode:lr-tb;direction:ltr;text-orientation:mixed;dominant-baseline:auto;baseline-shift:baseline;text-anchor:start;white-space:normal;shape-padding:0;shape-margin:0;inline-size:0;clip-rule:nonzero;display:inline;overflow:visible;visibility:visible;opacity:1;isolation:auto;mix-blend-mode:normal;color-interpolation:sRGB;color-interpolation-filters:linearRGB;solid-color:#000000;solid-opacity:1;vector-effect:none;fill:#000000;fill-opacity:1;fill-rule:nonzero;stroke:none;stroke-width:0.940817;stroke-linecap:butt;stroke-linejoin:miter;stroke-miterlimit:4;stroke-dasharray:none;stroke-dashoffset:0;stroke-opacity:1;color-rendering:auto;image-rendering:auto;shape-rendering:auto;text-rendering:auto;enable-background:accumulate;stop-color:#000000;stop-opacity:1"
           d="m 61.00087,31.370177 c 1.531199,-0.685829 2.566249,-0.349848 2.566249,-0.349848 0,0 -1.226108,-0.08577 -2.540709,0.545261 1.378993,-0.348257 2.640187,0.356235 2.640187,0.356235 0,0 -1.702014,-0.603236 -3.16806,-0.09066 0.404805,-0.829841 1.3617,-1.319278 2.116445,-1.412353 -0.577369,0.271774 -1.177404,0.551016 -1.614112,0.951362 z"
           sodipodi:nodetypes="ccccccc" />
        <path
           style="font-variation-settings:normal;opacity:1;vector-effect:none;fill:#f5c209;fill-opacity:1;stroke:#000000;stroke-width:0.248924;stroke-linecap:butt;stroke-linejoin:miter;stroke-miterlimit:4;stroke-dasharray:none;stroke-dashoffset:0;stroke-opacity:1;stop-color:#000000;stop-opacity:1"
           d="m 127.84988,53.227849 c -1.06038,0.271986 -2.3901,-0.426763 -2.3901,-0.426763 0,0 -1.84758,0.142088 -2.60541,-0.693727 -0.80887,0.236408 -1.51752,0.230742 -2.43911,-0.287218 -1.48495,0.152463 -2.30594,0.01371 -3.27726,-0.387723 -1.21431,0.226291 -2.39202,0.09222 -3.28438,-0.346663 -0.72183,0.144347 -1.84456,0.240396 -2.91718,-0.171539 -0.6589,0.199305 -2.54043,0.08826 -3.23181,-0.156839 -0.69137,0.245101 -2.37245,0.255918 -3.03135,0.05661 -1.07262,0.411935 -2.24546,0.315886 -2.96729,0.171539 -0.89236,0.438882 -2.120179,0.472728 -3.334488,0.246439 -0.971329,0.401439 -1.942658,0.5903 -2.913987,0.388824 -0.659799,0.354412 -1.620276,0.52744 -2.430414,0.34859 -0.407968,0.468946 -1.617745,0.675066 -2.426617,0.438658 -0.74608,0.613455 -1.529871,0.776775 -2.539962,0.61936 -0.725477,0.524566 -1.524466,0.689541 -2.515951,0.563633 -0.636107,0.628807 -1.554934,0.873517 -2.448652,0.658083 -0.481586,0.69432 -1.44268,0.89675 -2.541509,0.851355 -0.679978,0.695813 -1.585325,0.866137 -2.38351,0.859648 -1.548067,1.068517 -2.898116,0.6117 -3.044797,-0.56851 -0.146681,-1.18021 0.9461,-1.587698 1.936433,-1.405005 0.615217,-0.447433 1.203755,-0.755051 2.51015,-0.615168 0.435836,-0.512666 1.146312,-0.890223 2.460864,-0.779287 0.475741,-0.557468 1.187651,-0.878767 2.416875,-0.682753 0.430813,-0.670675 0.900839,-0.857921 2.486135,-0.896711 0.646704,-0.475025 1.417303,-0.684423 2.613993,-0.538595 0.621017,-0.520093 1.359004,-0.781485 2.703639,-0.507093 0.661281,-0.534814 1.489213,-0.640547 2.398105,-0.361658 0.595807,-0.471 1.679226,-0.597036 2.844199,-0.4034 0.922469,-0.399082 2.127321,-0.520556 3.328534,-0.25568 1.07336,-0.438356 1.85126,-0.594751 3.2085,-0.281953 0.94258,-0.311698 2.19625,-0.391684 3.16997,-0.05871 0.97373,-0.332974 2.2274,-0.252988 3.16998,0.05871 1.35724,-0.312798 2.13514,-0.156403 3.2085,0.281953 1.20121,-0.264876 2.40606,-0.143402 3.32853,0.25568 1.16497,-0.193636 2.24839,-0.0676 2.8442,0.4034 0.90889,-0.278889 1.73682,-0.173156 2.39811,0.361658 1.34463,-0.274392 2.08262,-0.013 2.70363,0.507093 1.19669,-0.145828 1.96729,0.06357 2.614,0.538595 1.58529,0.03879 2.05532,0.226036 2.48613,0.896711 1.22923,-0.196014 1.94114,0.125285 2.41688,0.682753 1.31455,-0.110936 2.02503,0.266621 2.46086,0.779287 1.3064,-0.139883 1.89493,0.167735 2.51015,0.615168 0.99033,-0.182693 2.08312,0.224795 1.93643,1.405005 -0.14668,1.18021 -1.94775,1.436575 -3.49581,0.368058 -0.79819,0.0065 -2.10444,-0.364287 -2.78441,-1.0601 -1.09883,0.04539 -1.78161,-0.100257 -2.76358,-0.779493 -0.88238,0.09377 -1.53255,-0.107012 -2.38722,-0.692222 z"
           id="path1551"
           sodipodi:nodetypes="ccccccccccccccccccczccccccccccccccccccccccczcccc" />
        <path
           style="font-variation-settings:normal;opacity:1;vector-effect:none;fill:none;fill-opacity:1;stroke:#000000;stroke-width:0.248924;stroke-linecap:butt;stroke-linejoin:miter;stroke-miterlimit:4;stroke-dasharray:none;stroke-dashoffset:0;stroke-opacity:1;stop-color:#000000;stop-opacity:1"
           d="m 77.062535,53.986604 c 0,0 -0.320161,1.107276 1.108364,1.973514 m 1.401787,-2.588682 c 0,0 -0.118535,0.9599 0.981724,1.729035 m 1.47914,-2.508322 c 0,0 -0.01229,0.993229 1.062369,1.656967 m 1.354506,-2.33972 c 0,0 -0.04776,0.891345 1.094146,1.681637 m 1.391989,-2.578348 c 0,0 -0.124203,1.227755 1.123962,2.014715 m 1.490031,-2.55331 c 0,0 0.003,1.236335 1.049931,1.93395 m 1.653708,-2.441043 c 0,0 -0.363309,1.007853 0.772909,2.002385 m 1.625196,-2.364043 c 0,0 -0.203878,1.062119 0.805218,2.015453 m 2.038981,-2.418853 c 0,0 0.01595,1.254835 0.875006,2.030029 m 2.453528,-2.285709 c 0,0 0.0255,1.265684 0.88096,2.03927 m 2.32754,-2.321223 c 0,0 -0.0124,1.310865 0.63975,2.149684 m 2.53022,-2.208394 c 0,0 0.005,1.058415 0.50113,2.151781 m 2.66885,-2.093074 c 0,0 -0.13574,1.497588 0.56296,2.249913 m 2.64554,-1.96796 c 0,0 -0.46655,1.057583 0.27164,2.139499 m 3.05689,-1.883819 c 0,0 -0.53378,0.743533 0.22749,2.230482 m 2.61671,-1.827082 c 0,0 -0.13092,1.316031 0.66055,2.214805 m 1.73756,-1.853147 c 0,0 0.044,1.178018 0.70155,2.140365 m 2.00208,-1.633272 c -0.0416,0.240306 -0.10481,1.156345 0.60333,2.326999 m 2.01067,-1.788404 c 0,0 -0.44426,1.070371 0.37943,2.215167 m 2.1067,-1.318456 c 0,0 -0.41104,0.806409 0.28052,2.010678 m 2.13636,-1.327925 c 0,0 -0.20732,1.281737 0.62722,2.107418 m 1.83364,-1.328131 c 0,0 0.19454,1.470051 0.95077,2.388231 m 1.55938,-1.773063 c 0,0 0.0989,1.237965 0.80047,2.390565"
           id="path1555"
           sodipodi:nodetypes="cccccccccccccccccccccccccccccccccccc" />
        <path
           style="font-variation-settings:normal;opacity:1;vector-effect:none;fill:#f5c209;fill-opacity:1;stroke:#000000;stroke-width:0.248924;stroke-linecap:butt;stroke-linejoin:miter;stroke-miterlimit:4;stroke-dasharray:none;stroke-dashoffset:0;stroke-opacity:1;stop-color:#000000;stop-opacity:1"
           d="m 127.3338,64.052265 c -1.03387,0.271986 -2.33036,-0.426763 -2.33036,-0.426763 0,0 -1.80139,0.142088 -2.54028,-0.693727 -0.78865,0.236408 -1.47959,0.230742 -2.37814,-0.287218 -1.44783,0.152463 -2.2483,0.01371 -3.19534,-0.387723 -1.18396,0.226291 -2.33223,0.09222 -3.20229,-0.346663 -0.70378,0.144347 -1.79845,0.240396 -2.84426,-0.171539 -0.64243,0.199305 -2.47693,0.08826 -3.15103,-0.156839 -0.67408,0.245101 -2.31314,0.255918 -2.95557,0.05661 -1.04581,0.411935 -2.18934,0.315886 -2.89312,0.171539 -0.87006,0.438882 -2.067186,0.472728 -3.251142,0.246439 -0.94705,0.401439 -1.894099,0.5903 -2.841149,0.388824 -0.643306,0.354412 -1.579775,0.52744 -2.369663,0.34859 -0.39777,0.468946 -1.577308,0.675066 -2.365961,0.438658 -0.727431,0.613455 -1.49163,0.776775 -2.476473,0.61936 -0.707343,0.524566 -1.48636,0.689541 -2.453062,0.563633 -0.620206,0.628807 -1.516066,0.873517 -2.387445,0.658083 -0.469548,0.69432 -1.406618,0.89675 -2.477981,0.851355 -0.662981,0.695813 -1.545698,0.866137 -2.323931,0.859648 -1.509372,1.068517 -2.825675,0.6117 -2.968689,-0.56851 -0.143015,-1.18021 0.922451,-1.587698 1.888029,-1.405005 0.599839,-0.447433 1.173666,-0.755051 2.447406,-0.615168 0.424942,-0.512666 1.117659,-0.890223 2.399352,-0.779287 0.46385,-0.557468 1.157965,-0.878767 2.356463,-0.682753 0.420044,-0.670675 0.878321,-0.857921 2.423991,-0.896711 0.630539,-0.475025 1.381876,-0.684423 2.548653,-0.538595 0.605494,-0.520093 1.325034,-0.781485 2.636059,-0.507093 0.644751,-0.534814 1.451988,-0.640547 2.338161,-0.361658 0.580915,-0.471 1.637252,-0.597036 2.773106,-0.4034 0.89941,-0.399082 2.074146,-0.520556 3.245336,-0.25568 1.04653,-0.438356 1.80498,-0.594751 3.1283,-0.281953 0.91902,-0.311698 2.14135,-0.391684 3.09073,-0.05871 0.94939,-0.332974 2.17172,-0.252988 3.09074,0.05871 1.32332,-0.312798 2.08177,-0.156403 3.1283,0.281953 1.17119,-0.264876 2.34592,-0.143402 3.24533,0.25568 1.13585,-0.193636 2.19219,-0.0676 2.77311,0.4034 0.88617,-0.278889 1.6934,-0.173156 2.33816,0.361658 1.31102,-0.274392 2.03057,-0.013 2.63605,0.507093 1.16678,-0.145828 1.91812,0.06357 2.54866,0.538595 1.54567,0.03879 2.00395,0.226036 2.42399,0.896711 1.19851,-0.196014 1.89262,0.125285 2.35647,0.682753 1.28169,-0.110936 1.97441,0.266621 2.39935,0.779287 1.27374,-0.139883 1.84756,0.167735 2.4474,0.615168 0.96558,-0.182693 2.03105,0.224795 1.88803,1.405005 -0.14301,1.18021 -1.89906,1.436575 -3.40843,0.368058 -0.77824,0.0065 -2.05184,-0.364287 -2.71481,-1.0601 -1.07136,0.04539 -1.73708,-0.100257 -2.6945,-0.779493 -0.86032,0.09377 -1.49424,-0.107012 -2.32755,-0.692222 z"
           id="path1568"
           sodipodi:nodetypes="ccccccccccccccccccczccccccccccccccccccccccczcccc" />
        <path
           style="font-variation-settings:normal;opacity:1;vector-effect:none;fill:none;fill-opacity:1;stroke:#000000;stroke-width:0.248924;stroke-linecap:butt;stroke-linejoin:miter;stroke-miterlimit:4;stroke-dasharray:none;stroke-dashoffset:0;stroke-opacity:1;stop-color:#000000;stop-opacity:1"
           d="m 77.815942,64.81102 c 0,0 -0.312158,1.107276 1.08066,1.973514 m 1.366747,-2.588682 c 0,0 -0.115572,0.9599 0.957185,1.729035 m 1.442167,-2.508322 c 0,0 -0.01198,0.993229 1.035814,1.656967 m 1.320649,-2.33972 c 0,0 -0.04657,0.891345 1.066796,1.681637 m 1.357195,-2.578348 c 0,0 -0.121098,1.227755 1.095867,2.014715 m 1.452786,-2.55331 c 0,0 0.0029,1.236335 1.023687,1.93395 m 1.612372,-2.441043 c 0,0 -0.354228,1.007853 0.753589,2.002385 m 1.584572,-2.364043 c 0,0 -0.198781,1.062119 0.785091,2.015453 m 1.988015,-2.418853 c 0,0 0.01555,1.254835 0.853134,2.030029 m 2.392202,-2.285709 c 0,0 0.0249,1.265684 0.85894,2.03927 m 2.26936,-2.321223 c 0,0 -0.0121,1.310865 0.62376,2.149684 m 2.46697,-2.208394 c 0,0 0.005,1.058415 0.4886,2.151781 m 2.60214,-2.093074 c 0,0 -0.13234,1.497588 0.54889,2.249913 m 2.57941,-1.96796 c 0,0 -0.45489,1.057583 0.26485,2.139499 m 2.98048,-1.883819 c 0,0 -0.52044,0.743533 0.22181,2.230482 m 2.5513,-1.827082 c 0,0 -0.12765,1.316031 0.64404,2.214805 m 1.69412,-1.853147 c 0,0 0.0429,1.178018 0.68402,2.140365 m 1.95203,-1.633272 c -0.0406,0.240306 -0.10219,1.156345 0.58825,2.326999 m 1.96041,-1.788404 c 0,0 -0.43315,1.070371 0.36995,2.215167 m 2.05404,-1.318456 c 0,0 -0.40076,0.806409 0.27351,2.010678 m 2.08296,-1.327925 c 0,0 -0.20214,1.281737 0.61154,2.107418 m 1.78781,-1.328131 c 0,0 0.18967,1.470051 0.927,2.388231 m 1.5204,-1.773063 c 0,0 0.0964,1.237965 0.78046,2.390565"
           id="path1570"
           sodipodi:nodetypes="cccccccccccccccccccccccccccccccccccc" />
        <path
           id="path1572"
           style="fill:none;fill-opacity:1;stroke:#000000;stroke-width:0.248923;stroke-miterlimit:4;stroke-dasharray:none;paint-order:fill markers stroke"
           d="m 103.60693,55.220325 a 3.5965683,3.7106018 0 0 1 3.59659,-3.710601 3.5965683,3.7106018 0 0 1 3.59655,3.710601 3.5965683,3.7106018 0 0 1 -3.59655,3.710602 3.5965683,3.7106018 0 0 1 -3.59659,-3.710602 z" />
        <path
           id="path1574"
           style="fill:none;fill-opacity:1;stroke:#000000;stroke-width:0.248923;stroke-miterlimit:4;stroke-dasharray:none;paint-order:fill markers stroke"
           d="m 109.84667,55.220325 a 2.64317,2.7628582 0 0 1 -2.64318,2.762858 2.64317,2.7628582 0 0 1 -2.64317,-2.762858 2.64317,2.7628582 0 0 1 2.64317,-2.762859 2.64317,2.7628582 0 0 1 2.64318,2.762859 z" />
        <path
           style="color:#000000;font-style:normal;font-variant:normal;font-weight:normal;font-stretch:normal;font-size:medium;line-height:normal;font-family:sans-serif;font-variant-ligatures:normal;font-variant-position:normal;font-variant-caps:normal;font-variant-numeric:normal;font-variant-alternates:normal;font-variant-east-asian:normal;font-feature-settings:normal;font-variation-settings:normal;text-indent:0;text-align:start;text-decoration:none;text-decoration-line:none;text-decoration-style:solid;text-decoration-color:#000000;letter-spacing:normal;word-spacing:normal;text-transform:none;writing-mode:lr-tb;direction:ltr;text-orientation:mixed;dominant-baseline:auto;baseline-shift:baseline;text-anchor:start;white-space:normal;shape-padding:0;shape-margin:0;inline-size:0;clip-rule:nonzero;display:inline;overflow:visible;visibility:visible;opacity:1;isolation:auto;mix-blend-mode:normal;color-interpolation:sRGB;color-interpolation-filters:linearRGB;solid-color:#000000;solid-opacity:1;vector-effect:none;fill:#000000;fill-opacity:1;fill-rule:nonzero;stroke:none;stroke-width:0.940817;stroke-linecap:butt;stroke-linejoin:miter;stroke-miterlimit:4;stroke-dasharray:none;stroke-dashoffset:0;stroke-opacity:1;paint-order:fill markers stroke;color-rendering:auto;image-rendering:auto;shape-rendering:auto;text-rendering:auto;enable-background:accumulate;stop-color:#000000;stop-opacity:1"
           d="m 110.22394,55.220703 c 0,1.698171 -1.38143,3.068349 -3.02082,3.200195 1.78692,0.131825 3.23438,-1.363428 3.23438,-3.200195 0,-1.191967 -0.60698,-2.240874 -1.5957,-2.71875 0.89421,0.702259 1.38214,1.616724 1.38214,2.71875 z"
           id="path1576"
           sodipodi:nodetypes="scscs" />
        <path
           id="path1588"
           style="fill:none;fill-opacity:1;stroke:#000000;stroke-width:0.248924;stroke-miterlimit:4;stroke-dasharray:none;paint-order:fill markers stroke"
           d="m 85.371388,58.125589 a 3.2563497,4.5540023 77.331817 0 1 3.729637,-4.175543 3.2563497,4.5540023 77.331817 0 1 5.156818,2.178856 3.2563497,4.5540023 77.331817 0 1 -3.729589,4.175534 3.2563497,4.5540023 77.331817 0 1 -5.156866,-2.178847 z" />
        <path
           id="path1590"
           style="fill:none;fill-opacity:1;stroke:#000000;stroke-width:0.248924;stroke-miterlimit:4;stroke-dasharray:none;paint-order:fill markers stroke"
           d="m 93.286802,56.252703 a 2.4114191,3.5808463 75.289253 0 1 -2.911404,3.220179 2.4114191,3.5808463 75.289253 0 1 -4.032984,-1.47109 2.4114191,3.5808463 75.289253 0 1 2.911391,-3.220176 2.4114191,3.5808463 75.289253 0 1 4.032997,1.471087 z" />
        <path
           style="color:#000000;font-style:normal;font-variant:normal;font-weight:normal;font-stretch:normal;font-size:medium;line-height:normal;font-family:sans-serif;font-variant-ligatures:normal;font-variant-position:normal;font-variant-caps:normal;font-variant-numeric:normal;font-variant-alternates:normal;font-variant-east-asian:normal;font-feature-settings:normal;font-variation-settings:normal;text-indent:0;text-align:start;text-decoration:none;text-decoration-line:none;text-decoration-style:solid;text-decoration-color:#000000;letter-spacing:normal;word-spacing:normal;text-transform:none;writing-mode:lr-tb;direction:ltr;text-orientation:mixed;dominant-baseline:auto;baseline-shift:baseline;text-anchor:start;white-space:normal;shape-padding:0;shape-margin:0;inline-size:0;clip-rule:nonzero;display:inline;overflow:visible;visibility:visible;opacity:1;isolation:auto;mix-blend-mode:normal;color-interpolation:sRGB;color-interpolation-filters:linearRGB;solid-color:#000000;solid-opacity:1;vector-effect:none;fill:#000000;fill-opacity:1;fill-rule:nonzero;stroke:none;stroke-width:0.940817;stroke-linecap:butt;stroke-linejoin:miter;stroke-miterlimit:4;stroke-dasharray:none;stroke-dashoffset:0;stroke-opacity:1;paint-order:fill markers stroke;color-rendering:auto;image-rendering:auto;shape-rendering:auto;text-rendering:auto;enable-background:accumulate;stop-color:#000000;stop-opacity:1"
           d="m 93.050833,58.682257 c 1.340753,-1.412798 1.165599,-2.940495 -0.138724,-3.767218 1.238499,1.138822 1.127089,2.499985 -0.0084,3.637644 -1.135518,1.137659 -3.38188,1.749289 -5.233758,1.278371 0.979511,0.664074 4.040158,0.264001 5.380911,-1.148797 z"
           id="path1592"
           sodipodi:nodetypes="zczczz" />
        <path
           id="path1609"
           style="fill:none;fill-opacity:1;stroke:#000000;stroke-width:0.248924;stroke-miterlimit:4;stroke-dasharray:none;paint-order:fill markers stroke"
           d="m 120.14916,56.128904 a 4.5540023,3.2563497 12.668183 0 0 3.72964,4.175543 4.5540023,3.2563497 12.668183 0 0 5.15682,-2.178856 4.5540023,3.2563497 12.668183 0 0 -3.72959,-4.175534 4.5540023,3.2563497 12.668183 0 0 -5.15687,2.178847 z" />
        <path
           id="path1611"
           style="fill:none;fill-opacity:1;stroke:#000000;stroke-width:0.248924;stroke-miterlimit:4;stroke-dasharray:none;paint-order:fill markers stroke"
           d="m 121.12021,56.252703 a 3.5808463,2.4114191 14.710747 0 0 2.9114,3.220179 3.5808463,2.4114191 14.710747 0 0 4.03298,-1.47109 3.5808463,2.4114191 14.710747 0 0 -2.91139,-3.220176 3.5808463,2.4114191 14.710747 0 0 -4.03299,1.471087 z" />
        <path
           style="color:#000000;font-style:normal;font-variant:normal;font-weight:normal;font-stretch:normal;font-size:medium;line-height:normal;font-family:sans-serif;font-variant-ligatures:normal;font-variant-position:normal;font-variant-caps:normal;font-variant-numeric:normal;font-variant-alternates:normal;font-variant-east-asian:normal;font-feature-settings:normal;font-variation-settings:normal;text-indent:0;text-align:start;text-decoration:none;text-decoration-line:none;text-decoration-style:solid;text-decoration-color:#000000;letter-spacing:normal;word-spacing:normal;text-transform:none;writing-mode:lr-tb;direction:ltr;text-orientation:mixed;dominant-baseline:auto;baseline-shift:baseline;text-anchor:start;white-space:normal;shape-padding:0;shape-margin:0;inline-size:0;clip-rule:nonzero;display:inline;overflow:visible;visibility:visible;opacity:1;isolation:auto;mix-blend-mode:normal;color-interpolation:sRGB;color-interpolation-filters:linearRGB;solid-color:#000000;solid-opacity:1;vector-effect:none;fill:#000000;fill-opacity:1;fill-rule:nonzero;stroke:none;stroke-width:0.940817;stroke-linecap:butt;stroke-linejoin:miter;stroke-miterlimit:4;stroke-dasharray:none;stroke-dashoffset:0;stroke-opacity:1;paint-order:fill markers stroke;color-rendering:auto;image-rendering:auto;shape-rendering:auto;text-rendering:auto;enable-background:accumulate;stop-color:#000000;stop-opacity:1"
           d="m 126.66075,59.907715 c 1.84437,-0.626014 2.4007,-2.059558 1.63133,-3.398516 0.5658,1.584512 -0.16659,2.737242 -1.70085,3.215525 -1.53463,0.478081 -3.80741,-0.0266 -5.22702,-1.305633 0.55764,1.043783 3.45254,2.114835 5.29692,1.488825 z"
           id="path1613"
           sodipodi:nodetypes="zczczz" />
        <path
           id="path1572-8"
           style="fill:#f5c209;fill-opacity:1;stroke:#000000;stroke-width:0.248923;stroke-miterlimit:4;stroke-dasharray:none;paint-order:fill markers stroke"
           d="m 74.255839,61.054382 a 3.0007149,3.1470984 0 0 1 3.000733,-3.147098 3.0007149,3.1470984 0 0 1 3.0007,3.147098 3.0007149,3.1470984 0 0 1 -3.0007,3.147099 3.0007149,3.1470984 0 0 1 -3.000733,-3.147099 z" />
        <path
           id="path1657"
           style="fill:none;fill-opacity:1;stroke:#000000;stroke-width:0.248923;stroke-miterlimit:4;stroke-dasharray:none;paint-order:fill markers stroke"
           d="m 74.257922,61.204721 a 2.44843,2.7293365 0 0 1 2.448444,-2.729337 2.44843,2.7293365 0 0 1 2.448418,2.729337 2.44843,2.7293365 0 0 1 -2.448418,2.729337 2.44843,2.7293365 0 0 1 -2.448444,-2.729337 z" />
        <path
           id="path1661"
           style="fill:none;fill-opacity:1;stroke:#000000;stroke-width:0.248923;stroke-miterlimit:4;stroke-dasharray:none;paint-order:fill markers stroke"
           d="m 140.14909,61.204721 a 2.44843,2.7293365 0 0 0 -2.44845,-2.729337 2.44843,2.7293365 0 0 0 -2.44842,2.729337 2.44843,2.7293365 0 0 0 2.44842,2.729337 2.44843,2.7293365 0 0 0 2.44845,-2.729337 z" />
        <path
           style="font-variation-settings:normal;opacity:1;vector-effect:none;fill:none;fill-opacity:1;stroke:#000000;stroke-width:0.248924;stroke-linecap:butt;stroke-linejoin:miter;stroke-miterlimit:4;stroke-dasharray:none;stroke-dashoffset:0;stroke-opacity:1;stop-color:#000000;stop-opacity:1"
           d="m 76.773169,68.75375 c 0,0 9.318095,-5.043376 30.430331,-5.043376 21.11225,0 30.43034,5.043376 30.43034,5.043376"
           id="path1667"
           sodipodi:nodetypes="czc" />
        <g
           id="g1672"
           style="stroke-width:0.940817">
          <path
             style="color:#000000;font-style:normal;font-variant:normal;font-weight:normal;font-stretch:normal;font-size:medium;line-height:normal;font-family:sans-serif;font-variant-ligatures:normal;font-variant-position:normal;font-variant-caps:normal;font-variant-numeric:normal;font-variant-alternates:normal;font-variant-east-asian:normal;font-feature-settings:normal;font-variation-settings:normal;text-indent:0;text-align:start;text-decoration:none;text-decoration-line:none;text-decoration-style:solid;text-decoration-color:#000000;letter-spacing:normal;word-spacing:normal;text-transform:none;writing-mode:lr-tb;direction:ltr;text-orientation:mixed;dominant-baseline:auto;baseline-shift:baseline;text-anchor:start;white-space:normal;shape-padding:0;shape-margin:0;inline-size:0;clip-rule:nonzero;display:inline;overflow:visible;visibility:visible;opacity:1;isolation:auto;mix-blend-mode:normal;color-interpolation:sRGB;color-interpolation-filters:linearRGB;solid-color:#000000;solid-opacity:1;vector-effect:none;fill:#000000;fill-opacity:1;fill-rule:nonzero;stroke:none;stroke-width:0.940817;stroke-linecap:butt;stroke-linejoin:miter;stroke-miterlimit:4;stroke-dasharray:none;stroke-dashoffset:0;stroke-opacity:1;paint-order:fill markers stroke;color-rendering:auto;image-rendering:auto;shape-rendering:auto;text-rendering:auto;enable-background:accumulate;stop-color:#000000;stop-opacity:1"
             d="m 346.86719,244.19727 -0.26563,0.96484 c 7.18802,1.98111 15.75006,3.57525 25.2832,4.20507 -9.37613,-1.61728 -17.89317,-3.20633 -25.01757,-5.16991 z m 116.86328,0.97265 -0.26563,-0.96484 c -4.73528,1.30362 -10.09503,2.4442 -15.86523,3.88672 5.96015,-0.45907 11.35336,-1.60664 16.13086,-2.92188 z m 10.92773,1.75781 -0.26562,-0.96484 c -5.93441,1.62276 -12.73429,3.03089 -20.12696,4.67578 7.57604,-0.66139 14.41265,-2.07573 20.39258,-3.71094 z m -138.6914,-0.96289 -0.26172,0.96485 c 9.61686,2.62863 21.39824,4.67518 34.55273,5.49804 -13.00988,-1.81461 -24.7473,-3.85424 -34.29101,-6.46289 z m -10.89063,2.16602 -0.23828,0.97266 c 12.27849,3.02808 27.36105,5.31481 44.07226,6.18359 -16.58753,-1.86146 -31.62669,-4.14573 -43.83398,-7.15625 z m 160.43164,0.97656 -0.23828,-0.97265 c -7.41884,1.82881 -15.90864,3.39579 -25.13867,5.14648 9.39221,-0.76247 17.91485,-2.33435 25.37695,-4.17383 z m 9.46485,2.29492 -0.20704,-0.97851 c -8.95778,1.89351 -19.10014,3.49406 -30.05859,5.24805 11.09799,-0.7648 21.26999,-2.36803 30.26563,-4.26954 z m -179.3711,-0.97656 -0.20703,0.97656 c 14.85657,3.14013 32.8369,5.45432 52.51758,6.25977 -19.57646,-1.79903 -37.51647,-4.10941 -52.31055,-7.23633 z m -6.79297,1.91797 -0.20312,0.98047 c 16.5368,3.44324 36.55857,5.94961 58.41211,6.81055 -21.75283,-1.85855 -41.73511,-4.36088 -58.20899,-7.79102 z m 192.92579,0.98437 -0.20313,-0.98046 c -9.82663,2.04512 -20.93587,3.76931 -32.92969,5.61133 12.12935,-0.85275 23.26866,-2.57793 33.13282,-4.63087 z m -199.1836,1.04297 -0.19922,0.98047 c 18.15097,3.69402 40.06409,6.35327 63.89453,7.25196 -23.73363,-1.89644 -45.60661,-4.55108 -63.69531,-8.23243 z m 205.45117,0.98243 -0.19922,-0.98047 c -10.68473,2.17382 -22.72963,3.99901 -35.70703,5.91308 13.11262,-0.92274 25.18475,-2.75131 35.90625,-4.93261 z m 5.78321,2.11523 -0.19532,-0.98047 c -11.50641,2.27957 -24.4253,4.18447 -38.3125,6.15625 14.01807,-0.97837 26.96567,-2.88913 38.50782,-5.17578 z m -217.00977,-0.97852 -0.19531,0.98047 c 19.70973,3.90355 43.39187,6.68526 69.04296,7.60742 -25.55842,-1.92005 -49.1989,-4.69641 -68.84765,-8.58789 z m -4.29687,1.8125 -0.1875,0.98047 c 20.926,4.03578 45.92955,6.88939 72.91991,7.81836 -26.89806,-1.92698 -51.86586,-4.77452 -72.73241,-8.79883 z m 225.58789,0.98047 -0.1875,-0.98047 c -12.12609,2.33853 -25.68178,4.28737 -40.21485,6.28906 14.65949,-1.00816 28.24171,-2.9634 40.40235,-5.30859 z"
             id="ellipse1686"
             transform="scale(0.26458333)"
             sodipodi:nodetypes="cccccccccccccccccccccccccccccccccccccccccccccccccccccccccccccccc" />
        </g>
        <path
           id="path1214-4-8"
           style="fill:#f5c209;fill-opacity:1;stroke:#000000;stroke-width:0.248923;stroke-miterlimit:4;stroke-dasharray:none;paint-order:fill markers stroke"
           d="m 67.091902,44.621693 a 5.0697408,3.3017878 61.521033 0 1 0.482081,-6.032161 5.0697408,3.3017878 61.521033 0 1 5.319924,2.878749 5.0697408,3.3017878 61.521033 0 1 -0.482068,6.032154 5.0697408,3.3017878 61.521033 0 1 -5.319937,-2.878742 z" />
        <path
           id="path1439"
           style="fill:none;fill-opacity:1;stroke:#000000;stroke-width:0.248923;stroke-miterlimit:4;stroke-dasharray:none;paint-order:fill markers stroke"
           d="m 67.091902,44.621693 c -1.33594,-2.460683 -0.774536,-4.59595 0.372777,-5.219512 1.147308,-0.623562 2.800206,0.245578 4.121121,2.678586 1.320916,2.433008 1.289455,4.550416 0.14215,5.173983 -1.147306,0.623571 -3.300108,-0.172371 -4.636048,-2.633057 z"
           sodipodi:nodetypes="sssss" />
        <path
           id="path1449"
           style="fill:#f5c209;fill-opacity:1;stroke:#000000;stroke-width:0.248923;stroke-miterlimit:4;stroke-dasharray:none;paint-order:fill markers stroke"
           d="m 147.31511,44.621693 a 3.3017878,5.0697408 28.478967 0 0 -0.48209,-6.032161 3.3017878,5.0697408 28.478967 0 0 -5.31992,2.878749 3.3017878,5.0697408 28.478967 0 0 0.48207,6.032154 3.3017878,5.0697408 28.478967 0 0 5.31994,-2.878742 z" />
        <path
           id="path1451"
           style="fill:none;fill-opacity:1;stroke:#000000;stroke-width:0.248923;stroke-miterlimit:4;stroke-dasharray:none;paint-order:fill markers stroke"
           d="m 147.31511,44.621693 c 1.33593,-2.460683 0.77453,-4.59595 -0.37278,-5.219512 -1.14731,-0.623562 -2.80021,0.245578 -4.12112,2.678586 -1.32092,2.433008 -1.28946,4.550416 -0.14215,5.173983 1.1473,0.623571 3.3001,-0.172371 4.63605,-2.633057 z"
           sodipodi:nodetypes="sssss" />
        <path
           id="path1791"
           style="fill:none;fill-opacity:1;stroke:#000000;stroke-width:0.248924;stroke-miterlimit:4;stroke-dasharray:none;paint-order:fill markers stroke"
           d="m 99.73251,55.290833 a 1.2756697,1.2756697 0 0 1 -1.275669,1.275669 1.2756697,1.2756697 0 0 1 -1.27567,-1.275669 1.2756697,1.2756697 0 0 1 1.27567,-1.27567 1.2756697,1.2756697 0 0 1 1.275669,1.27567 z" />
        <path
           id="circle1793"
           style="fill:none;fill-opacity:1;stroke:#000000;stroke-width:0.248924;stroke-miterlimit:4;stroke-dasharray:none;paint-order:fill markers stroke"
           d="m 83.574025,58.976101 a 1.2756697,1.2756697 0 0 1 -1.27567,1.27567 1.2756697,1.2756697 0 0 1 -1.27567,-1.27567 1.2756697,1.2756697 0 0 1 1.27567,-1.27567 1.2756697,1.2756697 0 0 1 1.27567,1.27567 z" />
        <path
           id="path1832"
           style="fill:none;fill-opacity:1;stroke:#000000;stroke-width:0.248924;stroke-miterlimit:4;stroke-dasharray:none;paint-order:fill markers stroke"
           d="m 114.6745,55.290833 a 1.2756697,1.2756697 0 0 0 1.27567,1.275669 1.2756697,1.2756697 0 0 0 1.27567,-1.275669 1.2756697,1.2756697 0 0 0 -1.27567,-1.27567 1.2756697,1.2756697 0 0 0 -1.27567,1.27567 z" />
        <path
           id="path1834"
           style="fill:none;fill-opacity:1;stroke:#000000;stroke-width:0.248924;stroke-miterlimit:4;stroke-dasharray:none;paint-order:fill markers stroke"
           d="m 130.83298,58.976101 a 1.2756697,1.2756697 0 0 0 1.27567,1.27567 1.2756697,1.2756697 0 0 0 1.27567,-1.27567 1.2756697,1.2756697 0 0 0 -1.27567,-1.27567 1.2756697,1.2756697 0 0 0 -1.27567,1.27567 z" />
        <path
           style="color:#000000;font-style:normal;font-variant:normal;font-weight:normal;font-stretch:normal;font-size:medium;line-height:normal;font-family:sans-serif;font-variant-ligatures:normal;font-variant-position:normal;font-variant-caps:normal;font-variant-numeric:normal;font-variant-alternates:normal;font-variant-east-asian:normal;font-feature-settings:normal;font-variation-settings:normal;text-indent:0;text-align:start;text-decoration:none;text-decoration-line:none;text-decoration-style:solid;text-decoration-color:#000000;letter-spacing:normal;word-spacing:normal;text-transform:none;writing-mode:lr-tb;direction:ltr;text-orientation:mixed;dominant-baseline:auto;baseline-shift:baseline;text-anchor:start;white-space:normal;shape-padding:0;shape-margin:0;inline-size:0;clip-rule:nonzero;display:inline;overflow:visible;visibility:visible;opacity:1;isolation:auto;mix-blend-mode:normal;color-interpolation:sRGB;color-interpolation-filters:linearRGB;solid-color:#000000;solid-opacity:1;vector-effect:none;fill:#000000;fill-opacity:1;fill-rule:nonzero;stroke:none;stroke-width:0.940817;stroke-linecap:butt;stroke-linejoin:miter;stroke-miterlimit:4;stroke-dasharray:none;stroke-dashoffset:0;stroke-opacity:1;paint-order:fill markers stroke;color-rendering:auto;image-rendering:auto;shape-rendering:auto;text-rendering:auto;enable-background:accumulate;stop-color:#000000;stop-opacity:1"
           d="m 108.71582,29.019531 c 0.97149,0.911699 1.54311,2.07416 2.06836,3.15918 -0.1988,-1.262879 -0.92414,-2.721876 -2.06836,-3.15918 z"
           id="path1367"
           sodipodi:nodetypes="ccc" />
      </g>
      <g
         id="g1125"
         style="stroke-width:0.943784"
         transform="translate(5.9014102e-4)">
        <path
           style="font-variation-settings:normal;opacity:1;vector-effect:none;fill:#db261b;fill-opacity:1;stroke:none;stroke-width:0.998836;stroke-linecap:butt;stroke-linejoin:miter;stroke-miterlimit:4;stroke-dasharray:none;stroke-dashoffset:0;stroke-opacity:1;stop-color:#000000;stop-opacity:1"
           d="M 176.8103,69.500371 V 205.53026 c 0,18.38553 -24.14735,23.26937 -39.56741,24.05426 -19.97053,1.01651 -23.052,-0.20045 -29.46646,11.02487 -6.41446,-11.22532 -9.495929,-10.00836 -29.466458,-11.02487 -15.420058,-0.78489 -39.567413,-5.66873 -39.567413,-24.05426 V 69.500371 Z"
           id="path1104"
           sodipodi:nodetypes="csscsscc" />
        <path
           id="path883"
           style="font-variation-settings:normal;opacity:1;vector-effect:none;fill:#dfdfdd;fill-opacity:1;stroke:#000000;stroke-width:0.873984;stroke-linecap:butt;stroke-linejoin:miter;stroke-miterlimit:4;stroke-dasharray:none;stroke-dashoffset:0;stroke-opacity:1;stop-color:#000000;stop-opacity:1"
           d="m 131.37183,69.500149 v 54.322781 h 45.43857 v 47.19092 h -45.43857 v 58.83879 c -14.76948,0.62906 -17.87385,0.74413 -23.59546,10.75696 -5.7216,-10.0128 -8.826107,-10.12791 -23.595464,-10.75696 v -58.83879 h -45.43857 v -47.19092 h 45.43857 V 69.500149 Z" />
        <path
           id="path1099"
           style="font-variation-settings:normal;opacity:1;vector-effect:none;fill:#0692da;fill-opacity:1;stroke:#000000;stroke-width:2.83135;stroke-linecap:butt;stroke-linejoin:miter;stroke-miterlimit:4;stroke-dasharray:none;stroke-dashoffset:0;stroke-opacity:1;stop-color:#000000;stop-opacity:1"
           d="m 376.49805,262.67773 c -2.27415,14.27457 -11.78321,25.48774 -11.78321,40.72461 0,17.30529 12.26954,29.41738 12.26954,46.72266 0,17.3053 -12.26954,29.41936 -12.26954,46.72461 0,17.30525 12.26954,29.41741 12.26954,46.72266 -10e-6,17.30528 -12.26954,29.41737 -12.26954,46.72265 0,17.30521 12.26954,29.41933 12.26954,46.72461 0,17.30529 -12.26954,29.41737 -12.26954,46.72266 0,17.30521 12.26954,29.41741 12.26954,46.72265 -10e-6,17.30529 -12.26954,29.41738 -12.26954,46.72266 0,17.30525 12.26954,29.41936 12.26954,46.72461 0,17.30528 -12.26954,29.41733 -12.26954,46.72266 0,17.30524 12.26953,29.41737 12.26954,46.72265 0,17.30525 -12.26954,29.41933 -12.26954,46.72461 0,3.04339 0.38419,5.92249 1.00977,8.70117 18.62124,4.08928 28.22862,13.17401 41.61914,36.60742 10.90849,-19.08988 19.30617,-28.65484 32.10937,-33.75781 -1.05027,-3.65334 -1.75,-7.45302 -1.75,-11.55078 0,-17.30528 12.27149,-29.41936 12.27149,-46.72461 0,-17.30528 -12.27149,-29.41741 -12.27149,-46.72265 0,-17.30533 12.27149,-29.41738 12.27149,-46.72266 0,-17.30525 -12.27149,-29.41936 -12.27149,-46.72461 0,-17.30528 12.27149,-29.41737 12.27149,-46.72266 0,-17.30524 -12.27149,-29.41744 -12.27149,-46.72265 0,-17.30529 12.27149,-29.41737 12.27149,-46.72266 0,-17.30528 -12.27149,-29.4194 -12.27149,-46.72461 0,-17.30528 12.27149,-29.41737 12.27149,-46.72265 0,-17.30525 -12.27149,-29.41741 -12.27149,-46.72266 0,-17.30525 12.27149,-29.41931 12.27149,-46.72461 0,-17.30528 -12.27149,-29.41737 -12.27149,-46.72266 0,-15.23687 9.50907,-26.45004 11.78321,-40.72461 z"
           transform="scale(0.26458333)" />
        <path
           id="path881"
           style="opacity:1;fill:#db261b;fill-opacity:1;stroke:#000000;stroke-width:0.749129;stroke-miterlimit:4;stroke-dasharray:none;paint-order:fill markers stroke"
           inkscape:transform-center-x="1.4661365e-05"
           inkscape:transform-center-y="-3.5548024"
           d="m 107.77637,106.74858 -12.236937,8.8906 1.734766,2.38771 -10.930006,7.94135 -1.734766,-2.38719 -12.235892,8.89009 4.674041,14.3855 2.805673,-0.91183 4.174976,12.84932 -2.806193,0.91183 4.674042,14.3855 h 15.124746 v -2.95122 h 13.5111 v 2.95122 h 15.12474 l 4.67404,-14.3855 -2.8062,-0.91183 4.17497,-12.84932 2.8062,0.91131 4.67352,-14.38498 -12.23589,-8.89009 -1.73425,2.38719 -10.93052,-7.94135 1.73476,-2.38771 z m 0,8.19504 3.30681,2.40278 -1.85485,2.55302 20.996,15.25523 1.85486,-2.55304 3.30629,2.40227 -1.26273,3.88698 -3.00166,-0.97525 -8.01933,24.68285 3.00115,0.97524 -1.26326,3.88801 h -4.0866 v -3.15605 H 94.800197 v 3.15605 h -4.087122 l -1.263255,-3.88801 3.001139,-0.97524 -8.019323,-24.68233 -3.001139,0.97525 -1.263255,-3.8875 3.306296,-2.40227 1.854851,2.55304 20.996011,-15.25523 -1.85485,-2.55302 z" />
        <path
           style="font-variation-settings:normal;opacity:1;vector-effect:none;fill:none;fill-opacity:1;stroke:#000000;stroke-width:0.998836;stroke-linecap:butt;stroke-linejoin:miter;stroke-miterlimit:4;stroke-dasharray:none;stroke-dashoffset:0;stroke-opacity:1;stop-color:#000000;stop-opacity:1"
           d="M 176.8103,69.500371 V 205.53026 c 0,18.38553 -24.14735,23.26937 -39.56741,24.05426 -19.97053,1.01651 -23.052,-0.20045 -29.46646,11.02487 -6.41446,-11.22532 -9.495929,-10.00836 -29.466458,-11.02487 -15.420058,-0.78489 -39.567413,-5.66873 -39.567413,-24.05426 V 69.500371 Z"
           id="path879"
           sodipodi:nodetypes="csscsscc" />
      </g>
    </g>
  </g>
</svg>
