<?xml version="1.0" encoding="UTF-8" standalone="no"?>
<!-- Created with Inkscape (http://www.inkscape.org/) -->
<svg id="svg2" xmlns:rdf="http://www.w3.org/1999/02/22-rdf-syntax-ns#" xmlns="http://www.w3.org/2000/svg" height="386" width="300" version="1.1" xmlns:cc="http://creativecommons.org/ns#" xmlns:dc="http://purl.org/dc/elements/1.1/">
 <title id="title3020">Coat of Arms of Ozersk, Russia</title>
 <defs id="defs4">
  <style id="style3985" type="text/css">.str0 {stroke:#FF6600;stroke-width:0.7056}
    .fil1 {fill:none}
    .fil0 {fill:#A90000}</style>
  <radialGradient id="radialGradient3808" gradientUnits="userSpaceOnUse" cy="582.55" cx="397.22" gradientTransform="matrix(1,0,0,1.2853739,-160.0625,-596.06486)" r="2.9403">
   <stop id="stop3959" stop-color="#0F0" offset="0"/>
   <stop id="stop3961" stop-color="#007f00" offset="1"/>
  </radialGradient>
 </defs>
 <metadata id="metadata7">
  <rdf:RDF>
   <cc:Work rdf:about="">
    <dc:format>image/svg+xml</dc:format>
    <dc:type rdf:resource="http://purl.org/dc/dcmitype/StillImage"/>
    <dc:title>Coat of Arms of Ozersk, Russia</dc:title>
   </cc:Work>
  </rdf:RDF>
 </metadata>
 <path id="path3027-1" fill="#a90000" d="m66.592,193.4c0-7.3362,5.9502-13.288,13.287-13.288,7.3371,0,13.287,5.9512,13.287,13.288,0,7.3375-5.9502,13.288-13.287,13.288-7.3371,0-13.287-5.95-13.287-13.288zm13.287,18.602c10.272,0,18.602-8.33,18.602-18.602,0-10.271-8.3302-18.602-18.602-18.602s-18.602,8.3312-18.602,18.602c0,10.272,8.3304,18.602,18.602,18.602zm-5.3135-26.575,5.3135,0c4.4022,0,7.9725,3.57,7.9725,7.9725s-3.6365,7.9575-7.9725,7.9725h-5.3135v-5.315h5.3135c1.4674,0,2.6575-1.19,2.6575-2.6575s-1.1901-2.6575-2.6575-2.6575h-5.3135zm45.174-5.3138,5.3149,0,0,26.574-5.3149,0-10.63-16.684,0,16.684-5.3149,0,0-26.574,5.3149,0,10.63,16.684zm-79.723,0,15.945,0,0,5.315-10.63,0,0,5.3138,10.63,0,0,5.315-10.63,0,0,5.315,10.63,0,0,5.315-15.945,0zm90.352,0,5.3152,0,0,26.574-5.3152,0zm21.26,26.574c5.87,0,10.63-4.76,10.63-10.63v-5.3138c0-5.87-4.76-10.63-10.63-10.63h-10.63v26.574zm0-21.259c2.935,0,5.315,2.38,5.315,5.315v5.3138c0,2.935-2.38,5.315-5.315,5.315h-5.315v-15.944zm92.41,7.9712c0,7.3375-5.95,13.288-13.288,13.288-7.3362,0-13.288-5.95-13.288-13.288,0-7.3362,5.9512-13.288,13.288-13.288,7.3375,0,13.288,5.9512,13.288,13.288zm-13.288-18.602c-10.271,0-18.601,8.3312-18.601,18.602,0,10.272,8.33,18.602,18.601,18.602,10.272,0,18.602-8.33,18.602-18.602,0-10.271-8.33-18.602-18.602-18.602zm-211.99,5.315,5.315,0,0,21.26,10.63,0,0,5.315-15.945,0zm241.23,0.001,0,26.574-5.315,0,0-21.259zm-61.12,15.944c-1.4675,0-2.6575,1.19-2.6575,2.6575v2.6575h10.63v5.315h-15.945v-7.9725c0.015-4.3362,3.57-7.9725,7.9725-7.9725,1.4662,0.001,2.6575-1.19,2.6575-2.6575,0-1.4662-1.1912-2.6562-2.6575-2.6562h-7.9725l5.315-5.315h2.6575c4.335,0.015,7.9725,3.57,7.9725,7.9712,0,4.4025-3.5712,7.9725-7.9725,7.9725zm74.408,0c-1.4675,0-2.6575,1.19-2.6575,2.6575v2.6575h10.63v5.315h-15.945v-7.9725c0.015-4.3362,3.57-7.9725,7.9725-7.9725,1.4675,0.001,2.6575-1.19,2.6575-2.6575,0-1.4662-1.19-2.6562-2.6575-2.6562h-7.9725l5.315-5.315h2.6575c4.3362,0.015,7.9725,3.57,7.9725,7.9712,0,4.4025-3.57,7.9725-7.9725,7.9725z"/>
 <path id="path2993" fill="#FFF" d="M299,317.37,299,1.02,1,1.02,1,317.37c0,24.488,19.86,44.348,44.348,44.348h74.356c14.754,0,27.111,10.283,30.293,24.071,3.1821-13.789,15.539-24.071,30.293-24.071h74.356c24.489,0,44.348-19.86,44.348-44.348z"/>
 <path id="path2995" fill="#0054c0" d="m299,317.37,0-255.48c-6.538,8.2065-16.615,13.468-27.921,13.468-12.94,0-24.274-6.8928-30.53-17.206-6.256,10.313-17.589,17.206-30.529,17.206-12.941,0-24.275-6.8933-30.531-17.206-6.256,10.313-17.589,17.206-30.53,17.206-12.94,0-24.274-6.8928-30.53-17.206-6.2554,10.313-17.589,17.206-30.53,17.206-12.94,0-24.274-6.8933-30.53-17.206-6.2556,10.313-17.59,17.206-30.53,17.206-10.163,0-19.335-4.2513-25.835-11.072v253.08c0,24.488,19.86,44.348,44.348,44.348h74.356c14.754,0,27.111,10.283,30.293,24.071,3.1821-13.789,15.539-24.071,30.293-24.071h74.356c24.489,0,44.348-19.86,44.348-44.348z"/>
 <path id="path2991" d="m299,317.37,0-316.35-298,0,0,316.35c0,24.488,19.86,44.348,44.348,44.348h74.356c14.754,0,27.111,10.283,30.293,24.071,3.1821-13.789,15.539-24.071,30.293-24.071h74.356c24.489,0,44.348-19.86,44.348-44.348z" stroke="#000" stroke-dasharray="none" stroke-miterlimit="2" stroke-width="2" fill="none"/>
 <path id="path2999" fill="#FFF" d="m114.42,103.43,33.257,0,0,33.258-33.257,0,0-33.258z"/>
 <path id="path3001" fill="#FFF" d="m152.99,103.43,33.258,0,0,33.258-33.258,0,0-33.258z"/>
 <path id="path3003" fill="#FFF" d="m75.858,141.99,33.257,0,0,33.258-33.257,0,0-33.258z"/>
 <path id="path3005" fill="#FFF" d="m114.42,141.99,33.258,0,0,33.258-33.258,0,0-33.258z"/>
 <path id="path3007" fill="#FFF" d="m152.99,141.99,33.258,0,0,33.258-33.258,0,0-33.258z"/>
 <path id="path3009" fill="#FFF" d="m191.55,141.99,33.258,0,0,33.258-33.258,0,0-33.258z"/>
 <path id="path3011" fill="#FFF" d="m37.288,180.56,33.257,0,0,33.257-33.257,0,0-33.257z"/>
 <path id="path3013" fill="#FFF" d="m75.858,180.56,33.257,0,0,33.257-33.257,0,0-33.257z"/>
 <path id="path3015" fill="#FFF" d="m114.42,180.56,33.258,0,0,33.257-33.258,0,0-33.257z"/>
 <path id="path3017" fill="#FFF" d="m152.99,180.56,33.258,0,0,33.257-33.258,0,0-33.257z"/>
 <path id="path3019" fill="#FFF" d="m191.55,180.56,33.258,0,0,33.257-33.258,0,0-33.257z"/>
 <path id="path3021" fill="#FFF" d="m230.11,180.56,33.257,0,0,33.257-33.257,0,0-33.257z"/>
 <path id="path3023" fill="#FFF" d="m37.288,219.12,33.257,0,0,33.258-33.257,0,0-33.258z"/>
 <path id="path3025" fill="#FFF" d="m75.858,219.12,33.257,0,0,33.258-33.257,0,0-33.258z"/>
 <path id="path3027" fill="#FFF" d="m114.42,219.12,33.258,0,0,33.257-33.258,0,0-33.257z"/>
 <path id="path3029" fill="#FFF" d="m152.99,219.12,33.258,0,0,33.258-33.258,0,0-33.258z"/>
 <path id="path3031" fill="#FFF" d="m191.55,219.12,33.258,0,0,33.258-33.258,0,0-33.258z"/>
 <path id="path3033" fill="#FFF" d="m230.11,219.12,33.257,0,0,33.258-33.257,0,0-33.258z"/>
 <path id="path3035" fill="#FFF" d="m75.858,257.69,33.257,0,0,33.257-33.257,0,0-33.257z"/>
 <path id="path3037" fill="#FFF" d="m114.42,257.69,33.258,0,0,33.257-33.258,0,0-33.257z"/>
 <path id="path3039" fill="#FFF" d="m152.99,257.69,33.258,0,0,33.257-33.258,0,0-33.257z"/>
 <path id="path3041" fill="#FFF" d="m191.55,257.69,33.258,0,0,33.257-33.258,0,0-33.257z"/>
 <path id="path3043" fill="#FFF" d="m114.42,296.25,33.257,0,0,33.257-33.257,0,0-33.257z"/>
 <path id="path3045" fill="#FFF" d="m152.99,296.25,33.258,0,0,33.257-33.258,0,0-33.257z"/>
 <path id="path4997-8" d="m157.08,101.35c66.606,0,120.62,54.015,120.62,120.62,0,24.57-7.3567,47.422-19.979,66.485-0.0606,9.8213-0.60725,19.666-1.9781,29.217,14.931-15.384,25.545-33.403,31.852-52.532,1.2912-4.3289-0.66989-8.0501-3.5704-11.392-2.0993-2.419-4.3174-5.2508-3.6365-8.9249,0.62579-3.3775,3.8725-5.6091,7.2505-4.9833,2.6049,0.483,4.5273,2.5242,4.9838,4.9828,0.89786-5.3721-0.003-10.721-3.869-14.8-2.4851-2.6219-6.2654-3.8124-6.2654-8.0531,0-3.4351,2.7858-6.2208,6.2208-6.2208,2.6294,0,4.8781,1.6329,5.788,3.9396-0.0922-5.6196-1.4996-9.7181-6.4077-13.051-3.3058-2.2446-6.8602-2.9802-7.7009-7.521-0.6263-3.3775,1.6053-6.6242,4.9828-7.25,2.6029-0.4825,5.1276,0.73301,6.4353,2.8614-2.3674-11.767-6.2845-23.285-11.751-34.224l-0.006,0.003c-2.1054-4.2112-6.2128-5.5094-10.736-5.829-3.1946-0.22597-6.766-0.66036-8.8824-3.7397-1.946-2.8308-1.228-6.7044,1.6028-8.6504,2.184-1.5006,4.9878-1.4164,7.0491,0.0005-3.1971-4.4828-7.486-7.5782-13.203-7.731-3.611-0.0962-7.1257,1.7351-10.124-1.2636-2.429-2.429-2.429-6.3687,0-8.7977,1.8593-1.8593,4.604-2.2947,6.8787-1.3072-4.0388-3.9086-7.9324-5.8115-13.76-4.6977-3.9246,0.75005-6.9579,2.7437-10.764,0.12726-2.8308-1.9455-3.5488-5.8195-1.6028-8.6498,1.5066-2.193,4.1701-3.117,6.6127-2.5222-10.339-6.8822-21.407-12.21-32.874-15.992-4.3279-1.2892-8.0481,0.67139-11.389,3.5714-2.419,2.0993-5.2514,4.3174-8.9254,3.6365-3.3775-0.62579-5.6091-3.873-4.9828-7.2505,0.48249-2.6049,2.5242-4.5274,4.9823-4.9838-5.3711-0.89886-10.722,0.003-14.8,3.869-2.6219,2.4851-3.8124,6.2654-8.0531,6.2654-3.4346,0-6.2204-2.7858-6.2204-6.2208,0-2.6294,1.6329-4.8781,3.9391-5.788-5.6191,0.09169-9.7176,1.4996-13.051,6.4077-2.2446,3.3053-2.9796,6.8597-7.521,7.7009-3.377,0.62629-6.6242-1.6053-7.25-4.9828-0.4825-2.6029,0.73351-5.1276,2.8619-6.4353-11.767,2.3674-23.285,6.2845-34.224,11.751l0.003,0.005c-4.2107,2.1059-5.5089,6.2133-5.8285,10.736-0.22597,3.1946-0.66037,6.766-3.7397,8.8824-2.8309,1.946-6.7049,1.2275-8.6504-1.6033-1.5011-2.1835-1.4164-4.9873,0-7.0486-4.4823,3.1966-7.5777,7.486-7.7305,13.202-0.0967,3.6114,1.7346,7.1262-1.2641,10.125-2.4285,2.4285-6.3686,2.4285-8.7972,0-1.8593-1.8593-2.295-4.604-1.3077-6.8787-3.9082,4.0383-5.8111,7.9319-4.6976,13.759,0.75004,3.9251,2.7437,6.9584,0.12741,10.764-1.9456,2.8308-5.8194,3.5488-8.6501,1.6028-2.1926-1.5066-3.1169-4.1706-2.5211-6.6122-6.9093,10.377-12.249,21.491-16.031,33.005-1.2113,4.2713,0.73913,7.9504,3.6096,11.258,2.0993,2.419,4.3173,5.2508,3.6367,8.9254-0.62579,3.3775-3.8729,5.6086-7.2504,4.9828-2.5954-0.481-4.5132-2.5092-4.9784-4.9557-0.89916,5.3661-0.0007,10.697,3.8634,14.774,2.4853,2.6214,6.2656,3.8124,6.2656,8.0526,0,3.4351-2.7858,6.2208-6.2207,6.2208-2.6293,0-4.8783-1.6329-5.7884-3.9391,0.092,5.6191,1.4997,9.7176,6.4078,13.051,3.3056,2.2451,6.8601,2.9802,7.7014,7.521,0.6259,3.3775-1.6056,6.6242-4.9831,7.25-2.6087,0.484-5.1386-0.73803-6.444-2.8754,2.3665,11.773,6.2863,23.295,11.757,34.239l0.008-0.004c2.1056,4.2112,6.2131,5.5094,10.736,5.829,3.1948,0.22597,6.766,0.66036,8.8827,3.7397,1.9458,2.8308,1.2275,6.7044-1.6033,8.6504-2.1839,1.5006-4.9876,1.4164-7.0488-0.0005,3.1969,4.4828,7.4861,7.5782,13.202,7.731,3.6115,0.0962,7.1262-1.7346,10.125,1.2636,2.4285,2.429,2.4285,6.3686,0,8.7977-1.8593,1.8588-4.604,2.2947-6.8787,1.3077,4.0388,3.9081,7.9319,5.811,13.76,4.6972,3.9246-0.75004,6.9579-2.7437,10.764-0.12727,2.8308,1.9455,3.5488,5.8195,1.6028,8.6504-1.5066,2.1925-4.1706,3.1164-6.6122,2.5207,10.376,6.9083,21.488,12.248,33,16.03,4.2733,1.214,7.9539-0.73702,11.262-3.6084,2.419-2.0993,5.2514-4.3174,8.9254-3.637,3.3775,0.6258,5.6086,3.873,4.9828,7.2505-0.48098,2.5959-2.5092,4.5138-4.9562,4.9788,5.3671,0.89786,10.697,0.001,14.774-3.8635,2.6214-2.4856,3.8124-6.2659,8.0526-6.2659,3.4351,0,6.2208,2.7863,6.2208,6.2208,0,2.6294-1.6329,4.8786-3.9391,5.7884,5.6191-0.0922,9.7176-1.4996,13.051-6.4077,2.2451-3.3058,2.9802-6.8602,7.5215-7.7014,3.377-0.62578,6.6242,1.6058,7.2495,4.9833,0.48399,2.6089-0.73853,5.1391-2.8764,6.4443,11.774-2.3664,23.296-6.286,34.24-11.757l-0.004-0.009c4.2112-2.1054,5.5094-6.2128,5.829-10.736,0.22597-3.1951,0.66037-6.766,3.7397-8.8828,2.8309-1.9455,6.7044-1.2275,8.6504,1.6033,1.5006,2.184,1.4164,4.9878,0,7.0486,15.241-10.488,17.415-38.785,4.3335-51.564-15.57-15.213-41.608-11.665-69.191-5.3566-25.221,5.7679-50.465,14.426-76.544,8.5216-23.768-5.3811-36.178-20.827-39.274-37.43-5.0378-27.016,14.581-57.1,50.045-51.892,6.8096,1.0001,13.909,3.5639,20.533,6.4824-0.79164,4.0759-1.5868,8.1508-2.7186,12.137-0.71548,2.5187-1.48,1.8233-3.7593,0.70696-2.2607-1.1078-4.348-2.7101-6.7986-4.7418-3.1004-2.5703-7.0496-5.6858-9.195,1.4756-1.7115,5.7128-3.4932,11.531-7.2264,17.137-1.3974,2.0983-3.1109,2.7873-4.6656,2.6129-1.8794-0.75155-3.8745-2.2542-5.7544-4.0469-0.0862,1.6198,0.71348,3.5478,1.4746,4.6286-2.158,0.0772-4.1045-0.25101-5.9548-1.0993,0.85126,1.8097,2.0878,3.2913,4.1721,4.7924-3.1886,0.69744-6.3777,0.54612-9.5668,0.01,3.0764,2.2967,6.4378,3.7518,10.747,4.3991-2.4506,1.0627-4.6862,1.8543-7.1367,2.6069,3.4717,1.1248,7.7355,1.4304,12.45-0.52559,0.46295,1.5111-0.0757,3.4526-0.55565,4.9638,2.7046-1.0702,5.6236-3.5163,6.7214-7.7179,0.40534-1.5497,0.11023-3.3715,1.3022-4.8054,3.2312-3.888,6.8306-7.5235,9.3037-12.483,0.94696-1.8984,1.6925-3.0453,4.0879-0.89133,2.7432,2.4661,5.9683,4.1055,8.9204,5.7118,2.3784,1.2937,4.7653,1.4585,7.0701-1.2621,4.7047-5.5525,8.5537-10.992,12.171-16.379,19.462,9.3478,43.729,18.597,69.53,3.2983,6.7665-4.0123,12.985-8.4224,17.864-13.792,1.69,4.3505,3.7948,8.3964,5.826,12.402,2.0973,4.1365,4.7829,4.38,7.6758,3.0448,5.7784-2.6665,11.611-6.9879,16.439-7.5481,2.2086,0.42187,4.4166,0.52508,6.6257-0.0737,2.5357-0.78863,4.5198-1.947,6.5365-3.0834-1.5888-0.1944-3.1776-0.49503-4.7658-1.0301,2.1419-1.1935,4.0348-2.7542,5.3285-4.4582-1.8563,0.50154-3.9672,0.90738-5.823,0.89786,0.973-1.3969,2.8058-2.8654,4.0348-5.1146-1.95,0.59322-4.2182,1.6574-5.8496,2.5047,0.0802-2.0502,0.76457-3.9732,1.4811-5.9603-1.9856,1.4214-4.2032,3.3349-5.8275,5.6732-1.0061-1.5607-1.227-3.5684-1.1709-5.9588-1.9661,2.2316-2.8113,5.8857-2.8374,8.4815-0.0155,1.5522,0.15032,3.4556-1.0842,3.854-3.6781,1.1865-7.6037,1.443-11.516,2.4997-1.2671,0.3422-2.1524-0.65937-2.4015-2.2747-1.1018-7.1357-3.0824-11.499-5.317-15.115,1.7591-4.099,2.8494-8.6759,3.0939-13.858,0.0742-1.5708,0.78312-1.937,1.9105-2.0843,8.2856-1.0832,8.6814-11.492,9.901-19.975,0.45493-3.166-2.3383-6.8346-6.7745-4.3425-7.4128,4.1651-18.099,5.9728-17.022,14.243,0.12025,0.9254-0.38178,2.0663-1.7371,2.0843-4.3595,0.0576-8.2856,3.3745-12.408,7.4168-5.0108-0.36175-9.9125-0.50354-15.269,1.5808-1.8122,0.70496-3.4697-0.35974-2.7577-2.4891,1.3403-4.0053,0.9199-7.7275,1.4861-11.69,0.29761-2.0808-0.0451-1.9485,1.9686-1.9636,2.4145-0.019,5.6447-0.42288,8.0151-2.7828-1.4595-0.0536-3.1656-0.0486-4.6246-0.57919,1.6474-1.0978,3.1395-1.9921,4.5509-3.5639-1.5407-0.0311-3.6841,0.10922-5.2238-0.10121,0.59523-1.1043,2.7181-2.9892,3.613-4.2713-1.6299,0.2911-4.3625,0.77459-5.8135,1.7481,0.35624-1.4981,1.3027-3.167,1.8373-4.6651-1.911,1.194-3.5163,2.5773-5.4272,4.4828-0.45544-1.2977-0.64382-2.5954-0.56566-4.1596-1.3338,1.5642-2.3118,3.4932-3.378,6.282-0.44091,1.8498,0.20292,3.6921,0.0125,5.3716-0.73501,6.4844-3.9141,12.232-5.5946,18.27-0.9174,3.2968,0.48851,6.3782,4.2217,7.4634,2.643,0.76809,5.4984-0.32716,7.4419,1.3107,0.68742,0.57969,0.84825,1.3142,0.81017,2.1299-1.4866,0.75956-3.0423,1.3628-4.6817,1.7481-18.453,4.3354-33.358,2.1384-45.72-1.3328,1.8132-7.8116,3.1144-15.689,1.8062-23.39-0.66037-3.8875-4.0023-3.623-6.5866-3.0999-5.0369,0.98453-10.139,1.9756-15.11,3.6806-3.3685,1.1554-4.5414,0.29061-5.4422-2.3418-1.5993-4.6757-4.9698-7.0806-6.8857-10.162-0.70997-1.1414-0.74254-2.4285-1.1083-3.4511-1.4079-3.9341-4.2017-6.0981-6.6252-6.997,0.90536,1.7436,1.2255,3.8109,1.233,5.6933-2.9341-2.5728-7.1152-3.4907-10.129-2.9431,1.6143,0.83923,3.0628,1.7982,4.1606,3.1545-1.8077-0.0882-4.7047,0.55114-6.5129,1.5302,2.2597,0.14629,5.3971,1.1464,6.9554,2.0407-2.6264,0.52308-5.0319,2.0848-6.1066,3.6696,1.7621-0.47298,4.2172-0.66638,6.0515-0.26655-1.5402,0.8758-2.8784,2.6104-3.2933,3.857,2.7121-1.4094,4.833-1.0722,7.5732-1.8248,1.9836-0.54413,4.602,0.13477,5.3425,2.5162,1.0697,3.4386,2.5613,6.521,3.7447,9.5933,1.1238,2.9175,2.5588,4.5935,4.6491,4.8605,5.6512,0.7235,11.43-0.77359,17.048-2.7296-2.427,3.6796-4.1265,8.0196-5.4267,11.93-13.373-4.1581-27.444-6.771-41.545-3.88-33.388,6.8441-54.638,43.603-47.596,74.488,4.044,17.735,20.475,38.27,49.088,44.361,27.66,5.8887,53.291-4.9412,79.792-11.142,26.367-6.1692,52.735-9.3889,62.644,4.9532,9.3393,13.517,0.93744,24.674-10.033,32.337-19.547,13.656-43.328,21.667-68.976,21.667-66.605,0-120.62-54.015-120.62-120.62,0-66.606,54.015-120.62,120.62-120.62z" fill="#000" fill-opacity="0.47058823999999999"/>
 <g id="g5137" transform="matrix(0.99999502,0,0,0.99999502,-321.38819,4.5048671)">
  <path id="path4997" fill="#FC0" d="m472.39,91.448c66.606,0,120.62,54.015,120.62,120.62,0,24.57-7.3567,47.423-19.979,66.485-0.0606,9.8213-0.60726,19.666-1.9781,29.217,14.931-15.384,25.545-33.403,31.852-52.532,1.2912-4.329-0.66989-8.0502-3.5704-11.392-2.0994-2.419-4.3174-5.2509-3.6365-8.925,0.62579-3.3775,3.8725-5.6091,7.2505-4.9833,2.6049,0.483,4.5274,2.5242,4.9838,4.9828,0.89786-5.3721-0.003-10.721-3.869-14.8-2.4852-2.6219-6.2655-3.8124-6.2655-8.0532,0-3.4351,2.7858-6.2209,6.2209-6.2209,2.6294,0,4.8781,1.6329,5.788,3.9397-0.0922-5.6196-1.4996-9.7181-6.4078-13.052-3.3058-2.2446-6.8602-2.9802-7.7009-7.5211-0.6263-3.3775,1.6053-6.6242,4.9828-7.25,2.6029-0.4825,5.1276,0.73302,6.4353,2.8614-2.3674-11.767-6.2845-23.285-11.751-34.224l-0.006,0.003c-2.1054-4.2112-6.2129-5.5094-10.736-5.8291-3.1946-0.22597-6.766-0.66037-8.8824-3.7397-1.946-2.8309-1.228-6.7044,1.6028-8.6504,2.184-1.5006,4.9878-1.4164,7.0491,0.0005-3.1971-4.4828-7.486-7.5782-13.203-7.731-3.611-0.0962-7.1258,1.7351-10.124-1.2636-2.429-2.429-2.429-6.3687,0-8.7977,1.8594-1.8594,4.604-2.2948,6.8787-1.3072-4.0389-3.9086-7.9324-5.8115-13.76-4.6977-3.9246,0.75005-6.9579,2.7437-10.764,0.12726-2.8309-1.9455-3.5488-5.8195-1.6028-8.6499,1.5066-2.193,4.1701-3.117,6.6127-2.5222-10.339-6.8822-21.407-12.21-32.874-15.992-4.328-1.2892-8.0482,0.67139-11.389,3.5714-2.419,2.0993-5.2514,4.3174-8.9255,3.6365-3.3775-0.6258-5.6091-3.873-4.9828-7.2505,0.4825-2.6049,2.5242-4.5274,4.9823-4.9838-5.3711-0.89886-10.722,0.003-14.8,3.869-2.6219,2.4851-3.8124,6.2655-8.0532,6.2655-3.4346,0-6.2204-2.7858-6.2204-6.2209,0-2.6294,1.6329-4.8781,3.9392-5.788-5.6191,0.09169-9.7176,1.4996-13.052,6.4078-2.2446,3.3053-2.9797,6.8597-7.5211,7.7009-3.377,0.6263-6.6242-1.6053-7.25-4.9828-0.4825-2.6029,0.73352-5.1276,2.8619-6.4353-11.767,2.3674-23.285,6.2845-34.224,11.751l0.003,0.005c-4.2107,2.1059-5.5089,6.2134-5.8286,10.736-0.22597,3.1946-0.66037,6.766-3.7397,8.8824-2.8309,1.946-6.7049,1.2275-8.6504-1.6033-1.5011-2.1835-1.4164-4.9873,0-7.0486-4.4823,3.1966-7.5777,7.486-7.7305,13.202-0.0967,3.6115,1.7346,7.1262-1.2641,10.125-2.4285,2.4285-6.3687,2.4285-8.7972,0-1.8594-1.8594-2.295-4.604-1.3077-6.8787-3.9082,4.0384-5.8111,7.9319-4.6976,13.759,0.75005,3.9251,2.7437,6.9584,0.12741,10.764-1.9456,2.8309-5.8194,3.5488-8.6501,1.6028-2.1926-1.5066-3.117-4.1706-2.5211-6.6122-6.9093,10.377-12.249,21.491-16.031,33.005-1.2113,4.2714,0.73913,7.9505,3.6096,11.258,2.0993,2.419,4.3173,5.2509,3.6367,8.9255-0.62579,3.3775-3.8729,5.6086-7.2505,4.9828-2.5954-0.481-4.5132-2.5092-4.9785-4.9558-0.89916,5.3661-0.0007,10.697,3.8634,14.774,2.4854,2.6214,6.2656,3.8124,6.2656,8.0527,0,3.4351-2.7858,6.2209-6.2207,6.2209-2.6294,0-4.8783-1.6329-5.7884-3.9392,0.092,5.6191,1.4997,9.7176,6.4078,13.051,3.3056,2.2452,6.8602,2.9802,7.7014,7.5211,0.6259,3.3775-1.6056,6.6242-4.9832,7.25-2.6088,0.484-5.1386-0.73803-6.444-2.8754,2.3666,11.773,6.2864,23.295,11.757,34.239l0.008-0.004c2.1056,4.2112,6.2131,5.5094,10.736,5.8291,3.1949,0.22597,6.766,0.66036,8.8827,3.7397,1.9458,2.8309,1.2275,6.7044-1.6033,8.6504-2.1839,1.5006-4.9877,1.4164-7.0488-0.0005,3.1969,4.4828,7.4861,7.5782,13.202,7.731,3.6115,0.0962,7.1263-1.7346,10.125,1.2636,2.4285,2.429,2.4285,6.3687,0,8.7977-1.8594,1.8588-4.604,2.2948-6.8787,1.3077,4.0389,3.9081,7.9319,5.811,13.76,4.6972,3.9246-0.75005,6.9579-2.7437,10.764-0.12727,2.8309,1.9455,3.5488,5.8196,1.6028,8.6504-1.5066,2.1925-4.1706,3.1165-6.6122,2.5207,10.376,6.9083,21.488,12.248,33,16.03,4.2734,1.214,7.954-0.73702,11.262-3.6085,2.419-2.0994,5.2514-4.3174,8.9255-3.637,3.3775,0.6258,5.6086,3.873,4.9828,7.2505-0.48099,2.5959-2.5092,4.5138-4.9563,4.9788,5.3671,0.89786,10.697,0.001,14.774-3.8635,2.6214-2.4856,3.8124-6.266,8.0527-6.266,3.4351,0,6.2209,2.7863,6.2209,6.2209,0,2.6294-1.6329,4.8786-3.9392,5.7885,5.6191-0.0922,9.7176-1.4996,13.051-6.4078,2.2452-3.3058,2.9802-6.8602,7.5216-7.7014,3.377-0.62579,6.6242,1.6058,7.2495,4.9833,0.484,2.6089-0.73853,5.1391-2.8765,6.4443,11.774-2.3664,23.296-6.286,34.24-11.757l-0.004-0.009c4.2112-2.1054,5.5094-6.2129,5.8291-10.736,0.22597-3.1951,0.66037-6.766,3.7397-8.8829,2.8309-1.9455,6.7044-1.2275,8.6504,1.6033,1.5006,2.184,1.4164,4.9878,0,7.0486,15.242-10.488,17.415-38.785,4.3335-51.564-15.57-15.213-41.609-11.665-69.191-5.3566-25.221,5.7679-50.465,14.426-76.544,8.5216-23.768-5.3811-36.178-20.827-39.274-37.43-5.0378-27.016,14.581-57.1,50.045-51.892,6.8096,1.0001,13.909,3.5639,20.533,6.4824-0.79164,4.0759-1.5868,8.1509-2.7186,12.137-0.71548,2.5187-1.4801,1.8233-3.7593,0.70696-2.2607-1.1078-4.348-2.7101-6.7986-4.7418-3.1004-2.5703-7.0496-5.6858-9.195,1.4756-1.7116,5.7128-3.4932,11.531-7.2265,17.137-1.3974,2.0984-3.1109,2.7873-4.6657,2.6129-1.8794-0.75155-3.8745-2.2542-5.7544-4.0469-0.0862,1.6199,0.71348,3.5478,1.4746,4.6286-2.158,0.0772-4.1045-0.25102-5.9548-1.0993,0.85127,1.8098,2.0878,3.2913,4.1721,4.7924-3.1886,0.69745-6.3777,0.54613-9.5668,0.01,3.0764,2.2968,6.4378,3.7518,10.747,4.3991-2.4506,1.0627-4.6862,1.8543-7.1368,2.6069,3.4717,1.1248,7.7355,1.4305,12.45-0.52559,0.46295,1.5111-0.0757,3.4526-0.55566,4.9638,2.7046-1.0702,5.6236-3.5163,6.7214-7.718,0.40534-1.5497,0.11023-3.3715,1.3022-4.8054,3.2312-3.888,6.8306-7.5236,9.3038-12.483,0.94696-1.8984,1.6925-3.0453,4.088-0.89134,2.7432,2.4661,5.9684,4.1055,8.9205,5.7118,2.3784,1.2937,4.7654,1.4585,7.0701-1.2621,4.7047-5.5525,8.5537-10.992,12.171-16.379,19.462,9.3478,43.73,18.598,69.53,3.2983,6.7665-4.0123,12.985-8.4224,17.864-13.792,1.69,4.3505,3.7949,8.3964,5.8261,12.402,2.0973,4.1366,4.7829,4.3801,7.6759,3.0448,5.7785-2.6665,11.611-6.988,16.44-7.5481,2.2086,0.42187,4.4166,0.52508,6.6257-0.0737,2.5358-0.78863,4.5198-1.947,6.5365-3.0834-1.5888-0.1944-3.1776-0.49503-4.7659-1.0301,2.1419-1.1935,4.0349-2.7542,5.3285-4.4582-1.8564,0.50154-3.9672,0.90738-5.8231,0.89786,0.97301-1.3969,2.8058-2.8654,4.0348-5.1146-1.95,0.59322-4.2182,1.6574-5.8496,2.5047,0.0802-2.0502,0.76458-3.9732,1.4811-5.9603-1.9856,1.4214-4.2032,3.3349-5.8276,5.6732-1.0061-1.5607-1.227-3.5684-1.1709-5.9588-1.9661,2.2316-2.8113,5.8857-2.8374,8.4816-0.0155,1.5522,0.15032,3.4557-1.0842,3.854-3.6781,1.1865-7.6037,1.443-11.516,2.4997-1.2671,0.3422-2.1525-0.65937-2.4015-2.2747-1.1018-7.1358-3.0824-11.499-5.317-15.115,1.7591-4.099,2.8494-8.676,3.0939-13.858,0.0742-1.5708,0.78312-1.937,1.9105-2.0843,8.2856-1.0832,8.6815-11.492,9.901-19.975,0.45494-3.1661-2.3384-6.8346-6.7745-4.3425-7.4128,4.1651-18.099,5.9729-17.022,14.243,0.12025,0.92541-0.38179,2.0663-1.7371,2.0843-4.3595,0.0576-8.2856,3.3745-12.408,7.4169-5.0109-0.36175-9.9125-0.50354-15.269,1.5808-1.8122,0.70496-3.4697-0.35974-2.7577-2.4892,1.3403-4.0053,0.9199-7.7275,1.4861-11.69,0.29761-2.0808-0.0451-1.9485,1.9686-1.9636,2.4145-0.019,5.6447-0.42288,8.0151-2.7828-1.4595-0.0536-3.1656-0.0486-4.6246-0.5792,1.6474-1.0978,3.1395-1.9921,4.5509-3.5639-1.5407-0.0311-3.6841,0.10923-5.2238-0.10121,0.59523-1.1043,2.7181-2.9892,3.613-4.2713-1.6299,0.2911-4.3625,0.7746-5.8135,1.7481,0.35624-1.4981,1.3027-3.1671,1.8373-4.6652-1.911,1.194-3.5163,2.5773-5.4272,4.4828-0.45544-1.2977-0.64383-2.5954-0.56567-4.1596-1.3338,1.5642-2.3118,3.4932-3.378,6.282-0.44091,1.8498,0.20292,3.6922,0.0125,5.3716-0.73502,6.4844-3.9141,12.232-5.5946,18.27-0.9174,3.2968,0.48851,6.3782,4.2217,7.4634,2.643,0.76809,5.4984-0.32717,7.4419,1.3107,0.68742,0.5797,0.84825,1.3142,0.81017,2.1299-1.4866,0.75957-3.0423,1.3628-4.6817,1.7481-18.453,4.3355-33.358,2.1384-45.72-1.3328,1.8133-7.8117,3.1144-15.689,1.8062-23.39-0.66037-3.8876-4.0023-3.623-6.5866-3.0999-5.0369,0.98454-10.139,1.9756-15.11,3.6806-3.3685,1.1554-4.5414,0.29061-5.4423-2.3418-1.5993-4.6757-4.9698-7.0807-6.8858-10.162-0.70997-1.1414-0.74254-2.4285-1.1083-3.4512-1.4079-3.9341-4.2017-6.0981-6.6252-6.997,0.90537,1.7436,1.2255,3.8109,1.233,5.6933-2.9341-2.5728-7.1152-3.4907-10.129-2.9431,1.6143,0.83924,3.0628,1.7982,4.1606,3.1545-1.8077-0.0882-4.7047,0.55114-6.513,1.5302,2.2597,0.1463,5.3972,1.1464,6.9554,2.0407-2.6264,0.52309-5.0319,2.0848-6.1066,3.6696,1.7622-0.47298,4.2172-0.66638,6.0515-0.26655-1.5402,0.87581-2.8785,2.6104-3.2933,3.857,2.7121-1.4094,4.833-1.0722,7.5732-1.8248,1.9836-0.54413,4.602,0.13477,5.3426,2.5162,1.0697,3.4386,2.5613,6.521,3.7448,9.5934,1.1238,2.9175,2.5588,4.5935,4.6491,4.8606,5.6512,0.7235,11.43-0.7736,17.048-2.7296-2.427,3.6796-4.1265,8.0196-5.4267,11.93-13.373-4.1581-27.444-6.771-41.546-3.88-33.388,6.8442-54.639,43.603-47.596,74.488,4.0441,17.735,20.475,38.27,49.088,44.361,27.66,5.8887,53.291-4.9412,79.793-11.142,26.368-6.1693,52.735-9.3889,62.645,4.9533,9.3393,13.517,0.93744,24.674-10.033,32.337-19.547,13.656-43.328,21.667-68.977,21.667-66.605,0-120.62-54.015-120.62-120.62,0-66.606,54.015-120.62,120.62-120.62z"/>
  <path id="path4999" fill="#ffdc00" d="m545.3,311.64c4.1641-0.76158,8.472,1.6058,10.032,5.4954,5.3821-6.7936,7.4053-16.109,6.6954-24.639-0.54312-6.5265-2.8304-13.299-7.5992-17.958-7.2019-7.0366-16.951-9.7372-28.16-9.9501-17.075-0.32417-34.215,4.2072-50.748,8.2972-14.236,3.5218-28.521,7.0561-43.09,7.5451-13.827,0.46446-28.447-1.9084-40.536-9.0112-13.422-7.8853-20.914-19.953-23.285-32.667-2.4264-13.012,0.52579-26.919,8.3352-37.666,6.6017-9.0878,16.402-15.272,27.485-17.338,14.494-2.7021,27.707,1.6499,40.758,7.4008-0.94897,4.8861-1.8433,9.7933-3.2046,14.586-1.0477,3.6906-2.4676,4.3926-5.2108,3.614h-0.011c-0.30964-0.0882-0.60926-0.20543-0.92191-0.34572-3.3209-1.4946-6.1658-3.5729-8.9515-5.8827-2.4876-2.0623-3.5659-3.5804-4.6682,0.0997-0.8713,2.9075-1.7616,5.8451-2.9331,8.8308-1.1925,3.0388-2.6575,6.0711-4.6486,9.0613v0.011l-0.007,0.0105h-0.011c-0.48951,0.73351-1.0617,1.4109-1.7261,1.9936-0.5296,0.50705-1.7977,2.5503-3.147,2.2682-0.61026-0.24401-1.2581-0.73252-1.8689-1.3137-0.0276,0.52559,0.23198,1.1514,0.47899,1.5026-0.70095,0.024-1.3328-0.0812-1.934-0.35674,0.27657,0.58772,0.6779,1.0687,1.3553,1.5557-1.0356,0.22697-2.0713,0.17787-3.1069,0.004,0.99907,0.74604,2.0908,1.2185,3.4902,1.429-0.79665,0.34471-1.5222,0.60174-2.3183,0.84575,1.1278,0.36576,2.5127,0.46546,4.0439-0.17035,0.14981,0.49151-0.0245,1.1218-0.18087,1.6123,0.87882-0.34722,1.8268-1.1414,2.183-2.5062,0.1488-0.55816,0.0747-1.192,0.0747-1.7636,0.22547-0.87682,0.61327-1.7682,1.3683-2.6766,0.79615-0.95798,1.426-1.6885,2.0578-2.4215,2.5127-2.915,5.0625-5.8732,6.8802-9.5182,0.73402-1.472,1.442-2.6745,2.9431-3.3073,1.663-0.70146,3.4106-0.38079,5.5831,1.5728l0.002,0.002c2.2346,2.0086,4.9523,3.4772,7.5141,4.8621,1.7657,0.95348,2.9085,1.6414,4.4141-0.13628,2.3083-2.7246,4.4066-5.4207,6.3712-8.0963,2.0062-2.7327,3.8445-5.3967,5.6111-8.0281l1.3673-2.0357c10.771,5.1732,21.766,10.094,33.739,11.696,11.151,1.4916,23.058,0.0516,35.334-7.2275,7.8643-4.6632,14.171-9.916,20.287-16.646l1.6604,4.2738c1.6224,4.1766,3.6891,8.1579,5.7148,12.147,0.97903,1.931,1.911,2.6916,3.9592,1.7466l0.001,0.004,0.008-0.008c1.8879-0.87131,3.7688-1.9175,5.6161-2.9446,1.4891-0.82822,2.9586-1.6459,4.4091-2.3694-2.187,0.40534-4.3931,0.73603-6.543,1.3167-0.17787,0.0481-0.35072,0.0847-0.51657,0.11073v0.002c-2.6059,0.40234-4.6025-1.474-5.2449-3.855-0.0606-0.22396-0.11724-0.50504-0.16885-0.84024h-0.011c-0.52408-3.3965-1.2401-6.0851-2.0783-8.3227-0.93393-2.4937-2.2226-4.7408-3.6145-6.9925,1.9821-4.6196,3.2096-9.1715,3.4476-14.223,0.12627-2.6831,1.7401-4.4141,4.3736-4.7584,5.2514-0.68642,6.2043-7.997,7.0907-14.796,0.11774-0.90237,1.0878-4.4427-0.63532-4.6897-0.37828-0.0546-0.89836,0.0696-1.5753,0.44993l-0.006,0.003c-1.908,1.0717-4.0143,1.9901-6.0936,2.897-5.1211,2.2336-10.039,4.3796-9.5027,8.5026v0.011c0.0236,0.18038,0.0371,0.36877,0.0391,0.56267,0.0311,2.3454-1.6003,4.353-3.9577,4.6647v0.001c-0.18238,0.024-0.37979,0.0381-0.59223,0.0406-4.4257,0.0576-8.4936,4.6832-11.375,7.5086-2.7858-0.20142-5.578-0.41787-8.3718-0.21845-2.2697,0.16183-4.567,0.59423-6.9434,1.5191-1.2816,0.49853-2.5924,0.52559-3.7077,0.15232-2.6189-0.87532-3.605-3.643-2.7557-6.1813,0.73602-2.2006,0.86128-4.4693,0.98654-6.7575,0.0847-1.5372,0.19841-3.0523,0.39732-4.58-0.70195,3.124-1.8047,6.0485-2.9005,8.953-0.76859,2.0377-2.6745,5.4909-2.3589,7.988,0.30312,2.3879,3.0258,2.6199,4.8916,2.6289,2.0913,0.01,4.0684,0.0195,6.0084,1.6549,1.9781,1.667,1.8513,3.7418,1.7426,6.0636-2.2046,1.1263-4.361,2.17-6.7901,2.7407-9.5067,2.2336-18.114,2.7838-25.943,2.3278-8.1629-0.47499-15.959-2.2261-23.794-4.4257,0.90738-3.9096,1.8198-7.8192,2.3654-11.795,0.59724-4.346,0.75557-8.7847,0.018-13.126-0.37928-2.2346-4.7418-0.49102-6.1352-0.21144-3.9883,0.79965-7.9845,1.6875-11.845,3.0117-2.4441,0.83824-4.2528,0.8658-5.799,0.11624-1.6379-0.79414-2.5533-2.2006-3.2492-4.2343-0.85677-2.5057-2.4456-4.363-3.9166-6.0826-2.4972-2.92-1.9365-2.3854-3.1109-5.6943-0.3883-1.0852-1.1589-1.6825-1.8278-1.93,0.25002,0.48049,0.3382,1.0507,0.3402,1.5708-0.80967-0.71047-1.9631-0.96399-2.7948-0.81268,0.44592,0.23148,0.84525,0.49653,1.1479,0.8703-0.49853-0.0241-1.2977,0.15232-1.7967,0.42238,0.6238,0.0401,1.4891,0.31615,1.919,0.56316-0.7245,0.1443-1.3879,0.57519-1.6845,1.0126,0.48601-0.13077,1.1634-0.18388,1.6695-0.0737-0.42488,0.2415-0.79415,0.71999-0.90838,1.0642,0.74804-0.38931,1.3328-0.29611,2.0893-0.50354,1.5662-0.43039,4.6942,3.9266,4.9217,4.6571,0.64534,2.0768,1.5051,4.1255,2.3418,6.1197,0.40734,0.97051,0.80867,1.928,1.3363,3.2963,0.37076,0.964,1.1163,2.915,2.3634,3.0744,2.5057,0.32066,5.079,0.14229,7.6704-0.3377,2.681-0.49653,5.3972-1.3212,8.0902-2.2587l7.8974-2.7492c-2.2241,3.3715-4.6967,6.6934-6.511,10.311-1.6985,3.385-2.883,6.9875-4.0754,10.573-15.612-4.855-32.159-8.3328-48.157-3.2337-13.44,4.2849-24.466,13.78-31.738,25.526-8.0378,12.982-11.477,28.672-8.5211,43.093,0.0669,0.32718,0.14399,0.68141,0.23022,1.0597l0.002-0.00051,0.00085,0.004v0.011c3.3991,14.901,14.534,27.607,27.624,34.992,12.929,7.2936,27.808,9.7116,42.495,8.5512,14.778-1.1674,29.024-5.5194,43.256-9.3724,16.253-4.4001,33.37-8.707,50.281-8.3778,11.261,0.21945,20.638,2.9691,26.344,9.9381,3.8535,4.7062,6.2279,10.89,5.4758,17.008-0.92792,7.5466-6.2309,13.932-12.81,19.007zm-46.43-220.18c14.559,3.1816,28.157,8.9305,40.294,16.75-2.2827-3.8495-1.3688-8.9721,2.2206-11.769-1.0326-0.61628-2.0953-1.2315-3.1886-1.8443-7.5516-4.2348-15.433-7.6849-23.523-10.352-3.2943-0.94195-6.2565,0.93995-8.6494,3.0162-2.1054,1.8273-4.3876,3.5619-7.1543,4.1997zm-10.964-12.003c-3.3514,0.8197-5.3005,2.5067-7.2445,5.0244-1.2766,1.6544-2.5182,3.2623-4.4196,4.1942,5.055,0.15482,10.034,0.61076,14.918,1.3563-3.3479-2.3734-4.6626-6.8106-3.2537-10.575zm-19.28,9.2161c-3.6982-1.684-5.8641-5.7669-5.1432-9.8484-2.5207,1.3052-4.0168,3.5759-5.3571,5.9638-1.1248,2.0041-2.174,3.872-4.0704,5.1802,4.7729-0.71047,9.6354-1.1479,14.571-1.2957zm106.28,210.65c1.8538-2.174,3.6506-4.4267,5.3982-6.7645,8.8223-11.802,15.456-24.725,19.902-38.21,0.42639-1.4901,0.30213-2.886-0.17987-4.2027v-0.011c-0.55515-1.5171-1.5878-3.0007-2.8354-4.4382-1.8293-2.1084-3.5654-4.3936-4.2022-7.1638-1.1268,5.1517-2.5868,10.23-4.3675,15.193-3.2718,9.1189-7.5767,17.73-12.77,25.69-0.0586,6.6488-0.3372,13.298-0.94446,19.907zm-169.08-191.26c12.544-8.0452,26.225-13.595,40.336-16.649-4.336-1.1083-7.3121-5.3761-6.7515-9.892-1.1659,0.29411-2.3524,0.61127-3.5589,0.95047-8.3342,2.3454-16.347,5.4788-23.953,9.3133-2.9957,1.6629-3.7598,5.088-3.9832,8.2486-0.19691,2.7808-0.58421,5.6211-2.0893,8.0286zm-16.241-0.73502c-1.7902,2.9496-1.9756,5.5204-1.5698,8.6755,0.26705,2.0728,0.52608,4.087-0.15933,6.0911,3.6836-3.4652,7.5271-6.6633,11.507-9.5898-4.0454,0.68892-8.1128-1.5186-9.7782-5.1767zm-7.1167,20.15c-3.8054,1.4244-8.2245,0.0686-10.601-3.3274-0.85912,2.7056-0.31174,5.3691,0.42904,8.0051,0.62194,2.2131,1.2009,4.2754,0.78508,6.5416,2.8724-3.8775,6.0014-7.6253,9.3864-11.219zm-30.689,58.11c3.1812-14.559,8.9303-28.157,16.749-40.294-3.8496,2.2822-8.9721,1.3688-11.769-2.2211-0.61622,1.0326-1.2312,2.0958-1.8442,3.1891-4.2348,7.5516-7.6851,15.433-10.352,23.523-0.94205,3.2943,0.93965,6.2564,3.0161,8.6489,1.8271,2.1054,3.5617,4.3881,4.2,7.1548zm-12.004,10.964c0.8198,3.3519,2.5065,5.301,5.0246,7.2445,1.6543,1.2771,3.262,2.5182,4.1942,4.4196,0.15482-5.055,0.61086-10.034,1.3559-14.917-2.3734,3.3474-6.8103,4.6622-10.575,3.2532zm9.2162,19.281c-1.6838,3.6982-5.7672,5.8641-9.8487,5.1431,1.3054,2.5202,3.576,4.0168,5.9638,5.3571,2.0044,1.1248,3.8724,2.1735,5.1806,4.0699-0.71057-4.7729-1.148-9.635-1.2957-14.57zm19.389,62.79c-8.0452-12.544-13.595-26.225-16.649-40.336-1.1082,4.336-5.3763,7.3121-9.8924,6.7515,0.29456,1.1659,0.61127,2.3524,0.95087,3.5589,2.3454,8.3342,5.4788,16.347,9.3129,23.954,1.6633,2.9952,5.0884,3.7593,8.2486,3.9832,2.7807,0.19641,5.6212,0.58421,8.0287,2.0888zm-0.73497,16.241c2.9496,1.7907,5.5202,1.9761,8.6757,1.5698,2.0723-0.26705,4.087-0.52609,6.0906,0.15933-3.4647-3.6836-6.6628-7.5271-9.5894-11.507,0.68903,4.0449-1.5188,8.1123-5.1769,9.7777zm20.15,7.1167c1.424,3.8059,0.0686,8.2245-3.3274,10.601,2.7051,0.85878,5.3686,0.31165,8.0051-0.42939,2.2126-0.62179,4.2748-1.201,6.541-0.78462-3.8775-2.873-7.6248-6.0014-11.219-9.3869zm58.109,30.689c-14.559-3.1811-28.157-8.93-40.294-16.749,2.2827,3.8495,1.3688,8.9721-2.2211,11.769,1.0331,0.61628,2.0958,1.2316,3.1891,1.8443,7.5516,4.2348,15.433,7.6849,23.523,10.352,3.2943,0.94195,6.2564-0.93994,8.6494-3.0162,2.1054-1.8273,4.3876-3.5619,7.1543-4.2002zm10.964,12.004c3.3514-0.81969,5.3005-2.5067,7.2445-5.0244,1.2766-1.6544,2.5182-3.2622,4.4196-4.1942-5.055-0.15482-10.034-0.61127-14.918-1.3563,3.3479,2.3734,4.6627,6.8106,3.2537,10.575zm19.28-9.2161c3.6982,1.6835,5.8641,5.7669,5.1432,9.8484,2.5207-1.3052,4.0168-3.5759,5.3571-5.9638,1.1248-2.0042,2.1735-3.872,4.0704-5.1802-4.7729,0.71047-9.6354,1.1479-14.571,1.2957zm62.79-19.389c-12.544,8.0452-26.225,13.595-40.336,16.649,4.336,1.1078,7.3121,5.3761,6.7515,9.892,1.1659-0.29411,2.3524-0.61127,3.5589-0.95047,8.3343-2.3458,16.347-5.4788,23.953-9.3133,2.9957-1.6629,3.7598-5.088,3.9832-8.2486,0.19691-2.7808,0.58421-5.6211,2.0893-8.0286zm66.05-88.489c-0.8202-3.3519-2.5067-5.301-5.0249-7.2445-1.6544-1.2772-3.2618-2.5182-4.1942-4.4196-0.15482,5.0545-0.61076,10.034-1.3558,14.917,2.3734-3.3474,6.8101-4.6622,10.575-3.2532zm-9.2166-19.281c1.684-3.6982,5.7674-5.8642,9.8489-5.1432-1.3057-2.5202-3.5759-4.0168-5.9638-5.3571-2.0046-1.1248-3.8725-2.1735-5.1807-4.0704,0.71048,4.7734,1.1479,9.6354,1.2957,14.571zm-19.389-62.79c8.0457,12.544,13.596,26.225,16.649,40.336,1.1083-4.336,5.3761-7.3121,9.8925-6.7515-0.29461-1.1659-0.61126-2.3524-0.95096-3.5594-2.3454-8.3338-5.4788-16.347-9.3128-23.953-1.6634-2.9957-5.0885-3.7593-8.2486-3.9832-2.7808-0.19641-5.6216-0.58421-8.0291-2.0888zm0.73503-16.241c-2.9496-1.7907-5.5204-1.9761-8.6755-1.5698-2.0723,0.26655-4.087,0.52559-6.0906-0.15933,3.4647,3.6836,6.6628,7.5271,9.5894,11.507-0.68893-4.0454,1.5186-8.1123,5.1767-9.7778zm-20.15-7.1167c-1.424-3.8059-0.0686-8.2245,3.3274-10.601-2.7051-0.85878-5.3686-0.31165-8.0051,0.42939-2.2126,0.62179-4.2748,1.201-6.541,0.78462,3.877,2.873,7.6248,6.0014,11.219,9.3869zm-44.952,22.646c0.7255-0.006,1.6965-0.12676,2.409-0.83623-0.43841-0.016-0.95147-0.0145-1.3899-0.17436,0.49502-0.32968,0.94345-0.59874,1.3678-1.0712-0.46296-0.009-1.1073,0.0331-1.5702-0.0301,0.17887-0.33219,0.81719-0.89886,1.0862-1.2842-0.49002,0.0877-1.3117,0.23298-1.7476,0.52559,0.10722-0.45043,0.39131-0.95247,0.55214-1.4024-0.57469,0.35874-1.0572,0.7746-1.6314,1.3473-0.13679-0.38981-0.1934-0.78012-0.16986-1.2501-0.40133,0.46997-0.69493,1.0497-1.0156,1.8884-0.13277,0.55565,0.0606,1.1098,0.004,1.6148-0.0346,0.30613,0.0591,0.85076-0.007,1.1469,0.61377-0.35424,1.4034-0.46898,2.1129-0.47449zm62.442,49.487c0.53661,0.0947,2.0092,0.44793,2.8734,0.21344,0.62128-0.1929,1.1068-0.47698,1.6008-0.75506-0.3893-0.0476-0.77811-0.12125-1.1669-0.25252,0.52458-0.29211,0.98804-0.6739,1.3047-1.0913-0.45444,0.12275-0.97151,0.22196-1.426,0.21995,0.2385-0.34221,0.68693-0.70195,0.98805-1.2526-0.47749,0.1453-1.0331,0.40584-1.4325,0.61327,0.0195-0.50204,0.18739-0.97251,0.36276-1.4595-0.48601,0.34822-1.0291,0.81669-1.427,1.3894-0.24651-0.38229-0.30062-0.87381-0.28659-1.459-0.4815,0.54613-0.68843,1.441-0.69494,2.0768-0.0105,1.0712-0.27507,1.1499-0.69594,1.7571z"/>
  <path id="path5001" fill="#fff500" d="m430.13,282.04c-13.384,0.1438-27.357-2.425-39.026-9.2807-13.849-8.1364-21.581-20.597-24.029-33.729-2.5324-13.581,0.61427-28.084,8.874-39.224,6.8377-9.2231,16.874-15.481,28.197-17.592,7.0416-1.3127,14.376-1.0777,21.372,0.40284,7.4735,1.5818,14.475,4.5369,21.436,7.6042-1.0366,5.334-1.9866,10.699-3.4722,15.932-1.3829,4.8686-3.3319,5.773-7.1333,4.6937h-0.0175c-0.98104-0.27857-1.8568-0.79063-2.7652-1.2356-0.64584-0.31616-1.2681-0.65736-1.8774-1.0231,0.0496,0.0436,0.0992,0.0877,0.14881,0.13227l0.002,0.001c2.0988,1.8869,4.7293,3.3088,7.2089,4.6486,0.35624,0.1924,0.1468,0.0792,0,0.0005l-0.002,0.002c1.0452,0.5752,1.6033,1.2701,2.4872,0.22748,2.2847-2.6971,4.361-5.3646,6.304-8.0111,2.6705-3.637,5.1792-7.3838,7.6939-11.129,11.026,5.2965,22.211,10.497,34.482,12.139,10.835,1.4495,22.406,0.0496,34.339-7.026,8.5898-5.0935,14.967-10.514,21.62-18.215l2.5738,6.6247c1.4505,3.7352,3.3038,7.3813,5.1306,10.976,0.56617,1.1153,0.85076,2.7958,2.4375,2.0638l0.002,0.003,0.008-0.008c0.63532-0.2931,1.2686-0.60625,1.8999-0.93142-1.0898-0.18789-2.0718-0.68993-2.9296-1.4565-1.0051-0.89736-1.7221-2.1164-2.1044-3.5328-0.80567-2.9902-1.0943-6.047-2.2091-9.0227-0.99506-2.6575-2.426-5.0119-3.9071-7.4078,2.0277-4.7253,3.3975-9.2326,3.6425-14.424,0.16184-3.4361,2.3509-5.788,5.7289-6.2294,4.0629-0.5311,4.9362-7.2265,5.7479-13.453,0.71047-5.4558-0.61828-2.1204-6.1437,0.2891-4.5745,1.9951-8.9671,3.9116-8.5813,6.8732v0.017c0.0306,0.23699,0.0481,0.4845,0.0511,0.73953,0.0416,3.131-2.175,5.811-5.3125,6.2259v0.002c-0.23699,0.0311-0.49552,0.0491-0.7756,0.0526-1.2426,0.016-2.5573,0.58522-3.9366,1.4916-2.5513,1.6765-4.6982,3.9382-6.8697,6.0671-5.6276-0.69193-10.464-0.56918-15.86,1.3282,3.9412,2.0863,3.9582,5.3596,3.7758,9.2617-2.5904,1.3237-5.0936,2.6159-7.9505,3.2868-9.6605,2.2697-18.414,2.8284-26.382,2.3644-8.7952-0.51206-17.135-2.5167-25.564-4.8836,0.80266-3.4587,1.6454-6.9118,2.2567-10.412,0.69594-3.9827,1.1088-8.0432,0.82922-12.088-2.2432,3.401-4.563,6.6763-6.2048,10.426-1.3909,3.1751-2.4235,6.4854-3.5158,9.7707-7.8197-2.4315-15.626-4.7348-23.798-5.6888-8.8077-1.0281-17.833-0.49101-26.236,2.4491-12.456,4.3585-22.691,13.359-29.532,24.408-8.2139,13.266-11.44,28.749-8.0177,43.062,3.4483,14.426,13.718,26.44,26.47,33.736,11.967,6.8462,25.758,9.4215,39.434,8.701zm-0.93344-75.12c-1.1238-0.8217-2.1935-1.678-3.3063-2.6009-1.7191-1.5206-1.8158-1.8669-2.178-0.65686-0.51106,1.7055-1.0286,3.4221-1.6073,5.1587,1.6519-2.1815,4.5519-3.0433,7.0917-1.9009zm79.277-40.265c-1.1639-0.91189-1.941-2.2587-2.1956-3.7102-0.20292,0.6298-0.64383,1.716-0.55064,2.4476,0.0581,0.46045,0.49403,0.87932,1.3152,1.1178,0.35924,0.10422,0.87932,0.13478,1.431,0.1448zm27.354,153.16c-10.348,6.1041-21.386,10.59-32.748,13.457,2.2301,1.8148,3.6165,4.4828,3.864,7.3126,0.51006-0.13779,1.0261-0.27958,1.5492-0.42689,8.232-2.3163,16.15-5.4132,23.671-9.2036,2.4385-1.3914,2.9541-4.4076,3.1355-6.9684,0.0947-1.3438,0.22396-2.7537,0.52859-4.1711zm-32.11-228.8c11.634,3.0007,22.611,7.6338,32.672,13.64-0.29361-2.8599,0.61277-5.7269,2.4386-7.9029-0.45745-0.26304-0.92291-0.52809-1.3969-0.79364-7.4589-4.1827-15.248-7.5922-23.246-10.229-2.7081-0.74103-5.2053,1.0271-7.1443,2.7101-1.0176,0.88283-2.1054,1.7887-3.3234,2.5758zm-23.331-3.7042c2.2847,0.1443,4.5529,0.35073,6.8026,0.61628-1.0291-1.7832-1.5482-3.8675-1.3969-6.0215-1.7371,0.91489-2.7236,2.0041-3.9001,3.5283-0.49502,0.64183-0.98554,1.2771-1.5056,1.8769zm-16.075,0.005c-1.2596-1.4771-2.1214-3.3099-2.4155-5.33-0.99756,1.0677-1.7015,2.2993-2.4125,3.5659-0.44743,0.79715-0.88383,1.5753-1.3593,2.3123,2.0477-0.23248,4.111-0.41586,6.1873-0.54814zm129.11,156.07c-0.45745,1.7702-0.95197,3.5253-1.4841,5.2644-0.5767,1.8849-1.198,3.7533-1.8619,5.6041-3.2638,9.0968-7.5381,17.688-12.683,25.637-0.0481,4.6371-0.19941,9.2046-0.4865,13.647-0.0206,0.31866-0.0421,0.63732-0.0641,0.95548,0.73853-0.93644,1.4726-1.8914,2.2011-2.8659,8.719-11.664,15.274-24.435,19.669-37.761,0.30714-1.1208,0.20643-2.178-0.16033-3.1806v-0.0175c-0.48049-1.3127-1.4124-2.641-2.5488-3.9497-0.88533-1.0201-1.7932-2.1109-2.5813-3.3329zm-44.011,66.845c2.3589,0.56718,4.5304,1.936,6.064,4.0223,2.8449-4.3806,4.5279-9.8369,4.9863-15.43,0.32417-3.9632,0.0356-7.955-0.88784-11.643,0.10271,0.69594,0.17035,1.3874,0.20392,2.0733,0.40534,8.2781-4.085,15.306-10.366,20.977zm-40.94-143.58c-1.1634-0.91189-1.941-2.2592-2.1956-3.7102-0.20242,0.6298-0.64383,1.716-0.55064,2.4476,0.1448,1.1434,1.8784,1.2471,2.7462,1.2626zm-79.277,40.265c-1.1238-0.8217-2.1935-1.678-3.3063-2.6009-1.7191-1.5206-1.8158-1.8669-2.178-0.65686-0.51106,1.7055-1.0286,3.4221-1.6073,5.1587,0.61127-0.80717,1.3764-1.474,2.5017-1.9485,1.4781-0.62329,2.9696-0.68091,4.59,0.0476zm-20.25-102.6c10.348-6.1041,21.386-10.59,32.748-13.457-2.2301-1.8148-3.6165-4.4828-3.864-7.3126-0.51006,0.13779-1.0261,0.27958-1.5492,0.42688-8.232,2.3163-16.15,5.4132-23.671,9.2036-2.4386,1.3914-2.9541,4.4076-3.1355,6.9684-0.0947,1.3438-0.22396,2.7537-0.52859,4.1711zm-19.117,13.879c1.718-1.5136,3.4677-2.9716,5.2464-4.3746-1.9886-0.5331-3.8294-1.6399-5.2459-3.2698-0.58121,1.8754-0.50855,3.3429-0.26255,5.2529,0.10322,0.80366,0.20593,1.5998,0.26205,2.3914zm-11.363,11.37c-1.9355-0.15382-3.8404-0.84024-5.4771-2.0608,0.0499,1.4605,0.42263,2.8294,0.81544,4.2273,0.24751,0.88032,0.48901,1.7391,0.6744,2.5964,1.2832-1.6128,2.6124-3.2011,3.9872-4.7629zm-27.127,51.171c3.001-11.634,7.6342-22.611,13.64-32.672-2.8601,0.29361-5.7271-0.61277-7.9029-2.4386-0.26335,0.45795-0.52805,0.92291-0.7938,1.3969-4.1828,7.4589-7.5922,15.248-10.229,23.246-0.74083,2.7076,1.0275,5.2053,2.7101,7.1438,0.88327,1.0176,1.7888,2.1059,2.5758,3.3239zm-3.7042,23.331c0.1446-2.2852,0.35098-4.5529,0.61653-6.8031-1.7832,1.0296-3.8675,1.5482-6.0216,1.3974,0.91519,1.7371,2.0043,2.7231,3.5286,3.9001,0.64138,0.49503,1.2768,0.98554,1.8764,1.5056zm0.005,16.074c-1.4771,1.2601-3.3096,2.1214-5.3301,2.4155,1.068,0.99757,2.2995,1.702,3.566,2.413,0.7972,0.44692,1.5754,0.88333,2.3123,1.3588-0.23254-2.0477-0.41587-4.1105-0.54824-6.1873zm17.002,55.365c-6.1044-10.348-10.59-21.386-13.457-32.747-1.8147,2.2301-4.4829,3.6165-7.3125,3.864,0.13748,0.50955,0.27938,1.0261,0.42648,1.5487,2.3166,8.232,5.4134,16.15,9.2039,23.671,1.3911,2.4386,4.4074,2.9536,6.9681,3.135,1.3441,0.0952,2.7538,0.22397,4.1715,0.5286zm13.878,19.117c-1.5131-1.7176-2.9712-3.4672-4.3746-5.2464-0.53261,1.9891-1.6398,3.8294-3.2697,5.2459,1.8754,0.5812,3.3428,0.50855,5.2528,0.26304,0.80367-0.10371,1.5998-0.20593,2.3914-0.26254zm11.37,11.363c-0.15331,1.935-0.84023,3.84-2.0608,5.4768,1.4605-0.0496,2.8294-0.42287,4.2278-0.81569,0.87982-0.24751,1.7386-0.48901,2.5959-0.67389-1.6123-1.2837-3.2006-2.6129-4.7629-3.9873zm51.171,27.127c-11.634-3.0007-22.611-7.6338-32.672-13.64,0.2936,2.8604-0.61277,5.7274-2.4386,7.9034,0.45744,0.26304,0.92291,0.52759,1.3969,0.79364,7.4589,4.1827,15.248,7.5922,23.246,10.23,2.7081,0.74053,5.2053-1.0281,7.1443-2.7106,1.0176-0.88333,2.1054-1.7887,3.3234-2.5758zm23.331,3.7042c-2.2847-0.14429-4.5529-0.35072-6.8031-0.61627,1.0296,1.7832,1.5482,3.8675,1.3974,6.0215,1.7371-0.9149,2.7236-2.0042,3.9001-3.5283,0.49552-0.64183,0.98554-1.2771,1.5056-1.8769zm16.075-0.005c1.2596,1.4771,2.1209,3.3094,2.4155,5.33,0.99756-1.0682,1.7015-2.2998,2.4125-3.5659,0.44743-0.79715,0.88383-1.5753,1.3593-2.3123-2.0482,0.23248-4.111,0.41586-6.1873,0.54813zm112.97-93.422c-3.0012,11.634-7.6343,22.611-13.64,32.672,2.8599-0.29411,5.7269,0.61277,7.9029,2.4386,0.26355-0.45795,0.5281-0.92291,0.79364-1.3969,4.1832-7.459,7.5922-15.248,10.23-23.246,0.74054-2.7076-1.0276-5.2053-2.7101-7.1438-0.88333-1.0176-1.7887-2.1059-2.5758-3.3239zm3.7042-23.331c-0.1448,2.2852-0.35123,4.5529-0.61678,6.8031,1.7837-1.0296,3.8675-1.5482,6.022-1.3974-0.9154-1.7371-2.0046-2.7231-3.5288-3.9001-0.64132-0.49503-1.2771-0.98554-1.8764-1.5056zm-0.006-16.074c1.4771-1.2601,3.3098-2.1214,5.33-2.4155-1.0677-0.99757-2.2993-1.702-3.5659-2.413-0.79715-0.44742-1.5753-0.88333-2.3123-1.3588,0.23248,2.0477,0.41586,4.1105,0.54814,6.1873zm-17.002-55.365c6.1046,10.348,10.59,21.386,13.457,32.747,1.8148-2.2301,4.4833-3.6165,7.3126-3.864-0.13728-0.51005-0.27958-1.0261-0.42638-1.5487-2.3168-8.232-5.4132-16.15-9.2041-23.671-1.3909-2.4386-4.4071-2.9536-6.9679-3.135-1.3443-0.0952-2.7537-0.22397-4.1716-0.5286zm-13.878-19.117c1.5131,1.7176,2.9712,3.4672,4.3746,5.2464,0.5326-1.9891,1.6399-3.8299,3.2698-5.2464-1.8754-0.5812-3.3429-0.50805-5.2529-0.26254-0.80367,0.10371-1.5998,0.20593-2.3915,0.26254zm-11.37-11.363c0.15332-1.935,0.83974-3.84,2.0608-5.4768-1.461,0.0496-2.8294,0.42287-4.2278,0.81569-0.87982,0.24751-1.7386,0.48901-2.5959,0.67389,1.6123,1.2837,3.2006,2.6129,4.7629,3.9873z"/>
 </g>
 <path id="path3055" fill="url(#radialGradient3808)" d="m236.29,151.93c1.3363-1.9921,3.1686-3.1074,4.09-2.4892,0.9214,0.61778,0.58471,2.7362-0.75156,4.7283s-3.1686,3.1074-4.09,2.4896c-0.92141-0.61828-0.58471-2.7367,0.75156-4.7288z"/>
</svg>
