<?xml version="1.0" encoding="UTF-8"?><svg width="1026" height="1274" viewBox="579 63 769.5 955.5" xmlns="http://www.w3.org/2000/svg"><g xmlns="http://www.w3.org/2000/svg" data-name="P"><clipPath id="a"><path transform="matrix(1 0 0 -1 0 1080)" d="M0 0h1920v1080H0z"/></clipPath><g clip-path="url(#a)"><path d="M823.405 940.42c-51.307 0-102.242.004-153.176-.006-5.216 0-10.443.094-15.646-.193-3.566-.197-7.142-.786-10.64-1.54-8.622-1.856-17.101-4.21-24.925-8.446-5.38-2.913-10.191-6.505-14.361-11.068-3.706-4.054-7.1-8.26-9.842-13.026-2.733-4.751-4.73-9.77-6.499-14.951-1.367-4.005-2.34-8.095-3.509-12.14-.273-.946-.541-1.926-.578-2.9-.154-4.096-.868-8.112-1.449-12.157-.526-3.666-.821-7.398-.822-11.1-.036-260.138-.034-520.275-.017-780.412 0-1.703-.326-3.464.485-5.316.683-.121 1.386-.32 2.097-.356 1.239-.063 2.483-.029 3.726-.029 249.205 0 498.41 0 747.615.004 1.852 0 3.704.061 5.684.096.266.832.603 1.495.671 2.185.111 1.108.052 2.233.052 3.351.001 261.256.002 522.511-.005 783.766 0 2.857.077 5.728-.184 8.565-.271 2.948-.845 5.874-1.398 8.789-1.177 6.21-2.358 12.432-4.427 18.42-1.21 3.5-2.404 7.073-4.177 10.3-3.095 5.637-6.25 11.296-11.106 15.728-2.929 2.673-5.364 5.879-8.724 8.087-2.993 1.968-5.866 4.137-9.29 5.37-.93.335-1.807.82-2.699 1.256-3.128 1.529-6.355 2.666-9.76 3.54-5.649 1.448-11.346 2.607-17.06 3.72-.847.165-1.715.291-2.576.31-3.601.077-7.202.147-10.804.147-67.457.008-134.914.023-202.37-.039-3.755-.004-7.429.483-11.074 1.087-5.738.95-11.417 2.264-17.108 3.486-1.327.285-2.6.826-3.9 1.243-9.431 3.02-18.014 7.673-25.888 13.631-3.356 2.539-6.711 5.087-9.664 8.128-4.34 4.47-8.046 9.427-11.443 14.62a121.565 121.565 0 0 0-4.963 8.29c-2.077 3.806-4.132 7.635-5.946 11.569-1.607 3.483-2.86 7.128-4.302 10.688-.123.302-.497.718-.739.708-.427-.017-1.073-.21-1.224-.524-.804-1.672-1.5-3.396-2.199-5.117-.65-1.603-1.19-3.253-1.893-4.832-1.054-2.37-2.61-4.509-3.203-7.095-.108-.47-.414-.9-.66-1.332-3.432-6.026-6.749-12.1-11.198-17.507-2.756-3.349-5.321-6.862-8.431-9.892-2.388-2.327-4.63-4.844-7.54-6.59-.742-.444-1.477-.937-2.105-1.525-2.845-2.66-6.252-4.446-9.613-6.313-1.73-.962-3.428-1.985-5.14-2.98-.32-.186-.622-.426-.965-.551-3.84-1.4-7.6-3.138-11.55-4.083-5.527-1.322-10.968-3.087-16.67-3.673-2.576-.265-5.116-.875-7.687-1.219-1.347-.18-2.725-.164-4.089-.165-14.906-.01-29.813-.007-45.092-.007M606.865 73.423c-4.969.001-9.937-.012-14.905.013-1.085.005-2.264-.224-3.362 1.066-.025 1.433-.082 3.16-.082 4.886-.004 255.027.003 510.054-.03 765.08-.002 10.085.626 20.095 2.363 30.024 1.57 8.973 4.082 17.655 8.263 25.8 3.56 6.937 8.19 13.076 14.219 18.007 7.412 6.062 15.908 10.12 25.21 12.387 8.839 2.154 17.843 3.096 26.934 3.099 64.844.015 129.688.005 194.531.014 4.714 0 9.412.075 14.126.552 9.047.915 17.917 2.505 26.579 5.323 19.272 6.27 34.895 17.59 47.087 33.723 5.261 6.962 9.642 14.452 13.384 22.326.25.525.596 1.005.9 1.51.404-.253.69-.33.787-.51a112.356 112.356 0 0 0 2.068-3.959c4.979-10.08 11.067-19.403 18.827-27.586 5.577-5.88 11.676-11.131 18.553-15.457 9.668-6.08 20.148-10.104 31.253-12.662 9.606-2.212 19.334-3.242 29.16-3.247 63.229-.037 126.458-.014 189.687-.027 6.452-.002 12.89-.001 19.342-.663 10.24-1.052 20.017-3.442 29.233-8.127 10.666-5.423 18.537-13.563 24.134-24.047 5.285-9.9 7.952-20.614 9.475-31.599 1.228-8.848 1.673-17.78 1.672-26.738-.027-254.28-.022-508.562-.023-762.844 0-1.242.033-2.486-.026-3.726-.035-.712-.223-1.416-.313-1.953-.454-.253-.666-.475-.877-.475-242.475-.073-484.95-.131-728.17-.19zm0 0" fill="#293234"/></g><path d="M607.237 73.423c242.848.059 485.322.117 727.797.19.211 0 .423.222.877.475.09.537.278 1.241.313 1.953.059 1.24.026 2.484.026 3.726.001 254.282-.005 508.563.023 762.844.001 8.958-.444 17.89-1.672 26.738-1.523 10.985-4.19 21.699-9.475 31.599-5.597 10.484-13.468 18.624-24.134 24.047-9.216 4.685-18.993 7.075-29.233 8.126-6.452.663-12.89.662-19.342.664-63.229.013-126.458-.01-189.687.027-9.826.005-19.554 1.035-29.16 3.247-11.105 2.558-21.585 6.581-31.253 12.662-6.877 4.326-12.976 9.576-18.553 15.457-7.76 8.183-13.848 17.505-18.827 27.586a112.462 112.462 0 0 1-2.068 3.96c-.098.179-.383.256-.787.508-.304-.504-.65-.984-.9-1.51-3.743-7.873-8.123-15.363-13.385-22.325-12.191-16.133-27.814-27.452-47.086-33.723-8.663-2.818-17.532-4.408-26.58-5.323-4.713-.477-9.411-.551-14.125-.552-64.843-.01-129.687 0-194.53-.014-9.092-.002-18.096-.945-26.936-3.1-9.301-2.265-17.797-6.324-25.21-12.386-6.028-4.931-10.658-11.07-14.218-18.007-4.181-8.145-6.693-16.827-8.263-25.8-1.737-9.93-2.365-19.939-2.364-30.023.034-255.027.027-510.054.03-765.081 0-1.726.058-3.453.083-4.886 1.098-1.29 2.277-1.061 3.362-1.066 4.968-.025 9.936-.012 15.277-.013m471.814 110.748c-.958-.573-1.943-1.107-2.87-1.727-1.749-1.169-3.347-1.072-5.185.018-6.194 3.675-12.483 7.19-18.717 10.799-13.111 7.591-26.205 15.212-39.315 22.806a37382.727 37382.727 0 0 1-46.439 26.86c-4.215 2.433-3.436 2.364-7.37.14-7.028-3.972-13.994-8.052-20.983-12.09-11.827-6.836-23.644-13.687-35.479-20.51-15.6-8.995-31.232-17.934-46.807-26.971-4.49-2.606-4.029-2.598-8.694.092-7.316 4.217-14.618 8.459-21.928 12.689-10.426 6.033-20.85 12.067-31.28 18.095a57157.397 57157.397 0 0 1-31.293 18.073c-7.099 4.097-14.181 8.223-21.315 12.259-1.917 1.084-3.048 2.415-2.776 4.729.115.98.018 1.985.018 2.979 0 39.13 0 78.26-.003 117.391 0 1.242.082 2.501-.1 3.718-.099.655-.577 1.343-1.071 1.824-.518.503-1.26.777-1.905 1.15-9.89 5.72-19.787 11.428-29.67 17.16-11.386 6.605-22.747 13.254-34.143 19.842-13.654 7.894-27.317 15.773-41.022 23.579-1.977 1.126-2.73 2.52-2.727 4.771.046 41.366.049 82.733-.008 124.1-.003 2.291.81 3.671 2.775 4.728 3.499 1.882 6.914 3.918 10.355 5.907 10.106 5.842 20.206 11.695 30.312 17.537 10.429 6.028 20.865 12.042 31.294 18.07 10.537 6.09 21.067 12.19 31.603 18.282 5.074 2.935 4.294 2.233 4.297 7.528.024 39.38.013 78.758.013 118.137 0 1.118.09 2.244-.015 3.352-.19 2.016.729 3.155 2.46 4.121 7.265 4.055 14.469 8.22 21.677 12.376 12.05 6.945 24.09 13.91 36.13 20.873 12.47 7.211 24.934 14.433 37.405 21.642 4.408 2.549 8.865 5.016 13.224 7.646 1.48.892 2.719.941 4.135.038 1.15-.734 2.377-1.346 3.56-2.03 10.213-5.906 20.415-11.831 30.638-17.72 12.482-7.19 24.99-14.334 37.47-21.531a6506.27 6506.27 0 0 0 34.802-20.192c1.805-1.056 3.32-1.157 5.18-.062 9.632 5.67 19.328 11.23 28.995 16.84 11.278 6.545 22.536 13.123 33.824 19.65 14.085 8.142 28.194 16.241 42.286 24.37 3.2 1.846 3.188 1.867 6.397.03.108-.061.217-.121.324-.184 12.138-7.041 24.267-14.1 36.419-21.118 8.817-5.094 17.667-10.132 26.497-15.203 8.185-4.7 16.364-9.409 24.544-14.117 6.457-3.718 12.89-7.478 19.38-11.137 1.698-.957 2.653-2.132 2.488-4.144-.091-1.11-.012-2.235-.012-3.353 0-39.255 0-78.51.002-117.764 0-1.242.021-2.484.045-3.725.019-.95.48-1.646 1.285-2.125.427-.254.856-.506 1.286-.755 7.74-4.477 15.472-8.967 23.222-13.426 12.379-7.123 24.781-14.203 37.151-21.34a9716.134 9716.134 0 0 0 41.575-24.107c2.34-1.366 4.878-2.46 7.021-4.531.031-1.388.092-2.868.092-4.349.006-40.124.005-80.248.004-120.372 0-.994-.04-1.989-.008-2.981.044-1.393-.567-2.326-1.774-3.009-2.917-1.652-5.792-3.379-8.696-5.056a155544.265 155544.265 0 0 0-54.525-31.482c-14.413-8.318-28.833-16.624-43.244-24.944-1.169-.675-2.451-1.223-3.436-2.763v-4.515l-.001-117.391c0-1.118-.04-2.237-.01-3.354.037-1.386-.564-2.367-1.747-3.048-1.722-.992-3.427-2.013-5.148-3.006-12.26-7.079-24.524-14.151-36.784-21.23a40048.245 40048.245 0 0 1-30.319-17.526c-10.964-6.345-21.923-12.696-33.366-19.313zm0 0" fill="#00aa4f" data-name="P"/><path d="M1079.292 184.305c11.202 6.483 22.161 12.834 33.125 19.179 10.104 5.846 20.21 11.688 30.319 17.525 12.26 7.08 24.524 14.152 36.784 21.23 1.721.994 3.426 2.015 5.148 3.007 1.183.68 1.784 1.662 1.747 3.048-.03 1.117.01 2.236.01 3.354l.001 117.391v4.515c.985 1.54 2.267 2.088 3.436 2.763 14.411 8.32 28.831 16.626 43.244 24.944 18.177 10.49 36.352 20.985 54.525 31.482 2.904 1.677 5.779 3.404 8.696 5.056 1.207.683 1.818 1.616 1.774 3.009-.032.992.008 1.987.008 2.98.001 40.125.002 80.25-.004 120.373 0 1.48-.061 2.961-.092 4.349-2.143 2.07-4.681 3.165-7.021 4.53a9737.416 9737.416 0 0 1-41.575 24.108c-12.37 7.137-24.772 14.217-37.151 21.34-7.75 4.459-15.482 8.95-23.222 13.426-.43.25-.858.5-1.286.755-.805.479-1.266 1.174-1.285 2.125a192.786 192.786 0 0 0-.045 3.725c-.002 39.255-.002 78.51-.002 117.764 0 1.118-.079 2.242.012 3.353.165 2.012-.79 3.187-2.488 4.144-6.49 3.66-12.923 7.42-19.38 11.137-8.18 4.708-16.359 9.417-24.544 14.117-8.83 5.071-17.68 10.11-26.498 15.203-12.151 7.019-24.28 14.077-36.418 21.118-.107.063-.216.123-.324.185-3.209 1.837-3.197 1.815-6.397-.03-14.092-8.13-28.201-16.229-42.286-24.371-11.288-6.527-22.546-13.105-33.824-19.65-9.667-5.61-19.363-11.17-28.995-16.84-1.86-1.095-3.375-.994-5.18.062a6499.492 6499.492 0 0 1-34.803 20.192c-12.478 7.197-24.987 14.34-37.47 21.53-10.222 5.89-20.424 11.815-30.637 17.721-1.183.684-2.41 1.296-3.56 2.03-1.416.904-2.656.854-4.135-.038-4.36-2.63-8.816-5.097-13.224-7.646-12.47-7.21-24.935-14.43-37.405-21.642-12.04-6.963-24.08-13.928-36.13-20.873-7.208-4.155-14.412-8.321-21.678-12.376-1.73-.966-2.65-2.105-2.46-4.121.105-1.108.016-2.234.016-3.352 0-39.379.01-78.758-.013-118.137-.003-5.295.777-4.593-4.297-7.528-10.535-6.092-21.066-12.192-31.603-18.282-10.429-6.028-20.865-12.042-31.294-18.07-10.106-5.842-20.206-11.695-30.312-17.537-3.44-1.989-6.856-4.025-10.355-5.907-1.965-1.057-2.778-2.437-2.775-4.729.057-41.366.054-82.733.007-124.099-.002-2.25.75-3.645 2.728-4.771 13.705-7.806 27.368-15.685 41.022-23.579 11.396-6.588 22.757-13.237 34.144-19.841 9.882-5.733 19.779-11.441 29.67-17.16.644-.374 1.386-.648 1.904-1.151.494-.48.972-1.169 1.07-1.824.183-1.217.101-2.476.101-3.718.003-39.13.003-78.26.003-117.391 0-.994.097-1.999-.018-2.98-.272-2.313.859-3.644 2.776-4.728 7.134-4.036 14.216-8.162 21.315-12.26a57157.397 57157.397 0 0 0 31.293-18.072c10.43-6.028 20.854-12.062 31.28-18.095 7.31-4.23 14.612-8.471 21.928-12.69 4.665-2.689 4.204-2.697 8.694-.091 15.575 9.037 31.207 17.976 46.807 26.97 11.835 6.824 23.652 13.675 35.48 20.51 6.988 4.04 13.954 8.119 20.981 12.09 3.935 2.225 3.156 2.294 7.371-.14 15.487-8.94 30.965-17.896 46.439-26.859 13.11-7.594 26.204-15.215 39.315-22.806 6.234-3.61 12.523-7.124 18.717-10.8 1.838-1.09 3.436-1.186 5.185-.017.927.62 1.912 1.154 3.111 1.86m12.403 390.629-.243.017s.248.217.462.507c.168.176.364.313.648.536l.159.009s-.228-.125-.399-.443c-.142-.2-.319-.361-.627-.626m-159.646 3.217a6.5 6.5 0 0 1 .517-.158c.226-.128.386-.313.921-.762 1.13-1.15 2.572-2.035 3.383-4.1 1.25-1.532 2.5-3.064 4.159-4.88.91-1.313 1.684-2.752 2.756-3.918 3.124-3.399 5.57-7.264 7.82-11.243 1.145-2.024 1.93-4.274 2.682-6.488.57-1.678.298-3.424-.261-5.11-.47-1.417-1.446-2.278-2.832-2.703-2.347-.719-5.857.12-8.269 2.048.779.293 1.435.593 2.122.79 4.165 1.186 5.071 3.77 3.86 7.728-.18.591-.367 1.19-.638 1.743-1.63 3.333-3.225 6.685-4.956 9.965-1.15 2.182-2.508 4.255-4.191 6.666-1.238 1.592-2.683 3.044-3.798 5.259-.94 1.333-2.358 2.366-2.869 4.416-.064.246-.13.492-.406.747m-76.062-147.563c.217-.135.339-.33.662-.86.246-.317.494-.635 1.167-1.244 1.172-.686 2.354-1.356 3.514-2.061 2.459-1.495 5.058-2.615 7.924-3.039 4.338-.642 7.945 1.074 9.84 5.004.845 1.751 1.364 3.724 1.676 5.654.538 3.32.292 6.667-.268 9.984-.119.706-.195 1.419-.37 2.719.71-.752 1.105-1.036 1.322-1.42 3.509-6.213 5.929-12.812 6.728-19.927.417-3.71.397-7.434-1.027-10.991-1.601-4-4.577-5.67-8.843-5-2.49.39-4.763 1.369-6.864 2.712-6.271 4.008-11.242 9.26-15.296 16.032-.298.58-.595 1.159-1.102 1.843 0 0 .02.233-.17.494.018.849.4.553 1.107.1m-92.958-4.877c.146.228.292.455.349 1.104.206.372.412.743.74 1.627 1.08 2.61 2.976 4.519 5.183 6.207 4.39 3.358 9.456 4.892 14.836 5.465 8.003.852 15.864.11 23.522-2.475 2.479-.836 4.859-1.856 6.813-3.4l.132-.121s-.05.143-.674.232c-1.571.285-3.166.48-4.711.87-7.268 1.83-14.596 2.506-22.056 1.436-6.717-.964-12.924-3.212-18.514-7.096-1.217-.846-2.447-1.674-3.93-2.827-.309-.236-.618-.472-1.023-1.086-.225-.101-.449-.203-.66-.584l-.296.194c.11.013.222.026.289.454m94.405 128.642c.623-.215 1.247-.43 2.36-.778 1.04-.51 2.08-1.019 3.637-1.638 2.73-1.464 5.572-2.756 8.168-4.43 4.955-3.193 9.225-7.11 11.9-12.521 1.003-2.03 1.67-4.147 1.791-6.397.113-2.07-.831-3.361-2.72-3.908-1.602-.462-3.2-.182-4.787.146-2.456.507-2.456.505-4.048 1.658 1.114.137 2.233.193 3.315.428 1.237.267 2.066 1.144 1.934 2.38-.183 1.7-.5 3.443-1.117 5.029-.947 2.437-2.552 4.508-4.22 6.533-3.108 3.77-6.995 6.615-11.375 9.641-1.44.986-2.88 1.972-4.658 3.008-.217.255-.434.51-.81.818l.009.208s.12-.292.62-.177m232.135 19.465.223-.01s-.238-.2-.484-.59c-.481-.309-.946-.648-1.454-.903-.117-.059-.466.125-.546.281-.066.13.061.517.18.557.652.215 1.327.359 2.081.665m-98.978-163.46c.492.263 1.03.842 1.496.138.135-.206-.234-.84-.497-1.18-.195-.253-.595-.347-1.187-.732 0 0-.336-.127-.648-.508-.23-.293-.424-.622-.693-.872-5.884-5.458-12.512-9.734-20.121-12.355-4.577-1.577-9.278-2.829-14.126-3.076-13.333-.681-25.486 2.835-36.396 10.586-9.635 6.844-16.57 15.896-21.704 26.427-.139.285-.047.682-.06.957.48.256.87.464 1.197 1.182-2.22 2.315-4.574 4.519-6.635 6.968-5.232 6.22-8.943 13.315-11.65 20.96-.492 1.387-1.164 2.711-2.253 4.283-.302.21-.698.355-.892.638-2.23 3.263-5.33 5.536-8.667 7.48-3.384 1.972-7.041 3.064-11.027 2.777-.714-.052-1.44.063-2.237.105-.13.61-.317 1.081-.317 1.553.01 22.48.035 44.96.077 67.439 0 .189.258.377.456.65.294-.096.717-.105.926-.322 1.117-1.156 2.286-2.286 3.243-3.57 2.224-2.988 4.347-6.051 6.492-9.098 3.865-5.487 8.978-9.18 15.5-10.886.942-.246 1.846-.634 2.932-1.014.034-1.172.098-2.27.091-3.365-.025-3.85-.13-7.7-.103-11.55.037-5.101.445-10.173 2.156-15.044 3.122.738 6.174.353 9.056-.905 2.134-.931 4.14-2.163 6.172-3.317 1.065-.605 2.061-1.332 3.328-1.43 1.16 2.662 1.61 5.474 1.651 8.348.09 6.41-1.112 12.608-3.336 18.596-1.252 3.374-2.721 6.667-4.077 10.003-.365.9-1.018 1.75-.697 2.86l-.137-.107s.154.08.536-.236c1.476-1.839 3.075-3.593 4.407-5.531 6.957-10.126 10.263-21.14 8.003-33.493-.34-1.863-.827-3.621-1.727-5.64.8-1.09 1.577-2.196 2.403-3.265 6.344-8.209 10.977-17.208 12.813-27.517.129-.723.401-1.42 1.026-1.82.168.184.326.377.505.548 2.849 2.74 4.22 2.97 7.606 1.228 2.003-1.032 3.863-2.3 5.316-4.025 1.55-1.84 3.362-2.512 5.81-2.581 7.827-.224 15.648-.24 23.467.113 10.055.453 20.098 1.177 30.009 2.98 22.614 4.114 45.303 7.586 68.244 9.362 15.744 1.219 31.497 1.783 47.278 1.57 6.082-.081 12.16-.485 18.238-.77.535-.025 1.06-.255 1.926-.476-.576-.66-.838-1.073-1.2-1.357-7.984-6.257-16.704-11.147-26.372-14.322-9.534-3.132-19.36-4.313-29.328-4.673-2.87-.104-5.695.182-8.517.705-4.392.815-8.789 1.63-13.206 2.291-12.166 1.82-24.366 3.344-36.686 3.566-4.597.083-9.189-.079-13.718-.989-.574-.115-1.264-.163-1.453-1.168.85-.038 1.662-.09 2.475-.11 17.914-.452 35.683-2.375 53.318-5.49 18.499-3.265 36.618-7.962 54.246-14.543 12.713-4.746 24.943-10.491 36.831-16.999.694-.38 1.658-.562 1.794-1.815-.88-.087-1.709-.225-2.541-.244a204.427 204.427 0 0 0-34.911 2.168c-13.188 1.967-26.035 5.263-38.609 9.653-2.456.858-4.892 1.818-7.24 2.934-10.22 4.858-20.648 9.185-31.481 12.484-4.868 1.482-9.714 3.134-14.682 4.166-12.166 2.527-24.46 4.264-36.877 5.025-6.207.38-12.407.469-18.59-.402-1.227-.173-2.355-.514-3.875-1.343 2.124-.674 3.815-.283 5.463-.345 1.737-.066 3.478-.037 5.216-.086 1.861-.052 3.723-.133 5.583-.228 1.736-.089 3.473-.186 5.206-.328 1.732-.142 3.46-.344 5.19-.52 1.729-.177 3.46-.342 5.187-.535a202.79 202.79 0 0 0 10.703-1.453 168.93 168.93 0 0 0 5.13-.93c1.706-.334 3.409-.69 5.105-1.073 1.695-.381 3.383-.793 5.069-1.216a425.17 425.17 0 0 0 5.405-1.403c1.681-.445 3.371-.86 5.032-1.371 1.561-.481 3.258-.676 4.86-1.84-.62-.304-.918-.549-1.243-.593-2.337-.316-4.672-.678-7.021-.865-14.93-1.186-29.772-.638-44.515 2.189-10.63 2.039-21.102 4.615-31.227 8.494-4.285 1.642-8.576 3.267-12.76 4.86-2.276-1.003-4.393-2.042-6.587-2.876-3.059-1.163-5.855-.769-8.314 1.302-.26-.693-.512-1.39-.785-2.08-2.554-6.446-7.427-9.065-14.203-7.499a21.09 21.09 0 0 0-4.857 1.787c-1.75.9-3.329 2.126-5.006 3.17-.602.376-1.276.638-2.28.502 1.002-1.25 1.926-2.574 3.022-3.735 6.068-6.428 12.861-11.953 20.494-16.451 9.017-5.314 18.712-8.394 29.148-9.107 7.991-.545 15.795.517 23.485 2.721 5.37 1.54 10.471 3.763 15.963 6.129.255.149.51.297.986.776m161.996 115.437c.864-.927 1.727-1.855 2.892-3.57-.38-.563-.824-.623-1.757.106-.721 1.124-1.838 2.079-1.719 3.623l-.063.2s.178-.25.647-.36m-69.732 38.293.198.036s-.272-.159-.465-.582c-.993-.88-1.986-1.758-3.337-3.032-1.854-1.524-3.074-3.748-5.78-5.05-.993-1.247-1.917-2.557-2.992-3.729-2.858-3.115-6.007-5.926-9.491-8.321-5.244-3.605-11.061-5.547-17.453-5.453-1.442.021-2.926.457-4.296.96-.742.274-1.542.981-1.853 1.695-.423.972-.58 2.145-.536 3.218.064 1.559.644 2.467 1.815 3.664.21-.308.474-.584.61-.914 1.036-2.5 3.121-3.402 5.598-3.65.98-.1 1.98-.077 2.966-.022 3.164.18 6.038 1.346 8.798 2.786 4.855 2.534 9.284 5.707 13.509 9.18.845.694 1.798 1.257 2.961 2.303 1.699 1.325 3.397 2.65 5.374 4.39 1.32 1.022 2.356 2.57 4.374 2.52m-61.919-170.622c.822-.278 1.643-.556 3.059-.855 1.968-.48 3.936-.962 6.167-1.309.219.019.388-.064.976-.26.757-.187 1.515-.374 2.519-.411.252-.103.503-.205 1.374-.343 4.025-.726 8.038-1.527 12.078-2.159 3.982-.623 8.009-.965 12.27-1.832-.964-1.477-2.324-1.886-3.407-2.618-1.22-.825-2.511-1.545-3.693-2.263-.91.285-1.616.496-2.317.727-8.353 2.756-16.706 5.513-25.056 8.276-.587.195-1.154.447-2.18.615-.255.146-.509.293-1.129.43-.247.04-.467.139-1.232.26-1.798.538-3.596 1.076-5.861 1.576-.417.192-.834.385-1.525.565 0 0-.236.137-.834.128-6.218 1.633-12.438 3.262-18.652 4.908-.707.187-1.399.448-2.077.727-.36.147-.255 1.124.161 1.231.558.143 1.198.305 1.726.165 2.866-.761 5.71-1.61 8.559-2.434 4.39-1.268 8.779-2.541 13.675-3.82.318-.107.636-.214 1.33-.27.22-.118.439-.236 1.059-.327.26-.06.52-.119 1.236-.114a12.19 12.19 0 0 1 1.774-.593m11.293 131.853.123.119c-.082-.088-.164-.175-.223-.85-.375-2.549-1.113-4.973-2.646-7.712-3.177-8.376-7.083-16.375-12.104-23.82-3.805-5.642-8.66-10.175-14.286-13.93a16.27 16.27 0 0 0-6.908-2.6c-2.74-.373-4.919.672-6.278 3.048-1.428 2.496-1.94 5.23-1.671 8.132 1.023-.037 1.19-.727 1.506-1.207 2.228-3.384 4.947-3.849 8.42-2.71 3.689 1.208 6.986 3.126 9.614 6.099 6.092 6.892 11.58 14.226 16.39 22.067 1.359 2.216 2.743 4.415 4.169 7.148 1.192 2.06 1.91 4.42 3.894 6.216m-195.582-43.532c.628-.27 1.164-.227 1.589.39.524.761.528 1.86 1.34 2.375.282-.09.459-.093.495-.167 1.907-3.842 3.803-7.69 5.692-11.542a.458.458 0 0 0-.007-.35c-.046-.098-.17-.16-.374-.334-2.934 1.633-5.911 3.29-8.987 5l1.22 1.515c-.493 1.103-.983 2.201-1.491 3.396l-.157-.076s.128.023.68-.207m-7.484 96.208c.647-.332 1.308-.64 1.938-1.002 4.932-2.835 9.86-5.68 14.785-8.527a35.802 35.802 0 0 0 1.57-.98.638.638 0 0 0 .23-.286c.04-.106.018-.237.035-.594-.3-.166-.675-.524-1.088-.578-2.37-.31-4.748-.222-6.853.997-2.021 1.171-4.051 2.411-5.806 3.934-2.23 1.935-4.187 4.185-6.653 6.538-.394.557-1.18 1.023-.305 2.011a251.65 251.65 0 0 0 2.147-1.513m100.314 31.834c.395.168.79.335 1.505.89l31.646 18.346c35.418-20.446 70.68-40.8 105.934-61.17.277-.16.44-.52.847-1.02-3.825-1.797-7.727-2.902-11.965-4.5-3.191-1.206-6.383-2.412-9.976-3.972-2.843-1.52-5.712-2.996-8.523-4.574-2.614-1.469-5.137-3.184-6.678-5.79-1.137-1.922-2.706-3.145-4.493-4.291a127.58 127.58 0 0 1-21.942-17.76c-10.524-10.658-18.248-23.137-23.4-37.197-.854-2.328-1.55-4.713-2.359-7.058-.229-.663-.605-1.275-.89-1.86-4.29.995-6.929 2.064-9.083 3.686.404.716.813 1.46 1.24 2.194 2.012 3.46 3.46 7.124 4.225 11.068 1.46 7.516.501 14.836-1.831 22.008a86.607 86.607 0 0 1-9.344 19.806c-3.73 5.859-7.366 11.778-11.05 17.667-.46.736-.958 1.448-1.444 2.167-5.631 8.332-11.626 16.389-18.078 24.106-.775.926-1.424 1.958-2.155 2.974.792 1.07 1.46 1.95 2.104 2.847 2.574 3.584 3.045 7.529 1.838 11.684a19.231 19.231 0 0 1-1.737 4.092c-.914 1.61-2.05 3.092-3.512 4.58-.141-.016-.282-.031-.428-.653-.199-2.605-.82-5.111-1.786-7.532-1.024-2.566-3.975-5.088-7.64-4.723-2.75.274-5.307 1.077-7.761 2.265-.472.228-.823.703-1.199 1.037.208.326.25.473.344.528a5816.58 5816.58 0 0 0 16.633 9.658c.198.114.476.092.958.497M775.904 395.45l-.815-.411c-.077.308-.207.615-.214.925-.005.206.165.416.341 1.162 1.071 3.066 3.387 5.144 5.828 7.04 3.472 2.7 7.455 4.417 11.687 5.574 5.42 1.481 10.933 2.155 16.552 2.284 10.28.235 20.251-1.717 30.168-4.065 1.41-.334 2.713-1.18 4.02-1.876.468-.25 1.08-.628.57-1.611-3.189.815-6.4 1.701-9.643 2.454-10.813 2.508-21.712 4.084-32.84 2.614-10.202-1.347-19.157-5.046-25.654-14.09m282.891 126.137c-.883-.621-1.614-1.526-3.271-1.78-.915-.814-1.773-1.704-2.754-2.428-6.863-5.07-13.377-10.55-19.493-16.5-.53-.516-1.102-.989-1.633-1.504-1.318-1.278-2.622-2.57-4.056-4.265l-1.807-1.343c.263 1.914.263 1.914 1.721 3.796 2.034 3.678 4.268 7.263 6.047 11.06 1.834 3.914 3.457 7.963 4.746 12.086 1.248 3.994 1.953 8.157 2.923 12.36 2.105.307 4.178.55 6.228.925 2.068.377 4.112.886 6.533 1.655 1.41.51 2.819 1.02 4.604 1.867 3.758 1.67 7.075 4.027 10.294 6.547.534.418 1.074 1.117 1.981.442v-15.598c-3.971-2.317-7.903-4.613-12.063-7.32m-222.226-78.304.504-8.922c-1.251-.712-2.41-1.37-3.567-2.032-.827-.473-1.62-.366-2.442.054-2.6 1.326-5.212 2.626-8.352 4.024-2.28 1.007-4.56 2.014-7.4 3.06-.476.135-.958.252-1.426.41-8.526 2.89-17.243 4.478-26.29 4.17-4.128-.142-8.142-.727-12.042-2.053-8.852-3.007-14.775-8.798-17.075-18.03-.849-3.408-.912-8.268.01-11.949.566.884 1.03 1.554 1.439 2.258 2.061 3.555 4.364 6.939 7.508 9.628 10.24 8.76 22.143 11.032 35.75 8.964 3.13-.375 6.249-.794 9.678-2.254 6.138-2.12 7.044-2.565 9.26-4.614-.607-.442-1.155-.922-1.775-1.28-3.871-2.234-7.822-4.338-11.62-6.69-2.918-1.809-5.992-2.749-9.387-3.205-5.678-.762-11.222-2.21-16.245-5.104-5.028-2.897-9.485-6.403-11.505-12.166-.453-1.293-1.5-1.913-2.586-2.537-8.72-5.012-17.432-10.037-26.158-15.036-.734-.421-1.557-.687-2.39-1.047-1.262.718-2.449 1.385-3.627 2.066-13.76 7.951-27.523 15.9-41.28 23.859a85765.356 85765.356 0 0 0-59.635 34.53c-1.161.673-2.458 1.185-3.264 2.211-.076.516-.177.88-.177 1.246-.014 40.36-.021 80.719-.023 121.078 0 .619.061 1.238.106 1.856.008.119.064.237.11.35.047.115.11.223.213.432.325.228.708.545 1.133.79 35.367 20.439 70.738 40.872 106.11 61.301.103.06.235.077.356.093.122.015.248.003.758.003.887-.496 2.08-1.145 3.255-1.823 11.077-6.39 22.155-12.78 33.228-19.18 14.404-8.327 28.789-16.688 43.222-24.963 1.87-1.072 2.901-2.36 3.333-4.53a49.365 49.365 0 0 1 2.54-8.544c2.191-5.515 5.57-10.214 10.291-13.912 1.037-.812 2.397-1.395 3.315-2.905l8.86-4.486V480.444c0-.994.024-1.99-.045-2.98-.029-.406-.277-.797-.582-1.615-.713 1.088-1.223 1.766-1.63 2.501-2.472 4.477-4.267 9.236-5.788 14.105-.296.947-.496 1.936-.901 2.832-.159.35-.762.498-1.148.159-.89-2.714-1.536-5.524-3.11-8.23a18.34 18.34 0 0 1-2.024 1.212c-4.614 3.293-9.232 6.58-13.837 9.886-.394.283-.702.686-1.557.692-.259-.312-.518-.622-.588-1.406.124-.212.22-.445.374-.633 3.614-4.412 7.242-8.813 10.844-13.235.518-.636 1.285-1.287.53-2.25-.126-.037-.242-.097-.361-.102-3.22-.146-6.438-.285-9.657-.431-.115-.005-.265-.034-.332-.11-.072-.083-.064-.234-.136-.56l2.965-1.26c3.877-1.642 7.755-3.284 12.172-5.016 1.674-.962 3.348-1.923 5.509-3.038 1.283-.856 2.887-1.3 3.61-2.618-1.483-2.562-2.872-4.975-4.28-7.377-.24-.408-.567-.765-.7-1.703-1.127-4.428-2.052-8.882-1.9-13.495.02-.599-.2-1.205-.141-2.49m362.393 97.561c-1.649-7.145-3.588-14.204-6.545-20.935-3.052-6.948-6.559-13.657-11.266-19.65-2.374-3.02-4.909-5.92-7.47-8.785-1.192-1.333-1.973-2.683-2.306-4.513-.44-2.42-1.381-4.754-2.165-7.106-.131-.393-.558-.688-1.141-1.373-.192 1.3-.32 2.123-.434 2.948-1.65 11.88-4.684 23.352-10.044 34.14-.662 1.332-1.406 2.627-2.018 3.982-.22.485-.164 1.095-.281 2.025 2.07-.965 3.362-2.176 4.484-3.64 3.264-4.257 6.063-8.774 8.061-13.775.44-1.103.627-2.419 2.019-3.194 4.729 3.153 8.974 6.93 12.633 11.337 5.038 6.068 8.818 12.894 11.717 20.21a124.953 124.953 0 0 1 3.38 9.629c.641 2.074 1.172 4.195 2.596 5.988-.124-2.279.019-4.569-1.22-7.288m-108.121-181.837c1.126-.653 2.336-1.198 3.397-2.666-1.997.215-3.574.428-5.566 1.5-1.905.562-3.801 1.16-5.718 1.681-20.612 5.61-41.007 11.933-61.195 18.902-11.733 4.05-23.358 8.413-35.018 12.672-1.355.495-2.79.898-4.184 1.984 1.388 1.669 3.02 2.714 4.808 3.833 3.664-.968 7.374-1.95 11.084-2.929 21.862-5.766 43.528-12.142 64.448-20.825 9.533-3.957 18.799-8.437 27.944-14.152m148.308 63.067c-.085.725-.17 1.45-.539 2.58-1.939 3.839-5.124 6.312-8.916 8.113-19.599 9.312-39.968 16.371-61.196 20.912-2.915.623-5.847 1.162-8.76 1.792-.665.144-1.54.118-1.744 1.397.642.656 1.374 1.468 2.174 2.206 5.395 4.973 10.463 10.247 15.126 15.923 11.191 13.619 19.236 28.928 24.406 45.723 5.533 17.975 7.293 36.478 7.059 55.212-.007.538-.214 1.075-.37 1.809-.345-.439-.549-.608-.635-.824-.367-.923-.697-1.86-1.044-2.79-3.639-9.732-8.286-18.841-15.63-26.408-5.397-5.561-11.67-9.629-19.061-11.904-7.341-2.259-14.872-2.674-22.496-2.057-4.98.403-9.79 1.575-14.584 2.909-12.062 3.356-24.229 3.71-36.515 1.275-5.266-1.043-10.32-2.703-15.317-4.6-1.253-.475-2.458-1.148-4-1.214-.104.572-.257 1.028-.259 1.485-.019 5.217.02 10.434-.04 15.65-.017 1.487.57 2.574 1.492 3.664 2.242 2.654 4.552 5.275 6.529 8.122 1.643 2.366 3.749 3.954 6.328 4.967 1.841.723 3.74 1.4 5.676 1.758 3.168.588 6.378 1.004 9.587 1.308 8.297.784 14.398 5.038 18.83 11.858 3.069 4.724 5.161 9.906 6.428 15.396.331 1.437.938 2.53 2.288 3.172.447.213.858.5 1.289.749 15.805 9.138 31.608 18.28 47.42 27.406.841.486 1.75.853 2.697 1.308l107.937-62.357c.501-3.734.469-122.113.014-125.064-.169-.18-.306-.414-.511-.532a160893.49 160893.49 0 0 0-86.429-50.003c-6.88-3.977-13.788-7.904-20.685-11.85a.923.923 0 0 0-.36-.091c-.121-.012-.245.01-.809.04-8.15 4.698-16.643 9.592-25.127 14.502-.289.167-.48.504-.852.91 1.587.86 3.202.746 4.743.97 7.739 1.122 15.52 2.016 23.203 3.44 12.485 2.313 24.563 6.17 36.438 10.616 3.237 1.21 6.316 2.887 9.366 4.537 3.111 1.684 5.647 4.017 6.849 7.985m-233.838-41.788c1.64-.575 3.284-1.141 4.921-1.726 19.301-6.9 38.845-13.044 58.503-18.832 25.618-7.543 51.481-14.161 77.407-20.541 2.77-.682 5.583-1.24 8.408-1.616 1.951-.26 3.984-.328 5.932-.088 3.649.448 5.486 2.815 5.112 6.47-.36 3.518-1.441 6.784-3.992 9.418-1.209 1.248-2.308 2.6-3.478 3.887-4.685 5.152-9.651 10.014-15.021 14.454-7.986 6.6-16.702 12.056-26.001 16.603-11.454 5.6-23.469 9.43-36.01 11.729-11.666 2.138-23.432 2.597-35.246 2.518-1.615-.01-3.229-.047-4.844-.05-.902-.003-1.721.225-2.759 1.166-1.387 1.15-2.912 2.177-3.791 4.045 3.674 1.728 7.318 2.674 11.759 3.15 3.2.429 6.421.74 9.592 1.324 2.319.427 4.387.007 6.504-.872 8.384-3.478 16.968-6.385 25.692-8.883 12.937-3.705 26.096-6.214 39.524-7.166 5.324-.377 10.669-.483 16.007-.606 1.792-.041 3.378-.4 4.945-1.311 10.309-5.993 20.657-11.92 30.982-17.885.839-.484 1.604-1.098 2.349-1.613.048-.812.115-1.428.115-2.044-.022-40.747-.048-81.493-.079-122.24-.001-.119-.063-.24-.111-.354-.047-.11-.114-.213-.173-.318-4-2.808-105.436-61.33-108.093-62.359-.332.12-.71.195-1.027.378a365071.26 365071.26 0 0 0-104.879 60.562c-.643.371-1.254.8-1.876 1.208a1.034 1.034 0 0 0-.267.258c-.069.096-.103.217-.315.688v2.978c.035 40.25.07 80.499.11 120.748 0 .116.067.235.116.347.05.113.118.218.34.62 1.565.917 3.374 1.992 5.198 3.04 4.953 2.848 9.925 5.664 14.862 8.54 1.158.676 2.25.903 3.526.39 3.108-1.246 6.238-2.439 9.869-3.656 1.869-.765 3.738-1.53 6.189-2.361m-176.737 428.63c6.776 3.915 13.548 7.837 20.332 11.737.945.543 1.952.98 2.913 1.457 1.706-.972 3.218-1.822 4.72-2.69 16.994-9.816 33.978-19.65 50.981-29.448 16.25-9.366 32.524-18.691 48.777-28.052 1.27-.732 2.684-1.292 3.579-2.389.091-.53.21-.895.21-1.26.017-40.001.026-80.003.03-120.005 0-.991-.07-1.982-.115-2.973a1.14 1.14 0 0 0-.087-.362c-.045-.113-.12-.215-.401-.698-17.935-10.36-36.197-20.907-54.327-31.378-3.34 1.163-5.254 4.078-8.556 5.446.039-1.8.422-3.226.768-4.653.345-1.42 1.216-2.716 1.092-4.189-2.387-1.923-43.755-25.825-47.173-27.266-.607.311-1.283.621-1.925.993a469943.62 469943.62 0 0 0-105.417 61.106c-.099.057-.164.179-.235.278-.072.101-.131.211-.41.668 0 40.637-.001 81.625.01 122.614 0 .607.162 1.214.268 1.965 28.16 16.268 56.33 32.543 84.966 49.1m177.178-25.837c22.608 12.972 45.103 26.14 67.558 38.958 3.123-1.323 106.021-60.714 108.619-62.693V643.31c0-2.112.025-4.224-.016-6.335-.016-.845-.179-1.687-.286-2.625l-73.382-42.415-2.21.793c-1.007-2.654-3.286-3.883-5.552-5.19-7.855-4.528-15.671-9.122-23.508-13.681-1.065-.62-2.162-1.182-3.132-1.71-3.11 1.267-105.99 60.71-108.484 62.65-.375 3.507-.346 121.773.07 125.092 13.168 7.571 26.51 15.243 40.323 23.189M823.769 405.364c10.977-1.687 21.544-4.855 31.917-8.753 1.678-.63 3-1.696 4.39-2.742 3.271-2.463 6.557-4.91 9.918-7.248 3.292-2.29 6.988-3.786 10.821-4.892 8.246-2.378 16.103.373 20.918 7.463 1.805 2.658 3.198 5.596 4.805 8.392.398.693.894 1.33 1.397 2.07.63-.433 1.067-.673 1.433-.994 8.175-7.166 17.757-11.255 28.422-12.925 1.76-.276 3.34-.866 4.866-1.742 5.063-2.905 10.15-5.767 15.216-8.667.736-.422 1.4-.967 1.988-1.377.445-4.312.343-122.208-.125-125.216-1.135-.675-2.398-1.448-3.68-2.188-14.195-8.203-28.395-16.398-42.591-24.599-19.359-11.183-38.711-22.376-58.08-33.541-1.268-.73-2.43-1.752-4.192-1.876-.957.543-2.038 1.144-3.109 1.764-13.11 7.598-26.212 15.211-39.33 22.795-20.86 12.06-41.733 24.097-62.593 36.157-.945.546-1.819 1.215-2.834 1.9 0 40.97-.001 81.828.009 122.687 0 .728.139 1.457.232 2.374 8.822 5.032 17.549 10.212 26.592 15.185 1.614-3.281 1.78-6.952 4.566-9.84.184 1.085.336 1.771.411 2.466.339 3.118 1.252 6.076 2.506 8.93 1.124 2.558 2.76 4.614 5.326 5.987 3.83 2.05 7.579 4.263 11.286 6.531 2.17 1.327 4.458 2.103 6.962 2.428 7.325.952 14.619.73 22.553-.529m58.643 138.186c-8.163 5.916-17.24 10.29-25.99 15.143l-1.061 8.28c.64.448 1.114.838 1.64 1.14 14.203 8.184 28.409 16.362 42.626 24.522.607.349 1.316.518 2.245.873.343-.489.613-.907.914-1.3 3.77-4.917 8.746-8.028 14.678-9.622 1.555-.418 2.687-1.183 3.428-2.592.865-1.647 1.883-3.228 2.61-4.933 1.266-2.966 2.417-5.985 3.514-9.02 2.024-5.602 3.81-11.297 5.997-16.834 2.641-6.685 6.875-12.055 13.767-14.897.423-.174.774-.525 1.078-.738-.039-.437.013-.716-.093-.908a84.854 84.854 0 0 0-1.696-2.888c-5.347-8.785-7.138-18.162-4.667-28.234.95-3.87 2.2-7.63 4.096-11.16.367-.685 1.134-1.415.325-2.41-2.546 0-5.148.076-7.744-.021-2.603-.097-5.215-.255-7.796-.59-2.702-.353-5.369-.971-8.058-1.431-2.524-.433-4.802-1.967-7.541-1.805-.52 2.208-.212 4.318-.221 6.407-.052 10.98-3.127 21.035-9.082 30.248-5.893 9.118-13.63 16.37-22.969 22.77m184.742-157.94c.868-.048 1.736-.088 2.604-.144 12.683-.815 25.324-.515 37.873 1.621 2.249.383 4.14-.229 6.065-1.148 15.425-7.364 28.912-17.363 40.545-29.868 1.859-1.998 3.686-4.047 5.321-6.228 1.739-2.319 2.826-4.919 2.069-7.814-1.184-.983-2.426-.975-3.672-1.043-2.519-.138-4.952.353-7.362.956-14.57 3.65-29.13 7.337-43.702 10.974-2.092.522-3.915 1.412-5.599 2.782-5.698 4.638-11.882 8.543-18.355 12.018-7.45 4-15.155 7.427-22.98 10.607-.86.35-1.827.552-2.656 1.508 3.057 2.232 6.019 4.191 9.849 5.779m83.268 66.635c15.332-1.606 30.399-4.4 45.047-9.878-12.358-8.073-36.847-16.423-57.17-18.014-17.25-1.35-43.053 1.521-50.407 5.503.621.211 1.04.415 1.48.494 3.052.55 6.129.978 9.16 1.622 11.316 2.406 21.72 6.972 31.204 13.572 3.051 2.122 5.911 4.523 8.814 6.851.935.75 1.865 1.074 3.073.903 2.703-.384 5.421-.662 8.799-1.053m40.978-46.292c-13.37 3.043-35.34 12.187-39.17 16.37 1.48.82 3.126.892 4.67 1.252 7.994 1.864 15.876 4.099 23.461 7.257 6.305 2.625 12.606 5.285 18.525 8.722 1.559.906 2.909.973 4.548.284 3.317-1.396 6.75-2.516 10.055-3.937 5.131-2.207 10.203-4.55 15.282-6.877 2.407-1.102 4.486-2.625 5.96-4.902.782-1.208.809-2.414-.095-3.435-.976-1.104-2.087-2.133-3.291-2.979-2.962-2.082-6.243-3.628-9.643-4.796-6.573-2.256-13.244-4.227-19.827-6.457-3.268-1.107-6.494-1.553-10.475-.502m-69.562 65.469c-1.946 6.016-3.59 12.15-5.901 18.023-4.331 11.003-10.027 21.318-16.979 30.905-2.182 3.009-4.545 5.886-6.79 8.85-.724.955-1.857 1.702-1.79 3.388 5.503 1.763 11.178 2.724 17.09 3.014 17.175-23.497 29.385-48.914 33.441-77.864-2.973-.698-12.329-.166-16.083.911-.922 3.995-1.867 8.09-2.988 12.773m35.865-9.582c-1.488-1.213-2.6-2.946-4.764-3.584-.271.989-.569 1.799-.713 2.635-1.513 8.824-3.908 17.411-6.835 25.864-4.114 11.882-9.456 23.192-15.945 33.947-2.431 4.03-5.19 7.861-7.768 11.803-.439.67-1.253 1.301-.552 2.419.654 0 1.406.115 2.111-.02 3.161-.606 6.321-1.227 9.456-1.95 2.654-.613 5.249-1.496 7.916-2.027 1.827-.364 3.071-1.176 4.193-2.696 5.863-7.95 10.433-16.568 13.772-25.847 3.631-10.094 5.701-20.527 6.691-31.192.128-1.378-.343-2.362-1.318-3.279-1.988-1.868-3.91-3.806-6.244-6.073m-66.104 29.209c3.914-9.714 6.454-19.79 7.909-30.147.097-.69.013-1.405.013-2.05-3.265-.706-11.917-.944-15.248-.423-.303 1.209-.665 2.51-.954 3.826-2.878 13.077-7.825 25.312-14.751 36.776-3.157 5.225-6.986 9.934-10.685 14.752-.42.547-.698 1.202-1.018 1.766 3.505 3.019 7.753 5.715 10.912 6.93 2.295-1.547 4.364-3.496 6.378-5.497 7.396-7.346 13.052-15.876 17.444-25.933m-63.717-95.596c-23.144 5.612-29.462 7.383-32.647 9.214 1.827 2.486 3.637 4.958 5.46 7.42.433.586.911 1.138 1.343 1.674.52-.067.891-.071 1.238-.165 7.785-2.108 15.542-4.29 23.123-7.084 3.774-1.391 7.366-2.952 10.014-6.106 1.231-1.466 2.71-1.86 4.608-1.765 10.182.516 20.342.202 30.481-.95 10.153-1.154 20.038-3.445 29.703-6.725.274-.093.475-.4.734-.629-.303-.23-.475-.473-.671-.495-2.959-.322-5.916-.746-8.885-.895-17.07-.852-33.972.635-50.743 3.807-4.388.83-8.767 1.707-13.758 2.699m30.685 69.28c.535-2.63 1.351-5.215 1.515-7.89-.528-.266-.839-.54-1.174-.573a1199.88 1199.88 0 0 0-12.932-1.204c-.208-.018-.435.194-.653.299-6.039 17.419-2.814 14.112-18.802 33.482 2.147 2.977 6.951 7.573 9.497 9.084 7.146-3.616 13.967-11.083 17.217-17.91 2.251-4.73 3.817-9.67 5.332-15.289m78.354-53.483c-1.581.721-3.163 1.44-4.742 2.164-1.692.775-3.373 1.578-5.077 2.324-1.591.697-3.22 1.307-4.809 2.007-1.653.728-3.453 1.16-5.653 2.61 1.194.037 1.621.074 2.046.059 1.861-.064 3.72-.166 5.581-.214 6.219-.159 12.41.281 18.574 1.042 1.569.194 2.944.074 4.228-.847.201-.144.427-.253.643-.377 11.972-6.911 24.428-12.71 37.786-16.44.183-.051.315-.285.647-.603-.493-.244-.88-.543-1.311-.634-7.171-1.515-14.412-2.556-21.708-3.258-2.067-.199-3.831.242-5.662 1.25-6.629 3.65-13.344 7.144-20.543 10.917m-272.37 42.005c.493 1.394 1.028 2.775 1.467 4.186.454 1.456.202 3.12 1.187 4.712 2.573-1.455 4.197-3.451 5.373-5.77 2.95-5.814 4.668-11.982 4.8-18.53.05-2.485-.193-4.958-1.26-7.259-1.397-3.01-3.668-4.135-6.963-3.468-2.339.473-4.453 1.49-6.445 2.771-4.974 3.199-8.891 7.464-12.263 12.262-1.307 1.86-1.973 3.989-2.23 6.231-.06.54.133 1.108.238 1.867 1.651-.521 3.035-1.025 4.454-1.393 4.633-1.202 8.597-.37 11.642 4.39m81.882 50.33c-1.01 10.297 1.762 19.901 5.41 29.339.075.192.487.255.939.473-.071-.745-.114-1.23-.165-1.714-.667-6.295-1.184-12.596-1.028-18.935.089-3.605.313-7.2 1.298-10.683.435-1.537.932-3.127 1.762-4.47 2.455-3.977 7.526-6.516 12.25-2.191 1.093 1 2.032 2.164 3.056 3.24.358.377.509 1.18 1.386.71-.044-2.878-.555-5.662-1.794-8.272-1.967-4.14-5.141-5.48-9.497-4.07-.47.152-.94.322-1.39.528-5.836 2.674-9.96 6.85-11.56 13.229-.182.722-.36 1.444-.667 2.815m41.166-34.472c.251-.275.494-.558.754-.824 4.63-4.73 7.484-10.456 9.34-16.731.201-.678.208-1.412.31-2.157-1.692-.921-3.2-1.692-5.167-1.753-.431.92-.855 1.788-1.248 2.669-.607 1.358-1.147 2.747-1.794 4.085-2.93 6.059-7.528 10.75-12.591 15.001-5.062 4.25-10.743 7.57-16.624 10.557-.95.483-2.038.792-2.962 1.981 1.065-.08 1.815-.044 2.52-.204 2.902-.66 5.848-1.204 8.674-2.114 6.776-2.182 13.259-4.972 18.788-10.51m-136.976-15.485c-.333.162-.658.344-1 .483-1.464.596-1.992 1.645-1.834 3.226.212 2.126.757 4.145 1.77 5.998 1.278 2.333 3.314 3.641 6.001 3.725 2.646.082 5.103-.537 7.321-2.257 0-1.287.103-2.525-.026-3.738-.157-1.467-.38-2.953-.804-4.362-1.107-3.674-3.555-5.157-7.37-4.47-1.197.217-2.333.77-4.058 1.395m-33.005-38.235c-.434.144-1.013.14-.887.859 2.947 2.126 9.121 5.588 12.114 6.755 5.396-3.223 10.48-7.006 15.011-12.624-3.48.605-6.132 1.619-8.882 2.187-2.783.574-5.558 1.202-8.36 1.662-2.804.46-5.638.743-8.996 1.16m73.091-24.51c7.028 3.601 9.202 10.233 10.685 17.617.887-4.064.128-8.524-1.165-13.136-2.212-7.889-7.644-11.314-15.714-9.918a35.182 35.182 0 0 0-10.494 3.6c-.338.18-.554.591-1.22 1.334 6.217-1.257 11.845-1.849 17.908.504m72.884-11.65c-.739-.34-1.452-.231-2.13.158-2.683 1.54-5.368 3.078-8.03 4.655-.23.136-.298.547-.517.98.628.144 1.093.313 1.567.35a119.486 119.486 0 0 1 22.635 4.005c.71.197 1.447.343 2.18.395.288.021.6-.28.903-.435-.163-.3-.22-.585-.386-.683a3145.605 3145.605 0 0 0-16.222-9.424m163.744 216.543c.75.278 1.344 1.17 2.311.61.014-.133.077-.278.03-.35-2.798-4.291-6.354-7.825-10.751-10.454-1.854-1.108-3.911-1.524-6.046-.795-.664.226-1.421.44-1.459 1.36.145.217.233.497.421.607 5.003 2.923 10.017 5.83 15.494 9.022m-119.393-130.846c-.283-2.691-.773-5.38-.791-8.073-.018-2.678.439-5.359.693-8.088-1.167-.657-2.264-1.067-3.51-.688-1.026 4.342-.527 10.325 1.254 15.317.989 2.77 1.215 3.129 2.815 4.363a67.857 67.857 0 0 0-.461-2.831m77.473 106.87s-.017-.04 0 0m-310.89-178.12s.087-.047 0 0zm0 0" fill="#343637" data-name="P"/><path d="M828.34 808.774c-28.403-16.415-56.572-32.69-84.732-48.958-.106-.751-.267-1.358-.267-1.965-.012-40.989-.011-81.977-.011-122.614.279-.457.338-.567.41-.668.07-.099.136-.22.235-.278 35.137-20.373 70.276-40.742 105.417-61.106.642-.372 1.318-.682 1.924-.993 3.42 1.44 44.787 25.343 47.174 27.266.124 1.474-.747 2.77-1.092 4.19-.346 1.426-.729 2.852-.768 4.652 3.302-1.368 5.216-4.283 8.556-5.446 18.13 10.471 36.392 21.018 54.327 31.378.28.483.356.585.401.698.046.115.081.24.087.362.044.99.115 1.982.115 2.973-.004 40.002-.013 80.004-.03 120.006 0 .364-.119.728-.21 1.26-.895 1.096-2.309 1.656-3.579 2.388-16.253 9.36-32.526 18.686-48.777 28.052-17.003 9.799-33.987 19.632-50.981 29.448-1.502.868-3.014 1.718-4.72 2.69-.961-.477-1.968-.914-2.913-1.457-6.784-3.9-13.556-7.822-20.565-11.878m11.112-218.06c.441-.192.949-.388.487-.971-.063-.08-.572.193-1.275.483-.45.343-.906.678-1.342 1.037-.064.053-.085.285-.036.324.163.131.462.346.537.29.447-.323.846-.713 1.629-1.162m-86.082 141.26c.159 2.081-.36 4.204.39 6.245.023.063.206.066.336.104.948-.342.645-1.2.682-1.863.299-5.315.3-10.663.922-15.939.437-3.714.244-7.449.736-11.111.532-3.96.56-7.906.678-11.867.023-.74.19-1.473.27-2.211.145-1.353.326-2.704.402-4.06.296-5.316.307-10.664.922-15.941.404-3.467.517-6.913.628-10.378.024-.74.158-1.477.235-2.216.154-1.475.397-2.949.434-4.427.073-2.975.257-5.921.625-8.887.278-2.237 1.228-3.649 2.942-4.844 8.037-5.6 16.058-11.223 24.082-16.842 4.774-3.342 9.556-6.672 14.308-10.044 8.695-6.17 17.369-12.37 26.054-18.554 2.323-1.654 4.667-3.28 6.975-4.955.468-.34 1.034-.791.256-1.644-.61.258-1.314.457-1.916.825-7.933 4.853-15.854 9.727-23.775 14.6-6.865 4.223-13.724 8.458-20.593 12.676-10.567 6.488-21.141 12.966-31.712 19.448-3.587 1.237-4.031 3.921-4.013 7.362.143 27.932.11 55.865.132 84.523m88.972-143.264-.26-.466-.386.36c.15.097.3.193.646.106m1.766-1.351.466-.387-.23-.246c-.14.147-.278.294-.236.633zm0 0" fill="#fed838" data-name="P"/><path d="M1005.516 782.942 965.43 759.89c-.417-3.319-.446-121.585-.071-125.092 2.495-1.94 105.375-61.383 108.484-62.65.97.528 2.067 1.09 3.132 1.71 7.837 4.56 15.653 9.153 23.508 13.682 2.266 1.306 4.545 2.535 5.552 5.19l2.21-.794 73.382 42.415c.107.938.27 1.78.286 2.625.041 2.111.016 4.223.016 6.335V759.343c-2.598 1.98-105.496 61.37-108.619 62.694-22.455-12.818-44.95-25.986-67.794-39.095m53.102 16.201c-3.668-2.322-7.345-4.63-11.001-6.97-9.722-6.22-19.443-12.441-29.149-18.686-8.558-5.507-17.091-11.052-25.643-16.57-2.398-1.546-4.82-3.056-7.236-4.576-1.822-1.146-2.815-2.677-2.702-4.94.08-1.6-.107-3.218-.227-4.825-.128-1.726-.37-3.445-.468-5.173-.303-5.318-.555-10.64-.842-15.96-.026-.491-.174-.976-.229-1.468-.15-1.353-.337-2.704-.41-4.062-.299-5.567-.315-11.163-.926-16.695-.383-3.468-.54-6.914-.628-10.383-.016-.619-.098-1.236-.153-1.854-.184-2.094-.404-4.187-.544-6.284-.09-1.361.156-2.78-.137-4.087-.77-3.442-.561-6.915-.652-10.383-.019-.744.035-1.522-.163-2.222-.658-2.315-.44-4.681-.584-7.03-.204-3.303-.557-6.598-.846-9.897-.507 1.21-.584 2.407-.584 3.604-.01 32.916-.012 65.832-.014 98.748 0 .746.038 1.492.002 2.236-.09 1.833.767 3.065 2.355 3.877 1.548.791 3.108 1.563 4.624 2.413 5.411 3.032 10.788 6.125 16.21 9.137 5.641 3.133 11.343 6.156 16.975 9.304 7.147 3.995 14.239 8.087 21.376 12.099a2668.21 2668.21 0 0 0 19.521 10.844c.75.413 1.61.624 2.665 1.331.591.423 1.155.893 1.782 1.253.394.226.907.386 1.254-.465-.909-.881-1.853-1.782-3.626-2.316m109.809-98.9c.034 2.356.065 4.713.104 7.069.033 1.984-.203 4.023.18 5.938.567 2.84.442 5.672.574 8.514.246 5.308.578 10.612.886 15.917.006.1.148.193.455.567.048-1.597.124-2.93.124-4.265.012-30.393.016-60.787.02-91.18 0-.745.054-1.497-.035-2.231-.067-.557-.323-1.09-.536-1.769-.947.175-1.675.264-2.378.45-1.823.482-2.253.924-2.271 2.846-.034 3.72-.322 7.492.179 11.149.544 3.967.452 7.908.59 11.863.051 1.483.173 2.964.292 4.443.118 1.478.351 2.95.393 4.43.085 2.975-.273 6.008.185 8.917.644 4.083.473 8.155.632 12.234.057 1.476.326 2.944.606 5.108zM802.588 432.765c-13.01 2.168-24.911-.104-35.152-8.864-3.144-2.69-5.447-6.073-7.508-9.628-.408-.704-.873-1.374-1.438-2.258-.923 3.681-.86 8.541-.011 11.95 2.3 9.23 8.223 15.022 17.075 18.03 3.9 1.325 7.914 1.91 12.041 2.051 9.048.309 17.765-1.279 26.291-4.168.468-.159.95-.276 1.753-.172.94.986 1.441 1.879 2.188 2.453 1.957 1.505 4.023 2.867 6.041 4.293 2.322 1.639 4.623 3.308 6.965 4.918 1.015.697 1.466 1.61 1.484 2.811.025 1.608.006 3.222.15 4.82.452 5.034.971 10.061 1.464 15.091L822.3 479.02c-1.001.424-2.001.85-2.965 1.26.072.325.064.476.136.558.067.077.216.106.332.111 3.219.146 6.438.285 9.657.431.119.005.235.065.36.102.756.963-.01 1.614-.53 2.25-3.601 4.422-7.229 8.823-10.843 13.235-.153.188-.25.421-.69.97a147.636 147.636 0 0 0-3.44 4.318c-.091.119.04.407.132 1.086 1.612-1.536 3.579-2.205 4.719-3.994.348-.347.656-.75 1.05-1.033 4.605-3.305 9.223-6.593 14.133-9.646.527 1.949.794 3.654.977 5.367.118 1.105-.073 2.27.197 3.326.564 2.197.532 4.413.577 6.639.018.864.098 1.728.182 2.59.419 4.295.908 8.585 1.259 12.886.35 4.306.563 8.624.85 12.936.032.49.18.973.232 1.463.159 1.472.328 2.943.433 4.418.079 1.11-.137 2.278.13 3.332.804 3.176.595 6.392.638 9.883.015.655.028 1.029.04 1.403-.361 1.489-1.72 2.072-2.758 2.884-4.72 3.698-8.1 8.397-10.29 13.912a49.365 49.365 0 0 0-2.541 8.544c-.432 2.17-1.463 3.458-3.332 4.53-14.434 8.275-28.819 16.636-43.223 24.962-11.072 6.4-22.15 12.79-33.228 19.181-1.176.678-2.368 1.327-3.255 1.823-.51 0-.636.012-.758-.003-.121-.016-.253-.034-.356-.093-35.372-20.43-70.743-40.862-106.11-61.3-.425-.246-.808-.563-1.133-.792-.104-.208-.166-.316-.212-.43-.047-.114-.103-.232-.111-.351-.045-.618-.106-1.237-.106-1.856.002-40.36.009-80.719.023-121.078 0-.365.1-.73.177-1.246.806-1.026 2.103-1.538 3.264-2.211a85765.356 85765.356 0 0 1 59.635-34.53c13.757-7.96 27.52-15.908 41.28-23.86 1.178-.68 2.365-1.347 3.627-2.065.833.36 1.656.626 2.39 1.047 8.726 5 17.439 10.024 26.158 15.036 1.087.624 2.133 1.244 2.586 2.537 2.02 5.763 6.477 9.269 11.505 12.166 5.023 2.893 10.567 4.342 16.245 5.104 3.395.456 6.47 1.396 9.388 3.204 3.797 2.353 7.748 4.457 11.62 6.691.619.358 1.167.838 1.774 1.28-2.216 2.05-3.122 2.494-9.704 4.43-6.84-3.947-13.224-7.728-19.631-11.472-7.156-4.182-14.333-8.33-21.498-12.496-3.316-1.928-6.618-3.878-9.944-5.787-.467-.268-1.062-.708-1.615.241.327.305.64.667 1.017.935 6.047 4.304 12.093 8.61 18.158 12.887a7468.651 7468.651 0 0 0 21.565 15.145c1.044.731 1.969 1.513 2.116 2.885m-44.399-33.21s.018.038 0 0zM823.442 405.418c-7.607 1.205-14.901 1.427-22.226.475-2.504-.325-4.792-1.1-6.962-2.428-3.707-2.268-7.455-4.481-11.286-6.53-2.565-1.374-4.202-3.43-5.326-5.988-1.254-2.854-2.167-5.812-2.506-8.93-.075-.695-.227-1.381-.411-2.466-2.787 2.888-2.952 6.559-4.566 9.84-9.043-4.973-17.77-10.153-26.592-15.185-.093-.917-.232-1.646-.232-2.374-.01-40.86-.01-81.718-.01-122.688 1.016-.684 1.89-1.353 2.835-1.9 20.86-12.059 41.733-24.096 62.593-36.156 13.119-7.584 26.22-15.197 39.33-22.795 1.07-.62 2.152-1.221 3.11-1.764 1.762.124 2.923 1.145 4.19 1.876 19.37 11.165 38.722 22.358 58.08 33.541 14.197 8.201 28.397 16.396 42.592 24.599 1.282.74 2.546 1.513 3.68 2.188.468 3.008.57 120.904.125 125.216-.587.41-1.252.955-1.988 1.377-5.065 2.9-10.153 5.762-15.216 8.667-1.527.876-3.106 1.466-4.866 1.742-10.665 1.67-20.246 5.759-28.422 12.925-.366.32-.803.56-1.433.994-.503-.74-1-1.377-1.397-2.07-1.607-2.796-3-5.734-4.805-8.392-4.815-7.09-12.672-9.841-20.918-7.463-3.833 1.106-7.529 2.603-10.82 4.892-3.362 2.338-6.648 4.785-9.919 7.248-1.39 1.046-2.712 2.112-4.39 2.742-10.373 3.898-20.94 7.066-32.244 8.808m11.517-197.715c-.44.195-.977.377-.512.98.063.083.587-.19 1.39-.383 1.186-.391 2.128-1.082 2.96-2.206-1.868-.006-1.868-.006-3.838 1.609m-71.914 50.374c4.947-3.306 9.926-6.565 14.834-9.929 10.636-7.29 21.225-14.648 31.854-21.947 6.543-4.493 13.125-8.93 19.692-13.387 1.212-.823 2.323-1.748 3.564-3.007-1.588-.606-2.474.24-3.343.732-4.962 2.809-9.893 5.672-14.818 8.546-8.351 4.871-16.67 9.798-25.039 14.639-10.408 6.02-20.858 11.968-31.279 17.967-4.408 2.538-4.934 3.75-4.27 8.735.293 2.202.518 4.43.529 6.649.069 14.396.065 28.792.101 43.188.004 1.362.088 2.725.187 4.084.134 1.848.443 3.692.458 5.539.066 8.19.049 16.382.073 24.573.004 1.22.073 2.44.111 3.66.676-2.765 1.156-5.536 1.297-8.324.257-5.067.12-10.132.663-15.214.577-5.398.18-10.873.781-16.32.514-4.658.184-9.38.708-14.09.573-5.149.257-10.373.759-15.576.521-5.404.056-10.888.804-16.318.22-1.595.656-2.859 2.334-4.2M840.25 204.5l.379.458.248-.23c-.145-.136-.29-.272-.627-.228zM998.612 382.649c-3.12 1.214-6.25 2.407-9.36 3.654-1.275.512-2.367.285-3.525-.39-4.937-2.877-9.909-5.693-14.862-8.54-1.824-1.05-3.633-2.124-5.199-3.041-.221-.402-.289-.507-.34-.62-.048-.112-.115-.231-.115-.347-.04-40.25-.075-80.499-.11-120.748v-2.978c.212-.47.246-.592.315-.688.071-.1.165-.19.267-.258.622-.408 1.233-.837 1.876-1.208a365071.26 365071.26 0 0 1 104.879-60.562c.317-.183.695-.259 1.027-.378 2.657 1.029 104.093 59.551 108.093 62.359.059.105.126.207.173.318.048.113.11.235.111.354.031 40.747.057 81.493.079 122.24 0 .616-.067 1.232-.115 2.044-.745.515-1.51 1.129-2.349 1.613-10.325 5.966-20.673 11.892-30.982 17.885-1.567.911-3.153 1.27-4.945 1.31-5.338.124-10.683.23-16.007.607-13.428.952-26.587 3.46-39.524 7.166-8.725 2.498-17.308 5.405-25.692 8.883-2.117.879-4.185 1.3-6.504.872-3.171-.584-6.392-.895-10.004-1.635-2.092-1.654-3.763-3.01-5.456-4.336-.893-.7-1.458-1.572-1.62-2.699.558-.79 1.377-1.018 2.279-1.016 1.615.004 3.229.04 4.844.051 11.814.079 23.58-.38 35.246-2.518 12.541-2.298 24.556-6.13 36.01-11.73 9.299-4.546 18.015-10.002 26.001-16.602 5.37-4.44 10.336-9.302 15.021-14.454 1.17-1.287 2.269-2.639 3.478-3.887 2.551-2.634 3.632-5.9 3.992-9.417.374-3.655-1.463-6.023-5.112-6.471-1.948-.24-3.981-.172-5.932.088-2.825.375-5.638.934-8.407 1.616-25.927 6.38-51.79 12.998-77.408 20.541-19.658 5.788-39.202 11.933-58.503 18.832-1.637.585-3.281 1.151-5.32 1.49-2.285-2.946-5.131-4.557-7.67-6.506-3.638-2.791-7.357-5.476-11.054-8.19-1.06-.78-1.664-1.74-1.791-3.095-.35-3.698-.936-7.376-.765-11.113.04-.861-.087-1.732-.16-2.597-.176-2.094-.398-4.184-.538-6.28-.09-1.362.153-2.78-.14-4.086-.742-3.317-.568-6.663-.647-10.006a44.176 44.176 0 0 0-.15-2.6c-.183-2.217-.407-4.432-.57-6.65-.083-1.113.123-2.28-.136-3.34-.717-2.942-.564-5.918-.632-8.89-.02-.867.065-1.773-.154-2.593-.652-2.442-.528-4.924-.582-7.401-.02-.992.09-2.027-.154-2.966-.666-2.57-.528-5.173-.587-7.774-.025-1.116.12-2.282-.154-3.338-.697-2.695-.528-5.422-.592-8.145-.024-.992.105-2.03-.14-2.967-.674-2.566-.56-5.169-.621-7.77-.016-.66-.132-1.319-.201-1.978-.47.856-.506 1.707-.506 2.558.008 25.08.017 50.159.037 75.238 0 .99.077 1.982.154 2.97.155 1.972.455 3.94.482 5.912.07 5.213.17 10.433-.026 15.64-.106 2.849.847 4.724 3.347 6.02 1.645.855 3.17 1.945 4.74 2.943 3.558 2.263 7.107 4.542 10.669 6.799 1.078.683 2.033 1.439 2.241 2.805m169.914-74.004c-.006 1.738-.003 3.476-.022 5.214-.031 2.73.202 5.5-.195 8.177-.386 2.602-.435 5.179-.512 7.778-.241 8.05.547 16.13-.71 24.15-.057.364-.058.75-.012 1.116.303 2.42-.666 4.198-2.376 5.924-4.798 4.841-9.422 9.856-14.113 14.805-.256.27-.522.537-.731.841-.284.413-.525.86.163 1.382.352-.2.805-.384 1.169-.678 1.829-1.48 3.606-3.026 5.455-4.481 4.381-3.447 8.703-6.978 13.216-10.245 4.493-3.253 3.791-3.454 3.842-8.426.006-.617-.086-1.236-.139-1.853-.18-2.094-.473-4.184-.52-6.28-.094-4.22-.045-8.442-.075-12.663a50.449 50.449 0 0 0-.144-3.344c-.164-2.219-.47-4.432-.523-6.652-.098-4.095-.052-8.193-.075-12.29-.006-.993.132-2.03-.106-2.97-.776-3.061-.552-6.166-.589-9.26-.041-3.476-.012-6.953-.059-10.429-.017-1.235-.155-2.47-.258-3.703-.133-1.602-.387-3.2-.413-4.802-.073-4.593-.042-9.187-.091-13.78-.007-.66.251-1.514-.818-1.88-.821.756-.566 1.782-.572 2.696-.044 7.572-.048 15.145-.084 22.718-.006 1.238-.082 2.478-.174 3.714-.147 1.972-.422 3.938-.484 5.91-.09 2.853-.039 5.71-.05 9.311zm0 0" fill="#fed738" data-name="P"/><path d="M1239.256 421.529c-1.309-3.424-3.845-5.757-6.956-7.44-3.05-1.65-6.129-3.327-9.366-4.538-11.875-4.446-23.953-8.303-36.438-10.617-7.683-1.423-15.464-2.317-23.203-3.44-1.541-.223-3.156-.11-4.743-.968.372-.407.563-.744.852-.911 8.484-4.91 16.977-9.804 25.127-14.502.564-.03.688-.052.809-.04a.923.923 0 0 1 .36.09c6.897 3.947 13.805 7.874 20.685 11.85a160893.49 160893.49 0 0 1 86.429 50.004c.205.118.342.352.51.533.456 2.95.488 121.33-.013 125.063l-107.937 62.357c-.947-.455-1.856-.822-2.697-1.308-15.812-9.127-31.615-18.268-47.42-27.406-.43-.249-.842-.536-1.289-.749-1.35-.643-1.957-1.735-2.288-3.172-1.267-5.49-3.359-10.672-6.428-15.396-4.432-6.82-10.533-11.074-18.83-11.858-3.209-.304-6.419-.72-9.587-1.308-1.936-.359-3.835-1.035-5.676-1.758-2.579-1.013-4.685-2.6-6.328-4.967-1.977-2.847-4.287-5.468-6.529-8.122-.922-1.09-1.509-2.178-1.492-3.664.06-5.216.021-10.433.04-15.65.002-.457.155-.913.259-1.485 1.542.066 2.747.74 4 1.215 4.997 1.896 10.051 3.555 15.317 4.599 12.286 2.435 24.453 2.081 36.515-1.275 4.794-1.334 9.604-2.506 14.584-2.909 7.624-.617 15.155-.202 22.496 2.058 7.391 2.274 13.664 6.342 19.061 11.903 7.344 7.567 11.991 16.676 15.63 26.408.347.93.677 1.867 1.044 2.79.086.216.29.385.635.824.156-.734.363-1.27.37-1.81.234-18.733-1.526-37.236-7.059-55.211-5.17-16.795-13.215-32.105-24.406-45.723-4.663-5.676-9.731-10.95-15.126-15.923-.8-.738-1.532-1.55-2.174-2.206.204-1.279 1.079-1.253 1.744-1.397 2.913-.63 5.845-1.169 8.76-1.792 21.228-4.54 41.597-11.6 61.196-20.912 3.792-1.801 6.977-4.274 9.339-8.216 1.705.644 3.038 1.317 4.262 2.149 10.054 6.832 20.085 13.698 30.129 20.545 3.051 2.08 3.249 2.357 3.789 5.925.074.489.081.988.118 1.483.28 3.827.558 7.654.844 11.48.028.37.118.735.157 1.105.417 3.935.882 7.866 1.23 11.808.348 3.945.578 7.9.863 11.85.018.248.077.491.104.738.428 3.934.912 7.863 1.265 11.803.353 3.945.568 7.901.858 11.851.037.492.187.976.236 1.467.397 3.938.82 7.873 1.16 11.816.341 3.945.544 7.903.915 11.845.142 1.51.585 2.993.89 4.489.3-3.761.582-7.5.205-11.171-.266-2.597-.471-5.175-.482-7.776-.025-5.96-.029-11.919-.053-17.878-.005-1.116.125-2.28-.139-3.339-.673-2.698-.531-5.424-.545-8.148-.032-6.083-.037-12.167-.063-18.25-.004-1.117.136-2.281-.127-3.34-.701-2.821-.536-5.672-.553-8.52-.034-5.835-.039-11.67-.064-17.506-.004-.992.016-1.991-.089-2.975-.182-1.708-.946-3.064-2.599-3.794-.454-.2-.886-.448-1.33-.67-12.437-6.22-24.869-12.447-37.316-18.645-1.101-.549-2.293-.913-3.442-1.363zm0 0" fill="#fdd738" data-name="P"/><path d="M1057.848 562.685c3.833 1.284 7.735 2.389 11.56 4.186-.407.5-.57.86-.847 1.02-35.254 20.37-70.516 40.724-105.934 61.17-10.614-6.153-21.13-12.25-31.77-18.793-.108-.788-.094-1.13-.08-1.47 1.04-1.538 2.176-3.02 3.09-4.63a19.226 19.226 0 0 0 1.737-4.092c1.207-4.155.736-8.1-1.838-11.684-.644-.897-1.312-1.777-2.104-2.847.73-1.016 1.38-2.048 2.155-2.974 6.452-7.717 12.447-15.774 18.078-24.106.486-.719.984-1.431 1.445-2.167 3.683-5.889 7.318-11.808 11.049-17.667a86.611 86.611 0 0 0 9.344-19.806c2.332-7.172 3.292-14.492 1.831-22.008-.766-3.944-2.213-7.609-4.225-11.068-.427-.734-.836-1.478-1.24-2.194 2.154-1.622 4.793-2.691 9.084-3.687.284.586.66 1.198.89 1.861.809 2.345 1.504 4.73 2.357 7.058 5.153 14.06 12.877 26.539 23.401 37.196a127.575 127.575 0 0 0 21.942 17.76c1.787 1.147 3.356 2.37 4.493 4.292 1.541 2.606 4.064 4.321 6.678 5.79 2.811 1.578 5.679 3.053 8.574 4.957-.589.96-1.176 1.616-1.878 2.104a14907.461 14907.461 0 0 1-28.697 19.917c-3.564 2.468-7.157 4.896-10.712 7.376-9.948 6.942-19.884 13.901-29.822 20.856-.812.567-1.643 1.113-2.402 1.745-.38.318-.562.806.02 1.19.242-.047.514-.034.713-.148 8.79-5.086 17.578-10.175 26.356-15.282 8.885-5.169 17.762-10.35 26.637-15.537 7.164-4.187 14.363-8.315 21.456-12.62 2.948-1.789 6.269-3.05 8.659-5.698m-87.196 50.837s-.038.015 0 0zm0 0" fill="#fdd638" data-name="P"/><path d="M924.832 434.676c2.25-2.604 5.046-2.998 8.105-1.835 2.194.834 4.31 1.873 6.588 2.876 4.183-1.593 8.474-3.218 12.759-4.86 10.125-3.88 20.597-6.455 31.227-8.494 14.743-2.827 29.585-3.375 44.515-2.189 2.349.187 4.684.55 7.021.865.325.044.623.29 1.243.593-1.602 1.164-3.299 1.359-4.86 1.84-1.661.511-3.351.926-5.032 1.371-1.799.476-3.6.95-5.405 1.403-1.686.423-3.374.835-5.069 1.216-1.696.382-3.399.739-5.105 1.073a168.93 168.93 0 0 1-5.13.93 203.182 203.182 0 0 1-10.703 1.453c-1.728.193-3.458.358-5.188.534-1.73.177-3.457.38-5.189.521-1.733.142-3.47.24-5.206.328-1.86.095-3.721.176-5.583.228-1.738.05-3.479.02-5.216.086-1.648.062-3.34-.329-5.463.345 1.52.829 2.648 1.17 3.875 1.343 6.183.87 12.383.783 18.59.402 12.416-.76 24.711-2.498 36.877-5.025 4.968-1.032 9.814-2.684 14.682-4.166 10.833-3.299 21.261-7.626 31.481-12.484 2.348-1.116 4.784-2.076 7.24-2.934 12.574-4.39 25.421-7.686 38.609-9.653a204.427 204.427 0 0 1 34.911-2.168c.832.02 1.661.157 2.541.244-.136 1.253-1.1 1.435-1.794 1.815-11.888 6.508-24.118 12.253-36.831 16.999-17.628 6.58-35.747 11.277-54.246 14.544-17.635 3.114-35.404 5.037-53.318 5.488-.813.02-1.625.072-2.475.111.189 1.005.879 1.053 1.453 1.168 4.529.91 9.121 1.072 13.718.99 12.32-.223 24.52-1.746 36.686-3.567 4.417-.661 8.814-1.476 13.206-2.29 2.822-.524 5.647-.81 8.517-.706 9.968.36 19.794 1.541 29.328 4.673 9.668 3.175 18.388 8.065 26.372 14.322.362.284.624.697 1.2 1.357-.866.22-1.391.451-1.926.476-6.078.285-12.156.689-18.238.77-15.781.213-31.534-.351-47.278-1.57-22.94-1.776-45.63-5.248-68.244-9.362-9.91-1.803-19.954-2.527-30.009-2.98-7.819-.353-15.64-.337-23.468-.113-2.447.07-4.26.74-5.809 2.581-1.453 1.726-3.313 2.993-5.316 4.024-3.385 1.743-4.757 1.512-7.606-1.227-.18-.171-.337-.364-.726-1.032-.25-3.76-.28-7.037-.31-10.314zm0 0" fill="#f8f8f9" data-name="P"/><path d="M882.63 543.394c9.121-6.245 16.858-13.496 22.751-22.614 5.955-9.213 9.03-19.267 9.082-30.248.01-2.09-.3-4.199.221-6.407 2.74-.162 5.017 1.372 7.54 1.805 2.69.46 5.356 1.078 8.059 1.43 2.581.336 5.193.494 7.796.591 2.596.097 5.198.021 7.744.021.81.995.042 1.725-.325 2.41-1.896 3.53-3.146 7.29-4.096 11.16-2.471 10.072-.68 19.449 4.667 28.234.58.954 1.154 1.913 1.696 2.888.106.192.054.471.093.908-.304.213-.655.564-1.078.738-6.892 2.842-11.125 8.212-13.767 14.897-2.187 5.537-3.973 11.232-5.997 16.835-1.097 3.034-2.248 6.053-3.513 9.02-.728 1.704-1.745 3.285-2.611 4.932-.74 1.41-1.873 2.174-3.429 2.592-5.93 1.594-10.906 4.705-14.677 9.622-.301.393-.571.811-.914 1.3-.929-.355-1.638-.524-2.245-.873A29990.574 29990.574 0 0 1 857 568.114c-.526-.303-1-.693-1.64-1.14l1.062-8.281c8.75-4.852 17.826-9.227 26.207-15.299zm0 0" fill="#fcd638" data-name="P"/><path d="M1066.855 385.587c-3.531-1.565-6.493-3.524-9.55-5.756.829-.956 1.796-1.159 2.656-1.508 7.825-3.18 15.53-6.607 22.98-10.607 6.473-3.475 12.657-7.38 18.355-12.018 1.684-1.37 3.507-2.26 5.599-2.782 14.572-3.637 29.132-7.324 43.702-10.974 2.41-.603 4.843-1.094 7.362-.956 1.246.068 2.488.06 3.672 1.043.757 2.895-.33 5.495-2.069 7.814-1.635 2.18-3.462 4.23-5.321 6.228-11.633 12.505-25.12 22.504-40.545 29.868-1.925.92-3.816 1.531-6.065 1.148-12.549-2.136-25.19-2.436-37.873-1.621a64.65 64.65 0 0 1-2.903.121zm0 0" fill="#fbfbfb" data-name="P"/><path d="M924.728 434.41c.134 3.543.165 6.82.206 10.425-.195 1.038-.467 1.736-.596 2.46-1.836 10.308-6.47 19.307-12.813 27.516-.826 1.069-1.603 2.176-2.737 3.592-1.872 1.504-3.5 2.584-4.528 4.3-1.028.671-2.024 1.398-3.09 2.003-2.03 1.154-4.037 2.385-6.171 3.317-2.882 1.258-5.934 1.643-9.567.717-3.176-1.655-5.44-3.552-6.606-6.438-1.706-4.22-2.121-8.612-1.551-13.124.262-2.077.364-4.173.538-6.261.589-1.354 1.26-2.678 1.752-4.065 2.708-7.645 6.42-14.74 11.651-20.96 2.061-2.45 4.415-4.653 6.671-7.189.036-.22-.031-.231-.031-.231.64-.313 1.314-.575 1.916-.95 1.677-1.045 3.257-2.27 5.005-3.171a21.086 21.086 0 0 1 4.858-1.787c6.776-1.566 11.649 1.053 14.203 7.5.273.689.524 1.386.89 2.345zm0 0" fill="#fd9232" data-name="P"/><path d="M1150.088 452.28c-3.044.356-5.762.634-8.465 1.018-1.208.17-2.138-.153-3.073-.903-2.903-2.328-5.763-4.729-8.814-6.851-9.484-6.6-19.888-11.166-31.204-13.572-3.031-.644-6.108-1.072-9.16-1.622-.44-.08-.859-.283-1.48-.494 7.354-3.982 33.157-6.853 50.407-5.503 20.323 1.59 44.812 9.941 57.17 18.014-14.648 5.478-29.715 8.272-45.381 9.913zm0 0" fill="#fafafa" data-name="P"/><path d="M1191.713 405.899c3.668-.997 6.894-.55 10.162.556 6.583 2.23 13.254 4.2 19.827 6.457 3.4 1.168 6.681 2.714 9.643 4.796 1.204.846 2.315 1.875 3.291 2.979.904 1.021.877 2.227.095 3.435-1.474 2.276-3.553 3.8-5.96 4.902-5.079 2.326-10.151 4.67-15.282 6.877-3.305 1.421-6.738 2.541-10.055 3.937-1.639.69-2.989.622-4.548-.284-5.919-3.437-12.22-6.097-18.525-8.722-7.585-3.158-15.467-5.393-23.461-7.257-1.544-.36-3.19-.431-4.67-1.251 3.83-4.184 25.8-13.328 39.483-16.425zm0 0" fill="#fbfbfb" data-name="P"/><path d="M877.563 463.026a38.04 38.04 0 0 1-.288 6.152c-.57 4.512-.155 8.904 1.55 13.124 1.167 2.886 3.431 4.783 6.325 6.38-.918 5.117-1.327 10.188-1.363 15.29-.028 3.85.078 7.7.103 11.55.007 1.096-.057 2.193-.09 3.365-1.087.38-1.991.768-2.932 1.014-6.523 1.707-11.636 5.399-15.5 10.887-2.146 3.046-4.27 6.109-6.493 9.097-.957 1.284-2.126 2.414-3.243 3.57-.21.217-.632.226-.926.322-.198-.273-.456-.461-.456-.65-.042-22.48-.067-44.96-.077-67.44 0-.47.187-.942.317-1.552.797-.042 1.523-.157 2.237-.105 3.986.287 7.643-.805 11.027-2.776 3.338-1.945 6.437-4.218 8.667-7.48.194-.284.59-.43 1.142-.748zm0 0" fill="#fbd438" data-name="P"/><path d="M1121.926 471.128c1.033-4.389 1.978-8.484 2.9-12.479 3.754-1.077 13.11-1.609 16.083-.911-4.056 28.95-16.266 54.367-33.441 77.864-5.912-.29-11.587-1.25-17.09-3.014-.067-1.686 1.066-2.433 1.79-3.388 2.245-2.964 4.608-5.841 6.79-8.85 6.952-9.587 12.648-19.902 16.979-30.905 2.311-5.873 3.955-12.007 5.989-18.317zM1157.895 462.019c2.142 2.087 4.064 4.026 6.052 5.894.975.917 1.446 1.901 1.318 3.279-.99 10.665-3.06 21.098-6.691 31.192-3.339 9.279-7.909 17.898-13.772 25.847-1.122 1.52-2.366 2.332-4.193 2.696-2.667.53-5.262 1.414-7.916 2.026-3.135.724-6.295 1.345-9.456 1.95-.705.136-1.457.02-2.111.02-.701-1.117.113-1.748.552-2.418 2.578-3.942 5.337-7.773 7.768-11.803 6.489-10.755 11.831-22.065 15.945-33.947 2.927-8.452 5.322-17.04 6.835-25.864.144-.836.441-1.646.713-2.635 2.164.638 3.276 2.37 4.956 3.763zm0 0" fill="#fab339" data-name="P"/><path d="M1091.484 491.308c-4.277 9.798-9.933 18.328-17.329 25.674-2.014 2-4.083 3.95-6.378 5.497-3.159-1.215-7.407-3.911-10.912-6.93.32-.563.598-1.22 1.018-1.766 3.699-4.818 7.528-9.527 10.685-14.752 6.926-11.464 11.873-23.699 14.751-36.776.289-1.317.651-2.617.954-3.826 3.331-.521 11.983-.283 15.248.423 0 .645.084 1.36-.013 2.05-1.455 10.358-3.995 20.433-8.024 30.406zm0 0" fill="#f9b239" data-name="P"/><path d="M1028.186 395.385c4.687-.924 9.066-1.8 13.454-2.63 16.771-3.173 33.673-4.66 50.743-3.808 2.969.149 5.926.573 8.885.895.196.022.368.264.671.495-.259.228-.46.536-.734.629-9.665 3.28-19.55 5.57-29.703 6.724a186.093 186.093 0 0 1-30.481.951c-1.898-.096-3.377.3-4.608 1.765-2.648 3.154-6.24 4.715-10.014 6.106-7.581 2.794-15.338 4.976-23.123 7.084-.347.094-.718.098-1.238.165-.432-.536-.91-1.089-1.343-1.674-1.823-2.462-3.633-4.934-5.46-7.42 3.185-1.83 9.503-3.602 32.951-9.282zm0 0" fill="#f5f5f6" data-name="P"/><path d="M1090.344 359.04c-8.648 5.68-17.914 10.161-27.447 14.118-20.92 8.683-42.586 15.059-64.448 20.825-3.71.979-7.42 1.96-11.084 2.929-1.788-1.119-3.42-2.164-4.808-3.833 1.394-1.086 2.83-1.49 4.184-1.984 11.66-4.259 23.285-8.621 35.018-12.672 20.188-6.97 40.583-13.292 61.195-18.902 1.917-.522 3.813-1.12 6.237-1.577.73.435.941.766 1.153 1.096zm0 0" fill="#f4f4f5" data-name="P"/><path d="M897.92 430.449c-.396-.243-.786-.45-1.266-.707.013-.275-.079-.672.06-.957 5.135-10.531 12.069-19.583 21.703-26.427 10.91-7.751 23.064-11.267 36.397-10.586 4.848.247 9.55 1.499 14.126 3.076 7.61 2.621 14.237 6.897 20.121 12.355.27.25.464.58.65 1.266-.174.534-.303.673-.433.813-5.166-2.068-10.266-4.291-15.638-5.83-7.689-2.205-15.493-3.267-23.484-2.722-10.436.713-20.131 3.793-29.148 9.107-7.633 4.498-14.426 10.023-20.494 16.45-1.096 1.162-2.02 2.487-2.84 3.96.182.225.25.236.245.202zm0 0" fill="#cfcfd2" data-name="P"/><path d="M1058.477 465.023c-1.425 5.327-2.991 10.269-5.242 14.998-3.25 6.827-10.071 14.294-17.217 17.91-2.546-1.511-7.35-6.107-9.497-9.084 15.988-19.37 12.764-16.063 18.802-33.482.218-.105.445-.317.653-.3 4.313.381 8.624.779 12.932 1.205.335.034.646.307 1.174.573-.164 2.675-.98 5.26-1.605 8.18zm0 0" fill="#f9b239" data-name="P"/><path d="M1239.202 421.8c1.203.179 2.395.543 3.496 1.092 12.447 6.198 24.879 12.425 37.316 18.645.444.222.876.47 1.33.67 1.653.73 2.417 2.086 2.599 3.794.105.984.084 1.983.089 2.975.025 5.836.03 11.67.064 17.506.017 2.848-.148 5.699.553 8.52.263 1.059.123 2.223.127 3.34.026 6.083.031 12.167.063 18.25.014 2.724-.128 5.45.545 8.148.264 1.06.134 2.223.139 3.339.024 5.96.028 11.918.053 17.878.011 2.6.216 5.179.482 7.776.377 3.671.095 7.41-.205 11.17-.306-1.495-.748-2.977-.89-4.488-.371-3.942-.574-7.9-.915-11.845-.34-3.943-.763-7.878-1.16-11.816-.049-.491-.199-.975-.236-1.467-.29-3.95-.505-7.906-.858-11.85-.353-3.942-.837-7.87-1.265-11.804-.027-.247-.086-.49-.104-.737-.285-3.95-.515-7.906-.863-11.851-.348-3.942-.813-7.873-1.23-11.808-.039-.37-.129-.735-.157-1.105-.286-3.826-.564-7.653-.844-11.48-.037-.495-.044-.994-.118-1.483-.54-3.567-.738-3.845-3.789-5.925-10.044-6.847-20.075-13.713-30.129-20.545-1.224-.832-2.557-1.505-4.12-2.352-.196-.824-.111-1.55.027-2.546zm0 0" fill="#ffa84b" data-name="P"/><path d="M840.144 552.9c-.291-.363-.304-.737-.137-1.634.297-1.248.512-1.972.514-2.697.02-6.06.01-12.12-.018-18.18-.004-.86-.156-1.718-.237-2.577-.148-1.594-.408-3.187-.421-4.782-.06-7.42-.054-14.84-.07-22.26-.002-1.607.075-3.223-.602-4.744.4-.24 1.004-.389 1.163-.739.405-.896.605-1.885.901-2.832 1.521-4.87 3.316-9.628 5.789-14.105.406-.735.916-1.413 1.63-2.5.304.817.552 1.208.58 1.615.07.989.045 1.985.045 2.979.002 21.364.001 42.728.001 64.093v3.867c-3.016 1.528-5.938 3.007-9.138 4.496zm0 0" fill="#f5d038" data-name="P"/><path d="M1137.179 411.139c6.941-3.663 13.656-7.156 20.285-10.807 1.831-1.008 3.595-1.449 5.662-1.25 7.296.702 14.537 1.743 21.708 3.258.431.091.818.39 1.311.634-.332.318-.464.552-.647.603-13.358 3.73-25.814 9.529-37.786 16.44-.215.124-.442.233-.643.377-1.284.921-2.659 1.04-4.228.847-6.164-.76-12.355-1.2-18.574-1.042-1.861.048-3.72.15-5.581.214-.425.015-.852-.022-2.046-.059 2.2-1.45 4-1.882 5.653-2.61 1.589-.7 3.218-1.31 4.809-2.007 1.704-.746 3.384-1.549 5.077-2.324a1066.1 1066.1 0 0 1 5-2.274zm0 0" fill="#f6f7f7" data-name="P"/><path d="M864.413 453.008c-2.907-4.516-6.87-5.347-11.504-4.145-1.419.368-2.803.872-4.454 1.393-.105-.76-.299-1.327-.237-1.866.256-2.243.922-4.372 2.229-6.232 3.372-4.798 7.29-9.063 12.263-12.262 1.992-1.281 4.106-2.298 6.445-2.771 3.295-.667 5.566.458 6.963 3.468 1.067 2.301 1.31 4.774 1.26 7.258-.132 6.549-1.85 12.717-4.8 18.531-1.176 2.319-2.8 4.315-5.373 5.77-.985-1.591-.733-3.256-1.187-4.712-.44-1.41-.974-2.792-1.605-4.432zm0 0" fill="#f9d744" data-name="P"/><path d="M998.867 382.647c-.463-1.364-1.418-2.12-2.496-2.803-3.562-2.257-7.111-4.536-10.67-6.8-1.57-.997-3.094-2.087-4.74-2.941-2.499-1.297-3.452-3.172-3.346-6.02.195-5.208.097-10.428.026-15.641-.027-1.973-.327-3.94-.482-5.912-.077-.988-.154-1.98-.154-2.97-.02-25.08-.029-50.158-.037-75.238 0-.85.036-1.702.506-2.558.07.66.185 1.318.2 1.978.062 2.601-.052 5.204.621 7.77.246.937.117 1.975.14 2.967.065 2.723-.104 5.45.593 8.145.273 1.056.129 2.222.154 3.338.059 2.6-.079 5.205.587 7.774.244.939.133 1.974.154 2.966.054 2.477-.07 4.959.582 7.4.219.82.135 1.727.154 2.595.068 2.971-.085 5.947.632 8.888.26 1.061.053 2.228.135 3.34.164 2.22.388 4.434.572 6.651.071.865.128 1.733.149 2.6.08 3.343-.095 6.689.648 10.006.292 1.306.049 2.724.14 4.085.139 2.097.36 4.187.537 6.281.073.865.2 1.736.16 2.597-.17 3.737.416 7.415.765 11.113.127 1.355.73 2.315 1.791 3.094 3.697 2.715 7.416 5.4 11.054 8.191 2.539 1.949 5.385 3.56 7.38 6.54-1.762 1.033-3.631 1.798-5.755 2.564zm0 0" fill="#ffa84b" data-name="P"/><path d="M1197.619 541.571c-1.135-3.02-2.224-6.058-3.413-9.057-2.899-7.316-6.679-14.142-11.717-20.21-3.659-4.407-7.904-8.184-12.633-11.337-1.392.775-1.579 2.09-2.019 3.194-1.998 5-4.797 9.518-8.061 13.775-1.122 1.464-2.414 2.675-4.484 3.64.117-.93.061-1.54.281-2.025.612-1.355 1.356-2.65 2.018-3.983 5.36-10.787 8.394-22.26 10.044-34.139.114-.825.242-1.649.434-2.948.583.685 1.01.98 1.141 1.373.784 2.352 1.725 4.685 2.165 7.106.333 1.83 1.114 3.18 2.305 4.513 2.562 2.865 5.097 5.764 7.471 8.786 4.707 5.992 8.214 12.7 11.266 19.649 2.957 6.731 4.896 13.79 6.23 21.283-.552.359-.79.37-1.028.38zm0 0" fill="#cccdcf" data-name="P"/><path d="M1057.646 562.528c-2.188 2.805-5.509 4.066-8.457 5.855-7.092 4.305-14.292 8.433-21.456 12.62a15462.077 15462.077 0 0 1-26.637 15.537 13025.108 13025.108 0 0 1-26.356 15.282c-.199.114-.47.101-.713.149-.582-.385-.4-.873-.02-1.19.759-.633 1.59-1.179 2.402-1.746 9.938-6.955 19.874-13.914 29.822-20.856 3.555-2.48 7.148-4.908 10.712-7.376 9.571-6.63 19.141-13.264 28.697-19.916.702-.49 1.289-1.144 2.079-1.928 3.341 1 6.533 2.206 9.927 3.569zm0 0" fill="#fea74b" data-name="P"/><path d="M856.578 427.888c3.628-6.51 8.599-11.762 14.87-15.77 2.101-1.343 4.374-2.322 6.864-2.713 4.266-.67 7.242 1 8.843 5 1.424 3.558 1.444 7.282 1.027 10.992-.799 7.115-3.219 13.714-6.728 19.927-.217.384-.613.668-1.323 1.42.176-1.3.252-2.013.371-2.719.56-3.317.806-6.665.269-9.984-.313-1.93-.832-3.903-1.676-5.654-1.896-3.93-5.503-5.646-9.841-5.004-2.866.425-5.465 1.544-7.924 3.039-1.16.705-2.342 1.375-3.926 1.982-.55-.225-.688-.37-.826-.516zm0 0" fill="#f4d344" data-name="P"/><path d="M1027.712 495.519c1.31 1.286 2.614 2.578 3.932 3.856.531.515 1.103.988 1.633 1.504 6.116 5.95 12.63 11.43 19.493 16.5.981.724 1.839 1.614 2.914 2.844-.584 5.313-1.328 10.21-2.072 15.108-2.054-.451-4.098-.96-6.166-1.337-2.05-.375-4.123-.618-6.228-.924-.97-4.204-1.675-8.368-2.923-12.361-1.289-4.123-2.912-8.172-4.746-12.085-1.779-3.798-4.013-7.383-6.054-11.69.068-.892.143-1.154.217-1.415zm0 0" fill="#f8d238" data-name="P"/><path d="M1028.281 518.573c-1.373-2.207-2.757-4.406-4.116-6.622-4.81-7.84-10.298-15.175-16.39-22.067-2.628-2.973-5.925-4.891-9.614-6.1-3.473-1.138-6.192-.673-8.42 2.71-.317.481-.483 1.171-1.506 1.207-.27-2.9.243-5.635 1.671-8.131 1.36-2.376 3.538-3.421 6.278-3.048a16.27 16.27 0 0 1 6.908 2.6c5.626 3.755 10.481 8.288 14.286 13.93 5.021 7.445 8.927 15.443 11.989 24.316-.438.733-.762.97-1.086 1.205zm0 0" fill="#cbcbcd" data-name="P"/><path d="M946.497 503.258c.243-1.047.421-1.77.602-2.491 1.6-6.379 5.725-10.555 11.562-13.229.45-.206.918-.376 1.39-.529 4.355-1.409 7.53-.069 9.495 4.07 1.24 2.61 1.75 5.395 1.795 8.274-.877.469-1.028-.334-1.386-.711-1.024-1.076-1.963-2.24-3.055-3.24-4.725-4.325-9.796-1.786-12.251 2.19-.83 1.344-1.327 2.934-1.762 4.471-.985 3.484-1.21 7.078-1.298 10.683-.156 6.34.361 12.64 1.028 18.935.051.484.094.969.165 1.714-.452-.218-.864-.28-.938-.473-3.649-9.438-6.42-19.042-5.347-29.664zm0 0" fill="#cbccce" data-name="P"/><path d="M987.412 469.298c-5.342 5.35-11.825 8.14-18.601 10.322-2.826.91-5.772 1.453-8.675 2.114-.704.16-1.454.124-2.52.204.925-1.189 2.013-1.498 2.963-1.98 5.88-2.988 11.562-6.308 16.624-10.558 5.063-4.25 9.661-8.942 12.591-15.001.647-1.338 1.187-2.727 1.793-4.085.394-.881.818-1.75 1.25-2.669 1.966.06 3.474.832 5.166 1.753-.102.744-.109 1.48-.31 2.157-1.856 6.275-4.71 12-9.34 16.73-.26.267-.503.55-.941 1.013zm0 0" fill="#cccdcf" data-name="P"/><path d="M834.201 474.048c-.763-4.986-1.282-10.013-1.734-15.047-.144-1.598-.125-3.212-.15-4.82-.018-1.2-.47-2.113-1.484-2.811-2.342-1.61-4.643-3.279-6.965-4.918-2.018-1.426-4.084-2.788-6.041-4.293-.747-.574-1.249-1.467-1.909-2.472 2.233-1.266 4.514-2.273 7.24-3.128 2.513 1.497 4.492 3.01 6.67 4.136 2.17 1.122 4.067 2.824 6.573 3.27.109.602.33 1.209.31 1.807-.153 4.613.772 9.067 1.793 14.16-.124 3.077-.14 5.489-.16 7.901-.01 1.234.107 2.421 1.15 3.286-1.675.961-3.349 1.922-5.293 2.928zm0 0" fill="#f9a34b" data-name="P"/><path d="M802.887 432.815c-.446-1.422-1.37-2.204-2.415-2.935a7468.651 7468.651 0 0 1-21.565-15.144c-6.065-4.279-12.111-8.584-18.158-12.888-.378-.268-.69-.63-1.017-.935.553-.95 1.148-.509 1.615-.24 3.326 1.908 6.629 3.858 9.944 5.786 7.165 4.167 14.342 8.314 21.498 12.496a1505.416 1505.416 0 0 1 19.354 11.492c-2.708 1.624-5.827 2.043-9.256 2.368zm0 0" fill="#fda84b" data-name="P"/><path d="M904.38 482.99c.907-2.003 2.536-3.083 4.319-4.362 1.323 1.467 1.81 3.225 2.15 5.088 2.26 12.352-1.046 23.367-8.003 33.493-1.332 1.938-2.931 3.692-4.58 5.673-.173.141-.129.161-.129.161-.418-1.07.235-1.92.6-2.82 1.356-3.336 2.825-6.63 4.077-10.003 2.224-5.988 3.426-12.186 3.336-18.596-.04-2.874-.492-5.686-1.77-8.635zm0 0" fill="#cacacb" data-name="P"/><path d="m1059.022 521.999 11.836 6.908v15.598c-.907.675-1.447-.024-1.981-.442-3.219-2.52-6.536-4.877-10.475-7.047-.153-1.35-.281-2.241-.07-3.042.725-2.75.57-5.544.614-8.331.019-1.215.05-2.43.076-3.644zm0 0" fill="#f9d238" data-name="P"/><path d="M850.903 453.512c1.445-.512 2.581-1.065 3.778-1.281 3.815-.688 6.263.795 7.37 4.47.424 1.408.647 2.894.804 4.361.13 1.213.026 2.451.026 3.738-2.219 1.72-4.675 2.34-7.32 2.257-2.688-.084-4.724-1.392-6.001-3.725-1.014-1.853-1.559-3.872-1.771-5.998-.158-1.581.37-2.63 1.834-3.226.342-.14.667-.321 1.28-.596zm0 0" fill="#f5d444" data-name="P"/><path d="M1072.846 556.752c-.903-.624-1.856-1.187-2.701-1.881-4.225-3.473-8.654-6.646-13.509-9.18-2.76-1.44-5.634-2.606-8.798-2.786-.986-.055-1.986-.077-2.966.021-2.477.25-4.562 1.15-5.598 3.651-.136.33-.4.606-.61.914-1.171-1.197-1.751-2.105-1.815-3.664-.044-1.073.113-2.246.536-3.218.311-.714 1.11-1.42 1.853-1.694 1.37-.504 2.854-.94 4.296-.961 6.392-.094 12.209 1.848 17.453 5.453 3.484 2.395 6.633 5.206 9.491 8.321 1.075 1.172 1.999 2.482 3.086 4.061-.176.543-.447.753-.718.963zm0 0" fill="#c8c9cb" data-name="P"/><path d="M814.622 434.196c-2.104 1.586-4.484 2.605-6.963 3.442-7.658 2.585-15.519 3.327-23.522 2.475-5.38-.573-10.446-2.107-14.836-5.465-2.207-1.688-4.104-3.597-4.994-6.678.35-.62.51-.77.67-.92 1.225.835 2.455 1.663 3.672 2.509 5.59 3.884 11.797 6.132 18.514 7.096 7.46 1.07 14.788.394 22.056-1.437 1.545-.389 3.14-.584 5.038-.932.326-.063.365-.09.365-.09zm0 0" fill="#c3c4c6" data-name="P"/><path d="M776.111 395.856c6.29 8.638 15.245 12.337 25.446 13.684 11.129 1.47 22.028-.106 32.841-2.614 3.243-.753 6.454-1.639 9.642-2.454.511.983-.101 1.361-.57 1.611-1.306.696-2.608 1.542-4.019 1.876-9.917 2.348-19.888 4.3-30.168 4.065-5.619-.129-11.133-.803-16.552-2.284-4.232-1.157-8.215-2.875-11.687-5.573-2.44-1.897-4.757-3.975-5.62-7.485.369-.571.528-.698.687-.826zm0 0" fill="#b4b5b8" data-name="P"/><path d="M862.76 550.321c3.892-2.852 7.779-5.696 10.886-9.467 1.669-2.025 3.274-4.096 4.221-6.533.617-1.586.935-3.329 1.117-5.03.132-1.235-.697-2.112-1.934-2.38-1.082-.234-2.201-.29-3.315-.427 1.592-1.153 1.592-1.151 4.048-1.658 1.588-.328 3.185-.608 4.786-.146 1.89.547 2.834 1.838 2.721 3.909-.122 2.249-.788 4.365-1.791 6.396-2.675 5.41-6.945 9.328-11.9 12.522-2.596 1.673-5.438 2.965-8.455 4.197-.32-.616-.352-1-.384-1.383zm0 0" fill="#c9cacc" data-name="P"/><path d="M839.18 495.736c.67 1.81.593 3.427.596 5.034.015 7.42.008 14.84.069 22.26.013 1.595.273 3.188.422 4.782.08.859.232 1.718.236 2.577.029 6.06.038 12.12.018 18.18-.002.725-.217 1.45-.515 2.416-.224-2.968-.015-6.184-.82-9.36-.266-1.054-.05-2.221-.13-3.332-.104-1.475-.273-2.946-.432-4.417-.053-.491-.2-.973-.232-1.464-.287-4.312-.5-8.63-.85-12.936-.351-4.301-.84-8.591-1.26-12.887-.083-.86-.163-1.725-.18-2.59-.046-2.225-.014-4.44-.578-6.638-.27-1.056-.08-2.22-.197-3.326-.183-1.713-.45-3.418-.726-5.464.415-.645.873-.951 1.476-1.355 1.575 2.706 2.222 5.516 3.104 8.52zm0 0" fill="#fcab49" data-name="P"/><path d="M817.887 415.36c3.09-.389 5.923-.67 8.727-1.131 2.802-.46 5.577-1.088 8.36-1.662 2.75-.568 5.403-1.582 8.882-2.187-4.532 5.618-9.615 9.4-15.011 12.625-2.993-1.168-9.167-4.63-12.114-6.756-.126-.72.453-.715 1.156-.888zm0 0" fill="#f0cc38" data-name="P"/><path d="M890.452 390.742c-5.806-2.215-11.434-1.623-17.651-.366.666-.743.882-1.154 1.22-1.333a35.182 35.182 0 0 1 10.494-3.601c8.07-1.396 13.502 2.029 15.714 9.918 1.293 4.612 2.052 9.072 1.165 13.136-1.483-7.384-3.657-14.016-10.942-17.754zm0 0" fill="#c3c4c6" data-name="P"/><path d="M939.54 567.439c1.265-2.122 2.622-4.195 3.774-6.377 1.73-3.28 3.325-6.632 4.955-9.965.271-.553.457-1.152.638-1.743 1.211-3.958.305-6.542-3.86-7.729-.687-.196-1.343-.496-2.122-.79 2.412-1.928 5.922-2.766 8.27-2.047 1.385.425 2.362 1.286 2.831 2.702.559 1.687.831 3.433.261 5.11-.752 2.215-1.537 4.466-2.681 6.49-2.25 3.977-4.697 7.843-7.821 11.242-1.072 1.166-1.846 2.605-3.17 3.907-.634-.274-.855-.537-1.076-.8zm0 0" fill="#c7c8ca" data-name="P"/><path d="M1029.898 391.165c-1.968.48-3.936.961-6.464 1.39-1.206-.299-1.852-.548-2.498-.797.193-.16.413-.259 1.065-.27.662-.116.917-.259 1.173-.401.577-.225 1.144-.477 1.731-.672 8.35-2.763 16.703-5.52 25.056-8.276.701-.231 1.407-.442 2.317-.727 1.182.718 2.473 1.438 3.693 2.263 1.083.732 2.443 1.141 3.407 2.618-4.261.867-8.288 1.21-12.27 1.832-4.04.632-8.053 1.433-12.647 2.155-.731.063-.891.13-1.052.197-.757.187-1.515.374-2.64.508-.581-.076-.749.002-.871.18zm0 0" fill="#ebecec" data-name="P"/><path d="M929.234 609.462c-.24-.042-.518-.02-.716-.134-5.55-3.209-11.093-6.43-16.633-9.658-.094-.055-.136-.202-.344-.528.376-.334.727-.809 1.199-1.037 2.454-1.188 5.01-1.991 7.76-2.265 3.665-.365 6.617 2.157 7.641 4.723.966 2.42 1.587 4.927 1.64 7.93-.328.554-.461.745-.547.97zm0 0" fill="#f0cc38" data-name="P"/><path d="M963.843 379.365a4107.48 4107.48 0 0 1 15.972 9.29c.166.098.222.382.386.683-.304.156-.615.456-.902.435a11.252 11.252 0 0 1-2.181-.395 119.478 119.478 0 0 0-22.635-4.005c-.474-.037-.939-.206-1.567-.35.219-.433.287-.844.517-.98 2.662-1.577 5.347-3.115 8.03-4.655.678-.39 1.391-.498 2.38-.023zm0 0" fill="#ecc937" data-name="P"/><path d="M836.485 443.623c-2.59-.104-4.488-1.806-6.657-2.928-2.178-1.127-4.157-2.64-6.404-4.18 2.428-1.506 5.04-2.806 7.64-4.132.822-.42 1.615-.527 2.442-.054 1.156.662 2.316 1.32 3.567 2.032-.175 3.084-.34 6.003-.588 9.262zm0 0" fill="#f5d038" data-name="P"/><path d="M827.71 577.254c2.076-2.114 4.032-4.364 6.263-6.3 1.755-1.522 3.785-2.762 5.806-3.933 2.105-1.22 4.482-1.307 6.853-.997.413.054.787.412 1.088.578-.017.357.006.488-.036.594a.639.639 0 0 1-.23.286c-.517.336-1.035.672-1.57.98a7371.234 7371.234 0 0 1-14.784 8.527c-.63.362-1.291.67-2.356 1.018-.623-.24-.828-.497-1.033-.753zm0 0" fill="#e9c637" data-name="P"/><path d="M1127.105 595.632c-5.245-3.05-10.259-5.957-15.262-8.88-.188-.11-.276-.39-.421-.606.038-.92.795-1.135 1.459-1.361 2.135-.73 4.192-.313 6.046.795 4.397 2.63 7.953 6.163 10.751 10.454.047.072-.016.217-.03.35-.967.56-1.561-.332-2.543-.752zm0 0" fill="#e7c537" data-name="P"/><path d="M1058.909 521.793c.087 1.42.056 2.635.037 3.85-.044 2.787.111 5.582-.614 8.33-.211.802-.083 1.693-.118 2.874-1.416-.179-2.825-.688-4.418-1.357.56-5.057 1.304-9.954 2.107-15.139 1.278-.29 2.009.615 3.006 1.442zm0 0" fill="#f9a64a" data-name="P"/><path d="M1008.007 465.197c.169.995.275 1.72.398 2.563-1.6-1.235-1.826-1.594-2.815-4.364-1.781-4.992-2.28-10.975-1.254-15.317 1.246-.38 2.343.031 3.51.688-.253 2.73-.711 5.41-.693 8.088.018 2.693.508 5.382.854 8.342zm0 0" fill="#b8b8bb" data-name="P"/><path d="m836.14 481.969 1.475-3.3-1.22-1.514 8.986-5c.203.175.328.236.374.334a.457.457 0 0 1 .008.35c-1.89 3.852-3.786 7.7-5.693 11.542-.036.074-.213.077-.495.167-.812-.515-.816-1.614-1.34-2.374-.425-.618-.961-.66-1.858-.293-.27.097-.237.088-.237.088zM1015.03 394.774c-4.39 1.27-8.779 2.544-13.169 3.812-2.85.824-5.693 1.673-8.56 2.434-.527.14-1.167-.022-1.725-.165-.417-.107-.521-1.084-.16-1.231.677-.279 1.368-.54 2.076-.727 6.214-1.646 12.434-3.275 19.131-4.733 1.121.32 1.764.465 2.407.61zm0 0" fill="#bababd" data-name="P"/><path d="M1038.483 403.601c.402 1.052.967 1.924 1.86 2.624a139.6 139.6 0 0 1 5.152 4.223c-3.725-.052-7.369-.998-11.043-2.726.879-1.868 2.404-2.896 4.031-4.12zm0 0" fill="#e6b83b" data-name="P"/><path d="M839.737 471.042c-1.286-.788-1.402-1.975-1.392-3.209.019-2.412.035-4.824.082-7.622.316-.006.643.35.882.759 1.41 2.402 2.798 4.815 4.282 7.377-.724 1.317-2.328 1.762-3.854 2.695zm0 0" fill="#ecc937" data-name="P"/><path d="M1028.307 518.836c.298-.499.622-.735 1.144-1.201 1.564 1.976 2.302 4.4 2.679 7.236.002.286.018.258.018.258-1.904-1.61-2.622-3.97-3.841-6.293zM1197.602 541.857c.255-.297.493-.307 1.087-.347 1.512 2.052 1.369 4.342 1.493 6.621-1.424-1.793-1.955-3.914-2.58-6.274zm0 0" fill="#97989b" data-name="P"/><path d="M1015.283 394.77c-.896-.14-1.539-.285-2.362-.6-.179-.172.057-.31.43-.282.788-.166 1.203-.36 1.618-.554 1.799-.538 3.597-1.076 5.681-1.595.932.268 1.578.517 2.487.827-.559.34-1.38.618-2.692.889-.907.174-1.324.354-1.74.535-.26.06-.52.12-1.167.155-.608.085-.828.193-1.048.3-.318.107-.636.214-1.207.325zm0 0" fill="#cfcfd2" data-name="P"/><path d="M818.914 499.176c-.887 1.96-2.854 2.63-4.466 4.165-.092-.679-.223-.967-.133-1.086a67.014 67.014 0 0 1 3.346-4.082c.48.21.74.521 1.253 1.003zm0 0" fill="#786c35" data-name="P"/><path d="M939.33 567.583c.43.119.652.382 1.081.798-1.041 1.685-2.291 3.217-3.85 4.86-.479-.097-.65-.305-.822-.514.7-1.955 2.145-3.407 3.592-5.144zm0 0" fill="#b4b5b8" data-name="P"/><path d="M1072.976 556.963c.141-.421.412-.63.813-1.062 2.387.858 3.607 3.082 5.288 4.866-.407.301-.641.342-.875.382-1.699-1.325-3.397-2.65-5.226-4.186zM1090.592 359.023c-.46-.314-.671-.644-1.115-1.164 1.187-1.091 2.764-1.304 4.761-1.519-1.061 1.468-2.271 2.013-3.646 2.683zM862.516 550.408c.276.297.308.68.37 1.35-1.011.797-2.052 1.306-3.67 1.797a17.276 17.276 0 0 1-1.263-.102c1.44-.986 2.88-1.971 4.563-3.045zm0 0" fill="#a2a3a6" data-name="P"/><path d="M935.532 572.857c.379.079.55.287.899.595-.372 1.743-1.815 2.627-3.242 3.804-.298.026-.454-.126-.454-.126.23-1.777 1.65-2.81 2.797-4.273zm0 0" fill="#838589" data-name="P"/><path d="M1078.341 561.356c.095-.247.329-.288.915-.391 1.345.816 2.338 1.694 3.44 2.775.11.202.131.178.131.178-1.991.215-3.027-1.332-4.486-2.562zm0 0" fill="#727377" data-name="P"/><path d="M1155.177 523.011c-.864.928-1.727 1.855-2.814 2.852-.222.071-.194.1-.194.1-.286-1.555.831-2.51 1.908-3.583.603.244.852.438 1.1.631zm0 0" fill="#97989b" data-name="P"/><path d="M1027.65 495.315c-.012.465-.087.727-.27 1.382-1.336-1.016-1.336-1.016-1.599-2.93.732.545 1.27.944 1.869 1.548zm0 0" fill="#998836" data-name="P"/><path d="M990.686 408.803c.308.165.708.26.903.511.263.34.632.975.497 1.18-.466.705-1.004.126-1.528-.609.021-.675.075-.878.128-1.082zm0 0" fill="#727377" data-name="P"/><path d="M827.516 577.374c.4.136.605.393 1.015.789-.375.544-.954.949-1.516 1.341-.874-.988-.09-1.454.5-2.13zm0 0" fill="#998836" data-name="P"/><path d="M1089.482 573.68c-.668-.17-1.343-.313-1.995-.528-.119-.04-.247-.427-.18-.557.08-.156.429-.34.546-.281.508.255.973.594 1.558 1.115.104.212.071.25.071.25zm0 0" fill="#504c34" data-name="P"/><path d="M929.355 609.644c-.035-.406.098-.597.428-.848.29-.08.43-.064.783-.023.197.366.183.707.132 1.301-.432.086-.827-.081-1.343-.43zm0 0" fill="#e6b83b" data-name="P"/><path d="M857.19 428.55c-.047.542-.294.86-.962 1.272-.603.085-.786.075-.969.066.298-.58.595-1.159 1.106-1.87.351.015.489.16.826.531zm0 0" fill="#f4d344" data-name="P"/><path d="M857.784 553.478c.397.003.625.03 1.187.143-.29.301-.914.516-1.78.682-.245-.05-.228-.036-.228-.036.217-.255.434-.51.82-.789zm0 0" fill="#727377" data-name="P"/><path d="M1014.736 393.315c-.182.213-.597.407-1.249.58.182-.215.599-.407 1.249-.58zm0 0" fill="#bababd" data-name="P"/><path d="M1032.118 525.164c.069.095.151.182.233.27a.886.886 0 0 1-.163-.212c-.04-.093-.056-.065-.07-.058zM1018.933 394.023c.188-.214.605-.394 1.251-.529-.189.218-.606.39-1.251.529zm0 0" fill="#97989b" data-name="P"/><path d="M764.246 427.714c-.456-.157-.662-.528-.74-1.204.13-.304.286-.486.286-.486.309.236.618.472 1.056.867-.031.308-.192.458-.602.823zm0 0" fill="#c3c4c6" data-name="P"/><path d="M775.383 396.413c-.343-.033-.513-.243-.508-.45.007-.309.137-.616.214-.924.272.137.544.274.919.614-.056.33-.215.458-.625.76zm0 0" fill="#b4b5b8" data-name="P"/><path d="m763.073 425.294-.333-.038c.098-.064.197-.129.29-.079-.007.115.043.117.043.117zm0 0" fill="#838589" data-name="P"/><path d="M990.544 408.693c.089.314.035.517-.097 1.027-.333.157-.588.009-1.006-.29-.033-.288.096-.427.425-.77.2-.204.536-.077.678.033zm0 0" fill="#cfcfd2" data-name="P"/><path d="M898.075 523.04c-.018.017-.172-.064-.172-.064s.137.106.186.087c.048-.02.004-.04-.014-.023zm0 0" fill="#cacacb" data-name="P"/><path d="M1155.327 522.617c-.398.2-.647.007-1.039-.376.366-.64.81-.58 1.039.376zm0 0" fill="#cccdcf" data-name="P"/><path d="M1030.03 391.231c-.01-.244.158-.322.504-.241.015.244-.154.327-.504.241zm0 0" fill="#b4b5b8" data-name="P"/><path d="M1022.95 391.058c-.032.171-.287.314-.766.434.032-.17.286-.316.766-.434zm0 0" fill="#cfcfd2" data-name="P"/><path d="M1033.533 390.552c.037-.142.197-.21.618-.255.008.125-.243.227-.618.255zm0 0" fill="#b4b5b8" data-name="P"/><path d="M1152.129 525.918c-.012-.016-.19.234-.19.234s.063-.2.147-.195c.083.005.055-.023.043-.04zm0 0" fill="#97989b" data-name="P"/><path d="M763.023 425.317c.224.126.448.228.72.518.049.189-.108.37-.192.464-.23-.134-.376-.361-.5-.797.022-.208-.028-.21-.028-.185zm0 0" fill="#c3c4c6" data-name="P"/><path d="M855.154 429.94c.288-.042.471-.033.926.019.246.297.124.493-.398.569-.407-.14-.51-.221-.613-.302 0 0-.019-.233.086-.285zm0 0" fill="#998836" data-name="P"/><path d="M855.521 430.603c-.241.437-.623.733-.546-.247.197-.05.3.032.546.247zm0 0" fill="#998836" data-name="P"/><path d="M836.1 481.996c-.006.017-.134-.006-.134-.006s.157.076.166.027c.008-.048-.025-.039-.031-.021zm0 0" fill="#bababd" data-name="P"/><path d="M932.207 578.09c-.053.02-.106.04-.065.042.093-.018.065-.042.065-.042zM932.967 577.36c-.015.32-.174.504-.58.68-.18.05-.152.074-.139.088.078-.233.143-.479.347-.862.14-.136.296.016.372.093zm0 0" fill="#838589" data-name="P"/><path d="m1092.493 575.877.228.125s-.159-.009-.192-.07c-.033-.06-.036-.055-.036-.055zm0 0" fill="#504c34" data-name="P"/><path d="M1091.79 575.077c.213.121.39.282.617.64.086.16.089.156.091.154-.22-.1-.416-.238-.668-.58-.083-.167-.04-.214-.04-.214zM1091.723 575.146c-.023.021-.271-.196-.271-.196s.243-.017.29.055c.048.072.005.12-.019.14zM1089.534 573.623c.019-.017.257.183.257.183s-.223.011-.266-.058c-.043-.069-.01-.107.009-.125zm0 0" fill="#504c34" data-name="P"/><path d="M1016.678 394.47c.032-.132.252-.24.66-.337-.033.127-.252.245-.66.337zm0 0" fill="#bababd" data-name="P"/><path d="M1085.408 571.777c-.008-.02.009.02 0 0zm0 0" fill="#504c34" data-name="P"/><path d="M856.94 554.245a3.366 3.366 0 0 0-.127.284s-.01-.208.07-.235c.08-.027.063-.04.056-.049zm0 0" fill="#727377" data-name="P"/><path d="M774.57 393.655c.044-.024-.042.024 0 0zm0 0" fill="#838589" data-name="P"/><path d="M1082.793 563.952c-.013.01.259.169.259.169s-.198-.036-.212-.12c-.013-.083-.034-.059-.047-.049zm0 0" fill="#727377" data-name="P"/><path d="M814.568 434.242c-.015.018.036-.125.036-.125s-.132.121-.057.1c.075-.02.036.006.021.025zm0 0" fill="#c3c4c6" data-name="P"/><path d="M753.37 731.612c-.02-28.295.012-56.228-.131-84.16-.018-3.44.426-6.125 4.013-7.362 10.57-6.482 21.145-12.96 31.712-19.448 6.87-4.218 13.727-8.453 20.593-12.677 7.921-4.872 15.842-9.746 23.775-14.599.602-.368 1.307-.567 1.916-.825.778.852.212 1.305-.256 1.644-2.308 1.676-4.652 3.301-6.975 4.955-8.685 6.184-17.36 12.384-26.054 18.554-4.752 3.372-9.534 6.702-14.308 10.044-8.024 5.62-16.045 11.242-24.082 16.842-1.714 1.195-2.664 2.607-2.942 4.844-.368 2.966-.552 5.912-.625 8.887-.037 1.478-.28 2.952-.434 4.427-.077.74-.211 1.476-.235 2.216-.11 3.465-.224 6.91-.628 10.378-.615 5.277-.626 10.625-.922 15.94-.076 1.357-.257 2.708-.403 4.06-.08.739-.246 1.473-.269 2.212-.119 3.96-.146 7.907-.678 11.867-.492 3.662-.299 7.397-.736 11.11-.621 5.277-.623 10.625-.922 15.94-.037.663.266 1.52-.682 1.863-.13-.038-.313-.041-.336-.104-.75-2.041-.231-4.164-.39-6.608zM839.085 590.796c-.415.368-.814.758-1.26 1.082-.076.054-.375-.16-.538-.291-.049-.039-.028-.271.036-.324.436-.36.892-.694 1.545-.94.208.223.212.348.217.473zm0 0" fill="#ffa84b" data-name="P"/><path d="M839.269 590.755c-.189-.084-.193-.21-.2-.522.3-.297.808-.57.871-.49.462.583-.046.779-.671 1.012zM842.245 588.802c-.248-.004-.398-.1-.548-.196l.385-.36c.087.155.174.31.163.556zM844.018 587.264c.049-.243.188-.39.327-.537l.23.246c-.155.13-.31.258-.557.29zm0 0" fill="#fab339" data-name="P"/><path d="M1058.962 800.27c-.809-.306-1.669-.517-2.419-.93a2664.472 2664.472 0 0 1-19.521-10.844c-7.137-4.012-14.229-8.104-21.376-12.099-5.632-3.148-11.334-6.171-16.975-9.304-5.422-3.012-10.8-6.105-16.21-9.137-1.516-.85-3.076-1.622-4.624-2.413-1.588-.812-2.444-2.044-2.355-3.877.036-.744-.002-1.49-.002-2.236.002-32.916.004-65.832.014-98.748 0-1.197.077-2.394.584-3.604.289 3.299.642 6.594.846 9.898.145 2.348-.074 4.714.584 7.03.198.7.144 1.477.163 2.22.091 3.469-.119 6.942.652 10.384.293 1.307.046 2.726.137 4.087.14 2.098.36 4.19.544 6.284.055.618.137 1.235.153 1.854.088 3.468.245 6.915.628 10.383.611 5.532.627 11.128.926 16.696.073 1.357.26 2.708.41 4.061.055.492.203.977.23 1.469.285 5.32.538 10.64.84 15.96.099 1.727.34 3.446.47 5.172.119 1.607.306 3.225.226 4.826-.113 2.262.88 3.793 2.702 4.94 2.416 1.519 4.838 3.029 7.236 4.576 8.552 5.517 17.085 11.062 25.643 16.569 9.706 6.245 19.427 12.466 29.149 18.686 3.656 2.34 7.333 4.648 11.17 7.345.171.5.173.626.175.751zm0 0" fill="#ffa84b" data-name="P"/><path d="M1168.373 699.897c-.226-1.818-.495-3.286-.552-4.762-.159-4.08.012-8.15-.632-12.234-.458-2.91-.1-5.942-.185-8.918-.042-1.478-.275-2.951-.393-4.429-.119-1.48-.241-2.96-.292-4.442-.138-3.956-.046-7.897-.59-11.864-.501-3.657-.213-7.429-.179-11.15.018-1.92.448-2.363 2.271-2.845.703-.186 1.431-.274 2.378-.45.213.678.469 1.212.536 1.769.089.734.035 1.486.035 2.23-.004 30.394-.008 60.788-.02 91.181 0 1.334-.076 2.668-.124 4.265-.307-.374-.449-.466-.455-.567-.308-5.305-.64-10.609-.886-15.917-.132-2.842-.007-5.674-.574-8.514-.383-1.915-.147-3.954-.18-5.938-.039-2.356-.07-4.713-.158-7.415zm0 0" fill="#ffaa4b" data-name="P"/><path d="M1059.085 800.47c-.125-.326-.127-.452-.131-.765 1.437-.028 2.381.873 3.289 1.754-.346.851-.859.69-1.253.465-.627-.36-1.191-.83-1.905-1.454zm0 0" fill="#fab339" data-name="P"/><path d="M758.198 399.574c.01.02-.009-.02 0 0zm0 0" fill="#fda84b" data-name="P"/><path d="M762.825 258.256c-1.458 1.163-1.894 2.427-2.114 4.022-.748 5.43-.283 10.914-.804 16.318-.502 5.203-.186 10.427-.759 15.576-.524 4.71-.193 9.432-.708 14.09-.601 5.447-.204 10.922-.78 16.32-.545 5.082-.407 10.147-.664 15.214-.141 2.788-.621 5.56-1.297 8.324-.038-1.22-.107-2.44-.11-3.66-.025-8.191-.008-16.382-.074-24.573-.014-1.847-.324-3.69-.458-5.539-.099-1.359-.183-2.722-.187-4.084-.036-14.396-.032-28.792-.101-43.188-.01-2.218-.236-4.447-.53-6.649-.663-4.984-.137-6.197 4.271-8.735 10.421-5.999 20.871-11.947 31.28-17.967 8.368-4.841 16.687-9.768 25.038-14.64 4.925-2.873 9.856-5.736 14.818-8.545.869-.492 1.755-1.338 3.343-.732-1.24 1.259-2.352 2.184-3.564 3.007-6.567 4.458-13.149 8.894-19.692 13.387-10.63 7.299-21.218 14.658-31.854 21.947-4.908 3.364-9.887 6.623-15.054 10.107zm0 0" fill="#ffa84b" data-name="P"/><path d="M835.332 207.612c1.597-1.523 1.597-1.523 3.465-1.517-.832 1.124-1.774 1.815-3.21 2.055-.252-.28-.253-.41-.255-.538zm0 0" fill="#fab339" data-name="P"/><path d="M835.146 207.658c.188.083.19.212.195.535-.307.302-.83.574-.894.491-.465-.603.071-.785.699-1.026zm0 0" fill="#ffa84b" data-name="P"/><path d="M840.345 204.41c.241.046.386.182.531.318l-.248.23c-.126-.152-.253-.305-.283-.548zm0 0" fill="#fab339" data-name="P"/><path d="M1168.527 308.273c.01-3.228-.041-6.086.049-8.938.062-1.973.337-3.94.484-5.91.092-1.237.168-2.477.174-3.715.036-7.573.04-15.146.084-22.718.006-.914-.249-1.94.572-2.696 1.069.366.811 1.22.818 1.88.049 4.593.018 9.187.091 13.78.026 1.602.28 3.2.413 4.802.103 1.233.241 2.468.258 3.703.047 3.476.018 6.952.059 10.428.037 3.095-.187 6.2.589 9.262.238.939.1 1.976.106 2.969.023 4.097-.023 8.195.075 12.29.053 2.22.359 4.433.523 6.652.082 1.112.136 2.23.144 3.344.03 4.221-.019 8.443.075 12.662.047 2.097.34 4.187.52 6.28.053.618.145 1.237.139 1.854-.051 4.972.651 5.173-3.842 8.426-4.513 3.267-8.835 6.798-13.216 10.245-1.849 1.454-3.626 3-5.455 4.481-.364.294-.817.477-1.169.678-.688-.522-.447-.97-.163-1.382.209-.304.475-.572.731-.841 4.691-4.949 9.315-9.964 14.113-14.805 1.71-1.726 2.679-3.503 2.376-5.924a4.045 4.045 0 0 1 .012-1.116c1.257-8.02.469-16.1.71-24.15.077-2.6.126-5.176.512-7.778.397-2.676.164-5.447.195-8.177.019-1.738.016-3.476.023-5.586zm0 0" fill="#ffa94b" data-name="P"/><path d="M970.633 613.53c-.019.007.019-.008 0 0zm0 0" fill="#fea74b" data-name="P"/></g></svg>