<?xml version="1.0" encoding="UTF-8"?>
<!DOCTYPE svg PUBLIC "-//W3C//DTD SVG 1.1//EN" "http://www.w3.org/Graphics/SVG/1.1/DTD/svg11.dtd">
<!-- Creator: CorelDRAW X5 -->
<svg xmlns="http://www.w3.org/2000/svg" xml:space="preserve" width="197.5mm" height="247mm" style="shape-rendering:geometricPrecision; text-rendering:geometricPrecision; image-rendering:optimizeQuality; fill-rule:evenodd; clip-rule:evenodd"
viewBox="0 0 19750 24700"
 xmlns:xlink="http://www.w3.org/1999/xlink"
 version="1.1"
 enable-background="new 0 0 1000 1000">
 <defs>
  <style type="text/css">
   <![CDATA[
    .str2 {stroke:#2B2A29;stroke-width:49}
    .str1 {stroke:#2B2A29;stroke-width:50}
    .str0 {stroke:#2B2A29;stroke-width:50;stroke-linejoin:round}
    .fil3 {fill:none}
    .fil5 {fill:black}
    .fil0 {fill:#0062A6}
    .fil11 {fill:#00A651}
    .fil10 {fill:#297AA9}
    .fil7 {fill:#3D92C8}
    .fil14 {fill:#A54686}
    .fil6 {fill:#E7E8E9}
    .fil12 {fill:#ED1C24}
    .fil13 {fill:#FAA74A}
    .fil2 {fill:#FCDB00}
    .fil15 {fill:#FED09E}
    .fil9 {fill:#FFCB05}
    .fil8 {fill:white}
    .fil1 {fill:black;fill-rule:nonzero}
    .fil4 {fill:#DA251D;fill-rule:nonzero}
   ]]>
  </style>
 </defs>
 <g id="Слой_x0020_1">
  <metadata id="CorelCorpID_0Corel-Layer"/>
  <path class="fil0" d="M6334 39l7105 2 6217 -24 12 21044c0,504 -199,935 -605,1285 -406,354 -893,527 -1472,527l-4157 -1 -1468 0c-579,0 -1070,177 -1476,531 -406,350 -609,770 -614,1266 -4,-496 -207,-916 -604,-1266 -406,-354 -901,-531 -1484,-531l-1459 0 -4157 -1c-575,0 -1066,-173 -1476,-528 -402,-350 -605,-781 -600,-1285l-62 -21019 6301 1z"/>
  <path class="fil1" d="M6334 14l7105 2 1406 -5 4835 0c1,2 1,4 1,6l12 21044c0,257 -51,495 -154,713 -102,217 -255,414 -460,590l-1 0c-205,179 -431,312 -678,400 -247,88 -516,132 -809,132l-4157 -1 -1468 0c-287,0 -552,44 -795,131 -243,87 -465,219 -665,394l0 0 0 0c-201,173 -351,363 -451,570 -101,207 -152,433 -154,677 0,13 -11,24 -25,24 -13,0 -24,-11 -24,-24 -2,-245 -53,-470 -152,-678 -99,-208 -248,-397 -444,-570l-1 -1c-200,-174 -422,-305 -667,-393 -245,-88 -512,-132 -801,-132l-1459 0 -4157 -1c-290,0 -560,-44 -808,-132 -249,-89 -476,-222 -684,-401l-1 -1c-204,-178 -357,-376 -458,-594 -102,-218 -152,-455 -150,-710l-62 -21019c0,-13 11,-24 24,-24l6301 1zm7105 50l-7105 -2 -6276 -1 62 20995 0 0 0 0c-2,248 47,478 145,689 99,212 248,405 446,578l0 0c203,175 425,305 668,392 243,87 507,130 792,130l4157 1 1459 0c295,0 567,45 817,134 250,89 477,223 682,402l2 1c201,177 353,372 456,586 63,133 108,272 133,419 25,-147 70,-287 134,-419 104,-214 258,-409 463,-586l0 0c205,-179 432,-313 681,-403 249,-89 519,-134 811,-134l1468 0 4157 1c287,0 550,-43 793,-129 242,-86 462,-217 663,-391l0 0c200,-172 348,-364 447,-574 100,-212 149,-443 149,-693l-12 -21020 -6193 24z"/>
  <path class="fil2 str0" d="M16550 9290c395,-307 771,-328 882,-238 221,331 -312,610 -553,777l1011 2022 16 439 -865 531 -1217 -2243c-3824,2563 -7683,5097 -11476,7703 -444,305 -1585,1311 -2169,1087 -426,-163 -516,-690 -202,-1024l13434 -8422c-1172,-2188 -2686,-3351 -3846,-4399 2197,183 3899,1988 4984,3767z"/>
  <line class="fil3 str1" x1="17890" y1="11850" x2="17042" y2= "12352" />
  <line class="fil3 str1" x1="17042" y1="12352" x2="17041" y2= "12821" />
  <path class="fil3 str1" d="M17042 12352c-936,-2143 -1842,-3646 -2869,-4778 -765,-843 -1588,-1540 -2608,-2052"/>
  <path class="fil3 str1" d="M15824 10578c-46,-396 -186,-569 -413,-656"/>
  <path class="fil3 str1" d="M16878 9828c-68,-147 -185,-310 -329,-539"/>
  <path class="fil2 str0" d="M3176 9279c-395,-307 -771,-328 -882,-238 -221,331 312,610 553,777l-1011 2022 -16 439 865 531 1217 -2243c3824,2563 7683,5097 11476,7703 444,305 1585,1311 2169,1087 426,-163 516,-690 202,-1024l-13434 -8422c1172,-2188 2686,-3351 3846,-4399 -2197,183 -3899,1988 -4984,3767z"/>
  <line class="fil3 str1" x1="1835" y1="11839" x2="2683" y2= "12341" />
  <line class="fil3 str1" x1="2683" y1="12341" x2="2685" y2= "12810" />
  <path class="fil3 str1" d="M2683 12341c423,-969 840,-1807 1265,-2539 515,-887 1041,-1619 1604,-2239 765,-843 1588,-1540 2608,-2052"/>
  <path class="fil3 str1" d="M3901 10567c46,-396 186,-569 413,-656"/>
  <path class="fil3 str1" d="M2847 9818c68,-147 185,-310 329,-539"/>
  <polygon class="fil4" points="65,65 6155,68 6139,6969 79,6981 "/>
  <path class="fil5" d="M3188 1277l-27 -27 -54 0 -27 27 -54 27 0 27 -27 0 0 0 -54 0 -27 27 -54 27 -27 54 0 0 -27 0 0 27 -82 -109 -82 -54 -109 -109 -27 -54 -27 -82 -27 -54 -27 -54 -55 -54 -27 -27 -27 0 -27 27 0 -163 0 -54 0 -27 54 27 27 0 0 -54 -27 -27 -55 -54 0 0 0 -54 0 -54 27 0 54 0 27 0 27 0 0 -82 -27 0 -27 0 -54 0 -27 0 0 -27 54 0 0 0 27 -82 -54 0 -27 -27 0 -27 0 -27 -27 0 -82 0 0 27 0 54 -54 0 -27 27 0 54 27 0 54 0 0 54 -27 0 -27 0 -54 0 -27 0 27 82 0 0 54 0 54 0 27 0 0 27 0 27 -54 0 -27 -27 0 82 27 27 54 27 0 27 0 54 0 163 -27 0 -54 55 0 82 55 136 55 81 28 190 -54 0 -54 0 0 -54 0 -27 0 -27 -27 -27 0 27 -27 0 0 27 -54 27 -109 0 -54 0 -27 0 -54 27 0 -27 0 -27 0 -54 -54 -27 -27 0 0 27 27 0 0 27 -54 27 -54 27 -54 54 -55 -109 -109 -54 0 0 -27 -54 -27 0 0 27 27 27 0 82 -82 -81 -54 0 -27 0 -27 27 0 27 0 0 0 0 27 0 27 -27 0 27 27 82 -109 0 -54 0 -27 27 54 0 0 27 27 0 27 27 0 27 27 27 55 54 -82 0 -54 27 -54 27 0 0 -27 27 27 0 27 0 27 27 109 27 54 0 -54 109 -27 109 0 109 0 27 -27 27 -27 136 0 0 0 27 0 0 0 0 0 0 0 27 0 0 0 0 0 0 -27 82 0 0 0 0 0 27 0 0 0 27 -27 27 -27 54 0 0 27 54 0 27 27 -27 27 -27 27 -27 27 54 -27 27 0 0 0 54 0 0 218 0 0 -27 0 -109 0 -27 0 0 27 0 27 54 0 82 0 0 0 27 27 0 27 -27 27 0 0 0 0 -27 0 -54 0 -27 55 81 82 54 27 -27 82 109 -81 191 -136 218 -27 27 -27 54 -27 82 -27 82 0 27 0 82 0 54 0 82 -82 -81 -109 -27 -82 -27 -82 -81 -55 -54 -54 -27 -82 0 -54 0 -54 0 -27 82 -27 54 -54 190 -27 54 -27 27 -81 163 0 163 0 109 -27 0 -27 54 0 54 0 109 0 27 27 27 27 27 0 0 217 -218 27 -27 0 0 -27 -54 -27 0 -27 -27 0 -54 54 -27 27 -54 27 -82 27 -82 0 -82 0 -27 54 -82 27 -27 27 -27 54 54 109 81 109 136 136 136 -27 27 -27 0 -163 0 0 0 -54 27 -54 27 -27 82 -81 191 -27 54 -27 0 -27 54 -81 82 -54 109 -27 82 0 27 27 27 0 27 0 82 -54 109 -27 27 0 109 0 0 -27 27 -163 55 -136 0 -82 27 -27 0 0 27 191 81 136 109 55 81 27 27 0 0 27 0 136 -27 109 27 55 54 27 27 0 27 27 -27 54 -27 54 -27 109 27 0 163 0 82 0 27 -54 27 -54 27 -82 -54 -109 -27 -136 -81 -191 -81 -163 0 -136 27 -27 0 0 27 54 27 27 27 -81 55 -27 82 0 27 27 0 109 -55 82 0 0 27 -27 54 0 54 0 0 27 -27 27 -27 54 0 27 27 136 136 0 -27 82 -27 82 0 54 27 27 0 27 27 109 54 82 54 54 27 54 27 54 27 54 -27 27 -54 27 0 27 -27 27 27 109 54 27 0 -27 27 27 54 -136 -27 -163 0 -163 0 -54 0 -27 0 -163 -27 -163 0 -82 0 -54 0 0 27 27 27 0 27 0 0 -82 27 -54 54 -54 27 0 27 -27 27 82 0 27 0 54 -27 82 0 -54 55 0 54 -27 27 27 -27 190 -28 82 0 54 27 0 0 27 54 27 0 27 27 0 -27 27 -82 54 -27 27 0 191 81 218 27 190 0 54 -27 27 0 136 27 27 27 0 0 27 0 54 27 27 -27 27 -54 0 0 0 0 27 -54 27 -54 54 27 109 0 136 0 190 0 27 -27 -54 55 0 82 0 27 0 27 27 0 27 -54 82 -27 -27 82 0 54 0 27 27 27 0 -27 81 -55 81 -55 109 0 54 -27 0 0 136 27 136 -27 82 -27 82 -27 81 -82 27 -54 -27 -27 -54 -27 -27 -27 -55 -54 0 -82 27 -54 81 -82 54 -55 191 163 190 54 163 27 54 0 27 0 55 81 0 27 0 27 -54 27 -54 0 -245 0 -82 0 -54 27 -27 27 0 27 0 27 27 0 0 0 -54 55 -27 27 -27 27 136 0 0 -27 0 54 27 0 54 -27 0 0 218 0 163 0 109 -27 81 -55 54 -54 27 -82 81 -55 0 -82 0 -27 -27 -54 -82 -54 -82 -27 -55 -54 -27 -54 0 0 27 -82 82 54 163 81 245 54 245 0 190 -82 136 -109 81 -191 0 -218 27 -54 -27 -82 -27 -109 -109 -190 -82 -163 -55 -190 27 -82 54 -109 27 0 27 -27 54 0 27 0 55 81 -27 -27 -54 27 -27 54 -27 54 27 27 55 81 82 81 0 54 0 82 0 27 27 0 27 -27 81 -55 54 -82 27 -109 0 -190 -136 -190 -27 -27 -109 -27 -163 -27 -109 27 -81 55 -27 54 -81 109 -54 163 0 109 27 136 55 136 82 136 55 81 55 109 0 109 -54 109 -81 82 -136 0 -136 -54 -190 -54 -218 -108 0 -190 82 0 109 -27 0 -27 27 -109 27 -163 81 -191 136 -163 27 -82 0 0 -55 -54 -27 -27 -27 -27 -55 -54 -55 -109 -27 -136 0 -109 54 -109 81 -136 54 -136 27 -245 -28 -245 -55 -136 -82 -109 109 0 136 27 27 82 27 82 0 136 0 218 0 218 55 190 109 190 136 81 190 0 0 0 27 -27 0 -27 -27 -27 -27 -54 -55 -54 0 -109 54 -163 108 -272 54 -245 0 -245 -55 -109 -55 -109 -82 -81 -136 -54 -136 -54 -136 0 -136 27 -136 55 -109 109 -109 109 -136 -27 -190 -27 -54 0 -82 27 -109 27 -82 27 -27 -27 -82 -54 -82 -54 -55 -81 -27 -82 -27 -109 -55 -81 -27 -54 0 0 0 0 -27 -27 0 -82 -27 -54 -27 -82 27 -54 27 -54 0 -27 27 -27 82 217 109 163 109 81 82 81 27 0 109 27 109 -55 27 -54 0 -27 27 0 27 0 82 27 54 0 27 -27 27 -54 54 -82 54 -55 54 0 109 0 81 -55 54 -55 0 -54 0 -82 27 -54 27 -27 27 -27 163 -109 81 -109 0 -109 -27 -54 -27 -54 -27 -27 -54 -27 -54 27 -82 -27 -82 0 -190 -27 0 0 27 -27 0 -54 -27 -27 -54 -27 0 0 0 0 0 0 -82 -27 -27 0 -272 -27 -272 -27 -218 0 -190 0 27 0 -27 0 0 0 -27 -27 -27 -27 -27 -54 109 54 54 27 82 0 81 -82 27 -82 27 -27 27 0 27 0 27 54 27 0 82 27 54 -27 27 -82 27 -82 27 -27 0 -27 -27 0 -54 27 -27 54 -27 27 -27 0 -54 -27 -55 -81 -54 0 -54 27 -54 55 -27 54 -54 27 -27 0 0 -54 0 -82 0 -109 0 -109 -82 -163 -109 -81 -55 -54 -82 0 -82 -27 -109 -27 -82 27 0 27 27 27 55 81 27 27 27 27 0 0 -54 27 -54 82 -54 82 -27 136 0 27 55 109 0 0 28 163 0 0 27 27 27 0 0 0 0 27 0 0 0 0 0 0 0 0 27 27 27 27 54 0 -54 27 0 27 0 0 0 0zm-188 1115l-163 109 -81 82 27 -54 0 -54 0 0 -27 0 0 0 0 -109 272 -28 -27 54 0 0 0 0zm54 -435l-54 82 -54 0 -82 27 -27 0 0 -27 27 0 54 0 -54 -27 -55 -54 -27 -54 0 27 0 -27 27 -27 54 0 0 -27 -27 0 -27 0 -54 0 0 -27 0 0 0 0 -27 -27 -27 -27 82 0 109 -55 109 0 27 0 0 82 28 163 0 0 0 0zm-349 2203l-27 54 -136 136 27 0 0 27 54 27 109 0 81 -82 82 -27 81 -55 54 0 54 -27 27 -27 272 -28 217 -55 55 109 82 109 136 163 82 136 27 54 27 82 -27 82 -27 82 0 27 0 0 -27 54 -81 163 -163 218 -217 191 0 27 -190 55 -136 55 -109 82 -81 55 136 -136 54 -55 27 -54 0 0 -54 -27 -54 0 -27 -27 -54 -27 -54 27 54 -109 109 -136 109 -55 82 -27 27 0 27 -27 -27 -27 0 0 27 -54 81 -55 109 -27 109 -27 0 0 0 -27 0 -27 27 -109 54 -82 54 -27 27 -27 0 0 0 0 -27 -27 0 0 -109 27 -163 28 -218 -27 -190 0 -163 -27 -136 0 -109 0 -136 0 0 -245 -28 -272 54 -54 27 0 0 -27 0 54 0 27 0 0 27 0 82 0 0 0 0 0zm-4 -2040l0 0 54 0 -54 0 0 0 0 0zm-219 -625l-54 0 0 0 0 -54 0 0 -27 -27 -27 0 -27 27 0 -245 0 0 27 109 109 190 0 0 0 0zm-76 2638l28 299 1 272 -82 27 -109 82 -54 82 27 82 82 81 82 109 27 136 -27 0 -27 0 0 0 0 27 0 54 -54 109 -54 109 -82 -109 -109 -136 -163 -136 -163 -81 0 -27 -27 -109 -27 -82 0 0 27 -82 0 -54 0 -54 0 0 0 0 -54 -27 -82 0 -136 27 -109 55 -54 55 -190 136 -163 82 -27 0 27 -82 0 -54 54 0 54 -55 54 -136 27 -163 54 -109 54 -82 27 -27 54 -27 54 -82 82 0 109 27 272 -1 136 0 136 -27 109 -27 82 -27 0 -82 0 0 0 -27 0 -54 0 -27 27 0 0 27 109 109 0 0 0 0zm-574 -1549l-163 -108 -109 -54 27 -27 0 0 0 0 0 -27 54 -55 27 -27 82 -27 81 -82 27 82 0 136 -27 190 0 0 0 0zm1964 2960l54 -55 109 -55 109 -27 27 -54 -27 -27 0 -27 27 -109 54 -163 136 -218 27 -27 27 -82 0 0 -55 -81 -27 -82 0 -82 0 -54 136 54 109 81 82 54 27 54 27 54 27 82 -27 27 0 27 -27 54 -27 82 -54 109 -135 245 -190 218 0 27 -190 -27 -218 0 0 0 0 0z"/>
  <path class="fil6" d="M3051 923l-27 -54 0 -54 27 -109 54 -109 54 -55 27 -27 27 -27 0 0 0 -54 -54 -27 -55 -54 -27 -27 54 -27 82 27 82 0 82 54 82 27 82 81 82 136 0 109 0 109 0 27 -27 27 0 54 27 54 82 0 54 -27 27 -54 27 -54 54 -27 27 27 82 27 55 54 27 0 27 0 27 -54 27 -54 -27 109 -27 54 -54 27 -27 -27 -27 0 -54 -54 -27 -27 -27 27 -54 54 -27 54 -81 82 -54 0 -54 -27 -82 -54 -54 -27 0 27 0 27 -27 -27 -27 -27 -27 -27 -27 -54 -27 -54 -54 0 -82 0 0 0 0 0 -54 27 -82 0 0 0 0 0zm190 -435l82 27 55 54 27 109 28 163 55 163 0 -163 -27 -136 -27 -82 -27 -54 -54 -54 -109 -27 0 0 0 0z"/>
  <path class="fil7" d="M4575 1437l27 0 109 0 136 27 163 27 -27 27 -54 54 -27 54 0 27 -54 0 -54 27 -82 27 -27 0 -27 -27 -54 -27 -27 -27 -27 -27 0 -82 27 -82 0 0 0 0zm-1387 -133l27 0 27 27 245 0 81 -82 0 0 190 -28 218 0 272 27 326 54 -54 0 0 0 -271 272 0 0 -27 0 -27 0 -54 -27 -54 -27 -82 -54 -136 -27 -190 -27 -82 -27 -109 -27 -109 0 -109 0 -27 0 -54 0 -27 -27 0 0 0 0 -27 0 -27 27 -27 -27 -27 0 0 0 27 -27 54 -27 27 0 0 0 0 27 27 0 0 0 0 0zm1441 -3l54 27 0 27 -27 27 -27 27 0 0 0 0 0 0 -27 0 0 0 0 0 0 0 0 0 0 0 -27 0 0 0 0 0 0 0 0 0 0 0 0 0 0 0 0 0 0 0 0 0 -27 0 0 0 0 0 0 0 0 0 0 0 0 0 0 0 0 0 0 0 0 0 0 0 -27 54 0 54 0 54 -27 27 0 27 191 108 217 -55 136 -191 109 0 0 27 27 27 27 54 -27 82 -54 136 -163 82 -27 27 -27 27 -27 82 0 82 0 54 -27 54 -82 27 -109 0 -54 0 -81 55 -54 82 -27 54 -27 27 -27 0 -54 -27 -54 0 -27 27 -27 0 0 0 0 0 -27 54 -27 27 -54 27 -82 -27 -27 0 -109 -81 -109 -81 -82 -163 -82 -245 54 -109 27 -109 27 -163 0 -109 -27 -27 0 0 163 27 136 27 82 27 54 27 27 27 82 0 27 0 54 -55 81 -82 81 -109 54 -27 82 -27 0 0 0 0z"/>
  <path class="fil8" d="M2292 2013l0 82 -54 27 -27 27 -27 27 0 82 55 109 82 54 0 245 -245 0 -218 -81 27 -190 0 -163 -27 -82 0 0 54 -82 27 -82 0 -109 27 0 27 0 82 54 109 27 109 54 0 0 0 0zm56 789l1 462 0 27 -109 82 -109 27 -245 28 -245 0 -82 -27 -54 0 0 -27 27 -82 27 -82 27 -27 27 -27 136 -218 81 -218 54 0 27 -27 82 81 54 27 54 -27 27 -27 55 81 27 27 82 -27 54 -27 0 0 0 0zm380 -409l0 82 -27 0 0 0 -136 109 -136 55 0 0 0 -54 -28 -163 82 0 54 -27 54 0 136 0 0 0 0 0zm-354 -271l0 -54 27 0 0 27 0 27 -27 0 0 0 0 0zm136 0l54 27 54 27 0 0 -54 0 -54 0 0 -54 0 0 0 0zm164 571l0 82 -109 109 -54 55 -27 82 -27 54 27 109 -27 190 0 -218 -28 -190 0 -109 0 -54 54 0 82 -27 27 -82 54 27 27 -27 0 0 0 0zm1388 296l27 0 82 27 82 27 82 136 82 190 -163 0 0 -163 -55 -109 -82 -81 -54 -27 0 0 0 0zm109 -27l27 0 0 0 0 0 27 0 54 27 82 27 82 81 82 109 27 136 -109 27 -27 -82 -82 -190 -82 -81 -82 -54 0 0 0 0zm109 -27l27 0 54 0 136 109 109 109 55 81 27 82 -82 27 -55 -163 -82 -109 -109 -81 -82 -54 0 0 0 0zm136 27l54 0 0 0 54 27 109 54 136 81 55 163 -82 27 -55 -81 -55 -109 -82 -81 -136 -81 0 0 0 0zm299 81l109 109 55 109 -27 0 -55 -136 -82 -81 0 0 0 0zm-489 300l-109 0 -55 -163 -82 -136 0 -27 54 -27 27 27 82 54 55 109 28 163 0 0 0 0 0 0zm-136 0l-82 -27 -54 0 27 -190 0 -27 82 109 27 136 0 0 0 0zm816 -2l-54 27 0 -82 27 0 27 54 0 0 0 0zm-81 55l-81 55 0 0 0 -109 82 -27 0 0 0 82 0 0 0 0zm-109 55l-109 27 0 -109 109 -27 0 109 0 0 0 0 0 0zm-136 55l-109 0 -27 -109 109 -27 27 136 0 0 0 0 0 0zm-136 0l-190 0 0 0 0 -109 163 0 27 109 0 0 0 0zm-218 0l-82 -27 0 -109 82 27 0 109 0 0 0 0 0 0zm-109 -27l-190 -54 27 -82 54 0 82 27 27 109 0 0 0 0zm788 -83l27 136 -54 -54 -27 -27 0 0 0 -27 54 -27 0 0 0 0zm28 190l-54 218 -27 136 -81 109 -54 136 0 109 55 190 82 136 27 27 0 0 27 0 0 27 27 0 27 27 0 27 -27 27 -163 218 -54 190 -54 163 0 54 0 27 0 0 -82 27 -109 0 -27 0 0 190 -109 -27 -82 -27 0 0 163 -218 135 -245 81 -218 27 -54 0 -27 27 -27 0 -27 0 -82 -109 -109 -191 -136 -218 -108 -109 -136 -82 -109 0 -27 0 -27 -27 -54 0 -27 -54 -27 -82 0 -109 82 -109 55 -136 55 -353 28 -27 -82 -27 -82 299 -55 299 -137 163 -163 108 -163 190 54 0 54 -54 27 0 27 0 54 27 82 54 27 54 27 27 0 27 0 27 -27 54 -82 0 -54 -55 -54 -27 -54 190 0 0 54 -27 82 0 27 0 27 0 0 0 0 27 27 54 27 54 0 54 -54 54 -82 0 0 -27 -54 -27 -27 0 -27 109 -55 0 27 0 54 0 27 0 27 27 27 27 82 54 0 54 -55 54 -82 0 0 0 0zm-191 -108l82 -27 27 27 0 27 27 27 27 27 0 0 -54 109 -27 27 -27 0 -27 -54 -27 -54 0 0 0 0 0 -82 0 -27 0 0 0 0zm-272 55l109 0 0 27 0 27 0 0 27 0 27 54 0 0 -27 82 -82 27 -54 -27 -27 -27 0 -27 0 -54 27 -54 0 -27 0 0 0 0zm-326 1l82 0 0 27 27 54 55 81 0 0 -54 55 -27 0 0 27 -27 0 -82 -27 -27 -82 0 -54 27 -27 27 0 0 -54 0 0 0 0zm-1413 601l-54 0 -54 0 0 -54 27 -54 0 -54 27 -27 -27 -27 -108 191 -27 27 0 -54 0 -136 -28 -163 0 -190 55 136 27 82 82 81 109 54 82 0 0 109 -27 27 -81 55 0 0 0 0zm-326 -54l-82 -54 -27 -27 -27 -27 0 0 -27 54 0 82 0 0 0 0 0 54 -54 27 -109 27 -245 28 -272 -27 -109 0 -109 0 -27 0 0 0 -54 82 -27 27 -27 0 0 0 0 0 -27 27 -54 82 -54 109 -27 190 -27 82 -27 54 -27 27 -54 0 -27 0 -27 -27 0 27 27 82 -27 54 0 54 -27 0 27 27 27 -27 0 0 27 27 0 0 0 27 0 82 -54 55 -54 54 -81 82 -27 0 -27 -27 0 0 0 -190 27 -27 82 -27 0 -27 -82 0 27 -54 0 -27 54 -136 0 -82 0 -27 0 0 0 -27 -27 0 0 -27 27 -54 27 -82 136 -163 27 -27 27 -54 81 -163 27 -82 54 -27 27 0 0 0 27 0 54 0 54 0 27 0 27 0 0 -27 0 0 27 0 109 -82 27 -27 27 0 82 -27 27 0 82 0 109 -27 109 27 0 0 0 -27 -27 -27 -82 0 -82 0 -27 0 0 0 -109 0 -54 0 -27 0 27 -27 0 0 -27 -27 0 0 109 -27 81 -82 136 -163 0 0 54 54 55 54 54 0 54 -27 54 -54 27 -54 0 27 0 0 0 0 82 27 54 0 54 -55 28 571 0 0 0 0z"/>
  <polygon class="fil5" points="1232,2287 1341,2368 1395,2395 1450,2395 1423,2422 1395,2395 1341,2368 1232,2287 1232,2287 "/>
  <polygon class="fil5" points="1721,1823 1748,1823 1721,1796 1721,1796 1748,1823 1775,1878 1748,1987 1694,2095 1667,2123 1586,2286 1559,2368 1559,2395 1559,2395 1531,2368 1504,2341 1558,2123 1639,1960 1693,1851 1721,1823 1721,1823 "/>
  <polygon class="fil9" points="2261,191 2261,218 2261,245 2289,245 2343,272 2343,299 2289,299 2261,299 2262,381 2289,381 2316,381 2370,381 2398,381 2398,408 2370,408 2316,408 2289,408 2262,408 2289,571 2316,598 2344,626 2344,653 2289,626 2262,626 2262,626 2262,680 2290,789 2290,898 2290,925 2290,952 2263,952 2263,925 2235,871 2235,762 2235,653 2235,626 2235,599 2180,572 2153,544 2153,517 2180,544 2235,571 2235,435 2207,435 2153,436 2099,436 2071,436 2071,409 2099,409 2153,408 2180,408 2207,408 2207,327 2180,327 2126,327 2125,272 2153,272 2207,272 2207,245 2207,191 2234,191 2261,191 2261,191 "/>
  <polygon class="fil6" points="1775,1633 1802,1606 1802,1524 1829,1551 1856,1606 1884,1687 1884,1714 1802,1714 1802,1687 1802,1687 1775,1633 1775,1633 1775,1633 "/>
  <polygon class="fil8" points="5122,2687 5258,2687 5394,2741 5503,2795 5584,2876 5639,2985 5693,3066 5694,3311 5613,3556 5532,3801 5478,3883 5478,3992 5478,4100 5533,4182 5560,4209 5587,4236 5587,4263 5560,4263 5397,4236 5288,4182 5179,4019 5124,3802 5123,3584 5123,3394 5123,3258 5095,3149 5041,3068 4959,3041 4878,3041 4823,3041 4769,3041 4714,3014 4660,2987 4768,2878 4877,2769 4986,2714 5122,2687 5122,2687 "/>
  <polygon class="fil10" points="3623,1303 3650,1303 3705,1303 3814,1303 3922,1330 4140,1329 4249,1356 4330,1383 4222,1492 4167,1465 4031,1411 3868,1357 3623,1303 3623,1303 "/>
  <polygon class="fil10" points="3923,1819 4767,2198 4713,2198 4631,2198 4522,2226 4468,2335 4441,2389 4441,2416 4441,2389 4441,2362 4414,2308 4332,2253 4169,2063 4005,1900 3951,1846 3923,1819 3923,1819 "/>
  <polygon class="fil10" points="3733,2037 4224,2417 4197,2444 4169,2471 4115,2499 4088,2553 4088,2526 4033,2471 3979,2390 3924,2309 3788,2118 3761,2064 3733,2037 3733,2037 "/>
  <polygon class="fil8" points="3160,950 3160,950 3160,977 3160,950 "/>
  <path class="fil8" d="M1124 2504l0 0 27 -27 0 -27 27 0 0 -54 218 81 0 27 0 109 -27 0 -54 0 -54 0 -27 0 0 -27 0 0 27 -27 0 0 0 0 -27 -54 -27 -27 -54 27 -27 27 0 -27 0 0 0 0zm379 -626l-27 27 0 0 -54 0 -54 27 -27 0 -27 0 27 27 0 0 0 0 27 54 27 27 0 82 135 -245 0 0 0 0 -27 0 0 0 0 0 0 0zm-54 55l0 0 0 54 -27 27 0 -27 -27 0 0 0 -27 -27 0 0 54 -27 27 0 0 0 0 0zm-271 436l27 -54 136 81 -163 -27 0 0 0 0zm27 -136l54 -190 0 0 0 -109 27 -109 27 -54 27 -27 54 -27 0 0 0 0 27 0 54 -55 54 0 54 27 0 27 27 0 0 0 27 27 54 54 -27 82 -81 109 -54 163 -81 218 0 0 27 0 -272 -135 0 0 0 0zm516 -409l27 0 27 54 -27 109 -54 109 -27 27 -81 163 -27 82 0 27 0 0 -27 -27 -27 -27 54 -218 81 -136 54 -109 27 -54 0 0 0 0zm82 0l54 27 27 0 0 27 0 0 27 82 -27 54 -27 54 -109 136 -54 55 -27 0 -54 27 81 -136 27 -54 54 -136 27 -82 0 -54 0 0 0 0zm-271 653l0 27 0 54 0 27 0 0 -27 27 0 -54 0 -54 27 -27 0 0 0 0zm-54 0l0 0 -27 -27 0 -27 0 0 27 0 0 54 0 0 0 0zm-245 -190l109 81 54 27 54 0 -27 27 -27 -27 -54 -27 -109 -81 0 0 0 0z"/>
  <polygon class="fil11" points="1264,4870 1319,4816 1427,4761 1563,4734 1618,4733 1672,4733 1672,4788 1672,4842 1645,4897 1645,4897 1618,4897 1618,4924 1673,5005 1700,5114 1700,5141 1646,5114 1482,5169 1347,5332 1266,5604 1157,5577 1075,5605 1401,5115 994,5632 912,5551 831,5524 722,5524 1428,4979 667,5551 613,5497 558,5415 449,5334 313,5280 449,5252 640,5225 640,5388 640,5415 667,5442 749,5442 830,5360 912,5252 966,5143 938,5115 938,5088 1101,5006 1264,4870 1264,4870 "/>
  <polygon class="fil12" points="2761,5221 2788,5248 2788,5357 2761,5493 2707,5656 2599,5710 2463,5765 2381,5792 2300,5820 2245,5874 2272,5847 2327,5765 2408,5602 2435,5439 2407,5357 2435,5412 2489,5493 2490,5602 2435,5684 2435,5684 2490,5683 2598,5629 2653,5547 2734,5465 2761,5357 2761,5221 2761,5221 "/>
  <path class="fil13" d="M777 5823l163 54 82 81 82 27 82 0 54 -55 82 163 136 136 -27 27 -27 27 0 0 -27 0 -27 27 -54 0 -54 -27 0 0 -245 -163 -27 0 -82 -27 -82 -27 -81 55 -27 -27 -27 -27 -27 -54 -27 0 -54 -27 -54 0 0 -54 27 -27 -27 0 -27 -27 -27 0 -54 27 -82 27 27 -54 54 -27 27 0 0 -27 -27 -27 -54 -27 82 -27 109 0 109 27 136 54 0 0 0 0zm1197 351l27 0 -27 0 -27 -109 -27 -82 0 -27 81 -136 163 -136 109 -82 54 -82 54 -82 0 -82 0 54 27 27 -27 163 -81 136 -81 82 0 54 0 27 27 27 27 0 0 0 0 -27 27 -27 54 -55 109 -27 136 -55 109 -55 54 -55 54 -27 27 0 54 -27 82 0 27 0 27 27 0 27 27 0 54 -27 27 0 0 0 0 27 -27 27 -54 27 -109 82 -54 109 -54 55 0 27 0 27 0 0 0 27 -27 82 -27 54 -54 54 0 27 -54 27 27 27 27 27 -136 27 -54 0 -54 0 0 0 0 0 0 0 54 -27 54 -55 81 -136 54 -82 0 -27 0 0 0 0 -27 0 -54 109 -109 109 -54 27 -54 27 0 0 -218 0 -163 0 -109 0 -27 -27 27 -54 27 -27 0 0 0 0zm299 -109l0 0 -54 27 -27 0 0 0 54 27 27 0 82 0 109 -27 109 -109 27 -54 27 -27 0 -27 0 0 -54 0 -109 27 -109 55 -81 109 0 0 0 0zm27 27l0 -27 54 -54 54 -55 163 -28 -27 54 -54 55 -82 27 -109 27 0 0 0 0 0 0zm1170 215l0 82 0 54 54 54 27 27 54 27 27 0 0 0 -27 27 -27 27 -54 55 -136 55 -136 27 -136 -27 0 0 -54 0 -82 27 -109 27 -81 55 0 -27 27 -54 54 -55 0 -27 -27 0 -54 27 -109 55 27 -82 81 -55 217 -55 190 -82 163 -82 109 -82 0 0 0 0zm1821 -493l54 -136 0 -109 -55 -109 -55 -109 -82 -109 -55 -163 -27 -109 0 -109 54 -163 54 -82 54 -55 81 -55 82 0 136 0 109 27 27 27 109 136 28 163 0 27 -54 163 -81 82 0 -27 -55 -109 -55 -81 -55 -54 -27 -27 27 -54 27 -27 27 -27 27 27 0 0 54 0 0 -27 -27 -27 -27 -54 -27 -27 -54 0 -54 0 -54 27 -27 0 -54 82 -27 82 0 136 55 136 82 163 109 190 27 109 0 109 -27 218 -54 163 -136 109 -163 82 -136 0 -136 0 -218 -54 -163 -81 -82 -54 0 -54 -28 -163 -55 -109 -55 -54 -54 -54 27 0 218 81 218 108 163 81 163 27 136 0 109 -82 0 0 0 0zm-3588 633l-27 -54 0 -27 0 -27 0 0 -27 0 -27 -27 -109 -54 -163 -163 -82 -217 27 -245 81 -299 136 -136 136 -27 109 0 82 54 191 136 109 163 54 54 27 27 -81 55 -163 136 -81 136 0 54 27 82 27 109 -27 54 -54 27 0 0 27 27 82 27 82 27 109 0 109 0 163 -28 27 0 81 -55 -54 55 -27 0 0 0 0 27 0 0 27 27 54 0 109 0 163 -28 0 -27 -54 -27 -27 -27 0 0 0 0 27 -27 54 -55 54 -82 0 -82 0 -27 27 -54 27 -27 81 -55 109 -82 163 -82 190 -55 217 -55 245 0 299 54 27 27 54 54 82 81 28 190 -27 163 0 0 0 0 55 81 82 54 109 54 27 82 0 54 -54 82 -54 55 -54 54 -54 55 -109 27 -163 0 -109 0 54 -27 27 -27 -54 0 -54 27 -82 27 -54 0 0 -27 54 -27 0 -27 0 -27 -27 27 -27 27 -27 27 -27 27 -27 0 54 -55 54 -55 27 -27 0 0 -27 0 -54 0 27 -27 82 0 245 0 27 0 27 0 54 0 27 -27 0 -82 -55 -109 0 0 -27 0 0 0 -54 0 -163 -27 -218 -54 -82 -81 -82 -81 -27 -27 0 27 -27 27 -27 27 -81 82 -109 55 -136 82 -163 82 -217 82 -218 28 -190 28 -136 0 -109 0 -54 -27 0 -27 0 -82 0 -27 -27 0 0 27 -27 54 27 27 -27 82 -27 54 0 0 -27 0 27 27 0 0 -27 27 0 27 -54 -27 -54 -27 -136 -27 -27 0 -54 0 -163 0 -218 0 -218 -81 0 0 -54 0 -54 55 0 27 -27 27 0 0 -27 -27 -27 -27 -27 -27 -109 0 -163 28 27 -27 54 -27 27 -27 0 0 -27 0 -27 -27 -54 0 -82 0 -54 27 -27 0 81 -55 81 -55 27 0 0 0 0 -27 0 -54 54 0 109 0 109 0 136 54 0 0 0 0 136 -27 163 0 163 27 82 0 27 27 27 -27 0 0 0 0z"/>
  <polygon class="fil8" points="4228,4375 4201,4456 4228,4565 4255,4592 4255,4619 4255,4619 4255,4619 4283,4701 4283,4701 4283,4755 4256,4783 4147,4973 4066,5109 4039,5218 4039,5300 4039,5327 4039,5354 4039,5381 3958,5409 3876,5436 3822,5463 3740,5545 3632,5545 3523,5573 3740,5355 3876,5164 3957,5001 3984,4973 3984,4946 3984,4919 4011,4892 4038,4756 4011,4647 3983,4593 3901,4457 3765,4294 3683,4185 3629,4077 3737,4022 3792,3968 3846,3940 3900,3940 3928,3995 3955,4049 3955,4049 3955,4049 3955,4076 4010,4158 4091,4266 4228,4375 4228,4375 "/>
  <polygon class="fil8" points="610,4192 610,4137 610,4028 637,3892 691,3729 718,3702 745,3647 799,3484 826,3402 853,3348 881,3348 935,3348 1017,3348 1044,3375 1098,3429 1207,3510 1289,3537 1371,3592 1479,3646 1452,3700 1480,3727 1507,3782 1534,3809 1534,3836 1534,3863 1562,3890 1562,3918 1534,3918 1480,3945 1426,4000 1317,3864 1208,3728 1071,3620 1017,3565 990,3565 990,3565 935,3593 908,3620 827,3729 827,3729 827,3729 827,3810 827,3892 827,3974 773,4028 746,4055 719,4028 719,4055 719,4083 719,4137 692,4164 665,4164 665,4191 719,4191 773,4191 801,4218 801,4218 801,4246 746,4273 692,4327 638,4382 584,4436 556,4409 556,4382 556,4300 556,4246 556,4219 583,4192 583,4192 638,4246 610,4192 610,4192 "/>
  <polygon class="fil11" points="2897,5547 2816,5574 2789,5574 2789,5574 2789,5574 2761,5601 2734,5629 2788,5465 2815,5329 2788,5221 2788,5193 2761,5193 2761,5221 2734,5411 2653,5520 2571,5602 2490,5656 2517,5575 2517,5547 2489,5412 2435,5330 2435,5276 2407,5140 2325,5031 2244,4977 2216,4895 2216,4895 2270,4841 2352,4759 2433,4732 2461,4841 2461,4922 2461,4976 2461,5004 2434,5004 2407,5031 2544,5466 2571,5466 2624,5003 2570,5003 2570,4976 2570,4922 2570,4813 2542,4704 2678,4704 2787,4704 2923,4704 3086,4731 3412,4757 3576,4757 3684,4729 3630,4811 3603,4947 3603,4947 2760,4840 3576,4974 3495,5002 3386,5056 3304,5084 3277,5165 3277,5165 3277,5192 3250,5192 2733,4976 3196,5193 3060,5274 3006,5329 2951,5411 2897,5547 2897,5547 "/>
  <polygon class="fil6" points="2159,3427 2159,3454 2132,3536 2078,3590 2023,3618 1942,3563 1914,3536 1914,3509 1914,3482 1914,3482 1887,3455 2023,3454 2159,3427 2159,3427 "/>
  <polygon class="fil6" points="1507,3673 1507,3619 1507,3619 1507,3591 1506,3537 1506,3483 1506,3428 1561,3455 1669,3455 1887,3482 1887,3482 1860,3536 1779,3618 1670,3727 1616,3754 1534,3755 1507,3727 1507,3673 1507,3673 "/>
  <polygon class="fil6" points="2376,3399 2349,3481 2295,3536 2268,3536 2213,3508 2186,3454 2186,3427 2213,3427 2268,3372 2376,3318 2376,3399 2376,3399 "/>
  <polygon class="fil6" points="2429,2665 2565,2610 2728,2501 2755,2501 2755,2501 2755,2528 2701,2637 2674,2665 2647,2692 2620,2692 2592,2637 2592,2665 2565,2746 2511,2774 2430,2774 2429,2719 2429,2665 2429,2665 "/>
  <polygon class="fil6" points="1940,2666 1940,2639 2130,2693 2130,2720 2103,2747 2049,2775 1994,2747 1940,2666 1940,2666 "/>
  <polygon class="fil6" points="1695,2585 1640,2558 1613,2531 1559,2449 1559,2449 1586,2476 1668,2531 1776,2585 1913,2639 1913,2666 1913,2693 1885,2693 1831,2693 1804,2639 1749,2585 1722,2558 1722,2585 1695,2585 1695,2585 "/>
  <polygon class="fil6" points="2321,2747 2294,2801 2239,2829 2185,2774 2157,2720 2157,2693 2321,2692 2321,2747 2321,2747 "/>
  <path class="fil6" d="M1420 1334l0 -54 109 81 55 136 0 54 27 0 0 -54 27 -82 54 -54 54 -27 27 -27 0 27 0 27 0 0 0 27 0 82 0 0 0 27 0 82 -27 27 -27 0 -27 0 -27 27 54 0 27 27 0 27 0 0 0 27 55 54 109 0 0 -27 0 -27 0 -27 -27 -109 -55 -54 -27 -27 0 -27 0 0 54 -55 27 -27 54 0 109 0 82 -27 0 0 -27 82 -27 54 -27 54 -27 27 27 0 54 -54 54 -55 27 -27 82 0 0 0 1 272 28 272 -136 -54 -82 -54 -82 -27 -27 0 -27 0 -27 0 0 0 0 0 -27 -27 -27 -27 -82 0 -54 -27 -27 0 -27 -54 -54 -27 -27 -27 0 0 0 -27 0 0 -55 -54 0 0 -27 -54 -82 -109 0 -27 0 -27 0 0 0 -27 0 0 0 0zm925 134l54 -27 0 0 0 0 0 0 -27 82 -27 27 0 -82 0 0 0 0zm0 163l54 -27 27 -54 0 -27 54 0 27 27 82 109 0 0 0 0 -27 0 -54 27 -27 27 -27 27 0 0 -27 0 -55 -54 27 54 27 54 27 0 0 0 27 -27 54 -27 54 -27 27 0 55 54 55 81 0 -27 0 27 27 27 0 0 0 27 -54 27 -27 27 -27 0 0 0 -27 -27 -27 0 0 27 0 0 0 0 0 0 54 27 0 0 27 0 27 0 54 -27 27 0 0 27 54 27 -27 27 0 0 0 27 0 0 0 27 -82 -27 -54 27 0 27 0 27 -27 0 -27 0 -54 -27 -191 -81 -28 -408 0 0 0 0zm-979 56l-27 0 -82 0 -109 -54 82 -27 54 0 54 27 27 -27 -82 -54 -55 -54 0 -54 -27 -27 82 0 27 27 0 27 0 0 0 0 27 -27 0 0 -27 -27 0 -109 0 -27 27 27 54 54 0 27 0 27 27 109 82 81 27 27 -54 0 -81 55 -27 0 0 0 0 0z"/>
  <path class="fil9" d="M2488 5004l0 0 0 -27 0 -27 0 -82 -27 -109 -1 -272 -28 -353 -28 -381 -28 -435 -29 -897 0 0 27 0 168 2610 54 0 0 54 -27 109 0 136 -27 82 -27 -82 -27 -136 -55 -109 0 -54 27 -27 27 0 0 0 0 0zm-169 -2909l-28 -381 -28 -326 0 -245 0 -82 0 -54 27 0 0 54 0 54 27 109 0 136 28 353 28 408 -54 -27 0 0 0 0z"/>
  <polygon class="fil8" points="2948,3534 2975,3670 3003,3806 3030,3942 3058,4051 3085,4132 3058,4187 3031,4214 2976,4214 2922,4241 2868,4269 2813,4296 2813,4296 2705,4378 2650,4378 2596,4351 2623,4323 2650,4296 2677,4242 2704,4242 2704,4242 2813,4106 2840,4078 2867,4078 2867,4051 2867,4051 2867,4024 2867,3942 2812,3834 2758,3752 2676,3644 2676,3535 2676,3508 2676,3508 2648,3480 2676,3453 2757,3453 2812,3480 2893,3507 2948,3534 2948,3534 "/>
  <polygon class="fil9" points="3844,3097 3953,3043 3953,3124 3926,3260 3899,3424 3791,3587 3628,3750 3356,3887 3057,3942 3030,3779 3030,3724 3220,3751 3329,3724 3492,3669 3601,3587 3709,3506 3763,3424 3818,3315 3844,3179 3844,3097 3844,3097 "/>
  <polygon class="fil9" points="2758,3915 2649,3861 2595,3807 2567,3698 2513,3644 2513,3535 2485,3426 2512,3209 2512,3209 2512,3236 2539,3345 2567,3399 2594,3453 2621,3480 2621,3508 2621,3535 2649,3644 2731,3779 2813,3915 2758,3915 2758,3915 "/>
  <polygon class="fil14" points="3817,3125 3817,3152 3790,3261 3763,3369 3655,3506 3465,3642 3329,3697 3193,3724 3111,3724 3030,3697 2975,3534 2975,3453 2920,3344 2866,3235 2811,3154 2811,3154 2893,3126 2974,3072 3028,3045 3083,3017 3056,3044 3083,3099 3110,3126 3137,3153 3165,3153 3165,3153 3192,3126 3192,3180 3192,3207 3246,3207 3328,3207 3409,3180 3437,3207 3518,3207 3627,3152 3681,3152 3817,3125 3817,3125 "/>
  <polygon class="fil15" points="2539,3236 2539,3209 2539,3209 2539,3209 2512,3154 2512,3073 2512,3018 2539,2964 2647,2828 2701,2773 2729,2773 2783,2800 2838,2827 2865,2827 2892,2854 2947,2936 2974,2990 3001,3017 2947,3045 2892,3099 2811,3127 2784,3127 2757,3154 2784,3181 2838,3235 2866,3317 2920,3425 2948,3507 2893,3480 2812,3426 2730,3426 2676,3426 2621,3453 2567,3372 2539,3236 2539,3236 "/>
  <polygon class="fil8" points="3708,2826 3844,2934 3953,2988 3844,3070 3763,3097 3681,3125 3627,3125 3572,2989 3545,2989 3600,3152 3518,3180 3464,3180 3436,3153 3436,3153 3436,3017 3409,2989 3409,3044 3409,3098 3409,3153 3355,3153 3273,3180 3219,3180 3219,3180 3219,3099 3219,3071 3192,3044 3164,3071 3137,3126 3110,3099 3110,3044 3110,3017 3137,3017 3164,2990 3164,2990 3191,2990 3191,2963 3164,2963 3110,2963 3028,2990 3028,2990 3028,2990 2865,2800 2729,2746 2729,2719 2919,2691 2919,2691 3055,2582 3109,2528 3082,2609 3028,2691 3001,2745 3001,2745 3028,2800 3082,2854 3164,2854 3191,2827 3218,2799 3218,2772 3245,2718 3327,2609 3327,2826 3327,2854 3354,2908 3436,2881 3490,2826 3490,2880 3572,2799 3572,2799 3572,2799 3572,2799 3653,2826 3708,2826 3708,2826 3708,2826 "/>
  <polygon class="fil8" points="3136,2473 3055,2528 3000,2582 2919,2664 2892,2664 2837,2664 2783,2692 2729,2692 2756,2637 2810,2583 2891,2501 3000,2419 3082,2419 3109,2419 3136,2446 3136,2446 3109,2446 3136,2473 3136,2473 "/>
  <polygon class="fil8" points="3326,2527 3191,2772 3164,2800 3137,2827 3110,2827 3055,2773 3028,2745 3055,2691 3136,2582 3163,2500 3163,2500 3163,2473 3190,2500 3272,2555 3299,2555 3326,2527 3326,2527 "/>
  <polygon class="fil8" points="3490,2500 3490,2500 3490,2500 3517,2445 3544,2445 3571,2445 3653,2635 3680,2690 3708,2771 3681,2799 3653,2799 3599,2771 3572,2744 3572,2690 3572,2690 3544,2690 3545,2799 3517,2799 3517,2717 3490,2772 3409,2853 3354,2881 3354,2826 3354,2500 3408,2473 3435,2473 3435,2500 3490,2500 3490,2500 "/>
  <polygon class="fil8" points="3216,1766 3081,1929 3080,1793 3053,1685 3080,1522 3134,1385 3161,1358 3161,1385 3243,1385 3270,1385 3433,1385 3406,1412 3406,1412 3351,1412 3297,1494 3216,1576 3189,1657 3189,1739 3216,1766 3216,1766 3216,1766 "/>
  <polygon class="fil8" points="3081,2310 3081,2310 3163,2256 3244,2201 3299,2147 3326,2119 3407,2065 3461,2010 3516,1929 3570,1928 3651,1847 3543,2065 3543,2065 3516,2092 3489,2201 3516,2282 3544,2364 3544,2364 3544,2391 3544,2391 3544,2418 3517,2391 3489,2418 3462,2445 3435,2445 3381,2446 3326,2500 3299,2500 3272,2527 3218,2473 3163,2446 3163,2446 3163,2419 3136,2392 3027,2365 3054,2337 3081,2310 3081,2310 "/>
  <polygon class="fil10" points="4168,1655 4195,1655 4249,1682 4331,1682 4440,1709 4521,1709 4657,1709 4685,1736 4712,1736 4848,1763 4929,1763 5011,1790 5038,1790 5038,1817 4984,1844 4875,1926 4848,1926 4712,1872 4522,1791 4222,1710 4168,1655 4168,1655 "/>
  <path class="fil15" d="M2209 1115l-55 -136 0 -54 54 -27 0 27 0 27 0 27 27 0 0 82 0 109 -27 -54 0 0 0 0zm109 -109l27 27 0 82 0 0 -27 27 0 -136 0 0 0 0zm0 -82l0 0 27 -27 0 27 54 54 27 54 0 27 55 109 27 54 163 136 82 109 27 27 0 27 0 0 0 0 0 0 27 0 0 0 0 0 27 -54 0 27 27 0 0 0 27 -27 0 0 0 82 0 109 0 27 0 0 0 0 0 0 -82 27 -82 27 -54 -27 -136 -190 -109 -163 -55 -136 -27 -54 27 -54 0 -82 -55 -54 0 -54 0 0 0 0z"/>
  <polygon class="fil8" points="2862,1440 2916,1386 2998,1359 3025,1358 3079,1386 3079,1386 3053,1522 3026,1658 2998,1685 2917,1685 2917,1658 2917,1549 2916,1467 2916,1440 2889,1440 2862,1440 2862,1440 2862,1440 "/>
  <polygon class="fil15" points="3026,2066 3081,2011 3135,1902 3216,1820 3271,1766 3298,1793 3352,1793 3352,1793 3352,1793 3352,1820 3380,1874 3407,1874 3434,1902 3488,1874 3488,1874 3488,1901 3434,1983 3380,2038 3298,2092 3271,2119 3271,2119 3271,2119 3190,2201 3081,2256 2837,2338 2728,2338 2619,2365 2565,2366 2510,2339 2510,2339 2510,2366 2483,2393 2456,2393 2347,2393 2320,2393 2293,2366 2266,2339 2211,2230 2211,2176 2265,2149 2347,2148 2401,2148 2401,2176 2428,2176 2428,2148 2428,2094 2483,2148 2483,2175 2483,2203 2619,2230 2619,2202 2782,2120 2918,2093 2972,2066 2999,2066 3026,2066 3026,2066 3026,2066 "/>
  <path class="fil8" d="M3243 1739l-27 -27 0 -54 27 -82 54 -55 54 -54 54 -27 82 81 191 81 0 0 0 109 -27 109 -54 54 -27 27 -27 0 -27 -27 27 -82 54 -163 -27 -27 -27 82 -27 109 -54 54 -27 27 -27 -27 0 0 0 0 0 0 -27 -27 0 -27 0 -27 54 -82 54 -136 0 -27 -27 54 -27 27 -81 163 -27 0 0 0 0 0 0 0 -27 -54 0 0 0 -27 0 0 54 -109 81 -82 0 0 0 -27 -27 0 -54 27 -27 54 -54 136 0 0 -27 27 0 27 0 0 0 0zm190 -327l54 0 54 0 82 27 27 54 27 0 0 0 0 0 0 54 0 27 -163 -81 -82 -81 0 0 0 0z"/>
  <path class="fil15" d="M3460 1113l27 54 55 54 0 0 -27 27 -27 54 -245 0 0 -27 27 -54 81 -55 54 -27 27 -27 0 0 27 0 0 0 0 0 0 0zm-54 -27l-54 55 -81 55 -54 0 -54 -27 27 0 27 -27 -54 0 0 0 0 -27 -27 -27 0 0 -27 0 0 -54 -27 -82 54 0 0 0 27 27 0 27 0 0 0 0 27 -54 27 -27 54 0 27 0 27 54 0 27 55 54 27 27 0 0 0 0z"/>
  <line class="fil3 str2" x1="6155" y1="68" x2="6160" y2= "7008" />
  <line class="fil3 str2" x1="79" y1="6981" x2="6159" y2= "6980" />
 </g>
</svg>
