<?xml version="1.0" encoding="UTF-8"?>
<!DOCTYPE svg PUBLIC "-//W3C//DTD SVG 1.1//EN" "http://www.w3.org/Graphics/SVG/1.1/DTD/svg11.dtd">
<!-- Creator: CorelDRAW -->
<svg xmlns="http://www.w3.org/2000/svg" xml:space="preserve" width="111.878mm" height="123.269mm" version="1.1" style="shape-rendering:geometricPrecision; text-rendering:geometricPrecision; image-rendering:optimizeQuality; fill-rule:evenodd; clip-rule:evenodd"
viewBox="0 0 11122.31 12254.79"
 xmlns:xlink="http://www.w3.org/1999/xlink"
 xmlns:xodm="http://www.corel.com/coreldraw/odm/2003">
 <defs>
  <style type="text/css">
   <![CDATA[
    .fil0 {fill:#0477BD}
    .fil1 {fill:#0477BD;fill-rule:nonzero}
   ]]>
  </style>
 </defs>
 <g id="Слой_x0020_1">
  <metadata id="CorelCorpID_0Corel-Layer"/>
  <path class="fil0" d="M5370.66 1611.7c50.28,0.17 100.35,1.19 150.24,3l-22.61 -351.57 -127.63 348.57zm299.86 10.57c2096.8,139.8 3811.6,1675.42 4222.93,3685.98l837.13 0 0 149.12 -809.49 0c9.06,53.1 17.19,106.5 24.44,160.19l785.05 0 0 497.07 -744.9 0c1.13,41.98 1.77,84.08 1.77,126.33 0,11.32 -0.32,22.57 -0.43,33.86l743.55 0 0 149.12 -747.05 0c-94.31,2425.01 -2053.65,4371.14 -4484.08,4444.1l-290.45 672.36 -46.3 -674.41c-2118.35,-87.97 -3868.98,-1599.21 -4320.59,-3602.73l-816.79 0 0 -149.12 785.9 0c-10.02,-52.3 -19.32,-104.86 -27.53,-157.79l-783.68 0 0 -497.07 733.88 0c-1.91,-41.2 -3.25,-82.54 -4.08,-124.01l-729.81 0 0 -149.12 729.31 0c28.85,-2482.44 2011.33,-4495.05 4481.9,-4572.05l390.25 -1065.8 69.05 1073.98zm-334.28 9247.84c-8.01,-0.13 -16.04,-0.21 -24.06,-0.3l3.32 48.32 20.74 -48.02zm-4199.25 -4683.96l2400.12 0 1521.85 -4156.24c-2173.98,152.19 -3893.85,1950.21 -3921.97,4156.24zm4559.92 -4153.36l311.99 4852.16 742.14 -1576.7 2725.13 0c-400.54,-1775.92 -1920.25,-3127.79 -3779.27,-3275.46zm3809.97 3424.59l-2661.57 0 -947.87 2013.74 -350.25 -5447.45c-31.39,-1.41 -62.85,-2.48 -94.39,-3.23l374.9 6082.32 1073.6 -2485.18 2632.56 0c-7.98,-53.73 -17.01,-107.13 -26.98,-160.19zm-4286.34 -3435.68l-1579.46 4313.57 -2503.59 0c0.9,41.48 2.28,82.83 4.37,124.01l2603.89 0 1565.78 -4439.46c-30.38,0.4 -60.75,0.87 -90.98,1.88zm4357.2 4092.94l-2350.15 0 -1767.2 4090.72 -396.38 -5889.53 -967.42 2640.53 -2899.65 0c9.04,52.94 19,105.55 29.98,157.79l2947.52 0 744.31 -1975.52 365.41 5323.15c24.6,0.43 49.16,0.93 73.86,0.93 52.1,0 103.92,-1.27 155.56,-3.15l1807.76 -4184.73 2257.99 0c0.1,-11.29 0.43,-22.54 0.43,-33.86 0,-42.27 -0.8,-84.35 -2.04,-126.33zm-2.16 309.31l-2156.33 0 -1739.46 4026.65c2121.09,-159.86 3804.52,-1887.09 3895.79,-4026.65zm-4440.96 4032.88l-317.12 -4619.54 -539.98 1425.99 -3016.31 0c439.74,1768.02 1993.76,3095.54 3873.41,3193.56z"/>
  <path class="fil1" d="M2291.99 11420.94l407.22 -807.08 261.32 131.85c99.01,49.95 161.46,86.4 187.44,109.65 40.06,35.52 65.48,81.36 76.2,137.67 10.71,56.32 -0.14,116.59 -32.56,180.85 -25.02,49.6 -55,86.57 -89.9,111.38 -35.1,24.71 -71.2,39.74 -108.57,45.15 -37.29,5.23 -71.92,3.78 -103.6,-4.42 -42.78,-11.93 -100.95,-36.32 -174.59,-73.48l-105.96 -53.46 -153.56 304.35 -163.45 -82.47zm501.85 -588.23l-116.02 229.96 88.86 44.84c64.06,32.32 108.9,49.52 134.77,51.97 25.87,2.44 49.41,-2.19 70.82,-14.25 21.3,-11.87 38.03,-29.6 50.15,-53.64 14.88,-29.5 18.47,-58.09 11.05,-85.87 -7.62,-27.89 -23.15,-50.81 -47.18,-69.06 -17.55,-13.33 -55.48,-34.83 -114.1,-64.4l-78.35 -39.54zm1503.17 1325.35l-192.02 -44.8 -29.28 -218.15 -353.08 -82.37 -119.91 183.35 -188.53 -43.98 547.18 -800.63 188.32 43.93 147.32 962.63zm-244.38 -425.21l-46.33 -354.36 -194.86 298.11 241.19 56.26zm844.63 -404.6l170.37 5.46 -19.28 601.52 385.23 -589.8 181.71 5.83 -28.95 903.53 -170.36 -5.46 18.96 -591.84 -384.91 580.12 -181.72 -5.83 28.95 -903.53zm475.28 -246.26l84.55 2.71c-6.62,55.57 -27.8,98.9 -63.11,129.56 -35.29,30.66 -80.19,45.22 -134.66,43.48 -54.68,-1.76 -98.55,-19.17 -131.81,-52.02 -33.26,-32.86 -51.63,-77.44 -54.67,-133.34l84.54 2.71c2.02,29.12 11.4,51.52 28.59,67.02 17.19,15.5 42.61,23.69 76.26,24.76 33.43,1.07 59.34,-5.47 77.48,-19.83 18.14,-14.37 28.95,-36.13 32.82,-65.06zm678.34 702.38c-20.73,-89.8 -24.61,-168.38 -11.85,-235.68 9.52,-49.49 27.68,-96.22 54.1,-139.9 26.41,-43.67 58.25,-78.89 95.43,-105.82 49.61,-35.86 110.26,-62.16 182.04,-78.73 129.99,-30 243.06,-13.55 339.77,48.99 96.56,62.81 161.4,165.97 194.57,309.71 32.9,142.5 19.88,262.98 -38.86,361.2 -58.7,98.41 -152.97,162.5 -282.35,192.36 -131.03,30.24 -244.62,14.35 -340.43,-47.99 -95.75,-62.12 -159.96,-163.49 -192.43,-304.15zm181.93 -48.25c23.05,99.86 63.69,170.17 121.73,211.19 58.02,40.82 122.63,53.12 193.56,36.74 71.15,-16.41 123.46,-55.48 157.41,-117.09 33.69,-61.77 38.74,-143.7 15.13,-246.02 -23.33,-101.09 -62.89,-171.42 -118.83,-210.77 -55.79,-39.61 -120.36,-50.84 -193.97,-33.85 -73.4,16.94 -126.84,55.83 -160.15,116.43 -33.27,60.8 -38.31,141.88 -14.89,243.37zm1402.89 79.06l-403.34 -809.04 163.85 -81.68 158.86 318.64 318.63 -158.86 -158.86 -318.64 163.85 -81.68 403.34 809.03 -163.85 81.68 -176.31 -353.67 -318.64 158.86 176.32 353.67 -163.85 81.69zm-7522.7 -8963.99l416.47 -585.37 736.6 524.08 -106.14 149.17 -612.11 -435.51 -204.22 287.02 612.12 435.51 -106.14 149.17 -736.59 -524.08zm1589.99 -502.21l-591.19 -683.9 221.45 -191.42c83.9,-72.52 141.38,-116.39 172.77,-131.56 48.11,-23.51 100.17,-29.56 156.32,-18.02 56.15,11.55 107.76,44.54 154.82,98.98 36.33,42.03 59.1,83.82 68.75,125.55 9.48,41.86 9.63,80.96 0.41,117.59 -9.36,36.47 -23.89,67.93 -43.54,94.11 -27.32,35 -72.03,79.5 -134.43,133.44l-89.78 77.61 222.93 257.89 -138.49 119.73zm-352.78 -688.04l168.44 194.85 75.3 -65.1c54.29,-46.92 87.27,-81.83 99.38,-104.81 12.12,-22.99 16.81,-46.53 13.81,-70.91 -2.86,-24.23 -12.88,-46.43 -30.5,-66.81 -21.6,-24.99 -46.69,-39.2 -75.21,-42.92 -28.67,-3.58 -55.79,2.06 -81.82,17.33 -19.01,11.15 -53.34,38.04 -103,80.97l-66.39 57.39zm1017.82 -915.83l155.32 -70.22 247.92 548.38 85.72 -699.23 165.67 -74.9 372.41 823.73 -155.32 70.22 -243.93 -539.56 -89.7 690.4 -165.67 74.9 -372.41 -823.72zm1537.73 -117.53c-16.31,-90.72 -16.35,-169.38 -0.32,-235.99 11.93,-48.96 32.34,-94.75 60.87,-137.08 28.51,-42.33 62.02,-75.94 100.49,-101.04 51.3,-33.38 113.16,-56.7 185.66,-69.73 131.3,-23.61 243.44,-1.66 336.98,65.53 93.37,67.45 153.1,173.66 179.22,318.84 25.89,143.93 7.01,263.64 -56.47,358.87 -63.45,95.43 -160.73,154.84 -291.42,178.34 -132.34,23.8 -245.03,2.37 -337.67,-64.56 -92.6,-66.74 -151.78,-171.11 -177.34,-313.19zm184.08 -39.31c18.14,100.87 55.28,173.07 111.27,216.88 55.95,43.6 119.88,59.04 191.53,46.16 71.87,-12.92 126.03,-49.39 162.95,-109.27 36.66,-60.05 45.71,-141.64 27.13,-244.99 -18.36,-102.1 -54.44,-174.28 -108.39,-216.33 -53.79,-42.28 -117.74,-56.65 -192.09,-43.28 -74.13,13.33 -129.42,49.57 -165.65,108.46 -36.2,59.11 -45.19,139.84 -26.75,242.35zm1472.06 -588.28l182.55 13.89 -29.22 383.97c40.81,-1.1 69.08,-9.31 84.64,-25.21 15.55,-15.7 41.35,-60.8 76.99,-135.33 44.99,-94.7 87.59,-152.65 127.37,-173.48 39.57,-20.84 101.11,-28.18 185.05,-21.8 4.2,0.32 13.02,0.79 26.48,1.39l-10.25 134.71 -25.76 -2.6c-37.35,-2.84 -64.98,-0.3 -82.88,7.63 -17.91,7.92 -32.83,20.93 -44.97,39 -12.14,18.07 -30.83,55.69 -56.07,112.86 -13.5,30.42 -27.44,55.52 -42.05,75.53 -14.39,20 -38.76,37.99 -72.9,53.96 39.64,14.42 71.23,40.23 95.02,77.09 23.78,36.83 49,88.13 75.63,154.11l103.97 256.08 -214.02 -16.28 -90.4 -240.29c-1.42,-3.48 -4.51,-10.05 -9.04,-19.89 -1.86,-3.3 -8.33,-18.14 -19.44,-44.1 -19.69,-46.25 -36.47,-75.39 -50.31,-87.61 -14.05,-12.26 -36.08,-19.63 -66.46,-22.36l-29.99 394.04 -182.54 -13.89 68.59 -901.4zm1798.29 933.33l150.11 107.97c-57.55,85.63 -124.05,141.13 -199.34,166.8 -75.23,25.46 -158.74,22.82 -250.64,-8.21 -113.85,-38.43 -194.23,-108.89 -241.34,-211.42 -46.91,-102.46 -47.73,-221.1 -2.17,-356.07 48.13,-142.55 122.44,-240.95 222.66,-295.07 100.22,-54.11 210.45,-60.87 330.47,-20.35 104.87,35.4 179.5,95.24 223.97,179.32 26.68,49.88 38.03,112.34 34.35,187.73l-184.8 -17.08c4.78,-47.7 -4.5,-89.92 -27.93,-126.48 -23.61,-36.62 -58.39,-62.58 -104.24,-78.06 -63.61,-21.47 -122.91,-16.17 -177.8,16.15 -55.02,32.06 -99.66,99.17 -134.12,201.25 -36.49,108.05 -43,191.81 -19.59,250.79 23.53,59.25 66.43,99.28 128.83,120.34 46.06,15.55 90.65,14.4 133.63,-3.75 42.99,-18.13 82.4,-55.92 117.96,-113.87zm1104.8 -112.17l154.02 98.95 -208.15 323.98c36.45,18.41 65.22,24.64 86.46,18.03 21.15,-6.42 65.28,-33.86 132.04,-82.5 84.58,-61.96 149.6,-92.71 194.51,-92.13 44.72,0.47 102.37,23.24 173.18,68.74 3.54,2.28 11.08,6.88 22.65,13.81l-73.02 113.66 -21.42 -14.52c-31.51,-20.25 -57.04,-31.14 -76.56,-32.68 -19.53,-1.53 -38.83,2.82 -58.1,12.95 -19.27,10.13 -53.58,34.36 -102.95,72.66 -26.34,20.35 -50.52,35.83 -72.88,46.48 -22.17,10.76 -52.16,15.01 -89.79,12.84 28.03,31.51 43.55,69.25 46.98,112.98 3.43,43.71 1.24,100.84 -6.66,171.54l-30.2 274.73 -180.58 -116.01 34.62 -254.38c0.41,-3.75 0.82,-11 1.51,-21.8 -0.07,-3.8 1.28,-19.92 3.85,-48.05 4.64,-50.05 3.73,-83.65 -2.64,-100.99 -6.54,-17.47 -22.42,-34.42 -47.86,-51.27l-213.6 332.48 -154.02 -98.96 488.62 -760.55zm1149.13 843.28l117.69 123.29 -435.35 415.53 688.16 -150.68 125.53 131.52 -653.92 624.19 -117.69 -123.3 428.34 -408.85 -681.15 144 -125.53 -131.52 653.92 -624.18zm1006.21 1211.59l85.13 147.66 -521.39 300.59 704.26 16.62 90.81 157.5 -783.17 451.5 -85.13 -147.66 513 -295.75 -695.87 -21.45 -90.81 -157.51 783.18 -451.5zm459.73 274.18l42.25 73.29c-50.73,23.66 -98.71,28.49 -143.37,14.63 -44.66,-13.84 -80.7,-44.32 -107.91,-91.53 -27.32,-47.39 -35.64,-93.86 -25.25,-139.44 10.4,-45.58 38.62,-84.69 84.52,-116.72l42.24 73.28c-23.68,17.06 -37.78,36.84 -41.89,59.62 -4.12,22.78 2.32,48.69 19.14,77.86 16.71,28.98 35.92,47.55 57.69,55.4 21.77,7.84 45.96,5.57 72.58,-6.39z"/>
 </g>
</svg>
