<?xml version="1.0" encoding="UTF-8" standalone="no"?>
<svg
   xml:space="preserve"
   width="88.5mm"
   height="150.5mm"
   version="1.1"
   shape-rendering="geometricPrecision"
   text-rendering="geometricPrecision"
   image-rendering="optimizeQuality"
   fill-rule="evenodd"
   clip-rule="evenodd"
   viewBox="0 0 1003.4644 1706.4568"
   id="svg55"
   xmlns="http://www.w3.org/2000/svg"
   xmlns:svg="http://www.w3.org/2000/svg"><defs
   id="defs59" />




<path
   fill="#000000"
   d="m 2.9889684,486.76255 v 975.99995 l 1,17 3.0000001,16 3.9999995,15 6,13 8,12 9,11 10,9 12,8 14,6 14,5 c 8.000003,2 16.000003,4 24.000002,5 9,1 17,2 26,3 10,0 19,0 29,0 11,0 21,-1 32,-1 l 150,1 c 15,3 29,6 44,11 10,3 19,7 29,12 l 10,5 c 13,7 24,14 35,24 l 7,6 c 7,8 12,16 16,25 l 15,36 16,-40 c 1.99999,-3 3.99999,-7 6.99999,-10 5,-8 11,-14 19,-20 6,-6 13,-11 21,-16 6,-4 13,-7 20,-10 14,-7 27,-12 41,-16 11,-3 21,-5 32,-7 l 150,-1 c 14,0 28,1 42,1 9,0 19,0 28,-1 9,-1 17,-2 25,-3 l 16,-4 c 7,-2 14,-5 21,-8 l 13,-7 11,-8 10,-10 8,-12 7,-12 5.00004,-14 3.99998,-16 2.00005,-16 v -9 -975.99995 H 680.98896 c 0,-10 0,-16 0,-16 0,-4 0,-7 0,-11 0,-3 0,-7 1,-10 0,-3 0,-7 1,-10 1,-3 1,-6 2,-10 l 2,-6 3,-7 3,-7 c 2,-4 4,-7 6,-11 1,-1 1,-2 2,-2 2,1 5,3 8,3 8,0 14,-7 14,-14 0,-5 -2,-9 -6,-12 1,-1 2,-3 3,-4 3,3 7,6 12,6 7,0 13,-6 13,-14 0,-4 -2,-8 -5,-10 l 1,-1 5,-5 c 2,4 7,6 11,6 8,0 14,-6 14,-14 0,-5 -3,-9 -7,-12 l 3,-3 2,-3 c 2,3 6,4 10,4 7,0 14,-6 14,-13 0,-6 -4,-12 -10,-13 v -1 l 3,-5 1,-1 c 1,0 3,1 5,1 8,0 14,-6 14,-14 0,-6 -4,-11 -10,-13 v -1 l 1,-5 1,-1 c 1,0 2,0 3,0 8,0 14,-6 14,-14 0,-7 -6,-13 -14,-13 0,0 -1,0 -1,0 l -1,-1 v -6 -2 c 8,0 14,-6 14,-14 0,-9 -7,-15 -15,-15 -3,0 -5,1 -8,2 -1,-2 -2,-4 -3,-5 0,-2 -1,-3 -2,-4 6,-3 10,-8 10,-14 0,-9 -7,-15 -15,-15 -5,0 -10,2 -12,6 l -3,-2 -6,-6 -2,-2 c 3,-2 5,-6 5,-10 0,-9 -7,-15 -15,-15 -7,0 -12,4 -14,10 l -3,-1 -7,-3 c 1,-3 2,-5 2,-8 0,-8 -7,-15 -15,-15 -8,0 -15,7 -15,15 l -5,-1 c -3,-1 -6,-1 -9,-2 1,-1 1,-3 1,-5 0,-8 -6,-15 -15,-15 -8,0 -14,7 -14,15 0,1 0,2 0,2 h -1 c -5,0 -11,-1 -17,-1 1,-1 1,-3 1,-4 0,-8 -7,-14.999998 -15,-14.999998 -8,0 -15,6.999998 -15,14.999998 0,2 0,3 1,4 -3,1 -6,1 -9,2 -4,0 -8,1 -12,2 l -6,2 -17,36 -22,-17 h -18 c 4,-5 7,-11 7,-18 0,-11 -6,-20 -13.99999,-25 1,-1.999998 1,-3.999998 1,-5.999998 0,-4 -1,-8 -4,-11 h 9.99999 c -2,-3.000004 -4,-7.000004 -5.99999,-11.000004 -1,-1 -1,-3 -2,-4 -1,-4 -2,-8.000004 -2,-13.000004 3,1 6.99999,1 10.99999,2 2,1 4,2 6,2 4,2 7,5.000004 11,7.000004 V 25.762544 c -4,2 -7,4 -11,6 -2,1 -3,1 -5,2 -4,1 -7.99999,2 -11.99999,2 0,-4 1,-8 2,-13 1,-1 1,-3 2,-4 1.99999,-4 3.99999,-8 5.99999,-10.9999996 h -40.99999 l 5,7.9999996 c 1,1 2,3 2,4 1,2 1,3 2,5 1,4 1,7 2,11 -5,0 -9,-1 -13,-2 -1,-1 -3,-1 -4,-2 -4,-2 -8,-4 -12,-6 v 41.000004 c 4,-2 8,-5.000004 12,-7.000004 2,0 4,-1 6,-2 3,-1 7,-1 11,-2 -1,4 -1,7 -2,11.000004 -1,2 -2,4 -2,6 -2,4 -5,8 -7,11.000004 h 10 c -2,3 -4,7 -4,11 0,2 1,4 2,5.999998 -9,5 -15,14 -15,25 0,7 3,13 7,18 h -21 l -22,17 -17,-36 -6,-2 c -4,-1 -8,-2 -12,-2 -3,-1 -6,-1 -9,-1 0,-2 1,-3 1,-5 0,-8 -7,-14.999998 -15,-14.999998 -8,0 -15,6.999998 -15,14.999998 0,1 0,3 1,4 -6,0 -12,1 -17,1 h -1 c 0,0 0,-1 0,-2 0,-8 -6,-15 -14,-15 -9,0 -15,7 -15,15 0,2 0,4 1,5 -3,1 -6,1 -9,2 l -5,1 c 0,-8 -7,-15 -15,-15 -8,0 -15,7 -15,15 0,3 1,5 2,8 l -7,3 -3,1 c -2,-6 -7,-10 -14,-10 -8,0 -15,6 -15,15 0,4 2,8 5,10 l -2,2 -6,6 -3,2 c -2,-4 -7,-6 -12,-6 -8,0 -15,6 -15,15 0,6 4,11 10,14 -1,2 -3,5 -4,7 l -1,2 c -3,-1 -5,-2 -8,-2 -8,0 -15,6 -15,15 0,8 6,14 14,14 v 2 6 l -1,1 c 0,0 -1,0 -1,0 -8,0 -14,6 -14,13 0,8 6,14 14,14 1,0 2,0 3,0 l 1,1 1,5 v 1 c -6,2 -10,7 -10,13 0,8 6,14 14,14 2,0 4,-1 5,-1 l 1,1 3,5 v 1 c -6,1 -10,7 -10,13 0,7 7,13 14,13 4,0 8,-1 10,-4 l 2,3 3,3 c -4,3 -7,7 -7,12 0,8 6,14 14,14 4,0 8,-2 11,-6 v 1 l 6,5 c -3,2 -5,6 -5,10 0,8 6,14 13,14 5,0 9,-3 12,-6 1,1 2,3 3,4 -4,3 -6,7 -6,12 0,7 6,14 13,14 4,0 7,-2 9,-3 1,2 3,4 4,6 l 4,7 c 1,3 3,7 4,10 l 3,7 2,7 c 0,3 1,6 2,9 0,4 0,7 1,10 0,4 0,7 0,11 0,5 -1,10 -1,15 v 8 z"
   id="path43" />
<path
   fill="#0293de"
   d="M 500.98897,500.76255 H 16.988968 V 1450.7625 H 351.98897 c 4,-7 9,-15 20,-23 6,-38 8,-77 6,-119 l -8,-112 c -62,-58 -99,-120 -108,-195 -3,-24.99999 -11,-46.99995 -23,-65.99995 -14,1 -28,3 -43,1 l -17,11 c -14,8 -23,4 -31,-2 -16,-14 -10,-31 7,-43 13,-9 24,-20 32,-36 10,-18 29,-32 45,-47 15,-22 22,-53 25,-78 1,-6 7,-3 7,-3 l -2,32 c 14,-9 29,-24 41,-37 7,-9 9,-19 9,-28 l 7,-3 -1,28 c 19,-1 31,-11 39,-30 l 6,3 c 0,15 -11,25 -30,36 -1,6 1,14 1,20 22,0 40,-9 48,-29 l 4,2 -1,8 c 3,0 5,-2 8,-6 l 10,-19 5,2 c -4,14 -11,28 -31,39 -12,8 -27,14 -45,19 -22,6 -36,23 -51,47 -3,9 1,12 10,8 12,-21 27,-30 46,-28 0,22 -16,37 -34,53 l 66,125.99996 c 16,18.99999 35,27.99999 59,22.99999 l 75,-4.99998 197.99999,-15 c 22,0 41,8 60,17.99998 15,8 25,22 34,36 10,18 13,38 15,60 l -12,8 c -9,19 -16,39 -18,62 0,18 5,36 20,54 11,18 25,31 40,40 6,18 6,35 -2,53 l 5,125 -14,6 v 4 h 156 V 500.76255 Z m -153,957.99995 z m 479.99999,0 v 0 l -2,27 z m -444.99999,-8 v 0 l 10,-14 6,-1 1,-39 c 8,-39 13,-75 15,-116 l 6,-1 7,27 c -1,16 8,39 18,51 l 12,93 z m 101,36 v 0 c 0,0 1,0 1,0 0,0 -1,0 -1,0 z m 2,-1 v 0 c 0,0 0,-1 1,-1 -1,0 -1,1 -1,1 z m 2,-2 v 0 c 0,0 0,0 0,0 0,0 0,0 0,0 z m 0,-1 v 0 c 1,0 1,0 1,0 0,0 0,0 -1,0 z m 1,0 v 0 c 0,-1 0,-1 1,-1 -1,0 -1,0 -1,1 z m 1,-1 v 0 c 0,0 0,0 0,-1 0,1 0,1 0,1 z m 1,-2 v 0 c 0,0 0,0 0,0 0,0 0,0 0,0 z m 1,0 v 0 c 0,0 0,-1 0,-1 0,0 0,1 0,1 z m 0,-1 v 0 c 0,0 0,0 0,-1 0,1 0,1 0,1 z m 0,-1 v 0 c 1,0 1,0 1,0 0,0 0,0 -1,0 z m 1,0 v 0 c 0,-1 0,-1 0,-1 0,0 0,0 0,1 z m 0,-1 v 0 c 0,0 0,-1 1,-1 -1,0 -1,1 -1,1 z m 1,-1 v 0 c 0,0 0,0 0,0 0,0 0,0 0,0 z m 0,0 v 0 c 0,-1 0,-1 0,-1 0,0 0,0 0,1 z m 0,-1 v 0 c 0,0 0,-1 0,-1 0,0 0,1 0,1 z m 0,-1 v 0 c 1,0 1,-1 1,-1 0,0 0,1 -1,1 z m 1,-2 v 0 c 0,0 0,0 0,0 0,0 0,0 0,0 z m 0,-1 v 0 c 0,0 0,-1 0,-1 0,0 0,1 0,1 z m -1,-8 v 0 c 0,-1 0,-1 0,-1 0,0 0,0 0,1 z m -4,-12 v 0 l -3,-9 -16,-89 v -5 c 5,-15 3,-33 -7,-49 l -1,-10 2,-95 c 62.99999,1 129.99999,-6 187.99999,-22 1,25 16,44 36,60 28,33 39,74 30,124 -5,33 -16,64 -36,90 l -3,5 z m 183.99999,8 v 0 l -18,23 z m 28,-8 v 0 -1 l 14,-3 9,-33 c 11,-41 22,-77 35,-103 8,-18 7,-22 -3,-37 l -7,-27 c 27,17 49,40 67,67 l -1,103 c -9,10 -16,22 -21,34 z M 326.98897,743.76255 v 0 c 0,-5 0,-4 -1,-5 -1,-1 -3,1 -4,1 -27,25 -57,50 -71,80 1,4 3,4 7,1 15,-27 35,-48 62,-62 2,-5 4,-10 7,-15 z"
   id="path45" />
<path
   fill="#009846"
   d="M 16.988968,1458.7625 H 347.98897 v 0 c -10,15 -23,25 -32,41 l 28,3 12,-10 h 18 c 3,-11 1,-23 3,-34 h 1 81 l 1,3 c -7,8 -10,18 -8,33 l -25,33 36,-1 c 10,1 17,-2 19,-8 l 2,-32 c 15,-11 12,-21 9,-28 h 180.99999 l -18,23 36,2 7,-25 h 93 c -2,9 -4,18 -4,27 h 38 l 2,-27 h 157 v 3 c -4,90 -61,114 -177,106 l -152,1 c -76,14 -137.99999,49 -154.99999,96 -17,-47 -79,-82 -155,-96 l -152,-1 c -116.000002,8 -173.000002,-16 -177.000002,-106 z"
   id="path47" />

<path
   fill="#d9dada"
   d="m 197.98897,916.76255 v 1 c 11,0 20,-1 31,-2 18,-3 18,-8 31,-28 l 2,-7 7,-1 c 1,0 2,0 3,-1 0,-2 1,-3 1,-4 v -3 l -1,-4 c -9,-11 -7,-12 -4,-17 l 5,-3 c -3,-1 -5,1 -7,1 -16,11 14,23 -9,24 -8,38 -34,39 -59,44 z m 612.99999,365.99995 v 0 c 5,6 10,13 15,19 -1,-8 -5,-16 -10,-23 -3,-4 -8,-8 -12,-13 -4,-5 -8,-11 -13,-17 -6,-9 -11,-18 -16,-27 -3,-5 -5,-10 -7,-15 -2,-4 -4,-9 -6,-14 -1,-5 -2,-10 -3,-15 l -2,-10 c -1,-5 -1,-9 -1,-14 v -10 l 1,-9 c 1,-6 3,-11 4,-17 l 3,-14 c 2,-6 3,-13 4,-20 v -12 -5 -6 -5 l -1,-5 -1,-5 -2,-4 -2,-4 -2,-4 -2,-4 -3,-3 -3,-4 -3,-3 -4,-3 -5,-2 -4,-3 -6,-2 -5,-2 -7,-2 -7,-1 -7,-1 -8,-1 -8,-1 -9,-1 h -5 c 35,16 90,7 75,98 -15,102 9,120 62,184 z m -366.99999,-168 v 0 c 3,-10 8,-13 13,-11 3,1 4,1 6,7 0,7 0,16 1,20 0,4 2,3 4,2 1,-1 1,-4 1,-16 10,2 14,2 19,8 3,4 5,9 9,13 1,1 1,2 2,3 3,3 5,4 8,5 5,1 12.99999,1 16.99999,-3 3,-3 6,-7 7,-11 11,7 18,3 32,2 2,2 4,4 7,5 4,2 10,0 14,-1 14,-5 31,-12 45,-17 0,-2 1,-26 1,-26 2,2 4,-1 6,1 1,-1 4,0 6,0 1,3 4,7 5,11 -6,-20 -7,-41 -6,-60 -4,-8 -5,-6 -10,-3 0,5 -2,11 -2,16 -8,47 -19,64 -45,16 -12,-7 -20,-4 -18,12 0,12 -11,13 -17,5 -11,-14 -22,-28 -32.99999,-42 -14,40 -35,24 -51,-4 -6,-5 -12,-4 -18,2 -3,9 -1,29 3,41 -6,9 -13,9 -12,32 4,31 5,50 -2,78 -9,38 1,80 4,95 0,5 0,10 0,14 l 2,-4 7,-15 c -1,-2 -3,-4 -4,-6 -1,-2 -2,-4 -3,-7 -1,-3 -2,-5 -2,-8 -1,-3 -1,-6 -1,-9 -1,-7 0,-13 0,-19 l 1,-7 c 4,-16 9,-31 11,-48 0,-9 0,-17 -1,-25 -3,-18 -6,-34 -6,-46 z m -96,-66 v 0 c -29,9 -54,-26 -65,-35 1,4 0,9 11,21 24,30 35,39 29,68 10,-1 11,-3 21,-4 -17,-20 2,-43 4,-50 z m 53,-4 v 0 c 1,-6 5,-12 11,-17 13,-6 47,-12 49,-12 -2,-1 -20,2 -48,4 -2,0 -5,0 -7,0 -5,-1 -10,0 -14,-1 -1,-1 -6,-5 -6,-5 0,2 0,3 -1,5 l -1,9 -9,1 -4,-3 c -3,-1 -5,-3 -7,-5 -1,-1 -3,-3 -4,-5 -2,-2 -3,-4 -4,-7 v -2 l -1,-2 v -2 c -1,-3.99998 1,-9.99998 1,-13.99998 -20,-34.99997 -36,-69.99997 -53,-102.99997 -4,-2 -6,-6 -9,-9 l -1,3 c -1,4 0,1 -3,4 17,7 24,41 38,69 6,20.99996 5,47.99995 16,51.99995 l 25,28 c 4,11 9,13 12,16 l 1,-13 c 2,-5 5,-5 7,-2 z m -25,34 v 0 c -10,-1 -3,27 -7,41 4,4 9,6 14,4 -2,-13 -5,-31 -7,-45 z"
   id="path51" />
<path
   fill="#e5f752"
   d="m 380.98897,103.76255 c 6,0 11,5 11,11 0,1 0,3 -1,4 v 0 c -2,0 -3,0 -5,0 1,-1 1,-3 1,-4 0,-4 -3,-6 -6,-6 -4,0 -6,2 -6,6 0,1 0,3 1,4 -2,0 -4,0 -5,0 -1,-1 -1,-3 -1,-4 0,-6 5,-11 11,-11 z m -46,3 v 0 c 6,0 11,5 11,11 0,1 0,2 -1,3 -1,0 -3,0 -5,0 1,-1 1,-2 1,-3 0,-4 -3,-6 -6,-6 -4,0 -7,2 -7,6 0,2 1,3 2,4 -2,0 -4,1 -5,1 -1,-2 -2,-3 -2,-5 0,-6 5,-11 12,-11 z m -43,8 v 0 c 6,0 11,5 11,11 0,0 0,0 0,0 l -2,1 -3,1 c 0,-1 0,-1 0,-2 0,-4 -3,-6 -6,-6 -4,0 -6,2 -6,6 0,2 0,4 2,5 l -5,1 c -1,-1 -2,-4 -2,-6 0,-6 5,-11 11,-11 z m -37,16 v 0 c 5,0 10,4 11,9 l -2,1 -3,1 c 0,-3 -3,-6 -6,-6 -4,0 -6,3 -6,7 0,2 1,4 3,5 l -3,2 -1,1 c -3,-2 -4,-5 -4,-8 0,-7 5,-12 11,-12 z m -33,29 v 0 c 4,0 8,3 10,6 l -1,1 -3,3 c 0,-3 -3,-5 -6,-5 -3,0 -6,3 -6,7 0,3 3,6 6,6 v 0 c -1,1 -2,3 -3,4 -5,-1 -8,-5 -8,-10 0,-7 5,-12 11,-12 z m -18,36 v 0 c 2,0 4,1 6,2 l -1,2 -1,3 c -1,-1 -3,-2 -4,-2 -4,0 -7,3 -7,7 0,3 3,6 7,6 0,0 0,0 1,0 l -1,4 v 1 0 c -6,0 -11,-5 -11,-11 0,-7 5,-12 11,-12 z m -3,38 v 0 c 0,0 1,0 1,0 v 2 3 c 0,-1 -1,-1 -1,-1 -4,0 -6,3 -6,6 0,4 2,6 6,6 1,0 1,0 2,0 l 1,3 v 1 c -1,1 -2,1 -3,1 -6,0 -11,-5 -11,-11 0,-5 5,-10 11,-10 z m 13,53 v 0 c -1,1 -3,1 -4,1 -6,0 -11,-4 -11,-10 0,-5 4,-9 8,-10 v 2 l 1,2 c -2,1 -4,3 -4,6 0,3 3,6 6,6 1,0 1,0 2,-1 l 1,3 z m 17,30 v 0 c -2,3 -5,4 -8,4 -6,0 -10,-5 -10,-10 0,-5 3,-9 8,-10 l 1,2 1,2 c -3,0 -6,2 -6,6 0,3 3,6 6,6 2,0 4,-2 5,-4 z m 23,27 v 0 c -2,3 -6,5 -9,5 -6,0 -11,-5 -11,-11 0,-4 3,-7 6,-9 l 3,4 c -2,0 -4,3 -4,5 0,4 2,6 6,6 2,0 4,-1 5,-4 z m 26,23 v 0 c -2,3 -6,6 -10,6 -5,0 -10,-5 -10,-11 0,-3 2,-6 4,-8 l 2,1 2,2 c -2,1 -4,3 -4,5 0,3 3,6 6,6 3,0 5,-2 6,-4 z m 19,27 v 0 c -1,1 -4,2 -7,2 -5,0 -10,-4 -10,-10 0,-4 2,-7 5,-9 1,1 2,2 3,3 v 0 c -2,1 -3,3 -3,6 0,3 2,6 5,6 2,0 4,-1 5,-2 l 1,2 c 1,0 1,1 1,2 z m 403.99999,0 v 0 c 1,1 4,2 6,2 6,0 11,-4 11,-10 0,-4 -2,-7 -6,-9 0,1 -1,2 -2,3 v 0 c 2,1 3,3 3,6 0,3 -2,6 -6,6 -1,0 -3,-1 -4,-2 -1,1 -2,2 -2,4 z m 19,-27 v 0 c 2,3 6,6 10,6 5,0 10,-5 10,-11 0,-3 -2,-6 -4,-8 l -4,3 c 2,1 4,3 4,5 0,3 -3,6 -6,6 -3,0 -5,-2 -6,-4 z m 26,-23 v 0 c 2,3 6,5 9,5 6,0 11,-5 11,-11 0,-4 -3,-7 -6,-9 l -3,4 c 2,0 4,3 4,5 0,4 -2,6 -6,6 -2,0 -4,-1 -5,-4 l -2,2 z m 23,-27 v 0 c 2,3 5,4 8,4 6,0 10,-5 10,-10 0,-5 -3,-9 -8,-10 l -1,2 -1,2 c 3,0 6,2 6,6 0,3 -3,6 -6,6 -2,0 -5,-2 -5,-4 z m 17,-30 v 0 c 1,1 3,1 4,1 6,0 11,-4 11,-10 0,-5 -4,-9 -8,-10 v 2 l -1,2 c 2,1 4,3 4,6 0,3 -3,6 -6,6 -1,0 -1,0 -2,-1 l -1,3 z m 13,-53 v 0 c 0,0 -1,0 -1,0 v 2 3 c 0,-1 1,-1 1,-1 4,0 6,3 6,6 0,4 -2,6 -6,6 -1,0 -1,0 -2,0 l -1,3 v 1 c 1,1 2,1 3,1 6,0 11,-5 11,-11 0,-5 -5,-10 -11,-10 z m -3,-38 v 0 c -2,0 -4,1 -6,2 1,1 1,2 1,2 l 1,3 c 1,-1 3,-2 4,-2 4,0 7,3 7,7 0,3 -3,6 -7,6 0,0 0,0 -1,0 l 1,4 v 1 0 c 6,0 11,-5 11,-11 0,-7 -5,-12 -11,-12 z m -18,-36 v 0 c -4,0 -8,3 -10,6 l 1,1 3,3 c 0,-3 3,-5 6,-5 3,0 6,3 6,7 0,3 -3,6 -6,6 v 0 l 1,2 c 1,0 1,1 2,2 5,-1 8,-5 8,-10 0,-7 -5,-12 -11,-12 z m -33,-29 v 0 c -5,0 -10,4 -11,9 l 2,1 3,1 c 0,-3 3,-6 6,-6 4,0 6,3 6,7 0,2 -1,4 -3,5 l 3,2 1,1 c 3,-2 4,-5 4,-8 0,-7 -5,-12 -11,-12 z m -37,-16 v 0 c -6,0 -11,5 -11,11 0,0 0,0 0,0 l 2,1 3,1 c 0,-1 0,-1 0,-2 0,-4 3,-6 6,-6 4,0 6,2 6,6 0,2 0,4 -2,5 l 5,1 c 1,-1 2,-4 2,-6 0,-6 -5,-11 -11,-11 z m -43,-8 v 0 c -6,0 -11,5 -11,11 0,1 0,2 1,3 1,0 3,0 5,0 -1,-1 -1,-2 -1,-3 0,-4 3,-6 6,-6 4,0 7,2 7,6 0,2 -1,3 -2,4 2,0 4,1 5,1 1,-2 2,-3 2,-5 0,-6 -5,-11 -12,-11 z m -46,-3 v 0 c -6,0 -11,5 -11,11 0,1 0,3 1,4 1,0 3,0 5,0 -1,-1 -1,-3 -1,-4 0,-4 3,-6 6,-6 4,0 6,2 6,6 0,1 0,3 -1,4 2,0 4,0 5,0 1,-1 1,-3 1,-4 0,-6 -5,-11 -11,-11 z m -117.99999,-1 v 0 c 12,0 22.99999,10 22.99999,23 0,12 -10.99999,22 -22.99999,22 -13,0 -23,-10 -23,-22 0,-13 10,-23 23,-23 z m 0,-18.999998 v 0 c 5,0 10,5 10,11 0,1 -1,3 -1,5 -3,-1 -6,-2 -9,-2 -3,0 -6,1 -9,2 -1,-2 -2,-4 -2,-5 0,-6 5,-11 11,-11 z m 0,-4.000004 v 0 0 h -13 c 5,-9 6,-18.000004 7,-28.000004 -11,1 -19,1 -28,7 v -13 0 -13 c 9,6 17,7 28,8 0,0 0,0 0,0 -1,-11 -1,-20 -7,-29 h 13 v 0 h 13 c -6,9 -7,18 -8,29 0,0 0,0 0,0 10.99999,-1 18.99999,-2 28.99999,-8 v 13 0 13 c -10,-6 -18,-6 -28.99999,-7 1,10 2,19.000004 8,28.000004 z m -148,272.000002 v 0 l -3,-1 c -2,-2 -5,-4 -7,-6 l -3,-4 -2,-2 -1,-2 -1,-1 v -2 -2 -3 -2 -3 l 2,-3 1,-3 2,-3 c 1,-2 2,-3 3,-4 l 1,-4 c 2,-5 3,-10 4,-16 4,4 9,7 15,10 l 3,1 4,1 h 3 l 4,2 3,1 2,1 2,2 1,1 2,2 1,2 v 2 l 1,2 v 2 l 1,5 c -1,4 -1,8 -2,12 -1,4 -2,7 -3,11 0,1 -1,3 -1,4 -2,1 -4,1 -6,2 -5,1 -10,3 -15,4 l -2,-1 c -3,-1 -6,-3 -9,-5 z m -3,-36 v 0 c 2,-3 3,-7 4,-11 3,1 5,2 7,3 l 4,2 c 5,1 12,2 16,7 2,4 1,9 1,13 0,2 -1,4 -1,6 -1,3 -2,5 -3,8 0,3 -1,5 -1,8 l -5,2 c -4,-3 -9,-6 -14,-8 -3,-2 -6,-4 -9,-7 -2,-2 -4,-4 -5,-7 -1,-6 3,-11 6,-16 z m 294.99999,36 v 0 l 3,-1 c 2,-2 5,-4 7,-6 l 3,-4 2,-2 1,-2 1,-1 v -2 -2 l 1,-3 -1,-2 v -3 l -1,-3 -2,-3 -2,-3 c -1,-2 -2,-3 -3,-4 l -1,-4 c -2,-5 -3,-10 -4,-16 -4,4 -9,7 -15,10 l -3,1 -4,1 h -3 l -4,2 -3,1 -2,1 -2,2 -1,1 -2,2 -1,2 v 2 l -1,2 v 2 5 c 0,4 0,8 1,12 1,4 2,7 3,11 0,1 1,3 1,4 6,2 12,3 17,5 2,1 3,1 4,1 l 2,-1 c 3,-1 6,-3 9,-5 z m 3,-36 v 0 c -2,-3 -3,-7 -4,-11 -2,1 -5,2 -7,3 l -4,2 c -5,1 -12,2 -16,7 -2,4 -1,9 -1,13 0,2 1,4 1,6 1,3 2,5 3,8 0,3 1,5 1,8 l 5,2 c 4,-3 9,-6 14,-8 3,-2 6,-4 9,-7 2,-2 4,-4 5,-7 1,-6 -3,-11 -6,-16 z m -167.99999,3 v 0 l -2,-2 c -2,-3 -3,-6 -4,-9 l -2,-4 -1,-2 v -2 -2 -2 l 1,-3 1,-2 1,-2 1,-2 3,-2 2,-2 3,-3 c 2,-1 3,-2 4,-3 l 3,-3 c 4,-4 7,-8 9,-13 3,6 7,11 11,15 l 3,2 2,2 3.99999,3 2,2 2,2 2,2 1,2 1,2 v 3 l 1,2 v 2 l -1,2 v 2 l -2,4 c -2,4 -4,8 -6,11 -2,3 -4.99999,6 -6.99999,9 -1,1 -2,3 -3,5 l -2,4 -2,2 h -12 l -1,-2 c -1,-2 -2,-4 -3,-6 l -3,-3 c -2,-3 -4,-6 -6,-9 z m 11,-34 v 0 c 3,-2 6,-5 8,-9 2,2 3,4 5,6 l 4,3 c 4,3 9.99999,6 10.99999,12 1,4 -2,9 -3.99999,13 -1,2 -2,3 -3,5 -2,2 -4,4 -5,6 -2,3 -4,5 -5,7 h -5 c -3,-5 -7,-9 -10,-13 -2,-3 -4,-6 -5,-9 -2,-3 -3,-6 -2,-9 1,-6 7,-9 11,-12 z m 59.99999,37 v 0 h -1 -1 l -1,1 -1,1 -1,1 -1,1 v 1 2 1 1 l 1,1 1,1 1,1 1,1 h 1 1 2 1 l 1,-1 1,-1 1,-1 1,-1 v -1 -1 -2 -1 l -1,-1 -1,-1 -1,-1 -1,-1 h -1 z m 4,-21 v 0 h -2 -1 l -1,1 -1,1 -1,1 -1,1 v 1 2 1 2 l 1,1 1,1 1,1 1,1 h 1 2 1 2 l 1,-1 1,-1 1,-1 1,-1 v -2 -1 -2 -1 l -1,-1 -1,-1 -1,-1 -1,-1 h -2 z m 3,-22 v 0 h -2 l -1,1 h -2 l -1,1 -1,1 v 2 l -1,1 v 2 1 l 1,2 v 1 l 1,1 1,1 2,1 h 1 2 1 1 l 2,-1 1,-1 1,-1 v -1 l 1,-2 v -1 -2 l -1,-1 v -2 l -1,-1 -1,-1 h -2 l -1,-1 z m 4,-23 v 0 h -1 l -2,1 h -1 l -1,1 -1,1 -1,2 v 1 2 1 2 l 1,1 1,1 1,1 1,1 h 2 l 1,1 2,-1 h 1 l 2,-1 1,-1 1,-1 1,-1 v -2 -1 -2 -1 l -1,-2 -1,-1 -1,-1 h -2 l -1,-1 z m 7,-23 v 0 h -1 l -2,1 -1,1 -2,1 -1,1 v 1 l -1,2 v 1 2 l 1,2 v 1 l 1,1 2,1 1,1 h 2 l 1,1 2,-1 h 1 l 2,-1 1,-1 1,-1 1,-1 v -2 -2 -1 -2 l -1,-1 -1,-1 -1,-1 -2,-1 -1,-1 z m 8,-23 v 0 h -2 l -2,1 -1,1 -1,1 -1,1 -1,1 -1,2 v 2 1 l 1,2 1,1 1,2 1,1 1,1 h 2 2 1 2 l 1,-1 2,-1 1,-2 v -1 l 1,-2 v -1 -2 l -1,-2 v -1 l -1,-1 -2,-1 -1,-1 -2,-1 z m 8,-22 v 0 h -1 -2 l -2,1 -1,1 -1,2 -1,1 v 2 2 1 2 l 1,1 1,2 1,1 2,1 h 2 1 2 2 l 1,-1 2,-1 1,-2 v -1 l 1,-2 v -1 -2 l -1,-2 v -1 l -1,-2 -2,-1 -1,-1 h -2 z m 10,-24 v 0 h -2 l -2,1 -1,1 -2,1 -1,1 -1,2 v 1 2 2 2 l 1,1 1,2 2,1 h 1 l 2,1 h 2 2 l 1,-1 h 2 l 1,-1 1,-2 1,-1 1,-2 v -2 -2 l -1,-1 -1,-2 -1,-1 -1,-1 -2,-1 -1,-1 z m 11,-22 v 0 h -2 l -2,1 -1,1 -2,1 -1,1 -1,2 v 2 1 2 2 l 1,2 1,1 2,1 1,1 2,1 h 2 2 l 2,-1 1,-1 2,-1 1,-1 1,-2 v -2 -2 -1 -2 l -1,-2 -1,-1 -2,-1 -1,-1 -2,-1 z m -157.99999,180 v 0 h 1 1 l 2,1 1,1 v 1 l 1,1 1,1 v 2 1 l -1,1 -1,1 v 1 l -1,1 -2,1 h -1 -1 -2 -1 l -1,-1 -1,-1 -1,-1 -1,-1 v -1 -1 -2 -1 l 1,-1 1,-1 1,-1 1,-1 h 1 z m -4,-21 v 0 h 2 1 l 1,1 1,1 1,1 1,1 v 1 2 1 2 l -1,1 -1,1 -1,1 -1,1 h -1 -2 -1 -2 l -1,-1 -1,-1 -1,-1 v -1 l -1,-2 v -1 -2 l 1,-1 v -1 l 1,-1 1,-1 1,-1 h 2 z m -2,-22 v 0 h 1 l 2,1 h 1 l 1,1 1,1 1,2 v 1 2 1 2 l -1,1 -1,1 -1,1 -1,1 h -2 -1 -2 -1 l -2,-1 -1,-1 -1,-1 v -1 l -1,-2 v -1 -2 l 1,-1 v -2 l 1,-1 1,-1 h 2 l 1,-1 z m -5,-23 v 0 h 1 l 2,1 h 1 l 1,1 1,1 1,2 1,1 v 2 1 l -1,2 -1,1 -1,1 -1,1 -1,1 h -2 l -1,1 -2,-1 h -1 l -2,-1 -1,-1 -1,-1 v -1 l -1,-2 v -1 -2 l 1,-1 v -2 l 1,-1 1,-1 h 2 l 1,-1 z m -7,-23 v 0 h 2 l 1,1 2,1 1,1 1,1 1,1 v 2 1 2 2 l -1,1 -1,1 -1,1 -2,1 h -1 l -2,1 -2,-1 h -1 l -2,-1 -1,-1 -1,-1 v -1 l -1,-2 v -2 -1 l 1,-2 v -1 l 1,-1 1,-1 2,-1 1,-1 z m -7,-23 v 0 h 1 l 2,1 1,1 1,1 2,1 v 1 l 1,2 v 2 1 l -1,2 v 1 l -2,2 -1,1 -1,1 h -2 -1 -2 -2 l -1,-1 -1,-1 -2,-2 v -1 l -1,-2 v -1 -2 l 1,-2 v -1 l 2,-1 1,-1 1,-1 2,-1 z m -9,-22 v 0 h 2 1 l 2,1 1,1 1,2 1,1 v 2 l 1,2 -1,1 v 2 l -1,1 -1,2 -1,1 -2,1 h -1 -2 -2 -2 l -1,-1 -1,-1 -1,-2 -1,-1 -1,-2 v -1 -2 l 1,-2 1,-1 1,-2 1,-1 1,-1 h 2 z m -10,-24 v 0 h 2 l 2,1 2,1 1,1 1,1 1,2 v 1 l 1,2 -1,2 v 2 l -1,1 -1,2 -1,1 h -2 l -2,1 h -2 -1 l -2,-1 h -2 l -1,-1 -1,-2 -1,-1 v -2 l -1,-2 1,-2 v -1 l 1,-2 1,-1 1,-1 2,-1 2,-1 z m -11,-22 v 0 h 2 l 2,1 1,1 2,1 1,1 1,2 v 2 l 1,1 -1,2 v 2 l -1,2 -1,1 -2,1 -1,1 -2,1 h -2 -2 l -1,-1 -2,-1 -1,-1 -2,-1 v -2 l -1,-2 v -2 -1 l 1,-2 v -2 l 2,-1 1,-1 2,-1 1,-1 z m 106,100 v 0 c 4,0 8,4 8,8 0,4 -4,8 -8,8 -4,0 -8,-4 -8,-8 0,-4 4,-8 8,-8 z m 0,-24 v 0 c 5,0 9,4 9,9 0,5 -4,9 -9,9 -5,0 -9,-4 -9,-9 0,-5 4,-9 9,-9 z m 0,-27 v 0 c 6,0 10,4 10,10 0,6 -4,10 -10,10 -6,0 -10,-4 -10,-10 0,-6 4,-10 10,-10 z m 0,-31 v 0 c 6,0 11,5 11,12 0,6 -5,11 -11,11 -6,0 -11,-5 -11,-11 0,-7 5,-12 11,-12 z m -1,231 v 0 c 19.99999,0 34.99999,9 34.99999,21 0,11 -15,20 -34.99999,20 -19,0 -35,-9 -35,-20 0,-12 16,-21 35,-21 z m 0,5 v 0 c 16,0 27.99999,7 27.99999,16 0,8 -11.99999,15 -27.99999,15 -15,0 -28,-7 -28,-15 0,-9 13,-16 28,-16 z m 0,3 v 0 c -13,0 -24,6 -24,13 0,7 11,12 24,12 13,0 23.99999,-5 23.99999,-12 0,-7 -10.99999,-13 -23.99999,-13 z m -115,3 v 0 c 19,-4 36,1 39,12 2,11 -11,23 -30,28 -19,4 -36,-1 -39,-12 -2,-11 11,-23 30,-28 z m 1,5 v 0 c 15,-4 29,0 31,9 2,8 -9,18 -24,21 -15,4 -29,0 -31,-8 -2,-9 9,-18 24,-22 z m 57,-13 v 0 c 8,-1 16,1 16,5 1,3 -5,7 -13,8 -8,1 -15,-1 -16,-5 -1,-3 5,-7 13,-8 z m 1,26 v 0 c 8,-1 15,1 16,4 1,4 -5,8 -13,9 -8,1 -15,-1 -16,-5 -1,-4 5,-7 13,-8 z m 173.99999,-18 v 0 c -18,-4 -36,1 -39,12 -2,11 11,23 30,28 19,4 36,-1 39,-12 3,-11 -11,-23 -30,-28 z m -1,5 v 0 c -15,-4 -29,0 -31,9 -2,8 9,18 24,21 15,4 29,0 31,-8 2,-9 -9,-18 -24,-22 z m 0,3 v 0 c 12,3 21,11 20,18 -2,6 -14,9 -26,6 -13,-3 -22,-11 -20,-17 1,-7 13,-10 26,-7 z m -57,-16 v 0 c -8,-1 -15,1 -16,5 -1,3 5,7 13,8 8,1 15,-1 16,-5 1,-3 -5,-7 -13,-8 z m -1,26 v 0 c -8,-1 -15,1 -16,4 0,4 6,8 14,9 8,1 15,-1 15,-5 1,-4 -5,-7 -13,-8 z m -7,-243 v 0 c -4,0 -7,3 -7,7 0,4 3,7 7,7 4,0 7,-3 7,-7 0,-4 -3,-7 -7,-7 z m -5,19 v 0 c -3,0 -6,3 -6,6 0,4 3,7 6,7 4,0 7,-3 7,-7 0,-3 -3,-6 -7,-6 z m -3,18 v 0 c -3,0 -6,3 -6,6 0,3 3,6 6,6 3,0 6,-3 6,-6 0,-3 -3,-6 -6,-6 z m -4,17 v 0 c -3,0 -5,2 -5,5 0,3 2,6 5,6 3,0 6,-3 6,-6 0,-3 -3,-5 -6,-5 z m -3,15 v 0 c -3,0 -5,2 -5,5 0,3 2,5 5,5 3,0 5,-2 5,-5 0,-3 -2,-5 -5,-5 z m -2,14 v 0 c -3,0 -5,2 -5,5 0,3 2,5 5,5 3,0 5,-2 5,-5 0,-3 -2,-5 -5,-5 z m -2,14 v 0 c -2,0 -4,2 -4,4 0,3 2,5 4,5 3,0 5,-2 5,-5 0,-2 -2,-4 -5,-4 z m -195.99999,110 v 0 c 5,0 10,5 10,10 0,6 -5,10 -10,10 -6,0 -10,-4 -10,-10 0,-5 4,-10 10,-10 z m 24,-9 v 0 c -5,0 -10,5 -10,10 0,6 5,10 10,10 6,0 10,-5 10,-10 0,-6 -4,-10 -10,-10 z m 25,-8 v 0 c 5,0 10,5 10,10 0,6 -5,10 -10,10 -6,0 -10,-4 -10,-10 0,-5 4,-10 10,-10 z m 25,-5 v 0 c -6,0 -10,4 -10,10 0,5 4,10 10,10 5,-1 10,-5 10,-11 0,-5 -5,-10 -10,-9 z m 25,-4 v 0 c 5,0 10,4 10,10 0,5 -5,10 -10,10 -6,0 -10,-4 -10,-10 0,-5 4,-10 10,-10 z m 26,-3 v 0 c -6,0 -10,4 -10,10 0,5 4,10 10,10 5,0 10,-5 10,-10 0,-6 -5,-10 -10,-10 z m 26,-1 v 0 c 5,0 10,5 10,10 0,6 -4,10 -10,10 -5,0 -10,-4 -10,-10 0,-5 4,-10 10,-10 z m 178.99999,30 v 0 c -6,0 -11,5 -11,10 0,6 5,10 10,10 6,0 10,-4 10,-10 1,-5 -4,-10 -9,-10 z m -25,-9 v 0 c 6,0 10,5 10,10 0,6 -5,10 -10,10 -6,0 -10,-5 -10,-10 0,-6 5,-10 10,-10 z m -24,-8 v 0 c -6,0 -11,5 -11,10 0,6 5,10 10,10 6,0 10,-4 10,-10 1,-5 -4,-10 -9,-10 z m -25,-5 v 0 c 5,0 10,4 9,10 0,5 -4,10 -10,10 -5,-1 -10,-5 -10,-11 1,-5 5,-10 11,-9 z m -25,-4 v 0 c -6,0 -10,4 -11,10 0,5 5,10 10,10 6,0 10,-4 10,-10 1,-5 -4,-10 -9,-10 z m -26,-3 v 0 c 5,0 10,4 10,10 0,5 -5,10 -11,10 -5,0 -10,-5 -9,-10 0,-6 4,-10 10,-10 z m -26.99999,-1 v 0 c -5,0 -10,5 -10,10 0,6 5,10 10,10 5.99999,0 9.99999,-4 9.99999,-10 0,-5 -4,-10 -9.99999,-10 z m 149.99999,66 v 0 c -6,-3 -13,-2 -14,1 -1,3 3,7 10,9 3,1 6,2 8,2 0,-2 1,-3 1,-4 0,-2 1,-3 1,-5 -1,-1 -3,-3 -6,-3 z m -6,23 v 0 c -7,-2 -14,-2 -15,1 -1,4 3,8 10,11 5,1 9,2 12,1 0,-3 0,-6 1,-9 -2,-2 -5,-3 -8,-4 z m -314.99999,0 v 0 c 7,-2 14,-2 15,1 2,4 -3,8 -10,11 -5,2 -10,2 -13,1 0,-3 0,-5 0,-8 v 0 c 1,-2 4,-4 8,-5 z m -6,-23 v 0 c 7,-3 13,-2 14,1 1,3 -3,7 -9,9 -4,1 -8,2 -10,1 -1,-2 -1,-4 -2,-7 v 0 c 2,-2 4,-3 7,-4 z m 113,-243 v 0 c 4,0 7,3 7,7 0,4 -3,7 -7,7 -4,0 -7,-3 -7,-7 0,-4 3,-7 7,-7 z m 12,54 v 0 c 3,0 5,2 5,5 0,3 -2,6 -5,6 -3,0 -5,-3 -5,-6 0,-3 2,-5 5,-5 z m 3,15 v 0 c 3,0 5,2 5,5 0,3 -2,5 -5,5 -3,0 -5,-2 -5,-5 0,-3 2,-5 5,-5 z m 2,14 v 0 c 3,0 5,2 5,5 0,3 -2,5 -5,5 -3,0 -5,-2 -5,-5 0,-3 2,-5 5,-5 z m 2,14 v 0 c 3,0 5,2 5,4 0,3 -2,5 -5,5 -2,0 -4,-2 -4,-5 0,-2 2,-4 4,-4 z m -11,-60 v 0 c 4,0 6,3 6,6 0,3 -2,6 -6,6 -3,0 -5,-3 -5,-6 0,-3 2,-6 5,-6 z m -3,-18 v 0 c 3,0 6,3 6,6 0,4 -3,7 -6,7 -4,0 -7,-3 -7,-7 0,-3 3,-6 7,-6 z m -69,214 v 0 c -13,3 -22,11 -21,18 2,6 14,9 26,6 13,-3 22,-11 21,-17 -2,-7 -14,-10 -26,-7 z m 100,-262 v 0 h -25 l -24,20 -19,-39 c -22,-8 -52,-7 -95,-2 -63,8 -93,38 -111,75 -22,59 17,121 70,162 39,48 45,76 41,119 38,-26 127,-39 178,-39 v 0 0 c 33.99999,1 130.99999,9 175.99999,39 -6,-37 2,-71 41,-119 53,-41 92,-103 70,-162 -18,-37 -48,-67 -111,-75 -43,-5 -73,-6 -95,2 l -19,39 -24,-20 h -21.99999 c -4,3 -10,5 -15,5 -6,0 -11,-2 -16,-5 z m -82,-16 v 0 c -18,-3 -36,-2 -54,-1 -21,2 -38,4 -57,9 -4,2 -9,3 -13,5 -4,2 -8,3 -12,5 -3,2 -7,5 -10,7 -3,2 -6,4 -9,7 -3,2 -6,5 -8,8 -4,3 -7,7 -10,11 -2,3 -4,6 -6,9 -3,6 -6,11 -9,18 -1,5 -2,10 -3,15 v 5 l -1,6 1,10 v 0 0 4 l 1,6 v 1 l 3,10 4,10 4,10 5,10 6,10 c 7,10 15,19 23,27 4,5 9,9 13,13 5,4 10,8 15,12 3,4 6,8 9,12 v 0 l 1,1 v 0 0 0 0 0 0 0 0 1 0 0 0 0 0 0 0 0 0 h 1 v 0 0 0 0 0 0 0 0 0 0 0 0 0 0 0 0 0 0 1 0 0 0 0 0 0 c 2,2 4,5 6,8 v 0 0 0 0 0 0 0 0 1 0 c 1,0 1,1 2,1 v 0 1 0 0 0 1 0 c 2,2 3,4 4,6 v 0 h 1 v 0 0 1 0 0 0 0 0 0 0 0 0 c 3,5 6,11 9,16 2,5 4,9 5,15 2,4 3,9 4,14 l 1,7 c 1,9 1,17 1,25 0,0 0,0 0,0 6,-3 12,-5 18,-8 7,-2 14,-5 20,-7 8,-2 15,-4 22,-6 10,-2 20,-4 30,-6 10,-1 21,-3 32,-4 8,0 17,-1 26,-1 12,-1 23,-1 35,-1 10.99999,1 21.99999,1 32.99999,2 9,1 18,2 26,3 12,2 24,4 36,7 l 11,3 c 7,2 14,4 21,6 6,3 13,5 19,8 3,1 6,3 9,4 0,-8 0,-16 1,-25 1,-5 1,-9 3,-14 0,-4 1,-7 3,-10 v 0 -1 0 0 0 -1 0 -1 0 0 0 0 h 1 v 0 0 -1 0 0 0 0 0 0 0 0 0 -1 0 c 2,-4 3,-7 5,-11 v 0 0 l 1,-1 v 0 0 0 0 0 l 1,-2 v 0 0 0 0 -1 0 0 0 h 1 v 0 -1 0 0 0 -1 0 0 0 h 1 v 0 0 -1 0 0 0 0 0 -1 0 h 1 v -1 0 -1 h 1 v 0 -1 0 l 1,-1 v 0 -1 0 0 h 1 v 0 0 -1 0 0 0 0 0 0 l 1,-1 v 0 -1 0 0 0 0 h 1 v -1 0 c 1,-1 1,-2 2,-2 2,-5 5,-9 8,-13 h 1 c 2,-3 4,-6 6,-9 l 1,-1 v 0 c 1,-1 2,-2 3,-4 5,-4 10,-8 15,-12 4,-4 9,-8 13,-13 7,-7 15,-16 23,-27 6,-10 9,-17 15,-28 7,-12 8,-30 9,-43 -1,-3 0,-12 -2,-14 -1,-9 -2,-16 -9,-27 -4,-6 -8,-12 -13,-18 -3,-4 -6,-7 -10,-11 -3,-2 -6,-5 -9,-7 -3,-2 -6,-4 -10,-7 -4,-2 -7,-4 -11,-5 -4,-2 -8,-4 -13,-5 -10,-3 -19,-6 -29,-7 -19,-3 -38,-5 -57,-5 -13,0 -26,1 -38,4 l -21,44 -30,-23 v 0 0 h -23.99999 -48 l -30,23 c -6,-14 -13,-27 -20,-41 v -1 l -1,-2 c -3,-1 -6,-1 -9,-2 z m 254.99999,309 v 0 c -5,-2 -9,-2 -13,-2 3,-2 5,-5 5,-8 1,-1 1,-2 1,-2 2,1 4,2 7,3 3,1 6,2 9,2 -1,2 -1,5 -2,7 0,1 0,2 0,3 -2,-1 -4,-2 -7,-3 z m -1,-25 v 0 c -4,0 -8,0 -10,2 -2,-4 -6,-7 -10,-10 2,1 5,2 7,2 4,2 9,4 13,6 z m -55,-18 v 0 c -15,0 -27,6 -29,15 -3,12 10,25 30,31 -10,-2 -20,-4 -30,-6 -6,-1 -12,-1 -18,-2 -12,-1 -24,-2 -36,-3 -2,0 -3.99999,0 -5.99999,0 13.99999,-3 24.99999,-12 24.99999,-21 0,-13 -18,-24 -39.99999,-24 -22,0 -40,11 -40,24 0,9 11,18 26,21 h -1 c -9,1 -18,1 -27,2 -11,1 -22,2 -33,4 -8,1 -16,2 -24,4 18,-6 30,-19 27,-30 -2,-10 -14,-15 -29,-15 6,-2 13,-3 19,-4 8,-2 16,-3 24,-4 13,-1 26,-2 39,-3 9,0 18,0 27,0 12.99999,0 25.99999,1 38.99999,2 l 25,3 c 10,1 21,3 32,6 z m 9,48 v 0 c 11,1 21,0 28,-3 v 0 c -2,5 4,11 13,14 4,2 8,2 12,2 0,1 0,3 0,5 -6,-3 -11,-5 -17,-7 -6,-3 -13,-5 -20,-7 -5,-2 -11,-3 -16,-4 z m -269.99999,-5 v 0 c 5,-2 9,-2 13,-2 -3,-2 -4,-5 -5,-8 0,-1 0,-2 0,-2 -2,1 -5,2 -8,3 -3,1 -7,2 -10,2 1,3 2,7 2,11 2,-2 5,-3 8,-4 z m 11,-23 v 0 c 2,-4 7,-8 12,-11 -2,0 -4,1 -6,2 -5,2 -11,4 -17,7 h -1 c 5,-1 10,0 12,2 z m 33,28 v 0 c -9,1 -18,0 -25,-3 v 0 c 2,5 -4,11 -12,14 -5,2 -10,2 -14,1 0,2 0,4 0,6 5,-3 10,-5 15,-7 8,-2 15,-5 22,-7 5,-1 9,-3 14,-4 z m 152.99999,-217 v 0 c -4,0 -8,3 -8,7 0,5 4,8 8,8 3,0 6,-2 7,-5 -1,4 -2,8 -3,12 0,-4 -3,-7 -7,-7 -3,0 -5,2 -6,4 1,-28 6,-57 15,-81 l 20,16 c 0,1 -1,2 -1,3 -7,16 -12,33 -17,51 0,0 0,0 0,-1 0,-4 -3,-7 -8,-7 z m -10,25 v 0 c 0,2 0,4 0,6 1,-1 3,-2 5,-2 -2,-1 -4,-2 -5,-4 z m 0,15 v 0 c 0,2 0,3 0,4 1,-1 2,-1 3,-1 3,0 5,1 6,4 0,-2 1,-4 1,-6 -1,1 -3,2 -5,2 -2,0 -4,-1 -5,-3 z m -1,15 v 0 l 1,2 c 3,5 4,10 4,15 1,-6 2,-12 3,-18 -1,1 -2,2 -4,2 -1,0 -2,0 -4,-1 z m -4,-3 v 0 c 0,-38 3,-80 17,-116 l -6,-5 c -14,35 -17,79 -17,116 0,0 0,0 1,1 2,1 4,3 5,4 z m 17,-18 v 0 c -1,-2 -3,-4 -5,-4 3,-1 5,-2 7,-4 -1,2 -2,5 -2,8 z m -63.99999,-84 v 0 c 1,3 2,7 3,11 1,7 2,14 3,20 1,7 2,14 3,21 1,8 1,16 1,24 1,6 1,11 1,17 3,-3 6,-7 8,-12 -4,-2 -7,-5 -7,-10 0,-6 5,-11 11,-11 6,0 11,5 11,11 0,4 -3,8 -7,10 3,5 6,9 9,12 1,-9 1,-19 1,-29 1,-8 2,-16 3,-24 0,-6 0.99999,-11 1.99999,-17 1,-6 3,-13 4,-20 2,-7 5,-15 8,-23 h -18.99999 -3 c 4,3 6,8 6,13 0,8 -7,15 -15,15 -8,0 -15,-7 -15,-15 0,-5 2,-10 6,-12 h -20 c 1,2 2,5 2,7 2,4 3,8 4,12 z m 12,160 v 0 c -5,-11 -10,-13 -15,-22 -1,-3 -3,-6 -4,-9 2,11 4,21 6,32 5,-1 9,-1 13,-1 z m -21,-41 v 0 c 0,-6 2,-11 8,-16 h -1 c -2,2 -4,3 -6,3 -1,0 -3,-1 -4,-2 1,5 2,10 3,15 z m 9,-17 v 0 c 1,-2 3,-3 5,-4 1,-1 1,-1 2,-1 -1,-37 -4,-82 -18,-117 h -1 l -5,5 c 14,36 17,79 17,117 z m 54.99999,24 v 0 c -1,4 -3,8 -6,12 -5,9 -8.99999,11 -14.99999,22 4,0 7.99999,0 11.99999,0 l 2,1 c 2,-12 5,-24 7,-35 z m -69.99999,-76 v 0 c 4,0 8,3 8,7 0,5 -4,8 -8,8 -3,0 -6,-2 -7,-5 1,4 2,8 3,12 0,-4 3,-7 7,-7 3,0 5,2 7,4 -2,-28 -6,-56 -16,-81 l -20,15 c 0,1 1,3 1,4 7,16 12,33 17,51 0,0 0,0 0,-1 0,-4 4,-7 8,-7 z m 10,25 v 0 c -1,2 -3,3 -5,4 2,0 4,1 5,2 0,-2 0,-4 0,-6 z m -7,5 v 0 c -3,-1 -5,-2 -6,-4 0,2 1,5 2,8 0,-2 2,-4 4,-4 z m 7,11 v 0 c -1,1 -3,2 -5,2 -2,0 -4,-1 -5,-2 1,2 1,4 1,6 1,-3 4,-4 6,-4 1,0 2,0 3,1 0,-1 0,-2 0,-3 z m -76,80 v 0 l 7,-5 9,2 c -2,0 -4,0 -6,1 -3,0 -7,1 -10,2 z m 26,-5 v 0 l -20,-3 -11,8 c 1,-4 2,-7 3,-11 l 6,-4 22,3 c 0,2 0,5 0,7 z m -142,-5 v 0 l 17,-12 21,3 -17,13 z m -7,2 v 0 l 29,5 24,-18 -29,-4 -24,17 c -2,-2 -4,-3 -5,-5 l 27,-20 31,6 7,1 c -1,3 -1,6 0,9 l -24,17 -5,4 -21,-3 c -3,-3 -6,-5 -8,-7 -1,-1 -1,-1 -2,-2 z m -35,-138 v 0 l -14,-2 c -1,2 -1,3 -2,4 l -2,5 -1,5 v 0 l 2,1 z m -12,-5 v 0 l 20,3 -24,18 -4,-1 v 2 l -1,5 v 0 c 3,1 6,1 6,1 l 40,-29 -33,-5 c -2,2 -3,4 -4,6 z m 21,45 v 0 l -17,12 -12,-2 -1,-7 9,-7 z m -28,13 v 0 l 12,2 24,-17 -29,-5 -9,6 v -7 -1 l 7,-5 49,8 -41,29 -11,-2 z m 37,26 v 0 l -20,-3 -7,5 v 0 l 5,10 5,1 z m -29,-1 v 0 l 8,-5 29,4 -24,18 -4,-1 4,6 1,2 h 1 l 40,-29 -49,-8 -8,7 z m 39,41 v 0 l -7,5 c -3,-3 -5,-5 -7,-7 z m -5,7 v 0 l 13,-9 -25,-4 c -2,-3 -4,-5 -6,-8 l 48,8 -25,18 c -2,-1 -3,-2 -4,-4 z m 26,-179 v 0 l 21,4 17,-13 -14,-2 c -1,0 -2,1 -3,1 -3,1 -6,1 -10,2 z m 2,-5 v 0 l -10,7 29,5 25,-17 -12,-2 c 5,-1 9,-2 13,-2 4,0 8,-1 12,-1 h 4 l -40,29 -46,-7 c 4,-2 7,-4 11,-6 2,-1 4,-2 7,-3 2,-1 4,-2 7,-3 z m 424.99999,5 v 0 l -20,4 -18,-13 13,-2 c 2,1 3,1 5,1 3,1 6,2 10,3 z m 0,-4 v 0 l 8,6 -29,5 -25,-17 12,-2 c -6,-1 -11,-2 -16,-2 -3,-1 -6,-1 -9,-1 h -4 l 40,29 45,-7 c -1,-1 -2,-1 -3,-2 -4,-2 -8,-4 -12,-6 -3,-1 -5,-2 -7,-3 z m 40,97 v 0 l 17,12 11,-2 1,-8 -8,-6 z m 27,14 v 0 l -11,1 -24,-17 30,-5 7,6 v -7 -2 l -6,-4 -48,8 40,29 10,-2 z m -36,25 v 0 l 21,-3 6,4 -1,1 -5,10 -4,1 z m 28,-2 v 0 l -7,-4 -29,4 24,18 3,-1 -4,6 c 0,1 -1,1 -1,2 l -40,-29 49,-8 8,6 v 0 z m -37,42 v 0 l 6,4 c 2,-2 4,-4 6,-6 z m 4,7 v 0 l -12,-9 23,-4 v 0 c 2,-3 4,-5 6,-8 l -47,8 25,18 c 2,-2 3,-4 5,-5 z m 23,-126 v 0 l 13,-2 c 1,1 1,3 2,4 l 2,5 1,5 v 0 l -1,1 z m 11,-5 v 0 l -19,3 25,18 2,-1 v 2 l 1,5 v 0 c -2,1 -5,1 -5,1 l -40,-29 33,-5 c 1,2 2,4 3,6 z m -463.99999,184 v 0 0 l 17,-12 -20,-4 -6,4 c 1,1 1,2 2,2 2,3 4,7 7,10 z m -10,-14 v 0 l 6,-5 29,5 -4,3 c 4,-2 7,-3 10,-5 3,-1 5,-2 8,-3 l -45,-7 -9,6 c 2,2 3,4 5,6 z m 110,-231 v 0 c 1,3 3,5 4,8 l 18,38 1,2 c 18,46 27,97 38,154 -3,0 -6,0 -9,0 -9,1 -19,2 -28,3 0,-1 -1,-3 -1,-3 v 0 c 0,-1 0,-2 0,-3 v 0 c -1,-8 -2,-16 -3,-23 v 0 c -1,-1 -1,-2 -1,-3 v 0 c -1,-4 -1,-7 -2,-10 v 0 c 0,-1 0,-2 0,-3 v 0 c -2,-8 -4,-16 -6,-24 v 0 c 0,-1 -1,-2 -1,-3 v 0 c -1,-3 -1,-7 -2,-10 v 0 c -1,-1 -1,-2 -1,-3 v 0 c -2,-7 -5,-15 -7,-22 v 0 c -1,-1 -1,-2 -1,-3 v 0 c -2,-4 -3,-8 -4,-12 v 0 c -1,-1 -1,-2 -2,-3 v 0 c -2,-6 -4,-12 -7,-19 v 0 c 0,0 -1,-1 -1,-2 v 0 c -1,-2 -2,-4 -3,-6 v 0 c 0,-2 -1,-3 -1,-4 v 0 c -1,-2 -2,-4 -3,-7 v 1 c -1,-2 -1,-3 -2,-4 v 0 c -2,-4 -4,-8 -6,-12 v 0 -1 0 l -1,-2 v 0 c -4,-8 -8,-15 -12,-23 v 0 0 0 0 0 0 0 0 0 -1 0 0 h -1 v 0 0 0 0 0 0 0 0 0 0 0 0 -1 0 0 0 0 0 0 0 c -1,-1 -1,-2 -2,-3 7,0 13,0 19,0 9,1 18,1 27,4 z m -14,92 v 0 l -21,-3 -17,12 21,3 z m -63,119 v 0 l 5,-4 c 2,2 4,4 6,5 z m -39,12 v 0 l 6,-5 -13,-2 c 1,1 2,2 3,2 1,2 2,4 4,5 z m -70,-88 v 0 l 5,-4 -7,-1 z m -7,-41 v 0 l 3,-3 h -3 v 2 z m 194,49 v 0 l -17,12 21,3 c -1,-5 -2,-10 -4,-15 z m 4,18 v 0 l -24,-4 -9,6 c 3,2 5,3 6,4 l 5,-3 24,4 c -1,-2 -1,-5 -2,-7 z m -24,9 v 0 c 3,3 4,8 5,13 h 1 l 17,-12 -20,-3 z m 5,16 v 0 c 0,2 0,5 -1,7 l 5,1 19,-14 c 0,-3 -1,-5 -1,-8 l -20,14 z m 23,-3 v 0 l -15,11 17,3 c 0,-5 -1,-9 -2,-14 z m -65,-184 v 0 0 l -40,29 49,8 8,-6 c -1,-2 -2,-4 -3,-6 l -7,4 -29,-4 24,-18 3,1 c -2,-3 -3,-5 -5,-8 z m 18,34 v 0 l -5,3 7,1 c -1,-1 -1,-3 -2,-4 z m 4,8 v 0 l -13,-2 -40,28 49,8 14,-10 c -1,-2 -2,-4 -2,-6 l -12,8 -30,-5 25,-17 11,2 c -1,-2 -1,-4 -2,-6 z m 11,27 v 0 l -11,8 15,2 c -1,-3 -2,-7 -4,-10 z m 6,13 v 0 l -20,-3 -41,29 49,8 19,-14 c -1,-2 -2,-4 -3,-6 l -17,12 -30,-4 24,-18 21,4 c -1,-3 -2,-5 -2,-8 z m 8,23 v 0 l -16,11 20,3 c -1,-4 -3,-9 -4,-14 z m 5,17 v 0 l -24,-3 -40,28 4,1 c 0,-1 0,-2 0,-2 1,0 2,1 3,2 l 41,7 21,-14 c -1,-3 -2,-5 -2,-7 l -20,14 -30,-5 25,-17 24,4 c -1,-3 -2,-5 -2,-8 z m -46,101 v 0 c -4,-2 -7,-3 -11,-5 l -24,-4 11,-9 c -1,-1 -2,-4 -3,-6 l -20,15 -6,4 47,7 c 1,0 2,-1 3,-1 z m -26,-39 v 0 c 1,-2 2,-4 3,-6 l -21,-4 24,-17 h 5 c 0,-2 1,-4 1,-6 l -8,-2 -11,9 -29,20 32,5 z m 5,-9 v 0 c 2,-3 4,-9 5,-14 l -3,-1 -17,12 z m 14,-23 v 0 c 7,5 14,9 19,9 3,1 5,2 7,2 l 8,-6 z m 42,45 v 0 c 0,0 0,1 0,1 l 1,-1 z m -59,-51 v 0 l 2,1 40,-29 -49,-8 -40,29 z m -50,-5 v 0 l -40,29 48,8 28,-20 13,-9 z m -50,-11 v 0 l 49,8 40,-29 -48,-8 z m 31,-68 v 0 l -40,29 49,8 40,-29 -19,-3 z m -36,-9 v 0 l 36,6 40,-29 -46,-7 c -1,1 -2,1 -3,2 -2,2 -4,3 -6,5 -3,3 -7,6 -9,9 -4,4 -7,7 -10,12 -1,0 -1,1 -2,2 z m 40,7 v 0 l 27,4 21,4 41,-29 -43,-7 -6,-1 z m 49,11 v 0 l -40,28 49,8 40,-29 z m 85,61 v 0 l -17,13 -21,-4 17,-12 z m -55,-71 v 0 l 17,-12 13,2 c 1,2 2,4 2,6 l -11,8 z m 10,-50 v 0 c 2,4 4,7 6,11 l -6,4 -20,-3 17,-12 z m 235.99999,121 v 0 l 17,13 21,-4 -17,-12 z m 9,-39 v 0 l 21,-3 17,12 -21,3 z m -1,3 v 0 l 18,12 29,-4 -24,-18 -21,4 c 1,-3 2,-5 3,-8 l 20,-3 40,29 -49,8 -18,-14 c 0,-2 1,-4 2,-6 z m -11,34 v 0 l 25,-4 24,17 -30,5 -20,-15 c 0,3 -1,5 -2,8 l 21,14 40,-6 c 1,-1 2,-2 3,-3 0,0 0,1 0,2 l 6,-1 -41,-28 -24,3 c 0,3 -1,5 -2,8 z m 58,-69 v 0 l -17,-12 -13,2 c -1,2 -1,4 -2,6 l 11,8 z m 8,2 v 0 l -30,5 -11,-8 c -1,2 -2,4 -3,6 l 14,10 49,-8 -40,-28 -12,2 c -1,2 -2,4 -3,6 l 12,-2 z m -25,-61 v 0 l 1,-2 v 0 c 1,-1 2,-2 2,-2 -5,-1 -11,-1 -17,-1 h -5 c -8,1 -16,1 -24,3 -7,17 -16,32 -22,49 -19,46 -28,97 -39,154 7,0 15,1 23,2 5,0 10,1 15,1 8,-72 31,-140 66,-204 z m 7,9 v 0 h 4 l 17,12 -21,3 -6,-4 c 2,-4 4,-7 6,-11 z m -7,14 v 0 l 6,4 30,-4 -25,-18 -2,1 c 1,-3 2,-5 4,-8 v 0 0 l 40,29 -49,8 -7,-6 c 1,-2 2,-4 3,-6 z m 73,199 v 0 l -6,-5 12,-2 -3,2 c -1,2 -2,3 -3,5 z m 70,-89 v 0 l -5,-3 6,-1 z m 6,-41 v 0 l -2,-2 h 2 z m -154,-60 v 0 l 6,3 -8,1 c 1,-1 2,-3 2,-4 z m -15,35 v 0 l 11,8 -15,2 c 1,-3 2,-7 4,-10 z m -13,36 v 0 l 15,11 -20,3 c 2,-4 3,-9 5,-14 z m -11,38 v 0 l 17,13 -21,3 c 1,-5 2,-10 4,-16 z m -5,19 v 0 l 25,-4 9,6 c -3,1 -5,2 -7,4 l -4,-3 -24,4 c 0,-2 1,-5 1,-7 z m -2,11 v 0 l 20,14 h 1 c 0,2 0,5 1,7 l -3,1 -20,-14 c 0,-3 1,-5 1,-8 z m -2,11 v 0 l 17,11 -19,3 c 1,-5 2,-10 2,-14 z m -2,17 v 0 l 22,-3 5,3 c 1,4 2,7 3,11 l -10,-7 -20,3 h -1 c 0,-2 1,-5 1,-7 z m 27,12 v 0 c -6,-1 -12,-2 -18,-3 l 10,-2 z m 84,33 v 0 l -16,-12 20,-4 5,4 c -1,1 -2,2 -2,3 -2,2 -3,4 -5,6 0,1 -1,2 -2,3 z m 11,-15 v 0 l -6,-4 -29,5 7,5 -5,-2 c -5,-3 -9,-5 -14,-7 l -2,-1 45,-7 8,6 c -1,2 -3,3 -4,5 z m -58,-7 v 0 c 1,0 2,1 3,1 l 48,-7 -6,-4 -21,-15 c -1,2 -2,4 -3,6 l 12,9 -26,4 c -3,2 -6,3 -9,5 z m -33,-54 v 0 c -4,4 -5,9 -6,14 v 0 l -17,-12 21,-3 z m 58,42 v 0 l -6,-5 c -2,3 -4,5 -6,7 z m 9,-40 v 0 l -17,-12 -4,1 c 1,6 3,11 5,14 z m 8,2 v 0 l -22,4 c 1,2 2,4 3,6 l 5,-1 32,-5 -28,-20 -12,-9 -9,2 c 0,2 1,4 1,7 l 6,-1 z m -17,22 v 0 c 0,-3 0,-6 -1,-9 l 8,-1 31,-6 27,20 c -4,4 -9,8 -13,12 -1,0 -2,1 -3,2 l -19,3 -6,-4 z m -22,-44 v 0 c -6,5 -13,9 -18,9 -3,1 -4,1 -6,2 l -8,-6 z m -41,45 z m 61,-51 v 0 l -3,1 -40,-29 49,-8 40,29 z m 49,-5 v 0 l 41,29 -49,8 -28,-20 -12,-9 z m 50,-11 v 0 l -49,8 -40,-29 49,-8 z m -31,-68 v 0 l 40,29 -49,8 -40,-29 20,-3 z m 35,-8 v 0 l -34,5 -41,-29 45,-7 c 1,1 3,2 4,2 2,2 4,4 6,6 4,3 7,7 11,10 3,4 6,8 9,13 z m -38,6 v 0 l -28,4 -21,4 -40,-29 42,-7 6,-1 z m -50,11 v 0 l 40,28 -48,8 -41,-29 z m -437.99999,-26 v 0 l 18,-12 20,3 -17,13 z m -8,2 v 0 l 30,5 24,-17 -29,-5 z m 61,7 v 0 l 17,-12 21,3 -17,12 z m -8,2 v 0 l 30,4 24,-17 -30,-5 z m -35,29 v 0 l 17,-12 21,3 -18,12 z m -8,2 v 0 l 29,4 25,-17 -30,-5 z m 52,8 v 0 l 30,5 24,-17 -29,-5 z m 8,-2 v 0 l 17,-12 21,3 -17,13 z m -43,31 v 0 l 17,-12 21,3 -17,13 z m -8,2 v 0 l 29,5 25,-18 -30,-4 z m 61,7 v 0 l 17,-12 20,3 -17,12 z m -8,2 v 0 l 29,4 24,-17 -29,-5 z m -36,29 v 0 l 17,-13 21,4 -17,12 z m -8,2 v 0 l 30,4 24,-17 -30,-5 z m 179,88 v 0 c 10,-1 19,2 20,7 1,5 -7,11 -17,12 -10,1 -18,-2 -19,-7 -1,-5 6,-11 16,-12 z m 1,26 v 0 c 10,-1 19,2 19,7 1,5 -6,10 -16,12 -10,1 -19,-2 -20,-8 -1,-5 7,-10 17,-11 z m 8,-99 v 0 h 2 l 2,1 2,2 1,1 1,2 1,2 v 3 2 l -1,2 -1,2 -1,1 -2,2 -2,1 h -2 l -2,1 -2,-1 h -3 l -1,-1 -2,-2 -1,-1 -1,-2 -1,-2 v -2 -3 l 1,-2 1,-2 1,-1 2,-2 v 0 0 l -2,-1 -2,-1 -2,-1 -1,-2 -1,-2 -1,-2 v -2 -2 l 1,-3 1,-1 1,-2 2,-2 h 1 l -2,-1 -2,-1 -2,-1 -1,-2 -1,-2 -1,-2 v -2 -3 l 1,-2 1,-2 1,-2 2,-1 2,-1 v 0 0 h -3 l -2,-1 -2,-1 -2,-2 -1,-1 -1,-3 -1,-2 v -2 -3 l 1,-2 1,-2 1,-2 2,-1 v 0 0 h -2 l -3,-1 -2,-1 -2,-2 -1,-2 -1,-2 -1,-2 v -3 -2 l 1,-2 1,-2 1,-2 2,-2 v 0 h -3 l -2,-1 -3,-1 -1,-1 -2,-2 -1,-2 -1,-3 v -2 -3 l 1,-2 1,-2 2,-2 v -1 h -3 l -2,-1 -2,-1 -2,-1 -2,-2 -1,-2 -1,-3 v -2 -3 l 1,-3 1,-2 2,-2 1,-1 h -2 -2 l -3,-1 -2,-1 -2,-1 -2,-2 -1,-3 -1,-2 v -3 -3 l 1,-2 1,-2 1,-1 h -1 -2 l -3,-1 -2,-1 -2,-2 -2,-2 -1,-2 -1,-3 v -3 -2 l 1,-3 1,-2 2,-2 2,-2 2,-1 3,-1 h 2 3 l 3,1 2,1 2,2 2,2 1,2 1,3 v 2 3 l -1,3 -1,2 -1,1 v 0 h 3 l 3,1 2,1 2,2 1,2 2,2 v 2 l 1,3 -1,3 v 2 l -2,3 -1,2 -2,1 h 2 2 l 3,1 2,1 2,1 2,2 1,2 1,3 v 3 2 l -1,3 -1,2 -2,2 v 0 h 2 l 2,1 3,1 1,2 2,2 1,2 1,2 v 3 2 l -1,3 -1,2 -2,2 -1,1 v 0 h 3 l 2,1 2,1 2,2 1,2 1,2 1,2 v 2 3 l -1,2 -1,2 -1,2 -2,2 v 0 0 h 2 l 3,1 2,1 1,1 2,2 1,2 1,2 v 3 2 l -1,2 -1,3 -2,1 -1,2 -2,1 h -1 1 2 l 2,1 2,1 2,1 1,2 1,2 1,2 v 3 2 l -1,2 -1,2 -1,2 -2,1 -1,1 h 2 l 2,1 1,2 2,2 1,1 v 3 l 1,2 -1,2 v 2 l -1,2 -2,2 -1,1 z m -1,-144 v 0 c 6,0 10,4 10,10 0,5 -4,10 -10,10 -5,0 -10,-5 -10,-10 0,-6 5,-10 10,-10 z m 5,19 v 0 c 5,0 9,4 9,9 0,6 -4,10 -9,10 -5,0 -9,-4 -9,-10 0,-5 4,-9 9,-9 z m 3,19 v 0 c 5,0 9,3 9,8 0,4 -4,8 -9,8 -4,0 -8,-4 -8,-8 0,-5 4,-8 8,-8 z m 299.99999,-30 v 0 l -17,-12 -21,3 17,13 z m 8,2 v 0 l -30,5 -24,-17 29,-5 z m -61,7 v 0 l -17,-12 -21,3 17,12 z m 8,2 v 0 l -29,4 -25,-17 30,-5 z m 35,29 v 0 l -17,-12 -20,3 17,12 z m 9,2 v 0 l -30,4 -24,-17 29,-5 z m -53,8 v 0 l -30,5 -24,-17 30,-5 z m -8,-2 v 0 l -17,-12 -21,3 17,13 z m 43,31 v 0 l -17,-12 -21,3 18,13 z m 8,2 v 0 l -29,5 -25,-18 30,-4 z m -60,7 v 0 l -17,-12 -21,3 17,12 z m 8,2 v 0 l -30,4 -24,-17 29,-5 z m 35,29 v 0 l -17,-13 -21,4 17,12 z m 8,2 v 0 l -29,4 -25,-17 30,-5 z m -17,37 v 0 l -17,-12 -21,3 17,13 z m 8,2 v 0 l -30,5 -24,-18 29,-4 z m -170,49 v 0 c -10,-1 -19,2 -19,7 -1,5 6,11 16,12 10,1 19,-2 20,-7 0,-5 -7,-11 -17,-12 z m -1,26 v 0 c -9,-1 -18,2 -19,7 -1,5 6,10 16,12 10,1 19,-2 20,-8 1,-5 -7,-10 -17,-11 z m -8,-99 v 0 h -2 l -2,1 -1,2 -2,1 -1,2 v 2 l -1,3 1,2 v 2 l 1,2 2,1 1,2 2,1 h 2 l 2,1 3,-1 h 2 l 2,-1 1,-2 2,-1 1,-2 v -2 l 1,-2 -1,-3 v -2 l -1,-2 -2,-1 -1,-2 h -1 v 0 l 2,-1 2,-1 2,-1 1,-2 1,-2 1,-2 v -2 -2 l -1,-3 -1,-1 -1,-2 -2,-2 h -1 l 2,-1 2,-1 2,-1 1,-2 1,-2 1,-2 v -2 -3 l -1,-2 -1,-2 -1,-2 -2,-1 -2,-1 v 0 0 h 3 l 2,-1 2,-1 2,-2 1,-1 1,-3 1,-2 v -2 -3 l -1,-2 -1,-2 -1,-2 -2,-1 v 0 0 h 3 l 2,-1 2,-1 2,-2 1,-2 2,-2 v -2 l 1,-3 -1,-2 v -2 l -2,-2 -1,-2 -2,-2 h 1 2 l 3,-1 2,-1 2,-1 1,-2 1,-2 1,-3 v -2 -3 l -1,-2 -1,-2 -1,-2 -1,-1 h 3 l 2,-1 3,-1 2,-1 1,-2 1,-2 1,-3 v -2 -3 l -1,-3 -1,-2 -1,-2 -2,-1 h 2 2 l 3,-1 2,-1 2,-1 2,-2 1,-3 1,-2 v -3 -3 l -1,-2 -1,-2 -1,-1 h 1 3 l 2,-1 3,-1 2,-2 1,-2 2,-2 v -3 l 1,-3 -1,-2 v -3 l -2,-2 -1,-2 -2,-2 -3,-1 -2,-1 h -3 -3 l -2,1 -3,1 -2,2 -1,2 -2,2 v 3 l -1,2 1,3 v 3 l 2,2 v 1 0 h -3 l -2,1 -3,1 -2,2 -1,2 -1,2 -1,2 -1,3 1,3 1,2 1,3 1,2 2,1 h -2 -2 l -3,1 -2,1 -2,1 -1,2 -2,2 v 3 l -1,3 1,2 v 3 l 2,2 1,2 h 1 -3 l -2,1 -2,1 -2,2 -2,2 -1,2 -1,2 v 3 2 l 1,3 1,2 2,2 2,1 h -1 -2 l -3,1 -2,1 -2,2 -1,2 -1,2 -1,2 v 2 3 l 1,2 1,2 1,2 2,2 h 1 -1 -2 l -2,1 -2,1 -2,1 -2,2 -1,2 v 2 l -1,3 1,2 v 2 l 1,3 2,1 2,2 2,1 v 0 0 h -3 l -2,1 -2,1 -2,1 -1,2 -1,2 -1,2 v 3 2 l 1,2 1,2 1,2 2,1 1,1 h -2 l -1,1 -2,2 -2,2 -1,1 v 3 2 2 2 l 1,2 2,2 2,1 z m 1,-144 v 0 c -5,0 -10,4 -10,10 0,5 5,10 10,10 6,0 10,-5 10,-10 0,-6 -4,-10 -10,-10 z m -5,19 v 0 c -5,0 -9,4 -9,9 0,6 4,10 9,10 5,0 10,-4 10,-10 0,-5 -5,-9 -10,-9 z m -3,19 v 0 c -5,0 -8,3 -8,8 0,4 3,8 8,8 4,0 8,-4 8,-8 0,-5 -4,-8 -8,-8 z m -42.99999,134 v 0 c 78.99999,0 148.99999,18 185.99999,44 -3,4 -5,9 -8,13 -1,3 -3,7 -4,10 0,1 -1,2 -1,3 -39,-22 -102,-36 -172.99999,-36 -71,0 -134,14 -173,36 -1,-3 -2,-5 -3,-7 -2,-5 -4,-9 -7,-14 -1,-2 -2,-3 -3,-5 37,-26 107,-44 186,-44 z m -164,35 v 0 c 7,0 12,6 13,13 0,7 -6,13 -13,13 -7,0 -13,-6 -13,-13 0,-7 6,-12 13,-13 z m 24,-9 v 0 c -7,0 -13,6 -12,13 0,7 5,13 12,13 7,0 13,-6 13,-13 0,-7 -6,-13 -13,-13 z m 25,-8 v 0 c 7,0 12,6 13,13 0,7 -6,13 -13,13 -7,0 -13,-6 -13,-13 0,-7 6,-13 13,-13 z m 25,-5 v 0 c -7,0 -13,6 -13,13 0,7 6,12 13,12 7,0 13,-6 12,-13 0,-7 -5,-12 -12,-12 z m 25,-4 v 0 c 7,0 12,6 12,13 1,7 -5,13 -12,13 -7,0 -13,-6 -13,-13 0,-7 6,-13 13,-13 z m 25,-3 v 0 c -7,0 -12,6 -12,13 0,7 6,12 13,12 7,0 12,-5 12,-13 0,-7 -6,-12 -13,-12 z m 27,0 v 0 c 7,-1 13,5 13,12 0,7 -6,13 -13,13 -7,0 -13,-5 -13,-13 0,-7 6,-12 13,-12 z m 178.99999,29 v 0 c -7,0 -13,6 -13,13 0,7 5,13 12,13 7,0 13,-6 13,-13 0,-7 -5,-12 -12,-13 z m -25,-9 v 0 c 7,0 13,6 13,13 0,7 -6,13 -13,13 -7,0 -13,-6 -13,-13 0,-7 6,-13 13,-13 z m -24,-8 v 0 c -7,0 -13,6 -13,13 0,7 5,13 12,13 7,0 13,-6 13,-13 0,-7 -5,-13 -12,-13 z m -25,-5 v 0 c 7,0 12,6 12,13 0,7 -6,12 -13,12 -7,0 -12,-6 -12,-13 0,-7 6,-12 13,-12 z m -25,-4 v 0 c -7,0 -13,6 -13,13 0,7 5,13 12,13 7,0 13,-6 13,-13 0,-7 -5,-13 -12,-13 z m -26,-3 v 0 c 7,0 12,6 12,13 0,7 -6,12 -13,12 -7,0 -12,-5 -12,-13 0,-7 6,-12 13,-12 z m -26.99999,0 v 0 c -7,-1 -12,5 -13,12 0,7 6,13 13,13 6.99999,0 12.99999,-5 12.99999,-13 0,-7 -6,-12 -12.99999,-12 z m -14,-165 v 0 c 8,0 14,7 14,14 0,8 -6,14 -14,14 -8,0 -14,-6 -14,-14 0,-7 6,-14 14,-14 z m 0,28 v 0 c 7,0 12,5 12,12 0,7 -5,12 -12,12 -7,0 -12,-5 -12,-12 0,-7 5,-12 12,-12 z"
   id="path53" />
<path
   fill="#ffffff"
   d="m 352.98897,764.76255 c 13,-5 22,-10 29,-16 l -4,-1 c -5,4 -14,9 -26,13 l -26,5 c 0,0 2,-7 -1,-6 -1,0 -5,7 -6,7 -14,6 -42,25 -54,56 -8,5 -19,7 -20,-1 l -6,-1 -2,3 -13,12 c -10,8 -19,17 -28,30 -2,3 -4,7 -6,10 l -8,12 c -6,8 -14,15 -23,20 -8,6 -17,14 -12,26 l 2,2 c 0,1 1,2 1,2 l 5,2 c 4,1 15,-3 22,-13 3,-3 4,-3 11,-4 l 3,1 c 17,4 44,1 59,-6 13,-8 14,-20 17,-30 18,-1 16,-28 4,-30 -3,-1 1,-2 2,-3 2,0 16,-2 16,-1 l 6,1 c 10,-9 21,-19 28,-30 l 2,-3 c 2,-4 4,-8 5,-12 -6,0 -11,2 -16,5 -4,2 -7,5 -9,8 -3,3 -5,6 -7,10 l -2,4 c -3,5 -8,5 -13,5 h -5 l -4,-2 -3,-4 -5,-1 7,-10 5,-8 c 4,-7 5,-10 10,-17 4,-5 8,-9 12,-14 4,-3 7,-5 11,-8 2,-1 4,-2 6,-3 4,-2 9,-3 13,-5 z m -155,152 v 0 1 c 11,0 20,-1 31,-2 18,-3 18,-8 31,-28 l 2,-7 7,-1 c 1,0 2,0 3,-1 0,-2 1,-3 1,-4 v -3 l -1,-4 c -9,-11 -7,-12 -4,-17 l 5,-3 c -3,-1 -5,1 -7,1 -16,11 14,23 -9,24 -8,38 -34,39 -59,44 z m 612.99999,365.99995 v 0 c 5,6 10,13 15,19 -1,-8 -5,-16 -10,-23 -3,-4 -8,-8 -12,-13 -4,-5 -8,-11 -13,-17 -6,-9 -11,-18 -16,-27 -3,-5 -5,-10 -7,-15 -2,-4 -4,-9 -6,-14 -1,-5 -2,-10 -3,-15 l -2,-10 c -1,-5 -1,-9 -1,-14 v -10 l 1,-9 c 1,-6 3,-11 4,-17 l 3,-14 c 2,-6 3,-13 4,-20 v -12 -5 -6 -5 l -1,-5 -1,-5 -2,-4 -2,-4 -2,-4 -2,-4 -3,-3 -3,-4 -3,-3 -4,-3 -5,-2 -4,-3 -6,-2 -5,-2 -7,-2 -7,-1 -7,-1 -8,-1 -8,-1 -9,-1 h -5 c 35,16 90,7 75,98 -15,102 9,120 62,184 z m -366.99999,-168 v 0 c 3,-10 8,-13 13,-11 3,1 4,1 6,7 0,7 0,16 1,20 0,4 2,3 4,2 1,-1 1,-4 1,-16 10,2 14,2 19,8 3,4 5,9 9,13 1,1 1,2 2,3 3,3 5,4 8,5 5,1 12.99999,1 16.99999,-3 3,-3 6,-7 7,-11 11,7 18,3 32,2 2,2 4,4 7,5 4,2 10,0 14,-1 14,-5 31,-12 45,-17 0,-2 1,-26 1,-26 2,2 4,-1 6,1 1,-1 4,0 6,0 1,3 4,7 5,11 -6,-20 -7,-41 -6,-60 -4,-8 -5,-6 -10,-3 0,5 -2,11 -2,16 -8,47 -19,64 -45,16 -12,-7 -20,-4 -18,12 0,12 -11,13 -17,5 -11,-14 -22,-28 -32.99999,-42 -14,40 -35,24 -51,-4 -6,-5 -12,-4 -18,2 -3,9 -1,29 3,41 -6,9 -13,9 -12,32 4,31 5,50 -2,78 -9,38 1,80 4,95 0,5 0,10 0,14 l 2,-4 7,-15 c -1,-2 -3,-4 -4,-6 -1,-2 -2,-4 -3,-7 -1,-3 -2,-5 -2,-8 -1,-3 -1,-6 -1,-9 -1,-7 0,-13 0,-19 l 1,-7 c 4,-16 9,-31 11,-48 0,-9 0,-17 -1,-25 -3,-18 -6,-34 -6,-46 z m -96,-66 v 0 c -29,9 -54,-26 -65,-35 1,4 0,9 11,21 24,30 35,39 29,68 10,-1 11,-3 21,-4 -17,-20 2,-43 4,-50 z m 53,-4 v 0 c 1,-6 5,-12 11,-17 13,-6 47,-12 49,-12 -2,-1 -20,2 -48,4 -2,0 -5,0 -7,0 -5,-1 -10,0 -14,-1 -1,-1 -6,-5 -6,-5 0,2 0,3 -1,5 l -1,9 -9,1 -4,-3 c -3,-1 -5,-3 -7,-5 -1,-1 -3,-3 -4,-5 -2,-2 -3,-4 -4,-7 v -2 l -1,-2 v -2 c -1,-3.99998 1,-9.99998 1,-13.99998 -20,-34.99997 -36,-69.99997 -53,-102.99997 -4,-2 -6,-6 -9,-9 l -1,3 c -1,4 0,1 -3,4 17,7 24,41 38,69 6,20.99996 5,47.99995 16,51.99995 l 25,28 c 4,11 9,13 12,16 l 1,-13 c 2,-5 5,-5 7,-2 z m -25,34 v 0 c -10,-1 -3,27 -7,41 4,4 9,6 14,4 -2,-13 -5,-31 -7,-45 z m -130,-263.99995 v 0 c 3,-2 10,-23 15,-27 l 52,-46 -2,-4 -1,-5 c -2,3 -4,9 -6,11 -11,9 -21,18 -32,29 l -12,7 h -4 l -15,33 z m -90,128 v 0 0 c 12,1 17,-6 17,-8 -4,3 -10,6 -17,8 z m 93,-3 v 0 c 5,8 8,16 11,23.99996 3,9 6,18 7,27.00001 2,8 3,15.99998 4,23.99998 1,6 3,13 4,20 2,6 4,12 6,19 2,6 4,12 7,19 2,6 5,12 8,18 3,6 6,12 10,17 3,6 7,12 11,18 3,5 7,10 11,15 4,-1 9,-2 11,-7 -2,-12 -7,-16 -12,-25 4,-1 14,-5 18,-5 1,9 0,21 8,30 5,5 15,6 16,-1 0,-5 0,-8 0,-10 5,5 9,6 15,4 -8,9 1,43 25,67 7,47 11,65 24,102 0,24 3,41 15,47 0,0 2,0 2,1 6,1 6,-1 6,-2 -12,-12 -14,-23 -7,-33 l 7,-20 -2,-4 c -15,-19 -8,-56 4,-98 0,-29 -3,-50 -9,-62 -2,-9 2,-12 9,-12 l 2,22 c 3,5 7,5 12,-1 v -10 c 5,-1 9,1 11,6 7,12 14,23 27,23 10.99999,1 20.99999,-1 23.99999,-15 4,3 14,2 26,1 5,4 12,8 27,3 l 45,-15 1,-27 h 7 c -3,-18 14,95 100,132 7,5 15,10 22,14 8,6 16,13 23,20 5,4 9,8 13,13 9,9 16,19 23,29 l 3,4 7,3 c 0,-1 0,0 0,0 l 3,-6 c 0,-15 -8,-30 -17,-40 -38,-40 -64,-97 -51,-141 22,-82 11,-133.99998 -97,-133.99998 l -165.99999,11.99998 -74,6 c -5,1 -9,2 -14,2 -3,-1 -6,-1 -10,-1 -4,-1 -8,-2 -12,-4 -16,-7 -17,10 -13,14 -11,-3 -19,-16 -17,-21 -3,-1.99998 2,-13.99998 0,-15.99998 l -55,-104.99997 c -9,-5 -9,-15 -19,-13 -3,13 -5,17 -9,18 -10,6 -17,19 -13,37 -8,3 -13,9 -18,17 z m 205,415.99995 v 0 c 0,1 0,1 0,1 l 10,72 1,2 11,-2 v -8 l -11,-65 z m 14,99 v 0 l -1,9 c -2,2 -3,4 -4,6 -2,3 -3,6 -4,10 -1,2 -1,4 -1,7 0,1 3,-1 3,0 l 9,1 c 0,-4 0,-5 5,-6 l 8,-3 2,-2 2,-2 1,-2 v -3 c 0,-2 0,-3 0,-5 l -1,-3 c -2,-3 -3,-6 -4,-9 v -1 z m -10,42 v 0 l -17,24 24,-1 c 3,0 8,0 10,-3 l -5,-15 c -1,-1 -1,-2 -2,-5 z m 358.99999,-65 v 0 l -6,6 c -6,7 -3,3 -7,11 l 18,6 v -12 l 1,-10 z m -18,29 v 0 c -2,6 -3,11 -4,18 h 25 v -10 z m -94,-36 v 0 c -2,2 -3,4 -4,7 -1,2 -5,6 -7,9 l 9,1 7,-1 c 2,-4 3,-8 4,-12 z m -24,34 v 0 l -12,17 18,1 4,-15 z m -295.99999,-220 v 0 c 0,12 -6,23 2,35 l 8,10 c -1,8 -6,13 -6,22 -1,10 2,21 5,29 l 2,-4 c -2,-11 -1,-21 4,-29 7,-4 7,-13 7,-22 -21,-4 -18,-29 -19,-39 -1,-6 1,-1 -3,-2 z m 6,115 v 0 l -10,54 1,5 c 5,-9 9,-18 11,-26 l 1,-13 c 0,-7 0,-13 0,-20 z m -23,92 v 0 c -1,1 -3,-1 -4,0 -2,3 0,-1 -2,3 -3,4 -5,8 -7,12 -3,4 -6,9 -10,13 -5,7 -12,13 -17,20 l 14,2 10,-10 h 16 c 0,-7 -2,-14 1,-21 1,-3 -2,-4 -2,-7 l 3,-12 z m -137,-582.99995 v 0 l -10,2 c -6,-1 -11,3 -12,10 l -6,9 1,1 8,-3 c 11,2 16,-6 15,-10 l 5,-7 z m 230,446.99995 v 0 c -6,-2 -9,0 -9,7 7,5 9,13 7,23 2,4 5,3 8,1 4,-11 4,-21 -6,-31 z"
   id="path49"
   style="stroke:#ffffff;stroke-opacity:1" /></svg>
