<?xml version="1.0" encoding="UTF-8" standalone="no"?>
<svg
   xmlns:dc="http://purl.org/dc/elements/1.1/"
   xmlns:cc="http://creativecommons.org/ns#"
   xmlns:rdf="http://www.w3.org/1999/02/22-rdf-syntax-ns#"
   xmlns:svg="http://www.w3.org/2000/svg"
   xmlns="http://www.w3.org/2000/svg"
   xmlns:sodipodi="http://sodipodi.sourceforge.net/DTD/sodipodi-0.dtd"
   xmlns:inkscape="http://www.inkscape.org/namespaces/inkscape"
   version="1.0"
   width="132.78999mm"
   height="162.66mm"
   id="0"
   inkscape:version="0.48.1 "
   sodipodi:docname="gerb_shch_mr.wmf">
  <metadata
     id="metadata13">
    <rdf:RDF>
      <cc:Work
         rdf:about="">
        <dc:format>image/svg+xml</dc:format>
        <dc:type
           rdf:resource="http://purl.org/dc/dcmitype/StillImage" />
        <dc:title></dc:title>
      </cc:Work>
    </rdf:RDF>
  </metadata>
  <defs
     id="defs11" />
  <sodipodi:namedview
     pagecolor="#ffffff"
     bordercolor="#666666"
     borderopacity="1"
     objecttolerance="10"
     gridtolerance="10"
     guidetolerance="10"
     inkscape:pageopacity="0"
     inkscape:pageshadow="2"
     inkscape:window-width="1024"
     inkscape:window-height="712"
     id="namedview9"
     showgrid="false"
     inkscape:zoom="0.45631648"
     inkscape:cx="235.25786"
     inkscape:cy="288.17719"
     inkscape:window-x="-4"
     inkscape:window-y="-4"
     inkscape:window-maximized="1"
     inkscape:current-layer="0" />
  <g
     id="1">
    <path
       id="2"
       style="fill:#f8c300;fill-rule:evenodd;fill-opacity:1;stroke:none;"
       d="  M 470.51572 0   L 470.51572 473.07887   L 470.44368 475.42031   L 470.2996 477.72573   L 470.01145 479.99512   L 469.65126 482.2285   L 469.147 484.42585   L 468.57069 486.58718   L 467.92235 488.71248   L 467.12993 490.76575   L 466.3015 492.78299   L 465.32899 494.7642   L 464.32045 496.67338   L 463.20387 498.51051   L 462.01524 500.31162   L 460.71856 502.00466   L 459.38586 503.66168   L 457.98112 505.24665   L 456.50434 506.75958   L 454.95552 508.20047   L 453.33467 509.56931   L 451.64178 510.83008   L 449.91287 512.01881   L 448.11192 513.09948   L 446.27495 514.1081   L 444.40197 515.04467   L 442.45694 515.87318   L 440.4759 516.59363   L 438.45884 517.206   L 436.40576 517.71031   L 434.31666 518.10656   L 432.15552 518.39473   L 429.99438 518.57484   L 427.83325 518.64689   L 418.57637 518.64689   L 409.3195 518.64689   L 400.06262 518.64689   L 390.84177 518.64689   L 381.5849 518.64689   L 372.32802 518.64689   L 363.07115 518.64689   L 353.85029 518.64689   L 344.59342 518.64689   L 335.33655 518.64689   L 326.07967 518.64689   L 316.85882 518.64689   L 307.60195 518.64689   L 298.34507 518.64689   L 289.12422 518.64689   L 279.86734 518.64689   L 277.34602 518.75496   L 274.86071 518.97109   L 272.41142 519.33131   L 270.03417 519.7996   L 267.69293 520.37595   L 265.42374 521.06037   L 263.19056 521.88888   L 261.02943 522.82546   L 258.94033 523.83408   L 256.88725 524.98679   L 254.9062 526.24756   L 252.9972 527.6164   L 251.16023 529.09331   L 249.3953 530.67829   L 247.70241 532.37133   L 246.08156 534.17243   L 244.53274 536.08161   L 243.05596 538.09885   L 241.65122 540.18813   L 240.35454 542.38548   L 239.1299 544.6909   L 237.97729 547.10439   L 236.93274 549.58991   L 235.96023 552.21953   L 235.09577 554.88517   L 234.30336 557.6949   L 233.65501 560.57667   L 233.07871 563.53049   L 232.57445 566.62839   L 232.21426 569.76232   L 231.9261 573.00431   L 231.74601 576.35437   L 231.81805 573.04033   L 231.74601 569.79834   L 231.5299 566.62839   L 231.16971 563.56651   L 230.70146 560.57667   L 230.12516 557.6949   L 229.4408 554.88517   L 228.61236 552.18351   L 227.67587 549.55389   L 226.63132 547.03234   L 225.51473 544.61886   L 224.25407 542.31344   L 222.92136 540.08007   L 221.4806 537.95476   L 219.93179 535.93752   L 218.31094 534.02835   L 216.61804 532.19122   L 214.8171 530.49818   L 212.94411 528.9132   L 210.99909 527.43629   L 208.98202 526.03143   L 206.89292 524.77065   L 204.73179 523.61795   L 202.49861 522.60933   L 200.22942 521.67275   L 197.88818 520.88026   L 195.47491 520.19584   L 193.02562 519.65551   L 190.54032 519.18722   L 187.98297 518.89904   L 185.3896 518.68291   L 182.79624 518.64689   L 174.04363 518.64689   L 165.255 518.64689   L 156.5024 518.64689   L 147.74979 518.64689   L 138.99718 518.64689   L 130.24457 518.64689   L 121.49196 518.64689   L 112.73935 518.64689   L 103.98675 518.64689   L 95.234139 518.64689   L 86.481531 518.64689   L 77.728923 518.64689   L 68.976315 518.64689   L 60.187688 518.64689   L 51.435079 518.64689   L 42.682471 518.64689   L 40.521334 518.57484   L 38.360196 518.39473   L 36.199058 518.10656   L 34.109958 517.71031   L 32.056877 517.206   L 30.039815 516.59363   L 28.058772 515.87318   L 26.113748 515.04467   L 24.240762 514.1081   L 22.403795 513.09948   L 20.602847 512.01881   L 18.873937 510.83008   L 17.181045 509.56931   L 15.560192 508.20047   L 14.011377 506.75958   L 12.534599 505.24665   L 11.12986 503.66168   L 9.797158 502.00466   L 8.5004753 500.31162   L 7.3118495 498.51051   L 6.1952617 496.67338   L 5.1867307 494.7642   L 4.2142187 492.78299   L 3.3857825 490.76575   L 2.5933654 488.71248   L 1.945024 486.58718   L 1.3327016 484.42585   L 0.86445512 482.2285   L 0.50426549 479.99512   L 0.21611378 477.72573   L 0.072037926 475.42031   L 0 473.07887   L 0 0   L 470.51572 0  z " />
    <path
       id="3"
       style="fill:#ffffff;fill-rule:evenodd;fill-opacity:1;stroke:none;"
       d="  M 464.39249 7.4926068   L 464.39249 468.28793   L 464.35647 470.55732   L 464.17638 472.79069   L 463.92425 475.02407   L 463.56406 477.1854   L 463.09581 479.34673   L 462.51951 481.43601   L 461.87117 483.48927   L 461.11477 485.50651   L 460.28633 487.48773   L 459.34984 489.3969   L 458.37733 491.23403   L 457.26074 493.03514   L 456.10813 494.80023   L 454.88349 496.45725   L 453.55078 498.07824   L 452.18206 499.62719   L 450.74131 501.1041   L 449.22851 502.47294   L 447.64367 503.80576   L 446.02282 505.03052   L 444.32993 506.21925   L 442.60102 507.26389   L 440.80007 508.27251   L 438.9631 509.13704   L 437.09012 509.92953   L 435.14509 510.64997   L 433.16405 511.26235   L 431.18301 511.73064   L 429.12993 512.12688   L 427.04083 512.41506   L 424.95173 512.59517   L 422.82661 512.63119   L 413.82187 512.63119   L 404.81713 512.63119   L 395.81239 512.63119   L 386.77163 512.63119   L 377.76689 512.63119   L 368.76215 512.63119   L 359.7574 512.63119   L 350.75266 512.63119   L 341.74792 512.63119   L 332.74318 512.63119   L 323.73844 512.63119   L 314.7337 512.63119   L 305.72896 512.63119   L 296.72422 512.63119   L 287.71948 512.63119   L 278.71474 512.63119   L 276.22943 512.70323   L 273.85218 512.84732   L 271.54696 513.09948   L 269.27777 513.42368   L 267.11663 513.81992   L 264.99151 514.32423   L 262.97445 514.86456   L 260.99341 515.51296   L 259.0844 516.2334   L 257.24744 517.02589   L 255.48251 517.89042   L 253.78961 518.827   L 252.16876 519.83562   L 250.58393 520.91628   L 249.07113 522.03297   L 247.63037 523.2217   L 246.22563 524.44645   L 244.89293 525.74325   L 243.63227 527.11209   L 242.44364 528.48094   L 241.29103 529.92182   L 240.21047 531.43475   L 239.16592 532.94768   L 238.1934 534.53266   L 237.25691 536.15365   L 236.39246 537.81067   L 235.60004 539.46769   L 234.84364 541.19675   L 234.12326 542.92582   L 233.47492 544.72692   L 232.8626 546.52803   L 232.32231 548.32914   L 231.85407 546.52803   L 231.31378 544.72692   L 230.7735 542.96184   L 230.12516 541.23278   L 229.4408 539.50371   L 228.6844 537.81067   L 227.89198 536.18967   L 227.02753 534.56868   L 226.09103 532.9837   L 225.0825 531.43475   L 224.03795 529.95784   L 222.88534 528.51696   L 221.69672 527.11209   L 220.43605 525.74325   L 219.10335 524.44645   L 217.69861 523.2217   L 216.18582 522.03297   L 214.637 520.88026   L 213.01615 519.83562   L 211.28724 518.827   L 209.48629 517.89042   L 207.6133 517.02589   L 205.66828 516.2334   L 203.6152 515.51296   L 201.49008 514.86456   L 199.29292 514.28821   L 196.98771 513.7839   L 194.61046 513.38766   L 192.12515 513.06346   L 189.5678 512.84732   L 186.9024 512.70323   L 184.16496 512.63119   L 175.62846 512.63119   L 167.09197 512.63119   L 158.55548 512.63119   L 150.01898 512.63119   L 141.51851 512.63119   L 132.98201 512.63119   L 124.44552 512.63119   L 115.90902 512.63119   L 107.40855 512.63119   L 98.872054 512.63119   L 90.33556 512.63119   L 81.799065 512.63119   L 73.262571 512.63119   L 64.762096 512.63119   L 56.225602 512.63119   L 47.689107 512.63119   L 45.563988 512.59517   L 43.474889 512.41506   L 41.385789 512.12688   L 39.332708 511.73064   L 37.351665 511.26235   L 35.370622 510.64997   L 33.425598 509.92953   L 31.552612 509.13704   L 29.715645 508.27251   L 27.914696 507.26389   L 26.185786 506.21925   L 24.492895 505.03052   L 22.872042 503.80576   L 21.287207 502.47294   L 19.774411 501.1041   L 18.333652 499.62719   L 16.928913 498.07824   L 15.63223 496.45725   L 14.407585 494.80023   L 13.21896 493.03514   L 12.138391 491.23403   L 11.12986 489.3969   L 10.229386 487.48773   L 9.4009494 485.50651   L 8.6445512 483.48927   L 7.9962098 481.43601   L 7.4199064 479.34673   L 6.9516599 477.1854   L 6.5914703 475.02407   L 6.3393375 472.79069   L 6.1592427 470.55732   L 6.1232237 468.28793   L 6.1232237 7.4926068   L 464.39249 7.4926068  z " />
    <path
       id="4"
       style="fill:#da251d;fill-rule:evenodd;fill-opacity:1;stroke:none;"
       d="  M 215.14127 174.023   L 209.66638 174.92355   L 204.26354 176.04024   L 198.96875 177.40908   L 193.746 178.99405   L 188.66733 180.83118   L 183.66069 182.84842   L 178.79813 185.0818   L 174.04363 187.5313   L 169.39718 190.16092   L 164.89481 193.00667   L 160.53652 196.03253   L 156.3223 199.20248   L 152.25216 202.58856   L 148.32609 206.11873   L 144.58012 209.82901   L 140.97822 213.68338   L 137.55642 217.71786   L 134.35073 221.86041   L 131.28912 226.18307   L 128.4076 230.61379   L 125.7422 235.15258   L 123.29291 239.87148   L 121.02372 244.66243   L 118.97064 249.56144   L 117.16969 254.60454   L 115.54883 259.71969   L 114.18011 264.90688   L 113.06353 270.23816   L 112.16305 275.60546   L 111.51471 281.08082   L 111.1185 286.59221   L 110.97443 292.17564   L 111.01044 294.12084   L 111.04646 296.03001   L 111.1185 297.93919   L 111.22656 299.81234   L 111.37063 301.72151   L 111.55073 303.59466   L 111.73082 305.46782   L 111.94694 307.34097   L 112.23509 309.1781   L 112.48722 311.05125   L 112.81139 312.88838   L 113.17158 314.72551   L 113.53177 316.52662   L 113.92798 318.32772   L 114.36021 320.12883   L 114.79244 321.92994   L 115.26068 323.69502   L 115.80097 325.46011   L 116.30523 327.22519   L 116.88154 328.95426   L 117.45784 330.68332   L 118.07016 332.41238   L 118.7185 334.10542   L 119.36684 335.79846   L 120.0512 337.49151   L 120.77158 339.14852   L 121.52798 340.80554   L 122.28438 342.46256   L 123.0768 344.08356   L 123.86921 345.70456   L 124.69765 347.28953   L 125.56211 348.8745   L 125.56211 348.83848   L 125.52609 348.80246   L 128.44362 349.59495   L 131.28912 350.53152   L 134.13462 351.57617   L 136.90808 352.69285   L 139.64552 353.95363   L 142.31092 355.28645   L 144.90429 356.72733   L 147.42562 358.27629   L 149.91092 359.86126   L 152.3242 361.5543   L 154.62941 363.28336   L 156.86258 365.08447   L 159.02372 366.9216   L 161.11282 368.83077   L 163.05785 370.77597   L 164.93083 372.75719   L 166.73178 374.73841   L 168.38865 376.79167   L 169.93747 378.80891   L 171.37823 380.86217   L 172.71093 382.91543   L 173.93557 384.9687   L 174.98012 386.98594   L 175.95264 389.00318   L 176.74505 391.02042   L 177.42941 392.96561   L 177.9697 394.91081   L 178.36591 396.78396   L 178.58202 398.65711   L 178.69008 400.4222   L 178.58202 402.15126   L 178.36591 403.80828   L 176.31282 402.83568   L 174.29576 401.82706   L 172.2787 400.78242   L 170.29766 399.73778   L 168.31662 398.62109   L 166.40761 397.46838   L 164.46259 396.27965   L 162.5896 395.09092   L 160.68059 393.83015   L 158.84363 392.56937   L 157.00666 391.23655   L 155.20571 389.90373   L 153.44078 388.53489   L 151.67585 387.13003   L 149.94694 385.68914   L 148.25405 384.24825   L 146.56116 382.73532   L 144.90429 381.22239   L 143.28344 379.67344   L 141.6986 378.08847   L 140.11377 376.50349   L 138.56495 374.84647   L 137.05216 373.18945   L 135.53936 371.53244   L 134.0986 369.80337   L 132.65784 368.07431   L 131.2531 366.30922   L 129.88438 364.50812   L 128.55168 362.70701   L 127.255 360.86988   L 125.95831 359.03275   L 124.69765 357.12358   L 124.69765 357.12358   L 124.69765 357.12358   L 124.69765 357.12358   L 123.04078 356.87142   L 121.38391 356.65529   L 119.655 356.47518   L 117.92609 356.29507   L 116.12514 356.187   L 114.32419 356.07893   L 112.4512 356.00689   L 110.57822 355.97087   L 105.96779 356.07893   L 101.53746 356.36711   L 97.323239 356.90744   L 93.325134 357.62789   L 89.507124 358.52844   L 85.869208 359.57308   L 82.411388 360.83386   L 79.133662 362.2027   L 76.036031 363.75165   L 73.118495 365.37265   L 70.381054 367.17376   L 67.787689 369.04691   L 65.338399 370.9921   L 63.069205 373.04537   L 60.944086 375.17067   L 58.963043 377.36802   L 57.090057 379.56537   L 55.397165 381.83477   L 53.812331 384.14019   L 52.371573 386.44561   L 51.038871 388.715   L 49.850245 391.02042   L 48.769676 393.28981   L 47.797164 395.52319   L 46.932709 397.72054   L 46.176311 399.84584   L 45.52797 401.89911   L 44.951666 403.91635   L 44.48342 405.7895   L 44.087211 407.59061   L 43.76304 409.28365   L 43.546927 410.8326   L 43.366832 412.38155   L 43.294794 414.14664   L 43.258775 416.05581   L 43.330813 418.10907   L 43.510908 420.2704   L 43.76304 422.57582   L 44.159249 424.95328   L 44.627495 427.43881   L 45.275837 429.96036   L 46.032235 432.55395   L 46.932709 435.21959   L 48.013278 437.88523   L 49.237923 440.55087   L 50.606643 443.21651   L 52.191478 445.88215   L 53.956407 448.51177   L 55.93745 451.10536   L 58.098588 453.62691   L 60.475839 456.0404   L 63.069205 458.41786   L 65.914703 460.65123   L 68.976315 462.81256   L 72.326078 464.79378   L 75.891956 466.66693   L 79.745985 468.35997   L 83.852146 469.8729   L 88.24646 471.20572   L 92.964944 472.32241   L 97.935561 473.22296   L 103.23035 473.87136   L 108.84931 474.30362   L 114.79244 474.44771   L 120.8076 474.30362   L 126.64267 473.87136   L 132.36969 473.11489   L 137.91661 472.07025   L 143.35547 470.73743   L 148.61424 469.18848   L 153.72894 467.38737   L 158.69955 465.37013   L 163.49007 463.13676   L 168.17254 460.72327   L 172.67491 458.09366   L 177.0332 455.35597   L 181.2114 452.43818   L 185.24553 449.3763   L 189.09956 446.24237   L 192.80951 442.96436   L 196.37539 439.6143   L 199.72515 436.22821   L 202.93084 432.73407   L 205.99245 429.23992   L 208.87397 425.70975   L 211.57539 422.14355   L 214.09672 418.61338   L 216.43795 415.08321   L 218.59909 411.62509   L 220.61615 408.16696   L 222.45312 404.8169   L 224.07397 401.53889   L 225.55075 398.33291   L 226.81141 395.27103   L 227.89198 392.31722   L 228.82847 389.54351   L 227.42373 385.2929   L 225.80288 380.2498   L 224.90241 377.44007   L 224.00193 374.41421   L 223.02942 371.24426   L 222.05691 367.8942   L 221.04838 364.40005   L 220.03985 360.72579   L 219.03132 356.90744   L 217.98677 352.98103   L 216.94222 348.91053   L 215.89767 344.69594   L 214.88913 340.4093   L 213.8806 335.97858   L 212.87207 331.47581   L 211.89956 326.86497   L 210.96307 322.14607   L 210.06259 317.39115   L 209.19814 312.52816   L 208.40572 307.62915   L 207.6133 302.69411   L 206.92894 297.68703   L 206.2806 292.64393   L 205.7043 287.56481   L 205.16401 282.48569   L 204.73179 277.37054   L 204.40762 272.2554   L 204.15548 267.14025   L 203.97539 262.02511   L 203.90335 256.90996   L 203.90335 254.5325   L 203.93937 252.08299   L 204.01141 249.63349   L 204.11946 247.14796   L 204.22752 244.62641   L 204.40762 242.10486   L 204.58771 239.54729   L 204.76781 236.98971   L 205.01994 234.39612   L 205.27207 231.80252   L 205.5242 229.17291   L 205.84837 226.54329   L 206.13653 223.91367   L 206.49672 221.24803   L 206.85691 218.58239   L 207.2171 215.95278   L 208.04553 210.6215   L 208.90999 205.2542   L 209.84648 199.95894   L 210.81899 194.66369   L 211.86354 189.40445   L 212.90809 184.21727   L 214.02468 179.0661   L 215.14127 174.023  z    M 227.31568 172.04178   L 240.75075 172.04178   L 240.75075 312.63622   L 227.31568 312.63622   L 227.31568 172.04178  z    M 345.42186 347.46964   L 345.42186 347.46964   L 345.38584 347.46964   L 346.32233 345.7766   L 347.18679 344.04754   L 348.05124 342.28245   L 348.87968 340.51737   L 349.67209 338.75228   L 350.42849 336.9872   L 351.18489 335.18609   L 351.90527 333.34896   L 352.62565 331.54785   L 353.27399 329.71072   L 353.92233 327.83757   L 354.53465 326.00044   L 355.11096 324.12729   L 355.68726 322.21812   L 356.22755 320.34496   L 356.73181 318.43579   L 357.20006 316.52662   L 357.63229 314.58142   L 358.06451 312.63622   L 358.46072 310.69103   L 358.78489 308.74583   L 359.14508 306.80064   L 359.43323 304.81942   L 359.68537 302.8382   L 359.9375 300.85698   L 360.15361 298.83974   L 360.29769 296.8225   L 360.44176 294.84128   L 360.58584 292.82404   L 360.65788 290.77078   L 360.6939 288.75354   L 360.72992 286.70028   L 360.58584 280.68458   L 360.15361 274.74092   L 359.46925 268.83329   L 358.49674 263.03373   L 357.2721 257.34223   L 355.79532 251.72277   L 354.03039 246.21138   L 352.08537 240.80806   L 349.85219 235.54883   L 347.43892 230.36164   L 344.77352 225.31854   L 341.892 220.41952   L 338.79437 215.6646   L 335.51664 211.05377   L 332.0228 206.58702   L 328.31285 202.26436   L 324.45882 198.12181   L 320.4247 194.15938   L 316.21048 190.34103   L 311.81616 186.73882   L 307.27778 183.31671   L 302.55929 180.07472   L 297.73275 177.04886   L 292.72611 174.23913   L 287.61142 171.64554   L 282.38867 169.26807   L 277.02185 167.14277   L 271.51094 165.19757   L 265.92801 163.54055   L 260.23701 162.09967   L 254.43796 160.94696   L 248.56687 160.01038   L 247.84649 157.23668   L 247.09009 154.53502   L 246.36971 151.86938   L 245.61331 149.3118   L 244.13653 144.37677   L 242.69577 139.72991   L 241.25502 135.40725   L 239.92231 131.4088   L 238.62563 127.73454   L 237.40099 124.4205   L 236.24838 121.43066   L 235.23985 118.83707   L 234.33937 116.60369   L 233.58298 114.73054   L 232.93464 113.25363   L 232.46639 112.20899   L 232.17824 111.56059   L 232.1062 111.34446   L 232.03416 111.59661   L 231.78203 112.28104   L 231.42184 113.43374   L 230.95359 114.9827   L 230.34127 116.96391   L 229.62089 119.30535   L 228.79245 122.04304   L 227.89198 125.10492   L 226.88345 128.491   L 225.8389 132.16526   L 224.72231 136.16372   L 223.53369 140.41433   L 222.34506 144.9171   L 221.0844 149.636   L 219.82373 154.57104   L 218.52705 159.68618   L 212.51188 160.51469   L 206.60477 161.59536   L 200.80572 162.92818   L 195.0787 164.51315   L 189.49577 166.35028   L 183.98486 168.43956   L 178.61804 170.781   L 173.39529 173.33858   L 168.2806 176.11228   L 163.346 179.13814   L 158.51946 182.34411   L 153.87301 185.7302   L 149.37064 189.36843   L 145.04836 193.15076   L 140.90618 197.14922   L 136.9441 201.29176   L 133.16211 205.65044   L 129.59623 210.15321   L 126.21045 214.80007   L 123.04078 219.59102   L 120.08722 224.56207   L 117.34978 229.64119   L 114.82845 234.86441   L 112.55926 240.19568   L 110.5422 245.67105   L 108.77727 251.25448   L 107.22845 256.94598   L 105.96779 262.70953   L 104.99528 268.58114   L 104.2749 274.56081   L 103.84267 280.61253   L 103.6986 286.70028   L 103.6986 288.75354   L 103.73461 290.77078   L 103.84267 292.82404   L 103.95073 294.84128   L 104.0948 296.85852   L 104.2749 298.83974   L 104.45499 300.85698   L 104.70713 302.8382   L 104.95926 304.81942   L 105.28343 306.80064   L 105.6076 308.78185   L 105.96779 310.72705   L 106.364 312.67225   L 106.76021 314.61744   L 107.22845 316.52662   L 107.6967 318.43579   L 108.20097 320.34496   L 108.74125 322.25414   L 109.28153 324.12729   L 109.85784 326.00044   L 110.47016 327.87359   L 111.1185 329.71072   L 111.80286 331.58387   L 112.48722 333.38498   L 113.2076 335.22211   L 113.964 337.02322   L 114.75642 338.7883   L 115.54883 340.55339   L 116.37727 342.31847   L 117.24173 344.08356   L 118.10618 345.81262   L 119.00665 347.54169   L 119.00665 347.54169   L 119.00665 347.54169   L 119.00665 347.54169   L 119.00665 347.54169   L 118.53841 347.46964   L 118.03414 347.3976   L 117.52988 347.32555   L 117.06163 347.28953   L 113.71187 346.96533   L 110.29007 346.78522   L 106.76021 346.71318   L 103.15831 346.7492   L 99.520395 346.92931   L 95.846461 347.25351   L 92.100489 347.68577   L 88.390536 348.29815   L 84.644564 349.01859   L 80.898591 349.91915   L 77.188638 350.96379   L 73.478685 352.18854   L 69.876789 353.55738   L 66.274892 355.10634   L 62.781053 356.8354   L 59.39527 358.74457   L 56.081526 360.79784   L 52.875838 363.06723   L 49.814226 365.55276   L 46.860671 368.18238   L 44.087211 371.06415   L 41.493846 374.12603   L 39.044556 377.40405   L 36.81138 380.89819   L 34.794318 384.60848   L 32.99337 388.53489   L 31.408536 392.67744   L 30.075834 397.07214   L 28.995265 401.719   L 28.202848 406.58199   L 27.662564 411.69713   L 27.44645 417.06443   L 27.554507 422.43173   L 27.986734 427.51085   L 28.743133 432.33782   L 29.787683 436.91263   L 31.120384 441.23529   L 32.705219 445.34182   L 34.578205 449.19619   L 36.667305 452.7984   L 38.972518 456.18448   L 41.457827 459.39046   L 44.159249 462.34427   L 47.004747 465.08195   L 50.03034 467.63953   L 53.16399 469.98097   L 56.441715 472.17832   L 59.827498 474.15954   L 63.285318 475.96064   L 66.815177 477.58164   L 70.417073 479.05855   L 74.054988 480.35535   L 77.692904 481.50805   L 81.366838 482.51667   L 85.040772 483.38121   L 88.642668 484.10165   L 92.244565 484.71403   L 95.774423 485.18231   L 99.268263 485.50651   L 102.61803 485.75867   L 105.89575 485.90276   L 109.0294 485.90276   L 112.05499 485.83071   L 114.90049 485.68662   L 117.24173 485.61458   L 119.83509 485.39845   L 122.68059 485.0022   L 125.7422 484.49789   L 128.98391 483.81347   L 132.44173 482.94894   L 136.04362 481.97634   L 139.82562 480.82363   L 143.71566 479.52684   L 147.71377 478.04993   L 151.85595 476.42893   L 156.07017 474.62782   L 160.32041 472.68263   L 164.64268 470.55732   L 169.00098 468.2519   L 173.35927 465.8024   L 177.75358 463.17278   L 182.11188 460.36305   L 186.39813 457.40924   L 190.68439 454.23929   L 194.86259 450.92525   L 199.00477 447.4311   L 203.00288 443.75684   L 206.89292 439.86645   L 210.6389 435.83197   L 214.24079 431.61738   L 217.66259 427.22268   L 220.9043 422.61184   L 223.92989 417.8209   L 226.77539 412.84984   L 229.33274 407.69867   L 231.63795 402.36739   L 231.78203 401.86308   L 231.9261 401.35877   L 232.07018 400.89049   L 232.21426 400.38618   L 232.32231 400.89049   L 232.46639 401.35877   L 232.61046 401.86308   L 232.75454 402.36739   L 235.05975 407.69867   L 237.68914 412.84984   L 240.53464 417.8209   L 243.59625 422.61184   L 246.90999 427.22268   L 250.40383 431.61738   L 254.07777 435.83197   L 257.9318 439.86645   L 261.89388 443.75684   L 266.00004 447.4311   L 270.17824 450.92525   L 274.50052 454.23929   L 278.82279 457.40924   L 283.25313 460.39908   L 287.64744 463.17278   L 292.11379 465.83842   L 296.54412 468.28793   L 300.93844 470.59334   L 305.29673 472.71865   L 309.58299 474.66385   L 313.79721 476.46495   L 317.93939 478.12197   L 321.90147 479.59888   L 325.7555 480.89568   L 329.46546 482.08441   L 332.99531 483.05701   L 336.30906 483.92154   L 339.44271 484.60596   L 342.32423 485.14629   L 344.95361 485.54253   L 347.29484 485.79469   L 349.38394 485.90276   L 352.30148 486.01082   L 355.32707 486.04684   L 358.53276 486.01082   L 361.8465 485.83071   L 365.23229 485.57856   L 368.72613 485.21834   L 372.292 484.75005   L 375.8939 484.13767   L 379.53182 483.38121   L 383.20575 482.51667   L 386.87968 481.50805   L 390.55362 480.35535   L 394.19153 479.02253   L 397.75741 477.54562   L 401.28727 475.92462   L 404.74509 474.12351   L 408.13087 472.1423   L 411.37258 469.98097   L 414.50623 467.6035   L 417.53182 465.04593   L 420.3413 462.30825   L 423.04272 459.35443   L 425.52803 456.18448   L 427.79723 452.7984   L 429.88633 449.16017   L 431.72329 445.34182   L 433.30813 441.23529   L 434.64083 436.91263   L 435.68538 432.33782   L 436.40576 427.51085   L 436.83799 422.43173   L 436.94604 417.06443   L 436.72993 411.69713   L 436.22566 406.58199   L 435.39723 401.719   L 434.35268 397.07214   L 433.01998 392.67744   L 431.43514 388.53489   L 429.59817 384.60848   L 427.58111 380.89819   L 425.34794 377.40405   L 422.89865 374.12603   L 420.30528 371.06415   L 417.53182 368.18238   L 414.61429 365.55276   L 411.51665 363.06723   L 408.34699 360.79784   L 405.03324 358.74457   L 401.61144 356.8354   L 398.1176 355.10634   L 394.55172 353.55738   L 390.91381 352.18854   L 387.23987 350.96379   L 383.4939 349.91915   L 379.78395 349.01859   L 376.03798 348.29815   L 372.292 347.68577   L 368.58205 347.25351   L 364.8721 346.92931   L 361.23418 346.7492   L 357.63229 346.71318   L 354.10243 346.78522   L 350.68063 346.96533   L 347.36688 347.28953   L 346.86262 347.32555   L 346.39437 347.3976   L 345.8901 347.46964   L 345.42186 347.54169   L 345.42186 347.50566   L 345.42186 347.46964  z    M 338.86641 348.80246   L 338.86641 348.83848   L 338.83039 348.83848   L 339.69484 347.28953   L 340.52328 345.66853   L 341.35171 344.04754   L 342.14413 342.42654   L 342.90053 340.80554   L 343.62091 339.14852   L 344.34129 337.45548   L 345.02565 335.79846   L 345.71001 334.10542   L 346.32233 332.37636   L 346.93465 330.68332   L 347.51096 328.95426   L 348.08726 327.18917   L 348.62755 325.46011   L 349.13181 323.69502   L 349.60006 321.89392   L 350.0683 320.12883   L 350.46451 318.32772   L 350.86072 316.52662   L 351.25693 314.68949   L 351.5811 312.88838   L 351.90527 311.05125   L 352.19342 309.1781   L 352.44556 307.34097   L 352.66167 305.46782   L 352.87778 303.59466   L 353.02186 301.72151   L 353.16593 299.81234   L 353.27399 297.93919   L 353.34603 296.03001   L 353.38205 294.12084   L 353.41807 292.17564   L 353.27399 286.70028   L 352.9138 281.22491   L 352.26546 275.85761   L 351.40101 270.56235   L 350.32044 265.33914   L 348.98773 260.18798   L 347.43892 255.14488   L 345.67399 250.20984   L 343.69295 245.34685   L 341.49579 240.62795   L 339.08252 235.98109   L 336.52517 231.47832   L 333.71569 227.08362   L 330.76214 222.83301   L 327.62849 218.69046   L 324.31474 214.692   L 320.82091 210.87366   L 317.18299 207.16337   L 313.36498 203.6332   L 309.40289 200.28314   L 305.29673 197.07717   L 301.04649 194.05131   L 296.6882 191.20556   L 292.14981 188.5039   L 287.53938 186.0544   L 282.78488 183.74898   L 277.92232 181.65969   L 272.91568 179.78654   L 267.87303 178.12952   L 262.6863 176.68864   L 257.42753 175.46388   L 252.0607 174.45526   L 253.17729 179.60643   L 254.25786 184.93771   L 254.76213 187.67539   L 255.26639 190.41308   L 255.77066 193.2228   L 256.2389 196.03253   L 256.70715 198.9143   L 257.13938 201.79607   L 257.57161 204.74989   L 258.00383 207.70371   L 258.36402 210.69354   L 258.76023 213.7194   L 259.0844 216.78129   L 259.40857 219.84317   L 259.73274 222.9771   L 259.98488 226.11102   L 260.23701 229.28097   L 260.48914 232.48694   L 260.66924 235.69292   L 260.84933 238.97093   L 260.99341 242.24895   L 261.10146 245.52696   L 261.1735 248.841   L 261.24554 252.19106   L 261.24554 255.57714   L 261.24554 258.96322   L 261.1735 262.3493   L 261.10146 265.80743   L 260.99341 269.22954   L 260.81331 272.68766   L 260.48914 278.84745   L 260.05691 284.7911   L 259.58867 290.59067   L 259.0844 296.21012   L 258.5081 301.64947   L 257.85976 306.9087   L 257.21142 312.02385   L 256.49104 316.95888   L 255.73464 321.74983   L 254.94222 326.36066   L 254.1498 330.82741   L 253.28535 335.11404   L 252.42089 339.25659   L 251.52042 343.21903   L 250.61995 347.03738   L 249.68345 350.71163   L 248.74696 354.2418   L 247.81047 357.59186   L 246.87397 360.79784   L 245.90146 363.85972   L 244.96497 366.81353   L 244.02848 369.58724   L 243.09198 372.21686   L 242.15549 374.70238   L 241.25502 377.04382   L 240.39056 379.24118   L 239.49009 381.33046   L 238.66165 383.23963   L 237.86923 385.04074   L 237.07682 386.73378   L 236.32042 388.24671   L 235.63606 389.65158   L 236.53653 392.4613   L 237.65312 395.41512   L 238.91378 398.51302   L 240.39056 401.68297   L 242.04743 404.96099   L 243.84838 408.31105   L 245.86544 411.76918   L 248.0626 415.2273   L 250.40383 418.75747   L 252.92516 422.28764   L 255.62658 425.81781   L 258.5081 429.34798   L 261.53369 432.84213   L 264.7754 436.30026   L 268.12516 439.72236   L 271.69104 443.07242   L 275.36497 446.31442   L 279.25502 449.44834   L 283.28915 452.51022   L 287.46735 455.392   L 291.78962 458.1657   L 296.29199 460.7593   L 300.97446 463.17278   L 305.76498 465.40615   L 310.7356 467.42339   L 315.85029 469.18848   L 321.10906 470.77345   L 326.5119 472.07025   L 332.05882 473.11489   L 337.74982 473.87136   L 343.62091 474.30362   L 349.60006 474.44771   L 355.54319 474.30362   L 361.16214 473.87136   L 366.45693 473.22296   L 371.46357 472.32241   L 376.14603 471.20572   L 380.54035 469.8729   L 384.68253 468.35997   L 388.50054 466.66693   L 392.10243 464.79378   L 395.41618 462.81256   L 398.47779 460.65123   L 401.32329 458.41786   L 403.91665 456.0404   L 406.29391 453.62691   L 408.49106 451.10536   L 410.43609 448.51177   L 412.20102 445.88215   L 413.78585 443.21651   L 415.19059 440.55087   L 416.41523 437.88523   L 417.45978 435.21959   L 418.36026 432.55395   L 419.11666 429.96036   L 419.765 427.43881   L 420.26926 424.95328   L 420.62945 422.57582   L 420.88159 420.2704   L 421.06168 418.10907   L 421.13372 416.05581   L 421.13372 414.14664   L 421.02566 412.38155   L 420.84557 410.8326   L 420.62945 409.28365   L 420.3413 407.59061   L 419.94509 405.7895   L 419.44083 403.91635   L 418.90054 401.89911   L 418.21618 399.84584   L 417.45978 397.72054   L 416.59533 395.52319   L 415.62282 393.28981   L 414.54225 391.02042   L 413.35362 388.715   L 412.02092 386.44561   L 410.58016 384.14019   L 408.99533 381.83477   L 407.30244 379.56537   L 405.46547 377.36802   L 403.48443 375.17067   L 401.32329 373.04537   L 399.05409 370.9921   L 396.6048 369.04691   L 394.01144 367.17376   L 391.274 365.37265   L 388.35646 363.75165   L 385.25883 362.2027   L 381.9811 360.83386   L 378.52328 359.57308   L 374.88537 358.52844   L 371.06736 357.62789   L 367.06925 356.90744   L 362.85504 356.36711   L 358.46072 356.07893   L 353.81428 355.97087   L 351.90527 356.00689   L 350.03228 356.07893   L 348.23134 356.187   L 346.43039 356.29507   L 344.66546 356.47518   L 342.93655 356.65529   L 341.27968 356.90744   L 339.6228 357.1596   L 339.69484 357.12358   L 338.43418 358.99673   L 337.17351 360.86988   L 335.84081 362.70701   L 334.50811 364.50812   L 333.13939 366.30922   L 331.73465 368.07431   L 330.29389 369.80337   L 328.85313 371.49641   L 327.37636 373.18945   L 325.82754 374.84647   L 324.31474 376.50349   L 322.72991 378.08847   L 321.10906 379.67344   L 319.4882 381.22239   L 317.83133 382.73532   L 316.17446 384.24825   L 314.44555 385.68914   L 312.71664 387.13003   L 310.98773 388.53489   L 309.18678 389.90373   L 307.38583 391.23655   L 305.54887 392.56937   L 303.7119 393.83015   L 301.83891 395.09092   L 299.92991 396.27965   L 298.0209 397.46838   L 296.07588 398.62109   L 294.09483 399.70176   L 292.11379 400.78242   L 290.13275 401.82706   L 288.07967 402.83568   L 286.06261 403.80828   L 285.81047 402.15126   L 285.73844 400.4222   L 285.81047 398.65711   L 286.06261 396.78396   L 286.4228 394.91081   L 286.96308 392.96561   L 287.64744 391.02042   L 288.43986 389.00318   L 289.41237 386.98594   L 290.49294 384.9687   L 291.68156 382.91543   L 293.01427 380.86217   L 294.45502 378.80891   L 296.00384 376.79167   L 297.69673 374.73841   L 299.46166 372.75719   L 301.33465 370.77597   L 303.31569 368.83077   L 305.36877 366.9216   L 307.52991 365.08447   L 309.76308 363.28336   L 312.0683 361.5543   L 314.48157 359.86126   L 316.96688 358.27629   L 319.4882 356.72733   L 322.11759 355.32247   L 324.78299 353.95363   L 327.48441 352.69285   L 330.25787 351.57617   L 333.10337 350.53152   L 335.94887 349.59495   L 338.86641 348.80246  z    M 332.88726 358.52844   L 332.88726 358.52844   L 332.88726 358.56446   L 333.03133 358.52844   L 330.04176 359.35695   L 327.19626 360.32955   L 324.49484 361.33817   L 321.90147 362.49088   L 319.4882 363.67961   L 317.18299 364.94038   L 314.98583 366.23718   L 312.93275 367.60602   L 310.98773 369.04691   L 309.18678 370.48779   L 307.49389 371.9647   L 305.90905 373.47763   L 304.39626 374.95454   L 303.02754 376.46747   L 301.76687 377.9804   L 300.57825 379.49333   L 299.49768 380.97024   L 298.52517 382.41112   L 297.62469 383.81599   L 296.79626 385.18483   L 296.07588 386.48163   L 295.42754 387.7424   L 294.85123 388.93113   L 294.31095 390.04782   L 293.87872 391.05644   L 293.51853 391.99302   L 293.23038 392.82153   L 292.97825 393.54197   L 292.61806 394.62263   L 292.51 395.16297   L 294.0228 394.33446   L 295.49957 393.46992   L 296.97635 392.60539   L 298.45313 391.70484   L 299.89389 390.76826   L 301.33465 389.83169   L 302.73939 388.85909   L 304.14413 387.85047   L 305.54887 386.84185   L 306.91759 385.83323   L 308.28631 384.75256   L 309.61901 383.70792   L 310.95171 382.62726   L 312.28441 381.51057   L 313.58109 380.39388   L 314.84176 379.24118   L 316.10242 378.05244   L 317.36308 376.89974   L 318.58773 375.67498   L 319.81237 374.45023   L 321.001 373.22548   L 322.15361 371.9647   L 323.34223 370.70393   L 324.45882 369.40713   L 325.57541 368.11033   L 326.692 366.77751   L 327.77257 365.44469   L 328.85313 364.11187   L 329.86167 362.70701   L 330.90622 361.33817   L 331.91475 359.9333   L 332.88726 358.52844  z    M 131.50523 358.52844   L 132.47775 359.9333   L 133.48628 361.33817   L 134.53083 362.70701   L 135.57538 364.11187   L 136.61993 365.44469   L 137.7005 366.77751   L 138.81708 368.11033   L 139.93367 369.40713   L 141.08628 370.70393   L 142.23889 371.9647   L 143.39149 373.22548   L 144.61614 374.45023   L 145.80476 375.67498   L 147.02941 376.89974   L 148.29007 378.05244   L 149.55074 379.24118   L 150.8114 380.39388   L 152.10808 381.51057   L 153.44078 382.62726   L 154.77348 383.70792   L 156.10619 384.75256   L 157.47491 385.83323   L 158.84363 386.84185   L 160.24837 387.85047   L 161.65311 388.85909   L 163.05785 389.83169   L 164.49861 390.76826   L 165.93936 391.70484   L 167.41614 392.60539   L 168.89292 393.46992   L 170.40571 394.33446   L 171.88249 395.16297   L 171.77444 394.62263   L 171.45026 393.54197   L 171.19813 392.82153   L 170.87396 391.99302   L 170.51377 391.05644   L 170.08154 390.04782   L 169.57728 388.93113   L 169.00098 387.77842   L 168.35263 386.51765   L 167.63225 385.22085   L 166.80382 383.85201   L 165.90334 382.44715   L 164.93083 381.00626   L 163.85026 379.52935   L 162.66164 378.01642   L 161.40097 376.53951   L 160.03225 375.02658   L 158.55548 373.51365   L 156.97064 372.03675   L 155.27775 370.55984   L 153.4768 369.08293   L 151.53178 367.67807   L 149.51472 366.30922   L 147.31756 364.9764   L 145.04836 363.71563   L 142.59908 362.5269   L 140.04173 361.41021   L 137.34031 360.36557   L 134.53083 359.42899   L 131.54125 358.56446   L 131.54125 358.56446   L 131.50523 358.52844   L 131.50523 358.52844  z    M 233.87113 324.34342   L 234.26734 324.37944   L 234.62753 324.41547   L 235.02374 324.45149   L 235.38392 324.52353   L 235.78013 324.59558   L 236.14032 324.70364   L 236.50051 324.84773   L 236.82468 324.99182   L 237.14885 325.13591   L 237.50904 325.31602   L 237.7972 325.49613   L 238.12137 325.71226   L 238.69767 326.14453   L 239.23795 326.64884   L 239.74222 327.22519   L 240.17445 327.83757   L 240.57066 328.44995   L 240.89483 329.13437   L 241.0389 329.49459   L 241.14696 329.85481   L 241.25502 330.25105   L 241.32705 330.61128   L 241.39909 331.00752   L 241.47113 331.40376   L 241.47113 331.80001   L 241.50715 332.19625   L 241.47113 332.59249   L 241.47113 332.98874   L 241.39909 333.38498   L 241.32705 333.78122   L 241.25502 334.14145   L 241.14696 334.50167   L 241.0389 334.89791   L 240.89483 335.22211   L 240.57066 335.90653   L 240.17445 336.55493   L 239.74222 337.16731   L 239.23795 337.74366   L 238.69767 338.24797   L 238.12137 338.68024   L 237.7972 338.89637   L 237.50904 339.07648   L 237.14885 339.25659   L 236.82468 339.40068   L 236.50051 339.54477   L 236.14032 339.68886   L 235.78013 339.79692   L 235.38392 339.86897   L 235.02374 339.94101   L 234.62753 339.97703   L 234.26734 340.01306   L 233.87113 340.01306   L 233.47492 340.01306   L 233.07871 339.97703   L 232.71852 339.94101   L 232.32231 339.86897   L 231.96212 339.79692   L 231.60193 339.68886   L 231.24174 339.54477   L 230.88155 339.40068   L 230.55738 339.25659   L 230.23321 339.07648   L 229.90904 338.89637   L 229.58487 338.68024   L 229.00857 338.24797   L 228.46828 337.74366   L 227.96402 337.16731   L 227.53179 336.55493   L 227.3517 336.26675   L 227.1716 335.90653   L 226.99151 335.58233   L 226.84743 335.22211   L 226.70335 334.89791   L 226.55928 334.50167   L 226.48724 334.14145   L 226.37918 333.78122   L 226.30715 333.38498   L 226.27113 332.98874   L 226.23511 332.59249   L 226.23511 332.19625   L 226.23511 331.80001   L 226.27113 331.40376   L 226.30715 331.00752   L 226.37918 330.61128   L 226.48724 330.25105   L 226.55928 329.85481   L 226.70335 329.49459   L 226.84743 329.13437   L 226.99151 328.81017   L 227.1716 328.44995   L 227.3517 328.12575   L 227.53179 327.83757   L 227.96402 327.22519   L 228.46828 326.64884   L 229.00857 326.14453   L 229.58487 325.71226   L 229.90904 325.49613   L 230.23321 325.31602   L 230.55738 325.13591   L 230.88155 324.99182   L 231.24174 324.84773   L 231.60193 324.70364   L 231.96212 324.59558   L 232.32231 324.52353   L 232.71852 324.45149   L 233.07871 324.41547   L 233.47492 324.37944   L 233.87113 324.34342  z   " />
    <path
       id="5"
       style="fill:#005ca1;fill-rule:evenodd;fill-opacity:1;stroke:none;"
       d="  M 6.1232237 89.695149   L 6.1232237 6.3038759   L 464.39249 6.3038759   L 464.39249 96.179136   L 461.47496 94.23394   L 458.41334 92.432832   L 455.24368 90.739791   L 451.92993 89.226861   L 448.47211 87.821997   L 444.94225 86.5252   L 441.30434 85.372491   L 437.55837 84.363871   L 433.77637 83.463317   L 429.88633 82.706852   L 425.96026 82.058453   L 421.99817 81.554143   L 418.00007 81.1579   L 413.92993 80.905745   L 409.8958 80.725634   L 405.82566 80.725634   L 401.75552 80.797678   L 397.72139 81.013811   L 393.68727 81.33801   L 389.68916 81.806298   L 385.72708 82.346631   L 381.80101 83.031051   L 377.94698 83.823539   L 374.16499 84.724092   L 370.49106 85.732713   L 366.85314 86.849399   L 363.3593 88.074152   L 359.9375 89.406972   L 356.65977 90.88388   L 353.52612 92.432832   L 350.50053 94.089851   L 347.61901 95.854936   L 344.7375 93.945762   L 341.67589 92.144655   L 338.50622 90.523658   L 335.19247 89.010728   L 331.77067 87.641886   L 328.24081 86.417133   L 324.63892 85.300447   L 320.92896 84.327849   L 317.14697 83.463317   L 313.29294 82.742874   L 309.40289 82.130498   L 305.44081 81.66221   L 301.4427 81.33801   L 297.40858 81.085855   L 293.37446 80.977789   L 289.30431 80.977789   L 285.23417 81.121878   L 281.20005 81.374033   L 277.1299 81.734254   L 273.1318 82.202542   L 269.16971 82.814919   L 265.20763 83.499339   L 261.3536 84.327849   L 257.53559 85.264425   L 253.78961 86.273045   L 250.11568 87.425754   L 246.5498 88.686529   L 243.05596 90.019348   L 239.7062 91.496256   L 236.46449 93.045209   L 233.36686 94.73825   L 230.37729 96.467313   L 227.3517 94.558139   L 224.21805 92.793054   L 220.9043 91.136035   L 217.4825 89.623105   L 213.95264 88.218241   L 210.35075 86.921443   L 206.60477 85.804757   L 202.78676 84.760115   L 198.93273 83.859561   L 194.97065 83.103096   L 190.97254 82.454697   L 186.93842 81.914365   L 182.83226 81.518121   L 178.7261 81.229944   L 174.61993 81.049833   L 170.47775 80.977789   L 166.37159 81.049833   L 162.26543 81.265966   L 158.15927 81.554143   L 154.12514 81.986409   L 150.09102 82.526741   L 146.12893 83.17514   L 142.23889 83.931605   L 138.42088 84.796137   L 134.6749 85.804757   L 131.03699 86.921443   L 127.47111 88.110174   L 124.04931 89.442994   L 120.73556 90.88388   L 117.52988 92.432832   L 114.50428 94.089851   L 111.58675 95.854936   L 108.77727 94.23394   L 105.89575 92.684987   L 102.90618 91.208079   L 99.844566 89.839237   L 96.710916 88.54244   L 93.541247 87.317687   L 90.299541 86.201   L 86.985796 85.156358   L 83.636033 84.18376   L 80.214231 83.319229   L 76.79243 82.562764   L 73.334609 81.878343   L 69.84077 81.265966   L 66.34693 80.797678   L 62.817072 80.401435   L 59.287213 80.077235   L 55.757355 79.897125   L 52.227497 79.789058   L 48.697638 79.789058   L 45.16778 79.897125   L 41.67394 80.113257   L 38.21612 80.401435   L 34.794318 80.8337   L 31.372517 81.374033   L 28.022753 82.022431   L 24.709009 82.742874   L 21.431283 83.643428   L 18.225595 84.616026   L 15.091946 85.69669   L 12.030334 86.921443   L 9.0407598 88.254263   L 6.1232237 89.695149  z " />
    <path
       id="6"
       style="fill:#f8c300;fill-rule:nonzero;fill-opacity:1;stroke:none;"
       d="  M 464.10434 99.024885   L 464.06832 98.988863   L 468.46264 92.937142   L 468.49865 92.973164   L 464.10434 99.024885  z    M 464.06832 98.988863   L 464.06832 98.988863   L 466.26548 95.963003   L 464.06832 98.988863  z    M 464.06832 98.988863   L 462.51951 97.908199   L 460.93467 96.863556   L 459.31382 95.854936   L 457.62093 94.882338   L 455.92804 93.981784   L 454.16311 93.081231   L 452.39818 92.252721   L 450.56121 91.460234   L 453.44273 84.580004   L 455.45979 85.444535   L 457.44083 86.381111   L 459.38586 87.353709   L 461.29486 88.398352   L 463.13183 89.479016   L 464.9688 90.595703   L 466.73373 91.748411   L 468.46264 92.973164   L 464.06832 98.988863  z    M 450.56121 91.460234   L 448.68822 90.703769   L 446.77922 89.947304   L 444.8342 89.262883   L 442.85315 88.614484   L 440.87211 88.03813   L 438.81903 87.461776   L 436.76595 86.921443   L 434.71287 86.453156   L 436.33372 79.140659   L 438.5669 79.680992   L 440.76405 80.257346   L 442.96121 80.869723   L 445.12235 81.518121   L 447.24747 82.202542   L 449.33657 82.959007   L 451.42567 83.751494   L 453.44273 84.580004   L 450.56121 91.460234  z    M 434.71287 86.453156   L 432.01144 85.876801   L 429.274 85.372491   L 426.50054 84.940225   L 423.69106 84.543982   L 420.88159 84.219782   L 418.07211 84.003649   L 415.22661 83.787517   L 412.38111 83.67945   L 409.53561 83.607406   L 406.65409 83.643428   L 403.8086 83.67945   L 400.9631 83.823539   L 398.1176 84.003649   L 395.30812 84.255804   L 392.49864 84.580004   L 389.68916 84.940225   L 386.95172 85.372491   L 384.21428 85.876801   L 381.47684 86.417133   L 378.81144 87.02951   L 376.18205 87.677909   L 373.58869 88.398352   L 371.03134 89.190839   L 368.54603 90.019348   L 366.06072 90.919902   L 363.68347 91.8925   L 361.34224 92.90112   L 359.07304 93.945762   L 356.87589 95.062449   L 354.71475 96.25118   L 352.66167 97.475933   L 350.68063 98.77273   L 346.50243 92.540899   L 348.62755 91.172057   L 350.86072 89.839237   L 353.16593 88.578462   L 355.54319 87.389731   L 357.99248 86.237023   L 360.47778 85.156358   L 363.07115 84.111716   L 365.70053 83.139118   L 368.36594 82.238564   L 371.10338 81.410055   L 373.87684 80.617568   L 376.68632 79.897125   L 379.56783 79.248726   L 382.44935 78.636349   L 385.40291 78.096017   L 388.35646 77.627729   L 391.31002 77.231486   L 394.33561 76.907286   L 397.32518 76.619109   L 400.35078 76.402976   L 403.41239 76.258888   L 406.43798 76.186843   L 409.49959 76.186843   L 412.52519 76.222865   L 415.5868 76.366954   L 418.61239 76.547065   L 421.60196 76.79922   L 424.59154 77.123419   L 427.58111 77.519663   L 430.53467 77.987951   L 433.4522 78.528283   L 436.33372 79.140659   L 434.71287 86.453156  z    M 350.68063 98.77273   L 348.51949 100.21362   L 346.43039 98.700686   L 348.59153 95.638803   L 350.68063 98.77273  z    M 346.43039 98.700686   L 346.39437 98.700686   L 350.71664 92.612943   L 350.75266 92.612943   L 346.43039 98.700686  z    M 346.39437 98.700686   L 346.39437 98.664664   L 348.55551 95.638803   L 346.39437 98.700686  z    M 346.39437 98.664664   L 344.84555 97.620021   L 343.29674 96.575379   L 341.67589 95.602781   L 340.01901 94.666205   L 338.36214 93.765652   L 336.63323 92.937142   L 334.8683 92.108633   L 333.06735 91.352168   L 335.94887 84.435915   L 337.92991 85.264425   L 339.87494 86.164978   L 341.78394 87.137576   L 343.65693 88.110174   L 345.4939 89.190839   L 347.29484 90.271503   L 349.02375 91.424212   L 350.75266 92.612943   L 346.39437 98.664664  z    M 333.06735 91.352168   L 331.23039 90.595703   L 329.3574 89.911282   L 327.48441 89.262883   L 325.53939 88.650507   L 323.59437 88.074152   L 321.64934 87.569842   L 319.63228 87.065532   L 317.65124 86.633266   L 319.16403 79.32077   L 321.36119 79.789058   L 323.52233 80.32939   L 325.64745 80.905745   L 327.77257 81.518121   L 329.86167 82.16652   L 331.91475 82.886963   L 333.93181 83.643428   L 335.94887 84.435915   L 333.06735 91.352168  z    M 317.65124 86.633266   L 314.98583 86.092934   L 312.32043 85.660668   L 309.61901 85.264425   L 306.91759 84.940225   L 304.18014 84.68807   L 301.4427 84.50796   L 298.66924 84.363871   L 295.89578 84.327849   L 293.12232 84.327849   L 290.31284 84.363871   L 287.53938 84.50796   L 284.76592 84.68807   L 281.99246 84.940225   L 279.219 85.228402   L 276.44554 85.588624   L 273.7081 86.02089   L 271.00668 86.489178   L 268.30526 87.02951   L 265.63985 87.641886   L 262.97445 88.290285   L 260.34507 89.010728   L 257.78772 89.767193   L 255.23037 90.595703   L 252.74506 91.460234   L 250.25976 92.39681   L 247.84649 93.369408   L 245.50525 94.41405   L 243.16402 95.494715   L 240.93084 96.611401   L 238.73369 97.800132   L 236.60857 99.060907   L 234.51947 100.3577   L 230.48535 94.053829   L 232.6825 92.684987   L 234.98772 91.352168   L 237.32895 90.05537   L 239.74222 88.866639   L 242.22753 87.677909   L 244.74886 86.561222   L 247.3062 85.51658   L 249.93559 84.543982   L 252.63701 83.607406   L 255.33843 82.706852   L 258.11189 81.878343   L 260.88535 81.121878   L 263.73085 80.437457   L 266.57635 79.789058   L 269.45786 79.212704   L 272.3754 78.708394   L 275.29294 78.240106   L 278.21047 77.843862   L 281.16403 77.519663   L 284.11758 77.267508   L 287.10716 77.051375   L 290.06071 76.907286   L 293.05028 76.871264   L 296.00384 76.835242   L 298.95739 76.907286   L 301.91095 77.051375   L 304.82849 77.267508   L 307.74602 77.519663   L 310.62754 77.879884   L 313.50906 78.276128   L 316.35455 78.744416   L 319.16403 79.32077   L 317.65124 86.633266  z    M 234.51947 100.3577   L 232.43037 101.69052   L 230.37729 100.28566   L 232.50241 97.187756   L 234.51947 100.3577  z    M 230.37729 100.28566   L 230.12516 100.10555   L 234.37539 93.945762   L 234.62753 94.125873   L 230.37729 100.28566  z    M 230.12516 100.10555   L 228.5043 99.024885   L 226.88345 98.016265   L 225.15454 97.007645   L 223.42563 96.071069   L 221.62468 95.134493   L 219.78771 94.269962   L 217.91473 93.441452   L 216.00572 92.612943   L 218.8152 85.660668   L 220.9043 86.561222   L 222.95738 87.461776   L 224.97444 88.434374   L 226.95549 89.442994   L 228.86449 90.523658   L 230.73748 91.604323   L 232.57445 92.757031   L 234.37539 93.945762   L 230.12516 100.10555  z    M 216.00572 92.612943   L 214.02468 91.856478   L 212.00762 91.100013   L 209.99056 90.415592   L 207.93747 89.731171   L 205.84837 89.118794   L 203.72326 88.54244   L 201.59814 88.002108   L 199.437 87.497798   L 201.05785 80.185302   L 203.36307 80.761656   L 205.66828 81.33801   L 207.97349 81.950387   L 210.20667 82.634808   L 212.40383 83.319229   L 214.60098 84.075694   L 216.7261 84.868181   L 218.8152 85.660668   L 216.00572 92.612943  z    M 199.437 87.497798   L 196.5915 86.885421   L 193.746 86.381111   L 190.86449 85.912823   L 187.98297 85.480558   L 185.02941 85.156358   L 182.11188 84.868181   L 179.15832 84.652048   L 176.20477 84.471937   L 173.25121 84.399893   L 170.26164 84.327849   L 167.30808 84.363871   L 164.35453 84.471937   L 161.43699 84.616026   L 158.51946 84.796137   L 155.60192 85.084314   L 152.7204 85.408513   L 149.87491 85.804757   L 147.02941 86.237023   L 144.25595 86.741333   L 141.48249 87.317687   L 138.78107 87.966086   L 136.11566 88.650507   L 133.48628 89.37095   L 130.92893 90.199459   L 128.4076 91.06399   L 125.95831 92.000566   L 123.58106 92.973164   L 121.27585 94.017807   L 119.04267 95.134493   L 116.84552 96.287202   L 114.75642 97.511955   L 112.77537 98.77273   L 108.63319 92.540899   L 110.79433 91.172057   L 113.02751 89.839237   L 115.36874 88.614484   L 117.78201 87.425754   L 120.26732 86.273045   L 122.82466 85.228402   L 125.41803 84.219782   L 128.11945 83.283206   L 130.85689 82.418675   L 133.66637 81.590166   L 136.51187 80.869723   L 139.39339 80.185302   L 142.34694 79.572925   L 145.33652 78.996571   L 148.32609 78.528283   L 151.3877 78.096017   L 154.44931 77.735796   L 157.54695 77.447618   L 160.68059 77.195463   L 163.81424 77.051375   L 166.94789 76.943308   L 170.08154 76.907286   L 173.25121 76.943308   L 176.38486 77.015353   L 179.51851 77.195463   L 182.65216 77.411596   L 185.78581 77.735796   L 188.88344 78.096017   L 191.98107 78.528283   L 195.00667 78.996571   L 198.06828 79.572925   L 201.05785 80.185302   L 199.437 87.497798  z    M 112.77537 98.77273   L 110.75831 100.10555   L 108.70523 98.844774   L 110.68627 95.638803   L 112.77537 98.77273  z    M 108.70523 98.844774   L 108.70523 98.808752   L 112.66732 92.468854   L 112.66732 92.468854   L 108.70523 98.844774  z    M 112.6313 92.468854   L 112.66732 92.468854   L 110.68627 95.638803   L 112.6313 92.468854  z    M 108.74125 98.808752   L 107.22845 97.908199   L 105.67964 97.043667   L 104.13082 96.179136   L 102.50997 95.314604   L 100.88912 94.486095   L 99.232244 93.693607   L 97.575371 92.937142   L 95.846461 92.180677   L 98.836035 85.300447   L 100.63698 86.092934   L 102.40191 86.921443   L 104.16684 87.749953   L 105.89575 88.650507   L 107.62466 89.55106   L 109.31755 90.487636   L 111.01044 91.460234   L 112.6313 92.468854   L 108.74125 98.808752  z    M 95.846461 92.180677   L 94.15357 91.460234   L 92.388641 90.775813   L 90.623711 90.091392   L 88.858782 89.442994   L 87.057834 88.830617   L 85.256886 88.254263   L 83.455938 87.677909   L 81.618971 87.173598   L 83.636033 79.969169   L 85.617076 80.509501   L 87.5621 81.121878   L 89.471105 81.734254   L 91.38011 82.418675   L 93.289115 83.067074   L 95.162101 83.787517   L 96.999068 84.543982   L 98.836035 85.300447   L 95.846461 92.180677  z    M 81.618971 87.173598   L 79.241719 86.5252   L 76.864468 85.948845   L 74.451197 85.372491   L 72.001907 84.904203   L 69.552618 84.435915   L 67.103328 84.039672   L 64.654039 83.67945   L 62.168731 83.391273   L 59.719441 83.139118   L 57.234133 82.922985   L 54.748824 82.778896   L 52.299535 82.706852   L 49.814226 82.67083   L 47.364937 82.67083   L 44.879628 82.742874   L 42.430339 82.850941   L 40.017068 83.031051   L 37.567779 83.247184   L 35.154508 83.535362   L 32.777257 83.859561   L 30.400005 84.255804   L 28.058772 84.724092   L 25.71754 85.228402   L 23.412326 85.804757   L 21.143131 86.453156   L 18.909956 87.137576   L 16.67678 87.858019   L 14.515642 88.686529   L 12.354504 89.55106   L 10.265405 90.487636   L 8.2123236 91.496256   L 6.1592427 92.540899   L 2.5933654 85.984868   L 4.7905221 84.832159   L 7.0236978 83.751494   L 9.2928925 82.742874   L 11.634125 81.806298   L 13.975358 80.905745   L 16.352609 80.113257   L 18.76588 79.356792   L 21.251188 78.672372   L 23.700478 78.059995   L 26.221805 77.483641   L 28.743133 76.979331   L 31.300479 76.547065   L 33.893844 76.186843   L 36.451191 75.862644   L 39.080575 75.610489   L 41.709959 75.430378   L 44.339344 75.28629   L 46.968728 75.214245   L 49.598112 75.178223   L 52.263516 75.214245   L 54.928919 75.322312   L 57.558303 75.4664   L 60.223707 75.682533   L 62.853091 75.934688   L 65.518494 76.258888   L 68.147878 76.619109   L 70.777263 77.051375   L 73.370628 77.519663   L 75.963993 78.059995   L 78.557359 78.636349   L 81.114705 79.284748   L 83.636033 79.969169   L 81.618971 87.173598  z   " />
  </g>
</svg>
