<?xml version="1.0" encoding="UTF-8"?>
<!DOCTYPE svg PUBLIC "-//W3C//DTD SVG 1.0//EN" "http://www.w3.org/TR/2001/REC-SVG-20010904/DTD/svg10.dtd">
<!-- Creator: CorelDRAW 2020 (64-Bit) -->
<svg xmlns="http://www.w3.org/2000/svg" xml:space="preserve" width="270mm" height="320mm" version="1.0" style="shape-rendering:geometricPrecision; text-rendering:geometricPrecision; image-rendering:optimizeQuality; fill-rule:evenodd; clip-rule:evenodd"
viewBox="0 0 26985.75 31983.12"
 xmlns:xlink="http://www.w3.org/1999/xlink"
 xmlns:xodm="http://www.corel.com/coreldraw/odm/2003">
 <defs>
  <style type="text/css">
   <![CDATA[
    .fil6 {fill:none}
    .fil1 {fill:#FEFEFE}
    .fil4 {fill:#FFED00}
    .fil5 {fill:#D08F14}
    .fil3 {fill:#B14421}
    .fil12 {fill:#D2E1F4}
    .fil10 {fill:#D2E1F4}
    .fil7 {fill:#828491}
    .fil11 {fill:#393185}
    .fil8 {fill:black}
    .fil9 {fill:#A30A05}
    .fil13 {fill:#A30A05}
    .fil2 {fill:url(#id0)}
    .fil0 {fill:url(#id1)}
   ]]>
  </style>
  <linearGradient id="id0" gradientUnits="userSpaceOnUse" x1="13463.56" y1="946.16" x2="13522.18" y2="3051.73">
   <stop offset="0" style="stop-opacity:1; stop-color:#2C4C80"/>
   <stop offset="1" style="stop-opacity:1; stop-color:#99B5D8"/>
  </linearGradient>
  <linearGradient id="id1" gradientUnits="userSpaceOnUse" xlink:href="#id0" x1="7729.73" y1="1412.12" x2="19256.01" y2="30571">
  </linearGradient>
 </defs>
 <g id="Слой_x0020_1">
  <metadata id="CorelCorpID_0Corel-Layer"/>
  <g id="_1580501824640">
   <path class="fil0" d="M-0 0l26985.75 0 0 18490.25c0,7421.08 -6071.78,13492.87 -13492.86,13492.87l-0.03 0c-7421.08,0 -13492.86,-6071.79 -13492.86,-13492.87l0 -18490.25z"/>
   <path class="fil1" d="M999.47 999.47l0 17490.78c0,6869.41 5624.01,12493.4 12493.42,12493.4 6869.39,0 12493.39,-5624 12493.39,-12493.4l0 -17490.78 -24986.8 0z"/>
   <path class="fil2" d="M1517.65 999.47l1499.21 0 0 1998.95 -349.82 0 0 -413.13 -799.58 0 0 413.13 -349.82 0 0 -1998.95zm2041.01 0l1499.21 0 0 1998.95 -349.82 0 0 -413.13 -799.58 0 0 413.13 -349.82 0 0 -1998.95zm2041.01 0l1499.21 0 0 1998.95 -349.82 0 0 -413.13 -799.58 0 0 413.13 -349.82 0 0 -1998.95zm2041.01 0l1499.21 0 0 1998.95 -349.82 0 0 -413.13 -799.58 0 0 413.13 -349.82 0 0 -1998.95zm2041.01 0l1499.21 0 0 1998.95 -349.82 0 0 -413.13 -799.58 0 0 413.13 -349.82 0 0 -1998.95zm2041.01 0l1499.21 0 0 1998.95 -349.82 0 0 -413.13 -799.58 0 0 413.13 -349.82 0 0 -1998.95zm2041.01 0l1499.21 0 0 1998.95 -349.82 0 0 -413.13 -799.58 0 0 413.13 -349.82 0 0 -1998.95zm2041.01 0l1499.21 0 0 1998.95 -349.82 0 0 -413.13 -799.58 0 0 413.13 -349.82 0 0 -1998.95zm2041.01 0l1499.21 0 0 1998.95 -349.82 0 0 -413.13 -799.58 0 0 413.13 -349.82 0 0 -1998.95zm2041.01 0l1499.21 0 0 1998.95 -349.82 0 0 -413.13 -799.58 0 0 413.13 -349.82 0 0 -1998.95zm2041.01 0l1499.21 0 0 1998.95 -349.82 0 0 -413.13 -799.58 0 0 413.13 -349.82 0 0 -1998.95zm2041.11 0l1499.21 0 0 1998.95 -349.82 0 0 -413.13 -799.58 0 0 413.13 -349.82 0 0 -1998.95z"/>
  </g>
  <g id="_1580501825840">
   <g>
    <path class="fil3" d="M17202.11 25956.15c-49.22,-150.6 -31.77,-306.97 36.05,-437.21l-0.08 0.06c-492.94,-577.34 -1194.25,-637.59 -2068,-269.98 1195.29,58.18 1777.06,1290.5 2649.73,1443.88 -865.76,618.51 -2018.9,729.27 -3384.88,31.73 -592.18,-302.39 -506.44,-796 -826.21,-1035.45 -124.66,33.79 -249.58,65.93 -374.75,96.4 0,-176.3 0,-352.59 0,-528.89 71.06,-4.61 141.55,-11.36 211.56,-19.95 54.67,-560.85 149.57,-1134.77 504.16,-1566.49 606.65,-738.58 1572.73,-799.1 2279.51,-1269.33 -21.2,626.74 77.53,1192.88 -567.36,2134.83l36.75 -14.2c112.25,-101.59 248.75,-174.09 349.67,-284.17 246.6,-268.99 417.59,-575.54 397.79,-863.3 102.26,-1.76 204.5,-3.53 306.76,-5.29 -109.87,195.12 -197.97,387.34 -263.44,576.55 459.59,-276.96 944.02,-498.92 1391.32,-734.8 132.49,-713.02 -249.29,-1380.13 -121.67,-2073.64 258.35,-835.38 781.77,-1355.99 1491.46,-1655.43 -64.25,527.1 1036.63,1177.67 -634.67,3131.04 95.43,26.04 201.83,-21.39 312.89,-99.97 109.69,-102.59 209.69,-213.03 297.57,-333.98 94.45,-129.99 184.56,-262.43 270.69,-397.07 224.93,-716.55 378.36,-1478.26 211.9,-2442.02 -124.56,-38.63 -236.46,-120.25 -311.29,-239.31 -166.29,-264.62 -86.57,-613.98 178.05,-780.27 264.62,-166.29 613.98,-86.57 780.27,178.05 166.29,264.62 86.57,613.98 -178.05,780.27 -86.17,54.15 -181.33,82.21 -276.23,86.28 84.97,535.04 87.34,1061.8 66.53,1586.25 206.94,-411.15 386.9,-836.75 548.62,-1271.17 259.15,-696.11 370.42,-1430.84 334.2,-2183.53 -363.1,-700.86 -1597.98,-787.98 -2323.07,-1669.61 -743.98,-927.32 -409.01,-1241.12 -613.52,-1861.69 999.39,-245.59 1838.16,579.27 2478.42,1465.47 -125.49,-318.91 -276.24,-637.69 -452.53,-954.89 -17.94,-32.28 -36.14,-64.29 -54.59,-96.04 -486.89,-541.56 -1042.13,-990 -1769.18,-942.23 -9.16,120.54 -56.81,239.07 -144.03,335.77 -209.35,232.06 -567.2,250.49 -799.27,41.15 -232.06,-209.35 -250.49,-567.2 -41.15,-799.27 209.35,-232.06 567.2,-250.49 799.27,-41.15 97.82,88.24 157.68,202.88 178.53,323.36 292.7,-11.21 586.76,5.61 886.15,128.35 -16.9,-140.05 -128.66,-300.99 -253.28,-463.31 -316.93,-293.64 -657.38,-552.7 -1010.08,-782 -567.5,366.76 -1236.82,751.9 -2095.07,806.31 -890.06,56.42 -1540.93,-397.88 -1851.1,-1068.36 397.63,91.51 1231.64,-566.72 2301.04,-590.96 -530.4,-219.21 -1050.46,-390.79 -1525.09,-529.53 -103.81,122.61 -258.83,200.47 -432.06,200.47 -312.54,0 -565.91,-253.38 -565.91,-565.91 0,-312.54 253.38,-565.91 565.91,-565.91 312.54,0 565.91,253.38 565.91,565.91 0,62.86 -10.26,123.31 -29.18,179.81l0.03 -0.02c333.95,81.57 768.55,185.94 1253.97,340.88 -1028.95,-593.19 -1384.31,-1475.06 -1161.46,-2604.74 671.69,906.16 2591.55,-70.52 3395.47,3480.08 81.1,63.47 162.18,126.93 243.28,190.4 -135.85,-876.08 112.47,-1508.83 401.96,-2115.55 204.5,585.3 1727.08,683.47 1375.11,3247.38 -46.03,335.34 -36.16,680.89 -0.34,1031.36 27.08,49.24 53.82,98.95 79.91,149.59 174.66,339.12 334.89,691.03 472.81,1055.08 23.04,-380.98 59.27,-773.58 130.13,-1133.33 -77.29,-23.4 -150.79,-63.74 -214.73,-121.42 -232.06,-209.35 -250.49,-567.2 -41.15,-799.27 209.35,-232.06 567.2,-250.49 799.27,-41.15 232.06,209.35 250.49,567.2 41.15,799.27 -112.61,124.82 -268.19,187.81 -424.05,186.8 -72.65,555.71 -77.98,1178.85 -64.63,1789.69 241.05,846.53 346.91,1751.85 229.96,2708.87l287.33 -574.66c-730.9,-3001.54 558.87,-2806.63 465.42,-4209.95 584.85,605.71 908.95,1284.4 941.42,2020.35 51.29,1162.21 -401.51,1897.18 -1184.71,2242.49 -201.95,296.56 -390.51,609.49 -528.88,983.73 426.38,-451.29 934.24,-815.29 1431.83,-1174.3 -51.77,-160.59 -31.52,-342.54 70.86,-492.76 176.03,-258.25 528.09,-324.92 786.34,-148.9 258.25,176.03 324.92,528.09 148.9,786.34 -176.03,258.25 -528.09,324.92 -786.34,148.9 -40.81,-27.82 -76.81,-60.05 -107.85,-95.58 -601.58,370.68 -1169.73,798.05 -1596.64,1357.09 0,10.57 0,21.16 0,31.73 1123.32,-794.34 1794.64,-876.59 2401.15,-856.8 -427.51,652.3 -398.5,1370.26 -1195.29,2052.09 -737.92,631.46 -1709.15,710.51 -2552.51,1317.94 -43.63,63.84 -87.42,127.06 -131.25,189.64 -173.12,247.19 -387.93,453.69 -628.92,635.13 505.12,72.08 920.15,-61.8 1291.97,-294.45 -49.83,-137.76 -46.52,-294.64 21.81,-437.17 135.11,-281.82 473.12,-400.77 754.94,-265.66 281.82,135.11 400.77,473.12 265.66,754.94 -135.11,281.82 -473.12,400.77 -754.94,265.66 -75.24,-36.07 -138.87,-86.59 -189.14,-146.66 -520.38,292.17 -1117.47,418.14 -1786.21,388.83 -74.38,44.92 -150.23,88.46 -227.16,131.03 1119.66,-95.76 1411.14,556.66 2278.36,393.96 -247.94,754.9 -893.3,1248.72 -2496.35,1205.86 -685.49,-18.32 -1295.66,-349.09 -2032.68,-315.09 -59.99,51.23 -118.17,104.4 -174.15,159.88 661.94,-10.36 1104.25,193.55 1442.38,499.12 48.59,-36.67 103.99,-66.07 165.09,-86.03 297.07,-97.09 616.62,65.05 713.71,362.12 97.09,297.07 -65.05,616.62 -362.12,713.71 -297.07,97.09 -616.62,-65.05 -713.71,-362.12z"/>
    <path class="fil4" d="M13818.35 10535.13c-218.25,-542.25 388.3,-687.55 618.79,-375.51 -298.37,-120.4 -595.4,-46.51 -618.79,375.51z"/>
    <path class="fil4" d="M17251.51 13261.35c201.14,-548.82 748.84,-250.43 710.99,135.66 -140.91,-289.26 -410.95,-433.34 -710.99,-135.66z"/>
    <path class="fil4" d="M19667.43 19052.37c-473.31,-343 -37.06,-788.74 324.13,-647.19 -316.69,56.82 -528.86,277.41 -324.13,647.19z"/>
    <path class="fil4" d="M22818.78 17798.85c125.05,-571 708.09,-349.44 722.81,38.22 -178.74,-267.53 -465.79,-373.76 -722.81,-38.22z"/>
    <path class="fil4" d="M20502.8 22459.37c37.6,-583.32 647.36,-452.12 720.32,-71.11 -217.01,-237.54 -516.79,-299.32 -720.32,71.11z"/>
    <path class="fil4" d="M17934.98 26044.88c-447.63,375.9 -774.15,-155.51 -549.16,-471.53 -21.75,321.01 140.75,580.38 549.16,471.53z"/>
    <path class="fil4" d="M20721.53 13578.89c201.14,-548.82 748.84,-250.43 710.99,135.66 -140.91,-289.26 -410.95,-433.34 -710.99,-135.66z"/>
    <path class="fil5" d="M17696.79 11283.64c-1528.4,-164.19 -2529.98,-822.99 -2676.18,-2284.8 1548.85,507.82 2368.45,1297.44 2676.18,2284.8zm-2253.08 -1946.3c221.78,231.31 413.71,492.46 735.15,624.09 43.5,-135.75 -36.99,-271.5 -121.65,-407.25 183.54,159.58 232.54,355.63 253.89,585.73 145.17,95.99 318.46,224.46 428.38,376.84 90.19,-211.83 -8.78,-406.99 -158.67,-597.64 167.09,158.04 330.81,324.83 412.53,703.43 189.44,80.98 320.07,211.69 417.82,370.21 -326.92,-289.68 -982.84,-113.7 -1264.04,-396.66 196.26,35.72 390.96,65.33 565.91,15.86 -139.48,-111.13 -285.32,-213.35 -460.13,-275.01 -172.33,78.93 -368.93,-11.91 -597.64,-327.92 217.62,155.99 394.27,249.7 449.55,158.67 -336.99,-213.62 -496.12,-523.56 -661.11,-830.35z"/>
    <path class="fil6" d="M15443.71 9337.34c221.78,231.31 413.71,492.46 735.15,624.09 43.5,-135.75 -36.99,-271.5 -121.65,-407.25 183.54,159.58 232.54,355.63 253.89,585.73 145.17,95.99 318.46,224.46 428.38,376.84 90.19,-211.83 -8.78,-406.99 -158.67,-597.64 167.09,158.04 330.81,324.83 412.53,703.43 189.44,80.98 320.07,211.69 417.82,370.21 -326.92,-289.68 -982.84,-113.7 -1264.04,-396.66 196.26,35.72 390.96,65.33 565.91,15.86 -139.48,-111.13 -285.32,-213.35 -460.13,-275.01 -172.33,78.93 -368.93,-11.91 -597.64,-327.92 217.62,155.99 394.27,249.7 449.55,158.67 -336.99,-213.62 -496.12,-523.56 -661.11,-830.35z"/>
    <path class="fil5" d="M14157.16 12094.15c1360.99,-631.69 2441.78,-609.59 3379.61,-253.88 -516.78,-43.15 -1033.96,-87.6 -1465.03,169.25 660.06,-87.04 1259.83,-43.47 1835.24,52.89 -1497.46,784.09 -2816.62,1011.01 -3749.82,31.73z"/>
    <path class="fil5" d="M19313.83 13469.27c-744.97,-973.52 -781.83,-1991.82 -412.53,-3035.83 691.92,679.49 1417.79,1326.21 877.96,3194.49 -10.57,-10.57 -21.16,-21.16 -31.73,-31.73 -249.43,-320.31 -462.78,-676.68 -571.1,-1138.1 -58.97,328.34 26.61,668.71 137.41,1011.17z"/>
    <path class="fil5" d="M20466.79 16811.86c-1159.08,-455.19 -1950.79,-1265.47 -2263.64,-2538.67 1382.07,33.28 2011.1,952.51 2432.89,2115.55 -260.28,-476.7 -610.61,-856.12 -1047.2,-1142.4 382.4,521.84 743.85,1043.67 877.95,1565.51z"/>
    <path class="fil5" d="M21728.78 17959.33c1102.83,-647.99 1348.58,-2113.72 438.77,-3491.39 -802.63,1418.67 -876.46,2554.36 -438.77,3491.39zm354.09 -2956.2c-8.1,320.35 25.98,642.65 -122.92,956.47 -123.59,-71.02 -155.56,-225.57 -184.43,-382.92 -28.16,241.57 67.7,419.48 206.93,603.92 -42.64,168.73 -84.17,380.41 -62.76,567.08 -209.35,-95.8 -267.67,-306.7 -285.33,-548.58 -17.03,229.36 -25.67,462.91 168.96,797.77 -85.45,187.46 -93.95,372.06 -59.41,555.08 46.49,-434.32 649.8,-746.11 667.02,-1144.67 -120.99,158.61 -244.95,311.65 -407.56,392.94 28.22,-176.09 67.15,-349.88 154.81,-513.21 180.52,-57.75 264.63,-257.32 220.8,-644.95 -55.75,261.88 -123.19,450.14 -225.37,420.1 105.16,-384.89 13.98,-721.15 -70.74,-1059.03z"/>
    <path class="fil5" d="M20427.1 20984.72c449.92,-1006.4 1256.59,-1694.49 2623.29,-1882.84 -310.44,1290.83 -1209.19,1931.89 -2464.62,2179.02 266.06,-130.75 520.48,-271.04 708.72,-465.42 -324.22,144.14 -613.7,201.38 -867.38,169.24z"/>
    <path class="fil5" d="M16650.86 24020.54c1106.7,-502.3 2257.04,-509.67 3448.35,-52.89 -913.42,871.5 -2171.74,1000.73 -3733.95,476 561.04,-223.17 1194.82,-365.51 1882.78,-447.61 -486.55,-54.83 -997.63,-75.99 -1597.18,24.51z"/>
    <path class="fil5" d="M13932.38 25205.25c1383.75,-739.2 2230.55,-1492.69 2020.35,-2274.22 -1239.61,240.2 -2174.11,781.72 -2284.8,2136.71 146.02,-497.65 386.36,-891.58 814.49,-1078.93 -423.38,374.52 -563.94,785.53 -550.04,1216.44z"/>
    <path class="fil5" d="M18088.68 22813.94c-340.16,-1309.75 -190.99,-2340.12 1032.9,-2986.92 405.06,1429.54 -100.02,2377.31 -1032.9,2986.92zm889.95 -2523.04c-123.16,262.94 -284.36,512.89 -280.56,819.21 138.01,-14.95 229.09,-129.4 318.6,-247.2 -73.42,205.91 -230.42,317.24 -428.36,418.88 -31,151.77 -80.45,338.02 -175.29,482.21 223.8,-5.42 361.09,-156.52 475.07,-346.84 -78.25,192.14 -165.64,384.79 -473.7,589.43 -0.81,181.77 -68.4,334.62 -173.35,471.29 135.64,-368.76 -270.18,-830.54 -123.24,-1160.14 42.29,170.62 89.47,337.76 199.97,460 46.72,-152.76 83.06,-307.35 72.1,-470.28 -135.9,-109.31 -128.96,-300.46 67.41,-600.08 -57.31,231.95 -74.35,408.13 28.08,419.07 63.73,-348.91 281.02,-590.45 493.27,-835.54z"/>
    <path class="fil5" d="M13883.03 25494.15c441.3,1293.05 1844.86,1744.22 3116.51,1197.26 -906.99,-1141.24 -2056.43,-1541 -3116.51,-1197.26zm2665.63 1017.44c-282.01,-69.12 -577.78,-100.49 -813.87,-295.68 98.25,-98.07 244.51,-97.15 392.4,-92.91 -206.39,-72.07 -391.6,-19.71 -594.96,70.62 -137.62,-71.11 -313.65,-149.49 -485.42,-166.14 144.66,-170.85 348.47,-182.9 568.17,-152.21 -198.71,-59.65 -403.54,-112.51 -756.19,-1.1 -142.03,-113.45 -303.45,-156.75 -475.72,-160.81 372.22,125.81 477.07,731.57 825.89,824.02 -106.29,-140 -206.81,-281.62 -232.63,-444.37 148.24,59.5 291.4,128.22 411.38,239 -0.17,174.4 152.99,288.96 509.51,324.11 -216.55,-100.95 -364.43,-198.26 -308.65,-284.86 311.64,169.35 636.05,151.76 960.07,140.33z"/>
   </g>
   <g>
    <path class="fil7" d="M6747.61 17676.93c0,4189.6 2865.09,6109.89 6464.12,6431.28 0,825.06 0,1650.14 0,2475.2 -814.85,10.59 -1629.71,-123.4 -2444.58,-338.49 7.06,-260.92 14.1,-521.83 21.16,-782.76 -546.7,-143.95 -997.65,-342.62 -1396.26,-571.2 -190.4,190.4 -380.8,380.8 -571.2,571.2 -1538.78,-890.96 -2635.9,-2021.46 -3342.57,-3363.72 183.34,-183.34 366.7,-366.7 550.04,-550.04 -279.34,-410.36 -496.33,-851.91 -634.67,-1332.8 -260.92,0 -521.83,0 -782.76,0 -194.34,-827.61 -333.19,-1668.38 -333.19,-2538.67 0,-870.29 138.86,-1711.06 333.19,-2538.67 260.92,0 521.83,0 782.76,0 138.34,-480.89 355.32,-922.43 634.67,-1332.8 -183.34,-183.34 -366.7,-366.7 -550.04,-550.04 706.67,-1342.26 1803.79,-2472.76 3342.57,-3363.72 190.4,190.4 380.8,380.8 571.2,571.2 398.61,-228.58 849.56,-427.24 1396.26,-571.2 -7.06,-260.92 -14.1,-521.83 -21.16,-782.76 814.87,-215.09 1629.73,-349.09 2444.58,-338.49 0,825.06 0,1650.14 0,2475.2 -3599.03,321.39 -6464.12,2241.68 -6464.12,6431.28z"/>
    <path class="fil8" d="M5973.6 22168.51c677.2,1170.12 1638.77,2080.95 2785.02,2790.49 116.91,-116.91 233.83,-233.82 350.73,-350.72l216.26 -216.27 265.31 152.14c411.57,236.02 840.3,410.57 1299.18,531.41l306.41 80.68 -8.57 316.73c-4.16,154.06 -8.33,308.12 -12.49,462.18 537.4,127.33 1484.77,248.63 2036.28,273.69 0,-569.6 0,-1139.19 0,-1708.79 -3809.81,-458.04 -6863.91,-2714.76 -6863.91,-6823.11 0,-4108.35 3054.1,-6354.5 6863.91,-6812.53 0,-569.6 0,-1139.19 0,-1708.79 -551.51,25.06 -1498.88,135.78 -2036.28,263.11 4.17,154.06 8.34,308.12 12.49,462.18l8.57 316.73 -306.41 80.68c-458.89,120.84 -887.61,295.39 -1299.18,531.41l-265.31 152.14 -216.26 -216.27c-116.91,-116.91 -233.83,-233.82 -350.73,-350.72 -1146.26,709.54 -2107.82,1620.36 -2785.02,2790.49 112.47,112.47 224.94,224.95 337.41,337.42l234.05 234.05 -186.25 273.62c-255.85,375.85 -455.05,780.71 -580.94,1218.35l-83.22 289.27 -300.99 0c-154.33,0 -308.67,0 -463,0 -151.39,704.07 -253.17,1416.18 -253.17,2138.88 0,722.7 101.78,1434.81 253.17,2138.88 154.33,0 308.67,0 463,0l300.99 0 83.22 289.27c125.89,437.64 325.09,842.5 580.94,1218.35l186.25 273.62 -234.05 234.05c-112.47,112.47 -224.94,224.95 -337.41,337.42z"/>
   </g>
   <g>
    <path class="fil9" d="M6098.79 19088.81l-380.8 0 -676.98 -6685.14 -1755.9 -1396.26 2117.01 0.01c-141.01,-1102.36 -775.38,-1435.45 -921.59,-2166.17 -262.07,-1309.63 517.82,-2348.98 1618.27,-2369.42 3037.94,-56.44 4093.04,1067.3 5532.3,-1628.97 124.54,587.01 31.67,1111.69 -55.53,1599.89 665.85,-108.84 1265.47,-722.38 1832.59,-1663.35 295.53,949.77 182.25,1788.11 -528.89,2432.89 1117.81,-307.05 1746.83,-1305.56 2284.79,-2432.89 -113.27,2462.14 -1502.05,4403.39 -5098.48,3977.23 -1951.59,-231.26 -3407.49,318.01 -3305.15,2250.79l2152.04 -0.01 -1755.9 1396.26 -676.98 6685.14 -380.8 0z"/>
    <polygon class="fil10" points="6253.75,18838.94 6918.59,12273.66 8196.78,11257.27 4000.8,11257.27 5278.99,12273.66 5943.83,18838.94 "/>
    <path class="fil4" d="M5504.13 9351.64c-554.81,-1761.71 232.09,-2434.21 1777.06,-2210.75 -1392.74,-63.47 -2020.33,638.2 -1777.06,2210.75z"/>
    <path class="fil4" d="M6040.95 9729.79c-538.29,-2153.38 1381.46,-2350.55 3556.77,-2313.88 -2249,-4.93 -3673.87,545.12 -3556.77,2313.88z"/>
    <path class="fil4" d="M6445.55 9573.78c239.77,-1364.69 1712.01,-1488.27 3183.91,-1110.66 -1458.05,-158.78 -2657.15,27.73 -3183.91,1110.66z"/>
   </g>
   <g>
    <path class="fil11" d="M13211.73 23850.87c0,-215.97 -206.1,-536.21 -581.14,-536.21 -882.17,0 -2494.19,26.76 -3572.39,0 -794.02,-19.69 -793.84,-620.05 -793.84,-955.94 0,-3418 0,-6667.73 0,-10085.73 1649.13,0 3298.25,-0.01 4947.38,-0.01 1649.13,0 3298.25,0.01 4947.38,0.01 0,3418 0,6667.73 0,10085.73 0,335.88 0.18,936.25 -793.84,955.94 -1078.2,26.76 -2690.22,0 -3572.39,0 -375.04,0 -581.14,320.24 -581.14,536.21z"/>
    <g>
     <path class="fil12" d="M17809.29 12622.82c-1532.52,0 -3065.04,-0.01 -4597.56,-0.01 -1532.52,0 -3065.04,0.01 -4597.56,0.01 0,3245.31 0,6490.6 0,9735.91 0,374.68 13.15,595.33 452.7,606.23 1186.71,29.43 2376.62,-0.11 3563.72,-0.11 211.58,0 417.2,75.75 581.14,202.72 163.94,-126.97 369.56,-202.72 581.14,-202.72 1187.1,0 2377.01,29.54 3563.72,0.11 439.55,-10.9 452.7,-231.55 452.7,-606.23 0,-3245.31 0,-6490.6 0,-9735.91z"/>
    </g>
    <path class="fil13" d="M13093.71 15203.9c-120.27,4.34 -212.38,124.35 -343.78,153.38 -155.1,34.27 -316.78,-24.88 -470.71,7.94 -74.64,15.91 -120.72,59.45 -119,126.93 1.21,47.83 55.06,73.57 55.53,119.01 0.67,65.69 -23.56,154.49 55.54,187.75 85.31,35.88 163.95,18.7 203.62,66.12 -45.42,21.79 -95.83,26.06 -140.16,47.59 -77.33,37.56 -4.38,140.88 44.96,113.71 187.86,-103.43 247.09,-108.42 298.82,-18.51 64.07,111.32 209.22,63.07 309.4,142.8 120.42,95.83 -66.17,364.8 -282.95,452.2 -607.54,244.93 -1012.22,456.49 -1131.83,811.84 -79.72,236.82 -53.82,459.58 68.76,637.31 -141.72,202.8 -184.75,477.92 -13.22,721.94 -183.82,9.62 -337.16,160.88 -539.48,185.11 -271.13,32.49 -639.38,-56.09 -806.55,5.29 -335.06,349.82 -751.14,750.89 -1229.67,1023.41 10.04,81.1 44.74,177.4 -5.29,243.28 -82.35,108.48 -102.38,201.29 -129.58,319.98 -15.43,67.32 -117.8,161.59 -100.49,195.69 62.07,122.16 278.67,-37.16 465.42,-179.82 -78.62,-90.51 -125.38,-171.4 -29.08,-208.92 19.39,-36.14 38.78,-72.28 58.17,-108.42 -30.85,-18.51 -72.96,-25.37 -92.55,-55.53 -31.92,-49.17 -26.87,-111.39 79.34,-92.55 48.39,8.59 93.68,34.94 142.79,37.02 27.1,1.14 26.25,-28.29 31.73,-52.89 151.81,-680.36 1369.57,-1231.28 2086.47,-737.8 95.73,65.9 167.5,91.72 238,47.59 80.9,309.04 304.11,538.11 370.22,825.07 74.34,322.71 41.2,654.75 230.07,952.01 284.04,447.05 359.11,848.2 95.2,1134.46 -126.58,137.31 -272.65,236.32 -364.94,388.73 137.58,40.84 281.73,58.06 425.76,18.52 62.73,-17.21 32.82,-83.7 23.8,-169.25 -7.91,-74.89 65.89,-89.25 116.36,-111.06 59.93,-25.91 62.74,-101.9 34.38,-195.7 -34.94,-115.6 89.37,-143.29 187.75,-185.11 -197.2,-433.3 -356.03,-868.63 -407.25,-1346.02 -269.87,-592.7 17.19,-694.25 76.69,-1007.54 929.96,312.92 1272.88,-331.44 1901.37,-330.56 -205.83,496.5 -130.16,958.18 95.2,1422.71 79.56,163.97 16.72,322.3 -108.42,452.2 -245.06,254.37 -438.63,539.34 -613.52,835.65 -72.74,33.05 -129.14,82.42 -145.44,171.89 -174.84,126.3 -307.33,275.66 -404.61,444.27 148.97,7.94 297.94,15.87 446.91,23.81 -68.79,-255.45 30.9,-384.53 272.38,-407.25 258.9,-551.58 536.06,-938.76 827.71,-1134.47 92.43,-62.02 159.14,-155.1 97.85,-235.36 -202.63,-265.3 -238.93,-523.6 15.87,-743.1 183.24,-157.85 327.76,-312.9 386.09,-544.75 399.18,394.65 954.06,596.9 1380.4,909.69 352.23,416.18 661.31,1133.64 568.56,1578.74 -44.99,215.87 -357.88,338.93 -441.63,550.05 144.56,4.41 289.13,8.82 433.69,13.22 66.78,-34.49 20.38,-86.56 0,-169.25 -15.04,-61.05 54.49,-96.34 108.42,-119 -21.16,-174.64 73.85,-246.9 200.97,-290.89 -53.74,-352.59 -204.59,-690.24 -343.78,-1057.78 -60.8,-160.56 -41.44,-327.86 -52.88,-476.01 -301.41,-193.3 -569.51,-444.27 -774.83,-756.31 -83.28,-126.57 -161.05,-290.48 -111.06,-431.04 131,-368.32 276.66,-710.79 108.42,-1150.34 151.63,-106.05 214.94,-205.38 145.44,-288.24 -32.44,-38.68 -208.69,37.15 -277.66,116.35 -354.78,-389.87 -898.79,-386.95 -1634.28,-314.68 -426.32,41.89 -834.28,-162.25 -1242.88,-52.89 -293.53,-33.11 -154.14,-398.34 66.11,-695.49 318.08,-429.16 413.04,-871.06 359.65,-1335.45 211.24,-81.13 422.82,-271.38 319.97,-309.41 -164.24,-60.74 -212.04,148.82 -411.21,5.3 -188.92,-136.14 -446.66,-185.06 -665.08,-177.19z"/>
    <path class="fil8" d="M13213.47 12876.76c-393.22,302.24 -233.81,487.39 -285.6,1190 -16.22,220.08 -255.5,205.2 -423.11,-5.29 -121.18,-152.18 -157.98,-327.91 -185.11,-491.87 -65.56,186.86 -39.36,466.96 79.33,571.21 225.65,198.22 452.57,339.46 486.58,571.2 18.35,124.99 -17.8,154.28 -105.78,132.22 -199.76,-50.08 -318.1,-167.15 -412.53,-306.76 -7.61,118.86 16.24,231.23 137.52,312.05 166.98,111.27 347.73,184.17 544.75,200.98 14.73,51.13 29.46,102.26 44.2,153.39 218.41,-7.88 476.16,41.05 665.08,177.19 2.27,-121.64 69.58,-182.82 189.84,-214.22 446.09,-116.45 651.22,-371.27 846.21,-624.09 277.75,-476.3 426.14,-999.14 174.54,-1666.01 15.14,308.44 82.87,622.16 -58.18,914.98 -209.56,81.56 -296.56,-199.25 -343.78,-597.64 -92.92,283.66 -32.25,560.8 206.27,830.36 -25.37,245.39 -36.08,525.26 -322.63,576.49 -194.41,34.75 -278.65,-267.1 -317.33,-639.95 -75.98,121.36 -93.55,287.43 -26.44,449.55 110.74,267.51 186.93,453.86 42.31,528.89 -143.59,74.5 -288.56,151.05 -433.69,10.58 -130.93,-126.73 -176.73,-297.32 -211.56,-470.71 -46.25,218.36 27.79,425.13 171.9,608.22 -199.23,145.75 -480.72,-17.32 -637.31,-544.75 -93.4,-314.57 11.82,-645.92 237.99,-957.29 183.27,-235.07 384.32,-449.07 645.25,-592.36 -296.18,-46.73 -639.47,455.56 -777.47,438.98 -183.95,-22.11 -73.03,-274.62 68.75,-555.34z"/>
   </g>
  </g>
 </g>
</svg>
