<?xml version="1.0" encoding="UTF-8" standalone="no"?>
<!-- Created with Inkscape (http://www.inkscape.org/) -->

<svg
   width="53.235844mm"
   height="65.475876mm"
   viewBox="0 0 53.235844 65.475876"
   version="1.1"
   id="svg5"
   xml:space="preserve"
   inkscape:version="1.2.1 (9c6d41e410, 2022-07-14)"
   sodipodi:docname="Srednekolymsk.svg"
   xmlns:inkscape="http://www.inkscape.org/namespaces/inkscape"
   xmlns:sodipodi="http://sodipodi.sourceforge.net/DTD/sodipodi-0.dtd"
   xmlns="http://www.w3.org/2000/svg"
   xmlns:svg="http://www.w3.org/2000/svg"><sodipodi:namedview
     id="namedview7"
     pagecolor="#ffffff"
     bordercolor="#000000"
     borderopacity="0.25"
     inkscape:showpageshadow="2"
     inkscape:pageopacity="0.0"
     inkscape:pagecheckerboard="0"
     inkscape:deskcolor="#d1d1d1"
     inkscape:document-units="mm"
     showgrid="false"
     showguides="true"
     inkscape:zoom="2.8284271"
     inkscape:cx="109.42477"
     inkscape:cy="139.12326"
     inkscape:window-width="1920"
     inkscape:window-height="991"
     inkscape:window-x="-9"
     inkscape:window-y="-9"
     inkscape:window-maximized="1"
     inkscape:current-layer="layer1" /><defs
     id="defs2" /><g
     inkscape:label="Слой 1"
     inkscape:groupmode="layer"
     id="layer1"
     transform="translate(-60.45809,-117.85076)"><g
       id="g3421"
       style="fill:#ffffff;fill-opacity:1"><path
         style="fill:#ffffff;fill-opacity:1;stroke:none;stroke-width:0.2;stroke-linecap:butt;stroke-linejoin:miter;stroke-dasharray:none;stroke-opacity:1"
         d="m 113.25009,118.58581 -9.86893,-0.0468 -6.501331,1.77735 8.746401,0.0468 -8.185135,4.44338 8.980265,-2.38539 -6.68843,6.36105 7.76418,-4.72402 -4.44335,7.76423 6.17392,-6.40783 -2.38538,8.27872 4.53691,-7.57713 0.0935,9.30771 1.82411,-7.43681 z"
         id="path3395" /><path
         style="fill:#ffffff;fill-opacity:1;stroke-width:0.26944"
         d="m 91.22287,158.76974 c 1.042232,-0.99781 2.709391,-2.58623 3.704801,-3.52984 1.582829,-1.50045 1.810286,-1.83839 1.813501,-2.6944 0.0023,-0.53831 0.07164,-1.28188 0.154716,-1.65236 0.145781,-0.65012 0.136264,-0.65538 -0.273114,-0.15058 -0.233285,0.28767 -0.424158,0.99376 -0.424158,1.56913 0,0.92624 -0.173856,1.2059 -1.517451,2.44081 -0.834599,0.7671 -1.673222,1.48602 -1.863598,1.5976 -0.386039,0.22627 -1.28785,-1.07375 -1.565515,-2.25678 -0.158253,-0.67427 -0.104693,-0.71483 1.166789,-0.8835 0.732973,-0.0972 1.418484,-0.31564 1.523372,-0.48534 0.318551,-0.51543 0.213182,-2.58385 -0.154182,-3.02649 -0.537034,-0.64709 -0.82269,-0.23867 -0.82269,1.17625 v 1.2965 l -1.672423,0.18921 c -1.876047,0.21225 -3.306714,0.73248 -4.12283,1.49918 -0.541596,0.50881 -0.568504,0.50524 -2.129805,-0.2823 -0.869703,-0.43868 -1.738908,-0.79761 -1.931567,-0.79761 -0.669554,0 -0.651017,-0.49814 0.04952,-1.33068 0.399486,-0.47476 1.712995,-1.31831 3.032999,-1.94783 1.280591,-0.61073 2.604938,-1.29118 2.942996,-1.51212 1.049481,-0.68592 0.448722,-0.66819 -0.924658,0.0272 -2.024357,1.02511 -4.054785,1.53008 -6.152341,1.53008 -1.676514,0 -2.19083,-0.13156 -4.073343,-1.04191 -3.013083,-1.45711 -5.222497,-3.5606 -6.513283,-6.20102 -0.98198,-2.00875 -1.003488,-2.11945 -1.003488,-5.16527 0,-3.07494 0.01273,-3.1384 1.053924,-5.25408 1.297043,-2.63556 3.589131,-4.99206 6.090436,-6.26159 0.960934,-0.48772 1.444033,-0.67064 1.073554,-0.40651 -1.027192,0.73233 -3.502717,3.09431 -3.502717,3.34204 0,0.12058 0.575926,-0.0636 1.279838,-0.40928 0.703911,-0.34568 1.643582,-0.70516 2.088158,-0.79883 0.562107,-0.11844 0.373124,0.0437 -0.620435,0.53228 -2.05182,1.00899 -4.434363,3.31271 -5.195326,5.02344 -0.521092,1.17148 -0.632235,1.88483 -0.640632,4.11178 -0.0091,2.41461 0.06498,2.83681 0.713494,4.06585 0.398011,0.75431 1.180378,1.77247 1.738596,2.26258 1.466738,1.28782 4.133528,2.45453 5.996502,2.62347 1.481988,0.13437 1.617282,0.098 2.040605,-0.54803 0.441129,-0.67325 1.221272,-3.80931 1.221272,-4.90933 0,-0.36066 -0.27564,-0.65133 -0.80832,-0.85238 -0.676054,-0.25519 -0.808154,-0.45223 -0.807312,-1.2042 0.0021,-1.93656 1.721139,-3.45876 3.905869,-3.45876 1.095671,0 2.829118,0.64598 2.829118,1.0543 0,0.28305 1.844105,1.6401 2.228732,1.6401 0.119662,0 0.707035,-0.49935 1.305263,-1.10966 0.95768,-0.97703 1.196915,-1.09196 2.00139,-0.9614 1.441319,0.23389 7.226503,4.29601 9.836283,6.90663 1.82562,1.82621 2.53886,2.77998 3.43609,4.59482 2.6465,5.35308 2.46497,8.79822 -0.63839,12.11596 l -1.26841,1.35603 -8.248394,-0.005 -8.248404,-0.005 1.89497,-1.81419 z m -4.983896,-11.2533 c 0.271098,-0.24535 0.431262,-0.60673 0.35592,-0.80306 -0.106168,-0.27667 -0.450632,-0.21095 -1.531108,0.29211 -0.766767,0.35701 -1.674085,0.6503 -2.016263,0.65175 -0.392077,0.002 -0.552817,0.1148 -0.434672,0.30596 0.271344,0.43904 3.021765,0.10017 3.626123,-0.44676 z m 8.500413,-4.72973 0.99337,-1.0173 -0.707615,-1.20745 c -1.085755,-1.8527 -2.089237,-2.94971 -2.407293,-2.63165 -0.183351,0.18335 0.109914,0.85878 0.898212,2.0687 l 1.170443,1.79647 -0.927939,0.77093 c -1.782334,1.48074 -2.11245,1.37786 -3.668544,-1.14321 -0.909829,-1.47403 -1.705161,-2.04196 -1.705161,-1.2176 0,0.38138 1.837983,3.13885 2.7646,4.14763 l 0.551349,0.60026 1.022608,-0.57475 c 0.56243,-0.31609 1.469616,-1.03251 2.01597,-1.59203 z m -8.268948,-0.6162 c 0.398439,-0.4801 0.09992,-1.24664 -0.485477,-1.24664 -0.725603,0 -1.119446,0.54324 -0.811288,1.11904 0.315183,0.58893 0.868694,0.64338 1.296765,0.1276 z m -2.800775,13.79813 c -0.889152,-0.41953 -1.768199,-0.76315 -1.953438,-0.76362 -0.445038,-7.7e-4 -0.425698,-0.17137 0.125452,-1.10439 0.563285,-0.95356 0.81229,-0.96496 2.491475,-0.11406 1.617685,0.81976 1.709927,0.95957 1.288646,1.95339 l -0.335497,0.79145 z"
         id="path3397" /><path
         id="path3399"
         style="fill:#ffffff;fill-opacity:1;stroke:none;stroke-width:0.599625;stroke-linecap:round;stroke-linejoin:miter;stroke-dasharray:none"
         d="m 61.094462,160.28117 v 14.59859 c 0.894454,2.08865 1.291338,2.33506 2.709912,2.95486 l 20.384746,0.49821 c 1.117766,0.64347 2.48023,3.7368 2.837304,4.71836 0.384908,-0.96628 1.422761,-4.18966 2.664009,-4.70738 l 20.946217,-0.78875 c 1.24864,-0.26842 2.10601,-1.85738 2.44525,-2.69416 l 0.3311,-14.57973 z"
         sodipodi:nodetypes="cccccccccc" /><path
         style="color:#000000;fill:#ffffff;stroke-linecap:round;fill-opacity:1"
         d="m 87.631439,164.31941 -0.443359,0.49218 c -0.669014,0.7426 -1.356936,1.08238 -2.083985,1.09375 -0.727048,0.0114 -1.557577,-0.31614 -2.46875,-1.13671 l -0.417968,-0.37696 -0.404297,0.39258 c -0.850375,0.82976 -1.571012,1.13662 -2.265625,1.12109 -0.694614,-0.0155 -1.453983,-0.37413 -2.316406,-1.14062 l -0.421875,-0.375 -0.400391,0.39844 c -0.775728,0.77264 -1.433264,1.08148 -2.117188,1.08007 -0.683923,-0.001 -1.489656,-0.33707 -2.488281,-1.125 l -0.416015,-0.33007 -0.378907,0.37304 c -0.865092,0.85403 -1.537763,1.165 -2.195312,1.15235 -0.65755,-0.0127 -1.425685,-0.37897 -2.400391,-1.1875 l -0.388672,-0.32227 -0.384765,0.33008 c -0.960388,0.82243 -1.584222,1.18151 -2.078125,1.26953 -0.493903,0.088 -0.984086,-0.0465 -1.81836,-0.45508 -0.298248,-0.14628 -0.658602,-0.0229 -0.804687,0.27539 -0.146279,0.29825 -0.02295,7.53777 0.27539,7.68386 0.911536,0.44643 1.708025,0.71018 2.558594,0.55859 0.715735,-0.12755 1.428945,-0.65814 2.228516,-1.29687 0.940321,0.72025 1.844108,1.20639 2.791015,1.22461 0.927142,0.0178 1.803483,-0.45524 2.667969,-1.20313 0.964512,0.68856 1.89389,1.13285 2.830078,1.13477 0.912047,0.002 1.754303,-0.4465 2.552735,-1.125 0.859856,0.67552 1.742365,1.13925 2.677734,1.16016 0.939095,0.021 1.84973,-0.43155 2.726563,-1.16797 0.940763,0.73477 1.911171,1.185 2.875,1.16992 0.926304,-0.0145 1.768991,-0.47319 2.515625,-1.14258 0.903445,0.82356 1.865643,1.30639 2.830078,1.25977 0.954223,-0.0461 2.086808,-0.49369 2.864942,-1.19901 0.980465,0.81291 1.641782,1.22251 2.576464,1.17166 0.92469,-0.0503 1.739988,-0.55979 2.556641,-1.24218 0.808392,0.65774 1.667636,1.11829 2.599616,1.14648 0.94907,0.0287 1.89152,-0.41715 2.80079,-1.16406 1.05281,0.79257 1.9538,1.28542 2.87307,1.26562 0.90225,-0.0194 1.69187,-0.53393 2.54102,-1.26367 0.41774,0.33788 0.82188,0.68687 1.33595,0.84961 0.68456,0.2167 1.46432,0.21397 2.42384,0.002 0.32412,-0.0718 0.52871,-7.27183 0.45704,-7.59596 -0.0718,-0.32412 -0.39267,-0.52872 -0.71681,-0.45704 -0.83118,0.18366 -1.36093,0.16464 -1.80079,0.0254 -0.43984,-0.13924 -0.83427,-0.41864 -1.33398,-0.87305 l -0.40626,-0.3711 -0.4043,0.37305 c -0.93357,0.85997 -1.54992,1.21817 -2.1211,1.23047 -0.57119,0.0123 -1.31365,-0.32843 -2.47462,-1.25781 l -0.41212,-0.32813 -0.37891,0.36328 c -0.87747,0.83925 -1.63694,1.14254 -2.34571,1.1211 -0.70878,-0.0214 -1.447428,-0.38409 -2.234383,-1.125 l -0.40625,-0.38086 -0.412109,0.375 c -0.866945,0.79132 -1.563957,1.19364 -2.205078,1.22851 -0.641121,0.0349 -1.376142,-0.26479 -2.396485,-1.22265 l -0.4375,-0.41016 -0.410156,0.43555 c -0.737458,0.78108 -1.483513,1.18843 -2.191406,1.22265 -0.707893,0.0342 -1.469922,-0.27324 -2.330078,-1.21484 z"
         id="path3401"
         sodipodi:nodetypes="csscccscccccccccccscccscccccscscscscscscscccscccscccccccscccscc" /><path
         style="color:#000000;fill:#ffffff;stroke-linecap:round;fill-opacity:1"
         d="m 87.664062,169.66224 -0.443359,0.49218 c -0.669014,0.7426 -1.358888,1.08043 -2.085937,1.0918 -0.727049,0.0114 -1.555625,-0.31614 -2.466797,-1.13672 l -0.419922,-0.37695 -0.402344,0.39258 c -0.850374,0.82975 -1.572965,1.13662 -2.267578,1.12109 -0.694613,-0.0155 -1.45203,-0.37218 -2.314453,-1.13867 l -0.423828,-0.37695 -0.400391,0.40039 c -0.775727,0.77264 -1.431311,1.08148 -2.115234,1.08007 -0.683924,-0.001 -1.49161,-0.33903 -2.490235,-1.12695 l -0.416015,-0.32812 -0.378907,0.37304 c -0.865092,0.85403 -1.535809,1.16304 -2.193359,1.15039 -0.657549,-0.0127 -1.425685,-0.37701 -2.400391,-1.18554 l -0.390625,-0.32422 -0.384765,0.33008 c -0.960388,0.82243 -1.584222,1.1815 -2.078125,1.26953 -0.493903,0.088 -0.984086,-0.0465 -1.81836,-0.45508 -0.298278,-0.14469 -0.657388,-0.0206 -0.802734,0.27734 -0.144964,0.29776 -0.02183,1.18585 0.275391,1.33191 0.911535,0.44643 1.706071,0.71018 2.55664,0.55859 0.715692,-0.12755 1.429009,-0.65626 2.228516,-1.29492 0.940629,0.72063 1.843824,1.20444 2.791016,1.22266 0.927469,0.0178 1.80514,-0.45279 2.669921,-1.20118 0.963679,0.68753 1.892682,1.1309 2.828125,1.13282 0.912382,0.002 1.756004,-0.44409 2.554688,-1.12305 0.859745,0.67535 1.742495,1.13925 2.677734,1.16016 0.939302,0.021 1.849556,-0.43319 2.726563,-1.16993 0.940764,0.73477 1.911171,1.185 2.875,1.16993 0.926664,-0.0145 1.768796,-0.47076 2.515625,-1.14063 0.902848,0.82224 1.864449,1.30636 2.828125,1.25977 0.95389,-0.0461 1.809959,-0.56073 2.58789,-1.26563 0.980465,0.8129 1.918834,1.28913 2.853516,1.23828 0.924788,-0.0503 1.741856,-0.56163 2.558594,-1.24414 0.808039,0.65714 1.668123,1.11831 2.599613,1.14649 0.94861,0.0287 1.88995,-0.41786 2.79882,-1.16407 1.05281,0.79257 1.95379,1.28738 2.87305,1.26758 0.90214,-0.0194 1.69198,-0.53604 2.54102,-1.26562 0.41772,0.33787 0.82187,0.68687 1.33593,0.84961 0.68455,0.2167 1.46431,0.21592 2.42383,0.004 0.32411,-0.0718 0.5287,-0.92183 0.45703,-1.24596 -0.0718,-0.32411 -0.39266,-0.52871 -0.71679,-0.45704 -0.83119,0.18366 -1.36094,0.16268 -1.80078,0.0234 -0.43985,-0.13924 -0.83232,-0.41863 -1.33204,-0.87305 l -0.4082,-0.37109 -0.4043,0.37305 c -0.93356,0.85996 -1.54991,1.21817 -2.12109,1.23047 -0.57118,0.0123 -1.31363,-0.32843 -2.47461,-1.25782 l -0.41015,-0.32812 -0.38086,0.36328 c -0.87747,0.83925 -1.63694,1.14253 -2.34571,1.12109 -0.70876,-0.0214 -1.447417,-0.38213 -2.234373,-1.12304 l -0.404296,-0.38282 -0.41211,0.375 c -0.866945,0.79132 -1.56591,1.19364 -2.207031,1.22852 -0.641121,0.0349 -1.374189,-0.26479 -2.394531,-1.22266 l -0.4375,-0.41015 -0.41211,0.43554 c -0.737458,0.78108 -1.483513,1.19039 -2.191406,1.22461 -0.707893,0.0342 -1.467968,-0.27519 -2.328125,-1.21679 z"
         id="path3403"
         sodipodi:nodetypes="cssccsscccccccccccscccscccccscscscscscscscccccccscccscccscccscc" /><path
         style="fill:#ffffff;fill-opacity:1;stroke:#0051a4;stroke-width:1.20241;stroke-linecap:round;stroke-linejoin:miter;stroke-dasharray:none;stroke-opacity:1"
         d="m 61.648413,167.68346 c 1.745811,0.85502 2.572681,0.79537 4.551025,-0.89879 2.04839,1.69916 3.545846,1.83187 5.401442,0 2.111993,1.66638 3.713978,1.68076 5.401443,0 1.847907,1.64235 3.55541,1.80127 5.401442,0 1.976168,1.77968 3.901378,1.66506 5.401444,0 1.880289,2.05832 3.791884,1.70476 5.401442,0 2.164288,2.03176 3.601536,1.65879 5.418858,0 1.707081,1.60721 3.499181,1.82497 5.407261,0 2.39936,1.92074 3.44324,1.78243 5.37822,0 1.04909,0.95399 1.87798,1.38672 3.66869,0.99105"
         id="path3405"
         sodipodi:nodetypes="ccccccccccc" /><path
         style="fill:#ffffff;fill-opacity:1;stroke:none;stroke-width:0.2;stroke-linecap:butt;stroke-linejoin:miter;stroke-dasharray:none;stroke-opacity:1"
         d="m 64.40016,160.31703 1.158543,-4.99408 1.091063,5.00129 z"
         id="path3407"
         sodipodi:nodetypes="cccc" /><path
         style="fill:#ffffff;fill-opacity:1;stroke:none;stroke-width:0.2;stroke-linecap:butt;stroke-linejoin:miter;stroke-dasharray:none;stroke-opacity:1"
         d="m 64.40016,155.5545 1.158543,-4.99408 1.091063,5.00129 z"
         id="path3409"
         sodipodi:nodetypes="cccc" /><path
         style="fill:#ffffff;fill-opacity:1;stroke:none;stroke-width:0.2;stroke-linecap:butt;stroke-linejoin:miter;stroke-dasharray:none;stroke-opacity:1"
         d="m 64.40016,150.79197 1.158543,-4.99408 1.091063,5.00129 z"
         id="path3411"
         sodipodi:nodetypes="cccc" /><path
         style="fill:#ffffff;fill-opacity:1;stroke:none;stroke-width:0.2;stroke-linecap:butt;stroke-linejoin:miter;stroke-dasharray:none;stroke-opacity:1"
         d="m 67.882161,160.32872 1.158543,-4.99408 1.091063,5.00129 z"
         id="path3413"
         sodipodi:nodetypes="cccc" /><path
         style="fill:#ffffff;fill-opacity:1;stroke:none;stroke-width:0.2;stroke-linecap:butt;stroke-linejoin:miter;stroke-dasharray:none;stroke-opacity:1"
         d="m 67.882161,155.56619 1.158543,-4.99408 1.091063,5.00129 z"
         id="path3415"
         sodipodi:nodetypes="cccc" /><path
         style="fill:#ffffff;fill-opacity:1;stroke:none;stroke-width:0.2;stroke-linecap:butt;stroke-linejoin:miter;stroke-dasharray:none;stroke-opacity:1"
         d="m 67.882161,150.80366 1.158543,-4.99408 1.091063,5.00129 z"
         id="path3417"
         sodipodi:nodetypes="cccc" /><path
         style="fill:#ffffff;stroke:#000000;stroke-width:0.665;stroke-dasharray:none;stroke-opacity:1;fill-opacity:1"
         d="m 86.831736,182.19915 c -0.30643,-1.65438 -0.92365,-2.70914 -1.96385,-3.35599 -0.94595,-0.58825 -1.14995,-0.60196 -10.88589,-0.73178 -9.40248,-0.12536 -9.9703,-0.16074 -10.84702,-0.67576 -1.27615,-0.74967 -2.05324,-2.0091 -2.24414,-3.63707 -0.18729,-19.67421 -0.0658,-34.65877 -0.006,-55.61529 h 26.19376 26.193744 l 0.0674,27.64315 c 0.0585,23.98681 0.0146,27.82463 -0.33146,29.01512 -0.45411,1.56205 -1.45897,2.56973 -2.98528,2.99363 -0.58816,0.16334 -4.62717,0.27387 -10.040597,0.27475 -7.714417,10e-4 -9.214767,0.0647 -10.123727,0.42844 -1.302,0.52096 -2.00158,1.45462 -2.47447,3.30246 l -0.35916,1.40339 z"
         id="path3419"
         sodipodi:nodetypes="csssccccscsccscc" /></g><g
       id="g1179"><path
         style="fill:#ed1c24;fill-opacity:1;stroke:none;stroke-width:0.2;stroke-linecap:butt;stroke-linejoin:miter;stroke-dasharray:none;stroke-opacity:1"
         d="m 113.25009,118.58581 -9.86893,-0.0468 -6.501331,1.77735 8.746401,0.0468 -8.185135,4.44338 8.980265,-2.38539 -6.68843,6.36105 7.76418,-4.72402 -4.44335,7.76423 6.17392,-6.40783 -2.38538,8.27872 4.53691,-7.57713 0.0935,9.30771 1.82411,-7.43681 z"
         id="path9435" /><path
         style="fill:#ed1c24;fill-opacity:1;stroke-width:0.26944"
         d="m 91.22287,158.76974 c 1.042232,-0.99781 2.709391,-2.58623 3.704801,-3.52984 1.582829,-1.50045 1.810286,-1.83839 1.813501,-2.6944 0.0023,-0.53831 0.07164,-1.28188 0.154716,-1.65236 0.145781,-0.65012 0.136264,-0.65538 -0.273114,-0.15058 -0.233285,0.28767 -0.424158,0.99376 -0.424158,1.56913 0,0.92624 -0.173856,1.2059 -1.517451,2.44081 -0.834599,0.7671 -1.673222,1.48602 -1.863598,1.5976 -0.386039,0.22627 -1.28785,-1.07375 -1.565515,-2.25678 -0.158253,-0.67427 -0.104693,-0.71483 1.166789,-0.8835 0.732973,-0.0972 1.418484,-0.31564 1.523372,-0.48534 0.318551,-0.51543 0.213182,-2.58385 -0.154182,-3.02649 -0.537034,-0.64709 -0.82269,-0.23867 -0.82269,1.17625 v 1.2965 l -1.672423,0.18921 c -1.876047,0.21225 -3.306714,0.73248 -4.12283,1.49918 -0.541596,0.50881 -0.568504,0.50524 -2.129805,-0.2823 -0.869703,-0.43868 -1.738908,-0.79761 -1.931567,-0.79761 -0.669554,0 -0.651017,-0.49814 0.04952,-1.33068 0.399486,-0.47476 1.712995,-1.31831 3.032999,-1.94783 1.280591,-0.61073 2.604938,-1.29118 2.942996,-1.51212 1.049481,-0.68592 0.448722,-0.66819 -0.924658,0.0272 -2.024357,1.02511 -4.054785,1.53008 -6.152341,1.53008 -1.676514,0 -2.19083,-0.13156 -4.073343,-1.04191 -3.013083,-1.45711 -5.222497,-3.5606 -6.513283,-6.20102 -0.98198,-2.00875 -1.003488,-2.11945 -1.003488,-5.16527 0,-3.07494 0.01273,-3.1384 1.053924,-5.25408 1.297043,-2.63556 3.589131,-4.99206 6.090436,-6.26159 0.960934,-0.48772 1.444033,-0.67064 1.073554,-0.40651 -1.027192,0.73233 -3.502717,3.09431 -3.502717,3.34204 0,0.12058 0.575926,-0.0636 1.279838,-0.40928 0.703911,-0.34568 1.643582,-0.70516 2.088158,-0.79883 0.562107,-0.11844 0.373124,0.0437 -0.620435,0.53228 -2.05182,1.00899 -4.434363,3.31271 -5.195326,5.02344 -0.521092,1.17148 -0.632235,1.88483 -0.640632,4.11178 -0.0091,2.41461 0.06498,2.83681 0.713494,4.06585 0.398011,0.75431 1.180378,1.77247 1.738596,2.26258 1.466738,1.28782 4.133528,2.45453 5.996502,2.62347 1.481988,0.13437 1.617282,0.098 2.040605,-0.54803 0.441129,-0.67325 1.221272,-3.80931 1.221272,-4.90933 0,-0.36066 -0.27564,-0.65133 -0.80832,-0.85238 -0.676054,-0.25519 -0.808154,-0.45223 -0.807312,-1.2042 0.0021,-1.93656 1.721139,-3.45876 3.905869,-3.45876 1.095671,0 2.829118,0.64598 2.829118,1.0543 0,0.28305 1.844105,1.6401 2.228732,1.6401 0.119662,0 0.707035,-0.49935 1.305263,-1.10966 0.95768,-0.97703 1.196915,-1.09196 2.00139,-0.9614 1.441319,0.23389 7.226503,4.29601 9.836283,6.90663 1.82562,1.82621 2.53886,2.77998 3.43609,4.59482 2.6465,5.35308 2.46497,8.79822 -0.63839,12.11596 l -1.26841,1.35603 -8.248394,-0.005 -8.248404,-0.005 1.89497,-1.81419 z m -4.983896,-11.2533 c 0.271098,-0.24535 0.431262,-0.60673 0.35592,-0.80306 -0.106168,-0.27667 -0.450632,-0.21095 -1.531108,0.29211 -0.766767,0.35701 -1.674085,0.6503 -2.016263,0.65175 -0.392077,0.002 -0.552817,0.1148 -0.434672,0.30596 0.271344,0.43904 3.021765,0.10017 3.626123,-0.44676 z m 8.500413,-4.72973 0.99337,-1.0173 -0.707615,-1.20745 c -1.085755,-1.8527 -2.089237,-2.94971 -2.407293,-2.63165 -0.183351,0.18335 0.109914,0.85878 0.898212,2.0687 l 1.170443,1.79647 -0.927939,0.77093 c -1.782334,1.48074 -2.11245,1.37786 -3.668544,-1.14321 -0.909829,-1.47403 -1.705161,-2.04196 -1.705161,-1.2176 0,0.38138 1.837983,3.13885 2.7646,4.14763 l 0.551349,0.60026 1.022608,-0.57475 c 0.56243,-0.31609 1.469616,-1.03251 2.01597,-1.59203 z m -8.268948,-0.6162 c 0.398439,-0.4801 0.09992,-1.24664 -0.485477,-1.24664 -0.725603,0 -1.119446,0.54324 -0.811288,1.11904 0.315183,0.58893 0.868694,0.64338 1.296765,0.1276 z m -2.800775,13.79813 c -0.889152,-0.41953 -1.768199,-0.76315 -1.953438,-0.76362 -0.445038,-7.7e-4 -0.425698,-0.17137 0.125452,-1.10439 0.563285,-0.95356 0.81229,-0.96496 2.491475,-0.11406 1.617685,0.81976 1.709927,0.95957 1.288646,1.95339 l -0.335497,0.79145 z"
         id="path248" /><path
         id="rect5909"
         style="fill:#00a651;fill-opacity:1;stroke:none;stroke-width:0.599625;stroke-linecap:round;stroke-linejoin:miter;stroke-dasharray:none"
         d="m 61.094462,160.28117 v 14.59859 c 0.894454,2.08865 1.291338,2.33506 2.709912,2.95486 l 20.384746,0.49821 c 1.117766,0.64347 2.48023,3.7368 2.837304,4.71836 0.384908,-0.96628 1.422761,-4.18966 2.664009,-4.70738 l 20.946217,-0.78875 c 1.24864,-0.26842 2.10601,-1.85738 2.44525,-2.69416 l 0.3311,-14.57973 z"
         sodipodi:nodetypes="cccccccccc" /><path
         style="color:#000000;fill:#ffffff;stroke-linecap:round"
         d="m 87.631439,164.31941 -0.443359,0.49218 c -0.669014,0.7426 -1.356936,1.08238 -2.083985,1.09375 -0.727048,0.0114 -1.557577,-0.31614 -2.46875,-1.13671 l -0.417968,-0.37696 -0.404297,0.39258 c -0.850375,0.82976 -1.571012,1.13662 -2.265625,1.12109 -0.694614,-0.0155 -1.453983,-0.37413 -2.316406,-1.14062 l -0.421875,-0.375 -0.400391,0.39844 c -0.775728,0.77264 -1.433264,1.08148 -2.117188,1.08007 -0.683923,-0.001 -1.489656,-0.33707 -2.488281,-1.125 l -0.416015,-0.33007 -0.378907,0.37304 c -0.865092,0.85403 -1.537763,1.165 -2.195312,1.15235 -0.65755,-0.0127 -1.425685,-0.37897 -2.400391,-1.1875 l -0.388672,-0.32227 -0.384765,0.33008 c -0.960388,0.82243 -1.584222,1.18151 -2.078125,1.26953 -0.493903,0.088 -0.984086,-0.0465 -1.81836,-0.45508 -0.298248,-0.14628 -0.658602,-0.0229 -0.804687,0.27539 -0.146279,0.29825 -0.02295,7.53777 0.27539,7.68386 0.911536,0.44643 1.708025,0.71018 2.558594,0.55859 0.715735,-0.12755 1.428945,-0.65814 2.228516,-1.29687 0.940321,0.72025 1.844108,1.20639 2.791015,1.22461 0.927142,0.0178 1.803483,-0.45524 2.667969,-1.20313 0.964512,0.68856 1.89389,1.13285 2.830078,1.13477 0.912047,0.002 1.754303,-0.4465 2.552735,-1.125 0.859856,0.67552 1.742365,1.13925 2.677734,1.16016 0.939095,0.021 1.84973,-0.43155 2.726563,-1.16797 0.940763,0.73477 1.911171,1.185 2.875,1.16992 0.926304,-0.0145 1.768991,-0.47319 2.515625,-1.14258 0.903445,0.82356 1.865643,1.30639 2.830078,1.25977 0.954223,-0.0461 2.086808,-0.49369 2.864942,-1.19901 0.980465,0.81291 1.641782,1.22251 2.576464,1.17166 0.92469,-0.0503 1.739988,-0.55979 2.556641,-1.24218 0.808392,0.65774 1.667636,1.11829 2.599616,1.14648 0.94907,0.0287 1.89152,-0.41715 2.80079,-1.16406 1.05281,0.79257 1.9538,1.28542 2.87307,1.26562 0.90225,-0.0194 1.69187,-0.53393 2.54102,-1.26367 0.41774,0.33788 0.82188,0.68687 1.33595,0.84961 0.68456,0.2167 1.46432,0.21397 2.42384,0.002 0.32412,-0.0718 0.52871,-7.27183 0.45704,-7.59596 -0.0718,-0.32412 -0.39267,-0.52872 -0.71681,-0.45704 -0.83118,0.18366 -1.36093,0.16464 -1.80079,0.0254 -0.43984,-0.13924 -0.83427,-0.41864 -1.33398,-0.87305 l -0.40626,-0.3711 -0.4043,0.37305 c -0.93357,0.85997 -1.54992,1.21817 -2.1211,1.23047 -0.57119,0.0123 -1.31365,-0.32843 -2.47462,-1.25781 l -0.41212,-0.32813 -0.37891,0.36328 c -0.87747,0.83925 -1.63694,1.14254 -2.34571,1.1211 -0.70878,-0.0214 -1.447428,-0.38409 -2.234383,-1.125 l -0.40625,-0.38086 -0.412109,0.375 c -0.866945,0.79132 -1.563957,1.19364 -2.205078,1.22851 -0.641121,0.0349 -1.376142,-0.26479 -2.396485,-1.22265 l -0.4375,-0.41016 -0.410156,0.43555 c -0.737458,0.78108 -1.483513,1.18843 -2.191406,1.22265 -0.707893,0.0342 -1.469922,-0.27324 -2.330078,-1.21484 z"
         id="path6742"
         sodipodi:nodetypes="csscccscccccccccccscccscccccscscscscscscscccscccscccccccscccscc" /><path
         style="color:#000000;fill:#0051a4;stroke-linecap:round"
         d="m 87.664062,169.66224 -0.443359,0.49218 c -0.669014,0.7426 -1.358888,1.08043 -2.085937,1.0918 -0.727049,0.0114 -1.555625,-0.31614 -2.466797,-1.13672 l -0.419922,-0.37695 -0.402344,0.39258 c -0.850374,0.82975 -1.572965,1.13662 -2.267578,1.12109 -0.694613,-0.0155 -1.45203,-0.37218 -2.314453,-1.13867 l -0.423828,-0.37695 -0.400391,0.40039 c -0.775727,0.77264 -1.431311,1.08148 -2.115234,1.08007 -0.683924,-0.001 -1.49161,-0.33903 -2.490235,-1.12695 l -0.416015,-0.32812 -0.378907,0.37304 c -0.865092,0.85403 -1.535809,1.16304 -2.193359,1.15039 -0.657549,-0.0127 -1.425685,-0.37701 -2.400391,-1.18554 l -0.390625,-0.32422 -0.384765,0.33008 c -0.960388,0.82243 -1.584222,1.1815 -2.078125,1.26953 -0.493903,0.088 -0.984086,-0.0465 -1.81836,-0.45508 -0.298278,-0.14469 -0.657388,-0.0206 -0.802734,0.27734 -0.144964,0.29776 -0.02183,1.18585 0.275391,1.33191 0.911535,0.44643 1.706071,0.71018 2.55664,0.55859 0.715692,-0.12755 1.429009,-0.65626 2.228516,-1.29492 0.940629,0.72063 1.843824,1.20444 2.791016,1.22266 0.927469,0.0178 1.80514,-0.45279 2.669921,-1.20118 0.963679,0.68753 1.892682,1.1309 2.828125,1.13282 0.912382,0.002 1.756004,-0.44409 2.554688,-1.12305 0.859745,0.67535 1.742495,1.13925 2.677734,1.16016 0.939302,0.021 1.849556,-0.43319 2.726563,-1.16993 0.940764,0.73477 1.911171,1.185 2.875,1.16993 0.926664,-0.0145 1.768796,-0.47076 2.515625,-1.14063 0.902848,0.82224 1.864449,1.30636 2.828125,1.25977 0.95389,-0.0461 1.809959,-0.56073 2.58789,-1.26563 0.980465,0.8129 1.918834,1.28913 2.853516,1.23828 0.924788,-0.0503 1.741856,-0.56163 2.558594,-1.24414 0.808039,0.65714 1.668123,1.11831 2.599613,1.14649 0.94861,0.0287 1.88995,-0.41786 2.79882,-1.16407 1.05281,0.79257 1.95379,1.28738 2.87305,1.26758 0.90214,-0.0194 1.69198,-0.53604 2.54102,-1.26562 0.41772,0.33787 0.82187,0.68687 1.33593,0.84961 0.68455,0.2167 1.46431,0.21592 2.42383,0.004 0.32411,-0.0718 0.5287,-0.92183 0.45703,-1.24596 -0.0718,-0.32411 -0.39266,-0.52871 -0.71679,-0.45704 -0.83119,0.18366 -1.36094,0.16268 -1.80078,0.0234 -0.43985,-0.13924 -0.83232,-0.41863 -1.33204,-0.87305 l -0.4082,-0.37109 -0.4043,0.37305 c -0.93356,0.85996 -1.54991,1.21817 -2.12109,1.23047 -0.57118,0.0123 -1.31363,-0.32843 -2.47461,-1.25782 l -0.41015,-0.32812 -0.38086,0.36328 c -0.87747,0.83925 -1.63694,1.14253 -2.34571,1.12109 -0.70876,-0.0214 -1.447417,-0.38213 -2.234373,-1.12304 l -0.404296,-0.38282 -0.41211,0.375 c -0.866945,0.79132 -1.56591,1.19364 -2.207031,1.22852 -0.641121,0.0349 -1.374189,-0.26479 -2.394531,-1.22266 l -0.4375,-0.41015 -0.41211,0.43554 c -0.737458,0.78108 -1.483513,1.19039 -2.191406,1.22461 -0.707893,0.0342 -1.467968,-0.27519 -2.328125,-1.21679 z"
         id="path6775"
         sodipodi:nodetypes="cssccsscccccccccccscccscccccscscscscscscscccccccscccscccscccscc" /><path
         style="fill:none;fill-opacity:1;stroke:#0051a4;stroke-width:1.20241;stroke-linecap:round;stroke-linejoin:miter;stroke-dasharray:none;stroke-opacity:1"
         d="m 61.648413,167.68346 c 1.745811,0.85502 2.572681,0.79537 4.551025,-0.89879 2.04839,1.69916 3.545846,1.83187 5.401442,0 2.111993,1.66638 3.713978,1.68076 5.401443,0 1.847907,1.64235 3.55541,1.80127 5.401442,0 1.976168,1.77968 3.901378,1.66506 5.401444,0 1.880289,2.05832 3.791884,1.70476 5.401442,0 2.164288,2.03176 3.601536,1.65879 5.418858,0 1.707081,1.60721 3.499181,1.82497 5.407261,0 2.39936,1.92074 3.44324,1.78243 5.37822,0 1.04909,0.95399 1.87798,1.38672 3.66869,0.99105"
         id="path6171"
         sodipodi:nodetypes="ccccccccccc" /><path
         style="fill:#00a651;fill-opacity:1;stroke:none;stroke-width:0.2;stroke-linecap:butt;stroke-linejoin:miter;stroke-dasharray:none;stroke-opacity:1"
         d="m 64.40016,160.31703 1.158543,-4.99408 1.091063,5.00129 z"
         id="path6835"
         sodipodi:nodetypes="cccc" /><path
         style="fill:#00a651;fill-opacity:1;stroke:none;stroke-width:0.2;stroke-linecap:butt;stroke-linejoin:miter;stroke-dasharray:none;stroke-opacity:1"
         d="m 64.40016,155.5545 1.158543,-4.99408 1.091063,5.00129 z"
         id="path7225"
         sodipodi:nodetypes="cccc" /><path
         style="fill:#00a651;fill-opacity:1;stroke:none;stroke-width:0.2;stroke-linecap:butt;stroke-linejoin:miter;stroke-dasharray:none;stroke-opacity:1"
         d="m 64.40016,150.79197 1.158543,-4.99408 1.091063,5.00129 z"
         id="path7227"
         sodipodi:nodetypes="cccc" /><path
         style="fill:#00a651;fill-opacity:1;stroke:none;stroke-width:0.2;stroke-linecap:butt;stroke-linejoin:miter;stroke-dasharray:none;stroke-opacity:1"
         d="m 67.882161,160.32872 1.158543,-4.99408 1.091063,5.00129 z"
         id="path7229"
         sodipodi:nodetypes="cccc" /><path
         style="fill:#00a651;fill-opacity:1;stroke:none;stroke-width:0.2;stroke-linecap:butt;stroke-linejoin:miter;stroke-dasharray:none;stroke-opacity:1"
         d="m 67.882161,155.56619 1.158543,-4.99408 1.091063,5.00129 z"
         id="path7231"
         sodipodi:nodetypes="cccc" /><path
         style="fill:#00a651;fill-opacity:1;stroke:none;stroke-width:0.2;stroke-linecap:butt;stroke-linejoin:miter;stroke-dasharray:none;stroke-opacity:1"
         d="m 67.882161,150.80366 1.158543,-4.99408 1.091063,5.00129 z"
         id="path7233"
         sodipodi:nodetypes="cccc" /><path
         style="fill:none;stroke:#000000;stroke-width:0.665;stroke-dasharray:none;stroke-opacity:1"
         d="m 86.831736,182.19915 c -0.30643,-1.65438 -0.92365,-2.70914 -1.96385,-3.35599 -0.94595,-0.58825 -1.14995,-0.60196 -10.88589,-0.73178 -9.40248,-0.12536 -9.9703,-0.16074 -10.84702,-0.67576 -1.27615,-0.74967 -2.05324,-2.0091 -2.24414,-3.63707 -0.18729,-19.67421 -0.0658,-34.65877 -0.006,-55.61529 h 26.19376 26.193744 l 0.0674,27.64315 c 0.0585,23.98681 0.0146,27.82463 -0.33146,29.01512 -0.45411,1.56205 -1.45897,2.56973 -2.98528,2.99363 -0.58816,0.16334 -4.62717,0.27387 -10.040597,0.27475 -7.714417,10e-4 -9.214767,0.0647 -10.123727,0.42844 -1.302,0.52096 -2.00158,1.45462 -2.47447,3.30246 l -0.35916,1.40339 z"
         id="path305"
         sodipodi:nodetypes="csssccccscsccscc" /></g></g></svg>
