<?xml version="1.0" encoding="UTF-8" standalone="no"?>
<!-- Created with Inkscape (http://www.inkscape.org/) -->

<svg
   width="295.55991mm"
   height="392.3157mm"
   viewBox="0 0 295.55991 392.3157"
   version="1.1"
   id="svg1"
   xml:space="preserve"
   xmlns:xlink="http://www.w3.org/1999/xlink"
   xmlns="http://www.w3.org/2000/svg"
   xmlns:svg="http://www.w3.org/2000/svg"><defs
     id="defs1"><linearGradient
       id="linearGradient66"><stop
         style="stop-color:#001515;stop-opacity:1;"
         offset="0"
         id="stop65" /><stop
         style="stop-color:#48a3a3;stop-opacity:1;"
         offset="1"
         id="stop66" /></linearGradient><linearGradient
       xlink:href="#linearGradient66"
       id="linearGradient139"
       x1="212.2869"
       y1="96.457543"
       x2="219.87225"
       y2="96.457543"
       gradientUnits="userSpaceOnUse"
       gradientTransform="translate(-340.39665)" /><linearGradient
       xlink:href="#linearGradient66"
       id="linearGradient140"
       x1="-255.49643"
       y1="96.457542"
       x2="-247.91107"
       y2="96.457542"
       gradientUnits="userSpaceOnUse"
       gradientTransform="translate(340.39665)" /><linearGradient
       xlink:href="#linearGradient66"
       id="linearGradient157"
       x1="-236.8548"
       y1="-28.523582"
       x2="-213.22006"
       y2="-28.523582"
       gradientUnits="userSpaceOnUse"
       gradientTransform="translate(340.39665)" /><linearGradient
       xlink:href="#linearGradient66"
       id="linearGradient5"
       x1="-219.17383"
       y1="-10.399416"
       x2="-217.17383"
       y2="-10.399416"
       gradientUnits="userSpaceOnUse"
       gradientTransform="matrix(1,0,0,0.65158689,95.95101,-2.7553234)" /><linearGradient
       xlink:href="#linearGradient66"
       id="linearGradient6"
       gradientUnits="userSpaceOnUse"
       gradientTransform="matrix(1,0,0,0.65158689,308.961,-2.7553234)"
       x1="-219.17383"
       y1="-10.399416"
       x2="-217.17383"
       y2="-10.399416" /><linearGradient
       xlink:href="#linearGradient66"
       id="linearGradient38"
       x1="-233.89062"
       y1="-39.847702"
       x2="-231.89258"
       y2="-39.847702"
       gradientUnits="userSpaceOnUse"
       gradientTransform="matrix(-1.000523,0,0,1.0265825,-125.50881,-0.09076093)" /></defs><g
     id="layer1"
     transform="translate(41.275,107.15625)"><path
       id="path1"
       style="display:inline;fill:#009fe2;fill-opacity:1;stroke:none;stroke-width:2;stroke-linecap:square;stroke-linejoin:miter;stroke-dasharray:none;paint-order:fill markers stroke"
       d="m -40.274951,-106.15625 -1.1e-4,342.39919 c -4e-6,13.50801 10.950459,24.47866 24.458455,24.45846 l 97.85656,-0.14624 c 13.505619,-0.0203 24.464946,10.92233 24.465176,24.42796 v 0.17622 c 0.002,-13.50962 10.95503,-24.45984 24.46465,-24.45794 h 97.85036 c 13.51138,0 24.46466,-10.95328 24.46466,-24.46466 l 1.1e-4,-342.39299 z" /><circle
       style="fill:#ffdb31;fill-opacity:1;stroke:none;stroke-width:2.00001;stroke-linecap:round;stroke-linejoin:round;stroke-dasharray:none;stroke-opacity:1;paint-order:markers stroke fill"
       id="path25"
       cx="106.50499"
       cy="-8.4684086"
       r="9.2338247" /><path
       id="path129"
       style="color:#000000;fill:#454545;stroke:none;-inkscape-stroke:none;paint-order:markers stroke fill"
       d="M 106.50461 -49.637797 C 104.00593 -49.637964 101.9595 -47.591519 101.95967 -45.092855 L 101.95967 -45.090788 C 101.96267 -43.818425 102.58436 -42.686287 103.50428 -41.835173 L 103.50634 -36.467542 C 95.594182 -35.562449 88.862108 -31.164769 86.006637 -24.959717 C 84.284953 -24.547855 83.082267 -22.811209 83.082267 -20.876762 C 83.082267 -18.659387 84.662388 -16.703373 86.793152 -16.703373 L 88.787345 -16.703373 L 88.787345 -9.1699829 L 78.724394 -9.1699829 L 78.722843 -9.1699829 C 77.629928 -9.1698081 76.724127 -8.2630244 76.724516 -7.170105 L 76.724516 13.609505 C 76.724381 13.683021 76.732353 13.756328 76.748287 13.828097 C 76.754787 13.857193 76.763621 13.885449 76.771541 13.913879 C 76.926817 15.416025 78.194653 16.597901 79.722782 16.609322 C 79.724682 16.609328 79.726567 16.609328 79.728467 16.609322 L 82.847656 16.609322 L 71.572375 194.88888 L 141.43736 194.88888 L 130.16208 16.609322 L 133.28127 16.609322 C 133.28327 16.609328 133.28547 16.609328 133.28747 16.609322 C 134.81616 16.597902 136.08471 15.415244 136.23923 13.912329 C 136.24723 13.884439 136.25567 13.856623 136.26197 13.828097 C 136.27774 13.75631 136.28551 13.683004 136.28522 13.609505 L 136.28522 -7.170105 C 136.28561 -8.2630244 135.38033 -9.1698081 134.28741 -9.1699829 L 124.22291 -9.1699829 L 124.22291 -16.703373 L 126.21659 -16.703373 C 128.34733 -16.703373 129.92799 -18.659387 129.92799 -20.876762 C 129.92799 -22.796025 128.74294 -24.519144 127.04289 -24.948348 C 124.18633 -31.167735 117.43585 -35.572743 109.50649 -36.470642 L 109.50443 -41.835173 C 110.42489 -42.68627 111.04835 -43.818018 111.0511 -45.090788 L 111.0511 -45.092855 C 111.05127 -47.591519 109.00328 -49.637964 106.50461 -49.637797 z M 94.786979 -16.703373 L 118.22276 -16.703373 L 118.22276 -9.1699829 L 94.786979 -9.1699829 L 94.786979 -16.703373 z M 80.724788 -5.1697103 L 83.331864 -5.1697103 L 83.331864 8.955009 L 83.227478 10.609172 L 80.722721 10.609172 L 80.724788 -5.1697103 z M 87.332137 -5.1697103 L 88.787345 -5.1697103 L 88.787345 -2.3595459 L 87.332137 -2.3595459 L 87.332137 -5.1697103 z M 95.800871 -5.1697103 L 100.2714 -5.1697103 L 100.2714 -2.3595459 L 95.800871 -2.3595459 L 95.800871 -5.1697103 z M 104.27167 -5.1697103 L 108.73807 -5.1697103 L 108.73807 -2.3595459 L 104.27167 -2.3595459 L 104.27167 -5.1697103 z M 112.73834 -5.1697103 L 117.20887 -5.1697103 L 117.20887 -2.3595459 L 112.73834 -2.3595459 L 112.73834 -5.1697103 z M 124.22291 -5.1697103 L 125.6776 -5.1697103 L 125.6776 -2.3595459 L 124.22291 -2.3595459 L 124.22291 -5.1697103 z M 129.67787 -5.1697103 L 132.28702 -5.1697103 L 132.28702 10.609172 L 129.78278 10.609172 L 129.67787 8.9493245 L 129.67787 -5.1697103 z " /><path
       id="path128"
       style="color:#000000;fill:#9b9b9b;stroke-width:0.999998;-inkscape-stroke:none;paint-order:markers stroke fill"
       d="M 89.787284 -16.703373 L 89.787284 -9.1699829 L 93.78704 -9.1699829 L 93.78704 -16.703373 L 89.787284 -16.703373 z M 119.2227 -16.703373 L 119.2227 -9.1699829 L 123.22297 -9.1699829 L 123.22297 -16.703373 L 119.2227 -16.703373 z M 89.787284 -5.1697103 L 89.787284 -2.3595459 L 91.800598 -2.3595459 L 91.800598 -5.1697103 L 89.787284 -5.1697103 z M 121.20914 -5.1697103 L 121.20914 -2.3595459 L 123.22297 -2.3595459 L 123.22297 -5.1697103 L 121.20914 -5.1697103 z " /><path
       id="rect5"
       style="opacity:0.2;fill:url(#linearGradient6);stroke:none;stroke-width:4;stroke-linejoin:round;paint-order:markers stroke fill"
       d="M 89.787284 -16.703373 L 89.787284 -9.1699829 L 91.787162 -9.1699829 L 91.787162 -16.703373 L 89.787284 -16.703373 z M 89.787284 -5.1697103 L 89.787284 -2.3595459 L 91.787162 -2.3595459 L 91.787162 -5.1697103 L 89.787284 -5.1697103 z " /><path
       id="rect3"
       style="opacity:0.2;fill:url(#linearGradient5);stroke-width:4;stroke-linejoin:round;paint-order:markers stroke fill"
       d="M -121.22257 -16.703373 L -121.22257 -9.1699829 L -123.22297 -9.1699829 L -123.22297 -16.703373 L -121.22257 -16.703373 z M -121.22257 -5.1697103 L -121.22257 -2.3595459 L -123.22297 -2.3595459 L -123.22297 -5.1697103 L -121.22257 -5.1697103 z "
       transform="scale(-1,1)" /><path
       id="path81"
       style="color:#000000;fill:#e6e9ea;stroke-linecap:square;-inkscape-stroke:none;paint-order:markers stroke fill"
       d="M 106.50513 -48.638375 C 104.54694 -48.638506 102.95948 -47.051044 102.95961 -45.092855 C 102.96161 -43.924469 103.54004 -42.832311 104.50473 -42.173136 L 104.5068 -36.678898 L 108.50656 -36.678898 L 108.50449 -42.17262 C 109.46972 -42.831663 110.04812 -43.924092 110.05065 -45.092855 C 110.05078 -47.051044 108.46331 -48.638506 106.50513 -48.638375 z M 106.50616 -35.640719 C 105.68515 -35.638419 104.86502 -35.596659 104.04998 -35.515662 C 103.23473 -35.434682 102.42597 -35.314586 101.62791 -35.155994 C 100.83007 -34.997487 100.04427 -34.800778 99.274561 -34.566882 C 98.504637 -34.332954 97.75214 -34.06222 97.020951 -33.756079 C 96.289896 -33.449986 95.581398 -33.109023 94.899117 -32.734953 C 94.216882 -32.360715 93.562049 -31.954012 92.937996 -31.516939 C 92.313957 -31.079973 91.72176 -30.613393 91.164461 -30.119609 C 90.606986 -29.625905 90.085361 -29.105834 89.602283 -28.562081 C 89.119437 -28.018159 88.675979 -27.451499 88.274198 -26.865027 C 87.872248 -26.2787 87.51265 -25.673563 87.197262 -25.052734 L 125.84503 -25.052734 C 125.52925 -25.674471 125.16913 -26.280475 124.76654 -26.867611 C 124.36415 -27.454655 123.92 -28.021835 123.43639 -28.566215 C 122.95254 -29.110556 122.43005 -29.631147 121.87163 -30.125293 C 121.31337 -30.619506 120.72013 -31.086434 120.095 -31.523657 C 119.46978 -31.960824 118.81373 -32.367529 118.13026 -32.741671 C 117.44681 -33.115842 116.73709 -33.456806 116.00481 -33.762797 C 115.2726 -34.068853 114.51905 -34.339416 113.7481 -34.573083 C 112.97717 -34.806565 112.19016 -35.002757 111.39113 -35.160645 C 110.59199 -35.318639 109.7822 -35.438046 108.96596 -35.518245 C 108.14966 -35.598485 107.32831 -35.639385 106.50616 -35.640719 z M 86.793669 -24.052279 C 85.291234 -24.052279 84.081689 -22.636225 84.081689 -20.877279 C 84.081689 -19.118331 85.291234 -17.702279 86.793669 -17.702279 L 126.21659 -17.702279 C 127.719 -17.702279 128.92856 -19.118331 128.92856 -20.877279 C 128.92856 -22.636225 127.719 -24.052279 126.21659 -24.052279 L 86.793669 -24.052279 z M 78.723877 -8.1700439 C 78.171462 -8.169955 77.723742 -7.7220037 77.723938 -7.1695882 L 77.723938 13.609505 C 77.730138 13.637375 77.737579 13.664958 77.746159 13.692187 C 77.790289 14.757871 78.662932 15.601412 79.7295 15.609383 L 133.28075 15.609383 C 134.34732 15.601383 135.21997 14.757874 135.2641 13.692187 C 135.2731 13.664958 135.28012 13.637365 135.28632 13.609505 L 135.28632 -7.1695882 C 135.28652 -7.7220041 134.8388 -8.1699556 134.28638 -8.1700439 L 78.723877 -8.1700439 z M 79.723816 -6.1696493 L 133.28644 -6.1696493 L 133.28644 11.610144 C 133.28444 11.609968 133.28224 11.609796 133.28024 11.609627 L 79.728984 11.609627 C 79.727084 11.609969 79.725199 11.610348 79.723299 11.610661 L 79.723816 -6.1696493 z M 84.33232 -5.1697103 L 84.33232 10.609172 L 86.332198 10.609172 L 86.332198 -5.1697103 L 84.33232 -5.1697103 z M 92.801054 -5.1697103 L 92.801054 10.609172 L 94.800932 10.609172 L 94.800932 -5.1697103 L 92.801054 -5.1697103 z M 101.27185 -5.1697103 L 101.27185 10.609172 L 103.27173 10.609172 L 103.27173 -5.1697103 L 101.27185 -5.1697103 z M 109.73852 -5.1697103 L 109.73852 10.609172 L 111.7384 10.609172 L 111.7384 -5.1697103 L 109.73852 -5.1697103 z M 118.20932 -5.1697103 L 118.20932 10.609172 L 120.2092 10.609172 L 120.2092 -5.1697103 L 118.20932 -5.1697103 z M 126.67806 -5.1697103 L 126.67806 10.609172 L 128.67793 10.609172 L 128.67793 -5.1697103 L 126.67806 -5.1697103 z M 87.332137 -1.3590902 L 87.332137 10.609172 L 91.800598 10.609172 L 91.800598 -1.3590902 L 87.332137 -1.3590902 z M 95.800871 -1.3590902 L 95.800871 10.609172 L 100.2714 10.609172 L 100.2714 -1.3590902 L 95.800871 -1.3590902 z M 104.27167 -1.3590902 L 104.27167 10.609172 L 108.73807 10.609172 L 108.73807 -1.3590902 L 104.27167 -1.3590902 z M 112.73834 -1.3590902 L 112.73834 10.609172 L 117.20887 10.609172 L 117.20887 -1.3590902 L 112.73834 -1.3590902 z M 121.20914 -1.3590902 L 121.20914 10.609172 L 125.6776 10.609172 L 125.6776 -1.3590902 L 121.20914 -1.3590902 z M 83.849662 16.609322 L 72.63846 193.88946 L 95.503215 193.88946 C 93.665452 192.74513 92.423816 190.73243 92.423816 188.45103 L 92.423816 157.6679 C 91.554839 157.35696 90.844127 156.68131 90.843551 155.71091 C 90.842975 154.47357 91.879584 153.46811 93.109562 153.46867 L 119.90224 153.46867 C 121.13135 153.46938 122.16676 154.47446 122.16619 155.71091 C 122.16561 156.68125 121.45496 157.35902 120.58592 157.66996 L 120.58592 188.45103 C 120.58592 190.73311 119.34275 192.74536 117.50394 193.88946 L 140.37179 193.88946 L 129.16007 16.609322 L 83.849662 16.609322 z M 93.109562 154.46861 A 1.2654611 1.2417629 0 0 0 91.84349 155.71091 A 1.2654611 1.2417629 0 0 0 93.109562 156.95218 L 93.424788 156.95218 L 93.424788 188.45155 C 93.424788 191.42258 95.938312 193.88946 98.966052 193.88946 L 114.038 193.88946 C 117.06577 193.88946 119.58495 191.42258 119.58495 188.45155 L 119.58495 156.95218 L 119.90173 156.95218 A 1.2654611 1.2417629 0 0 0 121.16625 155.71091 A 1.2654611 1.2417629 0 0 0 119.90173 154.46861 L 93.109562 154.46861 z " /><path
       id="path82"
       style="color:#000000;fill:#44080a;stroke-linecap:square;-inkscape-stroke:none;paint-order:markers stroke fill"
       d="m 80.923743,47.038989 -0.06046,0.937411 -2.124935,33.6057 h 55.533042 l -2.1854,-34.543111 z m -4.132565,65.343811 -0.05891,0.93535 -2.124935,33.60777 h 63.797137 l -2.18591,-34.54312 z" /><path
       id="path83"
       style="color:#000000;fill:#ed1c24;stroke-linecap:square;-inkscape-stroke:none;paint-order:markers stroke fill"
       d="m 81.862187,48.039445 -2.057756,32.542716 h 53.401389 l -2.05775,-32.542716 z m -4.132048,65.342785 -2.058272,32.54271 h 61.666523 l -2.05828,-32.54271 z" /><g
       id="path78" /><path
       id="rect132"
       style="opacity:0.19;fill:url(#linearGradient139);fill-opacity:1;stroke:none;stroke-width:1.5015;stroke-linecap:round;stroke-linejoin:round;stroke-dasharray:none;stroke-opacity:1;paint-order:markers stroke fill"
       d="M -120.52459 -1.3618053 L -120.52454 11.632821 L -128.1096 11.632821 L -128.10968 9.0034489 L -128.00699 10.630366 L -126.00711 10.630366 L -126.76401 -1.3618053 L -120.52459 -1.3618053 z M -120.5248 15.640567 L -120.52431 194.2768 L -128.10989 194.2768 L -128.10987 15.640567 L -120.5248 15.640567 z "
       transform="matrix(-1,0,0.06311562,0.99800622,0,0)" /><path
       id="rect131"
       style="opacity:0.2;fill:url(#linearGradient140);fill-opacity:1;stroke:none;stroke-width:1.5015;stroke-linecap:round;stroke-linejoin:round;stroke-dasharray:none;stroke-opacity:1;paint-order:markers stroke fill"
       d="M 86.246247 -1.3618053 L 87.00314 10.630366 L 85.003262 10.630366 L 84.900088 8.995682 L 84.900135 11.632821 L 92.485718 11.632821 L 92.485659 -1.3618053 L 86.246247 -1.3618053 z M 84.899872 15.640567 L 84.900361 194.2768 L 92.485428 194.2768 L 92.485455 15.640567 L 84.899872 15.640567 z "
       transform="matrix(1,0,-0.06311562,0.99800622,0,0)" /><path
       id="path91"
       style="color:#000000;fill:#454545;stroke-linecap:round;stroke-linejoin:round;-inkscape-stroke:none;paint-order:markers stroke fill;fill-opacity:1"
       d="m 86.689282,58.771606 c -1.611429,0 -2.941422,1.327073 -2.941422,2.939356 v 12.195121 c -0.350154,0.223284 -0.624514,0.54757 -0.624768,0.986503 -3.14e-4,0.681417 0.568636,1.251725 1.250053,1.25212 h 10.585917 c 0.681895,3.14e-4 1.250367,-0.570224 1.250053,-1.25212 -2.55e-4,-0.439699 -0.27416,-0.763421 -0.625285,-0.986503 V 61.710962 c 0,-1.611422 -1.327933,-2.939356 -2.939356,-2.939356 z m 0,1.499651 h 5.955192 c 0.781174,0 1.439706,0.658533 1.439706,1.439705 v 12.683463 a 0.750075,0.750075 0 0 0 0.249597,0.250114 h -9.335864 a 0.750075,0.750075 0 0 0 0.250114,-0.250114 V 61.710962 c 0,-0.780311 0.660069,-1.439705 1.441255,-1.439705 z m 16.838248,31.298864 c -1.61142,0 -2.93987,1.328449 -2.93987,2.939872 v 12.195117 c -0.35113,0.22308 -0.624514,0.54836 -0.624769,0.98806 -3.14e-4,0.68189 0.568159,1.25036 1.250049,1.25005 h 10.58592 c 0.68141,-4e-4 1.25036,-0.56863 1.25005,-1.25005 -2.6e-4,-0.43939 -0.27453,-0.7649 -0.62528,-0.98806 V 94.509993 c 0,-1.612284 -1.33,-2.939871 -2.94142,-2.939872 z m 0,1.500167 h 5.95468 c 0.78119,0 1.44177,0.659393 1.44177,1.439705 v 12.683467 a 0.750075,0.750075 0 0 0 0.2496,0.25011 h -9.33587 a 0.750075,0.750075 0 0 0 0.25012,-0.25011 V 94.509993 c 0,-0.781173 0.65853,-1.439705 1.4397,-1.439705 z m 16.83773,31.043062 c -1.61142,0 -2.93935,1.32794 -2.93935,2.93936 v 12.19512 c -0.35112,0.22308 -0.62503,0.54887 -0.62529,0.98857 -3.1e-4,0.68189 0.56817,1.25036 1.25006,1.25005 h 10.58591 c 0.68142,-4e-4 1.25037,-0.56864 1.25006,-1.25005 -2.6e-4,-0.43939 -0.27402,-0.76541 -0.62477,-0.98857 v -12.19512 c 0,-1.61228 -1.33,-2.93936 -2.94143,-2.93936 z m 0,1.50017 h 5.95519 c 0.78119,0 1.44126,0.65888 1.44126,1.43919 v 12.68346 a 0.750075,0.750075 0 0 0 0.25011,0.25012 h -9.33586 a 0.750075,0.750075 0 0 0 0.2496,-0.25012 v -12.68346 c 0,-0.78117 0.65853,-1.43919 1.4397,-1.43919 z" /><path
       id="path92"
       style="color:#000000;fill:#dfe2e3;stroke-linecap:round;stroke-linejoin:round;-inkscape-stroke:none;paint-order:markers stroke fill"
       d="M 86.690316 59.520915 C 85.494007 59.520915 84.498718 60.514146 84.498718 61.710445 L 84.498718 74.393909 L 84.373661 74.393909 A 0.5 0.5 0 0 0 83.87395 74.89362 A 0.5 0.5 0 0 0 84.373661 75.393848 L 94.959578 75.393848 A 0.5 0.5 0 0 0 95.459806 74.89362 A 0.5 0.5 0 0 0 94.959578 74.393909 L 94.835038 74.393909 L 94.835038 61.710445 C 94.835038 60.514146 93.841807 59.520915 92.645508 59.520915 L 86.690316 59.520915 z M 103.5265 92.32098 C 102.3302 92.32098 101.33697 93.314211 101.33697 94.51051 L 101.33697 107.19397 L 101.21243 107.19397 A 0.5 0.5 0 0 0 100.7122 107.69368 A 0.5 0.5 0 0 0 101.21243 108.19391 L 111.79834 108.19391 A 0.5 0.5 0 0 0 112.29806 107.69368 A 0.5 0.5 0 0 0 111.79834 107.19397 L 111.67329 107.19397 L 111.67329 94.51051 C 111.67329 93.314211 110.678 92.32098 109.48169 92.32098 L 103.5265 92.32098 z M 120.36475 124.8637 C 119.16845 124.8637 118.17522 125.85693 118.17522 127.05323 L 118.17522 139.73669 L 118.05068 139.73669 A 0.5 0.5 0 0 0 117.55045 140.2364 A 0.5 0.5 0 0 0 118.05068 140.73663 L 128.63659 140.73663 A 0.5 0.5 0 0 0 129.1363 140.2364 A 0.5 0.5 0 0 0 128.63659 139.73669 L 128.51154 139.73669 L 128.51154 127.05323 C 128.51154 125.85693 127.51625 124.8637 126.31994 124.8637 L 120.36475 124.8637 z " /><g
       id="path151" /><path
       id="path87"
       style="color:#000000;fill:#b8c3c3;stroke-linejoin:round;-inkscape-stroke:none;paint-order:markers stroke fill"
       d="M 86.689282 60.019592 C 85.76133 60.019592 84.997913 60.783011 84.997913 61.710962 L 84.997913 74.365487 L 94.335844 74.365487 L 94.335844 61.710962 C 94.335844 60.783011 93.572426 60.019592 92.644474 60.019592 L 86.689282 60.019592 z M 103.52753 92.820174 C 102.59958 92.820175 101.83616 93.582041 101.83616 94.509993 L 101.83616 107.164 L 111.17358 107.164 L 111.17358 94.509993 C 111.17358 93.582041 110.41017 92.820175 109.48221 92.820174 L 103.52753 92.820174 z M 120.36526 125.36341 C 119.43731 125.36341 118.67596 126.12476 118.67596 127.05271 L 118.67596 139.70723 L 128.01182 139.70723 L 128.01182 127.05271 C 128.01182 126.12476 127.24841 125.36341 126.32045 125.36341 L 120.36526 125.36341 z M 94.954928 157.02556 L 94.954928 188.45103 C 94.954928 190.63612 96.772587 192.40841 98.968636 192.40841 L 114.03903 192.40841 C 116.23509 192.40841 118.05274 190.63612 118.05274 188.45103 L 118.05274 157.02556 L 94.954928 157.02556 z " /><path
       id="path88"
       style="color:#000000;fill:#000000;stroke-linejoin:round;-inkscape-stroke:none;paint-order:markers stroke fill"
       d="M 86.689282 60.51982 C 86.029684 60.51982 85.499174 61.050847 85.499174 61.710445 L 85.499174 74.364453 L 93.835099 74.364453 L 93.835099 61.710445 C 93.835099 61.050847 93.304074 60.51982 92.644474 60.51982 L 86.689282 60.51982 z M 103.52753 93.319885 C 102.86793 93.319885 102.33691 93.850912 102.33691 94.51051 L 102.33691 107.16452 L 110.67335 107.16452 L 110.67335 94.51051 C 110.67335 93.850912 110.14232 93.319885 109.48272 93.319885 L 103.52753 93.319885 z M 120.36526 125.8626 C 119.70566 125.8626 119.17464 126.39363 119.17464 127.05323 L 119.17464 139.70723 L 127.51108 139.70723 L 127.51108 127.05323 C 127.51108 126.39363 126.98005 125.8626 126.32045 125.8626 L 120.36526 125.8626 z M 95.954867 157.02504 L 95.954867 188.45155 C 95.954867 190.08968 97.298725 191.40847 98.968119 191.40847 L 114.04007 191.40847 C 115.70947 191.40847 117.05332 190.08968 117.05332 188.45155 L 117.05332 157.02504 L 95.954867 157.02504 z " /><path
       id="rect37"
       style="opacity:0.2;fill:url(#linearGradient38);stroke-width:4;stroke-linecap:round;stroke-linejoin:round;paint-order:markers stroke fill"
       d="m 106.50499,-48.63838 c 0.0243,7e-5 0.0487,0.0012 0.073,0.0033 0.0242,0.002 0.0484,0.0049 0.0726,0.0089 0.0243,0.0042 0.0484,0.0093 0.0726,0.01555 0.0241,0.006 0.0481,0.01312 0.0721,0.0212 0.024,0.0083 0.0479,0.01753 0.0717,0.0278 0.0237,0.01016 0.0472,0.02131 0.0707,0.03346 0.0235,0.0122 0.047,0.0254 0.0702,0.03959 0.0231,0.01412 0.0461,0.0292 0.0688,0.04524 0.023,0.01599 0.0458,0.03296 0.0683,0.05089 0.0223,0.01807 0.0445,0.03709 0.0665,0.05702 0.0221,0.01981 0.0439,0.04055 0.0655,0.0622 0.0216,0.02171 0.043,0.04434 0.0641,0.06785 0.021,0.02363 0.0418,0.04814 0.0622,0.07351 0.0205,0.02521 0.0409,0.05129 0.0608,0.07822 0.02,0.02697 0.0396,0.05478 0.0589,0.08341 0.0191,0.02858 0.038,0.05796 0.0565,0.08812 0.0187,0.03032 0.0371,0.06142 0.0552,0.0933 0.018,0.03162 0.0356,0.06398 0.0528,0.09707 0.0172,0.03338 0.034,0.06746 0.0504,0.102258 0.0164,0.03466 0.0325,0.07002 0.0481,0.106029 0.0157,0.03596 0.0309,0.07256 0.0457,0.109797 0.0147,0.03741 0.029,0.07543 0.0429,0.11404 0.0139,0.03838 0.0275,0.07735 0.0405,0.116866 0.013,0.03968 0.0256,0.0799 0.0377,0.120636 0.0122,0.04081 0.0241,0.08213 0.0354,0.123935 0.0111,0.04165 0.0219,0.08375 0.032,0.126292 0.0104,0.04261 0.0202,0.08566 0.0297,0.129118 0.009,0.04345 0.018,0.08729 0.0264,0.131474 0.008,0.04428 0.0159,0.0889 0.0231,0.133831 0.007,0.04478 0.0143,0.08988 0.0207,0.135246 0.006,0.04546 0.0121,0.09118 0.0174,0.137129 0.005,0.04582 0.01,0.09185 0.0141,0.138072 0.005,0.04633 0.008,0.09284 0.0109,0.139486 0.004,0.04669 0.005,0.09351 0.008,0.140428 0.002,0.04673 0.004,0.09356 0.005,0.140429 9.1e-4,0.04709 0.002,0.09423 0.002,0.14137 -1.1e-4,0.141052 -0.005,0.281938 -0.0146,0.421756 -0.009,0.139871 -0.0236,0.278396 -0.0424,0.414688 -0.0189,0.136337 -0.0423,0.270141 -0.0702,0.400551 -0.0281,0.130413 -0.0605,0.257133 -0.0971,0.379345 -0.0364,0.12216 -0.0768,0.239591 -0.12111,0.351541 -0.0444,0.112002 -0.0926,0.218258 -0.1442,0.318085 -0.0516,0.09967 -0.10656,0.192705 -0.16446,0.2785 -0.0579,0.08598 -0.11868,0.164529 -0.1819,0.235147 -0.0632,0.07056 -0.12865,0.133057 -0.19603,0.18708 -0.0675,0.05395 -0.13677,0.09929 -0.20735,0.135717 -0.0705,0.0365 -0.14209,0.06405 -0.21441,0.08246 -0.0723,0.01846 -0.14522,0.02775 -0.21818,0.0278 v 0 l 5e-5,5.49365 h 1.99885 v -4.868954 -0.624768 c 0.96543,-0.65893 1.54403,-1.751376 1.54667,-2.920235 1.3e-4,-1.958191 -1.7599,-3.545639 -3.54557,-3.54552 z" /><path
       id="path155"
       style="opacity:0.2;fill:url(#linearGradient157);fill-opacity:1;stroke:none;stroke-width:2.00001;stroke-linecap:round;stroke-linejoin:round;stroke-dasharray:none;stroke-opacity:1;paint-order:markers stroke fill"
       d="M 106.50616 -35.640719 A 20.98891 17.189587 0 0 0 103.542 -35.449516 A 20.98891 17.189587 0 0 1 119.89914 -25.052734 L 125.86002 -25.052734 A 20.98891 17.189587 0 0 0 106.50616 -35.640719 z " /><path
       id="path1470"
       style="fill:#dfe2e3;fill-opacity:1;stroke:none;stroke-width:2;stroke-linecap:butt;stroke-linejoin:miter;stroke-dasharray:none;stroke-opacity:1"
       d="m 131.96712,177.25207 c -5.3336,0.0462 -13.40178,5.80171 -13.40178,5.80171 -5.79475,-3.39823 -29.21671,-3.03525 -32.681692,-1.36064 -2.40732,-3.04631 -13.723283,-3.45561 -20.462816,-0.81959 -13.277031,-7.25578 -15.135524,3.92455 -25.850635,3.29231 -13.78006,-0.81308 -12.529985,3.51454 -20.770311,6.32726 -5.31138,1.81299 -7.75489,7.35392 -15.5670123,6.41356 -7.383473,-0.88875 -5.1351632,9.94041 -35.1456557,8.17677 -2.31261,-0.13591 -5.298144,-0.0985 -8.362278,0.23822 l -3e-5,30.74505 c -1.3e-5,13.508 10.950473,24.47866 24.458457,24.45846 l 97.856551,-0.14624 c 13.505574,-0.0203 24.465212,10.92235 24.465212,24.42796 v 0.17622 c 0,-13.50961 10.955,-24.45984 24.4646,-24.45794 h 97.85037 c 13.51141,0 24.46467,-10.95329 24.46469,-24.46466 l 3e-5,-26.29364 c -37.84897,-14.37062 -36.78342,-3.1707 -47.52114,-8.05015 -19.06469,-8.66344 -18.51716,-1.74203 -27.12189,-4.97024 -4.85178,-1.82025 -17.62651,-4.78881 -15.54893,-10.07071 0.51125,-1.29989 -3.01061,-3.38123 -5.64455,-4.75939 -8.05274,-4.21341 -9.24233,-1.49782 -14.1129,-1.04284 -9.97891,0.9322 -7.81195,-3.65226 -11.36829,-3.62148 z" /><path
       id="path1495"
       style="fill:#b8c3c3;fill-opacity:1;stroke-width:0.264583px"
       d="M 134.98246 179.13635 L 140.22297 183.5366 L 147.47472 183.14179 L 150.50037 181.39513 L 151.99744 180.90059 L 153.85004 180.89542 L 151.42383 179.79781 L 140.42502 181.00084 L 134.98246 179.13635 z M 127.33796 191.10203 L 124.81099 191.66582 C 125.80244 195.01832 127.15863 198.06918 128.96732 201.02287 L 131.76405 200.90712 L 134.96489 199.68032 L 135.61653 197.27013 L 138.97653 197.39519 L 136.72861 196.38543 L 133.26473 197.72023 L 130.62614 197.82668 L 130.884 195.94101 L 132.60534 194.30959 L 133.8554 192.66576 L 134.31635 192.24511 L 133.504 192.53967 L 131.73253 194.1406 L 130.01945 192.08285 L 127.33796 191.10203 z M 118.84598 191.31545 L 121.66906 197.3094 L 121.57501 200.9929 L 109.24501 201.17583 L 113.99614 205.54301 L 128.0418 200.86112 L 125.83005 196.53167 L 118.84598 191.31545 z M 68.787016 193.64606 L 67.107532 194.26101 L 68.839209 195.15243 L 69.121879 197.21225 L 67.824801 201.5076 L 63.74598 204.04801 L 63.606453 207.84158 L 69.136348 207.45245 L 70.550732 210.15358 L 74.213041 211.94469 L 77.290889 211.2083 L 74.265751 209.35363 L 75.771602 208.70612 L 75.140633 208.12631 L 73.162976 207.95837 L 71.385824 206.92587 L 70.279948 205.14717 L 73.249276 202.74576 L 77.827291 200.51179 L 82.035303 201.48021 L 77.175651 198.21477 L 74.103487 198.69898 L 70.560551 202.88994 L 72.076737 198.65919 L 74.257483 193.66518 L 68.787016 193.64606 z M 53.241711 196.72494 L 50.505444 196.9456 L 49.276579 198.65454 L 49.166508 200.41257 L 47.668408 200.99238 L 45.079419 200.18881 L 45.3316 198.48866 L 44.405558 199.17596 L 43.229919 200.81875 L 40.475049 202.36388 L 43.69139 209.54328 L 53.501644 205.78537 L 61.950741 208.19453 L 58.022815 203.15659 L 54.130546 202.24347 L 56.487508 200.73865 L 53.988953 201.01822 L 52.062972 199.49532 L 52.3012 197.56675 L 53.241711 196.72494 z M 170.86296 197.14094 L 166.38674 198.01789 L 165.30671 200.76759 L 169.17365 200.47097 L 169.02017 198.31761 L 170.86296 197.14094 z M 145.41748 197.7347 L 144.24753 199.52787 L 141.28233 200.69163 L 141.62236 201.40838 L 144.68471 200.76604 L 149.36091 199.45914 L 154.19059 199.55474 L 152.21035 198.17808 L 145.41748 197.7347 z M 163.92591 198.6132 L 156.19873 199.78625 L 157.80794 201.01254 L 153.90275 202.17216 L 149.96604 202.56748 L 156.22974 206.51659 L 165.28862 201.0208 L 163.92591 198.6132 z M 88.470052 203.87231 L 77.59423 204.05059 L 88.310372 209.56447 L 95.139929 215.63387 L 96.904679 222.20711 L 102.1948 218.57581 L 103.33168 212.04752 L 107.39965 207.24937 L 101.87854 206.8158 L 98.817741 206.90778 L 100.51324 207.96922 L 100.67448 209.75516 L 96.383264 209.41047 L 95.755396 207.69482 L 96.857137 206.58946 L 95.67323 206.58946 L 93.021712 207.26022 L 91.856925 204.96217 L 88.470052 203.87231 z M -21.4297 205.05415 L -25.339539 205.11048 L -24.414014 206.98788 L -26.873295 209.18671 L -28.556396 209.7474 L -26.187549 209.89985 L -22.461161 208.14957 L -21.4297 205.05415 z M 158.66525 211.6 L 153.17153 212.01187 L 150.83162 213.86757 L 151.38869 219.44552 L 159.83882 231.61584 L 166.91229 237.02998 L 166.93865 237.05375 L 176.00424 241.95526 L 179.9792 243.7877 L 179.09708 243.07767 L 176.53496 234.58465 L 175.25442 230.38904 L 175.98357 227.92562 L 178.58445 230.71253 L 179.20818 232.98423 L 179.61488 231.29493 L 179.44124 226.26888 L 176.67914 223.96049 L 174.71233 226.05804 L 172.15228 229.0253 L 171.34975 225.4927 L 169.19639 224.39302 L 169.84648 225.83324 L 169.16435 229.75238 L 165.20645 227.86103 L 163.26084 223.81373 L 161.95652 222.39728 L 163.89181 220.9431 L 159.4497 219.01919 L 160.16387 216.15063 L 161.69504 215.21942 L 163.30321 216.66636 L 164.23184 214.12285 L 163.40295 212.97201 L 158.66525 211.6 z M 179.9792 243.7877 L 185.09981 247.90993 L 182.40592 244.9065 L 179.9792 243.7877 z M 185.09981 247.90993 L 189.16985 252.44764 L 193.42799 256.76624 L 198.33466 259.91437 L 181.02564 251.26063 L 182.99245 256.6634 L 162.01802 257.20549 L 162.05419 253.58349 L 156.85089 259.32371 L 158.12833 248.46029 L 153.50846 247.00146 L 152.79377 244.78454 L 151.02541 243.88279 L 151.48894 242.66116 L 147.68453 238.43816 L 149.38726 242.15008 L 148.88187 244.39697 L 141.59446 241.53358 L 139.80955 241.38475 L 140.06329 243.27197 L 140.77694 249.03286 L 137.17664 247.71718 L 134.90701 250.671 L 132.10046 248.8153 L 123.74904 247.049 L 122.29486 249.3977 L 118.92091 248.77345 L 115.15731 252.3045 L 115.28134 256.5709 L 110.32608 254.58756 L 107.47044 252.24093 L 108.13552 248.53057 L 110.65319 248.00347 L 108.03578 246.84695 L 103.86808 247.25157 L 99.74585 245.49199 L 99.682288 240.49695 L 97.352197 240.08767 L 98.136646 242.09582 L 97.031803 242.83427 L 95.262402 244.4998 L 95.090837 240.86075 L 92.465674 239.01952 L 91.172729 240.55586 L 92.737492 246.56531 L 102.09093 251.57999 L 106.51598 259.57537 L 117.17424 264.4867 L 130.73207 261.11533 L 156.73462 260.31176 L 156.73514 260.30866 L 200.19657 260.84558 L 199.90304 260.69882 L 213.50325 260.42545 L 213.50893 260.42545 L 230.4278 260.21616 L 236.98812 259.59036 L 237.0031 259.20743 L 244.97678 254.46871 L 249.17911 249.82454 L 252.36651 241.67517 L 253.7194 227.45847 L 252.8502 218.36858 L 249.68398 215.9155 L 251.33246 219.50495 L 251.08545 221.42008 L 243.91638 222.31976 L 237.93225 222.23191 L 234.93398 221.18702 L 229.50227 219.54629 L 231.04326 221.45418 L 235.25437 223.51711 L 240.12074 225.89887 L 241.0318 228.50543 L 235.64091 228.41138 L 224.88601 222.99259 L 230.78643 227.74837 L 238.06195 248.92692 L 237.01137 258.98988 L 237.19741 254.16536 L 234.02241 250.22555 L 232.09178 245.82582 L 228.1406 242.14801 L 230.14151 245.97258 L 230.01283 250.53148 L 232.23544 253.51476 L 227.24763 253.94212 L 229.31675 255.90738 L 222.63447 255.53841 L 222.53267 255.48776 L 218.04044 251.0901 L 218.03837 251.0901 L 212.67694 245.785 L 214.22723 249.07265 L 215.00445 252.82229 L 214.76157 254.94826 L 211.26462 250.67979 L 206.26648 247.60091 L 205.38798 248.00657 L 208.71284 250.81466 L 209.12109 253.58607 L 204.12449 255.17409 L 196.0516 253.08171 L 194.85839 251.8854 L 194.28427 248.94811 L 197.0164 248.66389 L 197.36418 248.90419 L 196.00406 245.73384 L 193.13291 245.21604 L 191.66427 247.59626 L 191.63947 247.63398 L 187.24955 249.64058 L 185.09981 247.90993 z M 90.564498 213.26915 L 86.085701 213.57766 L 83.425916 216.69065 L 85.748254 221.56012 L 90.072021 224.29225 L 88.865377 228.80516 L 86.595231 229.95237 L 84.50802 226.96858 L 83.130843 231.8551 L 86.419014 232.18893 L 86.165283 237.21239 L 83.812455 237.23772 L 80.92581 239.76883 L 81.979492 239.96106 L 85.704846 243.27456 L 91.338611 238.27228 L 95.447404 232.10986 L 95.616903 229.04958 L 101.29253 230.70168 L 107.82959 230.87583 L 111.30122 232.08558 L 112.77296 234.77585 L 112.74867 230.83449 L 114.83072 228.78965 L 118.80825 228.12768 L 115.9645 227.05126 L 109.22021 229.39117 L 102.39582 228.77002 L 99.90863 227.73029 L 97.851392 226.24407 L 100.52875 223.75637 L 98.096855 223.67834 L 95.617936 229.0315 L 96.143486 219.55766 L 90.564498 213.26915 z M -26.576156 213.41798 L -27.861348 216.05658 L -29.824019 216.28137 L -31.154171 219.27809 L -34.666101 219.49616 L -34.904329 223.42461 L -35.89445 225.48908 L -38.318591 222.71871 L -40.199097 220.76379 L -39.710238 232.78269 L -40.031148 232.97958 L -39.151615 241.62504 L -34.27491 252.99696 L -21.978503 260.24665 L -12.945463 260.55309 L -12.66331 255.10639 L -12.195638 252.0797 L -8.5824219 247.05882 L -9.3472331 242.20279 L -6.5029622 241.42557 L -5.4249919 237.54881 L -5.4766683 237.416 L -6.3453491 236.06311 L -6.1236572 237.83199 L -7.6667155 237.7059 L -11.587406 237.88522 L -11.1125 240.09852 L -13.107727 239.17041 L -14.49989 239.38849 L -14.112834 240.55173 L -12.654525 244.41454 L -15.329814 241.45296 L -19.627226 240.4401 L -19.091858 242.25911 L -22.109245 241.97128 L -23.522595 244.2068 L -24.124109 248.21637 L -25.517822 243.52002 L -26.689327 244.38663 L -26.924972 244.27295 L -27.986922 241.69377 L -28.082524 240.54811 L -31.108695 239.71715 L -32.462101 241.09795 L -34.341056 240.95273 L -36.33525 238.93942 L -34.156055 236.368 L -31.747933 227.89978 L -34.248556 229.43354 L -32.04869 227.23626 L -32.025435 227.21455 L -24.669812 221.75959 L -30.623971 220.84492 L -29.414225 219.4295 L -25.832015 219.17008 L -25.378813 215.41011 L -26.576156 213.41798 z M 202.56283 218.74427 L 200.02552 219.74628 L 200.23481 222.36317 L 202.00214 224.81832 L 201.80319 223.5507 L 201.97475 223.30833 L 203.40826 223.04117 L 204.26764 221.541 L 204.66451 221.61335 L 205.03916 224.02715 L 207.0039 224.55839 L 207.10777 224.62091 L 209.14847 226.88693 L 210.93596 228.78345 L 214.70317 230.55285 L 219.95247 228.52714 L 207.25195 218.91015 L 202.56283 218.74427 z M 147.65869 219.67445 L 144.97513 220.31782 L 143.6486 223.51039 L 149.12216 222.32751 L 147.65869 219.67445 z M 32.27865 221.37874 L 30.806388 224.14084 L 26.024251 223.10628 L 22.819279 221.56632 L 22.466329 222.87477 L 20.210136 226.63991 L 27.436051 225.98827 L 32.836755 225.82808 L 33.004187 224.29484 L 34.053735 222.51975 L 32.27865 221.37874 z M 45.147115 221.48467 L 39.977922 221.5658 L 37.083525 224.21991 L 33.165417 225.20176 L 32.304488 226.98356 L 35.488273 227.05177 L 39.784135 225.71284 L 41.230558 227.98143 L 41.233142 227.98247 L 42.154016 229.5617 L 43.235604 227.41971 L 44.795715 226.82957 L 45.257703 228.04138 L 47.531466 230.15443 L 48.382576 228.24757 L 46.783191 225.62757 L 44.757475 225.62395 L 42.144714 224.86689 L 42.814441 223.42512 L 45.147115 221.48467 z M 14.330391 229.941 L 2.7548706 243.76031 L -2.6835571 247.0242 L -2.8122314 251.07718 L -5.2312052 254.13694 L -7.494633 258.0659 L -4.5232381 260.43217 L 47.842041 260.48746 L 47.822404 260.55154 L 89.172335 260.54585 L 89.009554 261.50445 L 99.291097 267.69167 L 106.4643 279.71781 L 112.86753 267.39556 L 111.31207 263.50381 L 108.69362 263.86813 L 101.39795 264.9616 L 97.449349 263.88674 L 97.087097 259.32629 L 94.511027 260.46317 L 93.669218 257.80028 L 89.795553 256.88303 L 89.283439 259.89525 L 87.413786 249.07524 L 81.876656 246.90741 L 75.589185 247.78591 L 72.147534 250.18938 L 68.098686 250.61623 L 69.178723 247.4805 L 62.690747 247.16476 L 63.280375 242.9955 L 68.815438 235.36806 L 63.541341 239.39004 L 59.442883 244.19491 L 56.611015 249.38323 L 50.876998 250.63638 L 47.930408 260.20014 L 45.844747 258.52479 L 37.936186 256.5461 L 39.223962 254.44183 L 28.940869 254.23926 L 24.011454 255.08469 L 18.330147 252.65176 L 13.507703 251.45494 L 11.043254 246.52707 L 13.006441 242.33663 L 16.787089 241.87981 L 16.951937 237.86455 L 20.002913 235.68794 L 20.065442 235.65693 L 22.858553 234.79652 L 18.220076 234.63839 L 14.968079 236.74576 L 14.050822 240.19051 L 12.073165 240.88814 L 14.330391 229.941 z M 20.934639 243.72104 L 18.627287 246.29556 L 19.205029 248.99359 L 22.230168 249.16929 L 20.934639 243.72104 z " /><path
       id="path1444"
       style="color:#000000;fill:#454545;-inkscape-stroke:none"
       d="M 131.96094 176.50189 C 129.02767 176.52729 125.63893 178.04116 122.91033 179.50997 C 120.5688 180.77041 118.99393 181.85179 118.51835 182.18319 C 116.86923 181.35161 114.45944 180.819 111.60352 180.42981 C 108.4963 180.00637 104.89225 179.78354 101.36332 179.72081 C 97.8344 179.65811 94.382195 179.75573 91.577873 179.97454 C 89.153333 180.16375 87.286748 180.38906 86.078467 180.80705 C 85.293089 180.06806 84.164617 179.56717 82.822335 179.18751 C 81.237962 178.73938 79.33694 178.48118 77.304842 178.40255 C 73.364755 178.2501 68.948658 178.77445 65.479724 180.05878 C 62.224141 178.32556 59.572929 177.64753 57.281258 177.66616 C 54.917991 177.68536 52.969366 178.44027 51.187573 179.37096 C 47.623987 181.23235 44.710678 183.7184 39.615153 183.41774 C 32.648358 183.00668 29.303452 183.91795 26.748238 185.31272 C 24.193025 186.70749 22.556451 188.41863 18.558557 189.78325 C 15.715091 190.75384 13.719261 192.66033 11.538831 194.10753 C 9.3583991 195.55474 7.0455961 196.61037 3.3222778 196.16219 C 1.3014715 195.91894 -0.20125406 196.5237 -1.5683797 197.43343 C -2.9355054 198.34317 -4.2433174 199.52592 -6.2306274 200.67406 C -10.205248 202.97032 -16.952795 205.21039 -31.869373 204.33378 C -34.172485 204.19844 -37.105699 204.21205 -40.148454 204.53325 L -39.990324 206.02515 C -37.04413 205.71414 -34.180177 205.70125 -31.957222 205.83188 C -16.863342 206.71891 -9.7301357 204.42796 -5.4802856 201.97268 C -3.3553607 200.74504 -1.9642532 199.4971 -0.73845622 198.68141 C 0.48734082 197.86572 1.4715169 197.44934 3.1424438 197.65047 C 7.2312323 198.14265 10.047116 196.89885 12.369271 195.35758 C 14.691425 193.81632 16.574853 192.04572 19.042765 191.20332 C 23.285188 189.75523 25.141696 187.89794 27.466541 186.62892 C 29.791385 185.3599 32.711991 184.51229 39.525236 184.91429 C 45.144851 185.24588 48.519131 182.45798 51.882621 180.70111 C 53.564368 179.82269 55.23901 179.1825 57.293144 179.16581 C 58.931244 179.15249 60.842516 179.54987 63.190458 180.605 C 62.616361 180.63974 62.031331 180.62399 61.255693 180.69336 C 59.672437 180.83496 57.52717 181.36224 53.713 183.42756 C 49.796382 185.54834 45.931649 188.26224 43.074373 191.16973 C 40.881977 193.40065 39.243082 195.76222 38.73407 198.12331 C 38.250674 197.41171 37.789655 196.79874 37.341907 196.41592 C 36.758398 195.91702 35.932448 195.66255 34.749817 195.32813 C 33.567186 194.99372 32.088492 194.67536 30.49788 194.42793 C 28.907268 194.18051 27.212853 193.99958 25.589653 193.95922 C 23.966452 193.91892 22.415315 194.01847 21.111373 194.33387 C 13.515038 196.17125 6.8972922 202.84824 -2.1580078 206.14246 C -10.07962 209.02422 -16.15049 214.18736 -24.937496 221.66812 C -30.393407 226.31301 -35.773689 228.95879 -40.656433 232.64833 L -39.752096 233.84567 C -35.019992 230.26996 -29.575957 227.58761 -23.964945 222.81069 C -15.178828 215.33068 -9.2575719 210.32154 -1.6464111 207.55271 C 7.7890802 204.12018 14.503363 197.47447 21.462773 195.79115 C 23.6648 195.25852 27.195262 195.43212 30.267403 195.91001 C 31.803474 196.14895 33.234101 196.4583 34.341573 196.77145 C 35.449045 197.08461 36.295572 197.4951 36.367289 197.55642 C 36.687131 197.82988 37.298853 198.60674 37.933602 199.60952 C 38.56835 200.61231 39.260014 201.85541 39.89834 203.15246 C 41.174992 205.74657 42.221403 208.63932 42.283207 210.00785 C 42.277707 209.88519 42.219533 210.16657 41.898218 210.51738 C 41.5769 210.86819 41.085467 211.3039 40.541195 211.76537 C 39.452649 212.68833 38.160812 213.69229 37.404435 214.78896 C 34.954808 218.341 34.062694 222.14851 31.97841 225.26945 C 32.01508 225.21455 31.994928 225.27175 31.789274 225.31855 C 31.58362 225.36515 31.243084 225.38973 30.826025 225.38263 C 29.991907 225.36863 28.850743 225.23719 27.613302 225.11339 C 25.138419 224.86579 22.268172 224.58828 20.146574 225.65806 C 9.8568851 230.84636 -1.7046764 245.11311 -3.9821859 260.04459 L -2.5001058 260.27145 C -1.8596336 256.07248 -0.40668229 251.90138 1.5497762 247.96988 C 2.6501765 252.38475 4.3045013 256.85823 11.255644 261.19543 L 12.048877 259.92367 C 4.6931801 255.33403 3.8212988 251.11359 2.6758057 246.24802 L 2.4148397 246.30951 C 7.1715614 237.56714 14.377103 230.24794 20.822502 226.99803 C 22.311533 226.24721 25.022995 226.36305 27.46499 226.60736 C 28.685988 226.72952 29.837614 226.86662 30.800704 226.88279 C 31.282249 226.89079 31.716868 226.87307 32.121037 226.78151 C 32.525204 226.69001 32.94945 226.51585 33.224845 226.10351 C 35.50296 222.69232 36.384121 218.90947 38.638468 215.64058 C 39.160805 214.88326 40.400796 213.85035 41.511678 212.90845 C 42.067119 212.43751 42.591988 211.98289 43.005644 211.53127 C 43.309342 211.1997 43.600201 210.87596 43.722396 210.44865 C 44.109375 210.22771 45.412234 209.49221 47.279285 208.63481 C 49.448371 207.6387 52.120874 206.66933 53.777596 206.64837 C 55.974737 206.62057 57.611926 207.19312 58.884778 207.78112 C 59.521203 208.07512 60.063076 208.37386 60.552893 208.61156 C 61.042712 208.84926 61.474378 209.0729 62.05461 209.02755 C 63.620471 208.90519 64.6794 207.77608 66.53134 206.83595 C 68.383279 205.89582 71.005403 205.00222 75.42382 205.1172 C 79.075412 205.2122 83.535358 207.21971 87.283044 209.66989 C 91.030732 212.12007 94.110855 215.08017 94.996269 216.5935 C 95.2048 216.94989 95.465499 218.02627 95.570394 219.39436 C 95.67529 220.76245 95.672223 222.45168 95.56626 224.21681 C 95.354324 227.74705 94.715097 231.61299 93.82218 233.85963 C 92.964096 236.01871 90.697502 238.00489 88.562553 239.55644 C 87.495078 240.33221 86.469282 241.0028 85.671773 241.5744 C 85.273019 241.8602 84.931932 242.11927 84.654264 242.37694 C 84.376596 242.63461 84.112629 242.85518 84.021745 243.34742 C 83.705189 245.06158 83.895227 246.1575 84.43774 246.92188 C 84.980254 247.68627 85.632714 248.01582 86.185437 248.6365 C 86.73816 249.25718 87.294509 250.17224 87.656148 252.09986 C 88.017788 254.02748 88.154899 256.94647 87.796708 261.4197 L 89.291191 261.53907 C 89.555049 258.2439 89.559376 255.75284 89.39196 253.81655 C 91.437427 252.57984 93.366534 251.10012 94.561153 248.87525 C 95.542228 249.60751 96.707907 250.04488 97.833822 250.44518 C 99.287094 250.96187 100.68678 251.43103 101.62687 252.17014 C 101.86687 252.35882 102.25192 253.07878 102.70691 254.11937 C 103.1619 255.15996 103.74549 256.48878 104.71092 257.87677 C 106.64177 260.65275 110.12109 263.62064 117.00371 265.21689 L 117.34374 263.75599 C 110.74578 262.22578 107.68265 259.52501 105.94134 257.02152 C 105.07068 255.76978 104.53593 254.55753 104.08202 253.51941 C 103.62811 252.48129 103.31281 251.58654 102.55446 250.99036 C 101.30769 250.01015 99.757527 249.53875 98.336117 249.03338 C 96.914707 248.52802 95.640205 247.99495 94.859326 247.1446 C 93.962311 246.16776 92.839055 245.18187 92.160266 243.8771 C 91.502953 242.61363 91.201224 241.06914 91.96958 238.7508 C 93.330411 237.51931 94.55248 236.08597 95.216927 234.41412 C 96.232002 231.86012 96.845876 227.94603 97.06436 224.30672 C 97.09191 223.84782 97.092658 223.41741 97.106734 222.9714 C 100.82237 221.71249 102.43669 219.89979 103.0118 218.16394 C 103.31413 217.25143 103.34475 216.3984 103.34976 215.72637 C 103.35476 215.05435 103.39266 214.54403 103.42366 214.4727 C 104.26074 212.54814 105.61361 210.58779 107.12679 209.09008 C 108.63998 207.59237 110.31792 206.58424 111.67794 206.41582 C 117.68166 205.67231 123.62701 202.12799 128.92598 201.8869 C 133.62421 201.67314 139.31271 202.05232 144.41186 203.01552 C 149.01461 203.88496 153.13892 205.26615 155.58223 206.97858 C 153.69178 208.77203 152.13754 210.69634 151.31066 212.64645 C 149.64885 216.5657 149.92623 219.16077 150.99027 221.11932 C 152.05432 223.07787 153.7015 224.38014 154.72286 226.14279 C 157.25528 230.51324 161.27852 233.81206 165.27673 236.69356 C 162.05247 241.55134 154.45497 248.23035 155.99048 260.40633 L 157.47876 260.21874 C 156.03046 248.7343 163.04942 242.79426 166.50973 237.55087 C 172.11613 241.33525 181.8909 245.49998 182.0292 245.55865 C 182.57128 245.89141 183.46962 246.81629 184.52362 248.05876 C 185.58257 249.30707 186.83288 250.87024 188.27171 252.50965 C 191.14938 255.78845 194.77792 259.38318 199.26174 261.39076 L 199.87307 260.02134 C 195.72636 258.16469 192.22015 254.73687 189.39826 251.5216 C 187.98731 249.91397 186.74773 248.3627 185.66619 247.08776 C 184.58464 245.81282 183.70066 244.81567 182.79504 244.26571 L 182.75009 244.23832 L 182.69944 244.21662 C 182.69944 244.21662 171.91162 239.5943 166.71851 235.89826 C 162.58407 232.95569 158.48456 229.64165 156.02148 225.39089 C 154.82614 223.32797 153.17921 222.00674 152.30853 220.40412 C 151.43786 218.80149 151.13808 216.89597 152.69146 213.23246 C 154.38804 209.23123 160.39591 204.50304 165.50979 201.82024 C 166.10565 201.50765 168.06526 201.32277 170.5038 201.4983 C 172.94235 201.67382 175.92164 202.11586 178.91208 202.68944 C 181.90251 203.26302 184.90618 203.96732 187.40406 204.66193 C 189.90195 205.35654 191.926 206.06768 192.80839 206.54502 C 197.41827 209.03868 203.75904 211.85974 206.78324 215.29125 C 207.01983 215.55971 207.11888 215.89236 207.14446 216.36354 C 207.17006 216.83473 207.10199 217.40726 207.04679 218.00375 C 206.99159 218.60023 206.93988 219.22618 207.11346 219.86307 C 207.28705 220.49995 207.78715 221.12596 208.54489 221.41594 C 212.32018 222.86064 214.00252 224.11469 215.20288 225.23225 C 216.40326 226.34982 217.19891 227.45852 218.98818 228.35919 C 220.67174 229.20663 222.20646 228.65918 223.61891 228.53902 C 225.03136 228.41886 226.45426 228.53905 228.61137 230.49032 C 234.15528 235.50535 238.91343 245.01865 236.25018 259.07824 L 237.72451 259.35575 C 240.47204 244.85118 235.54694 234.74298 229.61699 229.37876 C 227.21431 227.20534 225.13695 226.90515 223.4923 227.04506 C 221.84765 227.18497 220.76949 227.57718 219.66204 227.01973 C 218.15499 226.26113 217.53649 225.35416 216.2266 224.13464 C 214.9167 222.91511 212.99245 221.51201 209.08181 220.01551 C 208.70182 219.8701 208.63845 219.75514 208.5604 219.46877 C 208.4823 219.1824 208.48886 218.70289 208.54076 218.14276 C 208.59256 217.58263 208.67862 216.94565 208.64256 216.28137 C 208.60646 215.61709 208.42939 214.8904 207.90824 214.29906 C 204.48305 210.41257 198.03256 207.66377 193.52359 205.22468 C 192.37339 204.60247 190.35123 203.92465 187.80662 203.21705 C 185.26202 202.50944 182.22623 201.79801 179.19526 201.21666 C 176.16431 200.6353 173.14203 200.18392 170.61129 200.00175 C 169.34592 199.91065 168.21793 199.86328 167.24612 199.92371 C 166.6773 199.95907 166.16849 200.03776 165.70927 200.15988 C 165.57366 199.64911 165.36981 199.03983 165.02507 198.34087 C 164.78924 197.86272 164.50621 197.37778 164.17086 196.88411 C 163.97649 196.59797 163.75558 196.29426 163.50216 195.97408 C 162.4687 194.66837 161.17846 193.42972 159.5267 192.06476 C 158.84221 191.49913 158.17341 190.97454 157.52268 190.46124 C 156.88432 189.9577 156.30989 189.50124 155.81375 189.07373 C 155.29912 188.63029 154.91478 188.25715 154.64534 187.93013 C 154.50528 187.76014 154.40784 187.61641 154.34097 187.49502 C 154.27052 187.36713 154.23931 187.27313 154.22469 187.20821 C 154.16211 186.82917 154.04005 186.49041 153.8795 186.18915 C 153.71481 185.88014 153.51136 185.61309 153.29297 185.38093 C 152.8423 184.90186 152.28927 184.53191 151.79797 184.23062 C 151.61841 184.12049 151.43603 184.01333 151.26312 183.91177 C 150.93554 183.71937 150.58048 183.52019 150.25284 183.31646 C 149.99068 183.15344 149.7639 182.99828 149.56141 182.83794 C 149.27488 182.61103 149.0927 182.41604 148.97747 182.2726 C 149.04645 182.44122 149.16249 182.69097 149.38106 183.00588 C 149.53585 183.2289 149.72076 183.45406 149.94124 183.69163 C 150.21568 183.98737 150.5235 184.27821 150.80061 184.53396 C 150.94843 184.67037 151.09918 184.81016 151.24503 184.94995 C 151.65786 185.34563 152.03544 185.74529 152.30647 186.17003 C 152.4339 186.36973 152.5341 186.56961 152.60619 186.77465 C 152.67562 186.9721 152.72047 187.17866 152.73641 187.40148 C 152.76526 187.67122 152.85127 187.93666 152.97774 188.19265 C 153.09613 188.43228 153.25141 188.66802 153.4356 188.90113 C 153.78324 189.34111 154.24654 189.78977 154.78848 190.25867 C 155.31483 190.71408 155.91879 191.19129 156.55685 191.68959 C 157.21794 192.20588 157.87084 192.71047 158.54536 193.259 C 160.16067 194.5726 161.37781 195.72457 162.32498 196.90891 C 162.55653 197.19845 162.75598 197.47109 162.92907 197.72592 C 163.22784 198.16574 163.47546 198.59139 163.6789 199.00387 C 164.02613 199.70789 164.20997 200.30688 164.31762 200.76811 C 161.75962 202.15101 159.04842 203.92939 156.7124 205.93937 C 153.94749 203.86543 149.56034 202.4609 144.69143 201.54119 C 139.61853 200.58294 134.03897 200.19531 129.2965 200.37382 C 126.41184 195.97942 125.3766 192.5474 124.3397 189.67163 C 123.39322 187.04661 122.36498 184.81484 119.92343 183.04671 C 120.71851 182.51592 121.90315 181.75496 123.62088 180.83031 C 126.25967 179.40986 129.5725 178.02283 131.97282 178.00205 C 132.70145 177.99605 132.97346 178.163 133.33605 178.49195 C 133.69863 178.82089 134.09425 179.3815 134.74423 179.96111 C 136.04419 181.12032 138.30843 182.09718 143.40623 181.62096 C 145.97346 181.38114 147.52746 180.58203 149.27926 180.39054 C 151.03106 180.19906 153.14725 180.51109 157.10152 182.58007 C 158.40276 183.26092 159.91992 184.11814 161.00206 184.92566 C 161.54313 185.32942 161.97285 185.72797 162.19733 186.0274 C 162.42181 186.32684 162.39025 186.41194 162.39474 186.40051 C 161.77075 187.9869 162.31468 189.55688 163.41587 190.73461 C 164.51701 191.91235 166.1409 192.85426 167.95512 193.68947 C 171.58356 195.35991 176.03003 196.56827 178.37878 197.44945 C 182.84128 199.12363 185.1298 198.17679 188.33579 197.94141 C 191.54178 197.70602 195.98679 198.09678 205.45309 202.3985 C 208.25191 203.67034 210.38932 203.90656 212.48832 203.7519 C 214.58732 203.59724 216.62796 203.09721 219.5096 202.90803 C 225.27286 202.52967 234.50998 203.35036 253.80053 210.75406 L 254.33796 209.35363 C 234.93211 201.90567 225.42343 201.01527 219.41193 201.40993 C 216.40617 201.60726 214.30266 202.11396 212.3767 202.25587 C 210.45074 202.39778 208.68327 202.21877 206.07424 201.03321 C 196.47589 196.67149 191.66223 196.19299 188.22469 196.44537 C 184.78714 196.69776 183.0486 197.59891 178.90639 196.04488 C 176.40336 195.10582 172.03437 193.91771 168.58196 192.32831 C 166.85575 191.53362 165.3733 190.63012 164.51192 189.70883 C 163.65053 188.78754 163.37623 188.00387 163.79104 186.94931 C 164.05115 186.28794 163.77067 185.62665 163.39623 185.1272 C 163.02181 184.62776 162.50341 184.176 161.89865 183.7247 C 160.6891 182.82211 159.12981 181.9493 157.79709 181.25199 C 153.69864 179.10758 151.1908 178.67195 149.117 178.89864 C 147.04318 179.12533 145.56901 179.91182 143.26567 180.12699 C 138.38459 180.58298 136.74256 179.73394 135.7421 178.8418 C 135.24187 178.39572 134.88694 177.8737 134.34374 177.3809 C 133.80054 176.8881 133.01047 176.4928 131.96094 176.50189 z M 75.769535 179.87946 C 76.268872 179.87609 76.762932 179.88343 77.247998 179.9022 C 79.188261 179.9773 80.989041 180.22777 82.414091 180.63083 C 83.332863 180.89071 84.082867 181.22446 84.617057 181.57445 C 83.325362 182.44645 81.860302 183.86267 80.275203 185.60728 C 78.293117 187.78881 76.186524 190.4631 74.339648 193.11896 C 72.492773 195.77482 70.9085 198.40403 69.970923 200.53711 C 69.502134 201.60365 69.187651 202.53967 69.103276 203.36536 C 69.07133 203.67797 69.071468 203.97816 69.129114 204.27022 C 67.822149 204.61232 66.74241 205.04672 65.853345 205.49805 C 63.826036 206.5272 62.690407 207.47215 61.937305 207.531 C 61.939905 207.53079 61.638766 207.4712 61.207117 207.26177 C 60.775468 207.0523 60.206117 206.73984 59.51368 206.41996 C 58.128805 205.78022 56.230829 205.11691 53.759509 205.1482 C 51.588322 205.1757 48.894249 206.24415 46.65245 207.27365 C 45.349858 207.87184 44.351182 208.39538 43.626278 208.78984 C 43.267039 206.96441 42.323613 204.68423 41.243994 202.49048 C 40.835536 201.66052 40.409046 200.876 39.982572 200.12939 L 40.087992 200.11905 C 39.859017 197.80837 41.435661 194.97736 44.144592 192.22083 C 46.853525 189.4643 50.619777 186.8098 54.427686 184.7479 C 58.131829 182.74214 60.004966 182.31107 61.388501 182.18733 C 62.772036 182.06359 63.892237 182.27671 65.693148 181.57238 C 68.514911 180.46871 72.274176 179.90307 75.769535 179.87946 z M 98.746944 181.20341 C 99.599959 181.19978 100.46697 181.20498 101.338 181.22046 C 104.82211 181.28236 108.37793 181.50413 111.40044 181.91603 C 114.42294 182.32792 116.93207 182.96585 118.18555 183.70093 C 121.00957 185.35703 121.88857 187.29486 122.92945 190.18167 C 123.89072 192.84769 124.94253 196.26424 127.59686 200.49681 C 122.1238 201.15612 116.62379 204.29226 111.49397 204.92754 C 109.59703 205.16247 107.7303 206.38221 106.07208 208.02348 C 104.41385 209.66474 102.96993 211.75286 102.047 213.8748 C 101.77085 214.50964 101.85431 215.0837 101.8496 215.715 C 101.8446 216.34631 101.81183 217.01634 101.58811 217.69162 C 101.18447 218.90994 100.16899 220.25867 97.143941 221.37512 C 97.139044 220.63562 97.116047 219.92655 97.066427 219.27912 C 96.954212 217.81556 96.772065 216.66113 96.289213 215.83592 C 95.106743 213.81487 91.989458 210.95327 88.105733 208.41415 C 84.222007 205.87503 79.616489 203.72511 75.463094 203.61703 C 73.575784 203.56791 71.981095 203.70542 70.602926 203.94827 C 70.586473 203.84564 70.575863 203.71185 70.595691 203.51781 C 70.651471 202.97192 70.909698 202.1287 71.343966 201.14069 C 72.212502 199.1647 73.759196 196.58087 75.570064 193.97679 C 77.380933 191.37271 79.457356 188.73831 81.384696 186.61703 C 83.312037 184.49574 85.148128 182.88203 86.209208 182.36923 C 86.786956 182.09001 88.952219 181.68256 91.695178 181.46851 C 93.752398 181.30797 96.187901 181.2143 98.746944 181.20341 z M 90.094759 240.26906 C 89.891357 241.99028 90.230926 243.41833 90.830115 244.57008 C 91.568413 245.98924 92.627428 246.99475 93.420138 247.8102 C 92.521933 249.70372 90.999613 251.02029 89.188354 252.17789 C 89.168837 252.06042 89.152068 251.93469 89.130994 251.82236 C 88.731759 249.69435 88.028338 248.45118 87.304749 247.63863 C 86.58116 246.82608 85.941342 246.44852 85.660404 246.05268 C 85.3851 245.66479 85.227079 245.14945 85.485221 243.69675 C 85.490534 243.70914 85.538794 243.60192 85.67384 243.47661 C 85.863278 243.30082 86.170053 243.06492 86.546655 242.795 C 87.299862 242.25516 88.339409 241.57139 89.443119 240.76928 C 89.656713 240.61406 89.877249 240.43313 90.094759 240.26906 z M -7.632609 245.41758 C -7.6467834 245.4804 -7.6780048 245.5685 -7.7478475 245.69146 C -7.7987883 245.78115 -7.8682161 245.88614 -7.9628215 246.01082 C -8.1256688 246.22545 -8.3447092 246.47559 -8.6294474 246.77822 C -8.9858428 247.15701 -9.4145749 247.585 -9.8205892 247.99985 C -10.034804 248.21873 -10.262031 248.45158 -10.486698 248.68611 C -11.106166 249.33279 -11.779058 250.07004 -12.248348 250.76867 C -12.473577 251.10397 -12.663259 251.44646 -12.777515 251.77998 C -12.887911 252.10223 -12.934926 252.43659 -12.853479 252.7577 C -12.812322 252.93915 -12.802131 253.13696 -12.828158 253.368 C -12.85219 253.58133 -12.905271 253.80961 -12.983704 254.07183 C -13.135048 254.57782 -13.373002 255.1793 -13.538708 255.8278 C -13.742424 256.62505 -13.801686 257.35352 -13.706657 258.10931 C -13.683319 258.29492 -13.651673 258.47022 -13.615706 258.63538 C -13.393832 259.65421 -12.918539 260.50021 -12.605949 260.99802 L -11.210168 260.65076 C -11.501486 260.18682 -11.930589 259.42005 -12.129492 258.5067 C -12.161635 258.35911 -12.188591 258.20233 -12.207524 258.03696 C -12.284169 257.36749 -12.215839 256.71528 -12.013737 255.98696 C -11.847649 255.38843 -11.605606 254.80607 -11.442712 254.25166 C -11.358969 253.96664 -11.298152 253.69191 -11.278898 253.42174 C -11.257761 253.12514 -11.28797 252.849 -11.378117 252.5851 C -11.442338 252.4131 -11.451543 252.19592 -11.397754 251.93243 C -11.342794 251.6632 -11.226173 251.3639 -11.064441 251.04462 C -10.726363 250.37722 -10.198848 249.6381 -9.6867472 248.95483 C -9.5037971 248.71073 -9.3155253 248.46401 -9.1394938 248.23291 C -8.8051003 247.79391 -8.4607372 247.33013 -8.1922648 246.91413 C -7.9779305 246.58201 -7.8252135 246.30164 -7.7307943 246.0625 C -7.6758097 245.92324 -7.6439891 245.80659 -7.6284749 245.708 C -7.6072228 245.57295 -7.6178594 245.48001 -7.632609 245.41758 z " /><path
       id="rect262"
       d="m -40.275,-106.15625 h 293.55991 v 342.3931 c 0,13.51139 -10.95315,24.46454 -24.46454,24.46454 l -97.85066,-1.1e-4 a 24.461205,24.461205 0 0 0 -24.46458,24.45806 v -0.17615 A 24.428405,24.428405 0 0 0 82.04018,260.55501 l -97.85674,0.14638 C -29.32457,260.72159 -40.275,249.75097 -40.275,236.24295 Z"
       style="display:inline;fill:none;fill-opacity:1;stroke:#000000;stroke-width:2;stroke-linecap:square;stroke-linejoin:miter;stroke-dasharray:none;paint-order:fill markers stroke" /><path
       id="path136-6"
       style="fill:#ffdb31;fill-opacity:1;stroke:none;stroke-width:0.529166;stroke-linecap:square;stroke-opacity:1;paint-order:fill markers stroke"
       d="m 106.50499,-100.22466 -3.14253,42.676613 -3.77486,-41.848086 -2.043435,43.111031 -5.81916,-40.720471 0.299412,43.026448 -7.761742,-38.841708 2.696411,42.237502 -9.414371,-35.637382 5.012899,40.317727 -10.289395,-29.540047 6.800479,35.694957 -13.910679,-36.327697 8.990039,37.242249 -15.726337,-36.246369 10.740369,36.907899 -16.972684,-34.574559 12.413631,36.096637 -17.948566,-32.421907 13.788912,34.728966 -18.55082,-29.980597 14.800314,33.081985 -18.540502,-27.084357 15.375064,30.855189 -17.850573,-23.515795 9.863056,17.936754 6.580434,11.967186 c 3.719178,-9.439081 12.761788,-15.639649 22.828228,-15.653447 1.605586,0.01987 3.205393,0.198261 4.776524,0.53268 2.85134,-11.410252 13.354259,-19.550139 26.779882,-19.553129 13.42562,0.0026 23.92853,8.142877 26.77988,19.553129 1.57113,-0.334419 3.17093,-0.512832 4.77652,-0.53268 10.06645,0.01381 19.10906,6.214366 22.82823,15.653447 l 6.58044,-11.967186 9.86306,-17.936754 -17.85058,23.515795 15.37507,-30.855189 -18.54051,27.084357 14.80031,-33.081985 -18.55082,29.980597 13.78891,-34.728966 -17.94856,32.421907 12.41363,-36.096637 -16.97269,34.574559 10.74038,-36.907899 -15.72634,36.246369 8.99004,-37.242249 -13.91068,36.327696 6.80047,-35.694956 -10.28938,29.540046 5.01289,-40.317726 -9.41437,35.637381 2.69642,-42.237501 -7.76175,38.841708 0.29941,-43.026448 -5.81915,40.72047 -2.04345,-43.11104 -3.77485,41.848095 z" /></g></svg>
