<?xml version="1.0" encoding="UTF-8" standalone="no"?>
<!-- Created with Inkscape (http://www.inkscape.org/) -->

<svg
   xmlns:dc="http://purl.org/dc/elements/1.1/"
   xmlns:cc="http://creativecommons.org/ns#"
   xmlns:rdf="http://www.w3.org/1999/02/22-rdf-syntax-ns#"
   xmlns:svg="http://www.w3.org/2000/svg"
   xmlns="http://www.w3.org/2000/svg"
   version="1.1"
   width="494.91238"
   height="462.05054"
   id="svg6593">
  <defs
     id="defs6595" />
  <metadata
     id="metadata6598">
    <rdf:RDF>
      <cc:Work
         rdf:about="">
        <dc:format>image/svg+xml</dc:format>
        <dc:type
           rdf:resource="http://purl.org/dc/dcmitype/StillImage" />
        <dc:title></dc:title>
      </cc:Work>
    </rdf:RDF>
  </metadata>
  <g
     transform="translate(-33.432111,-67.051192)"
     id="layer1">
    <path
       d="m 112.70535,67.551192 0,101.968748 c 16.4025,8.46108 27.65625,25.79557 27.65625,45.8125 0,20.02004 -11.24961,37.35286 -27.65625,45.8125 l 0,163 c 0,9.82143 7.29018,38.3125 33.71875,38.3125 l 115.90625,0 c 14.10714,0 16.98296,12.23009 18.5625,18.125 1.57954,-5.89491 4.45536,-18.125 18.5625,-18.125 l 115.90625,0 c 26.42857,0 33.71875,-28.49107 33.71875,-38.3125 l 0,-163 c -16.40664,-8.45964 -27.65625,-25.79246 -27.65625,-45.8125 0,-20.01693 11.25375,-37.35142 27.65625,-45.8125 l 0,-101.968748 -156.59375,0 c -5.625,0 -11.59375,6.669643 -11.59375,10.6875 0,-4.017857 -5.96875,-10.6875 -11.59375,-10.6875 l -156.59375,0 z"
       id="path6321"
       style="fill:#007fff;fill-opacity:1;stroke:#000000;stroke-width:1;stroke-linecap:butt;stroke-linejoin:miter;stroke-miterlimit:4;stroke-opacity:1;stroke-dasharray:none;stroke-dashoffset:0" />
    <path
       d="m 349.06318,175.18922 c -65.65643,46.8779 -105.30958,113.9039 -133.398,188.77103 -19.5792,6.15978 -47.5166,25.77269 -62.48814,41.63175 18.04414,-69.03283 102.48373,-188.98454 187.01002,-239.82027 z"
       id="path6085"
       style="fill:#ffffff;fill-opacity:1;stroke:#000000;stroke-width:1;stroke-linecap:butt;stroke-linejoin:round;stroke-miterlimit:4;stroke-opacity:1;stroke-dasharray:none;stroke-dashoffset:0" />
    <g
       transform="matrix(0.611604,0.79116405,-0.79116405,0.611604,61.04869,-179.27347)"
       id="g6066"
       style="fill:#ffd700;fill-opacity:1;stroke:#cfb53b;stroke-opacity:1">
      <path
         d="m 464.19186,-8.9708031 c 14.52282,0.12448 16.53627,-3.7142229 16.78571,-7.8794639 0.16676,-2.784391 -2.55706,-6.388393 -5.49107,-6.388393 -2.93401,0 -5.13393,1.60739 -5.13393,4.245536 0,1.596332 0.97019,3.632599 2.30804,4.5 -4.35615,2.60671 -10.71173,-0.810345 -15.78125,-0.34375 l 0.25,5.9062495 c 2.62769,0.263543 4.98781,-0.057962 7.0625,-0.040179 z M 436.61161,-17.34375 c -14.43353,0.50052 -16.53391,7.126094 -16.60714,9.84375 0,2.638146 2.64634,5.4955357 5.58035,5.4955357 2.93401,0 4.86608,-1.518104 4.86608,-4.15625 0,-1.5963325 -0.34519,-2.4718847 -1.68304,-3.3392857 4.35615,-2.60671 10.08673,-1.064655 15.15625,-1.53125 l -0.25,-5.90625 c -2.62769,-0.263543 -4.98898,-0.478155 -7.0625,-0.40625 z"
         id="path6046"
         style="fill:#ffd700;fill-opacity:1;stroke:#cfb53b;stroke-width:0.5;stroke-linecap:butt;stroke-linejoin:round;stroke-miterlimit:4;stroke-opacity:1;stroke-dasharray:none;stroke-dashoffset:0" />
    </g>
    <g
       transform="matrix(0.62977922,0.78111362,-0.77591569,0.60235737,54.22932,-175.21592)"
       id="g6024"
       style="fill:#ffd700;fill-opacity:1;stroke:#cfb53b;stroke-opacity:1">
      <rect
         width="14.642858"
         height="5.8928571"
         rx="3.2188272"
         ry="2.4624226"
         x="441.17163"
         y="-88.869881"
         transform="matrix(0.99693702,0.07820861,-0.07820861,0.99693702,0,0)"
         id="use5992"
         style="fill:#ffd700;fill-opacity:1;stroke:#cfb53b;stroke-width:0.50368267;stroke-linecap:butt;stroke-linejoin:round;stroke-miterlimit:4;stroke-opacity:1;stroke-dasharray:none;stroke-dashoffset:0" />
      <rect
         width="14.642858"
         height="5.8928571"
         rx="3.2188272"
         ry="2.4624226"
         x="440.95486"
         y="-83.931023"
         transform="matrix(0.99693702,0.07820861,-0.07820861,0.99693702,0,0)"
         id="use5994"
         style="fill:#ffd700;fill-opacity:1;stroke:#cfb53b;stroke-width:0.50368267;stroke-linecap:butt;stroke-linejoin:round;stroke-miterlimit:4;stroke-opacity:1;stroke-dasharray:none;stroke-dashoffset:0" />
      <rect
         width="14.642858"
         height="5.8928571"
         rx="3.2188272"
         ry="2.4624226"
         x="440.73813"
         y="-78.992165"
         transform="matrix(0.99693702,0.07820861,-0.07820861,0.99693702,0,0)"
         id="use5996"
         style="fill:#ffd700;fill-opacity:1;stroke:#cfb53b;stroke-width:0.50368267;stroke-linecap:butt;stroke-linejoin:round;stroke-miterlimit:4;stroke-opacity:1;stroke-dasharray:none;stroke-dashoffset:0" />
      <rect
         width="14.642858"
         height="5.8928571"
         rx="3.2188272"
         ry="2.4624226"
         x="440.52136"
         y="-74.053299"
         transform="matrix(0.99693702,0.07820861,-0.07820861,0.99693702,0,0)"
         id="use5998"
         style="fill:#ffd700;fill-opacity:1;stroke:#cfb53b;stroke-width:0.50368267;stroke-linecap:butt;stroke-linejoin:round;stroke-miterlimit:4;stroke-opacity:1;stroke-dasharray:none;stroke-dashoffset:0" />
      <rect
         width="14.642858"
         height="5.8928571"
         rx="3.2188272"
         ry="2.4624226"
         x="440.30463"
         y="-69.114441"
         transform="matrix(0.99693702,0.07820861,-0.07820861,0.99693702,0,0)"
         id="use6000"
         style="fill:#ffd700;fill-opacity:1;stroke:#cfb53b;stroke-width:0.50368267;stroke-linecap:butt;stroke-linejoin:round;stroke-miterlimit:4;stroke-opacity:1;stroke-dasharray:none;stroke-dashoffset:0" />
      <rect
         width="14.642858"
         height="5.8928571"
         rx="3.2188272"
         ry="2.4624226"
         x="440.08786"
         y="-64.175583"
         transform="matrix(0.99693702,0.07820861,-0.07820861,0.99693702,0,0)"
         id="use6002"
         style="fill:#ffd700;fill-opacity:1;stroke:#cfb53b;stroke-width:0.50368267;stroke-linecap:butt;stroke-linejoin:round;stroke-miterlimit:4;stroke-opacity:1;stroke-dasharray:none;stroke-dashoffset:0" />
      <rect
         width="14.642858"
         height="5.8928571"
         rx="3.2188272"
         ry="2.4624226"
         x="439.87112"
         y="-59.236721"
         transform="matrix(0.99693702,0.07820861,-0.07820861,0.99693702,0,0)"
         id="use6004"
         style="fill:#ffd700;fill-opacity:1;stroke:#cfb53b;stroke-width:0.50368267;stroke-linecap:butt;stroke-linejoin:round;stroke-miterlimit:4;stroke-opacity:1;stroke-dasharray:none;stroke-dashoffset:0" />
      <rect
         width="14.642858"
         height="5.8928571"
         rx="3.2188272"
         ry="2.4624226"
         x="439.65436"
         y="-54.297859"
         transform="matrix(0.99693702,0.07820861,-0.07820861,0.99693702,0,0)"
         id="use6006"
         style="fill:#ffd700;fill-opacity:1;stroke:#cfb53b;stroke-width:0.50368267;stroke-linecap:butt;stroke-linejoin:round;stroke-miterlimit:4;stroke-opacity:1;stroke-dasharray:none;stroke-dashoffset:0" />
    </g>
    <path
       d="m 427.67857,-6.4324632 a 2.0982144,2.0982144 0 1 1 -4.19643,0 2.0982144,2.0982144 0 1 1 4.19643,0 z"
       transform="matrix(0.611604,0.79116405,-0.79116405,0.611604,61.04869,-179.27347)"
       id="path6070"
       style="fill:#ff0000;fill-opacity:1;stroke:#550000;stroke-width:0.5;stroke-linecap:butt;stroke-linejoin:round;stroke-miterlimit:4;stroke-opacity:1;stroke-dasharray:none;stroke-dashoffset:0" />
    <path
       d="m 427.67857,-6.4324632 a 2.0982144,2.0982144 0 1 1 -4.19643,0 2.0982144,2.0982144 0 1 1 4.19643,0 z"
       transform="matrix(0.611604,0.79116405,-0.79116405,0.611604,100.7895,-147.13538)"
       id="path6072"
       style="fill:#ff0000;fill-opacity:1;stroke:#550000;stroke-width:0.5;stroke-linecap:butt;stroke-linejoin:round;stroke-miterlimit:4;stroke-opacity:1;stroke-dasharray:none;stroke-dashoffset:0" />
    <g
       transform="translate(306.4567,51.426192)"
       id="g6141"
       style="fill:#ffd700;fill-opacity:1;stroke:#cfb53b;stroke-opacity:1">
      <path
         d="m 465.53571,-16.075319 a 5.8482141,2.1875 0 1 1 -11.69642,0 5.8482141,2.1875 0 1 1 11.69642,0 z"
         transform="matrix(0.88629522,0.64139606,-0.63051932,0.88209019,-367.71373,-158.1235)"
         id="path6034"
         style="fill:#ffd700;fill-opacity:1;stroke:#cfb53b;stroke-width:0.45908186;stroke-linecap:butt;stroke-linejoin:round;stroke-miterlimit:4;stroke-opacity:1;stroke-dasharray:none;stroke-dashoffset:0" />
      <path
         d="m 465.53571,-16.075319 a 5.8482141,2.1875 0 1 1 -11.69642,0 5.8482141,2.1875 0 1 1 11.69642,0 z"
         transform="matrix(0.44685614,0.99861287,-0.98709079,0.44865282,-177.77611,-324.06344)"
         id="path6038"
         style="fill:#ffd700;fill-opacity:1;stroke:#cfb53b;stroke-width:0.45908186;stroke-linecap:butt;stroke-linejoin:round;stroke-miterlimit:4;stroke-opacity:1;stroke-dasharray:none;stroke-dashoffset:0" />
      <path
         d="m 465.53571,-16.075319 a 5.8482141,2.1875 0 1 1 -11.69642,0 5.8482141,2.1875 0 1 1 11.69642,0 z"
         transform="matrix(-0.39747527,-1.019275,-1.0124659,0.38800839,204.6738,582.31057)"
         id="path6040"
         style="fill:#ffd700;fill-opacity:1;stroke:#cfb53b;stroke-width:0.45908186;stroke-linecap:butt;stroke-linejoin:round;stroke-miterlimit:4;stroke-opacity:1;stroke-dasharray:none;stroke-dashoffset:0" />
      <path
         d="m 465.53571,-16.075319 a 5.8482141,2.1875 0 1 1 -11.69642,0 5.8482141,2.1875 0 1 1 11.69642,0 z"
         transform="matrix(-0.85386117,-0.6839804,-0.68281696,0.84225803,413.10525,440.29403)"
         id="path6044"
         style="fill:#ffd700;fill-opacity:1;stroke:#cfb53b;stroke-width:0.45908186;stroke-linecap:butt;stroke-linejoin:round;stroke-miterlimit:4;stroke-opacity:1;stroke-dasharray:none;stroke-dashoffset:0" />
      <path
         d="m 465.53571,-16.075319 a 5.8482141,2.1875 0 1 1 -11.69642,0 5.8482141,2.1875 0 1 1 11.69642,0 z"
         transform="matrix(0.69008992,0.84893108,-0.8373366,0.68884326,-283.82172,-253.76607)"
         id="path6036"
         style="fill:#ffd700;fill-opacity:1;stroke:#cfb53b;stroke-width:0.45908186;stroke-linecap:butt;stroke-linejoin:round;stroke-miterlimit:4;stroke-opacity:1;stroke-dasharray:none;stroke-dashoffset:0" />
      <path
         d="m 465.53571,-16.075319 a 5.8482141,2.1875 0 1 1 -11.69642,0 5.8482141,2.1875 0 1 1 11.69642,0 z"
         transform="matrix(-0.6477394,-0.88166986,-0.87754297,0.63683275,318.3635,525.21396)"
         id="path6042"
         style="fill:#ffd700;fill-opacity:1;stroke:#cfb53b;stroke-width:0.45908186;stroke-linecap:butt;stroke-linejoin:round;stroke-miterlimit:4;stroke-opacity:1;stroke-dasharray:none;stroke-dashoffset:0" />
    </g>
    <path
       d="m 454.55358,-13.26282 a 3.4821429,3.4821429 0 1 1 -6.96428,0 3.4821429,3.4821429 0 1 1 6.96428,0 z"
       transform="matrix(0.83115418,1.0751717,-1.0751717,0.83115418,-42.00786,-304.94778)"
       id="path6054"
       style="fill:#ff0000;fill-opacity:1;stroke:#550000;stroke-width:0.36792454;stroke-linecap:butt;stroke-linejoin:round;stroke-miterlimit:4;stroke-opacity:1;stroke-dasharray:none;stroke-dashoffset:0" />
    <path
       d="m 450.98215,-56.744965 a 8.75,8.75 0 1 1 -17.5,0 8.75,8.75 0 1 1 17.5,0 z"
       transform="matrix(0.51259093,0.76472985,-0.76472985,0.51259093,115.9599,-165.04535)"
       id="path6074"
       style="fill:#ffd700;fill-opacity:1;stroke:#cfb53b;stroke-width:0.54310584;stroke-linecap:butt;stroke-linejoin:round;stroke-miterlimit:4;stroke-opacity:1;stroke-dasharray:none;stroke-dashoffset:0" />
    <path
       d="m 450.98215,-56.744965 a 8.75,8.75 0 1 1 -17.5,0 8.75,8.75 0 1 1 17.5,0 z"
       transform="matrix(0.29163432,0.43508665,-0.43508665,0.29163432,232.37961,-31.804705)"
       id="path6076"
       style="fill:#ff0000;fill-opacity:1;stroke:#550000;stroke-width:1.90917945;stroke-linecap:butt;stroke-linejoin:round;stroke-miterlimit:4;stroke-opacity:1;stroke-dasharray:none;stroke-dashoffset:0" />
    <path
       d="m 457.97791,-70.169838 a 3.0304577,3.0304577 0 1 1 -6.06092,0 3.0304577,3.0304577 0 1 1 6.06092,0 z"
       transform="matrix(0.55678225,0.83065849,-0.83065849,0.55678225,82.94805,-200.48046)"
       id="path6078"
       style="fill:#ff0000;fill-opacity:1;stroke:#550000;stroke-width:0.60000002;stroke-linecap:butt;stroke-linejoin:round;stroke-miterlimit:4;stroke-opacity:1;stroke-dasharray:none;stroke-dashoffset:0" />
    <g
       transform="translate(307.14285,51.426192)"
       id="g4242">
      <path
         d="m -171.9375,420.8125 c 1.08977,1.31537 1.60138,3.8282 0.5,5.375 -1.28116,1.79929 -3.1122,1.63243 -5.15625,1.625 -4.40715,-0.016 -9.71598,-3.75852 -14.125,-3.75 -11.04189,0.0213 -11.59375,6.78125 -11.59375,6.78125 3.44175,1.66264 16.3485,3.04408 33.71875,4.1875 -0.36763,-6.25916 -1.024,-13.82063 -3.34375,-14.21875 z m -52.1875,-55.84375 c -7.01859,1.52794 -4.4588,11.93039 -0.96875,20.5625 4.75711,-0.20833 7.12598,-0.41667 9.4375,-0.625 -4.24497,-20.89977 -8.46875,-19.9375 -8.46875,-19.9375 z m -13,19.0625 c -2.72221,1.84114 -7.40191,13.62024 2.34375,22.8125 0,0 11.56696,-1.33036 12.28125,-2 -4.79088,-7.40243 -9.59857,-14.58785 -14.625,-20.8125 z"
         id="path4232"
         style="fill:#a9292f;fill-opacity:1;stroke:#800000;stroke-width:0.60000002;stroke-linecap:round;stroke-linejoin:miter;stroke-miterlimit:0.30000001;stroke-opacity:1;stroke-dasharray:none;stroke-dashoffset:0" />
      <g
         id="g4282">
        <path
           d="m -202.3125,430.84375 -4.21875,34.46875 c 10.67262,12.3393 120.053135,12.06285 180.28125,12.0625 60.217722,-3.5e-4 169.57738,0.2768 180.25,-12.0625 l -4.1875,-34.46875 c -13.64955,6.59384 -117.301009,8.84375 -176.0625,8.84375 -58.761491,0 -162.41295,-2.24991 -176.0625,-8.84375 z"
           id="path4280"
           style="fill:#df1f2a;fill-opacity:1;stroke:#800000;stroke-width:0.60000002;stroke-linecap:round;stroke-linejoin:miter;stroke-miterlimit:4;stroke-opacity:1;stroke-dasharray:none;stroke-dashoffset:0" />
        <path
           d="m -237.13331,384.02 c -3.06155,2.07065 -8.60648,16.71772 6.68688,26.11004 17.75877,9.95129 35.4864,9.14191 57.05358,9.82143 1.89352,0.0597 3.49006,4.10714 1.96428,6.24999 -1.28116,1.79929 -3.13452,1.61458 -5.17857,1.60715 -4.40715,-0.016 -9.69813,-3.75852 -14.10715,-3.75 -11.04189,0.0213 -11.60714,6.78571 -11.60714,6.78571 l -3.28294,26.962 c -42.52612,-3.74011 -68.58816,-31.75392 -67.78848,-55.17628 0.3263,-9.55728 4.73214,-12.32143 4.73214,-12.32143 z"
           id="path4278"
           style="fill:#df1f2a;fill-opacity:1;stroke:#800000;stroke-width:0.60000002;stroke-linecap:round;stroke-linejoin:miter;stroke-miterlimit:4;stroke-opacity:1;stroke-dasharray:none;stroke-dashoffset:0" />
        <path
           d="m -261.2507,373.53967 c -2.68793,5.13494 -0.21104,9.80518 1.12558,15.06639 l 22.99181,-4.58606 c 5.02643,6.22465 9.85633,13.43197 14.64721,20.8344 0,0 6.55773,-1.20383 2.64268,-8.31101 -2.73523,-4.96538 -15.28134,-29.19595 -4.28418,-31.59002 -12.37437,1.60215 -24.74873,5.13285 -37.1231,8.5863 z"
           id="path4276"
           style="fill:#df1f2a;fill-opacity:1;stroke:#800000;stroke-width:0.60000002;stroke-linecap:round;stroke-linejoin:miter;stroke-miterlimit:4;stroke-opacity:1;stroke-dasharray:none;stroke-dashoffset:0" />
        <path
           d="m -206.4375,286.65625 c -8.14066,5.71745 -15.80919,7.66667 -24.875,21.09375 l -12.625,-15.40625 c -2.52557,3.87198 -7.9749,11.9871 -7.71875,21.21875 0.50575,18.22754 1.9193,37.0382 2.9375,56.53125 8.19412,-2.16981 16.39963,-4.06408 24.59375,-5.125 0,0 4.22378,-0.96227 8.46875,19.9375 2.27284,0.50507 5.48413,-0.27048 5.03125,-5.0625 -3.61138,-38.21263 -11.91791,-65.09772 4.1875,-93.1875 z"
           id="path4208"
           style="fill:#df1f2a;fill-opacity:1;stroke:#800000;stroke-width:0.60000002;stroke-linecap:round;stroke-linejoin:miter;stroke-miterlimit:4;stroke-opacity:1;stroke-dasharray:none;stroke-dashoffset:0" />
      </g>
    </g>
    <g
       transform="matrix(-1,0,0,1,254.63376,51.426192)"
       id="g4259">
      <path
         d="m -171.9375,420.8125 c 1.08977,1.31537 1.60138,3.8282 0.5,5.375 -1.28116,1.79929 -3.1122,1.63243 -5.15625,1.625 -4.40715,-0.016 -9.71598,-3.75852 -14.125,-3.75 -11.04189,0.0213 -11.59375,6.78125 -11.59375,6.78125 3.44175,1.66264 16.3485,3.04408 33.71875,4.1875 -0.36763,-6.25916 -1.024,-13.82063 -3.34375,-14.21875 z m -52.1875,-55.84375 c -7.01859,1.52794 -4.4588,11.93039 -0.96875,20.5625 4.75711,-0.20833 7.12598,-0.41667 9.4375,-0.625 -4.24497,-20.89977 -8.46875,-19.9375 -8.46875,-19.9375 z m -13,19.0625 c -2.72221,1.84114 -7.40191,13.62024 2.34375,22.8125 0,0 11.56696,-1.33036 12.28125,-2 -4.79088,-7.40243 -9.59857,-14.58785 -14.625,-20.8125 z"
         id="path4261"
         style="fill:#a9292f;fill-opacity:1;stroke:#800000;stroke-width:0.60000002;stroke-linecap:round;stroke-linejoin:miter;stroke-miterlimit:0.30000001;stroke-opacity:1;stroke-dasharray:none;stroke-dashoffset:0" />
      <g
         id="g4288">
        <path
           d="m -237.13331,384.02 c -3.06155,2.07065 -8.60648,16.71772 6.68688,26.11004 17.75877,9.95129 35.4864,9.14191 57.05358,9.82143 1.89352,0.0597 3.49006,4.10714 1.96428,6.24999 -1.28116,1.79929 -3.13452,1.61458 -5.17857,1.60715 -4.40715,-0.016 -9.69813,-3.75852 -14.10715,-3.75 -11.04189,0.0213 -11.60714,6.78571 -11.60714,6.78571 l -3.28294,26.962 c -42.52612,-3.74011 -68.58816,-31.75392 -67.78848,-55.17628 0.3263,-9.55728 4.73214,-12.32143 4.73214,-12.32143 z"
           id="path4270"
           style="fill:#df1f2a;fill-opacity:1;stroke:#800000;stroke-width:0.60000002;stroke-linecap:round;stroke-linejoin:miter;stroke-miterlimit:4;stroke-opacity:1;stroke-dasharray:none;stroke-dashoffset:0" />
        <path
           d="m -261.2507,373.53967 c -2.68793,5.13494 -0.21104,9.80518 1.12558,15.06639 l 22.99181,-4.58606 c 5.02643,6.22465 9.85633,13.43197 14.64721,20.8344 0,0 6.55773,-1.20383 2.64268,-8.31101 -2.73523,-4.96538 -15.28134,-29.19595 -4.28418,-31.59002 -12.37437,1.60215 -24.74873,5.13285 -37.1231,8.5863 z"
           id="path4268"
           style="fill:#df1f2a;fill-opacity:1;stroke:#800000;stroke-width:0.60000002;stroke-linecap:round;stroke-linejoin:miter;stroke-miterlimit:4;stroke-opacity:1;stroke-dasharray:none;stroke-dashoffset:0" />
        <path
           d="m -206.4375,286.65625 c -8.14066,5.71745 -15.80919,7.66667 -24.875,21.09375 l -12.625,-15.40625 c -2.52557,3.87198 -7.9749,11.9871 -7.71875,21.21875 0.50575,18.22754 1.9193,37.0382 2.9375,56.53125 8.19412,-2.16981 16.39963,-4.06408 24.59375,-5.125 0,0 4.22378,-0.96227 8.46875,19.9375 2.27284,0.50507 5.48413,-0.27048 5.03125,-5.0625 -3.61138,-38.21263 -11.91791,-65.09772 4.1875,-93.1875 z"
           id="path4263"
           style="fill:#df1f2a;fill-opacity:1;stroke:#800000;stroke-width:0.60000002;stroke-linecap:round;stroke-linejoin:miter;stroke-miterlimit:4;stroke-opacity:1;stroke-dasharray:none;stroke-dashoffset:0" />
      </g>
    </g>
    <g
       transform="translate(306.4567,51.426192)"
       id="g5618"
       style="fill:#ffd700;fill-opacity:1;stroke:#cfb53b;stroke-width:0.5;stroke-miterlimit:4;stroke-opacity:1;stroke-dasharray:none">
      <rect
         width="3.7880721"
         height="25.822025"
         rx="1.4399561"
         ry="1.4399561"
         x="-123.90343"
         y="95.958221"
         id="rect5530"
         style="fill:#ffd700;fill-opacity:1;stroke:#cfb53b;stroke-width:0.5;stroke-linecap:round;stroke-linejoin:miter;stroke-miterlimit:4;stroke-opacity:1;stroke-dasharray:none;stroke-dashoffset:0" />
      <rect
         width="3.7880721"
         height="25.822025"
         rx="1.4399561"
         ry="1.4399561"
         x="-120.23009"
         y="99.847641"
         id="rect5532"
         style="fill:#ffd700;fill-opacity:1;stroke:#cfb53b;stroke-width:0.5;stroke-linecap:round;stroke-linejoin:miter;stroke-miterlimit:4;stroke-opacity:1;stroke-dasharray:none;stroke-dashoffset:0" />
      <rect
         width="3.7880721"
         height="25.822025"
         rx="1.4399561"
         ry="1.4399561"
         x="-116.36765"
         y="103.93728"
         id="rect5534"
         style="fill:#ffd700;fill-opacity:1;stroke:#cfb53b;stroke-width:0.5;stroke-linecap:round;stroke-linejoin:miter;stroke-miterlimit:4;stroke-opacity:1;stroke-dasharray:none;stroke-dashoffset:0" />
      <rect
         width="3.7880721"
         height="25.822025"
         rx="1.4399561"
         ry="1.4399561"
         x="-112.6733"
         y="107.84894"
         id="rect5536"
         style="fill:#ffd700;fill-opacity:1;stroke:#cfb53b;stroke-width:0.5;stroke-linecap:round;stroke-linejoin:miter;stroke-miterlimit:4;stroke-opacity:1;stroke-dasharray:none;stroke-dashoffset:0" />
      <rect
         width="3.7880721"
         height="25.822025"
         rx="1.4399561"
         ry="1.4399561"
         x="-109.37815"
         y="111.33792"
         id="rect5538"
         style="fill:#ffd700;fill-opacity:1;stroke:#cfb53b;stroke-width:0.5;stroke-linecap:round;stroke-linejoin:miter;stroke-miterlimit:4;stroke-opacity:1;stroke-dasharray:none;stroke-dashoffset:0" />
      <rect
         width="5.4844971"
         height="26.447016"
         rx="2.6899567"
         ry="1.7970984"
         x="-105.71882"
         y="115.3018"
         id="rect5540"
         style="fill:#ffd700;fill-opacity:1;stroke:#cfb53b;stroke-width:0.5;stroke-linecap:round;stroke-linejoin:miter;stroke-miterlimit:4;stroke-opacity:1;stroke-dasharray:none;stroke-dashoffset:0" />
      <rect
         width="3.7880721"
         height="19.319168"
         rx="1.4399561"
         ry="1.4399561"
         x="-127.80103"
         y="97.508919"
         id="rect5542"
         style="fill:#ffd700;fill-opacity:1;stroke:#cfb53b;stroke-width:0.5;stroke-linecap:round;stroke-linejoin:miter;stroke-miterlimit:4;stroke-opacity:1;stroke-dasharray:none;stroke-dashoffset:0" />
      <rect
         width="4.8643355"
         height="10.695894"
         rx="1.6897614"
         ry="1.4399561"
         x="-132.54588"
         y="100.68281"
         id="rect5544"
         style="fill:#ffd700;fill-opacity:1;stroke:#cfb53b;stroke-width:0.54163671;stroke-linecap:round;stroke-linejoin:miter;stroke-miterlimit:4;stroke-opacity:1;stroke-dasharray:none;stroke-dashoffset:0" />
    </g>
    <g
       transform="translate(306.4567,51.426192)"
       id="g5595"
       style="stroke:#cfb53b;stroke-opacity:1">
      <rect
         width="5.8035712"
         height="12.410714"
         rx="1.9196428"
         ry="1.9196428"
         x="-172.01428"
         y="-26.806871"
         transform="matrix(0.72699478,-0.68664298,0.68664298,0.72699478,0,0)"
         id="rect5585"
         style="fill:#ffd700;fill-opacity:1;stroke:#cfb53b;stroke-width:0.55599999;stroke-linecap:round;stroke-linejoin:miter;stroke-miterlimit:0.30000001;stroke-opacity:1;stroke-dasharray:none;stroke-dashoffset:0" />
      <rect
         width="5.8035712"
         height="12.410714"
         rx="1.9196428"
         ry="1.9196428"
         x="-159.36317"
         y="-26.898767"
         transform="matrix(0.72699478,-0.68664298,0.68664298,0.72699478,0,0)"
         id="rect5589"
         style="fill:#ffd700;fill-opacity:1;stroke:#cfb53b;stroke-width:0.55599999;stroke-linecap:round;stroke-linejoin:miter;stroke-miterlimit:0.30000001;stroke-opacity:1;stroke-dasharray:none;stroke-dashoffset:0" />
      <path
         d="m -135.80357,82.719322 a 4.8214288,4.8214288 0 1 1 -9.64286,0 4.8214288,4.8214288 0 1 1 9.64286,0 z"
         transform="translate(1.38393,7.0982116)"
         id="path5593"
         style="fill:#ffd700;fill-opacity:1;stroke:#cfb53b;stroke-width:0.55599999;stroke-linecap:round;stroke-linejoin:miter;stroke-miterlimit:0.30000001;stroke-opacity:1;stroke-dasharray:none;stroke-dashoffset:0" />
      <rect
         width="7.1577115"
         height="12.27732"
         rx="1.9196428"
         ry="1.9196428"
         x="-166.21071"
         y="-26.806871"
         transform="matrix(0.72699478,-0.68664298,0.68664298,0.72699478,0,0)"
         id="rect5587"
         style="fill:#ffd700;fill-opacity:1;stroke:#cfb53b;stroke-width:0.55599999;stroke-linecap:round;stroke-linejoin:miter;stroke-miterlimit:0.30000001;stroke-opacity:1;stroke-dasharray:none;stroke-dashoffset:0" />
    </g>
    <path
       d="m 197.78482,188.95744 68.76117,77.06307 c 4.69762,22.85935 16.79418,35.67728 34.82142,40.44643 4.56838,16.82764 11.3519,33.22964 33.83929,45.71429 13.67139,7.59014 21.57126,5.26985 31.42857,10.17857 8.30802,4.1372 14.91072,10.71429 26.78572,9.46429 -9.37589,-7.36344 -8.14366,-21.06388 -12.94643,-25.80358 -7.901,-7.79721 -17.14286,-16.42856 -27.76786,-19.19642 9.41855,-2.60226 18.38255,6.54886 26.60714,9.01786 -6.89528,-19.18416 -13.47583,-33.22494 -26.25496,-42.77124 -8.22774,-6.1463 -25.56769,-10.93961 -33.41535,-15.31518 -13.61788,-7.59283 -14.48934,-15.54135 -25.68683,-22.18145 7.72371,3.54633 15.09165,13.04103 22.49534,16.71569 5.73481,2.84635 10.93546,3.57318 19.46895,-0.10854 -10.98215,-8.92857 -12.10394,-19.58721 -21.42858,-25.71429 -14.7805,-9.71204 -20.44642,-12.23214 -50.89285,-15 L 211.6442,176.86369 z"
       id="path5628"
       style="fill:#ffffff;fill-opacity:1;stroke:#000000;stroke-width:1;stroke-linecap:round;stroke-linejoin:miter;stroke-miterlimit:6;stroke-opacity:1;stroke-dasharray:none;stroke-dashoffset:0" />
    <path
       d="m 302.7692,303.36369 c 0,0 10.04246,24.60344 19.75,32.9375 33.97052,29.16418 38.59794,11.20055 61.09375,30.375 0,0 -3.25515,-12.28464 -6.8125,-17.625 -8.86987,-13.31562 -31.50893,-20.54464 -32.3125,-27.0625 -4.95772,0.28172 -9.75858,0.69612 -14.28125,0.28125 -8.36835,-0.76763 -15.80688,-7.30509 -17.15625,-16.34375 -3.76414,-0.64296 -7.1694,-1.50703 -10.28125,-2.5625 z"
       id="path5661"
       style="fill:#ff0000;stroke:#000000;stroke-width:1;stroke-linecap:butt;stroke-linejoin:miter;stroke-miterlimit:3.5;stroke-opacity:1;stroke-dasharray:none;stroke-dashoffset:0" />
    <path
       d="m 268.05045,250.73869 c 15.01473,18.32288 30.85344,32.7408 45,55.1875 1.34937,9.03866 8.7879,15.57612 17.15625,16.34375 12.47105,1.14398 27.00614,-4.03104 41.34375,4.71875 -16.7631,-41.75995 -40.98906,-34.20173 -60.71875,-49.53125 -9.30206,-7.22748 -14.99215,-18.64674 -26.5,-24.84375 -0.008,-0.004 -0.0232,0.004 -0.0312,0 -6.29066,0.20899 -12.87381,0.0295 -16.25,-1.875 z"
       id="path5659"
       style="fill:#ff0000;stroke:#000000;stroke-width:1;stroke-linecap:butt;stroke-linejoin:miter;stroke-miterlimit:3.5;stroke-opacity:1;stroke-dasharray:none;stroke-dashoffset:0" />
    <path
       d="m 213.9567,192.3598 54.10714,58.39286 c 15.01473,18.32288 30.85344,32.73187 45,55.17857 -28.16202,-4.81038 -37.09659,-21.85698 -41.33928,-40.80357 l -68.00218,-73.02407 z"
       id="path5657"
       style="fill:#ff0000;stroke:#000000;stroke-width:1;stroke-linecap:butt;stroke-linejoin:round;stroke-miterlimit:3.5;stroke-opacity:1;stroke-dasharray:none;stroke-dashoffset:0" />
    <path
       d="m 213.9567,192.3598 -0.35714,-10.53572 45.89285,51.78572 c 10.71429,3.83929 33.5689,3.9747 47.14286,12.5 10.52515,6.61045 13.08269,13.25718 20.625,24.375 -15.04697,-2.36432 -24.33863,-17.17522 -28.03571,-18.21429 -3.62731,-1.01946 -24.19643,2.41072 -31.16072,-1.51785 z"
       id="path5642"
       style="fill:#ff0000;stroke:#000000;stroke-width:1;stroke-linecap:butt;stroke-linejoin:miter;stroke-miterlimit:3.5;stroke-opacity:1;stroke-dasharray:none;stroke-dashoffset:0" />
    <path
       d="m 341.27813,360.39551 c 15.38452,3.71291 31.2209,6.2209 43.75,18.75 5,5 11.96429,13.92858 23.57143,25.17858 -38.39286,0.17857 -26.66133,-8.48939 -38.21429,-16.07143 -11.22781,-7.36865 -19.28571,-6.96429 -29.10714,-27.85715 z"
       id="path5651"
       style="fill:#ffffff;fill-opacity:1;stroke:#000000;stroke-width:1;stroke-linecap:butt;stroke-linejoin:round;stroke-miterlimit:4;stroke-opacity:1;stroke-dasharray:none;stroke-dashoffset:0" />
    <path
       d="m 349.67099,366.91337 c 22.77105,2.3209 37.39212,16.10156 48.83928,33.21429 -17.98302,1.37134 -20.81515,-10.20323 -28.68412,-16.82443 -7.86897,-6.6212 -15.95335,-8.3783 -20.15516,-16.38986 z"
       id="path5653"
       style="fill:#ff0000;stroke:#000000;stroke-width:1;stroke-linecap:butt;stroke-linejoin:round;stroke-miterlimit:6;stroke-opacity:1;stroke-dasharray:none;stroke-dashoffset:0" />
    <path
       d="m 246.63527,209.14551 c 9.73214,11.16071 14.69071,16.76631 25.44643,20.71428 12.49953,4.58806 24.91071,-0.44642 41.42857,10.80358 -5.35714,-9.64286 -13.23251,-16.28438 -23.21428,-21.33928 -12.62938,-6.39568 -20.53572,0.0893 -43.66072,-10.17858 z"
       id="path5663"
       style="fill:#ffffff;fill-opacity:1;stroke:#000000;stroke-width:1;stroke-linecap:butt;stroke-linejoin:round;stroke-miterlimit:4;stroke-opacity:1;stroke-dasharray:none;stroke-dashoffset:0" />
    <path
       d="m 260.8317,218.69909 c 16.78571,3.48214 17.80979,0.61236 25.35714,3.21428 7.54736,2.60192 18.30357,11.69643 18.30357,11.69643 -16.58623,-7.26871 -33.08967,-1.97576 -43.66071,-14.91071 z"
       id="path5665"
       style="fill:#ff0000;stroke:#000000;stroke-width:1;stroke-linecap:butt;stroke-linejoin:round;stroke-miterlimit:4;stroke-opacity:1;stroke-dasharray:none;stroke-dashoffset:0" />
    <path
       d="m 224.2692,161.05119 c -1.2248,0 -2.34624,0.38333 -3.09375,0.875 -5.85082,5.09859 -11.74206,10.2894 -17.625,15.5 l -4.90625,-0.125 0,4.46875 c -5.51775,4.89577 -11.03861,9.7959 -16.53125,14.65625 -0.6554,0.5574 -1.5,2.21248 -1.5,4.0625 0,3.33164 2.69961,6.03125 6.03125,6.03125 3.33164,0 6.03125,-2.69961 6.03125,-6.03125 0,-2.00163 -0.96825,-3.80025 -2.46875,-4.90625 l 7.57812,-6.625 13.01563,-0.0625 0.84375,-12.03125 7.53125,-6.5625 c 1.06882,1.69762 2.94714,2.84375 5.09375,2.84375 3.33164,0 6.0625,-2.73086 6.0625,-6.0625 0,-3.33164 -2.73086,-6.03125 -6.0625,-6.03125 z"
       id="path4345"
       style="fill:#ffd700;fill-opacity:1;stroke:#cfb53b;stroke-width:0.8004154;stroke-linecap:round;stroke-linejoin:miter;stroke-miterlimit:0.30000001;stroke-opacity:1;stroke-dasharray:none;stroke-dashoffset:0" />
    <path
       d="m -80.178568,115.75504 a 2.0535715,2.0535715 0 1 1 -4.107143,0 2.0535715,2.0535715 0 1 1 4.107143,0 z"
       transform="translate(306.36741,51.247621)"
       id="path5667"
       style="fill:#ff0000;stroke:#550000;stroke-width:0.5;stroke-linecap:butt;stroke-linejoin:round;stroke-miterlimit:4;stroke-opacity:1;stroke-dasharray:none;stroke-dashoffset:0" />
    <path
       d="m -80.178568,115.75504 a 2.0535715,2.0535715 0 1 1 -4.107143,0 2.0535715,2.0535715 0 1 1 4.107143,0 z"
       transform="matrix(1.3913043,0,0,1.3913043,318.4018,21.105867)"
       id="path5669"
       style="fill:#ff0000;stroke:#550000;stroke-width:0.359375;stroke-linecap:butt;stroke-linejoin:round;stroke-miterlimit:4;stroke-opacity:1;stroke-dasharray:none;stroke-dashoffset:0" />
    <path
       d="m -80.178568,115.75504 a 2.0535715,2.0535715 0 1 1 -4.107143,0 2.0535715,2.0535715 0 1 1 4.107143,0 z"
       transform="translate(269.04599,84.461907)"
       id="path5671"
       style="fill:#ff0000;stroke:#550000;stroke-width:0.5;stroke-linecap:butt;stroke-linejoin:round;stroke-miterlimit:4;stroke-opacity:1;stroke-dasharray:none;stroke-dashoffset:0" />
    <g
       transform="matrix(1.651763,0,0,1.651763,939.5288,-509.65301)"
       id="g6283"
       style="stroke:#000000;stroke-width:0.60541373;stroke-miterlimit:4;stroke-dasharray:none">
      <path
         d="m -382.125,542.15625 c -1.26322,-0.004 -2.66866,0.1 -4.21875,0.34375 0.14576,0.88056 0.21156,1.79261 0.25,2.71875 3.80878,-0.42711 7.93058,-0.48547 12.21875,-0.34375 -1.87914,-1.66198 -4.46035,-2.70676 -8.25,-2.71875 z m -33.25,0 c 1.26322,-0.004 2.66866,0.1 4.21875,0.34375 -0.14576,0.88056 -0.21156,1.79261 -0.25,2.71875 -3.80878,-0.42711 -7.93058,-0.48547 -12.21875,-0.34375 1.87914,-1.66198 4.46035,-2.70676 8.25,-2.71875 z"
         id="path6257"
         style="fill:#ffffff;fill-opacity:1;stroke:#000000;stroke-width:0.60541373;stroke-linecap:butt;stroke-linejoin:round;stroke-miterlimit:4;stroke-opacity:1;stroke-dasharray:none;stroke-dashoffset:0" />
      <path
         d="m -394.02262,517.39172 a 2.3675451,2.3675451 0 1 1 -4.73509,0 2.3675451,2.3675451 0 1 1 4.73509,0 z"
         transform="matrix(1.8993709,0,0,1.8993709,354.13422,-454.15221)"
         id="path6255"
         style="fill:#ffffff;fill-opacity:1;stroke:#000000;stroke-width:0.31874433;stroke-linecap:butt;stroke-linejoin:round;stroke-miterlimit:4;stroke-opacity:1;stroke-dasharray:none;stroke-dashoffset:0" />
      <path
         d="m -392.12859,544.38171 a 8.7125654,13.195118 0 1 1 -17.42513,0 8.7125654,13.195118 0 1 1 17.42513,0 z"
         transform="matrix(1.4587234,0,0,1.2831879,185.95864,-152.38279)"
         id="path6247"
         style="fill:#ffffff;fill-opacity:1;stroke:#000000;stroke-width:0.44250754;stroke-linecap:butt;stroke-linejoin:round;stroke-miterlimit:4;stroke-opacity:1;stroke-dasharray:none;stroke-dashoffset:0" />
      <path
         d="m -420,544.8125 c -1.19354,0.007 -2.40301,0.0221 -3.625,0.0625 3.16247,10.59095 10.38559,19.5836 24.86728,19.5836 14.48169,0 21.72025,-8.99265 24.88272,-19.5836 -9.77593,-0.32308 -18.77371,0.29281 -24.875,4.3125 -5.33863,-3.51723 -12.89524,-4.4223 -21.25,-4.375 z"
         id="path6245"
         style="fill:#ffffff;fill-opacity:1;stroke:#000000;stroke-width:0.60541373;stroke-linecap:butt;stroke-linejoin:round;stroke-miterlimit:4;stroke-opacity:1;stroke-dasharray:none;stroke-dashoffset:0" />
      <path
         d="m -394.02262,517.39172 a 2.3675451,2.3675451 0 1 1 -4.73509,0 2.3675451,2.3675451 0 1 1 4.73509,0 z"
         transform="matrix(0.76332346,0,0,0.76332346,-96.183804,122.13881)"
         id="path6251"
         style="fill:#ffffff;fill-opacity:1;stroke:#000000;stroke-width:0.79312867;stroke-linecap:butt;stroke-linejoin:round;stroke-miterlimit:4;stroke-opacity:1;stroke-dasharray:none;stroke-dashoffset:0" />
      <path
         d="m -394.02262,517.39172 a 2.3675451,2.3675451 0 1 1 -4.73509,0 2.3675451,2.3675451 0 1 1 4.73509,0 z"
         transform="matrix(1.1183383,0,0,1.1183383,44.540586,-56.997226)"
         id="path6253"
         style="fill:#ffffff;fill-opacity:1;stroke:#000000;stroke-width:0.54135114;stroke-linecap:butt;stroke-linejoin:round;stroke-miterlimit:4;stroke-opacity:1;stroke-dasharray:none;stroke-dashoffset:0" />
    </g>
    <path
       d="m 277.5133,102.63712 0,4.75 -7.59375,0 0,6.3125 7.59375,0 0,10.09375 -14.8125,0 0,5.34375 14.8125,0 0,18.125 -10.1875,-5.4375 0,7.25 10.1875,5.4375 0,23.75 6.75,0 0,-20.15625 10.1875,5.4375 0,-7.25 -10.1875,-5.4375 0,-21.71875 14.8125,0 0,-5.34375 -14.8125,0 0,-10.09375 7.59375,0 0,-6.3125 -7.59375,0 0,-4.75 -6.75,0 z"
       id="rect6293"
       style="fill:#ffffff;fill-opacity:1;stroke:#000000" />
    <g
       transform="translate(307.23849,51.426192)"
       id="text6334"
       style="font-size:23.9090271px;font-style:normal;font-variant:normal;font-weight:normal;font-stretch:normal;text-align:start;line-height:125%;letter-spacing:-0.69000006px;word-spacing:0px;writing-mode:lr-tb;text-anchor:start;fill:#ffff00;fill-opacity:1;stroke:#ff6600;stroke-width:0.30000001;stroke-miterlimit:4;stroke-opacity:1;stroke-dasharray:none;font-family:Izhitsa;-inkscape-font-specification:Izhitsa">
      <path
         d="m -161.84451,464.12185 0.50008,-14.71947 -1.02749,-0.0349 -0.54959,-0.0187 c -0.43012,-0.0146 -0.79099,0.0449 -1.08259,0.17852 -0.27515,0.11826 -0.54086,0.4282 -0.79713,0.92983 -0.25573,0.48573 -0.53686,1.24969 -0.84339,2.29186 l -0.16204,0.54472 -0.18107,0.40054 c -0.0532,0.15769 -0.21521,0.23193 -0.48602,0.22271 -0.25489,-0.009 -0.4343,-0.12638 -0.53823,-0.3532 -0.0875,-0.24219 -0.1266,-0.49869 -0.11739,-0.76952 0.005,-0.14336 0.002,-0.29497 -0.008,-0.45482 -0.0105,-0.15983 -0.0364,-0.33615 -0.0777,-0.52894 -0.0408,-0.20871 -0.0746,-0.38529 -0.10162,-0.52976 -0.027,-0.14444 -0.0842,-0.33776 -0.17168,-0.57998 l -0.37293,-0.9935 c -0.16116,-0.42013 -0.25388,-0.74225 -0.27817,-0.96637 0.008,-0.223 0.10223,-0.42712 0.28396,-0.61234 0.18172,-0.1852 0.44782,-0.27185 0.79828,-0.25996 0.19116,0.007 0.41283,0.0539 0.66501,0.14221 l 1.02181,0.20218 c 0.3807,0.0608 0.88169,0.10174 1.50297,0.12283 l 0.45482,-0.008 0.40622,0.0138 7.09688,0.24111 0.43012,0.0146 0.4293,0.0385 c 0.62126,0.0211 1.12387,0.0143 1.50784,-0.0205 l 1.05707,-0.13155 0.64923,-0.0975 c 0.33452,0.0114 0.59439,0.10793 0.77961,0.28964 0.16818,0.21306 0.24849,0.43109 0.24093,0.6541 -0.005,0.14338 -0.11102,0.45077 -0.3184,0.92217 l -0.46421,0.98899 c -0.3303,0.80216 -0.50517,1.48998 -0.52464,2.06346 -0.0249,0.7328 -0.26038,1.09161 -0.70641,1.07645 -0.19118,-0.006 -0.34035,-0.0754 -0.44752,-0.20659 l -0.17655,-0.43661 -0.31215,-1.3742 c -0.16574,-0.7552 -0.38413,-1.36867 -0.65516,-1.8404 -0.25784,-0.39151 -0.55239,-0.64074 -0.88366,-0.7477 -0.33076,-0.12287 -0.76695,-0.1935 -1.30856,-0.21192 l -1.02749,-0.0349 -0.50009,14.71947 1.98331,0.0674 -0.0341,1.0036 -7.67037,-0.2606 0.0341,-1.0036 1.98331,0.0674"
         id="path6350"
         style="text-align:start;letter-spacing:-0.69000006px;text-anchor:start;fill:#ffff00;fill-opacity:1;stroke:#ff6600;stroke-width:0.30000001;stroke-miterlimit:4;stroke-opacity:1;stroke-dasharray:none" />
      <path
         d="m -144.6392,459.29285 -0.15881,5.37719 1.98358,0.0586 -0.0296,1.00374 -7.67146,-0.22656 0.0297,-1.00374 1.98358,0.0586 0.25833,-8.74689 0.17898,-3.63047 c 0.49545,-1.11754 1.28655,-1.98717 2.37332,-2.60889 1.08723,-0.63762 2.25221,-0.93808 3.49494,-0.9014 0.60542,0.0179 1.18531,0.0908 1.73966,0.21882 0.57073,0.11255 1.06813,0.27873 1.4922,0.49854 0.86451,0.4242 1.53242,1.02597 2.00376,1.8053 0.22814,0.37351 0.40007,0.7613 0.51578,1.16336 0.11616,0.38616 0.16742,0.81025 0.15379,1.27228 -0.0254,0.86036 -0.21554,1.62814 -0.57034,2.30334 -0.33842,0.65976 -0.84107,1.21101 -1.50793,1.65375 -0.64954,0.39542 -1.34872,0.58208 -2.09753,0.55995 -0.38239,-0.0113 -0.69166,-0.0682 -0.92781,-0.17091 l -1.01352,-0.50833 -0.51801,-0.27841 -1.71252,2.10217 m 0.0423,-1.43391 1.58669,-1.89062 0.4695,0.3009 0.40275,0.13149 c 0.3505,0.0104 0.69916,-0.18664 1.04599,-0.59101 0.3632,-0.41981 0.56175,-1.20329 0.59564,-2.35043 0.0353,-1.19492 -0.0813,-2.1073 -0.34971,-2.73715 -0.2511,-0.67714 -0.76699,-1.02725 -1.54766,-1.05032 -0.58951,-0.0174 -1.02533,0.16108 -1.30747,0.53545 -0.28215,0.37439 -0.47129,0.83922 -0.56741,1.39449 -0.0802,0.55576 -0.13204,0.96086 -0.15549,1.2153 -0.0235,0.25446 -0.0437,0.66846 -0.0606,1.24202 l -0.0169,0.57357 -0.0953,3.22631"
         id="path6352"
         style="text-align:start;letter-spacing:-0.69000006px;text-anchor:start;fill:#ffff00;fill-opacity:1;stroke:#ff6600;stroke-width:0.30000001;stroke-miterlimit:4;stroke-opacity:1;stroke-dasharray:none" />
      <path
         d="m -128.10144,448.74844 c 0.11153,0.003 0.23778,0.0539 0.37875,0.15319 l 0.60432,0.68513 c 0.55813,0.62019 1.29707,1.34065 2.21681,2.16138 l 1.30485,1.34881 c 0.34034,0.40733 0.67131,0.87021 0.9929,1.38865 0.53486,0.90659 0.78558,2.01318 0.75218,3.31977 -0.0277,1.08353 -0.25157,2.04245 -0.67151,2.87676 -0.40403,0.83473 -0.86771,1.50849 -1.39104,2.02127 l -1.56941,1.51445 -1.56697,1.41885 -1.0277,0.90647 c -0.22634,0.12177 -0.42756,0.19634 -0.60364,0.22373 -0.14342,-0.004 -0.37181,-0.11315 -0.68519,-0.32845 l -1.70811,-1.4787 -1.72834,-1.62272 c -0.31094,-0.31089 -0.65906,-0.72639 -1.04437,-1.24647 -0.38491,-0.53601 -0.71139,-1.17417 -0.97946,-1.91448 -0.22108,-0.70721 -0.32082,-1.48307 -0.29922,-2.32759 0.0709,-2.77253 1.6993,-5.34579 4.88516,-7.71977 l 0.4633,-0.34691 0.58708,-0.51115 c 0.34398,-0.35791 0.70718,-0.53198 1.08961,-0.52222 m -1.65818,3.11461 c -0.55974,0.0654 -1.06716,0.2677 -1.52228,0.60682 -0.43919,0.33956 -0.79298,0.76899 -1.06138,1.28828 -0.25246,0.51972 -0.38521,1.03453 -0.39825,1.54441 -0.0102,0.39836 0.0595,0.79079 0.20905,1.17727 0.058,0.22472 0.1324,0.4339 0.22312,0.62755 0.0911,0.17772 0.23679,0.40467 0.43701,0.68084 l 0.437,0.68085 0.60309,0.73294 1.55859,1.71404 c 0.77673,0.80116 1.27276,1.35596 1.48811,1.66441 0.18345,0.30764 0.30932,0.68556 0.37758,1.13375 0.69128,-0.22149 1.33964,-0.6354 1.94511,-1.24176 0.60586,-0.62228 0.98149,-1.28234 1.12691,-1.98019 l 0.0208,-0.81264 c -0.0405,-0.28803 -0.15163,-0.61774 -0.33346,-0.98912 -0.18144,-0.3873 -0.39555,-0.74356 -0.64233,-1.06877 l -0.88013,-1.12269 -1.20801,-1.39416 -1.06889,-1.22318 -0.67235,-0.83037 -0.39104,-0.60792 -0.24824,-0.58036"
         id="path6354"
         style="text-align:start;letter-spacing:-0.69000006px;text-anchor:start;fill:#ffff00;fill-opacity:1;stroke:#ff6600;stroke-width:0.30000001;stroke-miterlimit:4;stroke-opacity:1;stroke-dasharray:none" />
      <path
         d="m -114.82885,450.71495 -0.31369,14.72462 1.64935,0.0351 -0.0214,1.00395 -7.3384,-0.15633 0.0214,-1.00395 1.984,0.0423 0.31369,-14.72461 -1.984,-0.0423 0.0214,-1.00395 16.66081,0.35493 -0.0214,1.00395 -1.984,-0.0423 -0.31368,14.72462 1.984,0.0423 -0.0214,1.00396 -7.33841,-0.15634 0.0214,-1.00395 1.64935,0.0351 0.31369,-14.72462 -5.2827,-0.11254"
         id="path6356"
         style="text-align:start;letter-spacing:-0.69000006px;text-anchor:start;fill:#ffff00;fill-opacity:1;stroke:#ff6600;stroke-width:0.30000001;stroke-miterlimit:4;stroke-opacity:1;stroke-dasharray:none" />
      <path
         d="m -97.071018,450.72876 -1.840733,-0.0311 0.01697,-1.00403 7.434645,0.12565 -0.01697,1.00404 -1.888543,-0.0319 4.144094,15.13488 1.649487,0.0279 -0.01697,1.00404 -7.171684,-0.12121 0.01697,-1.00403 1.816827,0.0307 -1.688278,-6.22185 c -0.155833,0.73068 -0.4328,1.55497 -0.830904,2.47285 -0.333025,0.83928 -0.76126,1.65303 -1.284707,2.44126 -0.523461,0.78824 -1.107834,1.40806 -1.753122,1.85946 -0.290644,0.21827 -0.604379,0.38832 -0.941208,0.51016 -0.144246,0.0454 -0.296321,0.0827 -0.456227,0.11186 -0.159909,0.0292 -0.335489,0.0421 -0.526729,0.0389 -0.70124,-0.0118 -1.31874,-0.26141 -1.85252,-0.74868 -0.53378,-0.48727 -0.79259,-1.20902 -0.77643,-2.16525 0.0137,-0.81278 0.22074,-1.74187 0.62101,-2.78726 0.16718,-0.45947 0.37474,-0.95015 0.62269,-1.47204 0.24794,-0.52188 0.5279,-1.05119 0.83986,-1.58794 0.70603,-1.21557 1.40991,-2.30364 2.111639,-3.26423 l 0.735349,-1.06363 c 0.179881,-0.26796 0.392989,-0.61507 0.639324,-1.04134 0.147467,-0.23662 0.229576,-0.37871 0.246328,-0.42627 0.133416,-0.34844 0.203224,-0.70595 0.209427,-1.07252 l -0.0596,-0.71838 m 1.800936,6.63028 -1.011511,-3.81918 c -0.946175,1.27529 -1.73149,2.46561 -2.355948,3.57096 l -0.641343,1.16087 -0.520603,1.09118 c -0.298448,0.68045 -0.502218,1.41829 -0.611308,2.21352 l -0.0105,0.62155 c 0.11429,0.78307 0.561895,1.18121 1.342816,1.1944 0.605603,0.0102 1.177564,-0.34675 1.715884,-1.07097 0.554243,-0.72394 1.00625,-1.52933 1.35602,-2.41615 0.350023,-0.90275 0.595521,-1.75148 0.736493,-2.54618"
         id="path6358"
         style="text-align:start;letter-spacing:-0.69000006px;text-anchor:start;fill:#ffff00;fill-opacity:1;stroke:#ff6600;stroke-width:0.30000001;stroke-miterlimit:4;stroke-opacity:1;stroke-dasharray:none" />
      <path
         d="m -81.397285,460.65234 -0.06936,5.37908 1.984285,0.0256 -0.01295,1.00409 -7.67416,-0.0989 0.01295,-1.0041 1.984284,0.0256 0.112819,-8.74997 0.118575,-3.63295 c 0.476789,-1.12562 1.253322,-2.00829 2.3296,-2.64799 1.076472,-0.65562 2.236293,-0.97542 3.479467,-0.9594 0.605635,0.008 1.186653,0.0711 1.743056,0.18985 0.572525,0.10304 1.07262,0.26093 1.500287,0.47365 0.871441,0.40977 1.549274,1.00034 2.033503,1.77172 0.23433,0.36968 0.412685,0.75455 0.535066,1.15463 0.122557,0.38417 0.180864,0.80735 0.174919,1.26954 -0.01111,0.86067 -0.188427,1.6315 -0.531948,2.31251 -0.327405,0.6653 -0.82081,1.22483 -1.480215,1.6786 -0.642876,0.40617 -1.338851,0.60443 -2.087927,0.59476 -0.382523,-0.005 -0.692698,-0.0567 -0.930525,-0.15546 l -1.021838,-0.4914 -0.522564,-0.26976 -1.677328,2.13037 m 0.0185,-1.43442 1.555019,-1.91675 0.474442,0.29305 0.404878,0.12478 c 0.350627,0.005 0.695966,-0.19825 1.036017,-0.60833 0.356175,-0.42579 0.541665,-1.21247 0.556472,-2.36001 0.0154,-1.19534 -0.116327,-2.10566 -0.395187,-2.73096 -0.262325,-0.67287 -0.783964,-1.01435 -1.564918,-1.02444 -0.589715,-0.008 -1.022507,0.17812 -1.298378,0.55713 -0.275886,0.37903 -0.457266,0.84694 -0.544142,1.40373 -0.07095,0.55702 -0.116036,0.96293 -0.135255,1.21772 -0.01923,0.25482 -0.03255,0.6691 -0.03994,1.24286 l -0.0074,0.57377 -0.04161,3.22745"
         id="path6360"
         style="text-align:start;letter-spacing:-0.69000006px;text-anchor:start;fill:#ffff00;fill-opacity:1;stroke:#ff6600;stroke-width:0.30000001;stroke-miterlimit:4;stroke-opacity:1;stroke-dasharray:none" />
      <path
         d="m -64.234092,458.8567 0.8846,0.008 c -0.10778,-0.43133 -0.319786,-0.79185 -0.636018,-1.08157 -0.316672,-0.24188 -0.602513,-0.36396 -0.857525,-0.36622 -0.46223,-0.004 -0.957175,0.0872 -1.484835,0.27381 -0.511734,0.18677 -0.920564,0.45414 -1.226491,0.80211 0.165187,1.14914 0.356398,2.05941 0.573634,2.7308 l 0.300883,1.12642 0.23148,0.8628 c 0.09112,0.51089 0.133379,1.14089 0.12677,1.89001 -0.0041,0.46223 -0.08751,0.8839 -0.25027,1.26502 0.285905,0.1141 0.580278,0.17249 0.883121,0.17517 1.386661,0.0122 2.417875,-0.3373 3.093645,-1.04863 0.691688,-0.71119 1.153331,-1.54396 1.384929,-2.49832 l -1.195404,-0.0105 0.0087,-0.98024 6.263921,0.0553 -0.0087,0.98023 -0.884811,0.0161 c -0.469698,0.84067 -1.082126,1.60038 -1.837283,2.27913 -0.691431,0.67931 -1.509161,1.22202 -2.453193,1.62812 -0.944056,0.4061 -1.854392,0.60529 -2.731012,0.59754 l -0.980021,-0.0326 c -0.159395,-10e-4 -0.358559,-0.0111 -0.597491,-0.0292 -0.223009,-0.0179 -0.493686,-0.0522 -0.812031,-0.10281 -0.255026,-0.002 -0.509764,-0.0364 -0.764215,-0.10239 -0.254603,-0.0501 -0.508989,-0.12404 -0.763159,-0.22192 l 0.05331,-0.62119 c 0.0052,-0.58973 -0.117663,-1.11684 -0.368596,-1.58131 -0.234863,-0.48027 -0.588839,-1.00942 -1.06193,-1.58744 -0.709223,-0.91484 -1.252564,-1.66084 -1.630024,-2.23802 -0.313991,-0.54472 -0.556396,-1.07288 -0.727217,-1.58448 -0.06164,-0.23963 -0.107279,-0.48711 -0.136903,-0.74242 -0.02963,-0.25529 -0.04282,-0.56623 -0.03958,-0.93283 0.01647,-1.86482 0.444174,-3.36737 1.283124,-4.50766 0.855024,-1.15605 1.898289,-1.96774 3.129798,-2.43508 1.247436,-0.46717 2.524645,-0.69499 3.831629,-0.68347 0.398458,0.004 0.796715,0.031 1.194771,0.0823 0.398035,0.0514 0.827677,0.13485 1.288926,0.25049 0.843051,0.19874 1.644648,0.5804 2.404795,1.145 0.760117,0.56463 1.327085,1.34272 1.700903,2.33429 l 1.147589,0.0101 -0.0089,1.00414 -5.929208,-0.0524 0.0089,-1.00414 0.741151,0.007 c -0.121328,-0.70242 -0.434543,-1.33481 -0.939645,-1.89719 -0.473105,-0.578 -1.203752,-0.87137 -2.191944,-0.88011 -0.796944,-0.007 -1.444644,0.23432 -1.9431,0.72405 -0.482391,0.47395 -0.870761,1.13203 -1.165112,1.97423 -0.230748,0.85874 -0.349709,1.69453 -0.356882,2.5074 l 0.06117,1.19604 c 1.156449,-0.994 2.491765,-1.48432 4.005952,-1.47096 0.653478,0.006 1.258164,0.12271 1.81406,0.35076 0.540357,0.18013 1.05562,0.4955 1.545792,0.94614 0.395077,0.38606 0.717387,0.89101 0.966931,1.51487 l 0.980232,0.009 -0.0089,1.00414 -5.929208,-0.0523 0.0089,-1.00414 m 1.969127,-11.79414 c 0.0052,-0.58971 0.04828,-0.95595 0.129252,-1.09871 0.08095,-0.14273 0.225031,-0.21318 0.432246,-0.21138 l 0.812664,0.0311 1.123892,-0.014 0.286897,0.003 c 0.175312,0.002 0.277858,0.12202 0.307638,0.36137 l -0.03256,0.98002 0.01441,1.07607 c -0.0018,0.20722 -0.106642,0.34179 -0.314395,0.40369 l -0.286897,-0.003 -1.123258,-0.0577 -0.38253,-0.003 -0.430557,0.0201 -0.357988,-0.0749 -0.140281,-0.35989 -0.03853,-1.05238 m -6.120472,-0.054 c 0.0048,-0.5419 0.03968,-0.8843 0.10471,-1.02721 0.0811,-0.15866 0.233359,-0.25295 0.456788,-0.28288 l 0.812664,0.0311 1.123891,-0.014 0.286897,0.003 c 0.175319,0.002 0.277865,0.12203 0.307639,0.36137 l -0.03256,0.98002 0.01441,1.07607 c -0.0018,0.20723 -0.106635,0.34179 -0.314394,0.4037 l -0.286897,-0.003 -1.123258,-0.0577 -0.38253,-0.003 -0.430557,0.0201 c -0.159392,-0.001 -0.270822,-0.0183 -0.334291,-0.0508 l -0.163979,-0.38401 -0.03853,-1.05237"
         id="path6362"
         style="text-align:start;letter-spacing:-0.69000006px;text-anchor:start;fill:#ffff00;fill-opacity:1;stroke:#ff6600;stroke-width:0.30000001;stroke-miterlimit:4;stroke-opacity:1;stroke-dasharray:none" />
      <path
         d="m -53.716636,466.30284 0.03671,-7.57907 c 0.0046,-0.9404 0.04841,-1.76904 0.131586,-2.48593 0.08324,-0.7328 0.222162,-1.44144 0.416755,-2.12591 0.34074,-1.24162 0.982938,-2.19488 1.926595,-2.85978 0.959586,-0.6648 2.292126,-0.99308 3.997624,-0.98483 0.749131,0.004 1.426081,0.10256 2.030854,0.29674 0.620689,0.1943 1.153222,0.49176 1.597601,0.89239 0.460293,0.40073 0.792969,0.82474 0.998031,1.27202 0.09462,0.20769 0.173232,0.43122 0.235845,0.67061 0.06258,0.23941 0.09327,0.48662 0.09204,0.74163 -0.0056,1.16357 -0.384388,2.02247 -1.136217,2.5767 -0.735838,0.53839 -1.605834,0.80515 -2.60999,0.80028 -0.685394,-0.003 -1.40939,-0.26185 -2.171991,-0.77562 l -1.058354,1.30989 c 0.571564,0.46502 1.13559,0.84233 1.692079,1.13193 0.540764,0.24172 1.073799,0.43558 1.599107,0.58157 0.286663,0.0492 0.565405,0.0904 0.836227,0.12359 0.286739,0.0333 0.589506,0.0507 0.908301,0.0522 l 0.215179,10e-4 c 0.51004,0.002 0.884301,0.068 1.122784,0.19672 0.238611,0.0968 0.389299,0.24895 0.452066,0.45646 l 0.09343,0.45473 0.02113,0.57393 -0.01841,3.80149 -0.02518,0.26288 -0.0019,0.38254 c -0.0013,0.27097 -0.03429,0.49396 -0.09888,0.66898 -0.04868,0.1751 -0.208844,0.33372 -0.480491,0.47586 -0.271442,0.0943 -0.694061,0.14009 -1.267858,0.13731 l -11.524016,-0.0558 0.0049,-1.00417 1.984426,0.01 m 3.705856,0.0179 2.940776,0.0143 c 0.38253,0.002 0.653959,-0.0925 0.814287,-0.28297 0.160385,-0.20644 0.242203,-0.64438 0.245456,-1.31382 l 0.01308,-2.70169 c 0.0018,-0.3666 -0.04482,-0.62186 -0.139747,-0.76578 -0.09487,-0.15985 -0.388705,-0.37645 -0.881497,-0.64982 -0.747142,-0.41804 -1.351093,-0.7796 -1.811854,-1.08469 -0.349588,-0.22484 -0.730468,-0.56939 -1.142641,-1.03364 l -0.03786,7.81816 m 0.04192,-8.65496 1.395855,-1.88208 c 0.46107,0.24134 0.827014,0.3786 1.097834,0.41178 0.350652,0.002 0.686262,-0.17997 1.006831,-0.54504 0.336565,-0.38091 0.507014,-1.01766 0.511347,-1.91027 0.0041,-0.84476 -0.168239,-1.46724 -0.51696,-1.86743 -0.348742,-0.40016 -0.802042,-0.6016 -1.359904,-0.60432 -0.812905,-0.004 -1.372975,0.44765 -1.680213,1.3547 -0.307173,0.89114 -0.464115,2.03005 -0.470825,3.41675 l 0.02009,0.7891 -0.0041,0.83681"
         id="path6364"
         style="text-align:start;letter-spacing:-0.69000006px;text-anchor:start;fill:#ffff00;fill-opacity:1;stroke:#ff6600;stroke-width:0.30000001;stroke-miterlimit:4;stroke-opacity:1;stroke-dasharray:none" />
      <path
         d="m -33.724851,449.99414 c 0.111567,1.5e-4 0.239027,0.0481 0.382378,0.1439 l 0.620863,0.67017 c 0.573109,0.60637 1.329418,1.30857 2.26893,2.10661 l 1.337389,1.31654 c 0.350193,0.3989 0.692365,0.85356 1.026516,1.364 0.556834,0.89325 0.834504,1.99339 0.833011,3.3004 -0.0013,1.08389 -0.201617,2.04799 -0.60106,2.89231 -0.383532,0.84434 -0.830623,1.52922 -1.341275,2.05463 l -1.531969,1.55232 -1.531858,1.45668 -1.005254,0.9313 c -0.223305,0.12725 -0.422639,0.20672 -0.598,0.2384 -0.143462,-1.7e-4 -0.374463,-0.10404 -0.693003,-0.31162 l -1.743704,-1.43655 -1.767448,-1.58003 c -0.318441,-0.30322 -0.676607,-0.71008 -1.0745,-1.2206 -0.397879,-0.52646 -0.739848,-1.15646 -1.025909,-1.89 -0.238283,-0.7016 -0.356937,-1.4748 -0.355962,-2.31959 0.0032,-2.77343 1.568264,-5.38568 4.695208,-7.83675 l 0.454684,-0.35811 0.574423,-0.52534 c 0.335142,-0.3662 0.693988,-0.54909 1.07654,-0.54867 m -1.581634,3.15417 c -0.557974,0.0791 -1.060311,0.29367 -1.507012,0.64381 -0.43077,0.35018 -0.773971,0.78812 -1.029603,1.31381 -0.2397,0.52573 -0.359842,1.04362 -0.360427,1.55367 -4.63e-4,0.3985 0.07878,0.7891 0.237739,1.17182 0.0635,0.22323 0.142955,0.43054 0.238374,0.62191 0.09543,0.17545 0.246596,0.39878 0.453499,0.66998 l 0.4535,0.66997 0.620807,0.71799 1.599974,1.67548 c 0.796059,0.78195 1.305493,1.32447 1.528302,1.62757 0.190915,0.30307 0.325967,0.6778 0.405158,1.12419 0.685658,-0.23829 1.323727,-0.66792 1.914209,-1.28888 0.59048,-0.63689 0.949886,-1.30592 1.078221,-2.00711 l 9.38e-4,-0.81291 c -0.0475,-0.28696 -0.166668,-0.61385 -0.357505,-0.98068 -0.190843,-0.38276 -0.413589,-0.73368 -0.66824,-1.05277 l -0.907274,-1.10086 -1.241698,-1.36425 -1.098436,-1.19672 -0.692424,-0.8137 -0.405764,-0.5982 -0.262338,-0.57412"
         id="path6366"
         style="text-align:start;letter-spacing:-0.69000006px;text-anchor:start;fill:#ffff00;fill-opacity:1;stroke:#ff6600;stroke-width:0.30000001;stroke-miterlimit:4;stroke-opacity:1;stroke-dasharray:none" />
      <path
         d="m -25.11081,461.49616 6.933606,-0.0132 0.0026,1.38672 -6.933605,0.0132 -0.0026,-1.38672"
         id="path6368"
         style="text-align:start;letter-spacing:-0.69000006px;text-anchor:start;fill:#ffff00;fill-opacity:1;stroke:#ff6600;stroke-width:0.30000001;stroke-miterlimit:4;stroke-opacity:1;stroke-dasharray:none" />
      <path
         d="m -10.667027,455.74029 0.05588,10.59155 1.6497003,-0.009 0.0053,1.00417 -7.3399693,0.0387 -0.0053,-1.00416 1.984422,-0.0105 -0.0777,-14.72776 -1.984422,0.0105 -0.0053,-1.00416 7.3399692,-0.0387 0.0053,1.00417 -1.6497002,0.009 0.01337,2.53432 5.3180033,6.45138 -0.047552,-9.01357 -1.6496999,0.009 -0.0053,-1.00417 7.33996916,-0.0387 0.005298,1.00417 -1.98442166,0.0105 0.077697,14.72775 1.98442163,-0.0105 0.005298,1.00417 -7.33996913,0.0387 -0.0053,-1.00416 1.6496999,-0.009 -0.021821,-4.1362 -5.3178773,-6.42747"
         id="path6370"
         style="text-align:start;letter-spacing:-0.69000006px;text-anchor:start;fill:#ffff00;fill-opacity:1;stroke:#ff6600;stroke-width:0.30000001;stroke-miterlimit:4;stroke-opacity:1;stroke-dasharray:none" />
      <path
         d="m 12.414437,455.5681 -5.2214503,6.50605 0.039854,4.13607 1.6496463,-0.0159 0.00968,1.00413 -7.3397306,0.0707 -0.00968,-1.00413 1.9843571,-0.0191 -0.141907,-14.72728 -1.9843572,0.0191 -0.00968,-1.00413 7.3397306,-0.0707 0.00968,1.00413 -1.6496463,0.0159 0.086849,9.01328 5.2212194,-6.52996 -0.02442,-2.53424 -1.649646,0.0159 -0.0097,-1.00413 7.339731,-0.0707 0.0097,1.00414 -1.984357,0.0191 0.141907,14.72727 1.984358,-0.0191 0.0097,1.00414 -7.339731,0.0707 -0.0097,-1.00413 1.649646,-0.0159 -0.102053,-10.59121"
         id="path6372"
         style="text-align:start;letter-spacing:-0.69000006px;text-anchor:start;fill:#ffff00;fill-opacity:1;stroke:#ff6600;stroke-width:0.30000001;stroke-miterlimit:4;stroke-opacity:1;stroke-dasharray:none" />
      <path
         d="m 24.961346,457.6673 0.88455,-0.0122 0.325468,-0.67401 0.370647,-0.86591 0.255066,-0.57739 0.232807,-0.45752 0.883415,-1.82943 c 0.325679,-0.65805 0.660434,-1.23654 1.004267,-1.73546 0.297097,-0.41854 0.705989,-0.8227 1.226677,-1.21247 0.458231,-0.29324 0.982202,-0.44392 1.571915,-0.45207 0.733127,-0.0101 1.436368,0.12369 2.109726,0.40133 l -0.483591,1.34569 -0.08475,0.79025 -0.0559,1.14851 -0.478135,0.007 -0.7693,-0.30025 c -0.385157,-0.18596 -0.816796,-0.27566 -1.294919,-0.26908 -0.494084,0.007 -0.906271,0.17191 -1.236561,0.49526 -0.205006,0.16225 -0.416652,0.42022 -0.634939,0.77392 l -0.421425,0.65141 c -0.202149,0.36944 -0.427317,0.80294 -0.675503,1.30052 -0.248425,0.48166 -0.535476,1.05152 -0.861156,1.70957 1.231158,0.26998 2.3285,0.66135 3.29203,1.17411 0.979444,0.51255 1.795836,1.3382 2.449179,2.47693 0.669252,1.13852 1.015967,2.58436 1.040145,4.33752 l 1.434405,-0.0198 0.01384,1.00408 -6.502638,0.0896 -0.01384,-1.00408 0.932363,-0.0129 0.03002,-1.29162 c -0.01187,-0.86064 -0.09425,-1.63264 -0.247122,-2.31599 -0.152896,-0.68335 -0.400311,-1.28569 -0.742244,-1.80703 -0.341953,-0.52133 -0.802112,-0.94539 -1.380478,-1.27219 -0.578383,-0.32678 -1.299209,-0.57986 -2.162481,-0.75927 l 0.103461,7.50673 1.482219,-0.0204 0.01384,1.00408 -7.172027,0.0988 -0.01384,-1.00408 1.984261,-0.0274 -0.202969,-14.72656 -1.98426,0.0273 -0.01384,-1.00408 7.339374,-0.10115 0.01384,1.00408 -1.649566,0.0227 0.08798,6.38311"
         id="path6374"
         style="text-align:start;letter-spacing:-0.69000006px;text-anchor:start;fill:#ffff00;fill-opacity:1;stroke:#ff6600;stroke-width:0.30000001;stroke-miterlimit:4;stroke-opacity:1;stroke-dasharray:none" />
      <path
         d="m 45.1926,466.69895 -1.243077,0.0219 -0.08709,1.84282 0.01896,1.07574 c 0.01375,0.7809 0.123835,1.59996 0.330252,2.45719 l 0.01053,0.59763 -2.220246,0.20652 c -0.01321,-0.74904 -0.0022,-1.48256 0.03296,-2.20056 0.03517,-0.718 0.108777,-1.51639 0.220833,-2.39516 l 0.163862,-1.55722 -2.175384,0.0383 -4.078125,-15.66272 -0.980118,0.0173 -0.01769,-1.00403 6.43053,-0.11331 0.01769,1.00402 -1.649467,0.0291 3.212689,12.68888 0.923986,-4.55971 c 0.117657,-0.56003 0.242449,-1.16801 0.374376,-1.82396 0.147564,-0.67215 0.303668,-1.31257 0.468312,-1.92127 0.164343,-0.62462 0.276147,-1.06499 0.335411,-1.32111 0.0749,-0.27232 0.202641,-0.71297 0.383222,-1.32196 0.180279,-0.62489 0.378191,-1.15446 0.593736,-1.5887 0.231178,-0.45043 0.535348,-0.83042 0.912509,-1.13998 0.392792,-0.32574 0.899964,-0.4941 1.521515,-0.50507 0.270913,-0.005 0.470405,0.008 0.598475,0.0373 0.127762,0.0137 0.367938,0.0733 0.72053,0.17861 0.368218,0.0892 0.617766,0.22826 0.748647,0.41724 0.0034,0.19126 -0.06415,0.43157 -0.20251,0.72095 l -0.136692,0.38501 -0.06413,0.43156 c -0.04221,0.31959 -0.05586,0.90171 -0.04096,1.74635 l -0.35858,0.006 -0.192927,-0.0923 -0.241159,-0.11532 c -0.434523,-0.23145 -0.763335,-0.34522 -0.986437,-0.3413 -0.541867,0.01 -1.045949,0.35322 -1.512248,1.03098 -0.418512,0.67694 -0.786675,1.49646 -1.104488,2.45856 -0.268621,1.04096 -0.513325,2.08149 -0.734113,3.12159 l -0.480423,2.59104 -0.72611,3.5758 1.195266,-0.0211 0.01769,1.00402"
         id="path6376"
         style="text-align:start;letter-spacing:-0.69000006px;text-anchor:start;fill:#ffff00;fill-opacity:1;stroke:#ff6600;stroke-width:0.30000001;stroke-miterlimit:4;stroke-opacity:1;stroke-dasharray:none" />
      <path
         d="m 59.101179,465.41927 1.553735,-0.033 c -0.390253,-1.1077 -0.783547,-2.35883 -1.179881,-3.75339 l -0.838115,-3.42585 -0.635702,-2.90405 -0.448552,-1.97536 c -0.372976,0.45435 -0.811895,1.18112 -1.316758,2.18031 -0.581164,1.16026 -1.020764,2.22981 -1.318803,3.20866 -0.28245,0.96259 -0.41554,1.82634 -0.39927,2.59125 0.01491,0.70118 0.05016,1.23452 0.105769,1.60002 0.05526,0.34957 0.123745,0.57131 0.205462,0.66523 0.0973,0.0776 0.209701,0.11512 0.337192,0.1124 l 0.09561,-0.002 c 0.20716,-0.004 0.361939,0.15174 0.464336,0.46841 0.118322,0.31635 0.18833,0.98446 0.210024,2.00435 0.0044,0.20717 -0.103592,0.37686 -0.323976,0.50909 l -0.523846,0.1068 -0.430265,0.009 -0.384492,-0.0875 -0.645906,-0.0102 -0.764407,0.0402 c -0.414332,0.009 -0.726095,-0.0324 -0.935292,-0.1236 -0.209199,-0.0912 -0.341598,-0.31956 -0.397199,-0.68507 l -0.01779,-0.83663 c -0.01084,-0.50994 0.04901,-1.06921 0.17955,-1.67782 0.130204,-0.62454 0.338563,-1.32249 0.625077,-2.09385 0.348221,-0.86832 0.782056,-1.83412 1.301508,-2.89741 l 1.053817,-2.17471 0.458757,-0.9185 1.169777,-2.34458 c 0.304137,-0.692 0.451972,-1.2372 0.443507,-1.63561 -0.0058,-0.2709 -0.07307,-0.43687 -0.201904,-0.49791 l -0.623528,-0.0824 -1.64935,0.0351 -0.02135,-1.00395 7.888195,-0.16775 0.02135,1.00396 -1.458121,0.031 c 0.331226,2.0815 0.784523,4.27996 1.35989,6.59538 0.278004,1.07822 0.572464,2.17999 0.88338,3.30532 0.310892,1.12535 0.627899,2.16287 0.951024,3.11257 l 0.489244,1.63969 1.744964,-0.0371 0.02135,1.00395 -7.027666,0.14944 -0.02135,-1.00395"
         id="path6378"
         style="text-align:start;letter-spacing:-0.69000006px;text-anchor:start;fill:#ffff00;fill-opacity:1;stroke:#ff6600;stroke-width:0.30000001;stroke-miterlimit:4;stroke-opacity:1;stroke-dasharray:none" />
      <path
         d="m 77.408186,454.3938 -5.120078,6.58612 0.103896,4.13496 1.649202,-0.0414 0.02522,1.00386 -7.337756,0.18437 -0.02522,-1.00386 1.983823,-0.0498 -0.369942,-14.72332 -1.983824,0.0498 -0.02522,-1.00386 7.337756,-0.18438 0.02522,1.00387 -1.649202,0.0414 0.226409,9.01085 5.119477,-6.61002 -0.06366,-2.53356 -1.649202,0.0414 -0.02522,-1.00386 7.337755,-0.18437 0.02522,1.00386 -1.983823,0.0498 0.369943,14.72331 1.983823,-0.0498 0.02522,1.00387 -7.337755,0.18437 -0.02522,-1.00387 1.649203,-0.0414 -0.266046,-10.58836"
         id="path6380"
         style="text-align:start;letter-spacing:-0.69000006px;text-anchor:start;fill:#ffff00;fill-opacity:1;stroke:#ff6600;stroke-width:0.30000001;stroke-miterlimit:4;stroke-opacity:1;stroke-dasharray:none" />
      <path
         d="m 89.920725,454.05352 0.309678,10.58717 1.649017,-0.0482 0.02936,1.00375 -7.336933,0.21461 -0.02936,-1.00375 1.983601,-0.058 -0.430613,-14.72166 -1.983601,0.058 -0.02936,-1.00375 7.336933,-0.21461 0.02936,1.00375 -1.649018,0.0482 0.0741,2.53328 5.471078,6.32208 -0.263541,-9.00985 -1.649017,0.0482 -0.02936,-1.00375 7.336931,-0.21461 0.0294,1.00375 -1.983599,0.058 0.430613,14.72167 1.983596,-0.058 0.0294,1.00374 -7.336928,0.21461 -0.02936,-1.00375 1.649018,-0.0482 -0.120936,-4.1345 -5.470378,-6.29818"
         id="path6382"
         style="text-align:start;letter-spacing:-0.69000006px;text-anchor:start;fill:#ffff00;fill-opacity:1;stroke:#ff6600;stroke-width:0.30000001;stroke-miterlimit:4;stroke-opacity:1;stroke-dasharray:none" />
      <path
         d="m 108.67477,447.68601 c 0.11151,-0.004 0.24053,0.0399 0.38706,0.13078 l 0.64335,0.64862 c 0.59344,0.58648 1.37324,1.2625 2.33941,2.02805 l 1.38148,1.2702 c 0.36359,0.38673 0.72106,0.82947 1.07241,1.32822 0.58695,0.87375 0.90196,1.96379 0.94501,3.27009 0.0357,1.0833 -0.13169,2.05367 -0.50213,2.91111 -0.35453,0.85693 -0.77802,1.55665 -1.27047,2.09915 l -1.47817,1.60364 -1.48132,1.50805 -0.97293,0.96501 c -0.21883,0.1348 -0.41534,0.22101 -0.58952,0.25865 -0.14339,0.005 -0.37779,-0.0912 -0.70322,-0.28782 l -1.79166,-1.37629 -1.82027,-1.51887 c -0.32859,-0.29219 -0.70042,-0.68661 -1.11548,-1.18327 -0.41559,-0.51259 -0.77883,-1.13057 -1.08973,-1.85394 -0.26205,-0.69307 -0.40699,-1.46177 -0.43481,-2.3061 -0.0913,-2.77194 1.38379,-5.43601 4.42538,-7.99223 l 0.44221,-0.3734 0.55619,-0.54461 c 0.32246,-0.37741 0.67487,-0.57243 1.05721,-0.58504 m -1.47321,3.20624 c -0.55495,0.098 -1.04969,0.32964 -1.48419,0.6948 -0.41859,0.36466 -0.74666,0.81404 -0.98423,1.34814 -0.22164,0.5336 -0.32406,1.05528 -0.30726,1.56505 0.0131,0.39828 0.10563,0.78596 0.27754,1.16304 0.0711,0.22094 0.15754,0.42541 0.25943,0.61342 0.10135,0.1721 0.26004,0.39014 0.47607,0.65413 l 0.47607,0.65413 0.64492,0.69641 1.65615,1.61997 c 0.82225,0.75437 1.34987,1.27922 1.58288,1.57455 0.20114,0.29638 0.34888,0.66629 0.44324,1.10973 0.67714,-0.26153 1.3002,-0.71266 1.86917,-1.35338 0.56843,-0.65664 0.90483,-1.33754 1.00919,-2.0427 l -0.0268,-0.81246 c -0.0573,-0.28517 -0.18749,-0.60782 -0.39072,-0.96793 -0.20378,-0.37603 -0.43836,-0.71916 -0.70374,-1.02938 l -0.94427,-1.0693 -1.28747,-1.32114 -1.13858,-1.15858 -0.71976,-0.78963 -0.42592,-0.58402 -0.28175,-0.56485"
         id="path6384"
         style="text-align:start;letter-spacing:-0.69000006px;text-anchor:start;fill:#ffff00;fill-opacity:1;stroke:#ff6600;stroke-width:0.30000001;stroke-miterlimit:4;stroke-opacity:1;stroke-dasharray:none" />
    </g>
  </g>
</svg>
