<?xml version="1.0" encoding="UTF-8" standalone="no"?>
<!-- Created with Inkscape (http://www.inkscape.org/) -->

<svg
   xmlns:dc="http://purl.org/dc/elements/1.1/"
   xmlns:cc="http://creativecommons.org/ns#"
   xmlns:rdf="http://www.w3.org/1999/02/22-rdf-syntax-ns#"
   xmlns:svg="http://www.w3.org/2000/svg"
   xmlns="http://www.w3.org/2000/svg"
   xmlns:xlink="http://www.w3.org/1999/xlink"
   xmlns:sodipodi="http://sodipodi.sourceforge.net/DTD/sodipodi-0.dtd"
   xmlns:inkscape="http://www.inkscape.org/namespaces/inkscape"
   width="646.8125"
   height="717.875"
   id="svg22893"
   version="1.1"
   inkscape:version="0.48.4 r9939"
   sodipodi:docname="Nieuw document 37">
  <defs
     id="defs22895">
    <linearGradient
       inkscape:collect="always"
       xlink:href="#linearGradient6316-7-6"
       id="linearGradient22208-28"
       x1="1361.6556"
       y1="1978.11"
       x2="2700.9631"
       y2="1978.11"
       gradientUnits="userSpaceOnUse"
       gradientTransform="matrix(-0.08831951,0,0,0.10300693,352.28925,254.70204)" />
    <linearGradient
       id="linearGradient6316-7-6">
      <stop
         style="stop-color:#a3a3a3;stop-opacity:1;"
         offset="0"
         id="stop6318-2-7" />
      <stop
         style="stop-color:#b0b0b0;stop-opacity:1;"
         offset="0.14285725"
         id="stop6320-3-0" />
      <stop
         id="stop6322-7-8"
         offset="0.32142863"
         style="stop-color:#d1d1d1;stop-opacity:1;" />
      <stop
         style="stop-color:#bdbdbd;stop-opacity:1;"
         offset="0.5"
         id="stop6324-8-1" />
      <stop
         id="stop6326-5-8"
         offset="0.75"
         style="stop-color:#e5e5e5;stop-opacity:1;" />
      <stop
         style="stop-color:#cccccc;stop-opacity:1;"
         offset="0.875"
         id="stop6328-8-3" />
      <stop
         id="stop6330-58-0"
         offset="1"
         style="stop-color:#cccccc;stop-opacity:1;" />
    </linearGradient>
    <linearGradient
       inkscape:collect="always"
       xlink:href="#linearGradient6316-8-7-6"
       id="linearGradient22269-3"
       x1="1961.5048"
       y1="1735.3564"
       x2="2700.9143"
       y2="1735.3564"
       gradientUnits="userSpaceOnUse"
       gradientTransform="matrix(-0.06554567,0,0,0.06390289,694.12527,270.15508)" />
    <linearGradient
       id="linearGradient6316-8-7-6">
      <stop
         style="stop-color:#a3a3a3;stop-opacity:1;"
         offset="0"
         id="stop6318-6-3-2" />
      <stop
         style="stop-color:#b0b0b0;stop-opacity:1;"
         offset="0.14285725"
         id="stop6320-0-3-0" />
      <stop
         id="stop6322-1-1-2"
         offset="0.32142863"
         style="stop-color:#d1d1d1;stop-opacity:1;" />
      <stop
         style="stop-color:#bdbdbd;stop-opacity:1;"
         offset="0.5"
         id="stop6324-2-0-8" />
      <stop
         id="stop6326-6-8-4"
         offset="0.75"
         style="stop-color:#e5e5e5;stop-opacity:1;" />
      <stop
         style="stop-color:#cccccc;stop-opacity:1;"
         offset="0.875"
         id="stop6328-0-1-1" />
      <stop
         id="stop6330-5-0-8"
         offset="1"
         style="stop-color:#cccccc;stop-opacity:1;" />
    </linearGradient>
    <linearGradient
       inkscape:collect="always"
       xlink:href="#linearGradient22158-7"
       id="linearGradient22164-3"
       x1="2203.5713"
       y1="375.93143"
       x2="2335.7141"
       y2="375.93143"
       gradientUnits="userSpaceOnUse" />
    <linearGradient
       inkscape:collect="always"
       id="linearGradient22158-7">
      <stop
         style="stop-color:#000000;stop-opacity:1;"
         offset="0"
         id="stop22160-5" />
      <stop
         style="stop-color:#000000;stop-opacity:0;"
         offset="1"
         id="stop22162-8" />
    </linearGradient>
    <linearGradient
       y2="450.21106"
       x2="1939.2794"
       y1="450.21106"
       x1="1375.6614"
       gradientTransform="matrix(-0.99999999,0,0,1,1974.4603,1.7702695)"
       gradientUnits="userSpaceOnUse"
       id="linearGradient22482-1"
       xlink:href="#linearGradient6235-9-7"
       inkscape:collect="always" />
    <linearGradient
       id="linearGradient6235-9-7">
      <stop
         id="stop6237-2-0"
         offset="0"
         style="stop-color:#cc992d;stop-opacity:1;" />
      <stop
         id="stop6239-4-4"
         offset="0.14285725"
         style="stop-color:#e1a832;stop-opacity:1;" />
      <stop
         style="stop-color:#e5cf5c;stop-opacity:1;"
         offset="0.32142863"
         id="stop6241-9-8" />
      <stop
         id="stop6243-1-8"
         offset="0.5"
         style="stop-color:#e5c547;stop-opacity:1;" />
      <stop
         style="stop-color:#ffffa3;stop-opacity:1;"
         offset="0.75"
         id="stop6245-5-1" />
      <stop
         id="stop6247-7-3"
         offset="0.875"
         style="stop-color:#ffd94d;stop-opacity:1;" />
      <stop
         style="stop-color:#ffdb4e;stop-opacity:1;"
         offset="1"
         id="stop6249-3-6" />
    </linearGradient>
  </defs>
  <sodipodi:namedview
     id="base"
     pagecolor="#ffffff"
     bordercolor="#666666"
     borderopacity="1.0"
     inkscape:pageopacity="0.0"
     inkscape:pageshadow="2"
     inkscape:zoom="0.7"
     inkscape:cx="-1.4074285"
     inkscape:cy="340.23468"
     inkscape:document-units="px"
     inkscape:current-layer="layer1"
     showgrid="false"
     fit-margin-top="0"
     fit-margin-left="0"
     fit-margin-right="0"
     fit-margin-bottom="0"
     inkscape:window-width="1600"
     inkscape:window-height="837"
     inkscape:window-x="-8"
     inkscape:window-y="-8"
     inkscape:window-maximized="1" />
  <metadata
     id="metadata22898">
    <rdf:RDF>
      <cc:Work
         rdf:about="">
        <dc:format>image/svg+xml</dc:format>
        <dc:type
           rdf:resource="http://purl.org/dc/dcmitype/StillImage" />
        <dc:title></dc:title>
      </cc:Work>
    </rdf:RDF>
  </metadata>
  <g
     inkscape:label="Laag 1"
     inkscape:groupmode="layer"
     id="layer1"
     transform="translate(23.40625,-30.625)">
    <path
       inkscape:connector-curvature="0"
       id="path15028-58-75"
       d="m 299.67185,747.96502 c 0,-0.78942 -5.03777,-8.36249 -8.18418,-12.30256 -9.77923,-12.24748 -21.81805,-21.07735 -36.56362,-26.81774 -6.10577,-2.37693 -14.32379,-4.42478 -21.58402,-5.37804 -1.67941,-0.22032 -3.47984,-0.46268 -4.0008,-0.53815 -0.52119,-0.075 -39.2309,-0.19923 -86.02094,-0.2726 l -85.073025,-0.13594 -3.053353,-0.42635 c -4.540317,-0.63402 -7.53187,-1.17288 -10.931586,-1.96933 C 33.350124,697.5683 22.443682,692.63444 13.392655,686.16087 7.4821591,681.93345 0.82442211,675.60286 -3.9988139,669.62362 -13.201168,658.21666 -19.857026,643.62037 -22.203789,629.70077 c -0.986923,-5.85595 -0.930293,12.50859 -0.934757,-302.92503 l 0,-295.921051 323.130206,0 323.12997,0 0,295.921051 c 0,315.43362 0.0517,297.06908 -0.93475,302.92503 -2.34677,13.9196 -9.00239,28.51589 -18.20474,39.92285 -4.82324,5.97924 -11.48121,12.30983 -17.39124,16.53725 -9.0616,6.48107 -19.94548,11.40462 -30.8679,13.96344 -3.39972,0.79645 -6.39127,1.33531 -10.93182,1.96933 l -3.05336,0.42635 -85.07279,0.13594 c -46.79026,0.075 -85.49975,0.19689 -86.0207,0.2726 -0.52143,0.075 -2.32162,0.31759 -4.00104,0.53815 -23.79895,3.1251 -43.76064,14.17767 -58.14787,32.19578 -2.8454,3.5634 -7.6496,10.70404 -8.24645,12.25686 -0.16684,0.43033 -0.56913,0.46291 -0.56913,0.0469 z"
       style="fill:#041861;fill-opacity:1" />
    <path
       sodipodi:nodetypes="cccccccccccc"
       inkscape:connector-curvature="0"
       id="path15042-78-3"
       d="m -23.141366,30.855626 16.4846741,14.959116 0,576.483348 c 1.187833,28.73879 28.2527939,60.5122 65.1550319,65.79906 l 172.42655,0 c 20.665,0 69.25993,20.49794 69.25993,39.90387 l -0.22088,20.13604 C 281.12921,716.32615 254.54549,705.45429 229.202,702.79328 l -0.0235,0 -170.690979,0 c -41.069159,-3.83716 -79.354029,-37.24145 -81.639696,-80.49519 z"
       style="opacity:0.38492061;fill:#ffffff;fill-opacity:0.41509435;stroke:#000000;stroke-width:0.20527959px;stroke-linecap:butt;stroke-linejoin:miter;stroke-opacity:0" />
    <path
       sodipodi:nodetypes="cccccccccccc"
       inkscape:connector-curvature="0"
       id="path15042-7-9-4"
       d="m 623.13197,30.851876 -16.48467,14.958881 0,576.483583 c -1.18783,28.73856 -28.2528,60.51197 -65.15527,65.79859 l -172.42654,0 c -20.665,0 -69.25993,20.49794 -69.25993,39.9041 l 0.22088,20.13605 c 18.8352,-31.81068 45.41892,-42.68254 70.76217,-45.34378 l 0.0235,0 170.6912,0 c 41.06894,-3.83693 79.35404,-37.24169 81.63971,-80.49496 z"
       style="opacity:0.44444442;fill:#000000;fill-opacity:0.83018871;stroke:#000000;stroke-width:0.20527959px;stroke-linecap:butt;stroke-linejoin:miter;stroke-opacity:0" />
    <path
       inkscape:connector-curvature="0"
       id="path15070-7-3"
       d="m 623.15218,30.855626 -16.50371,14.959116 -613.3051619,0 -16.4846741,-14.959116 z"
       style="fill:#ffffff;fill-opacity:0.41509435;stroke:#000000;stroke-width:0.20527959px;stroke-linecap:butt;stroke-linejoin:miter;stroke-opacity:0" />
    <path
       style="fill:#000000;fill-opacity:0.5235849"
       d="m 317.16888,590.20898 c -63.50222,-4.85692 -136.50071,-34.4986 -170.41301,-69.19774 l -6.41301,-6.56181 -2.99111,1.54675 -2.99108,1.54673 -7.73329,-8.35535 -7.73332,-8.35537 3.11301,-1.64232 3.11299,-1.64233 -3.47559,-1.48454 c -1.9116,-0.81649 -7.69361,-3.35548 -12.84901,-5.64222 -6.8669,-3.04589 -13.418315,-4.95074 -24.500005,-7.12335 C 57.568964,478.05759 47.56417,473.0137 43.76717,462.86535 c -4.333204,-11.58147 -3.731909,-25.93357 1.649783,-39.37668 3.256612,-8.13489 12.562101,-22.2173 19.963697,-30.2119 l 5.526512,-5.96928 -2.736903,-2.15283 c -1.505293,-1.18406 -3.300789,-3.49409 -3.990108,-5.1334 -1.116797,-2.656 -0.994983,-3.36099 1.117715,-6.47434 1.304101,-1.92161 2.352989,-4.21852 2.330995,-5.10427 -0.02491,-1.01214 -0.589405,-0.59811 -1.518805,1.1144 -2.715801,5.00439 -7.362306,6.13735 -11.031899,2.68995 -2.137394,-2.00802 -2.317789,-2.02082 -4.874391,-0.3457 -2.370495,1.55318 -2.817008,1.57739 -4.168505,0.22595 -1.6773,-1.67733 -3.305794,-7.66892 -3.342498,-12.2982 -0.0141,-1.7959 -1.424201,-4.97278 -3.507196,-7.90256 -1.915806,-2.69462 -3.772609,-6.44161 -4.126303,-8.32663 -0.752106,-4.00919 -2.59481,-5.03138 -5.890405,-3.26761 -3.549188,1.89948 -5.500006,0.65488 -5.500006,-3.50912 0,-2.10452 -0.897795,-4.7862 -2.185495,-6.52787 l -2.1854,-2.95601 2.254696,-5.43989 c 1.809806,-4.36662 2.031911,-5.85611 1.125516,-7.54971 -0.62101,-1.16041 -0.98972,-3.55154 -0.819217,-5.31362 0.240809,-2.4896 1.029596,-3.53816 3.538308,-4.70379 2.883109,-1.33958 3.2306,-1.95075 3.250009,-5.71481 0.02491,-4.84635 1.731698,-6.28518 7.4559,-6.28518 3.546486,0 3.565684,-0.0237 3.565684,-4.39302 0,-4.99995 1.045104,-5.79848 6.442306,-4.92265 l 3.557694,0.57735 0,-4.26678 0,-4.26675 4.523704,0.62005 c 4.420711,0.60592 4.562405,0.53902 6.219896,-2.93674 l 1.696098,-3.5568 5.852315,0.67921 c 5.204305,0.60405 6.115587,0.43186 8.230705,-1.55523 l 2.378483,-2.23447 3.7298,2.2006 c 3.49942,2.06472 4.1184,2.12334 10.02361,0.94958 5.8099,-1.15486 6.4574,-1.10296 8.422015,0.67496 1.17049,1.05927 2.74099,3.11101 3.48999,4.55941 1.07558,2.07999 2.36758,2.78219 6.1476,3.34123 5.91839,0.87528 8.2858,2.88232 8.2858,7.02452 0,2.40529 0.5969,3.45645 2.43949,4.29598 2.4068,1.09665 4.5426,6.16272 4.55491,10.80456 0,1.15225 0.9056,2.90949 2.00559,3.90498 1.52261,1.37797 2,3.07997 2,7.13083 0,3.55741 0.66162,6.40595 1.99631,8.59501 2.3662,3.88105 2.5618,7.65404 0.5355,10.33303 -0.80751,1.06763 -1.4825,3.66325 -1.5,5.76805 -0.024,2.87062 -0.76221,4.55737 -2.9549,6.75 -3.31611,3.31617 -4.3122,3.54941 -6.07691,1.42309 -2.4232,-2.91975 -3.01279,-1.44552 -0.99999,2.49999 1.12239,2.20001 2.21459,3.99999 2.42711,3.99999 0.21266,0 3.24089,-1.27612 6.72969,-2.83586 14.62989,-6.54065 31.79429,-10.01397 41.0401,-8.30479 6.6696,1.23295 14.33379,4.90326 17.63829,8.44685 4.3923,4.70998 5.06891,8.77955 4.4439,26.72824 -0.69958,20.08895 0.67391,27.88477 7.366,41.80918 4.31361,8.97538 4.56422,9.27694 6.35971,7.65202 1.02809,-0.93035 2.34749,-1.3959 2.9322,-1.03456 0.67879,0.4195 1.06829,-0.71974 1.07769,-3.15205 0.031,-8.04036 6.1549,-13.7584 13.98529,-13.05875 3.67383,0.32826 6.30971,-0.40045 14.35631,-3.96901 28.0247,-12.42861 54.776,-28.13648 73.6437,-43.24233 10.767,-8.62023 23.00001,-20.09966 23.00001,-21.58315 0,-0.76638 -1.97291,-4.44494 -4.38419,-8.17459 -17.86221,-27.62817 -16.18282,-60.97041 4.47198,-88.78119 5.4997,-7.40505 15.62889,-16.91741 22.20801,-20.85562 13.7,-8.20068 27.495,-4.25468 32.21808,9.21584 3.52182,10.0442 2.68871,35.84032 -1.63528,50.63978 -3.75271,12.84392 -15.82071,34.84331 -27.15371,49.49999 -2.76428,3.57501 -5.4208,7.01118 -5.90319,7.63592 -0.96159,1.24519 10.10229,8.79333 20.74419,14.15235 13.52641,6.81162 36.52701,13.29726 59.63061,16.81442 13.2361,2.01501 59.1176,2.97387 75.30579,1.5738 7.00312,-0.60566 13.25091,-1.6891 15.00002,-2.6011 1.64867,-0.85967 4.05329,-1.56583 5.34339,-1.56921 3.376,-0.009 8.14218,3.09723 8.805,5.73822 0.4862,1.93713 1.5842,0.78187 7.59409,-7.98991 16.99332,-24.80255 27.8385,-35.1933 43.11591,-41.30928 5.37701,-2.15255 6.95151,-2.43096 8.14522,-1.4403 3.84347,3.18984 4.35028,18.28649 0.74759,22.2675 -1.3714,1.51542 -2.539,1.73848 -6.35329,1.21388 -6.17493,-0.84926 -10.93641,1.58465 -17.80713,9.10229 -7.22,7.8998 -17.22029,28.2072 -17.7807,36.10702 -0.21994,3.10048 -1.2646,7.69983 -2.32129,10.22082 -1.05671,2.52098 -2.6316,7.73359 -3.4997,11.5836 -10.99399,48.75579 -33.9577,93.08333 -63.4606,122.5 -43.2239,43.0975 -101.03961,62.26824 -171.53079,56.87677 z m 62.28938,-95.93455 c 59.75452,-6.50898 109.48511,-36.72941 141.52182,-86.0002 7.85139,-12.0752 14.0978,-23.95416 13.06529,-24.84694 -2.93991,-2.54222 -9.5357,-3.06193 -24.9885,-1.96902 -19.43971,1.37492 -59.84381,0.51122 -74.19151,-1.58594 -32.6365,-4.77034 -58.3792,-13.43 -78.3154,-26.34478 -5.26,-3.40744 -9.8487,-6.19534 -10.19699,-6.19534 -0.34831,0 -4.35731,3.40143 -8.90869,7.55878 -21.87182,19.97781 -48.52731,37.10893 -83.9989,53.98484 -16.11042,7.66471 -16.72452,8.06633 -16.75371,10.95636 -0.0599,5.96009 -5.16631,11.60427 -11.73661,12.97336 -2.77229,0.57764 -3.0616,0.91341 -2.1059,2.44373 0.87981,1.40878 0.6422,2.404 -1.154,4.83343 -1.24399,1.68265 -1.99131,3.49714 -1.66059,4.0322 1.4351,2.32201 17.85281,15.43453 25.6343,20.47368 24.64119,15.9571 56.63539,26.64486 90,30.06477 8.1072,0.831 34.80261,0.59999 43.78939,-0.37893 z M 228.35447,424.15789 c 2.36899,-2.22556 3.08809,-4.8257 1.3347,-4.8257 -0.53881,0 -1.8979,-1.8 -3.02032,-3.99999 -2.26348,-4.4369 -2.84367,-4.64933 -6.92848,-2.537 -4.5922,2.37473 -5.3699,6.61659 -1.99889,10.90214 2.62138,3.33253 7.33798,3.5372 10.61299,0.46055 z m 308.12129,-50.59374 c 0.28022,-1.86159 -2.95969,-5.23194 -5.02939,-5.23194 -0.95101,0 -1.04451,8.39962 -0.10409,9.34013 1.08559,1.08563 4.79889,-1.88605 5.13339,-4.10819 z m -180.1015,-60.13407 c 8.87651,-12.29893 18.16451,-28.01524 19.83321,-33.55994 4.0673,-13.51447 5.8275,-37.16085 3.3229,-44.63872 -1.53812,-4.59206 -4.70701,-7.89923 -7.56911,-7.89923 -6.909,0 -20.79969,11.32143 -28.74579,23.4291 -16.0747,24.49321 -16.5393,51.16563 -1.2791,73.44098 l 2.99379,4.37008 2.61941,-3.27218 c 1.4406,-1.7997 5.4117,-7.14124 8.82469,-11.87009 z"
       id="path22486-7"
       inkscape:connector-curvature="0" />
    <path
       style="fill:url(#linearGradient22482-1);fill-opacity:1;stroke:none"
       d="M 173.96445,337.81502 C 135.28695,319.68639 8.0448471,401.38934 41.107341,464.95785 51.524035,476.312 73.106332,479.29192 93.964435,482.81501 l 32.142905,14.28572 c 36.9545,79.45254 370.355,200.75451 426.4286,-112.14286 4.6157,-11.52165 15.9543,-43.54945 35.00004,-45.35714 15.00631,11.32237 12.86029,-31.77527 2.49999,-22.49999 -25.08454,6.9947 -41.04811,34.25821 -57.85723,59.64283 -71.83669,157.03657 -268.46281,133.14176 -326.50738,52.30839 -12.66521,-15.54101 -18.98521,-33.62013 -18.1827,-54.54822 0.16707,-13.05462 7.71849,-27.41232 -13.52421,-36.68872 z"
       id="path22146-3-8"
       inkscape:connector-curvature="0"
       sodipodi:nodetypes="ccccccccccc" />
    <path
       sodipodi:type="arc"
       style="opacity:0.23558894;fill:url(#linearGradient22164-3);fill-opacity:1;stroke:none"
       id="path22148-4-9"
       sodipodi:cx="2269.6428"
       sodipodi:cy="375.93143"
       sodipodi:rx="66.071426"
       sodipodi:ry="36.42857"
       d="m 2335.7142,375.93143 c 0,20.11894 -29.5811,36.42857 -66.0714,36.42857 -36.4902,0 -66.0714,-16.30963 -66.0714,-36.42857 0,-20.11895 29.5812,-36.42857 66.0714,-36.42857 36.4903,0 66.0714,16.30962 66.0714,36.42857 z"
       transform="matrix(0.92975326,-0.74303232,0.66093051,0.76941356,-2248.9937,1798.3793)" />
    <path
       style="fill:#000000;fill-opacity:0.09433965;stroke:none"
       d="m 42.265261,466.44771 c 60.462219,24.52382 145.210099,-58.09953 140.984799,-91.48985 9.6178,32.85315 -2.03109,66.40163 -13.2431,81.21306 -27.59751,36.457 7.56441,64.60485 40.386,64.50123 43.87281,94.53246 309.3442,74.74399 332.50001,-134.64285 3.2787,-16.63904 12.8265,-38.79673 41.69641,-51.96428 -2.46851,-1.83924 -2.4699,-13.11662 5.26789,-17.14286 -10.04608,9.16103 -4.2911,19.51442 -0.2176,20.82564 0.99052,0.31879 2.02301,0.0342 2.98152,-0.0352 3.22259,-0.23275 5.13769,-6.12824 5.09309,-16.50489 2.48279,22.72009 -6.53811,23.17536 -10.3571,18.39286 -21.09662,4.51063 -27.90681,31.46245 -35.8929,50.17857 -31.33251,249.86608 -325.26302,246.9502 -425.84761,107.96308 L 93.796875,482.08487 C 76.15327,479.04886 57.998863,478.39639 42.265167,466.44759 z"
       id="path22166-2-5"
       inkscape:connector-curvature="0"
       sodipodi:nodetypes="ccsccccsscccccc" />
    <path
       style="fill:url(#linearGradient22269-3);fill-opacity:1"
       d="m 550.23145,397.53023 c 2.8379,-2.35218 4.74489,-12.57339 2.99649,-12.50573 l -0.2601,-0.0333 0.0449,0.0286 c -5.72919,-3.44241 -3.77388,-2.19003 -9.9437,-7.0478 -1.84599,-1.53085 -3.96219,-3.5134 -5.51568,-5.16729 l -0.89472,-0.95251 0.036,-1.00294 c 0.0421,-1.18765 -0.035,-1.78489 -0.35458,-2.74525 -0.60781,-1.82544 -1.9206,-3.40346 -3.75901,-4.51807 -3.76241,-2.2812 -8.9477,-1.99253 -12.3544,0.68775 -1.60551,1.26318 -2.6904,2.98455 -3.0576,4.8515 -0.11702,0.59523 -0.0971,2.15975 0.0341,2.73742 0.7687,3.36837 3.51761,5.8642 7.382,6.70221 0.6614,0.14344 0.9344,0.16595 2.2285,0.18352 l 1.47481,0.0211 0.52439,0.66083 c 2.8148,3.5473 6.2136,7.6663 9.63521,10.10954 5.40789,3.86161 5.64868,5.56503 11.92678,7.98035 l 0.0371,-0.0164 -0.18094,-0.0164 z m -24.87789,-23.00085 c -1.1895,-0.34045 -1.93043,-0.77587 -2.71642,-1.59651 -1.8204,-1.90033 -1.49948,-4.70733 0.72431,-6.33708 1.04739,-0.76762 2.27129,-1.14114 3.7149,-1.13381 1.51389,0.007 2.80829,0.4448 3.87121,1.30723 2.14897,1.74359 2.2378,4.59816 0.20067,6.45608 -0.6137,0.55977 -1.06381,0.83269 -1.84491,1.11873 -0.8692,0.3183 -1.4536,0.40662 -2.48928,0.37617 -0.70262,-0.0211 -1.00342,-0.06 -1.4606,-0.19079 z"
       id="path22261-2-5"
       inkscape:connector-curvature="0"
       sodipodi:nodetypes="cccccsccccsccccccsccccccscccccc" />
    <path
       style="fill:url(#linearGradient22208-28);fill-opacity:1"
       d="m 121.57684,505.83426 -7.83539,-8.31747 0.9023,-0.40022 c 20.25999,-8.98719 37.81771,-21.1122 54.6005,-37.70617 10.26809,-10.15262 20.86149,-22.75025 32.0114,-38.06798 1.134,-1.55795 2.0985,-2.8492 2.14329,-2.8694 0.0451,-0.0211 0.72121,0.53213 1.50342,1.22737 0.78208,0.69522 1.39689,1.18729 1.36599,1.09352 -0.4569,-1.38835 -0.68901,-2.92332 -0.6857,-4.53298 0.009,-4.43474 2.06229,-8.43199 5.65829,-11.01635 4.03631,-2.90079 9.48241,-3.21384 13.83751,-0.79547 3.61769,2.00896 6.01659,5.3857 6.79539,9.56571 0.20749,1.11238 0.20585,3.49372 0,4.64944 -1.0186,5.64244 -5.21128,9.92246 -10.7464,10.97016 -1.04919,0.19852 -3.3033,0.23274 -4.27279,0.0647 -0.3382,-0.0586 -0.6238,-0.0961 -0.6348,-0.0834 -0.0118,0.0117 0.79158,0.73439 1.78309,1.60369 l 1.80301,1.58052 -0.72231,1.09556 c -6.8906,10.45054 -13.764,19.59892 -21.57019,28.70954 -5.49681,6.41546 -9.31061,10.50747 -14.4002,15.45112 -16.0688,15.60783 -33.7568,27.63637 -52.02009,35.37581 -0.77732,0.32937 -1.47282,0.62608 -1.54571,0.65943 -0.09,0.041 -2.6557,-2.61788 -7.96781,-8.2569 z m 98.80599,-82.72912 c 2.89073,-0.69585 5.13252,-3.08181 5.64441,-6.00739 0.17224,-0.98441 0.17365,-1.67592 0.009,-2.60234 -0.5273,-2.90349 -2.7214,-5.23951 -5.62659,-5.99056 -0.85261,-0.22056 -2.72281,-0.2222 -3.56783,-0.005 -2.77628,0.71858 -4.84718,2.79733 -5.56408,5.58532 -0.2406,0.9354 -0.22229,2.56208 0.04,3.54759 0.60789,2.28554 2.13029,4.084 4.2745,5.04993 1.37251,0.61834 3.2791,0.78577 4.79429,0.42104 z"
       id="path22200-0-5"
       inkscape:connector-curvature="0" />
    <path
       style="fill:#aa0000"
       d="m 221.66583,411.43219 c -1.20599,-2.8034 -2.01398,-5.27584 -1.79558,-5.49427 0.21853,-0.21845 6.88729,-3.2594 14.81959,-6.75764 39.7423,-17.52686 68.0165,-36.02496 97.2498,-63.62465 0.45511,-0.42965 -1.02609,-3.19885 -3.29148,-6.15376 -9.5979,-12.51918 -14.27221,-26.56723 -14.43162,-43.37258 -0.14592,-15.38455 3.41382,-27.55698 12.49941,-42.74247 5.6905,-9.51102 20.49769,-24.32519 27.99229,-28.00555 14.6615,-7.19977 26.56051,-2.89678 31.54332,11.40675 1.48499,4.26277 1.84028,8.06714 1.75959,18.84126 -0.14311,19.12715 -2.82291,31.92999 -9.4806,45.29423 -5.78901,11.62061 -15.324,26.37529 -23.4555,36.29556 l -5.54731,6.76767 2.7922,2.25536 c 4.87081,3.93422 18.3039,11.57736 26.2021,14.90837 17.00641,7.17239 39.23441,12.3129 65.0902,15.05289 17.3347,1.83702 54.82181,1.50016 71.86351,-0.64574 10.8034,-1.36036 11.0967,-1.19725 11.12119,6.18443 l 0.0141,4.61275 -12.75002,1.38723 c -18.94519,2.06133 -64.2848,1.81618 -80.25,-0.43388 -38.01739,-5.35794 -65.08919,-14.66568 -85.4501,-29.37914 -3.27249,-2.36485 -6.25688,-4.29973 -6.63189,-4.29973 -0.3751,0 -4.4475,3.49395 -9.0499,7.76436 -24.94451,23.14482 -53.43261,41.20599 -92.7471,58.80057 -7.9084,3.53928 -14.7155,6.43508 -15.12681,6.43508 -0.41138,0 -1.73459,-2.2937 -2.94058,-5.0971 z m 128.52402,-97.62196 c 6.8394,-9.05054 15.93909,-23.92099 19.44789,-31.78093 5.5865,-12.51436 8.60301,-39.38637 5.58619,-49.76395 -2.78199,-9.56952 -7.81558,-10.88095 -17.72558,-4.6181 -13.14509,8.30737 -25.13219,26.07525 -29.94229,44.38204 -4.24142,16.14222 -0.38241,35.04322 10.08828,49.41192 l 3.215,4.41191 1.93761,-2.4119 c 1.06569,-1.32657 4.39249,-5.66052 7.3929,-9.63099 z"
       id="path22275-1-6"
       inkscape:connector-curvature="0" />
    <path
       style="fill:#b41d1d;fill-opacity:1;stroke:none"
       d="m 269.31097,381.82733 c 52.8418,-25.31691 82.67618,-61.00971 101.2677,-101.77285 -22.83731,43.51945 -56.2085,77.78183 -101.2677,101.77285 z"
       id="path22277-2-6"
       inkscape:connector-curvature="0"
       sodipodi:nodetypes="ccc" />
    <path
       style="fill:#8b0000;fill-opacity:1;stroke:none"
       d="m 298.85788,378.03927 c 30.7546,-20.96344 59.66889,-45.4639 77.7818,-84.09521 -20.32012,35.24091 -48.11411,60.87265 -77.7818,84.09521 z"
       id="path22279-7-3"
       inkscape:connector-curvature="0"
       sodipodi:nodetypes="ccc" />
    <path
       style="fill:#ffffff;fill-opacity:0.07547171;stroke:none"
       d="m 380.39297,229.60071 c -24.09641,-30.24654 -64.29561,33.37874 -61.7857,71.78571 -3.87851,-33.77171 11.508,-62.24904 28.4858,-74.77017 21.46269,-15.82867 28.9252,-11.86477 33.2999,2.98446 z"
       id="path22281-7-0"
       inkscape:connector-curvature="0"
       sodipodi:nodetypes="ccsc" />
    <path
       style="fill:#ffffff;fill-opacity:0.10849053;stroke:none"
       d="m 219.30836,453.29563 c -15.09079,17.8657 -13.53009,41.0599 5.05081,69.70053 127.2327,77.18706 249.4807,17.79017 299.0051,-97.98482 -96.1276,152.39745 -249.1142,108.63047 -304.05591,28.28429 z"
       id="path22283-0-0"
       inkscape:connector-curvature="0"
       sodipodi:nodetypes="cccc" />
    <path
       style="fill:#deaa87;stroke:none"
       d="m 92.535865,453.17213 c 38.028915,-13.53961 64.233795,-40.47973 82.073305,-76.90064 -22.3259,-5.11046 -47.58522,-3.14642 -59.09401,-34.34516 L 88.250055,301.74358 42.17867,301.02929 c -3.839813,16.76451 -23.90051,30.54095 -4.950313,51.50363 0.918614,18.83613 4.986712,20.57478 10.606606,13.88958 2.060296,2.23288 2.893988,5.69231 8.08121,4.79823 5.899898,-2.94628 5.513588,-5.89254 7.071094,-8.83882 0.140989,4.62971 -2.266211,9.26307 -5.050815,10.6066 4.412604,18.63083 20.709903,10.37533 28.284303,7.3236 l 8.83882,10.35407 c 6.361595,7.09345 -2.85851,20.12367 -8.32632,31.7026 -5.0355,10.66349 -1.1989,22.34363 4.79081,30.92685 z"
       id="path22285-2-8"
       inkscape:connector-curvature="0"
       sodipodi:nodetypes="ccccccccccccscc" />
    <path
       style="fill:#000000;fill-opacity:0.12264153;stroke:none"
       d="m 83.428655,323.5293 c 11.51021,-0.78987 12.4167,17.6963 -1.0714,15.17857 15.42872,16.96787 16.89672,29.83423 3.92862,41.25001 l 10.53568,12.85712 c -0.7169,-15.38636 5.305215,-23.0197 15.185305,-23.93365 17.70261,-1.63757 43.8385,7.65069 62.67181,7.68367 -23.21551,-4.84466 -48.65289,-5.5629 -59.10711,-34.10715 L 95.928655,312.99358 z"
       id="path22287-4-8"
       inkscape:connector-curvature="0"
       sodipodi:nodetypes="ccccscccc" />
    <path
       style="fill:#000000;fill-opacity:0.254717;stroke:none"
       d="m 47.446561,357.45786 c 6.312902,0.35264 0.317508,8.09882 -2.321502,11.69644 5.711795,-4.60062 11.262698,-15.65035 2.321502,-11.69644 z"
       id="path22289-1-2"
       inkscape:connector-curvature="0"
       sodipodi:nodetypes="ccc" />
    <path
       style="fill:#a05a2c;stroke:none"
       d="m 34.85725,338.44001 c 4.066007,1.82579 7.149413,0.31776 10.267809,-1.07143 5.067898,-2.84193 9.159894,-2.26796 13.303609,-1.87501 -3.9382,0.80275 -7.706414,1.09557 -12.321409,3.92858 -3.518992,2.96913 -9.259902,2.69004 -11.250009,-0.98214 z"
       id="path22291-0-3"
       inkscape:connector-curvature="0"
       sodipodi:nodetypes="ccccc" />
    <path
       style="fill:#ffffff;stroke:none"
       d="m 42.026566,346.472 c -0.729101,2.62758 1.424906,6.11854 4.103792,6.06092 2.056114,-3.54165 6.212706,-6.31947 10.038396,-9.21763 -4.419184,-0.51594 -9.667501,-0.34291 -14.142188,3.15671 z"
       id="path22293-3-0"
       inkscape:connector-curvature="0"
       sodipodi:nodetypes="cccc" />
    <path
       sodipodi:type="arc"
       style="fill:#28170b;fill-opacity:1;stroke:none"
       id="path22295-7-6"
       sodipodi:cx="2184.23"
       sodipodi:cy="328.10776"
       sodipodi:rx="2.5111606"
       sodipodi:ry="2.734375"
       d="m 2186.7411,328.10776 c 0,1.51015 -1.1242,2.73437 -2.5111,2.73437 -1.3869,0 -2.5112,-1.22422 -2.5112,-2.73437 0,-1.51016 1.1243,-2.73438 2.5112,-2.73438 1.3869,0 2.5111,1.22422 2.5111,2.73438 z"
       transform="matrix(0.88864558,-0.3512769,0.43513655,1.1007902,-2039.1773,754.88885)" />
    <path
       sodipodi:type="arc"
       style="fill:#000000;fill-opacity:1;stroke:none"
       id="path22295-4-3-5"
       sodipodi:cx="2184.23"
       sodipodi:cy="328.10776"
       sodipodi:rx="2.5111606"
       sodipodi:ry="2.734375"
       d="m 2186.7411,328.10776 c 0,1.51015 -1.1242,2.73437 -2.5111,2.73437 -1.3869,0 -2.5112,-1.22422 -2.5112,-2.73437 0,-1.51016 1.1243,-2.73438 2.5112,-2.73438 1.3869,0 2.5111,1.22422 2.5111,2.73438 z"
       transform="matrix(0.70043611,-0.27630044,0.34297742,0.86583782,-1598.3711,668.41362)" />
    <path
       sodipodi:type="arc"
       style="fill:#ffffff;fill-opacity:1;stroke:none"
       id="path22315-9-0"
       sodipodi:cx="2182.1094"
       sodipodi:cy="327.29303"
       sodipodi:rx="0.5691964"
       sodipodi:ry="0.6026786"
       d="m 2182.6786,327.29303 c 0,0.33285 -0.2549,0.60268 -0.5692,0.60268 -0.3144,0 -0.5692,-0.26983 -0.5692,-0.60268 0,-0.33285 0.2548,-0.60268 0.5692,-0.60268 0.3143,0 0.5692,0.26983 0.5692,0.60268 z"
       transform="translate(-2138.8927,21.16926)" />
    <path
       style="fill:none;stroke:#000000;stroke-width:0.59999996;stroke-linecap:butt;stroke-linejoin:miter;stroke-miterlimit:4;stroke-opacity:1;stroke-dasharray:none"
       d="m 38.116165,345.76143 3.660686,0.7143 c 4.408916,-3.29503 9.284011,-3.84551 14.375008,-3.125"
       id="path22317-5-9"
       inkscape:connector-curvature="0"
       sodipodi:nodetypes="ccc" />
    <path
       style="fill:#a05a2c"
       d="m 117.67154,341.39438 c -0.43469,-0.25572 -1.1445,-0.93868 -1.57729,-1.51766 -1.01479,-1.3576 -2.0736,-1.33428 -3.8616,0.0851 -0.7882,0.62579 -1.879,1.14255 -2.4239,1.14841 -1.1633,0.0117 -3.5702,-2.03313 -3.5702,-3.03429 0,-0.36785 -0.18023,-1.21132 -0.4006,-1.87436 -0.37491,-1.12837 -0.51371,-1.20553 -2.1678,-1.20553 -0.97181,0 -1.85689,0.15235 -1.96651,0.33865 -0.35121,0.59595 -3.403205,0.86447 -4.928495,0.43359 -1.68611,-0.47637 -1.79751,-0.75171 -1.9374,-4.79167 l -0.0931,-2.67959 -1.91571,-0.9274 c -1.76079,-0.85247 -1.9155,-1.03234 -1.9155,-2.22627 0,-2.59852 -1.24009,-3.43135 -3.28389,-2.20557 -1.0202,0.61185 -2.8458,0.73249 -3.5906,0.23727 -0.269,-0.17883 -0.68321,-0.73609 -0.92049,-1.23824 -0.61892,-1.30951 -2.90642,-1.47916 -4.09881,-0.30398 -0.4753,0.46852 -0.96709,1.21218 -1.09281,1.65262 -0.12548,0.44039 -0.81848,1.44671 -1.539691,2.23627 -1.149389,1.25818 -1.522211,1.43549 -3.018599,1.43549 -1.438205,0 -1.886198,-0.1922 -2.844806,-1.22107 -0.625897,-0.67159 -1.137899,-1.34696 -1.137899,-1.50081 0,-0.15376 -0.470199,-0.38803 -1.044705,-0.52043 -0.807398,-0.18611 -1.777496,0.15493 -4.2707,1.50078 -3.484802,1.8813 -5.092195,2.14787 -7.249492,1.20227 -0.676489,-0.29659 -1.335307,-0.88699 -1.463889,-1.31201 -0.274318,-0.90673 -2.54732,-2.41935 -3.225312,-2.14641 -0.257399,0.1036 -1.171807,1.38514 -2.032287,2.84782 -1.687004,2.86846 -3.219015,4.45361 -4.67421,4.83679 -1.119899,0.2949 -3.626191,-0.45036 -4.81581,-1.43205 -0.4823,-0.39801 -1.248998,-0.72367 -1.703594,-0.72367 -0.787588,0 -0.832798,0.16149 -0.95419,3.40559 -0.180936,4.8317 -0.381916,5.01855 -5.383714,5.00754 -3.2744,-0.007 -4.005287,-0.12306 -4.777883,-0.7571 -1.295807,-1.06342 -2.290203,-0.94543 -3.2263,0.3828 -0.7213,1.02376 -1.018316,1.14841 -2.735422,1.14841 -2.897489,0 -3.088882,-0.29041 -3.225688,-4.89299 l -0.116551,-3.93599 -1.733108,-1.66884 c -1.6597,-1.59799 -1.733296,-1.75704 -1.733296,-3.74777 0,-2.05198 0.512707,-3.35196 2.9118,-7.38271 0.992116,-1.66676 0.888912,-3.32482 -0.357595,-5.74204 -0.900286,-1.74558 -1.094686,-2.56985 -1.094686,-4.64004 0,-2.32257 0.08788,-2.60337 1.133293,-3.628 0.623101,-0.61081 1.434493,-1.1106 1.802803,-1.1106 0.368193,0 0.761694,-0.15634 0.874391,-0.34764 0.113026,-0.19127 1.040993,-0.57252 2.063093,-0.84734 l 1.8584,-0.49967 -0.249786,-4.0334 c -0.248,-4.00679 -0.2433,-4.03956 0.705697,-4.97195 0.869292,-0.85404 1.340595,-0.95746 5.231892,-1.14841 2.352214,-0.11532 4.489796,-0.35433 4.750203,-0.53091 0.366501,-0.24836 0.417304,-1.25752 0.224408,-4.45668 -0.237097,-3.9283 -0.211719,-4.15687 0.505586,-4.55965 0.94122,-0.5284 4.694113,-0.55936 4.999213,-0.0412 0.124306,0.21048 1.113485,0.3828 2.198607,0.3828 l 1.972883,0 0.103627,-4.1151 0.103392,-4.11513 2.189302,0.12329 c 1.204093,0.0677 3.092383,0.38018 4.195998,0.69414 3.070389,0.87335 2.956493,0.92131 3.758086,-1.58306 0.40431,-1.26323 1.121897,-2.94279 1.594516,-3.73232 0.854887,-1.42785 0.872581,-1.43549 3.317801,-1.43406 1.812884,0.001 2.77208,0.20204 3.652885,0.76561 0.846616,0.54145 1.838404,0.76417 3.403311,0.76417 2.342886,0 3.038385,-0.46233 4.814682,-3.20029 0.492405,-0.75923 0.964201,-1.01054 1.89642,-1.01054 1.384795,0 4.254484,1.46136 5.677704,2.89139 0.7635,0.76718 1.3041,0.93664 2.98859,0.93664 1.13111,0 2.14341,-0.1472 2.24929,-0.32704 0.10598,-0.17978 1.15331,-0.43238 2.3274,-0.56113 1.17411,-0.12868 2.616,-0.4973 3.20391,-0.81902 1.67499,-0.91629 4.2815,-0.76448 5.51109,0.32097 1.07361,0.9477 2.95471,3.72077 4.640525,6.84113 l 0.98248,1.81831 2.18921,0 c 2.57939,0 7.4887,0.98535 8.58049,1.72219 1.2698,0.85702 1.97012,2.92723 1.97012,5.82401 0,2.48749 0.0651,2.69548 1.07988,3.48305 0.59391,0.46069 1.33942,0.83761 1.65671,0.83761 0.98429,0 2.69209,1.59548 2.9314,2.73871 0.12548,0.59912 0.37919,1.08929 0.564,1.08929 0.1847,0 0.33831,1.76567 0.34129,3.92373 0,2.15804 0.12642,4.09696 0.2738,4.30871 0.14733,0.21165 0.86701,0.85301 1.599,1.42508 0.7319,0.57207 1.68882,1.81599 2.1264,2.76428 0.7339,1.59044 0.77711,2.08868 0.55761,6.42235 l -0.2381,4.69817 1.121,1.33981 c 0.6164,0.73689 1.12131,1.46134 1.12159,1.60989 0,0.1486 0.41141,0.90472 0.91312,1.68035 0.76639,1.18476 0.9122,1.8557 0.9122,4.19679 0,3.2415 -0.73472,5.00018 -2.23351,5.34646 l -0.95661,0.22103 0.0449,4.44407 c 0.0329,3.24803 -0.079,4.48764 -0.41181,4.60591 -0.25089,0.0891 -0.4561,0.38583 -0.4561,0.65962 0,0.6182 -2.49668,3.01763 -3.97359,3.81898 -1.30361,0.70722 -2.13069,0.73403 -3.202,0.10383 z"
       id="path22381-9-7"
       inkscape:connector-curvature="0" />
    <path
       style="fill:#000000;fill-opacity:0.12735847"
       d="m 116.82836,340.35522 c -0.91202,-0.84215 -1.89102,-1.53121 -2.17572,-1.53121 -0.28459,0 -1.16239,0.512 -1.9508,1.13774 -0.8852,0.70261 -1.88199,1.14185 -2.60639,1.14844 -1.6476,0.0141 -3.4392,-1.73183 -4.0666,-3.96482 l -0.4964,-1.76656 -1.7394,0 c -1.08721,0 -1.90681,0.21165 -2.18561,0.56406 -0.62108,0.7852 -2.890005,1.17559 -3.709895,0.63838 -0.36669,-0.24025 -0.9036,-0.43683 -1.19301,-0.43683 -1.27538,0 -1.71879,-1.15022 -1.60269,-4.15742 l 0.11162,-2.91013 -1.9156,-1.08414 c -1.78468,-1.01007 -1.9155,-1.18186 -1.9155,-2.51449 0,-0.7867 -0.19715,-1.63709 -0.43779,-1.88974 -0.5845,-0.61311 -2.08681,-0.55936 -3.21101,0.11486 -1.79319,1.07546 -4.3786,0.41751 -4.3786,-1.11431 0,-0.59445 -1.54709,-1.37391 -2.7272,-1.37391 -1.0369,0 -2.381,1.63947 -2.381,2.90425 0,1.28115 -2.615883,3.05415 -4.89349,3.31669 -1.734894,0.19993 -1.841999,0.15329 -3.372905,-1.47599 -1.777496,-1.8917 -2.157908,-1.98163 -4.067111,-0.96151 -2.338985,1.2499 -5.128288,1.99894 -7.093488,1.90488 -1.602011,-0.0767 -2.086097,-0.28842 -3.105894,-1.3584 -0.664599,-0.69712 -1.367007,-1.2675 -1.560913,-1.2675 -0.194095,0 -0.352896,-0.17228 -0.352896,-0.3828 0,-0.21048 0.221118,-0.38281 0.4909,-0.38281 0.917604,0 1.625393,-1.27572 1.433506,-2.58391 -0.131589,-0.89626 -0.375195,-1.24411 -0.871006,-1.24411 -0.378603,0 -0.688403,-0.14345 -0.688403,-0.31858 0,-0.17532 -0.902894,-0.24006 -2.006203,-0.14415 -1.305982,0.11368 -2.200487,0.007 -2.5625,-0.30975 -0.462585,-0.40281 -0.51938,-0.38334 -0.336893,0.11556 0.169187,0.4627 -0.140989,0.67466 -1.356902,0.92696 -1.039606,0.21563 -1.617803,0.55132 -1.697508,0.98546 -0.152268,0.82987 0.585903,0.84977 1.440015,0.0389 0.438006,-0.41579 0.965986,-0.53706 1.605395,-0.36867 1.08961,0.28691 1.029596,0.98504 -0.137699,1.60113 -1.463302,0.7723 -1.3495,0.99251 0.374208,0.72334 2.822883,-0.44081 2.871289,-0.0504 0.521989,4.21439 -1.275904,2.31615 -2.729008,3.61968 -4.503402,4.03954 -1.487904,0.35205 -2.708,-0.0607 -4.982905,-1.68593 -2.446701,-1.74776 -2.649889,-1.54708 -2.620399,2.58891 0.02397,3.30464 -0.047,3.6847 -0.858694,4.59363 -0.828099,0.92769 -1.099902,0.9909 -4.259302,0.9909 -3.067405,0 -3.473501,-0.0872 -4.458685,-0.95701 -1.529708,-1.35031 -2.618801,-1.236 -3.671214,0.38543 -0.784087,1.20787 -1.0311,1.33601 -2.554087,1.32502 -2.434505,-0.0164 -2.82542,-0.49404 -3.29912,-4.02123 -0.225112,-1.67665 -0.495482,-3.60789 -0.600496,-4.29165 -0.123835,-0.80592 -0.780304,-1.85274 -1.866295,-2.97602 -1.640807,-1.697 -1.671002,-1.77193 -1.461399,-3.62863 0.159318,-1.41147 0.592812,-2.42205 1.696099,-3.95521 0.81501,-1.13263 1.738606,-2.84927 2.052095,-3.81476 0.503402,-1.55006 0.508007,-1.90356 0.03901,-3.02164 -0.2922,-0.69643 -0.782395,-1.86912 -1.089305,-2.60602 -0.934193,-2.24241 -1.16189,-5.49054 -0.463196,-6.60916 0.611799,-0.97974 5.116399,-3.34368 6.371507,-3.34368 0.950595,0 1.180783,-1.27842 0.910601,-5.05669 -0.221118,-3.09207 -0.201614,-3.19813 0.755795,-4.13055 0.91321,-0.88925 1.289697,-0.96662 5.318906,-1.09262 5.164781,-0.1615 5.321702,-0.26777 4.701984,-3.18471 -0.238083,-1.1214 -0.453185,-3.07247 -0.477694,-4.33571 l -0.04488,-2.29681 2.919107,0.0773 c 1.605489,0.0424 3.945203,0.18704 5.199488,0.32108 l 2.280404,0.24377 0,-4.43622 c 0,-4.13606 0.04794,-4.43622 0.708305,-4.43622 0.389389,0 0.795296,0.1479 0.901907,0.32885 0.105977,0.18095 1.286995,0.44635 2.623383,0.58998 1.336318,0.14368 3.008096,0.51472 3.715015,0.8246 0.706895,0.30988 1.318999,0.51812 1.360098,0.46273 0.04206,-0.0553 0.429405,-1.3437 0.862782,-2.86284 1.098422,-3.84964 1.832411,-4.59466 4.7522,-4.82392 1.886316,-0.14813 2.587314,-0.0352 3.644309,0.58773 0.719796,0.42415 2.227298,0.85854 3.349993,0.96535 l 2.041404,0.19407 1.966703,-2.34416 c 1.623701,-1.93534 2.166696,-2.34414 3.113508,-2.34414 0.630691,0 1.564086,0.34453 2.074396,0.76561 0.510192,0.42108 1.148092,0.76835 1.417402,0.77172 0.26939,0.002 1.0456,0.52013 1.725,1.14839 1.0398,0.96148 1.54188,1.14231 3.17108,1.14231 1.06482,0 2.03741,-0.17228 2.16141,-0.3828 0.12431,-0.21048 1.18299,-0.38281 2.35339,-0.38281 1.34071,0 2.71632,-0.28014 3.71852,-0.75719 1.82719,-0.86986 3.5701,-0.98719 4.39,-0.29551 0.83489,0.70426 3.39189,4.45654 4.239,6.22052 1.273105,2.65109 2.056605,3.12718 5.549795,3.37286 4.41089,0.31024 7.2936,1.16524 8.299,2.46145 0.7013,0.90411 0.8194,1.5115 0.821,4.21986 0,3.15777 0,3.16517 1.1876,3.92229 0.65231,0.41721 1.43221,0.76537 1.7332,0.77374 0.71611,0.0188 2.282,1.42705 3.11741,2.80134 0.55009,0.90502 0.64718,1.76496 0.56959,5.04305 -0.086,3.62647 -0.0289,4.01481 0.6943,4.71476 0.43319,0.41953 1.2878,1.25083 1.89891,1.84738 1.9031,1.8574 2.20958,3.14288 1.91769,8.04295 -0.18352,3.08277 -0.3907,4.33431 -0.717,4.33431 -0.25239,0 -0.6775,0.27634 -0.9447,0.61409 -0.26719,0.33773 -0.86189,0.76411 -1.32179,0.94752 -0.4597,0.18329 -0.83581,0.57601 -0.83581,0.87248 0,0.29646 -0.36659,0.6396 -0.8147,0.76254 -1.1336,0.31101 -0.34731,1.08097 1.1867,1.16191 0.7303,0.0384 1.42291,0.3948 1.85441,0.95389 0.65108,0.84356 0.65538,0.95156 0.078,1.97568 -0.49809,0.88465 -0.525,1.19059 -0.1471,1.66825 0.41101,0.51948 0.5773,0.49604 1.48671,-0.20931 1.0068,-0.78095 1.02069,-0.84499 0.8261,-3.82284 -0.23428,-3.58691 0.21336,-3.75968 1.8232,-0.70366 0.8551,1.62319 1.00349,2.34864 1.00349,4.90814 0,3.4507 -0.6372,5.21436 -2.0149,5.57712 -0.73239,0.1929 -0.90421,0.47658 -0.90421,1.49406 0,0.69076 0.17577,1.44027 0.3904,1.66554 0.56001,0.58737 -0.12901,5.3489 -1.01569,7.01926 -1.07231,2.02003 -3.5215,3.8255 -5.18959,3.8255 -1.0902,0 -1.7278,-0.32142 -3.03792,-1.53119 z m 5.49589,-2.75617 c 0.8304,-0.87126 0.5116,-2.84955 -0.6568,-4.07537 -0.60212,-0.63161 -1.0945,-1.49601 -1.0945,-1.92086 0,-0.87696 0.7941,-1.57164 1.01219,-0.88542 0.22159,0.69688 0.73791,0.53327 0.99451,-0.31502 0.1276,-0.42108 0.5489,-0.76558 0.9368,-0.76558 0.39769,0 0.70509,-0.26221 0.70509,-0.60156 0,-0.33086 0.2684,-0.88301 0.59631,-1.22702 0.72769,-0.76352 0.21031,-1.00825 -1.06021,-0.50145 -0.5626,0.22431 -0.98749,0.72864 -1.05869,1.25667 -0.19268,1.42468 -1.27409,1.01131 -1.9882,-0.75984 -0.0249,-0.0607 -0.6313,0.2837 -1.34852,0.7656 -0.90759,0.60993 -1.24679,1.07974 -1.11668,1.54608 0.23499,0.84049 -0.8324,0.88875 -1.8473,0.0834 -0.7883,-0.62565 -1.66339,-0.74341 -1.66339,-0.22384 0,0.18587 0.32909,0.42843 0.73119,0.53878 0.48799,0.13384 0.6571,0.40355 0.50841,0.81024 -0.12266,0.33529 -0.0421,0.60964 0.18093,0.60964 0.22206,0 0.40382,0.43064 0.40382,0.95698 0,1.13018 -0.6,1.21922 -2.106,0.31247 -0.99522,-0.59926 -1.159,-0.60046 -2.33081,-0.0164 -1.29141,0.64288 -2.4702,2.34726 -1.9796,2.86216 0.15085,0.15821 0.62989,0.29655 1.06479,0.30738 0.43481,0.009 1.84771,0.25656 3.1395,0.54603 2.17541,0.48748 2.3775,0.4759 2.7365,-0.15681 1.1145,-1.9638 1.73732,-2.54494 2.24951,-2.09901 0.28049,0.24425 0.51,0.67597 0.51,0.95939 0,0.30079 0.2277,0.42359 0.54739,0.29498 0.35532,-0.14298 0.5472,0.009 0.5472,0.43577 0,0.42593 -0.19198,0.57883 -0.5472,0.43578 -0.54868,-0.2208 -0.7729,0.53984 -0.30409,1.03163 0.39651,0.41593 1.76579,0.291 2.2378,-0.20415 z m -3.14951,-4.76007 c 0.0719,-0.39269 0.293,-0.67093 0.4909,-0.61829 0.53031,0.1411 0.4377,0.96172 -0.13112,1.1606 -0.3196,0.1118 -0.4451,-0.0773 -0.3598,-0.54231 z m -87.344407,1.39142 c -0.212894,-1.52246 0.666502,-1.54597 0.984597,-0.0263 0.197619,0.94456 0.406401,1.11698 1.318999,1.08974 1.23732,-0.0368 1.659817,-0.49427 1.104814,-1.19582 -0.209604,-0.26493 -0.291401,-0.84085 -0.181876,-1.27985 0.109501,-0.43899 0.0188,-0.9151 -0.201849,-1.05799 -0.254509,-0.165 0,-0.68026 0.697989,-1.41246 0.604209,-0.63395 1.098611,-1.39239 1.098611,-1.6854 0,-0.29915 0.223937,-0.44264 0.510403,-0.32725 0.28078,0.11298 0.618895,0.0211 0.751284,-0.20345 0.13253,-0.22478 0.539401,-0.40889 0.904609,-0.40889 1.851398,0 1.408504,-1.75289 -0.808196,-3.19867 -1.220707,-0.79612 -1.615499,-0.59696 -2.013817,1.01584 -0.177881,0.72053 -0.576998,1.28013 -0.969394,1.3594 -1.419501,0.2868 -3.196198,3.20723 -2.583788,4.24688 0.140519,0.23854 -0.107152,0.41013 -0.604209,0.41815 -0.46329,0.007 -1.222892,0.23509 -1.687991,0.50581 -0.726799,0.42302 -0.770317,0.55798 -0.309518,0.95914 0.294808,0.25679 0.637599,0.89046 0.761411,1.40818 0.341288,1.42665 1.430992,1.24289 1.227991,-0.2072 z m -9.553488,-0.1568 c 0.108326,-0.29681 0.596101,-0.64462 1.083289,-0.7729 0.487117,-0.12821 0.885717,-0.48509 0.885717,-0.79286 0,-0.30778 0.410395,-0.6677 0.912081,-0.7998 0.501898,-0.1322 0.912317,-0.48533 0.912317,-0.78492 0,-0.2996 0.235898,-0.63969 0.524291,-0.75579 0.288299,-0.11602 0.447405,-0.42124 0.353389,-0.67813 -0.119841,-0.32791 0.200205,-0.42159 1.074619,-0.3145 1.680988,0.20579 2.039383,-0.53809 0.761199,-1.5801 -0.559209,-0.45584 -1.310399,-1.12397 -1.669404,-1.48474 -0.859305,-0.86365 -1.166802,-0.28157 -0.859399,1.62701 0.276785,1.71853 -0.178116,1.99302 -1.191709,0.71931 -0.349301,-0.43882 -0.881205,-1.10455 -1.182194,-1.47943 -0.301105,-0.37488 -0.711595,-0.73762 -0.912199,-0.80609 -0.200674,-0.0684 -0.800911,-0.38709 -1.333991,-0.70801 -1.082702,-0.6519 -2.038819,-3.23451 -1.476602,-3.98826 0.184931,-0.24784 0.437301,-1.01044 0.560784,-1.69471 0.203964,-1.12943 0.142399,-1.24409 -0.669886,-1.24409 -0.88621,0 -2.346997,1.6841 -1.882908,2.1709 0.12219,0.12821 -0.264801,0.87797 -0.859893,1.66627 -0.955294,1.26532 -1.016296,1.49049 -0.521095,1.92179 0.308695,0.26868 0.468788,0.74114 0.35588,1.0499 -0.337599,0.92297 0.535406,1.61277 2.041098,1.61277 1.171619,0 1.414802,0.13173 1.414802,0.76561 0,1.01387 1.142011,1.00416 1.748616,-0.0141 0.570888,-0.95907 1.170397,-0.64574 1.170397,0.61163 0,0.69524 -0.196914,0.93444 -0.769306,0.93444 -0.628506,0 -0.72929,0.16712 -0.550704,0.91331 0.167542,0.70061 0.05005,0.95971 -0.507889,1.11255 -0.4248,0.11649 -0.726211,0.52245 -0.726211,0.9781 0,0.42837 -0.172242,0.89049 -0.382598,1.02693 -0.261487,0.16969 -0.247388,0.41896 0.04488,0.7882 0.548612,0.69348 1.399199,0.69371 1.652697,3.7e-4 z m 85.024695,-0.78019 c 0.33532,-0.75894 0.307,-0.97303 -0.15321,-1.15837 -0.82309,-0.33135 -1.57489,1.16072 -0.9271,1.84021 0.41442,0.43467 0.6537,0.28356 1.0804,-0.68184 z m -5.6109,-0.49083 c 1.1501,-0.34696 0.6694,-0.86895 -0.80039,-0.86895 -1.211805,0 -1.540895,-0.18118 -2.085515,-1.1484 -1.0702,-1.90084 -2.59739,-1.32633 -2.52988,0.95182 0.0399,1.34206 1.01798,1.74172 1.99438,0.81471 0.5734,-0.54446 0.6755,-0.52988 1.15251,0.16454 0.3146,0.45786 0.744405,0.6655 1.076785,0.52039 0.30452,-0.1329 0.84091,-0.32819 1.19211,-0.43411 z m 11.21991,-1.31145 c 0,-0.45752 0.65038,-1.49424 1.4594,-2.3263 1.50539,-1.54811 1.86949,-2.83223 0.9122,-3.21758 -0.89822,-0.36162 -0.6794,-1.41238 0.24149,-1.15976 0.4338,0.11907 1.10721,0.0377 1.49651,-0.18094 0.67891,-0.38121 0.6665,-0.44243 -0.3032,-1.50435 -0.8722,-0.95513 -0.95569,-1.23399 -0.6087,-2.03297 0.22112,-0.5093 0.30369,-1.02934 0.18329,-1.1556 -0.39329,-0.41264 -1.55668,-0.24093 -1.55668,0.2297 0,0.35728 -0.098,0.35728 -0.43782,0 -0.7631,-0.80058 -1.06139,-0.49608 -0.45899,0.46847 0.52669,0.84345 0.52749,1.03321 0.0118,2.08641 -0.31401,0.63718 -0.57101,1.40323 -0.57101,1.70229 0,0.40164 -0.4052,0.51518 -1.55071,0.43443 -1.15459,-0.0813 -1.69049,0.0713 -2.09808,0.59772 -0.50782,0.656 -0.65271,0.6658 -2.0067,0.13594 -0.80282,-0.31412 -2.0727,-0.61037 -2.82211,-0.65837 -0.7495,-0.048 -1.5705,-0.35121 -1.82449,-0.67382 -0.25392,-0.32263 -0.93751,-0.89667 -1.5192,-1.27566 -1.04151,-0.67871 -1.05441,-0.67714 -0.85971,0.10407 0.10833,0.43627 0.0118,0.87401 -0.21947,0.97274 -0.22958,0.0987 -0.14781,0.19313 0.18211,0.20977 0.68791,0.0347 1.2779,1.28764 0.7013,1.4893 -0.26569,0.0928 -0.2629,0.36898 0.0117,0.90139 0.49969,0.97991 0.28849,1.18387 -0.9016,0.87047 -1.038715,-0.27348 -1.315505,-1.55158 -0.517505,-2.38879 0.340615,-0.35728 0.265395,-0.45938 -0.33809,-0.45938 -0.43232,0 -0.85003,-0.29675 -0.94291,-0.66988 -0.12172,-0.48881 -0.18141,-0.51469 -0.22065,-0.0956 -0.0571,0.61633 -1.78739,2.1128 -2.08321,1.8024 -0.098,-0.10266 -0.21947,-0.5934 -0.2699,-1.0903 -0.051,-0.49693 -0.24539,-0.9035 -0.433,-0.9035 -0.18775,0 -0.2969,0.20228 -0.24278,0.44963 0.054,0.2473 -0.071,0.55892 -0.2762,0.6925 -0.74022,0.47998 -0.3892,1.64203 0.57258,1.89528 0.52091,0.13712 1.41111,0.78234 1.97822,1.43376 0.61889,0.71087 1.2482,1.097 1.57409,0.96582 0.322,-0.12962 0.814,0.16032 1.209695,0.71314 0.8355,1.16705 1.58761,1.20035 1.59071,0.0703 0,-0.4737 0.29361,-1.32439 0.64939,-1.89039 l 0.64691,-1.0291 1.42359,2.06149 c 0.783,1.13381 1.58392,1.95761 1.7797,1.83064 0.19574,-0.12704 0.91091,-0.20907 1.5889,-0.18235 0.9971,0.0394 1.2983,-0.1322 1.5756,-0.89724 0.18846,-0.52022 0.49931,-0.94587 0.69061,-0.94587 0.63671,0 1.5396,1.23883 1.3269,1.82049 -0.21736,0.59387 0.3805,1.62473 0.94211,1.62473 0.176,0 0.32028,-0.37139 0.32028,-0.8253 z m -65.842615,-2.8672 c 0.999401,-1.13134 1.138299,-2.12224 0.405109,-2.89138 -0.269313,-0.28256 -0.685513,-0.89778 -0.925006,-1.36714 -0.429993,-0.84291 -1.278089,-1.06734 -2.370895,-0.62739 -0.411594,0.16571 -0.501498,0.54052 -0.337011,1.40406 0.236298,1.23878 0.287312,1.22479 -1.551185,0.42703 -0.223703,-0.097 -0.383208,0.37804 -0.383208,1.14238 0,1.24052 0.105977,1.34846 2.025096,2.07389 1.113696,0.42089 2.073996,0.78464 2.133705,0.80834 0.05992,0.0237 0.511202,-0.41272 1.003395,-0.96979 z M 32.448852,325.4187 c -0.904116,-0.99012 -0.952311,-1.20192 -0.631208,-2.78118 0.254297,-1.25079 0.223232,-1.95304 -0.115376,-2.61746 -0.329398,-0.64585 -0.35151,-1.04919 -0.07707,-1.3969 0.635907,-0.80386 0.01175,-1.00379 -0.991506,-0.31612 -0.512683,0.35242 -1.21549,0.59108 -1.562088,0.53035 -0.637317,-0.11157 -0.691105,0.14485 -0.268702,1.28217 0.167307,0.45094 -0.08107,0.77276 -0.885199,1.14616 -0.6149,0.28553 -1.118114,0.64937 -1.118114,0.80852 0,0.62082 -0.654988,0.24737 -0.835383,-0.47625 -0.226993,-0.91018 -0.923197,-1.00761 -1.229002,-0.17204 -0.122895,0.33609 0.119606,0.96966 0.558787,1.46016 0.426797,0.47659 0.776003,0.9846 0.776003,1.12893 0,0.65824 1.463208,1.72098 2.120899,1.5405 0.393594,-0.10806 0.826101,-0.009 0.96091,0.21985 0.13488,0.229 0.882592,0.41616 1.661486,0.41616 0.779105,0 1.519509,0.17509 1.645718,0.38904 0.126185,0.21399 0.39538,0.28121 0.598592,0.1493 0.215009,-0.13923 -0.03995,-0.68868 -0.609002,-1.31135 z m 90.678188,-0.3682 c 0,-0.90659 -0.19292,-1.19191 -0.93889,-1.38833 -1.0131,-0.26678 -1.85041,0.28945 -1.45249,0.96489 0.13488,0.22899 0.46418,0.41615 0.73189,0.41615 0.26769,0 0.58121,0.25839 0.69679,0.57421 0.36,0.98417 0.9627,0.62923 0.9627,-0.56692 z m -29.071595,0.50644 c 0.13206,-0.13852 0.067,-0.4707 -0.14451,-0.73813 -0.27479,-0.34732 -0.22182,-0.81668 0.18563,-1.64311 0.31359,-0.63629 0.57019,-1.21943 0.57019,-1.29584 0,-0.0764 -0.57768,-0.3768 -1.2838,-0.66749 -1.45769,-0.60001 -1.4951,-1.39191 -0.058,-1.22878 0.5804,0.0659 1.2434,-0.19618 1.6949,-0.66988 0.57291,-0.60104 0.6172,-0.77812 0.19433,-0.77812 -0.30099,0 -0.5473,0.19431 -0.5473,0.43172 0,0.28713 -0.47459,0.3521 -1.4168,0.19407 -0.9974,-0.16735 -1.54289,-0.0785 -1.84221,0.29981 -0.2844,0.3595 -0.30099,0.61801 -0.051,0.7807 0.25421,0.16477 0.246,0.46034 -0.0261,0.91681 -0.31241,0.52465 -0.21924,1.04959 0.4213,2.37475 0.98859,2.04515 1.6922,2.66356 2.30228,2.02354 z m -52.66051,-0.51373 c 0,-0.21048 -0.154383,-0.3828 -0.343284,-0.3828 -0.188926,0 -0.444821,0.17227 -0.568915,0.3828 -0.12407,0.21048 0.03102,0.3828 0.343403,0.3828 0.312901,0 0.568796,-0.17227 0.568796,-0.3828 z m 33.757806,-0.4785 c 0.881299,-1.05951 1.610584,-3.07084 1.804894,-4.97714 0.16214,-1.59025 1.42672,-3.7316 2.2038,-3.7316 0.3708,0 0.44621,-0.36998 0.2926,-1.43551 -0.271,-1.87862 -0.62519,-2.24893 -1.6554,-1.73044 -0.45561,0.22923 -1.115693,0.51326 -1.466802,0.631 -0.351181,0.11766 -0.638587,0.52571 -0.638587,0.90654 0,0.38086 -0.226992,1.03222 -0.504106,1.44753 -0.552607,0.8277 -0.590509,0.96329 -0.590509,2.11165 0,0.43034 -0.205374,0.74557 -0.456194,0.70057 -0.250796,-0.045 -1.240492,0.0539 -2.199288,0.21962 -1.716917,0.29697 -2.765805,1.28447 -2.265717,2.13333 0.12172,0.20626 0.047,0.37488 -0.165662,0.37488 -0.4471,0 -0.529508,1.77607 -0.09493,2.05757 0.160022,0.10384 0.521495,0.0394 0.803402,-0.14344 0.352708,-0.22876 0.687698,-0.0717 1.074595,0.50377 0.309095,0.45982 0.583813,0.96521 0.610295,1.12312 0.02702,0.15797 0.06909,0.37321 0.09399,0.4785 0.02491,0.10524 0.583906,0.19149 1.241596,0.19149 0.784698,0 1.442389,-0.29614 1.912399,-0.8613 z m 52.485409,-0.74725 c 0.47429,-0.79467 0.36939,-0.90978 -1.13691,-1.24838 -1.026,-0.23064 -1.22999,-0.14579 -1.5049,0.62518 -0.20819,0.58358 -0.17623,0.9924 0.0921,1.18252 0.66109,0.46837 2.12841,0.14649 2.5496,-0.55932 z m -89.410416,-2.97148 c 0.617509,-1.09656 0.614007,-1.16104 -0.103392,-1.91402 -0.408516,-0.42853 -1.143398,-0.7792 -1.633311,-0.7792 -0.963895,0 -1.533585,0.56811 -0.949491,0.94684 0.19856,0.12868 0.630503,0.82971 0.959783,1.55765 0.32921,0.72794 0.708705,1.32354 0.843209,1.32354 0.134409,0 0.53221,-0.51066 0.883602,-1.13481 z m 49.699111,0.45218 c 0.75889,-0.6741 1.1277,-2.37979 0.5144,-2.37979 -0.4706,0 -0.43251,-1.04476 0.05,-1.35732 0.21547,-0.13969 0.75979,0.10852 1.20928,0.55163 0.85802,0.84565 2.04761,1.08435 2.04761,0.41089 0,-0.21705 -0.2589,-0.49904 -0.5754,-0.62641 -0.31631,-0.12727 -0.7193,-0.62921 -0.89549,-1.11517 -0.27601,-0.76202 -0.4992,-0.8531 -1.62121,-0.66207 -1.4908,0.25382 -1.4904,0.22524 0.0541,-3.22565 1.035,-2.31219 0.9071,-2.85436 -0.5684,-2.41038 -1.10451,0.33232 -0.99529,0.41189 -5.73781,-4.17417 -1.3699,-1.32471 -2.6971,-3.45092 -2.6971,-4.32078 0,-0.48218 -0.9552,-1.44505 -1.43339,-1.44505 -0.21524,0 -0.391,0.17228 -0.391,0.3828 0,0.21048 -0.16426,0.38281 -0.36491,0.38281 -0.20067,0 -0.36478,-0.43065 -0.36478,-0.95701 0,-0.69766 -0.19527,-0.95701 -0.720317,-0.95701 -0.813789,0 -2.015603,2.06159 -1.606382,2.75591 0.166837,0.28338 0.05499,0.35548 -0.317202,0.20533 -0.315909,-0.12727 -1.143515,-0.0478 -1.839202,0.17602 -1.062399,0.34207 -1.250714,0.56783 -1.177399,1.41027 0.199499,2.28915 0.646387,3.49121 1.297686,3.49121 0.359804,0 0.888396,0.0942 1.17451,0.20931 0.285996,0.11508 1.021888,-0.28232 1.63519,-0.88332 0.914197,-0.89592 1.453316,-1.09808 2.993596,-1.12246 1.81122,-0.0286 1.87621,0.007 1.80612,0.97902 -0.14099,1.95205 0.0117,2.34854 0.89279,2.34854 1.09069,0 2.15929,1.20628 1.84061,2.07769 -0.14616,0.39989 0.0731,1.10132 0.559,1.79152 0.46169,0.65514 0.7115,1.42503 0.59128,1.82244 -0.23888,0.78961 1.25072,1.70892 2.16971,1.33897 0.7396,-0.29775 0.72219,0.77448 -0.0249,1.55861 -0.68089,0.71432 -1.1689,0.48232 -1.6234,-0.77166 -0.18422,-0.50796 -0.5381,-0.82898 -0.79839,-0.72409 -0.5555,0.22384 -0.64009,4.07399 -0.094,4.2683 0.19551,0.0696 0.84829,0.45752 1.4504,0.86205 1.36349,0.91611 1.64199,0.92792 2.56429,0.10876 z m 8.23639,-0.73844 c -0.35059,-0.63186 -0.38048,-0.62319 -0.39071,0.11321 -0.0141,0.88613 0.45061,1.57705 0.64552,0.96347 0.0679,-0.21587 -0.046,-0.70025 -0.25481,-1.07663 z m -32.710493,0.21118 c 0.511203,-0.24435 0.9294,-0.61217 0.9294,-0.8174 0,-0.846 1.7696,-2.0884 2.706989,-1.90042 0.5179,0.10383 0.941713,0.0598 0.941713,-0.098 0,-0.46092 -1.523809,-1.71642 -2.083395,-1.71642 -0.427714,0 -0.421299,-0.13594 0.03901,-0.82479 0.411406,-0.6162 0.45422,-1.01382 0.169187,-1.5723 -0.266587,-0.52247 -0.264496,-0.87021 0.01175,-1.15499 0.274506,-0.28813 0.151798,-0.53122 -0.419113,-0.82983 -0.444186,-0.23228 -0.862102,-0.71948 -0.928695,-1.08264 -0.09305,-0.5029 0.131589,-0.66029 0.93941,-0.66029 1.403287,0 1.624804,-0.30119 0.832493,-1.13245 -0.359499,-0.37722 -0.715308,-0.87902 -0.79069,-1.11512 -0.168012,-0.52754 -5.490301,-1.27739 -5.917404,-0.83367 -0.169187,0.17579 -0.128065,0.67114 0.09188,1.10096 0.219238,0.42987 0.398599,1.11731 0.398599,1.52768 0,0.43856 0.319293,0.83371 0.774594,0.95862 0.681212,0.18681 0.743106,0.38815 0.51421,1.66866 -0.143338,0.80088 -0.339008,1.58943 -0.434998,1.75237 -0.290508,0.4932 -0.917909,-0.13711 -0.708,-0.71118 0.111852,-0.30428 -0.19245,-0.80146 -0.704804,-1.15372 -0.612997,-0.42134 -0.900497,-0.97161 -0.900497,-1.72337 0,-0.73651 -0.186105,-1.10436 -0.55881,-1.10436 -0.728584,0 -1.114095,1.07764 -0.584306,1.63349 0.572815,0.60088 0.517712,1.4289 -0.09493,1.4289 -0.55632,0 -0.9513,0.80382 -0.9513,1.93575 0,0.60111 0.186575,0.68556 1.094592,0.49505 0.8711,-0.18283 1.094592,-0.0975 1.094592,0.41791 0,0.35618 0.375806,1.19597 0.835007,1.86617 0.459201,0.67021 0.828593,1.47695 0.821003,1.79275 -0.01175,0.31583 0.191275,0.53117 0.442095,0.47852 0.250796,-0.0527 0.456099,0.22009 0.456099,0.60611 0,1.2716 0.5179,1.47148 1.989614,0.76795 z m 57.120208,-0.32134 c 0,-0.21048 -0.16425,-0.38283 -0.36499,-0.38283 -0.20068,0 -0.36481,0.17228 -0.36481,0.38283 0,0.21048 0.16425,0.38278 0.36481,0.38278 0.20067,0 0.36499,-0.17228 0.36499,-0.38278 z m -2.3223,-1.31441 c -0.8045,-1.28817 -0.75539,-1.48627 0.3154,-1.27153 0.50171,0.10079 0.91219,0.14626 0.91219,0.10126 0,-0.045 -0.47529,-0.60343 -1.0564,-1.2413 -0.7608,-0.83522 -1.29969,-1.11097 -1.9257,-0.98541 -0.5715,0.11461 -1.1042,-0.0977 -1.55429,-0.61963 -0.3767,-0.43669 -0.96281,-0.79397 -1.30241,-0.79397 -0.3395,0 -0.9857,-0.33529 -1.43618,-0.74509 -0.67022,-0.60986 -0.77201,-0.97459 -0.5609,-2.00972 0.14169,-0.69552 0.41098,-1.46459 0.59828,-1.70904 0.21431,-0.27962 0.19856,-0.53639 -0.0421,-0.69247 -0.21054,-0.13642 -0.3826,-0.58243 -0.3826,-0.99111 0,-0.54556 0.25289,-0.74299 0.9517,-0.74299 0.8559,0 0.9264,-0.10594 0.70008,-1.05193 -0.3098,-1.29549 -0.32709,-1.31351 -0.99338,-1.04521 -0.29761,0.11977 -0.7726,0.76964 -1.0557,1.44423 -0.28461,0.67783 -0.84131,1.28388 -1.24461,1.35479 -0.99139,0.17438 -1.642,1.13847 -1.642,2.43369 0,1.14293 -0.6114,1.46118 -0.96261,0.50103 -0.11537,-0.31581 -0.51277,-0.5742 -0.88259,-0.5742 -0.37,0 -0.81578,-0.26838 -0.9908,-0.5964 -0.25408,-0.47656 -0.69399,-0.54411 -2.18819,-0.33619 -1.6926,0.23559 -1.89231,0.36694 -2.10539,1.38465 -0.12948,0.61841 -0.79481,1.71139 -1.478725,2.42883 -1.233,1.2937 -1.5063,2.21637 -0.9357,3.15978 0.23731,0.39232 0.509,0.37371 1.362715,-0.0933 1.2963,-0.70923 1.86909,-0.74052 2.0685,-0.11297 0.10832,0.33899 0.3383,0.27857 0.805,-0.21095 0.47919,-0.50281 0.59929,-1.03897 0.4494,-2.00758 -0.19057,-1.23239 -0.1471,-1.30646 0.64531,-1.09783 0.46728,0.12306 0.95938,0.0375 1.09339,-0.19009 0.32319,-0.54863 1.0135,-0.52348 1.77679,0.0647 0.5366,0.41361 0.5601,0.64727 0.17201,1.72262 -0.26671,0.73961 -0.7034,1.24411 -1.07681,1.24411 -0.34549,0 -0.71669,0.15 -0.8246,0.33337 -0.10832,0.18329 -0.67169,0.43307 -1.25259,0.55493 -1.28629,0.26992 -1.7574,1.31647 -0.9661,2.14636 0.4885,0.51242 0.62141,0.52135 0.8933,0.06 0.21243,-0.36056 0.89101,-0.51915 2.0283,-0.47403 0.9399,0.0373 2.3629,-0.13782 3.16231,-0.38906 1.091,-0.34289 1.51819,-0.34722 1.7125,-0.0164 0.19127,0.32449 0.5116,0.30199 1.22449,-0.086 0.91951,-0.50044 0.9834,-0.47238 1.3354,0.58715 0.47401,1.42632 0.82321,1.39385 1.50231,-0.1397 0.53209,-1.2014 1.2772,-1.53154 1.2772,-0.56591 0,0.26317 0.29779,0.60625 0.6618,0.76237 0.3641,0.15611 0.566,0.44698 0.44848,0.64635 -0.20913,0.35512 0.93382,1.26366 1.21641,0.96702 0.078,-0.083 -0.12477,-0.5807 -0.4529,-1.10622 z m -5.1421,-3.25279 c -0.11538,-0.19594 -0.043,-0.46455 0.16073,-0.59679 0.20396,-0.1322 0.37089,0.0281 0.37089,0.35634 0,0.67241 -0.21877,0.77144 -0.53169,0.24045 z m -88.339113,3.81104 c 0.514704,-0.20533 0.935909,-0.5653 0.935909,-0.79992 0,-0.23465 0.349089,-0.72321 0.775792,-1.08571 0.680202,-0.57782 0.716295,-0.759 0.293398,-1.46961 -0.265388,-0.44581 -0.860903,-0.9914 -1.323206,-1.2124 -0.965493,-0.46151 -1.080493,-1.26024 -0.299695,-2.07944 0.688496,-0.72244 1.758204,-0.44426 3.746408,0.9743 1.604596,1.14491 2.18009,0.77524 0.729688,-0.46868 -0.619881,-0.53174 -0.71848,-0.81359 -0.402194,-1.15139 0.31551,-0.33705 0.270393,-0.7405 -0.182581,-1.63661 -1.035894,-2.04973 -1.877998,-2.74928 -1.877998,-1.56018 0,0.50035 -0.103627,0.53114 -0.531387,0.15844 -0.574601,-0.50037 -1.439005,-0.18844 -1.095109,0.39532 0.118665,0.20134 -0.565907,0.35637 -1.574308,0.35637 -1.916299,0 -2.0262,0.1118 -2.9153,2.96484 -0.357784,1.14846 -0.305782,1.30285 0.688402,2.0456 0.59152,0.44187 1.356808,0.84591 1.700798,0.89785 1.042708,0.15751 0.979004,1.68768 -0.107152,2.58434 -0.746913,0.61634 -0.858412,0.87558 -0.483898,1.12473 0.625193,0.41571 0.79398,0.41238 1.922691,-0.0377 z m 1.300812,-8.40851 c 0,-0.19806 0.164252,-0.46667 0.364903,-0.5968 0.200674,-0.13009 0.364786,0.0319 0.364786,0.36021 0,0.32823 -0.164253,0.5968 -0.364786,0.5968 -0.200674,0 -0.364903,-0.1622 -0.364903,-0.36021 z m 21.013782,7.53773 c 0.476308,-0.4737 0.868916,-1.16275 0.872417,-1.53119 0,-0.36845 0.262193,-0.6699 0.575188,-0.6699 0.312714,0 0.460494,-0.18376 0.328293,-0.40828 -0.294079,-0.49927 0.864216,-1.47686 1.769601,-1.49357 0.373621,-0.007 0.55552,-0.18962 0.419207,-0.42105 -0.132294,-0.22502 -0.466203,-0.31818 -0.741485,-0.2072 -0.275516,0.11086 -0.647821,-0.0738 -0.827417,-0.41044 -0.406002,-0.76146 -1.083196,-0.36194 -1.5447,0.91135 -0.235592,0.65005 -0.531693,0.88456 -0.919601,0.72841 -0.314593,-0.12657 -0.785685,-0.23041 -1.04689,-0.23041 -0.2613,0 -0.55491,-0.32076 -0.652498,-0.71279 -0.166132,-0.66581 -2.114107,-1.96683 -2.945096,-1.96683 -0.2042,0 -0.630621,-0.24308 -0.9474,-0.54017 -0.724213,-0.67918 -3.692503,-1.12944 -4.3626,-0.66181 -0.586609,0.4091 -0.240598,1.20198 0.524291,1.20198 0.317507,0 0.525701,0.37896 0.525701,0.95699 0,1.29314 1.220589,2.48824 2.541304,2.48824 0.742495,0 1.217088,0.26521 1.513095,0.84544 0.580193,1.13736 1.822494,2.18862 2.604608,2.20423 0.351203,0.007 0.638586,0.18493 0.638586,0.39553 0,0.6456 0.764607,0.42719 1.675396,-0.4785 z m 4.514305,-0.64419 c 0.309001,-0.60582 0.238601,-0.78614 -0.388707,-0.99502 -1.032298,-0.34373 -1.690787,0.36032 -1.070483,1.14449 0.62,0.78375 1.003185,0.74449 1.45919,-0.14954 z M 32.837041,311.7562 c 0.501898,-0.8037 0.521495,-1.03023 0.113027,-1.3018 -0.743412,-0.49423 -1.263004,-0.40966 -1.818195,0.29594 -0.35501,0.4512 -0.379402,0.6794 -0.08412,0.78396 0.229577,0.0811 0.332898,0.48633 0.229812,0.90043 -0.260595,1.04612 0.758991,0.60226 1.558892,-0.67853 z m 21.849096,0.0558 c 0.121956,-0.50935 -0.02702,-1.55146 -0.332006,-2.31587 -0.304301,-0.76436 -0.553382,-1.88125 -0.553382,-2.48196 0,-1.0142 0.06697,-1.06553 0.935886,-0.71884 1.400702,0.55866 1.523504,0.49434 2.009799,-1.05161 0.537403,-1.70822 1.26641,-2.55197 1.962802,-2.27162 0.815504,0.32831 1.387614,-0.72864 1.110712,-2.05181 -0.211014,-1.00756 -0.394417,-1.1684 -1.218216,-1.06839 -0.666385,0.0809 -1.0045,0.37301 -1.080799,0.93369 -0.101277,0.74606 -0.236297,0.78642 -1.574001,0.47105 -0.804789,-0.18962 -1.616886,-0.24524 -1.804801,-0.12352 -0.187751,0.12188 -0.341382,-0.13337 -0.341382,-0.56678 0,-0.98265 -1.347009,-2.44661 -2.006697,-2.181 -0.270017,0.10875 -0.544617,0.59572 -0.610318,1.08231 -0.105976,0.78464 -0.3184,0.8847 -1.877598,0.8847 -1.316391,0 -1.888901,0.18633 -2.279487,0.74188 -0.464207,0.65994 -0.435915,0.8377 0.255589,1.60992 0.427503,0.47742 0.822202,1.29652 0.876905,1.82019 0.124541,1.1912 0.450907,1.76058 1.011009,1.76442 0.484298,0.002 1.375184,1.75355 1.060684,2.08355 -0.110676,0.11555 -0.483898,0.21024 -0.830402,0.21024 -0.823188,0 -1.180101,1.01308 -0.568091,1.61278 0.263696,0.25851 0.396508,0.80353 0.29469,1.21111 -0.123365,0.49585 -0.04512,0.65045 0.237802,0.4672 0.232162,-0.15071 0.422309,-0.48762 0.422309,-0.74889 0,-0.68061 0.742307,-1.3647 1.256189,-1.15778 0.25801,0.10383 0.37261,0.64161 0.279017,1.3099 -0.208429,1.49101 0.524479,1.47524 0.837099,-0.0187 0.13253,-0.63346 0.399986,-1.04879 0.594081,-0.92293 0.224642,0.14556 0.217593,0.39982 -0.02115,0.69935 -0.258996,0.32748 -0.206079,0.7195 0.174827,1.28967 0.659594,0.98806 1.474416,0.7529 1.777214,-0.51303 z m -4.990307,-5.79002 c -0.854793,-0.23439 -0.81628,-0.88453 0.05193,-0.88453 0.379918,0 0.785215,0.25839 0.900708,0.57418 0.215479,0.58904 0.145924,0.61163 -0.952992,0.31035 z m 20.524222,6.50753 c 0,-0.26594 -1.586503,-1.62199 -1.915501,-1.6373 -0.150623,-0.007 -0.273707,0.24564 -0.273707,0.56146 0,0.31581 -0.164252,0.5742 -0.364903,0.5742 -0.200674,0 -0.363893,0.12915 -0.362812,0.2871 0,0.15798 0.657902,0.31296 1.459519,0.34458 0.801499,0.0316 1.457404,-0.027 1.457404,-0.13009 z m 26.386383,-0.59734 c 0.6884,-0.67175 0.84391,-1.13587 0.70671,-2.10891 -0.19621,-1.39083 0.3809,-2.389 1.3815,-2.389 0.35999,0 0.9802,-0.46898 1.378295,-1.0422 0.63572,-0.91566 0.82781,-0.98905 1.581,-0.60433 0.4718,0.24084 1.94151,0.52871 3.26632,0.6397 2.49369,0.20884 3.24688,-0.0926 3.24688,-1.29983 0,-0.97442 1.59249,-2.377 2.09749,-1.84726 0.30872,0.32391 0.76731,0.25268 1.80361,-0.2803 1.2501,-0.6429 1.3044,-0.72822 0.54071,-0.85027 -0.55641,-0.0888 -0.78039,-0.32296 -0.65,-0.67939 0.11655,-0.31767 -0.0249,-0.54376 -0.33701,-0.54376 -0.29469,0 -0.541,-0.2154 -0.54739,-0.47848 -0.0118,-0.29224 -0.20044,-0.21775 -0.4964,0.19149 -0.593,0.81966 -1.31639,0.87404 -1.31639,0.0989 0,-0.31401 -0.32841,-0.78612 -0.72972,-1.04908 -0.4013,-0.26298 -0.7299,-0.59734 -0.7299,-0.74305 0,-0.25523 1.4509,-0.89703 1.8244,-0.80707 0.1001,0.0241 0.20749,-0.32929 0.23771,-0.78546 0.031,-0.45617 0.10245,-1.4323 0.16002,-2.16922 0.0571,-0.73689 -0.0118,-1.59819 -0.1471,-1.91399 -0.16049,-0.36583 0.14546,-1.01813 0.8434,-1.79756 0.6023,-0.67282 1.0952,-1.39682 1.0952,-1.60887 0,-0.91289 -0.89749,-2.3356 -1.4734,-2.3356 -0.93251,0 -1.57699,-1.03239 -1.632,-2.61437 -0.11303,-3.23688 -1.48591,-3.62633 -4.1361,-1.17304 -1.5635,1.44742 -1.70719,1.50728 -1.81559,0.75651 -0.0651,-0.44843 -0.5985,-1.18814 -1.1859,-1.64381 -1.14122,-0.88521 -1.33331,-1.78058 -0.63401,-2.95542 0.55411,-0.93069 -0.21689,-2.06386 -1.184595,-1.74158 -0.3563,0.1186 -0.7581,0.0279 -0.8933,-0.20134 -0.3373,-0.57263 -1.2752,0.26646 -1.2752,1.14086 0,0.3637 -0.48172,1.35892 -1.07041,2.21155 -0.58859,0.85263 -0.96319,1.66275 -0.8321,1.80026 0.13112,0.13759 -0.043,0.13642 -0.3892,-0.002 -0.43279,-0.17438 -0.62731,-0.0619 -0.62731,0.36255 0,0.68503 -0.59669,0.8426 -0.79738,0.21072 -0.071,-0.22244 -0.83891,-0.73821 -1.70722,-1.14602 -1.56479,-0.73495 -1.58018,-0.73485 -1.76558,0.009 -0.10245,0.4128 -0.49771,0.85399 -0.87751,0.98042 -0.7961,0.26511 -0.861,0.66747 -0.26831,1.66317 0.25181,0.423 0.69163,0.63493 1.09051,0.5255 0.3677,-0.10079 0.5629,-0.36272 0.4337,-0.58185 -0.13605,-0.23134 -0.0571,-0.28387 0.18658,-0.12516 0.72891,0.47267 0.46681,1.20152 -1.02358,2.84526 -1.3976,1.54127 -2.30961,1.96042 -2.72631,1.25299 -0.28611,-0.4856 -2.72661,-0.72616 -2.8676,-0.28265 -0.14898,0.46906 -2.3731,-0.53389 -2.60801,-1.17609 -0.14969,-0.40924 1.1007,-1.75216 1.95451,-2.09899 0.16401,-0.0668 0.41309,-0.50876 0.55359,-0.98248 0.22558,-0.76141 0.12806,-0.86131 -0.8403,-0.86131 -0.60258,0 -1.51079,0.16571 -2.0184,0.36818 -1.4015,0.55901 -1.58819,-0.28403 -0.19879,-0.89701 0.8124,-0.35837 1.02499,-0.60631 0.7002,-0.81691 -0.35919,-0.23298 -0.31781,-0.4162 0.18046,-0.79844 0.50761,-0.38937 0.59322,-0.7949 0.39851,-1.8846 -0.16519,-0.92351 -0.0891,-1.59189 0.22934,-1.99591 0.37729,-0.47965 0.38189,-0.64133 0.0212,-0.76848 -0.25089,-0.0886 -0.45619,-0.49663 -0.45619,-0.90678 0,-0.41013 -0.2461,-0.84488 -0.5472,-0.96606 -0.6084,-0.24491 -0.75611,-1.28683 -0.18235,-1.28683 0.20067,0 0.36479,-0.17228 0.36479,-0.38281 0,-0.21048 -0.14546,-0.3828 -0.32329,-0.3828 -0.48651,0 -1.501,2.46014 -1.501,3.63972 0,0.78724 -0.1384,0.98007 -0.57711,0.80346 -0.3176,-0.12774 -1.2247,-0.23228 -2.016,-0.23228 -1.194486,0 -1.49679,-0.16056 -1.781588,-0.94632 -0.205609,-0.56731 -0.749897,-1.05046 -1.35911,-1.20635 -0.559092,-0.14297 -1.693396,-0.74394 -2.520791,-1.33538 -0.827417,-0.59145 -1.642804,-0.95297 -1.812296,-0.80336 -0.169422,0.14954 -0.086,-0.0326 0.186575,-0.40509 0.423014,-0.57936 0.401702,-0.7845 -0.147803,-1.42126 -0.713616,-0.82739 -0.515809,-1.92107 0.347491,-1.92107 0.307215,0 0.558692,-0.17228 0.558692,-0.3828 0,-0.21048 -0.156497,-0.38281 -0.347796,-0.38281 -0.644884,0 -2.206291,0.88555 -2.206291,1.25133 0,0.19947 -0.400503,0.25743 -0.889805,0.12868 -1.097999,-0.28909 -1.425705,0.20814 -1.115106,1.69186 0.152503,0.72801 0.466204,1.13906 0.869503,1.13906 0.347115,0 0.942911,0.23924 1.324099,0.53164 0.380999,0.29237 0.905008,0.4462 1.164217,0.34183 0.259302,-0.10431 0.478188,0.0441 0.486388,0.32969 0.01175,0.28569 0.6462,1.25156 1.41781,2.14636 0.977195,1.13312 1.695886,1.62691 2.368193,1.62691 1.345599,0 1.501792,0.81356 0.464206,2.41776 -0.784604,1.21308 -0.839002,1.52242 -0.47901,2.72903 0.437395,1.46612 1.322007,1.85637 1.322007,0.58323 0,-0.85165 1.026189,-1.48035 1.405308,-0.86098 0.130177,0.21282 0.582777,0.50021 1.005887,0.63856 0.42311,0.13829 1.06369,0.93674 1.4238,1.7742 0.4393,1.02219 0.88901,1.52264 1.36821,1.52264 0.57279,0 0.67028,0.18282 0.49259,0.92531 -0.13653,0.571 -0.051,0.98507 0.22488,1.08133 0.24529,0.0858 0.0811,0.25619 -0.36561,0.37863 -0.4464,0.12259 -0.81149,0.0605 -0.81149,-0.13782 0,-0.21306 -0.2887,-0.19829 -0.70572,0.0359 -0.38828,0.21798 -1.04499,0.39626 -1.45959,0.39626 -0.9489,0 -1.02741,1.50285 -0.1518,2.90493 0.33121,0.53017 0.6185,1.50035 0.63861,2.15591 0.0301,0.98314 0.19621,1.20588 0.9486,1.27153 0.50169,0.0436 1.07641,-0.053 1.27701,-0.21494 0.20091,-0.16196 0.99919,-0.25192 1.77439,-0.19993 0.99499,0.0668 1.23629,-0.007 0.82101,-0.25096 -0.74151,-0.43528 -0.77032,-1.45583 -0.0409,-1.45583 0.3008,0 0.5472,-0.17228 0.5472,-0.38278 0,-0.21048 0.18188,-0.38283 0.40389,-0.38283 0.22229,0 0.30952,0.25842 0.19386,0.57421 -0.11538,0.31581 -0.0919,0.57994 0.0519,0.58695 0.14428,0.007 0.65111,0.3525 1.1262,0.76776 0.69709,0.60925 0.7792,0.86225 0.42461,1.3103 -0.24161,0.30539 -0.34472,0.71557 -0.22934,0.91147 0.11537,0.19595 0,0.53621 -0.2496,0.75623 -0.33039,0.28757 -0.95158,0.13829 -2.20979,-0.53082 -2.0924,-1.1128 -2.43101,-1.14649 -2.43101,-0.24182 0,0.37898 -0.19597,0.89461 -0.43539,1.14588 -0.33742,0.35392 -0.21407,0.6993 0.5472,1.53301 1.18919,1.30222 1.21389,1.51957 0.19033,1.67757 -1.04679,0.16149 -1.3275,1.07933 -0.33019,1.07933 0.41939,0 1.12159,-0.43336 1.56058,-0.96301 0.43899,-0.52964 1.34111,-1.299 2.00439,-1.70969 l 1.20631,-0.74669 0,1.18012 c 0,1.02111 0.10597,1.15098 0.7889,0.96375 0.43371,-0.11907 1.07131,-0.0577 1.41689,0.13642 0.4643,0.26066 0.86861,0.11907 1.5494,-0.54308 0.80521,-0.7829 0.8668,-1.01073 0.48811,-1.80788 -0.23839,-0.50166 -0.8801,-1.13683 -1.4262,-1.41149 -1.515,-0.76216 -1.3538,-2.20301 0.3289,-2.9407 0.72701,-0.31863 1.7121,-0.57931 2.1893,-0.57931 0.47721,0 0.8676,-0.17228 0.8676,-0.38283 0,-0.21048 0.17248,-0.38278 0.38309,-0.38278 0.25221,0 0.29853,0.78178 0.13606,2.29014 -0.21571,2.00097 -0.16331,2.32384 0.4161,2.55708 0.39289,0.15821 0.7217,0.082 0.80719,-0.18705 0.18799,-0.59124 0.81172,-0.18376 0.81172,0.53033 0,0.37521 -0.4083,0.55161 -1.27691,0.55161 -0.7025,0 -1.2772,0.17228 -1.2772,0.3828 0,0.21048 0.3438,0.38281 0.764,0.38281 0.45579,0 0.84041,0.30728 0.95369,0.76192 0.14217,0.56977 0.3974,0.70731 1.01242,0.54538 0.60139,-0.15845 1.0225,0.0504 1.56719,0.77669 0.69301,0.92428 0.7866,0.94925 1.3487,0.35969 0.3931,-0.41241 0.7283,-0.50302 0.96021,-0.25963 0.3555,0.37286 -2.3243,3.55798 -2.99341,3.55798 -0.17318,0 -0.4229,0.4737 -0.55489,1.05269 -0.456,2.00132 -0.8015,2.40032 -1.75092,2.02164 -0.717,-0.286 -0.90249,-0.21212 -1.0608,0.42272 -0.35308,1.41704 0.17718,3.43899 0.99242,3.78474 1.3625,0.57772 2.7155,0.39567 3.62008,-0.48706 z m 3.2211,-8.91905 c -0.3645,-0.43976 -0.76058,-1.19257 -0.8804,-1.67295 -0.2551,-1.02376 0.38339,-2.71034 1.0263,-2.71034 0.748915,0 0.926515,-1.62719 0.261705,-2.39786 -0.368685,-0.42741 -0.573495,-1.22283 -0.521805,-2.02692 0.11514,-1.80055 -0.53,-2.47636 -1.89019,-1.97887 -0.9666,0.35353 -1.0347,0.50185 -0.85949,1.87269 0.18046,1.41177 0.1189,1.52697 -1.19061,2.22786 -0.75941,0.40648 -1.4833,0.63161 -1.6085,0.50028 -0.41481,-0.43521 -0.23561,-2.02516 0.22864,-2.02762 0.2508,-0.001 0.744,-0.53319 1.096,-1.18193 0.61429,-1.1323 0.6123,-1.21626 -0.05,-2.09878 l -0.68929,-0.91932 -0.57,0.85711 -0.56999,0.85711 -0.0188,-0.89714 c -0.0141,-0.58869 0.23451,-0.96673 0.71869,-1.09956 0.62992,-0.17274 0.70321,-0.40559 0.49981,-1.5911 -0.13089,-0.76373 -0.38899,-1.58861 -0.57319,-1.83303 -0.45451,-0.60289 0.36969,-1.11196 0.89979,-0.55578 0.22346,0.23439 0.76369,0.426 1.20071,0.426 0.4369,0 1.00619,0.26779 1.26509,0.59511 1.22249,1.54513 2.805715,1.45204 4.320895,-0.25408 0.7284,-0.8204 0.78682,-0.82741 1.47151,-0.17743 0.39209,0.3723 0.88031,0.56842 1.08479,0.4358 0.20443,-0.13266 0.6469,0.19946 0.9833,0.7379 0.4261,0.68242 0.81781,0.91022 1.29311,0.75199 0.8593,-0.28617 0.8738,0.31916 0.043,1.80739 -0.63419,1.13619 -0.63161,1.14972 0.3924,2.01042 l 1.03079,0.8665 -1.1344,0.49299 c -1.30358,0.56645 -2.56929,2.09009 -2.56929,3.0928 0,0.37741 0.4311,1.04188 0.95779,1.47662 0.58491,0.48263 0.9579,1.16915 0.9579,1.76307 0,1.16163 -1.12159,2.58628 -1.81589,2.30671 -0.3055,-0.12282 -0.45349,0.0295 -0.3881,0.39956 0.0841,0.47393 -0.29401,0.61356 -1.81699,0.67131 -1.5494,0.0586 -2.05151,-0.0823 -2.585515,-0.7266 z m 1.771915,-13.93074 c 0,-0.51957 -0.6439,-0.86095 -0.8771,-0.46505 -0.21806,0.37017 0.098,0.82526 0.57298,0.82526 0.16731,0 0.30412,-0.1622 0.30412,-0.36021 z m -2.066815,-5.21617 c -0.30409,-0.83142 0.467905,-1.61331 1.020605,-1.03355 0.467,0.49001 0.17764,1.63349 -0.41341,1.63349 -0.213125,0 -0.486385,-0.26996 -0.607195,-0.59994 z m -0.11655,-2.94098 c 0,-0.69648 0.0731,-0.7514 0.35922,-0.28708 0.457305,0.74214 0.457305,1.14839 0,1.14839 -0.20068,0 -0.3622,-0.38759 -0.35922,-0.86131 z m 18.777025,30.72961 c 0.35858,-0.41568 0.95889,-0.85795 1.33368,-0.98279 0.37492,-0.12492 0.68161,-0.50325 0.68161,-0.84093 0,-0.33769 0.25249,-0.90669 0.56109,-1.26441 0.5352,-0.62043 0.61211,-1.44076 0.54471,-5.81046 -0.0289,-1.79593 -0.0341,-1.80558 -1.11409,-1.57905 -1.01221,0.21236 -1.08632,0.14954 -1.08632,-0.92147 0,-0.63214 -0.24828,-1.36559 -0.55188,-1.62984 -0.42682,-0.37162 -0.45551,-0.60198 -0.12736,-1.01692 0.93769,-1.18518 -1.56871,-3.83245 -3.2173,-3.39834 -0.51311,0.13501 -0.8328,0.3506 -0.71051,0.47888 0.3149,0.33048 -0.49159,1.2607 -1.09309,1.2607 -0.2765,0 -0.5027,-0.24824 -0.5027,-0.55161 0,-0.78799 -0.67651,-1.11974 -1.25541,-0.61569 -0.5601,0.48774 -0.3309,1.92142 0.40081,2.50711 0.50868,0.40701 0.28059,2.10539 -0.2825,2.10539 -0.17741,0 -0.3223,0.17227 -0.3223,0.38283 0,0.21048 0.24619,0.38277 0.5472,0.38277 0.30108,0 0.54739,-0.17227 0.54739,-0.38277 0,-0.21049 0.22723,-0.38283 0.50531,-0.38283 0.27789,0 0.76519,-0.41599 1.0827,-0.92443 0.61419,-0.98347 2.0606,-0.98834 2.0606,-0.007 0,0.2808 0.22229,0.6483 0.4941,0.81666 0.5449,0.33756 1.33039,1.7467 1.33039,2.38637 0,0.22431 -0.22863,0.40798 -0.50819,0.40798 -0.61441,0 -0.9513,0.82476 -0.9513,2.3281 0,0.73779 0.18587,1.1171 0.5472,1.1171 0.30111,0 0.54739,0.31162 0.54739,0.69243 0,0.38085 0.2284,1.02033 0.5077,1.42107 0.4139,0.59359 0.60891,0.64082 1.0522,0.2548 0.43761,-0.38107 0.58342,-0.36637 0.7448,0.075 0.13089,0.35753 -0.11397,0.63179 -0.70269,0.78677 -0.49691,0.13078 -0.99221,0.48023 -1.10039,0.77641 -0.16191,0.44238 -0.42382,0.40486 -1.46751,-0.21025 -0.6987,-0.41173 -1.43071,-0.64468 -1.62659,-0.51767 -0.45462,0.29474 -0.0211,1.79349 0.63348,2.19523 0.2746,0.16829 0.49941,0.55597 0.49941,0.86131 0,0.80507 1.23819,0.68076 1.9984,-0.20064 z m 5.53269,-0.96561 c 0.33941,-0.3561 0.45401,-0.87785 0.30249,-1.37834 -0.28769,-0.95117 -0.75088,-0.57176 -1.09699,0.89867 -0.2773,1.17761 -0.0188,1.33339 0.7945,0.47967 z m -52.775496,-0.67109 c 0,-0.44829 -0.531505,-0.33675 -0.684102,0.14344 -0.0759,0.23685 0.04794,0.36607 0.273589,0.28711 0.225583,-0.079 0.410513,-0.27274 0.410513,-0.43067 z m -29.919802,-1.36721 c 0,-0.52763 -0.895703,-0.81666 -1.439004,-0.46435 -0.355716,0.23064 -0.364904,0.48641 -0.04089,1.12202 0.367112,0.7198 0.486506,0.75344 0.949796,0.26744 0.291495,-0.30576 0.529907,-0.72206 0.529907,-0.92511 z m 28.095381,0.65636 c 0,-0.23299 0.238013,-0.32796 0.528802,-0.21095 0.353413,0.14227 0.461411,0.0288 0.325803,-0.34186 -0.255097,-0.6974 -1.949197,-0.73591 -1.949197,-0.0443 0,0.28073 0.109501,0.62526 0.243206,0.76561 0.376887,0.39541 0.851386,0.30147 0.851386,-0.16853 z m -32.221989,-2.20838 c 0.378109,-0.63492 0.6462,-0.67645 2.314006,-0.35845 1.488703,0.28386 2.013089,0.24404 2.487893,-0.18892 0.330995,-0.30173 0.806998,-0.47061 1.057911,-0.37526 1.0444,0.39696 0.354494,-0.61941 -0.816021,-1.20215 -0.699682,-0.34832 -1.45308,-0.98804 -1.674386,-1.42156 -0.297111,-0.58253 -0.649701,-0.73856 -1.351615,-0.59781 -1.352085,0.27119 -2.572697,-0.66318 -2.363987,-1.80945 0.124776,-0.68503 0.480702,-0.97515 1.423402,-1.16069 1.936085,-0.38107 2.684502,0.0211 2.68469,1.44629 1.18e-4,1.18326 0.047,1.21936 1.641912,1.25501 1.4907,0.0333 2.204998,-0.35018 1.264789,-0.679 -0.218533,-0.0764 -0.434904,-1.94198 -0.514493,-4.43411 -0.107151,-3.35843 -0.0329,-4.30224 0.339502,-4.30224 0.839989,0 2.794708,-2.6656 2.549387,-3.47658 -0.230987,-0.76317 -0.221823,-0.76634 2.519521,-0.88149 1.282578,-0.0539 1.874779,-0.92539 1.550292,-2.2817 -0.317201,-1.32638 -0.583506,-1.28461 -2.179996,0.34197 -0.889006,0.90591 -1.333098,1.16088 -1.333098,0.76561 0,-0.8554 -0.528615,-0.73033 -1.512413,0.35775 -0.472595,0.52273 -1.076193,0.95337 -1.341393,0.957 -0.265201,0.002 -0.728702,0.26517 -1.029808,0.58117 -0.349794,0.36693 -0.900591,0.49409 -1.524585,0.35184 -0.681212,-0.15517 -0.826807,-0.11157 -0.480514,0.14415 0.651111,0.48117 0.765312,2.84181 0.161198,3.33166 -0.383702,0.31101 -0.370308,0.58768 0.0719,1.47535 0.299202,0.60091 0.452998,1.24686 0.341898,1.43549 -0.404897,0.68709 -2.003101,0.32496 -2.797786,-0.63388 -0.586421,-0.70752 -1.039113,-0.91641 -1.6421,-0.75763 -0.457815,0.12047 -0.798703,0.0865 -0.757722,-0.0757 0.12971,-0.51137 -0.469399,-2.01768 -0.802486,-2.01768 -0.670896,0 -0.77121,0.83847 -0.156498,1.30992 0.943898,0.72421 0.414696,1.75252 -0.902001,1.75252 -0.596501,0 -1.185999,-0.17228 -1.309999,-0.38283 -0.124071,-0.21048 -0.528921,-0.3828 -0.899604,-0.3828 -1.117997,0 -0.446912,-1.49047 0.945895,-2.10103 1.328093,-0.5822 1.646588,-1.34417 0.561794,-1.34417 -0.367887,0 -0.784204,-0.12094 -0.924794,-0.26849 -0.140989,-0.14766 -0.893706,-0.30288 -1.673211,-0.3449 -1.4336,-0.0774 -2.866495,0.94697 -3.075887,2.19884 -0.221118,1.32017 -0.748605,2.47385 -1.326214,2.90067 -0.742683,0.54849 -0.857095,2.4043 -0.148508,2.4043 0.265999,0 0.634004,0.2819 0.817901,0.62643 0.261511,0.49022 0.631208,0.56795 1.700704,0.35742 1.263708,-0.24869 1.351286,-0.35013 1.161702,-1.34485 -0.211483,-1.10851 0.727104,-2.93297 1.072105,-2.08458 0.09493,0.23392 0.471491,1.03954 0.8363,1.79009 0.385981,0.79437 0.540881,1.57216 0.370589,1.86126 -0.168952,0.28644 -0.107151,0.62241 0.144279,0.79385 0.329492,0.22431 0.311398,0.38193 -0.07402,0.64238 -0.280897,0.18986 -0.527205,0.92195 -0.547296,1.62689 l -0.03595,1.28173 -2.410819,-0.13149 c -1.961087,-0.10688 -2.453092,-0.0164 -2.637294,0.4879 -0.158378,0.43313 -0.48841,0.55046 -1.097294,0.39012 -0.596807,-0.15704 -0.938705,-0.0436 -1.086697,0.36114 -0.254509,0.69559 0.298592,1.16179 0.908698,0.76614 0.290391,-0.18821 0.349488,-0.0649 0.184696,0.38524 -0.189865,0.5195 -0.09399,0.61288 0.44341,0.43376 0.377099,-0.12563 1.116493,-0.0211 1.643298,0.22947 0.840788,0.40197 1.075794,0.34502 1.925088,-0.46667 0.532116,-0.50846 0.857801,-0.72386 0.723908,-0.47866 -0.317507,0.58095 0.398294,0.83362 1.767791,0.62408 0.648902,-0.0994 1.391703,0.0724 1.824399,0.42185 1.006003,0.81246 2.473206,0.7612 2.988403,-0.10454 z m 1.572498,-8.81096 c 0,-0.18798 0.24619,-0.441 0.547296,-0.5622 0.333415,-0.13431 0.547296,-7.5e-4 0.547296,0.34185 0,0.30921 -0.246285,0.56221 -0.547296,0.56221 -0.301106,0 -0.547296,-0.15376 -0.547296,-0.34186 z m 31.181207,8.02435 c 0.115376,-0.19595 0.043,-0.46456 -0.160962,-0.59682 -0.725788,-0.47068 -0.373198,-2.31857 0.671413,-3.51857 0.573191,-0.65842 1.133787,-1.44748 1.245685,-1.7535 0.111852,-0.30599 0.710303,-0.66266 1.329503,-0.79261 1.169011,-0.24526 1.518499,-1.22168 0.732603,-2.04621 -0.724684,-0.7603 -0.230752,-2.56725 0.849506,-3.10796 1.267092,-0.63421 1.27339,-1.07195 0.02115,-1.40194 -0.772596,-0.20345 -1.122601,-0.0687 -1.633898,0.62841 -0.357901,0.488 -0.659805,1.05953 -0.670897,1.27008 -0.03713,0.69646 -1.428101,2.16835 -1.813401,1.91852 -0.207958,-0.13501 -0.699399,-0.13853 -1.091701,-0.007 -0.566894,0.18892 -0.669393,0.46751 -0.499407,1.3592 0.326907,1.71494 -0.470786,4.37773 -1.696803,5.66399 -1.605395,1.68433 -1.082397,2.50743 1.708717,2.68943 0.439697,0.0286 0.893894,-0.10828 1.009293,-0.30421 z m -48.839615,-2.98521 c -0.121251,-0.12728 -0.207489,0.0989 -0.191745,0.50243 0.01645,0.44595 0.103392,0.53663 0.220413,0.23134 0.105976,-0.27632 0.09305,-0.60648 -0.0289,-0.7337 z m 5.753598,-0.88229 c 0.542409,-0.63878 0.875213,-1.34996 0.739511,-1.58036 -0.162607,-0.27625 -0.360109,-0.20673 -0.5793,0.20439 -0.183051,0.34284 -0.643098,0.62337 -1.022594,0.62337 -0.823399,0 -1.24021,0.59024 -0.959407,1.35812 0.301999,0.82566 0.725906,0.68476 1.82179,-0.60554 z m 89.258408,0.8824 c -0.30108,-0.12024 -0.6681,-0.40809 -0.81548,-0.63969 -0.16519,-0.25975 -0.2703,-0.16431 -0.27371,0.2488 0,0.45008 0.26391,0.65999 0.81551,0.6397 0.54849,-0.0211 0.63938,-0.10267 0.27368,-0.24881 z m -49.285194,-3.1378 c 0.756101,-0.79342 0.671296,-1.98812 -0.1948,-2.74234 -0.874508,-0.76136 -0.523516,-3.02808 0.468695,-3.02808 0.704193,0 0.493297,-1.51766 -0.281508,-2.02699 -0.991388,-0.6516 -2.2922,0.009 -2.953204,1.50283 -0.520602,1.17531 -0.538883,1.4724 -0.118196,1.91363 0.290391,0.30464 0.775299,0.41206 1.163489,0.25776 0.623501,-0.24782 0.62672,-0.2236 0.05311,0.38388 -0.336799,0.35667 -0.788293,0.64851 -1.003302,0.64851 -0.426304,0 -0.425011,-0.005 -0.57211,1.84667 -0.07801,0.998 0.06697,1.3437 0.678604,1.60265 1.248505,0.52876 2.007708,0.43013 2.759297,-0.35852 z m -6.446301,-3.16032 c 0.625709,-0.0933 0.844595,-0.41407 0.932196,-1.36599 0.06392,-0.69883 -0.05499,-1.24411 -0.273801,-1.24411 -0.213363,0 -0.388001,0.27037 -0.388001,0.60083 0,0.40174 -0.267504,0.56028 -0.807492,0.4785 -1.320597,-0.20016 -1.716612,-4.07744 -0.569008,-5.57239 0.199969,-0.26047 0.261206,-0.75339 0.136054,-1.09532 -0.148273,-0.40619 -0.06791,-0.55878 0.233102,-0.4402 1.936884,0.76387 2.106189,0.74805 1.789081,-0.16712 -0.467684,-1.35087 -1.901895,-1.9205 -3.934699,-1.56297 -1.582297,0.27834 -1.756488,0.41719 -2.055503,1.63889 -0.179526,0.73415 -0.592694,1.6459 -0.917885,2.02612 -0.445314,0.52065 -0.4956,0.85191 -0.203965,1.34183 0.274906,0.46176 0.270206,0.85082 -0.01645,1.34081 -0.313395,0.53626 -0.276198,0.79209 0.166602,1.14639 0.3137,0.25085 0.959595,1.18819 1.435597,2.08299 0.506503,0.95213 1.131202,1.62691 1.506304,1.62691 0.35259,0 0.749991,0.18493 0.883085,0.4109 0.152268,0.25835 0.432413,0.12587 0.75462,-0.35662 0.28179,-0.42213 0.880382,-0.82237 1.330185,-0.88941 z m -10.88809,-0.1629 c 0.798397,-0.32144 0.724589,-0.91606 -0.113027,-0.91606 -0.379918,0 -0.785215,0.25839 -0.900614,0.57418 -0.224408,0.61309 0.08412,0.71671 1.014205,0.34188 z m 16.569596,-6.45472 c 0.06697,-0.60533 -0.09211,-1.21467 -0.363,-1.39084 -0.378908,-0.24557 -0.325802,-0.43858 0.244381,-0.89065 0.97602,-0.77383 1.407423,-0.74711 1.104814,0.0684 -0.445502,1.20096 -0.388096,1.41552 0.412792,1.54446 0.531106,0.0853 0.864099,-0.11931 1.017401,-0.62547 0.360109,-1.19099 1.294303,-1.3621 1.294303,-0.23706 0,0.51976 0.146863,0.94501 0.325896,0.94501 0.800512,0 1.082608,-3.23826 0.312714,-3.58954 -0.250796,-0.11461 -0.02115,-0.11485 0.507584,-7.7e-4 1.202707,0.25867 1.438605,-0.12657 1.164005,-1.90148 l -0.216653,-1.40065 -0.824292,1.00651 c -0.453515,0.5536 -1.006615,0.88845 -1.229096,0.74409 -0.227932,-0.14767 -0.40492,-0.0117 -0.40492,0.31173 0,0.66677 -0.188691,0.80637 -1.550692,1.14796 -0.814799,0.20439 -1.003395,0.12071 -1.003395,-0.44472 0,-0.38299 0.180465,-0.88571 0.40109,-1.11717 0.221118,-0.23181 0.288698,-0.79246 0.150858,-1.24809 -0.205139,-0.67841 -0.437301,-0.78419 -1.289392,-0.5878 -1.621303,0.37357 -2.4866,-0.76249 -2.213904,-2.90676 0.12783,-1.0045 0.404991,-1.68865 0.684197,-1.68865 0.449285,0 1.155193,-0.85571 1.166989,-1.41465 0,-0.27339 -1.099996,-0.96188 -3.186986,-1.98464 -0.772503,-0.37848 -1.186,-0.85481 -1.186,-1.36622 0,-0.51514 -0.237402,-0.78513 -0.690612,-0.78513 -0.749591,0 -1.420088,-1.23965 -0.789797,-1.46012 0.212424,-0.0741 0.385793,-0.37286 0.385793,-0.66372 0,-0.29087 0.328411,-0.71322 0.729807,-0.93858 0.808196,-0.45382 0.961004,-1.33601 0.3051,-1.76136 -0.244804,-0.15868 -0.785708,0.16501 -1.277102,0.76437 -0.468789,0.57181 -0.852303,0.85781 -0.852303,0.63554 0,-0.2222 -0.246284,-0.40416 -0.54739,-0.40416 -0.301011,0 -0.547296,0.31008 -0.547296,0.68906 0,0.37896 -0.145688,0.85268 -0.323898,1.05271 -0.178116,0.19993 -0.429406,0.73124 -0.558411,1.18051 -0.187045,0.65156 -0.05005,0.86574 0.682105,1.05827 0.970005,0.25543 2.024485,1.96054 2.024485,3.27367 0,0.51237 0.237708,0.78462 0.685207,0.78462 0.376699,0 0.90811,0.28201 1.180807,0.62673 0.428207,0.54132 0.384594,0.7041 -0.32021,1.19507 -0.448792,0.31263 -0.815997,0.95961 -0.815997,1.43776 0,0.47815 -0.246191,0.96852 -0.547202,1.08969 -0.953697,0.38393 -0.605501,1.29697 0.563298,1.47691 0.610905,0.094 1.193214,0.0309 1.293997,-0.14017 0.101042,-0.1711 0.487423,-0.1118 0.859305,0.13173 0.527205,0.34542 0.675314,0.91233 0.673599,2.57606 0,1.17323 0.01645,2.5509 0.03501,3.06142 0.02115,0.51054 -0.1995,1.20353 -0.489702,1.53995 -0.318612,0.36923 -0.408492,0.81412 -0.226757,1.12234 0.210073,0.35707 0.375806,0.38321 0.550397,0.087 0.3454,-0.58627 0.936215,-0.53164 0.936215,0.0865 0,0.2921 0.350992,0.48404 0.820979,0.44893 0.610412,-0.0457 0.851809,-0.3375 0.941407,-1.13859 z M 36.64149,290.22301 c 0.295207,-0.19595 0.441813,-0.45567 0.325896,-0.57734 -0.2875,-0.30157 -1.409984,0.17883 -1.409984,0.60336 0,0.43631 0.401795,0.42668 1.084088,-0.026 z m 2.792711,-2.31175 c 0.275892,0 0.501686,-0.33008 0.501686,-0.73351 0,-0.44686 0.427714,-0.93219 1.094615,-1.24186 1.4778,-0.68624 1.519087,-2.43454 0.09,-3.85845 l -1.003395,-1.00065 -1.123001,1.21612 c -2.466815,2.6717 -2.773701,3.44403 -2.366502,5.95329 0.0141,0.079 0.536182,0.0359 1.163301,-0.0956 0.62719,-0.13149 1.36609,-0.23924 1.641982,-0.23924 z m 37.354084,-2.12801 c 0,-0.0928 -0.164253,-0.16875 -0.36488,-0.16875 -0.200674,0 -0.364903,0.18235 -0.364903,0.40539 0,0.22291 0.164252,0.29892 0.364903,0.16876 0.200674,-0.13008 0.36488,-0.31255 0.36488,-0.4054 z m -24.22408,-2.31287 c 0.222998,-0.29455 0.613984,-0.53555 0.869197,-0.53555 0.884989,0 2.888795,-1.55915 2.692703,-2.09527 -0.105977,-0.28909 0.142869,-0.71373 0.552184,-0.94362 0.784909,-0.44074 0.688308,-1.55472 -0.13488,-1.55472 -0.255119,0 -0.668217,-0.25839 -0.917909,-0.5742 -0.564097,-0.71299 -2.416012,-0.75323 -2.809794,-0.0609 -0.160258,0.28222 -0.661098,0.61063 -1.112615,0.72976 -0.611399,0.16126 -0.821003,0.0497 -0.821003,-0.43659 0,-0.68017 -0.66239,-1.57192 -1.167695,-1.57192 -0.160492,0 -0.2918,0.3445 -0.2918,0.7656 0,0.42532 -0.2433,0.76558 -0.54739,0.76558 -0.301011,0 -0.547202,-0.25836 -0.547202,-0.5742 0,-0.31579 0.129005,-0.57418 0.286701,-0.57418 0.739793,0 0.207959,-1.54223 -0.638609,-1.85127 -0.913985,-0.3337 -0.926087,-0.31195 -0.996182,1.80945 -0.03901,1.18097 -0.162137,2.66504 -0.273519,3.29796 -0.172946,0.98305 -0.05593,1.21926 0.800818,1.62108 0.55169,0.25871 1.495682,0.97798 2.097682,1.59841 1.139614,1.1743 2.162607,1.23815 2.959219,0.18469 z m 20.757793,-2.83234 c -0.12407,-0.21048 -0.297909,-0.3828 -0.386404,-0.3828 -0.08812,0 -0.160962,0.17227 -0.160962,0.3828 0,0.21048 0.173886,0.38278 0.386498,0.38278 0.212423,0 0.284915,-0.17228 0.160962,-0.38278 z m 11.697607,-3.09915 c 0.13582,-0.23064 -0.0188,-0.69831 -0.34331,-1.03904 -0.5441,-0.57081 -0.59051,-0.53783 -0.59051,0.41953 0,1.05718 0.48601,1.37961 0.93382,0.61951 z m 5.77479,-0.92619 c 1.2552,-0.14274 1.3186,-0.16922 1.3186,-0.54858 0,-0.55581 1.66529,-2.31653 2.19081,-2.31653 0.4721,0 1.42509,-1.08519 1.44638,-1.64681 0.0118,-0.16876 -0.4952,-0.49236 -1.11459,-0.71889 -1.0432,-0.38159 -1.0819,-0.4575 -0.5249,-1.03279 0.5546,-0.57286 0.63741,-0.56951 1.0709,0.0431 0.6494,0.91747 0.94891,0.45868 0.44609,-0.68298 -0.22723,-0.51605 -0.6184,-0.85751 -0.86938,-0.75874 -0.2672,0.10501 -0.45591,-0.12891 -0.45591,-0.56523 0,-1.46288 -2.8144,-2.41982 -2.9662,-1.00857 -0.0261,0.24067 -0.10833,0.8682 -0.18188,1.39456 -0.4079,2.88895 -0.3782,3.81509 0.10927,3.39101 0.26682,-0.23227 0.48512,-0.90788 0.48512,-1.50128 0,-1.20182 0.59159,-1.80492 1.17258,-1.19535 0.5151,0.54036 0.11937,1.94066 -0.93429,3.30719 -0.828,1.07373 -0.90369,1.09712 -1.5059,0.46528 -0.83741,-0.87851 -1.83051,-0.17391 -1.2788,0.90739 0.5141,1.00806 0.45749,1.13339 -0.51261,1.13339 -0.55439,0 -0.93668,0.26973 -1.055,0.74418 -0.14451,0.57929 0.0289,0.77315 0.7784,0.87497 0.5301,0.072 1.10931,0.057 1.28721,-0.0333 0.17788,-0.0902 0.67031,-0.20368 1.0945,-0.25189 z m -5.16711,-1.4296 c 1.1179,-0.66704 1.74242,-1.30892 1.74242,-1.79096 0,-0.22548 0.14357,-0.41015 0.31919,-0.41015 0.17554,0 0.3193,-0.45024 0.3193,-1.00054 0,-0.55029 0.1807,-1.11768 0.40149,-1.26084 0.22088,-0.14321 0.44651,-0.68287 0.50171,-1.19934 0.13464,-1.26103 -1.4876,-1.62419 -1.7924,-0.40125 -0.15015,0.60231 -0.3966,0.73978 -1.02821,0.57345 -0.45689,-0.12024 -0.94209,-0.0298 -1.07828,0.20134 -0.13605,0.23111 -0.42612,0.30422 -0.64451,0.16267 -0.2605,-0.16876 -0.32491,0.0323 -0.18728,0.5848 0.11538,0.46326 -0.0212,1.30844 -0.3059,1.87817 -0.44928,0.9019 -0.44538,1.09082 0.0301,1.46087 0.30019,0.23369 0.54579,0.70746 0.54579,1.05269 0,0.75365 0.13512,0.77076 1.17681,0.1493 z m -5.2814,-4.21477 c 1.27922,-1.05713 -0.21924,-3.34884 -2.26229,-3.4601 -1.647008,-0.0898 -2.074792,0.55904 -0.77769,1.17911 0.78608,0.37572 0.8742,0.60751 0.6884,1.80929 -0.21031,1.35872 -0.19832,1.37459 0.84109,1.11348 0.57989,-0.14579 1.2596,-0.43451 1.51049,-0.64178 z m 2.593,-0.32514 c -0.877,-0.58299 -1.63,-0.40469 -0.84248,0.19947 0.38739,0.29713 0.84669,0.44786 1.02088,0.33494 0.17412,-0.11298 0.094,-0.35339 -0.17835,-0.53439 z m -7.974999,-3.20959 c 0,-0.26549 -0.238389,-0.69032 -0.529789,-0.94405 -0.421511,-0.36688 -0.717893,-0.31769 -1.448005,0.24023 -1.141988,0.87255 -1.169598,1.18511 -0.120311,1.35701 1.177705,0.1929 2.097988,-0.0935 2.097988,-0.65319 z"
       id="path22377-7-2"
       inkscape:connector-curvature="0" />
    <path
       style="fill:#ffffff;fill-opacity:0.51415094;stroke:none"
       d="m 185.86807,309.77337 c 39.12457,11.69009 -8.70639,90.38162 -67.17515,112.12693 56.90486,-12.31805 115.80445,-106.31645 67.17515,-112.12693 z"
       id="path23528"
       inkscape:connector-curvature="0"
       transform="translate(-23.40625,30.625)"
       sodipodi:nodetypes="ccc" />
    <path
       style="fill:#ffffff;stroke:none;stroke-width:1px;stroke-linecap:butt;stroke-linejoin:miter;stroke-opacity:1;fill-opacity:0.09433963"
       d="m 128.57143,365.01786 c -16.0071,18.43349 -27.13313,37.18189 -13.92857,57.5 l 11.78571,-3.57143 c -18.68527,-7.67017 -9.06464,-30.37786 2.14286,-53.92857 z"
       id="path23530"
       inkscape:connector-curvature="0"
       transform="translate(-23.40625,30.625)"
       sodipodi:nodetypes="cccc" />
    <path
       sodipodi:type="arc"
       style="opacity:0.44444442000000001;fill:#000000;fill-opacity:0.5;stroke:none"
       id="path23532"
       sodipodi:cx="614.82141"
       sodipodi:cy="298.23215"
       sodipodi:rx="3.3928571"
       sodipodi:ry="6.6071429"
       d="m 618.21427,298.23215 a 3.3928571,6.6071429 0 1 1 -6.78572,0 3.3928571,6.6071429 0 1 1 6.78572,0 z"
       transform="translate(-23.40625,30.625)" />
  </g>
</svg>
