<?xml version="1.0" encoding="UTF-8"?>
<!DOCTYPE svg PUBLIC "-//W3C//DTD SVG 1.1//EN" "http://www.w3.org/Graphics/SVG/1.1/DTD/svg11.dtd">
<!-- Creator: CorelDRAW -->
<svg xmlns="http://www.w3.org/2000/svg" xml:space="preserve" width="210mm" height="297mm" version="1.1" style="shape-rendering:geometricPrecision; text-rendering:geometricPrecision; image-rendering:optimizeQuality; fill-rule:evenodd; clip-rule:evenodd"
viewBox="0 0 21000 29700"
 xmlns:xlink="http://www.w3.org/1999/xlink"
 xmlns:xodm="http://www.corel.com/coreldraw/odm/2003">
 <defs>
  <style type="text/css">
   <![CDATA[
    .fil0 {fill:#2C58DB}
    .fil1 {fill:#35993E}
    .fil3 {fill:#B88D00}
    .fil5 {fill:#C42100}
    .fil4 {fill:#D92400}
    .fil2 {fill:#FFC300}
   ]]>
  </style>
 </defs>
 <g id="Слой_x0020_1">
  <metadata id="CorelCorpID_0Corel-Layer"/>
  <path class="fil0" d="M10500 25961.56c340.57,-445.83 840.23,-742.86 1409.06,-759.4l1.09 -0.02 5839.33 0c1261.61,0 2290.68,-1029.06 2290.68,-2290.68l0 -18789.64c0,-224.86 -183.48,-408.33 -408.34,-408.33l-18263.64 0c-224.86,0 -408.33,183.47 -408.33,408.33l0 18789.64c0,1261.62 1029.06,2290.68 2290.68,2290.68l5839.87 0 0.54 0.02c568.84,16.54 1068.5,313.57 1409.06,759.4z"/>
  <path class="fil1" d="M1296.02 10374.48l18407.97 0 0 1010.1 -18407.97 0 0 -1010.1zm0 1290.68l18407.97 0 0 1010.11 -18407.97 0 0 -1010.11z"/>
  <path class="fil2" d="M10500.41 6245.2c108.02,0.21 195.53,87.87 195.53,195.94 0,108.21 -87.72,195.94 -195.94,195.94 -108.21,0 -195.94,-87.73 -195.94,-195.94 0,-108.08 87.51,-195.72 195.53,-195.94l-1.05 0 -1609.56 0 0 -252.52 78.32 0 3065.4 0 78.33 0 0 252.52 -1609.57 0 -1.05 0zm1457.08 13877.74l-28.86 0c36.79,-1909.08 814.79,-3623.23 1937.43,-5385.3 13.72,-21.55 -19.67,-42.83 -33.4,-21.29 -14.31,22.47 -28.55,44.92 -42.74,67.37 48.02,-87.44 16.24,-266.92 -242.46,-489.38 -111.33,513.98 145.76,621.75 233.36,503.78 -61.5,97.4 -121.95,194.68 -181.28,291.88 46.55,-88.18 12.34,-266.96 -248.11,-486.05 -105.77,515.36 152.74,620.21 238.94,501.07 -999.92,1641.41 -1667.54,3249.1 -1701.58,5017.92l-27.55 0c8.4,-443.15 56.46,-888.71 146.33,-1338.55 88.95,-445.23 215.57,-879.4 371,-1303.17 -79.88,14.3 -159.24,-33.25 -209.48,-98.36 -56.42,-73.11 -86.12,-170.12 -100.3,-268.62 -288.9,1018.74 -450.14,2008.75 -470.95,3008.7l-28.22 0c40.11,-1959.81 616.47,-3772.87 1466.05,-5701.08 10.34,-23.46 -26.02,-39.46 -36.35,-16.01 -852.67,1935.23 -1429.1,3751.76 -1468.88,5717.09l-27.53 0c20.75,-1010.8 183.51,-2011.47 475.83,-3040.81l-5.34 -1.27c-63.49,83.04 -141.08,157.48 -230.97,194.22 -75.64,30.91 -167.46,32.42 -229.38,-19.01 -159.4,967.8 -252,1915.98 -268.67,2866.87l-28.07 0c35.37,-2032.21 416.46,-3973.76 977.14,-6024.97 6.74,-24.66 -31.48,-35.05 -38.22,-10.4 -562.91,2059.41 -943.15,4000.1 -978.05,6035.37l-27.63 0c16.46,-956.12 109.13,-1909.38 269.55,-2883.31 -75.65,28.53 -162.18,-3.34 -223.52,-57.75 -70.25,-62.32 -117.97,-154.09 -150.34,-249.95l-3.22 -0.28c-34.22,423.86 -63.41,848.14 -86.78,1272.84 -35.2,639.41 -56.94,1278.94 -63.54,1918.45l-28.09 0c21.48,-2062.28 201.41,-4095 464.27,-6169.26 3.21,-25.35 -36.09,-30.33 -39.3,-4.97 -263.09,2076.09 -443.03,4110.37 -464.53,6174.23l-27.57 0c10.97,-1052.25 62.91,-2103.22 147.38,-3159.28 -46.33,80.83 -105.08,154.3 -178.44,199.97 -69.47,43.25 -159.9,60.14 -229.62,19.61l0 2939.7 -27.86 0 0 -6280.57c0,-25.66 -39.77,-25.66 -39.77,0l0 6280.57 -27.86 0 0 -2939.7c-69.72,40.53 -160.15,23.64 -229.62,-19.61 -73.34,-45.65 -132.06,-119.07 -178.38,-199.86 84.5,1056 136.46,2106.94 147.43,3159.17l-27.56 0c-21.5,-2063.87 -201.57,-4098.2 -464.65,-6174.23 -3.22,-25.36 -42.52,-20.38 -39.3,4.97 262.87,2074.33 442.66,4106.99 464.14,6169.26l-28.14 0c-11.09,-1062.9 -64.1,-2124.39 -150.21,-3191.29l-3.15 0.28c-32.37,95.86 -80.09,187.63 -150.35,249.95 -61.34,54.41 -147.86,86.28 -223.51,57.75 160.39,973.3 253.47,1926.91 270.12,2883.31l-27.62 0c-35.32,-2035.71 -416.93,-3980.36 -978.64,-6035.37 -6.74,-24.65 -44.96,-14.26 -38.22,10.4 561.75,2055.13 941.48,3993.17 976.49,6024.97l-28.04 0c-16.49,-950.6 -108.71,-1898.45 -268.12,-2866.81 -61.92,51.37 -153.69,49.84 -229.3,18.95 -89.89,-36.74 -167.48,-111.18 -230.97,-194.22l-5.34 1.27c292.3,1029.08 455.39,2029.92 476.27,3040.81l-27.53 0c-40.04,-1965.45 -617.49,-3783.77 -1469.32,-5717.09 -10.34,-23.45 -46.69,-7.45 -36.36,16.01 850.43,1930.14 1425.77,3741.39 1465.61,5701.08l-28.32 0c-20.69,-999.95 -181.56,-1989.94 -470.4,-3008.7 -14.19,98.51 -43.88,195.51 -100.3,268.62 -50.24,65.11 -129.61,112.66 -209.49,98.36 155.44,423.77 282.05,857.93 371,1303.16 89.87,449.85 137.93,895.41 146.33,1338.56l-27.55 0c-34.04,-1768.83 -701.66,-3376.52 -1701.59,-5017.94 86.19,119.17 344.73,14.35 238.96,-501.05 -260.49,219.11 -294.68,397.91 -248.1,486.08 -59.33,-97.21 -119.79,-194.5 -181.29,-291.91 87.6,117.97 344.69,10.2 233.35,-503.78 -258.69,222.46 -290.47,401.94 -242.45,489.38 -14.19,-22.45 -28.43,-44.9 -42.75,-67.37 -13.72,-21.54 -47.12,-0.26 -33.39,21.29 1122.64,1762.07 1900.64,3476.22 1937.43,5385.3l-28.11 0c-8.83,-460.46 -61.01,-923.35 -158.81,-1390.93 -86.77,-414.84 -206.52,-820.25 -351.82,-1216.65 -75.91,91.54 -214.8,77.3 -318.04,28.3 338.42,525.12 561.35,1485.16 565.52,2596.31 -51.18,26.07 -86.47,79.32 -86.47,140.43l0 334.42c0,53.13 26.67,100.33 67.29,128.88 -24.47,360.76 -71.51,702.63 -137.01,1015.22 65.94,89.83 138.13,174.78 215.94,254.21 95.81,-413.63 158.75,-826.69 187.21,-1240.85l28.27 0c-28.16,410.87 -90.99,831.56 -192.27,1264.33 10.95,10.93 22.01,21.74 33.2,32.42 105.21,-443.9 170.36,-875.34 199.1,-1296.75l27.43 0c-29.89,440.37 -98.28,879.27 -203.16,1318.54 93.62,86.95 194.38,166.33 301.28,237.16 96.23,-526.72 153.8,-1043.58 174.36,-1555.7l28.22 0c-20.61,510.96 -78.26,1033.61 -177.25,1572.38 11.99,7.72 24.1,15.27 36.24,22.76 101.47,-546.56 160.3,-1076.75 181.11,-1595.14l27.69 0c-21.09,530.13 -81.54,1065.23 -183.32,1610.72 102.62,61.67 210.39,115.66 322.46,161.25 72.01,-597.3 112.65,-1186.15 123.95,-1771.97l27.96 0c-11.32,583.28 -51.8,1175.93 -125.24,1782.77 12.72,5 25.52,9.83 38.37,14.59 74.8,-611.46 115.87,-1209 127.25,-1797.36l27.75 0c-11.45,597.52 -53.38,1198.08 -128.08,1807.16 105.97,37.99 215.48,68.55 327.9,91.05 36.41,-634.67 55.58,-1266.93 59.33,-1898.21l28.12 0c-3.8,630.38 -23.04,1264.21 -59.85,1903.49 13.09,2.46 26.23,4.79 39.39,7.04 37.08,-641.66 56.44,-1277.82 60.26,-1910.53l27.57 0c-3.79,636.96 -23.21,1274.86 -60.2,1915.11 104.3,16.42 210.89,25.95 319.29,28.11l0 -1943.22 27.86 0 0 1943.58 39.77 0 0 -1943.58 27.86 0 0 1943.22c108.41,-2.16 215,-11.69 319.31,-28.11 -36.94,-640.27 -56.34,-1278.16 -60.12,-1915.11l27.58 0c3.81,632.7 23.14,1268.86 60.18,1910.52 13.15,-2.23 26.25,-4.58 39.33,-7.02 -36.86,-639.28 -56.13,-1273.11 -59.94,-1903.5l28.13 0c3.82,632.85 23.06,1265.64 59.39,1898.21 112.5,-22.51 222.09,-53.09 328.13,-91.11 -74.28,-609.34 -116.1,-1209.81 -127.6,-1807.1l27.75 0c11.42,587.88 52.38,1185.31 126.78,1797.29 12.69,-4.73 25.38,-9.48 37.97,-14.44 -73.83,-606.39 -114.45,-1199.13 -125.75,-1782.85l27.98 0c11.28,586.02 52.03,1174.97 124.45,1772.05 112.19,-45.62 220.07,-99.67 322.79,-161.41 -101.5,-545.55 -161.88,-1080.59 -182.97,-1610.64l27.71 0c20.82,518.19 79.54,1048.31 180.75,1595.04 12.03,-7.45 24.06,-14.91 35.94,-22.57 -99.25,-538.61 -156.99,-1061.31 -177.59,-1572.47l28.13 0c20.58,512.15 78.27,1029.05 174.79,1555.8 106.97,-70.86 207.77,-150.27 301.43,-237.26 -104.87,-439.27 -173.25,-878.16 -203.15,-1318.54l27.43 0c28.74,421.41 93.89,852.85 199.1,1296.75 11.18,-10.68 22.25,-21.49 33.19,-32.42 -101.28,-432.77 -164.12,-853.46 -192.27,-1264.33l28.62 0c27.88,408.79 89.77,821.68 186.87,1240.85 77.8,-79.43 149.99,-164.38 215.93,-254.21 -64.68,-308.71 -111.37,-645.97 -136.09,-1001.8 53.23,-25.34 90.26,-79.7 90.26,-142.3l0 -334.42c0,-70.2 -46.55,-130.04 -110.31,-150.2 5.44,-1107 228.04,-2062.95 565.47,-2586.54 -103.25,48.99 -242.12,63.26 -318.03,-28.3 -318.93,870.06 -492.55,1731.95 -509.88,2607.58zm-2990.19 -15472.39l3065.4 0 78.33 0 0 -252.53 -3222.05 0 0 252.53 78.32 0zm-2942.25 2099.37l1486.36 0c67.08,0 121.96,-54.88 121.96,-121.96l0 -2578.3 5733.27 0 0 2578.3c0,67.07 54.88,121.96 121.96,121.96l1486.36 0c67.07,0 121.95,-54.88 121.95,-121.96l0 -2578.3 4534.91 0c39.3,0 72.17,32.86 72.17,72.16l0 6252.66 0 1010.1 0 280.58 0 1010.11 0 10236.19c0,1076.06 -878.45,1954.51 -1954.51,1954.51l-5844.76 0 -5.43 0.16c-534.8,15.56 -1020.49,238.23 -1399.29,594.78 -378.79,-356.54 -864.48,-579.22 -1399.28,-594.78l-5.43 -0.16 -5844.76 0c-1076.06,0 -1954.51,-878.45 -1954.51,-1954.51l0 -10236.19 0 -1010.11 0 -280.58 0 -1010.1 0 -6252.66c0,-39.3 32.86,-72.16 72.16,-72.16l4534.92 0 0 2578.3c0,67.07 54.88,121.96 121.95,121.96zm5885.1 18489.34l5839.33 0c1282.1,0 2327.8,-1045.7 2327.8,-2327.8l0 -18789.64c0,-245.34 -200.11,-445.45 -445.46,-445.45l-18263.64 0c-245.34,0 -445.45,200.11 -445.45,445.45l0 18789.64c0,1282.1 1045.69,2327.8 2327.8,2327.8l5839.33 0c565.81,16.46 1070.36,317.75 1410.14,784.38 339.79,-466.63 844.33,-767.92 1410.15,-784.38zm-4446.06 -6485.49l-475.1 -154.37c-43.18,-14.03 -89.83,9.74 -103.85,52.91l-324.77 999.56c-14.03,43.17 9.74,89.82 52.91,103.85l475.35 154.45c-41.73,307.73 -41.73,622.94 0,930.68l-475.35 154.45c-43.17,14.03 -66.94,60.68 -52.91,103.85l324.77 999.56c14.02,43.17 60.67,66.94 103.85,52.91l475.1 -154.38c148.11,275.59 332.78,528.6 547.53,752.53l-294.02 404.7c-26.68,36.72 -18.49,88.43 18.23,115.11l850.27 617.76c36.72,26.68 88.43,18.49 115.12,-18.23l293.56 -404.05c276.46,133.87 573.61,231.72 885.36,287.47l0 499.64c0,45.39 37.02,82.41 82.42,82.41l1050.99 0c45.39,0 82.42,-37.02 82.42,-82.41l0 -499.64c311.74,-55.75 608.89,-153.6 885.36,-287.48l293.56 404.06c26.68,36.72 78.39,44.91 115.12,18.23l850.26 -617.76c36.73,-26.68 44.92,-78.39 18.24,-115.11l-294.03 -404.7c214.75,-223.94 399.43,-476.94 547.53,-752.53l475.11 154.38c43.18,14.03 89.82,-9.74 103.85,-52.91l324.77 -999.56c14.03,-43.17 -9.74,-89.82 -52.91,-103.85l-475.36 -154.45c41.73,-307.74 41.73,-622.94 0,-930.68l475.36 -154.45c43.17,-14.03 66.94,-60.68 52.91,-103.85l-324.77 -999.56c-14.03,-43.17 -60.67,-66.94 -103.85,-52.91l-475.11 154.37c-206.91,-385 -481.36,-721.37 -805.17,-996.36 -75.91,151.67 -135.21,308.23 -186.04,469.04 569.88,539.23 925.49,1302.59 925.49,2149.06 0,1633.78 -1324.46,2958.24 -2958.24,2958.24 -1633.78,0 -2958.24,-1324.45 -2958.24,-2958.24 0,-846.48 355.61,-1609.84 925.5,-2149.06 -50.8,-160.65 -110.01,-317.02 -185.8,-468.55 -322.5,273.44 -597.45,608.9 -805.42,995.87zm2536.23 -5088.64c874.54,147.97 286.84,839.29 0,0zm-768.24 118.71c-73.46,883.91 -812.03,356.82 0,0zm768.24 264.99c874.54,147.98 286.85,839.3 0,0zm-573.31 462.37c-87.22,882.63 -817.45,344.12 0,0zm573.31 305.02c874.54,147.98 286.85,839.3 0,0zm-393.41 426.52c-101.56,881.08 -822.93,330.77 0,0zm393.41 340.88c874.54,147.98 286.85,839.3 0,0zm-228.34 397.54c-121.87,878.51 -830.36,311.69 0,0zm228.34 -13.84c874.54,147.98 286.85,839.3 0,0zm0 383.7c874.54,147.98 286.85,839.3 0,0zm-84.48 372.7c-141.75,875.57 -837.24,292.81 0,0zm-1629.76 -2701.95c884.22,-69.81 482.89,743.98 0,0zm1714.24 410.75c874.54,147.98 286.85,839.3 0,0zm-480.65 444.37c-95.41,881.78 -820.6,336.52 0,0zm-865.81 573.53c885.95,-41.61 458.94,758.94 0,0zm-458.3 109.55c124.78,878.13 -712.44,528.32 0,0zm1804.76 -360.05c874.54,147.98 286.85,839.3 0,0zm-1185.94 966.86c886.68,-21.15 441.3,769.34 0,0zm73.2 358.99c886.9,-9.66 431.3,775 0,0zm-183.37 36.8c51.33,885.48 -753.9,467.26 0,0zm626.81 -2415.71c-79.87,883.34 -814.58,350.92 0,0zm-947.69 231.06c884.68,-63.39 477.48,747.45 0,0zm94.12 356.44c885.17,-56.02 471.23,751.38 0,0zm90.64 356.86c885.64,-47.79 464.23,755.72 0,0zm1123.56 520.01c-111.3,879.91 -826.54,321.64 0,0zm-955.29 197.12c886.36,-31.82 450.52,763.97 0,0zm1111.17 544.21c-133.26,876.88 -834.34,300.91 0,0zm152.79 382.16c874.54,147.98 286.84,839.3 0,0zm-1046.08 152.89c886.97,-1.05 423.78,779.17 0,0zm-2360.94 -2089.56c825.33,-324.87 679.05,570.62 0,0zm190.6 300.48c828.81,-315.86 672.79,577.97 0,0zm1035.85 -180.46c163.05,871.84 -688.66,558.96 0,0zm-849.32 479.76c834.23,-301.28 662.54,589.69 0,0zm1040.03 -161.25c145.17,874.99 -699.95,544.75 0,0zm-858.96 462.27c840.21,-284.15 650.34,603.12 0,0zm174.58 303.29c846.6,-264.52 636.13,618.09 0,0zm1047.69 -113.45c102.02,881.07 -725.87,509.73 0,0zm-880.63 419.54c853.15,-242.54 619.93,634.33 0,0zm1050.56 -85.34c77.41,883.57 -739.8,489.28 0,0zm-891.99 394.81c859.59,-218.65 602,651.38 0,0zm1202.66 289.79c24.3,886.64 -767.81,444.05 0,0zm-1053.4 23.43c865.66,-193.21 582.54,668.84 0,0zm139.34 317.2c871.16,-166.72 561.86,686.3 0,0zm3035.48 -3582.99c-874.54,147.97 -286.85,839.29 0,0zm768.24 118.71c73.46,883.91 812.03,356.82 0,0zm-768.25 264.99c-874.54,147.98 -286.84,839.3 0,0zm573.32 462.37c87.22,882.63 817.45,344.12 0,0zm-573.32 305.02c-874.54,147.98 -286.84,839.3 0,0zm393.42 426.52c101.56,881.08 822.93,330.77 0,0zm-393.42 340.88c-874.54,147.98 -286.84,839.3 0,0zm228.34 397.54c121.88,878.51 830.36,311.69 0,0zm-228.34 -13.84c-874.54,147.98 -286.84,839.3 0,0zm0 383.7c-874.54,147.98 -286.84,839.3 0,0zm84.48 372.7c141.76,875.57 837.25,292.81 0,0zm1629.77 -2701.95c-884.22,-69.81 -482.89,743.98 0,0zm-1714.25 410.75c-874.54,147.98 -286.84,839.3 0,0zm480.66 444.37c95.4,881.78 820.6,336.52 0,0zm865.8 573.53c-885.94,-41.61 -458.93,758.94 0,0zm458.31 109.55c-124.78,878.13 712.44,528.32 0,0zm-1804.77 -360.05c-874.54,147.98 -286.84,839.3 0,0zm1185.94 966.86c-886.68,-21.15 -441.3,769.34 0,0zm-73.2 358.99c-886.89,-9.66 -431.3,775 0,0zm183.38 36.8c-51.33,885.48 753.9,467.26 0,0zm-626.81 -2415.71c79.87,883.34 814.58,350.92 0,0zm947.68 231.06c-884.68,-63.39 -477.47,747.45 0,0zm-94.11 356.44c-885.17,-56.02 -471.24,751.38 0,0zm-90.64 356.86c-885.64,-47.79 -464.23,755.72 0,0zm-1123.57 520.01c111.3,879.91 826.55,321.64 0,0zm955.29 197.12c-886.35,-31.82 -450.51,763.97 0,0zm-1111.16 544.21c133.25,876.88 834.34,300.91 0,0zm-152.79 382.16c-874.54,147.98 -286.85,839.3 0,0zm1046.07 152.89c-886.96,-1.05 -423.77,779.17 0,0zm2360.95 -2089.56c-825.33,-324.87 -679.05,570.62 0,0zm-190.6 300.48c-828.81,-315.86 -672.79,577.97 0,0zm-1035.86 -180.46c-163.04,871.84 688.67,558.96 0,0zm849.32 479.76c-834.22,-301.28 -662.53,589.69 0,0zm-1040.02 -161.25c-145.18,874.99 699.95,544.75 0,0zm858.96 462.27c-840.21,-284.15 -650.34,603.12 0,0zm-174.58 303.29c-846.6,-264.52 -636.13,618.09 0,0zm-1047.69 -113.45c-102.03,881.07 725.86,509.73 0,0zm880.62 419.54c-853.15,-242.54 -619.93,634.33 0,0zm-1050.55 -85.34c-77.42,883.57 739.8,489.28 0,0zm891.98 394.81c-859.59,-218.65 -601.99,651.38 0,0zm-1202.65 289.79c-24.3,886.64 767.8,444.05 0,0zm1053.4 23.43c-865.67,-193.21 -582.54,668.84 0,0zm-139.35 317.2c-871.16,-166.72 -561.86,686.3 0,0zm-676.81 1659.87c652.67,830.93 676.92,2002.14 56.8,2859.46l0.02 0.07c-72.74,99.1 -151.57,193.25 -238.04,280.68l0.01 0.07 -38.51 39.21 -0.21 -0.92 -56.51 54 -0.25 -1.04c-90.04,81.47 -186.49,155.72 -287.74,222.72l0.05 0.25 -42.06 27.58 -0.12 -0.65 -19.09 11.86 0.03 0.17 -42.33 26.01 -0.12 -0.62c-98.98,57.81 -201.73,108.84 -307.94,152.03l0.03 0.28 -44.63 17.86 -0.05 -0.41 -20.12 7.55 0.02 0.17 -44.66 16.47 -0.07 -0.51c-102.08,35.59 -206.5,64.43 -312.49,85.83l0.01 0.16 -45.96 9 -0.02 -0.35c-6.96,1.27 -13.96,2.42 -20.95,3.63l0.02 0.27 -46.02 7.52 -0.01 -0.22c-100.3,15.24 -201.61,23.8 -303.02,26.38l0 0.15 -46.37 0.72 0 -0.26 -21.25 0 0 0.26 -46.38 -0.72 0 -0.15c-101.38,-2.36 -202.72,-11.2 -302.99,-26.38l-0.01 0.28 -46.02 -7.58 0.01 -0.27c-7.01,-1.2 -14.02,-2.37 -21.01,-3.63l-0.02 0.35 -45.94 -9.03 0.01 -0.13c-105.94,-21.4 -210.25,-50.26 -312.31,-85.77l-0.05 0.39 -44.67 -16.35 0.02 -0.17 -20.45 -7.66 -0.05 0.4 -44.65 -17.85 0.03 -0.3c-106.06,-43.26 -208.76,-94.09 -307.64,-151.89l-0.1 0.54 -42.35 -25.92 0.04 -0.17 -19.35 -12.01 -0.12 0.65 -42.06 -27.61 0.04 -0.24c-101.19,-67.01 -197.55,-141.23 -287.6,-222.63l-0.25 1.07 -56.5 -54.03 -0.22 0.92 -38.51 -39.21 0.02 -0.07c-86.51,-87.38 -165.31,-181.59 -238.05,-280.68l0.02 -0.07c-620.2,-857.2 -595.79,-2028.62 56.8,-2859.46 -32.83,-190.67 -73.73,-378.77 -126.84,-565.08 -526.05,517.08 -852.42,1236.67 -852.42,2032.6 0,1574.13 1276.07,2850.19 2850.19,2850.19 1574.13,0 2850.19,-1276.06 2850.19,-2850.19 0,-795.92 -326.37,-1515.51 -852.41,-2032.6 -53.12,186.32 -94.01,374.42 -126.85,565.08zm-1858.98 -12270.91l528.83 1170.81 1276.92 141.14 -950.09 864.75 260.36 1258.04 -1116.02 -636.37 -1116.01 636.37 260.35 -1258.04 -950.09 -864.75 1276.92 -141.14 528.83 -1170.81z"/>
  <polygon class="fil3" points="8694.25,7949.03 10499.99,8535.76 10500,8535.76 10500,6637.08 11028.83,7807.89 10500.02,8535.75 12305.75,7949.03 11355.66,8813.78 10500.01,8535.76 10500,8535.76 11616.02,10071.82 10500,9435.45 10500,8535.77 10500,8535.76 9644.34,8813.78 9383.99,10071.82 10500,8535.76 10499.99,8535.76 9971.17,7807.89 "/>
  <path class="fil4" d="M19703.99 11384.58l-18407.97 0 0 280.58 18407.97 0 0 -280.58zm-7671.29 -5445.39l0 -1235.16 0.01 89.7 0 53.48 0 89.7 0 53.49 0 89.7 0 53.48 0 89.7 0 53.49 0 89.69 0 53.49 0 89.7 0 53.48 0 89.7 0 53.48 0 89.7 0 53.49 -0.01 89.69zm0 -1288.64l-3065.4 0 -78.32 0 0 -252.53 3222.05 0 0 252.53 -78.33 0zm-3065.4 1342.13l3065.4 0 78.33 0 0 252.52 -1609.57 0c107.54,0.79 194.48,88.21 194.48,195.94 0,108.21 -87.72,195.94 -195.94,195.94 -108.21,0 -195.94,-87.73 -195.94,-195.94 0,-107.73 86.94,-195.15 194.48,-195.94l-1609.56 0 0 -252.52 78.32 0zm1532.7 644.4l528.83 1170.81 1276.92 141.14 -950.09 864.75 260.36 1258.04 -1116.02 -636.37 -1116.01 636.37 260.35 -1258.04 -950.09 -864.75 1276.92 -141.14 528.83 -1170.81zm-2988.59 112.84l-1486.36 0c-67.07,0 -121.95,-54.89 -121.95,-121.96l0 -2578.3 -4534.92 0c-39.3,0 -72.16,32.86 -72.16,72.16l0 6252.66 18407.97 0 0 -6252.66c0,-39.3 -32.87,-72.16 -72.17,-72.16l-4534.91 0 0 2578.3c0,67.08 -54.88,121.96 -121.95,121.96l-1486.36 0c-67.08,0 -121.96,-54.89 -121.96,-121.96l0 -2578.3 -5733.27 0 0 2578.3c0,67.08 -54.88,121.96 -121.96,121.96z"/>
  <path class="fil5" d="M8967.3 4650.55l3065.4 0 0 53.48 -3065.4 0 0 -53.48zm0 1288.64l3065.4 0 0 53.49 -3065.4 0 0 -53.49zm0.01 -143.18c1021.8,0 2043.6,0 3065.4,0 0,17.83 0,35.66 0,53.49 -1021.8,0 -2043.6,0 -3065.4,0 0,-17.83 0,-35.66 0,-53.49zm0 -143.18c1021.8,0 2043.6,0 3065.4,0 0,17.83 0,35.65 0,53.48 -1021.8,0 -2043.6,0 -3065.4,0 0,-17.83 0,-35.65 0,-53.48zm0 -143.18c1021.8,0 2043.6,0 3065.4,0 0,17.83 0,35.65 0,53.48 -1021.8,0 -2043.6,0 -3065.4,0 0,-17.83 0,-35.65 0,-53.48zm0 -143.19c1021.8,0 2043.6,0 3065.4,0 0,17.83 0,35.66 0,53.49 -1021.8,0 -2043.6,0 -3065.4,0 0,-17.83 0,-35.66 0,-53.49zm0 -143.18c1021.8,0 2043.6,0 3065.4,0 0,17.83 0,35.66 0,53.49 -1021.8,0 -2043.6,0 -3065.4,0 0,-17.83 0,-35.66 0,-53.49zm0 -143.18c1021.8,0 2043.6,0 3065.4,0 0,17.83 0,35.65 0,53.48 -1021.8,0 -2043.6,0 -3065.4,0 0,-17.83 0,-35.65 0,-53.48zm0 -143.19c1021.8,0 2043.6,0 3065.4,0 0,17.84 0,35.66 0,53.49 -1021.8,0 -2043.6,0 -3065.4,0 0,-17.83 0,-35.65 0,-53.49zm0 -143.18c1021.8,0 2043.6,0 3065.4,0 0,17.83 0,35.66 0,53.48 -1021.8,0 -2043.6,0 -3065.4,0 0,-17.82 0,-35.65 0,-53.48z"/>
  <path class="fil0" d="M8870.16 20399.75l3259.68 0c16.52,0 30,13.48 30,30l0 35.73c0,16.52 -13.48,30 -30,30l-3259.68 0c-16.52,0 -30,-13.48 -30,-30l0 -35.73c0,-16.52 13.48,-30 30,-30z"/>
  <polygon class="fil2" points="8870.16,20429.75 12129.84,20429.75 12129.84,20465.48 8870.16,20465.48 "/>
 </g>
</svg>
