<?xml version="1.0" encoding="UTF-8" standalone="no"?>
<!DOCTYPE svg PUBLIC "-//W3C//DTD SVG 1.1//EN" "http://www.w3.org/Graphics/SVG/1.1/DTD/svg11.dtd">
<svg width="100%" height="100%" viewBox="0 0 212 272" version="1.1" xmlns="http://www.w3.org/2000/svg" xmlns:xlink="http://www.w3.org/1999/xlink" xml:space="preserve" xmlns:serif="http://www.serif.com/" style="fill-rule:evenodd;clip-rule:evenodd;stroke-miterlimit:10;">
    <g transform="matrix(3.85118,0,0,3.85118,-390.531,-1133.55)">
        <path d="M108.819,357.365C109.064,357.378 109.302,357.396 109.564,357.396C115.825,357.402 117.829,357.402 120.233,357.405C121.977,357.406 124.396,357.2 126.11,358.052C127.767,358.874 128.705,360.814 128.879,363.267C129.056,360.815 129.998,358.875 131.657,358.055C133.371,357.207 135.789,357.418 137.534,357.418C139.938,357.42 141.942,357.421 148.203,357.426C154.915,357.432 155.569,353.129 155.573,349.476C155.574,347.036 155.581,338.575 155.585,333.22C155.585,332.945 155.585,332.676 155.586,332.419C155.588,330.182 155.589,328.658 155.589,328.658C155.589,328.658 151.977,325.056 151.585,319.553C151.568,319.319 151.556,319.084 151.55,318.844C151.512,316.781 151.939,314.476 153.163,312.008C153.453,311.424 153.788,310.83 154.173,310.229C154.427,309.831 154.704,309.43 155.002,309.026C155.194,308.765 155.393,308.502 155.605,308.239L155.606,307.102L155.609,303.797L108.819,357.365Z" style="fill:rgb(0,128,183);fill-rule:nonzero;stroke:rgb(33,34,34);stroke-width:0.05px;"/>
    </g>
    <g transform="matrix(3.85118,0,0,3.85118,-390.531,-1189.28)">
        <path d="M155.611,315.342L155.615,309.698L155.602,309.698L103.467,369.385C104.404,370.728 106.035,371.686 108.819,371.836L155.608,318.268L155.611,315.342Z" style="fill:rgb(253,215,0);fill-rule:nonzero;"/>
    </g>
    <g transform="matrix(3.85118,0,0,3.85118,208.754,220.992)">
        <path d="M0,-50.85L0.004,-56.494L-0.009,-56.494L-52.144,3.194C-51.207,4.536 -49.576,5.494 -46.792,5.644L-0.003,-47.924L0,-50.85Z" style="fill:none;fill-rule:nonzero;stroke:rgb(33,34,34);stroke-width:0.05px;"/>
    </g>
    <g transform="matrix(3.85118,0,0,3.85118,-390.531,-1198.89)">
        <path d="M102.25,312.15L102.246,317.823L102.24,324.058L102.239,325.161C102.458,325.435 102.662,325.705 102.861,325.974C103.157,326.379 103.434,326.783 103.686,327.181C104.069,327.784 104.402,328.379 104.689,328.964C105.907,331.437 106.323,333.745 106.276,335.809C106.271,336.049 106.257,336.284 106.239,336.519C105.826,342.001 102.223,345.58 102.223,345.58C102.223,345.58 102.222,347.124 102.221,349.386C102.22,349.642 102.22,349.911 102.22,350.184C102.215,355.543 102.209,363.966 102.207,366.399C102.205,368.28 102.384,370.329 103.467,371.879L128.804,342.873L102.25,312.15Z" style="fill:rgb(227,13,19);fill-rule:nonzero;"/>
    </g>
    <g transform="matrix(3.85118,0,0,3.85118,3.25148,233.288)">
        <path d="M0,-59.73L-0.004,-54.057L-0.01,-47.822L-0.011,-46.718C0.208,-46.445 0.412,-46.175 0.611,-45.905C0.907,-45.5 1.184,-45.097 1.436,-44.698C1.819,-44.095 2.152,-43.501 2.439,-42.915C3.657,-40.443 4.073,-38.135 4.026,-36.071C4.021,-35.831 4.007,-35.595 3.989,-35.361C3.576,-29.879 -0.027,-26.3 -0.027,-26.3C-0.027,-26.3 -0.028,-24.756 -0.029,-22.494C-0.03,-22.238 -0.03,-21.969 -0.03,-21.695C-0.035,-16.337 -0.041,-7.914 -0.043,-5.481C-0.045,-3.6 0.134,-1.55 1.217,0L26.554,-29.007L0,-59.73Z" style="fill:none;fill-rule:nonzero;stroke:rgb(33,34,34);stroke-width:0.05px;"/>
    </g>
    <g transform="matrix(3.85118,0,0,3.85118,-390.531,-1310.6)">
        <path d="M155.602,341.2C155.327,341.2 137.77,341.186 135.053,341.183C130.508,341.18 129.097,343.608 128.943,345.469L128.914,345.469C128.764,343.608 127.357,341.178 122.811,341.174C120.073,341.172 102.25,341.157 102.25,341.157L128.804,371.88L155.602,341.2Z" style="fill:rgb(0,138,61);fill-rule:nonzero;stroke:rgb(33,34,34);stroke-width:0.05px;"/>
    </g>
    <g transform="matrix(3.85118,0,0,3.85118,-390.531,-1338.06)">
        <path d="M132.21,359.561L132.481,359.982L132.611,358.887L132.21,359.561ZM116.171,354.201L116.573,351.004L117.153,354.977L117.698,351.774L118.075,355.312L118.762,352.463L118.984,356.058L119.831,353.087L120.01,356.351L120.864,353.615L120.945,356.638L121.718,353.862L121.938,357.146L122.745,354.365L123.036,357.486L123.808,354.719L124.077,357.571L124.759,354.905L125.166,357.701L125.613,355.136L126.11,357.962L126.585,355.366L127.094,357.917L127.45,355.456L128.11,358.009L128.385,355.398L129.157,357.775L129.331,355.3L130.118,357.812L130.222,355.365L131.205,357.733L131.14,355.298L132.287,357.494L132.205,355.066L133.394,357.265L133.126,354.731L134.629,356.986L134.385,354.48L135.721,356.497L135.299,354.002L136.663,355.98L136.177,353.69L137.546,355.709L137.118,353.087L138.227,355.114L138.007,352.734L138.977,354.715L139.014,352.255L139.755,354.044L139.999,351.732L140.606,353.973L142.041,352.46L142.416,353.065L141.166,354.348L143.117,355.504L141.138,354.958L142.661,356.586L140.526,355.751L141.682,357.36L139.929,356.369L141.02,357.941L139.236,356.897L140.233,358.386L138.358,357.335L139.406,358.811L137.552,357.913L139.022,359.354L136.412,358.157L137.569,359.172L135.957,358.86L138.35,359.84L136.393,359.671L138.784,360.542L137.036,360.615L139.376,361.491L137.557,361.399L140.036,362.21L137.671,362.372L140.36,363.507L138.419,363.474C138.461,364.839 137.965,365.083 137.05,363.968L135.926,365.696L136.423,363.26L135.48,364.918L135.823,362.194L134.694,364.223L135.108,361.195L133.768,363.585L134.267,360.656L133.082,362.764L133.505,359.854L132.841,360.919C132.934,361.775 132.751,362.066 132.379,361.95C132.406,362.698 132.273,363.209 131.958,363.126C131.794,364.076 131.533,364.054 131.313,363.925C131.075,364.432 130.912,364.602 130.727,364.376C130.385,365.076 129.918,365.099 129.688,364.267C129.313,364.507 129.22,364.198 129.047,363.516C128.837,363.489 128.672,363.298 128.553,362.943C128.261,362.724 128.174,362.243 128.178,361.642C128.076,361.557 128.049,361.242 128.032,360.894L127.497,360.537C127.891,361.683 128.284,362.829 128.678,363.975L127.184,362.181L127.898,365.141L126.316,363.048L126.47,366.663L125.364,364.369L125.274,367.539L124.221,365.224L123.805,368.613L123.137,366.176L122.507,369.163L122.177,366.817C121.062,367.073 120.677,366.829 121.245,365.802L118.908,364.643L122.545,364.749L119.705,363.838L123.478,363.904L120.756,363.109L124.348,362.904L121.961,362.326L125.362,361.99L122.84,361.536L126.079,361.229L124.227,360.683L126.121,360.327L124.942,360.064L127.197,359.492L126.199,359.051L125.555,359.028L121.45,361.988L123.566,359.504L120.495,361.624L122.036,359.459L119.348,361.398L120.997,358.888L117.969,360.659L119.774,358.539L116.695,360.214L118.611,357.943L115.384,359.565L117.69,357.363L114.476,358.803L116.7,356.805L113.317,357.931L116.067,355.845L112.882,356.315L115.335,355.322C114.928,354.312 115.01,353.757 116.171,354.201" style="fill:rgb(33,34,34);"/>
    </g>
    <g transform="matrix(3.85118,0,0,3.85118,-390.531,-1337.4)">
        <path d="M115.362,354.933L115.362,354.931L115.305,354.764L115.262,354.61L115.233,354.47L115.218,354.348L115.218,354.244L115.232,354.159L115.256,354.096L115.291,354.05L115.339,354.015L115.406,353.99L115.498,353.979L115.618,353.985L115.764,354.01L115.936,354.057L116.15,354.132C116.438,354.419 116.517,354.676 116.472,354.868C116.452,354.954 116.406,355.027 116.343,355.085C116.277,355.143 116.196,355.185 116.103,355.206C115.873,355.259 115.585,355.186 115.362,354.933M122.143,366.548L121.958,366.587L121.78,366.615L121.622,366.632L121.484,366.637L121.367,366.628L121.274,366.608L121.202,366.58L121.152,366.544L121.12,366.502L121.098,366.446L121.089,366.371L121.097,366.274L121.125,366.157L121.173,366.017L121.243,365.859L121.355,365.645C121.525,365.468 121.741,365.413 121.941,365.44C122.091,365.46 122.233,365.527 122.339,365.623C122.443,365.716 122.512,365.838 122.521,365.972C122.533,366.154 122.43,366.36 122.143,366.548M138.317,363.5L138.318,363.543L138.307,363.751L138.285,363.932L138.252,364.084L138.21,364.204L138.161,364.292L138.109,364.35L138.055,364.382L137.995,364.395L137.918,364.388L137.824,364.356L137.712,364.295L137.585,364.202L137.445,364.077L137.293,363.921L137.198,363.809C137.078,363.497 137.109,363.263 137.217,363.11C137.284,363.015 137.382,362.952 137.492,362.921C137.603,362.888 137.726,362.889 137.843,362.925C138.064,362.991 138.262,363.181 138.317,363.5M128.222,361.356L128.212,361.332L128.202,361.3L128.192,361.264L128.184,361.223L128.175,361.179L128.168,361.13L128.162,361.078L128.156,361.024L128.151,360.966L128.146,360.907L128.143,360.846L128.139,360.782L128.139,360.769C128.18,359.952 128.621,359.389 129.215,359.087C129.529,358.926 129.885,358.84 130.249,358.826C130.613,358.811 130.984,358.871 131.325,359.005C131.703,359.153 132.045,359.392 132.303,359.725L132.341,359.783C132.306,360.731 132.186,361.246 132.031,361.475C131.964,361.572 131.893,361.612 131.821,361.607C131.746,361.602 131.666,361.551 131.585,361.467C131.358,361.228 131.154,360.75 131.079,360.331L131.054,360.186L130.983,360.315C130.573,361.067 130.238,361.475 129.985,361.482C129.743,361.488 129.564,361.099 129.453,360.26L129.436,360.126L129.359,360.237C128.955,360.834 128.609,361.206 128.379,361.324C128.338,361.344 128.302,361.357 128.272,361.36C128.253,361.362 128.237,361.36 128.222,361.356M130.28,361.458C130.495,361.292 130.737,360.963 131.006,360.485C131.097,360.872 131.281,361.281 131.487,361.513C131.327,361.801 131.178,362.001 131.04,362.112C130.951,362.183 130.869,362.216 130.793,362.21C130.717,362.205 130.644,362.159 130.574,362.076C130.467,361.952 130.37,361.746 130.28,361.458M132.277,361.765L132.28,361.917L132.279,362.045L132.275,362.166L132.267,362.28L132.255,362.385L132.24,362.482L132.221,362.569L132.199,362.645L132.175,362.71L132.148,362.764L132.121,362.804L132.095,362.831L132.07,362.848L132.046,362.856L132.019,362.859L131.877,362.838L131.875,362.843C131.689,362.757 131.535,362.543 131.38,362.329C131.323,362.25 131.266,362.172 131.207,362.097C131.32,361.977 131.439,361.808 131.562,361.588C131.644,361.66 131.73,361.705 131.815,361.71C131.916,361.716 132.012,361.67 132.098,361.556L132.277,361.765ZM132.74,360.716L132.735,360.723L132.752,360.91L132.76,361.046L132.762,361.17L132.757,361.279L132.748,361.374L132.733,361.457L132.715,361.527L132.692,361.582L132.668,361.625L132.642,361.655L132.615,361.676L132.586,361.69L132.554,361.698L132.513,361.7L132.466,361.694L132.32,361.658L132.155,361.466C132.293,361.213 132.399,360.734 132.438,359.934L132.512,360.049C132.616,360.248 132.693,360.47 132.74,360.716M129.779,364.04L129.832,364.206L129.879,364.324L129.929,364.421L129.981,364.497L130.032,364.554L130.081,364.591L130.128,364.613L130.172,364.621L130.218,364.618L130.268,364.602L130.324,364.571L130.384,364.524L130.446,364.459L130.51,364.377L130.573,364.276L130.637,364.156C130.497,364.04 130.383,363.883 130.269,363.726C130.243,363.692 130.218,363.657 130.194,363.625C130.084,363.775 129.95,363.915 129.779,364.04M131.264,363.62L131.268,363.611L131.401,363.684L131.435,363.699L131.466,363.709L131.493,363.713L131.518,363.713L131.54,363.709L131.563,363.699L131.59,363.679L131.62,363.649L131.653,363.603L131.689,363.541L131.724,363.46L131.759,363.361L131.793,363.241L131.826,363.1L131.855,362.948C131.635,362.859 131.466,362.624 131.297,362.389C131.243,362.313 131.187,362.237 131.132,362.169C131.123,362.177 131.113,362.185 131.105,362.191C130.999,362.277 130.897,362.317 130.798,362.313C130.698,362.554 130.594,362.728 130.486,362.839C130.495,362.85 130.505,362.861 130.514,362.872C130.763,363.168 131.01,363.464 131.264,363.62M130.514,363.033C130.443,363.205 130.361,363.375 130.256,363.536C130.291,363.583 130.322,363.625 130.352,363.667C130.457,363.811 130.562,363.954 130.687,364.062L130.706,364.027L130.828,364.163C130.852,364.175 130.875,364.187 130.899,364.196L130.913,364.19L130.935,364.174L130.962,364.15L130.991,364.115L131.024,364.07L131.06,364.015L131.097,363.952L131.137,363.88L131.178,363.799L131.219,363.712C130.975,363.565 130.744,363.304 130.514,363.033M129.157,363.354L129.179,363.442L129.209,363.555L129.238,363.659L129.266,363.751L129.295,363.833L129.323,363.904L129.35,363.962L129.377,364.006L129.403,364.038L129.425,364.057L129.445,364.068L129.464,364.072L129.491,364.071L129.527,364.062L129.575,364.042L129.7,363.969C129.875,363.846 130.009,363.706 130.118,363.555C130.256,363.366 130.353,363.157 130.439,362.944L130.436,362.938C130.427,362.929 130.417,362.917 130.408,362.906C130.333,362.962 130.257,362.987 130.177,362.984C130.075,362.98 129.974,362.929 129.872,362.831C129.833,362.794 129.793,362.748 129.753,362.696C129.752,362.697 129.752,362.698 129.751,362.699C129.672,362.817 129.593,362.935 129.515,363.038C129.397,363.191 129.278,363.312 129.157,363.354M129.039,362.261C128.969,362.408 128.896,362.518 128.826,362.594C128.772,362.65 128.718,362.688 128.665,362.707C128.657,362.709 128.649,362.711 128.641,362.713L128.696,362.857L128.743,362.96L128.793,363.044L128.844,363.114L128.897,363.166L128.95,363.204L129.005,363.229L129.117,363.255C129.219,363.226 129.325,363.116 129.433,362.975C129.51,362.874 129.588,362.758 129.665,362.642C129.671,362.633 129.673,362.629 129.689,362.606C129.608,362.485 129.526,362.335 129.445,362.155C129.316,362.295 129.197,362.334 129.084,362.286C129.069,362.278 129.054,362.27 129.039,362.261M128.594,361.301C128.533,361.35 128.477,361.389 128.426,361.415C128.374,361.441 128.326,361.457 128.283,361.462L128.282,361.462L128.282,361.581L128.285,361.686L128.29,361.789L128.297,361.887L128.308,361.981L128.321,362.072L128.337,362.157L128.355,362.237L128.377,362.314L128.402,362.384L128.43,362.449L128.46,362.509L128.495,362.563L128.521,362.596C128.527,362.6 128.534,362.604 128.541,362.607C128.568,362.62 128.599,362.621 128.631,362.61C128.668,362.596 128.709,362.567 128.751,362.522C128.818,362.45 128.889,362.339 128.959,362.189C128.819,362.034 128.7,361.722 128.594,361.301M129.722,361.457C129.569,361.287 129.451,360.941 129.37,360.405C129.112,360.773 128.878,361.049 128.682,361.227C128.812,361.763 128.957,362.119 129.124,362.19C129.28,362.257 129.476,362.047 129.722,361.457M129.517,362.066C129.665,362.396 129.807,362.627 129.943,362.758C130.026,362.837 130.105,362.879 130.181,362.881C130.255,362.884 130.329,362.849 130.403,362.778C130.502,362.68 130.6,362.519 130.695,362.294C130.625,362.267 130.558,362.218 130.495,362.144C130.384,362.013 130.283,361.805 130.191,361.52C130.12,361.56 130.053,361.583 129.988,361.585C129.923,361.586 129.861,361.568 129.804,361.529C129.704,361.764 129.608,361.94 129.517,362.066M127.361,360.283L127.954,362.01L127.991,362.117L128.399,363.307L126.98,361.604L127.681,364.513L126.199,362.551L126.346,365.996L125.274,363.773L125.185,366.92L124.163,364.678L123.767,367.909L123.125,365.566L122.528,368.397L122.273,366.583C122.54,366.384 122.637,366.164 122.624,365.964C122.617,365.859 122.579,365.759 122.519,365.672C123.805,364.692 124.915,363.631 125.845,362.489C126.418,361.784 126.922,361.049 127.361,360.283M127.329,360.129L127.301,360.11L127.316,360.153C126.871,360.943 126.354,361.7 125.765,362.424C124.839,363.561 123.735,364.616 122.454,365.592C122.439,365.576 122.424,365.562 122.408,365.547C122.286,365.437 122.125,365.361 121.954,365.338C121.735,365.307 121.498,365.363 121.307,365.546L119.377,364.588L123.269,364.703L120.403,363.782L124.246,363.849L121.359,363.006L125.048,362.795L122.576,362.197L126.109,361.847L123.599,361.397L126.621,361.11L124.668,360.533L126.635,360.164L125.387,359.886L127.512,359.348L126.222,358.776L125.523,358.753L122.081,361.234L124.155,358.801L120.92,361.035L122.482,358.839L119.741,360.815L121.325,358.404L118.442,360.093L120.213,358.012L117.127,359.69L119.015,357.452L115.955,358.992L118.194,356.853L115.034,358.269L117.138,356.379L113.876,357.465L116.449,355.512L113.719,355.916L115.467,355.208L115.445,355.149C115.665,355.313 115.917,355.355 116.126,355.306C116.232,355.282 116.328,355.234 116.405,355.168C117.411,355.951 118.507,356.601 119.662,357.126C120.833,357.657 122.065,358.06 123.327,358.338C124.856,358.674 126.428,358.829 127.988,358.814C127.79,359.262 127.57,359.701 127.329,360.129M137.262,362.92C137.213,362.955 137.169,363 137.134,363.051C137.035,363.19 136.989,363.383 137.038,363.629L136.136,365.013L136.655,362.476L135.648,364.244L135.992,361.508L134.87,363.523L135.284,360.499L133.97,362.843L134.469,359.916L133.265,362.059L133.678,359.211L132.818,360.591C132.764,360.349 132.678,360.133 132.57,359.939L132.771,358.246L132.106,359.363C131.887,359.166 131.634,359.015 131.363,358.909C131.007,358.77 130.623,358.708 130.245,358.722C129.867,358.737 129.495,358.828 129.168,358.996C128.581,359.293 128.136,359.835 128.048,360.609L127.416,360.186C127.667,359.739 127.895,359.282 128.101,358.813C129.909,358.786 131.699,358.529 133.384,358.06C134.21,358.793 134.953,359.565 135.604,360.378C136.248,361.183 136.803,362.029 137.262,362.92M140.553,353.997L140.556,354.004L142.025,352.456L142.287,352.879L141.001,354.198L142.401,355.028L140.814,354.589L142.276,356.153L140.241,355.357L141.326,356.869L139.587,355.886L140.669,357.444L138.901,356.41L139.909,357.914L138.009,356.85L139.09,358.372L137.031,357.374L138.529,358.842L135.814,357.597L137.217,358.827L134.961,358.392L137.687,359.508L135.628,359.331L138.26,360.29L136.524,360.362L138.719,361.183L136.794,361.086L139.501,361.97L137.233,362.126L139.83,363.223L138.323,363.197C138.218,363.003 138.052,362.88 137.873,362.826C137.737,362.784 137.592,362.783 137.463,362.821C137.424,362.832 137.386,362.848 137.349,362.865C136.889,361.97 136.331,361.122 135.684,360.314C135.043,359.512 134.311,358.751 133.502,358.027C136.275,357.236 138.756,355.868 140.553,353.997M117.146,355.466L117.675,352.354L118.036,355.744L118.702,352.983L118.92,356.493L119.762,353.534L119.94,356.754L120.778,354.066L120.86,357.154L121.656,354.298L121.875,357.564L122.693,354.742L122.986,357.88L123.759,355.111L124.031,357.998L124.732,355.258L125.157,358.181L125.614,355.561L126.108,358.374L126.59,355.743L127.11,358.354L127.479,355.806L128.153,358.414L128.437,355.718L129.224,358.14L129.396,355.678L130.197,358.233L130.306,355.662L131.324,358.113L131.256,355.569L132.406,357.771L132.323,355.328L133.551,357.6L133.273,354.965L134.771,357.215L134.528,354.71L135.904,356.787L135.479,354.271L136.872,356.29L136.387,354.011L137.724,355.982L137.317,353.494L138.375,355.427L138.162,353.112L139.073,354.976L139.11,352.583L139.815,354.285L140.044,352.118L140.522,353.88C136.682,357.92 129.646,359.626 123.35,358.237C122.095,357.96 120.868,357.56 119.704,357.031C118.559,356.511 117.473,355.867 116.475,355.092C116.521,355.035 116.554,354.967 116.571,354.891C116.622,354.678 116.547,354.402 116.266,354.103L116.58,351.598L117.146,355.466Z" style="fill:rgb(214,216,213);"/>
    </g>
    <g transform="matrix(3.85118,0,0,3.85118,-390.531,-1082.3)">
        <path d="M143.019,313.737C143.878,313.737 144.579,314.438 144.579,315.298C144.579,315.711 144.417,316.088 144.153,316.368C144.558,318.773 145.001,321.14 145.399,323.552C145.559,324.59 145.842,325.279 146.49,325.442L146.495,326.277L146.773,326.258L146.799,325.35L147.305,325.33L147.305,327.337L146.784,327.337L146.759,326.668L146.5,326.668L146.5,327.782C146.088,328.342 146.124,329.081 146.252,329.845C146.994,333.077 147.763,336.208 148.507,339.441C148.526,339.881 148.378,340.02 148.061,339.653C146.352,333.169 144.617,326.686 142.908,320.203C142.236,320.136 142.06,319.682 142.145,318.941C141.901,319.454 141.896,319.824 142.071,320.203C142.276,320.276 142.48,320.351 142.685,320.425C141.069,326.817 139.477,333.207 137.861,339.597C137.596,339.964 137.441,339.927 137.446,339.486C138.892,331.742 140.338,323.996 141.786,316.251C141.581,315.987 141.459,315.656 141.459,315.298C141.459,314.438 142.16,313.737 143.019,313.737" style="fill:rgb(33,34,34);"/>
    </g>
    <g transform="matrix(3.85118,0,0,3.85118,-390.531,-1082.91)">
        <path d="M143.019,314.981L143.018,314.981C142.888,314.981 142.77,315.034 142.684,315.119C142.599,315.205 142.545,315.324 142.545,315.453L142.545,315.455C142.545,315.585 142.599,315.703 142.684,315.788C142.77,315.874 142.888,315.927 143.018,315.927L143.019,315.927C143.149,315.927 143.267,315.873 143.353,315.788C143.438,315.703 143.492,315.585 143.492,315.454L143.492,315.453C143.492,315.323 143.438,315.205 143.353,315.119C143.267,315.034 143.149,314.981 143.019,314.981M143.019,314.878C143.178,314.878 143.322,314.943 143.426,315.047C143.53,315.151 143.594,315.295 143.594,315.453L143.594,315.454C143.594,315.612 143.53,315.757 143.426,315.861C143.321,315.965 143.178,316.03 143.019,316.03L143.018,316.03C142.86,316.03 142.716,315.965 142.611,315.861C142.507,315.757 142.443,315.612 142.443,315.455L142.443,315.453C142.443,315.295 142.507,315.15 142.612,315.046C142.716,314.943 142.86,314.878 143.018,314.878L143.019,314.878ZM143.019,314.445L143.018,314.445C142.741,314.446 142.488,314.559 142.307,314.741C142.124,314.924 142.011,315.176 142.011,315.453L142.011,315.455C142.011,315.732 142.124,315.984 142.307,316.166C142.488,316.349 142.741,316.462 143.018,316.462L143.019,316.462C143.297,316.462 143.549,316.349 143.731,316.166C143.913,315.984 144.027,315.732 144.027,315.454L144.027,315.453C144.026,315.176 143.913,314.925 143.731,314.741C143.549,314.559 143.297,314.445 143.019,314.445M143.019,314.342C143.324,314.342 143.602,314.468 143.804,314.668C144.005,314.87 144.13,315.148 144.13,315.453L144.13,315.454C144.13,315.76 144.005,316.038 143.804,316.239C143.602,316.441 143.325,316.564 143.019,316.564L143.018,316.564C142.713,316.564 142.435,316.441 142.234,316.239C142.032,316.038 141.908,315.76 141.908,315.455L141.908,315.453C141.908,315.148 142.032,314.87 142.234,314.668C142.435,314.468 142.713,314.342 143.018,314.342L143.019,314.342ZM142.338,321.531L142.282,321.754L142.13,322.353L141.98,322.952L141.828,323.552L141.678,324.151L141.526,324.751L141.376,325.35L141.312,325.603C141.078,324.743 141.076,323.986 141.261,323.314C141.446,322.643 141.82,322.056 142.338,321.531M140.634,328.305L140.623,328.345L140.323,329.544L140.173,330.142L140.022,330.741L139.872,331.341L139.721,331.94L139.571,332.539L139.42,333.139L139.271,333.738L139.119,334.336L138.969,334.935L138.818,335.534L138.668,336.134L138.366,337.333L138.064,338.53L137.912,339.129L137.766,339.708L137.691,339.803L137.62,339.871L137.583,339.893L137.57,339.864L137.554,339.777L137.548,339.65L137.682,338.935L137.818,338.209L137.953,337.483L138.089,336.756L138.224,336.031L138.496,334.579L138.631,333.852L138.767,333.126L138.903,332.401L139.038,331.674L139.174,330.948L139.309,330.222L139.717,328.044L139.717,328.041L140.634,328.305ZM142.135,318.887L142.041,319.071L141.997,319.169L141.957,319.266L141.924,319.362L141.896,319.455L141.874,319.549L141.858,319.64L141.848,319.731L141.843,319.821L141.844,319.909L141.851,319.997L141.866,320.082L141.885,320.165L141.91,320.248L141.942,320.328L141.997,320.441L142.074,320.47L142.189,320.511L142.227,320.526L142.342,320.567L142.38,320.581L142.561,320.646L142.433,321.156L142.387,321.341C141.794,321.905 141.367,322.546 141.162,323.286C140.959,324.02 140.975,324.851 141.263,325.801L141.225,325.948L141.075,326.548L140.924,327.147L140.659,328.205L139.735,327.94L139.852,327.318L139.988,326.591L140.123,325.866L140.258,325.139L140.394,324.413L140.53,323.686L140.665,322.961L140.801,322.236L140.937,321.509L141.072,320.783L141.208,320.056L141.344,319.331L141.479,318.604L141.615,317.878L141.75,317.152L141.868,316.521C141.882,316.534 141.895,316.549 141.909,316.563C141.979,316.632 142.055,316.695 142.135,316.75L142.135,318.887ZM144.207,317.458L144.244,317.667L144.282,317.891L144.321,318.116L144.36,318.339L144.399,318.564L144.479,319.012L144.558,319.46L144.597,319.684L144.637,319.908L144.676,320.131L144.756,320.579L144.796,320.804L144.835,321.027L144.874,321.252L144.892,321.353C144.168,320.724 143.801,319.679 143.915,318.586C143.941,318.339 143.991,318.092 144.066,317.845C144.105,317.715 144.153,317.586 144.207,317.458M144.436,325.737L144.292,325.195L143.97,323.979L143.81,323.372L143.327,321.548L143.279,321.366C143.886,321.932 144.321,322.572 144.526,323.314C144.721,324.021 144.708,324.822 144.436,325.737M146.332,328.004L146.305,328.05L146.273,328.11L146.244,328.171L146.217,328.232L146.192,328.294L146.171,328.358L146.151,328.421L146.133,328.486L146.117,328.551L146.093,328.683L146.083,328.75L146.075,328.818L146.07,328.885L146.066,328.953L146.062,329.023L146.061,329.092L146.063,329.232L146.066,329.301L146.07,329.373L146.075,329.443L146.081,329.514L146.089,329.585L146.097,329.657L146.106,329.73L146.115,329.801L146.126,329.873L146.138,329.945L146.15,330.021L146.221,330.325L146.29,330.628L146.36,330.93L146.431,331.231L146.571,331.833L146.642,332.133L146.712,332.433L146.783,332.733L146.854,333.032L146.924,333.33L146.994,333.629L147.066,333.927L147.137,334.225L147.207,334.524L147.279,334.822L147.349,335.12L147.419,335.419L147.491,335.718L147.562,336.016L147.632,336.315L147.774,336.913L147.914,337.511L147.985,337.812L148.055,338.113L148.126,338.413L148.266,339.015L148.336,339.318L148.402,339.61L148.404,339.676L148.402,339.741L148.397,339.798L148.388,339.844L148.378,339.879L148.367,339.902L148.36,339.913L148.357,339.916L148.354,339.916L148.34,339.913L148.314,339.902L148.28,339.88L148.239,339.847L148.191,339.8L148.153,339.758L147.999,339.175L147.839,338.567L147.517,337.351L147.357,336.744L147.035,335.528L146.873,334.921L146.712,334.313L146.551,333.704L146.39,333.097L146.229,332.489L146.067,331.881L145.745,330.665L145.583,330.057L145.422,329.45L145.261,328.842L145.13,328.35L146.332,328.004ZM146.863,326.509L146.873,326.509L146.898,325.605L147.202,325.593L147.202,327.389L146.882,327.389L146.863,326.864L146.863,326.509ZM146.499,326.538L146.759,326.517L146.759,326.72L146.499,326.72L146.499,326.538ZM144.065,316.623L144.089,316.767L144.128,316.992L144.166,317.217L144.176,317.276C144.093,317.453 144.024,317.634 143.967,317.816C143.89,318.069 143.838,318.323 143.812,318.575C143.69,319.748 144.107,320.869 144.919,321.51L144.991,321.919L145.031,322.148L145.069,322.374L145.108,322.598L145.147,322.823L145.185,323.049L145.222,323.274L145.261,323.498L145.298,323.724L145.313,323.821L145.329,323.916L145.346,324.01L145.364,324.1L145.383,324.19L145.403,324.277L145.424,324.362L145.447,324.446L145.47,324.526L145.494,324.605L145.52,324.682L145.547,324.756L145.576,324.828L145.605,324.897L145.636,324.964L145.67,325.029L145.705,325.093L145.741,325.152L145.78,325.209L145.82,325.264L145.862,325.316L145.906,325.367L145.952,325.414L146.001,325.458L146.05,325.499L146.103,325.537L146.158,325.572L146.215,325.604L146.274,325.632L146.335,325.657L146.386,325.675C146.392,326.419 146.396,327.135 146.396,327.878L145.103,328.25L145.098,328.234L144.937,327.626L144.776,327.019L144.615,326.411L144.486,325.925C144.81,324.923 144.837,324.053 144.625,323.286C144.401,322.478 143.913,321.788 143.231,321.184L143.167,320.94L142.99,320.267L142.804,320.239L142.706,320.214L142.618,320.18L142.543,320.138L142.478,320.089L142.422,320.034L142.375,319.97L142.335,319.898L142.303,319.818L142.278,319.729L142.261,319.632L142.251,319.526L142.249,319.415L142.254,319.296L142.266,319.169L142.238,318.684L142.238,316.816C142.468,316.947 142.735,317.024 143.018,317.024L143.019,317.024C143.421,317.024 143.787,316.872 144.065,316.623M144.3,314.76L144.361,314.888L144.41,315.022L144.447,315.161L144.468,315.305L144.476,315.455L144.474,315.526L144.469,315.596L144.461,315.668L144.448,315.736L144.433,315.804L144.415,315.871L144.393,315.937L144.37,316.001L144.342,316.063L144.312,316.124L144.28,316.184L144.244,316.241L144.206,316.297L144.166,316.351L144.122,316.403L144.042,316.491L144.044,316.501C143.78,316.76 143.417,316.921 143.019,316.921L143.018,316.921C142.615,316.921 142.248,316.756 141.982,316.49L141.981,316.49C141.95,316.458 141.921,316.426 141.892,316.392L141.894,316.382L141.831,316.297L141.798,316.249L141.767,316.198L141.738,316.149L141.711,316.096L141.686,316.042L141.663,315.988L141.642,315.931L141.623,315.875L141.607,315.817L141.593,315.759L141.582,315.7L141.573,315.639L141.566,315.579L141.562,315.517L141.561,315.455L141.569,315.305L141.591,315.161L141.627,315.022L141.676,314.888L141.737,314.76L141.811,314.64L141.894,314.528L141.989,314.424L142.093,314.33L142.205,314.246L142.325,314.173L142.453,314.111L142.586,314.063L142.725,314.026L142.87,314.004L143.019,313.997L143.168,314.004L143.312,314.026L143.451,314.063L143.585,314.111L143.712,314.173L143.832,314.246L143.945,314.33L144.048,314.424L144.143,314.528L144.227,314.64L144.3,314.76Z" style="fill:rgb(214,216,213);"/>
    </g>
    <g transform="matrix(3.85118,0,0,3.85118,-390.531,-1193.9)">
        <path d="M117.168,335.952C118.255,332.112 116.943,330.67 114.494,330.365L114.494,326.859L113.023,326.859L113.023,330.308C111.353,330.137 110.247,329.276 111.017,326.124C106.744,328.946 106.621,334.712 110.816,337.757C110.34,335.488 110.788,333.729 113.023,333.396L113.023,356.611L114.494,356.611L114.494,333.294C116.088,333.349 116.979,334.235 117.168,335.952" style="fill:rgb(33,34,34);"/>
    </g>
    <g transform="matrix(3.85118,0,0,3.85118,-390.531,-1193.38)">
        <path d="M114.391,330.218L114.391,326.825L113.126,326.825L113.126,330.165C113.341,330.181 113.566,330.187 113.793,330.194C113.994,330.199 114.195,330.206 114.391,330.218M113.126,333.235L113.126,356.372L114.391,356.372L114.391,333.158C114.194,333.149 113.997,333.149 113.8,333.159C113.575,333.169 113.351,333.195 113.126,333.235M109.842,329.325L109.171,329.272L109.728,329.718L109.858,329.824L109.691,329.81L109.055,329.759L109.523,330.068L109.651,330.151L109.498,330.163L108.956,330.199L109.452,330.466L109.577,330.534L109.438,330.563L108.882,330.677L109.412,330.866L109.588,330.929L109.404,330.964L108.812,331.08L109.311,331.268L109.438,331.314L109.312,331.363L108.788,331.569L109.338,331.684L109.504,331.719L109.347,331.782L108.776,332.013L109.376,332.204L109.521,332.25L109.378,332.302L108.83,332.498L109.358,332.639L109.523,332.684L109.36,332.737L108.881,332.898L109.356,333.006L109.493,333.038L109.367,333.103L108.978,333.304L109.481,333.34L109.607,333.349L109.512,333.43L109.089,333.789L109.623,333.725L109.797,333.705L109.661,333.817L109.236,334.165L109.708,334.128L109.716,334.23L109.081,334.281L108.917,334.293L109.044,334.189L109.459,333.849L108.932,333.911L108.762,333.932L108.893,333.821L109.349,333.434L108.788,333.393L108.605,333.38L108.768,333.296L109.196,333.076L108.68,332.956L108.502,332.915L108.675,332.858L109.165,332.694L108.644,332.554L108.485,332.511L108.64,332.456L109.2,332.256L108.609,332.068L108.472,332.024L108.605,331.972L109.152,331.751L108.597,331.634L108.428,331.598L108.589,331.535L109.15,331.316L108.606,331.113L108.436,331.05L108.615,331.014L109.201,330.9L108.674,330.711L108.501,330.649L108.681,330.613L109.278,330.491L108.751,330.206L108.593,330.122L108.772,330.109L109.339,330.07L108.83,329.735L108.662,329.625L108.862,329.641L109.533,329.694L108.977,329.246L108.846,329.141L109.013,329.156L109.85,329.222L109.842,329.325ZM110.882,331.093C110.984,330.909 111.075,330.776 111.17,330.759C111.274,330.741 111.362,330.846 111.436,331.145C111.557,331.06 111.675,331.009 111.771,330.998C111.834,330.991 111.891,331.001 111.936,331.031C111.98,331.062 112.011,331.113 112.021,331.183C112.035,331.278 112.013,331.418 111.939,331.606C112.076,331.662 112.165,331.735 112.206,331.808C112.232,331.854 112.24,331.901 112.23,331.946C112.222,331.99 112.195,332.03 112.152,332.063C112.087,332.114 111.979,332.149 111.831,332.155C111.91,332.289 111.947,332.402 111.949,332.485C111.951,332.544 111.934,332.592 111.902,332.627C111.869,332.662 111.823,332.68 111.765,332.683C111.683,332.686 111.573,332.654 111.441,332.584C111.412,332.725 111.356,332.837 111.289,332.9C111.25,332.937 111.205,332.958 111.16,332.96C111.113,332.963 111.067,332.945 111.024,332.904C110.959,332.841 110.9,332.717 110.863,332.516C110.68,332.608 110.534,332.653 110.435,332.653C110.375,332.652 110.327,332.636 110.296,332.603C110.264,332.569 110.251,332.521 110.259,332.46C110.27,332.379 110.323,332.266 110.424,332.125C110.26,332.096 110.14,332.044 110.072,331.98C110.03,331.941 110.006,331.897 110.001,331.85C109.996,331.801 110.012,331.754 110.05,331.709C110.106,331.642 110.218,331.58 110.389,331.533C110.318,331.397 110.289,331.28 110.295,331.191C110.301,331.127 110.323,331.076 110.361,331.038C110.399,331.001 110.452,330.979 110.517,330.977C110.611,330.973 110.735,331.01 110.882,331.093M111.136,331.585L111.134,331.585C111.057,331.585 110.986,331.616 110.936,331.668C110.884,331.719 110.852,331.79 110.852,331.868L110.852,331.869C110.852,331.947 110.884,332.018 110.935,332.069C110.986,332.12 111.057,332.151 111.135,332.151L111.136,332.151C111.213,332.151 111.285,332.12 111.335,332.069C111.386,332.018 111.418,331.947 111.418,331.869L111.418,331.868C111.418,331.79 111.386,331.719 111.335,331.668C111.285,331.616 111.213,331.585 111.136,331.585M110.94,332.202C110.912,332.184 110.885,332.165 110.863,332.141C110.839,332.118 110.82,332.093 110.803,332.065L110.535,332.145C110.426,332.291 110.37,332.401 110.36,332.474C110.357,332.501 110.36,332.521 110.37,332.533C110.382,332.543 110.404,332.55 110.435,332.55C110.527,332.55 110.674,332.501 110.863,332.399L110.94,332.202ZM111.202,332.249C111.18,332.252 111.158,332.255 111.136,332.255L111.135,332.255C111.1,332.255 111.067,332.249 111.034,332.241L110.955,332.448C110.987,332.655 111.039,332.776 111.095,332.83C111.115,332.85 111.136,332.859 111.156,332.858C111.176,332.857 111.197,332.845 111.219,332.825C111.278,332.769 111.327,332.659 111.35,332.517L111.202,332.249ZM111.469,332.061C111.452,332.092 111.432,332.118 111.408,332.142C111.377,332.172 111.342,332.198 111.302,332.216L111.439,332.466C111.577,332.546 111.686,332.582 111.76,332.579C111.791,332.578 111.813,332.571 111.827,332.557C111.84,332.541 111.848,332.518 111.847,332.487C111.845,332.408 111.799,332.29 111.7,332.138L111.469,332.061ZM111.518,331.816C111.521,331.833 111.522,331.85 111.522,331.868L111.522,331.869C111.522,331.903 111.517,331.935 111.509,331.966L111.766,332.053C111.923,332.055 112.032,332.027 112.09,331.982C112.112,331.964 112.126,331.945 112.13,331.924C112.134,331.906 112.13,331.882 112.116,331.858C112.084,331.799 112.002,331.738 111.872,331.688L111.518,331.816ZM111.365,331.558C111.381,331.57 111.395,331.581 111.408,331.596C111.442,331.63 111.471,331.671 111.49,331.717L111.833,331.593C111.908,331.41 111.932,331.281 111.92,331.199C111.913,331.158 111.899,331.131 111.877,331.117C111.855,331.101 111.822,331.095 111.782,331.101C111.694,331.11 111.581,331.164 111.462,331.252L111.365,331.558ZM110.472,331.618C110.29,331.66 110.179,331.717 110.129,331.776C110.109,331.798 110.101,331.82 110.103,331.84C110.106,331.861 110.118,331.883 110.142,331.906C110.206,331.965 110.336,332.014 110.521,332.035L110.539,332.037L110.763,331.97C110.754,331.938 110.749,331.905 110.749,331.869L110.749,331.868C110.749,331.83 110.755,331.793 110.765,331.758L110.472,331.618ZM110.846,331.192C110.71,331.111 110.6,331.077 110.521,331.08C110.482,331.082 110.453,331.092 110.433,331.111C110.414,331.13 110.402,331.16 110.399,331.199C110.392,331.276 110.423,331.386 110.495,331.516L110.807,331.664C110.823,331.639 110.842,331.615 110.863,331.595C110.883,331.574 110.905,331.557 110.929,331.541L110.846,331.192ZM111.134,331.482L111.136,331.482C111.184,331.482 111.23,331.492 111.273,331.508L111.354,331.251L111.352,331.243C111.291,330.956 111.238,330.851 111.189,330.861C111.128,330.871 111.048,331.003 110.95,331.183L111.025,331.498C111.059,331.488 111.096,331.482 111.134,331.482ZM117.389,332.672L117.346,332.464L117.292,332.269L117.227,332.084L117.153,331.91L117.067,331.747L116.973,331.594L116.869,331.451L116.755,331.317L116.633,331.193L116.501,331.077L116.359,330.971L116.209,330.871L116.05,330.781L115.882,330.699L115.706,330.624L115.521,330.557L115.329,330.497L115.128,330.445L114.92,330.4L114.704,330.361L114.442,330.324C114.23,330.311 114.009,330.303 113.79,330.297C113.565,330.29 113.341,330.284 113.126,330.269L113.126,330.287L112.855,330.255L112.701,330.232L112.549,330.204L112.401,330.171L112.258,330.133L112.118,330.089L111.984,330.039L111.853,329.981L111.728,329.918L111.608,329.847L111.493,329.768L111.384,329.681L111.283,329.587L111.187,329.484L111.099,329.372L111.018,329.251L110.944,329.123L110.879,328.984L110.822,328.836L110.774,328.678L110.734,328.512L110.703,328.335L110.681,328.148L110.668,327.951L110.665,327.744L110.671,327.525L110.686,327.294L110.712,327.052L110.748,326.799L110.793,326.533L110.85,326.254L110.856,326.226L110.691,326.342L110.331,326.628L109.996,326.929L109.685,327.243L109.398,327.569L109.136,327.908L108.898,328.258L108.683,328.617L108.494,328.985L108.328,329.361L108.186,329.744L108.07,330.132L107.976,330.525L107.909,330.922L107.864,331.321L107.844,331.722L107.849,332.125L107.878,332.525L107.933,332.925L108.01,333.323L108.113,333.717L108.241,334.106L108.393,334.491L108.569,334.869L108.771,335.239L108.997,335.601L109.248,335.953L109.524,336.295L109.825,336.626L110.151,336.944L110.501,337.248L110.664,337.373L110.637,337.218L110.606,337.01L110.581,336.806L110.562,336.606L110.549,336.409L110.543,336.215L110.543,336.026L110.551,335.841L110.565,335.66L110.586,335.484L110.615,335.312L110.651,335.145L110.696,334.983L110.749,334.825L110.809,334.673L110.878,334.527L110.955,334.386L111.042,334.251L111.137,334.123L111.241,334.001L111.355,333.886L111.478,333.778L111.609,333.678L111.75,333.585L111.902,333.5L112.061,333.422L112.231,333.353L112.41,333.291L112.6,333.239L112.799,333.193L112.874,333.18C113.182,333.111 113.488,333.071 113.794,333.056C113.993,333.046 114.192,333.046 114.391,333.055L114.391,333.048L114.649,333.062L114.796,333.074L114.939,333.093L115.078,333.115L115.213,333.143L115.344,333.176L115.471,333.214L115.595,333.258L115.713,333.307L115.829,333.36L115.94,333.419L116.047,333.483L116.149,333.552L116.247,333.626L116.341,333.705L116.431,333.79L116.517,333.879L116.598,333.974L116.674,334.073L116.747,334.177L116.814,334.287L116.877,334.401L116.935,334.52L116.991,334.644L117.04,334.772L117.087,334.906L117.128,335.044L117.165,335.186L117.193,335.313L117.244,335.1L117.311,334.778L117.365,334.469L117.405,334.174L117.433,333.892L117.447,333.623L117.451,333.366L117.442,333.123L117.421,332.891L117.389,332.672Z" style="fill:rgb(253,215,0);"/>
    </g>
    <g transform="matrix(3.85118,0,0,3.85118,129.582,265.353)">
        <path d="M0,-68.03C-4.545,-68.034 -5.956,-65.605 -6.11,-63.745L-6.139,-63.745C-6.289,-65.605 -7.697,-68.036 -12.242,-68.04C-14.979,-68.042 -32.803,-68.056 -32.803,-68.056L-32.808,-62.383L-32.813,-56.148L-32.814,-55.044C-32.596,-54.771 -32.391,-54.501 -32.193,-54.231C-31.896,-53.825 -31.62,-53.424 -31.367,-53.024C-30.985,-52.422 -30.652,-51.828 -30.364,-51.241C-29.147,-48.769 -28.73,-46.46 -28.777,-44.397C-28.782,-44.157 -28.797,-43.921 -28.814,-43.687C-29.228,-38.206 -32.83,-34.626 -32.83,-34.626C-32.83,-34.626 -32.832,-33.081 -32.833,-30.821L-32.833,-30.021C-32.838,-24.664 -32.845,-16.241 -32.847,-13.807C-32.849,-10.155 -32.202,-5.85 -25.49,-5.844C-19.228,-5.839 -17.225,-5.838 -14.821,-5.835C-13.076,-5.835 -10.658,-6.04 -8.944,-5.189C-7.287,-4.367 -6.348,-2.426 -6.175,0.026C-5.998,-2.425 -5.056,-4.365 -3.398,-5.185C-1.682,-6.033 0.736,-5.823 2.48,-5.822C4.884,-5.82 6.888,-5.819 13.149,-5.814C19.861,-5.809 20.516,-10.112 20.519,-13.764C20.52,-16.204 20.528,-24.666 20.532,-30.021L20.532,-30.821C20.534,-33.058 20.536,-34.583 20.536,-34.583C20.536,-34.583 16.923,-38.184 16.531,-43.687C16.515,-43.921 16.501,-44.157 16.497,-44.397C16.458,-46.46 16.884,-48.764 18.11,-51.232C18.4,-51.816 18.735,-52.41 19.119,-53.011C19.373,-53.41 19.649,-53.81 19.948,-54.215C20.14,-54.476 20.34,-54.738 20.552,-55.002L20.553,-56.138L20.557,-62.37L20.561,-68.013C20.561,-68.013 2.738,-68.027 0,-68.03Z" style="fill:none;fill-rule:nonzero;stroke:rgb(33,34,34);stroke-width:0.12px;"/>
    </g>
</svg>
