<?xml version="1.0" encoding="UTF-8"?>
<!DOCTYPE svg PUBLIC "-//W3C//DTD SVG 1.1//EN" "http://www.w3.org/Graphics/SVG/1.1/DTD/svg11.dtd">
<!-- Creator: CorelDRAW -->
<svg xmlns="http://www.w3.org/2000/svg" xml:space="preserve" width="1000px" height="750px" style="shape-rendering:geometricPrecision; text-rendering:geometricPrecision; image-rendering:optimizeQuality; fill-rule:evenodd; clip-rule:evenodd"
viewBox="0 0 1000 769.977"
 xmlns:xlink="http://www.w3.org/1999/xlink">
 <defs>
  <style type="text/css">
   <![CDATA[
    .str0 {stroke:#71625B;stroke-width:1.64696}
    .fil4 {fill:none}
    .fil5 {fill:#28166F}
    .fil1 {fill:#31492C}
    .fil8 {fill:#70614E}
    .fil9 {fill:#71625B}
    .fil7 {fill:#957F66}
    .fil12 {fill:#98AF85}
    .fil6 {fill:#DA251D}
    .fil3 {fill:#DEDEDD}
    .fil0 {fill:#F8C300}
    .fil2 {fill:white}
    .fil11 {fill:black}
    .fil10 {fill:white}
   ]]>
  </style>
 </defs>
 <g id="Layer_x0020_1">
  <metadata id="CorelCorpID_0Corel-Layer"/>
  <g id="_77449744">
   <path id="_76636920" class="fil0 str0" d="M741.16 343.13l-493.919 -0.000466825 0 124.269 0 83.2032c0,38.8828 32.1694,70.5956 71.6119,70.5956 116.9,0 233.8,0 350.695,0 39.443,0 71.6124,-31.7128 71.6124,-70.5956l0 -83.2032 0 -124.268z"/>
   <polygon id="_77146304" class="fil1 str0" points="699.669,343.129 699.669,290.058 718.05,290.058 718.05,71.3603 687.464,71.3603 687.464,89.7116 559.983,89.7116 559.983,52.143 494.2,30.767 428.417,52.143 428.417,89.7116 300.936,89.7116 300.936,71.3603 270.35,71.3603 270.35,290.058 288.731,290.058 288.731,343.129 "/>
   <path id="_35689640" class="fil2 str0" d="M600.274 273.965l-0.00840285 0c0,-2.49518 -0.0569527,-5.0025 0.00700238,-7.50235l-0.105969 -2.10958c-1.28424,-10.0573 -8.81693,-17.2202 -18.934,-17.9942l-2.06337 0c-7.93836,0.606873 -14.1817,5.00436 -17.4607,12.2574 -1.02748,2.58855 -1.62548,5.22844 -1.57834,8.02426l0.187197 7.32449 -0.188131 0 0 49.3345 -6.96783 0 0 -56.3024 0.00700238 0c-0.00466825,-0.197467 -0.00700238,-0.396334 -0.00700238,-0.595669 0,-14.8927 12.1468,-27.0394 27.0404,-27.0394 14.8931,0 27.0399,12.1468 27.0399,27.0394 0,0.199334 -0.0037346,0.398202 -0.00840285,0.595669l0.00840285 0 0 56.3024 -6.96783 0 0 -49.3345z"/>
   <rect id="_75972008" class="fil2 str0" x="557.133" y="140.962" width="38.9948" height="15.5257"/>
   <rect id="_74441072" class="fil2 str0" x="563.879" y="156.488" width="32.6446" height="40.4392"/>
   <path id="_74879528" class="fil2 str0" d="M563.879 196.927l32.6446 0 31.6722 60.2979 -22.5635 0c-3.77055,-10.3999 -13.7564,-17.8631 -25.4308,-17.8631 -11.6748,0 -21.6607,7.46313 -25.4317,17.8631l-22.5631 0 31.6722 -60.2979z"/>
   <rect id="_76076816" class="fil3 str0" x="596.128" y="140.962" width="22.3857" height="15.5257"/>
   <polygon id="_74947504" class="fil2 str0" points="615.264,196.927 596.524,196.927 596.524,156.488 615.264,156.488 "/>
   <polygon id="_75972720" class="fil2 str0" points="615.264,196.927 596.524,196.927 628.196,257.225 665.94,257.225 "/>
   <path id="_74903936" class="fil2 str0" d="M532.207 257.225l22.5612 0c-1.04009,2.86771 -1.60681,5.95762 -1.60681,9.17638 0,0.199334 0.00233413,0.398202 0.00700238,0.595669l-0.00700238 0 0 56.3024 -20.9544 0 0 -66.0744zm73.425 0l22.564 0 0 66.0744 -20.9544 0 0 -56.3024 -0.00840285 0c0.00466825,-0.197467 0.00840285,-0.396334 0.00840285,-0.595669 0,-3.21876 -0.569527,-6.30867 -1.60961,-9.17638z"/>
   <path id="_73963264" class="fil2 str0" d="M532.207 301.636l20.9544 0 0 21.6635 -20.9544 0 0 -21.6635zm75.0347 0l20.9544 0 0 21.6635 -20.9544 0 0 -21.6635z"/>
   <rect id="_76219056" class="fil2 str0" x="628.196" y="257.225" width="37.7437" height="66.0744"/>
   <rect id="_75581216" class="fil2 str0" x="628.196" y="301.636" width="37.7437" height="21.6635"/>
   <line id="_76767384" class="fil4 str0" x1="532.207" y1="323.3" x2="628.196" y2= "323.3" />
   <g>
    <polygon id="_78684168" class="fil2 str0" points="342.642,216.456 353.156,216.456 353.156,223.148 335.949,223.148 335.949,219.99 335.949,216.456 335.949,207.547 327.583,207.547 327.583,200.854 342.642,200.854 342.642,204.931 342.642,207.547 "/>
    <rect id="_75046088" class="fil2 str0" x="351.216" y="207.341" width="10.617" height="26.2248"/>
    <rect id="_35742712" class="fil2 str0" x="361.833" y="193.705" width="8.37998" height="125.772"/>
    <rect id="_75856080" class="fil2 str0" x="440.807" y="193.705" width="8.37998" height="125.772"/>
    <rect id="_76193640" class="fil2 str0" x="370.213" y="193.704" width="19.9288" height="67.0473"/>
    <rect id="_52159200" class="fil2 str0" x="449.187" y="193.704" width="19.9288" height="67.0473"/>
    <rect id="_115691984" class="fil2 str0" x="370.213" y="260.752" width="70.5942" height="14.6812"/>
    <rect id="_76785432" class="fil2 str0" x="370.213" y="275.433" width="70.5942" height="14.6812"/>
    <rect id="_76922800" class="fil2 str0" x="370.213" y="290.115" width="70.5942" height="14.6812"/>
    <rect id="_74215496" class="fil2 str0" x="370.213" y="304.795" width="70.5942" height="14.6807"/>
    <rect id="_75475328" class="fil2 str0" x="449.187" y="260.752" width="34.3284" height="14.6812"/>
    <rect id="_77039704" class="fil2 str0" x="449.187" y="275.433" width="34.3284" height="14.6812"/>
    <rect id="_75699240" class="fil2 str0" x="449.187" y="290.115" width="34.3284" height="14.6812"/>
    <rect id="_74620312" class="fil2 str0" x="449.187" y="304.795" width="34.3284" height="14.6807"/>
    <rect id="_76100704" class="fil2 str0" x="353.692" y="319.476" width="131.624" height="3.82516"/>
    <path id="_75715384" class="fil2 str0" d="M353.766 260.752c-4.04271,0 -7.34036,3.29765 -7.34036,7.34082 0,4.04271 3.29765,7.34036 7.34036,7.34036 4.04317,0 7.34082,-3.29765 7.34082,-7.34036 0,-4.04317 -3.29765,-7.34082 -7.34082,-7.34082z"/>
    <path id="_75803768" class="fil2 str0" d="M456.527 260.752c-4.04271,0 -7.34036,3.29765 -7.34036,7.34082 0,4.04271 3.29765,7.34036 7.34036,7.34036 4.04317,0 7.34082,-3.29765 7.34082,-7.34036 0,-4.04317 -3.29765,-7.34082 -7.34082,-7.34082z"/>
    <path id="_76214480" class="fil2 str0" d="M353.766 290.114c-4.04271,0 -7.34036,-3.29765 -7.34036,-7.34082 0,-4.04317 3.29765,-7.34036 7.34036,-7.34036 4.04317,0 7.34082,3.29719 7.34082,7.34036 0,4.04317 -3.29765,7.34082 -7.34082,7.34082z"/>
    <path id="_55397376" class="fil2 str0" d="M456.527 290.114c-4.04271,0 -7.34036,-3.29765 -7.34036,-7.34082 0,-4.04317 3.29765,-7.34036 7.34036,-7.34036 4.04317,0 7.34082,3.29719 7.34082,7.34036 0,4.04317 -3.29765,7.34082 -7.34082,7.34082z"/>
    <path id="_74492112" class="fil2 str0" d="M353.766 290.114c-4.04271,0 -7.34036,3.29719 -7.34036,7.34082 0,4.04271 3.29765,7.34036 7.34036,7.34036 4.04317,0 7.34082,-3.29765 7.34082,-7.34036 0,-4.04364 -3.29765,-7.34082 -7.34082,-7.34082z"/>
    <path id="_52158952" class="fil2 str0" d="M456.527 290.114c-4.04271,0 -7.34036,3.29719 -7.34036,7.34082 0,4.04271 3.29765,7.34036 7.34036,7.34036 4.04317,0 7.34082,-3.29765 7.34082,-7.34036 0,-4.04364 -3.29765,-7.34082 -7.34082,-7.34082z"/>
    <path id="_75027152" class="fil2 str0" d="M353.766 319.476c-4.04271,0 -7.34036,-3.29719 -7.34036,-7.34082 0,-4.04271 3.29765,-7.33989 7.34036,-7.33989 4.04317,0 7.34082,3.29719 7.34082,7.33989 0,4.04364 -3.29765,7.34082 -7.34082,7.34082z"/>
    <path id="_76772760" class="fil2 str0" d="M456.527 319.476c-4.04271,0 -7.34036,-3.29719 -7.34036,-7.34082 0,-4.04271 3.29765,-7.33989 7.34036,-7.33989 4.04317,0 7.34082,3.29719 7.34082,7.33989 0,4.04364 -3.29765,7.34082 -7.34082,7.34082z"/>
    <path id="_76068096" class="fil2 str0" d="M475.498 207.34c8.7399,0 8.7413,26.2248 0,26.2248 -13.3615,0 -2.61515,0 -15.9762,0 -8.74177,0 -8.7399,-26.2248 0,-26.2248 13.361,0 2.61469,0 15.9762,0z"/>
    <path id="_75909016" class="fil2 str0" d="M440.807 207.34l-57.8653 0c-8.7413,0 -8.74177,26.2248 0,26.2248l57.8653 0 0 -26.2248z"/>
    <path id="_75961096" class="fil2 str0" d="M399.367 202.566l0 0c1.60868,0 2.92466,1.31598 2.92466,2.92513l0 29.9244c0,1.60915 -1.31598,2.92513 -2.92466,2.92513l0 0c-1.60915,0 -2.92513,-1.31598 -2.92513,-2.92513l0 -29.9244c0,-1.60915 1.31598,-2.92513 2.92513,-2.92513z"/>
    <path id="_74184752" class="fil2 str0" d="M407.241 202.566l0 0c-1.60915,0 -2.92513,1.31598 -2.92513,2.92513l0 29.9244c0,1.60915 1.31598,2.92513 2.92513,2.92513l0 0c1.60868,0 2.92513,-1.31598 2.92513,-2.92513l0 -29.9244c0,-1.60915 -1.31645,-2.92513 -2.92513,-2.92513z"/>
    <path id="_75706992" class="fil2 str0" d="M415.627 202.566l0 0c1.60868,0 2.92513,1.31598 2.92513,2.92513l0 29.9244c0,1.60915 -1.31645,2.92513 -2.92513,2.92513l0 0c-1.60868,0 -2.92513,-1.31598 -2.92513,-2.92513l0 -29.9244c0,-1.60915 1.31645,-2.92513 2.92513,-2.92513z"/>
    <path id="_77448200" class="fil2 str0" d="M424.627 202.566l0 0c1.60868,0 2.92513,1.31878 2.92513,2.92513l0 55.2609 -5.85025 0 0 -55.2609c0,-1.60915 1.31645,-2.92513 2.92513,-2.92513z"/>
    <path id="_75855272" class="fil2 str0" d="M475.498 207.34c8.7399,0 8.7413,26.2248 0,26.2248 -13.3615,0 12.46,0 -0.901439,0 -8.7413,0 -8.7399,-26.2248 0,-26.2248 13.3615,0 -12.46,0 0.901439,0z"/>
    <polygon id="_77174040" class="fil2 str0" points="483.671,225.097 473.157,225.097 473.157,218.404 490.364,218.404 490.364,221.563 490.364,225.097 490.364,234.006 498.731,234.006 498.731,240.699 483.671,240.699 483.671,236.622 483.671,234.006 "/>
   </g>
   <path id="_76959688" class="fil5 str0" d="M247.24 371.421c5.95249,-1.00321 11.9577,-1.63576 18.0465,-1.63576 22.4688,0 43.1888,12.8629 65.6575,12.8629 22.4702,0 43.1907,-12.8629 65.6603,-12.8629 22.4692,0 43.1902,12.8629 65.6594,12.8629 22.4688,0 43.1893,-12.8629 65.6589,-12.8629 22.4683,0 43.1907,12.8629 65.6594,12.8629 22.4692,0 43.1902,-12.8629 65.6594,-12.8629 22.4697,0 43.1897,12.8629 65.6589,12.8629 5.48053,0 10.8906,-0.51164 16.2586,-1.34586l0 51.7415c-5.36802,0.834216 -10.7781,1.34632 -16.2586,1.34632 -22.4692,0 -43.1893,-12.8629 -65.6589,-12.8629 -22.4692,0 -43.1902,12.8629 -65.6594,12.8629 -22.4688,0 -43.1911,-12.8629 -65.6594,-12.8629 -22.4697,0 -43.1902,12.8629 -65.6589,12.8629 -22.4692,0 -43.1902,-12.8629 -65.6594,-12.8629 -22.4697,0 -43.1902,12.8629 -65.6603,12.8629 -22.4688,0 -43.1888,-12.8629 -65.6575,-12.8629 -6.0888,0 -12.094,0.628813 -18.0465,1.63249l0 -51.7387z"/>
   <path id="_76100680" class="fil2 str0" d="M247.24 371.421c5.95249,-1.00321 11.9577,-1.63576 18.0465,-1.63576 22.4688,0 43.1888,12.8629 65.6575,12.8629 22.4702,0 43.1907,-12.8629 65.6603,-12.8629 22.4692,0 43.1902,12.8629 65.6594,12.8629 22.4688,0 43.1893,-12.8629 65.6589,-12.8629 22.4683,0 43.1907,12.8629 65.6594,12.8629 22.4692,0 43.1902,-12.8629 65.6594,-12.8629 22.4697,0 43.1897,12.8629 65.6589,12.8629 5.48053,0 10.8906,-0.51164 16.2586,-1.34586l0 6.43098c-5.36802,0.834683 -10.7781,1.34632 -16.2586,1.34632 -22.4692,0 -43.1893,-12.8629 -65.6589,-12.8629 -22.4692,0 -43.1902,12.8629 -65.6594,12.8629 -22.4688,0 -43.1911,-12.8629 -65.6594,-12.8629 -22.4697,0 -43.1902,12.8629 -65.6589,12.8629 -22.4692,0 -43.1902,-12.8629 -65.6594,-12.8629 -22.4697,0 -43.1902,12.8629 -65.6603,12.8629 -22.4688,0 -43.1888,-12.8629 -65.6575,-12.8629 -6.0888,0 -12.094,0.632081 -18.0465,1.63576l0 -6.43145z"/>
   <path id="_74418624" class="fil2 str0" d="M247.24 416.431c5.95249,-1.00321 11.9577,-1.63529 18.0465,-1.63529 22.4688,0 43.1888,12.8624 65.6575,12.8624 22.4702,0 43.1907,-12.8624 65.6603,-12.8624 22.4692,0 43.1902,12.8624 65.6594,12.8624 22.4688,0 43.1893,-12.8624 65.6589,-12.8624 22.4683,0 43.1907,12.8624 65.6594,12.8624 22.4692,0 43.1902,-12.8624 65.6594,-12.8624 22.4697,0 43.1897,12.8624 65.6589,12.8624 5.48053,0 10.8906,-0.51164 16.2586,-1.34586l0 6.43145c-5.36802,0.834216 -10.7781,1.34586 -16.2586,1.34586 -22.4692,0 -43.1893,-12.8629 -65.6589,-12.8629 -22.4692,0 -43.1902,12.8629 -65.6594,12.8629 -22.4688,0 -43.1911,-12.8629 -65.6594,-12.8629 -22.4697,0 -43.1902,12.8629 -65.6589,12.8629 -22.4692,0 -43.1902,-12.8629 -65.6594,-12.8629 -22.4697,0 -43.1902,12.8629 -65.6603,12.8629 -22.4688,0 -43.1888,-12.8629 -65.6575,-12.8629 -6.0888,0 -12.094,0.632548 -18.0465,1.63576l0 -6.43145z"/>
   <g>
    <polygon id="_35690048" class="fil2 str0" points="497.746,669.845 497.746,608.182 470.878,608.182 470.879,642.977 "/>
    <polygon id="_74954560" class="fil2 str0" points="387.619,608.18 414.486,608.182 414.486,635.048 "/>
    <polygon id="_74464088" class="fil2 str0" points="387.619,608.18 414.486,608.179 414.486,581.313 "/>
    <polygon id="_76772784" class="fil2 str0" points="414.487,524.973 433.483,543.972 414.486,562.969 "/>
    <polygon id="_76830976" class="fil2 str0" points="414.487,524.973 433.485,543.97 452.483,524.973 "/>
    <polygon id="_76773288" class="fil2 str0" points="581.003,524.973 562.006,543.972 581.003,562.969 "/>
    <polygon id="_75027176" class="fil2 str0" points="581.003,524.973 562.004,543.97 543.006,524.973 "/>
    <polygon id="_77319168" class="fil2 str0" points="607.87,608.18 581.003,608.182 581.003,635.048 "/>
    <polygon id="_74202480" class="fil2 str0" points="607.87,608.18 581.003,608.179 581.003,581.313 "/>
    <polygon id="_76116448" class="fil2 str0" points="470.878,543.487 497.743,608.182 497.743,488.212 470.878,488.212 "/>
    <polygon id="_75379152" class="fil2 str0" points="524.61,543.487 497.744,608.182 497.744,488.212 524.61,488.212 "/>
    <polygon id="_76523088" class="fil2 str0" points="497.745,461.345 497.744,488.212 470.877,488.212 "/>
    <polygon id="_75869304" class="fil2 str0" points="497.745,461.345 497.746,488.212 524.612,488.212 "/>
    <polygon id="_77208544" class="fil2 str0" points="497.744,608.182 414.486,608.182 414.486,635.048 470.878,635.048 "/>
    <polygon id="_74415016" class="fil2 str0" points="497.743,608.182 433.483,543.972 414.486,562.969 432.833,581.315 "/>
    <polygon id="_77177728" class="fil2 str0" points="497.744,608.182 433.483,543.972 452.481,524.974 470.993,543.487 "/>
    <polygon id="_74409832" class="fil2 str0" points="497.743,608.182 562.006,543.972 581.003,562.969 562.657,581.315 "/>
    <polygon id="_74203600" class="fil2 str0" points="562.006,543.972 543.008,524.974 524.496,543.487 497.743,608.182 "/>
    <polygon id="_54913152" class="fil2 str0" points="387.619,608.18 414.486,608.182 414.486,635.048 "/>
    <polygon id="_74916624" class="fil2 str0" points="497.746,669.845 497.747,608.182 524.61,608.182 524.614,642.977 "/>
    <polygon id="_76037856" class="fil2 str0" points="387.619,608.18 414.486,608.179 414.486,581.313 "/>
    <polygon id="_74507024" class="fil2 str0" points="414.487,524.973 433.483,543.972 414.486,562.969 "/>
    <polygon id="_76787744" class="fil2 str0" points="414.487,524.973 433.485,543.97 452.483,524.973 "/>
    <polygon id="_77038144" class="fil2 str0" points="581.003,524.973 562.006,543.972 581.003,562.969 "/>
    <polygon id="_76165192" class="fil2 str0" points="581.003,524.973 562.004,543.97 543.006,524.973 "/>
    <polygon id="_75778728" class="fil2 str0" points="497.743,608.182 581.003,608.182 581.003,635.047 524.61,635.048 "/>
    <polygon id="_75018712" class="fil2 str0" points="497.743,608.182 581.003,608.182 581.003,581.315 562.658,581.315 "/>
    <polygon id="_75580552" class="fil2 str0" points="607.87,608.18 581.003,608.182 581.003,635.048 "/>
    <polygon id="_74492136" class="fil2 str0" points="607.87,608.18 581.003,608.179 581.003,581.313 "/>
    <polygon id="_76226496" class="fil2 str0" points="414.486,608.179 497.744,608.182 432.833,581.315 414.486,581.313 "/>
   </g>
   <path id="_74391480" class="fil6 str0" d="M197.305 96.2579c0.788468,1.48917 -7.96824,4.78216 -12.4969,5.19856 -5.70834,0.524245 -13.6607,-5.56876 -17.7702,-5.81851 -3.35741,-0.204003 -11.4195,-3.01569 -14.818,-1.70251 -3.39802,1.31271 -3.90266,0.133979 -9.25761,-2.44336 1.89764,-2.40368 27.4815,-1.66703 43.3377,4.5058 6.56123,2.554 10.4163,-0.852889 11.0049,0.260022z"/>
   <path id="_76771928" class="fil0 str0" d="M2.84623 206.015c2.59788,-19.2752 18.0731,-34.2794 28.6182,-50.6239 4.25418,-6.59577 11.2248,-10.0858 14.1397,-17.3738 4.59636,-11.4965 4.04924,-24.6722 8.87948,-36.0739 2.5596,-6.03885 5.72281,-12.5567 11.096,-16.3197 13.213,-12.7784 33.1483,-32.4009 48.5998,-39.0056 -2.21695,-5.45859 -1.78887,-11.2622 6.92675,-11.1702 8.70535,0.0910309 9.68569,6.37683 5.45252,10.3579 3.72013,0.661024 14.5141,4.33587 17.667,6.15462 4.47592,-0.449086 7.39311,0.259088 10.1675,0.259088 2.40508,2.03536 4.62063,1.04615 7.02618,3.08058 3.88492,2.77574 5.05245,7.10835 11.2771,9.45881 5.49733,2.07737 10.983,4.3102 16.0943,7.21478 4.37462,2.48678 8.13956,5.92074 12.2093,8.88088 -4.43904,6.4744 -1.1932,6.12148 -7.80998,10.3406 -0.995271,0.635349 -2.95874,0.523311 -5.60657,0.00093365 -1.07323,-0.210071 -5.16122,3.17488 -8.72636,3.94514 1.61942,-3.4321 2.51479,-5.46045 1.06343,-5.85259 -1.68571,-0.456088 -3.47318,-0.941119 -5.33348,-1.42428l-3.26824 4.74621 -0.56906 -5.7018c-0.595202,-0.140981 -1.19741,-0.277761 -1.80148,-0.412673l-3.55207 5.15935 -0.598937 -6.00897c-0.743186,-0.135846 -1.49337,-0.261889 -2.24076,-0.379996l-3.08291 4.47825 -0.493901 -4.95441c-7.83939,-0.843086 -15.6092,-0.260022 -21.6411,3.76028 -1.70344,1.13392 16.4108,6.32968 29.1229,10.3318 1.46583,0.462157 8.58771,0.0289432 10.4942,-1.20534 -0.602204,1.98354 -3.88539,3.35881 -2.86397,3.722 3.06004,1.09144 4.78822,1.90138 4.15428,2.20948 -8.61946,4.17015 -21.6359,4.49926 -29.9576,13.368 -15.31,16.3151 -14.445,14.9669 -14.9958,26.5913 -0.703505,14.7988 2.7398,27.1123 -1.27537,41.3752 -0.920579,3.26684 -12.5515,-3.99182 -9.8248,-1.9714 8.6526,6.40857 15.6895,12.7443 21.0898,21.0898 7.01778,10.8481 9.58952,20.4287 14.2158,32.4952 0.596602,1.55219 -0.289898,8.42292 1.32345,8.01819 1.93172,-0.483164 1.50178,-7.40525 2.21975,-5.54962 4.38909,11.3252 12.9997,27.3644 20.7238,36.629 5.53655,-5.24851 11.9671,-13.1715 20.3456,-17.7599 9.04567,-4.95255 13.5146,-21.889 19.4241,-33.2991 3.88305,-7.49394 7.04719,-16.5307 16.71,-19.7495 0.703972,-0.233879 8.11015,-2.70665 8.13023,-2.23563 -2.23469,1.8533 -6.55983,4.65518 -7.97617,8.89862 2.01622,-2.14693 6.55843,-3.81116 8.75811,-3.54414 -2.24543,2.41582 -7.10508,4.98756 -8.38698,9.28562 1.71745,-1.64649 5.82131,-2.92186 8.03313,-3.18375 -2.29164,2.78274 -6.12661,5.04731 -7.57237,9.69362 2.08577,-2.20995 5.50573,-4.14214 7.54109,-3.933 -0.717043,1.46116 -8.11622,10.3668 -8.39912,13.8437 -0.396334,4.86245 -0.944387,9.98866 -1.90044,16.2292 -0.476162,3.10999 -3.98108,9.0368 -5.70367,11.5852 -3.3378,4.94041 -0.232012,8.41359 -0.70724,14.3581 -0.443951,5.53141 -1.61428,14.4571 -4.3354,19.2953 -4.4241,7.86507 -9.39345,10.3481 -16.4005,16.0345 -8.76511,7.11488 -22.3082,20.2775 -30.3954,19.8027 -6.92162,-0.406138 -20.4213,-6.17283 -31.5144,-13.143 -5.49967,-3.45591 -12.6617,-11.3359 -17.3449,-12.3382 -7.88421,-1.68664 -21.3516,-18.9055 -32.3337,-27.6449 3.86671,12.5366 8.86734,18.3481 11.6912,27.2187 3.8387,12.0553 6.63172,23.5975 10.934,35.496 2.75567,7.61999 10.5927,19.3653 10.722,28.6369 0.124642,8.89909 -0.508373,12.1804 -3.17721,20.2495 -5.73261,17.3267 -14.3096,32.435 -17.0564,50.4801 -3.38728,22.24 -10.0157,30.2923 -18.0722,43.8437 -4.41196,7.42205 -11.9801,11.8172 -18.2449,17.759 -4.46051,4.22944 -10.2118,9.33463 -13.3199,14.6382 -3.40362,5.80637 -5.16729,10.8938 -6.1747,17.5517 -0.857091,5.66679 -2.08437,11.8634 0,17.2039 3.58802,9.19132 10.9811,6.06779 17.864,9.40046 5.05338,2.44663 7.55323,7.63819 18.5922,7.80438 3.72713,0.056019 5.77649,4.32093 7.873,9.50456 1.17827,2.91065 0.33518,8.1391 -0.311839,13.1803 -1.45743,-3.01756 -3.03903,-8.40612 -7.47994,-9.20019 2.02415,2.03349 2.20528,7.71102 1.73519,9.64367 -2.82382,-2.92886 -6.82778,-8.27961 -8.97845,-8.72356 1.2763,2.18381 1.8785,6.7769 1.31318,9.29262 -3.03576,-1.94153 -4.55294,-7.74136 -8.01819,-7.98037 2.751,3.59689 1.42942,6.44405 0.739451,8.56857 -4.36341,-6.72882 -7.98224,-6.91321 -11.9246,-4.21636 -3.06051,2.09371 -12.7093,4.78963 -16.5634,4.4325 -6.83292,-0.635349 -8.33003,-0.443484 -15.1784,0.018673 -4.24297,0.286164 -18.1959,-1.24409 -22.134,-1.71745 -4.56415,-0.548053 -6.91881,-7.81605 -6.96876,-11.6263 -0.145183,-10.7739 3.73087,-13.7247 3.93207,-24.4966 0.172258,-9.24734 -5.11547,-18.068 -3.61183,-27.1944 1.86123,-11.3051 12.3984,-26.2202 13.4604,-40.5134 0.765126,-10.3145 0.561124,-20.8675 0.140981,-31.6344 -0.11904,-3.0479 -11.3989,-12.6258 -11.5698,-15.6695 -0.883233,-15.6811 0.17786,-18.7244 -0.640484,-34.8345 -0.84402,-16.6367 -0.591001,-33.2963 -0.211005,-49.9489 0.470093,-20.5636 -6.74095,-18.9442 -6.691,-35.3559 0.103168,-33.5222 -1.99614,-80.7444 2.43869,-113.646z"/>
   <path id="_74968320" class="fil7 str0" d="M30.1326 477.039c-0.598003,4.55435 -15.8744,40.0699 -15.9234,36.2644 -0.140048,-10.772 2.75707,22.1396 -4.67899,41.5092 0.172258,-9.24734 -5.11594,-18.0685 -3.61229,-27.1944 1.86217,-11.3056 12.3984,-26.2206 13.4609,-40.5143 0.765126,-10.3136 0.559723,-20.8666 0.140981,-31.6339 -0.118574,-3.0465 -11.2505,-3.66131 -11.4204,-17.1642 -0.147984,-11.7766 -0.316974,-21.234 -1.16006,-33.4055 2.60628,3.30139 2.87191,13.7265 3.79856,16.5588 1.54659,4.72474 0.135379,10.2888 7.42299,15.6582 4.18042,3.08105 12.6416,-2.57407 13.2326,2.77341 1.32018,11.9587 0.986868,20.0562 -1.26089,37.1485z"/>
   <path id="_75339536" class="fil7 str0" d="M146.511 363.033c0.026609,-8.62273 3.30512,-13.6056 5.09306,-22.7306 1.41121,-7.20871 2.0503,-9.01859 2.03816,-18.7188 -2.21182,-1.2665 -4.30833,-2.54653 -6.22698,-3.75094 -5.49967,-3.45684 -12.6617,-11.3364 -17.3444,-12.3387 -7.88468,-1.68664 -21.3526,-18.9055 -32.3342,-27.6444 3.86718,12.5366 8.86688,18.3481 11.6907,27.2187 3.83964,12.0553 6.63265,23.5975 10.9349,35.495 2.75567,7.62045 10.5923,19.3658 10.7216,28.6369 0.124642,8.90002 -0.508373,12.1809 -3.17674,20.2495 -5.73308,17.3267 -14.3101,32.4359 -17.0573,50.4801 -3.38635,22.24 -10.0148,30.2923 -18.0717,43.8437 -4.41243,7.42299 -11.9801,11.8177 -18.2454,17.7599 -4.46005,4.22944 -10.2109,9.33417 -13.3195,14.6378 -3.40409,5.80684 -5.16729,10.8938 -6.17423,17.5512 -0.857558,5.66726 -2.08484,11.8639 0,17.2048 3.58802,9.19039 11.187,6.47907 18.0694,9.81126 5.05338,2.4471 7.53736,7.22692 18.5764,7.39311 -8.06394,-4.12767 -5.96276,-7.73763 -9.81266,-7.34409 -7.03085,0.718911 -28.186,-7.48974 -26.729,-16.5037 0.609674,-3.77335 9.58905,-12.4119 15.0621,-23.0546 4.67572,-9.09002 15.8604,-12.9096 20.9642,-15.7311 9.57085,-5.2938 21.4529,-24.9313 23.6704,-34.1637 2.90645,-12.0987 9.61426,-29.0305 14.8054,-39.4089 4.87739,-9.75058 10.9452,-18.1077 13.1019,-28.5319 4.16595,-20.137 3.70052,-19.2248 3.76401,-40.3608z"/>
   <path id="_76745096" class="fil7 str0" d="M148.194 527.816c-3.48998,6.71481 -3.6431,28.8377 -1.379,29.1056 4.72707,0.55879 7.76143,0.0886968 14.8698,1.58254 9.23987,1.94106 20.0992,8.48268 26.7267,15.3543 4.59169,4.76255 2.57501,9.29729 2.02509,13.8554 -1.42335,-3.65384 -5.82038,-6.84179 -7.38004,-8.51722 -0.0620877,1.90791 1.26696,6.93982 0.124642,9.06761 -0.920112,-1.64462 -5.43291,-6.94962 -6.88987,-7.5509 0.0350119,2.27484 0.682031,6.46833 -0.636283,8.07607 -0.832349,-2.08717 -3.14453,-6.60371 -5.46372,-7.41598 0.446285,1.39487 2.32899,4.14914 -0.471027,7.8464 -1.30991,-2.57641 -4.97682,-4.39796 -7.81418,-4.21636 -2.20575,0.141448 -7.79971,1.79308 -10.997,1.70951 -11.8004,-0.313706 -10.7048,2.35747 -18.3299,2.8439 -4.91613,0.31464 -5.64578,0.305304 -10.5171,0.210538 -5.60517,-0.10737 -10.8836,-6.18963 -10.6824,-17.2221 0.0858958,-4.76908 -3.00449,-2.92232 -1.89718,-6.46739 1.11244,-3.55627 -1.6647,-14.199 -2.38874,-19.4367 -0.522377,-3.78548 -2.07364,-7.83893 -5.67052,-15.7236 -2.39435,-5.25085 -8.46821,-12.9838 -19.3896,-20.7845 3.50679,-1.97467 6.90481,-3.40082 9.13577,-4.63511 3.58802,-1.98401 7.50421,-5.9861 11.1114,-10.7001 6.01271,-7.85713 11.1739,-17.695 12.559,-23.4636 1.45229,-6.04865 3.85738,-13.3068 6.54629,-20.3494 4.16735,11.1907 12.8139,22.423 17.2525,26.1539 3.64077,3.06191 9.632,10.9214 10.7911,21.4973 1.98914,18.1469 2.43263,22.1196 -1.23569,29.1798z"/>
   <path id="_77335416" class="fil7 str0" d="M152.391 132.161c1.20441,-13.3722 12.7588,-20.9161 25.8546,-28.5529 -8.61899,4.17295 -21.6359,4.49973 -29.9571,13.3675 -15.31,16.3155 -14.4454,14.9678 -14.9968,26.5913 -0.703505,14.7993 2.74026,27.1132 -1.2749,41.3752 -0.920112,3.26778 -12.552,-3.99135 -9.8248,-1.97094 8.6526,6.40857 15.6891,12.7443 21.0893,21.0893 7.01872,10.8485 9.59045,20.4292 14.2167,32.4957 0.595669,1.55219 -0.290365,8.42292 1.32298,8.01819 1.93172,-0.483164 1.50131,-7.40478 2.22022,-5.54962 1.3706,3.53807 3.15527,7.53876 5.19576,11.6478 1.25343,-22.2405 -2.29164,-49.9909 -4.66265,-74.3993 -1.12552,-11.5987 0.559723,-10.5811 -4.34894,-14.9431 -5.34141,-4.74481 -5.56035,-21.1136 -4.83444,-29.1691z"/>
   <path id="_75593376" class="fil0 str0" d="M178.42 177.873c7.09854,0.0490166 17.8505,-2.02042 23.0579,-7.53082 2.60162,-2.751 6.88007,-5.7877 7.86927,-15.4748 1.36126,-13.3139 3.57401,-6.42211 4.65051,-25.4219 0.762792,-13.4726 16.0779,-30.2288 32.9354,-36.1519 -0.113438,0.503704 -8.96818,8.87621 -9.61426,12.517 3.51566,-2.62402 5.91001,-4.08565 9.00926,-5.95622 -1.5634,1.62875 -6.9613,11.1342 -9.21139,14.7988 5.84652,-4.42037 6.22931,-4.53194 9.04987,-5.71581 -1.24175,1.99521 -6.93889,9.84254 -8.60219,14.6378 3.7206,-5.06178 6.52201,-6.51641 9.45134,-6.73162 -0.159187,-1.12178 -9.86401,15.409 -9.82854,20.4591 0.0602204,8.26747 0.879498,21.4613 0.752522,22.5631 -1.91258,16.5826 -16.5158,27.7696 -17.4331,37.3003 -1.25483,13.0398 -10.9657,25.9335 -16.0933,34.4452 -1.47377,2.4457 -10.3962,10.5171 -14.7129,10.5946 -3.53947,0.0634882 -23.1494,-5.9777 -23.5107,-13.7275 -0.794069,-17.0634 -2.98628,-35.426 -4.61457,-52.2055 -1.12552,-11.5973 0.55879,-10.5834 -4.34894,-14.9431 7.21618,0.408005 14.297,16.4953 21.1939,16.5433z"/>
   <path id="_76430240" class="fil8 str0" d="M158.681 59.0748c-0.139114,1.08397 -1.52745,1.6605 -2.50032,2.28418 -3.61089,0.449086 -6.24939,-2.17027 -9.58299,-3.03483 0.278228,-1.80101 3.05537,-1.24409 4.30553,-2.32572 2.6385,0.786133 6.11074,1.05549 7.77777,3.07638l0 0 0 0z"/>
   <path id="_76430216" class="fil9 str0" d="M158.741 131.867c-0.821145,3.82096 -1.59234,7.66854 -2.38221,11.5138 -0.793603,3.86204 -1.57273,7.75863 -2.3472,11.6506 -18.4261,-7.40618 -36.7853,-14.1737 -55.5844,-17.5839 -18.5801,-3.37048 -37.4627,-3.78642 -56.1945,-4.06838 0.622278,-4.40076 1.25529,-8.80245 1.88971,-13.1878 0.632548,-4.37088 1.2679,-8.74177 1.92472,-13.0916 18.8957,1.39114 37.9165,2.49611 56.6758,5.91327 18.9274,3.44797 37.4982,10.2683 56.0181,18.8541z"/>
   <path id="_76577928" class="fil0 str0" d="M52.9016 131.494c1.15026,-1.27537 2.30005,-2.55587 3.46197,-3.83077 0.164322,-1.12972 0.328645,-2.25383 0.504638,-3.37328 1.03308,-0.987802 2.08951,-1.9658 3.12213,-2.92886 -1.84256,-0.0956991 -3.67345,-0.17646 -5.50433,-0.261889 -1.84303,-0.0807607 -3.68558,-0.171325 -5.49266,-0.226877 0.703972,1.06389 1.43175,2.12732 2.15907,3.19075 -0.164322,1.14466 -0.340315,2.2739 -0.504171,3.40782 0.751122,1.35659 1.50224,2.69732 2.25336,4.0231zm15.1751 0.574662c1.16239,-1.20488 2.30005,-2.40415 3.45077,-3.61416 0.175993,-1.0891 0.351986,-2.18287 0.53965,-3.27711 1.05596,-0.927581 2.08951,-1.8603 3.1338,-2.77714 -1.83089,-0.141915 -3.67345,-0.282896 -5.50433,-0.424344 -1.83089,-0.140981 -3.68558,-0.256754 -5.5048,-0.367391 0.71611,1.05829 1.43175,2.10725 2.15953,3.16041 -0.175993,1.10918 -0.340315,2.21322 -0.516309,3.31259 0.751122,1.32532 1.49057,2.6567 2.24169,3.98715zm15.1634 1.2707c1.16239,-1.12972 2.31265,-2.26363 3.46244,-3.39288 0.187664,-1.0793 0.363657,-2.15767 0.563458,-3.23136 1.02141,-0.877631 2.07737,-1.74919 3.1338,-2.61142 -1.84303,-0.237147 -3.66224,-0.464024 -5.49313,-0.695569 -1.84256,-0.222209 -3.67345,-0.408472 -5.50433,-0.595202 0.704439,1.06903 1.42008,2.14273 2.14833,3.22203 -0.187664,1.07837 -0.36459,2.16233 -0.540583,3.24583 0.72778,1.34119 1.49057,2.70198 2.23002,4.05858zm15.1172 2.18241c1.16146,-1.06296 2.32339,-2.12686 3.49745,-3.19588 0.187664,-1.0737 0.375327,-2.15206 0.575128,-3.22669 1.03262,-0.816477 2.0769,-1.61755 3.12119,-2.42982 -1.81875,-0.362723 -3.64964,-0.690434 -5.46886,-1.03822 -1.83089,-0.312773 -3.66178,-0.619944 -5.49266,-0.901906 0.715643,1.11338 1.42055,2.22769 2.13619,3.34667 -0.199334,1.06389 -0.375327,2.14786 -0.563458,3.22669 0.739451,1.40141 1.46723,2.81776 2.19501,4.21917zm15.0929 3.25657c1.16193,-1.00274 2.32386,-2.00641 3.49745,-3.01429 0.187664,-1.0737 0.386998,-2.15767 0.586799,-3.23136 1.04429,-0.736183 2.10118,-1.4873 3.14547,-2.22349 -1.83089,-0.498569 -3.65011,-0.983134 -5.46932,-1.44669 -1.81875,-0.453287 -3.65011,-0.887434 -5.45719,-1.29544 0.692302,1.16986 1.39627,2.35933 2.11238,3.54414 -0.199801,1.0737 -0.387465,2.1474 -0.586799,3.22109 0.715643,1.4775 1.44342,2.96434 2.1712,4.44604zm15.0108 4.39142c1.1736,-0.937852 2.33599,-1.88084 3.50912,-2.79301 0.175993,-1.08397 0.375794,-2.1628 0.575128,-3.2365 1.0681,-0.665226 2.12499,-1.33605 3.18095,-1.99661 -1.83089,-0.665226 -3.63843,-1.28517 -5.45719,-1.90044 -1.80801,-0.584465 -3.62723,-1.17453 -5.43431,-1.72912 0.692302,1.24549 1.39674,2.50078 2.08904,3.76074 -0.199334,1.07883 -0.399135,2.15767 -0.586799,3.23697 0.715643,1.54753 1.40794,3.10485 2.12405,4.65798zm14.9762 5.47913c1.16146,-0.856624 2.33553,-1.69364 3.50866,-2.52552 0.199801,-1.04802 0.399135,-2.10678 0.610607,-3.15574 1.03308,-0.584465 2.08904,-1.15959 3.1338,-1.74406 -1.79588,-0.781465 -3.57961,-1.56807 -5.38763,-2.34393 -1.80708,-0.736183 -3.61463,-1.45743 -5.41004,-2.17307 0.680631,1.31084 1.36173,2.62636 2.05403,3.94747 -0.211472,1.06389 -0.410806,2.12732 -0.598937,3.19588 0.680631,1.59841 1.38554,3.20149 2.08951,4.79896zm-81.1347 -28.4623c0,-0.00466825 0.0112038,-0.0149384 0.0238081,-0.0196067 0,0.00980333 0,0.0196067 0.0112038,0.0298768 1.15026,-1.21981 2.31218,-2.44476 3.47411,-3.65477 0.163856,-1.10404 0.352453,-2.19828 0.528446,-3.30185 1.04429,-0.932717 2.08858,-1.86543 3.13333,-2.78321 1.39674,0.121375 2.78134,0.24695 4.17855,0.368325 0.703972,1.06389 1.43175,2.14226 2.1712,3.20615 -0.188131,1.08864 -0.364124,2.1726 -0.540117,3.26171 0.72778,1.34586 1.4789,2.69685 2.21835,4.04831 1.16146,-1.15959 2.33553,-2.31919 3.49699,-3.47365 0.175993,-1.08397 0.36459,-2.16747 0.552254,-3.24677 1.03262,-0.897238 2.0769,-1.78467 3.145,-2.6567 1.39674,0.171325 2.80515,0.35292 4.20143,0.524711 0.716576,1.09377 1.43222,2.19268 2.16,3.29158 -0.199334,1.06856 -0.375794,2.1474 -0.551787,3.22669 0.72778,1.38087 1.45556,2.7622 2.20668,4.14867 1.16146,-1.09891 2.32386,-2.19781 3.50866,-3.30185 0.175993,-1.07883 0.351986,-2.15813 0.540583,-3.23697 1.05596,-0.836551 2.11238,-1.67357 3.16834,-2.51059 1.40888,0.252552 2.79348,0.494368 4.18976,0.741318 0.71611,1.14932 1.42008,2.29398 2.13666,3.44797 -0.188131,1.0737 -0.375794,2.153 -0.563458,3.23183 0.715643,1.43175 1.45509,2.88358 2.19454,4.33027 1.16193,-1.04382 2.32386,-2.09184 3.49745,-3.12026 0.188131,-1.07883 0.375794,-2.15813 0.574662,-3.23183 1.05689,-0.7866 2.12499,-1.57787 3.18095,-2.34393 1.38507,0.347785 2.78181,0.685766 4.17808,1.03355 0.681098,1.20488 1.39721,2.42469 2.10118,3.65011 -0.211472,1.07837 -0.399135,2.1572 -0.586799,3.23603 0.703972,1.52278 1.44342,3.0451 2.15907,4.55715 1.17407,-0.967728 2.3472,-1.93592 3.50959,-2.90319 0.199334,-1.07416 0.386998,-2.16327 0.59847,-3.2421 1.04429,-0.710508 2.10071,-1.41121 3.15714,-2.10211 1.39674,0.448619 2.81682,0.922913 4.21356,1.39674 0.680631,1.29544 1.39627,2.60115 2.0769,3.89706 -0.211005,1.0737 -0.410806,2.1474 -0.609674,3.22109 0.703972,1.58767 1.40794,3.17068 2.13572,4.75881 1.16193,-0.882299 2.32386,-1.7646 3.50912,-2.61142 0.199801,-1.06856 0.387465,-2.13759 0.598937,-3.19635 1.05596,-0.605005 2.11238,-1.21468 3.16834,-1.81968 1.38507,0.590067 2.74633,1.21001 4.11973,1.85003 0.66896,1.35099 1.36126,2.70245 2.04236,4.04317 -0.187664,1.04335 -0.399135,2.09231 -0.610607,3.12539 0.704439,1.63342 1.38507,3.25704 2.08951,4.90493 0.786133,-0.508839 1.57227,-1.01254 2.37007,-1.49711 -0.457489,2.21322 -0.910309,4.43017 -1.36126,6.65926 -0.451887,2.23189 -0.891636,4.47172 -1.34959,6.71481 -4.95301,-2.10211 -9.92937,-4.13327 -14.9053,-6.06919 -12.9684,-4.46145 -25.9079,-8.48408 -39.0593,-10.8588 -13.0207,-2.35046 -26.2076,-3.22109 -39.3524,-3.9274 -5.06972,-0.120441 -10.1404,-0.211472 -15.2106,-0.246484 0.328645,-2.32946 0.668494,-4.65891 0.997605,-6.9823 0.327711,-2.31405 0.692768,-4.63791 1.03308,-6.94682 0.304837,0.54992 0.621811,1.10451 0.915444,1.64836 1.16146,-1.28003 2.31172,-2.561 3.46197,-3.8359 0.164322,-1.13485 0.328645,-2.2739 0.504638,-3.41296 1.04475,-0.96306 2.10118,-1.93079 3.14547,-2.89898 1.39674,0.100834 2.79348,0.202135 4.20189,0.292699 0.715643,1.0737 1.44342,2.14273 2.18287,3.22109 -0.175993,1.10918 -0.351986,2.21789 -0.527979,3.3322 0.751122,1.35099 1.50224,2.69218 2.26504,4.0329z"/>
   <path id="_75893064" class="fil2 str0" d="M287.86 397.324l4.73034 1.30478c4.22103,1.21515 8.42899,2.49611 12.6566,3.70659 1.83462,0.527979 3.68885,1.01488 5.53841,1.50925l4.02216 0.959326 2.00875 0.424344 2.01062 0.382797 2.01108 0.334714 2.01388 0.282896 2.01762 0.228744 2.02042 0.168524 2.02462 0.104102 2.02976 0.0350119 2.03302 -0.0350119 2.02555 -0.104102 2.02089 -0.168524 2.01575 -0.228744 2.01622 -0.282896 2.01062 -0.334714 2.00828 -0.38233 4.02403 -0.886968 4.01936 -1.02235 5.03564 -1.41401 9.62407 -2.83316c1.86683,-0.541517 3.7374,-1.07136 5.61357,-1.58534l4.1202 -1.04756 2.07737 -0.478496 2.08764 -0.440683 2.09511 -0.397735 2.10631 -0.351052 2.11845 -0.299235 2.13199 -0.240882 2.14646 -0.179261 2.15907 -0.111104 2.17074 -0.0382797 2.17307 0.0382797 2.1586 0.111104 2.14599 0.179261 2.13199 0.240882 2.12172 0.299235 2.10585 0.351052 2.09885 0.398202 4.55108 1.01488c2.27344,0.565325 4.54454,1.15726 6.80164,1.80101 4.56088,1.30664 9.10636,2.69125 13.6724,3.99882 1.83649,0.528446 3.68932,1.01488 5.53935,1.50925l4.0217 0.959326 2.00875 0.424344 2.01062 0.382797 2.01062 0.334714 2.01388 0.282896 2.01762 0.228744 2.02182 0.168524 2.02369 0.104102 2.03022 0.0350119 2.03302 -0.0350119 2.02369 -0.104102 2.02229 -0.168524 2.01668 -0.228744 2.01575 -0.282896 2.00968 -0.334714 2.00781 -0.38233 4.02497 -0.886968 4.01936 -1.02235 4.5282 -1.2665c4.904,-1.42662 9.79119,-2.92092 14.7157,-4.28359 1.70671,-0.470093 3.42743,-0.89257 5.14721,-1.32998l2.07737 -0.478496 2.08671 -0.440683 2.09464 -0.397735 2.10725 -0.351052 2.11939 -0.299235 2.13152 -0.240882 2.14553 -0.179261 2.15907 -0.111104 2.17307 -0.0382797 2.17027 0.0382797 2.16 0.111104 2.14506 0.179261 2.13246 0.240882 2.11892 0.299235 2.10631 0.351052 2.09604 0.397735 2.08858 0.44115c1.7674,0.421543 3.53947,0.825347 5.29846,1.29264 1.66517,0.441617 3.3294,0.900972 4.99223,1.372 3.79949,1.10311 7.59244,2.24403 11.3947,3.3532 2.25103,0.656356 4.5212,1.2665 6.79324,1.86497l4.02357 0.959792 2.00828 0.424344 2.00968 0.382797 2.01062 0.334714 2.01575 0.282896 2.01668 0.228744 2.02135 0.168524 2.02509 0.104102 2.03209 0.0350119 2.02976 -0.0350119 2.02462 -0.104102 2.02135 -0.168524 2.01715 -0.228744 2.01482 -0.282896 2.00968 -0.334714 2.00828 -0.38233 4.02357 -0.886968 4.0203 -1.02235 5.03377 -1.41355 3.54134 -1.04242 11.6977 -3.37655 4.12253 -1.04802 4.15894 -0.918245 2.09885 -0.398202 2.10585 -0.351052 2.12125 -0.299235 2.13246 -0.240882 2.14506 -0.179261 2.15953 -0.111104 2.1726 -0.0382797 2.1712 0.0382797 2.1586 0.111104 2.14599 0.179261 2.13199 0.240882 2.11892 0.299235 2.10678 0.351052 2.09511 0.397735 2.08904 0.44115c1.7674,0.421543 3.53947,0.825347 5.29846,1.29264 1.66657,0.442083 3.32986,0.901439 4.99363,1.372 3.79809,1.10357 7.59244,2.24449 11.3933,3.3532 2.25103,0.656823 4.5212,1.2665 6.79324,1.86497l4.0231 0.959792 2.00781 0.424344 2.01155 0.382797 2.00922 0.334714 2.01575 0.282896 2.01622 0.228744 2.02182 0.168524 2.02509 0.104102 2.03769 0.0350119 2.0489 -0.0238081 2.0517 -0.0704906 2.04656 -0.115306 2.04236 -0.159187 2.03909 -0.197467 4.07352 -0.508373 2.60442 -0.412207 0 3.27291 -4.13094 0.587266 -2.11285 0.245083 -2.11658 0.205403 -2.12686 0.165256 -2.13339 0.120441 -2.14226 0.0737584 -2.15533 0.0242749 -2.16654 -0.037346 -2.15953 -0.111104 -2.14506 -0.178327 -2.13199 -0.241349 -2.12032 -0.297834 -2.10818 -0.351519 -2.09931 -0.398202 -4.15661 -0.918245 -4.1244 -1.04802c-1.70485,-0.473827 -3.41576,-0.942053 -5.1108,-1.43455 -0.508373,-0.148917 -1.01534,-0.297834 -1.51812,-0.445818 -4.54361,-1.33512 -9.07695,-2.70618 -13.6411,-3.95121l-4.02497 -1.02375 -2.00501 -0.462624 -2.01295 -0.42341 -2.00828 -0.382797 -2.01342 -0.334247 -2.01342 -0.284763 -2.01668 -0.227811 -2.02089 -0.169458 -2.02602 -0.104102 -2.02929 -0.0364124 -2.03162 0.0364124 -2.02509 0.104102 -2.02182 0.169458 -2.01668 0.227811 -2.01435 0.284763 -2.01248 0.334247 -2.01062 0.382797 -2.00781 0.422944 -4.02216 0.960726 -5.03331 1.36173c-4.73407,1.35566 -9.44761,2.78601 -14.1779,4.14447 -1.70625,0.484564 -3.41763,0.93225 -5.12807,1.38927l-4.13887 0.986868 -2.08951 0.442083 -2.09558 0.397735 -2.10772 0.351519 -2.11845 0.297834 -2.13199 0.241349 -2.14553 0.178327 -2.15953 0.111104 -2.17027 0.037346 -2.1726 -0.037346 -2.15907 -0.111104 -2.14693 -0.178327 -2.13106 -0.241349 -2.12125 -0.297834 -2.10678 -0.351519 -2.09885 -0.398202 -4.15708 -0.918245 -4.12393 -1.04802 -5.1108 -1.43455 -6.5687 -1.93732 -8.59192 -2.4597 -4.02543 -1.02375 -2.00595 -0.462624 -2.01062 -0.42341 -2.01015 -0.382797 -2.01202 -0.334247 -2.01248 -0.284763 -2.01902 -0.227811 -2.02042 -0.169458 -2.02509 -0.104102 -2.02929 -0.0364124 -2.03256 0.0364124 -2.02462 0.104102 -2.02089 0.169458 -2.01622 0.227811 -2.01435 0.284763 -2.01062 0.334247 -2.01108 0.382797 -2.00828 0.422944 -4.02076 0.960726 -5.03331 1.36173c-5.07345,1.45556 -10.1245,2.99188 -15.1994,4.43577l-4.10759 1.09797 -4.13934 0.986868 -2.08577 0.442083 -2.09698 0.397735 -2.10818 0.351519 -2.11939 0.297834 -2.13152 0.241349 -2.14599 0.178327 -2.16 0.111104 -2.17214 0.037346 -2.1698 -0.037346 -2.16 -0.111104 -2.14553 -0.178327 -2.13199 -0.241349 -2.11892 -0.297834 -2.10772 -0.351519 -2.09838 -0.398202 -4.15661 -0.918245 -4.12533 -1.04802c-1.8743,-0.520977 -3.75094,-1.03588 -5.61404,-1.583 -4.88346,-1.42662 -9.75151,-2.91019 -14.656,-4.24858l-4.02543 -1.02375 -2.00735 -0.462624 -2.00968 -0.42341 -2.01062 -0.382797 -2.01202 -0.334247 -2.01482 -0.284763 -2.01668 -0.227811 -2.02135 -0.169458 -2.02602 -0.104102 -2.03116 -0.0364124 -2.02929 0.0364124 -2.02555 0.104102 -2.02089 0.169458 -2.01668 0.227811 -2.01342 0.284763 -2.01342 0.334247 -2.00922 0.382797 -2.00968 0.422944 -4.02076 0.960726c-1.67917,0.448619 -3.36394,0.887434 -5.03331,1.36173l-15.2003 4.43577 -4.10759 1.09797 -4.13887 0.986868 -2.08717 0.442083 -2.09604 0.397735 -2.10772 0.351519 -2.12032 0.297834 -2.13106 0.241349 -2.14599 0.178327 -2.16 0.111104 -2.17307 0.037346 -2.16934 -0.037346 -2.15953 -0.111104 -2.14553 -0.178327 -2.13199 -0.241349 -2.11892 -0.297834 -2.10772 -0.351519 -2.09838 -0.398202 -4.15661 -0.918245 -4.1258 -1.04802c-1.8743,-0.521444 -3.75094,-1.03635 -5.61357,-1.583l-10.6081 -3.11326 -4.04784 -1.13532 -4.0259 -1.02375 -2.00688 -0.462624 -2.00922 -0.42341 -2.01108 -0.382797 -2.01295 -0.334247 -2.01435 -0.284763 -2.01575 -0.227811 -2.02089 -0.169458 -2.02649 -0.104102 -2.03816 -0.0364124 -2.04749 0.0256754 -2.05076 0.0704906 -2.04656 0.116239 -2.04143 0.15732 -4.08005 0.436015 -4.06838 0.576996 -2.35793 0.408939 0 -3.26824 1.72165 -0.298301 4.19536 -0.595669 2.11332 -0.245083 2.11752 -0.206804 2.12545 -0.163856 2.13432 -0.121841 2.14273 -0.0737584 2.1558 -0.0252086 2.16654 0.0382797 2.1586 0.111104 2.14693 0.179261 2.13152 0.240882 2.12079 0.299235 2.10678 0.351052 2.09838 0.398202 4.55108 1.01488c1.03262,0.256287 2.0615,0.522844 3.08665,0.788468z"/>
   <path id="_78688224" class="fil0 str0" d="M66.8582 602.844c0.340782,-5.00857 4.63791,-13.5309 13.1733,-13.5342 35.3503,-0.0140048 6.48934,0.320709 42.975,5.30407 34.736,-0.0312773 34.3177,-5.46279 69.0528,-5.49313 -17.9284,-0.745053 5.7947,-2.48118 20.8059,-2.4597l-0.208671 93.9485c-6.29327,6.35629 -33.6105,13.7853 -57.9204,13.2392 -0.0149384,-0.00140048 -27.9736,-3.68932 -32.9985,-3.9344l-38.9341 -12.1608c-7.37584,0.808074 -14.5673,6.81331 -15.8935,14.6032 -0.0168057,-29.8376 -2.07971,-59.7429 -0.0518176,-89.5128z"/>
   <path id="_76414424" class="fil0 str0" d="M928.631 602.844c-0.340782,-5.00857 -4.63791,-13.5309 -13.1733,-13.5342 -35.3503,-0.0140048 -6.48934,0.320709 -42.975,5.30407 -34.736,-0.0312773 -34.3177,-5.46279 -69.0528,-5.49313 17.9284,-0.745053 -5.7947,-2.48118 -20.8059,-2.4597l0.208671 93.9485c6.29327,6.35629 33.6105,13.7853 57.9204,13.2392 0.0149384,-0.00140048 27.9736,-3.68932 32.9985,-3.9344l38.9341 -12.1608c7.37584,0.808074 14.5673,6.81331 15.8935,14.6032 0.0168057,-29.8376 2.07971,-59.7429 0.0518176,-89.5128z"/>
   <path id="_76414744" class="fil0 str0" d="M455.414 736.428l-0.048083 20.8573 -0.102235 -1.38834 -0.23668 -1.35099 -0.367858 -1.30291 -0.491567 -1.25109 -1.33372 -2.31872 -1.74639 -2.02555 -2.10631 -1.71045 -2.39668 -1.365 -2.64877 -1.00974 -2.66744 -0.603138c-1.34166,-0.165723 -2.62916,-0.257687 -3.97548,-0.2955 -7.54716,0.0518176 -14.9291,1.63576 -22.43,2.19828l-2.36914 0.0905641c-2.05356,-0.0163389 -4.70186,-0.0182062 -6.3787,-1.29731 -1.02375,-1.04569 -2.00641,-2.54513 -1.96487,-4.01189 0.367858,-1.77487 2.41255,-2.80702 3.96848,-3.58288 4.82324,-2.10491 10.1609,-2.99935 15.429,-3.46758 1.4621,-0.103635 2.89385,-0.13678 4.36762,-0.149851 3.27291,0.0606873 6.45666,0.293633 9.71136,0.668027 3.32706,0.447218 6.60698,1.00647 9.90369,1.64276 2.63429,0.534982 5.25925,1.09937 7.88374,1.67403z"/>
   <path id="_76794304" class="fil0 str0" d="M540.075 736.428l0.048083 20.8573 0.102235 -1.38834 0.23668 -1.35099 0.367858 -1.30291 0.491567 -1.25109 1.33372 -2.31872 1.74639 -2.02555 2.10631 -1.71045 2.39668 -1.365 2.64877 -1.00974 2.66744 -0.603138c1.34166,-0.165723 2.62916,-0.257687 3.97548,-0.2955 7.54716,0.0518176 14.9291,1.63576 22.43,2.19828l2.36914 0.0905641c2.05356,-0.0163389 4.70186,-0.0182062 6.3787,-1.29731 1.02375,-1.04569 2.00641,-2.54513 1.96487,-4.01189 -0.367858,-1.77487 -2.41255,-2.80702 -3.96848,-3.58288 -4.82324,-2.10491 -10.1609,-2.99935 -15.429,-3.46758 -1.4621,-0.103635 -2.89385,-0.13678 -4.36762,-0.149851 -3.27291,0.0606873 -6.45666,0.293633 -9.71136,0.668027 -3.32706,0.447218 -6.60698,1.00647 -9.90369,1.64276 -2.63429,0.534982 -5.25925,1.09937 -7.88374,1.67403z"/>
   <path id="_76794624" class="fil0 str0" d="M50.5039 609.689c5.73074,0.879032 11.0194,1.99148 16.3604,3.07871l0.0457489 79.5895 0.28523 -1.67544 0.594735 -1.55033 0.8837 -1.39301 1.11478 -1.19461 1.2875 -0.997138 1.41168 -0.816477 1.51298 -0.666626 1.02561 -0.30577c-5.74101,1.99008 -9.35751,5.70367 -7.56723,12.4087l15.7185 -18.1007 26.8901 10.722 0.583998 21.5314c-4.75088,6.98184 -15.458,7.58824 -22.5117,6.12708 -10.0493,-2.20855 -19.9983,-4.63791 -30.3063,-5.63738 -4.38909,-0.307638 -38.1097,0.644219 -39.8692,-3.919 -3.72526,-25.027 24.5209,-18.0685 5.46279,-13.5734 2.04609,1.93079 11.9148,-8.59845 13.9609,-6.66766 5.43338,-3.41996 14.466,9.85328 13.0356,3.76588l0.0802939 -80.7257z"/>
   <path id="_76352160" class="fil0 str0" d="M944.986 609.689c-5.73074,0.879032 -11.0194,1.99148 -16.3604,3.07871l-0.0457489 79.5895 -0.28523 -1.67544 -0.594735 -1.55033 -0.8837 -1.39301 -1.11478 -1.19461 -1.2875 -0.997138 -1.41168 -0.816477 -1.51298 -0.666626 -1.02561 -0.30577c5.74101,1.99008 9.35751,5.70367 7.56723,12.4087l-15.7185 -18.1007 -26.8901 10.722 -0.583998 21.5314c4.75088,6.98184 15.458,7.58824 22.5117,6.12708 10.0493,-2.20855 19.9983,-4.63791 30.3063,-5.63738 4.38909,-0.307638 38.1097,0.644219 39.8692,-3.919 3.72526,-25.027 -24.5209,-18.0685 -5.46279,-13.5734 -2.04609,1.93079 -11.9148,-8.59845 -13.9609,-6.66766 -5.43338,-3.41996 -14.466,9.85328 -13.0356,3.76588l-0.0802939 -80.7257z"/>
   <path id="_76352480" class="fil0 str0" d="M12.9465 704.123l0.211939 -89.214c0.00466825,-1.94666 0.644219,-4.27378 1.92565,-7.05046 5.95435,-9.23847 17.8355,-16.8655 29.5561,-12.9096 3.92833,1.84116 5.77929,4.88206 5.87079,7.98178l-0.0872963 87.8056 -0.255353 -1.26976 -0.439282 -1.21795 -0.621811 -1.15166 -0.813209 -1.06389 -1.00367 -0.94392 -1.14419 -0.752055 -1.50598 -0.705373 -1.50878 -0.509306 -1.53072 -0.34405 -1.53912 -0.190931 -1.53305 -0.0536849c-1.55873,0.0695569 -2.96761,0.235747 -4.50346,0.518643l-2.87284 0.786133c-1.39207,0.494368 -2.71365,1.03028 -4.05718,1.63949 -1.69878,0.848688 -3.28225,1.73052 -4.84704,2.78881 -1.22075,0.975664 -2.28744,1.95693 -3.36954,3.06937l-2.03676 2.47837 -1.7576 2.72673 -1.34166 2.90692 -0.461223 1.51251 -0.282896 1.55873 -0.0518176 1.60354z"/>
   <path id="_75770056" class="fil0 str0" d="M982.543 704.123l-0.211939 -89.214c-0.00466825,-1.94666 -0.644219,-4.27378 -1.92565,-7.05046 -5.95435,-9.23847 -17.8355,-16.8655 -29.5561,-12.9096 -3.92833,1.84116 -5.77929,4.88206 -5.87079,7.98178l0.0872963 87.8056 0.255353 -1.26976 0.439282 -1.21795 0.621811 -1.15166 0.813209 -1.06389 1.00367 -0.94392 1.14419 -0.752055 1.50598 -0.705373 1.50878 -0.509306 1.53072 -0.34405 1.53912 -0.190931 1.53305 -0.0536849c1.55873,0.0695569 2.96761,0.235747 4.50346,0.518643l2.87284 0.786133c1.39207,0.494368 2.71365,1.03028 4.05718,1.63949 1.69878,0.848688 3.28225,1.73052 4.84704,2.78881 1.22075,0.975664 2.28744,1.95693 3.36954,3.06937l2.03676 2.47837 1.7576 2.72673 1.34166 2.90692 0.461223 1.51251 0.282896 1.55873 0.0518176 1.60354z"/>
   <path id="_75771888" class="fil0 str0" d="M448.646 757.329c-0.227811,1.59047 -1.05689,2.7496 -2.22115,3.60622 -1.87664,1.27583 -4.66778,1.977 -7.31608,2.33739 -0.415941,0.0541517 -0.824413,0.102235 -1.21935,0.145183 -81.1081,5.72841 -121.28,-41.2066 -161.031,-69.3212 -37.3413,-26.4106 -75.8175,-48.0708 -102.184,-44.5519 -11.2566,-0.0672228 -27.5917,4.76348 -28.1743,18.2781l0.102702 -68.2713c-0.040147,-21.1047 -3.44704,-31.5718 22.9739,-38.1004 69.3408,3.40222 150.159,139.82 245.98,127.096 -5.63645,1.27397 -10.7673,3.82703 -15.1256,8.2474 0,6.84926 -0.185796,14.0253 -1.80335,20.7536l0.347318 -1.31178 0 18.8565 0.0037346 -0.00420143c-1.14512,1.43269 -1.60168,3.30139 -1.52605,5.1164 0.0210071,0.921046 0.200268,1.84116 0.523311,2.75287 0.671294,2.25663 1.83276,3.9358 3.37188,5.15982 0.056019,0.0583531 0.111571,0.116239 0.168524,0.174593 5.74895,4.38162 14.7195,3.20149 22.0902,2.07737 6.67887,-0.753456 13.2989,-1.67824 18.0545,-0.783799 2.06197,0.612008 3.95728,1.72539 5.59583,3.62443 0.492967,0.76746 0.845887,1.4803 1.07416,2.14133 0.122775,0.671761 0.226877,1.33139 0.315107,1.97747 -0.0116706,-0.43088 -0.0508839,-0.832349 -0.103168,-1.22168 0.0919645,0.426678 0.128844,0.828615 0.116239,1.20954l-0.0130711 0.0121375z"/>
   <path id="_75772720" class="fil0 str0" d="M546.844 757.329c0.227811,1.59047 1.05689,2.7496 2.22115,3.60622 1.87664,1.27583 4.66778,1.977 7.31608,2.33739 0.415941,0.0541517 0.824413,0.102235 1.21935,0.145183 81.1081,5.72841 121.28,-41.2066 161.031,-69.3212 37.3413,-26.4106 75.8175,-48.0708 102.184,-44.5519 11.2566,-0.0672228 27.5917,4.76348 28.1743,18.2781l-0.102702 -68.2713c0.040147,-21.1047 3.44704,-31.5718 -22.9739,-38.1004 -69.3408,3.40222 -150.159,139.82 -245.98,127.096 5.63645,1.27397 10.7673,3.82703 15.1256,8.2474 0,6.84926 0.185796,14.0253 1.80335,20.7536l-0.347318 -1.31178 0 18.8565 -0.0037346 -0.00420143c1.14512,1.43269 1.60168,3.30139 1.52605,5.1164 -0.0210071,0.921046 -0.200268,1.84116 -0.523311,2.75287 -0.671294,2.25663 -1.83276,3.9358 -3.37188,5.15982 -0.056019,0.0583531 -0.111571,0.116239 -0.168524,0.174593 -5.74895,4.38162 -14.7195,3.20149 -22.0902,2.07737 -6.67887,-0.753456 -13.2989,-1.67824 -18.0545,-0.783799 -2.06197,0.612008 -3.95728,1.72539 -5.59583,3.62443 -0.492967,0.76746 -0.845887,1.4803 -1.07416,2.14133 -0.122775,0.671761 -0.226877,1.33139 -0.315107,1.97747 0.0116706,-0.43088 0.0508839,-0.832349 0.103168,-1.22168 -0.0919645,0.426678 -0.128844,0.828615 -0.116239,1.20954l0.0130711 0.0121375z"/>
   <path id="_75773040" class="fil9 str0" d="M43.7677 691.931c-0.161521,-2.96994 -3.72433,-3.12399 -6.1831,-3.01382 -6.73022,0.795003 -12.2495,4.19209 -15.9271,9.5279 -2.59275,4.31206 -3.46898,6.8866 2.57454,8.08168 8.73523,1.31411 18.0064,-0.435548 26.8896,0.188131 13.2896,1.28844 25.5209,7.00798 38.8258,8.20445 1.80428,0.118107 3.71499,0.262823 5.52114,0.0830949 2.77294,-0.598003 6.44732,-2.49658 8.056,-4.86105 -2.77154,-3.20849 -9.65208,-3.3434 -13.8026,-4.36902 -1.74546,-0.52938 -3.41389,-1.21094 -5.15982,-1.71465 -8.50042,-2.03722 -19.2019,-2.59461 -17.3668,-13.3759 2.49331,-6.50287 8.87948,-12.7649 15.6083,-13.5024 19.7378,-0.639084 19.6169,5.46419 40.7366,11.2785 21.1196,5.81431 40.7062,0.503237 62.042,0.189064 18.4359,-0.271225 33.2137,-12.7 12.7579,-14.6816 -14.2223,-1.04896 -28.9371,9.62967 -42.707,5.16355 -5.31527,-2.29958 -8.52096,-5.75689 -9.13343,-11.306 0.582598,-13.5146 16.9177,-18.3453 28.1743,-18.2781 26.3667,-3.51893 64.8448,18.1436 102.184,44.5519 39.7488,28.1127 79.9233,75.0496 161.031,69.3212 6.14202,-0.621344 14.022,-2.96341 9.36731,-10.2076 -4.87505,-5.64998 -12.0319,-4.36481 -19.0334,-3.52033 -7.84873,1.00507 -19.6823,3.95634 -26.7071,-1.39767 -4.65004,-4.75415 -5.81617,-10.1698 -0.834216,-15.0911 10.8513,-8.01632 26.8331,-7.84966 39.9135,-6.0888 17.9172,2.8607 35.1589,8.36364 53.4314,8.92336l3.71779 -0.877164 0 8.11435c-4.50253,-1.06249 -8.6414,-1.0723 -13.2485,-1.50131 -12.5525,-1.40794 -24.6362,-4.51373 -36.9655,-7.01778 -12.8134,-2.47184 -27.0983,-4.06698 -39.4117,1.30664 -3.99602,1.99288 -5.42497,4.09966 -2.00361,7.59478 1.67684,1.2791 4.32513,1.28097 6.3787,1.29731 8.31089,-0.316974 16.4654,-2.23189 24.7991,-2.28884 10.7916,0.303903 19.6141,6.92255 17.7795,17.5988 -4.06605,10.6469 -19.9857,9.82994 -29.4142,9.39672 -63.4723,4.34894 -108.402,-34.8574 -152.406,-68.8763 -36.1215,-27.9255 -70.6708,-49.5511 -104.788,-43.7882 -5.3979,1.64369 -20.8176,7.35249 -13.0174,14.6844 4.43017,3.41669 13.3671,0.550387 18.5133,-0.913577 12.7779,-3.63423 41.3724,-8.30995 39.8211,9.45134 -2.28277,8.28801 -10.8812,13.7611 -27.2243,14.7269 -16.3431,0.965861 -42.7271,7.70915 -65.3943,1.04382 -22.6672,-6.66533 -14.8427,-11.3588 -37.8875,-12.4521 -6.28393,0.213806 -12.6636,11.4391 -5.74428,12.474 4.41803,1.12925 8.69228,1.74779 12.9805,3.34854 6.6672,1.3748 18.8,2.32339 19.9031,10.7771 -1.1666,6.22838 -7.89541,9.56478 -13.839,11.1268 -15.5966,1.55639 -30.747,-6.75122 -46.0467,-8.23666 -10.2758,-0.720311 -20.8694,1.72679 -30.8529,-1.11945 -12.6052,-5.00203 -4.88906,-17.6787 2.57127,-23.6396 7.06306,-4.77795 17.2202,-8.31696 25.0424,-3.17768 5.9805,5.62478 3.10952,13.6943 -4.46472,16.3435l-1.96487 1.23615 -6.13735 -5.7919c3.0451,-0.718444 8.70162,-1.06436 9.04427,-4.94554z"/>
   <path id="_75336336" class="fil9 str0" d="M951.722 691.931c0.161521,-2.96994 3.72433,-3.12399 6.1831,-3.01382 6.73022,0.795003 12.2495,4.19209 15.9271,9.5279 2.59275,4.31206 3.46898,6.8866 -2.57454,8.08168 -8.73523,1.31411 -18.0064,-0.435548 -26.8896,0.188131 -13.2896,1.28844 -25.5209,7.00798 -38.8258,8.20445 -1.80428,0.118107 -3.71499,0.262823 -5.52114,0.0830949 -2.77294,-0.598003 -6.44732,-2.49658 -8.056,-4.86105 2.77154,-3.20849 9.65208,-3.3434 13.8026,-4.36902 1.74546,-0.52938 3.41389,-1.21094 5.15982,-1.71465 8.50042,-2.03722 19.2019,-2.59461 17.3668,-13.3759 -2.49331,-6.50287 -8.87948,-12.7649 -15.6083,-13.5024 -19.7378,-0.639084 -19.6169,5.46419 -40.7366,11.2785 -21.1196,5.81431 -40.7062,0.503237 -62.042,0.189064 -18.4359,-0.271225 -33.2137,-12.7 -12.7579,-14.6816 14.2223,-1.04896 28.9371,9.62967 42.707,5.16355 5.31527,-2.29958 8.52096,-5.75689 9.13343,-11.306 -0.582598,-13.5146 -16.9177,-18.3453 -28.1743,-18.2781 -26.3667,-3.51893 -64.8448,18.1436 -102.184,44.5519 -39.7488,28.1127 -79.9233,75.0496 -161.031,69.3212 -6.14202,-0.621344 -14.022,-2.96341 -9.36731,-10.2076 4.87505,-5.64998 12.0319,-4.36481 19.0334,-3.52033 7.84873,1.00507 19.6823,3.95634 26.7071,-1.39767 4.65004,-4.75415 5.81617,-10.1698 0.834216,-15.0911 -10.8513,-8.01632 -26.8331,-7.84966 -39.9135,-6.0888 -17.9172,2.8607 -35.1589,8.36364 -53.4314,8.92336l-3.71779 -0.877164 0 8.11435c4.50253,-1.06249 8.6414,-1.0723 13.2485,-1.50131 12.5525,-1.40794 24.6362,-4.51373 36.9655,-7.01778 12.8134,-2.47184 27.0983,-4.06698 39.4117,1.30664 3.99602,1.99288 5.42497,4.09966 2.00361,7.59478 -1.67684,1.2791 -4.32513,1.28097 -6.3787,1.29731 -8.31089,-0.316974 -16.4654,-2.23189 -24.7991,-2.28884 -10.7916,0.303903 -19.6141,6.92255 -17.7795,17.5988 4.06605,10.6469 19.9857,9.82994 29.4142,9.39672 63.4723,4.34894 108.402,-34.8574 152.406,-68.8763 36.1215,-27.9255 70.6708,-49.5511 104.788,-43.7882 5.3979,1.64369 20.8176,7.35249 13.0174,14.6844 -4.43017,3.41669 -13.3671,0.550387 -18.5133,-0.913577 -12.7779,-3.63423 -41.3724,-8.30995 -39.8211,9.45134 2.28277,8.28801 10.8812,13.7611 27.2243,14.7269 16.3431,0.965861 42.7271,7.70915 65.3943,1.04382 22.6672,-6.66533 14.8427,-11.3588 37.8875,-12.4521 6.28393,0.213806 12.6636,11.4391 5.74428,12.474 -4.41803,1.12925 -8.69228,1.74779 -12.9805,3.34854 -6.6672,1.3748 -18.8,2.32339 -19.9031,10.7771 1.1666,6.22838 7.89541,9.56478 13.839,11.1268 15.5966,1.55639 30.747,-6.75122 46.0467,-8.23666 10.2758,-0.720311 20.8694,1.72679 30.8529,-1.11945 12.6052,-5.00203 4.88906,-17.6787 -2.57127,-23.6396 -7.06306,-4.77795 -17.2202,-8.31696 -25.0424,-3.17768 -5.9805,5.62478 -3.10952,13.6943 4.46472,16.3435l1.96487 1.23615 6.13735 -5.7919c-3.0451,-0.718444 -8.70162,-1.06436 -9.04427,-4.94554z"/>
   <path id="_76239064" class="fil0 str0" d="M595.281 671.357c-23.647,-26.6039 -70.1512,5.65605 -97.5347,-1.51251 -27.3835,7.16857 -73.4461,-25.0914 -97.0931,1.51251 0,7.59851 -0.185796,15.5588 -1.80335,23.0233l0.347785 -1.45556 0 42.0007c14.7302,-20.4824 61.261,-3.78548 79.5605,-0.534982 6.20037,1.00274 13.0352,2.22442 19.2089,0.607806 6.17376,1.61662 13.009,0.394934 19.2089,-0.607806 18.3,-3.2505 64.8303,-19.9474 79.561,0.534982l0 -42.0007 0.347318 1.45556c-1.61755,-7.46453 -1.80335,-15.4248 -1.80335,-23.0233z"/>
   <path id="_76084864" class="fil10 str0" d="M887.305 74.1071c0.26609,0.487832 0.168991,1.23755 0.191865,1.85843 -0.838418,0.900972 -2.69685,1.09284 -3.8415,0.387932 -1.41121,-1.19227 -2.34346,-2.89945 -1.28424,-4.55435 1.43455,-5.02677 3.75281,0.609674 4.93387,2.30798l0 0 0 0z"/>
   <path id="_76084584" class="fil6 str0" d="M840.899 72.089c4.44184,2.02835 9.77345,4.7056 14.6028,4.03244 4.82931,-0.672695 12.7093,-5.91747 13.1435,-3.35834 0.775863,4.57349 -7.32589,3.19682 -11.8233,4.85731 -4.13794,1.52792 -12.4264,0.648887 -18.8635,-2.63056 -5.55895,-2.83269 -11.884,0.120441 -13.8591,-0.457489 -2.25943,-0.661491 6.1789,-4.68599 8.72543,-4.98663 2.97554,-0.351052 5.44598,1.34306 8.07421,2.54326z"/>
   <path id="_75511360" class="fil11 str0" d="M893.936 328.924c0.0093365,0.248351 -0.110171,0.377195 -0.234346,0.381863l0 0 -0.248818 0.00886968 -0.0224076 -0.620877 0 0c0.248818,-0.0093365 0.377195,0.110638 0.505572,0.230145l0 0 0 0z"/>
   <path id="_75511208" class="fil11 str0" d="M877.161 82.4338c0.130711,3.60156 3.56514,5.71534 4.06418,9.17965 -6.34555,3.3392 -10.4391,-3.22763 -15.5985,-4.90586 0.300635,-2.00081 3.49372,-3.11139 4.79663,-4.8998 1.00274,0.212405 1.32578,-1.16753 2.06617,-1.31831 1.74359,0.0606873 4.2271,-0.02941 4.67152,1.94433l0 0 0 0z"/>
   <path id="_75512648" class="fil10 str0" d="M877.422 89.6374c-2.68705,1.34072 -4.05484,-2.09138 -6.42351,-2.2543 -1.14045,-0.580264 -2.30331,-1.78187 -0.977999,-2.94893 1.10451,-0.413607 1.92005,-1.93546 3.31259,-1.23942 1.79774,1.55126 3.37841,3.98108 4.08892,6.44265l0 0 0 0z"/>
   <path id="_75512624" class="fil0 str0" d="M935.63 137.151c-0.00700238,0.0350119 -0.0144716,0.0714242 -0.0228744,0.106436 0.00840285,-0.0350119 0.0158721,-0.0714242 0.0228744,-0.106436zm-157.609 457.17c3.07124,-3.87138 11.4185,-8.37391 13.5109,-8.69929 -2.08204,4.08005 -1.96207,6.57103 -2.01902,9.06714 1.16286,0.421076 5.70133,-5.39463 13.4478,-4.39002 13.41,-0.580264 27.5777,2.99982 40.2455,-1.43735 5.72001,-2.00455 8.73476,-9.75571 8.98452,-15.8114 0.3926,-9.52043 -5.83998,-18.2365 -7.18771,-27.6687 -0.712375,-4.99316 -1.66843,-10.864 1.07837,-15.0929 2.62589,-4.04084 8.11669,-6.51641 12.9362,-6.46786 7.88047,0.0784266 16.1223,2.39808 22.6387,6.82732 11.1417,7.57564 19.0749,6.10934 29.4459,27.7481 4.17528,8.70956 10.8938,18.0265 19.4241,22.5603 5.92121,3.14733 13.6882,1.88457 20.1225,0 8.77398,-2.57174 23.8347,-6.61258 28.2513,-14.4702 9.5419,-16.9742 14.9449,-31.5009 17.4481,-50.812 5.18969,-40.0209 0.0448152,-88.6613 2.25243,-129.48 0.662892,-12.2546 1.21141,-24.3776 1.27863,-36.6528 0.291299,-52.7074 0.262356,-106.732 -2.51572,-158.109 -7.49814,24.6035 -24.892,50.1814 -35.1743,76.7647 -2.55493,6.60417 -3.88165,14.6798 -2.91532,21.6948 2.29351,16.6666 10.0409,32.4415 11.1398,49.229 0.615275,9.42426 -3.3448,18.6389 -6.10934,27.6687 -4.9138,16.0471 -11.6188,31.5 -16.8888,47.4332 -5.03331,15.2157 -11.6043,30.1513 -14.0146,45.9958 -1.02748,6.75683 3.17534,13.3339 3.95307,20.123 1.49944,13.1234 3.76821,27.2453 0.411273,40.0195 -2.04469,7.78664 -8.02846,12.278 -15.1443,16.0378 -2.41769,1.27723 -6.26759,-0.816944 -7.54623,-3.23416 -4.46612,-8.436 -9.22586,-17.7832 -8.62459,-27.3097 0.785667,-12.4386 8.36364,-23.486 12.5767,-35.2154 10.7585,-29.9529 24.6049,-58.9642 32.3407,-89.8354 4.82184,-19.2388 6.61444,-39.52 5.03144,-59.2905 -1.92799,-24.0751 -10.5418,-47.1433 -15.4524,-70.7908 -3.47178,-16.7189 -8.25113,-31.4346 -10.687,-48.3369 -1.16193,-8.0672 -1.42008,-17.7702 -1.07837,-25.913 0.373927,-8.91916 2.63569,-19.778 4.21963,-28.5622 0.563925,-3.13286 1.30851,-6.40344 2.01062,-9.71836 -0.773529,3.3448 -3.67438,7.58824 -5.13321,10.4125 -4.35828,8.436 -14.2606,18.2673 -17.752,26.4802 -3.46291,8.1405 -18.5367,31.9934 -18.701,40.1404 -0.341716,16.8986 -4.92594,26.7607 -3.539,43.1309 2.03863,24.0616 0.115773,44.9963 3.79809,68.5416 3.39242,21.699 8.02846,49.2799 8.04806,68.5229 0.0308105,29.7844 -13.326,35.3909 -19.5044,40.1395 -7.46127,5.73308 -21.3694,9.81126 -70.7245,22.6868 -11.4218,7.12655 -11.5063,16.7226 -11.5922,25.0097 -0.103168,9.99519 6.65879,18.0731 8.80292,27.8382 2.42982,11.0703 7.07287,21.6471 5.34515,32.8495 -1.1806,7.6522 -5.46699,15.9706 -12.2177,19.7635 -7.42485,4.17342 -17.3173,-0.879498 -25.5125,1.43782 -4.25044,1.20067 -7.77497,4.84518 -10.0615,8.62366 -3.41202,5.63878 -5.76156,10.1791 -6.4688,18.6856 4.25464,-6.65272 10.1707,-9.00225 12.6701,-9.29215 -1.73285,2.54233 -2.80188,5.37176 -4.29292,10.5036 4.84424,-6.10747 10.1759,-10.6203 14.0281,-9.92237 -2.15533,1.96113 -4.43344,5.40117 -4.58329,10.5778zm159.518 -473.043c0.00840285,0.2955 0.0116706,0.588666 0.0135379,0.886034 -0.0018673,-0.296434 -0.00513508,-0.591467 -0.0135379,-0.886034zm0.0135379 1.14045c0,0.103168 -0.00093365,0.206337 -0.0018673,0.309505 0.00093365,-0.103168 0.0018673,-0.206337 0.0018673,-0.309505zm-0.0018673 0.412673c-0.00140048,0.0756257 -0.00326778,0.150784 -0.00420143,0.227344 0.00093365,-0.0765593 0.00280095,-0.150784 0.00420143,-0.227344zm-0.0158721 0.715643c-0.0018673,0.0630214 -0.0037346,0.126043 -0.00606873,0.189064 0.00233413,-0.063955 0.00420143,-0.126043 0.00606873,-0.189064zm-0.0317441 0.834683c-0.0074692,0.159187 -0.0168057,0.317908 -0.0261422,0.477095 0.0093365,-0.160121 0.018673,-0.317908 0.0261422,-0.477095zm-0.0798271 1.2889c-0.00513508,0.0751588 -0.0112038,0.150784 -0.0172725,0.225943 -0.0126043,0.154986 -0.0247417,0.309038 -0.0392133,0.464958 0.0144716,-0.154986 0.026609,-0.309972 0.0392133,-0.464958 0.00606873,-0.0751588 0.0121375,-0.150784 0.0172725,-0.225943zm-0.0742252 0.8837c-0.0238081,0.256287 -0.0485498,0.511173 -0.0751588,0.768394 0.026609,-0.256287 0.0513508,-0.512107 0.0751588,-0.768394zm-0.101301 1.01114c-0.0513508,0.473827 -0.110171,0.949055 -0.172258,1.42522 0.0620877,-0.476162 0.120908,-0.95139 0.172258,-1.42522zm-0.192799 1.57787c-0.0102702,0.0742252 -0.0196067,0.148917 -0.0298768,0.224076 0.0102702,-0.0742252 0.0196067,-0.149851 0.0298768,-0.224076zm-0.135379 0.960259c-0.27496,1.86823 -0.619477,3.74861 -0.996672,5.62197 0.375794,-1.8743 0.720778,-3.75141 0.996672,-5.62197zm-1.05876 5.92868c-0.0513508,0.256287 -0.105036,0.511173 -0.157787,0.766527 0.0527512,-0.256287 0.106436,-0.51024 0.157787,-0.766527z"/>
   <path id="_76812088" class="fil7 str0" d="M955.512 520.643c-1.55359,-12.2005 -11.8111,-28.945 -13.3092,-42.0661 -0.773996,-6.7867 -6.74235,-24.829 -5.71627,-31.5849 2.40928,-15.8431 5.89647,-17.555 10.9284,-32.7707 5.27046,-15.9318 11.9759,-31.3861 16.8893,-47.4327 2.76454,-9.03026 6.72508,-18.2449 6.10887,-27.6692 -1.09797,-16.7875 -8.8454,-32.5629 -11.1398,-49.2295 -0.965394,-7.01498 0.361789,-15.0897 2.91579,-21.6938 10.2823,-26.5824 22.8273,-31.4416 30.325,-56.0461 2.77854,51.3774 3.68512,78.9523 3.39709,131.659 -0.066756,12.2719 -0.175059,30.5724 -0.837017,42.8247 -2.20528,40.8178 1.61148,78.4397 -3.57495,118.46 -2.50172,19.3079 -4.38115,36.924 -13.9217,53.8968 -4.4157,7.8576 -18.1558,19.3933 -26.9283,21.9646 -6.43472,1.88411 -14.2018,3.14733 -20.123,0 -2.66464,-1.41635 -5.15562,-3.29952 -7.44493,-5.4866 31.9939,-3.0465 36.9011,-19.7425 32.4308,-54.8258z"/>
   <path id="_76803080" class="fil0 str0" d="M882.628 435.559c-7.46127,5.73308 -21.3694,9.81126 -70.7245,22.6868 17.1456,-10.6973 35.5665,-13.9226 50.6664,-26.602 10.0316,-8.42573 18.3612,-20.9726 21.8796,-33.5923 3.30232,-11.8457 0.180661,-21.073 -1.84863,-33.2039 -1.44342,-8.62179 -6.11447,-19.8531 -7.58684,-28.4698 -4.00396,-23.4257 -6.90061,-37.0477 -15.0112,-54.0345 -2.34346,-4.91007 -8.13956,-9.95598 -13.5622,-10.4205 -7.35996,-0.631148 -14.1976,7.29694 -20.8419,10.525 -6.00711,2.91626 -10.2515,7.07987 -16.8883,7.80205 -6.81565,0.740385 -13.3764,-3.77148 -18.9087,-7.82072 -6.07713,-4.44791 -14.3777,-8.98965 -21.6976,-13.3806 -2.89758,-1.73799 -7.86787,-4.57862 -8.34917,-7.92482 -0.396801,-2.751 -0.53078,-4.99596 -1.34352,-7.70261l-9.21279 -5.93801 7.80718 0.302503c0.640484,0.0238081 -0.36459,-1.23709 -0.559723,-1.8617l-8.53216 -4.77002 7.06773 0.474761c-0.180661,-0.4925 -0.369725,-0.995271 -0.563925,-1.50224l-7.38331 -4.12767 5.8862 0.395401c-0.202602,-0.485498 -0.412207,-0.981266 -0.626946,-1.4831 -0.096166,-0.224076 -0.135379,-0.447218 -0.12791,-0.67643l-6.51454 -3.64217 9.2366 0.620877c0.830015,-0.40287 1.71231,-0.642351 2.43589,-0.614809 4.84751,0.186263 9.6124,2.3514 13.6556,5.03144 6.78857,4.50019 11.9437,11.1095 18.3257,16.1699 4.05951,3.21969 6.70221,11.5866 10.9508,8.62366 6.03278,-4.20376 21.5244,-12.074 21.0305,-15.999 -0.771195,-6.13968 -19.9493,-13.3321 -26.0423,-23.8543 -6.02858,-10.4083 -3.52033,-25.442 -8.09381,-36.5673 -3.46478,-8.42152 -10.0092,-13.0851 -16.2558,-19.7117 -5.64251,-5.98236 -15.5224,-7.50888 -18.8229,-15.0402 -1.8547,-2.69125 -2.99468,-6.40157 -3.34667,-10.8513l-8.60965 -5.38343 7.69655 -0.412207 -0.265157 -1.39814 -7.7661 -3.91713 7.48181 0c-0.0275427,-0.502771 -0.0536849,-1.01208 -0.0760925,-1.52418l-7.87767 -3.97268 7.73716 0c-0.0144716,-0.516309 -0.0308105,-1.04009 -0.0443484,-1.56853l-8.1643 -4.1174 8.0672 0c0.0102702,-7.49021 11.9204,4.24017 18.9918,7.57984 1.62689,0.76746 5.25038,1.5844 6.88007,2.34533 5.69527,2.65623 11.63,5.35635 16.1694,9.70203 6.78484,6.4926 13.4156,13.706 17.2492,22.2792 3.00215,6.71341 -1.14652,15.5429 2.51572,21.9198 3.86438,6.73208 11.2243,11.2407 18.3262,14.374 5.61451,2.47511 13.5837,4.69766 18.3257,0.803406 7.49861,-6.15789 11.0077,-20.1528 13.3475,-29.5701 2.99095,-12.039 0.953257,-20.727 2.4639,-33.0405 1.00274,-8.16991 2.28978,-16.3071 3.59269,-24.4346 0.25442,-1.57694 1.40374,-3.10719 1.07837,-4.67199 -2.0685,-9.97792 -6.48747,-11.4358 -11.8583,-14.733 -3.43163,-2.10678 -10.9405,1.12552 -13.8031,-0.784266 -3.24537,-2.16327 -1.43222,-3.91246 -2.55587,-6.84972 0.998539,0 1.94246,0.0116706 2.8369,0.0261422 1.08117,0.0163389 1.42008,-3.07638 2.13152,-4.08239 0.711441,0.994337 2.23142,4.26585 3.31259,4.3158 6.30587,0.292232 11.7617,0.538716 20.5991,-1.2623 2.55307,-0.52051 0.704439,-9.82667 -1.57787,-11.0857 -5.35962,-2.90178 -8.82019,-3.16087 -15.8174,-2.60022 -0.89257,0.0709574 -1.84162,0.156853 -2.85977,0.250685 -1.01815,0.0942987 -2.10772,0.198401 -3.27244,0.306704 -0.815077,0.0756257 -0.689034,3.17161 -1.28377,4.76582 -0.688567,-0.535915 -1.99101,-3.06471 -2.84623,-4.20469 -0.284763,-0.380462 -1.67077,0.125576 -1.91538,0.153585 0.173659,-2.22442 -1.65956,-8.94904 -0.0742252,-10.3042 6.75356,-1.50224 14.944,-1.20394 21.7232,-4.78309 3.88398,-2.05123 8.69322,-5.18643 12.2924,-7.70215 7.60365,-5.31294 18.6926,-8.42526 22.0528,-16.6218 5.03004,-0.218007 8.58678,12.1328 12.8839,17.0228 6.20924,7.0668 11.8872,11.0848 16.9009,19.0446 4.92594,7.82259 8.5597,18.1301 11.3541,24.1279 5.03144,10.7944 3.11652,20.9801 3.47084,32.8846 0.159187,5.38996 -0.900506,11.1296 -2.08904,16.7492 -0.713776,3.36954 -3.68885,7.70588 -5.17149,10.5769 -4.35828,8.436 -14.2606,18.2673 -17.752,26.4802 -3.46291,8.1405 -18.5367,31.9934 -18.701,40.1404 -0.341716,16.8986 -4.92594,26.7607 -3.539,43.1309 2.03863,24.0616 0.115773,44.9963 3.79809,68.5416 3.39242,21.699 8.02846,49.2799 8.04806,68.5229 0.0308105,29.7844 -13.326,35.3909 -19.5044,40.1395z"/>
   <path id="_76468136" class="fil7 str0" d="M840.178 593.136c2.83269,-2.43122 5.10847,-5.61077 7.84686,-5.62571 -1.44249,2.42329 -1.97794,4.07398 -1.66657,5.95949 1.30011,-0.135846 5.45392,-5.81477 9.64181,-5.88153 27.1291,-0.43228 69.5065,9.26368 49.5185,-26.2468 -2.25897,-4.01236 -0.988269,-9.17731 -1.82622,-15.3441 -0.128844,-0.163389 -0.257221,-0.32351 -0.386064,-0.480363 -0.0583531,-0.0709574 -0.115773,-0.141915 -0.173659,-0.211939 -0.0592868,-0.0728247 -0.119507,-0.144716 -0.179261,-0.216607 -0.148917,-0.178327 -0.296901,-0.35292 -0.445351,-0.523778 -0.170391,-0.1956 -0.338915,-0.388398 -0.508373,-0.575595 -0.0648887,-0.0718911 -0.129311,-0.142848 -0.193732,-0.212872 -0.0807607,-0.0882299 -0.161521,-0.175526 -0.242749,-0.261889 -0.0457489,-0.0485498 -0.0910309,-0.0966328 -0.13678,-0.144716 -0.259088,-0.272626 -0.516309,-0.535915 -0.773996,-0.789868 -0.0508839,-0.0494835 -0.100834,-0.0989669 -0.150784,-0.147984 -0.0611541,-0.05882 -0.120441,-0.11764 -0.181128,-0.175526 -0.142848,-0.13678 -0.28523,-0.270292 -0.427612,-0.401936 -0.145183,-0.133512 -0.290365,-0.26469 -0.434614,-0.393534 -0.0905641,-0.0802939 -0.180661,-0.160121 -0.271225,-0.238548 -0.096166,-0.0835617 -0.192332,-0.16759 -0.289432,-0.249285 -0.0252086,-0.0219408 -0.0513508,-0.0434147 -0.077493,-0.0648887 -0.266557,-0.224543 -0.533114,-0.441617 -0.799671,-0.651221 -0.0382797,-0.0298768 -0.0760925,-0.0597536 -0.114372,-0.0896304 -0.0816944,-0.0630214 -0.163389,-0.12651 -0.24555,-0.188597 -0.661491,-0.504171 -1.32252,-0.967728 -1.98774,-1.40048 -0.0868295,-0.0564858 -0.175059,-0.113438 -0.261889,-0.168524 -0.0616209,-0.0392133 -0.123242,-0.0784266 -0.18533,-0.11764 -0.0429479,-0.0275427 -0.0868295,-0.0555522 -0.129777,-0.082628 -0.152652,-0.0956991 -0.305304,-0.189531 -0.457955,-0.281962 -0.196533,-0.11904 -0.393067,-0.23668 -0.590067,-0.351986 -0.0200735,-0.0121375 -0.0396801,-0.0233413 -0.0602204,-0.0354787 -0.568126,-0.331446 -1.13952,-0.647953 -1.71558,-0.957925 -0.0387465,-0.0210071 -0.0770261,-0.0410806 -0.115306,-0.0620877 -0.170391,-0.0905641 -0.340315,-0.181595 -0.511173,-0.271692 -0.366925,-0.193266 -0.736183,-0.385131 -1.10731,-0.576529 -0.0975664,-0.0499503 -0.195133,-0.100367 -0.293633,-0.150784 -0.400536,-0.20587 -0.804806,-0.412207 -1.21141,-0.620411 -0.434147,-0.223142 -0.871096,-0.448619 -1.31271,-0.679697 -0.0620877,-0.0331446 -0.124175,-0.0653555 -0.18673,-0.0985001 -0.42201,-0.221742 -0.847754,-0.449086 -1.2777,-0.683432 -0.0471493,-0.0261422 -0.0942987,-0.0513508 -0.141448,-0.0770261 -0.276827,-0.152185 -0.555989,-0.307638 -0.836551,-0.466358 -0.0443484,-0.0252086 -0.0896304,-0.0513508 -0.134446,-0.0765593 -0.0966328,-0.056019 -0.194199,-0.112038 -0.291766,-0.168524 -0.0751588,-0.0434147 -0.149851,-0.0863626 -0.224543,-0.129777 -0.45282,-0.265157 -0.910776,-0.54105 -1.37433,-0.830482 -0.045282,-0.0284763 -0.0900972,-0.0564858 -0.134912,-0.0849622 -0.481763,-0.303436 -0.968195,-0.620877 -1.46163,-0.956525 -5.5991,-3.80696 -12.4754,-6.05332 -19.3004,-6.66019 -0.124175,-0.0112038 -0.24695,-0.0219408 -0.371126,-0.0322109 -0.123709,-0.0102702 -0.248351,-0.0191398 -0.372526,-0.0280095 -0.124175,-0.00886968 -0.247417,-0.0168057 -0.371593,-0.0247417 -0.743186,-0.0466825 -1.4845,-0.074692 -2.22209,-0.0821612 6.3857,11.1576 11.8611,13.5024 13.5505,18.0134 2.34626,6.26339 2.28651,11.8004 2.99655,16.7898 0.754856,5.30267 -12.559,6.65132 -25.7006,2.2641 0.599403,1.70438 1.37153,3.94887 1.76973,6.10374 0.415474,1.99288 0.640484,4.00583 0.555522,6.05799 -0.249285,6.05565 -3.26404,13.8068 -8.98405,15.8114 -0.544785,0.190465 -1.0933,0.366458 -1.64369,0.528913 -0.693702,1.15586 -1.36686,2.40508 -1.3846,3.74534zm-10.4681 -2.04469c-0.478029,1.02888 -0.628347,1.94713 -0.329579,2.69591 0.806207,-0.962593 1.74126,-1.92285 2.68098,-2.80235 -0.780998,0.0499503 -1.56526,0.0849622 -2.3514,0.106436zm6.05659 -0.474294c-0.411273,1.22822 -0.702572,2.4527 -0.839351,3.1506 1.47984,-1.36453 2.7454,-2.62122 3.82657,-3.66878 -0.988736,0.209138 -1.98494,0.379996 -2.98721,0.518176z"/>
   <path id="_75491584" class="fil7 str0" d="M811.903 458.247c10.9853,-8.0672 35.5674,-13.9231 50.6669,-26.6025 10.0321,-8.42526 18.3612,-20.9726 21.8792,-33.5927 3.30325,-11.8457 0.181595,-21.0725 -1.84863,-33.2034 -1.44342,-8.62179 -6.11354,-19.8527 -7.58684,-28.4693 -4.00349,-23.4262 -6.7769,-37.1084 -15.0108,-54.0345 -12.6706,-26.0479 -22.3619,-27.7247 -38.7161,-37.9197 -0.770261,-6.13828 -19.9512,-13.3339 -26.0428,-23.8534 -6.02624,-10.4074 26.8812,15.0887 36.6957,22.0332 9.8234,6.95103 31.2049,26.0292 33.1432,28.341 10.3369,12.3176 9.57131,27.6458 16.1568,54.7679 4.137,17.0386 8.56017,38.7876 8.66521,54.7889 0.27636,41.6959 28.2284,47.3944 -45.4893,67.4175 -7.65126,2.07831 -23.0126,8.42666 -32.5125,10.3271z"/>
   <path id="_76798360" class="fil7 str0" d="M827.037 194.307c5.48239,2.7538 13.5837,4.69766 18.3257,0.803406 7.49861,-6.15789 11.0077,-20.1528 13.3475,-29.5701 2.99095,-12.039 0.953257,-20.727 2.4639,-33.0405 1.00274,-8.16991 2.28978,-16.3071 3.59269,-24.4346 0.25442,-1.57694 1.40374,-3.10719 1.07837,-4.67199 0.037346,-6.94169 -10.5572,-14.5369 -13.6644,-15.395 10.9555,2.69918 15.3179,6.73815 19.306,10.1427 8.50742,7.26006 14.6312,5.8876 4.25885,24.1082 -8.07887,14.1919 -6.20737,25.4681 -8.39492,38.8683 -5.59583,34.3004 -24.8155,50.743 -31.5639,51.4936 -7.49021,0.832349 -15.5107,-11.6734 -8.7497,-18.3042z"/>
   <path id="_75427160" class="fil7 str0" d="M827.27 550.332c0.0914977,11.9012 -7.01731,14.7353 -25.0279,13.3759 6.74982,-3.79249 11.0371,-12.1118 12.2177,-19.764 1.72772,-11.2024 -2.91906,-21.7816 -5.34561,-32.8491 11.3607,16.8617 18.0423,24.5657 18.1558,39.2371z"/>
   <path id="_75599656" class="fil8" d="M867.8 54.7082c5.87406,1.21841 10.1815,0.916378 13.5939,-5.80124 -10.3691,-0.501837 -10.1413,4.51373 -13.5939,5.80124z"/>
   <path id="_77368864" class="fil9 str0" d="M940.605 92.1872c0.272626,3.32099 0.554588,6.63919 0.827214,9.95411 0.272626,3.31446 0.554588,6.62985 0.836084,9.94477 -13.938,-0.275894 -27.8989,-0.286164 -41.8061,0.915911 -13.9576,1.20628 -27.8671,3.57868 -41.7967,6.12615 -0.290365,-3.26031 -0.571861,-6.52061 -0.853356,-9.77765 -0.280562,-3.24817 -0.562991,-6.49354 -0.84402,-9.72957 13.9375,-3.19355 27.8442,-5.79283 41.814,-6.8782 13.9147,-1.08117 27.876,-0.876697 41.8229,-0.555522z"/>
   <path id="_75488976" class="fil0 str0" d="M866.266 116.154c0.613408,-1.14979 1.22775,-2.29911 1.85049,-3.44564 -0.0765593,-0.882299 -0.153119,-1.76833 -0.221742,-2.65063 0.580264,-0.922446 1.16846,-1.85003 1.75713,-2.77854 -1.365,0.261422 -2.72112,0.516309 -4.07725,0.788468 -1.36453,0.282429 -2.72112,0.561591 -4.07725,0.846354 0.71611,0.655422 1.44156,1.31318 2.16654,1.98074 0.0686233,0.870162 0.145183,1.74686 0.221742,2.61702 0.793603,0.879965 1.58674,1.759 2.38034,2.64223zm11.2594 -1.92332c0.614342,-1.14045 1.22775,-2.27764 1.85096,-3.41483 -0.0770261,-0.897705 -0.153585,-1.78934 -0.222209,-2.68424 0.580264,-0.912643 1.16846,-1.82249 1.7576,-2.73559 -1.365,0.209138 -2.72112,0.415941 -4.07772,0.621811 -1.36453,0.230612 -2.72066,0.463557 -4.07678,0.694636 0.71611,0.697437 1.44156,1.39487 2.16607,2.09604 0.0686233,0.891636 0.145183,1.78 0.222209,2.67164 0.793136,0.91311 1.58674,1.82902 2.37987,2.75053zm11.2598 -1.56153c0.613875,-1.11945 1.23615,-2.23516 1.85936,-3.3546 -0.0770261,-0.894904 -0.153585,-1.78934 -0.230612,-2.68378 0.580264,-0.889302 1.16893,-1.78094 1.75713,-2.66931 -1.365,0.157787 -2.72112,0.315574 -4.07725,0.470093 -1.36453,0.163856 -2.72066,0.348718 -4.07725,0.527512 0.71611,0.725446 1.44156,1.45276 2.16654,2.17774 0.0686233,0.898171 0.145183,1.78981 0.221742,2.68424 0.793603,0.943453 1.58674,1.89578 2.38034,2.8481zm11.2594 -1.17687c0.614342,-1.0919 1.23662,-2.17774 1.85936,-3.26638 -0.0765593,-0.892103 -0.153119,-1.78047 -0.230612,-2.67211 0.580264,-0.861292 1.1694,-1.72258 1.7576,-2.57501 -1.365,0.0999006 -2.72112,0.206337 -4.07725,0.312306 -1.35613,0.109237 -2.71225,0.233879 -4.06885,0.364124 0.71611,0.746453 1.43315,1.49804 2.15767,2.2473 0.077493,0.891636 0.154052,1.78327 0.230612,2.67491 0.784733,0.97333 1.57834,1.94386 2.37147,2.91486zm11.2598 -0.773529c0.613875,-1.05829 1.23615,-2.11705 1.85936,-3.17815 -0.0765593,-0.883233 -0.153585,-1.7688 -0.221742,-2.64783 0.579797,-0.83375 1.16006,-1.66236 1.74826,-2.48398 -1.35613,0.045282 -2.71225,0.103168 -4.06885,0.160588 -1.36453,0.0634882 -2.72066,0.130244 -4.07678,0.212405 0.71611,0.766994 1.43269,1.53165 2.15767,2.30518 0.0770261,0.8851 0.153585,1.77394 0.230612,2.6595 0.784733,0.991536 1.57787,1.98027 2.37147,2.97228zm11.2682 -0.375794c0.613875,-1.02515 1.22822,-2.05636 1.85049,-3.08151 -0.0765593,-0.879498 -0.153119,-1.7562 -0.221742,-2.63616 0.580264,-0.806207 1.16893,-1.60728 1.75713,-2.40135 -1.36453,0 -2.72112,0.0116706 -4.07678,0.0242749 -1.365,0.0177394 -2.72112,0.0392133 -4.07772,0.0728247 0.71611,0.781932 1.44156,1.56433 2.16654,2.35933 0.0686233,0.879498 0.145183,1.759 0.221742,2.64176 0.793603,1.00974 1.58674,2.01668 2.38034,3.02083zm11.2934 0.0149384c0.614342,-1.00414 1.22868,-2.00175 1.85143,-3.00589 -0.077493,-0.876231 -0.154052,-1.75293 -0.221742,-2.62589 0.57933,-0.786133 1.16846,-1.56807 1.75666,-2.34486 -1.36453,-0.0359455 -2.72066,-0.0602204 -4.07725,-0.0877631 -1.365,-0.0303436 -2.72112,-0.0485498 -4.07725,-0.0606873 0.716576,0.803873 1.44156,1.60401 2.167,2.41115 0.0676896,0.876231 0.144249,1.7562 0.221275,2.63243 0.793136,1.02842 1.58674,2.0531 2.37987,3.08151zm-62.7469 -4.40683c0,-0.0093365 0,-0.0182062 0.00840285,-0.0242749 0,0.00606873 0.00886968,0.0149384 0.0172725,0.0182062 0.614342,-1.15539 1.23662,-2.30518 1.85936,-3.45731 -0.0765593,-0.885567 -0.153119,-1.7744 -0.221742,-2.66277 0.580264,-0.92198 1.16053,-1.84723 1.74873,-2.77528 1.02375,-0.182062 2.04703,-0.364124 3.07965,-0.521444 0.71611,0.709574 1.44156,1.41868 2.16654,2.12872 0.0676896,0.894904 0.145183,1.78654 0.221742,2.68098 0.793136,0.928048 1.58674,1.85283 2.37941,2.78741 0.614342,-1.12552 1.22868,-2.25943 1.85143,-3.38775 -0.0765593,-0.894437 -0.153585,-1.78934 -0.221742,-2.68705 0.580264,-0.898171 1.16846,-1.80148 1.75713,-2.70525 1.03215,-0.13678 2.0643,-0.254886 3.10485,-0.370659 0.716576,0.740851 1.44156,1.48357 2.16654,2.22069 0.0686233,0.894904 0.145183,1.78887 0.221742,2.68378 0.793603,0.955591 1.58674,1.92005 2.37987,2.88451 0.613875,-1.10404 1.23709,-2.20481 1.85983,-3.30606 -0.0765593,-0.894904 -0.154052,-1.78934 -0.230612,-2.68098 0.580264,-0.876697 1.16846,-1.75013 1.7576,-2.62029 1.03168,-0.0821612 2.0643,-0.154519 3.10485,-0.230612 0.71611,0.76746 1.44156,1.52839 2.16654,2.28651 0.0765593,0.894904 0.153585,1.78327 0.230145,2.67491 0.784733,0.980333 1.57834,1.9686 2.37147,2.95734 0.613875,-1.07043 1.23662,-2.14133 1.85936,-3.21176 -0.0765593,-0.888368 -0.153585,-1.77767 -0.221742,-2.66604 0.580264,-0.845887 1.16006,-1.68897 1.74873,-2.52599 1.03215,-0.0396801 2.0727,-0.0788934 3.11372,-0.115773 0.71611,0.782866 1.43315,1.562 2.15767,2.34206 0.0765593,0.882299 0.154052,1.76787 0.230612,2.65623 0.784733,1.00414 1.57787,2.00781 2.37147,3.01149 0.614342,-1.03962 1.23662,-2.07737 1.85936,-3.11466 -0.0765593,-0.885567 -0.153119,-1.7646 -0.221742,-2.64783 0.580264,-0.818811 1.16006,-1.63435 1.74873,-2.44103 1.04896,-0.00606873 2.09838,-0.0093365 3.14733,-0.0182062 0.717043,0.800605 1.43315,1.59514 2.1586,2.39575 0.0765593,0.873897 0.153119,1.7562 0.229678,2.63569 0.784733,1.01908 1.57834,2.04423 2.37147,3.05724 0.614342,-1.00974 1.23709,-2.02275 1.85936,-3.0325 -0.0765593,-0.873897 -0.153119,-1.75339 -0.221742,-2.62963 0.580264,-0.791735 1.16053,-1.58627 1.74873,-2.37474 1.03262,0.0242749 2.07317,0.0513508 3.11372,0.0728247 0.716576,0.812742 1.44156,1.62548 2.16654,2.44103 0.0681565,0.870629 0.145183,1.74686 0.221742,2.62356 0.793136,1.03729 1.58674,2.0713 2.37987,3.11139 0.417808,-0.669894 0.836084,-1.33745 1.25389,-2.00455 0.154052,1.89904 0.315574,3.80089 0.469159,5.69293 0.153119,1.89578 0.315574,3.79389 0.477562,5.68966 -3.77008,-0.121375 -7.53176,-0.194199 -11.2934,-0.23668 -9.75851,0.0877631 -19.5376,0.332846 -29.2751,1.1708 -9.76365,0.839818 -19.5082,2.2655 -29.2583,3.82423 -3.77008,0.664292 -7.53222,1.36826 -11.2934,2.10211 -0.153585,-1.74079 -0.316041,-3.47551 -0.460756,-5.2135 -0.144716,-1.73426 -0.298768,-3.46664 -0.443951,-5.19856 0.316041,0.339849 0.640484,0.67643 0.963994,1.01301 0.614342,-1.16146 1.22868,-2.32619 1.85143,-3.49372 -0.0765593,-0.867828 -0.154052,-1.73519 -0.221742,-2.60255 0.579797,-0.940186 1.16846,-1.88037 1.75713,-2.81729 1.03215,-0.233413 2.06383,-0.467292 3.10485,-0.700238 0.716576,0.661024 1.44156,1.33139 2.16654,2.00408 0.0681565,0.882766 0.145183,1.76553 0.221742,2.64783 0.793603,0.886034 1.58674,1.7716 2.37987,2.65997z"/>
   <g>
    <polygon id="_76333008" class="fil12 str0" points="265.622,313.167 265.622,343.129 288.731,343.129 288.731,290.058 "/>
    <polygon id="_76809080" class="fil12 str0" points="247.24,313.156 265.592,313.156 288.701,290.046 270.35,290.046 "/>
    <polygon id="_76810864" class="fil12 str0" points="722.778,313.167 722.778,343.129 699.669,343.129 699.669,290.058 "/>
    <polygon id="_76811184" class="fil12 str0" points="741.16,313.156 722.808,313.156 699.698,290.046 718.05,290.046 "/>
    <polygon id="_76240464" class="fil12 str0" points="247.24,48.251 324.045,48.251 300.936,71.3603 270.35,71.3603 "/>
    <path id="_76241320" class="fil12 str0" d="M324.045 66.6024c27.0861,0 54.1713,0 81.2626,0l23.1092 23.1092c-42.4979,0 -84.9869,0 -127.481,0l23.1092 -23.1092z"/>
    <polygon id="_76241296" class="fil12 str0" points="428.417,52.143 494.2,30.767 494.2,0.000466825 405.307,29.0333 "/>
    <polygon id="_76242176" class="fil12 str0" points="324.045,48.251 324.045,66.6024 300.936,89.7116 300.936,71.3603 "/>
    <polygon id="_76912496" class="fil12 str0" points="405.307,29.0333 405.307,66.6024 428.417,89.7116 428.417,52.143 "/>
    <polygon id="_76913328" class="fil12 str0" points="741.16,48.251 664.355,48.251 687.464,71.3603 718.05,71.3603 "/>
    <path id="_76913672" class="fil12 str0" d="M664.355 66.6024c-27.0861,0 -54.1708,0 -81.2621,0l-23.1092 23.1092c42.4979,0 84.9869,0 127.481,0l-23.1092 -23.1092z"/>
    <polygon id="_76913648" class="fil12 str0" points="559.983,52.143 494.2,30.767 494.2,0.000466825 583.093,29.0333 "/>
    <path id="_75617984" class="fil12 str0" d="M718.05 71.3603l0 218.698 23.1097 23.1092 0 -264.916 -23.1097 23.1092zm-447.7 0l0 218.698 -23.1092 23.1092 0 -264.916 23.1092 23.1092z"/>
    <polygon id="_75617832" class="fil12 str0" points="664.355,48.251 664.355,66.6024 687.464,89.7116 687.464,71.3603 "/>
    <polygon id="_75433208" class="fil12 str0" points="583.093,29.0333 583.093,66.6024 559.983,89.7116 559.983,52.143 "/>
   </g>
   <path id="_75434040" class="fil2 str0" d="M600.274 273.965l0 49.3345c-10.6721,0 -23.2376,0 -40.1446,0l0 -49.3345 0.188131 0 -0.187197 -7.32449c-0.0471493,-2.79582 0.550854,-5.43571 1.57834,-8.02426 3.27898,-7.25306 9.5223,-11.6506 17.4607,-12.2574l2.06337 0c10.117,0.773996 17.6497,7.93696 18.934,17.9942l0.105969 2.10958c-0.063955,2.49985 -0.00700238,5.00717 -0.00700238,7.50235l0.00840285 0z"/>
   <path id="_75435456" class="fil2 str0" d="M582.754 323.3l0 -56.3024 0.00700238 0c-0.00420143,-0.197467 -0.00700238,-0.396334 -0.00700238,-0.595669 0,-6.79044 2.52506,-13.0076 6.68494,-17.7655 5.81944,2.99188 9.82293,8.63626 10.7272,15.7171l0.105969 2.10958c-0.063955,2.49985 -0.00700238,5.00717 -0.00700238,7.50235l0.00840285 0 0 49.3345c-4.61783,0 -10.0816,0 -17.5195,0z"/>
   <path id="_75363232" class="fil6 str0" d="M596.242 322.836l-4.23037 -0.470093c-14.2377,-2.02695 -26.0913,-6.73162 -26.3205,-19.7406 7.42299,5.70274 10.5493,3.16601 7.50048,-2.66697l-5.62057 -11.4335c1.32111,0.660557 13.6318,9.7123 3.74627,-6.48047 16.0943,15.6424 4.0231,-1.64789 1.41868,-15.5756 0,1.8799 6.50287,4.86525 6.50287,6.74562 1.41028,0 -2.34206,-13.4268 -1.87244,-14.3665 0,5.17009 6.11914,9.82854 7.05933,14.5285l4.60149 -3.47878c0,4.69999 0.939719,8.99619 0.939719,13.6962 4.70046,-2.82009 5.80497,-9.63947 9.09515,-14.3399 0,11.7505 -5.30407,17.5391 -5.30407,28.3494 0.636283,-2.27764 2.82616,0.325377 4.03337,-2.22255 0.582131,2.18568 1.79027,5.47352 1.71278,7.24466l0 19.2705 -3.26217 0.940186z"/>
  </g>
 </g>
</svg>
