<?xml version="1.0" encoding="UTF-8"?>
<!DOCTYPE svg PUBLIC "-//W3C//DTD SVG 1.1//EN" "http://www.w3.org/Graphics/SVG/1.1/DTD/svg11.dtd">
<!-- Creator: CorelDRAW X7 -->
<svg xmlns="http://www.w3.org/2000/svg" xml:space="preserve" width="106.716mm" height="132.6mm" version="1.1" style="shape-rendering:geometricPrecision; text-rendering:geometricPrecision; image-rendering:optimizeQuality; fill-rule:evenodd; clip-rule:evenodd"
viewBox="0 0 11751 14601"
 xmlns:xlink="http://www.w3.org/1999/xlink">
 <defs>
  <style type="text/css">
   <![CDATA[
    .fil1 {fill:none}
    .fil2 {fill:#EBECEC}
    .fil3 {fill:#9D9E9E}
    .fil0 {fill:#2B2A29}
    .fil5 {fill:#E31E24}
    .fil4 {fill:#F9DA0A}
    .fil6 {fill:#008DD2}
   ]]>
  </style>
 </defs>
 <g id="Layer_x0020_1">
  <metadata id="CorelCorpID_0Corel-Layer"/>
  <g id="_635246880">
   <path class="fil0" d="M11751 0l0 11723c0,1608 -952,1653 -2057,1743l-2697 0c-666,0 -970,881 -1113,1135 -160,-254 -464,-1135 -1130,-1135l-2697 0c-1096,-90 -2057,-135 -2057,-1743l0 -11723 11751 0z"/>
   <path class="fil1" d="M1003 13048c1241,-879 1894,-613 4535,-2320 -469,-325 -953,-680 -1451,-1064 -4,-1 -8,-2 -13,-3l-62 88c-17,23 -54,25 -84,3l0 0c-29,-21 -39,-57 -23,-80l33 -45c-7,-2 -14,-3 -21,-5 18,-203 -608,-594 -879,-707 -212,-89 -408,-92 -584,18 -109,-276 -49,-527 180,-753 608,180 1144,480 1601,912 25,3 50,7 75,10 0,1 1,2 1,3l35 -48c17,-23 54,-25 83,-4l0 0c30,21 40,57 24,80l-67 93c3,5 6,10 8,14 611,459 1149,842 1629,1167 480,-325 1019,-708 1629,-1167 3,-4 6,-9 9,-14l-67 -93c-17,-23 -6,-59 23,-80l0 0c29,-21 67,-19 84,4l34 48c1,-1 1,-2 2,-3 25,-3 49,-7 74,-10 458,-432 994,-732 1602,-912 229,226 289,477 180,753 -176,-110 -373,-107 -584,-18 -272,113 -897,504 -880,707 -6,2 -13,3 -20,5l32 45c17,23 6,59 -23,80l0 0c-29,22 -67,20 -83,-3l-63 -88c-4,1 -8,2 -12,3 -498,384 -982,739 -1451,1064 2640,1707 3293,1441 4535,2320 -1333,45 -3036,-681 -5021,-1992 -1985,1311 -3688,2037 -5020,1992zm1808 -6274c-1206,-795 -1539,-1827 -2318,-2505 113,-111 209,-231 288,-360 470,173 948,353 1418,526 -185,-838 290,-1598 1749,-2282 -315,-184 -479,-396 -576,-619 -158,5 -326,-9 -504,-43 91,-197 183,-394 274,-591 1448,-91 2785,762 3988,619 -192,72 -384,144 -576,216 557,192 1064,439 1497,763 -392,-176 -849,-147 -1339,-14 77,-91 154,-182 231,-274 -463,-324 -1007,-525 -1670,-547 338,116 575,256 662,432 -186,137 -384,147 -590,72 -56,384 -242,715 -519,1008 291,158 557,385 778,734 1112,173 2117,541 2966,1195 143,-199 363,-228 662,-86 -293,146 -363,413 -299,562 165,381 512,872 765,1305 80,138 192,179 365,100 412,750 1074,1145 1415,1762 -231,165 -212,395 57,691 -19,331 -38,662 -57,993 -102,-249 -202,-464 -275,-692 -365,-1140 -837,-1723 -1382,-2094 -977,-664 -1931,-276 -2619,-1461 -930,129 -1659,57 -2214,-47 -866,-162 -1095,-465 -1442,-68 -709,-568 -1374,-953 -2031,-1224 188,333 447,610 792,821 -32,233 102,353 403,360 33,249 67,499 101,748z"/>
   <path class="fil2" d="M4414 9074l-8 -4 -7 -3 -8 -2 -7 0 -6 0 -5 2 -3 2 -4 4 -439 613 -2 5 -1 4 0 5 1 6 2 6 4 7 6 6 7 6 7 5 8 3 8 2 7 0 6 -1 4 -2 4 -2 4 -4 439 -612 2 -5 1 -4 0 -5 -1 -6 -2 -7 -4 -6 -6 -7 -7 -6zm-1771 -589c-58,0 -106,47 -106,106 0,58 48,105 106,105 59,0 106,-47 106,-105 0,-59 -47,-106 -106,-106zm1652 643c0,0 -1,-1 -1,-2 -24,-3 -47,-6 -70,-10 -65,-60 -130,-117 -198,-173l-269 394c84,72 167,158 186,263l0 2c4,1 7,1 11,2l341 -476zm-1145 -549l-14 150 -101 96 16 -152 99 -94zm101 66l-12 148 -100 95 14 -150 98 -93zm14 -174l-12 148 -98 93 14 -151 96 -90zm89 238l-10 147 -100 94 12 -149 98 -92zm12 -172l-10 147 -98 92 12 -149 96 -90zm92 235l-8 145 -100 93 11 -146 97 -92zm9 -169l-8 144 -97 91 10 -146 95 -89zm96 231l-6 143 -99 92 9 -144 96 -91zm7 -167l-6 142 -96 91 8 -145 94 -88zm100 228l-4 140 -98 92 6 -142 96 -90zm4 -165l-4 140 -95 90 6 -143 93 -87zm119 346l2 -139 92 -86 0 137 -94 88zm-15 -122l-2 139 -97 91 4 -141 95 -89zm2 -163l-2 139 -95 89 5 -141 92 -87zm125 217l22 -34 -22 21 0 13zm-113 171l95 -144 0 -23 -94 88 -1 79zm-116 92c12,9 24,19 36,29l62 -94 1 -89 -97 91 -2 63zm-36 -28c7,5 13,10 19,15l1 -33 -20 18zm-75 -54c21,14 41,29 61,44l35 -33 4 -140 -98 92 -2 37zm-21 -16c1,2 3,3 4,4l1 -8 -5 4zm-88 -59c25,16 49,33 73,49l21 -19 6 -142 -99 92 -1 20zm-108 -67c27,16 54,33 81,50l11 -11 8 -144 -99 93 -1 12zm-107 -61c28,16 56,31 84,48l7 -6 10 -147 -100 94 -1 11zm-106 -56c28,14 55,29 83,44l7 -7 12 -148 -101 95 -1 16zm-107 -46c27,10 53,21 79,33l13 -11 14 -151 -102 96 -4 33zm-22 -9c2,1 4,2 6,2l1 -8 -7 6zm-37 -126l-38 102c19,5 38,11 57,18l27 -26 16 -152 -62 58zm78 -209l-64 173 51 -49 13 -124zm119 -133c-19,-9 -39,-18 -59,-27l-35 95 -19 171 100 -93 13 -146zm95 44c-26,-12 -52,-25 -78,-37l-11 121 89 -84zm107 54c-28,-15 -56,-29 -84,-43l-12 139 95 -89 1 -7zm102 55c-14,-8 -28,-16 -42,-24 -13,-7 -26,-14 -39,-20l-5 4 -10 146 95 -88 1 -18zm102 60c-25,-15 -50,-30 -76,-45l-10 11 -9 144 94 -88 1 -22zm104 66c-25,-17 -50,-32 -75,-48l-13 12 -6 142 93 -87 1 -19zm105 70c-26,-18 -52,-36 -78,-53l-11 10 -4 141 93 -87 0 -11zm103 74c-27,-20 -55,-40 -82,-59l-4 3 -2 139 88 -83zm92 71c-23,-18 -45,-35 -68,-53 -1,-1 -2,-2 -3,-3l0 127 64 -60 7 -11zm-931 -547c-64,-27 -129,-52 -195,-77 -69,-24 -139,-47 -209,-68 -202,205 -260,432 -174,686 26,-14 52,-26 79,-37 106,-37 211,-42 322,-23 2,1 4,1 6,2l171 -483zm5945 3746l-167 -71c-188,-83 -373,-169 -557,-258 -306,-155 -606,-318 -904,-488 -295,-174 -586,-355 -874,-541 -148,102 -294,201 -438,297 690,454 1402,875 2147,1237 209,97 419,189 631,276l204 79c492,175 989,311 1506,373 142,11 281,20 423,18 -110,-75 -223,-145 -338,-214 -168,-93 -336,-177 -511,-256 -370,-159 -749,-298 -1122,-452zm-2989 -1678c-36,-24 -72,-48 -108,-73 -372,-256 -739,-518 -1104,-783l-414 -308c-2,-3 -4,-6 -5,-9l-279 390c2,0 5,1 7,2l528 400c310,228 622,452 938,670 140,-91 285,-187 437,-289zm1631 -1348l8 -4 8 -3 7 -2 7 0 6 0 5 2 4 2 3 4 439 613 3 5 1 4 0 5 -1 6 -3 6 -4 7 -5 6 -7 6 -8 5 -8 3 -7 2 -7 0 -6 -1 -5 -2 -3 -2 -4 -4 -439 -612 -3 -5 -1 -4 0 -5 1 -6 3 -7 4 -6 5 -7 7 -6zm1771 -589c59,0 106,47 106,106 0,58 -47,105 -106,105 -58,0 -106,-47 -106,-105 0,-59 48,-106 106,-106zm-1651 643c0,0 0,-1 1,-2 23,-3 47,-6 70,-10 64,-60 130,-117 197,-173l270 394c-85,72 -167,158 -186,263l0 2c-4,1 -8,1 -11,2l-341 -476zm1144 -549l15 150 101 96 -16 -152 -100 -94zm-101 66l12 148 101 95 -14 -150 -99 -93zm-14 -174l12 148 99 93 -15 -151 -96 -90zm-88 238l10 147 100 94 -12 -149 -98 -92zm-12 -172l10 147 98 92 -13 -149 -95 -90zm-92 235l8 145 99 93 -10 -146 -97 -92zm-10 -169l8 144 97 91 -10 -146 -95 -89zm-95 231l6 143 98 92 -8 -144 -96 -91zm-8 -167l6 142 97 91 -9 -145 -94 -88zm-99 228l4 140 98 92 -6 -142 -96 -90zm-5 -165l4 140 96 90 -7 -143 -93 -87zm-119 346l-2 -139 -92 -86 0 137 94 88zm16 -122l2 139 97 91 -4 -141 -95 -89zm-3 -163l2 139 95 89 -4 -141 -93 -87zm-124 217l-23 -34 23 21 0 13zm113 171l-96 -144 0 -23 95 88 1 79zm115 92c-11,9 -23,19 -35,29l-63 -94 -1 -89 98 91 1 63zm36 -28c-6,5 -12,10 -19,15l-1 -33 20 18zm75 -54c-20,14 -41,29 -61,44l-34 -33 -4 -140 98 92 1 37zm22 -16c-2,2 -3,3 -5,4l0 -8 5 4zm88 -59c-25,16 -49,33 -74,49l-20 -19 -6 -142 98 92 2 20zm108 -67c-28,16 -55,33 -81,50l-12 -11 -8 -144 100 93 1 12zm107 -61c-29,16 -57,31 -85,48l-6 -6 -10 -147 100 94 1 11zm106 -56c-28,14 -56,29 -84,44l-6 -7 -13 -148 101 95 2 16zm106 -46c-26,10 -52,21 -78,33l-13 -11 -14 -151 102 96 3 33zm23 -9c-2,1 -4,2 -6,2l-1 -8 7 6zm36 -126l38 102c-19,5 -38,11 -56,18l-28 -26 -16 -152 62 58zm-78 -209l65 173 -52 -49 -13 -124zm-119 -133c20,-9 40,-18 59,-27l36 95 18 171 -99 -93 -14 -146zm-95 44c26,-12 52,-25 79,-37l11 121 -90 -84zm-106 54c28,-15 56,-29 84,-43l11 139 -95 -89 0 -7zm-102 55c14,-8 27,-16 41,-24 13,-7 26,-14 40,-20l4 4 10 146 -94 -88 -1 -18zm-103 60c25,-15 51,-30 76,-45l11 11 8 144 -94 -88 -1 -22zm-103 66c25,-17 50,-32 75,-48l12 12 6 142 -93 -87 0 -19zm-105 70c26,-18 52,-36 78,-53l10 10 4 141 -92 -87 0 -11zm-104 74c28,-20 55,-40 83,-59l4 3 2 139 -89 -83zm-91 71c22,-18 45,-35 67,-53 2,-1 3,-2 4,-3l0 127 -64 -60 -7 -11zm931 -547c64,-27 129,-52 195,-77 69,-24 138,-47 208,-68 203,205 261,432 174,686 -25,-14 -51,-26 -78,-37 -107,-37 -211,-42 -322,-23 -2,1 -5,1 -7,2l-170 -483zm-5945 3746l167 -71c187,-83 372,-169 556,-258 307,-155 607,-318 905,-488 499,-295 987,-609 1469,-934 371,-256 738,-518 1104,-783l414 -308c1,-3 3,-6 5,-9l279 390c-3,0 -5,1 -8,2l-528 400c-1131,834 -2303,1619 -3570,2235 -209,97 -419,189 -632,276l-204 79c-491,175 -988,311 -1506,373 -141,11 -281,20 -423,18 111,-75 224,-145 339,-214 167,-93 336,-177 510,-256 371,-159 750,-298 1123,-452zm-2265 -8159c481,177 960,358 1441,534 -121,-617 57,-1099 563,-1570 365,-316 774,-541 1207,-750 -277,-165 -482,-350 -614,-648 -163,5 -323,-8 -483,-36l0 0c23,-50 46,-99 69,-149l373 -3 -337 -75c49,-106 99,-212 148,-319 578,-24 1127,83 1685,227 528,141 1050,303 1592,381 170,19 344,33 515,26 -158,59 -316,118 -473,177 492,172 972,377 1403,673 -354,-104 -742,-61 -1096,29 65,-77 131,-155 196,-233 -611,-424 -1150,-562 -1884,-575 267,101 645,200 804,457 -405,270 -807,-49 -1047,-367 88,185 235,342 461,462 -72,391 -266,715 -530,1000 338,186 594,425 803,751 412,67 813,157 1211,283 348,115 681,255 1006,425 269,148 525,315 770,500 159,-213 363,-223 598,-121 -59,34 -110,77 -157,127 -78,91 -129,200 -131,321 3,101 50,182 95,271 147,286 323,555 493,827 69,110 137,220 202,332 56,94 131,155 244,152 47,-3 90,-15 133,-32 123,217 271,412 434,601 201,227 419,439 621,664 126,144 239,294 337,457l-3 2c-84,69 -139,147 -149,257 -2,99 32,183 80,267 39,62 82,119 130,174 -117,54 -212,134 -291,232 -30,-83 -59,-165 -89,-248 -90,-237 -190,-466 -309,-690 -195,-348 -424,-655 -725,-918 -219,-183 -450,-325 -712,-439 -233,-92 -470,-158 -711,-222 -349,-93 -666,-195 -960,-412 -205,-171 -351,-360 -490,-587 -250,33 -499,57 -751,67 -364,11 -723,-5 -1083,-50 -207,-28 -411,-63 -614,-110 -174,-43 -345,-96 -517,-148 -94,-28 -188,-54 -286,-65 -75,-5 -138,2 -208,26 -84,37 -151,90 -212,157 -267,-211 -542,-409 -829,-592 -145,-92 -293,-179 -443,-262 -266,-144 -539,-271 -818,-387 193,366 445,662 825,887 -36,263 165,362 381,371 -124,137 -244,235 -362,293 -78,-70 -155,-143 -230,-219 -362,-381 -658,-809 -974,-1228 -173,-224 -352,-438 -564,-628 99,-98 188,-209 262,-327zm4248 -2195c254,-13 494,84 718,308 -256,86 -472,53 -622,-174 177,142 349,207 512,145 -160,-134 -370,-220 -608,-279zm-795 -459c-33,-45 -65,-89 -98,-133 321,20 568,108 794,215 -132,-29 -264,-59 -410,-74 17,19 27,44 27,72 0,61 -50,111 -111,111 -61,0 -111,-50 -111,-111 0,-32 14,-62 36,-82 -41,-1 -83,-1 -127,2zm202 10c39,0 70,31 70,70 0,39 -31,70 -70,70 -39,0 -71,-31 -71,-70 0,-39 32,-70 71,-70zm-1240 -291l-30 103 149 -20 -119 -83zm-518 5059c30,218 59,437 88,655 -160,-109 -312,-229 -457,-357 154,-79 274,-180 369,-298zm8819 3403c-17,283 -33,566 -50,849 -85,-203 -161,-409 -236,-615 76,-99 167,-183 286,-234z"/>
   <path class="fil3" d="M8990 12100l-167 -71c-188,-83 -373,-169 -557,-258 -306,-155 -606,-318 -904,-488 -295,-174 -586,-355 -874,-541 -21,14 -41,28 -61,42 1276,834 2444,1422 3463,1675 -299,-122 -602,-236 -900,-359zm-2989 -1678c-36,-24 -72,-48 -108,-73 -372,-256 -739,-518 -1104,-783l-414 -308c-2,-3 -4,-6 -5,-9l-116 161c528,409 1049,788 1563,1135 30,-20 59,-40 89,-60 -508,-344 -1023,-715 -1545,-1110 10,-16 20,-32 30,-49 531,410 1050,790 1552,1135 19,-13 39,-26 58,-39zm306 444c1159,742 2281,1310 3356,1675 -1045,-409 -2139,-1000 -3271,-1733 -28,19 -57,39 -85,58zm-3262 -2512c-64,-27 -129,-52 -195,-77 -69,-24 -139,-47 -209,-68 -202,205 -260,432 -174,686 26,-14 52,-26 79,-37 106,-37 211,-42 322,-23 2,1 4,1 6,2l17 -47c-146,-32 -281,-25 -404,25 -24,-222 10,-419 174,-562 126,41 250,88 370,139l14 -38zm48 65c23,10 46,21 69,31l4 -43c-19,-9 -39,-18 -59,-27l-14 39zm86 39c16,8 33,16 50,24l32 -31c-26,-12 -52,-25 -78,-37l-4 44zm66 32c6,3 12,6 18,9l2 -28 -20 19zm35 17c20,10 40,21 60,31l27 -26 1 -7c-28,-15 -56,-29 -84,-43l-4 45zm76 39c3,2 6,3 9,5l1 -14 -10 9zm26 14c22,12 44,24 67,37l20 -19 1 -18c-14,-8 -28,-16 -42,-24 -13,-7 -26,-14 -39,-20l-5 4 -2 40zm82 45c1,1 2,1 3,2l0 -4 -3 2zm20 12c23,13 47,27 70,41l17 -16 1 -22c-25,-15 -50,-30 -76,-45l-10 11 -2 31zm86 50c0,0 0,0 0,0l0 0 0 0zm17 11c24,14 47,29 70,44l18 -17 1 -19c-25,-17 -50,-32 -75,-48l-13 12 -1 28zm85 53c1,1 2,1 2,2l0 -3 -2 1zm19 13c23,14 45,29 67,44l23 -21 0 -11c-26,-18 -52,-36 -78,-53l-11 10 -1 31zm81 54c3,2 5,4 8,5l0 -12 -8 7zm25 17c20,14 39,28 59,42l28 -27c-27,-20 -55,-40 -82,-59l-4 3 -1 41zm73 53c6,4 11,8 17,12l0 -29 -17 17zm35 25c15,12 30,24 46,36l18 -17 7 -11c-23,-18 -45,-35 -68,-53 -1,-1 -2,-2 -3,-3l0 48zm101 79c68,55 135,112 200,172 -79,109 -159,218 -238,327 -64,-58 -127,-114 -189,-166l-22 32c84,72 167,158 186,263l0 2c4,1 7,1 11,2l341 -476c0,0 -1,-1 -1,-2 -24,-3 -47,-6 -70,-10 -65,-60 -130,-117 -198,-173l-20 29zm-272 295c-19,-16 -38,-31 -56,-46l-2 50c12,9 24,19 36,29l22 -33zm-78 -62c-27,-21 -53,-42 -80,-62l-9 9 -2 37c21,14 41,29 61,44l30 -28zm-105 -81c-24,-17 -48,-34 -72,-50l-22 20 -1 20c25,16 49,33 73,49l21 -19 1 -20zm-86 -61c-2,-1 -4,-2 -6,-3l-1 9 7 -6zm-23 -15c-21,-14 -42,-28 -63,-41l-30 28 -1 12c27,16 54,33 81,50l11 -11 2 -38zm-78 -50c-4,-3 -8,-5 -12,-8l-2 20 14 -12zm-29 -18c-20,-12 -41,-24 -61,-35l-32 30 -1 11c28,16 56,31 84,48l7 -6 3 -48zm-77 -44c-4,-3 -8,-5 -12,-7l-2 21 14 -14zm-29 -16c-22,-12 -43,-22 -65,-33l-28 27 -1 16c28,14 55,29 83,44l7 -7 4 -47zm-82 -41c-2,-1 -5,-2 -7,-3l-1 12 8 -9zm-24 -11c-26,-11 -51,-21 -76,-31l-15 14 -4 33c27,10 53,21 79,33l13 -11 3 -38zm-106 -42c-23,-8 -46,-15 -69,-21l-17 46c19,5 38,11 57,18l27 -26 2 -17zm-11 49c2,1 4,2 6,2l1 -8 -7 6zm538 298c1,2 3,3 4,4l1 -8 -5 4zm96 70c7,5 13,10 19,15l1 -33 -20 18zm-997 -700c-26,0 -47,22 -47,48 0,26 21,47 47,47 26,0 48,-21 48,-47 0,-26 -22,-48 -48,-48zm414 3557l167 -71c187,-83 372,-169 556,-258 307,-155 607,-318 905,-488 499,-295 987,-609 1469,-934 371,-256 738,-518 1104,-783l414 -308c1,-3 3,-6 5,-9l116 161c-1898,1470 -3711,2555 -5410,3131 1661,-649 3442,-1757 5302,-3166 -10,-16 -20,-32 -29,-49 -2081,1605 -3960,2751 -5500,3133 299,-122 602,-236 901,-359zm5945 -3746c64,-27 129,-52 195,-77 69,-24 138,-47 208,-68 203,205 261,432 174,686 -25,-14 -51,-26 -78,-37 -107,-37 -211,-42 -322,-23 -2,1 -5,1 -7,2l-16 -47c145,-32 280,-25 403,25 25,-222 -10,-419 -173,-562 -126,41 -250,88 -371,139l-13 -38zm-48 65c-23,10 -47,21 -70,31l-4 -43c20,-9 40,-18 59,-27l15 39zm-86 39c-17,8 -33,16 -50,24l-33 -31c26,-12 52,-25 79,-37l4 44zm-67 32c-6,3 -12,6 -18,9l-2 -28 20 19zm-34 17c-20,10 -40,21 -60,31l-28 -26 0 -7c28,-15 56,-29 84,-43l4 45zm-77 39c-2,2 -5,3 -8,5l-1 -14 9 9zm-25 14c-22,12 -45,24 -67,37l-20 -19 -1 -18c14,-8 27,-16 41,-24 13,-7 26,-14 40,-20l4 4 3 40zm-83 45c-1,1 -2,1 -2,2l-1 -4 3 2zm-19 12c-24,13 -47,27 -71,41l-17 -16 -1 -22c25,-15 51,-30 76,-45l11 11 2 31zm-86 50c0,0 0,0 -1,0l0 0 1 0zm-17 11c-24,14 -48,29 -71,44l-18 -17 0 -19c25,-17 50,-32 75,-48l12 12 2 28zm-86 53c-1,1 -1,1 -2,2l0 -3 2 1zm-19 13c-22,14 -44,29 -66,44l-23 -21 0 -11c26,-18 52,-36 78,-53l10 10 1 31zm-81 54c-2,2 -5,4 -7,5l-1 -12 8 7zm-25 17c-19,14 -39,28 -58,42l-29 -27c28,-20 55,-40 83,-59l4 3 0 41zm-72 53c-6,4 -12,8 -18,12l0 -29 18 17zm-35 25c-15,12 -31,24 -46,36l-18 -17 -7 -11c22,-18 45,-35 67,-53 2,-1 3,-2 4,-3l0 48zm-102 79c-68,55 -134,112 -200,172 80,109 159,218 239,327 64,-58 126,-114 189,-166l22 32c-85,72 -167,158 -186,263l0 2c-4,1 -8,1 -11,2l-341 -476c0,0 0,-1 1,-2 23,-3 47,-6 70,-10 64,-60 130,-117 197,-173l20 29zm273 295c19,-16 37,-31 56,-46l1 50c-11,9 -23,19 -35,29l-22 -33zm77 -62c27,-21 54,-42 80,-62l10 9 1 37c-20,14 -41,29 -61,44l-30 -28zm106 -81c24,-17 48,-34 71,-50l22 20 2 20c-25,16 -49,33 -74,49l-20 -19 -1 -20zm86 -61c2,-1 4,-2 6,-3l0 9 -6 -6zm22 -15c22,-14 43,-28 64,-41l30 28 1 12c-28,16 -55,33 -81,50l-12 -11 -2 -38zm79 -50c4,-3 8,-5 12,-8l1 20 -13 -12zm28 -18c21,-12 41,-24 61,-35l33 30 1 11c-29,16 -57,31 -85,48l-6 -6 -4 -48zm77 -44c4,-3 9,-5 13,-7l2 21 -15 -14zm30 -16c21,-12 43,-22 64,-33l28 27 2 16c-28,14 -56,29 -84,44l-6 -7 -4 -47zm81 -41c3,-1 5,-2 8,-3l1 12 -9 -9zm25 -11c25,-11 51,-21 76,-31l15 14 3 33c-26,10 -52,21 -78,33l-13 -11 -3 -38zm105 -42c24,-8 46,-15 69,-21l17 46c-19,5 -38,11 -56,18l-28 -26 -2 -17zm12 49c-2,1 -4,2 -6,2l-1 -8 7 6zm-538 298c-2,2 -3,3 -5,4l0 -8 5 4zm-97 70c-6,5 -12,10 -19,15l-1 -33 20 18zm997 -700c26,0 48,22 48,48 0,26 -22,47 -48,47 -26,0 -47,-21 -47,-47 0,-26 21,-48 47,-48zm-4411 -6300c-251,493 -535,773 -842,907 459,242 756,595 856,1083 286,5 562,16 772,78 -49,40 -99,80 -148,120 346,-9 623,21 800,107 -43,35 -85,70 -128,106 1263,140 2219,534 2500,1487 33,-31 66,-61 99,-92 156,215 312,430 468,644 -151,-255 -302,-510 -453,-764 -26,28 -52,56 -78,84 -253,-766 -994,-1256 -2380,-1380 54,-38 109,-76 163,-114 -223,-104 -492,-155 -828,-127 44,-36 89,-71 134,-106 -261,-103 -551,-117 -850,-107 -40,-363 -288,-698 -743,-1005 350,-177 554,-499 658,-921zm-1444 3513c179,-111 330,-222 453,-333 752,411 1606,497 2528,361 -17,45 -33,90 -50,135 307,45 631,-59 956,-185 -27,526 293,894 850,1155 -550,-239 -968,-543 -913,-1084 -330,131 -664,224 -1013,184 26,-56 52,-113 78,-170 -895,173 -1730,89 -2493,-304 -111,123 -248,193 -396,241zm-1050 -1138c-287,-509 -109,-879 281,-1186 103,-490 596,-882 1357,-1207 -680,385 -1224,791 -1282,1268 -375,205 -530,555 -356,1125zm191 1447c30,218 59,437 88,655 -160,-109 -312,-229 -457,-357 154,-79 274,-180 369,-298zm-289 287c108,-58 196,-131 268,-214 20,154 39,309 59,463 -123,-77 -232,-160 -327,-249zm9108 3116c-17,283 -33,566 -50,849 -85,-203 -161,-409 -236,-615 76,-99 167,-183 286,-234zm-223 220c59,-64 122,-120 190,-167 -16,188 -32,376 -47,564 -48,-133 -96,-265 -143,-397zm-10493 -5747c481,177 960,358 1441,534 -121,-617 57,-1099 563,-1570 365,-316 774,-541 1207,-750 -277,-165 -482,-350 -614,-648 -163,5 -323,-8 -483,-36l0 0c23,-50 46,-99 69,-149l60 -1c-15,35 -30,70 -45,105 140,11 280,22 421,33 186,304 413,565 787,674 -1296,626 -2171,1372 -1882,2448 -498,-178 -996,-356 -1494,-534 -69,62 -137,123 -205,184 630,572 721,1094 1688,2055 105,-38 189,-107 253,-205 -246,-67 -338,-200 -323,-378 -429,-265 -672,-588 -809,-944 764,236 1454,644 2087,1182 470,-489 1407,477 3754,91 533,1126 1269,919 2174,1324 738,330 1429,947 1790,2236 63,-59 126,-119 189,-178 -248,-308 -232,-525 -38,-680 -394,-560 -966,-1037 -1353,-1661 -97,62 -230,62 -317,-46 -276,-342 -768,-1181 -874,-1500 -61,-184 3,-360 225,-498 -187,-69 -344,3 -480,173 -812,-579 -1839,-967 -3101,-1144 -123,-385 -446,-665 -842,-906 327,-271 506,-619 608,-1008 22,13 44,26 67,38 -72,391 -266,715 -530,1000 338,186 594,425 803,751 412,67 813,157 1211,283 348,115 681,255 1006,425 269,148 525,315 770,500 159,-213 363,-223 598,-121 -59,34 -110,77 -157,127 -78,91 -129,200 -131,321 3,101 50,182 95,271 147,286 323,555 493,827 69,110 137,220 202,332 56,94 131,155 244,152 47,-3 90,-15 133,-32 123,217 271,412 434,601 201,227 419,439 621,664 126,144 239,294 337,457l-3 2c-84,69 -139,147 -149,257 -2,99 32,183 80,267 39,62 82,119 130,174 -117,54 -212,134 -291,232 -30,-83 -59,-165 -89,-248 -90,-237 -190,-466 -309,-690 -195,-348 -424,-655 -725,-918 -219,-183 -450,-325 -712,-439 -233,-92 -470,-158 -711,-222 -349,-93 -666,-195 -960,-412 -205,-171 -351,-360 -490,-587 -250,33 -499,57 -751,67 -364,11 -723,-5 -1083,-50 -207,-28 -411,-63 -614,-110 -174,-43 -345,-96 -517,-148 -94,-28 -188,-54 -286,-65 -75,-5 -138,2 -208,26 -84,37 -151,90 -212,157 -267,-211 -542,-409 -829,-592 -145,-92 -293,-179 -443,-262 -266,-144 -539,-271 -818,-387 193,366 445,662 825,887 -36,263 165,362 381,371 -124,137 -244,235 -362,293 -78,-70 -155,-143 -230,-219 -362,-381 -658,-809 -974,-1228 -173,-224 -352,-438 -564,-628 99,-98 188,-209 262,-327zm2271 -2686l-52 -11c49,-106 99,-212 148,-319 578,-24 1127,83 1685,227 528,141 1050,303 1592,381 170,19 344,33 515,26 -158,59 -316,118 -473,177 492,172 972,377 1403,673 -354,-104 -742,-61 -1096,29 65,-77 131,-155 196,-233 -611,-424 -1150,-562 -1884,-575 267,101 645,200 804,457 -223,149 -446,119 -640,8 0,0 0,0 0,0 260,89 438,62 561,-43 -161,-177 -455,-287 -817,-398 403,-180 1327,66 2057,543 -27,38 -54,76 -81,114 209,-21 411,-27 610,-27 -353,-197 -780,-385 -1225,-572 114,-41 227,-83 340,-124 -1101,-29 -2137,-655 -3522,-615 -40,94 -81,188 -121,282z"/>
   <path class="fil4" d="M11615 12461l-33 94 -36 88 -41 81 -45 74 -48 68 -53 62 -55 57 -60 52 -63 47 -66 43 -70 38 -73 34 -76 31 -79 28 -82 24 -84 22 -87 18 -90 17 -92 15 -93 12 -96 12 -11 1 0 -399c302,54 590,77 862,68 -311,-220 -584,-368 -862,-494l0 -1598 -3314 0c-116,-72 -235,-148 -359,-228 269,-187 544,-383 823,-589l2850 0 0 -2203c394,375 739,923 1021,1803 73,228 173,443 275,692 19,-331 38,-662 57,-993 -269,-296 -288,-526 -57,-691 -310,-560 -884,-937 -1296,-1564l0 -7140 1526 0 0 11680 -3 144 -8 136 -13 127 -19 118 -23 110 -27 103zm-6437 -1505l-5135 0 0 -817 4672 0c279,206 553,402 823,589 -124,80 -244,156 -360,228zm455 -817l781 0c-135,93 -265,183 -391,268 -126,-85 -256,-175 -390,-268z"/>
   <path class="fil5" d="M43 10139l0 -10096 10139 0 0 7140c-41,-64 -81,-129 -119,-198 -173,79 -285,38 -365,-100 -253,-433 -600,-924 -765,-1305 -64,-149 6,-416 299,-562 -299,-142 -519,-113 -662,86 -849,-654 -1854,-1022 -2966,-1195 -221,-349 -487,-576 -778,-734 277,-293 463,-624 519,-1008 206,75 404,65 590,-72 -87,-176 -324,-316 -662,-432 663,22 1207,223 1670,547 -77,92 -154,183 -231,274 490,-133 947,-162 1339,14 -433,-324 -940,-571 -1497,-763 192,-72 384,-144 576,-216 -1203,143 -2540,-710 -3988,-619 -91,197 -183,394 -274,591 178,34 346,48 504,43 97,223 261,435 576,619 -1459,684 -1934,1444 -1749,2282 -470,-173 -948,-353 -1418,-526 -79,129 -175,249 -288,360 779,678 1112,1710 2318,2505 -34,-249 -68,-499 -101,-748 -301,-7 -435,-127 -403,-360 -345,-211 -604,-488 -792,-821 657,271 1322,656 2031,1224 347,-397 576,-94 1442,68 555,104 1284,176 2214,47 688,1185 1642,797 2619,1461 124,85 245,180 361,291l0 2203 -2850 0c206,-153 416,-311 628,-475 4,-1 8,-2 12,-3l63 88c16,23 54,25 83,3l0 0c29,-21 40,-57 23,-80l-32 -45c7,-2 14,-3 20,-5 -17,-203 608,-594 880,-707 211,-89 408,-92 584,18 109,-276 49,-527 -180,-753 -608,180 -1144,480 -1602,912 -25,3 -49,7 -74,10 -1,1 -1,2 -2,3l-34 -48c-17,-23 -55,-25 -84,-4l0 0c-29,21 -40,57 -23,80l67 93c-3,5 -6,10 -9,14 -450,338 -861,636 -1238,899l-781 0c-377,-263 -788,-561 -1239,-899 -2,-4 -5,-9 -8,-14l67 -93c16,-23 6,-59 -24,-80l0 0c-29,-21 -66,-19 -83,4l-35 48c0,-1 -1,-2 -1,-3 -25,-3 -50,-7 -75,-10 -457,-432 -993,-732 -1601,-912 -229,226 -289,477 -180,753 176,-110 372,-107 584,-18 271,113 897,504 879,707 7,2 14,3 21,5l-33 45c-16,23 -6,59 23,80l0 0c30,22 67,20 84,-3l62 -88c5,1 9,2 13,3 212,164 421,322 628,475l-4672 0z"/>
   <path class="fil6" d="M10182 13379l-87 9 -99 9 -100 9 -102 8 -101 9 -2697 0 -64 2 -63 8 -61 13 -58 17 -57 22 -54 25 -52 29 -50 33 -47 35 -46 38 -44 41 -42 42 -40 45 -38 45 -36 47 -35 48 -33 49 -32 49 -30 49 -28 49 -27 48 -26 48 -24 47 -23 45 -22 44 -20 42 -19 40 -18 38 -17 35 -8 15 -9 -17 -18 -34 -19 -38 -20 -39 -21 -42 -23 -44 -24 -46 -25 -46 -26 -48 -28 -48 -29 -49 -30 -49 -32 -49 -34 -49 -35 -48 -37 -47 -38 -46 -40 -44 -42 -42 -44 -41 -46 -38 -48 -35 -50 -33 -52 -29 -54 -25 -56 -22 -59 -17 -61 -13 -63 -8 -64 -2 -2696 0 -101 -9 -101 -8 -100 -9 -99 -9 -97 -10 -95 -12 -94 -12 -91 -15 -90 -17 -87 -18 -84 -22 -82 -24 -79 -28 -76 -31 -74 -34 -69 -38 -67 -43 -63 -47 -60 -52 -56 -57 -53 -62 -48 -68 -45 -74 -41 -81 -37 -88 -33 -94 -28 -103 -23 -110 -18 -118 -14 -127 -8 -136 -3 -144 0 -767 5135 0c-2343,1456 -2992,1255 -4175,2092 1332,45 3035,-681 5020,-1992 1580,1043 2981,1716 4159,1924l0 399zm-3314 -2423l3314 0 0 1598c-779,-352 -1585,-524 -3314,-1598z"/>
  </g>
 </g>
</svg>
