<?xml version="1.0" encoding="UTF-8"?>
<!DOCTYPE svg PUBLIC "-//W3C//DTD SVG 1.1//EN" "http://www.w3.org/Graphics/SVG/1.1/DTD/svg11.dtd">
<!-- Creator: CorelDRAW 2018 (64-Bit) -->
<svg xmlns="http://www.w3.org/2000/svg" xml:space="preserve" width="183mm" height="212.2mm" version="1.1" style="shape-rendering:geometricPrecision; text-rendering:geometricPrecision; image-rendering:optimizeQuality; fill-rule:evenodd; clip-rule:evenodd"
viewBox="0 0 18300 21220"
 xmlns:xlink="http://www.w3.org/1999/xlink">
 <defs>
  <style type="text/css">
   <![CDATA[
    .fil1 {fill:#1F62BD}
    .fil0 {fill:black;fill-rule:nonzero}
    .fil2 {fill:white;fill-rule:nonzero}
   ]]>
  </style>
 </defs>
 <g id="Layer_x0020_1">
  <metadata id="CorelCorpID_0Corel-Layer"/>
  <g id="_1407859764352">
   <path class="fil0" d="M9038.49 21220c-63.06,-112.66 -117.58,-212.86 -174.71,-311.53 -102.32,-176.72 -221.49,-339.11 -396.07,-452.88 -146.36,-95.38 -305.89,-146.23 -481.45,-146.21 -1866.57,0.2 -3733.14,1.13 -5599.71,-0.48 -570.81,-0.5 -1065.61,-202.19 -1487.8,-584.14 -388.74,-351.68 -641.17,-783.12 -744.28,-1297.73 -25.75,-128.54 -43.06,-261.28 -43.1,-392.1 -2.08,-5937.74 -1.81,-11875.47 -1.81,-17813.21 0,-37.66 0,-75.32 0,-110.45 75.23,-19.76 17979.33,-22.67 18079.75,-3.34 0,38.29 0,78.73 0,119.18 0,3906.56 0,7813.12 0,11719.66 0,2095.85 4,4191.71 -2.91,6287.53 -1.66,502.05 -172.04,955.16 -501.65,1339.99 -307.37,358.86 -703.76,568.43 -1160.12,671.44 -209.73,47.33 -422.88,63.92 -637.66,63.9 -1940.05,-0.22 -3880.11,-0.16 -5820.15,-0.09 -213.3,0.01 -404.45,63.67 -566.66,204.14 -103.61,89.71 -173.39,205.56 -238.99,323.99 -54.01,97.49 -108.11,194.94 -163.17,291.83 -15.81,27.82 -35.11,53.65 -59.51,90.5z"/>
   <path class="fil1" d="M9015.05 20681.36l0 0c11.1,-10.44 14.05,-12.05 15.24,-14.52 12.81,-26.44 25.35,-53 37.94,-79.55 128.57,-271.09 334.6,-443.37 635.45,-487.98 112.92,-16.74 227.76,-28.79 341.74,-28.89 1890.23,-1.75 3780.48,-1.6 5670.73,-0.75 212.71,0.09 423.15,-18.24 628.61,-72.31 774.56,-203.86 1284.75,-681.58 1498.34,-1460.88 65.72,-239.81 80.29,-485.77 80.25,-733.78 -0.8,-5758.93 -0.61,-11517.85 -0.62,-17276.79 0,-20.58 1.08,-41.23 -0.38,-61.71 -1.37,-19.4 -5.42,-38.6 -8.15,-56.95 -5848.72,0 -11691.66,0 -17543.7,0 0,39.2 0,73.77 0,108.34 0,5773.64 0.24,11547.26 -0.67,17320.9 -0.05,298.62 57.48,583.37 175.4,856.99 329.23,763.97 1135.9,1387.47 2080.31,1379.84 1778.43,-14.36 3557.05,-4.46 5335.59,-3.37 108.44,0.07 217.85,4.15 325.14,18.66 313.53,42.41 547.26,199.94 681.67,492.59 14.45,31.48 29.47,62.69 47.11,100.16z"/>
   <path class="fil0" d="M14476.68 3299.97c-59.52,-33.01 -108.98,-80.27 -151.95,-134.94 -31.09,-39.55 -61.75,-70.13 -120.19,-62.17 -7.91,-133 -15.67,-261.34 -23.12,-389.71 -2.32,-39.95 10.5,-68.48 55.17,-75.37 42,-6.48 78.04,-1.94 90.23,45.94 15.47,60.81 59.27,79.61 115.31,91.48 114.85,24.33 229.14,51.94 342.36,82.93 42.75,11.7 80.81,9 119.43,-7.45 48.62,-20.71 98.1,-40.11 144.58,-64.98 154.44,-82.64 315.32,-80.28 479.78,-41.38 17.06,4.03 34.22,7.65 49.82,11.13 182.99,-137.1 329,-154.22 455.99,-54.67 132.84,104.12 152.75,232.98 64.72,441.49 222.85,139.06 331.24,359.3 417.98,604 -62.6,-5.88 -116.56,-10.94 -184.55,-17.32 16.33,27.19 24.95,43.48 35.35,58.53 68.33,98.89 143.86,193.58 203.82,297.28 66.8,115.51 75.51,238.59 43.08,353.81 -29.56,-24.02 -57.27,-46.54 -98.04,-79.68 3.32,32.29 3.54,50.38 7.21,67.73 50.63,239.48 61.58,479.45 -16.59,714.24 -40.65,122.11 -99.94,238.08 -151.92,356.35 -73.27,166.73 -146.72,333.39 -221.8,499.31 -32.99,72.91 -38.59,147.88 -21.13,223.92 17.69,77.03 50.05,94.59 126.47,77.68 34.12,-7.54 68.34,-14.64 106.89,-22.88 7.02,18.09 15.56,33.38 18.86,49.72 27.9,138.19 55.94,276.37 80.99,415.09 4.14,22.93 2.48,55.58 -10.96,71.63 -101.18,120.79 -133.66,265.6 -153.65,415.59 -32.09,240.9 -16.21,481.34 10.69,721.17 63.07,562.28 190.76,1111.08 349.69,1653.19 6.54,22.34 11.59,45.11 17.28,67.48 -66.15,19.76 -66.15,19.76 -198.59,-24.31 -24.84,78.72 -49.78,157.77 -76.82,243.49 279.74,-8.82 556.81,-36.27 844.07,-136.88 -151.99,288.03 -293.91,556.99 -439.05,832.05 223.21,273.17 445.63,545.38 675.25,826.41 -34.89,13.9 -60.27,25.95 -86.81,34.26 -297.51,93.33 -603.13,125.16 -913.52,116.46 -559.81,-15.71 -1099.03,-145.7 -1633.1,-300.58 -397.56,-115.28 -792.46,-239.72 -1190.34,-353.82 -242.76,-69.62 -488.47,-129.88 -743.38,-136.32 -28.42,-0.72 -56.88,-0.1 -105.24,-0.1 32.7,29.39 50,47.41 69.73,62.19 56.43,42.28 113.29,84.05 171.02,124.54 91.3,64.04 129.87,150.99 108.14,259.84 -16.03,80.33 -33.6,161.41 -61.65,238.06 -95.73,261.63 -241.7,496.3 -405.57,719.54 -446,607.57 -989.81,1107.09 -1649.05,1476.62 -448.73,251.52 -926.33,414.26 -1441.12,459.53 -8.57,0.76 -16.97,3.53 -25.04,5.27 -18.49,65.26 -26.63,2024.49 -8.61,2227.44 18.8,-12.51 38.61,-19.34 48.32,-33.23 47.03,-67.21 97.86,-132.97 135.14,-205.51 60.34,-117.41 111.47,-239.58 165.78,-360.05 14.82,-32.88 27.04,-61.85 73.43,-61.88 252.78,-0.17 505.55,-3.12 758.32,-4.84 5.49,-0.04 11,3.26 26.03,8.02 25.3,120.81 52.81,246.21 76.88,372.26 4.72,24.74 -2.55,52.24 -6.59,78.11 -27.6,176.84 -55.04,353.72 -84.51,530.26 -5.68,34.08 -18.62,67.26 -30.9,99.85 -13.19,35.01 -29.54,68.83 -48.84,113.12 71.45,0 132.2,0 206.27,0 -9.58,85.8 -18.15,163.17 -26.87,240.52 -22.04,195.5 -51.76,390.56 -62.78,586.67 -4.95,88.08 -29.04,154.01 -85.49,219.09 -105.96,122.15 -201.57,252.48 -274.46,398.31 -10.03,20.08 -35.98,43.79 -56.2,45.4 -195.57,15.62 -391.49,26.87 -584.94,39.22 -18.41,-132.64 -29.58,-260.9 -55.11,-386.24 -42.38,-208.08 -84.9,-288.33 -170.92,-345.48 -16.54,100.97 -6.27,197.07 -8.02,292.16 -1.79,96.98 -0.4,194.02 -0.4,291.03 0,97.01 0,194.02 0,291.03 0,96.36 0,192.72 0,291.83 -154.34,0 -300.02,0 -457.52,0 -6.34,-108.49 -2.28,-210.19 -2.99,-311.6 -0.72,-102.37 -0.16,-204.74 -0.16,-305.24 -103.01,-20.95 -101.9,-20.38 -143.27,58.89 -85.04,162.98 -31.22,132.63 -222.54,132.77 -176.15,0.13 -352.31,0.02 -532.49,0.02 -13.14,-76.74 -10.81,-149.27 -39.43,-206.27 -28.9,-57.55 -88.49,-99.7 -151.74,-145.21 0,111.57 0,223.14 0,342.35 -228.15,6.16 -443.73,11.98 -664.8,17.95 -2.19,-34.11 -5.21,-59.73 -5.26,-85.35 -0.39,-205.78 0.98,-411.57 -1.08,-617.33 -0.5,-49.68 7.37,-92.6 43.87,-128.08 47.14,-45.82 59.96,-101.12 59.85,-167.05 -0.88,-540.9 1.58,-1081.81 3,-1622.71 0.1,-34.5 0.01,-68.99 0.01,-112.45 185.01,0 359.53,0 539.38,0 12.83,91.96 25.63,183.78 41.22,295.62 68.48,-85.27 129.42,-152.56 180.07,-226.86 43.15,-63.31 95.05,-83.09 169.87,-81.66 173.32,3.32 346.9,0.26 520.2,-5.64 59.52,-2.02 100.89,14.4 132.06,64.49 14.77,23.73 35.71,43.63 65.07,78.64 0,-585.48 0,-1153.01 0,-1725.81 -84.4,-4.57 -165.75,-9.14 -247.12,-13.34 -452.54,-23.4 -881.47,-141.5 -1285.68,-341.25 -924.25,-456.76 -1641.44,-1137.25 -2157.43,-2029.03 -88.44,-152.85 -155.72,-315.41 -191.13,-490.65 -26.97,-133.47 6.97,-236.25 122.55,-312.2 71.02,-46.66 138.61,-98.53 221.07,-157.61 -31.77,-5.86 -49.16,-11.86 -66.54,-11.86 -216.34,0.03 -427.24,41.34 -633.72,99.22 -401.36,112.5 -800.64,232.45 -1200.42,350.55 -394.48,116.53 -791.37,223.17 -1198.6,285.4 -453.39,69.3 -906.36,87.05 -1356.55,-25.37 -48.4,-12.07 -96.3,-26.23 -144.12,-40.5 -19.47,-5.81 -38.07,-14.46 -61.93,-23.7 26.29,-69.92 82.41,-114.73 123.98,-169.43 42.67,-56.13 88.6,-109.78 133.24,-164.4 46.51,-56.89 93.16,-113.66 139.78,-170.46 44.75,-54.54 89.76,-108.85 134.25,-163.6 44.28,-54.5 88.05,-109.4 135.62,-168.58 -143.98,-271.12 -286.89,-540.24 -440.46,-829.41 305.2,105.81 603.51,130.06 903.47,138.94 -26.28,-83.49 -51.42,-163.33 -77.46,-246.05 -61.91,6.88 -120.02,60.89 -197.46,28.64 5.32,-23.43 9.47,-48.22 16.6,-72.12 144.75,-484.88 257.61,-976.94 328.46,-1478.11 37.49,-265.2 58.01,-531.79 40.55,-799.94 -8.05,-123.63 -25.71,-246.16 -74.66,-360.77 -21.63,-50.65 -57.13,-95.24 -83.95,-143.9 -10.49,-19.02 -23.41,-43.26 -19.98,-62.38 28.4,-158.47 60.37,-316.29 92.69,-481.61 43.82,8.48 80.33,15.14 116.67,22.67 72.98,15.13 104.53,-1.15 124.69,-70.62 23.03,-79.39 13.41,-156.8 -20.19,-232.07 -98.17,-219.94 -189.79,-443.04 -295.08,-659.51 -141.69,-291.35 -154.29,-592.55 -95.07,-903.15 3.22,-16.94 5.89,-33.98 12.79,-74.03 -42.68,32.19 -69.84,52.67 -104.18,78.57 -27.38,-136.12 -10.85,-261.26 56.33,-374.9 55.09,-93.19 122.56,-179.1 185.01,-267.9 13.28,-18.88 28.6,-36.33 55.57,-70.27 -71.32,8.95 -126.2,15.84 -180.47,22.65 15.02,-186.18 194.96,-460.2 400.29,-604.82 -11.92,-31.14 -25.85,-62.91 -36.36,-95.77 -45.87,-143.4 1.6,-280.51 124.7,-363.35 105.88,-71.24 267.1,-64.51 370.14,23.7 42.34,36.25 75.87,46.27 132.48,33.07 154.43,-36.02 311.38,-40.34 453.22,45.46 132.82,80.35 266.62,90.43 411.19,39.5 68.9,-24.27 141.5,-39.66 213.58,-52.74 51.56,-9.36 84.27,-31.56 103.47,-81.48 8.44,-21.96 29.9,-45.59 51.27,-54.53 45.85,-19.19 91.83,16.05 92.51,72.79 0.93,76.25 -4.72,152.66 -9.62,228.88 -3.38,52.46 -10.28,104.69 -16.05,161.49l-34.58 3.46c-67.25,52.47 -271.56,210.48 -329.27,255.66 68.35,21.38 135.37,-5.92 202,-16.93 51.54,-8.51 101.14,-28.7 154.17,-44.44 17.44,30.57 12.46,53.99 -7.5,80.79 -59.54,79.95 -116.8,161.61 -174.14,243.16 -74.28,105.66 -147.43,212.2 -281.03,272.19 140.33,75.02 176.2,222.61 273.93,330.26 -73.95,49.71 -152.01,15.55 -223.72,26.86 11.17,100.74 86.55,170.05 189.68,159.18 125.23,-13.19 249.73,-35.88 373.46,-60.01 77.57,-15.12 153.9,-38.02 229.38,-61.88 72.55,-22.93 143.28,-51.59 217.64,-78.77 394.4,189.56 808.44,175.1 1227.48,91.45 64.17,-12.81 127,-31.73 156.37,-99.56 13.31,-30.76 22.74,-63.19 37.4,-104.7 18.62,39.05 36.34,76.2 58.52,122.71 29.75,-23.44 60.08,-47.35 98.64,-77.74 9.69,40.52 18.06,75.49 28.8,120.37 35.52,-29.73 67.69,-56.65 106.03,-88.74 98.08,151.26 127.67,310.06 93.72,499.72 243.17,-159.52 470.55,-308.69 704.39,-462.1 12.1,26.73 22.13,49.56 32.72,72.14 79.09,168.67 269.2,201.69 398.96,68.24 73.86,-75.97 119.29,-170.1 136.79,-272.03 16.31,-95 62.51,-133.4 155.6,-154.82 283.06,-65.11 563.38,-142.08 844.86,-214.09 19.41,-4.97 39.55,-7.06 68.32,1.22 -28.41,31.25 -57.08,62.25 -85.15,93.79 -35.13,39.46 -73.07,76.96 -103.95,119.54 -76.45,105.39 -66.71,183.56 33.84,268.31 90.69,76.44 196.95,125.36 311.97,169.54 15.64,-29.47 27.37,-55.82 42.76,-79.84 61.66,-96.17 116.44,-198.19 188.5,-285.96 151.39,-184.41 352.99,-265.17 591.42,-257.45 43.68,1.41 80.62,12.3 112.3,41.3 58.51,53.53 115.58,108.7 175.34,160.77 46.35,40.39 93.12,81.43 144.63,114.49 85.91,55.16 179.5,60.09 266.9,6.54 48.92,-29.97 83.21,-21.59 127.56,5.54 335.72,205.42 672.69,408.81 1009.38,612.65 24.7,14.96 50.24,28.55 85.7,48.59 -38.55,-188.94 -18.46,-357.69 85.92,-517.4 37.8,29.45 71.14,55.42 111.89,87.16 7.58,-43.29 13.49,-77 21.53,-122.88 37.67,30.68 70.65,57.53 106.77,86.96 17.32,-44.02 32.78,-83.33 56.28,-143.08 17.89,138.56 88.89,197.58 203.29,221.03 320.69,65.73 641.04,79.12 960.69,0.53 87.49,-21.52 170.88,-59.73 268.82,-94.81 208.69,98.72 446.24,149.41 686.96,188.17 34.74,5.6 69.83,9.88 104.93,12.19 112.83,7.42 175.53,-38.14 213.39,-157.92 -76.73,-11.02 -157.15,15.23 -244.63,-23.7 108.01,-102.92 140.45,-253.48 281.84,-328.05 -20.49,-14.63 -36.77,-23.99 -50.32,-36.34 -49.65,-45.26 -105.21,-86.18 -146.1,-138.47 -90.29,-115.47 -173.83,-236.28 -257.93,-356.46 -11.49,-16.42 -10.41,-41.64 -17.01,-71.04 90.27,22.26 168.23,46.39 248.01,59.22 34.03,5.48 69.94,-0.71 105.61,-5.34l-80.81 -50.33 -0.47 -0.92zm-10626.61 5217.64l0 0c58.58,-3.91 108.74,-7.26 169.83,-11.34 -84.1,-159.4 -140.79,-320.55 -241.2,-458.83 -31.76,-43.75 -73.3,-80.4 -118.62,-129.18 -98.72,137.96 -218.89,230.97 -354.05,303.54 -54.56,29.3 -68.33,68.71 -71.95,126.59 -9.13,146.21 -19.48,292.93 -41.64,437.56 -19.81,129.35 -56.05,256.18 -85.62,386.67 260.38,118.99 397.13,343.01 484.45,613.96 222.05,-16.09 445.16,-32.26 668.28,-48.43 3.05,-5.38 6.11,-10.77 9.17,-16.15 -104.57,-79.75 -123.27,-195.99 -147.54,-311.37 -63.66,-302.67 -96.06,-614.85 -271.11,-893.02zm1368.93 -3056.86l0 0c23.09,-40.71 42.32,-69.79 56.76,-101.08 27.61,-59.83 14.39,-99.92 -41.06,-134.2 -36.59,-22.62 -74.74,-30.62 -117.65,-17.72 -67.38,20.27 -135.67,37.48 -203.37,56.71 -28.39,8.07 -56.25,18.01 -102.99,33.14 156.47,94.56 293.08,180.06 432.73,260.28 71,40.78 144.89,79.74 222.13,105.62 90.92,30.47 187.61,43.28 280.29,69.11 34.98,9.75 55.24,-1.88 78.19,-22.34 74.52,-66.45 149.42,-132.47 224.99,-197.7 13.62,-11.75 31.14,-18.99 50.23,-30.32 31.14,110.94 -2.27,211.22 -13.12,318.93 103.08,-139.44 160.53,-520.34 110.21,-718.28 -33.8,19.42 -66.41,38.26 -99.11,56.93 -193.98,110.77 -391.95,213.05 -606.49,278.86 -84.08,25.79 -169.35,47.11 -271.74,42.06zm7950.2 40.06l0 0c-322.49,-11.71 -580.96,-171.38 -850.71,-299.87 -3.01,12.87 -6.59,19 -5.22,23.67 36.38,123.72 72.41,247.57 110.9,370.64 6.62,21.2 20.86,42.44 37.14,57.73 46.87,44.02 96.58,85 131.76,115.53 386.23,-24.64 670.31,-240.53 987.62,-437.82 -126.14,-33.84 -229.7,-63.93 -334.5,-88.78 -53.94,-12.8 -98.11,15.06 -129.84,56.42 -28.69,37.4 -15.87,78.08 4.5,115.96 13.54,25.18 27.86,49.94 48.35,86.52zm-1624.25 5925.31l0 0c-69.32,-59.03 -129.42,-120.26 -199.13,-167.24 -106.97,-72.08 -221.25,-133.21 -331.03,-201.25 -59.75,-37.04 -120.75,-73.9 -173.93,-119.33 -116.15,-99.23 -131.66,-226.9 -45.48,-353.72 31.14,-45.83 68.72,-88.13 107.91,-127.51 122.97,-123.55 263.33,-225.44 412.27,-314.87 367.31,-220.54 757.27,-374.29 1191.11,-395.58 28.58,-1.4 56.9,-8.27 83.87,-12.37 5.83,-16.76 11.37,-27.44 13.19,-38.71 23.82,-147.89 97.45,-270.18 199.85,-375.06 73.75,-75.54 152.48,-146.51 232.34,-215.64 40.97,-35.46 60.42,-70.73 56.17,-128.02 -11.14,-149.95 -4.34,-300.45 33.69,-446.43 39.2,-150.42 87.27,-298.53 131.27,-447.72 8.6,-29.16 16.29,-58.59 25.93,-93.39 -75.31,16.19 -132.12,60.95 -208.13,41.91 110.79,-227.96 215.1,-447.87 324.56,-665.18 42.13,-83.64 93.1,-163.3 145.15,-241.38 85.17,-127.78 184.14,-242.89 313.11,-330.55 80.09,-54.43 157.4,-113.55 231.55,-175.8 29.87,-25.08 59.76,-61.07 69.34,-97.44 38.34,-145.66 11.46,-289.15 -18.81,-429.17 -324.8,-40.39 -695.07,36.67 -918.88,239.27 29.42,23.4 57.65,45.85 91.48,72.75 -190.83,97.73 -391.03,96.32 -601.42,78.14 25.73,87.67 -9.33,152.3 -46.71,215.36 -22.41,37.82 -48.89,73.29 -74.42,109.19 -46.5,65.41 -83.67,134.16 -91.07,216.36 -14.46,160.72 -37.6,321.04 -43.8,482.04 -7.34,190.7 0.68,381.94 -0.39,572.93 -0.7,126.28 -6.81,252.52 -8.21,378.81 -0.61,55.44 -18.25,93.79 -73.13,116.48 -45.79,18.93 -86.82,49.12 -131.12,72.07 -35.83,18.56 -59.44,44.43 -72.22,83.54 -39.21,119.97 -76.77,240.72 -122.24,358.35 -47.5,122.92 -100.14,244.16 -157.01,363.03 -31.63,66.13 -39.15,63.91 -112.08,50.29 -33.7,-6.3 -67.46,-12.28 -103.77,-18.87 -12.77,35.21 -20.63,63.36 -32.94,89.4 -23.75,50.26 -48.1,100.44 -75.8,148.57 -26.56,46.15 -65.44,62.57 -119.27,42.67 -39.54,-14.62 -81.74,-22.1 -126.84,-33.83 -20.69,137.38 -95.7,226.62 -192.85,297.24 -70.97,51.59 -146.01,99.11 -223.96,139.29 -233.59,120.39 -482.29,199.88 -738.24,256.41 -107.83,23.81 -217.23,40.53 -326.15,60.51 1.61,12.06 1.53,21.17 4.11,29.43 86.4,275.73 109.37,558.25 87.99,845 -12.07,161.73 -38.63,320.7 -106.6,470.11 -35.15,77.25 -84.54,139.83 -164.37,176.11 -39.68,18.03 -76.45,42.46 -111.12,62.06 0,195.79 0,385.3 0,578.72 23.34,-3.58 40.61,-5.41 57.52,-8.93 787.86,-163.97 1399.9,-611.38 1938.71,-1208.05zm2992.45 -2875.55l0 0c-4.26,15.98 -4.42,25.32 -8.82,31.77 -79.1,115.91 -124.93,245.76 -155.64,380.98 -36.38,160.22 -70.59,321 -102.11,482.26 -22.22,113.72 -46.81,224.81 -137.95,307.03 -2.95,2.66 -1.11,10.64 -2.16,25.31 223.52,15.9 446.83,31.79 667.1,47.46 86.86,-278.03 224.21,-501.58 495.28,-618.89 -18.33,-57.79 -37.94,-112.73 -53.15,-168.85 -58.68,-216.55 -85.52,-437.83 -90.61,-661.62 -1.2,-52.66 -18.47,-86.4 -64.99,-112.59 -131.38,-73.94 -250.61,-163.65 -343.72,-284.47 -2.65,-3.44 -10.62,-2.79 -23.68,-5.77 -183.65,144.94 -235.14,373.08 -355.67,577.38 69.08,0 120.68,0 176.12,0zm-5460.59 3529.39l0 0c-237.42,-101.86 -392.79,-265.28 -403.33,-529.14 -4.98,-124.75 12.33,-252 33.24,-375.8 27.37,-161.97 69.41,-321.41 103.16,-482.35 54.47,-259.77 66.45,-518.59 -23.46,-774.27 -2.27,-6.45 2.51,-15.38 4.48,-25.67 129.4,18 240.05,61.71 304.04,187.34 5.15,-2.88 10.3,-5.77 15.45,-8.65 2.41,-101.96 4.82,-203.91 7.7,-325.48 100.9,99.59 185.84,183.43 281.39,277.74 61.84,-207.95 120.03,-403.64 179.23,-602.71 170.15,-41.05 336.98,-89.01 506.93,-119.58 114.49,-20.58 212.31,-66.37 301.6,-134.96 69.82,-53.64 138.02,-109.93 202.64,-169.7 189.86,-175.61 377.25,-353.88 566.39,-530.26 36.13,-33.69 75.84,-63.52 115.45,-96.42 -30.66,-49.87 -55.64,-96.71 -86.65,-139.13 -29.2,-39.94 -28.45,-77.9 -16.35,-123.62 39.76,-150.37 81.04,-300.71 111.31,-453.14 64.11,-322.83 76.32,-647.44 9.17,-971.98 -60.81,-293.93 -182.35,-563.55 -331.52,-821.96 -23.08,-39.98 -45.11,-80.55 -69.17,-123.61 43.7,-27.24 81.53,-50.83 135.45,-84.45 -37.15,-5.08 -53.62,-7.58 -70.16,-9.56 -144.32,-17.27 -273.21,-70.96 -378.6,-171.59 -57.13,-54.55 -108.11,-115.87 -159.11,-176.46 -64.29,-76.41 -122.45,-158.18 -189.22,-232.26 -108.77,-120.69 -242.07,-204.92 -402.63,-238.54 -42,-8.8 -88.59,-10.57 -130.42,-2.23 -100.82,20.1 -138.58,96.75 -85.5,183.89 34.26,56.25 86.59,102.07 133.78,149.63 24.36,24.54 55.18,42.67 89.29,68.37 -77.42,321.83 25.42,639.62 29.57,961.26 -76.37,41.43 -148.16,80.38 -222.2,120.54 7.01,33.78 11.98,62.37 18.92,90.47 49.32,199.59 104.2,397.99 146.71,599.01 25.92,122.57 67.02,229.28 176.38,299.53 38.84,24.96 48.02,60.36 46.37,105.88 -17.06,469.98 -33.02,940.01 -46.71,1410.1 -1.63,55.79 -18.26,90.65 -67.15,120.92 -174.87,108.27 -346.58,221.62 -519.6,332.86 -145.61,93.62 -291.37,186.99 -437.22,280.56 -169.1,-81.73 -338.37,-137.96 -521.2,-86.62 -3.48,12.6 -5.57,15.84 -4.83,18.2 5.24,16.75 10.59,33.5 16.75,49.93 67.46,179.68 53.89,353.92 -48.06,515.59 -65.59,104.02 -143.24,200.49 -216.58,299.52 -13.07,17.65 -31.52,31.32 -52.19,51.4 -16.82,-29.36 -30.03,-51.53 -42.38,-74.17 -61.12,-112.05 -148.84,-196.69 -264.82,-249.52 -58.59,-26.68 -119.25,-49.96 -180.83,-68.67 -126.35,-38.39 -254.74,-70.13 -380.81,-109.38 -115.93,-36.1 -221.08,-91.23 -309.57,-178.83 -81.33,-80.52 -168.31,-155.94 -257.7,-227.5 -53.08,-42.5 -69.74,-84.29 -49.91,-151.05 22.11,-74.4 31.09,-152.7 46.14,-231.14 -14.42,0 -17.59,-0.73 -20.26,0.12 -13.89,4.4 -27.88,8.65 -41.44,13.97 -134.78,52.79 -265.69,38.06 -391.78,-26.38 -289.01,-147.73 -438.14,-508.42 -342.27,-818.64 15.47,-50.05 27.08,-102.66 30.7,-154.77 15.13,-217.68 6.44,-435.17 -25.29,-650.83 -41.91,-284.77 -89.09,-568.78 -135.03,-852.94 -9.64,-59.59 -23.76,-118.44 -35.49,-176.08 -359.25,27.49 -523.68,7.63 -648.41,-74.9 27.93,-23.44 56.65,-47.54 89.19,-74.84 -281.87,-210.43 -589,-265.59 -922.47,-236.28 -33.56,134.76 -46.32,268.11 -27.42,403.29 7.55,54.03 34.94,97.96 81.12,131.11 76.38,54.84 148.24,116.17 226.08,168.72 129.29,87.26 229.01,201.81 314.28,329.61 53.72,80.51 105.48,163.1 149.59,249.13 107.19,209.09 209.46,420.71 313.33,631.49 3.54,7.18 3.01,16.36 5.06,28.73 -73.09,20.56 -133.73,-27.25 -207.48,-38.74 13.52,45.35 22.63,81.82 35.17,117.08 103.06,289.87 183.69,583.54 153.62,896.07 -3.57,37.07 14.18,60.53 40.14,82.53 56.05,47.5 112.01,95.18 166.45,144.51 140.11,126.97 250.18,272.68 284.62,464.66 2.52,14.07 8.54,27.52 14.96,47.59 28.7,2.47 57.4,5.06 86.13,7.38 29.29,2.36 58.86,2.74 87.88,6.93 526.22,75.95 986.78,296.27 1389.89,638.92 64.31,54.66 122.93,119.18 172.05,187.83 88.96,124.31 71.03,253.78 -42.95,354.08 -43.82,38.55 -93.36,71.43 -143.25,102.06 -100.13,61.47 -203.66,117.43 -303.24,179.74 -94.44,59.11 -183.19,126.16 -250.84,216.48 614.64,685.44 1345.79,1152.26 2283.7,1254.1 0,-194.07 0,-386.71 0,-574.07zm-1919.05 -6275.11l0 0c-7.89,115.33 -7.67,218.45 -23.37,319.09 -29.85,191.33 -67.88,381.42 -104.22,571.7 -43.06,225.45 -81.02,451.18 -63.12,682.23 17.25,222.66 97.01,416.1 265.78,567.51 19.35,17.36 42.92,30.02 57.84,40.26 -44.52,162.08 -83.85,305.28 -123.73,450.46 112.12,44.7 220.01,52.11 328.71,45.25 50.57,-3.18 90.26,10.49 129.69,40.51 96.46,73.46 148.21,172.08 171.87,288.26 9.78,48.06 20.22,95.98 32.66,154.83 31.97,-23.34 55.4,-39.4 77.71,-56.9 147.98,-115.98 295.61,-232.42 443.63,-348.37 34.64,-27.13 67.43,-58.8 106.24,-77.85 50.8,-24.94 77.3,-64.53 85.09,-115.31 12.88,-83.9 31.11,-169.38 26.6,-253.08 -14.03,-260.89 -34.35,-521.57 -58.88,-781.7 -13.54,-143.6 -21.41,-284.38 2.03,-428.77 40.31,-248.38 28.91,-497.81 -17.59,-745.32 -40.23,-214.18 -100.81,-422.55 -181.22,-624.96 -17.63,-44.37 -18.52,-79.88 11.98,-121.31 62.64,-85.09 120.98,-173.58 176.99,-263.22 25.66,-41.05 58.25,-62.15 104.42,-71.02 46.02,-8.85 90.97,-23.21 155.61,-40.21 -114.35,-57.9 -208.23,-105.43 -310.06,-156.99 -93.54,84.56 -187.21,168.73 -280.31,253.52 -162.83,148.29 -320.23,303.09 -489.47,443.65 -149.27,123.97 -308.67,238.74 -524.88,227.74z"/>
   <path class="fil2" d="M14977.85 3011.8c67.37,-58.9 151.79,-73.72 235.4,-84.31 123.98,-15.7 246.61,1.54 365.72,37.1 49.21,14.69 99.39,35.1 118.34,94.61 -58.61,0 -112.81,-0.59 -166.96,0.73 -6.79,0.17 -13.33,10.36 -19.2,15.25 43.95,89.31 195.17,144.68 278.48,104.29 44.72,-21.67 73.77,-76.32 67.76,-132.66 -7.12,-66.69 -32.35,-124.79 -88.68,-165.5 67.56,-66.94 115.57,-70.21 182.83,-13.99 61.58,51.47 84.56,141.31 53.24,225.32 -13.12,35.2 -34.7,67.25 -56.48,108.38 119.71,91.62 237.34,191.89 286.23,355.11 -110.32,3.83 -199.75,-75.53 -320.81,-59.83 155.98,165.36 300.65,325.46 374.45,551.2 -130.72,-26.37 -246.07,-89.01 -379.35,-25.83 94.98,77 175.59,156.12 235.8,261.98 -119.82,-22.78 -232.46,-44.2 -360.55,-68.55 20.26,25.36 29.49,41.97 43.17,53.09 41.04,33.35 82.74,66.07 126.1,96.29 135.57,94.49 210.25,226.12 240.11,386.09 5.75,30.83 13.1,61.36 20.97,97.84 119,-62.37 146.62,-168.04 161.8,-294.26 49.1,93.33 46.82,180.11 37.38,267.29 -18.65,172.19 -77.64,333.19 -161.36,481.72 -128.3,227.6 -268.56,448.48 -404.5,671.76 -50.24,82.53 -107.13,160.36 -122.89,260.58 -9.77,62.19 -0.35,117.03 29.75,169.16 80.29,139.01 234.82,196.75 386.45,145.8 21.99,-7.4 43.38,-16.58 71.64,-27.48 21.4,80.7 5.84,158.55 11.09,237.72 -173.56,103.82 -222.72,273.18 -241.49,456.97 -32.02,313.66 14.68,620.86 76.7,927.19 72.97,360.39 178.72,711.92 280.16,1064.69 10.37,36.05 19.8,72.38 31.46,115.18 -134.57,6.98 -199.18,-81.51 -274.18,-179.51 -13.23,74.79 -24.03,135.88 -35.05,198.17 -79.77,9.56 -132.94,-38.98 -189.34,-84.75 -6.8,108.19 95.93,294.14 215.49,391.98 45.56,-32.92 92.48,-66.82 139.34,-100.68 66.46,92.09 53.25,145.06 -34.14,201.75 -65.99,42.81 -130.78,50.24 -207.85,41.85 -133.98,-14.58 -269.46,-19.84 -404.33,-20.14 -90.18,-0.2 -161.07,48.7 -213.15,122.17 -11.31,15.94 -18.96,34.48 -30.98,56.8 -14.85,-35.39 -26.94,-64.21 -41.37,-98.61 -42.08,25.48 -78.84,47.73 -123.94,75.04 5.78,-48.1 10.49,-87.29 16.25,-135.19 -61.54,14.69 -116.15,27.73 -179.04,42.74 64.31,-184.16 161.04,-327.42 346.22,-382.07 87.29,-25.78 130.43,-95.83 188.58,-150.76 14.31,-13.52 9.63,-54.96 3.4,-81.11 -36.04,-151.34 -83.13,-300.48 -111.17,-453.17 -33.84,-184.22 -52.41,-371.25 -79.39,-570.36 -249.8,-42.34 -391.62,-237.93 -521.14,-462.84 -22.98,36.95 -39.07,62.82 -59.26,95.29 -86.39,-82.08 -128.84,-186.91 -165.24,-293.16 -35.87,-104.72 -62.98,-212.44 -95.53,-324.36 -62.33,23.31 -84.71,81.9 -122,151.86 -9.53,-43.82 -18.79,-68.14 -19.52,-92.72 -4.17,-141.14 -4.75,-281.33 49.57,-416.56 46.95,-116.87 48.41,-157.29 31.85,-261.6 -23.5,12.68 -45.27,24.41 -75.67,40.81 2.55,-24.95 2.16,-41.47 6.12,-56.87 46.94,-182.46 33.31,-360.51 -32.24,-536.7 -33.71,-90.62 -63.43,-183.04 -88.67,-276.35 -11.12,-41.12 -6.59,-86.46 -9.66,-138.22 81.32,-20.27 156.78,-39.09 241.59,-60.24 19.46,125.1 -46.16,224.8 -81.18,347.28 48.14,-11.66 89.45,-14.74 123.97,-31.67 49.63,-24.37 96.48,-55.99 140.68,-89.55 91.27,-69.28 177.4,-145.5 270.29,-212.41 212.73,-153.23 452.67,-246.73 705.61,-309.48 28.16,-6.98 56.31,-14.03 88.64,-22.09 -198.58,-47.33 -604.42,-2.93 -1015.58,194.73 18.71,-100.94 62.36,-198.66 2.6,-304.8 -164.32,125.18 -347.97,204.36 -556.58,269.11 42.56,-46.44 73.67,-80.39 105.88,-115.53 -13.43,-8.93 -16.65,-12.52 -18.21,-11.91 -152.91,59.96 -304,29.78 -457.85,-0.98 -165.21,-33.02 -322.73,-87.12 -480.07,-144.45 -82.68,-30.13 -166.83,-56.67 -251.47,-80.73 -35.41,-10.07 -73.84,-9.5 -108.21,-13.46 -36.99,87.27 -38.71,118.21 -15.2,243.56 -17,0 -34.52,4.46 -48.51,-0.67 -264.51,-96.9 -511.11,-225.24 -713.86,-424.91 -51.89,-51.09 -96.93,-110.63 -137.4,-171.43 -52.89,-79.44 -81.51,-168.26 -71.52,-277.25 32.3,25.33 58.38,45.78 91.98,72.14 12.24,-29.88 20.07,-57.11 34.01,-80.73 14.16,-24 34.34,-44.44 60.09,-76.73 17.41,89.17 73.99,110.04 140.13,127.53 249.94,66.11 499.97,130.81 758.25,155.5 162.17,15.51 323.13,9.57 478.65,-43.61 36.38,-12.43 66.03,-9.59 101.03,1.41 283.02,88.97 572.45,126.72 869.18,106.36 48.03,-3.3 82.62,-22.5 112.68,-58.52 70.14,-84.03 102.88,-181.85 108.96,-304.31 59.35,55.73 107.47,105.03 160,149.07 51,42.76 105.35,82.61 174.9,88.91 20.92,-103.62 41.01,-203.07 64.27,-318.24 87.21,62.22 159.85,114.05 241.21,172.09 52.04,-203.36 144.01,-377.15 242.8,-550.42 -151.78,63.27 -268.81,174.23 -394.56,271.57 -38.44,-48.55 -74.15,-93.64 -120,-151.56 -65.68,96.07 -123.87,181.21 -185.75,271.72 -43.36,-39.6 -92.56,-84.54 -144.68,-132.14 -28.65,13.12 -58.73,26.9 -88.81,40.67 -2.62,-4.06 -5.24,-8.13 -7.86,-12.2 75.24,-68.66 150.47,-137.33 231.49,-211.27 -15.04,-8.46 -28.17,-17.52 -42.55,-23.66 -77.83,-33.22 -140.3,-84.81 -188.29,-154.34 -50.39,-73 -105.05,-141.7 -184.73,-185.82 -6.29,-3.48 -9,-13.42 -14.92,-22.79 28.48,-37 66.65,-32.24 104.36,-29.61 46.85,3.27 93.7,7.21 140.63,8.77 32.55,1.08 63.35,-5.2 88.7,-45.65l-208.09 -119.04 -78.2 -56.6c-49.61,-44.15 -98.97,-88.63 -150.51,-130.41 -43.49,-35.26 -57.69,-77.3 -50.6,-130.54 7.7,-57.83 13.75,-115.87 21.83,-185.08 71.39,21.6 137.66,39.94 202.75,61.81 69.34,23.3 137.53,50.04 206.28,75.1 73.98,26.96 147.76,56.82 227.22,19.71 5.66,41.64 11.39,83.21 17.41,126.89 106.12,10.64 169.01,-52.79 242.94,-89.76 -1.1,-6.65 -2.21,-13.31 -3.31,-19.97 -86.41,-5.01 -172.82,-10.02 -259.23,-15.03zm388.12 480.92l0 0c-3.09,16.77 -5.99,32.47 -9.19,49.85 -26.27,-3.81 -56.08,-0.77 -76.8,-13.06 -23.8,-14.11 -37.69,-20.34 -60.38,0.15 -9.08,8.2 -29.43,6.05 -44.42,5.07 -21.22,-1.4 -42.23,-6.08 -71.51,-10.63 22.85,63.42 41.45,115.02 59.47,165 45.92,49.16 91.02,16.72 131.25,-5.95 14.45,-8.14 21.4,-19.71 28.78,-1.08 15.76,39.73 51.96,27.61 62.87,12.62 29.17,-40.08 104.49,-24.73 106.4,-91.13 0.37,-12.83 -10.23,-26.4 -17.02,-38.95 -22.64,-41.88 -61.33,-60.08 -109.45,-71.89zm177.6 112.13l0 0c54.03,-22.38 47.01,-56.93 38.28,-91.39 -13.99,-55.18 -55.63,-66.02 -119.19,-71.67 30.66,61.78 55.41,111.66 80.91,163.06z"/>
   <path class="fil2" d="M3775.88 3322.16l-135.59 73.5c18.21,47.43 53.62,43 84.1,43.44 52.85,0.75 105.76,-3.43 158.62,-3.03 27.43,0.21 54.83,5.79 81.95,8.91 -1.42,16.98 0.28,25.82 -2.69,27.86 -83.7,57.55 -145.48,135.12 -203.07,217.22 -54.23,77.31 -131.56,124.23 -223.71,153.64 79.49,72.46 154.21,140.58 228.94,208.7 -2.44,4.3 -4.89,8.59 -7.33,12.89 -26.98,-10.46 -53.98,-20.92 -83.67,-32.43 -48.84,44.83 -97.94,89.9 -141.21,129.61 -60.5,-88.34 -117.65,-171.78 -176.18,-257.24 -65.45,28.88 -89.12,85.25 -129.28,136.09 -126.46,-98.72 -243.92,-207.54 -394.27,-267.77 93.07,174.73 198.23,340.67 234.9,545.75 90.81,-34.29 150.36,-104.84 230.85,-160.4 58.53,98.4 58.41,208.12 78.77,316.96 137.87,-34.82 227.05,-132.49 324.98,-236.82 7.2,27.66 11.53,45.35 16.43,62.88 11,39.38 18.48,80.27 34.15,117.73 50.7,121.24 130.06,189.34 275.42,183.82 265.45,-10.07 526.83,-36.34 781.84,-113.92 26.47,-8.06 59.7,-14.55 84,-5.77 165.23,59.72 335.65,56.68 505.57,41.67 276.07,-24.37 542.18,-99.06 808.83,-170.66 50.96,-13.69 48.13,-62.8 81.07,-89.39 60.81,23.25 59.01,88.22 91.33,140.8 27.71,-24.5 54.42,-48.12 98.91,-87.48 -6.97,61.89 -7.38,104.66 -17.13,145.18 -34.37,142.96 -123.05,252.54 -228.22,348.95 -204.65,187.61 -444.71,314.67 -706.58,402.57 -7.84,2.63 -17.35,0.33 -33.61,0.33 8.24,-39.26 21.82,-77.4 22.79,-115.86 1,-40.14 -10.14,-80.59 -15.83,-119.95 -46.31,-26.94 -90.26,-13.33 -131.14,-0.57 -100.77,31.47 -201.23,64.55 -299.89,102.02 -182.03,69.11 -369.63,116.11 -561.11,148.28 -93.6,15.72 -187.24,15.71 -278.71,-15.77 -15.5,-5.33 -31.59,-8.93 -47.41,-13.32 -3.78,4.86 -7.56,9.72 -11.33,14.58 28.9,33.58 57.81,67.16 100.95,117.29 -210.03,-64.13 -390.1,-146.65 -559.7,-273.81 -44.28,101.9 -25.39,196.5 9.7,306.54 -328.94,-146.78 -656.46,-238.21 -1005.77,-209.46 -1.55,6.61 -3.09,13.22 -4.64,19.83 29.07,7.85 57.99,16.33 87.24,23.45 318.87,77.57 609.34,211.57 858.61,428.83 48.68,42.42 99.66,82.47 151.83,120.53 73.03,53.28 109.31,66.03 213.87,81.99 -18.95,-115.02 -94.97,-216.35 -71.8,-340.05 80.12,18.95 156.09,36.9 233.92,55.3 17.93,73.36 4.22,142.11 -17.29,209.3 -23.27,72.67 -49.3,144.51 -75.91,216.05 -67.63,181.84 -81.57,365.7 -24.56,552.97 2.4,7.91 1.2,16.91 2.12,33.21 -16.35,-7.49 -28.61,-11.78 -39.42,-18.44 -11.18,-6.88 -20.94,-16.06 -38.29,-29.72 -13.23,90.52 -6.13,167.3 24.38,241.98 50.87,124.48 70.1,254.4 63.51,388.13 -2.12,43.17 -9.41,86.09 -16.38,146.94 -49.3,-60.96 -63.65,-131.1 -140.98,-150.26 -39.31,222.99 -97.85,434.83 -246.88,619.78 -24.08,-36.03 -40.87,-61.16 -64.57,-96.64 -126.18,219.99 -263.68,415.54 -527.87,461.42 -7.81,93.79 -14.74,184.14 -22.95,274.38 -22.97,252.64 -83.84,497.62 -156.68,739.48 -16.97,56.37 -9.57,90.67 33.38,130.13 56.35,51.78 110.96,97.07 186.93,123.47 168.48,58.56 253.65,197 314.6,369.19 -62.06,-15.37 -115,-28.48 -182,-45.08 7.29,46.1 13.35,84.34 21.55,136.12 -47.3,-27.18 -87.55,-50.31 -131.43,-75.53 -10.18,32.44 -18.87,60.13 -30.2,96.24 -14.7,-21.42 -24.36,-37.7 -36.12,-52.28 -63.96,-79.31 -138.87,-128.74 -249.26,-119.25 -151.99,13.06 -304.84,16.88 -457.41,22.01 -76.33,2.57 -133.23,-44.69 -176.33,-97.4 -36,-44.04 -17.37,-99.99 17.17,-155.22 48.74,36.97 94.77,71.88 149.66,113.51 104.63,-110.5 185.8,-230.47 225.97,-393.38 -73.78,32.21 -122.82,91.09 -202.21,82.75 -10.54,-58.16 -21.35,-117.83 -34.58,-190.85 -43.67,45.39 -77.77,86.77 -117.99,120.96 -40.42,34.35 -89.87,52.53 -158.41,51.62 10.79,-41.19 19.8,-76.43 29.27,-111.54 87.81,-325.82 181.61,-650.17 261.77,-977.86 68.39,-279.62 115.8,-564.35 110.77,-853.6 -1.92,-110.46 -21.11,-221.8 -43.77,-330.37 -22.57,-108.16 -74.58,-203.22 -167.29,-271.78 -16.3,-12.05 -31.33,-36.41 -32.69,-56.07 -4.21,-60.9 -1.54,-122.28 -1.54,-192.52 30.91,8.24 52.12,13.59 73.15,19.55 88.03,24.96 175.13,26.05 256.01,-21.17 159.79,-93.28 224.35,-231.31 119.75,-426.7 -85.72,-160.11 -192.69,-308.85 -290.11,-462.72 -129.18,-204.03 -248.22,-413.2 -317.04,-646.68 -39.3,-133.32 -68.15,-267.83 -19.37,-418.07 22.01,59.58 36.51,111.62 60.13,159.12 23.4,47.05 57.16,88.29 120.45,111.88 7.71,-37.15 14.86,-69.97 21.29,-102.93 29.9,-153.1 101.93,-280.11 228.55,-374.42 58.21,-43.35 114.74,-88.97 172.04,-133.56 -2.7,-6.71 -5.39,-13.42 -8.09,-20.12 -111.41,19.24 -222.81,38.48 -341.34,58.95 53.02,-105.62 138.32,-176.67 228.85,-255.17 -129.81,-69.25 -243.42,0.72 -374.43,22.93 69.25,-221.55 211.83,-378.85 361.01,-541.67 -60.28,-21.12 -106.68,9.42 -154.48,20.54 -50.05,11.65 -98.96,28.23 -152.46,43.85 21.9,-128.23 88.1,-215.18 274.25,-368.79 -21.28,-47.47 -46.54,-93.13 -62.38,-141.86 -19.6,-60.26 -0.57,-116.95 37.54,-165.19 64.98,-82.25 131.05,-88.89 220.09,-25.55 -26.14,40.61 -56.46,79.19 -77.37,122.32 -25.4,52.4 -30.97,108.53 11.35,157.22 41.85,48.14 97.02,54.19 153.28,34.92 46.61,-15.95 91.17,-38.59 134.96,-61.5 10.06,-5.26 21.47,-28.01 17.75,-35.18 -6.62,-12.77 -24.32,-27.76 -37.39,-27.76 -45.72,0 -91.44,6 -140.62,10.01 0.5,-65.5 45.97,-84.63 89.79,-97.95 193.03,-58.67 389.67,-76.4 577.82,6.92 109.25,48.39 204.97,44.75 311.32,1.14 100.18,-41.08 205.49,-69.71 308.81,-103.01 21.6,-6.96 44.34,-10.41 72.47,-16.82 -3.67,97.34 44.84,189.11 3.09,282.4 -89.23,68.41 -253.34,196.23 -336.44,259.78zm-699.29 116.27l0 0c-49.12,12.55 -90.17,30.31 -117.7,73.16 -16.83,26.21 -20.13,53.04 5.5,69.93 41.83,27.57 87.84,48.79 132.34,72.81 14.82,-20.98 24.43,-34.58 33.3,-47.13 22.8,15.5 42.81,38.35 66.21,42.61 27.43,4.99 57.8,-6.21 79,-9.24 20.58,-63.58 37.01,-114.33 53.44,-165.08 -60.88,44.32 -133.29,-57.1 -182.1,20.84 -4.25,-3.84 -8.11,-10.37 -12.82,-11.06 -18.07,-2.61 -36.4,-3.35 -55.04,-4.82 -0.64,-12.58 -1.28,-25.33 -2.13,-42.02zm393.8 -360.43l0 0c8.91,-36.45 18.03,-73.73 27.57,-112.73 -178.1,-11.19 -185.15,-10.44 -252.59,26.23 72.15,32.46 131.15,92.36 225.02,86.5zm-490.16 305.28l0 0c-64.07,5.91 -103.34,16.3 -116.29,62.99 -9.39,33.88 -26.81,73.4 29.87,105.73 27.44,-53.58 53.06,-103.6 86.42,-168.72z"/>
   <path class="fil0" d="M8653.01 3390.76c-38.98,-447.26 -77.87,-893.54 -117.7,-1350.54 31.36,7.23 52.72,11.54 73.72,17.22 14.12,3.83 27.39,11.11 41.62,14.25 187.38,41.42 341,133.64 453.24,292.62 17.3,24.5 50.45,37.88 76.49,56.08 4.74,3.31 10.52,5.19 15.94,7.43 81.35,33.71 161.04,88.45 244.55,95.07 82.32,6.53 168.45,-35.92 253.05,-56.29 13.24,-3.19 27.22,-3.28 51.92,-6.05 -31.84,313.01 -62.94,618.7 -94.63,930.21 -333.41,0 -660.51,0 -998.2,0zm-1472.74 3972.19c24.21,-21.68 45.56,-40.8 70.72,-63.33 74.84,45.14 148.31,87.11 219.16,133.11 37.87,24.59 71.14,28.97 114.68,12.32 123.16,-47.1 248.36,-88.9 372.82,-132.58 10.71,-3.75 21.94,-6.01 39.62,-10.76 59.89,101.44 113.66,205.92 180.32,301.42 58.56,83.88 66.46,168.73 53.1,265.72 -21.18,153.73 -33.16,308.73 -49.1,463.75 -84.03,-26.43 -831.77,-750.06 -1001.32,-969.65zm909.83 -1671.24c21.16,102.99 36.15,195.69 59.94,286.07 23.03,87.49 55.17,172.58 83.2,258.76 7.16,22.03 18.56,43.88 20.03,66.34 7.45,114.31 12.42,228.78 17.7,343.22 0.35,7.7 -3.97,15.63 -9.09,34.25 -129.59,-62.26 -264.45,-109.94 -379.72,-186.94 -132.72,-88.65 -270.77,-164.04 -412.87,-234.28 -125,-61.78 -124.97,-62.12 -128.71,-203.44 -0.77,-28.97 -0.11,-57.97 -0.11,-78.4 137.16,-68.48 263.8,-136.59 394.67,-195.24 79.67,-35.7 165.26,-58.89 249.44,-83.39 29.82,-8.69 63.35,-4.63 105.52,-6.95zm2810.53 1303.34c-23.28,-21.74 -42.59,-39.26 -61.33,-57.38 -202.65,-195.8 -404.71,-392.22 -608,-587.35 -97.85,-93.93 -119.17,-123.05 -175.96,-264.6 26.52,-10.7 52.63,-22.69 79.69,-31.88 119.4,-40.51 239.01,-80.4 358.66,-120.15 75.46,-25.08 204.86,8.67 254.27,72.22 57.58,74.06 110.4,151.88 163.69,229.18 11.21,16.26 20.64,36.93 22.09,56.23 13.66,181.36 27.47,362.76 36.48,544.38 2.84,57.21 -0.73,118.42 -69.59,159.35zm-708.43 482.71c54.66,15.89 104.23,30.49 153.9,44.71 76.08,21.78 153.68,39.33 227.89,66.22 57.51,20.83 110.46,21.27 158.44,-13.95 97.19,-71.34 177.42,-7.77 259.42,30.68 15.54,7.29 25.57,38.53 27.92,59.84 25.81,234.15 -17.78,457.04 -127.27,663.99 -28.46,53.8 -87.51,91.42 -133.14,137.1 -89.62,-111.15 -540.19,-895.17 -567.16,-988.59z"/>
   <path class="fil2" d="M9609.93 5279.22c0,243.96 0,481.53 0,723.95 -128.24,44.9 -254.79,89.22 -389.23,136.3 13.81,35.38 24.99,64.72 36.67,93.86 147.63,368.01 294.53,736.33 443.91,1103.64 21.24,52.22 21.92,99.21 7.66,153.09 -87.95,332.2 -172.2,665.39 -259.9,997.66 -9.9,37.49 -5.98,67.72 10.84,100.7 39.77,77.97 77.53,156.97 119.59,242.65 -49.9,13.93 -91.6,26.42 -133.74,37.21 -409.44,104.87 -818.61,210.89 -1228.91,312.35 -53.34,13.19 -73.25,38.16 -79.61,86.83 -5.7,43.63 -17.57,86.56 -21.57,130.27 -3.44,37.61 -19.2,58.89 -55.66,68.6 -90.58,24.11 -180.74,49.81 -262.48,72.5 -235.86,-177.67 -469.09,-342.11 -775.64,-373.64 -16.12,-71.62 -32.16,-142.42 -47.9,-213.28 -3.18,-14.32 -4.94,-28.94 -7.82,-43.33 -27.32,-136.79 -27.69,-135.89 -159.65,-186.02 -31.91,-12.12 -59.21,-15.88 -92.57,-2.54 -172.45,68.93 -317.39,14.03 -440.44,-110.15 -117.71,-118.81 -185.37,-264.98 -198.21,-431.78 -6.97,-90.51 13.9,-178.38 99.75,-229.82 36.41,-21.82 43.79,-49.05 46.97,-86.19 17.38,-203.15 2.21,-405.15 -20.62,-606.69 -28.42,-250.83 -61.32,-501.14 -88.83,-752.06 -7.62,-69.49 -23.51,-125.88 -98.97,-147.73 -12.23,-3.54 -21.09,-18.73 -33.66,-30.56 8.08,-12.07 12.64,-23.18 20.71,-30.32 252.21,-222.92 420.9,-503.02 555.41,-807.05 58.21,-131.58 110.62,-266.89 181.94,-391.17 77.07,-134.29 168.68,-261.08 262.93,-384.26 43.51,-56.86 104.69,-102.81 164.65,-143.74 60.43,-41.25 122.96,-34.72 188.41,8.49 62.51,41.27 133.19,74.58 204.82,96.55 111.81,34.29 212.93,-1.47 283.94,-91.6 46.27,-58.72 78.83,-129.76 109.25,-198.93 22.15,-50.38 30.78,-106.71 47.39,-167.52 173.4,-65.98 350.08,-133.21 537.18,-204.4 -6.63,21.75 -7.27,30.18 -11.36,36.33 -71.06,106.89 -55.78,216.65 57.18,312.78 75.37,64.14 162.01,116.22 247.77,166.6 70.63,41.48 147.19,72.94 221.52,107.99 26.09,12.3 53.35,22.08 87.01,35.84 17.33,-33.48 31.95,-64.77 49.2,-94.53 77.98,-134.47 151,-272.36 237.6,-401.08 43.05,-64 107.98,-115.34 169.45,-164.34 65.99,-52.61 148.41,-73.26 231.36,-73.41 37.54,-0.06 81.93,16.92 111.42,40.75 88.96,71.91 171.88,151.28 257.7,227.12 37.38,33.03 73.72,68 114.63,96.13 105.8,72.76 191.95,66.32 287.45,-18.68 21.58,-19.21 39.11,-42.98 66.42,-73.49 13.78,32.88 23.77,52.6 30.46,73.39 35.97,111.83 73.18,223.32 105.6,336.19 14.26,49.66 40.58,77.56 88.82,97.67 306.34,127.72 610.62,260.37 917.32,387.18 55.37,22.9 88.33,55.3 98.55,111.09 31.19,170.18 64.87,340.04 90.01,511.14 28.2,191.9 49.24,384.61 124.18,566.23 39.6,95.99 88.02,186.54 160.47,261.23 30.9,31.84 35.62,60.93 25.26,102.51 -70.93,284.88 -141.73,569.83 -208.11,855.79 -68.12,293.49 -94.75,591.19 -79.23,892.63 1.51,29.5 -8.62,64.34 -24.79,89.29 -182.24,281.12 -367.57,560.23 -549.68,841.44 -26.86,41.47 -57.5,59.19 -101.77,42.44 -115.62,-43.74 -190.6,-1.85 -268.95,90.2 -173.17,203.44 -361.45,393.98 -541.33,591.81 -43.53,47.88 -93.82,75.89 -155.21,92.68 -167.04,45.67 -332.82,95.95 -499.92,141.39 -42.46,11.55 -73.33,31.75 -98.64,67.12 -63.12,88.24 -128.54,174.84 -196.27,266.46 34.31,63.1 66.22,125.49 101.59,185.86 42.17,71.98 71.79,147.47 80.71,230.95 11.51,107.7 31.19,214.27 17.53,324.04 -13.15,105.66 -53.16,197.33 -119.02,279.52 -128.59,160.49 -128.59,157.44 -334.74,170.15 -80.2,4.94 -142.43,-11.47 -191.61,-77.1 -22.7,-30.3 -51.61,-56.51 -80.27,-81.65 -89.53,-78.56 -107.96,-178.78 -86.26,-288.78 17.04,-86.38 39.87,-171.67 61.83,-257.01 72.94,-283.44 84.04,-567.96 17.51,-854.19 -2.66,-11.42 -4.42,-23.09 -5.91,-34.73 -0.3,-2.32 2.55,-5.05 7.19,-13.51 45.76,5.45 74.87,34.7 94.17,74.78 17.78,36.93 31.36,75.85 47.86,113.44 13.73,31.26 29.02,61.84 51.41,109.22 63.57,-137.26 38.64,-260.04 21.57,-403.51 88.01,90.31 163.74,168.03 249.23,255.76 106.5,-267.73 185.28,-533.07 287.66,-803.97 33.84,33.6 60.53,59.46 86.46,86.06 24.44,25.06 48.07,50.9 74.84,79.35 20.45,-8.43 39.58,-14.33 56.82,-23.71 170.26,-92.73 341.46,-183.85 509.94,-279.73 188.08,-107.05 347.15,-250.71 497.92,-404.62 28.6,-29.21 38.87,-60.6 31.31,-95.15 -27.96,-127.83 36.44,-199.7 139.5,-258.85 86.4,-49.59 164.95,-112.67 248.74,-167.05 35.68,-23.16 50.93,-51.5 53.39,-93.69 17.65,-302.12 36.21,-604.2 56.24,-906.17 20.42,-307.74 43.31,-615.31 63.51,-923.05 1.62,-24.65 -3.82,-52.98 -15.23,-74.75 -72.2,-137.74 -148.13,-273.54 -220.63,-411.12 -69.77,-132.36 -130.78,-269.78 -233.81,-382.11 33.68,-19.88 71.74,-32.16 93.52,-58.11 21.26,-25.32 26.57,-64.38 37.67,-97.81 26.58,-80.08 52.46,-160.39 81.61,-249.77 -59.76,-3.07 -108.63,-6.3 -157.56,-7.97 -416.18,-14.16 -769.63,-166.57 -1058.27,-470.31 -63.96,-67.3 -142.32,-121.7 -217.88,-176.8 -32.35,-23.59 -73.38,-37.29 -112.35,-49.5 -190.99,-59.87 -361.79,17.26 -435.27,194.51 -74.86,180.58 -10.03,365.94 161.22,460.04 20.54,11.29 42.02,20.89 67.13,33.28zm-2940.05 2902.82l0 0c6.96,5.04 17.15,11.23 25.99,18.96 240.87,210.6 482.33,420.53 721.99,632.5 98.35,87 210.47,161.82 269.81,285.89 22.19,46.38 58.94,41.83 97.17,27.03 114.05,-44.13 233.3,-71.06 342.96,-131.33 159.22,-87.52 327.39,-158.7 491.37,-237.61 84.07,-40.45 167.34,-82.56 249.11,-123.01 -79.39,-537.1 -41.42,-1063.13 60.65,-1592.86 -73.15,8.43 -135.48,15.62 -204.05,23.54 4.43,-38.52 8.24,-67.02 10.92,-95.62 22.17,-236.6 53.17,-472.81 63.75,-709.93 11.9,-266.85 6.76,-534.53 5.71,-801.84 -0.23,-58.84 14.07,-107.76 48.1,-155.05 71.89,-99.9 140.73,-202 214.68,-308.79 -183.86,-121.87 -364.21,-241.42 -545.19,-361.38 -152.27,104.3 -285.11,242.59 -485.34,212.84 -79.49,81.84 -151.73,163.53 -231.79,236.67 -88.63,80.96 -180.03,160.34 -278.23,228.96 -109.79,76.72 -233.81,108.44 -367.97,63.18 -7.58,-2.56 -17.15,0.8 -29.68,1.68 -15.74,22.51 -32.94,46.03 -49.05,70.28 -92.62,139.46 -183.56,280.05 -278.17,418.14 -34.68,50.62 -49.71,101.56 -49.75,163.62 -0.27,419.87 -1.16,839.79 -8.26,1259.59 -2.87,169.91 -19.83,339.72 -34.07,509.26 -10.05,119.58 -26.33,238.64 -40.66,365.28z"/>
   <path class="fil2" d="M2926.11 10035.83c-9.24,65.17 -17.75,125.16 -28.65,202.05 104.97,-59.94 219.78,-80.24 245.78,-212.56 115.72,28.51 105.25,153.57 175.82,228.78 13.34,-101.79 24.6,-187.76 36.32,-277.2 118,4.36 166.49,108.76 263.07,166.66 -7.19,-70.35 -13.13,-128.52 -20.07,-196.48 29.99,-6.46 57,-14.84 84.6,-17.82 376.44,-40.66 753.49,-76.27 1129.21,-122.71 158,-19.52 276.17,33.03 369.99,152.26 48.48,61.62 89.61,129.01 136.27,197.01 84.5,-59.68 76.65,-158.56 105.39,-248.03 73.93,60.92 146.55,120.78 233.49,192.43 0,-103.69 0,-186.27 0,-282.29 75.35,77.15 144.71,148.17 214.06,219.18 6.85,-4.01 13.69,-8.02 20.54,-12.02 -17.95,-58.25 -35.9,-116.49 -57.43,-186.36 235.85,27.86 453.18,89.26 661.62,185.28 280.38,129.17 513.31,316.3 706.44,570.15 -26.14,10.76 -45.53,20.87 -66.13,26.87 -134.21,39.05 -243.97,111.21 -326.44,226.39 -38.88,54.31 -87.54,101.61 -137.83,159.01 -17.19,-26.8 -30.64,-44.63 -40.84,-64.16 -85.21,-163.18 -215.2,-276.88 -383.43,-348.44 -200.73,-85.4 -412.46,-113.4 -628.27,-117.27 -321.62,-5.78 -638.47,38.66 -954.08,94.49 -566.95,100.29 -1121.01,257.2 -1681.93,384.02 -274.94,62.16 -549.91,122.76 -831.1,147.24 -128.88,11.22 -259.07,11.91 -383.57,-31.79 -45.8,-16.07 -87.68,-43.3 -140.86,-70.26 34.33,-53.3 61.96,-97.29 90.68,-140.55 63.36,-95.46 125.01,-192.18 191.98,-285.05 30.31,-42.03 34.01,-73.51 3.05,-117.33 -71.18,-100.76 -137.19,-205.17 -205,-308.29 -10.76,-16.36 -20,-33.71 -30.44,-51.45 417.97,-20.69 829.36,-41.05 1247.76,-61.76z"/>
   <path class="fil2" d="M11659.94 11017.71c-79.02,-91.05 -147.67,-174.61 -221.18,-253.65 -76.63,-82.37 -184.34,-109.16 -286.66,-143.29 134.96,-343.33 911.83,-767.06 1405.02,-763.1 -25.4,72.71 -49.71,142.29 -78.41,224.45 66.58,-20.43 99.34,-61.54 134.28,-98.21 35.96,-37.72 68.88,-78.33 111.59,-127.39 0,95.27 0,177.1 0,267.73 98.88,-27.43 155.47,-110.7 229.8,-168.69 24.54,70.35 45.47,136.16 71.16,200.04 6.69,16.64 28.23,27.31 48.68,45.95 13.27,-21.13 22.76,-37.66 33.61,-53.24 40.19,-57.69 76.11,-119.22 122.33,-171.65 85.12,-96.53 188.45,-154.92 325.3,-141.18 239.45,24.05 479.6,41.03 719.05,65.03 154.72,15.5 308.72,38.16 463.02,57.82 14.08,1.79 27.98,5.04 50.84,9.25 -6.36,68.5 -12.43,133.75 -19.33,207.97 88.82,-57.18 144.83,-150.11 261.79,-172.42 12.68,89.44 25.18,177.67 39.18,276.38 70.12,-65.26 58.32,-191.99 172.62,-222.91 28.42,129.02 139.34,156.04 243.84,207.92 -12.02,-74.48 -22.64,-140.26 -34.05,-210.94 401.48,19.69 798.7,39.17 1207.13,59.2 -84.39,142.11 -181.45,276.62 -270.92,420.19 104.11,157.1 207.62,313.32 313.15,472.59 -38.39,52.95 -92.28,73.44 -148.04,90.57 -137.85,42.35 -278.95,37.68 -419.45,23.12 -442.49,-45.88 -870.01,-166.22 -1301.76,-265.51 -385.98,-88.76 -770.66,-184.16 -1158.78,-262.38 -336.61,-67.86 -677.78,-111.26 -1023.05,-96.93 -176.4,7.31 -350.91,28.08 -517.76,91.21 -188.16,71.17 -337.59,187.44 -431.88,368.66 -9.26,17.79 -21.82,33.87 -41.12,63.41z"/>
   <path class="fil2" d="M9285.85 18375.03c-52.86,0 -92.84,0 -141.74,0 0,-243.84 0,-483.58 0,-728.12 -57.36,1.85 -79.22,31.12 -93.69,72.05 -23.48,66.45 -48.33,132.43 -73.34,198.33 -10.28,27.1 -22.46,53.48 -34.5,81.9 -203.58,0 -402.82,0 -607.67,0 -77.63,-129.54 -162.55,-257.25 -300.93,-365.86 0,124.23 0,231.69 0,345.16 -178.98,0 -347.35,0 -523.07,0 21.89,-665.05 73.51,-1322.94 115.93,-1991.33 116.71,0 232.79,0 358.79,0 2.78,57.31 6.75,120.57 8.74,183.89 5,158.52 8.31,317.1 14.29,475.58 1.07,28.26 6.12,59.05 18.91,83.69 43.19,83.21 90.7,164.18 137.69,248.03 181.1,0 359.27,0 546.25,0 17.68,-183.33 35.25,-365.53 53.6,-555.72 -49.33,-8.21 -91.26,-15.19 -143.36,-23.86 -16.06,87.85 -31.07,169.94 -47.31,258.73 -162.87,11.38 -322.69,22.54 -491.35,34.32 0,-238.68 0,-471.85 0,-712.67 283.85,-4.97 567.53,-9.94 848.19,-14.85 77.47,137.16 49.18,314.16 204.52,425.62 8.47,-299.87 2.85,-585.38 3.73,-870.73 0.9,-288.04 -0.07,-576.08 -0.22,-864.12 -0.15,-288.04 -0.42,-576.07 -0.41,-864.11 0.02,-288.04 0.39,-576.08 0.47,-864.12 0.09,-287.73 0.02,-575.47 0.02,-870.69 48.17,0 90.08,0 142.55,0 17.62,2103.54 -5.42,4206.43 3.91,6318.88z"/>
   <path class="fil2" d="M6694.89 11515.09c50.94,48.69 100.24,94.11 147.65,141.42 208.19,207.71 420.49,410.33 663.44,578.47 397.84,275.35 837.95,445.46 1311.81,532.75 83.55,15.39 167.68,27.57 257.19,42.16 0,307.58 0,614.7 0,927.69 -27.24,1.67 -49.58,4.84 -71.79,4.12 -358.78,-11.67 -702.72,-94.64 -1037.96,-218.1 -575.14,-211.8 -1080.76,-538.8 -1543.4,-935.93 -230.11,-197.54 -448,-408.68 -623.4,-656.74 -97.78,-138.28 -176.21,-290.85 -256.08,-440.87 -28.21,-52.98 -41.11,-116.57 -49.85,-176.94 -16.34,-112.9 42.25,-174.64 152.87,-191.09 102.56,-15.25 177.69,22.64 240.01,96.47 37.82,44.81 70.46,93.95 106.83,140.04 50.89,64.49 99.89,130.88 155.56,191.04 65.58,70.89 149.83,110.29 245.52,128.25 96.55,18.12 172.85,-13.34 236.26,-83.84 21.42,-23.84 40.98,-49.35 65.34,-78.9z"/>
   <path class="fil2" d="M9549.03 12767.17c48.19,-11.55 96.16,-23.59 144.37,-34.53 471.04,-106.86 897.51,-307.08 1278.07,-605.52 187.7,-147.2 361.42,-309.32 527.15,-480.32 42.87,-44.24 82.7,-91.42 128.85,-142.73 32.15,37.39 54.32,63.52 76.86,89.33 63.33,72.49 141.71,101.73 236.85,81.14 84.56,-18.31 165.21,-47.96 224.41,-113.14 68.92,-75.89 132.11,-156.97 197.61,-235.95 39.3,-47.37 75.48,-97.7 117.99,-141.97 77.45,-80.66 175.15,-73.69 270.5,-46.28 65.52,18.84 100.08,99.54 86.39,183.84 -15.62,96.15 -48.72,186.02 -92.73,273.79 -148.16,295.46 -355.01,544.53 -590.85,772.9 -401.77,389.06 -850.42,712.11 -1349.13,964.86 -368.83,186.93 -755.91,319.86 -1166.2,380.55 -28.11,4.16 -56.7,4.97 -90.14,7.75 0,-320.85 0,-634.23 0,-953.72z"/>
   <path class="fil2" d="M4249.89 6933.39c62.55,31.73 111.16,56.67 160.2,80.76 3.81,1.87 10.57,-2.28 20.77,-4.84 -11.33,-73.45 -22.77,-147.64 -35.62,-230.96 274.84,215.85 471.81,471.62 539.43,810.43 -50.95,-23.09 -102.44,-46.43 -169.33,-76.74 97.59,280.79 75.07,547.82 27.75,829.91 116.39,-56.02 130.33,-163.53 176.45,-263.19 181.24,347.85 180.42,712.97 163.02,1080.79 257.17,70.65 385.73,266.32 509.94,485.07 -44.98,-2.5 -76.61,-4.25 -111.08,-6.17 -3.88,15.68 -7.88,31.82 -13.53,54.64 -35.36,-17.14 -68.34,-33.12 -105.19,-50.98 -21.6,29.57 -41.65,57 -60.88,83.32 -8.78,-1.83 -16.05,-1.13 -19.61,-4.42 -68.05,-63.15 -136,-93.87 -240.55,-83.01 -175.72,18.24 -348.94,-25.15 -512.71,-98.47 -75.78,-33.93 -122.95,-88.93 -145.34,-166.04 -23.72,-81.7 -42.61,-164.81 -65.92,-246.65 -42.49,-149.14 -86.68,-297.79 -131.75,-452.09 46.68,4.96 97.71,10.38 158.09,16.81 -11.04,-24.87 -18.44,-42.27 -26.43,-59.41 -61.95,-132.86 -122.99,-266.17 -186.43,-398.31 -34.24,-71.34 -69.42,-142.6 -110.05,-210.38 -44.6,-74.42 -89.21,-111.81 -183.92,-172.07 13.25,-20.94 26.54,-42.02 39.91,-63.03 70.84,-111.33 146.95,-219.7 211.27,-334.68 87.66,-156.71 129.38,-326.92 111.51,-520.29z"/>
   <path class="fil2" d="M13479.29 8162.46c46.07,97.1 63.96,200.17 171.39,256.34 -29.91,-277.91 -69.34,-543.16 25.12,-810.1 -63.44,-4.58 -110.18,28.04 -162.13,64.26 67.95,-348.55 266.5,-599.99 540.52,-816.49 -12.87,82 -23.96,152.75 -36.01,229.55 67.54,8.32 106.51,-45.5 170.58,-70.07 -13.84,361.64 167.38,637.04 377.98,907.2 -187.65,107.24 -259.22,291.5 -337.86,471.49 -52.64,120.49 -108.79,239.44 -166.1,365.05 47.55,21.1 98.56,-16.01 155.07,-2.15 -15.43,39.81 -32.71,76.06 -43.65,114.13 -38.9,135.32 -75.23,271.39 -113.38,406.93 -17.48,62.12 -37.75,123.44 -55.24,185.55 -19.61,69.65 -62.34,116.84 -128.07,147.27 -190.96,88.41 -390.1,126.14 -599.3,97.33 -29.33,-4.04 -49.65,-2.7 -71.47,16.73 -32.57,29 -67.37,55.49 -105.73,86.72 -21.26,-29.61 -39.35,-54.79 -61.94,-86.23 -37.4,16.17 -73.82,31.91 -115.54,49.95 -2.67,-20.97 -4.69,-36.9 -7.5,-59 -30.52,0 -61.33,0 -108.21,0 126.58,-216.82 257.15,-407.39 508.7,-483.93 -16.88,-362.53 -17.58,-724.34 162.77,-1070.53z"/>
   <path class="fil2" d="M10067.33 15951.56c160.74,0 318.37,0 475.52,0 -7.87,126.22 -21.46,250.09 -21.68,373.98 -0.22,125.34 12.81,250.7 20.4,382.45 -83.96,0 -155.75,0 -235.3,0 -5.53,-70.98 -10.9,-139.84 -16.25,-208.48 -113.42,9.35 -114.87,11.02 -123.09,116.32 -5.95,76.03 -12.4,152.02 -19.04,227.99 -6.83,78.19 47.73,138.28 128.17,138.66 131.93,0.63 263.85,0.17 407.38,0.17 -62.92,284.01 -109.03,563.2 -50.27,859.12 -132.43,13.85 -232,94.31 -342.51,152.67 -25.04,13.22 -54.75,23.63 -82.62,24.4 -102.56,2.87 -205.24,1.14 -313.91,1.14 -4.85,-27.47 -12.36,-52.11 -13.07,-76.95 -4.56,-158.38 -63.93,-297.2 -152.54,-424.63 -43.87,-63.09 -96.21,-118.9 -179.92,-135.38 0,-281.8 0,-563.33 0,-854.33 235.3,-125.58 418.98,-307.3 518.73,-577.13z"/>
   <path class="fil2" d="M4293.24 5561.16c143.86,5.7 281.11,22.47 420.68,-25.39 -38.06,-54.43 -72.08,-103.07 -117.09,-167.43 36.04,9.08 53.43,10.65 68.29,17.62 191.17,89.67 383.42,177.24 572.04,272.03 59.06,29.68 107.36,80.34 162.07,119.32 20.62,14.69 44.28,28.24 68.54,34.12 88.37,21.41 178.3,36.63 266.2,59.7 47.48,12.46 84.71,6.28 121.26,-25.97 30.01,-26.48 63.8,-48.65 107.96,-64.28 -13.28,34.53 -25.91,69.33 -39.97,103.54 -37.94,92.34 -80.35,183.07 -113.38,277.11 -20.21,57.55 -57.98,82.51 -111.58,76.84 -60.37,-6.37 -120.64,-20.87 -178.78,-38.86 -44.13,-13.65 -84.85,-38.31 -135.26,-61.9 1.42,24.76 2.46,42.95 3.45,60.24 -169.26,-91.59 -335.52,-188.36 -507.79,-272.89 -174.86,-85.8 -364.07,-128.32 -554.2,-146 -11.11,-74.61 -21.29,-142.91 -32.44,-217.8z"/>
   <path class="fil2" d="M14150.97 5643.1c-9.25,70.52 -17.91,136.49 -28.05,213.75 -389.61,26.23 -724.31,203.47 -1040.23,417.88 -6.66,-1.64 -11.6,-2.13 -11.66,-2.98 -1.22,-16.38 -1.86,-32.8 -2.97,-56.71 -53.35,23.13 -103.63,45.14 -154.07,66.76 -60.43,25.89 -122.95,40.87 -188.82,28.63 -31.64,-5.89 -61.57,-14.4 -75.98,-50.87 -50.43,-127.61 -103.01,-254.37 -143.41,-393.5 28.82,21.66 59.17,41.59 86.04,65.44 31.41,27.87 64.56,36.4 105.44,26.34 99.69,-24.53 200.06,-46.33 299.68,-71.13 18.64,-4.63 36.55,-16.15 52.22,-27.91 49.08,-36.84 93.91,-80.19 145.8,-112.27 185.37,-114.6 383.07,-204.54 586.57,-281.91 15.84,-6.02 32.58,-9.67 70.69,-20.78 -48.39,67.13 -84.58,117.32 -124.8,173.11 142.47,45.52 283.43,18.56 423.55,26.15z"/>
   <path class="fil2" d="M5638.34 10854.02c18.44,-40.65 39.19,-69.38 86.13,-65.13 258.64,23.43 493.59,99.23 666.88,306.68 25.54,30.57 45.04,68.33 58.93,105.88 13.82,37.33 6.48,76.49 -28.42,102.65 -32.48,24.37 -68.05,17.84 -98.72,-2.62 -26.2,-17.47 -55.67,-37.01 -70.74,-63.11 -135.62,-234.83 -347.84,-344.94 -614.06,-384.35z"/>
   <path class="fil2" d="M12711.45 10876.6c-154.14,12.91 -290.18,66.89 -413.97,153.54 -77.76,54.43 -142.05,119.65 -189.68,203.19 -19.25,33.76 -52.81,60.8 -83.85,85.98 -26.95,21.86 -60.65,22.43 -90.35,2.15 -32.23,-22 -44.99,-56.6 -34.94,-92.05 9.27,-32.69 25.53,-65.63 46.43,-92.44 137.84,-176.82 321.56,-275.94 541.08,-311.74 37.46,-6.12 75.51,-8.7 112.88,-15.23 54.22,-9.46 89.61,11.36 112.4,66.6z"/>
   <path class="fil2" d="M4152.46 6679.2c21.71,39.81 43.42,79.62 73.8,135.33 -60.59,-53.91 -60.59,-53.91 -73.8,-135.33z"/>
   <path class="fil2" d="M8756.39 2386.95c80,16.1 148.41,27.11 214.98,44.97 19.63,5.27 35.8,28.43 50.61,45.9 110.98,130.99 193.49,197.22 356.54,283.53 70.1,-32.22 141.55,-65.06 225.65,-103.72 -31.67,183.85 -86.05,349.62 -131.11,522.84 -192.65,0 -382.16,0 -585.07,0 -47.03,-256.21 -84.29,-517.8 -131.6,-793.52zm1516.97 3838.81c132.45,29.25 259.79,57.37 396.17,87.49 -10.98,87.83 -21.33,170.58 -31.89,255.03 -57.81,-26.79 -314.85,-268.58 -364.28,-342.52zm494.28 1616.51c21.09,55.61 34.42,97.45 52.52,137.1 38.04,83.33 18.55,150.17 -55.51,207.61 -71.4,-120.14 -142.18,-239.23 -221.11,-372.05 84.07,10.26 154.23,18.82 224.1,27.34zm-2668.18 -197.21c34.52,138.87 78.91,261.98 6.99,400.26 -148.29,-138.23 -294.09,-274.14 -439.89,-410.05 2.18,-5.97 4.37,-11.95 6.55,-17.92 54.58,9.58 109.78,16.62 163.62,29.33 85.16,20.11 169.31,46.89 262.73,-1.62zm-29.8 -1270.23c-145.35,5.16 -277.58,-42.34 -487.67,-176.39 24.85,-47.96 62.39,-78.46 114.23,-95.03 96.58,-30.87 192.51,-63.76 287.05,-95.26 75.44,149.25 99.73,255.45 86.39,366.68z"/>
  </g>
 </g>
</svg>
